<?xml version="1.0" encoding="UTF-8" standalone="no"?>
<!DOCTYPE svg PUBLIC "-//W3C//DTD SVG 1.1//EN" "http://www.w3.org/Graphics/SVG/1.1/DTD/svg11.dtd">
<!-- Generated by Microsoft Visio, SVG Export model_workflow_diagram.svg Page-1 -->
<svg xmlns="http://www.w3.org/2000/svg" xmlns:xlink="http://www.w3.org/1999/xlink" xmlns:ev="http://www.w3.org/2001/xml-events"
		xmlns:v="http://schemas.microsoft.com/visio/2003/SVGExtensions/" width="9.9529in" height="4.47663in"
		viewBox="0 0 716.609 322.317" xml:space="preserve" color-interpolation-filters="sRGB" class="st18">
	<v:documentProperties v:langID="1033" v:metric="true" v:viewMarkup="false"/>

	<style type="text/css">
	<![CDATA[
		.st1 {fill:#bfbfbf;fill-opacity:0.5;stroke:#c7c8c8;stroke-width:0.25}
		.st2 {fill:#feffff;fill-opacity:0.5}
		.st3 {stroke:#c7c8c8;stroke-width:0.25;visibility:hidden}
		.st4 {fill:#3f3f3f;font-family:Calibri;font-size:1.99999em;font-weight:bold}
		.st5 {fill:#deebf6;stroke:#002060;stroke-width:1.5}
		.st6 {fill:#002060;font-family:Calibri;font-size:0.916672em;font-weight:bold}
		.st7 {font-size:1em}
		.st8 {fill:#dae2f3;stroke:#203864;stroke-width:1.5}
		.st9 {fill:#5b9bd5;stroke:none;stroke-linecap:butt;stroke-width:0.75}
		.st10 {fill:#9dadc2;stroke:none;stroke-linecap:butt;stroke-width:0.75}
		.st11 {fill:#3c63ac;stroke:#002060;stroke-width:1.5}
		.st12 {fill:#feffff;font-family:Calibri;font-size:0.833336em;font-weight:bold}
		.st13 {fill:#bfbfbf;fill-opacity:0.5}
		.st14 {font-size:0.818177em;font-weight:normal}
		.st15 {fill:#002060;font-family:Calibri;font-size:0.833336em;font-weight:bold}
		.st16 {stroke:#002060;stroke-linecap:round;stroke-linejoin:round;stroke-width:1}
		.st17 {fill:#bfbfbf;stroke:none;stroke-linecap:butt;stroke-width:0.75}
		.st18 {fill:none;fill-rule:evenodd;font-size:12px;overflow:visible;stroke-linecap:square;stroke-miterlimit:3}
	]]>
	</style>

	<g v:mID="0" v:index="1" v:groupContext="foregroundPage">
		<title>Page-1</title>
		<v:pageProperties v:drawingScale="0.0393701" v:pageScale="0.0393701" v:drawingUnits="24" v:shadowOffsetX="8.50394"
				v:shadowOffsetY="-8.50394"/>
		<v:layer v:name="Connector" v:index="0"/>
		<g id="shape1100-1" v:mID="1100" v:groupContext="shape" transform="translate(348.337,1.75476) rotate(90)">
			<title>Pie Slice.1000</title>
			<v:userDefs>
				<v:ud v:nameU="CtrlAng1" v:prompt="" v:val="VT0(5.4977871437822):32"/>
				<v:ud v:nameU="CtrlAng2" v:prompt="" v:val="VT0(0.78539816339745):32"/>
				<v:ud v:nameU="InnerDist" v:prompt="" v:val="VT0(0):24"/>
				<v:ud v:nameU="MidAngle" v:prompt="" v:val="VT0(6.2831853071796):32"/>
				<v:ud v:nameU="visVersion" v:prompt="" v:val="VT0(15):26"/>
				<v:ud v:nameU="CtrlAng1" v:prompt="" v:val="VT0(3.5975744257154):32"/>
				<v:ud v:nameU="CtrlAng2" v:prompt="" v:val="VT0(1.5693259578206):32"/>
				<v:ud v:nameU="InnerDist" v:prompt="" v:val="VT0(1.0544311613544):1"/>
				<v:ud v:nameU="MidAngle" v:prompt="" v:val="VT0(5.7250428453578):32"/>
			</v:userDefs>
			<path d="M81.76 205.82 L15.32 238.41 A149.925 149.925 -180 1 0 150.15 22.47 L150.04 96.47 A75.919 75.919 0 1 1 81.76
						 205.82 Z" class="st1"/>
		</g>
		<g id="shape1101-3" v:mID="1101" v:groupContext="shape" transform="translate(59.0906,-58.1929)">
			<title>Venn Diagram Shape.1060</title>
			<desc>Initialisation</desc>
			<v:userDefs>
				<v:ud v:nameU="AccentColorID" v:prompt="" v:val="VT0(6):26"/>
				<v:ud v:nameU="visVersion" v:prompt="" v:val="VT0(15):26"/>
				<v:ud v:nameU="AccentColorID" v:prompt="" v:val="VT0(4):26"/>
			</v:userDefs>
			<v:textBlock v:margins="rect(4,4,4,4)" v:tabSpace="42.5197"/>
			<v:textRect cx="115.984" cy="207.514" width="231.97" height="229.606"/>
			<ellipse cx="115.984" cy="207.514" rx="115.984" ry="114.803" class="st2"/>
			<ellipse cx="115.984" cy="207.514" rx="115.984" ry="114.803" class="st3"/>
			<text x="53.76" y="214.71" class="st4" v:langID="2057"><v:paragraph v:horizAlign="1"/><v:tabList/>Initialisation</text>		</g>
		<g id="shape1102-7" v:mID="1102" v:groupContext="shape" transform="translate(1.5,-138.819)">
			<title>Circle.1022</title>
			<desc>Age and Gender</desc>
			<v:userDefs>
				<v:ud v:nameU="visVersion" v:val="VT0(15):26"/>
				<v:ud v:nameU="visMasterStencil" v:prompt="" v:val="VT4(Basic_M.vssx)"/>
			</v:userDefs>
			<v:textBlock v:margins="rect(4,4,4,4)" v:tabSpace="42.5197"/>
			<v:textRect cx="28.3465" cy="293.971" width="49.61" height="42.5197"/>
			<path d="M0 293.97 A28.3465 28.3465 0 0 1 56.69 293.97 A28.3465 28.3465 0 1 1 0 293.97 Z" class="st5"/>
			<text x="9.78" y="290.67" class="st6" v:langID="2057"><v:paragraph v:horizAlign="1"/><v:tabList/>Age and<v:newlineChar/><tspan
						x="11.45" dy="1.2em" class="st7">Gender</tspan></text>		</g>
		<g id="shape1103-11" v:mID="1103" v:groupContext="shape" transform="translate(36.1434,-52.7936)">
			<title>Circle.1023</title>
			<desc>SES</desc>
			<v:userDefs>
				<v:ud v:nameU="visVersion" v:val="VT0(15):26"/>
				<v:ud v:nameU="visMasterStencil" v:prompt="" v:val="VT4(Basic_M.vssx)"/>
			</v:userDefs>
			<v:textBlock v:margins="rect(4,4,4,4)" v:tabSpace="42.5197"/>
			<v:textRect cx="28.3465" cy="293.971" width="49.61" height="42.5197"/>
			<path d="M0 293.97 A28.3465 28.3465 0 0 1 56.69 293.97 A28.3465 28.3465 0 1 1 0 293.97 Z" class="st8"/>
			<text x="20.46" y="297.27" class="st6" v:langID="2057"><v:paragraph v:horizAlign="1"/><v:tabList/>SES</text>		</g>
		<g id="shape1104-14" v:mID="1104" v:groupContext="shape" transform="translate(111.059,-6.89933)">
			<title>Circle.1007</title>
			<desc>Risk Factors</desc>
			<v:userDefs>
				<v:ud v:nameU="visVersion" v:val="VT0(15):26"/>
				<v:ud v:nameU="visMasterStencil" v:prompt="" v:val="VT4(Basic_M.vssx)"/>
			</v:userDefs>
			<v:textBlock v:margins="rect(4,4,4,4)" v:tabSpace="42.5197"/>
			<v:textRect cx="28.3465" cy="293.971" width="49.61" height="42.5197"/>
			<path d="M0 293.97 A28.3465 28.3465 0 0 1 56.69 293.97 A28.3465 28.3465 0 1 1 0 293.97 Z" class="st8"/>
			<text x="19.07" y="290.67" class="st6" v:langID="2057"><v:paragraph v:horizAlign="1"/><v:tabList/>Risk <tspan x="11.79"
						dy="1.2em" class="st7">Factors</tspan></text>		</g>
		<g id="shape1105-18" v:mID="1105" v:groupContext="shape" transform="translate(200.823,-11.6237)">
			<title>Circle.1008</title>
			<desc>Disease status</desc>
			<v:userDefs>
				<v:ud v:nameU="visVersion" v:val="VT0(15):26"/>
				<v:ud v:nameU="visMasterStencil" v:prompt="" v:val="VT4(Basic_M.vssx)"/>
			</v:userDefs>
			<v:textBlock v:margins="rect(4,4,4,4)" v:tabSpace="42.5197"/>
			<v:textRect cx="28.3465" cy="293.971" width="49.61" height="42.5197"/>
			<path d="M0 293.97 A28.3465 28.3465 0 0 1 56.69 293.97 A28.3465 28.3465 0 1 1 0 293.97 Z" class="st5"/>
			<text x="10.89" y="290.67" class="st6" v:langID="2057"><v:paragraph v:horizAlign="1"/><v:tabList/>Disease <tspan
						x="14.48" dy="1.2em" class="st7">status</tspan></text>		</g>
		<g id="shape1106-22" v:mID="1106" v:groupContext="shape" transform="translate(289.912,-114.886)">
			<title>Circle.1009</title>
			<desc>Publish results</desc>
			<v:userDefs>
				<v:ud v:nameU="visVersion" v:val="VT0(15):26"/>
				<v:ud v:nameU="visMasterStencil" v:prompt="" v:val="VT4(Basic_M.vssx)"/>
			</v:userDefs>
			<v:textBlock v:margins="rect(4,4,4,4)" v:tabSpace="42.5197"/>
			<v:textRect cx="28.3465" cy="293.971" width="49.61" height="42.5197"/>
			<path d="M0 293.97 A28.3465 28.3465 0 0 1 56.69 293.97 A28.3465 28.3465 0 1 1 0 293.97 Z" class="st5"/>
			<text x="11.67" y="290.67" class="st6" v:langID="2057"><v:paragraph v:horizAlign="1"/><v:tabList/>Publish <tspan
						x="13.03" dy="1.2em" class="st7">results</tspan></text>		</g>
		<g id="shape1107-26" v:mID="1107" v:groupContext="shape" transform="translate(244.017,-35.9207)">
			<title>Circle.1010</title>
			<desc>Average relative risk</desc>
			<v:userDefs>
				<v:ud v:nameU="visVersion" v:val="VT0(15):26"/>
				<v:ud v:nameU="visMasterStencil" v:prompt="" v:val="VT4(Basic_M.vssx)"/>
			</v:userDefs>
			<v:textBlock v:margins="rect(4,4,4,4)" v:tabSpace="42.5197"/>
			<v:textRect cx="28.3465" cy="293.971" width="49.61" height="42.5197"/>
			<path d="M0 293.97 A28.3465 28.3465 0 0 1 56.69 293.97 A28.3465 28.3465 0 1 1 0 293.97 Z" class="st5"/>
			<text x="9.6" y="284.07" class="st6" v:langID="2057"><v:paragraph v:horizAlign="1"/><v:tabList/>Average <tspan
						x="10.93" dy="1.2em" class="st7">relative </tspan><tspan x="20.21" dy="1.2em" class="st7">risk</tspan></text>		</g>
		<g id="shape1108-31" v:mID="1108" v:groupContext="shape" transform="translate(25.7314,88.8585) rotate(-62.2895)">
			<title>Expand.1028</title>
			<v:userDefs>
				<v:ud v:nameU="msvShapeCategories" v:prompt="" v:val="VT4(Icon)"/>
				<v:ud v:nameU="visVersion" v:prompt="" v:val="VT0(15):26"/>
			</v:userDefs>
			<path d="M10.85 322.32 L8.88 320.31 L16.77 312.29 L8.88 304.28 L10.85 302.27 L20.72 312.29 L10.85 322.32 ZM1.97 322.32
						 L0 320.31 L7.89 312.29 L0 304.28 L1.97 302.27 L11.84 312.29 L1.97 322.32 Z" class="st9"/>
		</g>
		<g id="shape1109-33" v:mID="1109" v:groupContext="shape" transform="translate(337.11,177.539) rotate(105)">
			<title>Expand.1033</title>
			<v:userDefs>
				<v:ud v:nameU="msvShapeCategories" v:prompt="" v:val="VT4(Icon)"/>
				<v:ud v:nameU="visVersion" v:prompt="" v:val="VT0(15):26"/>
			</v:userDefs>
			<path d="M10.85 322.32 L8.88 320.31 L16.77 312.29 L8.88 304.28 L10.85 302.27 L20.72 312.29 L10.85 322.32 ZM1.97 322.32
						 L0 320.31 L7.89 312.29 L0 304.28 L1.97 302.27 L11.84 312.29 L1.97 322.32 Z" class="st9"/>
		</g>
		<g id="shape1110-35" v:mID="1110" v:groupContext="shape" transform="translate(324.245,83.9885) rotate(70.1841)">
			<title>Expand.1016</title>
			<v:userDefs>
				<v:ud v:nameU="msvShapeCategories" v:prompt="" v:val="VT4(Icon)"/>
				<v:ud v:nameU="visVersion" v:prompt="" v:val="VT0(15):26"/>
			</v:userDefs>
			<path d="M10.85 322.32 L8.88 320.31 L16.77 312.29 L8.88 304.28 L10.85 302.27 L20.72 312.29 L10.85 322.32 ZM1.97 322.32
						 L0 320.31 L7.89 312.29 L0 304.28 L1.97 302.27 L11.84 312.29 L1.97 322.32 Z" class="st9"/>
		</g>
		<g id="shape1111-37" v:mID="1111" v:groupContext="shape" transform="translate(62.5954,-157.608)">
			<title>Users.1083</title>
			<v:userDefs>
				<v:ud v:nameU="msvShapeCategories" v:prompt="" v:val="VT4(Icon)"/>
				<v:ud v:nameU="visVersion" v:prompt="" v:val="VT0(15):26"/>
			</v:userDefs>
			<path d="M16.81 309.43 A2.45467 2.49394 -180 0 0 19.26 306.94 A2.45467 2.49394 -180 0 0 16.81 304.45 A2.45559 2.49488
						 -180 0 0 14.35 306.94 A2.45605 2.49535 -180 0 0 16.81 309.43 ZM16.81 303.2 A3.67871 3.73757 0 0 1 20.49
						 306.94 A3.67871 3.73757 0 0 1 16.81 310.68 A3.67856 3.73742 0 0 1 13.13 306.94 A3.67856 3.73742 0 0 1 16.81
						 303.2 ZM6.14 320.88 A4.28693 4.35552 -180 0 0 11.05 318.39 A5.39303 5.47931 -180 0 0 8.69 313.55 A18040.5
						 18329.2 -180 0 0 6.14 318.65 A9164.73 9311.37 0 0 1 3.6 313.55 A5.39362 5.47992 -180 0 0 1.24 318.39 A4.28644
						 4.35503 -180 0 0 6.14 320.88 ZM8.57 312.02 A6.46352 6.56693 0 0 1 12.28 318.39 A4.89835 4.97673 0 0 1 6.14
						 322.13 A4.89795 4.97632 0 0 1 0.01 318.39 A6.46624 6.5697 0 0 1 3.72 312.02 A4.40297 4.47342 -180 0 0 4.39
						 312.39 L6.14 315.9 L7.9 312.39 A4.33568 4.40505 -180 0 0 8.57 312.02 ZM19.23 310.54 A6.46352 6.56693 0 0
						 1 22.94 316.91 A4.89835 4.97673 0 0 1 16.81 320.64 A9.76426 9.92048 0 0 1 12.7 319.89 A3.72224 3.78179 -180
						 0 0 12.98 318.63 A8.45173 8.58696 -180 0 0 16.81 319.4 A4.28693 4.35552 -180 0 0 21.71 316.91 A5.39174 5.47801
						 -180 0 0 19.36 312.07 A11537.6 11722.2 -180 0 0 16.81 317.16 A12841 13046.5 0 0 1 14.26 312.07 A4.88739
						 4.96559 -180 0 0 12.24 314.74 A6.94134 7.0524 -180 0 0 11.45 313.41 A5.76924 5.86155 0 0 1 14.38 310.54
						 A4.40297 4.47342 -180 0 0 15.05 310.91 L16.81 314.41 L18.56 310.91 A4.33568 4.40505 -180 0 0 19.23 310.54
						 ZM6.14 310.91 A2.45421 2.49348 -180 0 0 8.6 308.42 A2.45467 2.49394 -180 0 0 6.14 305.93 A2.45559 2.49488
						 -180 0 0 3.69 308.42 A2.45605 2.49535 -180 0 0 6.14 310.91 ZM6.14 304.68 A3.67871 3.73757 0 0 1 9.82 308.42
						 A3.67871 3.73757 0 0 1 6.14 312.16 A3.67856 3.73742 0 0 1 2.47 308.42 A3.67856 3.73742 0 0 1 6.14 304.68
						 Z" class="st10"/>
		</g>
		<g id="shape1112-39" v:mID="1112" v:groupContext="shape" transform="translate(55.416,-250.949)">
			<title>Circle.1021</title>
			<desc>Time=Start</desc>
			<v:userDefs>
				<v:ud v:nameU="visVersion" v:val="VT0(15):26"/>
				<v:ud v:nameU="visMasterStencil" v:prompt="" v:val="VT4(Basic_M.vssx)"/>
			</v:userDefs>
			<v:textBlock v:margins="rect(4,4,4,4)" v:tabSpace="42.5197" v:verticalAlign="0"/>
			<v:textRect cx="31.1811" cy="291.136" width="54.57" height="46.7717"/>
			<path d="M0 291.14 A31.1811 31.1811 0 1 1 62.36 291.14 A31.1811 31.1811 0 0 1 0 291.14 Z" class="st11"/>
			<text x="8.33" y="280.75" class="st12" v:langID="2057"><v:paragraph v:horizAlign="1"/><v:tabList/>Time=Start</text>		</g>
		<g id="shape1113-42" v:mID="1113" v:groupContext="shape" transform="translate(404.491,-12.9318)">
			<title>Venn Diagram Shape.1059</title>
			<v:userDefs>
				<v:ud v:nameU="AccentColorID" v:prompt="" v:val="VT0(6):26"/>
				<v:ud v:nameU="visVersion" v:prompt="" v:val="VT0(15):26"/>
				<v:ud v:nameU="AccentColorID" v:prompt="" v:val="VT0(4):26"/>
			</v:userDefs>
			<ellipse cx="149.925" cy="172.392" rx="149.925" ry="149.925" class="st13"/>
			<ellipse cx="149.925" cy="172.392" rx="149.925" ry="149.925" class="st3"/>
		</g>
		<g id="shape1114-45" v:mID="1114" v:groupContext="shape" transform="translate(450.699,-58.1929)">
			<title>Venn Diagram Shape.1023</title>
			<desc>Projection</desc>
			<v:userDefs>
				<v:ud v:nameU="AccentColorID" v:prompt="" v:val="VT0(6):26"/>
				<v:ud v:nameU="visVersion" v:prompt="" v:val="VT0(15):26"/>
				<v:ud v:nameU="AccentColorID" v:prompt="" v:val="VT0(5):26"/>
			</v:userDefs>
			<v:textBlock v:margins="rect(4,4,4,4)" v:tabSpace="42.5197"/>
			<v:textRect cx="103.422" cy="218.895" width="206.85" height="206.844"/>
			<ellipse cx="103.422" cy="218.895" rx="103.422" ry="103.422" class="st2"/>
			<ellipse cx="103.422" cy="218.895" rx="103.422" ry="103.422" class="st3"/>
			<text x="52.19" y="226.1" class="st4" v:langID="2057"><v:paragraph v:horizAlign="1"/><v:tabList/>Projection</text>		</g>
		<g id="shape1115-49" v:mID="1115" v:groupContext="shape" transform="translate(409.724,-196.872)">
			<title>Circle.1046</title>
			<desc>Residual death rates</desc>
			<v:userDefs>
				<v:ud v:nameU="visVersion" v:val="VT0(15):26"/>
				<v:ud v:nameU="visMasterStencil" v:prompt="" v:val="VT4(Basic_M.vssx)"/>
			</v:userDefs>
			<v:textBlock v:margins="rect(4,4,4,4)" v:tabSpace="42.5197"/>
			<v:textRect cx="28.3465" cy="293.971" width="49.61" height="42.5197"/>
			<path d="M0 293.97 A28.3465 28.3465 0 0 1 56.69 293.97 A28.3465 28.3465 0 1 1 0 293.97 Z" class="st5"/>
			<text x="8.97" y="284.07" class="st6" v:langID="2057"><v:paragraph v:horizAlign="1"/><v:tabList/>Residual<v:newlineChar/><tspan
						x="15.05" dy="1.2em" class="st7">death </tspan><tspan x="16.81" dy="1.2em" class="st7">rates</tspan></text>		</g>
		<g id="shape1116-54" v:mID="1116" v:groupContext="shape" transform="translate(395.676,-121.991)">
			<title>Circle.1048</title>
			<desc>Start</desc>
			<v:userDefs>
				<v:ud v:nameU="visVersion" v:val="VT0(15):26"/>
				<v:ud v:nameU="visMasterStencil" v:prompt="" v:val="VT4(Basic_M.vssx)"/>
			</v:userDefs>
			<v:textBlock v:margins="rect(4,4,4,4)" v:tabSpace="42.5197"/>
			<v:textRect cx="28.3465" cy="293.971" width="49.61" height="42.5197"/>
			<path d="M0 293.97 A28.3465 28.3465 0 0 1 56.69 293.97 A28.3465 28.3465 0 1 1 0 293.97 Z" class="st11"/>
			<text x="18.27" y="296.97" class="st12" v:langID="2057"><v:paragraph v:horizAlign="1"/><v:tabList/>Start</text>		</g>
		<g id="shape1117-57" v:mID="1117" v:groupContext="shape" transform="translate(463.707,-248.332)">
			<title>Circle.1049</title>
			<desc>Time + 1</desc>
			<v:userDefs>
				<v:ud v:nameU="visVersion" v:val="VT0(15):26"/>
				<v:ud v:nameU="visMasterStencil" v:prompt="" v:val="VT4(Basic_M.vssx)"/>
			</v:userDefs>
			<v:textBlock v:margins="rect(4,4,4,4)" v:tabSpace="42.5197"/>
			<v:textRect cx="28.3465" cy="293.971" width="49.61" height="42.5197"/>
			<path d="M0 293.97 A28.3465 28.3465 0 1 1 56.69 293.97 A28.3465 28.3465 0 0 1 0 293.97 Z" class="st11"/>
			<text x="10.77" y="296.97" class="st12" v:langID="2057"><v:paragraph v:horizAlign="1"/><v:tabList/>Time + 1</text>		</g>
		<g id="shape1118-60" v:mID="1118" v:groupContext="shape" transform="translate(551.363,-262.287)">
			<title>Circle.1051</title>
			<desc>Ageing Deaths Births</desc>
			<v:userDefs>
				<v:ud v:nameU="visVersion" v:val="VT0(15):26"/>
				<v:ud v:nameU="visMasterStencil" v:prompt="" v:val="VT4(Basic_M.vssx)"/>
			</v:userDefs>
			<v:textBlock v:margins="rect(4,4,4,4)" v:tabSpace="42.5197"/>
			<v:textRect cx="28.3465" cy="293.971" width="49.61" height="42.5197"/>
			<path d="M0 293.97 A28.3465 28.3465 0 0 1 56.69 293.97 A28.3465 28.3465 0 1 1 0 293.97 Z" class="st5"/>
			<text x="12.73" y="284.07" class="st6" v:langID="2057"><v:paragraph v:horizAlign="1"/><v:tabList/>Ageing<v:newlineChar/><tspan
						x="12.34" dy="1.2em" class="st7">Deaths<v:newlineChar/></tspan><tspan x="14.91" dy="1.2em" class="st7">Births</tspan></text>		</g>
		<g id="shape1119-65" v:mID="1119" v:groupContext="shape" transform="translate(627.453,-216.933)">
			<title>Circle.1052</title>
			<desc>SES (Births)</desc>
			<v:userDefs>
				<v:ud v:nameU="visVersion" v:val="VT0(15):26"/>
				<v:ud v:nameU="visMasterStencil" v:prompt="" v:val="VT4(Basic_M.vssx)"/>
			</v:userDefs>
			<v:textBlock v:margins="rect(4,4,4,4)" v:tabSpace="42.5197"/>
			<v:textRect cx="28.3465" cy="293.971" width="49.61" height="42.5197"/>
			<path d="M0 293.97 A28.3465 28.3465 0 0 1 56.69 293.97 A28.3465 28.3465 0 1 1 0 293.97 Z" class="st8"/>
			<text x="20.46" y="290.67" class="st6" v:langID="2057"><v:paragraph v:horizAlign="1"/><v:tabList/>SES<v:newlineChar/><tspan
						x="14.94" dy="1.467em" class="st14">(Births)</tspan></text>		</g>
		<g id="shape1120-69" v:mID="1120" v:groupContext="shape" transform="translate(658.416,-131.686)">
			<title>Circle.1053</title>
			<desc>Risk Factors</desc>
			<v:userDefs>
				<v:ud v:nameU="visVersion" v:val="VT0(15):26"/>
				<v:ud v:nameU="visMasterStencil" v:prompt="" v:val="VT4(Basic_M.vssx)"/>
			</v:userDefs>
			<v:textBlock v:margins="rect(4,4,4,4)" v:tabSpace="42.5197"/>
			<v:textRect cx="28.3465" cy="293.971" width="49.61" height="42.5197"/>
			<path d="M0 293.97 A28.3465 28.3465 0 0 1 56.69 293.97 A28.3465 28.3465 0 1 1 0 293.97 Z" class="st8"/>
			<text x="19.07" y="290.67" class="st6" v:langID="2057"><v:paragraph v:horizAlign="1"/><v:tabList/>Risk <tspan x="11.79"
						dy="1.2em" class="st7">Factors</tspan></text>		</g>
		<g id="shape1121-73" v:mID="1121" v:groupContext="shape" transform="translate(605.44,-23.9591)">
			<title>Circle.1055</title>
			<desc>Net Migration</desc>
			<v:userDefs>
				<v:ud v:nameU="visVersion" v:val="VT0(15):26"/>
				<v:ud v:nameU="visMasterStencil" v:prompt="" v:val="VT4(Basic_M.vssx)"/>
			</v:userDefs>
			<v:textBlock v:margins="rect(4,4,4,4)" v:tabSpace="42.5197"/>
			<v:textRect cx="31.1811" cy="291.136" width="54.57" height="46.7717"/>
			<path d="M0 291.14 A31.1811 31.1811 0 0 1 62.36 291.14 A31.1811 31.1811 0 1 1 0 291.14 Z" class="st5"/>
			<text x="22.88" y="287.84" class="st6" v:langID="2057"><v:paragraph v:horizAlign="1"/><v:tabList/>Net<v:newlineChar/><tspan
						x="8.58" dy="1.2em" class="st7">Migration</tspan></text>		</g>
		<g id="shape1122-77" v:mID="1122" v:groupContext="shape" transform="translate(514.731,-1.5)">
			<title>Circle.1056</title>
			<desc>Disease status</desc>
			<v:userDefs>
				<v:ud v:nameU="visVersion" v:val="VT0(15):26"/>
				<v:ud v:nameU="visMasterStencil" v:prompt="" v:val="VT4(Basic_M.vssx)"/>
			</v:userDefs>
			<v:textBlock v:margins="rect(4,4,4,4)" v:tabSpace="42.5197"/>
			<v:textRect cx="28.3465" cy="293.971" width="49.61" height="42.5197"/>
			<path d="M0 293.97 A28.3465 28.3465 0 0 1 56.69 293.97 A28.3465 28.3465 0 1 1 0 293.97 Z" class="st5"/>
			<text x="10.89" y="290.67" class="st6" v:langID="2057"><v:paragraph v:horizAlign="1"/><v:tabList/>Disease <tspan
						x="14.48" dy="1.2em" class="st7">status</tspan></text>		</g>
		<g id="shape1123-81" v:mID="1123" v:groupContext="shape" transform="translate(429.692,-42.7854)">
			<title>Circle.1057</title>
			<desc>Publish results</desc>
			<v:userDefs>
				<v:ud v:nameU="visVersion" v:val="VT0(15):26"/>
				<v:ud v:nameU="visMasterStencil" v:prompt="" v:val="VT4(Basic_M.vssx)"/>
			</v:userDefs>
			<v:textBlock v:margins="rect(4,4,4,4)" v:tabSpace="42.5197"/>
			<v:textRect cx="28.3465" cy="293.971" width="49.61" height="42.5197"/>
			<path d="M0 293.97 A28.3465 28.3465 0 0 1 56.69 293.97 A28.3465 28.3465 0 1 1 0 293.97 Z" class="st5"/>
			<text x="11.67" y="290.67" class="st6" v:langID="2057"><v:paragraph v:horizAlign="1"/><v:tabList/>Publish <tspan
						x="13.03" dy="1.2em" class="st7">results</tspan></text>		</g>
		<g id="shape1124-85" v:mID="1124" v:groupContext="shape" transform="translate(324.76,201.762) rotate(-90)">
			<title>Ellipse.1058</title>
			<desc>Intervention</desc>
			<v:userDefs>
				<v:ud v:nameU="visVersion" v:val="VT0(15):26"/>
				<v:ud v:nameU="visMasterStencil" v:prompt="" v:val="VT4(Basic_M.vssx)"/>
			</v:userDefs>
			<v:textBlock v:margins="rect(4,4,4,4)" v:tabSpace="42.5197"/>
			<v:textRect cx="39.685" cy="305.309" width="69.45" height="29.7638"/>
			<path d="M0 305.31 A39.685 17.0079 0 0 1 79.37 305.31 A39.685 17.0079 0 1 1 0 305.31 Z" class="st8"/>
			<text x="11.15" y="308.61" class="st6" v:langID="2057"><v:paragraph v:horizAlign="1"/><v:tabList/>Intervention</text>		</g>
		<g id="shape1125-88" v:mID="1125" v:groupContext="shape" transform="translate(129.153,340.795) rotate(-111.067)">
			<title>Expand.1062</title>
			<v:userDefs>
				<v:ud v:nameU="msvShapeCategories" v:prompt="" v:val="VT4(Icon)"/>
				<v:ud v:nameU="visVersion" v:prompt="" v:val="VT0(15):26"/>
			</v:userDefs>
			<path d="M10.85 322.32 L8.88 320.31 L16.77 312.29 L8.88 304.28 L10.85 302.27 L20.72 312.29 L10.85 322.32 ZM1.97 322.32
						 L0 320.31 L7.89 312.29 L0 304.28 L1.97 302.27 L11.84 312.29 L1.97 322.32 Z" class="st9"/>
		</g>
		<g id="shape1126-90" v:mID="1126" v:groupContext="shape" transform="translate(103.046,59.3465) rotate(-75)">
			<title>Expand.1064</title>
			<v:userDefs>
				<v:ud v:nameU="msvShapeCategories" v:prompt="" v:val="VT4(Icon)"/>
				<v:ud v:nameU="visVersion" v:prompt="" v:val="VT0(15):26"/>
			</v:userDefs>
			<path d="M10.85 322.32 L8.88 320.31 L16.77 312.29 L8.88 304.28 L10.85 302.27 L20.72 312.29 L10.85 322.32 ZM1.97 322.32
						 L0 320.31 L7.89 312.29 L0 304.28 L1.97 302.27 L11.84 312.29 L1.97 322.32 Z" class="st9"/>
		</g>
		<g id="shape1127-92" v:mID="1127" v:groupContext="shape" transform="translate(220.239,-160.067) rotate(-45)">
			<title>Expand.1065</title>
			<v:userDefs>
				<v:ud v:nameU="msvShapeCategories" v:prompt="" v:val="VT4(Icon)"/>
				<v:ud v:nameU="visVersion" v:prompt="" v:val="VT0(15):26"/>
			</v:userDefs>
			<path d="M10.85 322.32 L8.88 320.31 L16.77 312.29 L8.88 304.28 L10.85 302.27 L20.72 312.29 L10.85 322.32 ZM1.97 322.32
						 L0 320.31 L7.89 312.29 L0 304.28 L1.97 302.27 L11.84 312.29 L1.97 322.32 Z" class="st9"/>
		</g>
		<g id="shape1128-94" v:mID="1128" v:groupContext="shape" transform="translate(519.614,-301.521)">
			<title>Expand.1066</title>
			<v:userDefs>
				<v:ud v:nameU="msvShapeCategories" v:prompt="" v:val="VT4(Icon)"/>
				<v:ud v:nameU="visVersion" v:prompt="" v:val="VT0(15):26"/>
			</v:userDefs>
			<path d="M10.85 322.32 L8.88 320.31 L16.77 312.29 L8.88 304.28 L10.85 302.27 L20.72 312.29 L10.85 322.32 ZM1.97 322.32
						 L0 320.31 L7.89 312.29 L0 304.28 L1.97 302.27 L11.84 312.29 L1.97 322.32 Z" class="st9"/>
		</g>
		<g id="shape1129-96" v:mID="1129" v:groupContext="shape" transform="translate(774.962,-246.775) rotate(30)">
			<title>Expand.1067</title>
			<v:userDefs>
				<v:ud v:nameU="msvShapeCategories" v:prompt="" v:val="VT4(Icon)"/>
				<v:ud v:nameU="visVersion" v:prompt="" v:val="VT0(15):26"/>
			</v:userDefs>
			<path d="M10.85 322.32 L8.88 320.31 L16.77 312.29 L8.88 304.28 L10.85 302.27 L20.72 312.29 L10.85 322.32 ZM1.97 322.32
						 L0 320.31 L7.89 312.29 L0 304.28 L1.97 302.27 L11.84 312.29 L1.97 322.32 Z" class="st9"/>
		</g>
		<g id="shape1130-98" v:mID="1130" v:groupContext="shape" transform="translate(994.301,16.7562) rotate(75)">
			<title>Expand.1068</title>
			<v:userDefs>
				<v:ud v:nameU="msvShapeCategories" v:prompt="" v:val="VT4(Icon)"/>
				<v:ud v:nameU="visVersion" v:prompt="" v:val="VT0(15):26"/>
			</v:userDefs>
			<path d="M10.85 322.32 L8.88 320.31 L16.77 312.29 L8.88 304.28 L10.85 302.27 L20.72 312.29 L10.85 322.32 ZM1.97 322.32
						 L0 320.31 L7.89 312.29 L0 304.28 L1.97 302.27 L11.84 312.29 L1.97 322.32 Z" class="st9"/>
		</g>
		<g id="shape1131-100" v:mID="1131" v:groupContext="shape" transform="translate(967.102,367.588) rotate(120)">
			<title>Expand.1069</title>
			<v:userDefs>
				<v:ud v:nameU="msvShapeCategories" v:prompt="" v:val="VT4(Icon)"/>
				<v:ud v:nameU="visVersion" v:prompt="" v:val="VT0(15):26"/>
			</v:userDefs>
			<path d="M10.85 322.32 L8.88 320.31 L16.77 312.29 L8.88 304.28 L10.85 302.27 L20.72 312.29 L10.85 322.32 ZM1.97 322.32
						 L0 320.31 L7.89 312.29 L0 304.28 L1.97 302.27 L11.84 312.29 L1.97 322.32 Z" class="st9"/>
		</g>
		<g id="shape1132-102" v:mID="1132" v:groupContext="shape" transform="translate(685.575,602.494) rotate(165)">
			<title>Expand.1070</title>
			<v:userDefs>
				<v:ud v:nameU="msvShapeCategories" v:prompt="" v:val="VT4(Icon)"/>
				<v:ud v:nameU="visVersion" v:prompt="" v:val="VT0(15):26"/>
			</v:userDefs>
			<path d="M10.85 322.32 L8.88 320.31 L16.77 312.29 L8.88 304.28 L10.85 302.27 L20.72 312.29 L10.85 322.32 ZM1.97 322.32
						 L0 320.31 L7.89 312.29 L0 304.28 L1.97 302.27 L11.84 312.29 L1.97 322.32 Z" class="st9"/>
		</g>
		<g id="shape1133-104" v:mID="1133" v:groupContext="shape" transform="translate(336.84,566.57) rotate(-150)">
			<title>Expand.1071</title>
			<v:userDefs>
				<v:ud v:nameU="msvShapeCategories" v:prompt="" v:val="VT4(Icon)"/>
				<v:ud v:nameU="visVersion" v:prompt="" v:val="VT0(15):26"/>
			</v:userDefs>
			<path d="M10.85 322.32 L8.88 320.31 L16.77 312.29 L8.88 304.28 L10.85 302.27 L20.72 312.29 L10.85 322.32 ZM1.97 322.32
						 L0 320.31 L7.89 312.29 L0 304.28 L1.97 302.27 L11.84 312.29 L1.97 322.32 Z" class="st9"/>
		</g>
		<g id="shape1134-106" v:mID="1134" v:groupContext="shape" transform="translate(461.896,-192.149)">
			<title>Users.1078</title>
			<v:userDefs>
				<v:ud v:nameU="msvShapeCategories" v:prompt="" v:val="VT4(Icon)"/>
				<v:ud v:nameU="visVersion" v:prompt="" v:val="VT0(15):26"/>
			</v:userDefs>
			<path d="M16.81 309.43 A2.45467 2.49394 -180 0 0 19.26 306.94 A2.45467 2.49394 -180 0 0 16.81 304.45 A2.45559 2.49488
						 -180 0 0 14.35 306.94 A2.45605 2.49535 -180 0 0 16.81 309.43 ZM16.81 303.2 A3.67871 3.73757 0 0 1 20.49
						 306.94 A3.67871 3.73757 0 0 1 16.81 310.68 A3.67856 3.73742 0 0 1 13.13 306.94 A3.67856 3.73742 0 0 1 16.81
						 303.2 ZM6.14 320.88 A4.28693 4.35552 -180 0 0 11.05 318.39 A5.39303 5.47931 -180 0 0 8.69 313.55 A18040.5
						 18329.2 -180 0 0 6.14 318.65 A9164.73 9311.37 0 0 1 3.6 313.55 A5.39362 5.47992 -180 0 0 1.24 318.39 A4.28644
						 4.35503 -180 0 0 6.14 320.88 ZM8.57 312.02 A6.46352 6.56693 0 0 1 12.28 318.39 A4.89835 4.97673 0 0 1 6.14
						 322.13 A4.89795 4.97632 0 0 1 0.01 318.39 A6.46624 6.5697 0 0 1 3.72 312.02 A4.40297 4.47342 -180 0 0 4.39
						 312.39 L6.14 315.9 L7.9 312.39 A4.33568 4.40505 -180 0 0 8.57 312.02 ZM19.23 310.54 A6.46352 6.56693 0 0
						 1 22.94 316.91 A4.89835 4.97673 0 0 1 16.81 320.64 A9.76426 9.92048 0 0 1 12.7 319.89 A3.72224 3.78179 -180
						 0 0 12.98 318.63 A8.45173 8.58696 -180 0 0 16.81 319.4 A4.28693 4.35552 -180 0 0 21.71 316.91 A5.39174 5.47801
						 -180 0 0 19.36 312.07 A11537.6 11722.2 -180 0 0 16.81 317.16 A12841 13046.5 0 0 1 14.26 312.07 A4.88739
						 4.96559 -180 0 0 12.24 314.74 A6.94134 7.0524 -180 0 0 11.45 313.41 A5.76924 5.86155 0 0 1 14.38 310.54
						 A4.40297 4.47342 -180 0 0 15.05 310.91 L16.81 314.41 L18.56 310.91 A4.33568 4.40505 -180 0 0 19.23 310.54
						 ZM6.14 310.91 A2.45421 2.49348 -180 0 0 8.6 308.42 A2.45467 2.49394 -180 0 0 6.14 305.93 A2.45559 2.49488
						 -180 0 0 3.69 308.42 A2.45605 2.49535 -180 0 0 6.14 310.91 ZM6.14 304.68 A3.67871 3.73757 0 0 1 9.82 308.42
						 A3.67871 3.73757 0 0 1 6.14 312.16 A3.67856 3.73742 0 0 1 2.47 308.42 A3.67856 3.73742 0 0 1 6.14 304.68
						 Z" class="st10"/>
		</g>
		<g id="shape1135-108" v:mID="1135" v:groupContext="shape" transform="translate(561.763,-238.338)">
			<title>Users.1079</title>
			<v:userDefs>
				<v:ud v:nameU="msvShapeCategories" v:prompt="" v:val="VT4(Icon)"/>
				<v:ud v:nameU="visVersion" v:prompt="" v:val="VT0(15):26"/>
			</v:userDefs>
			<path d="M16.81 309.43 A2.45467 2.49394 -180 0 0 19.26 306.94 A2.45467 2.49394 -180 0 0 16.81 304.45 A2.45559 2.49488
						 -180 0 0 14.35 306.94 A2.45605 2.49535 -180 0 0 16.81 309.43 ZM16.81 303.2 A3.67871 3.73757 0 0 1 20.49
						 306.94 A3.67871 3.73757 0 0 1 16.81 310.68 A3.67856 3.73742 0 0 1 13.13 306.94 A3.67856 3.73742 0 0 1 16.81
						 303.2 ZM6.14 320.88 A4.28693 4.35552 -180 0 0 11.05 318.39 A5.39303 5.47931 -180 0 0 8.69 313.55 A18040.5
						 18329.2 -180 0 0 6.14 318.65 A9164.73 9311.37 0 0 1 3.6 313.55 A5.39362 5.47992 -180 0 0 1.24 318.39 A4.28644
						 4.35503 -180 0 0 6.14 320.88 ZM8.57 312.02 A6.46352 6.56693 0 0 1 12.28 318.39 A4.89835 4.97673 0 0 1 6.14
						 322.13 A4.89795 4.97632 0 0 1 0.01 318.39 A6.46624 6.5697 0 0 1 3.72 312.02 A4.40297 4.47342 -180 0 0 4.39
						 312.39 L6.14 315.9 L7.9 312.39 A4.33568 4.40505 -180 0 0 8.57 312.02 ZM19.23 310.54 A6.46352 6.56693 0 0
						 1 22.94 316.91 A4.89835 4.97673 0 0 1 16.81 320.64 A9.76426 9.92048 0 0 1 12.7 319.89 A3.72224 3.78179 -180
						 0 0 12.98 318.63 A8.45173 8.58696 -180 0 0 16.81 319.4 A4.28693 4.35552 -180 0 0 21.71 316.91 A5.39174 5.47801
						 -180 0 0 19.36 312.07 A11537.6 11722.2 -180 0 0 16.81 317.16 A12841 13046.5 0 0 1 14.26 312.07 A4.88739
						 4.96559 -180 0 0 12.24 314.74 A6.94134 7.0524 -180 0 0 11.45 313.41 A5.76924 5.86155 0 0 1 14.38 310.54
						 A4.40297 4.47342 -180 0 0 15.05 310.91 L16.81 314.41 L18.56 310.91 A4.33568 4.40505 -180 0 0 19.23 310.54
						 ZM6.14 310.91 A2.45421 2.49348 -180 0 0 8.6 308.42 A2.45467 2.49394 -180 0 0 6.14 305.93 A2.45559 2.49488
						 -180 0 0 3.69 308.42 A2.45605 2.49535 -180 0 0 6.14 310.91 ZM6.14 304.68 A3.67871 3.73757 0 0 1 9.82 308.42
						 A3.67871 3.73757 0 0 1 6.14 312.16 A3.67856 3.73742 0 0 1 2.47 308.42 A3.67856 3.73742 0 0 1 6.14 304.68
						 Z" class="st10"/>
		</g>
		<g id="shape1136-110" v:mID="1136" v:groupContext="shape" transform="translate(596.053,-84.432)">
			<title>Users.1080</title>
			<v:userDefs>
				<v:ud v:nameU="msvShapeCategories" v:prompt="" v:val="VT4(Icon)"/>
				<v:ud v:nameU="visVersion" v:prompt="" v:val="VT0(15):26"/>
			</v:userDefs>
			<path d="M16.81 309.43 A2.45467 2.49394 -180 0 0 19.26 306.94 A2.45467 2.49394 -180 0 0 16.81 304.45 A2.45559 2.49488
						 -180 0 0 14.35 306.94 A2.45605 2.49535 -180 0 0 16.81 309.43 ZM16.81 303.2 A3.67871 3.73757 0 0 1 20.49
						 306.94 A3.67871 3.73757 0 0 1 16.81 310.68 A3.67856 3.73742 0 0 1 13.13 306.94 A3.67856 3.73742 0 0 1 16.81
						 303.2 ZM6.14 320.88 A4.28693 4.35552 -180 0 0 11.05 318.39 A5.39303 5.47931 -180 0 0 8.69 313.55 A18040.5
						 18329.2 -180 0 0 6.14 318.65 A9164.73 9311.37 0 0 1 3.6 313.55 A5.39362 5.47992 -180 0 0 1.24 318.39 A4.28644
						 4.35503 -180 0 0 6.14 320.88 ZM8.57 312.02 A6.46352 6.56693 0 0 1 12.28 318.39 A4.89835 4.97673 0 0 1 6.14
						 322.13 A4.89795 4.97632 0 0 1 0.01 318.39 A6.46624 6.5697 0 0 1 3.72 312.02 A4.40297 4.47342 -180 0 0 4.39
						 312.39 L6.14 315.9 L7.9 312.39 A4.33568 4.40505 -180 0 0 8.57 312.02 ZM19.23 310.54 A6.46352 6.56693 0 0
						 1 22.94 316.91 A4.89835 4.97673 0 0 1 16.81 320.64 A9.76426 9.92048 0 0 1 12.7 319.89 A3.72224 3.78179 -180
						 0 0 12.98 318.63 A8.45173 8.58696 -180 0 0 16.81 319.4 A4.28693 4.35552 -180 0 0 21.71 316.91 A5.39174 5.47801
						 -180 0 0 19.36 312.07 A11537.6 11722.2 -180 0 0 16.81 317.16 A12841 13046.5 0 0 1 14.26 312.07 A4.88739
						 4.96559 -180 0 0 12.24 314.74 A6.94134 7.0524 -180 0 0 11.45 313.41 A5.76924 5.86155 0 0 1 14.38 310.54
						 A4.40297 4.47342 -180 0 0 15.05 310.91 L16.81 314.41 L18.56 310.91 A4.33568 4.40505 -180 0 0 19.23 310.54
						 ZM6.14 310.91 A2.45421 2.49348 -180 0 0 8.6 308.42 A2.45467 2.49394 -180 0 0 6.14 305.93 A2.45559 2.49488
						 -180 0 0 3.69 308.42 A2.45605 2.49535 -180 0 0 6.14 310.91 ZM6.14 304.68 A3.67871 3.73757 0 0 1 9.82 308.42
						 A3.67871 3.73757 0 0 1 6.14 312.16 A3.67856 3.73742 0 0 1 2.47 308.42 A3.67856 3.73742 0 0 1 6.14 304.68
						 Z" class="st10"/>
		</g>
		<g id="shape1137-112" v:mID="1137" v:groupContext="shape" transform="translate(342.323,-129.618) rotate(-30)">
			<title>Ellipse.1087</title>
			<desc>Diseases excess mortality</desc>
			<v:userDefs>
				<v:ud v:nameU="visVersion" v:val="VT0(15):26"/>
				<v:ud v:nameU="visMasterStencil" v:prompt="" v:val="VT4(Basic_M.vssx)"/>
			</v:userDefs>
			<v:textBlock v:margins="rect(4,4,4,4)" v:tabSpace="42.5197"/>
			<v:textRect cx="42.4303" cy="305.309" width="74.26" height="29.7638"/>
			<path d="M0 305.31 A42.4303 17.0079 0 0 1 84.86 305.31 A42.4303 17.0079 0 0 1 0 305.31 Z" class="st5"/>
			<text x="10.02" y="302.31" class="st15" v:langID="2057"><v:paragraph v:horizAlign="1"/><v:tabList/>Diseases excess <tspan
						x="23.14" dy="1.2em" class="st7">mortality</tspan></text>		</g>
		<g id="shape1138-116" v:mID="1138" v:groupContext="shape" v:layerMember="0" transform="translate(542.205,-231.945)">
			<title>Dynamic connector.1088</title>
			<v:custProps>
				<v:cp v:nameU="visWfBranch" v:lbl="Condition" v:prompt="" v:type="1" v:format="Yes;No;(Blank)" v:sortKey=""
						v:invis="false" v:ask="false" v:langID="1033" v:cal="0" v:val="VT4((Blank))"/>
			</v:custProps>
			<v:userDefs>
				<v:ud v:nameU="visWfBranchIndex" v:prompt="" v:val="VT0(2):26"/>
				<v:ud v:nameU="visWfBranchStr" v:prompt="" v:val="VT4()"/>
				<v:ud v:nameU="SOLSH" v:prompt="" v:val="VT4({21c62d3a-0c14-434d-b64e-fc6e5bbfa482})"/>
				<v:ud v:nameU="ShapeClass" v:prompt="" v:val="VT0(4):26"/>
				<v:ud v:nameU="ShapeType" v:prompt="" v:val="VT0(0):26"/>
				<v:ud v:nameU="visVersion" v:prompt="" v:val="VT0(15):26"/>
				<v:ud v:nameU="visKeywords" v:prompt="" v:val="VT4(SharePoint;Workflow)"/>
				<v:ud v:nameU="visWfEvent" v:prompt="" v:val="VT0(0):26"/>
			</v:userDefs>
			<v:textBlock v:margins="rect(4,4,4,4)" v:tabSpace="42.5197"/>
			<v:textRect cx="8.7291" cy="302.996" width="50" height="20.0036"/>
			<path d="M0 322.32 L17.46 283.67" class="st16"/>
		</g>
		<g id="shape1139-119" v:mID="1139" v:groupContext="shape" v:layerMember="0" transform="translate(508.201,-209.508)">
			<title>Dynamic connector.1089</title>
			<v:custProps>
				<v:cp v:nameU="visWfBranch" v:lbl="Condition" v:prompt="" v:type="1" v:format="Yes;No;(Blank)" v:sortKey=""
						v:invis="false" v:ask="false" v:langID="1033" v:cal="0" v:val="VT4((Blank))"/>
			</v:custProps>
			<v:userDefs>
				<v:ud v:nameU="visWfBranchIndex" v:prompt="" v:val="VT0(2):26"/>
				<v:ud v:nameU="visWfBranchStr" v:prompt="" v:val="VT4()"/>
				<v:ud v:nameU="SOLSH" v:prompt="" v:val="VT4({21c62d3a-0c14-434d-b64e-fc6e5bbfa482})"/>
				<v:ud v:nameU="ShapeClass" v:prompt="" v:val="VT0(4):26"/>
				<v:ud v:nameU="ShapeType" v:prompt="" v:val="VT0(0):26"/>
				<v:ud v:nameU="visVersion" v:prompt="" v:val="VT0(15):26"/>
				<v:ud v:nameU="visKeywords" v:prompt="" v:val="VT4(SharePoint;Workflow)"/>
				<v:ud v:nameU="visWfEvent" v:prompt="" v:val="VT0(0):26"/>
			</v:userDefs>
			<v:textBlock v:margins="rect(4,4,4,4)" v:tabSpace="42.5197"/>
			<v:textRect cx="-21.1064" cy="315.231" width="50" height="20.0036"/>
			<path d="M0 318.94 L-42.21 311.52" class="st16"/>
		</g>
		<g id="shape1140-122" v:mID="1140" v:groupContext="shape" v:layerMember="0" transform="translate(645.66,-167.223)">
			<title>Dynamic connector.1090</title>
			<v:custProps>
				<v:cp v:nameU="visWfBranch" v:lbl="Condition" v:prompt="" v:type="1" v:format="Yes;No;(Blank)" v:sortKey=""
						v:invis="false" v:ask="false" v:langID="1033" v:cal="0" v:val="VT4((Blank))"/>
			</v:custProps>
			<v:userDefs>
				<v:ud v:nameU="visWfBranchIndex" v:prompt="" v:val="VT0(2):26"/>
				<v:ud v:nameU="visWfBranchStr" v:prompt="" v:val="VT4()"/>
				<v:ud v:nameU="SOLSH" v:prompt="" v:val="VT4({21c62d3a-0c14-434d-b64e-fc6e5bbfa482})"/>
				<v:ud v:nameU="ShapeClass" v:prompt="" v:val="VT0(4):26"/>
				<v:ud v:nameU="ShapeType" v:prompt="" v:val="VT0(0):26"/>
				<v:ud v:nameU="visVersion" v:prompt="" v:val="VT0(15):26"/>
				<v:ud v:nameU="visKeywords" v:prompt="" v:val="VT4(SharePoint;Workflow)"/>
				<v:ud v:nameU="visWfEvent" v:prompt="" v:val="VT0(0):26"/>
			</v:userDefs>
			<v:textBlock v:margins="rect(4,4,4,4)" v:tabSpace="42.5197"/>
			<v:textRect cx="7.08661" cy="329.404" width="50" height="20.0036"/>
			<path d="M1.42 329.3 L12.76 329.51" class="st16"/>
		</g>
		<g id="shape1141-125" v:mID="1141" v:groupContext="shape" transform="translate(352.274,-133.88)">
			<title>Expand.1091</title>
			<v:userDefs>
				<v:ud v:nameU="msvShapeCategories" v:prompt="" v:val="VT4(Icon)"/>
				<v:ud v:nameU="visVersion" v:prompt="" v:val="VT0(15):26"/>
			</v:userDefs>
			<path d="M17.82 322.32 L14.58 319.03 L27.54 305.86 L14.58 292.69 L17.82 289.4 L34.02 305.86 L17.82 322.32 ZM3.24 322.32
						 L0 319.03 L12.96 305.86 L0 292.69 L3.24 289.4 L19.44 305.86 L3.24 322.32 Z" class="st17"/>
		</g>
		<g id="shape1142-127" v:mID="1142" v:groupContext="shape" transform="translate(26.0197,-225.437)">
			<title>Circle.1004</title>
			<desc>Create Virtual Population</desc>
			<v:userDefs>
				<v:ud v:nameU="visVersion" v:val="VT0(15):26"/>
				<v:ud v:nameU="visMasterStencil" v:prompt="" v:val="VT4(Basic_M.vssx)"/>
			</v:userDefs>
			<v:textBlock v:margins="rect(4,4,4,4)" v:tabSpace="42.5197"/>
			<v:textRect cx="31.1811" cy="291.136" width="54.57" height="46.7717"/>
			<path d="M0 291.14 A31.1811 31.1811 0 1 1 62.36 291.14 A31.1811 31.1811 0 0 1 0 291.14 Z" class="st11"/>
			<text x="17.52" y="282.14" class="st12" v:langID="2057"><v:paragraph v:horizAlign="1"/><v:tabList/>Create<v:newlineChar/><tspan
						x="17.11" dy="1.2em" class="st7">Virtual<v:newlineChar/></tspan><tspan x="8.44" dy="1.2em" class="st7">Population</tspan></text>		</g>
		<g id="shape1143-132" v:mID="1143" v:groupContext="shape" transform="translate(284.855,28.719) rotate(40)">
			<title>Expand.1051</title>
			<v:userDefs>
				<v:ud v:nameU="msvShapeCategories" v:prompt="" v:val="VT4(Icon)"/>
				<v:ud v:nameU="visVersion" v:prompt="" v:val="VT0(15):26"/>
			</v:userDefs>
			<path d="M10.85 322.32 L8.88 320.31 L16.77 312.29 L8.88 304.28 L10.85 302.27 L20.72 312.29 L10.85 322.32 ZM1.97 322.32
						 L0 320.31 L7.89 312.29 L0 304.28 L1.97 302.27 L11.84 312.29 L1.97 322.32 Z" class="st9"/>
		</g>
		<g id="shape1144-134" v:mID="1144" v:groupContext="shape" transform="translate(147.023,-8.88766) rotate(-4.844)">
			<title>Expand.1052</title>
			<v:userDefs>
				<v:ud v:nameU="msvShapeCategories" v:prompt="" v:val="VT4(Icon)"/>
				<v:ud v:nameU="visVersion" v:prompt="" v:val="VT0(15):26"/>
			</v:userDefs>
			<path d="M10.85 322.32 L8.88 320.31 L16.77 312.29 L8.88 304.28 L10.85 302.27 L20.72 312.29 L10.85 322.32 ZM1.97 322.32
						 L0 320.31 L7.89 312.29 L0 304.28 L1.97 302.27 L11.84 312.29 L1.97 322.32 Z" class="st9"/>
		</g>
	</g>
</svg>
