<?xml version="1.0" encoding="UTF-8" standalone="no"?>
<!DOCTYPE svg PUBLIC "-//W3C//DTD SVG 1.1//EN" "http://www.w3.org/Graphics/SVG/1.1/DTD/svg11.dtd">
<!-- Generated by Microsoft Visio, SVG Export model_workflow_diagram.svg Page-1 -->
<svg xmlns="http://www.w3.org/2000/svg" xmlns:xlink="http://www.w3.org/1999/xlink" xmlns:ev="http://www.w3.org/2001/xml-events"
		xmlns:v="http://schemas.microsoft.com/visio/2003/SVGExtensions/" width="9.58481in" height="4.47663in"
		viewBox="0 0 690.106 322.317" xml:space="preserve" color-interpolation-filters="sRGB" class="st21">
	<title>Health-GPS Concept Diagrams</title>
	<v:documentProperties v:langID="1033" v:metric="true" v:viewMarkup="false"/>

	<style type="text/css">
	<![CDATA[
		.st1 {fill:#bfbfbf;fill-opacity:0.5}
		.st2 {stroke:#c7c8c8;stroke-width:0.25;visibility:hidden}
		.st3 {fill:#feffff;fill-opacity:0.5}
		.st4 {fill:#3f3f3f;font-family:Calibri;font-size:1.5em;font-weight:bold}
		.st5 {fill:#3c63ac;stroke:#002060;stroke-width:1.5}
		.st6 {fill:#feffff;font-family:Calibri;font-size:0.833336em;font-weight:bold}
		.st7 {font-size:1em}
		.st8 {fill:#deebf6;stroke:#002060;stroke-width:1.5}
		.st9 {fill:#002060;font-family:Calibri;font-size:0.916672em;font-weight:bold}
		.st10 {fill:#9cc3e5;stroke:#203864;stroke-width:1.5}
		.st11 {fill:#5b9bd5;stroke:none;stroke-linecap:butt;stroke-width:0.75}
		.st12 {fill:#4672c4}
		.st13 {stroke:#c7c8c8;stroke-width:0.25}
		.st14 {fill:#002060;font-family:Calibri;font-size:0.833336em;font-weight:bold}
		.st15 {font-size:0.818177em;font-weight:normal}
		.st16 {fill:#9dadc2;stroke:none;stroke-linecap:butt;stroke-width:0.75}
		.st17 {stroke:#002060;stroke-linecap:round;stroke-linejoin:round;stroke-width:1}
		.st18 {marker-end:url(#mrkr4-132);stroke:#4672c4;stroke-linecap:round;stroke-linejoin:round;stroke-width:1}
		.st19 {fill:#4672c4;fill-opacity:1;stroke:#4672c4;stroke-opacity:1;stroke-width:0.28409090909091}
		.st20 {fill:#bfbfbf;stroke:none;stroke-linecap:butt;stroke-width:0.75}
		.st21 {fill:none;fill-rule:evenodd;font-size:12px;overflow:visible;stroke-linecap:square;stroke-miterlimit:3}
	]]>
	</style>

	<defs id="Markers">
		<g id="lend4">
			<path d="M 2 1 L 0 0 L 2 -1 L 2 1 " style="stroke:none"/>
		</g>
		<marker id="mrkr4-132" class="st19" v:arrowType="4" v:arrowSize="2" v:setback="7.04" refX="-7.04" orient="auto"
				markerUnits="strokeWidth" overflow="visible">
			<use xlink:href="#lend4" transform="scale(-3.52,-3.52) "/>
		</marker>
	</defs>
	<g v:mID="0" v:index="1" v:groupContext="foregroundPage">
		<title>Page-1</title>
		<v:pageProperties v:drawingScale="0.0393701" v:pageScale="0.0393701" v:drawingUnits="24" v:shadowOffsetX="8.50394"
				v:shadowOffsetY="-8.50394"/>
		<v:layer v:name="Connector" v:index="0"/>
		<g id="shape1059-1" v:mID="1059" v:groupContext="shape" transform="translate(377.989,-12.9318)">
			<title>Venn Diagram Shape.1059</title>
			<v:userDefs>
				<v:ud v:nameU="AccentColorID" v:prompt="" v:val="VT0(6):26"/>
				<v:ud v:nameU="visVersion" v:prompt="" v:val="VT0(15):26"/>
				<v:ud v:nameU="AccentColorID" v:prompt="" v:val="VT0(4):26"/>
			</v:userDefs>
			<ellipse cx="149.925" cy="172.392" rx="149.925" ry="149.925" class="st1"/>
			<ellipse cx="149.925" cy="172.392" rx="149.925" ry="149.925" class="st2"/>
		</g>
		<g id="shape1060-4" v:mID="1060" v:groupContext="shape" transform="translate(447.661,-62.4806)">
			<title>Venn Diagram Shape.1060</title>
			<desc>Projection</desc>
			<v:userDefs>
				<v:ud v:nameU="AccentColorID" v:prompt="" v:val="VT0(6):26"/>
				<v:ud v:nameU="visVersion" v:prompt="" v:val="VT0(15):26"/>
				<v:ud v:nameU="AccentColorID" v:prompt="" v:val="VT0(5):26"/>
			</v:userDefs>
			<v:textBlock v:margins="rect(4,4,4,4)" v:tabSpace="42.5197"/>
			<v:textRect cx="67.1811" cy="254.034" width="134.37" height="136.567"/>
			<ellipse cx="67.1811" cy="254.034" rx="67.1811" ry="68.2833" class="st3"/>
			<ellipse cx="67.1811" cy="254.034" rx="67.1811" ry="68.2833" class="st2"/>
			<text x="28.76" y="259.43" class="st4" v:langID="2057"><v:paragraph v:horizAlign="1"/><v:tabList/>Projection</text>		</g>
		<g id="shape1020-8" v:mID="1020" v:groupContext="shape" transform="translate(57.3771,-72.0848)">
			<title>Venn Diagram Shape.1020</title>
			<v:userDefs>
				<v:ud v:nameU="AccentColorID" v:prompt="" v:val="VT0(6):26"/>
				<v:ud v:nameU="visVersion" v:prompt="" v:val="VT0(15):26"/>
				<v:ud v:nameU="AccentColorID" v:prompt="" v:val="VT4()"/>
			</v:userDefs>
			<ellipse cx="97.9359" cy="224.381" rx="97.9359" ry="97.9359" class="st1"/>
			<ellipse cx="97.9359" cy="224.381" rx="97.9359" ry="97.9359" class="st2"/>
		</g>
		<g id="shape1021-11" v:mID="1021" v:groupContext="shape" transform="translate(25.06,-137.563)">
			<title>Circle.1021</title>
			<desc>Create Virtual Population</desc>
			<v:userDefs>
				<v:ud v:nameU="visVersion" v:val="VT0(15):26"/>
				<v:ud v:nameU="visMasterStencil" v:prompt="" v:val="VT4(Basic_M.vssx)"/>
			</v:userDefs>
			<v:textBlock v:margins="rect(4,4,4,4)" v:tabSpace="42.5197"/>
			<v:textRect cx="31.1811" cy="291.136" width="54.57" height="46.7717"/>
			<path d="M0 291.14 A31.1811 31.1811 0 1 1 62.36 291.14 A31.1811 31.1811 0 1 1 0 291.14 Z" class="st5"/>
			<text x="17.52" y="282.14" class="st6" v:langID="2057"><v:paragraph v:horizAlign="1"/><v:tabList/>Create<v:newlineChar/><tspan
						x="17.11" dy="1.2em" class="st7">Virtual<v:newlineChar/></tspan><tspan x="8.44" dy="1.2em" class="st7">Population</tspan></text>		</g>
		<g id="shape1022-16" v:mID="1022" v:groupContext="shape" transform="translate(77.501,-222.651)">
			<title>Circle.1022</title>
			<desc>Age and Gender</desc>
			<v:userDefs>
				<v:ud v:nameU="visVersion" v:val="VT0(15):26"/>
				<v:ud v:nameU="visMasterStencil" v:prompt="" v:val="VT4(Basic_M.vssx)"/>
			</v:userDefs>
			<v:textBlock v:margins="rect(4,4,4,4)" v:tabSpace="42.5197"/>
			<v:textRect cx="28.3465" cy="293.971" width="49.61" height="42.5197"/>
			<path d="M0 293.97 A28.3465 28.3465 0 0 1 56.69 293.97 A28.3465 28.3465 0 1 1 0 293.97 Z" class="st8"/>
			<text x="9.78" y="290.67" class="st9" v:langID="2057"><v:paragraph v:horizAlign="1"/><v:tabList/>Age and<v:newlineChar/><tspan
						x="11.45" dy="1.2em" class="st7">Gender</tspan></text>		</g>
		<g id="shape1023-20" v:mID="1023" v:groupContext="shape" transform="translate(169.627,-225.437)">
			<title>Circle.1023</title>
			<desc>SES</desc>
			<v:userDefs>
				<v:ud v:nameU="visVersion" v:val="VT0(15):26"/>
				<v:ud v:nameU="visMasterStencil" v:prompt="" v:val="VT4(Basic_M.vssx)"/>
			</v:userDefs>
			<v:textBlock v:margins="rect(4,4,4,4)" v:tabSpace="42.5197"/>
			<v:textRect cx="28.3465" cy="293.971" width="49.61" height="42.5197"/>
			<path d="M0 293.97 A28.3465 28.3465 0 0 1 56.69 293.97 A28.3465 28.3465 0 1 1 0 293.97 Z" class="st8"/>
			<text x="20.46" y="297.27" class="st9" v:langID="2057"><v:paragraph v:horizAlign="1"/><v:tabList/>SES</text>		</g>
		<g id="shape1024-23" v:mID="1024" v:groupContext="shape" transform="translate(222.546,-151.488)">
			<title>Circle.1024</title>
			<desc>Risk Factors</desc>
			<v:userDefs>
				<v:ud v:nameU="visVersion" v:val="VT0(15):26"/>
				<v:ud v:nameU="visMasterStencil" v:prompt="" v:val="VT4(Basic_M.vssx)"/>
			</v:userDefs>
			<v:textBlock v:margins="rect(4,4,4,4)" v:tabSpace="42.5197"/>
			<v:textRect cx="28.3465" cy="293.971" width="49.61" height="42.5197"/>
			<path d="M0 293.97 A28.3465 28.3465 0 0 1 56.69 293.97 A28.3465 28.3465 0 1 1 0 293.97 Z" class="st10"/>
			<text x="19.07" y="290.67" class="st9" v:langID="2057"><v:paragraph v:horizAlign="1"/><v:tabList/>Risk <tspan x="11.79"
						dy="1.2em" class="st7">Factors</tspan></text>		</g>
		<g id="shape1025-27" v:mID="1025" v:groupContext="shape" transform="translate(174.505,-55.7219)">
			<title>Circle.1025</title>
			<desc>Disease status</desc>
			<v:userDefs>
				<v:ud v:nameU="visVersion" v:val="VT0(15):26"/>
				<v:ud v:nameU="visMasterStencil" v:prompt="" v:val="VT4(Basic_M.vssx)"/>
			</v:userDefs>
			<v:textBlock v:margins="rect(4,4,4,4)" v:tabSpace="42.5197"/>
			<v:textRect cx="28.3465" cy="293.971" width="49.61" height="42.5197"/>
			<path d="M0 293.97 A28.3465 28.3465 0 0 1 56.69 293.97 A28.3465 28.3465 0 1 1 0 293.97 Z" class="st8"/>
			<text x="10.89" y="290.67" class="st9" v:langID="2057"><v:paragraph v:horizAlign="1"/><v:tabList/>Disease <tspan
						x="14.48" dy="1.2em" class="st7">status</tspan></text>		</g>
		<g id="shape1026-31" v:mID="1026" v:groupContext="shape" transform="translate(70.4144,-62.4449)">
			<title>Circle.1026</title>
			<desc>Publish results</desc>
			<v:userDefs>
				<v:ud v:nameU="visVersion" v:val="VT0(15):26"/>
				<v:ud v:nameU="visMasterStencil" v:prompt="" v:val="VT4(Basic_M.vssx)"/>
			</v:userDefs>
			<v:textBlock v:margins="rect(4,4,4,4)" v:tabSpace="42.5197"/>
			<v:textRect cx="28.3465" cy="293.971" width="49.61" height="42.5197"/>
			<path d="M0 293.97 A28.3465 28.3465 0 0 1 56.69 293.97 A28.3465 28.3465 0 1 1 0 293.97 Z" class="st8"/>
			<text x="11.67" y="290.67" class="st9" v:langID="2057"><v:paragraph v:horizAlign="1"/><v:tabList/>Publish <tspan
						x="13.03" dy="1.2em" class="st7">results</tspan></text>		</g>
		<g id="shape1028-35" v:mID="1028" v:groupContext="shape" transform="translate(-206.27,-41.3756) rotate(-60)">
			<title>Expand.1028</title>
			<v:userDefs>
				<v:ud v:nameU="msvShapeCategories" v:prompt="" v:val="VT4(Icon)"/>
				<v:ud v:nameU="visVersion" v:prompt="" v:val="VT0(15):26"/>
			</v:userDefs>
			<path d="M10.85 322.32 L8.88 320.31 L16.77 312.29 L8.88 304.28 L10.85 302.27 L20.72 312.29 L10.85 322.32 ZM1.97 322.32
						 L0 320.31 L7.89 312.29 L0 304.28 L1.97 302.27 L11.84 312.29 L1.97 322.32 Z" class="st11"/>
		</g>
		<g id="shape1030-37" v:mID="1030" v:groupContext="shape" transform="translate(93.3307,-108.969)">
			<title>Venn Diagram Shape.1030</title>
			<desc>Initialisation</desc>
			<v:userDefs>
				<v:ud v:nameU="AccentColorID" v:prompt="" v:val="VT0(6):26"/>
				<v:ud v:nameU="visVersion" v:prompt="" v:val="VT0(15):26"/>
				<v:ud v:nameU="AccentColorID" v:prompt="" v:val="VT0(5):26"/>
			</v:userDefs>
			<v:textBlock v:margins="rect(4,4,4,4)" v:tabSpace="42.5197"/>
			<v:textRect cx="62.438" cy="261.438" width="124.88" height="121.758"/>
			<ellipse cx="62.438" cy="261.438" rx="62.438" ry="60.8788" class="st3"/>
			<ellipse cx="62.438" cy="261.438" rx="62.438" ry="60.8788" class="st2"/>
			<text x="15.77" y="266.84" class="st4" v:langID="2057"><v:paragraph v:horizAlign="1"/><v:tabList/>Initialisation</text>		</g>
		<g id="shape1031-41" v:mID="1031" v:groupContext="shape" transform="translate(138.009,-257.934)">
			<title>Expand.1031</title>
			<v:userDefs>
				<v:ud v:nameU="msvShapeCategories" v:prompt="" v:val="VT4(Icon)"/>
				<v:ud v:nameU="visVersion" v:prompt="" v:val="VT0(15):26"/>
			</v:userDefs>
			<path d="M10.85 322.32 L8.88 320.31 L16.77 312.29 L8.88 304.28 L10.85 302.27 L20.72 312.29 L10.85 322.32 ZM1.97 322.32
						 L0 320.31 L7.89 312.29 L0 304.28 L1.97 302.27 L11.84 312.29 L1.97 322.32 Z" class="st11"/>
		</g>
		<g id="shape1032-43" v:mID="1032" v:groupContext="shape" transform="translate(499.949,-70.7184) rotate(60)">
			<title>Expand.1032</title>
			<v:userDefs>
				<v:ud v:nameU="msvShapeCategories" v:prompt="" v:val="VT4(Icon)"/>
				<v:ud v:nameU="visVersion" v:prompt="" v:val="VT0(15):26"/>
			</v:userDefs>
			<path d="M10.85 322.32 L8.88 320.31 L16.77 312.29 L8.88 304.28 L10.85 302.27 L20.72 312.29 L10.85 322.32 ZM1.97 322.32
						 L0 320.31 L7.89 312.29 L0 304.28 L1.97 302.27 L11.84 312.29 L1.97 322.32 Z" class="st11"/>
		</g>
		<g id="shape1033-45" v:mID="1033" v:groupContext="shape" transform="translate(529.754,319.766) rotate(115.896)">
			<title>Expand.1033</title>
			<v:userDefs>
				<v:ud v:nameU="msvShapeCategories" v:prompt="" v:val="VT4(Icon)"/>
				<v:ud v:nameU="visVersion" v:prompt="" v:val="VT0(15):26"/>
			</v:userDefs>
			<path d="M10.85 322.32 L8.88 320.31 L16.77 312.29 L8.88 304.28 L10.85 302.27 L20.72 312.29 L10.85 322.32 ZM1.97 322.32
						 L0 320.31 L7.89 312.29 L0 304.28 L1.97 302.27 L11.84 312.29 L1.97 322.32 Z" class="st11"/>
		</g>
		<g id="shape1034-47" v:mID="1034" v:groupContext="shape" transform="translate(122.273,561.319) rotate(-172.998)">
			<title>Expand.1034</title>
			<v:userDefs>
				<v:ud v:nameU="msvShapeCategories" v:prompt="" v:val="VT4(Icon)"/>
				<v:ud v:nameU="visVersion" v:prompt="" v:val="VT0(15):26"/>
			</v:userDefs>
			<path d="M10.85 322.32 L8.88 320.31 L16.77 312.29 L8.88 304.28 L10.85 302.27 L20.72 312.29 L10.85 322.32 ZM1.97 322.32
						 L0 320.31 L7.89 312.29 L0 304.28 L1.97 302.27 L11.84 312.29 L1.97 322.32 Z" class="st11"/>
		</g>
		<g id="shape1044-49" v:mID="1044" v:groupContext="shape" transform="translate(-90.9412,494.105) rotate(-150)">
			<title>Expand.1044</title>
			<v:userDefs>
				<v:ud v:nameU="msvShapeCategories" v:prompt="" v:val="VT4(Icon)"/>
				<v:ud v:nameU="visVersion" v:prompt="" v:val="VT0(15):26"/>
			</v:userDefs>
			<path d="M10.85 322.32 L8.88 320.31 L16.77 312.29 L8.88 304.28 L10.85 302.27 L20.72 312.29 L10.85 322.32 ZM1.97 322.32
						 L0 320.31 L7.89 312.29 L0 304.28 L1.97 302.27 L11.84 312.29 L1.97 322.32 Z" class="st11"/>
		</g>
		<g id="shape1045-51" v:mID="1045" v:groupContext="shape" transform="translate(9.46948,-97.8779)">
			<title>Final state.1045</title>
			<desc>Projection</desc>
			<v:userDefs>
				<v:ud v:nameU="visVersion" v:prompt="" v:val="VT0(15):26"/>
			</v:userDefs>
			<v:textBlock v:margins="rect(4,4,4,4)" v:tabSpace="42.5197"/>
			<v:textRect cx="17.0079" cy="332.319" width="52.96" height="20.0036"/>
			<path d="M30.61 305.31 A13.6063 13.6063 -180 1 0 3.4 305.31 A13.6063 13.6063 -180 1 0 30.61 305.31 Z" class="st12"/>
			<path d="M34.02 305.31 A17.0079 17.0079 -180 1 0 0 305.31 A17.0079 17.0079 -180 1 0 34.02 305.31" class="st13"/>
			<path d="M30.61 305.31 A13.6063 13.6063 -180 1 0 3.4 305.31 A13.6063 13.6063 -180 1 0 30.61 305.31" class="st13"/>
			<text x="-4.34" y="335.32" class="st14" v:langID="2057"><v:paragraph v:horizAlign="1"/><v:tabList/>Projection</text>		</g>
		<g id="shape1046-56" v:mID="1046" v:groupContext="shape" transform="translate(383.222,-196.872)">
			<title>Circle.1046</title>
			<desc>Residual death rates</desc>
			<v:userDefs>
				<v:ud v:nameU="visVersion" v:val="VT0(15):26"/>
				<v:ud v:nameU="visMasterStencil" v:prompt="" v:val="VT4(Basic_M.vssx)"/>
			</v:userDefs>
			<v:textBlock v:margins="rect(4,4,4,4)" v:tabSpace="42.5197"/>
			<v:textRect cx="28.3465" cy="293.971" width="49.61" height="42.5197"/>
			<path d="M0 293.97 A28.3465 28.3465 0 0 1 56.69 293.97 A28.3465 28.3465 0 1 1 0 293.97 Z" class="st8"/>
			<text x="8.97" y="284.07" class="st9" v:langID="2057"><v:paragraph v:horizAlign="1"/><v:tabList/>Residual<v:newlineChar/><tspan
						x="15.05" dy="1.2em" class="st7">death </tspan><tspan x="16.81" dy="1.2em" class="st7">rates</tspan></text>		</g>
		<g id="shape1048-61" v:mID="1048" v:groupContext="shape" transform="translate(369.174,-121.991)">
			<title>Circle.1048</title>
			<desc>Start</desc>
			<v:userDefs>
				<v:ud v:nameU="visVersion" v:val="VT0(15):26"/>
				<v:ud v:nameU="visMasterStencil" v:prompt="" v:val="VT4(Basic_M.vssx)"/>
			</v:userDefs>
			<v:textBlock v:margins="rect(4,4,4,4)" v:tabSpace="42.5197"/>
			<v:textRect cx="28.3465" cy="293.971" width="49.61" height="42.5197"/>
			<path d="M0 293.97 A28.3465 28.3465 0 0 1 56.69 293.97 A28.3465 28.3465 0 1 1 0 293.97 Z" class="st5"/>
			<text x="18.27" y="296.97" class="st6" v:langID="2057"><v:paragraph v:horizAlign="1"/><v:tabList/>Start</text>		</g>
		<g id="shape1049-64" v:mID="1049" v:groupContext="shape" transform="translate(437.205,-248.332)">
			<title>Circle.1049</title>
			<desc>Time + 1</desc>
			<v:userDefs>
				<v:ud v:nameU="visVersion" v:val="VT0(15):26"/>
				<v:ud v:nameU="visMasterStencil" v:prompt="" v:val="VT4(Basic_M.vssx)"/>
			</v:userDefs>
			<v:textBlock v:margins="rect(4,4,4,4)" v:tabSpace="42.5197"/>
			<v:textRect cx="28.3465" cy="293.971" width="49.61" height="42.5197"/>
			<path d="M0 293.97 A28.3465 28.3465 0 1 1 56.69 293.97 A28.3465 28.3465 0 0 1 0 293.97 Z" class="st5"/>
			<text x="10.77" y="296.97" class="st6" v:langID="2057"><v:paragraph v:horizAlign="1"/><v:tabList/>Time + 1</text>		</g>
		<g id="shape1051-67" v:mID="1051" v:groupContext="shape" transform="translate(524.861,-262.287)">
			<title>Circle.1051</title>
			<desc>Ageing Deaths Births</desc>
			<v:userDefs>
				<v:ud v:nameU="visVersion" v:val="VT0(15):26"/>
				<v:ud v:nameU="visMasterStencil" v:prompt="" v:val="VT4(Basic_M.vssx)"/>
			</v:userDefs>
			<v:textBlock v:margins="rect(4,4,4,4)" v:tabSpace="42.5197"/>
			<v:textRect cx="28.3465" cy="293.971" width="49.61" height="42.5197"/>
			<path d="M0 293.97 A28.3465 28.3465 0 0 1 56.69 293.97 A28.3465 28.3465 0 1 1 0 293.97 Z" class="st8"/>
			<text x="12.73" y="284.07" class="st9" v:langID="2057"><v:paragraph v:horizAlign="1"/><v:tabList/>Ageing<v:newlineChar/><tspan
						x="12.34" dy="1.2em" class="st7">Deaths<v:newlineChar/></tspan><tspan x="14.91" dy="1.2em" class="st7">Births</tspan></text>		</g>
		<g id="shape1052-72" v:mID="1052" v:groupContext="shape" transform="translate(600.95,-216.933)">
			<title>Circle.1052</title>
			<desc>SES (Births)</desc>
			<v:userDefs>
				<v:ud v:nameU="visVersion" v:val="VT0(15):26"/>
				<v:ud v:nameU="visMasterStencil" v:prompt="" v:val="VT4(Basic_M.vssx)"/>
			</v:userDefs>
			<v:textBlock v:margins="rect(4,4,4,4)" v:tabSpace="42.5197"/>
			<v:textRect cx="28.3465" cy="293.971" width="49.61" height="42.5197"/>
			<path d="M0 293.97 A28.3465 28.3465 0 0 1 56.69 293.97 A28.3465 28.3465 0 1 1 0 293.97 Z" class="st8"/>
			<text x="20.46" y="290.67" class="st9" v:langID="2057"><v:paragraph v:horizAlign="1"/><v:tabList/>SES<v:newlineChar/><tspan
						x="14.94" dy="1.467em" class="st15">(Births)</tspan></text>		</g>
		<g id="shape1053-76" v:mID="1053" v:groupContext="shape" transform="translate(631.913,-131.686)">
			<title>Circle.1053</title>
			<desc>Risk Factors</desc>
			<v:userDefs>
				<v:ud v:nameU="visVersion" v:val="VT0(15):26"/>
				<v:ud v:nameU="visMasterStencil" v:prompt="" v:val="VT4(Basic_M.vssx)"/>
			</v:userDefs>
			<v:textBlock v:margins="rect(4,4,4,4)" v:tabSpace="42.5197"/>
			<v:textRect cx="28.3465" cy="293.971" width="49.61" height="42.5197"/>
			<path d="M0 293.97 A28.3465 28.3465 0 0 1 56.69 293.97 A28.3465 28.3465 0 1 1 0 293.97 Z" class="st10"/>
			<text x="19.07" y="290.67" class="st9" v:langID="2057"><v:paragraph v:horizAlign="1"/><v:tabList/>Risk <tspan x="11.79"
						dy="1.2em" class="st7">Factors</tspan></text>		</g>
		<g id="shape1055-80" v:mID="1055" v:groupContext="shape" transform="translate(586.559,-23.9294)">
			<title>Circle.1055</title>
			<desc>Migration</desc>
			<v:userDefs>
				<v:ud v:nameU="visVersion" v:val="VT0(15):26"/>
				<v:ud v:nameU="visMasterStencil" v:prompt="" v:val="VT4(Basic_M.vssx)"/>
			</v:userDefs>
			<v:textBlock v:margins="rect(4,4,4,4)" v:tabSpace="42.5197"/>
			<v:textRect cx="31.1811" cy="291.136" width="54.57" height="46.7717"/>
			<path d="M0 291.14 A31.1811 31.1811 0 0 1 62.36 291.14 A31.1811 31.1811 0 1 1 0 291.14 Z" class="st8"/>
			<text x="8.58" y="294.44" class="st9" v:langID="2057"><v:paragraph v:horizAlign="1"/><v:tabList/>Migration</text>		</g>
		<g id="shape1056-83" v:mID="1056" v:groupContext="shape" transform="translate(488.229,-1.5)">
			<title>Circle.1056</title>
			<desc>Disease status</desc>
			<v:userDefs>
				<v:ud v:nameU="visVersion" v:val="VT0(15):26"/>
				<v:ud v:nameU="visMasterStencil" v:prompt="" v:val="VT4(Basic_M.vssx)"/>
			</v:userDefs>
			<v:textBlock v:margins="rect(4,4,4,4)" v:tabSpace="42.5197"/>
			<v:textRect cx="28.3465" cy="293.971" width="49.61" height="42.5197"/>
			<path d="M0 293.97 A28.3465 28.3465 0 0 1 56.69 293.97 A28.3465 28.3465 0 1 1 0 293.97 Z" class="st8"/>
			<text x="10.89" y="290.67" class="st9" v:langID="2057"><v:paragraph v:horizAlign="1"/><v:tabList/>Disease <tspan
						x="14.48" dy="1.2em" class="st7">status</tspan></text>		</g>
		<g id="shape1057-87" v:mID="1057" v:groupContext="shape" transform="translate(403.189,-42.7854)">
			<title>Circle.1057</title>
			<desc>Publish results</desc>
			<v:userDefs>
				<v:ud v:nameU="visVersion" v:val="VT0(15):26"/>
				<v:ud v:nameU="visMasterStencil" v:prompt="" v:val="VT4(Basic_M.vssx)"/>
			</v:userDefs>
			<v:textBlock v:margins="rect(4,4,4,4)" v:tabSpace="42.5197"/>
			<v:textRect cx="28.3465" cy="293.971" width="49.61" height="42.5197"/>
			<path d="M0 293.97 A28.3465 28.3465 0 0 1 56.69 293.97 A28.3465 28.3465 0 1 1 0 293.97 Z" class="st8"/>
			<text x="11.67" y="290.67" class="st9" v:langID="2057"><v:paragraph v:horizAlign="1"/><v:tabList/>Publish <tspan
						x="13.03" dy="1.2em" class="st7">results</tspan></text>		</g>
		<g id="shape1062-91" v:mID="1062" v:groupContext="shape" transform="translate(126.096,383.991) rotate(-120)">
			<title>Expand.1062</title>
			<v:userDefs>
				<v:ud v:nameU="msvShapeCategories" v:prompt="" v:val="VT4(Icon)"/>
				<v:ud v:nameU="visVersion" v:prompt="" v:val="VT0(15):26"/>
			</v:userDefs>
			<path d="M10.85 322.32 L8.88 320.31 L16.77 312.29 L8.88 304.28 L10.85 302.27 L20.72 312.29 L10.85 322.32 ZM1.97 322.32
						 L0 320.31 L7.89 312.29 L0 304.28 L1.97 302.27 L11.84 312.29 L1.97 322.32 Z" class="st11"/>
		</g>
		<g id="shape1064-93" v:mID="1064" v:groupContext="shape" transform="translate(76.5441,59.3465) rotate(-75)">
			<title>Expand.1064</title>
			<v:userDefs>
				<v:ud v:nameU="msvShapeCategories" v:prompt="" v:val="VT4(Icon)"/>
				<v:ud v:nameU="visVersion" v:prompt="" v:val="VT0(15):26"/>
			</v:userDefs>
			<path d="M10.85 322.32 L8.88 320.31 L16.77 312.29 L8.88 304.28 L10.85 302.27 L20.72 312.29 L10.85 322.32 ZM1.97 322.32
						 L0 320.31 L7.89 312.29 L0 304.28 L1.97 302.27 L11.84 312.29 L1.97 322.32 Z" class="st11"/>
		</g>
		<g id="shape1065-95" v:mID="1065" v:groupContext="shape" transform="translate(193.737,-160.067) rotate(-45)">
			<title>Expand.1065</title>
			<v:userDefs>
				<v:ud v:nameU="msvShapeCategories" v:prompt="" v:val="VT4(Icon)"/>
				<v:ud v:nameU="visVersion" v:prompt="" v:val="VT0(15):26"/>
			</v:userDefs>
			<path d="M10.85 322.32 L8.88 320.31 L16.77 312.29 L8.88 304.28 L10.85 302.27 L20.72 312.29 L10.85 322.32 ZM1.97 322.32
						 L0 320.31 L7.89 312.29 L0 304.28 L1.97 302.27 L11.84 312.29 L1.97 322.32 Z" class="st11"/>
		</g>
		<g id="shape1066-97" v:mID="1066" v:groupContext="shape" transform="translate(493.111,-301.521)">
			<title>Expand.1066</title>
			<v:userDefs>
				<v:ud v:nameU="msvShapeCategories" v:prompt="" v:val="VT4(Icon)"/>
				<v:ud v:nameU="visVersion" v:prompt="" v:val="VT0(15):26"/>
			</v:userDefs>
			<path d="M10.85 322.32 L8.88 320.31 L16.77 312.29 L8.88 304.28 L10.85 302.27 L20.72 312.29 L10.85 322.32 ZM1.97 322.32
						 L0 320.31 L7.89 312.29 L0 304.28 L1.97 302.27 L11.84 312.29 L1.97 322.32 Z" class="st11"/>
		</g>
		<g id="shape1067-99" v:mID="1067" v:groupContext="shape" transform="translate(748.46,-246.775) rotate(30)">
			<title>Expand.1067</title>
			<v:userDefs>
				<v:ud v:nameU="msvShapeCategories" v:prompt="" v:val="VT4(Icon)"/>
				<v:ud v:nameU="visVersion" v:prompt="" v:val="VT0(15):26"/>
			</v:userDefs>
			<path d="M10.85 322.32 L8.88 320.31 L16.77 312.29 L8.88 304.28 L10.85 302.27 L20.72 312.29 L10.85 322.32 ZM1.97 322.32
						 L0 320.31 L7.89 312.29 L0 304.28 L1.97 302.27 L11.84 312.29 L1.97 322.32 Z" class="st11"/>
		</g>
		<g id="shape1068-101" v:mID="1068" v:groupContext="shape" transform="translate(967.799,16.7562) rotate(75)">
			<title>Expand.1068</title>
			<v:userDefs>
				<v:ud v:nameU="msvShapeCategories" v:prompt="" v:val="VT4(Icon)"/>
				<v:ud v:nameU="visVersion" v:prompt="" v:val="VT0(15):26"/>
			</v:userDefs>
			<path d="M10.85 322.32 L8.88 320.31 L16.77 312.29 L8.88 304.28 L10.85 302.27 L20.72 312.29 L10.85 322.32 ZM1.97 322.32
						 L0 320.31 L7.89 312.29 L0 304.28 L1.97 302.27 L11.84 312.29 L1.97 322.32 Z" class="st11"/>
		</g>
		<g id="shape1069-103" v:mID="1069" v:groupContext="shape" transform="translate(940.6,367.588) rotate(120)">
			<title>Expand.1069</title>
			<v:userDefs>
				<v:ud v:nameU="msvShapeCategories" v:prompt="" v:val="VT4(Icon)"/>
				<v:ud v:nameU="visVersion" v:prompt="" v:val="VT0(15):26"/>
			</v:userDefs>
			<path d="M10.85 322.32 L8.88 320.31 L16.77 312.29 L8.88 304.28 L10.85 302.27 L20.72 312.29 L10.85 322.32 ZM1.97 322.32
						 L0 320.31 L7.89 312.29 L0 304.28 L1.97 302.27 L11.84 312.29 L1.97 322.32 Z" class="st11"/>
		</g>
		<g id="shape1070-105" v:mID="1070" v:groupContext="shape" transform="translate(659.073,602.494) rotate(165)">
			<title>Expand.1070</title>
			<v:userDefs>
				<v:ud v:nameU="msvShapeCategories" v:prompt="" v:val="VT4(Icon)"/>
				<v:ud v:nameU="visVersion" v:prompt="" v:val="VT0(15):26"/>
			</v:userDefs>
			<path d="M10.85 322.32 L8.88 320.31 L16.77 312.29 L8.88 304.28 L10.85 302.27 L20.72 312.29 L10.85 322.32 ZM1.97 322.32
						 L0 320.31 L7.89 312.29 L0 304.28 L1.97 302.27 L11.84 312.29 L1.97 322.32 Z" class="st11"/>
		</g>
		<g id="shape1071-107" v:mID="1071" v:groupContext="shape" transform="translate(314.081,569.214) rotate(-150)">
			<title>Expand.1071</title>
			<v:userDefs>
				<v:ud v:nameU="msvShapeCategories" v:prompt="" v:val="VT4(Icon)"/>
				<v:ud v:nameU="visVersion" v:prompt="" v:val="VT0(15):26"/>
			</v:userDefs>
			<path d="M10.85 322.32 L8.88 320.31 L16.77 312.29 L8.88 304.28 L10.85 302.27 L20.72 312.29 L10.85 322.32 ZM1.97 322.32
						 L0 320.31 L7.89 312.29 L0 304.28 L1.97 302.27 L11.84 312.29 L1.97 322.32 Z" class="st11"/>
		</g>
		<g id="shape1078-109" v:mID="1078" v:groupContext="shape" transform="translate(430.516,-184.451)">
			<title>Users.1078</title>
			<v:userDefs>
				<v:ud v:nameU="msvShapeCategories" v:prompt="" v:val="VT4(Icon)"/>
				<v:ud v:nameU="visVersion" v:prompt="" v:val="VT0(15):26"/>
			</v:userDefs>
			<path d="M16.81 309.43 A2.45467 2.49394 -180 0 0 19.26 306.94 A2.45467 2.49394 -180 0 0 16.81 304.45 A2.45559 2.49488
						 -180 0 0 14.35 306.94 A2.45605 2.49535 -180 0 0 16.81 309.43 ZM16.81 303.2 A3.67871 3.73757 0 0 1 20.49
						 306.94 A3.67871 3.73757 0 0 1 16.81 310.68 A3.67856 3.73742 0 0 1 13.13 306.94 A3.67856 3.73742 0 0 1 16.81
						 303.2 ZM6.14 320.88 A4.28693 4.35552 -180 0 0 11.05 318.39 A5.39303 5.47931 -180 0 0 8.69 313.55 A18040.5
						 18329.2 -180 0 0 6.14 318.65 A9164.73 9311.37 0 0 1 3.6 313.55 A5.39362 5.47992 -180 0 0 1.24 318.39 A4.28644
						 4.35503 -180 0 0 6.14 320.88 ZM8.57 312.02 A6.46352 6.56693 0 0 1 12.28 318.39 A4.89835 4.97673 0 0 1 6.14
						 322.13 A4.89795 4.97632 0 0 1 0.01 318.39 A6.46624 6.5697 0 0 1 3.72 312.02 A4.40297 4.47342 -180 0 0 4.39
						 312.39 L6.14 315.9 L7.9 312.39 A4.33568 4.40505 -180 0 0 8.57 312.02 ZM19.23 310.54 A6.46352 6.56693 0 0
						 1 22.94 316.91 A4.89835 4.97673 0 0 1 16.81 320.64 A9.76426 9.92048 0 0 1 12.7 319.89 A3.72224 3.78179 -180
						 0 0 12.98 318.63 A8.45173 8.58696 -180 0 0 16.81 319.4 A4.28693 4.35552 -180 0 0 21.71 316.91 A5.39174 5.47801
						 -180 0 0 19.36 312.07 A11537.6 11722.2 -180 0 0 16.81 317.16 A12841 13046.5 0 0 1 14.26 312.07 A4.88739
						 4.96559 -180 0 0 12.24 314.74 A6.94134 7.0524 -180 0 0 11.45 313.41 A5.76924 5.86155 0 0 1 14.38 310.54
						 A4.40297 4.47342 -180 0 0 15.05 310.91 L16.81 314.41 L18.56 310.91 A4.33568 4.40505 -180 0 0 19.23 310.54
						 ZM6.14 310.91 A2.45421 2.49348 -180 0 0 8.6 308.42 A2.45467 2.49394 -180 0 0 6.14 305.93 A2.45559 2.49488
						 -180 0 0 3.69 308.42 A2.45605 2.49535 -180 0 0 6.14 310.91 ZM6.14 304.68 A3.67871 3.73757 0 0 1 9.82 308.42
						 A3.67871 3.73757 0 0 1 6.14 312.16 A3.67856 3.73742 0 0 1 2.47 308.42 A3.67856 3.73742 0 0 1 6.14 304.68
						 Z" class="st16"/>
		</g>
		<g id="shape1079-111" v:mID="1079" v:groupContext="shape" transform="translate(538.095,-238.338)">
			<title>Users.1079</title>
			<v:userDefs>
				<v:ud v:nameU="msvShapeCategories" v:prompt="" v:val="VT4(Icon)"/>
				<v:ud v:nameU="visVersion" v:prompt="" v:val="VT0(15):26"/>
			</v:userDefs>
			<path d="M16.81 309.43 A2.45467 2.49394 -180 0 0 19.26 306.94 A2.45467 2.49394 -180 0 0 16.81 304.45 A2.45559 2.49488
						 -180 0 0 14.35 306.94 A2.45605 2.49535 -180 0 0 16.81 309.43 ZM16.81 303.2 A3.67871 3.73757 0 0 1 20.49
						 306.94 A3.67871 3.73757 0 0 1 16.81 310.68 A3.67856 3.73742 0 0 1 13.13 306.94 A3.67856 3.73742 0 0 1 16.81
						 303.2 ZM6.14 320.88 A4.28693 4.35552 -180 0 0 11.05 318.39 A5.39303 5.47931 -180 0 0 8.69 313.55 A18040.5
						 18329.2 -180 0 0 6.14 318.65 A9164.73 9311.37 0 0 1 3.6 313.55 A5.39362 5.47992 -180 0 0 1.24 318.39 A4.28644
						 4.35503 -180 0 0 6.14 320.88 ZM8.57 312.02 A6.46352 6.56693 0 0 1 12.28 318.39 A4.89835 4.97673 0 0 1 6.14
						 322.13 A4.89795 4.97632 0 0 1 0.01 318.39 A6.46624 6.5697 0 0 1 3.72 312.02 A4.40297 4.47342 -180 0 0 4.39
						 312.39 L6.14 315.9 L7.9 312.39 A4.33568 4.40505 -180 0 0 8.57 312.02 ZM19.23 310.54 A6.46352 6.56693 0 0
						 1 22.94 316.91 A4.89835 4.97673 0 0 1 16.81 320.64 A9.76426 9.92048 0 0 1 12.7 319.89 A3.72224 3.78179 -180
						 0 0 12.98 318.63 A8.45173 8.58696 -180 0 0 16.81 319.4 A4.28693 4.35552 -180 0 0 21.71 316.91 A5.39174 5.47801
						 -180 0 0 19.36 312.07 A11537.6 11722.2 -180 0 0 16.81 317.16 A12841 13046.5 0 0 1 14.26 312.07 A4.88739
						 4.96559 -180 0 0 12.24 314.74 A6.94134 7.0524 -180 0 0 11.45 313.41 A5.76924 5.86155 0 0 1 14.38 310.54
						 A4.40297 4.47342 -180 0 0 15.05 310.91 L16.81 314.41 L18.56 310.91 A4.33568 4.40505 -180 0 0 19.23 310.54
						 ZM6.14 310.91 A2.45421 2.49348 -180 0 0 8.6 308.42 A2.45467 2.49394 -180 0 0 6.14 305.93 A2.45559 2.49488
						 -180 0 0 3.69 308.42 A2.45605 2.49535 -180 0 0 6.14 310.91 ZM6.14 304.68 A3.67871 3.73757 0 0 1 9.82 308.42
						 A3.67871 3.73757 0 0 1 6.14 312.16 A3.67856 3.73742 0 0 1 2.47 308.42 A3.67856 3.73742 0 0 1 6.14 304.68
						 Z" class="st16"/>
		</g>
		<g id="shape1080-113" v:mID="1080" v:groupContext="shape" transform="translate(575.22,-85.2379)">
			<title>Users.1080</title>
			<v:userDefs>
				<v:ud v:nameU="msvShapeCategories" v:prompt="" v:val="VT4(Icon)"/>
				<v:ud v:nameU="visVersion" v:prompt="" v:val="VT0(15):26"/>
			</v:userDefs>
			<path d="M16.81 309.43 A2.45467 2.49394 -180 0 0 19.26 306.94 A2.45467 2.49394 -180 0 0 16.81 304.45 A2.45559 2.49488
						 -180 0 0 14.35 306.94 A2.45605 2.49535 -180 0 0 16.81 309.43 ZM16.81 303.2 A3.67871 3.73757 0 0 1 20.49
						 306.94 A3.67871 3.73757 0 0 1 16.81 310.68 A3.67856 3.73742 0 0 1 13.13 306.94 A3.67856 3.73742 0 0 1 16.81
						 303.2 ZM6.14 320.88 A4.28693 4.35552 -180 0 0 11.05 318.39 A5.39303 5.47931 -180 0 0 8.69 313.55 A18040.5
						 18329.2 -180 0 0 6.14 318.65 A9164.73 9311.37 0 0 1 3.6 313.55 A5.39362 5.47992 -180 0 0 1.24 318.39 A4.28644
						 4.35503 -180 0 0 6.14 320.88 ZM8.57 312.02 A6.46352 6.56693 0 0 1 12.28 318.39 A4.89835 4.97673 0 0 1 6.14
						 322.13 A4.89795 4.97632 0 0 1 0.01 318.39 A6.46624 6.5697 0 0 1 3.72 312.02 A4.40297 4.47342 -180 0 0 4.39
						 312.39 L6.14 315.9 L7.9 312.39 A4.33568 4.40505 -180 0 0 8.57 312.02 ZM19.23 310.54 A6.46352 6.56693 0 0
						 1 22.94 316.91 A4.89835 4.97673 0 0 1 16.81 320.64 A9.76426 9.92048 0 0 1 12.7 319.89 A3.72224 3.78179 -180
						 0 0 12.98 318.63 A8.45173 8.58696 -180 0 0 16.81 319.4 A4.28693 4.35552 -180 0 0 21.71 316.91 A5.39174 5.47801
						 -180 0 0 19.36 312.07 A11537.6 11722.2 -180 0 0 16.81 317.16 A12841 13046.5 0 0 1 14.26 312.07 A4.88739
						 4.96559 -180 0 0 12.24 314.74 A6.94134 7.0524 -180 0 0 11.45 313.41 A5.76924 5.86155 0 0 1 14.38 310.54
						 A4.40297 4.47342 -180 0 0 15.05 310.91 L16.81 314.41 L18.56 310.91 A4.33568 4.40505 -180 0 0 19.23 310.54
						 ZM6.14 310.91 A2.45421 2.49348 -180 0 0 8.6 308.42 A2.45467 2.49394 -180 0 0 6.14 305.93 A2.45559 2.49488
						 -180 0 0 3.69 308.42 A2.45605 2.49535 -180 0 0 6.14 310.91 ZM6.14 304.68 A3.67871 3.73757 0 0 1 9.82 308.42
						 A3.67871 3.73757 0 0 1 6.14 312.16 A3.67856 3.73742 0 0 1 2.47 308.42 A3.67856 3.73742 0 0 1 6.14 304.68
						 Z" class="st16"/>
		</g>
		<g id="shape1083-115" v:mID="1083" v:groupContext="shape" transform="translate(115.141,-203.537)">
			<title>Users.1083</title>
			<v:userDefs>
				<v:ud v:nameU="msvShapeCategories" v:prompt="" v:val="VT4(Icon)"/>
				<v:ud v:nameU="visVersion" v:prompt="" v:val="VT0(15):26"/>
			</v:userDefs>
			<path d="M16.81 309.43 A2.45467 2.49394 -180 0 0 19.26 306.94 A2.45467 2.49394 -180 0 0 16.81 304.45 A2.45559 2.49488
						 -180 0 0 14.35 306.94 A2.45605 2.49535 -180 0 0 16.81 309.43 ZM16.81 303.2 A3.67871 3.73757 0 0 1 20.49
						 306.94 A3.67871 3.73757 0 0 1 16.81 310.68 A3.67856 3.73742 0 0 1 13.13 306.94 A3.67856 3.73742 0 0 1 16.81
						 303.2 ZM6.14 320.88 A4.28693 4.35552 -180 0 0 11.05 318.39 A5.39303 5.47931 -180 0 0 8.69 313.55 A18040.5
						 18329.2 -180 0 0 6.14 318.65 A9164.73 9311.37 0 0 1 3.6 313.55 A5.39362 5.47992 -180 0 0 1.24 318.39 A4.28644
						 4.35503 -180 0 0 6.14 320.88 ZM8.57 312.02 A6.46352 6.56693 0 0 1 12.28 318.39 A4.89835 4.97673 0 0 1 6.14
						 322.13 A4.89795 4.97632 0 0 1 0.01 318.39 A6.46624 6.5697 0 0 1 3.72 312.02 A4.40297 4.47342 -180 0 0 4.39
						 312.39 L6.14 315.9 L7.9 312.39 A4.33568 4.40505 -180 0 0 8.57 312.02 ZM19.23 310.54 A6.46352 6.56693 0 0
						 1 22.94 316.91 A4.89835 4.97673 0 0 1 16.81 320.64 A9.76426 9.92048 0 0 1 12.7 319.89 A3.72224 3.78179 -180
						 0 0 12.98 318.63 A8.45173 8.58696 -180 0 0 16.81 319.4 A4.28693 4.35552 -180 0 0 21.71 316.91 A5.39174 5.47801
						 -180 0 0 19.36 312.07 A11537.6 11722.2 -180 0 0 16.81 317.16 A12841 13046.5 0 0 1 14.26 312.07 A4.88739
						 4.96559 -180 0 0 12.24 314.74 A6.94134 7.0524 -180 0 0 11.45 313.41 A5.76924 5.86155 0 0 1 14.38 310.54
						 A4.40297 4.47342 -180 0 0 15.05 310.91 L16.81 314.41 L18.56 310.91 A4.33568 4.40505 -180 0 0 19.23 310.54
						 ZM6.14 310.91 A2.45421 2.49348 -180 0 0 8.6 308.42 A2.45467 2.49394 -180 0 0 6.14 305.93 A2.45559 2.49488
						 -180 0 0 3.69 308.42 A2.45605 2.49535 -180 0 0 6.14 310.91 ZM6.14 304.68 A3.67871 3.73757 0 0 1 9.82 308.42
						 A3.67871 3.73757 0 0 1 6.14 312.16 A3.67856 3.73742 0 0 1 2.47 308.42 A3.67856 3.73742 0 0 1 6.14 304.68
						 Z" class="st16"/>
		</g>
		<g id="shape1087-117" v:mID="1087" v:groupContext="shape" transform="translate(306.243,-140.708) rotate(-30)">
			<title>Ellipse.1087</title>
			<desc>Diseases excess mortality</desc>
			<v:userDefs>
				<v:ud v:nameU="visVersion" v:val="VT0(15):26"/>
				<v:ud v:nameU="visMasterStencil" v:prompt="" v:val="VT4(Basic_M.vssx)"/>
			</v:userDefs>
			<v:textBlock v:margins="rect(4,4,4,4)" v:tabSpace="42.5197"/>
			<v:textRect cx="42.4303" cy="305.309" width="74.26" height="29.7638"/>
			<path d="M0 305.31 A42.4303 17.0079 0 0 1 84.86 305.31 A42.4303 17.0079 0 0 1 0 305.31 Z" class="st8"/>
			<text x="10.02" y="302.31" class="st14" v:langID="2057"><v:paragraph v:horizAlign="1"/><v:tabList/>Diseases excess <tspan
						x="23.14" dy="1.2em" class="st7">mortality</tspan></text>		</g>
		<g id="shape1088-121" v:mID="1088" v:groupContext="shape" v:layerMember="0" transform="translate(514.276,-245.041)">
			<title>Dynamic connector.1088</title>
			<v:custProps>
				<v:cp v:nameU="visWfBranch" v:lbl="Condition" v:prompt="" v:type="1" v:format="Yes;No;(Blank)" v:sortKey=""
						v:invis="false" v:ask="false" v:langID="1033" v:cal="0" v:val="VT4((Blank))"/>
			</v:custProps>
			<v:userDefs>
				<v:ud v:nameU="visWfBranchIndex" v:prompt="" v:val="VT0(2):26"/>
				<v:ud v:nameU="visWfBranchStr" v:prompt="" v:val="VT4()"/>
				<v:ud v:nameU="SOLSH" v:prompt="" v:val="VT4({21c62d3a-0c14-434d-b64e-fc6e5bbfa482})"/>
				<v:ud v:nameU="ShapeClass" v:prompt="" v:val="VT0(4):26"/>
				<v:ud v:nameU="ShapeType" v:prompt="" v:val="VT0(0):26"/>
				<v:ud v:nameU="visVersion" v:prompt="" v:val="VT0(15):26"/>
				<v:ud v:nameU="visKeywords" v:prompt="" v:val="VT4(SharePoint;Workflow)"/>
				<v:ud v:nameU="visWfEvent" v:prompt="" v:val="VT0(0):26"/>
			</v:userDefs>
			<v:textBlock v:margins="rect(4,4,4,4)" v:tabSpace="42.5197"/>
			<v:textRect cx="9.44241" cy="309.544" width="50" height="20.0036"/>
			<path d="M0 322.32 L18.88 296.77" class="st17"/>
		</g>
		<g id="shape1089-124" v:mID="1089" v:groupContext="shape" v:layerMember="0" transform="translate(469.409,-215.375)">
			<title>Dynamic connector.1089</title>
			<v:custProps>
				<v:cp v:nameU="visWfBranch" v:lbl="Condition" v:prompt="" v:type="1" v:format="Yes;No;(Blank)" v:sortKey=""
						v:invis="false" v:ask="false" v:langID="1033" v:cal="0" v:val="VT4((Blank))"/>
			</v:custProps>
			<v:userDefs>
				<v:ud v:nameU="visWfBranchIndex" v:prompt="" v:val="VT0(2):26"/>
				<v:ud v:nameU="visWfBranchStr" v:prompt="" v:val="VT4()"/>
				<v:ud v:nameU="SOLSH" v:prompt="" v:val="VT4({21c62d3a-0c14-434d-b64e-fc6e5bbfa482})"/>
				<v:ud v:nameU="ShapeClass" v:prompt="" v:val="VT0(4):26"/>
				<v:ud v:nameU="ShapeType" v:prompt="" v:val="VT0(0):26"/>
				<v:ud v:nameU="visVersion" v:prompt="" v:val="VT0(15):26"/>
				<v:ud v:nameU="visKeywords" v:prompt="" v:val="VT4(SharePoint;Workflow)"/>
				<v:ud v:nameU="visWfEvent" v:prompt="" v:val="VT0(0):26"/>
			</v:userDefs>
			<v:textBlock v:margins="rect(4,4,4,4)" v:tabSpace="42.5197"/>
			<v:textRect cx="-14.7758" cy="315.231" width="50" height="20.0036"/>
			<path d="M0 316.18 L-29.55 314.28" class="st17"/>
		</g>
		<g id="shape1090-127" v:mID="1090" v:groupContext="shape" v:layerMember="0" transform="translate(617.74,-167.223)">
			<title>Dynamic connector.1090</title>
			<v:custProps>
				<v:cp v:nameU="visWfBranch" v:lbl="Condition" v:prompt="" v:type="1" v:format="Yes;No;(Blank)" v:sortKey=""
						v:invis="false" v:ask="false" v:langID="1033" v:cal="0" v:val="VT4((Blank))"/>
			</v:custProps>
			<v:userDefs>
				<v:ud v:nameU="visWfBranchIndex" v:prompt="" v:val="VT0(2):26"/>
				<v:ud v:nameU="visWfBranchStr" v:prompt="" v:val="VT4()"/>
				<v:ud v:nameU="SOLSH" v:prompt="" v:val="VT4({21c62d3a-0c14-434d-b64e-fc6e5bbfa482})"/>
				<v:ud v:nameU="ShapeClass" v:prompt="" v:val="VT0(4):26"/>
				<v:ud v:nameU="ShapeType" v:prompt="" v:val="VT0(0):26"/>
				<v:ud v:nameU="visVersion" v:prompt="" v:val="VT0(15):26"/>
				<v:ud v:nameU="visKeywords" v:prompt="" v:val="VT4(SharePoint;Workflow)"/>
				<v:ud v:nameU="visWfEvent" v:prompt="" v:val="VT0(0):26"/>
			</v:userDefs>
			<v:textBlock v:margins="rect(4,4,4,4)" v:tabSpace="42.5197"/>
			<v:textRect cx="7.08661" cy="329.404" width="50" height="20.0036"/>
			<path d="M0 329.3 L7.13 329.4" class="st18"/>
		</g>
		<g id="shape1091-133" v:mID="1091" v:groupContext="shape" transform="translate(291.756,-141.811)">
			<title>Expand.1091</title>
			<v:userDefs>
				<v:ud v:nameU="msvShapeCategories" v:prompt="" v:val="VT4(Icon)"/>
				<v:ud v:nameU="visVersion" v:prompt="" v:val="VT0(15):26"/>
			</v:userDefs>
			<path d="M32.67 322.32 L26.73 316.28 L50.48 292.15 L26.73 268.01 L32.67 261.97 L62.36 292.15 L32.67 322.32 ZM5.94 322.32
						 L0 316.28 L23.76 292.15 L0 268.01 L5.94 261.97 L35.64 292.15 L5.94 322.32 Z" class="st20"/>
		</g>
		<g id="shape1058-135" v:mID="1058" v:groupContext="shape" transform="translate(295.423,201.762) rotate(-90)">
			<title>Ellipse.1058</title>
			<desc>Intervention</desc>
			<v:userDefs>
				<v:ud v:nameU="visVersion" v:val="VT0(15):26"/>
				<v:ud v:nameU="visMasterStencil" v:prompt="" v:val="VT4(Basic_M.vssx)"/>
			</v:userDefs>
			<v:textBlock v:margins="rect(4,4,4,4)" v:tabSpace="42.5197"/>
			<v:textRect cx="39.685" cy="305.309" width="69.45" height="29.7638"/>
			<path d="M0 305.31 A39.685 17.0079 0 0 1 79.37 305.31 A39.685 17.0079 0 1 1 0 305.31 Z" class="st10"/>
			<text x="11.15" y="308.61" class="st9" v:langID="2057"><v:paragraph v:horizAlign="1"/><v:tabList/>Intervention</text>		</g>
	</g>
</svg>
