<?xml version="1.0" encoding="UTF-8" standalone="no"?>
<!DOCTYPE svg PUBLIC "-//W3C//DTD SVG 1.1//EN"
 "http://www.w3.org/Graphics/SVG/1.1/DTD/svg11.dtd">
<!-- Generated by graphviz version 7.0.6 (20230106.0513)
 -->
<!-- Title: HealthGPS.Datastore/api.h Pages: 1 -->
<svg width="1847pt" height="478pt"
 viewBox="0.00 0.00 1846.74 478.00" xmlns="http://www.w3.org/2000/svg" xmlns:xlink="http://www.w3.org/1999/xlink">
<g id="graph0" class="graph" transform="scale(1 1) rotate(0) translate(4 474)">
<title>HealthGPS.Datastore/api.h</title>
<!-- Node1 -->
<g id="node1" class="node">
<title>Node1</title>
<g id="a_node1"><a xlink:title=" ">
<polygon fill="#999999" stroke="#666666" points="969.74,-470 859.74,-470 859.74,-440 969.74,-440 969.74,-470"/>
<text text-anchor="start" x="867.74" y="-458" font-family="Helvetica,sans-Serif" font-size="10.00">HealthGPS.Datastore</text>
<text text-anchor="middle" x="914.74" y="-447" font-family="Helvetica,sans-Serif" font-size="10.00">/api.h</text>
</a>
</g>
</g>
<!-- Node2 -->
<g id="node2" class="node">
<title>Node2</title>
<g id="a_node2"><a xlink:href="datamanager_8h.html" target="_top" xlink:title=" ">
<polygon fill="white" stroke="#666666" points="955.24,-404 874.24,-404 874.24,-385 955.24,-385 955.24,-404"/>
<text text-anchor="middle" x="914.74" y="-392" font-family="Helvetica,sans-Serif" font-size="10.00">datamanager.h</text>
</a>
</g>
</g>
<!-- Node1&#45;&gt;Node2 -->
<g id="edge1" class="edge">
<title>Node1&#45;&gt;Node2</title>
<path fill="none" stroke="#63b8ff" d="M914.74,-439.54C914.74,-432.34 914.74,-423.53 914.74,-415.68"/>
<polygon fill="#63b8ff" stroke="#63b8ff" points="918.24,-415.69 914.74,-405.69 911.24,-415.69 918.24,-415.69"/>
</g>
<!-- Node3 -->
<g id="node3" class="node">
<title>Node3</title>
<g id="a_node3"><a xlink:href="_health_g_p_s_8_core_2api_8h.html" target="_top" xlink:title=" ">
<polygon fill="white" stroke="#666666" points="866.24,-349 753.24,-349 753.24,-330 866.24,-330 866.24,-349"/>
<text text-anchor="middle" x="809.74" y="-337" font-family="Helvetica,sans-Serif" font-size="10.00">HealthGPS.Core/api.h</text>
</a>
</g>
</g>
<!-- Node2&#45;&gt;Node3 -->
<g id="edge2" class="edge">
<title>Node2&#45;&gt;Node3</title>
<path fill="none" stroke="#63b8ff" d="M896.92,-384.51C880.61,-376.27 856.21,-363.96 837.36,-354.45"/>
<polygon fill="#63b8ff" stroke="#63b8ff" points="839.14,-351.42 828.64,-350.04 835.99,-357.67 839.14,-351.42"/>
</g>
<!-- Node47 -->
<g id="node47" class="node">
<title>Node47</title>
<g id="a_node47"><a xlink:title=" ">
<polygon fill="#e0e0e0" stroke="#999999" points="945.24,-349 884.24,-349 884.24,-330 945.24,-330 945.24,-349"/>
<text text-anchor="middle" x="914.74" y="-337" font-family="Helvetica,sans-Serif" font-size="10.00">filesystem</text>
</a>
</g>
</g>
<!-- Node2&#45;&gt;Node47 -->
<g id="edge84" class="edge">
<title>Node2&#45;&gt;Node47</title>
<path fill="none" stroke="#63b8ff" d="M914.74,-384.75C914.74,-378.27 914.74,-369.16 914.74,-360.9"/>
<polygon fill="#63b8ff" stroke="#63b8ff" points="918.24,-360.96 914.74,-350.96 911.24,-360.96 918.24,-360.96"/>
</g>
<!-- Node48 -->
<g id="node48" class="node">
<title>Node48</title>
<g id="a_node48"><a xlink:title=" ">
<polygon fill="#e0e0e0" stroke="#999999" points="1061.74,-349 963.74,-349 963.74,-330 1061.74,-330 1061.74,-349"/>
<text text-anchor="middle" x="1012.74" y="-337" font-family="Helvetica,sans-Serif" font-size="10.00">nlohmann/json.hpp</text>
</a>
</g>
</g>
<!-- Node2&#45;&gt;Node48 -->
<g id="edge85" class="edge">
<title>Node2&#45;&gt;Node48</title>
<path fill="none" stroke="#63b8ff" d="M931.36,-384.51C946.52,-376.31 969.15,-364.07 986.71,-354.58"/>
<polygon fill="#63b8ff" stroke="#63b8ff" points="987.9,-357.91 995.03,-350.08 984.57,-351.76 987.9,-357.91"/>
</g>
<!-- Node4 -->
<g id="node4" class="node">
<title>Node4</title>
<g id="a_node4"><a xlink:href="version_8h.html" target="_top" xlink:title=" ">
<polygon fill="white" stroke="#666666" points="99.24,-294 44.24,-294 44.24,-275 99.24,-275 99.24,-294"/>
<text text-anchor="middle" x="71.74" y="-282" font-family="Helvetica,sans-Serif" font-size="10.00">version.h</text>
</a>
</g>
</g>
<!-- Node3&#45;&gt;Node4 -->
<g id="edge3" class="edge">
<title>Node3&#45;&gt;Node4</title>
<path fill="none" stroke="#63b8ff" d="M752.75,-334.41C608.78,-324.07 233.23,-297.1 110.89,-288.31"/>
<polygon fill="#63b8ff" stroke="#63b8ff" points="111.26,-284.83 101.04,-287.6 110.76,-291.81 111.26,-284.83"/>
</g>
<!-- Node6 -->
<g id="node6" class="node">
<title>Node6</title>
<g id="a_node6"><a xlink:href="datastore_8h.html" target="_top" xlink:title=" ">
<polygon fill="white" stroke="#666666" points="728.24,-294 663.24,-294 663.24,-275 728.24,-275 728.24,-294"/>
<text text-anchor="middle" x="695.74" y="-282" font-family="Helvetica,sans-Serif" font-size="10.00">datastore.h</text>
</a>
</g>
</g>
<!-- Node3&#45;&gt;Node6 -->
<g id="edge5" class="edge">
<title>Node3&#45;&gt;Node6</title>
<path fill="none" stroke="#63b8ff" d="M790.4,-329.51C772.52,-321.2 745.7,-308.73 725.16,-299.18"/>
<polygon fill="#63b8ff" stroke="#63b8ff" points="726.71,-296.04 716.16,-295 723.75,-302.39 726.71,-296.04"/>
</g>
<!-- Node9 -->
<g id="node9" class="node">
<title>Node9</title>
<g id="a_node9"><a xlink:href="interval_8h.html" target="_top" xlink:title=" ">
<polygon fill="white" stroke="#666666" points="779.24,-239 724.24,-239 724.24,-220 779.24,-220 779.24,-239"/>
<text text-anchor="middle" x="751.74" y="-227" font-family="Helvetica,sans-Serif" font-size="10.00">interval.h</text>
</a>
</g>
</g>
<!-- Node3&#45;&gt;Node9 -->
<g id="edge69" class="edge">
<title>Node3&#45;&gt;Node9</title>
<path fill="none" stroke="#63b8ff" d="M804.99,-329.66C795.6,-312.18 774.47,-272.84 761.83,-249.3"/>
<polygon fill="#63b8ff" stroke="#63b8ff" points="765.08,-247.95 757.26,-240.79 758.91,-251.26 765.08,-247.95"/>
</g>
<!-- Node16 -->
<g id="node16" class="node">
<title>Node16</title>
<g id="a_node16"><a xlink:href="poco_8h.html" target="_top" xlink:title=" ">
<polygon fill="white" stroke="#666666" points="318.74,-239 272.74,-239 272.74,-220 318.74,-220 318.74,-239"/>
<text text-anchor="middle" x="295.74" y="-227" font-family="Helvetica,sans-Serif" font-size="10.00">poco.h</text>
</a>
</g>
</g>
<!-- Node3&#45;&gt;Node16 -->
<g id="edge83" class="edge">
<title>Node3&#45;&gt;Node16</title>
<path fill="none" stroke="#63b8ff" d="M752.94,-334.53C685.95,-329.02 571.58,-317.03 475.74,-294 422.39,-281.18 362.75,-258.38 327.27,-243.87"/>
<polygon fill="#63b8ff" stroke="#63b8ff" points="328.62,-240.64 318.04,-240.05 325.95,-247.11 328.62,-240.64"/>
</g>
<!-- Node22 -->
<g id="node22" class="node">
<title>Node22</title>
<g id="a_node22"><a xlink:href="identifier_8h.html" target="_top" xlink:title=" ">
<polygon fill="white" stroke="#666666" points="567.24,-129 506.24,-129 506.24,-110 567.24,-110 567.24,-129"/>
<text text-anchor="middle" x="536.74" y="-117" font-family="Helvetica,sans-Serif" font-size="10.00">identifier.h</text>
</a>
</g>
</g>
<!-- Node3&#45;&gt;Node22 -->
<g id="edge82" class="edge">
<title>Node3&#45;&gt;Node22</title>
<path fill="none" stroke="#63b8ff" d="M758.55,-329.54C680.12,-314.59 536.47,-281.91 509.74,-239 490.1,-207.49 510.22,-163.31 524.71,-138.77"/>
<polygon fill="#63b8ff" stroke="#63b8ff" points="527.51,-140.89 529.83,-130.55 521.57,-137.19 527.51,-140.89"/>
</g>
<!-- Node27 -->
<g id="node27" class="node">
<title>Node27</title>
<g id="a_node27"><a xlink:href="visitor_8h.html" target="_top" xlink:title=" ">
<polygon fill="white" stroke="#666666" points="1316.74,-129 1266.74,-129 1266.74,-110 1316.74,-110 1316.74,-129"/>
<text text-anchor="middle" x="1291.74" y="-117" font-family="Helvetica,sans-Serif" font-size="10.00">visitor.h</text>
</a>
</g>
</g>
<!-- Node3&#45;&gt;Node27 -->
<g id="edge39" class="edge">
<title>Node3&#45;&gt;Node27</title>
<path fill="none" stroke="#63b8ff" d="M866.62,-331.16C869.7,-330.76 872.76,-330.38 875.74,-330 1004.59,-313.71 1037.24,-312.91 1165.74,-294 1405.47,-258.73 1551.57,-375.74 1699.74,-184 1746.11,-124 1437.17,-119.8 1328.53,-120.15"/>
<polygon fill="#63b8ff" stroke="#63b8ff" points="1328.68,-116.65 1318.7,-120.2 1328.72,-123.65 1328.68,-116.65"/>
</g>
<!-- Node28 -->
<g id="node28" class="node">
<title>Node28</title>
<g id="a_node28"><a xlink:href="datatable_8h.html" target="_top" xlink:title=" ">
<polygon fill="white" stroke="#666666" points="879.24,-239 814.24,-239 814.24,-220 879.24,-220 879.24,-239"/>
<text text-anchor="middle" x="846.74" y="-227" font-family="Helvetica,sans-Serif" font-size="10.00">datatable.h</text>
</a>
</g>
</g>
<!-- Node3&#45;&gt;Node28 -->
<g id="edge41" class="edge">
<title>Node3&#45;&gt;Node28</title>
<path fill="none" stroke="#63b8ff" d="M812.76,-329.66C818.67,-312.42 831.87,-273.9 839.96,-250.27"/>
<polygon fill="#63b8ff" stroke="#63b8ff" points="843.25,-251.49 843.18,-240.89 836.62,-249.22 843.25,-251.49"/>
</g>
<!-- Node36 -->
<g id="node36" class="node">
<title>Node36</title>
<g id="a_node36"><a xlink:href="column__numeric_8h.html" target="_top" xlink:title=" ">
<polygon fill="white" stroke="#666666" points="1042.74,-294 946.74,-294 946.74,-275 1042.74,-275 1042.74,-294"/>
<text text-anchor="middle" x="994.74" y="-282" font-family="Helvetica,sans-Serif" font-size="10.00">column_numeric.h</text>
</a>
</g>
</g>
<!-- Node3&#45;&gt;Node36 -->
<g id="edge54" class="edge">
<title>Node3&#45;&gt;Node36</title>
<path fill="none" stroke="#63b8ff" d="M841.12,-329.51C871.78,-320.73 918.64,-307.3 952.55,-297.59"/>
<polygon fill="#63b8ff" stroke="#63b8ff" points="953.41,-300.98 962.05,-294.86 951.48,-294.25 953.41,-300.98"/>
</g>
<!-- Node38 -->
<g id="node38" class="node">
<title>Node38</title>
<g id="a_node38"><a xlink:href="column__iterator_8h.html" target="_top" xlink:title=" ">
<polygon fill="white" stroke="#666666" points="1838.74,-184 1746.74,-184 1746.74,-165 1838.74,-165 1838.74,-184"/>
<text text-anchor="middle" x="1792.74" y="-172" font-family="Helvetica,sans-Serif" font-size="10.00">column_iterator.h</text>
</a>
</g>
</g>
<!-- Node3&#45;&gt;Node38 -->
<g id="edge68" class="edge">
<title>Node3&#45;&gt;Node38</title>
<path fill="none" stroke="#63b8ff" d="M866.59,-330.86C869.68,-330.55 872.74,-330.26 875.74,-330 970.7,-321.91 1652.6,-345.59 1732.74,-294 1767.37,-271.7 1782.89,-222.82 1789.1,-195.31"/>
<polygon fill="#63b8ff" stroke="#63b8ff" points="1792.46,-196.33 1791.03,-185.84 1785.6,-194.93 1792.46,-196.33"/>
</g>
<!-- Node40 -->
<g id="node40" class="node">
<title>Node40</title>
<g id="a_node40"><a xlink:href="column__builder_8h.html" target="_top" xlink:title=" ">
<polygon fill="white" stroke="#666666" points="1479.74,-239 1389.74,-239 1389.74,-220 1479.74,-220 1479.74,-239"/>
<text text-anchor="middle" x="1434.74" y="-227" font-family="Helvetica,sans-Serif" font-size="10.00">column_builder.h</text>
</a>
</g>
</g>
<!-- Node3&#45;&gt;Node40 -->
<g id="edge62" class="edge">
<title>Node3&#45;&gt;Node40</title>
<path fill="none" stroke="#63b8ff" d="M866.63,-330.47C925.56,-322 1020.24,-307.98 1101.74,-294 1199.75,-277.19 1313.46,-254.91 1379.44,-241.7"/>
<polygon fill="#63b8ff" stroke="#63b8ff" points="1379.79,-245.2 1388.91,-239.8 1378.42,-238.33 1379.79,-245.2"/>
</g>
<!-- Node43 -->
<g id="node43" class="node">
<title>Node43</title>
<g id="a_node43"><a xlink:href="array2d_8h.html" target="_top" xlink:title=" ">
<polygon fill="white" stroke="#666666" points="1298.24,-239 1241.24,-239 1241.24,-220 1298.24,-220 1298.24,-239"/>
<text text-anchor="middle" x="1269.74" y="-227" font-family="Helvetica,sans-Serif" font-size="10.00">array2d.h</text>
</a>
</g>
</g>
<!-- Node3&#45;&gt;Node43 -->
<g id="edge70" class="edge">
<title>Node3&#45;&gt;Node43</title>
<path fill="none" stroke="#63b8ff" d="M866.31,-329.77C915.57,-321.77 988.76,-308.92 1051.74,-294 1115.47,-278.9 1188.3,-256.65 1231.58,-242.89"/>
<polygon fill="#63b8ff" stroke="#63b8ff" points="1232.54,-246.26 1241,-239.88 1230.41,-239.59 1232.54,-246.26"/>
</g>
<!-- Node46 -->
<g id="node46" class="node">
<title>Node46</title>
<g id="a_node46"><a xlink:href="univariate__summary_8h.html" target="_top" xlink:title=" ">
<polygon fill="white" stroke="#666666" points="629.24,-239 518.24,-239 518.24,-220 629.24,-220 629.24,-239"/>
<text text-anchor="middle" x="573.74" y="-227" font-family="Helvetica,sans-Serif" font-size="10.00">univariate_summary.h</text>
</a>
</g>
</g>
<!-- Node3&#45;&gt;Node46 -->
<g id="edge78" class="edge">
<title>Node3&#45;&gt;Node46</title>
<path fill="none" stroke="#63b8ff" d="M760.8,-329.52C729.35,-322.54 688.27,-311.13 654.74,-294 630.26,-281.5 605.96,-261.1 590.45,-246.8"/>
<polygon fill="#63b8ff" stroke="#63b8ff" points="593.18,-244.56 583.51,-240.23 588.37,-249.65 593.18,-244.56"/>
</g>
<!-- Node5 -->
<g id="node5" class="node">
<title>Node5</title>
<g id="a_node5"><a xlink:title=" ">
<polygon fill="#e0e0e0" stroke="#999999" points="344.24,-74 303.24,-74 303.24,-55 344.24,-55 344.24,-74"/>
<text text-anchor="middle" x="323.74" y="-62" font-family="Helvetica,sans-Serif" font-size="10.00">string</text>
</a>
</g>
</g>
<!-- Node4&#45;&gt;Node5 -->
<g id="edge4" class="edge">
<title>Node4&#45;&gt;Node5</title>
<path fill="none" stroke="#63b8ff" d="M63.71,-274.78C39.34,-247.26 -29.48,-161.04 14.74,-110 50.3,-68.95 219.55,-64.9 291.38,-65.08"/>
<polygon fill="#63b8ff" stroke="#63b8ff" points="291.29,-68.58 301.31,-65.13 291.33,-61.58 291.29,-68.58"/>
</g>
<!-- Node7 -->
<g id="node7" class="node">
<title>Node7</title>
<g id="a_node7"><a xlink:title=" ">
<polygon fill="#e0e0e0" stroke="#999999" points="741.74,-129 699.74,-129 699.74,-110 741.74,-110 741.74,-129"/>
<text text-anchor="middle" x="720.74" y="-117" font-family="Helvetica,sans-Serif" font-size="10.00">vector</text>
</a>
</g>
</g>
<!-- Node6&#45;&gt;Node7 -->
<g id="edge6" class="edge">
<title>Node6&#45;&gt;Node7</title>
<path fill="none" stroke="#63b8ff" d="M687.73,-274.51C667.86,-252.11 617.61,-194.8 613.74,-184 610.88,-176.05 609.05,-172.02 613.74,-165 630.22,-140.29 663.27,-129.28 688.3,-124.39"/>
<polygon fill="#63b8ff" stroke="#63b8ff" points="688.73,-127.87 698,-122.75 687.56,-120.97 688.73,-127.87"/>
</g>
<!-- Node8 -->
<g id="node8" class="node">
<title>Node8</title>
<g id="a_node8"><a xlink:title=" ">
<polygon fill="#e0e0e0" stroke="#999999" points="672.74,-184 622.74,-184 622.74,-165 672.74,-165 672.74,-184"/>
<text text-anchor="middle" x="647.74" y="-172" font-family="Helvetica,sans-Serif" font-size="10.00">optional</text>
</a>
</g>
</g>
<!-- Node6&#45;&gt;Node8 -->
<g id="edge7" class="edge">
<title>Node6&#45;&gt;Node8</title>
<path fill="none" stroke="#63b8ff" d="M692.84,-274.72C688.65,-262.33 680.44,-239.09 671.74,-220 667.77,-211.32 662.85,-201.98 658.49,-194.11"/>
<polygon fill="#63b8ff" stroke="#63b8ff" points="661.59,-192.48 653.62,-185.51 655.5,-195.93 661.59,-192.48"/>
</g>
<!-- Node6&#45;&gt;Node9 -->
<g id="edge8" class="edge">
<title>Node6&#45;&gt;Node9</title>
<path fill="none" stroke="#63b8ff" d="M705.24,-274.51C713.17,-267 724.69,-256.1 734.27,-247.03"/>
<polygon fill="#63b8ff" stroke="#63b8ff" points="736.42,-249.81 741.28,-240.4 731.61,-244.73 736.42,-249.81"/>
</g>
<!-- Node6&#45;&gt;Node16 -->
<g id="edge16" class="edge">
<title>Node6&#45;&gt;Node16</title>
<path fill="none" stroke="#63b8ff" d="M663,-279.16C588.44,-269.28 406.53,-245.18 330.27,-235.08"/>
<polygon fill="#63b8ff" stroke="#63b8ff" points="330.85,-231.62 320.47,-233.78 329.93,-238.56 330.85,-231.62"/>
</g>
<!-- Node10 -->
<g id="node10" class="node">
<title>Node10</title>
<g id="a_node10"><a xlink:href="forward__type_8h.html" target="_top" xlink:title=" ">
<polygon fill="white" stroke="#666666" points="711.74,-74 631.74,-74 631.74,-55 711.74,-55 711.74,-74"/>
<text text-anchor="middle" x="671.74" y="-62" font-family="Helvetica,sans-Serif" font-size="10.00">forward_type.h</text>
</a>
</g>
</g>
<!-- Node9&#45;&gt;Node10 -->
<g id="edge9" class="edge">
<title>Node9&#45;&gt;Node10</title>
<path fill="none" stroke="#63b8ff" d="M745.18,-219.61C732.99,-202.73 706.61,-164.52 690.74,-129 684.47,-114.98 679.57,-98.31 676.32,-85.57"/>
<polygon fill="#63b8ff" stroke="#63b8ff" points="679.72,-84.76 673.98,-75.86 672.92,-86.4 679.72,-84.76"/>
</g>
<!-- Node13 -->
<g id="node13" class="node">
<title>Node13</title>
<g id="a_node13"><a xlink:href="string__util_8h.html" target="_top" xlink:title=" ">
<polygon fill="white" stroke="#666666" points="357.24,-129 290.24,-129 290.24,-110 357.24,-110 357.24,-129"/>
<text text-anchor="middle" x="323.74" y="-117" font-family="Helvetica,sans-Serif" font-size="10.00">string_util.h</text>
</a>
</g>
</g>
<!-- Node9&#45;&gt;Node13 -->
<g id="edge12" class="edge">
<title>Node9&#45;&gt;Node13</title>
<path fill="none" stroke="#63b8ff" d="M723.82,-226.31C634.01,-219.16 357.44,-196.24 342.74,-184 330.01,-173.41 325.59,-154.67 324.16,-140.28"/>
<polygon fill="#63b8ff" stroke="#63b8ff" points="327.67,-140.38 323.62,-130.59 320.68,-140.77 327.67,-140.38"/>
</g>
<!-- Node15 -->
<g id="node15" class="node">
<title>Node15</title>
<g id="a_node15"><a xlink:title=" ">
<polygon fill="#e0e0e0" stroke="#999999" points="1036.74,-184 968.74,-184 968.74,-165 1036.74,-165 1036.74,-184"/>
<text text-anchor="middle" x="1002.74" y="-172" font-family="Helvetica,sans-Serif" font-size="10.00">fmt/format.h</text>
</a>
</g>
</g>
<!-- Node9&#45;&gt;Node15 -->
<g id="edge15" class="edge">
<title>Node9&#45;&gt;Node15</title>
<path fill="none" stroke="#63b8ff" d="M779.56,-222.63C822.51,-213.56 905.43,-196.05 957.21,-185.11"/>
<polygon fill="#63b8ff" stroke="#63b8ff" points="957.85,-188.56 966.91,-183.06 956.4,-181.71 957.85,-188.56"/>
</g>
<!-- Node11 -->
<g id="node11" class="node">
<title>Node11</title>
<g id="a_node11"><a xlink:title=" ">
<polygon fill="#e0e0e0" stroke="#999999" points="666.74,-19 604.74,-19 604.74,0 666.74,0 666.74,-19"/>
<text text-anchor="middle" x="635.74" y="-7" font-family="Helvetica,sans-Serif" font-size="10.00">type_traits</text>
</a>
</g>
</g>
<!-- Node10&#45;&gt;Node11 -->
<g id="edge10" class="edge">
<title>Node10&#45;&gt;Node11</title>
<path fill="none" stroke="#63b8ff" d="M665.79,-54.75C661.03,-47.73 654.17,-37.64 648.22,-28.87"/>
<polygon fill="#63b8ff" stroke="#63b8ff" points="651.18,-27 642.66,-20.69 645.38,-30.93 651.18,-27"/>
</g>
<!-- Node12 -->
<g id="node12" class="node">
<title>Node12</title>
<g id="a_node12"><a xlink:title=" ">
<polygon fill="#e0e0e0" stroke="#999999" points="730.74,-19 684.74,-19 684.74,0 730.74,0 730.74,-19"/>
<text text-anchor="middle" x="707.74" y="-7" font-family="Helvetica,sans-Serif" font-size="10.00">cstdint</text>
</a>
</g>
</g>
<!-- Node10&#45;&gt;Node12 -->
<g id="edge11" class="edge">
<title>Node10&#45;&gt;Node12</title>
<path fill="none" stroke="#63b8ff" d="M677.68,-54.75C682.45,-47.73 689.3,-37.64 695.26,-28.87"/>
<polygon fill="#63b8ff" stroke="#63b8ff" points="698.09,-30.93 700.81,-20.69 692.3,-27 698.09,-30.93"/>
</g>
<!-- Node13&#45;&gt;Node5 -->
<g id="edge13" class="edge">
<title>Node13&#45;&gt;Node5</title>
<path fill="none" stroke="#63b8ff" d="M323.74,-109.75C323.74,-103.27 323.74,-94.16 323.74,-85.9"/>
<polygon fill="#63b8ff" stroke="#63b8ff" points="327.24,-85.96 323.74,-75.96 320.24,-85.96 327.24,-85.96"/>
</g>
<!-- Node14 -->
<g id="node14" class="node">
<title>Node14</title>
<g id="a_node14"><a xlink:title=" ">
<polygon fill="#e0e0e0" stroke="#999999" points="481.74,-74 423.74,-74 423.74,-55 481.74,-55 481.74,-74"/>
<text text-anchor="middle" x="452.74" y="-62" font-family="Helvetica,sans-Serif" font-size="10.00">functional</text>
</a>
</g>
</g>
<!-- Node13&#45;&gt;Node14 -->
<g id="edge14" class="edge">
<title>Node13&#45;&gt;Node14</title>
<path fill="none" stroke="#63b8ff" d="M345.62,-109.51C366.22,-101.04 397.32,-88.27 420.72,-78.66"/>
<polygon fill="#63b8ff" stroke="#63b8ff" points="421.86,-81.97 429.78,-74.93 419.2,-75.5 421.86,-81.97"/>
</g>
<!-- Node17 -->
<g id="node17" class="node">
<title>Node17</title>
<g id="a_node17"><a xlink:href="country_8h.html" target="_top" xlink:title=" ">
<polygon fill="white" stroke="#666666" points="233.24,-129 176.24,-129 176.24,-110 233.24,-110 233.24,-129"/>
<text text-anchor="middle" x="204.74" y="-117" font-family="Helvetica,sans-Serif" font-size="10.00">country.h</text>
</a>
</g>
</g>
<!-- Node16&#45;&gt;Node17 -->
<g id="edge17" class="edge">
<title>Node16&#45;&gt;Node17</title>
<path fill="none" stroke="#63b8ff" d="M288.29,-219.66C273.29,-201.86 239.2,-161.41 219.52,-138.04"/>
<polygon fill="#63b8ff" stroke="#63b8ff" points="222.38,-136.01 213.26,-130.62 217.03,-140.52 222.38,-136.01"/>
</g>
<!-- Node18 -->
<g id="node18" class="node">
<title>Node18</title>
<g id="a_node18"><a xlink:href="population__item_8h.html" target="_top" xlink:title=" ">
<polygon fill="white" stroke="#666666" points="139.24,-184 46.24,-184 46.24,-165 139.24,-165 139.24,-184"/>
<text text-anchor="middle" x="92.74" y="-172" font-family="Helvetica,sans-Serif" font-size="10.00">population_item.h</text>
</a>
</g>
</g>
<!-- Node16&#45;&gt;Node18 -->
<g id="edge19" class="edge">
<title>Node16&#45;&gt;Node18</title>
<path fill="none" stroke="#63b8ff" d="M272.45,-222.42C239.73,-213.88 179.49,-198.15 137.83,-187.27"/>
<polygon fill="#63b8ff" stroke="#63b8ff" points="138.9,-183.94 128.34,-184.8 137.13,-190.71 138.9,-183.94"/>
</g>
<!-- Node20 -->
<g id="node20" class="node">
<title>Node20</title>
<g id="a_node20"><a xlink:href="_health_g_p_s_8_core_2disease_8h.html" target="_top" xlink:title=" ">
<polygon fill="white" stroke="#666666" points="490.24,-184 431.24,-184 431.24,-165 490.24,-165 490.24,-184"/>
<text text-anchor="middle" x="460.74" y="-172" font-family="Helvetica,sans-Serif" font-size="10.00">disease.h</text>
</a>
</g>
</g>
<!-- Node16&#45;&gt;Node20 -->
<g id="edge21" class="edge">
<title>Node16&#45;&gt;Node20</title>
<path fill="none" stroke="#63b8ff" d="M319.03,-221.02C345.81,-212.42 390.18,-198.16 422.14,-187.9"/>
<polygon fill="#63b8ff" stroke="#63b8ff" points="422.99,-191.3 431.44,-184.91 420.85,-184.64 422.99,-191.3"/>
</g>
<!-- Node24 -->
<g id="node24" class="node">
<title>Node24</title>
<g id="a_node24"><a xlink:href="analysis_8h.html" target="_top" xlink:title=" ">
<polygon fill="white" stroke="#666666" points="413.24,-184 352.24,-184 352.24,-165 413.24,-165 413.24,-184"/>
<text text-anchor="middle" x="382.74" y="-172" font-family="Helvetica,sans-Serif" font-size="10.00">analysis.h</text>
</a>
</g>
</g>
<!-- Node16&#45;&gt;Node24 -->
<g id="edge30" class="edge">
<title>Node16&#45;&gt;Node24</title>
<path fill="none" stroke="#63b8ff" d="M310.5,-219.51C323.7,-211.47 343.3,-199.53 358.75,-190.11"/>
<polygon fill="#63b8ff" stroke="#63b8ff" points="360.18,-193.34 366.9,-185.15 356.54,-187.36 360.18,-193.34"/>
</g>
<!-- Node25 -->
<g id="node25" class="node">
<title>Node25</title>
<g id="a_node25"><a xlink:href="indicator_8h.html" target="_top" xlink:title=" ">
<polygon fill="white" stroke="#666666" points="85.74,-129 23.74,-129 23.74,-110 85.74,-110 85.74,-129"/>
<text text-anchor="middle" x="54.74" y="-117" font-family="Helvetica,sans-Serif" font-size="10.00">indicator.h</text>
</a>
</g>
</g>
<!-- Node16&#45;&gt;Node25 -->
<g id="edge35" class="edge">
<title>Node16&#45;&gt;Node25</title>
<path fill="none" stroke="#63b8ff" d="M272.58,-228.16C214.83,-226.78 66.87,-219.76 36.74,-184 26.03,-171.29 33.23,-152.6 41.49,-138.79"/>
<polygon fill="#63b8ff" stroke="#63b8ff" points="44.29,-140.89 46.89,-130.62 38.45,-137.03 44.29,-140.89"/>
</g>
<!-- Node26 -->
<g id="node26" class="node">
<title>Node26</title>
<g id="a_node26"><a xlink:href="mortality_8h.html" target="_top" xlink:title=" ">
<polygon fill="white" stroke="#666666" points="219.74,-184 157.74,-184 157.74,-165 219.74,-165 219.74,-184"/>
<text text-anchor="middle" x="188.74" y="-172" font-family="Helvetica,sans-Serif" font-size="10.00">mortality.h</text>
</a>
</g>
</g>
<!-- Node16&#45;&gt;Node26 -->
<g id="edge37" class="edge">
<title>Node16&#45;&gt;Node26</title>
<path fill="none" stroke="#63b8ff" d="M277.59,-219.51C260.96,-211.27 236.09,-198.96 216.89,-189.45"/>
<polygon fill="#63b8ff" stroke="#63b8ff" points="218.49,-186.33 207.98,-185.03 215.38,-192.6 218.49,-186.33"/>
</g>
<!-- Node17&#45;&gt;Node5 -->
<g id="edge18" class="edge">
<title>Node17&#45;&gt;Node5</title>
<path fill="none" stroke="#63b8ff" d="M224.92,-109.51C243.76,-101.12 272.1,-88.5 293.61,-78.92"/>
<polygon fill="#63b8ff" stroke="#63b8ff" points="294.75,-82.24 302.47,-74.97 291.91,-75.85 294.75,-82.24"/>
</g>
<!-- Node19 -->
<g id="node19" class="node">
<title>Node19</title>
<g id="a_node19"><a xlink:title=" ">
<polygon fill="#e0e0e0" stroke="#999999" points="149.74,-129 111.74,-129 111.74,-110 149.74,-110 149.74,-129"/>
<text text-anchor="middle" x="130.74" y="-117" font-family="Helvetica,sans-Serif" font-size="10.00">tuple</text>
</a>
</g>
</g>
<!-- Node18&#45;&gt;Node19 -->
<g id="edge20" class="edge">
<title>Node18&#45;&gt;Node19</title>
<path fill="none" stroke="#63b8ff" d="M99.01,-164.75C104.1,-157.66 111.43,-147.42 117.77,-138.59"/>
<polygon fill="#63b8ff" stroke="#63b8ff" points="120.46,-140.84 123.44,-130.67 114.77,-136.76 120.46,-140.84"/>
</g>
<!-- Node20&#45;&gt;Node5 -->
<g id="edge22" class="edge">
<title>Node20&#45;&gt;Node5</title>
<path fill="none" stroke="#63b8ff" d="M463.17,-164.66C466.27,-151.35 469.87,-126.01 457.74,-110 433.97,-78.65 387.33,-69.12 355.85,-66.37"/>
<polygon fill="#63b8ff" stroke="#63b8ff" points="356.32,-62.89 346.11,-65.72 355.85,-69.88 356.32,-62.89"/>
</g>
<!-- Node20&#45;&gt;Node7 -->
<g id="edge23" class="edge">
<title>Node20&#45;&gt;Node7</title>
<path fill="none" stroke="#63b8ff" d="M490.56,-167.42C539.81,-157.38 637.74,-137.42 688.52,-127.07"/>
<polygon fill="#63b8ff" stroke="#63b8ff" points="688.9,-130.56 698,-125.14 687.5,-123.7 688.9,-130.56"/>
</g>
<!-- Node20&#45;&gt;Node10 -->
<g id="edge25" class="edge">
<title>Node20&#45;&gt;Node10</title>
<path fill="none" stroke="#63b8ff" d="M490.53,-169.16C521.97,-163.58 572.08,-151.77 609.74,-129 629.45,-117.08 647.28,-97.43 658.71,-83.14"/>
<polygon fill="#63b8ff" stroke="#63b8ff" points="661.29,-85.52 664.62,-75.46 655.74,-81.25 661.29,-85.52"/>
</g>
<!-- Node21 -->
<g id="node21" class="node">
<title>Node21</title>
<g id="a_node21"><a xlink:title=" ">
<polygon fill="#e0e0e0" stroke="#999999" points="449.24,-129 414.24,-129 414.24,-110 449.24,-110 449.24,-129"/>
<text text-anchor="middle" x="431.74" y="-117" font-family="Helvetica,sans-Serif" font-size="10.00">map</text>
</a>
</g>
</g>
<!-- Node20&#45;&gt;Node21 -->
<g id="edge24" class="edge">
<title>Node20&#45;&gt;Node21</title>
<path fill="none" stroke="#63b8ff" d="M455.95,-164.75C452.19,-157.88 446.83,-148.08 442.1,-139.45"/>
<polygon fill="#63b8ff" stroke="#63b8ff" points="445.23,-137.86 437.36,-130.77 439.09,-141.22 445.23,-137.86"/>
</g>
<!-- Node20&#45;&gt;Node22 -->
<g id="edge26" class="edge">
<title>Node20&#45;&gt;Node22</title>
<path fill="none" stroke="#63b8ff" d="M473.63,-164.51C484.83,-156.7 501.31,-145.21 514.62,-135.93"/>
<polygon fill="#63b8ff" stroke="#63b8ff" points="516.59,-138.81 522.79,-130.22 512.59,-133.07 516.59,-138.81"/>
</g>
<!-- Node22&#45;&gt;Node5 -->
<g id="edge27" class="edge">
<title>Node22&#45;&gt;Node5</title>
<path fill="none" stroke="#63b8ff" d="M505.76,-110.79C465.65,-100.81 396.08,-83.5 355.55,-73.42"/>
<polygon fill="#63b8ff" stroke="#63b8ff" points="356.48,-70.04 345.93,-71.02 354.79,-76.83 356.48,-70.04"/>
</g>
<!-- Node22&#45;&gt;Node14 -->
<g id="edge29" class="edge">
<title>Node22&#45;&gt;Node14</title>
<path fill="none" stroke="#63b8ff" d="M522.49,-109.51C509.86,-101.54 491.18,-89.75 476.33,-80.38"/>
<polygon fill="#63b8ff" stroke="#63b8ff" points="478.38,-77.54 468.06,-75.17 474.65,-83.46 478.38,-77.54"/>
</g>
<!-- Node23 -->
<g id="node23" class="node">
<title>Node23</title>
<g id="a_node23"><a xlink:title=" ">
<polygon fill="#e0e0e0" stroke="#999999" points="587.74,-74 535.74,-74 535.74,-55 587.74,-55 587.74,-74"/>
<text text-anchor="middle" x="561.74" y="-62" font-family="Helvetica,sans-Serif" font-size="10.00">ostream</text>
</a>
</g>
</g>
<!-- Node22&#45;&gt;Node23 -->
<g id="edge28" class="edge">
<title>Node22&#45;&gt;Node23</title>
<path fill="none" stroke="#63b8ff" d="M540.87,-109.75C544.07,-102.96 548.62,-93.3 552.66,-84.73"/>
<polygon fill="#63b8ff" stroke="#63b8ff" points="555.77,-86.35 556.87,-75.81 549.44,-83.36 555.77,-86.35"/>
</g>
<!-- Node24&#45;&gt;Node5 -->
<g id="edge33" class="edge">
<title>Node24&#45;&gt;Node5</title>
<path fill="none" stroke="#63b8ff" d="M381.78,-164.78C380.09,-152.04 375.75,-127.94 365.74,-110 359.88,-99.51 351,-89.6 342.91,-81.81"/>
<polygon fill="#63b8ff" stroke="#63b8ff" points="345.5,-79.43 335.75,-75.28 340.78,-84.6 345.5,-79.43"/>
</g>
<!-- Node24&#45;&gt;Node7 -->
<g id="edge32" class="edge">
<title>Node24&#45;&gt;Node7</title>
<path fill="none" stroke="#63b8ff" d="M413.35,-166.62C416.18,-166.05 419.01,-165.5 421.74,-165 518.16,-147.34 633.06,-131.76 688.14,-124.63"/>
<polygon fill="#63b8ff" stroke="#63b8ff" points="688.29,-128.13 697.76,-123.39 687.4,-121.19 688.29,-128.13"/>
</g>
<!-- Node24&#45;&gt;Node10 -->
<g id="edge34" class="edge">
<title>Node24&#45;&gt;Node10</title>
<path fill="none" stroke="#63b8ff" d="M413.69,-166.71C466.53,-155.07 569.22,-132.24 576.74,-129 591.88,-122.47 627.42,-97.64 650.48,-81.03"/>
<polygon fill="#63b8ff" stroke="#63b8ff" points="652.23,-84.09 658.27,-75.38 648.12,-78.42 652.23,-84.09"/>
</g>
<!-- Node24&#45;&gt;Node21 -->
<g id="edge31" class="edge">
<title>Node24&#45;&gt;Node21</title>
<path fill="none" stroke="#63b8ff" d="M390.83,-164.75C397.6,-157.43 407.46,-146.76 415.8,-137.74"/>
<polygon fill="#63b8ff" stroke="#63b8ff" points="418.22,-140.27 422.44,-130.55 413.08,-135.52 418.22,-140.27"/>
</g>
<!-- Node25&#45;&gt;Node5 -->
<g id="edge36" class="edge">
<title>Node25&#45;&gt;Node5</title>
<path fill="none" stroke="#63b8ff" d="M86.12,-112.32C137.68,-102.16 239.76,-82.04 291.73,-71.81"/>
<polygon fill="#63b8ff" stroke="#63b8ff" points="292.29,-75.26 301.43,-69.9 290.94,-68.39 292.29,-75.26"/>
</g>
<!-- Node26&#45;&gt;Node19 -->
<g id="edge38" class="edge">
<title>Node26&#45;&gt;Node19</title>
<path fill="none" stroke="#63b8ff" d="M178.9,-164.51C170.68,-157 158.75,-146.1 148.82,-137.03"/>
<polygon fill="#63b8ff" stroke="#63b8ff" points="151.29,-134.54 141.55,-130.38 146.57,-139.71 151.29,-134.54"/>
</g>
<!-- Node27&#45;&gt;Node10 -->
<g id="edge40" class="edge">
<title>Node27&#45;&gt;Node10</title>
<path fill="none" stroke="#63b8ff" d="M1266.58,-111.71C1263.62,-111.06 1260.62,-110.47 1257.74,-110 1062.08,-78.35 825.92,-69.11 723.4,-66.49"/>
<polygon fill="#63b8ff" stroke="#63b8ff" points="723.75,-63 713.67,-66.26 723.58,-70 723.75,-63"/>
</g>
<!-- Node28&#45;&gt;Node7 -->
<g id="edge44" class="edge">
<title>Node28&#45;&gt;Node7</title>
<path fill="none" stroke="#63b8ff" d="M822.68,-219.57C804.72,-212.05 780.34,-199.97 762.74,-184 748.82,-171.37 737.4,-153.18 730.01,-139.51"/>
<polygon fill="#63b8ff" stroke="#63b8ff" points="733.14,-137.94 725.46,-130.65 726.91,-141.14 733.14,-137.94"/>
</g>
<!-- Node28&#45;&gt;Node8 -->
<g id="edge47" class="edge">
<title>Node28&#45;&gt;Node8</title>
<path fill="none" stroke="#63b8ff" d="M813.88,-219.75C778.06,-210.21 720.92,-194.99 683.87,-185.12"/>
<polygon fill="#63b8ff" stroke="#63b8ff" points="685.09,-181.83 674.52,-182.63 683.29,-188.59 685.09,-181.83"/>
</g>
<!-- Node28&#45;&gt;Node23 -->
<g id="edge48" class="edge">
<title>Node28&#45;&gt;Node23</title>
<path fill="none" stroke="#63b8ff" d="M835.15,-219.78C824.43,-211.36 808.41,-197.87 796.74,-184 771.79,-154.38 782.19,-132.59 750.74,-110 726.77,-92.78 647.2,-78.3 599.28,-70.87"/>
<polygon fill="#63b8ff" stroke="#63b8ff" points="600.03,-67.44 589.62,-69.4 598.98,-74.36 600.03,-67.44"/>
</g>
<!-- Node29 -->
<g id="node29" class="node">
<title>Node29</title>
<g id="a_node29"><a xlink:title=" ">
<polygon fill="#e0e0e0" stroke="#999999" points="1330.74,-184 1278.74,-184 1278.74,-165 1330.74,-165 1330.74,-184"/>
<text text-anchor="middle" x="1304.74" y="-172" font-family="Helvetica,sans-Serif" font-size="10.00">memory</text>
</a>
</g>
</g>
<!-- Node28&#45;&gt;Node29 -->
<g id="edge42" class="edge">
<title>Node28&#45;&gt;Node29</title>
<path fill="none" stroke="#63b8ff" d="M879.58,-226.54C949.23,-222.07 1117.03,-209.62 1267.2,-184.22"/>
<polygon fill="#63b8ff" stroke="#63b8ff" points="1267.69,-187.68 1276.95,-182.54 1266.5,-180.78 1267.69,-187.68"/>
</g>
<!-- Node30 -->
<g id="node30" class="node">
<title>Node30</title>
<g id="a_node30"><a xlink:title=" ">
<polygon fill="#e0e0e0" stroke="#999999" points="950.74,-184 906.74,-184 906.74,-165 950.74,-165 950.74,-184"/>
<text text-anchor="middle" x="928.74" y="-172" font-family="Helvetica,sans-Serif" font-size="10.00">mutex</text>
</a>
</g>
</g>
<!-- Node28&#45;&gt;Node30 -->
<g id="edge43" class="edge">
<title>Node28&#45;&gt;Node30</title>
<path fill="none" stroke="#63b8ff" d="M860.65,-219.51C872.97,-211.54 891.21,-199.75 905.71,-190.38"/>
<polygon fill="#63b8ff" stroke="#63b8ff" points="907.26,-193.55 913.76,-185.18 903.46,-187.67 907.26,-193.55"/>
</g>
<!-- Node31 -->
<g id="node31" class="node">
<title>Node31</title>
<g id="a_node31"><a xlink:title=" ">
<polygon fill="#e0e0e0" stroke="#999999" points="888.24,-184 805.24,-184 805.24,-165 888.24,-165 888.24,-184"/>
<text text-anchor="middle" x="846.74" y="-172" font-family="Helvetica,sans-Serif" font-size="10.00">unordered_map</text>
</a>
</g>
</g>
<!-- Node28&#45;&gt;Node31 -->
<g id="edge45" class="edge">
<title>Node28&#45;&gt;Node31</title>
<path fill="none" stroke="#63b8ff" d="M846.74,-219.75C846.74,-213.27 846.74,-204.16 846.74,-195.9"/>
<polygon fill="#63b8ff" stroke="#63b8ff" points="850.24,-195.96 846.74,-185.96 843.24,-195.96 850.24,-195.96"/>
</g>
<!-- Node32 -->
<g id="node32" class="node">
<title>Node32</title>
<g id="a_node32"><a xlink:title=" ">
<polygon fill="#e0e0e0" stroke="#999999" points="1110.74,-184 1054.74,-184 1054.74,-165 1110.74,-165 1110.74,-184"/>
<text text-anchor="middle" x="1082.74" y="-172" font-family="Helvetica,sans-Serif" font-size="10.00">algorithm</text>
</a>
</g>
</g>
<!-- Node28&#45;&gt;Node32 -->
<g id="edge46" class="edge">
<title>Node28&#45;&gt;Node32</title>
<path fill="none" stroke="#63b8ff" d="M879.5,-221.24C916.79,-212.95 979.83,-198.91 1043.42,-184.51"/>
<polygon fill="#63b8ff" stroke="#63b8ff" points="1044,-187.97 1052.98,-182.35 1042.46,-181.14 1044,-187.97"/>
</g>
<!-- Node33 -->
<g id="node33" class="node">
<title>Node33</title>
<g id="a_node33"><a xlink:href="column_8h.html" target="_top" xlink:title=" ">
<polygon fill="white" stroke="#666666" points="1260.74,-184 1204.74,-184 1204.74,-165 1260.74,-165 1260.74,-184"/>
<text text-anchor="middle" x="1232.74" y="-172" font-family="Helvetica,sans-Serif" font-size="10.00">column.h</text>
</a>
</g>
</g>
<!-- Node28&#45;&gt;Node33 -->
<g id="edge49" class="edge">
<title>Node28&#45;&gt;Node33</title>
<path fill="none" stroke="#63b8ff" d="M879.65,-223.98C950.49,-214.25 1117.16,-191.37 1193.41,-180.9"/>
<polygon fill="#63b8ff" stroke="#63b8ff" points="1193.48,-184.42 1202.91,-179.59 1192.53,-177.49 1193.48,-184.42"/>
</g>
<!-- Node33&#45;&gt;Node5 -->
<g id="edge52" class="edge">
<title>Node33&#45;&gt;Node5</title>
<path fill="none" stroke="#63b8ff" d="M1204.43,-169.26C1194.99,-167.87 1184.41,-166.34 1174.74,-165 986.5,-139 939.47,-132.07 750.74,-110 603.43,-92.77 427.13,-75.44 355.92,-68.57"/>
<polygon fill="#63b8ff" stroke="#63b8ff" points="356.44,-65.11 346.15,-67.64 355.77,-72.08 356.44,-65.11"/>
</g>
<!-- Node33&#45;&gt;Node27 -->
<g id="edge53" class="edge">
<title>Node33&#45;&gt;Node27</title>
<path fill="none" stroke="#63b8ff" d="M1242.75,-164.51C1251.1,-157 1263.24,-146.1 1273.34,-137.03"/>
<polygon fill="#63b8ff" stroke="#63b8ff" points="1275.65,-139.66 1280.75,-130.37 1270.97,-134.45 1275.65,-139.66"/>
</g>
<!-- Node34 -->
<g id="node34" class="node">
<title>Node34</title>
<g id="a_node34"><a xlink:title=" ">
<polygon fill="#e0e0e0" stroke="#999999" points="1248.74,-129 1216.74,-129 1216.74,-110 1248.74,-110 1248.74,-129"/>
<text text-anchor="middle" x="1232.74" y="-117" font-family="Helvetica,sans-Serif" font-size="10.00">any</text>
</a>
</g>
</g>
<!-- Node33&#45;&gt;Node34 -->
<g id="edge50" class="edge">
<title>Node33&#45;&gt;Node34</title>
<path fill="none" stroke="#63b8ff" d="M1232.74,-164.75C1232.74,-158.27 1232.74,-149.16 1232.74,-140.9"/>
<polygon fill="#63b8ff" stroke="#63b8ff" points="1236.24,-140.96 1232.74,-130.96 1229.24,-140.96 1236.24,-140.96"/>
</g>
<!-- Node35 -->
<g id="node35" class="node">
<title>Node35</title>
<g id="a_node35"><a xlink:title=" ">
<polygon fill="#e0e0e0" stroke="#999999" points="1198.74,-129 1148.74,-129 1148.74,-110 1198.74,-110 1198.74,-129"/>
<text text-anchor="middle" x="1173.74" y="-117" font-family="Helvetica,sans-Serif" font-size="10.00">typeinfo</text>
</a>
</g>
</g>
<!-- Node33&#45;&gt;Node35 -->
<g id="edge51" class="edge">
<title>Node33&#45;&gt;Node35</title>
<path fill="none" stroke="#63b8ff" d="M1222.73,-164.51C1214.37,-157 1202.24,-146.1 1192.14,-137.03"/>
<polygon fill="#63b8ff" stroke="#63b8ff" points="1194.5,-134.45 1184.72,-130.37 1189.82,-139.66 1194.5,-134.45"/>
</g>
<!-- Node37 -->
<g id="node37" class="node">
<title>Node37</title>
<g id="a_node37"><a xlink:href="column__primitive_8h.html" target="_top" xlink:title=" ">
<polygon fill="white" stroke="#666666" points="1159.24,-239 1062.24,-239 1062.24,-220 1159.24,-220 1159.24,-239"/>
<text text-anchor="middle" x="1110.74" y="-227" font-family="Helvetica,sans-Serif" font-size="10.00">column_primitive.h</text>
</a>
</g>
</g>
<!-- Node36&#45;&gt;Node37 -->
<g id="edge55" class="edge">
<title>Node36&#45;&gt;Node37</title>
<path fill="none" stroke="#63b8ff" d="M1014.41,-274.51C1032.69,-266.16 1060.15,-253.61 1081.08,-244.05"/>
<polygon fill="#63b8ff" stroke="#63b8ff" points="1082.33,-247.33 1089.97,-239.99 1079.42,-240.96 1082.33,-247.33"/>
</g>
<!-- Node37&#45;&gt;Node7 -->
<g id="edge57" class="edge">
<title>Node37&#45;&gt;Node7</title>
<path fill="none" stroke="#63b8ff" d="M1115.74,-219.86C1122.82,-206.34 1133.49,-180.18 1119.74,-165 1065.16,-104.76 835.87,-142.62 755.74,-129 754.9,-128.86 754.06,-128.71 753.21,-128.55"/>
<polygon fill="#63b8ff" stroke="#63b8ff" points="754.1,-125.16 743.59,-126.51 752.64,-132.01 754.1,-125.16"/>
</g>
<!-- Node37&#45;&gt;Node8 -->
<g id="edge58" class="edge">
<title>Node37&#45;&gt;Node8</title>
<path fill="none" stroke="#63b8ff" d="M1062.06,-222.93C968.9,-212.26 767.28,-189.18 684.42,-179.7"/>
<polygon fill="#63b8ff" stroke="#63b8ff" points="684.92,-176.23 674.59,-178.57 684.13,-183.19 684.92,-176.23"/>
</g>
<!-- Node37&#45;&gt;Node32 -->
<g id="edge56" class="edge">
<title>Node37&#45;&gt;Node32</title>
<path fill="none" stroke="#63b8ff" d="M1106.11,-219.75C1102.49,-212.88 1097.31,-203.08 1092.75,-194.45"/>
<polygon fill="#63b8ff" stroke="#63b8ff" points="1095.93,-192.99 1088.17,-185.78 1089.74,-196.26 1095.93,-192.99"/>
</g>
<!-- Node37&#45;&gt;Node33 -->
<g id="edge59" class="edge">
<title>Node37&#45;&gt;Node33</title>
<path fill="none" stroke="#63b8ff" d="M1131.43,-219.51C1150.74,-211.12 1179.8,-198.5 1201.85,-188.92"/>
<polygon fill="#63b8ff" stroke="#63b8ff" points="1203.18,-192.16 1210.96,-184.96 1200.39,-185.74 1203.18,-192.16"/>
</g>
<!-- Node37&#45;&gt;Node38 -->
<g id="edge60" class="edge">
<title>Node37&#45;&gt;Node38</title>
<path fill="none" stroke="#63b8ff" d="M1159.63,-225.07C1260.59,-217.92 1499.44,-200.72 1699.74,-184 1711.13,-183.05 1723.3,-181.98 1734.95,-180.92"/>
<polygon fill="#63b8ff" stroke="#63b8ff" points="1735.24,-184.41 1744.88,-180.02 1734.61,-177.44 1735.24,-184.41"/>
</g>
<!-- Node39 -->
<g id="node39" class="node">
<title>Node39</title>
<g id="a_node39"><a xlink:title=" ">
<polygon fill="#e0e0e0" stroke="#999999" points="1816.24,-129 1769.24,-129 1769.24,-110 1816.24,-110 1816.24,-129"/>
<text text-anchor="middle" x="1792.74" y="-117" font-family="Helvetica,sans-Serif" font-size="10.00">iterator</text>
</a>
</g>
</g>
<!-- Node38&#45;&gt;Node39 -->
<g id="edge61" class="edge">
<title>Node38&#45;&gt;Node39</title>
<path fill="none" stroke="#63b8ff" d="M1792.74,-164.75C1792.74,-158.27 1792.74,-149.16 1792.74,-140.9"/>
<polygon fill="#63b8ff" stroke="#63b8ff" points="1796.24,-140.96 1792.74,-130.96 1789.24,-140.96 1796.24,-140.96"/>
</g>
<!-- Node40&#45;&gt;Node7 -->
<g id="edge65" class="edge">
<title>Node40&#45;&gt;Node7</title>
<path fill="none" stroke="#63b8ff" d="M1451.38,-219.58C1472.8,-207.03 1505.28,-183.59 1487.74,-165 1462.16,-137.9 896.7,-124.2 753.47,-121.16"/>
<polygon fill="#63b8ff" stroke="#63b8ff" points="753.63,-117.66 743.56,-120.95 753.49,-124.66 753.63,-117.66"/>
</g>
<!-- Node40&#45;&gt;Node29 -->
<g id="edge63" class="edge">
<title>Node40&#45;&gt;Node29</title>
<path fill="none" stroke="#63b8ff" d="M1412.68,-219.51C1391.92,-211.04 1360.58,-198.27 1337.01,-188.66"/>
<polygon fill="#63b8ff" stroke="#63b8ff" points="1338.45,-185.46 1327.87,-184.93 1335.8,-191.95 1338.45,-185.46"/>
</g>
<!-- Node40&#45;&gt;Node33 -->
<g id="edge67" class="edge">
<title>Node40&#45;&gt;Node33</title>
<path fill="none" stroke="#63b8ff" d="M1400.47,-219.51C1364.87,-210.17 1309.25,-195.57 1271.92,-185.78"/>
<polygon fill="#63b8ff" stroke="#63b8ff" points="1272.99,-182.44 1262.43,-183.29 1271.22,-189.21 1272.99,-182.44"/>
</g>
<!-- Node41 -->
<g id="node41" class="node">
<title>Node41</title>
<g id="a_node41"><a xlink:title=" ">
<polygon fill="#e0e0e0" stroke="#999999" points="1612.74,-184 1572.74,-184 1572.74,-165 1612.74,-165 1612.74,-184"/>
<text text-anchor="middle" x="1592.74" y="-172" font-family="Helvetica,sans-Serif" font-size="10.00">limits</text>
</a>
</g>
</g>
<!-- Node40&#45;&gt;Node41 -->
<g id="edge64" class="edge">
<title>Node40&#45;&gt;Node41</title>
<path fill="none" stroke="#63b8ff" d="M1461.54,-219.51C1489.21,-210.23 1532.34,-195.76 1561.53,-185.97"/>
<polygon fill="#63b8ff" stroke="#63b8ff" points="1562.55,-189.32 1570.91,-182.82 1560.32,-182.68 1562.55,-189.32"/>
</g>
<!-- Node42 -->
<g id="node42" class="node">
<title>Node42</title>
<g id="a_node42"><a xlink:title=" ">
<polygon fill="#e0e0e0" stroke="#999999" points="1690.24,-184 1631.24,-184 1631.24,-165 1690.24,-165 1690.24,-184"/>
<text text-anchor="middle" x="1660.74" y="-172" font-family="Helvetica,sans-Serif" font-size="10.00">exception</text>
</a>
</g>
</g>
<!-- Node40&#45;&gt;Node42 -->
<g id="edge66" class="edge">
<title>Node40&#45;&gt;Node42</title>
<path fill="none" stroke="#63b8ff" d="M1473.07,-219.51C1513.82,-209.95 1578.02,-194.9 1619.75,-185.11"/>
<polygon fill="#63b8ff" stroke="#63b8ff" points="1620.48,-188.54 1629.42,-182.85 1618.88,-181.72 1620.48,-188.54"/>
</g>
<!-- Node43&#45;&gt;Node7 -->
<g id="edge73" class="edge">
<title>Node43&#45;&gt;Node7</title>
<path fill="none" stroke="#63b8ff" d="M1255.63,-219.7C1232.03,-205.46 1182.61,-177.69 1136.74,-165 972.8,-119.66 923.48,-157.14 755.74,-129 754.9,-128.86 754.06,-128.71 753.21,-128.56"/>
<polygon fill="#63b8ff" stroke="#63b8ff" points="754.1,-125.16 743.59,-126.52 752.65,-132.01 754.1,-125.16"/>
</g>
<!-- Node43&#45;&gt;Node10 -->
<g id="edge71" class="edge">
<title>Node43&#45;&gt;Node10</title>
<path fill="none" stroke="#63b8ff" d="M1298.56,-226.99C1352.23,-223.5 1464.16,-212.87 1487.74,-184 1493.08,-177.46 1492.66,-171.86 1487.74,-165 1443.45,-103.19 1400.29,-124.93 1325.74,-110 1210.78,-86.98 857.25,-72.19 723.62,-67.29"/>
<polygon fill="#63b8ff" stroke="#63b8ff" points="723.77,-63.8 713.65,-66.93 723.51,-70.79 723.77,-63.8"/>
</g>
<!-- Node43&#45;&gt;Node15 -->
<g id="edge77" class="edge">
<title>Node43&#45;&gt;Node15</title>
<path fill="none" stroke="#63b8ff" d="M1240.91,-222.78C1194.58,-213.58 1103.19,-195.44 1048.07,-184.5"/>
<polygon fill="#63b8ff" stroke="#63b8ff" points="1048.86,-181.09 1038.37,-182.57 1047.49,-187.95 1048.86,-181.09"/>
</g>
<!-- Node43&#45;&gt;Node29 -->
<g id="edge72" class="edge">
<title>Node43&#45;&gt;Node29</title>
<path fill="none" stroke="#63b8ff" d="M1275.52,-219.75C1280.15,-212.73 1286.81,-202.64 1292.6,-193.87"/>
<polygon fill="#63b8ff" stroke="#63b8ff" points="1295.41,-195.98 1298,-185.71 1289.57,-192.12 1295.41,-195.98"/>
</g>
<!-- Node43&#45;&gt;Node32 -->
<g id="edge74" class="edge">
<title>Node43&#45;&gt;Node32</title>
<path fill="none" stroke="#63b8ff" d="M1240.93,-220.33C1209.03,-211.3 1157.44,-196.67 1121.9,-186.6"/>
<polygon fill="#63b8ff" stroke="#63b8ff" points="1123,-183.27 1112.42,-183.91 1121.09,-190.01 1123,-183.27"/>
</g>
<!-- Node44 -->
<g id="node44" class="node">
<title>Node44</title>
<g id="a_node44"><a xlink:title=" ">
<polygon fill="#e0e0e0" stroke="#999999" points="1408.24,-184 1349.24,-184 1349.24,-165 1408.24,-165 1408.24,-184"/>
<text text-anchor="middle" x="1378.74" y="-172" font-family="Helvetica,sans-Serif" font-size="10.00">stdexcept</text>
</a>
</g>
</g>
<!-- Node43&#45;&gt;Node44 -->
<g id="edge75" class="edge">
<title>Node43&#45;&gt;Node44</title>
<path fill="none" stroke="#63b8ff" d="M1288.23,-219.51C1305.24,-211.24 1330.73,-198.84 1350.33,-189.31"/>
<polygon fill="#63b8ff" stroke="#63b8ff" points="1351.7,-192.54 1359.16,-185.02 1348.63,-186.25 1351.7,-192.54"/>
</g>
<!-- Node45 -->
<g id="node45" class="node">
<title>Node45</title>
<g id="a_node45"><a xlink:title=" ">
<polygon fill="#e0e0e0" stroke="#999999" points="1478.74,-184 1426.74,-184 1426.74,-165 1478.74,-165 1478.74,-184"/>
<text text-anchor="middle" x="1452.74" y="-172" font-family="Helvetica,sans-Serif" font-size="10.00">sstream</text>
</a>
</g>
</g>
<!-- Node43&#45;&gt;Node45 -->
<g id="edge76" class="edge">
<title>Node43&#45;&gt;Node45</title>
<path fill="none" stroke="#63b8ff" d="M1298.73,-220.1C1330.24,-210.98 1380.7,-196.36 1415.21,-186.37"/>
<polygon fill="#63b8ff" stroke="#63b8ff" points="1416.17,-189.74 1424.8,-183.59 1414.22,-183.01 1416.17,-189.74"/>
</g>
<!-- Node46&#45;&gt;Node5 -->
<g id="edge79" class="edge">
<title>Node46&#45;&gt;Node5</title>
<path fill="none" stroke="#63b8ff" d="M517.78,-229.09C465.13,-227.29 385.79,-218.31 326.74,-184 293.25,-164.55 266.22,-145.9 280.74,-110 285.17,-99.03 293.75,-89.26 302.09,-81.69"/>
<polygon fill="#63b8ff" stroke="#63b8ff" points="304.24,-84.45 309.67,-75.36 299.75,-79.08 304.24,-84.45"/>
</g>
<!-- Node46&#45;&gt;Node7 -->
<g id="edge80" class="edge">
<title>Node46&#45;&gt;Node7</title>
<path fill="none" stroke="#63b8ff" d="M571.95,-219.56C569.8,-206.12 567.94,-180.61 580.74,-165 594.41,-148.31 651.16,-134.24 688.08,-126.62"/>
<polygon fill="#63b8ff" stroke="#63b8ff" points="688.68,-130.07 697.8,-124.68 687.31,-123.21 688.68,-130.07"/>
</g>
<!-- Node46&#45;&gt;Node8 -->
<g id="edge81" class="edge">
<title>Node46&#45;&gt;Node8</title>
<path fill="none" stroke="#63b8ff" d="M586.29,-219.51C597.2,-211.7 613.24,-200.21 626.2,-190.93"/>
<polygon fill="#63b8ff" stroke="#63b8ff" points="628.05,-193.91 634.14,-185.24 623.97,-188.22 628.05,-193.91"/>
</g>
</g>
</svg>
