<?xml version="1.0" encoding="UTF-8" standalone="no"?>
<!DOCTYPE svg PUBLIC "-//W3C//DTD SVG 1.1//EN"
 "http://www.w3.org/Graphics/SVG/1.1/DTD/svg11.dtd">
<!-- Generated by graphviz version 7.0.6 (20230106.0513)
 -->
<!-- Title: HealthGPS.Core/disease.h Pages: 1 -->
<svg width="413pt" height="137pt"
 viewBox="0.00 0.00 413.00 137.00" xmlns="http://www.w3.org/2000/svg" xmlns:xlink="http://www.w3.org/1999/xlink">
<g id="graph0" class="graph" transform="scale(1 1) rotate(0) translate(4 133)">
<title>HealthGPS.Core/disease.h</title>
<!-- Node1 -->
<g id="node1" class="node">
<title>Node1</title>
<g id="a_node1"><a xlink:title=" ">
<polygon fill="#999999" stroke="#666666" points="262,-129 128,-129 128,-110 262,-110 262,-129"/>
<text text-anchor="middle" x="195" y="-117" font-family="Helvetica,sans-Serif" font-size="10.00">HealthGPS.Core/disease.h</text>
</a>
</g>
</g>
<!-- Node2 -->
<g id="node2" class="node">
<title>Node2</title>
<g id="a_node2"><a xlink:title=" ">
<polygon fill="#e0e0e0" stroke="#999999" points="258.5,-19 217.5,-19 217.5,0 258.5,0 258.5,-19"/>
<text text-anchor="middle" x="238" y="-7" font-family="Helvetica,sans-Serif" font-size="10.00">string</text>
</a>
</g>
</g>
<!-- Node1&#45;&gt;Node2 -->
<g id="edge1" class="edge">
<title>Node1&#45;&gt;Node2</title>
<path fill="none" stroke="#63b8ff" d="M201.12,-109.67C206.93,-100.94 215.56,-87.05 221,-74 226.87,-59.94 231.24,-43.27 234.08,-30.55"/>
<polygon fill="#63b8ff" stroke="#63b8ff" points="237.48,-31.36 236.1,-20.85 230.63,-29.93 237.48,-31.36"/>
</g>
<!-- Node3 -->
<g id="node3" class="node">
<title>Node3</title>
<g id="a_node3"><a xlink:title=" ">
<polygon fill="#e0e0e0" stroke="#999999" points="159,-74 117,-74 117,-55 159,-55 159,-74"/>
<text text-anchor="middle" x="138" y="-62" font-family="Helvetica,sans-Serif" font-size="10.00">vector</text>
</a>
</g>
</g>
<!-- Node1&#45;&gt;Node3 -->
<g id="edge2" class="edge">
<title>Node1&#45;&gt;Node3</title>
<path fill="none" stroke="#63b8ff" d="M185.33,-109.51C177.26,-102 165.53,-91.1 155.78,-82.03"/>
<polygon fill="#63b8ff" stroke="#63b8ff" points="158.34,-79.63 148.63,-75.39 153.57,-84.76 158.34,-79.63"/>
</g>
<!-- Node4 -->
<g id="node4" class="node">
<title>Node4</title>
<g id="a_node4"><a xlink:title=" ">
<polygon fill="#e0e0e0" stroke="#999999" points="212.5,-74 177.5,-74 177.5,-55 212.5,-55 212.5,-74"/>
<text text-anchor="middle" x="195" y="-62" font-family="Helvetica,sans-Serif" font-size="10.00">map</text>
</a>
</g>
</g>
<!-- Node1&#45;&gt;Node4 -->
<g id="edge3" class="edge">
<title>Node1&#45;&gt;Node4</title>
<path fill="none" stroke="#63b8ff" d="M195,-109.75C195,-103.27 195,-94.16 195,-85.9"/>
<polygon fill="#63b8ff" stroke="#63b8ff" points="198.5,-85.96 195,-75.96 191.5,-85.96 198.5,-85.96"/>
</g>
<!-- Node5 -->
<g id="node5" class="node">
<title>Node5</title>
<g id="a_node5"><a xlink:href="forward__type_8h.html" target="_top" xlink:title=" ">
<polygon fill="white" stroke="#666666" points="99,-74 19,-74 19,-55 99,-55 99,-74"/>
<text text-anchor="middle" x="59" y="-62" font-family="Helvetica,sans-Serif" font-size="10.00">forward_type.h</text>
</a>
</g>
</g>
<!-- Node1&#45;&gt;Node5 -->
<g id="edge4" class="edge">
<title>Node1&#45;&gt;Node5</title>
<path fill="none" stroke="#63b8ff" d="M171.93,-109.51C150.11,-101.01 117.12,-88.15 92.42,-78.53"/>
<polygon fill="#63b8ff" stroke="#63b8ff" points="93.73,-75.28 83.14,-74.91 91.19,-81.8 93.73,-75.28"/>
</g>
<!-- Node8 -->
<g id="node8" class="node">
<title>Node8</title>
<g id="a_node8"><a xlink:href="identifier_8h.html" target="_top" xlink:title=" ">
<polygon fill="white" stroke="#666666" points="334.5,-74 273.5,-74 273.5,-55 334.5,-55 334.5,-74"/>
<text text-anchor="middle" x="304" y="-62" font-family="Helvetica,sans-Serif" font-size="10.00">identifier.h</text>
</a>
</g>
</g>
<!-- Node1&#45;&gt;Node8 -->
<g id="edge7" class="edge">
<title>Node1&#45;&gt;Node8</title>
<path fill="none" stroke="#63b8ff" d="M213.49,-109.51C230.5,-101.24 255.99,-88.84 275.59,-79.31"/>
<polygon fill="#63b8ff" stroke="#63b8ff" points="276.96,-82.54 284.42,-75.02 273.9,-76.25 276.96,-82.54"/>
</g>
<!-- Node6 -->
<g id="node6" class="node">
<title>Node6</title>
<g id="a_node6"><a xlink:title=" ">
<polygon fill="#e0e0e0" stroke="#999999" points="126,-19 64,-19 64,0 126,0 126,-19"/>
<text text-anchor="middle" x="95" y="-7" font-family="Helvetica,sans-Serif" font-size="10.00">type_traits</text>
</a>
</g>
</g>
<!-- Node5&#45;&gt;Node6 -->
<g id="edge5" class="edge">
<title>Node5&#45;&gt;Node6</title>
<path fill="none" stroke="#63b8ff" d="M64.94,-54.75C69.71,-47.73 76.56,-37.64 82.52,-28.87"/>
<polygon fill="#63b8ff" stroke="#63b8ff" points="85.35,-30.93 88.08,-20.69 79.56,-27 85.35,-30.93"/>
</g>
<!-- Node7 -->
<g id="node7" class="node">
<title>Node7</title>
<g id="a_node7"><a xlink:title=" ">
<polygon fill="#e0e0e0" stroke="#999999" points="46,-19 0,-19 0,0 46,0 46,-19"/>
<text text-anchor="middle" x="23" y="-7" font-family="Helvetica,sans-Serif" font-size="10.00">cstdint</text>
</a>
</g>
</g>
<!-- Node5&#45;&gt;Node7 -->
<g id="edge6" class="edge">
<title>Node5&#45;&gt;Node7</title>
<path fill="none" stroke="#63b8ff" d="M53.06,-54.75C48.29,-47.73 41.44,-37.64 35.48,-28.87"/>
<polygon fill="#63b8ff" stroke="#63b8ff" points="38.44,-27 29.92,-20.69 32.65,-30.93 38.44,-27"/>
</g>
<!-- Node8&#45;&gt;Node2 -->
<g id="edge8" class="edge">
<title>Node8&#45;&gt;Node2</title>
<path fill="none" stroke="#63b8ff" d="M292.8,-54.51C283.26,-46.85 269.33,-35.66 257.89,-26.47"/>
<polygon fill="#63b8ff" stroke="#63b8ff" points="260.2,-23.84 250.21,-20.31 255.82,-29.3 260.2,-23.84"/>
</g>
<!-- Node9 -->
<g id="node9" class="node">
<title>Node9</title>
<g id="a_node9"><a xlink:title=" ">
<polygon fill="#e0e0e0" stroke="#999999" points="405,-19 353,-19 353,0 405,0 405,-19"/>
<text text-anchor="middle" x="379" y="-7" font-family="Helvetica,sans-Serif" font-size="10.00">ostream</text>
</a>
</g>
</g>
<!-- Node8&#45;&gt;Node9 -->
<g id="edge9" class="edge">
<title>Node8&#45;&gt;Node9</title>
<path fill="none" stroke="#63b8ff" d="M316.72,-54.51C327.78,-46.7 344.04,-35.21 357.17,-25.93"/>
<polygon fill="#63b8ff" stroke="#63b8ff" points="359.08,-28.86 365.23,-20.23 355.04,-23.14 359.08,-28.86"/>
</g>
<!-- Node10 -->
<g id="node10" class="node">
<title>Node10</title>
<g id="a_node10"><a xlink:title=" ">
<polygon fill="#e0e0e0" stroke="#999999" points="335,-19 277,-19 277,0 335,0 335,-19"/>
<text text-anchor="middle" x="306" y="-7" font-family="Helvetica,sans-Serif" font-size="10.00">functional</text>
</a>
</g>
</g>
<!-- Node8&#45;&gt;Node10 -->
<g id="edge10" class="edge">
<title>Node8&#45;&gt;Node10</title>
<path fill="none" stroke="#63b8ff" d="M304.33,-54.75C304.57,-48.27 304.92,-39.16 305.23,-30.9"/>
<polygon fill="#63b8ff" stroke="#63b8ff" points="308.73,-31.08 305.61,-20.95 301.73,-30.82 308.73,-31.08"/>
</g>
</g>
</svg>
