<?xml version="1.0" encoding="UTF-8" standalone="no"?>
<!DOCTYPE svg PUBLIC "-//W3C//DTD SVG 1.1//EN"
 "http://www.w3.org/Graphics/SVG/1.1/DTD/svg11.dtd">
<!-- Generated by graphviz version 2.43.0 (0)
 -->
<!-- Title: HealthGPS/analysis_definition.h Pages: 1 -->
<svg width="917pt" height="274pt"
 viewBox="0.00 0.00 916.50 274.00" xmlns="http://www.w3.org/2000/svg" xmlns:xlink="http://www.w3.org/1999/xlink">
<g id="graph0" class="graph" transform="scale(1 1) rotate(0) translate(4 270)">
<title>HealthGPS/analysis_definition.h</title>
<!-- Node1 -->
<g id="node1" class="node">
<title>Node1</title>
<g id="a_node1"><a xlink:title=" ">
<polygon fill="#bfbfbf" stroke="black" points="548,-235.5 548,-265.5 660,-265.5 660,-235.5 548,-235.5"/>
<text text-anchor="start" x="556" y="-253.5" font-family="Helvetica,sans-Serif" font-size="10.00">HealthGPS/analysis</text>
<text text-anchor="middle" x="604" y="-242.5" font-family="Helvetica,sans-Serif" font-size="10.00">_definition.h</text>
</a>
</g>
</g>
<!-- Node2 -->
<g id="node2" class="node">
<title>Node2</title>
<g id="a_node2"><a xlink:href="gender__table_8h.html" target="_top" xlink:title=" ">
<polygon fill="none" stroke="black" points="431.5,-179.5 431.5,-198.5 520.5,-198.5 520.5,-179.5 431.5,-179.5"/>
<text text-anchor="middle" x="476" y="-186.5" font-family="Helvetica,sans-Serif" font-size="10.00">gender_table.h</text>
</a>
</g>
</g>
<!-- Node1&#45;&gt;Node2 -->
<g id="edge1" class="edge">
<title>Node1&#45;&gt;Node2</title>
<path fill="none" stroke="midnightblue" d="M573.67,-235.4C552.48,-225.55 524.41,-212.5 503.8,-202.92"/>
<polygon fill="midnightblue" stroke="midnightblue" points="505.17,-199.7 494.63,-198.66 502.22,-206.05 505.17,-199.7"/>
</g>
<!-- Node3 -->
<g id="node3" class="node">
<title>Node3</title>
<g id="a_node3"><a xlink:title=" ">
<polygon fill="none" stroke="#bfbfbf" points="99,-123.5 99,-142.5 137,-142.5 137,-123.5 99,-123.5"/>
<text text-anchor="middle" x="118" y="-130.5" font-family="Helvetica,sans-Serif" font-size="10.00">map</text>
</a>
</g>
</g>
<!-- Node1&#45;&gt;Node3 -->
<g id="edge29" class="edge">
<title>Node1&#45;&gt;Node3</title>
<path fill="none" stroke="midnightblue" d="M547.93,-238.02C463.08,-220.31 296.93,-184.29 147.06,-143.13"/>
<polygon fill="midnightblue" stroke="midnightblue" points="147.79,-139.69 137.22,-140.41 145.92,-146.44 147.79,-139.69"/>
</g>
<!-- Node18 -->
<g id="node18" class="node">
<title>Node18</title>
<g id="a_node18"><a xlink:title=" ">
<polygon fill="none" stroke="#bfbfbf" points="685,-0.5 685,-19.5 729,-19.5 729,-0.5 685,-0.5"/>
<text text-anchor="middle" x="707" y="-7.5" font-family="Helvetica,sans-Serif" font-size="10.00">string</text>
</a>
</g>
</g>
<!-- Node1&#45;&gt;Node18 -->
<g id="edge30" class="edge">
<title>Node1&#45;&gt;Node18</title>
<path fill="none" stroke="midnightblue" d="M626.4,-235.45C652.52,-217.61 694.36,-184.14 712,-143 728.13,-105.38 719.34,-56.05 712.53,-29.62"/>
<polygon fill="midnightblue" stroke="midnightblue" points="715.86,-28.51 709.82,-19.8 709.11,-30.38 715.86,-28.51"/>
</g>
<!-- Node20 -->
<g id="node20" class="node">
<title>Node20</title>
<g id="a_node20"><a xlink:href="identifier_8h.html" target="_top" xlink:title=" ">
<polygon fill="none" stroke="black" points="759.5,-62 759.5,-81 908.5,-81 908.5,-62 759.5,-62"/>
<text text-anchor="middle" x="834" y="-69" font-family="Helvetica,sans-Serif" font-size="10.00">HealthGPS.Core/identifier.h</text>
</a>
</g>
</g>
<!-- Node1&#45;&gt;Node20 -->
<g id="edge25" class="edge">
<title>Node1&#45;&gt;Node20</title>
<path fill="none" stroke="midnightblue" d="M660.18,-238.12C688.01,-230.45 720.94,-218.14 746,-199 784.83,-169.33 813.05,-117.6 826.03,-90.39"/>
<polygon fill="midnightblue" stroke="midnightblue" points="829.23,-91.81 830.25,-81.26 822.88,-88.87 829.23,-91.81"/>
</g>
<!-- Node2&#45;&gt;Node3 -->
<g id="edge2" class="edge">
<title>Node2&#45;&gt;Node3</title>
<path fill="none" stroke="midnightblue" d="M431.25,-184.41C369.31,-178.89 253.91,-166.62 147.13,-142.9"/>
<polygon fill="midnightblue" stroke="midnightblue" points="147.68,-139.44 137.16,-140.65 146.14,-146.27 147.68,-139.44"/>
</g>
<!-- Node4 -->
<g id="node4" class="node">
<title>Node4</title>
<g id="a_node4"><a xlink:title=" ">
<polygon fill="none" stroke="#bfbfbf" points="448,-123.5 448,-142.5 504,-142.5 504,-123.5 448,-123.5"/>
<text text-anchor="middle" x="476" y="-130.5" font-family="Helvetica,sans-Serif" font-size="10.00">numeric</text>
</a>
</g>
</g>
<!-- Node2&#45;&gt;Node4 -->
<g id="edge3" class="edge">
<title>Node2&#45;&gt;Node4</title>
<path fill="none" stroke="midnightblue" d="M476,-179.08C476,-172.01 476,-161.86 476,-152.99"/>
<polygon fill="midnightblue" stroke="midnightblue" points="479.5,-152.75 476,-142.75 472.5,-152.75 479.5,-152.75"/>
</g>
<!-- Node5 -->
<g id="node5" class="node">
<title>Node5</title>
<g id="a_node5"><a xlink:href="monotonic__vector_8h.html" target="_top" xlink:title=" ">
<polygon fill="none" stroke="black" points="316.5,-123.5 316.5,-142.5 429.5,-142.5 429.5,-123.5 316.5,-123.5"/>
<text text-anchor="middle" x="373" y="-130.5" font-family="Helvetica,sans-Serif" font-size="10.00">monotonic_vector.h</text>
</a>
</g>
</g>
<!-- Node2&#45;&gt;Node5 -->
<g id="edge4" class="edge">
<title>Node2&#45;&gt;Node5</title>
<path fill="none" stroke="midnightblue" d="M459.45,-179.32C443.01,-170.7 417.57,-157.36 398.53,-147.39"/>
<polygon fill="midnightblue" stroke="midnightblue" points="399.99,-144.2 389.51,-142.65 396.74,-150.4 399.99,-144.2"/>
</g>
<!-- Node8 -->
<g id="node8" class="node">
<title>Node8</title>
<g id="a_node8"><a xlink:href="forward__type_8h.html" target="_top" xlink:title=" ">
<polygon fill="none" stroke="black" points="478,-56.5 478,-86.5 612,-86.5 612,-56.5 478,-56.5"/>
<text text-anchor="start" x="486" y="-74.5" font-family="Helvetica,sans-Serif" font-size="10.00">HealthGPS.Core/forward</text>
<text text-anchor="middle" x="545" y="-63.5" font-family="Helvetica,sans-Serif" font-size="10.00">_type.h</text>
</a>
</g>
</g>
<!-- Node2&#45;&gt;Node8 -->
<g id="edge10" class="edge">
<title>Node2&#45;&gt;Node8</title>
<path fill="none" stroke="midnightblue" d="M484.4,-179.23C492.44,-170.53 504.55,-156.56 513,-143 522.26,-128.13 530.39,-110.12 536.14,-96.03"/>
<polygon fill="midnightblue" stroke="midnightblue" points="539.46,-97.15 539.88,-86.56 532.95,-94.57 539.46,-97.15"/>
</g>
<!-- Node11 -->
<g id="node11" class="node">
<title>Node11</title>
<g id="a_node11"><a xlink:href="array2d_8h.html" target="_top" xlink:title=" ">
<polygon fill="none" stroke="black" points="155.5,-123.5 155.5,-142.5 298.5,-142.5 298.5,-123.5 155.5,-123.5"/>
<text text-anchor="middle" x="227" y="-130.5" font-family="Helvetica,sans-Serif" font-size="10.00">HealthGPS.Core/array2d.h</text>
</a>
</g>
</g>
<!-- Node2&#45;&gt;Node11 -->
<g id="edge11" class="edge">
<title>Node2&#45;&gt;Node11</title>
<path fill="none" stroke="midnightblue" d="M436.55,-179.44C393.11,-170.02 323.21,-154.87 276.22,-144.68"/>
<polygon fill="midnightblue" stroke="midnightblue" points="276.78,-141.22 266.27,-142.52 275.3,-148.06 276.78,-141.22"/>
</g>
<!-- Node16 -->
<g id="node16" class="node">
<title>Node16</title>
<g id="a_node16"><a xlink:href="interval_8h.html" target="_top" xlink:title=" ">
<polygon fill="none" stroke="black" points="560.5,-123.5 560.5,-142.5 703.5,-142.5 703.5,-123.5 560.5,-123.5"/>
<text text-anchor="middle" x="632" y="-130.5" font-family="Helvetica,sans-Serif" font-size="10.00">HealthGPS.Core/interval.h</text>
</a>
</g>
</g>
<!-- Node2&#45;&gt;Node16 -->
<g id="edge19" class="edge">
<title>Node2&#45;&gt;Node16</title>
<path fill="none" stroke="midnightblue" d="M500.72,-179.44C526.85,-170.4 568.26,-156.06 597.58,-145.92"/>
<polygon fill="midnightblue" stroke="midnightblue" points="599.09,-149.1 607.4,-142.52 596.8,-142.48 599.09,-149.1"/>
</g>
<!-- Node6 -->
<g id="node6" class="node">
<title>Node6</title>
<g id="a_node6"><a xlink:title=" ">
<polygon fill="none" stroke="#bfbfbf" points="315.5,-62 315.5,-81 362.5,-81 362.5,-62 315.5,-62"/>
<text text-anchor="middle" x="339" y="-69" font-family="Helvetica,sans-Serif" font-size="10.00">vector</text>
</a>
</g>
</g>
<!-- Node5&#45;&gt;Node6 -->
<g id="edge5" class="edge">
<title>Node5&#45;&gt;Node6</title>
<path fill="none" stroke="midnightblue" d="M368.13,-123.48C363.13,-114.73 355.21,-100.87 348.89,-89.81"/>
<polygon fill="midnightblue" stroke="midnightblue" points="351.86,-87.96 343.86,-81.01 345.78,-91.43 351.86,-87.96"/>
</g>
<!-- Node7 -->
<g id="node7" class="node">
<title>Node7</title>
<g id="a_node7"><a xlink:title=" ">
<polygon fill="none" stroke="#bfbfbf" points="232.5,-62 232.5,-81 297.5,-81 297.5,-62 232.5,-62"/>
<text text-anchor="middle" x="265" y="-69" font-family="Helvetica,sans-Serif" font-size="10.00">stdexcept</text>
</a>
</g>
</g>
<!-- Node5&#45;&gt;Node7 -->
<g id="edge6" class="edge">
<title>Node5&#45;&gt;Node7</title>
<path fill="none" stroke="midnightblue" d="M357.53,-123.48C339.72,-113.67 310.26,-97.43 289.37,-85.92"/>
<polygon fill="midnightblue" stroke="midnightblue" points="290.89,-82.77 280.45,-81.01 287.51,-88.9 290.89,-82.77"/>
</g>
<!-- Node5&#45;&gt;Node8 -->
<g id="edge7" class="edge">
<title>Node5&#45;&gt;Node8</title>
<path fill="none" stroke="midnightblue" d="M397.64,-123.48C422.9,-114.74 462.88,-100.91 494.83,-89.86"/>
<polygon fill="midnightblue" stroke="midnightblue" points="496.16,-93.1 504.46,-86.52 493.87,-86.48 496.16,-93.1"/>
</g>
<!-- Node9 -->
<g id="node9" class="node">
<title>Node9</title>
<g id="a_node9"><a xlink:title=" ">
<polygon fill="none" stroke="#bfbfbf" points="541.5,-0.5 541.5,-19.5 610.5,-19.5 610.5,-0.5 541.5,-0.5"/>
<text text-anchor="middle" x="576" y="-7.5" font-family="Helvetica,sans-Serif" font-size="10.00">type_traits</text>
</a>
</g>
</g>
<!-- Node8&#45;&gt;Node9 -->
<g id="edge8" class="edge">
<title>Node8&#45;&gt;Node9</title>
<path fill="none" stroke="midnightblue" d="M552.35,-56.4C556.67,-48.11 562.17,-37.55 566.77,-28.71"/>
<polygon fill="midnightblue" stroke="midnightblue" points="569.97,-30.14 571.49,-19.66 563.76,-26.91 569.97,-30.14"/>
</g>
<!-- Node10 -->
<g id="node10" class="node">
<title>Node10</title>
<g id="a_node10"><a xlink:title=" ">
<polygon fill="none" stroke="#bfbfbf" points="473,-0.5 473,-19.5 523,-19.5 523,-0.5 473,-0.5"/>
<text text-anchor="middle" x="498" y="-7.5" font-family="Helvetica,sans-Serif" font-size="10.00">cstdint</text>
</a>
</g>
</g>
<!-- Node8&#45;&gt;Node10 -->
<g id="edge9" class="edge">
<title>Node8&#45;&gt;Node10</title>
<path fill="none" stroke="midnightblue" d="M533.86,-56.4C527.03,-47.75 518.26,-36.64 511.09,-27.58"/>
<polygon fill="midnightblue" stroke="midnightblue" points="513.78,-25.34 504.84,-19.66 508.29,-29.67 513.78,-25.34"/>
</g>
<!-- Node11&#45;&gt;Node6 -->
<g id="edge14" class="edge">
<title>Node11&#45;&gt;Node6</title>
<path fill="none" stroke="midnightblue" d="M243.05,-123.48C261.59,-113.62 292.34,-97.29 314.02,-85.77"/>
<polygon fill="midnightblue" stroke="midnightblue" points="315.79,-88.79 322.98,-81.01 312.51,-82.61 315.79,-88.79"/>
</g>
<!-- Node11&#45;&gt;Node7 -->
<g id="edge16" class="edge">
<title>Node11&#45;&gt;Node7</title>
<path fill="none" stroke="midnightblue" d="M232.44,-123.48C238.09,-114.64 247.06,-100.59 254.16,-89.48"/>
<polygon fill="midnightblue" stroke="midnightblue" points="257.13,-91.32 259.57,-81.01 251.23,-87.55 257.13,-91.32"/>
</g>
<!-- Node11&#45;&gt;Node8 -->
<g id="edge12" class="edge">
<title>Node11&#45;&gt;Node8</title>
<path fill="none" stroke="midnightblue" d="M272.76,-123.48C319.15,-114.83 393.3,-101 467.78,-87.04"/>
<polygon fill="midnightblue" stroke="midnightblue" points="468.63,-90.44 477.81,-85.16 467.34,-83.56 468.63,-90.44"/>
</g>
<!-- Node12 -->
<g id="node12" class="node">
<title>Node12</title>
<g id="a_node12"><a xlink:title=" ">
<polygon fill="none" stroke="#bfbfbf" points="156,-62 156,-81 214,-81 214,-62 156,-62"/>
<text text-anchor="middle" x="185" y="-69" font-family="Helvetica,sans-Serif" font-size="10.00">memory</text>
</a>
</g>
</g>
<!-- Node11&#45;&gt;Node12 -->
<g id="edge13" class="edge">
<title>Node11&#45;&gt;Node12</title>
<path fill="none" stroke="midnightblue" d="M220.98,-123.48C214.74,-114.64 204.83,-100.59 196.98,-89.48"/>
<polygon fill="midnightblue" stroke="midnightblue" points="199.63,-87.16 191.01,-81.01 193.91,-91.2 199.63,-87.16"/>
</g>
<!-- Node13 -->
<g id="node13" class="node">
<title>Node13</title>
<g id="a_node13"><a xlink:title=" ">
<polygon fill="none" stroke="#bfbfbf" points="0,-62 0,-81 64,-81 64,-62 0,-62"/>
<text text-anchor="middle" x="32" y="-69" font-family="Helvetica,sans-Serif" font-size="10.00">algorithm</text>
</a>
</g>
</g>
<!-- Node11&#45;&gt;Node13 -->
<g id="edge15" class="edge">
<title>Node11&#45;&gt;Node13</title>
<path fill="none" stroke="midnightblue" d="M195.87,-123.45C164.66,-114.75 115.28,-100.64 73,-87 70.4,-86.16 67.71,-85.27 65.01,-84.35"/>
<polygon fill="midnightblue" stroke="midnightblue" points="65.93,-80.97 55.34,-81.01 63.65,-87.58 65.93,-80.97"/>
</g>
<!-- Node14 -->
<g id="node14" class="node">
<title>Node14</title>
<g id="a_node14"><a xlink:title=" ">
<polygon fill="none" stroke="#bfbfbf" points="82,-62 82,-81 138,-81 138,-62 82,-62"/>
<text text-anchor="middle" x="110" y="-69" font-family="Helvetica,sans-Serif" font-size="10.00">sstream</text>
</a>
</g>
</g>
<!-- Node11&#45;&gt;Node14 -->
<g id="edge17" class="edge">
<title>Node11&#45;&gt;Node14</title>
<path fill="none" stroke="midnightblue" d="M210.24,-123.48C190.78,-113.58 158.45,-97.14 135.79,-85.62"/>
<polygon fill="midnightblue" stroke="midnightblue" points="137.23,-82.42 126.73,-81.01 134.06,-88.66 137.23,-82.42"/>
</g>
<!-- Node15 -->
<g id="node15" class="node">
<title>Node15</title>
<g id="a_node15"><a xlink:title=" ">
<polygon fill="none" stroke="#bfbfbf" points="380.5,-62 380.5,-81 459.5,-81 459.5,-62 380.5,-62"/>
<text text-anchor="middle" x="420" y="-69" font-family="Helvetica,sans-Serif" font-size="10.00">fmt/format.h</text>
</a>
</g>
</g>
<!-- Node11&#45;&gt;Node15 -->
<g id="edge18" class="edge">
<title>Node11&#45;&gt;Node15</title>
<path fill="none" stroke="midnightblue" d="M254.65,-123.48C288.19,-113.14 344.87,-95.66 382.37,-84.1"/>
<polygon fill="midnightblue" stroke="midnightblue" points="383.87,-87.3 392.4,-81.01 381.81,-80.61 383.87,-87.3"/>
</g>
<!-- Node16&#45;&gt;Node8 -->
<g id="edge20" class="edge">
<title>Node16&#45;&gt;Node8</title>
<path fill="none" stroke="midnightblue" d="M619.54,-123.48C607.64,-115.34 589.29,-102.79 573.77,-92.18"/>
<polygon fill="midnightblue" stroke="midnightblue" points="575.73,-89.28 565.5,-86.52 571.78,-95.06 575.73,-89.28"/>
</g>
<!-- Node16&#45;&gt;Node15 -->
<g id="edge24" class="edge">
<title>Node16&#45;&gt;Node15</title>
<path fill="none" stroke="midnightblue" d="M600.4,-123.46C567.53,-114.53 514.58,-100.04 469,-87 465.47,-85.99 461.79,-84.93 458.12,-83.85"/>
<polygon fill="midnightblue" stroke="midnightblue" points="459.06,-80.48 448.48,-81.02 457.08,-87.2 459.06,-80.48"/>
</g>
<!-- Node17 -->
<g id="node17" class="node">
<title>Node17</title>
<g id="a_node17"><a xlink:href="string__util_8h.html" target="_top" xlink:title=" ">
<polygon fill="none" stroke="black" points="630,-62 630,-81 704,-81 704,-62 630,-62"/>
<text text-anchor="middle" x="667" y="-69" font-family="Helvetica,sans-Serif" font-size="10.00">string_util.h</text>
</a>
</g>
</g>
<!-- Node16&#45;&gt;Node17 -->
<g id="edge21" class="edge">
<title>Node16&#45;&gt;Node17</title>
<path fill="none" stroke="midnightblue" d="M637.01,-123.48C642.16,-114.73 650.31,-100.87 656.82,-89.81"/>
<polygon fill="midnightblue" stroke="midnightblue" points="659.94,-91.4 661.99,-81.01 653.91,-87.85 659.94,-91.4"/>
</g>
<!-- Node17&#45;&gt;Node18 -->
<g id="edge22" class="edge">
<title>Node17&#45;&gt;Node18</title>
<path fill="none" stroke="midnightblue" d="M672.73,-61.98C678.67,-53.14 688.12,-39.09 695.59,-27.98"/>
<polygon fill="midnightblue" stroke="midnightblue" points="698.61,-29.76 701.28,-19.51 692.8,-25.86 698.61,-29.76"/>
</g>
<!-- Node19 -->
<g id="node19" class="node">
<title>Node19</title>
<g id="a_node19"><a xlink:title=" ">
<polygon fill="none" stroke="#bfbfbf" points="747.5,-0.5 747.5,-19.5 812.5,-19.5 812.5,-0.5 747.5,-0.5"/>
<text text-anchor="middle" x="780" y="-7.5" font-family="Helvetica,sans-Serif" font-size="10.00">functional</text>
</a>
</g>
</g>
<!-- Node17&#45;&gt;Node19 -->
<g id="edge23" class="edge">
<title>Node17&#45;&gt;Node19</title>
<path fill="none" stroke="midnightblue" d="M683.19,-61.98C701.9,-52.12 732.92,-35.79 754.8,-24.27"/>
<polygon fill="midnightblue" stroke="midnightblue" points="756.62,-27.27 763.84,-19.51 753.36,-21.07 756.62,-27.27"/>
</g>
<!-- Node20&#45;&gt;Node18 -->
<g id="edge26" class="edge">
<title>Node20&#45;&gt;Node18</title>
<path fill="none" stroke="midnightblue" d="M815.8,-61.98C794.49,-51.99 758.97,-35.35 734.34,-23.81"/>
<polygon fill="midnightblue" stroke="midnightblue" points="735.7,-20.58 725.16,-19.51 732.73,-26.92 735.7,-20.58"/>
</g>
<!-- Node20&#45;&gt;Node19 -->
<g id="edge28" class="edge">
<title>Node20&#45;&gt;Node19</title>
<path fill="none" stroke="midnightblue" d="M826.26,-61.98C818,-52.87 804.72,-38.24 794.51,-26.98"/>
<polygon fill="midnightblue" stroke="midnightblue" points="797.03,-24.56 787.72,-19.51 791.85,-29.27 797.03,-24.56"/>
</g>
<!-- Node21 -->
<g id="node21" class="node">
<title>Node21</title>
<g id="a_node21"><a xlink:title=" ">
<polygon fill="none" stroke="#bfbfbf" points="830.5,-0.5 830.5,-19.5 887.5,-19.5 887.5,-0.5 830.5,-0.5"/>
<text text-anchor="middle" x="859" y="-7.5" font-family="Helvetica,sans-Serif" font-size="10.00">ostream</text>
</a>
</g>
</g>
<!-- Node20&#45;&gt;Node21 -->
<g id="edge27" class="edge">
<title>Node20&#45;&gt;Node21</title>
<path fill="none" stroke="midnightblue" d="M837.58,-61.98C841.18,-53.4 846.85,-39.93 851.44,-28.98"/>
<polygon fill="midnightblue" stroke="midnightblue" points="854.78,-30.08 855.42,-19.51 848.32,-27.37 854.78,-30.08"/>
</g>
</g>
</svg>
