<?xml version="1.0" encoding="UTF-8" standalone="no"?>
<!DOCTYPE svg PUBLIC "-//W3C//DTD SVG 1.1//EN"
 "http://www.w3.org/Graphics/SVG/1.1/DTD/svg11.dtd">
<!-- Generated by graphviz version 7.0.6 (20230106.0513)
 -->
<!-- Title: HealthGPS.Core/array2d.h Pages: 1 -->
<svg width="553pt" height="137pt"
 viewBox="0.00 0.00 553.00 137.00" xmlns="http://www.w3.org/2000/svg" xmlns:xlink="http://www.w3.org/1999/xlink">
<g id="graph0" class="graph" transform="scale(1 1) rotate(0) translate(4 133)">
<title>HealthGPS.Core/array2d.h</title>
<!-- Node1 -->
<g id="node1" class="node">
<title>Node1</title>
<g id="a_node1"><a xlink:title=" ">
<polygon fill="#999999" stroke="#666666" points="349,-129 217,-129 217,-110 349,-110 349,-129"/>
<text text-anchor="middle" x="283" y="-117" font-family="Helvetica,sans-Serif" font-size="10.00">HealthGPS.Core/array2d.h</text>
</a>
</g>
</g>
<!-- Node2 -->
<g id="node2" class="node">
<title>Node2</title>
<g id="a_node2"><a xlink:href="forward__type_8h.html" target="_top" xlink:title=" ">
<polygon fill="white" stroke="#666666" points="107,-74 27,-74 27,-55 107,-55 107,-74"/>
<text text-anchor="middle" x="67" y="-62" font-family="Helvetica,sans-Serif" font-size="10.00">forward_type.h</text>
</a>
</g>
</g>
<!-- Node1&#45;&gt;Node2 -->
<g id="edge1" class="edge">
<title>Node1&#45;&gt;Node2</title>
<path fill="none" stroke="#63b8ff" d="M246.36,-109.51C210.02,-100.59 154.17,-86.89 114.46,-77.15"/>
<polygon fill="#63b8ff" stroke="#63b8ff" points="115.48,-73.79 104.93,-74.81 113.81,-80.59 115.48,-73.79"/>
</g>
<!-- Node5 -->
<g id="node5" class="node">
<title>Node5</title>
<g id="a_node5"><a xlink:title=" ">
<polygon fill="#e0e0e0" stroke="#999999" points="177,-74 125,-74 125,-55 177,-55 177,-74"/>
<text text-anchor="middle" x="151" y="-62" font-family="Helvetica,sans-Serif" font-size="10.00">memory</text>
</a>
</g>
</g>
<!-- Node1&#45;&gt;Node5 -->
<g id="edge4" class="edge">
<title>Node1&#45;&gt;Node5</title>
<path fill="none" stroke="#63b8ff" d="M260.61,-109.51C239.43,-101.01 207.41,-88.15 183.44,-78.53"/>
<polygon fill="#63b8ff" stroke="#63b8ff" points="185.05,-75.4 174.47,-74.92 182.44,-81.9 185.05,-75.4"/>
</g>
<!-- Node6 -->
<g id="node6" class="node">
<title>Node6</title>
<g id="a_node6"><a xlink:title=" ">
<polygon fill="#e0e0e0" stroke="#999999" points="237,-74 195,-74 195,-55 237,-55 237,-74"/>
<text text-anchor="middle" x="216" y="-62" font-family="Helvetica,sans-Serif" font-size="10.00">vector</text>
</a>
</g>
</g>
<!-- Node1&#45;&gt;Node6 -->
<g id="edge5" class="edge">
<title>Node1&#45;&gt;Node6</title>
<path fill="none" stroke="#63b8ff" d="M271.63,-109.51C261.95,-101.85 247.8,-90.66 236.19,-81.47"/>
<polygon fill="#63b8ff" stroke="#63b8ff" points="238.4,-78.76 228.38,-75.3 234.06,-84.25 238.4,-78.76"/>
</g>
<!-- Node7 -->
<g id="node7" class="node">
<title>Node7</title>
<g id="a_node7"><a xlink:title=" ">
<polygon fill="#e0e0e0" stroke="#999999" points="311,-74 255,-74 255,-55 311,-55 311,-74"/>
<text text-anchor="middle" x="283" y="-62" font-family="Helvetica,sans-Serif" font-size="10.00">algorithm</text>
</a>
</g>
</g>
<!-- Node1&#45;&gt;Node7 -->
<g id="edge6" class="edge">
<title>Node1&#45;&gt;Node7</title>
<path fill="none" stroke="#63b8ff" d="M283,-109.75C283,-103.27 283,-94.16 283,-85.9"/>
<polygon fill="#63b8ff" stroke="#63b8ff" points="286.5,-85.96 283,-75.96 279.5,-85.96 286.5,-85.96"/>
</g>
<!-- Node8 -->
<g id="node8" class="node">
<title>Node8</title>
<g id="a_node8"><a xlink:title=" ">
<polygon fill="#e0e0e0" stroke="#999999" points="388.5,-74 329.5,-74 329.5,-55 388.5,-55 388.5,-74"/>
<text text-anchor="middle" x="359" y="-62" font-family="Helvetica,sans-Serif" font-size="10.00">stdexcept</text>
</a>
</g>
</g>
<!-- Node1&#45;&gt;Node8 -->
<g id="edge7" class="edge">
<title>Node1&#45;&gt;Node8</title>
<path fill="none" stroke="#63b8ff" d="M295.89,-109.51C307.1,-101.7 323.57,-90.21 336.88,-80.93"/>
<polygon fill="#63b8ff" stroke="#63b8ff" points="338.86,-83.81 345.06,-75.22 334.85,-78.07 338.86,-83.81"/>
</g>
<!-- Node9 -->
<g id="node9" class="node">
<title>Node9</title>
<g id="a_node9"><a xlink:title=" ">
<polygon fill="#e0e0e0" stroke="#999999" points="459,-74 407,-74 407,-55 459,-55 459,-74"/>
<text text-anchor="middle" x="433" y="-62" font-family="Helvetica,sans-Serif" font-size="10.00">sstream</text>
</a>
</g>
</g>
<!-- Node1&#45;&gt;Node9 -->
<g id="edge8" class="edge">
<title>Node1&#45;&gt;Node9</title>
<path fill="none" stroke="#63b8ff" d="M308.45,-109.51C332.76,-100.92 369.66,-87.88 396.99,-78.22"/>
<polygon fill="#63b8ff" stroke="#63b8ff" points="397.99,-81.58 406.25,-74.95 395.66,-74.98 397.99,-81.58"/>
</g>
<!-- Node10 -->
<g id="node10" class="node">
<title>Node10</title>
<g id="a_node10"><a xlink:title=" ">
<polygon fill="#e0e0e0" stroke="#999999" points="545,-74 477,-74 477,-55 545,-55 545,-74"/>
<text text-anchor="middle" x="511" y="-62" font-family="Helvetica,sans-Serif" font-size="10.00">fmt/format.h</text>
</a>
</g>
</g>
<!-- Node1&#45;&gt;Node10 -->
<g id="edge9" class="edge">
<title>Node1&#45;&gt;Node10</title>
<path fill="none" stroke="#63b8ff" d="M321.68,-109.51C361.48,-100.26 423.45,-85.85 465.57,-76.06"/>
<polygon fill="#63b8ff" stroke="#63b8ff" points="466.19,-79.51 475.14,-73.84 464.61,-72.69 466.19,-79.51"/>
</g>
<!-- Node3 -->
<g id="node3" class="node">
<title>Node3</title>
<g id="a_node3"><a xlink:title=" ">
<polygon fill="#e0e0e0" stroke="#999999" points="62,-19 0,-19 0,0 62,0 62,-19"/>
<text text-anchor="middle" x="31" y="-7" font-family="Helvetica,sans-Serif" font-size="10.00">type_traits</text>
</a>
</g>
</g>
<!-- Node2&#45;&gt;Node3 -->
<g id="edge2" class="edge">
<title>Node2&#45;&gt;Node3</title>
<path fill="none" stroke="#63b8ff" d="M61.06,-54.75C56.29,-47.73 49.44,-37.64 43.48,-28.87"/>
<polygon fill="#63b8ff" stroke="#63b8ff" points="46.44,-27 37.92,-20.69 40.65,-30.93 46.44,-27"/>
</g>
<!-- Node4 -->
<g id="node4" class="node">
<title>Node4</title>
<g id="a_node4"><a xlink:title=" ">
<polygon fill="#e0e0e0" stroke="#999999" points="126,-19 80,-19 80,0 126,0 126,-19"/>
<text text-anchor="middle" x="103" y="-7" font-family="Helvetica,sans-Serif" font-size="10.00">cstdint</text>
</a>
</g>
</g>
<!-- Node2&#45;&gt;Node4 -->
<g id="edge3" class="edge">
<title>Node2&#45;&gt;Node4</title>
<path fill="none" stroke="#63b8ff" d="M72.94,-54.75C77.71,-47.73 84.56,-37.64 90.52,-28.87"/>
<polygon fill="#63b8ff" stroke="#63b8ff" points="93.35,-30.93 96.08,-20.69 87.56,-27 93.35,-30.93"/>
</g>
</g>
</svg>
