<?xml version="1.0" encoding="UTF-8" standalone="no"?>
<!DOCTYPE svg PUBLIC "-//W3C//DTD SVG 1.1//EN"
 "http://www.w3.org/Graphics/SVG/1.1/DTD/svg11.dtd">
<!-- Generated by graphviz version 2.43.0 (0)
 -->
<!-- Title: HealthGPS/baseline_sync_message.h Pages: 1 -->
<svg width="975pt" height="285pt"
 viewBox="0.00 0.00 975.00 285.00" xmlns="http://www.w3.org/2000/svg" xmlns:xlink="http://www.w3.org/1999/xlink">
<g id="graph0" class="graph" transform="scale(1 1) rotate(0) translate(4 281)">
<title>HealthGPS/baseline_sync_message.h</title>
<!-- Node1 -->
<g id="node1" class="node">
<title>Node1</title>
<g id="a_node1"><a xlink:title=" ">
<polygon fill="#bfbfbf" stroke="black" points="539.5,-246.5 539.5,-276.5 652.5,-276.5 652.5,-246.5 539.5,-246.5"/>
<text text-anchor="start" x="547.5" y="-264.5" font-family="Helvetica,sans-Serif" font-size="10.00">HealthGPS/baseline</text>
<text text-anchor="middle" x="596" y="-253.5" font-family="Helvetica,sans-Serif" font-size="10.00">_sync_message.h</text>
</a>
</g>
</g>
<!-- Node2 -->
<g id="node2" class="node">
<title>Node2</title>
<g id="a_node2"><a xlink:href="sync__message_8h.html" target="_top" xlink:title=" ">
<polygon fill="none" stroke="black" points="435,-190.5 435,-209.5 533,-209.5 533,-190.5 435,-190.5"/>
<text text-anchor="middle" x="484" y="-197.5" font-family="Helvetica,sans-Serif" font-size="10.00">sync_message.h</text>
</a>
</g>
</g>
<!-- Node1&#45;&gt;Node2 -->
<g id="edge1" class="edge">
<title>Node1&#45;&gt;Node2</title>
<path fill="none" stroke="midnightblue" d="M569.46,-246.4C551.34,-236.77 527.46,-224.09 509.56,-214.58"/>
<polygon fill="midnightblue" stroke="midnightblue" points="510.77,-211.26 500.3,-209.66 507.49,-217.44 510.77,-211.26"/>
</g>
<!-- Node3 -->
<g id="node3" class="node">
<title>Node3</title>
<g id="a_node3"><a xlink:href="gender__table_8h.html" target="_top" xlink:title=" ">
<polygon fill="none" stroke="black" points="551.5,-190.5 551.5,-209.5 640.5,-209.5 640.5,-190.5 551.5,-190.5"/>
<text text-anchor="middle" x="596" y="-197.5" font-family="Helvetica,sans-Serif" font-size="10.00">gender_table.h</text>
</a>
</g>
</g>
<!-- Node1&#45;&gt;Node3 -->
<g id="edge2" class="edge">
<title>Node1&#45;&gt;Node3</title>
<path fill="none" stroke="midnightblue" d="M596,-246.4C596,-238.47 596,-228.46 596,-219.86"/>
<polygon fill="midnightblue" stroke="midnightblue" points="599.5,-219.66 596,-209.66 592.5,-219.66 599.5,-219.66"/>
</g>
<!-- Node21 -->
<g id="node21" class="node">
<title>Node21</title>
<g id="a_node21"><a xlink:href="riskfactor__adjustment__types_8h.html" target="_top" xlink:title=" ">
<polygon fill="none" stroke="black" points="760,-123.5 760,-153.5 884,-153.5 884,-123.5 760,-123.5"/>
<text text-anchor="start" x="768" y="-141.5" font-family="Helvetica,sans-Serif" font-size="10.00">riskfactor_adjustment</text>
<text text-anchor="middle" x="822" y="-130.5" font-family="Helvetica,sans-Serif" font-size="10.00">_types.h</text>
</a>
</g>
</g>
<!-- Node1&#45;&gt;Node21 -->
<g id="edge26" class="edge">
<title>Node1&#45;&gt;Node21</title>
<path fill="none" stroke="midnightblue" d="M622.37,-246.38C663.11,-224.57 741.4,-182.65 786.89,-158.3"/>
<polygon fill="midnightblue" stroke="midnightblue" points="788.64,-161.33 795.8,-153.53 785.33,-155.16 788.64,-161.33"/>
</g>
<!-- Node4 -->
<g id="node4" class="node">
<title>Node4</title>
<g id="a_node4"><a xlink:title=" ">
<polygon fill="none" stroke="#bfbfbf" points="929,-0.5 929,-19.5 967,-19.5 967,-0.5 929,-0.5"/>
<text text-anchor="middle" x="948" y="-7.5" font-family="Helvetica,sans-Serif" font-size="10.00">map</text>
</a>
</g>
</g>
<!-- Node3&#45;&gt;Node4 -->
<g id="edge3" class="edge">
<title>Node3&#45;&gt;Node4</title>
<path fill="none" stroke="midnightblue" d="M640.53,-195.79C712.31,-190.02 849.91,-176.4 893,-154 929.54,-135.01 941.68,-125.22 957,-87 964.47,-68.36 959.98,-45.24 955.06,-29.43"/>
<polygon fill="midnightblue" stroke="midnightblue" points="958.3,-28.1 951.71,-19.79 951.68,-30.39 958.3,-28.1"/>
</g>
<!-- Node5 -->
<g id="node5" class="node">
<title>Node5</title>
<g id="a_node5"><a xlink:title=" ">
<polygon fill="none" stroke="#bfbfbf" points="686,-129 686,-148 742,-148 742,-129 686,-129"/>
<text text-anchor="middle" x="714" y="-136" font-family="Helvetica,sans-Serif" font-size="10.00">numeric</text>
</a>
</g>
</g>
<!-- Node3&#45;&gt;Node5 -->
<g id="edge4" class="edge">
<title>Node3&#45;&gt;Node5</title>
<path fill="none" stroke="midnightblue" d="M612.91,-190.48C632.53,-180.58 665.13,-164.14 687.99,-152.62"/>
<polygon fill="midnightblue" stroke="midnightblue" points="689.77,-155.64 697.12,-148.01 686.62,-149.39 689.77,-155.64"/>
</g>
<!-- Node6 -->
<g id="node6" class="node">
<title>Node6</title>
<g id="a_node6"><a xlink:href="monotonic__vector_8h.html" target="_top" xlink:title=" ">
<polygon fill="none" stroke="black" points="354.5,-129 354.5,-148 467.5,-148 467.5,-129 354.5,-129"/>
<text text-anchor="middle" x="411" y="-136" font-family="Helvetica,sans-Serif" font-size="10.00">monotonic_vector.h</text>
</a>
</g>
</g>
<!-- Node3&#45;&gt;Node6 -->
<g id="edge5" class="edge">
<title>Node3&#45;&gt;Node6</title>
<path fill="none" stroke="midnightblue" d="M569.49,-190.48C537.35,-180.14 483.01,-162.66 447.07,-151.1"/>
<polygon fill="midnightblue" stroke="midnightblue" points="448.05,-147.74 437.46,-148.01 445.9,-154.4 448.05,-147.74"/>
</g>
<!-- Node9 -->
<g id="node9" class="node">
<title>Node9</title>
<g id="a_node9"><a xlink:href="forward__type_8h.html" target="_top" xlink:title=" ">
<polygon fill="none" stroke="black" points="478,-56.5 478,-86.5 612,-86.5 612,-56.5 478,-56.5"/>
<text text-anchor="start" x="486" y="-74.5" font-family="Helvetica,sans-Serif" font-size="10.00">HealthGPS.Core/forward</text>
<text text-anchor="middle" x="545" y="-63.5" font-family="Helvetica,sans-Serif" font-size="10.00">_type.h</text>
</a>
</g>
</g>
<!-- Node3&#45;&gt;Node9 -->
<g id="edge11" class="edge">
<title>Node3&#45;&gt;Node9</title>
<path fill="none" stroke="midnightblue" d="M564.98,-190.44C546.97,-183.69 525.77,-172.3 515,-154 504,-135.3 514.85,-111.87 526.45,-94.93"/>
<polygon fill="midnightblue" stroke="midnightblue" points="529.38,-96.86 532.48,-86.73 523.74,-92.72 529.38,-96.86"/>
</g>
<!-- Node12 -->
<g id="node12" class="node">
<title>Node12</title>
<g id="a_node12"><a xlink:href="array2d_8h.html" target="_top" xlink:title=" ">
<polygon fill="none" stroke="black" points="193.5,-129 193.5,-148 336.5,-148 336.5,-129 193.5,-129"/>
<text text-anchor="middle" x="265" y="-136" font-family="Helvetica,sans-Serif" font-size="10.00">HealthGPS.Core/array2d.h</text>
</a>
</g>
</g>
<!-- Node3&#45;&gt;Node12 -->
<g id="edge12" class="edge">
<title>Node3&#45;&gt;Node12</title>
<path fill="none" stroke="midnightblue" d="M551.11,-190.98C500.89,-182 417.11,-167 345,-154 337.56,-152.66 329.74,-151.25 322.01,-149.85"/>
<polygon fill="midnightblue" stroke="midnightblue" points="322.42,-146.36 311.95,-148.03 321.17,-153.25 322.42,-146.36"/>
</g>
<!-- Node17 -->
<g id="node17" class="node">
<title>Node17</title>
<g id="a_node17"><a xlink:href="interval_8h.html" target="_top" xlink:title=" ">
<polygon fill="none" stroke="black" points="524.5,-129 524.5,-148 667.5,-148 667.5,-129 524.5,-129"/>
<text text-anchor="middle" x="596" y="-136" font-family="Helvetica,sans-Serif" font-size="10.00">HealthGPS.Core/interval.h</text>
</a>
</g>
</g>
<!-- Node3&#45;&gt;Node17 -->
<g id="edge20" class="edge">
<title>Node3&#45;&gt;Node17</title>
<path fill="none" stroke="midnightblue" d="M596,-190.48C596,-182.08 596,-168.98 596,-158.16"/>
<polygon fill="midnightblue" stroke="midnightblue" points="599.5,-158.01 596,-148.01 592.5,-158.01 599.5,-158.01"/>
</g>
<!-- Node7 -->
<g id="node7" class="node">
<title>Node7</title>
<g id="a_node7"><a xlink:title=" ">
<polygon fill="none" stroke="#bfbfbf" points="412.5,-62 412.5,-81 459.5,-81 459.5,-62 412.5,-62"/>
<text text-anchor="middle" x="436" y="-69" font-family="Helvetica,sans-Serif" font-size="10.00">vector</text>
</a>
</g>
</g>
<!-- Node6&#45;&gt;Node7 -->
<g id="edge6" class="edge">
<title>Node6&#45;&gt;Node7</title>
<path fill="none" stroke="midnightblue" d="M414.37,-128.73C418.12,-118.99 424.28,-102.98 429.06,-90.53"/>
<polygon fill="midnightblue" stroke="midnightblue" points="432.36,-91.72 432.68,-81.13 425.83,-89.2 432.36,-91.72"/>
</g>
<!-- Node8 -->
<g id="node8" class="node">
<title>Node8</title>
<g id="a_node8"><a xlink:title=" ">
<polygon fill="none" stroke="#bfbfbf" points="232.5,-62 232.5,-81 297.5,-81 297.5,-62 232.5,-62"/>
<text text-anchor="middle" x="265" y="-69" font-family="Helvetica,sans-Serif" font-size="10.00">stdexcept</text>
</a>
</g>
</g>
<!-- Node6&#45;&gt;Node8 -->
<g id="edge7" class="edge">
<title>Node6&#45;&gt;Node8</title>
<path fill="none" stroke="midnightblue" d="M391.61,-128.87C366.52,-117.7 322.61,-98.15 293.66,-85.26"/>
<polygon fill="midnightblue" stroke="midnightblue" points="295.03,-82.04 284.47,-81.17 292.18,-88.43 295.03,-82.04"/>
</g>
<!-- Node6&#45;&gt;Node9 -->
<g id="edge8" class="edge">
<title>Node6&#45;&gt;Node9</title>
<path fill="none" stroke="midnightblue" d="M428.79,-128.87C448.64,-119.24 481.32,-103.39 506.98,-90.94"/>
<polygon fill="midnightblue" stroke="midnightblue" points="508.61,-94.04 516.08,-86.53 505.56,-87.74 508.61,-94.04"/>
</g>
<!-- Node10 -->
<g id="node10" class="node">
<title>Node10</title>
<g id="a_node10"><a xlink:title=" ">
<polygon fill="none" stroke="#bfbfbf" points="528.5,-0.5 528.5,-19.5 597.5,-19.5 597.5,-0.5 528.5,-0.5"/>
<text text-anchor="middle" x="563" y="-7.5" font-family="Helvetica,sans-Serif" font-size="10.00">type_traits</text>
</a>
</g>
</g>
<!-- Node9&#45;&gt;Node10 -->
<g id="edge9" class="edge">
<title>Node9&#45;&gt;Node10</title>
<path fill="none" stroke="midnightblue" d="M549.27,-56.4C551.72,-48.29 554.83,-38.01 557.47,-29.28"/>
<polygon fill="midnightblue" stroke="midnightblue" points="560.84,-30.24 560.38,-19.66 554.14,-28.22 560.84,-30.24"/>
</g>
<!-- Node11 -->
<g id="node11" class="node">
<title>Node11</title>
<g id="a_node11"><a xlink:title=" ">
<polygon fill="none" stroke="#bfbfbf" points="460,-0.5 460,-19.5 510,-19.5 510,-0.5 460,-0.5"/>
<text text-anchor="middle" x="485" y="-7.5" font-family="Helvetica,sans-Serif" font-size="10.00">cstdint</text>
</a>
</g>
</g>
<!-- Node9&#45;&gt;Node11 -->
<g id="edge10" class="edge">
<title>Node9&#45;&gt;Node11</title>
<path fill="none" stroke="midnightblue" d="M530.78,-56.4C521.79,-47.49 510.16,-35.95 500.87,-26.74"/>
<polygon fill="midnightblue" stroke="midnightblue" points="503.3,-24.21 493.73,-19.66 498.37,-29.18 503.3,-24.21"/>
</g>
<!-- Node12&#45;&gt;Node7 -->
<g id="edge15" class="edge">
<title>Node12&#45;&gt;Node7</title>
<path fill="none" stroke="midnightblue" d="M289.86,-128.94C317.63,-119.25 363.83,-102.76 403,-87 404.42,-86.43 405.86,-85.84 407.32,-85.23"/>
<polygon fill="midnightblue" stroke="midnightblue" points="409.07,-88.29 416.89,-81.14 406.32,-81.85 409.07,-88.29"/>
</g>
<!-- Node12&#45;&gt;Node8 -->
<g id="edge17" class="edge">
<title>Node12&#45;&gt;Node8</title>
<path fill="none" stroke="midnightblue" d="M265,-128.73C265,-119.18 265,-103.62 265,-91.28"/>
<polygon fill="midnightblue" stroke="midnightblue" points="268.5,-91.13 265,-81.13 261.5,-91.13 268.5,-91.13"/>
</g>
<!-- Node12&#45;&gt;Node9 -->
<g id="edge13" class="edge">
<title>Node12&#45;&gt;Node9</title>
<path fill="none" stroke="midnightblue" d="M301.89,-128.94C345.65,-118.78 419.56,-101.62 474.43,-88.88"/>
<polygon fill="midnightblue" stroke="midnightblue" points="475.49,-92.23 484.44,-86.56 473.91,-85.41 475.49,-92.23"/>
</g>
<!-- Node13 -->
<g id="node13" class="node">
<title>Node13</title>
<g id="a_node13"><a xlink:title=" ">
<polygon fill="none" stroke="#bfbfbf" points="74,-62 74,-81 132,-81 132,-62 74,-62"/>
<text text-anchor="middle" x="103" y="-69" font-family="Helvetica,sans-Serif" font-size="10.00">memory</text>
</a>
</g>
</g>
<!-- Node12&#45;&gt;Node13 -->
<g id="edge14" class="edge">
<title>Node12&#45;&gt;Node13</title>
<path fill="none" stroke="midnightblue" d="M243.49,-128.87C215.33,-117.57 165.8,-97.7 133.7,-84.82"/>
<polygon fill="midnightblue" stroke="midnightblue" points="134.93,-81.54 124.34,-81.06 132.32,-88.04 134.93,-81.54"/>
</g>
<!-- Node14 -->
<g id="node14" class="node">
<title>Node14</title>
<g id="a_node14"><a xlink:title=" ">
<polygon fill="none" stroke="#bfbfbf" points="150,-62 150,-81 214,-81 214,-62 150,-62"/>
<text text-anchor="middle" x="182" y="-69" font-family="Helvetica,sans-Serif" font-size="10.00">algorithm</text>
</a>
</g>
</g>
<!-- Node12&#45;&gt;Node14 -->
<g id="edge16" class="edge">
<title>Node12&#45;&gt;Node14</title>
<path fill="none" stroke="midnightblue" d="M253.81,-128.73C240.37,-118.21 217.6,-100.38 201.3,-87.62"/>
<polygon fill="midnightblue" stroke="midnightblue" points="203.05,-84.54 193.02,-81.13 198.73,-90.05 203.05,-84.54"/>
</g>
<!-- Node15 -->
<g id="node15" class="node">
<title>Node15</title>
<g id="a_node15"><a xlink:title=" ">
<polygon fill="none" stroke="#bfbfbf" points="0,-62 0,-81 56,-81 56,-62 0,-62"/>
<text text-anchor="middle" x="28" y="-69" font-family="Helvetica,sans-Serif" font-size="10.00">sstream</text>
</a>
</g>
</g>
<!-- Node12&#45;&gt;Node15 -->
<g id="edge18" class="edge">
<title>Node12&#45;&gt;Node15</title>
<path fill="none" stroke="midnightblue" d="M225.12,-128.99C184.45,-119.95 119.73,-104.56 65,-87 62.73,-86.27 60.39,-85.47 58.06,-84.64"/>
<polygon fill="midnightblue" stroke="midnightblue" points="59.17,-81.32 48.58,-81.09 56.72,-87.88 59.17,-81.32"/>
</g>
<!-- Node16 -->
<g id="node16" class="node">
<title>Node16</title>
<g id="a_node16"><a xlink:title=" ">
<polygon fill="none" stroke="#bfbfbf" points="315.5,-62 315.5,-81 394.5,-81 394.5,-62 315.5,-62"/>
<text text-anchor="middle" x="355" y="-69" font-family="Helvetica,sans-Serif" font-size="10.00">fmt/format.h</text>
</a>
</g>
</g>
<!-- Node12&#45;&gt;Node16 -->
<g id="edge19" class="edge">
<title>Node12&#45;&gt;Node16</title>
<path fill="none" stroke="midnightblue" d="M277.14,-128.73C291.85,-118.11 316.86,-100.05 334.56,-87.26"/>
<polygon fill="midnightblue" stroke="midnightblue" points="337,-89.82 343.05,-81.13 332.9,-84.14 337,-89.82"/>
</g>
<!-- Node17&#45;&gt;Node9 -->
<g id="edge21" class="edge">
<title>Node17&#45;&gt;Node9</title>
<path fill="none" stroke="midnightblue" d="M589.12,-128.73C582.3,-120.03 571.56,-106.34 562.38,-94.65"/>
<polygon fill="midnightblue" stroke="midnightblue" points="564.98,-92.3 556.05,-86.59 559.47,-96.62 564.98,-92.3"/>
</g>
<!-- Node17&#45;&gt;Node16 -->
<g id="edge25" class="edge">
<title>Node17&#45;&gt;Node16</title>
<path fill="none" stroke="midnightblue" d="M561.73,-128.95C523.06,-119.2 458.34,-102.59 403,-87 399.59,-86.04 396.04,-85.02 392.5,-83.98"/>
<polygon fill="midnightblue" stroke="midnightblue" points="393.2,-80.53 382.61,-81.03 391.2,-87.24 393.2,-80.53"/>
</g>
<!-- Node18 -->
<g id="node18" class="node">
<title>Node18</title>
<g id="a_node18"><a xlink:href="string__util_8h.html" target="_top" xlink:title=" ">
<polygon fill="none" stroke="black" points="630,-62 630,-81 704,-81 704,-62 630,-62"/>
<text text-anchor="middle" x="667" y="-69" font-family="Helvetica,sans-Serif" font-size="10.00">string_util.h</text>
</a>
</g>
</g>
<!-- Node17&#45;&gt;Node18 -->
<g id="edge22" class="edge">
<title>Node17&#45;&gt;Node18</title>
<path fill="none" stroke="midnightblue" d="M605.58,-128.73C616.97,-118.31 636.19,-100.71 650.1,-87.97"/>
<polygon fill="midnightblue" stroke="midnightblue" points="652.56,-90.46 657.58,-81.13 647.84,-85.3 652.56,-90.46"/>
</g>
<!-- Node19 -->
<g id="node19" class="node">
<title>Node19</title>
<g id="a_node19"><a xlink:title=" ">
<polygon fill="none" stroke="#bfbfbf" points="718,-0.5 718,-19.5 762,-19.5 762,-0.5 718,-0.5"/>
<text text-anchor="middle" x="740" y="-7.5" font-family="Helvetica,sans-Serif" font-size="10.00">string</text>
</a>
</g>
</g>
<!-- Node18&#45;&gt;Node19 -->
<g id="edge23" class="edge">
<title>Node18&#45;&gt;Node19</title>
<path fill="none" stroke="midnightblue" d="M677.46,-61.98C688.95,-52.61 707.63,-37.38 721.59,-26.01"/>
<polygon fill="midnightblue" stroke="midnightblue" points="724.02,-28.54 729.56,-19.51 719.6,-23.11 724.02,-28.54"/>
</g>
<!-- Node20 -->
<g id="node20" class="node">
<title>Node20</title>
<g id="a_node20"><a xlink:title=" ">
<polygon fill="none" stroke="#bfbfbf" points="634.5,-0.5 634.5,-19.5 699.5,-19.5 699.5,-0.5 634.5,-0.5"/>
<text text-anchor="middle" x="667" y="-7.5" font-family="Helvetica,sans-Serif" font-size="10.00">functional</text>
</a>
</g>
</g>
<!-- Node18&#45;&gt;Node20 -->
<g id="edge24" class="edge">
<title>Node18&#45;&gt;Node20</title>
<path fill="none" stroke="midnightblue" d="M667,-61.98C667,-53.58 667,-40.48 667,-29.66"/>
<polygon fill="midnightblue" stroke="midnightblue" points="670.5,-29.51 667,-19.51 663.5,-29.51 670.5,-29.51"/>
</g>
<!-- Node21&#45;&gt;Node7 -->
<g id="edge34" class="edge">
<title>Node21&#45;&gt;Node7</title>
<path fill="none" stroke="midnightblue" d="M759.71,-124.51C756.77,-123.98 753.85,-123.47 751,-123 626.35,-102.34 590.76,-120.76 469,-87 466.84,-86.4 464.65,-85.69 462.46,-84.9"/>
<polygon fill="midnightblue" stroke="midnightblue" points="463.71,-81.63 453.13,-81.14 461.09,-88.12 463.71,-81.63"/>
</g>
<!-- Node21&#45;&gt;Node9 -->
<g id="edge27" class="edge">
<title>Node21&#45;&gt;Node9</title>
<path fill="none" stroke="midnightblue" d="M762.24,-123.48C718.97,-113.32 660.35,-99.57 614.91,-88.91"/>
<polygon fill="midnightblue" stroke="midnightblue" points="615.67,-85.49 605.13,-86.61 614.07,-92.3 615.67,-85.49"/>
</g>
<!-- Node22 -->
<g id="node22" class="node">
<title>Node22</title>
<g id="a_node22"><a xlink:href="identifier_8h.html" target="_top" xlink:title=" ">
<polygon fill="none" stroke="black" points="722.5,-62 722.5,-81 871.5,-81 871.5,-62 722.5,-62"/>
<text text-anchor="middle" x="797" y="-69" font-family="Helvetica,sans-Serif" font-size="10.00">HealthGPS.Core/identifier.h</text>
</a>
</g>
</g>
<!-- Node21&#45;&gt;Node22 -->
<g id="edge28" class="edge">
<title>Node21&#45;&gt;Node22</title>
<path fill="none" stroke="midnightblue" d="M816.58,-123.4C812.87,-113.76 807.93,-100.91 803.94,-90.54"/>
<polygon fill="midnightblue" stroke="midnightblue" points="807.2,-89.27 800.34,-81.19 800.67,-91.78 807.2,-89.27"/>
</g>
<!-- Node24 -->
<g id="node24" class="node">
<title>Node24</title>
<g id="a_node24"><a xlink:href="map2d_8h.html" target="_top" xlink:title=" ">
<polygon fill="none" stroke="black" points="889.5,-62 889.5,-81 948.5,-81 948.5,-62 889.5,-62"/>
<text text-anchor="middle" x="919" y="-69" font-family="Helvetica,sans-Serif" font-size="10.00">map2d.h</text>
</a>
</g>
</g>
<!-- Node21&#45;&gt;Node24 -->
<g id="edge32" class="edge">
<title>Node21&#45;&gt;Node24</title>
<path fill="none" stroke="midnightblue" d="M843.05,-123.4C859.31,-112.5 881.72,-97.48 897.98,-86.58"/>
<polygon fill="midnightblue" stroke="midnightblue" points="899.95,-89.48 906.3,-81.01 896.05,-83.67 899.95,-89.48"/>
</g>
<!-- Node22&#45;&gt;Node19 -->
<g id="edge29" class="edge">
<title>Node22&#45;&gt;Node19</title>
<path fill="none" stroke="midnightblue" d="M788.83,-61.98C780.11,-52.87 766.1,-38.24 755.31,-26.98"/>
<polygon fill="midnightblue" stroke="midnightblue" points="757.6,-24.31 748.15,-19.51 752.54,-29.15 757.6,-24.31"/>
</g>
<!-- Node22&#45;&gt;Node20 -->
<g id="edge31" class="edge">
<title>Node22&#45;&gt;Node20</title>
<path fill="none" stroke="midnightblue" d="M778.37,-61.98C756.56,-51.99 720.2,-35.35 694.98,-23.81"/>
<polygon fill="midnightblue" stroke="midnightblue" points="696.14,-20.49 685.59,-19.51 693.23,-26.85 696.14,-20.49"/>
</g>
<!-- Node23 -->
<g id="node23" class="node">
<title>Node23</title>
<g id="a_node23"><a xlink:title=" ">
<polygon fill="none" stroke="#bfbfbf" points="780.5,-0.5 780.5,-19.5 837.5,-19.5 837.5,-0.5 780.5,-0.5"/>
<text text-anchor="middle" x="809" y="-7.5" font-family="Helvetica,sans-Serif" font-size="10.00">ostream</text>
</a>
</g>
</g>
<!-- Node22&#45;&gt;Node23 -->
<g id="edge30" class="edge">
<title>Node22&#45;&gt;Node23</title>
<path fill="none" stroke="midnightblue" d="M798.72,-61.98C800.43,-53.49 803.11,-40.2 805.3,-29.32"/>
<polygon fill="midnightblue" stroke="midnightblue" points="808.74,-30 807.28,-19.51 801.88,-28.62 808.74,-30"/>
</g>
<!-- Node24&#45;&gt;Node4 -->
<g id="edge33" class="edge">
<title>Node24&#45;&gt;Node4</title>
<path fill="none" stroke="midnightblue" d="M923.15,-61.98C927.38,-53.32 934.04,-39.65 939.4,-28.65"/>
<polygon fill="midnightblue" stroke="midnightblue" points="942.62,-30.03 943.85,-19.51 936.33,-26.96 942.62,-30.03"/>
</g>
</g>
</svg>
