<?xml version="1.0" encoding="UTF-8" standalone="no"?>
<!DOCTYPE svg PUBLIC "-//W3C//DTD SVG 1.1//EN"
 "http://www.w3.org/Graphics/SVG/1.1/DTD/svg11.dtd">
<!-- Generated by graphviz version 2.43.0 (0)
 -->
<!-- Title: HealthGPS/baseline_sync_message.h Pages: 1 -->
<svg width="930pt" height="274pt"
 viewBox="0.00 0.00 930.00 274.00" xmlns="http://www.w3.org/2000/svg" xmlns:xlink="http://www.w3.org/1999/xlink">
<g id="graph0" class="graph" transform="scale(1 1) rotate(0) translate(4 270)">
<title>HealthGPS/baseline_sync_message.h</title>
<!-- Node1 -->
<g id="node1" class="node">
<title>Node1</title>
<g id="a_node1"><a xlink:title=" ">
<polygon fill="#bfbfbf" stroke="black" points="561.5,-235.5 561.5,-265.5 674.5,-265.5 674.5,-235.5 561.5,-235.5"/>
<text text-anchor="start" x="569.5" y="-253.5" font-family="Helvetica,sans-Serif" font-size="10.00">HealthGPS/baseline</text>
<text text-anchor="middle" x="618" y="-242.5" font-family="Helvetica,sans-Serif" font-size="10.00">_sync_message.h</text>
</a>
</g>
</g>
<!-- Node2 -->
<g id="node2" class="node">
<title>Node2</title>
<g id="a_node2"><a xlink:href="gender__table_8h.html" target="_top" xlink:title=" ">
<polygon fill="none" stroke="black" points="426.5,-179.5 426.5,-198.5 515.5,-198.5 515.5,-179.5 426.5,-179.5"/>
<text text-anchor="middle" x="471" y="-186.5" font-family="Helvetica,sans-Serif" font-size="10.00">gender_table.h</text>
</a>
</g>
</g>
<!-- Node1&#45;&gt;Node2 -->
<g id="edge1" class="edge">
<title>Node1&#45;&gt;Node2</title>
<path fill="none" stroke="midnightblue" d="M583.16,-235.4C558.5,-225.42 525.71,-212.15 501.97,-202.53"/>
<polygon fill="midnightblue" stroke="midnightblue" points="502.97,-199.17 492.39,-198.66 500.35,-205.65 502.97,-199.17"/>
</g>
<!-- Node20 -->
<g id="node20" class="node">
<title>Node20</title>
<g id="a_node20"><a xlink:href="riskfactor__adjustment__types_8h.html" target="_top" xlink:title=" ">
<polygon fill="none" stroke="black" points="631,-112.5 631,-142.5 755,-142.5 755,-112.5 631,-112.5"/>
<text text-anchor="start" x="639" y="-130.5" font-family="Helvetica,sans-Serif" font-size="10.00">riskfactor_adjustment</text>
<text text-anchor="middle" x="693" y="-119.5" font-family="Helvetica,sans-Serif" font-size="10.00">_types.h</text>
</a>
</g>
</g>
<!-- Node1&#45;&gt;Node20 -->
<g id="edge25" class="edge">
<title>Node1&#45;&gt;Node20</title>
<path fill="none" stroke="midnightblue" d="M619.42,-235.32C621.45,-220.38 626.2,-196.61 637,-179 643.95,-167.67 654.2,-157.38 664.04,-149.09"/>
<polygon fill="midnightblue" stroke="midnightblue" points="666.5,-151.6 672.12,-142.61 662.13,-146.13 666.5,-151.6"/>
</g>
<!-- Node24 -->
<g id="node24" class="node">
<title>Node24</title>
<g id="a_node24"><a xlink:href="sync__message_8h.html" target="_top" xlink:title=" ">
<polygon fill="none" stroke="black" points="646,-179.5 646,-198.5 744,-198.5 744,-179.5 646,-179.5"/>
<text text-anchor="middle" x="695" y="-186.5" font-family="Helvetica,sans-Serif" font-size="10.00">sync_message.h</text>
</a>
</g>
</g>
<!-- Node1&#45;&gt;Node24 -->
<g id="edge34" class="edge">
<title>Node1&#45;&gt;Node24</title>
<path fill="none" stroke="midnightblue" d="M636.25,-235.4C648.13,-226.22 663.61,-214.26 675.69,-204.92"/>
<polygon fill="midnightblue" stroke="midnightblue" points="678.02,-207.54 683.8,-198.66 673.74,-202 678.02,-207.54"/>
</g>
<!-- Node3 -->
<g id="node3" class="node">
<title>Node3</title>
<g id="a_node3"><a xlink:title=" ">
<polygon fill="none" stroke="#bfbfbf" points="884,-0.5 884,-19.5 922,-19.5 922,-0.5 884,-0.5"/>
<text text-anchor="middle" x="903" y="-7.5" font-family="Helvetica,sans-Serif" font-size="10.00">map</text>
</a>
</g>
</g>
<!-- Node2&#45;&gt;Node3 -->
<g id="edge2" class="edge">
<title>Node2&#45;&gt;Node3</title>
<path fill="none" stroke="midnightblue" d="M515.51,-184.96C573.65,-180.12 678.16,-168.5 764,-143 833.21,-122.44 872.86,-136.68 912,-76 920.96,-62.12 916.88,-43.1 911.66,-29.22"/>
<polygon fill="midnightblue" stroke="midnightblue" points="914.77,-27.62 907.64,-19.79 908.33,-30.36 914.77,-27.62"/>
</g>
<!-- Node4 -->
<g id="node4" class="node">
<title>Node4</title>
<g id="a_node4"><a xlink:title=" ">
<polygon fill="none" stroke="#bfbfbf" points="64,-118 64,-137 120,-137 120,-118 64,-118"/>
<text text-anchor="middle" x="92" y="-125" font-family="Helvetica,sans-Serif" font-size="10.00">numeric</text>
</a>
</g>
</g>
<!-- Node2&#45;&gt;Node4 -->
<g id="edge3" class="edge">
<title>Node2&#45;&gt;Node4</title>
<path fill="none" stroke="midnightblue" d="M426.35,-185.59C360.41,-181.25 233.53,-169.93 129,-143 126.34,-142.31 123.6,-141.49 120.89,-140.59"/>
<polygon fill="midnightblue" stroke="midnightblue" points="121.89,-137.22 111.29,-137.08 119.49,-143.8 121.89,-137.22"/>
</g>
<!-- Node5 -->
<g id="node5" class="node">
<title>Node5</title>
<g id="a_node5"><a xlink:href="array2d_8h.html" target="_top" xlink:title=" ">
<polygon fill="none" stroke="black" points="299.5,-118 299.5,-137 442.5,-137 442.5,-118 299.5,-118"/>
<text text-anchor="middle" x="371" y="-125" font-family="Helvetica,sans-Serif" font-size="10.00">HealthGPS.Core/array2d.h</text>
</a>
</g>
</g>
<!-- Node2&#45;&gt;Node5 -->
<g id="edge4" class="edge">
<title>Node2&#45;&gt;Node5</title>
<path fill="none" stroke="midnightblue" d="M456.67,-179.48C440.34,-169.75 413.4,-153.73 394.09,-142.24"/>
<polygon fill="midnightblue" stroke="midnightblue" points="395.68,-139.11 385.3,-137.01 392.11,-145.13 395.68,-139.11"/>
</g>
<!-- Node6 -->
<g id="node6" class="node">
<title>Node6</title>
<g id="a_node6"><a xlink:href="forward__type_8h.html" target="_top" xlink:title=" ">
<polygon fill="none" stroke="black" points="421,-56.5 421,-75.5 511,-75.5 511,-56.5 421,-56.5"/>
<text text-anchor="middle" x="466" y="-63.5" font-family="Helvetica,sans-Serif" font-size="10.00">forward_type.h</text>
</a>
</g>
</g>
<!-- Node2&#45;&gt;Node6 -->
<g id="edge14" class="edge">
<title>Node2&#45;&gt;Node6</title>
<path fill="none" stroke="midnightblue" d="M470.64,-179.3C469.84,-159.85 467.88,-112.49 466.78,-85.9"/>
<polygon fill="midnightblue" stroke="midnightblue" points="470.27,-85.47 466.36,-75.62 463.27,-85.76 470.27,-85.47"/>
</g>
<!-- Node15 -->
<g id="node15" class="node">
<title>Node15</title>
<g id="a_node15"><a xlink:href="interval_8h.html" target="_top" xlink:title=" ">
<polygon fill="none" stroke="black" points="138.5,-118 138.5,-137 281.5,-137 281.5,-118 138.5,-118"/>
<text text-anchor="middle" x="210" y="-125" font-family="Helvetica,sans-Serif" font-size="10.00">HealthGPS.Core/interval.h</text>
</a>
</g>
</g>
<!-- Node2&#45;&gt;Node15 -->
<g id="edge15" class="edge">
<title>Node2&#45;&gt;Node15</title>
<path fill="none" stroke="midnightblue" d="M433.61,-179.48C387.19,-168.89 307.98,-150.84 257.36,-139.3"/>
<polygon fill="midnightblue" stroke="midnightblue" points="257.85,-135.82 247.33,-137.01 256.3,-142.64 257.85,-135.82"/>
</g>
<!-- Node19 -->
<g id="node19" class="node">
<title>Node19</title>
<g id="a_node19"><a xlink:href="monotonic__vector_8h.html" target="_top" xlink:title=" ">
<polygon fill="none" stroke="black" points="499.5,-118 499.5,-137 612.5,-137 612.5,-118 499.5,-118"/>
<text text-anchor="middle" x="556" y="-125" font-family="Helvetica,sans-Serif" font-size="10.00">monotonic_vector.h</text>
</a>
</g>
</g>
<!-- Node2&#45;&gt;Node19 -->
<g id="edge21" class="edge">
<title>Node2&#45;&gt;Node19</title>
<path fill="none" stroke="midnightblue" d="M483.18,-179.48C496.81,-169.93 519.13,-154.31 535.47,-142.87"/>
<polygon fill="midnightblue" stroke="midnightblue" points="537.66,-145.61 543.84,-137.01 533.64,-139.88 537.66,-145.61"/>
</g>
<!-- Node5&#45;&gt;Node6 -->
<g id="edge5" class="edge">
<title>Node5&#45;&gt;Node6</title>
<path fill="none" stroke="midnightblue" d="M384.61,-117.98C400.06,-108.3 425.49,-92.37 443.82,-80.89"/>
<polygon fill="midnightblue" stroke="midnightblue" points="445.8,-83.78 452.41,-75.51 442.08,-77.85 445.8,-83.78"/>
</g>
<!-- Node9 -->
<g id="node9" class="node">
<title>Node9</title>
<g id="a_node9"><a xlink:title=" ">
<polygon fill="none" stroke="#bfbfbf" points="339,-56.5 339,-75.5 403,-75.5 403,-56.5 339,-56.5"/>
<text text-anchor="middle" x="371" y="-63.5" font-family="Helvetica,sans-Serif" font-size="10.00">algorithm</text>
</a>
</g>
</g>
<!-- Node5&#45;&gt;Node9 -->
<g id="edge8" class="edge">
<title>Node5&#45;&gt;Node9</title>
<path fill="none" stroke="midnightblue" d="M371,-117.98C371,-109.58 371,-96.48 371,-85.66"/>
<polygon fill="midnightblue" stroke="midnightblue" points="374.5,-85.51 371,-75.51 367.5,-85.51 374.5,-85.51"/>
</g>
<!-- Node10 -->
<g id="node10" class="node">
<title>Node10</title>
<g id="a_node10"><a xlink:title=" ">
<polygon fill="none" stroke="#bfbfbf" points="92.5,-56.5 92.5,-75.5 171.5,-75.5 171.5,-56.5 92.5,-56.5"/>
<text text-anchor="middle" x="132" y="-63.5" font-family="Helvetica,sans-Serif" font-size="10.00">fmt/format.h</text>
</a>
</g>
</g>
<!-- Node5&#45;&gt;Node10 -->
<g id="edge9" class="edge">
<title>Node5&#45;&gt;Node10</title>
<path fill="none" stroke="midnightblue" d="M336.76,-117.98C294.43,-107.44 222.32,-89.49 175.95,-77.94"/>
<polygon fill="midnightblue" stroke="midnightblue" points="176.73,-74.53 166.18,-75.51 175.04,-81.32 176.73,-74.53"/>
</g>
<!-- Node11 -->
<g id="node11" class="node">
<title>Node11</title>
<g id="a_node11"><a xlink:title=" ">
<polygon fill="none" stroke="#bfbfbf" points="189,-56.5 189,-75.5 247,-75.5 247,-56.5 189,-56.5"/>
<text text-anchor="middle" x="218" y="-63.5" font-family="Helvetica,sans-Serif" font-size="10.00">memory</text>
</a>
</g>
</g>
<!-- Node5&#45;&gt;Node11 -->
<g id="edge10" class="edge">
<title>Node5&#45;&gt;Node11</title>
<path fill="none" stroke="midnightblue" d="M349.08,-117.98C322.95,-107.81 279.09,-90.76 249.37,-79.2"/>
<polygon fill="midnightblue" stroke="midnightblue" points="250.47,-75.87 239.88,-75.51 247.93,-82.4 250.47,-75.87"/>
</g>
<!-- Node12 -->
<g id="node12" class="node">
<title>Node12</title>
<g id="a_node12"><a xlink:title=" ">
<polygon fill="none" stroke="#bfbfbf" points="265,-56.5 265,-75.5 321,-75.5 321,-56.5 265,-56.5"/>
<text text-anchor="middle" x="293" y="-63.5" font-family="Helvetica,sans-Serif" font-size="10.00">sstream</text>
</a>
</g>
</g>
<!-- Node5&#45;&gt;Node12 -->
<g id="edge11" class="edge">
<title>Node5&#45;&gt;Node12</title>
<path fill="none" stroke="midnightblue" d="M359.82,-117.98C347.43,-108.52 327.21,-93.1 312.25,-81.69"/>
<polygon fill="midnightblue" stroke="midnightblue" points="314.23,-78.79 304.15,-75.51 309.98,-84.36 314.23,-78.79"/>
</g>
<!-- Node13 -->
<g id="node13" class="node">
<title>Node13</title>
<g id="a_node13"><a xlink:title=" ">
<polygon fill="none" stroke="#bfbfbf" points="529.5,-56.5 529.5,-75.5 594.5,-75.5 594.5,-56.5 529.5,-56.5"/>
<text text-anchor="middle" x="562" y="-63.5" font-family="Helvetica,sans-Serif" font-size="10.00">stdexcept</text>
</a>
</g>
</g>
<!-- Node5&#45;&gt;Node13 -->
<g id="edge12" class="edge">
<title>Node5&#45;&gt;Node13</title>
<path fill="none" stroke="midnightblue" d="M398.37,-117.98C431.55,-107.64 487.65,-90.16 524.76,-78.6"/>
<polygon fill="midnightblue" stroke="midnightblue" points="526.18,-81.82 534.69,-75.51 524.1,-75.14 526.18,-81.82"/>
</g>
<!-- Node14 -->
<g id="node14" class="node">
<title>Node14</title>
<g id="a_node14"><a xlink:title=" ">
<polygon fill="none" stroke="#bfbfbf" points="612.5,-56.5 612.5,-75.5 659.5,-75.5 659.5,-56.5 612.5,-56.5"/>
<text text-anchor="middle" x="636" y="-63.5" font-family="Helvetica,sans-Serif" font-size="10.00">vector</text>
</a>
</g>
</g>
<!-- Node5&#45;&gt;Node14 -->
<g id="edge13" class="edge">
<title>Node5&#45;&gt;Node14</title>
<path fill="none" stroke="midnightblue" d="M413.49,-117.94C458.03,-108.82 530.28,-93.58 602.11,-76.12"/>
<polygon fill="midnightblue" stroke="midnightblue" points="603.36,-79.41 612.25,-73.64 601.7,-72.61 603.36,-79.41"/>
</g>
<!-- Node7 -->
<g id="node7" class="node">
<title>Node7</title>
<g id="a_node7"><a xlink:title=" ">
<polygon fill="none" stroke="#bfbfbf" points="450,-0.5 450,-19.5 500,-19.5 500,-0.5 450,-0.5"/>
<text text-anchor="middle" x="475" y="-7.5" font-family="Helvetica,sans-Serif" font-size="10.00">cstdint</text>
</a>
</g>
</g>
<!-- Node6&#45;&gt;Node7 -->
<g id="edge6" class="edge">
<title>Node6&#45;&gt;Node7</title>
<path fill="none" stroke="midnightblue" d="M467.49,-56.08C468.68,-48.93 470.39,-38.64 471.88,-29.69"/>
<polygon fill="midnightblue" stroke="midnightblue" points="475.35,-30.19 473.54,-19.75 468.45,-29.04 475.35,-30.19"/>
</g>
<!-- Node8 -->
<g id="node8" class="node">
<title>Node8</title>
<g id="a_node8"><a xlink:title=" ">
<polygon fill="none" stroke="#bfbfbf" points="362.5,-0.5 362.5,-19.5 431.5,-19.5 431.5,-0.5 362.5,-0.5"/>
<text text-anchor="middle" x="397" y="-7.5" font-family="Helvetica,sans-Serif" font-size="10.00">type_traits</text>
</a>
</g>
</g>
<!-- Node6&#45;&gt;Node8 -->
<g id="edge7" class="edge">
<title>Node6&#45;&gt;Node8</title>
<path fill="none" stroke="midnightblue" d="M454.91,-56.32C444.51,-48.18 428.74,-35.84 416.28,-26.09"/>
<polygon fill="midnightblue" stroke="midnightblue" points="418.32,-23.24 408.29,-19.83 414.01,-28.75 418.32,-23.24"/>
</g>
<!-- Node15&#45;&gt;Node6 -->
<g id="edge16" class="edge">
<title>Node15&#45;&gt;Node6</title>
<path fill="none" stroke="midnightblue" d="M246.68,-117.98C292.21,-107.39 369.9,-89.34 419.55,-77.8"/>
<polygon fill="midnightblue" stroke="midnightblue" points="420.44,-81.18 429.39,-75.51 418.86,-74.36 420.44,-81.18"/>
</g>
<!-- Node15&#45;&gt;Node10 -->
<g id="edge20" class="edge">
<title>Node15&#45;&gt;Node10</title>
<path fill="none" stroke="midnightblue" d="M198.82,-117.98C186.43,-108.52 166.21,-93.1 151.25,-81.69"/>
<polygon fill="midnightblue" stroke="midnightblue" points="153.23,-78.79 143.15,-75.51 148.98,-84.36 153.23,-78.79"/>
</g>
<!-- Node16 -->
<g id="node16" class="node">
<title>Node16</title>
<g id="a_node16"><a xlink:href="string__util_8h.html" target="_top" xlink:title=" ">
<polygon fill="none" stroke="black" points="0,-56.5 0,-75.5 74,-75.5 74,-56.5 0,-56.5"/>
<text text-anchor="middle" x="37" y="-63.5" font-family="Helvetica,sans-Serif" font-size="10.00">string_util.h</text>
</a>
</g>
</g>
<!-- Node15&#45;&gt;Node16 -->
<g id="edge17" class="edge">
<title>Node15&#45;&gt;Node16</title>
<path fill="none" stroke="midnightblue" d="M185.21,-117.98C155.41,-107.72 105.21,-90.46 71.6,-78.9"/>
<polygon fill="midnightblue" stroke="midnightblue" points="72.34,-75.45 61.74,-75.51 70.06,-82.07 72.34,-75.45"/>
</g>
<!-- Node17 -->
<g id="node17" class="node">
<title>Node17</title>
<g id="a_node17"><a xlink:title=" ">
<polygon fill="none" stroke="#bfbfbf" points="623.5,-0.5 623.5,-19.5 688.5,-19.5 688.5,-0.5 623.5,-0.5"/>
<text text-anchor="middle" x="656" y="-7.5" font-family="Helvetica,sans-Serif" font-size="10.00">functional</text>
</a>
</g>
</g>
<!-- Node16&#45;&gt;Node17 -->
<g id="edge18" class="edge">
<title>Node16&#45;&gt;Node17</title>
<path fill="none" stroke="midnightblue" d="M74.09,-57.34C77.1,-56.84 80.1,-56.39 83,-56 302.52,-26.68 359.53,-41.03 580,-20 590.83,-18.97 602.5,-17.68 613.37,-16.4"/>
<polygon fill="midnightblue" stroke="midnightblue" points="613.98,-19.85 623.49,-15.18 613.14,-12.9 613.98,-19.85"/>
</g>
<!-- Node18 -->
<g id="node18" class="node">
<title>Node18</title>
<g id="a_node18"><a xlink:title=" ">
<polygon fill="none" stroke="#bfbfbf" points="527,-0.5 527,-19.5 571,-19.5 571,-0.5 527,-0.5"/>
<text text-anchor="middle" x="549" y="-7.5" font-family="Helvetica,sans-Serif" font-size="10.00">string</text>
</a>
</g>
</g>
<!-- Node16&#45;&gt;Node18 -->
<g id="edge19" class="edge">
<title>Node16&#45;&gt;Node18</title>
<path fill="none" stroke="midnightblue" d="M74.1,-57.38C77.1,-56.87 80.1,-56.41 83,-56 271.18,-29.72 321.21,-48.92 509,-20 511.52,-19.61 514.13,-19.15 516.73,-18.66"/>
<polygon fill="midnightblue" stroke="midnightblue" points="517.6,-22.05 526.68,-16.59 516.17,-15.2 517.6,-22.05"/>
</g>
<!-- Node19&#45;&gt;Node6 -->
<g id="edge24" class="edge">
<title>Node19&#45;&gt;Node6</title>
<path fill="none" stroke="midnightblue" d="M543.11,-117.98C528.54,-108.34 504.6,-92.52 487.25,-81.05"/>
<polygon fill="midnightblue" stroke="midnightblue" points="489.14,-78.1 478.87,-75.51 485.28,-83.94 489.14,-78.1"/>
</g>
<!-- Node19&#45;&gt;Node13 -->
<g id="edge22" class="edge">
<title>Node19&#45;&gt;Node13</title>
<path fill="none" stroke="midnightblue" d="M556.86,-117.98C557.71,-109.58 559.03,-96.48 560.12,-85.66"/>
<polygon fill="midnightblue" stroke="midnightblue" points="563.62,-85.81 561.14,-75.51 556.66,-85.11 563.62,-85.81"/>
</g>
<!-- Node19&#45;&gt;Node14 -->
<g id="edge23" class="edge">
<title>Node19&#45;&gt;Node14</title>
<path fill="none" stroke="midnightblue" d="M567.46,-117.98C580.17,-108.52 600.91,-93.1 616.25,-81.69"/>
<polygon fill="midnightblue" stroke="midnightblue" points="618.62,-84.29 624.56,-75.51 614.45,-78.67 618.62,-84.29"/>
</g>
<!-- Node20&#45;&gt;Node6 -->
<g id="edge26" class="edge">
<title>Node20&#45;&gt;Node6</title>
<path fill="none" stroke="midnightblue" d="M639.49,-112.47C599.47,-101.99 545.49,-87.84 508.43,-78.12"/>
<polygon fill="midnightblue" stroke="midnightblue" points="509.01,-74.66 498.45,-75.51 507.24,-81.43 509.01,-74.66"/>
</g>
<!-- Node20&#45;&gt;Node14 -->
<g id="edge33" class="edge">
<title>Node20&#45;&gt;Node14</title>
<path fill="none" stroke="midnightblue" d="M679.49,-112.4C671.04,-103.58 660.12,-92.18 651.34,-83.02"/>
<polygon fill="midnightblue" stroke="midnightblue" points="653.74,-80.46 644.29,-75.66 648.68,-85.3 653.74,-80.46"/>
</g>
<!-- Node21 -->
<g id="node21" class="node">
<title>Node21</title>
<g id="a_node21"><a xlink:href="identifier_8h.html" target="_top" xlink:title=" ">
<polygon fill="none" stroke="black" points="677.5,-56.5 677.5,-75.5 826.5,-75.5 826.5,-56.5 677.5,-56.5"/>
<text text-anchor="middle" x="752" y="-63.5" font-family="Helvetica,sans-Serif" font-size="10.00">HealthGPS.Core/identifier.h</text>
</a>
</g>
</g>
<!-- Node20&#45;&gt;Node21 -->
<g id="edge27" class="edge">
<title>Node20&#45;&gt;Node21</title>
<path fill="none" stroke="midnightblue" d="M706.98,-112.4C715.73,-103.58 727.03,-92.18 736.12,-83.02"/>
<polygon fill="midnightblue" stroke="midnightblue" points="738.86,-85.22 743.41,-75.66 733.89,-80.29 738.86,-85.22"/>
</g>
<!-- Node23 -->
<g id="node23" class="node">
<title>Node23</title>
<g id="a_node23"><a xlink:href="map2d_8h.html" target="_top" xlink:title=" ">
<polygon fill="none" stroke="black" points="844.5,-56.5 844.5,-75.5 903.5,-75.5 903.5,-56.5 844.5,-56.5"/>
<text text-anchor="middle" x="874" y="-63.5" font-family="Helvetica,sans-Serif" font-size="10.00">map2d.h</text>
</a>
</g>
</g>
<!-- Node20&#45;&gt;Node23 -->
<g id="edge31" class="edge">
<title>Node20&#45;&gt;Node23</title>
<path fill="none" stroke="midnightblue" d="M735.89,-112.4C767.03,-102.16 808.69,-88.47 838.08,-78.81"/>
<polygon fill="midnightblue" stroke="midnightblue" points="839.52,-82.02 847.93,-75.57 837.33,-75.37 839.52,-82.02"/>
</g>
<!-- Node21&#45;&gt;Node17 -->
<g id="edge28" class="edge">
<title>Node21&#45;&gt;Node17</title>
<path fill="none" stroke="midnightblue" d="M736.58,-56.32C721.46,-47.82 698.18,-34.73 680.53,-24.8"/>
<polygon fill="midnightblue" stroke="midnightblue" points="681.82,-21.51 671.39,-19.65 678.39,-27.61 681.82,-21.51"/>
</g>
<!-- Node21&#45;&gt;Node18 -->
<g id="edge30" class="edge">
<title>Node21&#45;&gt;Node18</title>
<path fill="none" stroke="midnightblue" d="M719.83,-56.44C681.82,-46.33 618.95,-29.61 581.01,-19.51"/>
<polygon fill="midnightblue" stroke="midnightblue" points="581.57,-16.04 571.01,-16.85 579.77,-22.81 581.57,-16.04"/>
</g>
<!-- Node22 -->
<g id="node22" class="node">
<title>Node22</title>
<g id="a_node22"><a xlink:title=" ">
<polygon fill="none" stroke="#bfbfbf" points="723.5,-0.5 723.5,-19.5 780.5,-19.5 780.5,-0.5 723.5,-0.5"/>
<text text-anchor="middle" x="752" y="-7.5" font-family="Helvetica,sans-Serif" font-size="10.00">ostream</text>
</a>
</g>
</g>
<!-- Node21&#45;&gt;Node22 -->
<g id="edge29" class="edge">
<title>Node21&#45;&gt;Node22</title>
<path fill="none" stroke="midnightblue" d="M752,-56.08C752,-49.01 752,-38.86 752,-29.99"/>
<polygon fill="midnightblue" stroke="midnightblue" points="755.5,-29.75 752,-19.75 748.5,-29.75 755.5,-29.75"/>
</g>
<!-- Node23&#45;&gt;Node3 -->
<g id="edge32" class="edge">
<title>Node23&#45;&gt;Node3</title>
<path fill="none" stroke="midnightblue" d="M878.79,-56.08C882.76,-48.69 888.53,-37.95 893.43,-28.81"/>
<polygon fill="midnightblue" stroke="midnightblue" points="896.65,-30.22 898.3,-19.75 890.49,-26.91 896.65,-30.22"/>
</g>
</g>
</svg>
