<?xml version="1.0" encoding="UTF-8" standalone="no"?>
<!DOCTYPE svg PUBLIC "-//W3C//DTD SVG 1.1//EN"
 "http://www.w3.org/Graphics/SVG/1.1/DTD/svg11.dtd">
<!-- Generated by graphviz version 7.0.6 (20230106.0513)
 -->
<!-- Title: hgps::ModelInput::start_time Pages: 1 -->
<svg width="473pt" height="94pt"
 viewBox="0.00 0.00 473.00 93.50" xmlns="http://www.w3.org/2000/svg" xmlns:xlink="http://www.w3.org/1999/xlink">
<g id="graph0" class="graph" transform="scale(1 1) rotate(0) translate(4 89.5)">
<title>hgps::ModelInput::start_time</title>
<!-- Node1 -->
<g id="node1" class="node">
<title>Node1</title>
<g id="a_node1"><a xlink:title=" ">
<polygon fill="#999999" stroke="#666666" points="465,-40 325,-40 325,-21 465,-21 465,-40"/>
<text text-anchor="middle" x="395" y="-28" font-family="Helvetica,sans-Serif" font-size="10.00">hgps::ModelInput::start_time</text>
</a>
</g>
</g>
<!-- Node2 -->
<g id="node2" class="node">
<title>Node2</title>
<g id="a_node2"><a xlink:href="namespacehgps.html#ad7d042f1937872f2f8b344915584a7a9" target="_top" xlink:title=" ">
<polygon fill="white" stroke="#666666" points="289,-67.5 176,-67.5 176,-37.5 289,-37.5 289,-67.5"/>
<text text-anchor="start" x="184" y="-55.5" font-family="Helvetica,sans-Serif" font-size="10.00">hgps::build_population</text>
<text text-anchor="middle" x="232.5" y="-44.5" font-family="Helvetica,sans-Serif" font-size="10.00">_module</text>
</a>
</g>
</g>
<!-- Node1&#45;&gt;Node2 -->
<g id="edge1" class="edge">
<title>Node1&#45;&gt;Node2</title>
<path fill="none" stroke="#63b8ff" d="M313.35,-41.55C305.13,-42.68 296.92,-43.81 289.05,-44.89"/>
<polygon fill="#63b8ff" stroke="#63b8ff" points="313.6,-45.05 323.04,-40.23 312.65,-38.12 313.6,-45.05"/>
</g>
<!-- Node4 -->
<g id="node4" class="node">
<title>Node4</title>
<g id="a_node4"><a xlink:href="classhgps_1_1_health_g_p_s.html#a2c23ed4aa847824887750396e4f28637" target="_top" xlink:title=" ">
<polygon fill="white" stroke="#666666" points="288,-19 177,-19 177,0 288,0 288,-19"/>
<text text-anchor="middle" x="232.5" y="-7" font-family="Helvetica,sans-Serif" font-size="10.00">hgps::HealthGPS::init</text>
</a>
</g>
</g>
<!-- Node1&#45;&gt;Node4 -->
<g id="edge4" class="edge">
<title>Node1&#45;&gt;Node4</title>
<path fill="none" stroke="#63b8ff" d="M313.32,-19.94C304.77,-18.83 296.23,-17.71 288.08,-16.64"/>
<polygon fill="#63b8ff" stroke="#63b8ff" points="312.67,-23.39 323.04,-21.21 313.57,-16.45 312.67,-23.39"/>
</g>
<!-- Node2&#45;&gt;Node2 -->
<g id="edge2" class="edge">
<title>Node2&#45;&gt;Node2</title>
<path fill="none" stroke="#63b8ff" d="M259.92,-79.11C255.52,-82.93 246.39,-85.5 232.5,-85.5 207.11,-85.5 197.59,-76.91 203.94,-67.78"/>
<polygon fill="#63b8ff" stroke="#63b8ff" points="263.39,-79.58 260.91,-69.28 256.42,-78.88 263.39,-79.58"/>
</g>
<!-- Node3 -->
<g id="node3" class="node">
<title>Node3</title>
<g id="a_node3"><a xlink:href="namespacehgps.html#aef8e3dcb57d8eabeb75baa00c53f6b98" target="_top" xlink:title="Create the default simulation modules factory for production usage.">
<polygon fill="white" stroke="#666666" points="140,-67.5 0,-67.5 0,-37.5 140,-37.5 140,-67.5"/>
<text text-anchor="start" x="8" y="-55.5" font-family="Helvetica,sans-Serif" font-size="10.00">hgps::get_default_simulation</text>
<text text-anchor="middle" x="70" y="-44.5" font-family="Helvetica,sans-Serif" font-size="10.00">_module_factory</text>
</a>
</g>
</g>
<!-- Node2&#45;&gt;Node3 -->
<g id="edge3" class="edge">
<title>Node2&#45;&gt;Node3</title>
<path fill="none" stroke="#63b8ff" d="M164.39,-52.5C156.47,-52.5 148.39,-52.5 140.44,-52.5"/>
<polygon fill="#63b8ff" stroke="#63b8ff" points="164.3,-56 174.3,-52.5 164.3,-49 164.3,-56"/>
</g>
</g>
</svg>
