<?xml version="1.0" encoding="UTF-8" standalone="no"?>
<!DOCTYPE svg PUBLIC "-//W3C//DTD SVG 1.1//EN"
 "http://www.w3.org/Graphics/SVG/1.1/DTD/svg11.dtd">
<!-- Generated by graphviz version 2.43.0 (0)
 -->
<!-- Title: hgps::Scenario Pages: 1 -->
<svg width="697pt" height="230pt"
 viewBox="0.00 0.00 697.00 229.50" xmlns="http://www.w3.org/2000/svg" xmlns:xlink="http://www.w3.org/1999/xlink">
<g id="graph0" class="graph" transform="scale(1 1) rotate(0) translate(4 225.5)">
<title>hgps::Scenario</title>
<!-- Node1 -->
<g id="node1" class="node">
<title>Node1</title>
<g id="a_node1"><a xlink:title="Health&#45;GPS simulation scenario interface.">
<polygon fill="#bfbfbf" stroke="black" points="0,-114.5 0,-133.5 88,-133.5 88,-114.5 0,-114.5"/>
<text text-anchor="middle" x="44" y="-121.5" font-family="Helvetica,sans-Serif" font-size="10.00">hgps::Scenario</text>
</a>
</g>
</g>
<!-- Node2 -->
<g id="node2" class="node">
<title>Node2</title>
<g id="a_node2"><a xlink:href="classhgps_1_1BaselineScenario.html" target="_top" xlink:title="Defines the baseline scenario data type.">
<polygon fill="none" stroke="black" points="132.5,-133.5 132.5,-152.5 262.5,-152.5 262.5,-133.5 132.5,-133.5"/>
<text text-anchor="middle" x="197.5" y="-140.5" font-family="Helvetica,sans-Serif" font-size="10.00">hgps::BaselineScenario</text>
</a>
</g>
</g>
<!-- Node1&#45;&gt;Node2 -->
<g id="edge1" class="edge">
<title>Node1&#45;&gt;Node2</title>
<path fill="none" stroke="midnightblue" d="M97.99,-130.65C109.12,-132.04 120.97,-133.53 132.45,-134.97"/>
<polygon fill="midnightblue" stroke="midnightblue" points="98.37,-127.17 88.01,-129.39 97.5,-134.11 98.37,-127.17"/>
</g>
<!-- Node3 -->
<g id="node3" class="node">
<title>Node3</title>
<g id="a_node3"><a xlink:href="classhgps_1_1InterventionScenario.html" target="_top" xlink:title="Health&#45;GPS scripted intervention policy scenario interface.">
<polygon fill="none" stroke="black" points="124,-95.5 124,-114.5 271,-114.5 271,-95.5 124,-95.5"/>
<text text-anchor="middle" x="197.5" y="-102.5" font-family="Helvetica,sans-Serif" font-size="10.00">hgps::InterventionScenario</text>
</a>
</g>
</g>
<!-- Node1&#45;&gt;Node3 -->
<g id="edge2" class="edge">
<title>Node1&#45;&gt;Node3</title>
<path fill="none" stroke="midnightblue" d="M97.98,-117.36C106.35,-116.31 115.13,-115.2 123.86,-114.11"/>
<polygon fill="midnightblue" stroke="midnightblue" points="97.5,-113.89 88.01,-118.61 98.37,-120.83 97.5,-113.89"/>
</g>
<!-- Node4 -->
<g id="node4" class="node">
<title>Node4</title>
<g id="a_node4"><a xlink:href="classhgps_1_1DynamicInterventionScenario.html" target="_top" xlink:title="Health&#45;GPS dynamic intervention policy scenario interface.">
<polygon fill="none" stroke="black" points="315.5,-191 315.5,-221 464.5,-221 464.5,-191 315.5,-191"/>
<text text-anchor="start" x="323.5" y="-209" font-family="Helvetica,sans-Serif" font-size="10.00">hgps::DynamicIntervention</text>
<text text-anchor="middle" x="390" y="-198" font-family="Helvetica,sans-Serif" font-size="10.00">Scenario</text>
</a>
</g>
</g>
<!-- Node3&#45;&gt;Node4 -->
<g id="edge3" class="edge">
<title>Node3&#45;&gt;Node4</title>
<path fill="none" stroke="midnightblue" d="M262.92,-118.94C265.75,-120.46 268.46,-122.14 271,-124 295.18,-141.7 283.18,-162.83 307,-181 312.09,-184.88 317.78,-188.16 323.73,-190.94"/>
<polygon fill="midnightblue" stroke="midnightblue" points="264.13,-115.65 253.59,-114.64 261.2,-122.01 264.13,-115.65"/>
</g>
<!-- Node6 -->
<g id="node6" class="node">
<title>Node6</title>
<g id="a_node6"><a xlink:href="classhgps_1_1FiscalPolicyScenario.html" target="_top" xlink:title="Implements the fiscal policy intervention scenario.">
<polygon fill="none" stroke="black" points="317.5,-152.5 317.5,-171.5 462.5,-171.5 462.5,-152.5 317.5,-152.5"/>
<text text-anchor="middle" x="390" y="-159.5" font-family="Helvetica,sans-Serif" font-size="10.00">hgps::FiscalPolicyScenario</text>
</a>
</g>
</g>
<!-- Node3&#45;&gt;Node6 -->
<g id="edge5" class="edge">
<title>Node3&#45;&gt;Node6</title>
<path fill="none" stroke="midnightblue" d="M251.33,-117.32C258.03,-119.33 264.73,-121.56 271,-124 287.86,-130.56 290.05,-136.68 307,-143 317,-146.72 327.96,-149.87 338.53,-152.46"/>
<polygon fill="midnightblue" stroke="midnightblue" points="252.15,-113.92 241.57,-114.55 250.23,-120.65 252.15,-113.92"/>
</g>
<!-- Node7 -->
<g id="node7" class="node">
<title>Node7</title>
<g id="a_node7"><a xlink:href="classhgps_1_1FoodLabellingScenario.html" target="_top" xlink:title="Implements the food labelling intervention scenario.">
<polygon fill="none" stroke="black" points="312.5,-114.5 312.5,-133.5 467.5,-133.5 467.5,-114.5 312.5,-114.5"/>
<text text-anchor="middle" x="390" y="-121.5" font-family="Helvetica,sans-Serif" font-size="10.00">hgps::FoodLabellingScenario</text>
</a>
</g>
</g>
<!-- Node3&#45;&gt;Node7 -->
<g id="edge6" class="edge">
<title>Node3&#45;&gt;Node7</title>
<path fill="none" stroke="midnightblue" d="M281.26,-113.25C291.54,-114.28 302.02,-115.32 312.2,-116.34"/>
<polygon fill="midnightblue" stroke="midnightblue" points="281.36,-109.75 271.06,-112.24 280.67,-116.71 281.36,-109.75"/>
</g>
<!-- Node8 -->
<g id="node8" class="node">
<title>Node8</title>
<g id="a_node8"><a xlink:href="classhgps_1_1MarketingPolicyScenario.html" target="_top" xlink:title="Implements the marketing regulation intervention scenario.">
<polygon fill="none" stroke="black" points="307,-76.5 307,-95.5 473,-95.5 473,-76.5 307,-76.5"/>
<text text-anchor="middle" x="390" y="-83.5" font-family="Helvetica,sans-Serif" font-size="10.00">hgps::MarketingPolicyScenario</text>
</a>
</g>
</g>
<!-- Node3&#45;&gt;Node8 -->
<g id="edge7" class="edge">
<title>Node3&#45;&gt;Node8</title>
<path fill="none" stroke="midnightblue" d="M281.29,-96.74C289.74,-95.9 298.32,-95.04 306.77,-94.2"/>
<polygon fill="midnightblue" stroke="midnightblue" points="280.67,-93.29 271.06,-97.76 281.36,-100.25 280.67,-93.29"/>
</g>
<!-- Node9 -->
<g id="node9" class="node">
<title>Node9</title>
<g id="a_node9"><a xlink:href="classhgps_1_1PhysicalActivityScenario.html" target="_top" xlink:title="Implements the physical activity regulation intervention scenario.">
<polygon fill="none" stroke="black" points="307,-38.5 307,-57.5 473,-57.5 473,-38.5 307,-38.5"/>
<text text-anchor="middle" x="390" y="-45.5" font-family="Helvetica,sans-Serif" font-size="10.00">hgps::PhysicalActivityScenario</text>
</a>
</g>
</g>
<!-- Node3&#45;&gt;Node9 -->
<g id="edge8" class="edge">
<title>Node3&#45;&gt;Node9</title>
<path fill="none" stroke="midnightblue" d="M232.78,-91.92C253.97,-84.1 281.85,-74.3 307,-67 318.79,-63.58 331.67,-60.36 343.66,-57.57"/>
<polygon fill="midnightblue" stroke="midnightblue" points="231.4,-88.7 223.25,-95.47 233.84,-95.26 231.4,-88.7"/>
</g>
<!-- Node10 -->
<g id="node10" class="node">
<title>Node10</title>
<g id="a_node10"><a xlink:href="classhgps_1_1SimplePolicyScenario.html" target="_top" xlink:title="Defines the simple development intervention scenario.">
<polygon fill="none" stroke="black" points="314.5,-0.5 314.5,-19.5 465.5,-19.5 465.5,-0.5 314.5,-0.5"/>
<text text-anchor="middle" x="390" y="-7.5" font-family="Helvetica,sans-Serif" font-size="10.00">hgps::SimplePolicyScenario</text>
</a>
</g>
</g>
<!-- Node3&#45;&gt;Node10 -->
<g id="edge9" class="edge">
<title>Node3&#45;&gt;Node10</title>
<path fill="none" stroke="midnightblue" d="M216.66,-88.95C237.19,-71.63 272.29,-44.47 307,-29 315.54,-25.19 324.94,-22.1 334.23,-19.61"/>
<polygon fill="midnightblue" stroke="midnightblue" points="214.35,-86.32 209.04,-95.49 218.91,-91.63 214.35,-86.32"/>
</g>
<!-- Node5 -->
<g id="node5" class="node">
<title>Node5</title>
<g id="a_node5"><a xlink:href="classhgps_1_1MarketingDynamicScenario.html" target="_top" xlink:title="Implements the dynamic marketing regulation intervention scenario.">
<polygon fill="none" stroke="black" points="509,-196.5 509,-215.5 689,-215.5 689,-196.5 509,-196.5"/>
<text text-anchor="middle" x="599" y="-203.5" font-family="Helvetica,sans-Serif" font-size="10.00">hgps::MarketingDynamicScenario</text>
</a>
</g>
</g>
<!-- Node4&#45;&gt;Node5 -->
<g id="edge4" class="edge">
<title>Node4&#45;&gt;Node5</title>
<path fill="none" stroke="midnightblue" d="M474.73,-206C485.93,-206 497.44,-206 508.72,-206"/>
<polygon fill="midnightblue" stroke="midnightblue" points="474.56,-202.5 464.56,-206 474.56,-209.5 474.56,-202.5"/>
</g>
</g>
</svg>
