<?xml version="1.0" encoding="UTF-8" standalone="no"?>
<!DOCTYPE svg PUBLIC "-//W3C//DTD SVG 1.1//EN"
 "http://www.w3.org/Graphics/SVG/1.1/DTD/svg11.dtd">
<!-- Generated by graphviz version 7.0.6 (20230106.0513)
 -->
<!-- Title: hgps::RuntimeContext::random Pages: 1 -->
<svg width="292pt" height="182pt"
 viewBox="0.00 0.00 292.00 182.00" xmlns="http://www.w3.org/2000/svg" xmlns:xlink="http://www.w3.org/1999/xlink">
<g id="graph0" class="graph" transform="scale(1 1) rotate(0) translate(4 178)">
<title>hgps::RuntimeContext::random</title>
<!-- Node1 -->
<g id="node1" class="node">
<title>Node1</title>
<g id="a_node1"><a xlink:title=" ">
<polygon fill="#999999" stroke="#666666" points="284,-102 171,-102 171,-72 284,-72 284,-102"/>
<text text-anchor="start" x="179" y="-90" font-family="Helvetica,sans-Serif" font-size="10.00">hgps::RuntimeContext</text>
<text text-anchor="middle" x="227.5" y="-79" font-family="Helvetica,sans-Serif" font-size="10.00">::random</text>
</a>
</g>
</g>
<!-- Node2 -->
<g id="node2" class="node">
<title>Node2</title>
<g id="a_node2"><a xlink:href="classhgps_1_1_default_cancer_model.html#a59790779c6af498fed3df81b168cd504" target="_top" xlink:title="Initialises the population disease status.">
<polygon fill="white" stroke="#666666" points="133,-174 2,-174 2,-144 133,-144 133,-174"/>
<text text-anchor="start" x="10" y="-162" font-family="Helvetica,sans-Serif" font-size="10.00">hgps::DefaultCancerModel</text>
<text text-anchor="middle" x="67.5" y="-151" font-family="Helvetica,sans-Serif" font-size="10.00">::initialise_disease_status</text>
</a>
</g>
</g>
<!-- Node1&#45;&gt;Node2 -->
<g id="edge1" class="edge">
<title>Node1&#45;&gt;Node2</title>
<path fill="none" stroke="#63b8ff" d="M189.58,-107.84C173.13,-116.74 153.35,-126.92 135,-135 128.26,-137.97 121.03,-140.86 113.9,-143.56"/>
<polygon fill="#63b8ff" stroke="#63b8ff" points="190.93,-111.09 198.03,-103.22 187.57,-104.95 190.93,-111.09"/>
</g>
<!-- Node3 -->
<g id="node3" class="node">
<title>Node3</title>
<g id="a_node3"><a xlink:href="classhgps_1_1_default_disease_model.html#a2b8381459ae01f7ebf9b6023f1ad38db" target="_top" xlink:title="Initialises the population disease status.">
<polygon fill="white" stroke="#666666" points="135,-126 0,-126 0,-96 135,-96 135,-126"/>
<text text-anchor="start" x="8" y="-114" font-family="Helvetica,sans-Serif" font-size="10.00">hgps::DefaultDiseaseModel</text>
<text text-anchor="middle" x="67.5" y="-103" font-family="Helvetica,sans-Serif" font-size="10.00">::initialise_disease_status</text>
</a>
</g>
</g>
<!-- Node1&#45;&gt;Node3 -->
<g id="edge2" class="edge">
<title>Node1&#45;&gt;Node3</title>
<path fill="none" stroke="#63b8ff" d="M159.6,-97.16C151.57,-98.38 143.37,-99.63 135.35,-100.85"/>
<polygon fill="#63b8ff" stroke="#63b8ff" points="159.94,-100.65 169.3,-95.69 158.89,-93.73 159.94,-100.65"/>
</g>
<!-- Node4 -->
<g id="node4" class="node">
<title>Node4</title>
<g id="a_node4"><a xlink:href="classhgps_1_1_s_e_s_noise_module.html#ae0a5e4a940571744b83d420bcb5f99b1" target="_top" xlink:title="Initialises the virtual population.">
<polygon fill="white" stroke="#666666" points="127.5,-78 7.5,-78 7.5,-48 127.5,-48 127.5,-78"/>
<text text-anchor="start" x="15.5" y="-66" font-family="Helvetica,sans-Serif" font-size="10.00">hgps::SESNoiseModule</text>
<text text-anchor="middle" x="67.5" y="-55" font-family="Helvetica,sans-Serif" font-size="10.00">::initialise_population</text>
</a>
</g>
</g>
<!-- Node1&#45;&gt;Node4 -->
<g id="edge3" class="edge">
<title>Node1&#45;&gt;Node4</title>
<path fill="none" stroke="#63b8ff" d="M159.56,-76.83C149.08,-75.24 138.3,-73.6 127.99,-72.04"/>
<polygon fill="#63b8ff" stroke="#63b8ff" points="158.89,-80.27 169.3,-78.31 159.94,-73.35 158.89,-80.27"/>
</g>
<!-- Node5 -->
<g id="node5" class="node">
<title>Node5</title>
<g id="a_node5"><a xlink:href="classhgps_1_1_s_e_s_noise_module.html#ad24d0002d518f941159a9873fe918c44" target="_top" xlink:title="Updates the virtual population status.">
<polygon fill="white" stroke="#666666" points="127.5,-30 7.5,-30 7.5,0 127.5,0 127.5,-30"/>
<text text-anchor="start" x="15.5" y="-18" font-family="Helvetica,sans-Serif" font-size="10.00">hgps::SESNoiseModule</text>
<text text-anchor="middle" x="67.5" y="-7" font-family="Helvetica,sans-Serif" font-size="10.00">::update_population</text>
</a>
</g>
</g>
<!-- Node1&#45;&gt;Node5 -->
<g id="edge4" class="edge">
<title>Node1&#45;&gt;Node5</title>
<path fill="none" stroke="#63b8ff" d="M189.58,-66.16C173.13,-57.26 153.35,-47.08 135,-39 128.26,-36.03 121.03,-33.14 113.9,-30.44"/>
<polygon fill="#63b8ff" stroke="#63b8ff" points="187.57,-69.05 198.03,-70.78 190.93,-62.91 187.57,-69.05"/>
</g>
</g>
</svg>
