<?xml version="1.0" encoding="UTF-8" standalone="no"?>
<!DOCTYPE svg PUBLIC "-//W3C//DTD SVG 1.1//EN"
 "http://www.w3.org/Graphics/SVG/1.1/DTD/svg11.dtd">
<!-- Generated by graphviz version 2.43.0 (0)
 -->
<!-- Title: hgps::core::Array2D::size Pages: 1 -->
<svg width="299pt" height="88pt"
 viewBox="0.00 0.00 299.00 88.00" xmlns="http://www.w3.org/2000/svg" xmlns:xlink="http://www.w3.org/1999/xlink">
<g id="graph0" class="graph" transform="scale(1 1) rotate(0) translate(4 84)">
<title>hgps::core::Array2D::size</title>
<!-- Node1 -->
<g id="node1" class="node">
<title>Node1</title>
<g id="a_node1"><a xlink:title="Gets the total size of the array storage.">
<polygon fill="#bfbfbf" stroke="black" points="178,-24.5 178,-54.5 291,-54.5 291,-24.5 178,-24.5"/>
<text text-anchor="start" x="186" y="-42.5" font-family="Helvetica,sans-Serif" font-size="10.00">hgps::core::Array2D</text>
<text text-anchor="middle" x="234.5" y="-31.5" font-family="Helvetica,sans-Serif" font-size="10.00">::size</text>
</a>
</g>
</g>
<!-- Node2 -->
<g id="node2" class="node">
<title>Node2</title>
<g id="a_node2"><a xlink:href="classhgps_1_1core_1_1Array2D.html#a49261b25bf0aaa8e34e078be131f2a7d" target="_top" xlink:title="Initialises new instance of the Array2D class with custom values.">
<polygon fill="none" stroke="black" points="14.5,-49.5 14.5,-79.5 127.5,-79.5 127.5,-49.5 14.5,-49.5"/>
<text text-anchor="start" x="22.5" y="-67.5" font-family="Helvetica,sans-Serif" font-size="10.00">hgps::core::Array2D</text>
<text text-anchor="middle" x="71" y="-56.5" font-family="Helvetica,sans-Serif" font-size="10.00">::Array2D</text>
</a>
</g>
</g>
<!-- Node1&#45;&gt;Node2 -->
<g id="edge1" class="edge">
<title>Node1&#45;&gt;Node2</title>
<path fill="none" stroke="midnightblue" d="M167.86,-49.66C154.53,-51.72 140.63,-53.88 127.68,-55.88"/>
<polygon fill="midnightblue" stroke="midnightblue" points="168.57,-53.09 177.92,-48.1 167.5,-46.17 168.57,-53.09"/>
</g>
<!-- Node3 -->
<g id="node3" class="node">
<title>Node3</title>
<g id="a_node3"><a xlink:href="classhgps_1_1RelativeRiskLookup.html#a133b99eadd726ce9d4e774e977f78581" target="_top" xlink:title="Gets the number of elements in the lookup dataset.">
<polygon fill="none" stroke="black" points="0,-0.5 0,-30.5 142,-30.5 142,-0.5 0,-0.5"/>
<text text-anchor="start" x="8" y="-18.5" font-family="Helvetica,sans-Serif" font-size="10.00">hgps::RelativeRiskLookup</text>
<text text-anchor="middle" x="71" y="-7.5" font-family="Helvetica,sans-Serif" font-size="10.00">::size</text>
</a>
</g>
</g>
<!-- Node1&#45;&gt;Node3 -->
<g id="edge2" class="edge">
<title>Node1&#45;&gt;Node3</title>
<path fill="none" stroke="midnightblue" d="M167.79,-29.73C159.37,-28.48 150.72,-27.2 142.23,-25.94"/>
<polygon fill="midnightblue" stroke="midnightblue" points="167.51,-33.23 177.92,-31.24 168.54,-26.31 167.51,-33.23"/>
</g>
</g>
</svg>
