<?xml version="1.0" encoding="UTF-8" standalone="no"?>
<!DOCTYPE svg PUBLIC "-//W3C//DTD SVG 1.1//EN"
 "http://www.w3.org/Graphics/SVG/1.1/DTD/svg11.dtd">
<!-- Generated by graphviz version 7.0.6 (20230106.0513)
 -->
<!-- Title: hgps::core::UnivariateSummary::to_string Pages: 1 -->
<svg width="749pt" height="601pt"
 viewBox="0.00 0.00 749.00 600.50" xmlns="http://www.w3.org/2000/svg" xmlns:xlink="http://www.w3.org/1999/xlink">
<g id="graph0" class="graph" transform="scale(1 1) rotate(0) translate(4 596.5)">
<title>hgps::core::UnivariateSummary::to_string</title>
<!-- Node1 -->
<g id="node1" class="node">
<title>Node1</title>
<g id="a_node1"><a xlink:title=" ">
<polygon fill="#999999" stroke="#666666" points="152,-320.5 0,-320.5 0,-290.5 152,-290.5 152,-320.5"/>
<text text-anchor="start" x="8" y="-308.5" font-family="Helvetica,sans-Serif" font-size="10.00">hgps::core::UnivariateSummary</text>
<text text-anchor="middle" x="76" y="-297.5" font-family="Helvetica,sans-Serif" font-size="10.00">::to_string</text>
</a>
</g>
</g>
<!-- Node2 -->
<g id="node2" class="node">
<title>Node2</title>
<g id="a_node2"><a xlink:href="classhgps_1_1core_1_1_univariate_summary.html#a482f522093e26eba6bf0170ab036307f" target="_top" xlink:title=" ">
<polygon fill="white" stroke="#666666" points="352.5,-592.5 200.5,-592.5 200.5,-562.5 352.5,-562.5 352.5,-592.5"/>
<text text-anchor="start" x="208.5" y="-580.5" font-family="Helvetica,sans-Serif" font-size="10.00">hgps::core::UnivariateSummary</text>
<text text-anchor="middle" x="276.5" y="-569.5" font-family="Helvetica,sans-Serif" font-size="10.00">::average</text>
</a>
</g>
</g>
<!-- Node1&#45;&gt;Node2 -->
<g id="edge1" class="edge">
<title>Node1&#45;&gt;Node2</title>
<path fill="none" stroke="#63b8ff" d="M79.61,-320.82C87.66,-363.35 116.01,-483.93 188,-548.5 191.48,-551.63 195.32,-554.42 199.37,-556.91"/>
<polygon fill="#63b8ff" stroke="#63b8ff" points="197.37,-559.81 207.83,-561.47 200.69,-553.64 197.37,-559.81"/>
</g>
<!-- Node3 -->
<g id="node3" class="node">
<title>Node3</title>
<g id="a_node3"><a xlink:href="classhgps_1_1core_1_1_univariate_summary.html#ad6666baff8ce41a1d743c62165c98ee2" target="_top" xlink:title=" ">
<polygon fill="white" stroke="#666666" points="553,-547.5 401,-547.5 401,-517.5 553,-517.5 553,-547.5"/>
<text text-anchor="start" x="409" y="-535.5" font-family="Helvetica,sans-Serif" font-size="10.00">hgps::core::UnivariateSummary</text>
<text text-anchor="middle" x="477" y="-524.5" font-family="Helvetica,sans-Serif" font-size="10.00">::count_null</text>
</a>
</g>
</g>
<!-- Node1&#45;&gt;Node3 -->
<g id="edge2" class="edge">
<title>Node1&#45;&gt;Node3</title>
<path fill="none" stroke="#63b8ff" d="M79.81,-320.85C88.08,-361.04 116.39,-469.42 188,-515.5 247.28,-553.64 328.43,-554.99 389.48,-548.46"/>
<polygon fill="#63b8ff" stroke="#63b8ff" points="389.6,-551.97 399.13,-547.33 388.79,-545.02 389.6,-551.97"/>
</g>
<!-- Node4 -->
<g id="node4" class="node">
<title>Node4</title>
<g id="a_node4"><a xlink:href="classhgps_1_1core_1_1_univariate_summary.html#a728329f04594446f26ab3c3cdab552ec" target="_top" xlink:title=" ">
<polygon fill="white" stroke="#666666" points="352.5,-506.5 200.5,-506.5 200.5,-476.5 352.5,-476.5 352.5,-506.5"/>
<text text-anchor="start" x="208.5" y="-494.5" font-family="Helvetica,sans-Serif" font-size="10.00">hgps::core::UnivariateSummary</text>
<text text-anchor="middle" x="276.5" y="-483.5" font-family="Helvetica,sans-Serif" font-size="10.00">::count_total</text>
</a>
</g>
</g>
<!-- Node1&#45;&gt;Node4 -->
<g id="edge3" class="edge">
<title>Node1&#45;&gt;Node4</title>
<path fill="none" stroke="#63b8ff" d="M83.77,-320.91C98.29,-352.21 135.43,-423.55 188,-462.5 192.35,-465.72 197.08,-468.6 202.01,-471.17"/>
<polygon fill="#63b8ff" stroke="#63b8ff" points="200.46,-474.31 211,-475.38 203.42,-467.97 200.46,-474.31"/>
</g>
<!-- Node5 -->
<g id="node5" class="node">
<title>Node5</title>
<g id="a_node5"><a xlink:href="classhgps_1_1core_1_1_univariate_summary.html#a0d9ff342a85afcc337e930c0f7487e05" target="_top" xlink:title=" ">
<polygon fill="white" stroke="#666666" points="741,-463.5 589,-463.5 589,-433.5 741,-433.5 741,-463.5"/>
<text text-anchor="start" x="597" y="-451.5" font-family="Helvetica,sans-Serif" font-size="10.00">hgps::core::UnivariateSummary</text>
<text text-anchor="middle" x="665" y="-440.5" font-family="Helvetica,sans-Serif" font-size="10.00">::count_valid</text>
</a>
</g>
</g>
<!-- Node1&#45;&gt;Node5 -->
<g id="edge6" class="edge">
<title>Node1&#45;&gt;Node5</title>
<path fill="none" stroke="#63b8ff" d="M85.18,-320.87C100.86,-348.53 138.08,-405.98 188,-429.5 254.68,-460.91 459.28,-457.79 577.4,-453"/>
<polygon fill="#63b8ff" stroke="#63b8ff" points="577.2,-456.51 587.04,-452.6 576.91,-449.52 577.2,-456.51"/>
</g>
<!-- Node6 -->
<g id="node6" class="node">
<title>Node6</title>
<g id="a_node6"><a xlink:href="classhgps_1_1core_1_1_univariate_summary.html#a60b5e4a3172619b5880c222b7d9ad8ee" target="_top" xlink:title=" ">
<polygon fill="white" stroke="#666666" points="352.5,-420.5 200.5,-420.5 200.5,-390.5 352.5,-390.5 352.5,-420.5"/>
<text text-anchor="start" x="208.5" y="-408.5" font-family="Helvetica,sans-Serif" font-size="10.00">hgps::core::UnivariateSummary</text>
<text text-anchor="middle" x="276.5" y="-397.5" font-family="Helvetica,sans-Serif" font-size="10.00">::kurtosis</text>
</a>
</g>
</g>
<!-- Node1&#45;&gt;Node6 -->
<g id="edge7" class="edge">
<title>Node1&#45;&gt;Node6</title>
<path fill="none" stroke="#63b8ff" d="M97.37,-320.74C118.98,-336.36 154.54,-360.56 188,-376.5 195.35,-380 203.24,-383.26 211.15,-386.22"/>
<polygon fill="#63b8ff" stroke="#63b8ff" points="209.9,-389.49 220.49,-389.58 212.27,-382.91 209.9,-389.49"/>
</g>
<!-- Node7 -->
<g id="node7" class="node">
<title>Node7</title>
<g id="a_node7"><a xlink:href="classhgps_1_1core_1_1_univariate_summary.html#a0be60fa3713183e9943d1e694b12a731" target="_top" xlink:title=" ">
<polygon fill="white" stroke="#666666" points="553,-270.5 401,-270.5 401,-240.5 553,-240.5 553,-270.5"/>
<text text-anchor="start" x="409" y="-258.5" font-family="Helvetica,sans-Serif" font-size="10.00">hgps::core::UnivariateSummary</text>
<text text-anchor="middle" x="477" y="-247.5" font-family="Helvetica,sans-Serif" font-size="10.00">::variance</text>
</a>
</g>
</g>
<!-- Node1&#45;&gt;Node7 -->
<g id="edge21" class="edge">
<title>Node1&#45;&gt;Node7</title>
<path fill="none" stroke="#63b8ff" d="M114.01,-320.93C169.92,-341.92 278.56,-373.61 365,-343.5 401.54,-330.77 435.09,-300.45 455.52,-278.97"/>
<polygon fill="#63b8ff" stroke="#63b8ff" points="457.96,-281.5 462.17,-271.78 452.81,-276.75 457.96,-281.5"/>
</g>
<!-- Node8 -->
<g id="node8" class="node">
<title>Node8</title>
<g id="a_node8"><a xlink:href="classhgps_1_1core_1_1_univariate_summary.html#a422a788556375204cd85f43542353e7c" target="_top" xlink:title=" ">
<polygon fill="white" stroke="#666666" points="365,-334 188,-334 188,-315 365,-315 365,-334"/>
<text text-anchor="middle" x="276.5" y="-322" font-family="Helvetica,sans-Serif" font-size="10.00">hgps::core::UnivariateSummary::max</text>
</a>
</g>
</g>
<!-- Node1&#45;&gt;Node8 -->
<g id="edge10" class="edge">
<title>Node1&#45;&gt;Node8</title>
<path fill="none" stroke="#63b8ff" d="M152.33,-312.71C160.15,-313.46 168.19,-314.23 176.23,-315"/>
<polygon fill="#63b8ff" stroke="#63b8ff" points="175.78,-318.47 186.07,-315.94 176.45,-311.5 175.78,-318.47"/>
</g>
<!-- Node9 -->
<g id="node9" class="node">
<title>Node9</title>
<g id="a_node9"><a xlink:href="classhgps_1_1core_1_1_univariate_summary.html#afa2b6434a0a6490fac3fd898fd39a460" target="_top" xlink:title=" ">
<polygon fill="white" stroke="#666666" points="363.5,-297 189.5,-297 189.5,-278 363.5,-278 363.5,-297"/>
<text text-anchor="middle" x="276.5" y="-285" font-family="Helvetica,sans-Serif" font-size="10.00">hgps::core::UnivariateSummary::min</text>
</a>
</g>
</g>
<!-- Node1&#45;&gt;Node9 -->
<g id="edge11" class="edge">
<title>Node1&#45;&gt;Node9</title>
<path fill="none" stroke="#63b8ff" d="M152.33,-298.67C160.72,-297.91 169.35,-297.13 177.96,-296.34"/>
<polygon fill="#63b8ff" stroke="#63b8ff" points="178.1,-299.85 187.75,-295.46 177.47,-292.88 178.1,-299.85"/>
</g>
<!-- Node10 -->
<g id="node10" class="node">
<title>Node10</title>
<g id="a_node10"><a xlink:href="classhgps_1_1core_1_1_univariate_summary.html#ac0be132b598f7e3054c3f3e78e6a4461" target="_top" xlink:title=" ">
<polygon fill="white" stroke="#666666" points="352.5,-259.5 200.5,-259.5 200.5,-229.5 352.5,-229.5 352.5,-259.5"/>
<text text-anchor="start" x="208.5" y="-247.5" font-family="Helvetica,sans-Serif" font-size="10.00">hgps::core::UnivariateSummary</text>
<text text-anchor="middle" x="276.5" y="-236.5" font-family="Helvetica,sans-Serif" font-size="10.00">::name</text>
</a>
</g>
</g>
<!-- Node1&#45;&gt;Node10 -->
<g id="edge12" class="edge">
<title>Node1&#45;&gt;Node10</title>
<path fill="none" stroke="#63b8ff" d="M123.33,-290.07C143.19,-283.56 166.68,-276 188,-269.5 194.92,-267.39 202.17,-265.23 209.41,-263.11"/>
<polygon fill="#63b8ff" stroke="#63b8ff" points="210.25,-266.51 218.88,-260.36 208.3,-259.79 210.25,-266.51"/>
</g>
<!-- Node11 -->
<g id="node11" class="node">
<title>Node11</title>
<g id="a_node11"><a xlink:href="classhgps_1_1core_1_1_univariate_summary.html#a4f128e8f9887dccd4d6d87752340cffc" target="_top" xlink:title=" ">
<polygon fill="white" stroke="#666666" points="352.5,-211.5 200.5,-211.5 200.5,-181.5 352.5,-181.5 352.5,-211.5"/>
<text text-anchor="start" x="208.5" y="-199.5" font-family="Helvetica,sans-Serif" font-size="10.00">hgps::core::UnivariateSummary</text>
<text text-anchor="middle" x="276.5" y="-188.5" font-family="Helvetica,sans-Serif" font-size="10.00">::range</text>
</a>
</g>
</g>
<!-- Node1&#45;&gt;Node11 -->
<g id="edge13" class="edge">
<title>Node1&#45;&gt;Node11</title>
<path fill="none" stroke="#63b8ff" d="M92.93,-290.04C113.35,-271.05 150.6,-239.06 188,-220.5 191.25,-218.89 194.61,-217.37 198.06,-215.95"/>
<polygon fill="#63b8ff" stroke="#63b8ff" points="199.05,-219.32 207.15,-212.49 196.56,-212.78 199.05,-219.32"/>
</g>
<!-- Node12 -->
<g id="node12" class="node">
<title>Node12</title>
<g id="a_node12"><a xlink:href="classhgps_1_1core_1_1_univariate_summary.html#a39a6327c4a6b555454a41c233eb90242" target="_top" xlink:title=" ">
<polygon fill="white" stroke="#666666" points="352.5,-163.5 200.5,-163.5 200.5,-133.5 352.5,-133.5 352.5,-163.5"/>
<text text-anchor="start" x="208.5" y="-151.5" font-family="Helvetica,sans-Serif" font-size="10.00">hgps::core::UnivariateSummary</text>
<text text-anchor="middle" x="276.5" y="-140.5" font-family="Helvetica,sans-Serif" font-size="10.00">::skewness</text>
</a>
</g>
</g>
<!-- Node1&#45;&gt;Node12 -->
<g id="edge14" class="edge">
<title>Node1&#45;&gt;Node12</title>
<path fill="none" stroke="#63b8ff" d="M85.49,-290.14C101.68,-262.31 139.68,-203.57 188,-172.5 190.02,-171.2 192.11,-169.97 194.25,-168.81"/>
<polygon fill="#63b8ff" stroke="#63b8ff" points="195.75,-171.97 203.25,-164.49 192.72,-165.66 195.75,-171.97"/>
</g>
<!-- Node13 -->
<g id="node13" class="node">
<title>Node13</title>
<g id="a_node13"><a xlink:href="classhgps_1_1core_1_1_univariate_summary.html#a3d021888aae889b79fb9c9123f8b1d69" target="_top" xlink:title=" ">
<polygon fill="white" stroke="#666666" points="352.5,-115.5 200.5,-115.5 200.5,-85.5 352.5,-85.5 352.5,-115.5"/>
<text text-anchor="start" x="208.5" y="-103.5" font-family="Helvetica,sans-Serif" font-size="10.00">hgps::core::UnivariateSummary</text>
<text text-anchor="middle" x="276.5" y="-92.5" font-family="Helvetica,sans-Serif" font-size="10.00">::std_deviation</text>
</a>
</g>
</g>
<!-- Node1&#45;&gt;Node13 -->
<g id="edge16" class="edge">
<title>Node1&#45;&gt;Node13</title>
<path fill="none" stroke="#63b8ff" d="M81.97,-290.19C94.12,-255.2 128.76,-169 188,-124.5 189.52,-123.36 191.08,-122.28 192.69,-121.24"/>
<polygon fill="#63b8ff" stroke="#63b8ff" points="193.97,-124.54 200.99,-116.61 190.56,-118.43 193.97,-124.54"/>
</g>
<!-- Node14 -->
<g id="node14" class="node">
<title>Node14</title>
<g id="a_node14"><a xlink:href="classhgps_1_1core_1_1_univariate_summary.html#aa22f4d3eebe7a220290ae53521081599" target="_top" xlink:title=" ">
<polygon fill="white" stroke="#666666" points="352.5,-67.5 200.5,-67.5 200.5,-37.5 352.5,-37.5 352.5,-67.5"/>
<text text-anchor="start" x="208.5" y="-55.5" font-family="Helvetica,sans-Serif" font-size="10.00">hgps::core::UnivariateSummary</text>
<text text-anchor="middle" x="276.5" y="-44.5" font-family="Helvetica,sans-Serif" font-size="10.00">::std_error</text>
</a>
</g>
</g>
<!-- Node1&#45;&gt;Node14 -->
<g id="edge18" class="edge">
<title>Node1&#45;&gt;Node14</title>
<path fill="none" stroke="#63b8ff" d="M79.85,-290.27C88.36,-249.16 117.5,-135.11 188,-76.5 189.12,-75.57 190.28,-74.67 191.47,-73.8"/>
<polygon fill="#63b8ff" stroke="#63b8ff" points="193.14,-76.88 199.8,-68.64 189.46,-70.93 193.14,-76.88"/>
</g>
<!-- Node15 -->
<g id="node15" class="node">
<title>Node15</title>
<g id="a_node15"><a xlink:href="classhgps_1_1core_1_1_univariate_summary.html#ac1bf1e5761dcf88f1b3c856722df9600" target="_top" xlink:title=" ">
<polygon fill="white" stroke="#666666" points="365,-19 188,-19 188,0 365,0 365,-19"/>
<text text-anchor="middle" x="276.5" y="-7" font-family="Helvetica,sans-Serif" font-size="10.00">hgps::core::UnivariateSummary::sum</text>
</a>
</g>
</g>
<!-- Node1&#45;&gt;Node15 -->
<g id="edge20" class="edge">
<title>Node1&#45;&gt;Node15</title>
<path fill="none" stroke="#63b8ff" d="M78.28,-290.05C83.04,-242.84 104.12,-99.4 188,-28.5 189.47,-27.26 191,-26.09 192.59,-25"/>
<polygon fill="#63b8ff" stroke="#63b8ff" points="193.94,-28.25 200.86,-20.23 190.45,-22.19 193.94,-28.25"/>
</g>
<!-- Node4&#45;&gt;Node3 -->
<g id="edge4" class="edge">
<title>Node4&#45;&gt;Node3</title>
<path fill="none" stroke="#63b8ff" d="M352.26,-506.94C364.59,-509.49 377.45,-512.14 390.02,-514.74"/>
<polygon fill="#63b8ff" stroke="#63b8ff" points="388.99,-518.1 399.49,-516.7 390.41,-511.25 388.99,-518.1"/>
</g>
<!-- Node4&#45;&gt;Node5 -->
<g id="edge5" class="edge">
<title>Node4&#45;&gt;Node5</title>
<path fill="none" stroke="#63b8ff" d="M352.97,-483.98C408.36,-478.36 485.4,-470.32 553,-462.5 560.96,-461.58 569.24,-460.59 577.52,-459.58"/>
<polygon fill="#63b8ff" stroke="#63b8ff" points="577.79,-463.08 587.29,-458.38 576.94,-456.13 577.79,-463.08"/>
</g>
<!-- Node6&#45;&gt;Node7 -->
<g id="edge8" class="edge">
<title>Node6&#45;&gt;Node7</title>
<path fill="none" stroke="#63b8ff" d="M337.74,-390.06C347.24,-386.37 356.67,-381.89 365,-376.5 404.86,-350.71 439.84,-307.26 459.41,-280.05"/>
<polygon fill="#63b8ff" stroke="#63b8ff" points="462.14,-282.25 465.04,-272.06 456.42,-278.22 462.14,-282.25"/>
</g>
<!-- Node7&#45;&gt;Node5 -->
<g id="edge9" class="edge">
<title>Node7&#45;&gt;Node5</title>
<path fill="none" stroke="#63b8ff" d="M492.91,-270.97C525.43,-304.72 602.94,-385.14 641.46,-425.11"/>
<polygon fill="#63b8ff" stroke="#63b8ff" points="638.77,-427.36 648.23,-432.14 643.81,-422.51 638.77,-427.36"/>
</g>
<!-- Node12&#45;&gt;Node7 -->
<g id="edge15" class="edge">
<title>Node12&#45;&gt;Node7</title>
<path fill="none" stroke="#63b8ff" d="M343.94,-163.87C351.19,-166.38 358.35,-169.25 365,-172.5 397.34,-188.32 429.8,-214 451.18,-232.61"/>
<polygon fill="#63b8ff" stroke="#63b8ff" points="448.7,-235.09 458.51,-239.1 453.34,-229.85 448.7,-235.09"/>
</g>
<!-- Node13&#45;&gt;Node7 -->
<g id="edge17" class="edge">
<title>Node13&#45;&gt;Node7</title>
<path fill="none" stroke="#63b8ff" d="M348.36,-115.88C354.19,-118.34 359.82,-121.2 365,-124.5 407.94,-151.89 443.01,-201.07 461.58,-230.76"/>
<polygon fill="#63b8ff" stroke="#63b8ff" points="458.47,-232.37 466.66,-239.08 464.44,-228.72 458.47,-232.37"/>
</g>
<!-- Node14&#45;&gt;Node7 -->
<g id="edge19" class="edge">
<title>Node14&#45;&gt;Node7</title>
<path fill="none" stroke="#63b8ff" d="M350.67,-67.9C355.74,-70.35 360.58,-73.2 365,-76.5 418.34,-116.36 451.96,-190.08 466.92,-229.32"/>
<polygon fill="#63b8ff" stroke="#63b8ff" points="463.63,-230.5 470.37,-238.68 470.2,-228.08 463.63,-230.5"/>
</g>
</g>
</svg>
