<?xml version="1.0" encoding="UTF-8" standalone="no"?>
<!DOCTYPE svg PUBLIC "-//W3C//DTD SVG 1.1//EN"
 "http://www.w3.org/Graphics/SVG/1.1/DTD/svg11.dtd">
<!-- Generated by graphviz version 7.0.6 (20230106.0513)
 -->
<!-- Title: hgps::EnergyBalanceHierarchicalModel::update_risk_factors Pages: 1 -->
<svg width="318pt" height="134pt"
 viewBox="0.00 0.00 318.00 134.00" xmlns="http://www.w3.org/2000/svg" xmlns:xlink="http://www.w3.org/1999/xlink">
<g id="graph0" class="graph" transform="scale(1 1) rotate(0) translate(4 130)">
<title>hgps::EnergyBalanceHierarchicalModel::update_risk_factors</title>
<!-- Node1 -->
<g id="node1" class="node">
<title>Node1</title>
<g id="a_node1"><a xlink:title="Update risk factors for population.">
<polygon fill="#999999" stroke="#666666" points="161,-78 0,-78 0,-48 161,-48 161,-78"/>
<text text-anchor="start" x="8" y="-66" font-family="Helvetica,sans-Serif" font-size="10.00">hgps::EnergyBalanceHierarchical</text>
<text text-anchor="middle" x="80.5" y="-55" font-family="Helvetica,sans-Serif" font-size="10.00">Model::update_risk_factors</text>
</a>
</g>
</g>
<!-- Node2 -->
<g id="node2" class="node">
<title>Node2</title>
<g id="a_node2"><a xlink:href="classhgps_1_1_runtime_context.html#a6b4e9897cf7892cafa62def6cb5cdfcf" target="_top" xlink:title=" ">
<polygon fill="white" stroke="#666666" points="310,-126 197,-126 197,-96 310,-96 310,-126"/>
<text text-anchor="start" x="205" y="-114" font-family="Helvetica,sans-Serif" font-size="10.00">hgps::RuntimeContext</text>
<text text-anchor="middle" x="253.5" y="-103" font-family="Helvetica,sans-Serif" font-size="10.00">::mapping</text>
</a>
</g>
</g>
<!-- Node1&#45;&gt;Node2 -->
<g id="edge1" class="edge">
<title>Node1&#45;&gt;Node2</title>
<path fill="none" stroke="#63b8ff" d="M136.55,-78.45C152.56,-82.95 170.22,-87.9 186.83,-92.57"/>
<polygon fill="#63b8ff" stroke="#63b8ff" points="185.53,-95.84 196.1,-95.17 187.42,-89.1 185.53,-95.84"/>
</g>
<!-- Node3 -->
<g id="node3" class="node">
<title>Node3</title>
<g id="a_node3"><a xlink:href="classhgps_1_1_runtime_context.html#a346d7fdd33294a4836c708b1073df653" target="_top" xlink:title=" ">
<polygon fill="white" stroke="#666666" points="310,-78 197,-78 197,-48 310,-48 310,-78"/>
<text text-anchor="start" x="205" y="-66" font-family="Helvetica,sans-Serif" font-size="10.00">hgps::RuntimeContext</text>
<text text-anchor="middle" x="253.5" y="-55" font-family="Helvetica,sans-Serif" font-size="10.00">::population</text>
</a>
</g>
</g>
<!-- Node1&#45;&gt;Node3 -->
<g id="edge2" class="edge">
<title>Node1&#45;&gt;Node3</title>
<path fill="none" stroke="#63b8ff" d="M161.49,-63C169.55,-63 177.68,-63 185.58,-63"/>
<polygon fill="#63b8ff" stroke="#63b8ff" points="185.45,-66.5 195.45,-63 185.45,-59.5 185.45,-66.5"/>
</g>
<!-- Node4 -->
<g id="node4" class="node">
<title>Node4</title>
<g id="a_node4"><a xlink:href="classhgps_1_1_runtime_context.html#a5eb9de9f095d934ababb9119d506b781" target="_top" xlink:title=" ">
<polygon fill="white" stroke="#666666" points="310,-30 197,-30 197,0 310,0 310,-30"/>
<text text-anchor="start" x="205" y="-18" font-family="Helvetica,sans-Serif" font-size="10.00">hgps::RuntimeContext</text>
<text text-anchor="middle" x="253.5" y="-7" font-family="Helvetica,sans-Serif" font-size="10.00">::time_now</text>
</a>
</g>
</g>
<!-- Node1&#45;&gt;Node4 -->
<g id="edge3" class="edge">
<title>Node1&#45;&gt;Node4</title>
<path fill="none" stroke="#63b8ff" d="M136.55,-47.55C152.56,-43.05 170.22,-38.1 186.83,-33.43"/>
<polygon fill="#63b8ff" stroke="#63b8ff" points="187.42,-36.9 196.1,-30.83 185.53,-30.16 187.42,-36.9"/>
</g>
</g>
</svg>
