<?xml version="1.0" encoding="UTF-8" standalone="no"?>
<!DOCTYPE svg PUBLIC "-//W3C//DTD SVG 1.1//EN"
 "http://www.w3.org/Graphics/SVG/1.1/DTD/svg11.dtd">
<!-- Generated by graphviz version 2.43.0 (0)
 -->
<!-- Title: hgps::Repository::manager Pages: 1 -->
<svg width="589pt" height="88pt"
 viewBox="0.00 0.00 589.00 88.00" xmlns="http://www.w3.org/2000/svg" xmlns:xlink="http://www.w3.org/1999/xlink">
<g id="graph0" class="graph" transform="scale(1 1) rotate(0) translate(4 84)">
<title>hgps::Repository::manager</title>
<!-- Node1 -->
<g id="node1" class="node">
<title>Node1</title>
<g id="a_node1"><a xlink:title=" ">
<polygon fill="#bfbfbf" stroke="black" points="434,-30 434,-49 581,-49 581,-30 434,-30"/>
<text text-anchor="middle" x="507.5" y="-37" font-family="Helvetica,sans-Serif" font-size="10.00">hgps::Repository::manager</text>
</a>
</g>
</g>
<!-- Node2 -->
<g id="node2" class="node">
<title>Node2</title>
<g id="a_node2"><a xlink:href="namespacehgps.html#a00f39dc81f9c78a17b520811df508289" target="_top" xlink:title=" ">
<polygon fill="none" stroke="black" points="276.5,-49.5 276.5,-79.5 392.5,-79.5 392.5,-49.5 276.5,-49.5"/>
<text text-anchor="start" x="284.5" y="-67.5" font-family="Helvetica,sans-Serif" font-size="10.00">hgps::build_analysis</text>
<text text-anchor="middle" x="334.5" y="-56.5" font-family="Helvetica,sans-Serif" font-size="10.00">_module</text>
</a>
</g>
</g>
<!-- Node1&#45;&gt;Node2 -->
<g id="edge1" class="edge">
<title>Node1&#45;&gt;Node2</title>
<path fill="none" stroke="midnightblue" d="M431.1,-50.52C418.18,-52.41 404.96,-54.34 392.62,-56.15"/>
<polygon fill="midnightblue" stroke="midnightblue" points="431.98,-53.93 441.36,-49.02 430.96,-47.01 431.98,-53.93"/>
</g>
<!-- Node5 -->
<g id="node5" class="node">
<title>Node5</title>
<g id="a_node5"><a xlink:href="namespacehgps.html#ad7d042f1937872f2f8b344915584a7a9" target="_top" xlink:title=" ">
<polygon fill="none" stroke="black" points="271,-0.5 271,-30.5 398,-30.5 398,-0.5 271,-0.5"/>
<text text-anchor="start" x="279" y="-18.5" font-family="Helvetica,sans-Serif" font-size="10.00">hgps::build_population</text>
<text text-anchor="middle" x="334.5" y="-7.5" font-family="Helvetica,sans-Serif" font-size="10.00">_module</text>
</a>
</g>
</g>
<!-- Node1&#45;&gt;Node5 -->
<g id="edge4" class="edge">
<title>Node1&#45;&gt;Node5</title>
<path fill="none" stroke="midnightblue" d="M428.35,-28.53C418.2,-27.11 407.92,-25.66 398.07,-24.28"/>
<polygon fill="midnightblue" stroke="midnightblue" points="428.04,-32.02 438.42,-29.95 429.01,-25.09 428.04,-32.02"/>
</g>
<!-- Node3 -->
<g id="node3" class="node">
<title>Node3</title>
<g id="a_node3"><a xlink:href="namespacehgps.html#aef8e3dcb57d8eabeb75baa00c53f6b98" target="_top" xlink:title="Create the default simulation modules factory for production usage.">
<polygon fill="none" stroke="black" points="77,-24.5 77,-54.5 235,-54.5 235,-24.5 77,-24.5"/>
<text text-anchor="start" x="85" y="-42.5" font-family="Helvetica,sans-Serif" font-size="10.00">hgps::get_default_simulation</text>
<text text-anchor="middle" x="156" y="-31.5" font-family="Helvetica,sans-Serif" font-size="10.00">_module_factory</text>
</a>
</g>
</g>
<!-- Node2&#45;&gt;Node3 -->
<g id="edge2" class="edge">
<title>Node2&#45;&gt;Node3</title>
<path fill="none" stroke="midnightblue" d="M266.21,-54.97C256.07,-53.53 245.54,-52.04 235.19,-50.58"/>
<polygon fill="midnightblue" stroke="midnightblue" points="265.8,-58.45 276.2,-56.38 266.79,-51.52 265.8,-58.45"/>
</g>
<!-- Node4 -->
<g id="node4" class="node">
<title>Node4</title>
<g id="a_node4"><a xlink:href="program_8cpp.html#a0ddf1224851353fc92bfbff6f499fa97" target="_top" xlink:title=" ">
<polygon fill="none" stroke="black" points="0,-30 0,-49 41,-49 41,-30 0,-30"/>
<text text-anchor="middle" x="20.5" y="-37" font-family="Helvetica,sans-Serif" font-size="10.00">main</text>
</a>
</g>
</g>
<!-- Node3&#45;&gt;Node4 -->
<g id="edge3" class="edge">
<title>Node3&#45;&gt;Node4</title>
<path fill="none" stroke="midnightblue" d="M66.88,-39.5C57.39,-39.5 48.55,-39.5 41.24,-39.5"/>
<polygon fill="midnightblue" stroke="midnightblue" points="66.96,-43 76.96,-39.5 66.96,-36 66.96,-43"/>
</g>
<!-- Node5&#45;&gt;Node3 -->
<g id="edge5" class="edge">
<title>Node5&#45;&gt;Node3</title>
<path fill="none" stroke="midnightblue" d="M260.67,-25.4C252.29,-26.54 243.72,-27.71 235.27,-28.86"/>
<polygon fill="midnightblue" stroke="midnightblue" points="261.34,-28.84 270.78,-24.03 260.4,-21.91 261.34,-28.84"/>
</g>
</g>
</svg>
