<?xml version="1.0" encoding="UTF-8" standalone="no"?>
<!DOCTYPE svg PUBLIC "-//W3C//DTD SVG 1.1//EN"
 "http://www.w3.org/Graphics/SVG/1.1/DTD/svg11.dtd">
<!-- Generated by graphviz version 2.43.0 (0)
 -->
<!-- Title: hgps::ModelInput::ses_definition Pages: 1 -->
<svg width="561pt" height="39pt"
 viewBox="0.00 0.00 561.00 39.00" xmlns="http://www.w3.org/2000/svg" xmlns:xlink="http://www.w3.org/1999/xlink">
<g id="graph0" class="graph" transform="scale(1 1) rotate(0) translate(4 35)">
<title>hgps::ModelInput::ses_definition</title>
<!-- Node1 -->
<g id="node1" class="node">
<title>Node1</title>
<g id="a_node1"><a xlink:title="Gets the Socio&#45;economic status (SES) model information.">
<polygon fill="#bfbfbf" stroke="black" points="430,-0.5 430,-30.5 553,-30.5 553,-0.5 430,-0.5"/>
<text text-anchor="start" x="438" y="-18.5" font-family="Helvetica,sans-Serif" font-size="10.00">hgps::ModelInput::ses</text>
<text text-anchor="middle" x="491.5" y="-7.5" font-family="Helvetica,sans-Serif" font-size="10.00">_definition</text>
</a>
</g>
</g>
<!-- Node2 -->
<g id="node2" class="node">
<title>Node2</title>
<g id="a_node2"><a xlink:href="namespacehgps.html#a5e12849e2055f3e1f5ffdaf234380e16" target="_top" xlink:title=" ">
<polygon fill="none" stroke="black" points="271,-0.5 271,-30.5 394,-30.5 394,-0.5 271,-0.5"/>
<text text-anchor="start" x="279" y="-18.5" font-family="Helvetica,sans-Serif" font-size="10.00">hgps::build_ses_noise</text>
<text text-anchor="middle" x="332.5" y="-7.5" font-family="Helvetica,sans-Serif" font-size="10.00">_module</text>
</a>
</g>
</g>
<!-- Node1&#45;&gt;Node2 -->
<g id="edge1" class="edge">
<title>Node1&#45;&gt;Node2</title>
<path fill="none" stroke="midnightblue" d="M419.79,-15.5C411.19,-15.5 402.47,-15.5 394.04,-15.5"/>
<polygon fill="midnightblue" stroke="midnightblue" points="419.8,-19 429.8,-15.5 419.8,-12 419.8,-19"/>
</g>
<!-- Node3 -->
<g id="node3" class="node">
<title>Node3</title>
<g id="a_node3"><a xlink:href="namespacehgps.html#aef8e3dcb57d8eabeb75baa00c53f6b98" target="_top" xlink:title="Create the default simulation modules factory for production usage.">
<polygon fill="none" stroke="black" points="77,-0.5 77,-30.5 235,-30.5 235,-0.5 77,-0.5"/>
<text text-anchor="start" x="85" y="-18.5" font-family="Helvetica,sans-Serif" font-size="10.00">hgps::get_default_simulation</text>
<text text-anchor="middle" x="156" y="-7.5" font-family="Helvetica,sans-Serif" font-size="10.00">_module_factory</text>
</a>
</g>
</g>
<!-- Node2&#45;&gt;Node3 -->
<g id="edge2" class="edge">
<title>Node2&#45;&gt;Node3</title>
<path fill="none" stroke="midnightblue" d="M260.82,-15.5C252.4,-15.5 243.77,-15.5 235.26,-15.5"/>
<polygon fill="midnightblue" stroke="midnightblue" points="260.96,-19 270.96,-15.5 260.96,-12 260.96,-19"/>
</g>
<!-- Node4 -->
<g id="node4" class="node">
<title>Node4</title>
<g id="a_node4"><a xlink:href="program_8cpp.html#a0ddf1224851353fc92bfbff6f499fa97" target="_top" xlink:title="Health&#45;GPS host application entry point.">
<polygon fill="none" stroke="black" points="0,-6 0,-25 41,-25 41,-6 0,-6"/>
<text text-anchor="middle" x="20.5" y="-13" font-family="Helvetica,sans-Serif" font-size="10.00">main</text>
</a>
</g>
</g>
<!-- Node3&#45;&gt;Node4 -->
<g id="edge3" class="edge">
<title>Node3&#45;&gt;Node4</title>
<path fill="none" stroke="midnightblue" d="M66.88,-15.5C57.39,-15.5 48.55,-15.5 41.24,-15.5"/>
<polygon fill="midnightblue" stroke="midnightblue" points="66.96,-19 76.96,-15.5 66.96,-12 66.96,-19"/>
</g>
</g>
</svg>
