<?xml version="1.0" encoding="UTF-8" standalone="no"?>
<!DOCTYPE svg PUBLIC "-//W3C//DTD SVG 1.1//EN"
 "http://www.w3.org/Graphics/SVG/1.1/DTD/svg11.dtd">
<!-- Generated by graphviz version 7.0.6 (20230106.0513)
 -->
<!-- Title: hgps::SESNoiseModule::update_population Pages: 1 -->
<svg width="428pt" height="200pt"
 viewBox="0.00 0.00 428.00 200.00" xmlns="http://www.w3.org/2000/svg" xmlns:xlink="http://www.w3.org/1999/xlink">
<g id="graph0" class="graph" transform="scale(1 1) rotate(0) translate(4 196)">
<title>hgps::SESNoiseModule::update_population</title>
<!-- Node1 -->
<g id="node1" class="node">
<title>Node1</title>
<g id="a_node1"><a xlink:title="Updates the virtual population status.">
<polygon fill="#999999" stroke="#666666" points="120,-102 0,-102 0,-72 120,-72 120,-102"/>
<text text-anchor="start" x="8" y="-90" font-family="Helvetica,sans-Serif" font-size="10.00">hgps::SESNoiseModule</text>
<text text-anchor="middle" x="60" y="-79" font-family="Helvetica,sans-Serif" font-size="10.00">::update_population</text>
</a>
</g>
</g>
<!-- Node2 -->
<g id="node2" class="node">
<title>Node2</title>
<g id="a_node2"><a xlink:href="namespacehgps_1_1core.html#a7f89b08ae3f9edbb57adaafce8bd9114" target="_top" xlink:title=" ">
<polygon fill="white" stroke="#666666" points="268.5,-192 156.5,-192 156.5,-162 268.5,-162 268.5,-192"/>
<text text-anchor="start" x="164.5" y="-180" font-family="Helvetica,sans-Serif" font-size="10.00">hgps::core::find_index</text>
<text text-anchor="middle" x="212.5" y="-169" font-family="Helvetica,sans-Serif" font-size="10.00">_of_all</text>
</a>
</g>
</g>
<!-- Node1&#45;&gt;Node2 -->
<g id="edge1" class="edge">
<title>Node1&#45;&gt;Node2</title>
<path fill="none" stroke="#63b8ff" d="M80.63,-102.37C99.33,-116.59 128.62,-137.77 156,-153 158.2,-154.22 160.47,-155.43 162.79,-156.61"/>
<polygon fill="#63b8ff" stroke="#63b8ff" points="161.21,-159.73 171.74,-160.93 164.25,-153.43 161.21,-159.73"/>
</g>
<!-- Node4 -->
<g id="node4" class="node">
<title>Node4</title>
<g id="a_node4"><a xlink:href="classhgps_1_1_random.html#a9c026da3d83e79853e86b97381a6f772" target="_top" xlink:title=" ">
<polygon fill="white" stroke="#666666" points="264.5,-126 160.5,-126 160.5,-96 264.5,-96 264.5,-126"/>
<text text-anchor="start" x="168.5" y="-114" font-family="Helvetica,sans-Serif" font-size="10.00">hgps::Random::next</text>
<text text-anchor="middle" x="212.5" y="-103" font-family="Helvetica,sans-Serif" font-size="10.00">_normal</text>
</a>
</g>
</g>
<!-- Node1&#45;&gt;Node4 -->
<g id="edge3" class="edge">
<title>Node1&#45;&gt;Node4</title>
<path fill="none" stroke="#63b8ff" d="M120.48,-96.49C129.83,-97.98 139.51,-99.52 148.93,-101.02"/>
<polygon fill="#63b8ff" stroke="#63b8ff" points="148.31,-104.47 158.74,-102.59 149.41,-97.55 148.31,-104.47"/>
</g>
<!-- Node5 -->
<g id="node5" class="node">
<title>Node5</title>
<g id="a_node5"><a xlink:href="classhgps_1_1_runtime_context.html#a346d7fdd33294a4836c708b1073df653" target="_top" xlink:title=" ">
<polygon fill="white" stroke="#666666" points="269,-78 156,-78 156,-48 269,-48 269,-78"/>
<text text-anchor="start" x="164" y="-66" font-family="Helvetica,sans-Serif" font-size="10.00">hgps::RuntimeContext</text>
<text text-anchor="middle" x="212.5" y="-55" font-family="Helvetica,sans-Serif" font-size="10.00">::population</text>
</a>
</g>
</g>
<!-- Node1&#45;&gt;Node5 -->
<g id="edge5" class="edge">
<title>Node1&#45;&gt;Node5</title>
<path fill="none" stroke="#63b8ff" d="M120.48,-77.51C128.41,-76.25 136.59,-74.95 144.63,-73.66"/>
<polygon fill="#63b8ff" stroke="#63b8ff" points="145.06,-77.14 154.39,-72.11 143.96,-70.23 145.06,-77.14"/>
</g>
<!-- Node6 -->
<g id="node6" class="node">
<title>Node6</title>
<g id="a_node6"><a xlink:href="classhgps_1_1_runtime_context.html#a437e1ab725b8f8ab71eb04222173eda3" target="_top" xlink:title=" ">
<polygon fill="white" stroke="#666666" points="269,-30 156,-30 156,0 269,0 269,-30"/>
<text text-anchor="start" x="164" y="-18" font-family="Helvetica,sans-Serif" font-size="10.00">hgps::RuntimeContext</text>
<text text-anchor="middle" x="212.5" y="-7" font-family="Helvetica,sans-Serif" font-size="10.00">::random</text>
</a>
</g>
</g>
<!-- Node1&#45;&gt;Node6 -->
<g id="edge6" class="edge">
<title>Node1&#45;&gt;Node6</title>
<path fill="none" stroke="#63b8ff" d="M90.3,-71.62C108.97,-61.97 133.74,-49.42 156,-39 158.76,-37.71 161.6,-36.4 164.48,-35.1"/>
<polygon fill="#63b8ff" stroke="#63b8ff" points="165.85,-38.32 173.56,-31.06 163,-31.93 165.85,-38.32"/>
</g>
<!-- Node3 -->
<g id="node3" class="node">
<title>Node3</title>
<g id="a_node3"><a xlink:href="namespacehgps_1_1core.html#ae6eacd437c5d1c6764e6c728a12d0de3" target="_top" xlink:title=" ">
<polygon fill="white" stroke="#666666" points="420,-186.5 305,-186.5 305,-167.5 420,-167.5 420,-186.5"/>
<text text-anchor="middle" x="362.5" y="-174.5" font-family="Helvetica,sans-Serif" font-size="10.00">hgps::core::parallel_for</text>
</a>
</g>
</g>
<!-- Node2&#45;&gt;Node3 -->
<g id="edge2" class="edge">
<title>Node2&#45;&gt;Node3</title>
<path fill="none" stroke="#63b8ff" d="M268.61,-177C276.75,-177 285.21,-177 293.57,-177"/>
<polygon fill="#63b8ff" stroke="#63b8ff" points="293.35,-180.5 303.35,-177 293.35,-173.5 293.35,-180.5"/>
</g>
<!-- Node4&#45;&gt;Node4 -->
<g id="edge4" class="edge">
<title>Node4&#45;&gt;Node4</title>
<path fill="none" stroke="#63b8ff" d="M186.13,-126.28C180.27,-135.41 189.06,-144 212.5,-144 225.32,-144 233.75,-141.43 237.81,-137.61"/>
<polygon fill="#63b8ff" stroke="#63b8ff" points="241.28,-138.06 238.73,-127.78 234.31,-137.41 241.28,-138.06"/>
</g>
</g>
</svg>
