<?xml version="1.0" encoding="UTF-8" standalone="no"?>
<!DOCTYPE svg PUBLIC "-//W3C//DTD SVG 1.1//EN"
 "http://www.w3.org/Graphics/SVG/1.1/DTD/svg11.dtd">
<!-- Generated by graphviz version 2.43.0 (0)
 -->
<!-- Title: hgps::core::Datastore::get_mortality Pages: 1 -->
<svg width="563pt" height="39pt"
 viewBox="0.00 0.00 563.00 39.00" xmlns="http://www.w3.org/2000/svg" xmlns:xlink="http://www.w3.org/1999/xlink">
<g id="graph0" class="graph" transform="scale(1 1) rotate(0) translate(4 35)">
<title>hgps::core::Datastore::get_mortality</title>
<!-- Node1 -->
<g id="node1" class="node">
<title>Node1</title>
<g id="a_node1"><a xlink:title="Gets the population mortality trend for a country filtered by time.">
<polygon fill="#bfbfbf" stroke="black" points="434,-0.5 434,-30.5 555,-30.5 555,-0.5 434,-0.5"/>
<text text-anchor="start" x="442" y="-18.5" font-family="Helvetica,sans-Serif" font-size="10.00">hgps::core::Datastore</text>
<text text-anchor="middle" x="494.5" y="-7.5" font-family="Helvetica,sans-Serif" font-size="10.00">::get_mortality</text>
</a>
</g>
</g>
<!-- Node2 -->
<g id="node2" class="node">
<title>Node2</title>
<g id="a_node2"><a xlink:href="namespacehgps.html#ad7d042f1937872f2f8b344915584a7a9" target="_top" xlink:title=" ">
<polygon fill="none" stroke="black" points="271,-0.5 271,-30.5 398,-30.5 398,-0.5 271,-0.5"/>
<text text-anchor="start" x="279" y="-18.5" font-family="Helvetica,sans-Serif" font-size="10.00">hgps::build_population</text>
<text text-anchor="middle" x="334.5" y="-7.5" font-family="Helvetica,sans-Serif" font-size="10.00">_module</text>
</a>
</g>
</g>
<!-- Node1&#45;&gt;Node2 -->
<g id="edge1" class="edge">
<title>Node1&#45;&gt;Node2</title>
<path fill="none" stroke="midnightblue" d="M423.57,-15.5C415.12,-15.5 406.54,-15.5 398.21,-15.5"/>
<polygon fill="midnightblue" stroke="midnightblue" points="423.77,-19 433.77,-15.5 423.77,-12 423.77,-19"/>
</g>
<!-- Node3 -->
<g id="node3" class="node">
<title>Node3</title>
<g id="a_node3"><a xlink:href="namespacehgps.html#aef8e3dcb57d8eabeb75baa00c53f6b98" target="_top" xlink:title="Create the default simulation modules factory for production usage.">
<polygon fill="none" stroke="black" points="77,-0.5 77,-30.5 235,-30.5 235,-0.5 77,-0.5"/>
<text text-anchor="start" x="85" y="-18.5" font-family="Helvetica,sans-Serif" font-size="10.00">hgps::get_default_simulation</text>
<text text-anchor="middle" x="156" y="-7.5" font-family="Helvetica,sans-Serif" font-size="10.00">_module_factory</text>
</a>
</g>
</g>
<!-- Node2&#45;&gt;Node3 -->
<g id="edge2" class="edge">
<title>Node2&#45;&gt;Node3</title>
<path fill="none" stroke="midnightblue" d="M260.67,-15.5C252.29,-15.5 243.72,-15.5 235.27,-15.5"/>
<polygon fill="midnightblue" stroke="midnightblue" points="260.78,-19 270.78,-15.5 260.78,-12 260.78,-19"/>
</g>
<!-- Node4 -->
<g id="node4" class="node">
<title>Node4</title>
<g id="a_node4"><a xlink:href="program_8cpp.html#a0ddf1224851353fc92bfbff6f499fa97" target="_top" xlink:title="Health&#45;GPS host application entry point.">
<polygon fill="none" stroke="black" points="0,-6 0,-25 41,-25 41,-6 0,-6"/>
<text text-anchor="middle" x="20.5" y="-13" font-family="Helvetica,sans-Serif" font-size="10.00">main</text>
</a>
</g>
</g>
<!-- Node3&#45;&gt;Node4 -->
<g id="edge3" class="edge">
<title>Node3&#45;&gt;Node4</title>
<path fill="none" stroke="midnightblue" d="M66.88,-15.5C57.39,-15.5 48.55,-15.5 41.24,-15.5"/>
<polygon fill="midnightblue" stroke="midnightblue" points="66.96,-19 76.96,-15.5 66.96,-12 66.96,-19"/>
</g>
</g>
</svg>
