<?xml version="1.0" encoding="UTF-8" standalone="no"?>
<!DOCTYPE svg PUBLIC "-//W3C//DTD SVG 1.1//EN"
 "http://www.w3.org/Graphics/SVG/1.1/DTD/svg11.dtd">
<!-- Generated by graphviz version 2.43.0 (0)
 -->
<!-- Title: hgps::FoodLabellingScenario::apply Pages: 1 -->
<svg width="313pt" height="127pt"
 viewBox="0.00 0.00 313.00 127.00" xmlns="http://www.w3.org/2000/svg" xmlns:xlink="http://www.w3.org/1999/xlink">
<g id="graph0" class="graph" transform="scale(1 1) rotate(0) translate(4 123)">
<title>hgps::FoodLabellingScenario::apply</title>
<!-- Node1 -->
<g id="node1" class="node">
<title>Node1</title>
<g id="a_node1"><a xlink:title="Applies this Scenario to the Person instance.">
<polygon fill="#bfbfbf" stroke="black" points="0,-44.5 0,-74.5 155,-74.5 155,-44.5 0,-44.5"/>
<text text-anchor="start" x="8" y="-62.5" font-family="Helvetica,sans-Serif" font-size="10.00">hgps::FoodLabellingScenario</text>
<text text-anchor="middle" x="77.5" y="-51.5" font-family="Helvetica,sans-Serif" font-size="10.00">::apply</text>
</a>
</g>
</g>
<!-- Node2 -->
<g id="node2" class="node">
<title>Node2</title>
<g id="a_node2"><a xlink:href="structhgps_1_1PolicyInterval.html#a920ea4c319e42738ede74c2c5fd3f307" target="_top" xlink:title="Determine whether this interval contains a given time.">
<polygon fill="none" stroke="black" points="191.5,-88.5 191.5,-118.5 304.5,-118.5 304.5,-88.5 191.5,-88.5"/>
<text text-anchor="start" x="199.5" y="-106.5" font-family="Helvetica,sans-Serif" font-size="10.00">hgps::PolicyInterval</text>
<text text-anchor="middle" x="248" y="-95.5" font-family="Helvetica,sans-Serif" font-size="10.00">::contains</text>
</a>
</g>
</g>
<!-- Node1&#45;&gt;Node2 -->
<g id="edge1" class="edge">
<title>Node1&#45;&gt;Node2</title>
<path fill="none" stroke="midnightblue" d="M136.02,-74.52C150.72,-78.36 166.63,-82.51 181.7,-86.45"/>
<polygon fill="midnightblue" stroke="midnightblue" points="180.89,-89.85 191.45,-88.99 182.66,-83.08 180.89,-89.85"/>
</g>
<!-- Node3 -->
<g id="node3" class="node">
<title>Node3</title>
<g id="a_node3"><a xlink:href="structhgps_1_1Person.html#a55a222e5e970c4fb8646079effbb279a" target="_top" xlink:title="Gets this instance unique identifier.">
<polygon fill="none" stroke="black" points="201,-50 201,-69 295,-69 295,-50 201,-50"/>
<text text-anchor="middle" x="248" y="-57" font-family="Helvetica,sans-Serif" font-size="10.00">hgps::Person::id</text>
</a>
</g>
</g>
<!-- Node1&#45;&gt;Node3 -->
<g id="edge2" class="edge">
<title>Node1&#45;&gt;Node3</title>
<path fill="none" stroke="midnightblue" d="M155.35,-59.5C167.18,-59.5 179.21,-59.5 190.49,-59.5"/>
<polygon fill="midnightblue" stroke="midnightblue" points="190.61,-63 200.61,-59.5 190.61,-56 190.61,-63"/>
</g>
<!-- Node4 -->
<g id="node4" class="node">
<title>Node4</title>
<g id="a_node4"><a xlink:href="classhgps_1_1Random.html#a3ec62063a29794f049c6d972a75ee29c" target="_top" xlink:title="Generates a random floating point number in range [0,1)">
<polygon fill="none" stroke="black" points="191,-0.5 191,-30.5 305,-30.5 305,-0.5 191,-0.5"/>
<text text-anchor="start" x="199" y="-18.5" font-family="Helvetica,sans-Serif" font-size="10.00">hgps::Random::next</text>
<text text-anchor="middle" x="248" y="-7.5" font-family="Helvetica,sans-Serif" font-size="10.00">_double</text>
</a>
</g>
</g>
<!-- Node1&#45;&gt;Node4 -->
<g id="edge3" class="edge">
<title>Node1&#45;&gt;Node4</title>
<path fill="none" stroke="midnightblue" d="M136.02,-44.48C150.42,-40.72 166,-36.65 180.79,-32.79"/>
<polygon fill="midnightblue" stroke="midnightblue" points="182.09,-36.07 190.88,-30.15 180.32,-29.29 182.09,-36.07"/>
</g>
</g>
</svg>
