<?xml version="1.0" encoding="UTF-8" standalone="no"?>
<!DOCTYPE svg PUBLIC "-//W3C//DTD SVG 1.1//EN"
 "http://www.w3.org/Graphics/SVG/1.1/DTD/svg11.dtd">
<!-- Generated by graphviz version 7.0.6 (20230106.0513)
 -->
<!-- Title: hgps::UnivariateVisitor::visit Pages: 1 -->
<svg width="309pt" height="134pt"
 viewBox="0.00 0.00 309.00 134.00" xmlns="http://www.w3.org/2000/svg" xmlns:xlink="http://www.w3.org/1999/xlink">
<g id="graph0" class="graph" transform="scale(1 1) rotate(0) translate(4 130)">
<title>hgps::UnivariateVisitor::visit</title>
<!-- Node1 -->
<g id="node1" class="node">
<title>Node1</title>
<g id="a_node1"><a xlink:title=" ">
<polygon fill="#999999" stroke="#666666" points="113,-78 0,-78 0,-48 113,-48 113,-78"/>
<text text-anchor="start" x="8" y="-66" font-family="Helvetica,sans-Serif" font-size="10.00">hgps::UnivariateVisitor</text>
<text text-anchor="middle" x="56.5" y="-55" font-family="Helvetica,sans-Serif" font-size="10.00">::visit</text>
</a>
</g>
</g>
<!-- Node2 -->
<g id="node2" class="node">
<title>Node2</title>
<g id="a_node2"><a xlink:href="classhgps_1_1core_1_1_univariate_summary.html#a57fe04a50a149564fcf103f43a675dcb" target="_top" xlink:title=" ">
<polygon fill="white" stroke="#666666" points="301,-126 149,-126 149,-96 301,-96 301,-126"/>
<text text-anchor="start" x="157" y="-114" font-family="Helvetica,sans-Serif" font-size="10.00">hgps::core::UnivariateSummary</text>
<text text-anchor="middle" x="225" y="-103" font-family="Helvetica,sans-Serif" font-size="10.00">::append</text>
</a>
</g>
</g>
<!-- Node1&#45;&gt;Node2 -->
<g id="edge1" class="edge">
<title>Node1&#45;&gt;Node2</title>
<path fill="none" stroke="#63b8ff" d="M111.1,-78.45C126.55,-82.91 143.56,-87.81 159.59,-92.43"/>
<polygon fill="#63b8ff" stroke="#63b8ff" points="158.47,-95.75 169.05,-95.16 160.41,-89.02 158.47,-95.75"/>
</g>
<!-- Node3 -->
<g id="node3" class="node">
<title>Node3</title>
<g id="a_node3"><a xlink:href="classhgps_1_1core_1_1_primitive_data_table_column.html#aaa7fee516e57699b7d2e5b95fa503eaf" target="_top" xlink:title=" ">
<polygon fill="white" stroke="#666666" points="287.5,-78 162.5,-78 162.5,-48 287.5,-48 287.5,-78"/>
<text text-anchor="start" x="170.5" y="-66" font-family="Helvetica,sans-Serif" font-size="10.00">hgps::core::PrimitiveData</text>
<text text-anchor="middle" x="225" y="-55" font-family="Helvetica,sans-Serif" font-size="10.00">TableColumn::name</text>
</a>
</g>
</g>
<!-- Node1&#45;&gt;Node3 -->
<g id="edge2" class="edge">
<title>Node1&#45;&gt;Node3</title>
<path fill="none" stroke="#63b8ff" d="M113.41,-63C125.41,-63 138.27,-63 150.82,-63"/>
<polygon fill="#63b8ff" stroke="#63b8ff" points="150.72,-66.5 160.72,-63 150.72,-59.5 150.72,-66.5"/>
</g>
<!-- Node4 -->
<g id="node4" class="node">
<title>Node4</title>
<g id="a_node4"><a xlink:href="classhgps_1_1core_1_1_primitive_data_table_column.html#ac03e5bf33ed4db02588b197c483964d0" target="_top" xlink:title=" ">
<polygon fill="white" stroke="#666666" points="287.5,-30 162.5,-30 162.5,0 287.5,0 287.5,-30"/>
<text text-anchor="start" x="170.5" y="-18" font-family="Helvetica,sans-Serif" font-size="10.00">hgps::core::PrimitiveData</text>
<text text-anchor="middle" x="225" y="-7" font-family="Helvetica,sans-Serif" font-size="10.00">TableColumn::null_count</text>
</a>
</g>
</g>
<!-- Node1&#45;&gt;Node4 -->
<g id="edge3" class="edge">
<title>Node1&#45;&gt;Node4</title>
<path fill="none" stroke="#63b8ff" d="M111.1,-47.55C126.55,-43.09 143.56,-38.19 159.59,-33.57"/>
<polygon fill="#63b8ff" stroke="#63b8ff" points="160.41,-36.98 169.05,-30.84 158.47,-30.25 160.41,-36.98"/>
</g>
</g>
</svg>
