<?xml version="1.0" encoding="UTF-8" standalone="no"?>
<!DOCTYPE svg PUBLIC "-//W3C//DTD SVG 1.1//EN"
 "http://www.w3.org/Graphics/SVG/1.1/DTD/svg11.dtd">
<!-- Generated by graphviz version 2.43.0 (0)
 -->
<!-- Title: hgps::RelativeRiskLookup::RelativeRiskLookup Pages: 1 -->
<svg width="477pt" height="176pt"
 viewBox="0.00 0.00 477.00 176.00" xmlns="http://www.w3.org/2000/svg" xmlns:xlink="http://www.w3.org/1999/xlink">
<g id="graph0" class="graph" transform="scale(1 1) rotate(0) translate(4 172)">
<title>hgps::RelativeRiskLookup::RelativeRiskLookup</title>
<!-- Node1 -->
<g id="node1" class="node">
<title>Node1</title>
<g id="a_node1"><a xlink:title="Initialises a new instance of the RelativeRiskLookup class.">
<polygon fill="#bfbfbf" stroke="black" points="0,-71.5 0,-101.5 142,-101.5 142,-71.5 0,-71.5"/>
<text text-anchor="start" x="8" y="-89.5" font-family="Helvetica,sans-Serif" font-size="10.00">hgps::RelativeRiskLookup</text>
<text text-anchor="middle" x="71" y="-78.5" font-family="Helvetica,sans-Serif" font-size="10.00">::RelativeRiskLookup</text>
</a>
</g>
</g>
<!-- Node2 -->
<g id="node2" class="node">
<title>Node2</title>
<g id="a_node2"><a xlink:href="classhgps_1_1core_1_1Array2D.html#af87838b154483145034cd854c402d726" target="_top" xlink:title="Gets the number of coluns in the array.">
<polygon fill="none" stroke="black" points="192.5,-137.5 192.5,-167.5 305.5,-167.5 305.5,-137.5 192.5,-137.5"/>
<text text-anchor="start" x="200.5" y="-155.5" font-family="Helvetica,sans-Serif" font-size="10.00">hgps::core::Array2D</text>
<text text-anchor="middle" x="249" y="-144.5" font-family="Helvetica,sans-Serif" font-size="10.00">::columns</text>
</a>
</g>
</g>
<!-- Node1&#45;&gt;Node2 -->
<g id="edge1" class="edge">
<title>Node1&#45;&gt;Node2</title>
<path fill="none" stroke="midnightblue" d="M112.38,-101.64C137.87,-111.2 170.98,-123.62 198.11,-133.79"/>
<polygon fill="midnightblue" stroke="midnightblue" points="197.22,-137.19 207.81,-137.43 199.68,-130.64 197.22,-137.19"/>
</g>
<!-- Node3 -->
<g id="node3" class="node">
<title>Node3</title>
<g id="a_node3"><a xlink:href="classhgps_1_1core_1_1Array2D.html#ad60e06e81e15e37a2ec58d8c2b39755d" target="_top" xlink:title="Gets the number of rows in the array.">
<polygon fill="none" stroke="black" points="356,-71.5 356,-101.5 469,-101.5 469,-71.5 356,-71.5"/>
<text text-anchor="start" x="364" y="-89.5" font-family="Helvetica,sans-Serif" font-size="10.00">hgps::core::Array2D</text>
<text text-anchor="middle" x="412.5" y="-78.5" font-family="Helvetica,sans-Serif" font-size="10.00">::rows</text>
</a>
</g>
</g>
<!-- Node1&#45;&gt;Node3 -->
<g id="edge2" class="edge">
<title>Node1&#45;&gt;Node3</title>
<path fill="none" stroke="midnightblue" d="M142.13,-88.76C154.09,-89.07 166.4,-89.34 178,-89.5 241.1,-90.39 256.9,-90.53 320,-89.5 328.34,-89.36 337.1,-89.16 345.77,-88.91"/>
<polygon fill="midnightblue" stroke="midnightblue" points="345.97,-92.41 355.86,-88.62 345.76,-85.41 345.97,-92.41"/>
</g>
<!-- Node4 -->
<g id="node4" class="node">
<title>Node4</title>
<g id="a_node4"><a xlink:href="classhgps_1_1RelativeRiskLookup.html#a7c41a6fb0004de0f0eb9c680ef511083" target="_top" xlink:title="Gets the number of rows lookup breakpoints.">
<polygon fill="none" stroke="black" points="178,-49.5 178,-79.5 320,-79.5 320,-49.5 178,-49.5"/>
<text text-anchor="start" x="186" y="-67.5" font-family="Helvetica,sans-Serif" font-size="10.00">hgps::RelativeRiskLookup</text>
<text text-anchor="middle" x="249" y="-56.5" font-family="Helvetica,sans-Serif" font-size="10.00">::rows</text>
</a>
</g>
</g>
<!-- Node1&#45;&gt;Node4 -->
<g id="edge3" class="edge">
<title>Node1&#45;&gt;Node4</title>
<path fill="none" stroke="midnightblue" d="M142.07,-77.74C150.54,-76.68 159.25,-75.59 167.85,-74.52"/>
<polygon fill="midnightblue" stroke="midnightblue" points="168.4,-77.98 177.89,-73.26 167.53,-71.03 168.4,-77.98"/>
</g>
<!-- Node5 -->
<g id="node5" class="node">
<title>Node5</title>
<g id="a_node5"><a xlink:href="classhgps_1_1MonotonicVector.html#a4034db763740e2cef762f60521cf79a4" target="_top" xlink:title="Gets the number of elements.">
<polygon fill="none" stroke="black" points="185,-0.5 185,-30.5 313,-30.5 313,-0.5 185,-0.5"/>
<text text-anchor="start" x="193" y="-18.5" font-family="Helvetica,sans-Serif" font-size="10.00">hgps::MonotonicVector</text>
<text text-anchor="middle" x="249" y="-7.5" font-family="Helvetica,sans-Serif" font-size="10.00">::size</text>
</a>
</g>
</g>
<!-- Node1&#45;&gt;Node5 -->
<g id="edge5" class="edge">
<title>Node1&#45;&gt;Node5</title>
<path fill="none" stroke="midnightblue" d="M105.18,-71.43C125.96,-62.16 153.37,-50.23 178,-40.5 183.46,-38.34 189.19,-36.16 194.92,-34.04"/>
<polygon fill="midnightblue" stroke="midnightblue" points="196.33,-37.25 204.52,-30.52 193.92,-30.68 196.33,-37.25"/>
</g>
<!-- Node4&#45;&gt;Node3 -->
<g id="edge4" class="edge">
<title>Node4&#45;&gt;Node3</title>
<path fill="none" stroke="midnightblue" d="M320.37,-74.09C328.83,-75.24 337.44,-76.41 345.83,-77.55"/>
<polygon fill="midnightblue" stroke="midnightblue" points="345.55,-81.05 355.93,-78.93 346.49,-74.11 345.55,-81.05"/>
</g>
</g>
</svg>
