<?xml version="1.0" encoding="UTF-8" standalone="no"?>
<!DOCTYPE svg PUBLIC "-//W3C//DTD SVG 1.1//EN"
 "http://www.w3.org/Graphics/SVG/1.1/DTD/svg11.dtd">
<!-- Generated by graphviz version 2.43.0 (0)
 -->
<!-- Title: hgps::EventMessageVisitor::visit Pages: 1 -->
<svg width="345pt" height="186pt"
 viewBox="0.00 0.00 345.00 186.00" xmlns="http://www.w3.org/2000/svg" xmlns:xlink="http://www.w3.org/1999/xlink">
<g id="graph0" class="graph" transform="scale(1 1) rotate(0) translate(4 182)">
<title>hgps::EventMessageVisitor::visit</title>
<!-- Node1 -->
<g id="node1" class="node">
<title>Node1</title>
<g id="a_node1"><a xlink:title="Visits a hgps::RunnerEventMessage message type.">
<polygon fill="#bfbfbf" stroke="black" points="188,-73.5 188,-103.5 337,-103.5 337,-73.5 188,-73.5"/>
<text text-anchor="start" x="196" y="-91.5" font-family="Helvetica,sans-Serif" font-size="10.00">hgps::EventMessageVisitor</text>
<text text-anchor="middle" x="262.5" y="-80.5" font-family="Helvetica,sans-Serif" font-size="10.00">::visit</text>
</a>
</g>
</g>
<!-- Node2 -->
<g id="node2" class="node">
<title>Node2</title>
<g id="a_node2"><a xlink:href="structhgps_1_1ErrorEventMessage.html#a2ee505893217c4509114ad44a93d7f4b" target="_top" xlink:title="Double dispatch the message using a visitor implementation.">
<polygon fill="none" stroke="black" points="6,-147.5 6,-177.5 146,-177.5 146,-147.5 6,-147.5"/>
<text text-anchor="start" x="14" y="-165.5" font-family="Helvetica,sans-Serif" font-size="10.00">hgps::ErrorEventMessage</text>
<text text-anchor="middle" x="76" y="-154.5" font-family="Helvetica,sans-Serif" font-size="10.00">::accept</text>
</a>
</g>
</g>
<!-- Node1&#45;&gt;Node2 -->
<g id="edge1" class="edge">
<title>Node1&#45;&gt;Node2</title>
<path fill="none" stroke="midnightblue" d="M221.7,-108.05C201.14,-117.8 175.5,-129.41 152,-138.5 143.97,-141.61 135.35,-144.64 126.91,-147.44"/>
<polygon fill="midnightblue" stroke="midnightblue" points="223.25,-111.19 230.77,-103.72 220.24,-104.87 223.25,-111.19"/>
</g>
<!-- Node3 -->
<g id="node3" class="node">
<title>Node3</title>
<g id="a_node3"><a xlink:href="structhgps_1_1InfoEventMessage.html#a30fa106e698b2b11556a540267afee12" target="_top" xlink:title="Double dispatch the message using a visitor implementation.">
<polygon fill="none" stroke="black" points="8,-98.5 8,-128.5 144,-128.5 144,-98.5 8,-98.5"/>
<text text-anchor="start" x="16" y="-116.5" font-family="Helvetica,sans-Serif" font-size="10.00">hgps::InfoEventMessage</text>
<text text-anchor="middle" x="76" y="-105.5" font-family="Helvetica,sans-Serif" font-size="10.00">::accept</text>
</a>
</g>
</g>
<!-- Node1&#45;&gt;Node3 -->
<g id="edge2" class="edge">
<title>Node1&#45;&gt;Node3</title>
<path fill="none" stroke="midnightblue" d="M177.54,-99.88C166.31,-101.4 154.91,-102.94 144.02,-104.42"/>
<polygon fill="midnightblue" stroke="midnightblue" points="178.35,-103.3 187.79,-98.49 177.41,-96.36 178.35,-103.3"/>
</g>
<!-- Node4 -->
<g id="node4" class="node">
<title>Node4</title>
<g id="a_node4"><a xlink:href="structhgps_1_1ResultEventMessage.html#af26b6d2cb6afdeed1065e4e9e9f3c38d" target="_top" xlink:title="Double dispatch the message using a visitor implementation.">
<polygon fill="none" stroke="black" points="2,-49.5 2,-79.5 150,-79.5 150,-49.5 2,-49.5"/>
<text text-anchor="start" x="10" y="-67.5" font-family="Helvetica,sans-Serif" font-size="10.00">hgps::ResultEventMessage</text>
<text text-anchor="middle" x="76" y="-56.5" font-family="Helvetica,sans-Serif" font-size="10.00">::accept</text>
</a>
</g>
</g>
<!-- Node1&#45;&gt;Node4 -->
<g id="edge3" class="edge">
<title>Node1&#45;&gt;Node4</title>
<path fill="none" stroke="midnightblue" d="M177.87,-77.62C168.67,-76.42 159.36,-75.21 150.3,-74.03"/>
<polygon fill="midnightblue" stroke="midnightblue" points="177.42,-81.09 187.79,-78.91 178.32,-74.15 177.42,-81.09"/>
</g>
<!-- Node5 -->
<g id="node5" class="node">
<title>Node5</title>
<g id="a_node5"><a xlink:href="structhgps_1_1RunnerEventMessage.html#ad9b0042cabe3f2fb671338f65d84ebfa" target="_top" xlink:title="Double dispatch the message using a visitor implementation.">
<polygon fill="none" stroke="black" points="0,-0.5 0,-30.5 152,-30.5 152,-0.5 0,-0.5"/>
<text text-anchor="start" x="8" y="-18.5" font-family="Helvetica,sans-Serif" font-size="10.00">hgps::RunnerEventMessage</text>
<text text-anchor="middle" x="76" y="-7.5" font-family="Helvetica,sans-Serif" font-size="10.00">::accept</text>
</a>
</g>
</g>
<!-- Node1&#45;&gt;Node5 -->
<g id="edge4" class="edge">
<title>Node1&#45;&gt;Node5</title>
<path fill="none" stroke="midnightblue" d="M219.97,-69.22C199.66,-60.07 174.74,-49.25 152,-40.5 143.16,-37.1 133.64,-33.71 124.44,-30.58"/>
<polygon fill="midnightblue" stroke="midnightblue" points="218.69,-72.49 229.24,-73.43 221.58,-66.11 218.69,-72.49"/>
</g>
</g>
</svg>
