<?xml version="1.0" encoding="UTF-8" standalone="no"?>
<!DOCTYPE svg PUBLIC "-//W3C//DTD SVG 1.1//EN"
 "http://www.w3.org/Graphics/SVG/1.1/DTD/svg11.dtd">
<!-- Generated by graphviz version 7.0.6 (20230106.0513)
 -->
<!-- Title: hgps::Map2d::rows Pages: 1 -->
<svg width="274pt" height="76pt"
 viewBox="0.00 0.00 274.00 75.50" xmlns="http://www.w3.org/2000/svg" xmlns:xlink="http://www.w3.org/1999/xlink">
<g id="graph0" class="graph" transform="scale(1 1) rotate(0) translate(4 71.5)">
<title>hgps::Map2d::rows</title>
<!-- Node1 -->
<g id="node1" class="node">
<title>Node1</title>
<g id="a_node1"><a xlink:title=" ">
<polygon fill="#999999" stroke="#666666" points="266,-40 167,-40 167,-21 266,-21 266,-40"/>
<text text-anchor="middle" x="216.5" y="-28" font-family="Helvetica,sans-Serif" font-size="10.00">hgps::Map2d::rows</text>
</a>
</g>
</g>
<!-- Node2 -->
<g id="node2" class="node">
<title>Node2</title>
<g id="a_node2"><a xlink:href="structhgps_1_1_baseline_adjustment.html#aa9272f6e19861742aa7e73e80e36a341" target="_top" xlink:title=" ">
<polygon fill="white" stroke="#666666" points="131,-67.5 0,-67.5 0,-37.5 131,-37.5 131,-67.5"/>
<text text-anchor="start" x="8" y="-55.5" font-family="Helvetica,sans-Serif" font-size="10.00">hgps::BaselineAdjustment</text>
<text text-anchor="middle" x="65.5" y="-44.5" font-family="Helvetica,sans-Serif" font-size="10.00">::BaselineAdjustment</text>
</a>
</g>
</g>
<!-- Node1&#45;&gt;Node2 -->
<g id="edge1" class="edge">
<title>Node1&#45;&gt;Node2</title>
<path fill="none" stroke="#63b8ff" d="M155.35,-39.38C147.46,-40.55 139.35,-41.74 131.38,-42.92"/>
<polygon fill="#63b8ff" stroke="#63b8ff" points="155.83,-42.85 165.21,-37.92 154.81,-35.92 155.83,-42.85"/>
</g>
<!-- Node3 -->
<g id="node3" class="node">
<title>Node3</title>
<g id="a_node3"><a xlink:href="classhgps_1_1_map2d.html#a007e7cb3ff4ff5edbdf25c7d5021a559" target="_top" xlink:title=" ">
<polygon fill="white" stroke="#666666" points="114,-19 17,-19 17,0 114,0 114,-19"/>
<text text-anchor="middle" x="65.5" y="-7" font-family="Helvetica,sans-Serif" font-size="10.00">hgps::Map2d::size</text>
</a>
</g>
</g>
<!-- Node1&#45;&gt;Node3 -->
<g id="edge2" class="edge">
<title>Node1&#45;&gt;Node3</title>
<path fill="none" stroke="#63b8ff" d="M155.44,-22.04C141.78,-20.11 127.45,-18.09 114.38,-16.25"/>
<polygon fill="#63b8ff" stroke="#63b8ff" points="154.82,-25.48 165.21,-23.41 155.8,-18.55 154.82,-25.48"/>
</g>
</g>
</svg>
