<?xml version="1.0" encoding="UTF-8" standalone="no"?>
<!DOCTYPE svg PUBLIC "-//W3C//DTD SVG 1.1//EN"
 "http://www.w3.org/Graphics/SVG/1.1/DTD/svg11.dtd">
<!-- Generated by graphviz version 2.43.0 (0)
 -->
<!-- Title: hgps::core::PrimitiveDataTableColumnBuilder::value Pages: 1 -->
<svg width="360pt" height="88pt"
 viewBox="0.00 0.00 360.00 88.00" xmlns="http://www.w3.org/2000/svg" xmlns:xlink="http://www.w3.org/1999/xlink">
<g id="graph0" class="graph" transform="scale(1 1) rotate(0) translate(4 84)">
<title>hgps::core::PrimitiveDataTableColumnBuilder::value</title>
<!-- Node1 -->
<g id="node1" class="node">
<title>Node1</title>
<g id="a_node1"><a xlink:title="Gets the column value at a given index, no boundary checks.">
<polygon fill="#bfbfbf" stroke="black" points="205,-24.5 205,-54.5 352,-54.5 352,-24.5 205,-24.5"/>
<text text-anchor="start" x="213" y="-42.5" font-family="Helvetica,sans-Serif" font-size="10.00">hgps::core::PrimitiveData</text>
<text text-anchor="middle" x="278.5" y="-31.5" font-family="Helvetica,sans-Serif" font-size="10.00">TableColumnBuilder::value</text>
</a>
</g>
</g>
<!-- Node2 -->
<g id="node2" class="node">
<title>Node2</title>
<g id="a_node2"><a xlink:href="classhgps_1_1core_1_1PrimitiveDataTableColumnBuilder.html#a962975f3e83d39375a6e7409b1ca74fd" target="_top" xlink:title=" ">
<polygon fill="none" stroke="black" points="6.5,-49.5 6.5,-79.5 162.5,-79.5 162.5,-49.5 6.5,-49.5"/>
<text text-anchor="start" x="14.5" y="-67.5" font-family="Helvetica,sans-Serif" font-size="10.00">hgps::core::PrimitiveData</text>
<text text-anchor="middle" x="84.5" y="-56.5" font-family="Helvetica,sans-Serif" font-size="10.00">TableColumnBuilder::append</text>
</a>
</g>
</g>
<!-- Node1&#45;&gt;Node2 -->
<g id="edge1" class="edge">
<title>Node1&#45;&gt;Node2</title>
<path fill="none" stroke="midnightblue" d="M194.78,-50.27C184.12,-51.66 173.24,-53.08 162.67,-54.45"/>
<polygon fill="midnightblue" stroke="midnightblue" points="195.45,-53.71 204.91,-48.95 194.54,-46.77 195.45,-53.71"/>
</g>
<!-- Node3 -->
<g id="node3" class="node">
<title>Node3</title>
<g id="a_node3"><a xlink:href="classhgps_1_1core_1_1PrimitiveDataTableColumnBuilder.html#a1c9bd3e6b943f7507233bf08ebf1dd31" target="_top" xlink:title="Gets the column value at a given index, no boundary checks.">
<polygon fill="none" stroke="black" points="0,-0.5 0,-30.5 169,-30.5 169,-0.5 0,-0.5"/>
<text text-anchor="start" x="8" y="-18.5" font-family="Helvetica,sans-Serif" font-size="10.00">hgps::core::PrimitiveData</text>
<text text-anchor="middle" x="84.5" y="-7.5" font-family="Helvetica,sans-Serif" font-size="10.00">TableColumnBuilder::operator[]</text>
</a>
</g>
</g>
<!-- Node1&#45;&gt;Node3 -->
<g id="edge2" class="edge">
<title>Node1&#45;&gt;Node3</title>
<path fill="none" stroke="midnightblue" d="M194.96,-29.18C186.4,-28.11 177.71,-27.03 169.14,-25.96"/>
<polygon fill="midnightblue" stroke="midnightblue" points="194.56,-32.66 204.91,-30.43 195.42,-25.71 194.56,-32.66"/>
</g>
</g>
</svg>
