<?xml version="1.0" encoding="UTF-8" standalone="no"?>
<!DOCTYPE svg PUBLIC "-//W3C//DTD SVG 1.1//EN"
 "http://www.w3.org/Graphics/SVG/1.1/DTD/svg11.dtd">
<!-- Generated by graphviz version 7.0.6 (20230106.0513)
 -->
<!-- Title: hgps::Repository::get_linear_model_definition Pages: 1 -->
<svg width="454pt" height="38pt"
 viewBox="0.00 0.00 454.00 38.00" xmlns="http://www.w3.org/2000/svg" xmlns:xlink="http://www.w3.org/1999/xlink">
<g id="graph0" class="graph" transform="scale(1 1) rotate(0) translate(4 34)">
<title>hgps::Repository::get_linear_model_definition</title>
<!-- Node1 -->
<g id="node1" class="node">
<title>Node1</title>
<g id="a_node1"><a xlink:title=" ">
<polygon fill="#999999" stroke="#666666" points="446,-30 326,-30 326,0 446,0 446,-30"/>
<text text-anchor="start" x="334" y="-18" font-family="Helvetica,sans-Serif" font-size="10.00">hgps::Repository::get</text>
<text text-anchor="middle" x="386" y="-7" font-family="Helvetica,sans-Serif" font-size="10.00">_linear_model_definition</text>
</a>
</g>
</g>
<!-- Node2 -->
<g id="node2" class="node">
<title>Node2</title>
<g id="a_node2"><a xlink:href="namespacehgps.html#ab5f6a94224d6b1722264694ccdb4debb" target="_top" xlink:title=" ">
<polygon fill="white" stroke="#666666" points="290,-30 176,-30 176,0 290,0 290,-30"/>
<text text-anchor="start" x="184" y="-18" font-family="Helvetica,sans-Serif" font-size="10.00">hgps::build_risk_factor</text>
<text text-anchor="middle" x="233" y="-7" font-family="Helvetica,sans-Serif" font-size="10.00">_module</text>
</a>
</g>
</g>
<!-- Node1&#45;&gt;Node2 -->
<g id="edge1" class="edge">
<title>Node1&#45;&gt;Node2</title>
<path fill="none" stroke="#63b8ff" d="M314.35,-15C306.22,-15 298.02,-15 290.11,-15"/>
<polygon fill="#63b8ff" stroke="#63b8ff" points="314.24,-18.5 324.24,-15 314.24,-11.5 314.24,-18.5"/>
</g>
<!-- Node3 -->
<g id="node3" class="node">
<title>Node3</title>
<g id="a_node3"><a xlink:href="namespacehgps.html#aef8e3dcb57d8eabeb75baa00c53f6b98" target="_top" xlink:title="Create the default simulation modules factory for production usage.">
<polygon fill="white" stroke="#666666" points="140,-30 0,-30 0,0 140,0 140,-30"/>
<text text-anchor="start" x="8" y="-18" font-family="Helvetica,sans-Serif" font-size="10.00">hgps::get_default_simulation</text>
<text text-anchor="middle" x="70" y="-7" font-family="Helvetica,sans-Serif" font-size="10.00">_module_factory</text>
</a>
</g>
</g>
<!-- Node2&#45;&gt;Node3 -->
<g id="edge2" class="edge">
<title>Node2&#45;&gt;Node3</title>
<path fill="none" stroke="#63b8ff" d="M164.25,-15C156.33,-15 148.25,-15 140.31,-15"/>
<polygon fill="#63b8ff" stroke="#63b8ff" points="164.18,-18.5 174.18,-15 164.18,-11.5 164.18,-18.5"/>
</g>
</g>
</svg>
