<?xml version="1.0" encoding="UTF-8" standalone="no"?>
<!DOCTYPE svg PUBLIC "-//W3C//DTD SVG 1.1//EN"
 "http://www.w3.org/Graphics/SVG/1.1/DTD/svg11.dtd">
<!-- Generated by graphviz version 7.0.6 (20230106.0513)
 -->
<!-- Title: hgps::EventMessageVisitor::visit Pages: 1 -->
<svg width="317pt" height="182pt"
 viewBox="0.00 0.00 317.00 182.00" xmlns="http://www.w3.org/2000/svg" xmlns:xlink="http://www.w3.org/1999/xlink">
<g id="graph0" class="graph" transform="scale(1 1) rotate(0) translate(4 178)">
<title>hgps::EventMessageVisitor::visit</title>
<!-- Node1 -->
<g id="node1" class="node">
<title>Node1</title>
<g id="a_node1"><a xlink:title=" ">
<polygon fill="#999999" stroke="#666666" points="309,-102 174,-102 174,-72 309,-72 309,-102"/>
<text text-anchor="start" x="182" y="-90" font-family="Helvetica,sans-Serif" font-size="10.00">hgps::EventMessageVisitor</text>
<text text-anchor="middle" x="241.5" y="-79" font-family="Helvetica,sans-Serif" font-size="10.00">::visit</text>
</a>
</g>
</g>
<!-- Node2 -->
<g id="node2" class="node">
<title>Node2</title>
<g id="a_node2"><a xlink:href="structhgps_1_1_error_event_message.html#a2ee505893217c4509114ad44a93d7f4b" target="_top" xlink:title=" ">
<polygon fill="white" stroke="#666666" points="133,-174 5,-174 5,-144 133,-144 133,-174"/>
<text text-anchor="start" x="13" y="-162" font-family="Helvetica,sans-Serif" font-size="10.00">hgps::ErrorEventMessage</text>
<text text-anchor="middle" x="69" y="-151" font-family="Helvetica,sans-Serif" font-size="10.00">::accept</text>
</a>
</g>
</g>
<!-- Node1&#45;&gt;Node2 -->
<g id="edge1" class="edge">
<title>Node1&#45;&gt;Node2</title>
<path fill="none" stroke="#63b8ff" d="M199.7,-107.23C181.08,-116.18 158.62,-126.56 138,-135 130.82,-137.94 123.12,-140.87 115.59,-143.61"/>
<polygon fill="#63b8ff" stroke="#63b8ff" points="201.07,-110.46 208.54,-102.96 198.01,-104.16 201.07,-110.46"/>
</g>
<!-- Node3 -->
<g id="node3" class="node">
<title>Node3</title>
<g id="a_node3"><a xlink:href="structhgps_1_1_info_event_message.html#a30fa106e698b2b11556a540267afee12" target="_top" xlink:title=" ">
<polygon fill="white" stroke="#666666" points="130,-126 8,-126 8,-96 130,-96 130,-126"/>
<text text-anchor="start" x="16" y="-114" font-family="Helvetica,sans-Serif" font-size="10.00">hgps::InfoEventMessage</text>
<text text-anchor="middle" x="69" y="-103" font-family="Helvetica,sans-Serif" font-size="10.00">::accept</text>
</a>
</g>
</g>
<!-- Node1&#45;&gt;Node3 -->
<g id="edge2" class="edge">
<title>Node1&#45;&gt;Node3</title>
<path fill="none" stroke="#63b8ff" d="M162.45,-97.99C151.66,-99.5 140.72,-101.04 130.32,-102.51"/>
<polygon fill="#63b8ff" stroke="#63b8ff" points="162.69,-101.49 172.1,-96.63 161.71,-94.56 162.69,-101.49"/>
</g>
<!-- Node4 -->
<g id="node4" class="node">
<title>Node4</title>
<g id="a_node4"><a xlink:href="structhgps_1_1_result_event_message.html#af26b6d2cb6afdeed1065e4e9e9f3c38d" target="_top" xlink:title=" ">
<polygon fill="white" stroke="#666666" points="136.5,-78 1.5,-78 1.5,-48 136.5,-48 136.5,-78"/>
<text text-anchor="start" x="9.5" y="-66" font-family="Helvetica,sans-Serif" font-size="10.00">hgps::ResultEventMessage</text>
<text text-anchor="middle" x="69" y="-55" font-family="Helvetica,sans-Serif" font-size="10.00">::accept</text>
</a>
</g>
</g>
<!-- Node1&#45;&gt;Node4 -->
<g id="edge3" class="edge">
<title>Node1&#45;&gt;Node4</title>
<path fill="none" stroke="#63b8ff" d="M162.49,-76.02C153.97,-74.82 145.35,-73.61 136.98,-72.43"/>
<polygon fill="#63b8ff" stroke="#63b8ff" points="161.71,-79.44 172.1,-77.37 162.69,-72.51 161.71,-79.44"/>
</g>
<!-- Node5 -->
<g id="node5" class="node">
<title>Node5</title>
<g id="a_node5"><a xlink:href="structhgps_1_1_runner_event_message.html#ad9b0042cabe3f2fb671338f65d84ebfa" target="_top" xlink:title=" ">
<polygon fill="white" stroke="#666666" points="138,-30 0,-30 0,0 138,0 138,-30"/>
<text text-anchor="start" x="8" y="-18" font-family="Helvetica,sans-Serif" font-size="10.00">hgps::RunnerEventMessage</text>
<text text-anchor="middle" x="69" y="-7" font-family="Helvetica,sans-Serif" font-size="10.00">::accept</text>
</a>
</g>
</g>
<!-- Node1&#45;&gt;Node5 -->
<g id="edge4" class="edge">
<title>Node1&#45;&gt;Node5</title>
<path fill="none" stroke="#63b8ff" d="M199.7,-66.77C181.08,-57.82 158.62,-47.44 138,-39 130.82,-36.06 123.12,-33.13 115.59,-30.39"/>
<polygon fill="#63b8ff" stroke="#63b8ff" points="198.01,-69.84 208.54,-71.04 201.07,-63.54 198.01,-69.84"/>
</g>
</g>
</svg>
