<?xml version="1.0" encoding="UTF-8" standalone="no"?>
<!DOCTYPE svg PUBLIC "-//W3C//DTD SVG 1.1//EN"
 "http://www.w3.org/Graphics/SVG/1.1/DTD/svg11.dtd">
<!-- Generated by graphviz version 2.43.0 (0)
 -->
<!-- Title: hgps::RiskFactorModelDefinition Pages: 1 -->
<svg width="369pt" height="137pt"
 viewBox="0.00 0.00 369.00 137.00" xmlns="http://www.w3.org/2000/svg" xmlns:xlink="http://www.w3.org/1999/xlink">
<g id="graph0" class="graph" transform="scale(1 1) rotate(0) translate(4 133)">
<title>hgps::RiskFactorModelDefinition</title>
<!-- Node1 -->
<g id="node1" class="node">
<title>Node1</title>
<g id="a_node1"><a xlink:title="Risk factor model definition interface.">
<polygon fill="#bfbfbf" stroke="black" points="0,-55 0,-74 173,-74 173,-55 0,-55"/>
<text text-anchor="middle" x="86.5" y="-62" font-family="Helvetica,sans-Serif" font-size="10.00">hgps::RiskFactorModelDefinition</text>
</a>
</g>
</g>
<!-- Node2 -->
<g id="node2" class="node">
<title>Node2</title>
<g id="a_node2"><a xlink:href="classhgps_1_1EnergyBalanceModelDefinition.html" target="_top" xlink:title="Defines the energy balance model data type.">
<polygon fill="none" stroke="black" points="210.5,-98.5 210.5,-128.5 359.5,-128.5 359.5,-98.5 210.5,-98.5"/>
<text text-anchor="start" x="218.5" y="-116.5" font-family="Helvetica,sans-Serif" font-size="10.00">hgps::EnergyBalanceModel</text>
<text text-anchor="middle" x="285" y="-105.5" font-family="Helvetica,sans-Serif" font-size="10.00">Definition</text>
</a>
</g>
</g>
<!-- Node1&#45;&gt;Node2 -->
<g id="edge1" class="edge">
<title>Node1&#45;&gt;Node2</title>
<path fill="none" stroke="midnightblue" d="M135.68,-76.51C162.23,-83.14 195.44,-91.42 223.7,-98.46"/>
<polygon fill="midnightblue" stroke="midnightblue" points="136.4,-73.09 125.85,-74.06 134.71,-79.88 136.4,-73.09"/>
</g>
<!-- Node3 -->
<g id="node3" class="node">
<title>Node3</title>
<g id="a_node3"><a xlink:href="classhgps_1_1HierarchicalLinearModelDefinition.html" target="_top" xlink:title="Defines the full hierarchical linear model data type.">
<polygon fill="none" stroke="black" points="218,-49.5 218,-79.5 352,-79.5 352,-49.5 218,-49.5"/>
<text text-anchor="start" x="226" y="-67.5" font-family="Helvetica,sans-Serif" font-size="10.00">hgps::HierarchicalLinear</text>
<text text-anchor="middle" x="285" y="-56.5" font-family="Helvetica,sans-Serif" font-size="10.00">ModelDefinition</text>
</a>
</g>
</g>
<!-- Node1&#45;&gt;Node3 -->
<g id="edge2" class="edge">
<title>Node1&#45;&gt;Node3</title>
<path fill="none" stroke="midnightblue" d="M183.35,-64.5C195.04,-64.5 206.76,-64.5 217.87,-64.5"/>
<polygon fill="midnightblue" stroke="midnightblue" points="183.12,-61 173.12,-64.5 183.12,-68 183.12,-61"/>
</g>
<!-- Node4 -->
<g id="node4" class="node">
<title>Node4</title>
<g id="a_node4"><a xlink:href="classhgps_1_1LiteHierarchicalModelDefinition.html" target="_top" xlink:title="Defines the lite hierarchical linear model data type.">
<polygon fill="none" stroke="black" points="209,-0.5 209,-30.5 361,-30.5 361,-0.5 209,-0.5"/>
<text text-anchor="start" x="217" y="-18.5" font-family="Helvetica,sans-Serif" font-size="10.00">hgps::LiteHierarchicalModel</text>
<text text-anchor="middle" x="285" y="-7.5" font-family="Helvetica,sans-Serif" font-size="10.00">Definition</text>
</a>
</g>
</g>
<!-- Node1&#45;&gt;Node4 -->
<g id="edge3" class="edge">
<title>Node1&#45;&gt;Node4</title>
<path fill="none" stroke="midnightblue" d="M135.68,-52.49C162.23,-45.86 195.44,-37.58 223.7,-30.54"/>
<polygon fill="midnightblue" stroke="midnightblue" points="134.71,-49.12 125.85,-54.94 136.4,-55.91 134.71,-49.12"/>
</g>
</g>
</svg>
