<?xml version="1.0" encoding="UTF-8" standalone="no"?>
<!DOCTYPE svg PUBLIC "-//W3C//DTD SVG 1.1//EN"
 "http://www.w3.org/Graphics/SVG/1.1/DTD/svg11.dtd">
<!-- Generated by graphviz version 2.43.0 (0)
 -->
<!-- Title: hgps::RuntimeContext::time_now Pages: 1 -->
<svg width="346pt" height="400pt"
 viewBox="0.00 0.00 346.00 399.50" xmlns="http://www.w3.org/2000/svg" xmlns:xlink="http://www.w3.org/1999/xlink">
<g id="graph0" class="graph" transform="scale(1 1) rotate(0) translate(4 395.5)">
<title>hgps::RuntimeContext::time_now</title>
<!-- Node1 -->
<g id="node1" class="node">
<title>Node1</title>
<g id="a_node1"><a xlink:title=" ">
<polygon fill="#bfbfbf" stroke="black" points="213,-186.5 213,-216.5 338,-216.5 338,-186.5 213,-186.5"/>
<text text-anchor="start" x="221" y="-204.5" font-family="Helvetica,sans-Serif" font-size="10.00">hgps::RuntimeContext</text>
<text text-anchor="middle" x="275.5" y="-193.5" font-family="Helvetica,sans-Serif" font-size="10.00">::time_now</text>
</a>
</g>
</g>
<!-- Node2 -->
<g id="node2" class="node">
<title>Node2</title>
<g id="a_node2"><a xlink:href="classhgps_1_1HealthGPS.html#a5914cc38a777cdb4d694f52ba90bc054" target="_top" xlink:title=" ">
<polygon fill="none" stroke="black" points="29,-372 29,-391 148,-391 148,-372 29,-372"/>
<text text-anchor="middle" x="88.5" y="-379" font-family="Helvetica,sans-Serif" font-size="10.00">hgps::HealthGPS::fini</text>
</a>
</g>
</g>
<!-- Node1&#45;&gt;Node2 -->
<g id="edge1" class="edge">
<title>Node1&#45;&gt;Node2</title>
<path fill="none" stroke="midnightblue" d="M266.52,-226.48C253.69,-262.46 224.93,-328.28 177,-362.5 168.52,-368.55 158.49,-372.74 148.3,-375.62"/>
<polygon fill="midnightblue" stroke="midnightblue" points="269.93,-227.35 269.86,-216.76 263.31,-225.08 269.93,-227.35"/>
</g>
<!-- Node3 -->
<g id="node3" class="node">
<title>Node3</title>
<g id="a_node3"><a xlink:href="classhgps_1_1HealthGPS.html#a2c23ed4aa847824887750396e4f28637" target="_top" xlink:title=" ">
<polygon fill="none" stroke="black" points="29,-334 29,-353 148,-353 148,-334 29,-334"/>
<text text-anchor="middle" x="88.5" y="-341" font-family="Helvetica,sans-Serif" font-size="10.00">hgps::HealthGPS::init</text>
</a>
</g>
</g>
<!-- Node1&#45;&gt;Node3 -->
<g id="edge2" class="edge">
<title>Node1&#45;&gt;Node3</title>
<path fill="none" stroke="midnightblue" d="M262.14,-225.62C246.34,-253.91 216.27,-300.03 177,-324.5 168.29,-329.93 158.26,-333.82 148.16,-336.6"/>
<polygon fill="midnightblue" stroke="midnightblue" points="265.25,-227.23 266.94,-216.77 259.1,-223.89 265.25,-227.23"/>
</g>
<!-- Node4 -->
<g id="node4" class="node">
<title>Node4</title>
<g id="a_node4"><a xlink:href="classhgps_1_1DefaultCancerModel.html#aec3e6ee1bc0d3dc97761638df893b82b" target="_top" xlink:title="Initialises the average relative risks once all diseases status were initialised.">
<polygon fill="none" stroke="black" points="0.5,-284.5 0.5,-314.5 176.5,-314.5 176.5,-284.5 0.5,-284.5"/>
<text text-anchor="start" x="8.5" y="-302.5" font-family="Helvetica,sans-Serif" font-size="10.00">hgps::DefaultCancerModel</text>
<text text-anchor="middle" x="88.5" y="-291.5" font-family="Helvetica,sans-Serif" font-size="10.00">::initialise_average_relative_risk</text>
</a>
</g>
</g>
<!-- Node1&#45;&gt;Node4 -->
<g id="edge3" class="edge">
<title>Node1&#45;&gt;Node4</title>
<path fill="none" stroke="midnightblue" d="M251.09,-223.4C232.34,-239.86 204.68,-261.84 177,-275.5 170.22,-278.85 162.91,-281.78 155.5,-284.34"/>
<polygon fill="midnightblue" stroke="midnightblue" points="253.43,-225.99 258.55,-216.72 248.76,-220.78 253.43,-225.99"/>
</g>
<!-- Node5 -->
<g id="node5" class="node">
<title>Node5</title>
<g id="a_node5"><a xlink:href="classhgps_1_1DefaultDiseaseModel.html#a31040870542eb041053bb70d14e4afc4" target="_top" xlink:title="Initialises the average relative risks once all diseases status were initialised.">
<polygon fill="none" stroke="black" points="0.5,-235.5 0.5,-265.5 176.5,-265.5 176.5,-235.5 0.5,-235.5"/>
<text text-anchor="start" x="8.5" y="-253.5" font-family="Helvetica,sans-Serif" font-size="10.00">hgps::DefaultDiseaseModel</text>
<text text-anchor="middle" x="88.5" y="-242.5" font-family="Helvetica,sans-Serif" font-size="10.00">::initialise_average_relative_risk</text>
</a>
</g>
</g>
<!-- Node1&#45;&gt;Node5 -->
<g id="edge4" class="edge">
<title>Node1&#45;&gt;Node5</title>
<path fill="none" stroke="midnightblue" d="M207.96,-219.12C187.72,-224.48 165.68,-230.32 146.16,-235.49"/>
<polygon fill="midnightblue" stroke="midnightblue" points="208.97,-222.48 217.74,-216.53 207.17,-215.71 208.97,-222.48"/>
</g>
<!-- Node6 -->
<g id="node6" class="node">
<title>Node6</title>
<g id="a_node6"><a xlink:href="classhgps_1_1DefaultCancerModel.html#a59790779c6af498fed3df81b168cd504" target="_top" xlink:title="Initialises the population disease status.">
<polygon fill="none" stroke="black" points="15.5,-186.5 15.5,-216.5 161.5,-216.5 161.5,-186.5 15.5,-186.5"/>
<text text-anchor="start" x="23.5" y="-204.5" font-family="Helvetica,sans-Serif" font-size="10.00">hgps::DefaultCancerModel</text>
<text text-anchor="middle" x="88.5" y="-193.5" font-family="Helvetica,sans-Serif" font-size="10.00">::initialise_disease_status</text>
</a>
</g>
</g>
<!-- Node1&#45;&gt;Node6 -->
<g id="edge5" class="edge">
<title>Node1&#45;&gt;Node6</title>
<path fill="none" stroke="midnightblue" d="M202.74,-201.5C189.28,-201.5 175.2,-201.5 161.73,-201.5"/>
<polygon fill="midnightblue" stroke="midnightblue" points="202.9,-205 212.9,-201.5 202.9,-198 202.9,-205"/>
</g>
<!-- Node7 -->
<g id="node7" class="node">
<title>Node7</title>
<g id="a_node7"><a xlink:href="classhgps_1_1DefaultDiseaseModel.html#a2b8381459ae01f7ebf9b6023f1ad38db" target="_top" xlink:title="Initialises the population disease status.">
<polygon fill="none" stroke="black" points="13,-137.5 13,-167.5 164,-167.5 164,-137.5 13,-137.5"/>
<text text-anchor="start" x="21" y="-155.5" font-family="Helvetica,sans-Serif" font-size="10.00">hgps::DefaultDiseaseModel</text>
<text text-anchor="middle" x="88.5" y="-144.5" font-family="Helvetica,sans-Serif" font-size="10.00">::initialise_disease_status</text>
</a>
</g>
</g>
<!-- Node1&#45;&gt;Node7 -->
<g id="edge6" class="edge">
<title>Node1&#45;&gt;Node7</title>
<path fill="none" stroke="midnightblue" d="M207.96,-183.88C187.72,-178.52 165.68,-172.68 146.16,-167.51"/>
<polygon fill="midnightblue" stroke="midnightblue" points="207.17,-187.29 217.74,-186.47 208.97,-180.52 207.17,-187.29"/>
</g>
<!-- Node8 -->
<g id="node8" class="node">
<title>Node8</title>
<g id="a_node8"><a xlink:href="classhgps_1_1HealthGPS.html#af36af9f5aacf623d283f72e9a7b2c411" target="_top" xlink:title=" ">
<polygon fill="none" stroke="black" points="20,-99 20,-118 157,-118 157,-99 20,-99"/>
<text text-anchor="middle" x="88.5" y="-106" font-family="Helvetica,sans-Serif" font-size="10.00">hgps::HealthGPS::update</text>
</a>
</g>
</g>
<!-- Node1&#45;&gt;Node8 -->
<g id="edge7" class="edge">
<title>Node1&#45;&gt;Node8</title>
<path fill="none" stroke="midnightblue" d="M250.94,-179.36C232.26,-162.97 204.75,-141.35 177,-128.5 167.67,-124.18 157.33,-120.76 147.13,-118.06"/>
<polygon fill="midnightblue" stroke="midnightblue" points="248.85,-182.18 258.63,-186.25 253.52,-176.97 248.85,-182.18"/>
</g>
<!-- Node9 -->
<g id="node9" class="node">
<title>Node9</title>
<g id="a_node9"><a xlink:href="classhgps_1_1PopulationModule.html#aee3e42276edae4477f41ca360b090323" target="_top" xlink:title="Updates the virtual population status.">
<polygon fill="none" stroke="black" points="21.5,-49.5 21.5,-79.5 155.5,-79.5 155.5,-49.5 21.5,-49.5"/>
<text text-anchor="start" x="29.5" y="-67.5" font-family="Helvetica,sans-Serif" font-size="10.00">hgps::PopulationModule</text>
<text text-anchor="middle" x="88.5" y="-56.5" font-family="Helvetica,sans-Serif" font-size="10.00">::update_population</text>
</a>
</g>
</g>
<!-- Node1&#45;&gt;Node9 -->
<g id="edge8" class="edge">
<title>Node1&#45;&gt;Node9</title>
<path fill="none" stroke="midnightblue" d="M259.83,-177.65C242.94,-152.14 212.84,-112.29 177,-89.5 170.47,-85.35 163.23,-81.87 155.8,-78.95"/>
<polygon fill="midnightblue" stroke="midnightblue" points="257.08,-179.84 265.45,-186.34 262.96,-176.04 257.08,-179.84"/>
</g>
<!-- Node10 -->
<g id="node10" class="node">
<title>Node10</title>
<g id="a_node10"><a xlink:href="classhgps_1_1EnergyBalanceHierarchicalModel.html#a3b51c4a34acc3382b17d6c251884e619" target="_top" xlink:title="Update risk factors for population.">
<polygon fill="none" stroke="black" points="0,-0.5 0,-30.5 177,-30.5 177,-0.5 0,-0.5"/>
<text text-anchor="start" x="8" y="-18.5" font-family="Helvetica,sans-Serif" font-size="10.00">hgps::EnergyBalanceHierarchical</text>
<text text-anchor="middle" x="88.5" y="-7.5" font-family="Helvetica,sans-Serif" font-size="10.00">Model::update_risk_factors</text>
</a>
</g>
</g>
<!-- Node1&#45;&gt;Node10 -->
<g id="edge9" class="edge">
<title>Node1&#45;&gt;Node10</title>
<path fill="none" stroke="midnightblue" d="M266.23,-176.92C253.02,-141.45 223.8,-76.25 177,-40.5 171.98,-36.66 166.39,-33.42 160.53,-30.67"/>
<polygon fill="midnightblue" stroke="midnightblue" points="263,-178.27 269.67,-186.5 269.58,-175.91 263,-178.27"/>
</g>
</g>
</svg>
