<?xml version="1.0" encoding="UTF-8" standalone="no"?>
<!DOCTYPE svg PUBLIC "-//W3C//DTD SVG 1.1//EN"
 "http://www.w3.org/Graphics/SVG/1.1/DTD/svg11.dtd">
<!-- Generated by graphviz version 7.0.6 (20230106.0513)
 -->
<!-- Title: hgps::PopulationModule::PopulationModule Pages: 1 -->
<svg width="280pt" height="124pt"
 viewBox="0.00 0.00 280.00 124.00" xmlns="http://www.w3.org/2000/svg" xmlns:xlink="http://www.w3.org/1999/xlink">
<g id="graph0" class="graph" transform="scale(1 1) rotate(0) translate(4 120)">
<title>hgps::PopulationModule::PopulationModule</title>
<!-- Node1 -->
<g id="node1" class="node">
<title>Node1</title>
<g id="a_node1"><a xlink:title=" ">
<polygon fill="#999999" stroke="#666666" points="121,-73 0,-73 0,-43 121,-43 121,-73"/>
<text text-anchor="start" x="8" y="-61" font-family="Helvetica,sans-Serif" font-size="10.00">hgps::PopulationModule</text>
<text text-anchor="middle" x="60.5" y="-50" font-family="Helvetica,sans-Serif" font-size="10.00">::PopulationModule</text>
</a>
</g>
</g>
<!-- Node2 -->
<g id="node2" class="node">
<title>Node2</title>
<g id="a_node2"><a xlink:href="classhgps_1_1_life_table.html#a3a5874b9d68337c799d05f12f6a9f7d8" target="_top" xlink:title=" ">
<polygon fill="white" stroke="#666666" points="266.5,-116 162.5,-116 162.5,-86 266.5,-86 266.5,-116"/>
<text text-anchor="start" x="170.5" y="-104" font-family="Helvetica,sans-Serif" font-size="10.00">hgps::LifeTable::age</text>
<text text-anchor="middle" x="214.5" y="-93" font-family="Helvetica,sans-Serif" font-size="10.00">_limits</text>
</a>
</g>
</g>
<!-- Node1&#45;&gt;Node2 -->
<g id="edge1" class="edge">
<title>Node1&#45;&gt;Node2</title>
<path fill="none" stroke="#63b8ff" d="M115.95,-73.4C127.37,-76.63 139.51,-80.07 151.19,-83.37"/>
<polygon fill="#63b8ff" stroke="#63b8ff" points="150.19,-86.73 160.77,-86.08 152.1,-79.99 150.19,-86.73"/>
</g>
<!-- Node3 -->
<g id="node3" class="node">
<title>Node3</title>
<g id="a_node3"><a xlink:href="classhgps_1_1_life_table.html#a4c892da22073f72a3cd9981e1e61cae0" target="_top" xlink:title=" ">
<polygon fill="white" stroke="#666666" points="272,-67.5 157,-67.5 157,-48.5 272,-48.5 272,-67.5"/>
<text text-anchor="middle" x="214.5" y="-55.5" font-family="Helvetica,sans-Serif" font-size="10.00">hgps::LifeTable::empty</text>
</a>
</g>
</g>
<!-- Node1&#45;&gt;Node3 -->
<g id="edge2" class="edge">
<title>Node1&#45;&gt;Node3</title>
<path fill="none" stroke="#63b8ff" d="M121.14,-58C129.05,-58 137.22,-58 145.26,-58"/>
<polygon fill="#63b8ff" stroke="#63b8ff" points="145.01,-61.5 155.01,-58 145.01,-54.5 145.01,-61.5"/>
</g>
<!-- Node4 -->
<g id="node4" class="node">
<title>Node4</title>
<g id="a_node4"><a xlink:href="classhgps_1_1_life_table.html#aa1eeedafec56d98b192b4b4af0dcd19d" target="_top" xlink:title=" ">
<polygon fill="white" stroke="#666666" points="268,-30 161,-30 161,0 268,0 268,-30"/>
<text text-anchor="start" x="169" y="-18" font-family="Helvetica,sans-Serif" font-size="10.00">hgps::LifeTable::time</text>
<text text-anchor="middle" x="214.5" y="-7" font-family="Helvetica,sans-Serif" font-size="10.00">_limits</text>
</a>
</g>
</g>
<!-- Node1&#45;&gt;Node4 -->
<g id="edge3" class="edge">
<title>Node1&#45;&gt;Node4</title>
<path fill="none" stroke="#63b8ff" d="M115.95,-42.6C126.87,-39.51 138.44,-36.23 149.65,-33.06"/>
<polygon fill="#63b8ff" stroke="#63b8ff" points="150.58,-36.44 159.25,-30.35 148.68,-29.7 150.58,-36.44"/>
</g>
</g>
</svg>
