<?xml version="1.0" encoding="UTF-8" standalone="no"?>
<!DOCTYPE svg PUBLIC "-//W3C//DTD SVG 1.1//EN"
 "http://www.w3.org/Graphics/SVG/1.1/DTD/svg11.dtd">
<!-- Generated by graphviz version 7.0.6 (20230106.0513)
 -->
<!-- Title: hgps::CachedRepository::register_lite_linear_model_definition Pages: 1 -->
<svg width="340pt" height="49pt"
 viewBox="0.00 0.00 340.00 49.00" xmlns="http://www.w3.org/2000/svg" xmlns:xlink="http://www.w3.org/1999/xlink">
<g id="graph0" class="graph" transform="scale(1 1) rotate(0) translate(4 45)">
<title>hgps::CachedRepository::register_lite_linear_model_definition</title>
<!-- Node1 -->
<g id="node1" class="node">
<title>Node1</title>
<g id="a_node1"><a xlink:title=" ">
<polygon fill="#999999" stroke="#666666" points="332,-41 209,-41 209,0 332,0 332,-41"/>
<text text-anchor="start" x="217" y="-29" font-family="Helvetica,sans-Serif" font-size="10.00">hgps::CachedRepository</text>
<text text-anchor="start" x="217" y="-18" font-family="Helvetica,sans-Serif" font-size="10.00">::register_lite_linear</text>
<text text-anchor="middle" x="270.5" y="-7" font-family="Helvetica,sans-Serif" font-size="10.00">_model_definition</text>
</a>
</g>
</g>
<!-- Node2 -->
<g id="node2" class="node">
<title>Node2</title>
<g id="a_node2"><a xlink:href="model__parser_8cpp.html#a63714a3138c1b3676cfb45b209522ce4" target="_top" xlink:title=" ">
<polygon fill="white" stroke="#666666" points="173,-35.5 74,-35.5 74,-5.5 173,-5.5 173,-35.5"/>
<text text-anchor="start" x="82" y="-23.5" font-family="Helvetica,sans-Serif" font-size="10.00">register_risk_factor</text>
<text text-anchor="middle" x="123.5" y="-12.5" font-family="Helvetica,sans-Serif" font-size="10.00">_model_definitions</text>
</a>
</g>
</g>
<!-- Node1&#45;&gt;Node2 -->
<g id="edge1" class="edge">
<title>Node1&#45;&gt;Node2</title>
<path fill="none" stroke="#63b8ff" d="M197.42,-20.5C189.31,-20.5 181.19,-20.5 173.46,-20.5"/>
<polygon fill="#63b8ff" stroke="#63b8ff" points="197.33,-24 207.33,-20.5 197.33,-17 197.33,-24"/>
</g>
<!-- Node3 -->
<g id="node3" class="node">
<title>Node3</title>
<g id="a_node3"><a xlink:href="program_8cpp.html#a0ddf1224851353fc92bfbff6f499fa97" target="_top" xlink:title=" ">
<polygon fill="white" stroke="#666666" points="38,-30 0,-30 0,-11 38,-11 38,-30"/>
<text text-anchor="middle" x="19" y="-18" font-family="Helvetica,sans-Serif" font-size="10.00">main</text>
</a>
</g>
</g>
<!-- Node2&#45;&gt;Node3 -->
<g id="edge2" class="edge">
<title>Node2&#45;&gt;Node3</title>
<path fill="none" stroke="#63b8ff" d="M62.18,-20.5C53.55,-20.5 45.27,-20.5 38.37,-20.5"/>
<polygon fill="#63b8ff" stroke="#63b8ff" points="62.14,-24 72.14,-20.5 62.14,-17 62.14,-24"/>
</g>
</g>
</svg>
