<?xml version="1.0" encoding="UTF-8" standalone="no"?>
<!DOCTYPE svg PUBLIC "-//W3C//DTD SVG 1.1//EN"
 "http://www.w3.org/Graphics/SVG/1.1/DTD/svg11.dtd">
<!-- Generated by graphviz version 2.43.0 (0)
 -->
<!-- Title: hgps::CachedRepository::register_linear_model_definition Pages: 1 -->
<svg width="398pt" height="50pt"
 viewBox="0.00 0.00 398.00 50.00" xmlns="http://www.w3.org/2000/svg" xmlns:xlink="http://www.w3.org/1999/xlink">
<g id="graph0" class="graph" transform="scale(1 1) rotate(0) translate(4 46)">
<title>hgps::CachedRepository::register_linear_model_definition</title>
<!-- Node1 -->
<g id="node1" class="node">
<title>Node1</title>
<g id="a_node1"><a xlink:title="Register a user provided full hierarchical linear model definition.">
<polygon fill="#bfbfbf" stroke="black" points="256,-0.5 256,-41.5 390,-41.5 390,-0.5 256,-0.5"/>
<text text-anchor="start" x="264" y="-29.5" font-family="Helvetica,sans-Serif" font-size="10.00">hgps::CachedRepository</text>
<text text-anchor="start" x="264" y="-18.5" font-family="Helvetica,sans-Serif" font-size="10.00">::register_linear_model</text>
<text text-anchor="middle" x="323" y="-7.5" font-family="Helvetica,sans-Serif" font-size="10.00">_definition</text>
</a>
</g>
</g>
<!-- Node2 -->
<g id="node2" class="node">
<title>Node2</title>
<g id="a_node2"><a xlink:href="namespacehost.html#af872a17121b8dc250c7397fb6af921cf" target="_top" xlink:title="Registers a risk factor model definition with the repository.">
<polygon fill="none" stroke="black" points="77,-6 77,-36 220,-36 220,-6 77,-6"/>
<text text-anchor="start" x="85" y="-24" font-family="Helvetica,sans-Serif" font-size="10.00">host::register_risk</text>
<text text-anchor="middle" x="148.5" y="-13" font-family="Helvetica,sans-Serif" font-size="10.00">_factor_model_definitions</text>
</a>
</g>
</g>
<!-- Node1&#45;&gt;Node2 -->
<g id="edge1" class="edge">
<title>Node1&#45;&gt;Node2</title>
<path fill="none" stroke="midnightblue" d="M245.56,-21C237.09,-21 228.5,-21 220.11,-21"/>
<polygon fill="midnightblue" stroke="midnightblue" points="245.8,-24.5 255.8,-21 245.8,-17.5 245.8,-24.5"/>
</g>
<!-- Node3 -->
<g id="node3" class="node">
<title>Node3</title>
<g id="a_node3"><a xlink:href="program_8cpp.html#a0ddf1224851353fc92bfbff6f499fa97" target="_top" xlink:title="Health&#45;GPS host application entry point.">
<polygon fill="none" stroke="black" points="0,-11.5 0,-30.5 41,-30.5 41,-11.5 0,-11.5"/>
<text text-anchor="middle" x="20.5" y="-18.5" font-family="Helvetica,sans-Serif" font-size="10.00">main</text>
</a>
</g>
</g>
<!-- Node2&#45;&gt;Node3 -->
<g id="edge2" class="edge">
<title>Node2&#45;&gt;Node3</title>
<path fill="none" stroke="midnightblue" d="M66.74,-21C57.29,-21 48.42,-21 41.08,-21"/>
<polygon fill="midnightblue" stroke="midnightblue" points="66.77,-24.5 76.77,-21 66.77,-17.5 66.77,-24.5"/>
</g>
</g>
</svg>
