<?xml version="1.0" encoding="UTF-8" standalone="no"?>
<!DOCTYPE svg PUBLIC "-//W3C//DTD SVG 1.1//EN"
 "http://www.w3.org/Graphics/SVG/1.1/DTD/svg11.dtd">
<!-- Generated by graphviz version 7.0.6 (20230106.0513)
 -->
<!-- Title: hgps::RuntimeContext::population Pages: 1 -->
<svg width="500pt" height="675pt"
 viewBox="0.00 0.00 500.00 674.50" xmlns="http://www.w3.org/2000/svg" xmlns:xlink="http://www.w3.org/1999/xlink">
<g id="graph0" class="graph" transform="scale(1 1) rotate(0) translate(4 670.5)">
<title>hgps::RuntimeContext::population</title>
<!-- Node1 -->
<g id="node1" class="node">
<title>Node1</title>
<g id="a_node1"><a xlink:title=" ">
<polygon fill="#999999" stroke="#666666" points="492,-353.5 379,-353.5 379,-323.5 492,-323.5 492,-353.5"/>
<text text-anchor="start" x="387" y="-341.5" font-family="Helvetica,sans-Serif" font-size="10.00">hgps::RuntimeContext</text>
<text text-anchor="middle" x="435.5" y="-330.5" font-family="Helvetica,sans-Serif" font-size="10.00">::population</text>
</a>
</g>
</g>
<!-- Node2 -->
<g id="node2" class="node">
<title>Node2</title>
<g id="a_node2"><a xlink:href="classhgps_1_1_riskfactor_adjustment_model.html#a1cfc148566739100cb533e439fbdd00e" target="_top" xlink:title=" ">
<polygon fill="white" stroke="#666666" points="331,-666.5 194,-666.5 194,-636.5 331,-636.5 331,-666.5"/>
<text text-anchor="start" x="202" y="-654.5" font-family="Helvetica,sans-Serif" font-size="10.00">hgps::RiskfactorAdjustment</text>
<text text-anchor="middle" x="262.5" y="-643.5" font-family="Helvetica,sans-Serif" font-size="10.00">Model::Apply</text>
</a>
</g>
</g>
<!-- Node1&#45;&gt;Node2 -->
<g id="edge1" class="edge">
<title>Node1&#45;&gt;Node2</title>
<path fill="none" stroke="#63b8ff" d="M433.94,-365.39C431.28,-422.05 417.01,-554.48 343,-627.5 339.51,-630.94 335.55,-633.89 331.29,-636.42"/>
<polygon fill="#63b8ff" stroke="#63b8ff" points="437.44,-365.53 434.31,-355.41 430.44,-365.27 437.44,-365.53"/>
</g>
<!-- Node4 -->
<g id="node4" class="node">
<title>Node4</title>
<g id="a_node4"><a xlink:href="classhgps_1_1_static_hierarchical_linear_model.html#aed69f3d22a37908a2e350b73f4b3dfd0" target="_top" xlink:title="Generates the initial risk factors for a population and newborns.">
<polygon fill="white" stroke="#666666" points="322.5,-618 202.5,-618 202.5,-577 322.5,-577 322.5,-618"/>
<text text-anchor="start" x="210.5" y="-606" font-family="Helvetica,sans-Serif" font-size="10.00">hgps::StaticHierarchical</text>
<text text-anchor="start" x="210.5" y="-595" font-family="Helvetica,sans-Serif" font-size="10.00">LinearModel::generate</text>
<text text-anchor="middle" x="262.5" y="-584" font-family="Helvetica,sans-Serif" font-size="10.00">_risk_factors</text>
</a>
</g>
</g>
<!-- Node1&#45;&gt;Node4 -->
<g id="edge3" class="edge">
<title>Node1&#45;&gt;Node4</title>
<path fill="none" stroke="#63b8ff" d="M431.07,-365.12C423.6,-412.45 401.57,-511.6 343,-568.5 337.2,-574.13 330.23,-578.68 322.85,-582.35"/>
<polygon fill="#63b8ff" stroke="#63b8ff" points="434.53,-365.64 432.52,-355.24 427.61,-364.62 434.53,-365.64"/>
</g>
<!-- Node5 -->
<g id="node5" class="node">
<title>Node5</title>
<g id="a_node5"><a xlink:href="classhgps_1_1_health_g_p_s.html#a2c23ed4aa847824887750396e4f28637" target="_top" xlink:title=" ">
<polygon fill="white" stroke="#666666" points="318,-559 207,-559 207,-540 318,-540 318,-559"/>
<text text-anchor="middle" x="262.5" y="-547" font-family="Helvetica,sans-Serif" font-size="10.00">hgps::HealthGPS::init</text>
</a>
</g>
</g>
<!-- Node1&#45;&gt;Node5 -->
<g id="edge4" class="edge">
<title>Node1&#45;&gt;Node5</title>
<path fill="none" stroke="#63b8ff" d="M429.44,-365.17C420.06,-407 395.9,-487.69 343,-530.5 335.83,-536.3 327.18,-540.38 318.25,-543.24"/>
<polygon fill="#63b8ff" stroke="#63b8ff" points="432.84,-365.98 431.48,-355.47 426,-364.53 432.84,-365.98"/>
</g>
<!-- Node6 -->
<g id="node6" class="node">
<title>Node6</title>
<g id="a_node6"><a xlink:href="classhgps_1_1_default_cancer_model.html#aec3e6ee1bc0d3dc97761638df893b82b" target="_top" xlink:title="Initialises the average relative risks once all diseases status were initialised.">
<polygon fill="white" stroke="#666666" points="338.5,-521.5 186.5,-521.5 186.5,-491.5 338.5,-491.5 338.5,-521.5"/>
<text text-anchor="start" x="194.5" y="-509.5" font-family="Helvetica,sans-Serif" font-size="10.00">hgps::DefaultCancerModel</text>
<text text-anchor="middle" x="262.5" y="-498.5" font-family="Helvetica,sans-Serif" font-size="10.00">::initialise_average_relative_risk</text>
</a>
</g>
</g>
<!-- Node1&#45;&gt;Node6 -->
<g id="edge5" class="edge">
<title>Node1&#45;&gt;Node6</title>
<path fill="none" stroke="#63b8ff" d="M424.88,-364.03C411.43,-396.31 383.95,-451.43 343,-482.5 338.64,-485.81 333.81,-488.67 328.77,-491.13"/>
<polygon fill="#63b8ff" stroke="#63b8ff" points="428.01,-365.63 428.49,-355.04 421.52,-363.02 428.01,-365.63"/>
</g>
<!-- Node7 -->
<g id="node7" class="node">
<title>Node7</title>
<g id="a_node7"><a xlink:href="classhgps_1_1_default_disease_model.html#a31040870542eb041053bb70d14e4afc4" target="_top" xlink:title="Initialises the average relative risks once all diseases status were initialised.">
<polygon fill="white" stroke="#666666" points="338.5,-473.5 186.5,-473.5 186.5,-443.5 338.5,-443.5 338.5,-473.5"/>
<text text-anchor="start" x="194.5" y="-461.5" font-family="Helvetica,sans-Serif" font-size="10.00">hgps::DefaultDiseaseModel</text>
<text text-anchor="middle" x="262.5" y="-450.5" font-family="Helvetica,sans-Serif" font-size="10.00">::initialise_average_relative_risk</text>
</a>
</g>
</g>
<!-- Node1&#45;&gt;Node7 -->
<g id="edge6" class="edge">
<title>Node1&#45;&gt;Node7</title>
<path fill="none" stroke="#63b8ff" d="M417.22,-362.79C400.55,-384.54 373.41,-415.8 343,-434.5 337.72,-437.75 331.97,-440.58 326.06,-443.05"/>
<polygon fill="#63b8ff" stroke="#63b8ff" points="419.83,-365.15 423.01,-355.04 414.22,-360.96 419.83,-365.15"/>
</g>
<!-- Node8 -->
<g id="node8" class="node">
<title>Node8</title>
<g id="a_node8"><a xlink:href="classhgps_1_1_default_cancer_model.html#a59790779c6af498fed3df81b168cd504" target="_top" xlink:title="Initialises the population disease status.">
<polygon fill="white" stroke="#666666" points="328,-425.5 197,-425.5 197,-395.5 328,-395.5 328,-425.5"/>
<text text-anchor="start" x="205" y="-413.5" font-family="Helvetica,sans-Serif" font-size="10.00">hgps::DefaultCancerModel</text>
<text text-anchor="middle" x="262.5" y="-402.5" font-family="Helvetica,sans-Serif" font-size="10.00">::initialise_disease_status</text>
</a>
</g>
</g>
<!-- Node1&#45;&gt;Node8 -->
<g id="edge7" class="edge">
<title>Node1&#45;&gt;Node8</title>
<path fill="none" stroke="#63b8ff" d="M398.51,-359.41C381.95,-368.49 361.84,-378.8 343,-386.5 335.53,-389.56 327.52,-392.42 319.57,-395.04"/>
<polygon fill="#63b8ff" stroke="#63b8ff" points="399.96,-362.61 406.99,-354.68 396.55,-356.49 399.96,-362.61"/>
</g>
<!-- Node9 -->
<g id="node9" class="node">
<title>Node9</title>
<g id="a_node9"><a xlink:href="classhgps_1_1_default_disease_model.html#a2b8381459ae01f7ebf9b6023f1ad38db" target="_top" xlink:title="Initialises the population disease status.">
<polygon fill="white" stroke="#666666" points="330,-377.5 195,-377.5 195,-347.5 330,-347.5 330,-377.5"/>
<text text-anchor="start" x="203" y="-365.5" font-family="Helvetica,sans-Serif" font-size="10.00">hgps::DefaultDiseaseModel</text>
<text text-anchor="middle" x="262.5" y="-354.5" font-family="Helvetica,sans-Serif" font-size="10.00">::initialise_disease_status</text>
</a>
</g>
</g>
<!-- Node1&#45;&gt;Node9 -->
<g id="edge8" class="edge">
<title>Node1&#45;&gt;Node9</title>
<path fill="none" stroke="#63b8ff" d="M367.48,-347.91C355.27,-349.62 342.54,-351.41 330.34,-353.12"/>
<polygon fill="#63b8ff" stroke="#63b8ff" points="367.59,-351.42 377.01,-346.57 366.62,-344.49 367.59,-351.42"/>
</g>
<!-- Node10 -->
<g id="node10" class="node">
<title>Node10</title>
<g id="a_node10"><a xlink:href="classhgps_1_1_analysis_module.html#ad8a0a99804d6d01a1ed39c3e4f080999" target="_top" xlink:title="Initialises the virtual population.">
<polygon fill="white" stroke="#666666" points="319,-329.5 206,-329.5 206,-299.5 319,-299.5 319,-329.5"/>
<text text-anchor="start" x="214" y="-317.5" font-family="Helvetica,sans-Serif" font-size="10.00">hgps::AnalysisModule</text>
<text text-anchor="middle" x="262.5" y="-306.5" font-family="Helvetica,sans-Serif" font-size="10.00">::initialise_population</text>
</a>
</g>
</g>
<!-- Node1&#45;&gt;Node10 -->
<g id="edge9" class="edge">
<title>Node1&#45;&gt;Node10</title>
<path fill="none" stroke="#63b8ff" d="M367.16,-329.05C351.31,-326.82 334.6,-324.48 319.33,-322.34"/>
<polygon fill="#63b8ff" stroke="#63b8ff" points="366.62,-332.51 377.01,-330.43 367.59,-325.58 366.62,-332.51"/>
</g>
<!-- Node11 -->
<g id="node11" class="node">
<title>Node11</title>
<g id="a_node11"><a xlink:href="classhgps_1_1_population_module.html#a2fa854bc1b6185fa06418677bf0c2ab8" target="_top" xlink:title="Initialises the virtual population.">
<polygon fill="white" stroke="#666666" points="323,-281.5 202,-281.5 202,-251.5 323,-251.5 323,-281.5"/>
<text text-anchor="start" x="210" y="-269.5" font-family="Helvetica,sans-Serif" font-size="10.00">hgps::PopulationModule</text>
<text text-anchor="middle" x="262.5" y="-258.5" font-family="Helvetica,sans-Serif" font-size="10.00">::initialise_population</text>
</a>
</g>
</g>
<!-- Node1&#45;&gt;Node11 -->
<g id="edge10" class="edge">
<title>Node1&#45;&gt;Node11</title>
<path fill="none" stroke="#63b8ff" d="M398.51,-317.59C381.95,-308.51 361.84,-298.2 343,-290.5 335.53,-287.44 327.52,-284.58 319.57,-281.96"/>
<polygon fill="#63b8ff" stroke="#63b8ff" points="396.55,-320.51 406.99,-322.32 399.96,-314.39 396.55,-320.51"/>
</g>
<!-- Node12 -->
<g id="node12" class="node">
<title>Node12</title>
<g id="a_node12"><a xlink:href="classhgps_1_1_s_e_s_noise_module.html#ae0a5e4a940571744b83d420bcb5f99b1" target="_top" xlink:title="Initialises the virtual population.">
<polygon fill="white" stroke="#666666" points="322.5,-233.5 202.5,-233.5 202.5,-203.5 322.5,-203.5 322.5,-233.5"/>
<text text-anchor="start" x="210.5" y="-221.5" font-family="Helvetica,sans-Serif" font-size="10.00">hgps::SESNoiseModule</text>
<text text-anchor="middle" x="262.5" y="-210.5" font-family="Helvetica,sans-Serif" font-size="10.00">::initialise_population</text>
</a>
</g>
</g>
<!-- Node1&#45;&gt;Node12 -->
<g id="edge11" class="edge">
<title>Node1&#45;&gt;Node12</title>
<path fill="none" stroke="#63b8ff" d="M417.22,-314.21C400.55,-292.46 373.41,-261.2 343,-242.5 336.74,-238.65 329.81,-235.38 322.74,-232.61"/>
<polygon fill="#63b8ff" stroke="#63b8ff" points="414.22,-316.04 423.01,-321.96 419.83,-311.85 414.22,-316.04"/>
</g>
<!-- Node13 -->
<g id="node13" class="node">
<title>Node13</title>
<g id="a_node13"><a xlink:href="classhgps_1_1_s_e_s_noise_module.html#ad24d0002d518f941159a9873fe918c44" target="_top" xlink:title="Updates the virtual population status.">
<polygon fill="white" stroke="#666666" points="322.5,-185.5 202.5,-185.5 202.5,-155.5 322.5,-155.5 322.5,-185.5"/>
<text text-anchor="start" x="210.5" y="-173.5" font-family="Helvetica,sans-Serif" font-size="10.00">hgps::SESNoiseModule</text>
<text text-anchor="middle" x="262.5" y="-162.5" font-family="Helvetica,sans-Serif" font-size="10.00">::update_population</text>
</a>
</g>
</g>
<!-- Node1&#45;&gt;Node13 -->
<g id="edge12" class="edge">
<title>Node1&#45;&gt;Node13</title>
<path fill="none" stroke="#63b8ff" d="M424.88,-312.97C411.43,-280.69 383.95,-225.57 343,-194.5 336.91,-189.88 329.94,-186.15 322.7,-183.13"/>
<polygon fill="#63b8ff" stroke="#63b8ff" points="421.52,-313.98 428.49,-321.96 428.01,-311.37 421.52,-313.98"/>
</g>
<!-- Node14 -->
<g id="node14" class="node">
<title>Node14</title>
<g id="a_node14"><a xlink:href="classhgps_1_1_population_module.html#aee3e42276edae4477f41ca360b090323" target="_top" xlink:title="Updates the virtual population status.">
<polygon fill="white" stroke="#666666" points="323,-137.5 202,-137.5 202,-107.5 323,-107.5 323,-137.5"/>
<text text-anchor="start" x="210" y="-125.5" font-family="Helvetica,sans-Serif" font-size="10.00">hgps::PopulationModule</text>
<text text-anchor="middle" x="262.5" y="-114.5" font-family="Helvetica,sans-Serif" font-size="10.00">::update_population</text>
</a>
</g>
</g>
<!-- Node1&#45;&gt;Node14 -->
<g id="edge13" class="edge">
<title>Node1&#45;&gt;Node14</title>
<path fill="none" stroke="#63b8ff" d="M429.14,-312.19C419.34,-270.85 394.63,-190.84 343,-146.5 337.2,-141.52 330.4,-137.58 323.25,-134.45"/>
<polygon fill="#63b8ff" stroke="#63b8ff" points="425.68,-312.76 431.28,-321.75 432.51,-311.23 425.68,-312.76"/>
</g>
<!-- Node15 -->
<g id="node15" class="node">
<title>Node15</title>
<g id="a_node15"><a xlink:href="classhgps_1_1_energy_balance_hierarchical_model.html#a3b51c4a34acc3382b17d6c251884e619" target="_top" xlink:title="Update risk factors for population.">
<polygon fill="white" stroke="#666666" points="343,-89.5 182,-89.5 182,-59.5 343,-59.5 343,-89.5"/>
<text text-anchor="start" x="190" y="-77.5" font-family="Helvetica,sans-Serif" font-size="10.00">hgps::EnergyBalanceHierarchical</text>
<text text-anchor="middle" x="262.5" y="-66.5" font-family="Helvetica,sans-Serif" font-size="10.00">Model::update_risk_factors</text>
</a>
</g>
</g>
<!-- Node1&#45;&gt;Node15 -->
<g id="edge14" class="edge">
<title>Node1&#45;&gt;Node15</title>
<path fill="none" stroke="#63b8ff" d="M431.93,-311.75C425.74,-262.4 405.57,-156.78 343,-98.5 339.41,-95.16 335.38,-92.28 331.07,-89.81"/>
<polygon fill="#63b8ff" stroke="#63b8ff" points="428.43,-311.98 433.04,-321.51 435.38,-311.18 428.43,-311.98"/>
</g>
<!-- Node16 -->
<g id="node16" class="node">
<title>Node16</title>
<g id="a_node16"><a xlink:href="classhgps_1_1_static_hierarchical_linear_model.html#a2501846cb781316081a03317bfabfeca" target="_top" xlink:title="Update risk factors for population.">
<polygon fill="white" stroke="#666666" points="325,-41 200,-41 200,0 325,0 325,-41"/>
<text text-anchor="start" x="208" y="-29" font-family="Helvetica,sans-Serif" font-size="10.00">hgps::StaticHierarchical</text>
<text text-anchor="start" x="208" y="-18" font-family="Helvetica,sans-Serif" font-size="10.00">LinearModel::update_risk</text>
<text text-anchor="middle" x="262.5" y="-7" font-family="Helvetica,sans-Serif" font-size="10.00">_factors</text>
</a>
</g>
</g>
<!-- Node1&#45;&gt;Node16 -->
<g id="edge15" class="edge">
<title>Node1&#45;&gt;Node16</title>
<path fill="none" stroke="#63b8ff" d="M433.5,-311.69C429.98,-255.74 414.14,-125.53 343,-50.5 337.92,-45.15 331.8,-40.74 325.23,-37.12"/>
<polygon fill="#63b8ff" stroke="#63b8ff" points="429.99,-311.74 434.02,-321.54 436.98,-311.37 429.99,-311.74"/>
</g>
<!-- Node3 -->
<g id="node3" class="node">
<title>Node3</title>
<g id="a_node3"><a xlink:href="classhgps_1_1_risk_factor_module.html#a84146832e73a95c800de619eafceeabc" target="_top" xlink:title="Apply baseline risk factor adjustments to population.">
<polygon fill="white" stroke="#666666" points="146,-666.5 0,-666.5 0,-636.5 146,-636.5 146,-666.5"/>
<text text-anchor="start" x="8" y="-654.5" font-family="Helvetica,sans-Serif" font-size="10.00">hgps::RiskFactorModule</text>
<text text-anchor="middle" x="73" y="-643.5" font-family="Helvetica,sans-Serif" font-size="10.00">::apply_baseline_adjustments</text>
</a>
</g>
</g>
<!-- Node2&#45;&gt;Node3 -->
<g id="edge2" class="edge">
<title>Node2&#45;&gt;Node3</title>
<path fill="none" stroke="#63b8ff" d="M182.28,-651.5C170.4,-651.5 158.2,-651.5 146.47,-651.5"/>
<polygon fill="#63b8ff" stroke="#63b8ff" points="182.03,-655 192.03,-651.5 182.03,-648 182.03,-655"/>
</g>
</g>
</svg>
