<?xml version="1.0" encoding="UTF-8" standalone="no"?>
<!DOCTYPE svg PUBLIC "-//W3C//DTD SVG 1.1//EN"
 "http://www.w3.org/Graphics/SVG/1.1/DTD/svg11.dtd">
<!-- Generated by graphviz version 7.0.6 (20230106.0513)
 -->
<!-- Title: hgps::HealthGPS::init Pages: 1 -->
<svg width="461pt" height="574pt"
 viewBox="0.00 0.00 461.00 574.00" xmlns="http://www.w3.org/2000/svg" xmlns:xlink="http://www.w3.org/1999/xlink">
<g id="graph0" class="graph" transform="scale(1 1) rotate(0) translate(4 570)">
<title>hgps::HealthGPS::init</title>
<!-- Node1 -->
<g id="node1" class="node">
<title>Node1</title>
<g id="a_node1"><a xlink:title=" ">
<polygon fill="#999999" stroke="#666666" points="111,-297.5 0,-297.5 0,-278.5 111,-278.5 111,-297.5"/>
<text text-anchor="middle" x="55.5" y="-285.5" font-family="Helvetica,sans-Serif" font-size="10.00">hgps::HealthGPS::init</text>
</a>
</g>
</g>
<!-- Node2 -->
<g id="node2" class="node">
<title>Node2</title>
<g id="a_node2"><a xlink:href="classhgps_1_1_runtime_metric.html#ab532edb9d29ad922f31ef13aff96a5ef" target="_top" xlink:title=" ">
<polygon fill="white" stroke="#666666" points="271,-566 164,-566 164,-536 271,-536 271,-566"/>
<text text-anchor="start" x="172" y="-554" font-family="Helvetica,sans-Serif" font-size="10.00">hgps::RuntimeMetric</text>
<text text-anchor="middle" x="217.5" y="-543" font-family="Helvetica,sans-Serif" font-size="10.00">::clear</text>
</a>
</g>
</g>
<!-- Node1&#45;&gt;Node2 -->
<g id="edge1" class="edge">
<title>Node1&#45;&gt;Node2</title>
<path fill="none" stroke="#63b8ff" d="M57.3,-297.78C60.77,-333.68 77.61,-459.62 147,-527 149.08,-529.02 151.35,-530.88 153.74,-532.57"/>
<polygon fill="#63b8ff" stroke="#63b8ff" points="151.82,-535.51 162.21,-537.6 155.4,-529.49 151.82,-535.51"/>
</g>
<!-- Node3 -->
<g id="node3" class="node">
<title>Node3</title>
<g id="a_node3"><a xlink:href="classhgps_1_1_scenario.html#a2c6544f327294f09f3eaa7a3e8f4e972" target="_top" xlink:title=" ">
<polygon fill="white" stroke="#666666" points="272,-517.5 163,-517.5 163,-498.5 272,-498.5 272,-517.5"/>
<text text-anchor="middle" x="217.5" y="-505.5" font-family="Helvetica,sans-Serif" font-size="10.00">hgps::Scenario::clear</text>
</a>
</g>
</g>
<!-- Node1&#45;&gt;Node3 -->
<g id="edge2" class="edge">
<title>Node1&#45;&gt;Node3</title>
<path fill="none" stroke="#63b8ff" d="M57.91,-297.7C63.13,-330.1 84.46,-435.54 147,-489 148.89,-490.62 150.91,-492.1 153.02,-493.46"/>
<polygon fill="#63b8ff" stroke="#63b8ff" points="150.99,-496.34 161.46,-497.93 154.27,-490.15 150.99,-496.34"/>
</g>
<!-- Node4 -->
<g id="node4" class="node">
<title>Node4</title>
<g id="a_node4"><a xlink:href="classhgps_1_1_runtime_context.html#a1a283e5db3f10c4296241cc957122c87" target="_top" xlink:title=" ">
<polygon fill="white" stroke="#666666" points="274,-480 161,-480 161,-450 274,-450 274,-480"/>
<text text-anchor="start" x="169" y="-468" font-family="Helvetica,sans-Serif" font-size="10.00">hgps::RuntimeContext</text>
<text text-anchor="middle" x="217.5" y="-457" font-family="Helvetica,sans-Serif" font-size="10.00">::current_run</text>
</a>
</g>
</g>
<!-- Node1&#45;&gt;Node4 -->
<g id="edge3" class="edge">
<title>Node1&#45;&gt;Node4</title>
<path fill="none" stroke="#63b8ff" d="M59.61,-297.84C68.61,-324.77 97.27,-400.41 147,-441 148.3,-442.06 149.65,-443.07 151.03,-444.04"/>
<polygon fill="#63b8ff" stroke="#63b8ff" points="149.03,-446.92 159.41,-449.06 152.62,-440.92 149.03,-446.92"/>
</g>
<!-- Node5 -->
<g id="node5" class="node">
<title>Node5</title>
<g id="a_node5"><a xlink:href="classhgps_1_1_population.html#a44664f20bf1ee475b0ecbe35846b3371" target="_top" xlink:title=" ">
<polygon fill="white" stroke="#666666" points="288,-431.5 147,-431.5 147,-412.5 288,-412.5 288,-431.5"/>
<text text-anchor="middle" x="217.5" y="-419.5" font-family="Helvetica,sans-Serif" font-size="10.00">hgps::Population::initial_size</text>
</a>
</g>
</g>
<!-- Node1&#45;&gt;Node5 -->
<g id="edge4" class="edge">
<title>Node1&#45;&gt;Node5</title>
<path fill="none" stroke="#63b8ff" d="M61.34,-297.74C72.92,-319.98 104.44,-374.78 147,-403 149.42,-404.6 151.97,-406.07 154.61,-407.42"/>
<polygon fill="#63b8ff" stroke="#63b8ff" points="153.18,-410.61 163.74,-411.41 155.98,-404.2 153.18,-410.61"/>
</g>
<!-- Node6 -->
<g id="node6" class="node">
<title>Node6</title>
<g id="a_node6"><a xlink:href="structhgps_1_1_simulation_definition.html#a6744348b0f2deec4ce75b7c08968c127" target="_top" xlink:title=" ">
<polygon fill="white" stroke="#666666" points="282,-394 153,-394 153,-364 282,-364 282,-394"/>
<text text-anchor="start" x="161" y="-382" font-family="Helvetica,sans-Serif" font-size="10.00">hgps::SimulationDefinition</text>
<text text-anchor="middle" x="217.5" y="-371" font-family="Helvetica,sans-Serif" font-size="10.00">::inputs</text>
</a>
</g>
</g>
<!-- Node1&#45;&gt;Node6 -->
<g id="edge5" class="edge">
<title>Node1&#45;&gt;Node6</title>
<path fill="none" stroke="#63b8ff" d="M67.46,-297.87C83.77,-312.14 115.87,-338.6 147,-355 149.71,-356.43 152.53,-357.8 155.4,-359.11"/>
<polygon fill="#63b8ff" stroke="#63b8ff" points="154.03,-362.33 164.6,-363.02 156.76,-355.89 154.03,-362.33"/>
</g>
<!-- Node7 -->
<g id="node7" class="node">
<title>Node7</title>
<g id="a_node7"><a xlink:href="classhgps_1_1_runtime_context.html#a0e888d326a217dcf378f1cb29eecf3b0" target="_top" xlink:title=" ">
<polygon fill="white" stroke="#666666" points="274,-346 161,-346 161,-316 274,-316 274,-346"/>
<text text-anchor="start" x="169" y="-334" font-family="Helvetica,sans-Serif" font-size="10.00">hgps::RuntimeContext</text>
<text text-anchor="middle" x="217.5" y="-323" font-family="Helvetica,sans-Serif" font-size="10.00">::metrics</text>
</a>
</g>
</g>
<!-- Node1&#45;&gt;Node7 -->
<g id="edge6" class="edge">
<title>Node1&#45;&gt;Node7</title>
<path fill="none" stroke="#63b8ff" d="M93.61,-297.97C110.36,-302.47 130.66,-307.93 149.9,-313.1"/>
<polygon fill="#63b8ff" stroke="#63b8ff" points="148.74,-316.41 159.3,-315.63 150.55,-309.65 148.74,-316.41"/>
</g>
<!-- Node8 -->
<g id="node8" class="node">
<title>Node8</title>
<g id="a_node8"><a xlink:href="classhgps_1_1_simulation.html#a405fa37a049c3a5e1ee9f16c8c8e2a80" target="_top" xlink:title=" ">
<polygon fill="white" stroke="#666666" points="277,-297.5 158,-297.5 158,-278.5 277,-278.5 277,-297.5"/>
<text text-anchor="middle" x="217.5" y="-285.5" font-family="Helvetica,sans-Serif" font-size="10.00">hgps::Simulation::name</text>
</a>
</g>
</g>
<!-- Node1&#45;&gt;Node8 -->
<g id="edge7" class="edge">
<title>Node1&#45;&gt;Node8</title>
<path fill="none" stroke="#63b8ff" d="M111.12,-288C122.5,-288 134.66,-288 146.51,-288"/>
<polygon fill="#63b8ff" stroke="#63b8ff" points="146.24,-291.5 156.24,-288 146.24,-284.5 146.24,-291.5"/>
</g>
<!-- Node10 -->
<g id="node10" class="node">
<title>Node10</title>
<g id="a_node10"><a xlink:href="classhgps_1_1_runtime_context.html#a346d7fdd33294a4836c708b1073df653" target="_top" xlink:title=" ">
<polygon fill="white" stroke="#666666" points="274,-260 161,-260 161,-230 274,-230 274,-260"/>
<text text-anchor="start" x="169" y="-248" font-family="Helvetica,sans-Serif" font-size="10.00">hgps::RuntimeContext</text>
<text text-anchor="middle" x="217.5" y="-237" font-family="Helvetica,sans-Serif" font-size="10.00">::population</text>
</a>
</g>
</g>
<!-- Node1&#45;&gt;Node10 -->
<g id="edge9" class="edge">
<title>Node1&#45;&gt;Node10</title>
<path fill="none" stroke="#63b8ff" d="M93.61,-278.03C110.36,-273.53 130.66,-268.07 149.9,-262.9"/>
<polygon fill="#63b8ff" stroke="#63b8ff" points="150.55,-266.35 159.3,-260.37 148.74,-259.59 150.55,-266.35"/>
</g>
<!-- Node11 -->
<g id="node11" class="node">
<title>Node11</title>
<g id="a_node11"><a xlink:href="classhgps_1_1_runtime_context.html#ac0b304648b1a5fa47ebf4dfe348cfaa7" target="_top" xlink:title=" ">
<polygon fill="white" stroke="#666666" points="274,-212 161,-212 161,-182 274,-182 274,-212"/>
<text text-anchor="start" x="169" y="-200" font-family="Helvetica,sans-Serif" font-size="10.00">hgps::RuntimeContext</text>
<text text-anchor="middle" x="217.5" y="-189" font-family="Helvetica,sans-Serif" font-size="10.00">::publish</text>
</a>
</g>
</g>
<!-- Node1&#45;&gt;Node11 -->
<g id="edge10" class="edge">
<title>Node1&#45;&gt;Node11</title>
<path fill="none" stroke="#63b8ff" d="M67.46,-278.13C83.77,-263.86 115.87,-237.4 147,-221 149.71,-219.57 152.53,-218.2 155.4,-216.89"/>
<polygon fill="#63b8ff" stroke="#63b8ff" points="156.76,-220.11 164.6,-212.98 154.03,-213.67 156.76,-220.11"/>
</g>
<!-- Node12 -->
<g id="node12" class="node">
<title>Node12</title>
<g id="a_node12"><a xlink:href="classhgps_1_1_runtime_context.html#a188cf9cf3d8ad05b7e1b4c46ff0dfe7e" target="_top" xlink:title=" ">
<polygon fill="white" stroke="#666666" points="274,-164 161,-164 161,-134 274,-134 274,-164"/>
<text text-anchor="start" x="169" y="-152" font-family="Helvetica,sans-Serif" font-size="10.00">hgps::RuntimeContext</text>
<text text-anchor="middle" x="217.5" y="-141" font-family="Helvetica,sans-Serif" font-size="10.00">::scenario</text>
</a>
</g>
</g>
<!-- Node1&#45;&gt;Node12 -->
<g id="edge11" class="edge">
<title>Node1&#45;&gt;Node12</title>
<path fill="none" stroke="#63b8ff" d="M61.65,-278.13C73.65,-256.08 105.59,-202.45 147,-173 148.57,-171.88 150.2,-170.81 151.88,-169.79"/>
<polygon fill="#63b8ff" stroke="#63b8ff" points="153.38,-172.95 160.54,-165.13 150.07,-166.78 153.38,-172.95"/>
</g>
<!-- Node13 -->
<g id="node13" class="node">
<title>Node13</title>
<g id="a_node13"><a xlink:href="classhgps_1_1_runtime_context.html#a25badead30720b70f16be9776a13cbfa" target="_top" xlink:title=" ">
<polygon fill="white" stroke="#666666" points="274,-116 161,-116 161,-86 274,-86 274,-116"/>
<text text-anchor="start" x="169" y="-104" font-family="Helvetica,sans-Serif" font-size="10.00">hgps::RuntimeContext</text>
<text text-anchor="middle" x="217.5" y="-93" font-family="Helvetica,sans-Serif" font-size="10.00">::set_current_time</text>
</a>
</g>
</g>
<!-- Node1&#45;&gt;Node13 -->
<g id="edge12" class="edge">
<title>Node1&#45;&gt;Node13</title>
<path fill="none" stroke="#63b8ff" d="M59.17,-278.34C67.39,-250.39 94.93,-168.7 147,-125 148.28,-123.92 149.62,-122.89 150.99,-121.91"/>
<polygon fill="#63b8ff" stroke="#63b8ff" points="152.6,-125.03 159.32,-116.84 148.95,-119.05 152.6,-125.03"/>
</g>
<!-- Node14 -->
<g id="node14" class="node">
<title>Node14</title>
<g id="a_node14"><a xlink:href="classhgps_1_1_model_input.html#a4e4bfd49abcbe8999f611d2235fcef4e" target="_top" xlink:title=" ">
<polygon fill="white" stroke="#666666" points="287.5,-67.5 147.5,-67.5 147.5,-48.5 287.5,-48.5 287.5,-67.5"/>
<text text-anchor="middle" x="217.5" y="-55.5" font-family="Helvetica,sans-Serif" font-size="10.00">hgps::ModelInput::start_time</text>
</a>
</g>
</g>
<!-- Node1&#45;&gt;Node14 -->
<g id="edge13" class="edge">
<title>Node1&#45;&gt;Node14</title>
<path fill="none" stroke="#63b8ff" d="M57.68,-278.3C62.28,-244.88 82.06,-133.53 147,-77 148.46,-75.73 150,-74.54 151.6,-73.44"/>
<polygon fill="#63b8ff" stroke="#63b8ff" points="153.05,-76.64 160.02,-68.66 149.6,-70.55 153.05,-76.64"/>
</g>
<!-- Node15 -->
<g id="node15" class="node">
<title>Node15</title>
<g id="a_node15"><a xlink:href="classhgps_1_1_runtime_context.html#a5eb9de9f095d934ababb9119d506b781" target="_top" xlink:title=" ">
<polygon fill="white" stroke="#666666" points="274,-30 161,-30 161,0 274,0 274,-30"/>
<text text-anchor="start" x="169" y="-18" font-family="Helvetica,sans-Serif" font-size="10.00">hgps::RuntimeContext</text>
<text text-anchor="middle" x="217.5" y="-7" font-family="Helvetica,sans-Serif" font-size="10.00">::time_now</text>
</a>
</g>
</g>
<!-- Node1&#45;&gt;Node15 -->
<g id="edge14" class="edge">
<title>Node1&#45;&gt;Node15</title>
<path fill="none" stroke="#63b8ff" d="M57.19,-278.14C60.28,-241.36 76.02,-110.65 147,-40 148.37,-38.63 149.83,-37.34 151.35,-36.11"/>
<polygon fill="#63b8ff" stroke="#63b8ff" points="153.07,-39.17 159.42,-30.69 149.17,-33.36 153.07,-39.17"/>
</g>
<!-- Node9 -->
<g id="node9" class="node">
<title>Node9</title>
<g id="a_node9"><a xlink:href="structhgps_1_1_simulation_definition.html#af3cfaccd2244487a2002ae4fd2f0fdf7" target="_top" xlink:title=" ">
<polygon fill="white" stroke="#666666" points="453,-303 324,-303 324,-273 453,-273 453,-303"/>
<text text-anchor="start" x="332" y="-291" font-family="Helvetica,sans-Serif" font-size="10.00">hgps::SimulationDefinition</text>
<text text-anchor="middle" x="388.5" y="-280" font-family="Helvetica,sans-Serif" font-size="10.00">::identifier</text>
</a>
</g>
</g>
<!-- Node8&#45;&gt;Node9 -->
<g id="edge8" class="edge">
<title>Node8&#45;&gt;Node9</title>
<path fill="none" stroke="#63b8ff" d="M277.13,-288C288.55,-288 300.66,-288 312.52,-288"/>
<polygon fill="#63b8ff" stroke="#63b8ff" points="312.27,-291.5 322.27,-288 312.27,-284.5 312.27,-291.5"/>
</g>
</g>
</svg>
