<?xml version="1.0" encoding="UTF-8" standalone="no"?>
<!DOCTYPE svg PUBLIC "-//W3C//DTD SVG 1.1//EN"
 "http://www.w3.org/Graphics/SVG/1.1/DTD/svg11.dtd">
<!-- Generated by graphviz version 7.0.6 (20230106.0513)
 -->
<!-- Title: hgps::Repository::manager Pages: 1 -->
<svg width="467pt" height="104pt"
 viewBox="0.00 0.00 467.00 104.00" xmlns="http://www.w3.org/2000/svg" xmlns:xlink="http://www.w3.org/1999/xlink">
<g id="graph0" class="graph" transform="scale(1 1) rotate(0) translate(4 100)">
<title>hgps::Repository::manager</title>
<!-- Node1 -->
<g id="node1" class="node">
<title>Node1</title>
<g id="a_node1"><a xlink:title=" ">
<polygon fill="#999999" stroke="#666666" points="459,-57.5 325,-57.5 325,-38.5 459,-38.5 459,-57.5"/>
<text text-anchor="middle" x="392" y="-45.5" font-family="Helvetica,sans-Serif" font-size="10.00">hgps::Repository::manager</text>
</a>
</g>
</g>
<!-- Node2 -->
<g id="node2" class="node">
<title>Node2</title>
<g id="a_node2"><a xlink:href="namespacehgps.html#a00f39dc81f9c78a17b520811df508289" target="_top" xlink:title=" ">
<polygon fill="white" stroke="#666666" points="285,-96 180,-96 180,-66 285,-66 285,-96"/>
<text text-anchor="start" x="188" y="-84" font-family="Helvetica,sans-Serif" font-size="10.00">hgps::build_analysis</text>
<text text-anchor="middle" x="232.5" y="-73" font-family="Helvetica,sans-Serif" font-size="10.00">_module</text>
</a>
</g>
</g>
<!-- Node1&#45;&gt;Node2 -->
<g id="edge1" class="edge">
<title>Node1&#45;&gt;Node2</title>
<path fill="none" stroke="#63b8ff" d="M332.33,-60.29C316.93,-63.52 300.43,-66.98 285.41,-70.12"/>
<polygon fill="#63b8ff" stroke="#63b8ff" points="332.77,-63.78 341.84,-58.3 331.33,-56.93 332.77,-63.78"/>
</g>
<!-- Node4 -->
<g id="node4" class="node">
<title>Node4</title>
<g id="a_node4"><a xlink:href="namespacehgps.html#ad7d042f1937872f2f8b344915584a7a9" target="_top" xlink:title=" ">
<polygon fill="white" stroke="#666666" points="289,-30 176,-30 176,0 289,0 289,-30"/>
<text text-anchor="start" x="184" y="-18" font-family="Helvetica,sans-Serif" font-size="10.00">hgps::build_population</text>
<text text-anchor="middle" x="232.5" y="-7" font-family="Helvetica,sans-Serif" font-size="10.00">_module</text>
</a>
</g>
</g>
<!-- Node1&#45;&gt;Node4 -->
<g id="edge3" class="edge">
<title>Node1&#45;&gt;Node4</title>
<path fill="none" stroke="#63b8ff" d="M332.28,-35.7C318.22,-32.75 303.25,-29.61 289.32,-26.7"/>
<polygon fill="#63b8ff" stroke="#63b8ff" points="331.33,-39.07 341.84,-37.7 332.77,-32.22 331.33,-39.07"/>
</g>
<!-- Node3 -->
<g id="node3" class="node">
<title>Node3</title>
<g id="a_node3"><a xlink:href="namespacehgps.html#aef8e3dcb57d8eabeb75baa00c53f6b98" target="_top" xlink:title="Create the default simulation modules factory for production usage.">
<polygon fill="white" stroke="#666666" points="140,-63 0,-63 0,-33 140,-33 140,-63"/>
<text text-anchor="start" x="8" y="-51" font-family="Helvetica,sans-Serif" font-size="10.00">hgps::get_default_simulation</text>
<text text-anchor="middle" x="70" y="-40" font-family="Helvetica,sans-Serif" font-size="10.00">_module_factory</text>
</a>
</g>
</g>
<!-- Node2&#45;&gt;Node3 -->
<g id="edge2" class="edge">
<title>Node2&#45;&gt;Node3</title>
<path fill="none" stroke="#63b8ff" d="M168.71,-68.09C159.43,-66.18 149.83,-64.21 140.42,-62.27"/>
<polygon fill="#63b8ff" stroke="#63b8ff" points="167.85,-71.49 178.35,-70.07 169.26,-64.63 167.85,-71.49"/>
</g>
<!-- Node4&#45;&gt;Node3 -->
<g id="edge5" class="edge">
<title>Node4&#45;&gt;Node3</title>
<path fill="none" stroke="#63b8ff" d="M164.66,-28.74C156.66,-30.39 148.48,-32.07 140.44,-33.72"/>
<polygon fill="#63b8ff" stroke="#63b8ff" points="165.24,-32.2 174.33,-26.75 163.83,-25.34 165.24,-32.2"/>
</g>
<!-- Node4&#45;&gt;Node4 -->
<g id="edge4" class="edge">
<title>Node4&#45;&gt;Node4</title>
<path fill="none" stroke="#63b8ff" d="M259.41,-41.61C255.1,-45.43 246.13,-48 232.5,-48 207.58,-48 198.23,-39.41 204.46,-30.28"/>
<polygon fill="#63b8ff" stroke="#63b8ff" points="262.88,-42.08 260.39,-31.78 255.92,-41.39 262.88,-42.08"/>
</g>
</g>
</svg>
