<?xml version="1.0" encoding="UTF-8" standalone="no"?>
<!DOCTYPE svg PUBLIC "-//W3C//DTD SVG 1.1//EN"
 "http://www.w3.org/Graphics/SVG/1.1/DTD/svg11.dtd">
<!-- Generated by graphviz version 7.0.6 (20230106.0513)
 -->
<!-- Title: hgps::SESNoiseModule::initialise_population Pages: 1 -->
<svg width="277pt" height="152pt"
 viewBox="0.00 0.00 277.00 152.00" xmlns="http://www.w3.org/2000/svg" xmlns:xlink="http://www.w3.org/1999/xlink">
<g id="graph0" class="graph" transform="scale(1 1) rotate(0) translate(4 148)">
<title>hgps::SESNoiseModule::initialise_population</title>
<!-- Node1 -->
<g id="node1" class="node">
<title>Node1</title>
<g id="a_node1"><a xlink:title="Initialises the virtual population.">
<polygon fill="#999999" stroke="#666666" points="120,-78 0,-78 0,-48 120,-48 120,-78"/>
<text text-anchor="start" x="8" y="-66" font-family="Helvetica,sans-Serif" font-size="10.00">hgps::SESNoiseModule</text>
<text text-anchor="middle" x="60" y="-55" font-family="Helvetica,sans-Serif" font-size="10.00">::initialise_population</text>
</a>
</g>
</g>
<!-- Node2 -->
<g id="node2" class="node">
<title>Node2</title>
<g id="a_node2"><a xlink:href="classhgps_1_1_random.html#a9c026da3d83e79853e86b97381a6f772" target="_top" xlink:title=" ">
<polygon fill="white" stroke="#666666" points="264.5,-126 160.5,-126 160.5,-96 264.5,-96 264.5,-126"/>
<text text-anchor="start" x="168.5" y="-114" font-family="Helvetica,sans-Serif" font-size="10.00">hgps::Random::next</text>
<text text-anchor="middle" x="212.5" y="-103" font-family="Helvetica,sans-Serif" font-size="10.00">_normal</text>
</a>
</g>
</g>
<!-- Node1&#45;&gt;Node2 -->
<g id="edge1" class="edge">
<title>Node1&#45;&gt;Node2</title>
<path fill="none" stroke="#63b8ff" d="M109.45,-78.45C123.14,-82.82 138.2,-87.62 152.44,-92.17"/>
<polygon fill="#63b8ff" stroke="#63b8ff" points="151.11,-95.41 161.7,-95.12 153.24,-88.74 151.11,-95.41"/>
</g>
<!-- Node3 -->
<g id="node3" class="node">
<title>Node3</title>
<g id="a_node3"><a xlink:href="classhgps_1_1_runtime_context.html#a346d7fdd33294a4836c708b1073df653" target="_top" xlink:title=" ">
<polygon fill="white" stroke="#666666" points="269,-78 156,-78 156,-48 269,-48 269,-78"/>
<text text-anchor="start" x="164" y="-66" font-family="Helvetica,sans-Serif" font-size="10.00">hgps::RuntimeContext</text>
<text text-anchor="middle" x="212.5" y="-55" font-family="Helvetica,sans-Serif" font-size="10.00">::population</text>
</a>
</g>
</g>
<!-- Node1&#45;&gt;Node3 -->
<g id="edge3" class="edge">
<title>Node1&#45;&gt;Node3</title>
<path fill="none" stroke="#63b8ff" d="M120.48,-63C128.41,-63 136.59,-63 144.63,-63"/>
<polygon fill="#63b8ff" stroke="#63b8ff" points="144.37,-66.5 154.37,-63 144.37,-59.5 144.37,-66.5"/>
</g>
<!-- Node4 -->
<g id="node4" class="node">
<title>Node4</title>
<g id="a_node4"><a xlink:href="classhgps_1_1_runtime_context.html#a437e1ab725b8f8ab71eb04222173eda3" target="_top" xlink:title=" ">
<polygon fill="white" stroke="#666666" points="269,-30 156,-30 156,0 269,0 269,-30"/>
<text text-anchor="start" x="164" y="-18" font-family="Helvetica,sans-Serif" font-size="10.00">hgps::RuntimeContext</text>
<text text-anchor="middle" x="212.5" y="-7" font-family="Helvetica,sans-Serif" font-size="10.00">::random</text>
</a>
</g>
</g>
<!-- Node1&#45;&gt;Node4 -->
<g id="edge4" class="edge">
<title>Node1&#45;&gt;Node4</title>
<path fill="none" stroke="#63b8ff" d="M109.45,-47.55C123.14,-43.18 138.2,-38.38 152.44,-33.83"/>
<polygon fill="#63b8ff" stroke="#63b8ff" points="153.24,-37.26 161.7,-30.88 151.11,-30.59 153.24,-37.26"/>
</g>
<!-- Node2&#45;&gt;Node2 -->
<g id="edge2" class="edge">
<title>Node2&#45;&gt;Node2</title>
<path fill="none" stroke="#63b8ff" d="M185.69,-126.28C179.74,-135.41 188.67,-144 212.5,-144 225.53,-144 234.11,-141.43 238.23,-137.61"/>
<polygon fill="#63b8ff" stroke="#63b8ff" points="241.7,-138.07 239.16,-127.78 234.73,-137.41 241.7,-138.07"/>
</g>
</g>
</svg>
