<?xml version="1.0" encoding="UTF-8" standalone="no"?>
<!DOCTYPE svg PUBLIC "-//W3C//DTD SVG 1.1//EN"
 "http://www.w3.org/Graphics/SVG/1.1/DTD/svg11.dtd">
<!-- Generated by graphviz version 2.43.0 (0)
 -->
<!-- Title: hgps::DiseaseModel Pages: 1 -->
<svg width="324pt" height="84pt"
 viewBox="0.00 0.00 323.50 84.00" xmlns="http://www.w3.org/2000/svg" xmlns:xlink="http://www.w3.org/1999/xlink">
<g id="graph0" class="graph" transform="scale(1 1) rotate(0) translate(4 80)">
<title>hgps::DiseaseModel</title>
<!-- Node1 -->
<g id="node1" class="node">
<title>Node1</title>
<g id="a_node1"><a xlink:title="Diseases model interface.">
<polygon fill="#bfbfbf" stroke="black" points="98.5,-56.5 98.5,-75.5 213.5,-75.5 213.5,-56.5 98.5,-56.5"/>
<text text-anchor="middle" x="156" y="-63.5" font-family="Helvetica,sans-Serif" font-size="10.00">hgps::DiseaseModel</text>
</a>
</g>
</g>
<!-- Node2 -->
<g id="node2" class="node">
<title>Node2</title>
<g id="a_node2"><a xlink:href="classhgps_1_1DefaultCancerModel.html" target="_top" xlink:title=" ">
<polygon fill="none" stroke="black" points="0,-0.5 0,-19.5 146,-19.5 146,-0.5 0,-0.5"/>
<text text-anchor="middle" x="73" y="-7.5" font-family="Helvetica,sans-Serif" font-size="10.00">hgps::DefaultCancerModel</text>
</a>
</g>
</g>
<!-- Node1&#45;&gt;Node2 -->
<g id="edge1" class="edge">
<title>Node1&#45;&gt;Node2</title>
<path fill="none" stroke="midnightblue" d="M133.9,-50.62C118.74,-40.76 99.12,-27.99 86.3,-19.65"/>
<polygon fill="midnightblue" stroke="midnightblue" points="132.37,-53.8 142.66,-56.32 136.19,-47.94 132.37,-53.8"/>
</g>
<!-- Node3 -->
<g id="node3" class="node">
<title>Node3</title>
<g id="a_node3"><a xlink:href="classhgps_1_1DefaultDiseaseModel.html" target="_top" xlink:title=" ">
<polygon fill="none" stroke="black" points="164.5,-0.5 164.5,-19.5 315.5,-19.5 315.5,-0.5 164.5,-0.5"/>
<text text-anchor="middle" x="240" y="-7.5" font-family="Helvetica,sans-Serif" font-size="10.00">hgps::DefaultDiseaseModel</text>
</a>
</g>
</g>
<!-- Node1&#45;&gt;Node3 -->
<g id="edge2" class="edge">
<title>Node1&#45;&gt;Node3</title>
<path fill="none" stroke="midnightblue" d="M177.93,-50.9C193.34,-41 213.45,-28.07 226.54,-19.65"/>
<polygon fill="midnightblue" stroke="midnightblue" points="176.02,-47.97 169.5,-56.32 179.8,-53.86 176.02,-47.97"/>
</g>
</g>
</svg>
