<?xml version="1.0" encoding="UTF-8" standalone="no"?>
<!DOCTYPE svg PUBLIC "-//W3C//DTD SVG 1.1//EN"
 "http://www.w3.org/Graphics/SVG/1.1/DTD/svg11.dtd">
<!-- Generated by graphviz version 2.43.0 (0)
 -->
<!-- Title: hgps::HealthGPS::HealthGPS Pages: 1 -->
<svg width="369pt" height="88pt"
 viewBox="0.00 0.00 369.00 88.00" xmlns="http://www.w3.org/2000/svg" xmlns:xlink="http://www.w3.org/1999/xlink">
<g id="graph0" class="graph" transform="scale(1 1) rotate(0) translate(4 84)">
<title>hgps::HealthGPS::HealthGPS</title>
<!-- Node1 -->
<g id="node1" class="node">
<title>Node1</title>
<g id="a_node1"><a xlink:title="Initialises a new instance of the HealthGPS class.">
<polygon fill="#bfbfbf" stroke="black" points="0,-30 0,-49 155,-49 155,-30 0,-30"/>
<text text-anchor="middle" x="77.5" y="-37" font-family="Helvetica,sans-Serif" font-size="10.00">hgps::HealthGPS::HealthGPS</text>
</a>
</g>
</g>
<!-- Node2 -->
<g id="node2" class="node">
<title>Node2</title>
<g id="a_node2"><a xlink:href="classhgps_1_1SimulationModuleFactory.html#a0071993f6ae47f0ff5e6dbee91f4a819" target="_top" xlink:title="Create a polymorphic SimulationModule instance.">
<polygon fill="none" stroke="black" points="191,-49.5 191,-79.5 361,-79.5 361,-49.5 191,-49.5"/>
<text text-anchor="start" x="199" y="-67.5" font-family="Helvetica,sans-Serif" font-size="10.00">hgps::SimulationModuleFactory</text>
<text text-anchor="middle" x="276" y="-56.5" font-family="Helvetica,sans-Serif" font-size="10.00">::create</text>
</a>
</g>
</g>
<!-- Node1&#45;&gt;Node2 -->
<g id="edge1" class="edge">
<title>Node1&#45;&gt;Node2</title>
<path fill="none" stroke="midnightblue" d="M153.35,-49.02C162.35,-50.17 171.63,-51.35 180.86,-52.52"/>
<polygon fill="midnightblue" stroke="midnightblue" points="180.48,-56 190.84,-53.79 181.36,-49.06 180.48,-56"/>
</g>
<!-- Node3 -->
<g id="node3" class="node">
<title>Node3</title>
<g id="a_node3"><a xlink:href="structhgps_1_1SimulationDefinition.html#a6744348b0f2deec4ce75b7c08968c127" target="_top" xlink:title="Gets a read&#45;only reference to the model inputs definition.">
<polygon fill="none" stroke="black" points="203,-0.5 203,-30.5 349,-30.5 349,-0.5 203,-0.5"/>
<text text-anchor="start" x="211" y="-18.5" font-family="Helvetica,sans-Serif" font-size="10.00">hgps::SimulationDefinition</text>
<text text-anchor="middle" x="276" y="-7.5" font-family="Helvetica,sans-Serif" font-size="10.00">::inputs</text>
</a>
</g>
</g>
<!-- Node1&#45;&gt;Node3 -->
<g id="edge2" class="edge">
<title>Node1&#45;&gt;Node3</title>
<path fill="none" stroke="midnightblue" d="M155.03,-30.15C167.45,-28.64 180.35,-27.06 192.89,-25.53"/>
<polygon fill="midnightblue" stroke="midnightblue" points="193.35,-29 202.86,-24.31 192.5,-22.05 193.35,-29"/>
</g>
</g>
</svg>
