<?xml version="1.0" encoding="UTF-8" standalone="no"?>
<!DOCTYPE svg PUBLIC "-//W3C//DTD SVG 1.1//EN"
 "http://www.w3.org/Graphics/SVG/1.1/DTD/svg11.dtd">
<!-- Generated by graphviz version 2.43.0 (0)
 -->
<!-- Title: hgps::data::DataManager::get_disease_info Pages: 1 -->
<svg width="338pt" height="88pt"
 viewBox="0.00 0.00 338.00 88.00" xmlns="http://www.w3.org/2000/svg" xmlns:xlink="http://www.w3.org/1999/xlink">
<g id="graph0" class="graph" transform="scale(1 1) rotate(0) translate(4 84)">
<title>hgps::data::DataManager::get_disease_info</title>
<!-- Node1 -->
<g id="node1" class="node">
<title>Node1</title>
<g id="a_node1"><a xlink:title=" ">
<polygon fill="#bfbfbf" stroke="black" points="0,-24.5 0,-54.5 140,-54.5 140,-24.5 0,-24.5"/>
<text text-anchor="start" x="8" y="-42.5" font-family="Helvetica,sans-Serif" font-size="10.00">hgps::data::DataManager</text>
<text text-anchor="middle" x="70" y="-31.5" font-family="Helvetica,sans-Serif" font-size="10.00">::get_disease_info</text>
</a>
</g>
</g>
<!-- Node2 -->
<g id="node2" class="node">
<title>Node2</title>
<g id="a_node2"><a xlink:href="structhgps_1_1core_1_1case__insensitive.html#a7c3f04e32aa1d7a41ef339443139b5c0" target="_top" xlink:title=" ">
<polygon fill="none" stroke="black" points="176,-49.5 176,-79.5 330,-79.5 330,-49.5 176,-49.5"/>
<text text-anchor="start" x="184" y="-67.5" font-family="Helvetica,sans-Serif" font-size="10.00">hgps::core::case_insensitive</text>
<text text-anchor="middle" x="253" y="-56.5" font-family="Helvetica,sans-Serif" font-size="10.00">::equals</text>
</a>
</g>
</g>
<!-- Node1&#45;&gt;Node2 -->
<g id="edge1" class="edge">
<title>Node1&#45;&gt;Node2</title>
<path fill="none" stroke="midnightblue" d="M140.2,-49.06C148.6,-50.22 157.25,-51.41 165.85,-52.6"/>
<polygon fill="midnightblue" stroke="midnightblue" points="165.51,-56.09 175.9,-53.99 166.47,-49.15 165.51,-56.09"/>
</g>
<!-- Node3 -->
<g id="node3" class="node">
<title>Node3</title>
<g id="a_node3"><a xlink:href="structhgps_1_1core_1_1Identifier.html#a35155d48deab7530b7285a90d09b8c9d" target="_top" xlink:title=" ">
<polygon fill="none" stroke="black" points="195,-0.5 195,-30.5 311,-30.5 311,-0.5 195,-0.5"/>
<text text-anchor="start" x="203" y="-18.5" font-family="Helvetica,sans-Serif" font-size="10.00">hgps::core::Identifier</text>
<text text-anchor="middle" x="253" y="-7.5" font-family="Helvetica,sans-Serif" font-size="10.00">::to_string</text>
</a>
</g>
</g>
<!-- Node1&#45;&gt;Node3 -->
<g id="edge2" class="edge">
<title>Node1&#45;&gt;Node3</title>
<path fill="none" stroke="midnightblue" d="M140.2,-30.32C154.88,-28.38 170.35,-26.33 184.94,-24.39"/>
<polygon fill="midnightblue" stroke="midnightblue" points="185.44,-27.86 194.89,-23.07 184.51,-20.92 185.44,-27.86"/>
</g>
</g>
</svg>
