<?xml version="1.0" encoding="UTF-8" standalone="no"?>
<!DOCTYPE svg PUBLIC "-//W3C//DTD SVG 1.1//EN"
 "http://www.w3.org/Graphics/SVG/1.1/DTD/svg11.dtd">
<!-- Generated by graphviz version 2.43.0 (0)
 -->
<!-- Title: hgps::UpdatableModule Pages: 1 -->
<svg width="669pt" height="142pt"
 viewBox="0.00 0.00 669.00 142.00" xmlns="http://www.w3.org/2000/svg" xmlns:xlink="http://www.w3.org/1999/xlink">
<g id="graph0" class="graph" transform="scale(1 1) rotate(0) translate(4 138)">
<title>hgps::UpdatableModule</title>
<!-- Node1 -->
<g id="node1" class="node">
<title>Node1</title>
<g id="a_node1"><a xlink:title="Generic disease module interface to host multiple diseases model.">
<polygon fill="#bfbfbf" stroke="black" points="170,-57.5 170,-76.5 302,-76.5 302,-57.5 170,-57.5"/>
<text text-anchor="middle" x="236" y="-64.5" font-family="Helvetica,sans-Serif" font-size="10.00">hgps::UpdatableModule</text>
</a>
</g>
</g>
<!-- Node3 -->
<g id="node3" class="node">
<title>Node3</title>
<g id="a_node3"><a xlink:href="classhgps_1_1AnalysisModule.html" target="_top" xlink:title="Implements the burden of diseases (BoD) analysis module.">
<polygon fill="none" stroke="black" points="354,-114.5 354,-133.5 477,-133.5 477,-114.5 354,-114.5"/>
<text text-anchor="middle" x="415.5" y="-121.5" font-family="Helvetica,sans-Serif" font-size="10.00">hgps::AnalysisModule</text>
</a>
</g>
</g>
<!-- Node1&#45;&gt;Node3 -->
<g id="edge2" class="edge">
<title>Node1&#45;&gt;Node3</title>
<path fill="none" stroke="midnightblue" d="M269.4,-80.29C289.05,-88.07 314.74,-97.76 338,-105 348.98,-108.42 360.99,-111.63 372.17,-114.42"/>
<polygon fill="midnightblue" stroke="midnightblue" points="270.59,-76.99 260,-76.53 267.99,-83.49 270.59,-76.99"/>
</g>
<!-- Node4 -->
<g id="node4" class="node">
<title>Node4</title>
<g id="a_node4"><a xlink:href="classhgps_1_1DiseaseHostModule.html" target="_top" xlink:title="Generic disease module interface to host multiple disease models.">
<polygon fill="none" stroke="black" points="344,-76.5 344,-95.5 487,-95.5 487,-76.5 344,-76.5"/>
<text text-anchor="middle" x="415.5" y="-83.5" font-family="Helvetica,sans-Serif" font-size="10.00">hgps::DiseaseHostModule</text>
</a>
</g>
</g>
<!-- Node1&#45;&gt;Node4 -->
<g id="edge3" class="edge">
<title>Node1&#45;&gt;Node4</title>
<path fill="none" stroke="midnightblue" d="M312.06,-75.03C322.56,-76.16 333.32,-77.31 343.74,-78.43"/>
<polygon fill="midnightblue" stroke="midnightblue" points="312.4,-71.55 302.09,-73.97 311.66,-78.51 312.4,-71.55"/>
</g>
<!-- Node6 -->
<g id="node6" class="node">
<title>Node6</title>
<g id="a_node6"><a xlink:href="classhgps_1_1RiskFactorHostModule.html" target="_top" xlink:title="Generic risk factors module interface to host hierarchical models.">
<polygon fill="none" stroke="black" points="338,-38.5 338,-57.5 493,-57.5 493,-38.5 338,-38.5"/>
<text text-anchor="middle" x="415.5" y="-45.5" font-family="Helvetica,sans-Serif" font-size="10.00">hgps::RiskFactorHostModule</text>
</a>
</g>
</g>
<!-- Node1&#45;&gt;Node6 -->
<g id="edge5" class="edge">
<title>Node1&#45;&gt;Node6</title>
<path fill="none" stroke="midnightblue" d="M312.06,-58.97C320.64,-58.05 329.39,-57.11 337.99,-56.19"/>
<polygon fill="midnightblue" stroke="midnightblue" points="311.66,-55.49 302.09,-60.03 312.4,-62.45 311.66,-55.49"/>
</g>
<!-- Node8 -->
<g id="node8" class="node">
<title>Node8</title>
<g id="a_node8"><a xlink:href="classhgps_1_1SESNoiseModule.html" target="_top" xlink:title="Implements the socio&#45;economic status (SES) module.">
<polygon fill="none" stroke="black" points="351.5,-0.5 351.5,-19.5 479.5,-19.5 479.5,-0.5 351.5,-0.5"/>
<text text-anchor="middle" x="415.5" y="-7.5" font-family="Helvetica,sans-Serif" font-size="10.00">hgps::SESNoiseModule</text>
</a>
</g>
</g>
<!-- Node1&#45;&gt;Node8 -->
<g id="edge7" class="edge">
<title>Node1&#45;&gt;Node8</title>
<path fill="none" stroke="midnightblue" d="M269.4,-53.71C289.05,-45.93 314.74,-36.24 338,-29 348.98,-25.58 360.99,-22.37 372.17,-19.58"/>
<polygon fill="midnightblue" stroke="midnightblue" points="267.99,-50.51 260,-57.47 270.59,-57.01 267.99,-50.51"/>
</g>
<!-- Node2 -->
<g id="node2" class="node">
<title>Node2</title>
<g id="a_node2"><a xlink:href="classhgps_1_1SimulationModule.html" target="_top" xlink:title="Simulation modules interface.">
<polygon fill="none" stroke="black" points="0,-57.5 0,-76.5 134,-76.5 134,-57.5 0,-57.5"/>
<text text-anchor="middle" x="67" y="-64.5" font-family="Helvetica,sans-Serif" font-size="10.00">hgps::SimulationModule</text>
</a>
</g>
</g>
<!-- Node2&#45;&gt;Node1 -->
<g id="edge1" class="edge">
<title>Node2&#45;&gt;Node1</title>
<path fill="none" stroke="midnightblue" d="M144.02,-67C152.61,-67 161.31,-67 169.75,-67"/>
<polygon fill="midnightblue" stroke="midnightblue" points="144,-63.5 134,-67 144,-70.5 144,-63.5"/>
</g>
<!-- Node5 -->
<g id="node5" class="node">
<title>Node5</title>
<g id="a_node5"><a xlink:href="classhgps_1_1DiseaseModule.html" target="_top" xlink:title="Defines the disease module container to hold disease models.">
<polygon fill="none" stroke="black" points="534.5,-76.5 534.5,-95.5 655.5,-95.5 655.5,-76.5 534.5,-76.5"/>
<text text-anchor="middle" x="595" y="-83.5" font-family="Helvetica,sans-Serif" font-size="10.00">hgps::DiseaseModule</text>
</a>
</g>
</g>
<!-- Node4&#45;&gt;Node5 -->
<g id="edge4" class="edge">
<title>Node4&#45;&gt;Node5</title>
<path fill="none" stroke="midnightblue" d="M497.53,-86C509.96,-86 522.59,-86 534.44,-86"/>
<polygon fill="midnightblue" stroke="midnightblue" points="497.16,-82.5 487.16,-86 497.16,-89.5 497.16,-82.5"/>
</g>
<!-- Node7 -->
<g id="node7" class="node">
<title>Node7</title>
<g id="a_node7"><a xlink:href="classhgps_1_1RiskFactorModule.html" target="_top" xlink:title="Defines the risk factors module container to hold hierarchical linear models.">
<polygon fill="none" stroke="black" points="529,-38.5 529,-57.5 661,-57.5 661,-38.5 529,-38.5"/>
<text text-anchor="middle" x="595" y="-45.5" font-family="Helvetica,sans-Serif" font-size="10.00">hgps::RiskFactorModule</text>
</a>
</g>
</g>
<!-- Node6&#45;&gt;Node7 -->
<g id="edge6" class="edge">
<title>Node6&#45;&gt;Node7</title>
<path fill="none" stroke="midnightblue" d="M503.17,-48C511.8,-48 520.47,-48 528.83,-48"/>
<polygon fill="midnightblue" stroke="midnightblue" points="503.06,-44.5 493.06,-48 503.06,-51.5 503.06,-44.5"/>
</g>
</g>
</svg>
