<?xml version="1.0" encoding="UTF-8" standalone="no"?>
<!DOCTYPE svg PUBLIC "-//W3C//DTD SVG 1.1//EN"
 "http://www.w3.org/Graphics/SVG/1.1/DTD/svg11.dtd">
<!-- Generated by graphviz version 7.0.6 (20230106.0513)
 -->
<!-- Title: hgps::core::Array2D::size Pages: 1 -->
<svg width="276pt" height="86pt"
 viewBox="0.00 0.00 276.00 86.00" xmlns="http://www.w3.org/2000/svg" xmlns:xlink="http://www.w3.org/1999/xlink">
<g id="graph0" class="graph" transform="scale(1 1) rotate(0) translate(4 82)">
<title>hgps::core::Array2D::size</title>
<!-- Node1 -->
<g id="node1" class="node">
<title>Node1</title>
<g id="a_node1"><a xlink:title=" ">
<polygon fill="#999999" stroke="#666666" points="268,-54 164,-54 164,-24 268,-24 268,-54"/>
<text text-anchor="start" x="172" y="-42" font-family="Helvetica,sans-Serif" font-size="10.00">hgps::core::Array2D</text>
<text text-anchor="middle" x="216" y="-31" font-family="Helvetica,sans-Serif" font-size="10.00">::size</text>
</a>
</g>
</g>
<!-- Node2 -->
<g id="node2" class="node">
<title>Node2</title>
<g id="a_node2"><a xlink:href="classhgps_1_1core_1_1_array2_d.html#a49261b25bf0aaa8e34e078be131f2a7d" target="_top" xlink:title=" ">
<polygon fill="white" stroke="#666666" points="116,-78 12,-78 12,-48 116,-48 116,-78"/>
<text text-anchor="start" x="20" y="-66" font-family="Helvetica,sans-Serif" font-size="10.00">hgps::core::Array2D</text>
<text text-anchor="middle" x="64" y="-55" font-family="Helvetica,sans-Serif" font-size="10.00">::Array2D</text>
</a>
</g>
</g>
<!-- Node1&#45;&gt;Node2 -->
<g id="edge1" class="edge">
<title>Node1&#45;&gt;Node2</title>
<path fill="none" stroke="#63b8ff" d="M152.48,-49C140.49,-50.92 128.07,-52.91 116.48,-54.76"/>
<polygon fill="#63b8ff" stroke="#63b8ff" points="152.98,-52.47 162.3,-47.43 151.88,-45.56 152.98,-52.47"/>
</g>
<!-- Node3 -->
<g id="node3" class="node">
<title>Node3</title>
<g id="a_node3"><a xlink:href="classhgps_1_1_relative_risk_lookup.html#a133b99eadd726ce9d4e774e977f78581" target="_top" xlink:title=" ">
<polygon fill="white" stroke="#666666" points="128,-30 0,-30 0,0 128,0 128,-30"/>
<text text-anchor="start" x="8" y="-18" font-family="Helvetica,sans-Serif" font-size="10.00">hgps::RelativeRiskLookup</text>
<text text-anchor="middle" x="64" y="-7" font-family="Helvetica,sans-Serif" font-size="10.00">::size</text>
</a>
</g>
</g>
<!-- Node1&#45;&gt;Node3 -->
<g id="edge2" class="edge">
<title>Node1&#45;&gt;Node3</title>
<path fill="none" stroke="#63b8ff" d="M152.66,-29.03C144.66,-27.75 136.46,-26.43 128.44,-25.15"/>
<polygon fill="#63b8ff" stroke="#63b8ff" points="151.88,-32.44 162.3,-30.57 152.98,-25.53 151.88,-32.44"/>
</g>
</g>
</svg>
