<?xml version="1.0" encoding="UTF-8" standalone="no"?>
<!DOCTYPE svg PUBLIC "-//W3C//DTD SVG 1.1//EN"
 "http://www.w3.org/Graphics/SVG/1.1/DTD/svg11.dtd">
<!-- Generated by graphviz version 7.0.6 (20230106.0513)
 -->
<!-- Title: hgps::core::FloatDataTableColumn Pages: 1 -->
<svg width="153pt" height="159pt"
 viewBox="0.00 0.00 153.00 159.00" xmlns="http://www.w3.org/2000/svg" xmlns:xlink="http://www.w3.org/1999/xlink">
<g id="graph0" class="graph" transform="scale(1 1) rotate(0) translate(4 155)">
<title>hgps::core::FloatDataTableColumn</title>
<!-- Node1 -->
<g id="node1" class="node">
<title>Node1</title>
<g id="a_node1"><a xlink:title=" ">
<polygon fill="#999999" stroke="#666666" points="139.5,-30 5.5,-30 5.5,0 139.5,0 139.5,-30"/>
<text text-anchor="start" x="13.5" y="-18" font-family="Helvetica,sans-Serif" font-size="10.00">hgps::core::FloatDataTable</text>
<text text-anchor="middle" x="72.5" y="-7" font-family="Helvetica,sans-Serif" font-size="10.00">Column</text>
</a>
</g>
</g>
<!-- Node2 -->
<g id="node2" class="node">
<title>Node2</title>
<g id="a_node2"><a xlink:href="classhgps_1_1core_1_1_primitive_data_table_column.html" target="_top" xlink:title=" ">
<polygon fill="white" stroke="#666666" points="135,-96 10,-96 10,-66 135,-66 135,-96"/>
<text text-anchor="start" x="18" y="-84" font-family="Helvetica,sans-Serif" font-size="10.00">hgps::core::PrimitiveData</text>
<text text-anchor="middle" x="72.5" y="-73" font-family="Helvetica,sans-Serif" font-size="10.00">TableColumn&lt; float &gt;</text>
</a>
</g>
</g>
<!-- Node2&#45;&gt;Node1 -->
<g id="edge1" class="edge">
<title>Node2&#45;&gt;Node1</title>
<path fill="none" stroke="#63b8ff" d="M72.5,-54.39C72.5,-46.13 72.5,-37.28 72.5,-30.16"/>
<polygon fill="#63b8ff" stroke="#63b8ff" points="69,-54.28 72.5,-64.28 76,-54.28 69,-54.28"/>
</g>
<!-- Node3 -->
<g id="node3" class="node">
<title>Node3</title>
<g id="a_node3"><a xlink:href="classhgps_1_1core_1_1_data_table_column.html" target="_top" xlink:title=" ">
<polygon fill="white" stroke="#666666" points="145,-151 0,-151 0,-132 145,-132 145,-151"/>
<text text-anchor="middle" x="72.5" y="-139" font-family="Helvetica,sans-Serif" font-size="10.00">hgps::core::DataTableColumn</text>
</a>
</g>
</g>
<!-- Node3&#45;&gt;Node2 -->
<g id="edge2" class="edge">
<title>Node3&#45;&gt;Node2</title>
<path fill="none" stroke="#63b8ff" d="M72.5,-120.51C72.5,-112.49 72.5,-103.43 72.5,-96.11"/>
<polygon fill="#63b8ff" stroke="#63b8ff" points="69,-120.35 72.5,-130.35 76,-120.35 69,-120.35"/>
</g>
</g>
</svg>
