<?xml version="1.0" encoding="UTF-8" standalone="no"?>
<!DOCTYPE svg PUBLIC "-//W3C//DTD SVG 1.1//EN"
 "http://www.w3.org/Graphics/SVG/1.1/DTD/svg11.dtd">
<!-- Generated by graphviz version 7.0.6 (20230106.0513)
 -->
<!-- Title: hgps::ModelRunner::run Pages: 1 -->
<svg width="418pt" height="57pt"
 viewBox="0.00 0.00 418.00 56.55" xmlns="http://www.w3.org/2000/svg" xmlns:xlink="http://www.w3.org/1999/xlink">
<g id="graph0" class="graph" transform="scale(1 1) rotate(0) translate(4 52.55)">
<title>hgps::ModelRunner::run</title>
<!-- Node1 -->
<g id="node1" class="node">
<title>Node1</title>
<g id="a_node1"><a xlink:title=" ">
<polygon fill="#999999" stroke="#666666" points="120,-47 0,-47 0,-28 120,-28 120,-47"/>
<text text-anchor="middle" x="60" y="-35" font-family="Helvetica,sans-Serif" font-size="10.00">hgps::ModelRunner::run</text>
</a>
</g>
</g>
<!-- Node2 -->
<g id="node2" class="node">
<title>Node2</title>
<g id="a_node2"><a xlink:href="namespacehgps.html#aeb4ee9cabdb408fb9404fdf69f46ac11" target="_top" xlink:title=" ">
<polygon fill="white" stroke="#666666" points="410,-47 312,-47 312,-28 410,-28 410,-47"/>
<text text-anchor="middle" x="361" y="-35" font-family="Helvetica,sans-Serif" font-size="10.00">hgps::make_finally</text>
</a>
</g>
</g>
<!-- Node1&#45;&gt;Node2 -->
<g id="edge1" class="edge">
<title>Node1&#45;&gt;Node2</title>
<path fill="none" stroke="#63b8ff" d="M120.48,-44C132.24,-45.04 144.5,-45.96 156,-46.5 209.27,-49.02 222.74,-49.34 276,-46.5 283.86,-46.08 292.12,-45.44 300.27,-44.69"/>
<polygon fill="#63b8ff" stroke="#63b8ff" points="300.54,-48.18 310.15,-43.72 299.85,-41.22 300.54,-48.18"/>
</g>
<!-- Node3 -->
<g id="node3" class="node">
<title>Node3</title>
<g id="a_node3"><a xlink:href="classhgps_1_1_model_runner.html#a7cff7c405b8ceaeadcbe2091e1f88375" target="_top" xlink:title=" ">
<polygon fill="white" stroke="#666666" points="276,-19 156,-19 156,0 276,0 276,-19"/>
<text text-anchor="middle" x="216" y="-7" font-family="Helvetica,sans-Serif" font-size="10.00">hgps::ModelRunner::run</text>
</a>
</g>
</g>
<!-- Node1&#45;&gt;Node3 -->
<g id="edge2" class="edge">
<title>Node1&#45;&gt;Node3</title>
<path fill="none" stroke="#63b8ff" d="M115.73,-27.55C126.56,-25.58 138.03,-23.49 149.18,-21.47"/>
<polygon fill="#63b8ff" stroke="#63b8ff" points="149.49,-24.97 158.7,-19.74 148.23,-18.08 149.49,-24.97"/>
</g>
<!-- Node3&#45;&gt;Node2 -->
<g id="edge3" class="edge">
<title>Node3&#45;&gt;Node2</title>
<path fill="none" stroke="#63b8ff" d="M267.82,-19.45C278.42,-21.53 289.69,-23.73 300.58,-25.87"/>
<polygon fill="#63b8ff" stroke="#63b8ff" points="299.77,-29.27 310.25,-27.76 301.11,-22.4 299.77,-29.27"/>
</g>
<!-- Node3&#45;&gt;Node3 -->
<g id="edge4" class="edge">
<title>Node3&#45;&gt;Node3</title>
<path fill="none" stroke="#63b8ff" d="M193.3,-19.37C182.94,-27.94 190.51,-37 216,-37 229.94,-37 238.52,-34.29 241.74,-30.43"/>
<polygon fill="#63b8ff" stroke="#63b8ff" points="245.12,-29.54 239.1,-20.83 238.37,-31.4 245.12,-29.54"/>
</g>
</g>
</svg>
