<?xml version="1.0" encoding="UTF-8" standalone="no"?>
<!DOCTYPE svg PUBLIC "-//W3C//DTD SVG 1.1//EN"
 "http://www.w3.org/Graphics/SVG/1.1/DTD/svg11.dtd">
<!-- Generated by graphviz version 7.0.6 (20230106.0513)
 -->
<!-- Title: hgps::HealthGPS::update Pages: 1 -->
<svg width="456pt" height="316pt"
 viewBox="0.00 0.00 456.00 316.00" xmlns="http://www.w3.org/2000/svg" xmlns:xlink="http://www.w3.org/1999/xlink">
<g id="graph0" class="graph" transform="scale(1 1) rotate(0) translate(4 312)">
<title>hgps::HealthGPS::update</title>
<!-- Node1 -->
<g id="node1" class="node">
<title>Node1</title>
<g id="a_node1"><a xlink:title=" ">
<polygon fill="#999999" stroke="#666666" points="128,-168.5 0,-168.5 0,-149.5 128,-149.5 128,-168.5"/>
<text text-anchor="middle" x="64" y="-156.5" font-family="Helvetica,sans-Serif" font-size="10.00">hgps::HealthGPS::update</text>
</a>
</g>
</g>
<!-- Node2 -->
<g id="node2" class="node">
<title>Node2</title>
<g id="a_node2"><a xlink:href="classhgps_1_1_runtime_context.html#a1a283e5db3f10c4296241cc957122c87" target="_top" xlink:title=" ">
<polygon fill="white" stroke="#666666" points="280,-308 167,-308 167,-278 280,-278 280,-308"/>
<text text-anchor="start" x="175" y="-296" font-family="Helvetica,sans-Serif" font-size="10.00">hgps::RuntimeContext</text>
<text text-anchor="middle" x="223.5" y="-285" font-family="Helvetica,sans-Serif" font-size="10.00">::current_run</text>
</a>
</g>
</g>
<!-- Node1&#45;&gt;Node2 -->
<g id="edge1" class="edge">
<title>Node1&#45;&gt;Node2</title>
<path fill="none" stroke="#63b8ff" d="M71.54,-168.87C85.93,-189.92 122.41,-239.71 164,-269 165.54,-270.09 167.14,-271.14 168.78,-272.15"/>
<polygon fill="#63b8ff" stroke="#63b8ff" points="166.77,-275.03 177.21,-276.8 170.15,-268.9 166.77,-275.03"/>
</g>
<!-- Node3 -->
<g id="node3" class="node">
<title>Node3</title>
<g id="a_node3"><a xlink:href="classhgps_1_1_runtime_context.html#a0e888d326a217dcf378f1cb29eecf3b0" target="_top" xlink:title=" ">
<polygon fill="white" stroke="#666666" points="280,-260 167,-260 167,-230 280,-230 280,-260"/>
<text text-anchor="start" x="175" y="-248" font-family="Helvetica,sans-Serif" font-size="10.00">hgps::RuntimeContext</text>
<text text-anchor="middle" x="223.5" y="-237" font-family="Helvetica,sans-Serif" font-size="10.00">::metrics</text>
</a>
</g>
</g>
<!-- Node1&#45;&gt;Node3 -->
<g id="edge2" class="edge">
<title>Node1&#45;&gt;Node3</title>
<path fill="none" stroke="#63b8ff" d="M78.98,-168.82C97.76,-181.77 132.43,-204.79 164,-221 166.65,-222.36 169.41,-223.71 172.2,-225.02"/>
<polygon fill="#63b8ff" stroke="#63b8ff" points="170.5,-228.1 181.06,-229.01 173.37,-221.71 170.5,-228.1"/>
</g>
<!-- Node4 -->
<g id="node4" class="node">
<title>Node4</title>
<g id="a_node4"><a xlink:href="classhgps_1_1_simulation.html#a405fa37a049c3a5e1ee9f16c8c8e2a80" target="_top" xlink:title=" ">
<polygon fill="white" stroke="#666666" points="283,-211.5 164,-211.5 164,-192.5 283,-192.5 283,-211.5"/>
<text text-anchor="middle" x="223.5" y="-199.5" font-family="Helvetica,sans-Serif" font-size="10.00">hgps::Simulation::name</text>
</a>
</g>
</g>
<!-- Node1&#45;&gt;Node4 -->
<g id="edge3" class="edge">
<title>Node1&#45;&gt;Node4</title>
<path fill="none" stroke="#63b8ff" d="M101.53,-168.97C123.42,-174.95 151.48,-182.61 175.07,-189.05"/>
<polygon fill="#63b8ff" stroke="#63b8ff" points="173.87,-192.35 184.44,-191.61 175.71,-185.6 173.87,-192.35"/>
</g>
<!-- Node6 -->
<g id="node6" class="node">
<title>Node6</title>
<g id="a_node6"><a xlink:href="classhgps_1_1_runtime_context.html#ac0b304648b1a5fa47ebf4dfe348cfaa7" target="_top" xlink:title=" ">
<polygon fill="white" stroke="#666666" points="280,-174 167,-174 167,-144 280,-144 280,-174"/>
<text text-anchor="start" x="175" y="-162" font-family="Helvetica,sans-Serif" font-size="10.00">hgps::RuntimeContext</text>
<text text-anchor="middle" x="223.5" y="-151" font-family="Helvetica,sans-Serif" font-size="10.00">::publish</text>
</a>
</g>
</g>
<!-- Node1&#45;&gt;Node6 -->
<g id="edge5" class="edge">
<title>Node1&#45;&gt;Node6</title>
<path fill="none" stroke="#63b8ff" d="M128.15,-159C137.12,-159 146.37,-159 155.4,-159"/>
<polygon fill="#63b8ff" stroke="#63b8ff" points="155.19,-162.5 165.19,-159 155.19,-155.5 155.19,-162.5"/>
</g>
<!-- Node7 -->
<g id="node7" class="node">
<title>Node7</title>
<g id="a_node7"><a xlink:href="classhgps_1_1_runtime_metric.html#aa6633f66ca339f310d7e52292447005c" target="_top" xlink:title=" ">
<polygon fill="white" stroke="#666666" points="277,-126 170,-126 170,-96 277,-96 277,-126"/>
<text text-anchor="start" x="178" y="-114" font-family="Helvetica,sans-Serif" font-size="10.00">hgps::RuntimeMetric</text>
<text text-anchor="middle" x="223.5" y="-103" font-family="Helvetica,sans-Serif" font-size="10.00">::reset</text>
</a>
</g>
</g>
<!-- Node1&#45;&gt;Node7 -->
<g id="edge6" class="edge">
<title>Node1&#45;&gt;Node7</title>
<path fill="none" stroke="#63b8ff" d="M97.63,-149.05C115.98,-143.46 139.48,-136.3 161.13,-129.7"/>
<polygon fill="#63b8ff" stroke="#63b8ff" points="161.92,-133.12 170.47,-126.86 159.88,-126.42 161.92,-133.12"/>
</g>
<!-- Node8 -->
<g id="node8" class="node">
<title>Node8</title>
<g id="a_node8"><a xlink:href="classhgps_1_1_runtime_context.html#a25badead30720b70f16be9776a13cbfa" target="_top" xlink:title=" ">
<polygon fill="white" stroke="#666666" points="280,-78 167,-78 167,-48 280,-48 280,-78"/>
<text text-anchor="start" x="175" y="-66" font-family="Helvetica,sans-Serif" font-size="10.00">hgps::RuntimeContext</text>
<text text-anchor="middle" x="223.5" y="-55" font-family="Helvetica,sans-Serif" font-size="10.00">::set_current_time</text>
</a>
</g>
</g>
<!-- Node1&#45;&gt;Node8 -->
<g id="edge7" class="edge">
<title>Node1&#45;&gt;Node8</title>
<path fill="none" stroke="#63b8ff" d="M76.57,-149.15C94.44,-134.29 130.23,-105.85 164,-87 166.31,-85.71 168.69,-84.46 171.13,-83.24"/>
<polygon fill="#63b8ff" stroke="#63b8ff" points="172.39,-86.51 179.95,-79.08 169.41,-80.18 172.39,-86.51"/>
</g>
<!-- Node9 -->
<g id="node9" class="node">
<title>Node9</title>
<g id="a_node9"><a xlink:href="classhgps_1_1_runtime_context.html#a5eb9de9f095d934ababb9119d506b781" target="_top" xlink:title=" ">
<polygon fill="white" stroke="#666666" points="280,-30 167,-30 167,0 280,0 280,-30"/>
<text text-anchor="start" x="175" y="-18" font-family="Helvetica,sans-Serif" font-size="10.00">hgps::RuntimeContext</text>
<text text-anchor="middle" x="223.5" y="-7" font-family="Helvetica,sans-Serif" font-size="10.00">::time_now</text>
</a>
</g>
</g>
<!-- Node1&#45;&gt;Node9 -->
<g id="edge8" class="edge">
<title>Node1&#45;&gt;Node9</title>
<path fill="none" stroke="#63b8ff" d="M70.69,-149.22C84.19,-126.82 120.3,-71.21 164,-39 165.35,-38 166.75,-37.04 168.19,-36.11"/>
<polygon fill="#63b8ff" stroke="#63b8ff" points="169.85,-39.19 176.79,-31.19 166.37,-33.12 169.85,-39.19"/>
</g>
<!-- Node5 -->
<g id="node5" class="node">
<title>Node5</title>
<g id="a_node5"><a xlink:href="structhgps_1_1_simulation_definition.html#af3cfaccd2244487a2002ae4fd2f0fdf7" target="_top" xlink:title=" ">
<polygon fill="white" stroke="#666666" points="448,-217 319,-217 319,-187 448,-187 448,-217"/>
<text text-anchor="start" x="327" y="-205" font-family="Helvetica,sans-Serif" font-size="10.00">hgps::SimulationDefinition</text>
<text text-anchor="middle" x="383.5" y="-194" font-family="Helvetica,sans-Serif" font-size="10.00">::identifier</text>
</a>
</g>
</g>
<!-- Node4&#45;&gt;Node5 -->
<g id="edge4" class="edge">
<title>Node4&#45;&gt;Node5</title>
<path fill="none" stroke="#63b8ff" d="M283.33,-202C291.15,-202 299.24,-202 307.28,-202"/>
<polygon fill="#63b8ff" stroke="#63b8ff" points="307.07,-205.5 317.07,-202 307.07,-198.5 307.07,-205.5"/>
</g>
</g>
</svg>
