<?xml version="1.0" encoding="UTF-8" standalone="no"?>
<!DOCTYPE svg PUBLIC "-//W3C//DTD SVG 1.1//EN"
 "http://www.w3.org/Graphics/SVG/1.1/DTD/svg11.dtd">
<!-- Generated by graphviz version 7.0.6 (20230106.0513)
 -->
<!-- Title: hgps::DefaultEventBus::publish_async Pages: 1 -->
<svg width="274pt" height="76pt"
 viewBox="0.00 0.00 274.00 75.50" xmlns="http://www.w3.org/2000/svg" xmlns:xlink="http://www.w3.org/1999/xlink">
<g id="graph0" class="graph" transform="scale(1 1) rotate(0) translate(4 71.5)">
<title>hgps::DefaultEventBus::publish_async</title>
<!-- Node1 -->
<g id="node1" class="node">
<title>Node1</title>
<g id="a_node1"><a xlink:title=" ">
<polygon fill="#999999" stroke="#666666" points="115,-45.5 0,-45.5 0,-15.5 115,-15.5 115,-45.5"/>
<text text-anchor="start" x="8" y="-33.5" font-family="Helvetica,sans-Serif" font-size="10.00">hgps::DefaultEventBus</text>
<text text-anchor="middle" x="57.5" y="-22.5" font-family="Helvetica,sans-Serif" font-size="10.00">::publish_async</text>
</a>
</g>
</g>
<!-- Node2 -->
<g id="node2" class="node">
<title>Node2</title>
<g id="a_node2"><a xlink:href="classhgps_1_1_default_event_bus.html#af389eb45c088c0eed5db1d53d0bf7164" target="_top" xlink:title=" ">
<polygon fill="white" stroke="#666666" points="266,-67.5 151,-67.5 151,-37.5 266,-37.5 266,-67.5"/>
<text text-anchor="start" x="159" y="-55.5" font-family="Helvetica,sans-Serif" font-size="10.00">hgps::DefaultEventBus</text>
<text text-anchor="middle" x="208.5" y="-44.5" font-family="Helvetica,sans-Serif" font-size="10.00">::publish</text>
</a>
</g>
</g>
<!-- Node1&#45;&gt;Node2 -->
<g id="edge1" class="edge">
<title>Node1&#45;&gt;Node2</title>
<path fill="none" stroke="#63b8ff" d="M115.26,-38.88C123.19,-40.05 131.42,-41.27 139.53,-42.46"/>
<polygon fill="#63b8ff" stroke="#63b8ff" points="139,-45.92 149.4,-43.92 140.02,-39 139,-45.92"/>
</g>
<!-- Node3 -->
<g id="node3" class="node">
<title>Node3</title>
<g id="a_node3"><a xlink:href="namespacehgps_1_1core.html#a46c52a5e953821a3c37786635acfd9b5" target="_top" xlink:title=" ">
<polygon fill="white" stroke="#666666" points="265,-19 152,-19 152,0 265,0 265,-19"/>
<text text-anchor="middle" x="208.5" y="-7" font-family="Helvetica,sans-Serif" font-size="10.00">hgps::core::run_async</text>
</a>
</g>
</g>
<!-- Node1&#45;&gt;Node3 -->
<g id="edge2" class="edge">
<title>Node1&#45;&gt;Node3</title>
<path fill="none" stroke="#63b8ff" d="M115.26,-22.5C123.51,-21.34 132.07,-20.13 140.51,-18.94"/>
<polygon fill="#63b8ff" stroke="#63b8ff" points="140.97,-22.41 150.39,-17.55 140,-15.48 140.97,-22.41"/>
</g>
</g>
</svg>
