<?xml version="1.0" encoding="UTF-8" standalone="no"?>
<!DOCTYPE svg PUBLIC "-//W3C//DTD SVG 1.1//EN"
 "http://www.w3.org/Graphics/SVG/1.1/DTD/svg11.dtd">
<!-- Generated by graphviz version 2.43.0 (0)
 -->
<!-- Title: hgps::HealthGPS::initialize Pages: 1 -->
<svg width="539pt" height="242pt"
 viewBox="0.00 0.00 539.00 241.50" xmlns="http://www.w3.org/2000/svg" xmlns:xlink="http://www.w3.org/1999/xlink">
<g id="graph0" class="graph" transform="scale(1 1) rotate(0) translate(4 237.5)">
<title>hgps::HealthGPS::initialize</title>
<!-- Node1 -->
<g id="node1" class="node">
<title>Node1</title>
<g id="a_node1"><a xlink:title="Initialises the simulation experiment.">
<polygon fill="#bfbfbf" stroke="black" points="0,-107.5 0,-126.5 146,-126.5 146,-107.5 0,-107.5"/>
<text text-anchor="middle" x="73" y="-114.5" font-family="Helvetica,sans-Serif" font-size="10.00">hgps::HealthGPS::initialize</text>
</a>
</g>
</g>
<!-- Node2 -->
<g id="node2" class="node">
<title>Node2</title>
<g id="a_node2"><a xlink:href="structhgps_1_1SimulationDefinition.html#a6744348b0f2deec4ce75b7c08968c127" target="_top" xlink:title=" ">
<polygon fill="none" stroke="black" points="192.5,-203 192.5,-233 338.5,-233 338.5,-203 192.5,-203"/>
<text text-anchor="start" x="200.5" y="-221" font-family="Helvetica,sans-Serif" font-size="10.00">hgps::SimulationDefinition</text>
<text text-anchor="middle" x="265.5" y="-210" font-family="Helvetica,sans-Serif" font-size="10.00">::inputs</text>
</a>
</g>
</g>
<!-- Node1&#45;&gt;Node2 -->
<g id="edge1" class="edge">
<title>Node1&#45;&gt;Node2</title>
<path fill="none" stroke="midnightblue" d="M85.21,-126.75C104.03,-142.66 143.67,-174.31 182,-193 186.67,-195.28 191.6,-197.4 196.62,-199.36"/>
<polygon fill="midnightblue" stroke="midnightblue" points="195.75,-202.77 206.35,-202.94 198.17,-196.21 195.75,-202.77"/>
</g>
<!-- Node3 -->
<g id="node3" class="node">
<title>Node3</title>
<g id="a_node3"><a xlink:href="classhgps_1_1Simulation.html#a405fa37a049c3a5e1ee9f16c8c8e2a80" target="_top" xlink:title="Gets the simulation name.">
<polygon fill="none" stroke="black" points="199.5,-164.5 199.5,-183.5 331.5,-183.5 331.5,-164.5 199.5,-164.5"/>
<text text-anchor="middle" x="265.5" y="-171.5" font-family="Helvetica,sans-Serif" font-size="10.00">hgps::Simulation::name</text>
</a>
</g>
</g>
<!-- Node1&#45;&gt;Node3 -->
<g id="edge2" class="edge">
<title>Node1&#45;&gt;Node3</title>
<path fill="none" stroke="midnightblue" d="M98.62,-126.55C120.35,-134.76 152.98,-146.58 182,-155 190.71,-157.53 200.01,-159.94 209.11,-162.14"/>
<polygon fill="midnightblue" stroke="midnightblue" points="208.34,-165.56 218.88,-164.45 209.95,-158.75 208.34,-165.56"/>
</g>
<!-- Node5 -->
<g id="node5" class="node">
<title>Node5</title>
<g id="a_node5"><a xlink:href="structhgps_1_1SimulationDefinition.html#a735106fc3ad7c814aa94b7d7aa40b8e5" target="_top" xlink:title=" ">
<polygon fill="none" stroke="black" points="182,-126.5 182,-145.5 349,-145.5 349,-126.5 182,-126.5"/>
<text text-anchor="middle" x="265.5" y="-133.5" font-family="Helvetica,sans-Serif" font-size="10.00">hgps::SimulationDefinition::rnd</text>
</a>
</g>
</g>
<!-- Node1&#45;&gt;Node5 -->
<g id="edge4" class="edge">
<title>Node1&#45;&gt;Node5</title>
<path fill="none" stroke="midnightblue" d="M146.02,-124.18C154.43,-125.02 163.09,-125.89 171.73,-126.75"/>
<polygon fill="midnightblue" stroke="midnightblue" points="171.54,-130.25 181.83,-127.76 172.23,-123.28 171.54,-130.25"/>
</g>
<!-- Node6 -->
<g id="node6" class="node">
<title>Node6</title>
<g id="a_node6"><a xlink:href="classhgps_1_1ModelInput.html#a5035a15c52467ce060d8f4d5ed21116b" target="_top" xlink:title=" ">
<polygon fill="none" stroke="black" points="200.5,-88.5 200.5,-107.5 330.5,-107.5 330.5,-88.5 200.5,-88.5"/>
<text text-anchor="middle" x="265.5" y="-95.5" font-family="Helvetica,sans-Serif" font-size="10.00">hgps::ModelInput::seed</text>
</a>
</g>
</g>
<!-- Node1&#45;&gt;Node6 -->
<g id="edge5" class="edge">
<title>Node1&#45;&gt;Node6</title>
<path fill="none" stroke="midnightblue" d="M146.02,-109.82C160.35,-108.39 175.42,-106.88 189.84,-105.45"/>
<polygon fill="midnightblue" stroke="midnightblue" points="190.6,-108.89 200.2,-104.41 189.9,-101.92 190.6,-108.89"/>
</g>
<!-- Node7 -->
<g id="node7" class="node">
<title>Node7</title>
<g id="a_node7"><a xlink:href="classhgps_1_1RandomBitGenerator.html#ac58717fa118fcd760ed04bed995c4d63" target="_top" xlink:title=" ">
<polygon fill="none" stroke="black" points="191,-39 191,-69 340,-69 340,-39 191,-39"/>
<text text-anchor="start" x="199" y="-57" font-family="Helvetica,sans-Serif" font-size="10.00">hgps::RandomBitGenerator</text>
<text text-anchor="middle" x="265.5" y="-46" font-family="Helvetica,sans-Serif" font-size="10.00">::seed</text>
</a>
</g>
</g>
<!-- Node1&#45;&gt;Node7 -->
<g id="edge6" class="edge">
<title>Node1&#45;&gt;Node7</title>
<path fill="none" stroke="midnightblue" d="M100.08,-107.46C121.88,-99.57 153.85,-88.21 182,-79 188.94,-76.73 196.24,-74.41 203.5,-72.15"/>
<polygon fill="midnightblue" stroke="midnightblue" points="204.82,-75.41 213.34,-69.12 202.75,-68.72 204.82,-75.41"/>
</g>
<!-- Node8 -->
<g id="node8" class="node">
<title>Node8</title>
<g id="a_node8"><a xlink:href="classhgps_1_1ModelInput.html#a045b359f9876d85a9dadf8afd6c677c8" target="_top" xlink:title=" ">
<polygon fill="none" stroke="black" points="188,-0.5 188,-19.5 343,-19.5 343,-0.5 188,-0.5"/>
<text text-anchor="middle" x="265.5" y="-7.5" font-family="Helvetica,sans-Serif" font-size="10.00">hgps::ModelInput::stop_time</text>
</a>
</g>
</g>
<!-- Node1&#45;&gt;Node8 -->
<g id="edge7" class="edge">
<title>Node1&#45;&gt;Node8</title>
<path fill="none" stroke="midnightblue" d="M83.1,-107.24C100.52,-89.16 140.54,-50.44 182,-30 187.73,-27.18 193.88,-24.74 200.14,-22.63"/>
<polygon fill="midnightblue" stroke="midnightblue" points="201.51,-25.87 210.04,-19.59 199.45,-19.18 201.51,-25.87"/>
</g>
<!-- Node4 -->
<g id="node4" class="node">
<title>Node4</title>
<g id="a_node4"><a xlink:href="structhgps_1_1SimulationDefinition.html#af3cfaccd2244487a2002ae4fd2f0fdf7" target="_top" xlink:title=" ">
<polygon fill="none" stroke="black" points="385,-159 385,-189 531,-189 531,-159 385,-159"/>
<text text-anchor="start" x="393" y="-177" font-family="Helvetica,sans-Serif" font-size="10.00">hgps::SimulationDefinition</text>
<text text-anchor="middle" x="458" y="-166" font-family="Helvetica,sans-Serif" font-size="10.00">::identifier</text>
</a>
</g>
</g>
<!-- Node3&#45;&gt;Node4 -->
<g id="edge3" class="edge">
<title>Node3&#45;&gt;Node4</title>
<path fill="none" stroke="midnightblue" d="M331.53,-174C345.32,-174 360.05,-174 374.4,-174"/>
<polygon fill="midnightblue" stroke="midnightblue" points="374.75,-177.5 384.75,-174 374.75,-170.5 374.75,-177.5"/>
</g>
</g>
</svg>
