<?xml version="1.0" encoding="UTF-8" standalone="no"?>
<!DOCTYPE svg PUBLIC "-//W3C//DTD SVG 1.1//EN"
 "http://www.w3.org/Graphics/SVG/1.1/DTD/svg11.dtd">
<!-- Generated by graphviz version 2.43.0 (0)
 -->
<!-- Title: hgps::HealthGPS::update Pages: 1 -->
<svg width="495pt" height="323pt"
 viewBox="0.00 0.00 495.00 323.00" xmlns="http://www.w3.org/2000/svg" xmlns:xlink="http://www.w3.org/1999/xlink">
<g id="graph0" class="graph" transform="scale(1 1) rotate(0) translate(4 319)">
<title>hgps::HealthGPS::update</title>
<!-- Node1 -->
<g id="node1" class="node">
<title>Node1</title>
<g id="a_node1"><a xlink:title=" ">
<polygon fill="#bfbfbf" stroke="black" points="0,-153 0,-172 137,-172 137,-153 0,-153"/>
<text text-anchor="middle" x="68.5" y="-160" font-family="Helvetica,sans-Serif" font-size="10.00">hgps::HealthGPS::update</text>
</a>
</g>
</g>
<!-- Node2 -->
<g id="node2" class="node">
<title>Node2</title>
<g id="a_node2"><a xlink:href="classhgps_1_1RuntimeContext.html#a1a283e5db3f10c4296241cc957122c87" target="_top" xlink:title=" ">
<polygon fill="none" stroke="black" points="176.5,-284.5 176.5,-314.5 301.5,-314.5 301.5,-284.5 176.5,-284.5"/>
<text text-anchor="start" x="184.5" y="-302.5" font-family="Helvetica,sans-Serif" font-size="10.00">hgps::RuntimeContext</text>
<text text-anchor="middle" x="239" y="-291.5" font-family="Helvetica,sans-Serif" font-size="10.00">::current_run</text>
</a>
</g>
</g>
<!-- Node1&#45;&gt;Node2 -->
<g id="edge1" class="edge">
<title>Node1&#45;&gt;Node2</title>
<path fill="none" stroke="midnightblue" d="M75.85,-172.1C90.51,-193.55 128.83,-245.83 173,-275.5 175.26,-277.02 177.63,-278.46 180.08,-279.82"/>
<polygon fill="midnightblue" stroke="midnightblue" points="178.66,-283.03 189.17,-284.4 181.82,-276.78 178.66,-283.03"/>
</g>
<!-- Node3 -->
<g id="node3" class="node">
<title>Node3</title>
<g id="a_node3"><a xlink:href="classhgps_1_1RuntimeContext.html#a0e888d326a217dcf378f1cb29eecf3b0" target="_top" xlink:title=" ">
<polygon fill="none" stroke="black" points="176.5,-235.5 176.5,-265.5 301.5,-265.5 301.5,-235.5 176.5,-235.5"/>
<text text-anchor="start" x="184.5" y="-253.5" font-family="Helvetica,sans-Serif" font-size="10.00">hgps::RuntimeContext</text>
<text text-anchor="middle" x="239" y="-242.5" font-family="Helvetica,sans-Serif" font-size="10.00">::metrics</text>
</a>
</g>
</g>
<!-- Node1&#45;&gt;Node3 -->
<g id="edge2" class="edge">
<title>Node1&#45;&gt;Node3</title>
<path fill="none" stroke="midnightblue" d="M83.44,-172.1C102.9,-185.24 139.59,-209.07 173,-225.5 177.25,-227.59 181.73,-229.63 186.25,-231.58"/>
<polygon fill="midnightblue" stroke="midnightblue" points="184.99,-234.84 195.57,-235.45 187.68,-228.38 184.99,-234.84"/>
</g>
<!-- Node4 -->
<g id="node4" class="node">
<title>Node4</title>
<g id="a_node4"><a xlink:href="classhgps_1_1Simulation.html#a405fa37a049c3a5e1ee9f16c8c8e2a80" target="_top" xlink:title=" ">
<polygon fill="none" stroke="black" points="173,-197 173,-216 305,-216 305,-197 173,-197"/>
<text text-anchor="middle" x="239" y="-204" font-family="Helvetica,sans-Serif" font-size="10.00">hgps::Simulation::name</text>
</a>
</g>
</g>
<!-- Node1&#45;&gt;Node4 -->
<g id="edge3" class="edge">
<title>Node1&#45;&gt;Node4</title>
<path fill="none" stroke="midnightblue" d="M106.06,-172.05C131.12,-178.59 164.58,-187.33 191.53,-194.37"/>
<polygon fill="midnightblue" stroke="midnightblue" points="190.95,-197.83 201.51,-196.97 192.72,-191.06 190.95,-197.83"/>
</g>
<!-- Node6 -->
<g id="node6" class="node">
<title>Node6</title>
<g id="a_node6"><a xlink:href="classhgps_1_1RuntimeContext.html#ac0b304648b1a5fa47ebf4dfe348cfaa7" target="_top" xlink:title=" ">
<polygon fill="none" stroke="black" points="176.5,-147.5 176.5,-177.5 301.5,-177.5 301.5,-147.5 176.5,-147.5"/>
<text text-anchor="start" x="184.5" y="-165.5" font-family="Helvetica,sans-Serif" font-size="10.00">hgps::RuntimeContext</text>
<text text-anchor="middle" x="239" y="-154.5" font-family="Helvetica,sans-Serif" font-size="10.00">::publish</text>
</a>
</g>
</g>
<!-- Node1&#45;&gt;Node6 -->
<g id="edge5" class="edge">
<title>Node1&#45;&gt;Node6</title>
<path fill="none" stroke="midnightblue" d="M137.06,-162.5C146.71,-162.5 156.67,-162.5 166.39,-162.5"/>
<polygon fill="midnightblue" stroke="midnightblue" points="166.42,-166 176.42,-162.5 166.42,-159 166.42,-166"/>
</g>
<!-- Node7 -->
<g id="node7" class="node">
<title>Node7</title>
<g id="a_node7"><a xlink:href="classhgps_1_1RuntimeMetric.html#aa6633f66ca339f310d7e52292447005c" target="_top" xlink:title=" ">
<polygon fill="none" stroke="black" points="180,-98.5 180,-128.5 298,-128.5 298,-98.5 180,-98.5"/>
<text text-anchor="start" x="188" y="-116.5" font-family="Helvetica,sans-Serif" font-size="10.00">hgps::RuntimeMetric</text>
<text text-anchor="middle" x="239" y="-105.5" font-family="Helvetica,sans-Serif" font-size="10.00">::reset</text>
</a>
</g>
</g>
<!-- Node1&#45;&gt;Node7 -->
<g id="edge6" class="edge">
<title>Node1&#45;&gt;Node7</title>
<path fill="none" stroke="midnightblue" d="M102.39,-152.94C123.44,-146.81 151.41,-138.68 176.48,-131.39"/>
<polygon fill="midnightblue" stroke="midnightblue" points="177.67,-134.69 186.29,-128.54 175.71,-127.97 177.67,-134.69"/>
</g>
<!-- Node8 -->
<g id="node8" class="node">
<title>Node8</title>
<g id="a_node8"><a xlink:href="classhgps_1_1RuntimeContext.html#a25badead30720b70f16be9776a13cbfa" target="_top" xlink:title=" ">
<polygon fill="none" stroke="black" points="176.5,-49.5 176.5,-79.5 301.5,-79.5 301.5,-49.5 176.5,-49.5"/>
<text text-anchor="start" x="184.5" y="-67.5" font-family="Helvetica,sans-Serif" font-size="10.00">hgps::RuntimeContext</text>
<text text-anchor="middle" x="239" y="-56.5" font-family="Helvetica,sans-Serif" font-size="10.00">::set_current_time</text>
</a>
</g>
</g>
<!-- Node1&#45;&gt;Node8 -->
<g id="edge7" class="edge">
<title>Node1&#45;&gt;Node8</title>
<path fill="none" stroke="midnightblue" d="M80.99,-152.95C99.46,-137.94 137.32,-108.57 173,-89.5 176.88,-87.42 180.98,-85.43 185.14,-83.55"/>
<polygon fill="midnightblue" stroke="midnightblue" points="186.53,-86.76 194.33,-79.58 183.76,-80.33 186.53,-86.76"/>
</g>
<!-- Node9 -->
<g id="node9" class="node">
<title>Node9</title>
<g id="a_node9"><a xlink:href="classhgps_1_1RuntimeContext.html#a5eb9de9f095d934ababb9119d506b781" target="_top" xlink:title=" ">
<polygon fill="none" stroke="black" points="176.5,-0.5 176.5,-30.5 301.5,-30.5 301.5,-0.5 176.5,-0.5"/>
<text text-anchor="start" x="184.5" y="-18.5" font-family="Helvetica,sans-Serif" font-size="10.00">hgps::RuntimeContext</text>
<text text-anchor="middle" x="239" y="-7.5" font-family="Helvetica,sans-Serif" font-size="10.00">::time_now</text>
</a>
</g>
</g>
<!-- Node1&#45;&gt;Node9 -->
<g id="edge8" class="edge">
<title>Node1&#45;&gt;Node9</title>
<path fill="none" stroke="midnightblue" d="M75.27,-152.84C89.26,-130.16 127.25,-72.97 173,-40.5 175.66,-38.61 178.49,-36.84 181.41,-35.19"/>
<polygon fill="midnightblue" stroke="midnightblue" points="183.1,-38.25 190.4,-30.57 179.91,-32.03 183.1,-38.25"/>
</g>
<!-- Node5 -->
<g id="node5" class="node">
<title>Node5</title>
<g id="a_node5"><a xlink:href="structhgps_1_1SimulationDefinition.html#af3cfaccd2244487a2002ae4fd2f0fdf7" target="_top" xlink:title=" ">
<polygon fill="none" stroke="black" points="341,-191.5 341,-221.5 487,-221.5 487,-191.5 341,-191.5"/>
<text text-anchor="start" x="349" y="-209.5" font-family="Helvetica,sans-Serif" font-size="10.00">hgps::SimulationDefinition</text>
<text text-anchor="middle" x="414" y="-198.5" font-family="Helvetica,sans-Serif" font-size="10.00">::identifier</text>
</a>
</g>
</g>
<!-- Node4&#45;&gt;Node5 -->
<g id="edge4" class="edge">
<title>Node4&#45;&gt;Node5</title>
<path fill="none" stroke="midnightblue" d="M305.4,-206.5C313.64,-206.5 322.14,-206.5 330.59,-206.5"/>
<polygon fill="midnightblue" stroke="midnightblue" points="330.85,-210 340.85,-206.5 330.85,-203 330.85,-210"/>
</g>
</g>
</svg>
