<?xml version="1.0" encoding="UTF-8" standalone="no"?>
<!DOCTYPE svg PUBLIC "-//W3C//DTD SVG 1.1//EN"
 "http://www.w3.org/Graphics/SVG/1.1/DTD/svg11.dtd">
<!-- Generated by graphviz version 2.43.0 (0)
 -->
<!-- Title: hgps::ModelInput::seed Pages: 1 -->
<svg width="397pt" height="78pt"
 viewBox="0.00 0.00 397.00 77.50" xmlns="http://www.w3.org/2000/svg" xmlns:xlink="http://www.w3.org/1999/xlink">
<g id="graph0" class="graph" transform="scale(1 1) rotate(0) translate(4 73.5)">
<title>hgps::ModelInput::seed</title>
<!-- Node1 -->
<g id="node1" class="node">
<title>Node1</title>
<g id="a_node1"><a xlink:title=" ">
<polygon fill="#bfbfbf" stroke="black" points="259,-22.5 259,-41.5 389,-41.5 389,-22.5 259,-22.5"/>
<text text-anchor="middle" x="324" y="-29.5" font-family="Helvetica,sans-Serif" font-size="10.00">hgps::ModelInput::seed</text>
</a>
</g>
</g>
<!-- Node2 -->
<g id="node2" class="node">
<title>Node2</title>
<g id="a_node2"><a xlink:href="configuration_8cpp.html#af5bcc5029f8d8a94e399e6570cbcd645" target="_top" xlink:title=" ">
<polygon fill="none" stroke="black" points="97,-39 97,-69 203,-69 203,-39 97,-39"/>
<text text-anchor="start" x="105" y="-57" font-family="Helvetica,sans-Serif" font-size="10.00">create_results_file</text>
<text text-anchor="middle" x="150" y="-46" font-family="Helvetica,sans-Serif" font-size="10.00">_logger</text>
</a>
</g>
</g>
<!-- Node1&#45;&gt;Node2 -->
<g id="edge1" class="edge">
<title>Node1&#45;&gt;Node2</title>
<path fill="none" stroke="midnightblue" d="M248.9,-41.48C233.45,-43.45 217.48,-45.5 203.03,-47.34"/>
<polygon fill="midnightblue" stroke="midnightblue" points="249.48,-44.93 258.95,-40.19 248.59,-37.99 249.48,-44.93"/>
</g>
<!-- Node4 -->
<g id="node4" class="node">
<title>Node4</title>
<g id="a_node4"><a xlink:href="classhgps_1_1HealthGPS.html#a7b9b065171ddebcefd5827688a79472c" target="_top" xlink:title="Initialises the simulation experiment.">
<polygon fill="none" stroke="black" points="77,-0.5 77,-19.5 223,-19.5 223,-0.5 77,-0.5"/>
<text text-anchor="middle" x="150" y="-7.5" font-family="Helvetica,sans-Serif" font-size="10.00">hgps::HealthGPS::initialize</text>
</a>
</g>
</g>
<!-- Node1&#45;&gt;Node4 -->
<g id="edge3" class="edge">
<title>Node1&#45;&gt;Node4</title>
<path fill="none" stroke="midnightblue" d="M249.01,-22.54C240.45,-21.44 231.73,-20.33 223.2,-19.24"/>
<polygon fill="midnightblue" stroke="midnightblue" points="248.59,-26.01 258.95,-23.81 249.48,-19.07 248.59,-26.01"/>
</g>
<!-- Node3 -->
<g id="node3" class="node">
<title>Node3</title>
<g id="a_node3"><a xlink:href="program_8cpp.html#a0ddf1224851353fc92bfbff6f499fa97" target="_top" xlink:title=" ">
<polygon fill="none" stroke="black" points="0,-44.5 0,-63.5 41,-63.5 41,-44.5 0,-44.5"/>
<text text-anchor="middle" x="20.5" y="-51.5" font-family="Helvetica,sans-Serif" font-size="10.00">main</text>
</a>
</g>
</g>
<!-- Node2&#45;&gt;Node3 -->
<g id="edge2" class="edge">
<title>Node2&#45;&gt;Node3</title>
<path fill="none" stroke="midnightblue" d="M86.54,-54C70.01,-54 53.37,-54 41.05,-54"/>
<polygon fill="midnightblue" stroke="midnightblue" points="86.77,-57.5 96.77,-54 86.77,-50.5 86.77,-57.5"/>
</g>
</g>
</svg>
