<?xml version="1.0" encoding="UTF-8" standalone="no"?>
<!DOCTYPE svg PUBLIC "-//W3C//DTD SVG 1.1//EN"
 "http://www.w3.org/Graphics/SVG/1.1/DTD/svg11.dtd">
<!-- Generated by graphviz version 7.0.6 (20230106.0513)
 -->
<!-- Title: hgps::DiseaseTable::size Pages: 1 -->
<svg width="248pt" height="86pt"
 viewBox="0.00 0.00 248.00 86.00" xmlns="http://www.w3.org/2000/svg" xmlns:xlink="http://www.w3.org/1999/xlink">
<g id="graph0" class="graph" transform="scale(1 1) rotate(0) translate(4 82)">
<title>hgps::DiseaseTable::size</title>
<!-- Node1 -->
<g id="node1" class="node">
<title>Node1</title>
<g id="a_node1"><a xlink:title=" ">
<polygon fill="#999999" stroke="#666666" points="102,-54 0,-54 0,-24 102,-24 102,-54"/>
<text text-anchor="start" x="8" y="-42" font-family="Helvetica,sans-Serif" font-size="10.00">hgps::DiseaseTable</text>
<text text-anchor="middle" x="51" y="-31" font-family="Helvetica,sans-Serif" font-size="10.00">::size</text>
</a>
</g>
</g>
<!-- Node2 -->
<g id="node2" class="node">
<title>Node2</title>
<g id="a_node2"><a xlink:href="classhgps_1_1_disease_table.html#a539b7ec4633a9b9e3b24796e0bdf255a" target="_top" xlink:title=" ">
<polygon fill="white" stroke="#666666" points="240,-78 138,-78 138,-48 240,-48 240,-78"/>
<text text-anchor="start" x="146" y="-66" font-family="Helvetica,sans-Serif" font-size="10.00">hgps::DiseaseTable</text>
<text text-anchor="middle" x="189" y="-55" font-family="Helvetica,sans-Serif" font-size="10.00">::cols</text>
</a>
</g>
</g>
<!-- Node1&#45;&gt;Node2 -->
<g id="edge1" class="edge">
<title>Node1&#45;&gt;Node2</title>
<path fill="none" stroke="#63b8ff" d="M102.25,-47.87C110.27,-49.28 118.63,-50.76 126.86,-52.21"/>
<polygon fill="#63b8ff" stroke="#63b8ff" points="126,-55.61 136.46,-53.9 127.22,-48.72 126,-55.61"/>
</g>
<!-- Node3 -->
<g id="node3" class="node">
<title>Node3</title>
<g id="a_node3"><a xlink:href="classhgps_1_1_disease_table.html#a7cb0b6c39bab1ca92b1f39b0887830c5" target="_top" xlink:title=" ">
<polygon fill="white" stroke="#666666" points="240,-30 138,-30 138,0 240,0 240,-30"/>
<text text-anchor="start" x="146" y="-18" font-family="Helvetica,sans-Serif" font-size="10.00">hgps::DiseaseTable</text>
<text text-anchor="middle" x="189" y="-7" font-family="Helvetica,sans-Serif" font-size="10.00">::rows</text>
</a>
</g>
</g>
<!-- Node1&#45;&gt;Node3 -->
<g id="edge2" class="edge">
<title>Node1&#45;&gt;Node3</title>
<path fill="none" stroke="#63b8ff" d="M102.25,-30.13C110.27,-28.72 118.63,-27.24 126.86,-25.79"/>
<polygon fill="#63b8ff" stroke="#63b8ff" points="127.22,-29.28 136.46,-24.1 126,-22.39 127.22,-29.28"/>
</g>
</g>
</svg>
