<?xml version="1.0" encoding="UTF-8" standalone="no"?>
<!DOCTYPE svg PUBLIC "-//W3C//DTD SVG 1.1//EN"
 "http://www.w3.org/Graphics/SVG/1.1/DTD/svg11.dtd">
<!-- Generated by graphviz version 7.0.6 (20230106.0513)
 -->
<!-- Title: hgps::HealthGPS::initialize Pages: 1 -->
<svg width="492pt" height="236pt"
 viewBox="0.00 0.00 492.00 235.50" xmlns="http://www.w3.org/2000/svg" xmlns:xlink="http://www.w3.org/1999/xlink">
<g id="graph0" class="graph" transform="scale(1 1) rotate(0) translate(4 231.5)">
<title>hgps::HealthGPS::initialize</title>
<!-- Node1 -->
<g id="node1" class="node">
<title>Node1</title>
<g id="a_node1"><a xlink:title=" ">
<polygon fill="#999999" stroke="#666666" points="134,-123 0,-123 0,-104 134,-104 134,-123"/>
<text text-anchor="middle" x="67" y="-111" font-family="Helvetica,sans-Serif" font-size="10.00">hgps::HealthGPS::initialize</text>
</a>
</g>
</g>
<!-- Node2 -->
<g id="node2" class="node">
<title>Node2</title>
<g id="a_node2"><a xlink:href="structhgps_1_1_simulation_definition.html#a6744348b0f2deec4ce75b7c08968c127" target="_top" xlink:title=" ">
<polygon fill="white" stroke="#666666" points="309,-227.5 180,-227.5 180,-197.5 309,-197.5 309,-227.5"/>
<text text-anchor="start" x="188" y="-215.5" font-family="Helvetica,sans-Serif" font-size="10.00">hgps::SimulationDefinition</text>
<text text-anchor="middle" x="244.5" y="-204.5" font-family="Helvetica,sans-Serif" font-size="10.00">::inputs</text>
</a>
</g>
</g>
<!-- Node1&#45;&gt;Node2 -->
<g id="edge1" class="edge">
<title>Node1&#45;&gt;Node2</title>
<path fill="none" stroke="#63b8ff" d="M78.84,-123.32C96.67,-139.02 133.84,-169.91 170,-188.5 173.01,-190.05 176.13,-191.52 179.33,-192.92"/>
<polygon fill="#63b8ff" stroke="#63b8ff" points="177.71,-196.04 188.29,-196.58 180.35,-189.56 177.71,-196.04"/>
</g>
<!-- Node3 -->
<g id="node3" class="node">
<title>Node3</title>
<g id="a_node3"><a xlink:href="classhgps_1_1_simulation.html#a405fa37a049c3a5e1ee9f16c8c8e2a80" target="_top" xlink:title=" ">
<polygon fill="white" stroke="#666666" points="304,-179 185,-179 185,-160 304,-160 304,-179"/>
<text text-anchor="middle" x="244.5" y="-167" font-family="Helvetica,sans-Serif" font-size="10.00">hgps::Simulation::name</text>
</a>
</g>
</g>
<!-- Node1&#45;&gt;Node3 -->
<g id="edge2" class="edge">
<title>Node1&#45;&gt;Node3</title>
<path fill="none" stroke="#63b8ff" d="M92.05,-123.36C112.54,-131.55 142.91,-143.17 170,-151.5 175.89,-153.31 182.08,-155.06 188.27,-156.71"/>
<polygon fill="#63b8ff" stroke="#63b8ff" points="187.33,-160.08 197.89,-159.2 189.08,-153.31 187.33,-160.08"/>
</g>
<!-- Node5 -->
<g id="node5" class="node">
<title>Node5</title>
<g id="a_node5"><a xlink:href="structhgps_1_1_simulation_definition.html#a735106fc3ad7c814aa94b7d7aa40b8e5" target="_top" xlink:title=" ">
<polygon fill="white" stroke="#666666" points="319,-142 170,-142 170,-123 319,-123 319,-142"/>
<text text-anchor="middle" x="244.5" y="-130" font-family="Helvetica,sans-Serif" font-size="10.00">hgps::SimulationDefinition::rnd</text>
</a>
</g>
</g>
<!-- Node1&#45;&gt;Node5 -->
<g id="edge4" class="edge">
<title>Node1&#45;&gt;Node5</title>
<path fill="none" stroke="#63b8ff" d="M134.35,-120.68C142.2,-121.53 150.29,-122.41 158.36,-123.28"/>
<polygon fill="#63b8ff" stroke="#63b8ff" points="157.89,-126.75 168.21,-124.35 158.64,-119.79 157.89,-126.75"/>
</g>
<!-- Node6 -->
<g id="node6" class="node">
<title>Node6</title>
<g id="a_node6"><a xlink:href="classhgps_1_1_model_input.html#a5035a15c52467ce060d8f4d5ed21116b" target="_top" xlink:title=" ">
<polygon fill="white" stroke="#666666" points="303.5,-105 185.5,-105 185.5,-86 303.5,-86 303.5,-105"/>
<text text-anchor="middle" x="244.5" y="-93" font-family="Helvetica,sans-Serif" font-size="10.00">hgps::ModelInput::seed</text>
</a>
</g>
</g>
<!-- Node1&#45;&gt;Node6 -->
<g id="edge5" class="edge">
<title>Node1&#45;&gt;Node6</title>
<path fill="none" stroke="#63b8ff" d="M134.35,-106.69C147.26,-105.37 160.83,-103.98 173.85,-102.64"/>
<polygon fill="#63b8ff" stroke="#63b8ff" points="174.02,-106.14 183.61,-101.64 173.3,-99.18 174.02,-106.14"/>
</g>
<!-- Node7 -->
<g id="node7" class="node">
<title>Node7</title>
<g id="a_node7"><a xlink:href="classhgps_1_1_random_bit_generator.html#ac58717fa118fcd760ed04bed995c4d63" target="_top" xlink:title=" ">
<polygon fill="white" stroke="#666666" points="311.5,-67.5 177.5,-67.5 177.5,-37.5 311.5,-37.5 311.5,-67.5"/>
<text text-anchor="start" x="185.5" y="-55.5" font-family="Helvetica,sans-Serif" font-size="10.00">hgps::RandomBitGenerator</text>
<text text-anchor="middle" x="244.5" y="-44.5" font-family="Helvetica,sans-Serif" font-size="10.00">::seed</text>
</a>
</g>
</g>
<!-- Node1&#45;&gt;Node7 -->
<g id="edge6" class="edge">
<title>Node1&#45;&gt;Node7</title>
<path fill="none" stroke="#63b8ff" d="M95.68,-103.64C116.18,-96.35 144.8,-86.23 170,-77.5 175.65,-75.54 181.55,-73.51 187.45,-71.49"/>
<polygon fill="#63b8ff" stroke="#63b8ff" points="188.23,-74.92 196.56,-68.38 185.96,-68.3 188.23,-74.92"/>
</g>
<!-- Node8 -->
<g id="node8" class="node">
<title>Node8</title>
<g id="a_node8"><a xlink:href="classhgps_1_1_model_input.html#a045b359f9876d85a9dadf8afd6c677c8" target="_top" xlink:title=" ">
<polygon fill="white" stroke="#666666" points="314.5,-19 174.5,-19 174.5,0 314.5,0 314.5,-19"/>
<text text-anchor="middle" x="244.5" y="-7" font-family="Helvetica,sans-Serif" font-size="10.00">hgps::ModelInput::stop_time</text>
</a>
</g>
</g>
<!-- Node1&#45;&gt;Node8 -->
<g id="edge7" class="edge">
<title>Node1&#45;&gt;Node8</title>
<path fill="none" stroke="#63b8ff" d="M76.81,-103.73C93.33,-86.02 130.82,-48.59 170,-28.5 173.91,-26.49 178.05,-24.69 182.3,-23.06"/>
<polygon fill="#63b8ff" stroke="#63b8ff" points="183.23,-26.44 191.55,-19.88 180.96,-19.82 183.23,-26.44"/>
</g>
<!-- Node4 -->
<g id="node4" class="node">
<title>Node4</title>
<g id="a_node4"><a xlink:href="structhgps_1_1_simulation_definition.html#af3cfaccd2244487a2002ae4fd2f0fdf7" target="_top" xlink:title=" ">
<polygon fill="white" stroke="#666666" points="484,-184.5 355,-184.5 355,-154.5 484,-154.5 484,-184.5"/>
<text text-anchor="start" x="363" y="-172.5" font-family="Helvetica,sans-Serif" font-size="10.00">hgps::SimulationDefinition</text>
<text text-anchor="middle" x="419.5" y="-161.5" font-family="Helvetica,sans-Serif" font-size="10.00">::identifier</text>
</a>
</g>
</g>
<!-- Node3&#45;&gt;Node4 -->
<g id="edge3" class="edge">
<title>Node3&#45;&gt;Node4</title>
<path fill="none" stroke="#63b8ff" d="M304.07,-169.5C316.66,-169.5 330.12,-169.5 343.24,-169.5"/>
<polygon fill="#63b8ff" stroke="#63b8ff" points="343.14,-173 353.14,-169.5 343.14,-166 343.14,-173"/>
</g>
</g>
</svg>
