<?xml version="1.0" encoding="UTF-8" standalone="no"?>
<!DOCTYPE svg PUBLIC "-//W3C//DTD SVG 1.1//EN"
 "http://www.w3.org/Graphics/SVG/1.1/DTD/svg11.dtd">
<!-- Generated by graphviz version 7.0.6 (20230106.0513)
 -->
<!-- Title: hgps::Map2d::size Pages: 1 -->
<svg width="257pt" height="64pt"
 viewBox="0.00 0.00 257.00 64.00" xmlns="http://www.w3.org/2000/svg" xmlns:xlink="http://www.w3.org/1999/xlink">
<g id="graph0" class="graph" transform="scale(1 1) rotate(0) translate(4 60)">
<title>hgps::Map2d::size</title>
<!-- Node1 -->
<g id="node1" class="node">
<title>Node1</title>
<g id="a_node1"><a xlink:title=" ">
<polygon fill="#999999" stroke="#666666" points="97,-37 0,-37 0,-18 97,-18 97,-37"/>
<text text-anchor="middle" x="48.5" y="-25" font-family="Helvetica,sans-Serif" font-size="10.00">hgps::Map2d::size</text>
</a>
</g>
</g>
<!-- Node2 -->
<g id="node2" class="node">
<title>Node2</title>
<g id="a_node2"><a xlink:href="classhgps_1_1_map2d.html#ab5025bb26f111b321db9ba349abd9be0" target="_top" xlink:title=" ">
<polygon fill="white" stroke="#666666" points="249,-56 133,-56 133,-37 249,-37 249,-56"/>
<text text-anchor="middle" x="191" y="-44" font-family="Helvetica,sans-Serif" font-size="10.00">hgps::Map2d::columns</text>
</a>
</g>
</g>
<!-- Node1&#45;&gt;Node2 -->
<g id="edge1" class="edge">
<title>Node1&#45;&gt;Node2</title>
<path fill="none" stroke="#63b8ff" d="M97.46,-33.99C105.13,-35.02 113.2,-36.11 121.24,-37.2"/>
<polygon fill="#63b8ff" stroke="#63b8ff" points="120.67,-40.66 131.05,-38.53 121.61,-33.72 120.67,-40.66"/>
</g>
<!-- Node3 -->
<g id="node3" class="node">
<title>Node3</title>
<g id="a_node3"><a xlink:href="classhgps_1_1_map2d.html#a7b27abcf5782c049aca2846b11ba6dc3" target="_top" xlink:title=" ">
<polygon fill="white" stroke="#666666" points="240.5,-19 141.5,-19 141.5,0 240.5,0 240.5,-19"/>
<text text-anchor="middle" x="191" y="-7" font-family="Helvetica,sans-Serif" font-size="10.00">hgps::Map2d::rows</text>
</a>
</g>
</g>
<!-- Node1&#45;&gt;Node3 -->
<g id="edge2" class="edge">
<title>Node1&#45;&gt;Node3</title>
<path fill="none" stroke="#63b8ff" d="M97.46,-21.36C107.96,-20.01 119.2,-18.57 130.11,-17.17"/>
<polygon fill="#63b8ff" stroke="#63b8ff" points="130.33,-20.67 139.8,-15.93 129.44,-13.73 130.33,-20.67"/>
</g>
</g>
</svg>
