<?xml version="1.0" encoding="UTF-8" standalone="no"?>
<!DOCTYPE svg PUBLIC "-//W3C//DTD SVG 1.1//EN"
 "http://www.w3.org/Graphics/SVG/1.1/DTD/svg11.dtd">
<!-- Generated by graphviz version 7.0.6 (20230106.0513)
 -->
<!-- Title: hgps::core::DataTableColumnVisitor::visit Pages: 1 -->
<svg width="331pt" height="182pt"
 viewBox="0.00 0.00 331.00 182.00" xmlns="http://www.w3.org/2000/svg" xmlns:xlink="http://www.w3.org/1999/xlink">
<g id="graph0" class="graph" transform="scale(1 1) rotate(0) translate(4 178)">
<title>hgps::core::DataTableColumnVisitor::visit</title>
<!-- Node1 -->
<g id="node1" class="node">
<title>Node1</title>
<g id="a_node1"><a xlink:title=" ">
<polygon fill="#999999" stroke="#666666" points="323,-102 178,-102 178,-72 323,-72 323,-102"/>
<text text-anchor="start" x="186" y="-90" font-family="Helvetica,sans-Serif" font-size="10.00">hgps::core::DataTableColumn</text>
<text text-anchor="middle" x="250.5" y="-79" font-family="Helvetica,sans-Serif" font-size="10.00">Visitor::visit</text>
</a>
</g>
</g>
<!-- Node2 -->
<g id="node2" class="node">
<title>Node2</title>
<g id="a_node2"><a xlink:href="classhgps_1_1core_1_1_float_data_table_column.html#ae60c8664ec49395fbfd08c137a4597ba" target="_top" xlink:title=" ">
<polygon fill="white" stroke="#666666" points="138,-174 4,-174 4,-144 138,-144 138,-174"/>
<text text-anchor="start" x="12" y="-162" font-family="Helvetica,sans-Serif" font-size="10.00">hgps::core::FloatDataTable</text>
<text text-anchor="middle" x="71" y="-151" font-family="Helvetica,sans-Serif" font-size="10.00">Column::accept</text>
</a>
</g>
</g>
<!-- Node1&#45;&gt;Node2 -->
<g id="edge1" class="edge">
<title>Node1&#45;&gt;Node2</title>
<path fill="none" stroke="#63b8ff" d="M206.49,-107.26C186.98,-116.18 163.5,-126.53 142,-135 134.59,-137.92 126.66,-140.83 118.9,-143.57"/>
<polygon fill="#63b8ff" stroke="#63b8ff" points="207.9,-110.47 215.51,-103.11 204.97,-104.11 207.9,-110.47"/>
</g>
<!-- Node3 -->
<g id="node3" class="node">
<title>Node3</title>
<g id="a_node3"><a xlink:href="classhgps_1_1core_1_1_double_data_table_column.html#a91b96ce2054fe2f07e56a8d2fa3376a8" target="_top" xlink:title=" ">
<polygon fill="white" stroke="#666666" points="142,-126 0,-126 0,-96 142,-96 142,-126"/>
<text text-anchor="start" x="8" y="-114" font-family="Helvetica,sans-Serif" font-size="10.00">hgps::core::DoubleDataTable</text>
<text text-anchor="middle" x="71" y="-103" font-family="Helvetica,sans-Serif" font-size="10.00">Column::accept</text>
</a>
</g>
</g>
<!-- Node1&#45;&gt;Node3 -->
<g id="edge2" class="edge">
<title>Node1&#45;&gt;Node3</title>
<path fill="none" stroke="#63b8ff" d="M166.29,-98.25C158.27,-99.34 150.19,-100.43 142.32,-101.49"/>
<polygon fill="#63b8ff" stroke="#63b8ff" points="166.62,-101.74 176.06,-96.93 165.68,-94.8 166.62,-101.74"/>
</g>
<!-- Node4 -->
<g id="node4" class="node">
<title>Node4</title>
<g id="a_node4"><a xlink:href="classhgps_1_1core_1_1_integer_data_table_column.html#a8ed9fb854f2b3c991d26f9b30a1f4149" target="_top" xlink:title=" ">
<polygon fill="white" stroke="#666666" points="141.5,-78 0.5,-78 0.5,-48 141.5,-48 141.5,-78"/>
<text text-anchor="start" x="8.5" y="-66" font-family="Helvetica,sans-Serif" font-size="10.00">hgps::core::IntegerDataTable</text>
<text text-anchor="middle" x="71" y="-55" font-family="Helvetica,sans-Serif" font-size="10.00">Column::accept</text>
</a>
</g>
</g>
<!-- Node1&#45;&gt;Node4 -->
<g id="edge3" class="edge">
<title>Node1&#45;&gt;Node4</title>
<path fill="none" stroke="#63b8ff" d="M166.38,-75.76C158.14,-74.65 149.83,-73.52 141.74,-72.43"/>
<polygon fill="#63b8ff" stroke="#63b8ff" points="165.68,-79.2 176.06,-77.07 166.62,-72.26 165.68,-79.2"/>
</g>
<!-- Node5 -->
<g id="node5" class="node">
<title>Node5</title>
<g id="a_node5"><a xlink:href="classhgps_1_1core_1_1_string_data_table_column.html#a37a40d70d932cef2c40ba11673ffe44d" target="_top" xlink:title=" ">
<polygon fill="white" stroke="#666666" points="139.5,-30 2.5,-30 2.5,0 139.5,0 139.5,-30"/>
<text text-anchor="start" x="10.5" y="-18" font-family="Helvetica,sans-Serif" font-size="10.00">hgps::core::StringDataTable</text>
<text text-anchor="middle" x="71" y="-7" font-family="Helvetica,sans-Serif" font-size="10.00">Column::accept</text>
</a>
</g>
</g>
<!-- Node1&#45;&gt;Node5 -->
<g id="edge4" class="edge">
<title>Node1&#45;&gt;Node5</title>
<path fill="none" stroke="#63b8ff" d="M206.49,-66.74C186.98,-57.82 163.5,-47.47 142,-39 134.59,-36.08 126.66,-33.17 118.9,-30.43"/>
<polygon fill="#63b8ff" stroke="#63b8ff" points="204.97,-69.89 215.51,-70.89 207.9,-63.53 204.97,-69.89"/>
</g>
</g>
</svg>
