<?xml version="1.0" encoding="UTF-8" standalone="no"?>
<!DOCTYPE svg PUBLIC "-//W3C//DTD SVG 1.1//EN"
 "http://www.w3.org/Graphics/SVG/1.1/DTD/svg11.dtd">
<!-- Generated by graphviz version 7.0.6 (20230106.0513)
 -->
<!-- Title: hgps::ModelRunner::run Pages: 1 -->
<svg width="262pt" height="45pt"
 viewBox="0.00 0.00 262.00 45.00" xmlns="http://www.w3.org/2000/svg" xmlns:xlink="http://www.w3.org/1999/xlink">
<g id="graph0" class="graph" transform="scale(1 1) rotate(0) translate(4 41)">
<title>hgps::ModelRunner::run</title>
<!-- Node1 -->
<g id="node1" class="node">
<title>Node1</title>
<g id="a_node1"><a xlink:title=" ">
<polygon fill="#999999" stroke="#666666" points="120,-19 0,-19 0,0 120,0 120,-19"/>
<text text-anchor="middle" x="60" y="-7" font-family="Helvetica,sans-Serif" font-size="10.00">hgps::ModelRunner::run</text>
</a>
</g>
</g>
<!-- Node1&#45;&gt;Node1 -->
<g id="edge2" class="edge">
<title>Node1&#45;&gt;Node1</title>
<path fill="none" stroke="#63b8ff" d="M37.3,-19.37C26.94,-27.94 34.51,-37 60,-37 73.94,-37 82.52,-34.29 85.74,-30.43"/>
<polygon fill="#63b8ff" stroke="#63b8ff" points="89.12,-29.54 83.1,-20.83 82.37,-31.4 89.12,-29.54"/>
</g>
<!-- Node2 -->
<g id="node2" class="node">
<title>Node2</title>
<g id="a_node2"><a xlink:href="namespacehgps.html#aeb4ee9cabdb408fb9404fdf69f46ac11" target="_top" xlink:title=" ">
<polygon fill="white" stroke="#666666" points="254,-19 156,-19 156,0 254,0 254,-19"/>
<text text-anchor="middle" x="205" y="-7" font-family="Helvetica,sans-Serif" font-size="10.00">hgps::make_finally</text>
</a>
</g>
</g>
<!-- Node1&#45;&gt;Node2 -->
<g id="edge1" class="edge">
<title>Node1&#45;&gt;Node2</title>
<path fill="none" stroke="#63b8ff" d="M120.4,-9.5C128.34,-9.5 136.49,-9.5 144.43,-9.5"/>
<polygon fill="#63b8ff" stroke="#63b8ff" points="144.36,-13 154.36,-9.5 144.36,-6 144.36,-13"/>
</g>
</g>
</svg>
