<?xml version="1.0" encoding="UTF-8" standalone="no"?>
<!DOCTYPE svg PUBLIC "-//W3C//DTD SVG 1.1//EN"
 "http://www.w3.org/Graphics/SVG/1.1/DTD/svg11.dtd">
<!-- Generated by graphviz version 2.43.0 (0)
 -->
<!-- Title: hgps::HierarchicalLinearModel Pages: 1 -->
<svg width="336pt" height="106pt"
 viewBox="0.00 0.00 335.50 106.00" xmlns="http://www.w3.org/2000/svg" xmlns:xlink="http://www.w3.org/1999/xlink">
<g id="graph0" class="graph" transform="scale(1 1) rotate(0) translate(4 102)">
<title>hgps::HierarchicalLinearModel</title>
<!-- Node1 -->
<g id="node1" class="node">
<title>Node1</title>
<g id="a_node1"><a xlink:title="Hierarchical linear model interface.">
<polygon fill="#bfbfbf" stroke="black" points="107.5,-67.5 107.5,-97.5 241.5,-97.5 241.5,-67.5 107.5,-67.5"/>
<text text-anchor="start" x="115.5" y="-85.5" font-family="Helvetica,sans-Serif" font-size="10.00">hgps::HierarchicalLinear</text>
<text text-anchor="middle" x="174.5" y="-74.5" font-family="Helvetica,sans-Serif" font-size="10.00">Model</text>
</a>
</g>
</g>
<!-- Node2 -->
<g id="node2" class="node">
<title>Node2</title>
<g id="a_node2"><a xlink:href="classhgps_1_1EnergyBalanceHierarchicalModel.html" target="_top" xlink:title="Implements the dynamic hierarchical linear model (energy balance) type.">
<polygon fill="none" stroke="black" points="0,-0.5 0,-30.5 177,-30.5 177,-0.5 0,-0.5"/>
<text text-anchor="start" x="8" y="-18.5" font-family="Helvetica,sans-Serif" font-size="10.00">hgps::EnergyBalanceHierarchical</text>
<text text-anchor="middle" x="88.5" y="-7.5" font-family="Helvetica,sans-Serif" font-size="10.00">Model</text>
</a>
</g>
</g>
<!-- Node1&#45;&gt;Node2 -->
<g id="edge1" class="edge">
<title>Node1&#45;&gt;Node2</title>
<path fill="none" stroke="midnightblue" d="M147.6,-61.17C134.45,-51.23 118.95,-39.51 107.12,-30.58"/>
<polygon fill="midnightblue" stroke="midnightblue" points="145.75,-64.16 155.84,-67.4 149.97,-58.57 145.75,-64.16"/>
</g>
<!-- Node3 -->
<g id="node3" class="node">
<title>Node3</title>
<g id="a_node3"><a xlink:href="classhgps_1_1StaticHierarchicalLinearModel.html" target="_top" xlink:title="Implements the static hierarchical linear model type.">
<polygon fill="none" stroke="black" points="195.5,-0.5 195.5,-30.5 327.5,-30.5 327.5,-0.5 195.5,-0.5"/>
<text text-anchor="start" x="203.5" y="-18.5" font-family="Helvetica,sans-Serif" font-size="10.00">hgps::StaticHierarchical</text>
<text text-anchor="middle" x="261.5" y="-7.5" font-family="Helvetica,sans-Serif" font-size="10.00">LinearModel</text>
</a>
</g>
</g>
<!-- Node1&#45;&gt;Node3 -->
<g id="edge2" class="edge">
<title>Node1&#45;&gt;Node3</title>
<path fill="none" stroke="midnightblue" d="M201.71,-61.17C215.02,-51.23 230.7,-39.51 242.66,-30.58"/>
<polygon fill="midnightblue" stroke="midnightblue" points="199.29,-58.61 193.38,-67.4 203.48,-64.21 199.29,-58.61"/>
</g>
</g>
</svg>
