<?xml version="1.0" encoding="UTF-8" standalone="no"?>
<!DOCTYPE svg PUBLIC "-//W3C//DTD SVG 1.1//EN"
 "http://www.w3.org/Graphics/SVG/1.1/DTD/svg11.dtd">
<!-- Generated by graphviz version 7.0.6 (20230106.0513)
 -->
<!-- Title: hgps::InterventionScenario Pages: 1 -->
<svg width="644pt" height="224pt"
 viewBox="0.00 0.00 644.00 223.50" xmlns="http://www.w3.org/2000/svg" xmlns:xlink="http://www.w3.org/1999/xlink">
<g id="graph0" class="graph" transform="scale(1 1) rotate(0) translate(4 219.5)">
<title>hgps::InterventionScenario</title>
<!-- Node1 -->
<g id="node1" class="node">
<title>Node1</title>
<g id="a_node1"><a xlink:title="Health GPS scripted intervention policy scenario interface.">
<polygon fill="#999999" stroke="#666666" points="249,-111 118,-111 118,-92 249,-92 249,-111"/>
<text text-anchor="middle" x="183.5" y="-99" font-family="Helvetica,sans-Serif" font-size="10.00">hgps::InterventionScenario</text>
</a>
</g>
</g>
<!-- Node3 -->
<g id="node3" class="node">
<title>Node3</title>
<g id="a_node3"><a xlink:href="classhgps_1_1_dynamic_intervention_scenario.html" target="_top" xlink:title="Health GPS dynamic intervention policy scenario interface.">
<polygon fill="white" stroke="#666666" points="426.5,-215.5 295.5,-215.5 295.5,-185.5 426.5,-185.5 426.5,-215.5"/>
<text text-anchor="start" x="303.5" y="-203.5" font-family="Helvetica,sans-Serif" font-size="10.00">hgps::DynamicIntervention</text>
<text text-anchor="middle" x="361" y="-192.5" font-family="Helvetica,sans-Serif" font-size="10.00">Scenario</text>
</a>
</g>
</g>
<!-- Node1&#45;&gt;Node3 -->
<g id="edge2" class="edge">
<title>Node1&#45;&gt;Node3</title>
<path fill="none" stroke="#63b8ff" d="M204,-118.76C223.4,-135.21 254.58,-159.73 285,-175.5 291.82,-179.04 299.25,-182.22 306.69,-185.04"/>
<polygon fill="#63b8ff" stroke="#63b8ff" points="206.48,-116.28 196.62,-112.4 201.91,-121.58 206.48,-116.28"/>
</g>
<!-- Node5 -->
<g id="node5" class="node">
<title>Node5</title>
<g id="a_node5"><a xlink:href="classhgps_1_1_fiscal_policy_scenario.html" target="_top" xlink:title=" ">
<polygon fill="white" stroke="#666666" points="428.5,-167 293.5,-167 293.5,-148 428.5,-148 428.5,-167"/>
<text text-anchor="middle" x="361" y="-155" font-family="Helvetica,sans-Serif" font-size="10.00">hgps::FiscalPolicyScenario</text>
</a>
</g>
</g>
<!-- Node1&#45;&gt;Node5 -->
<g id="edge4" class="edge">
<title>Node1&#45;&gt;Node5</title>
<path fill="none" stroke="#63b8ff" d="M219.67,-115.48C238.82,-122.82 263.03,-131.69 285,-138.5 295.39,-141.72 306.72,-144.8 317.34,-147.52"/>
<polygon fill="#63b8ff" stroke="#63b8ff" points="221.03,-112.25 210.45,-111.9 218.5,-118.78 221.03,-112.25"/>
</g>
<!-- Node6 -->
<g id="node6" class="node">
<title>Node6</title>
<g id="a_node6"><a xlink:href="classhgps_1_1_food_labelling_scenario.html" target="_top" xlink:title=" ">
<polygon fill="white" stroke="#666666" points="432,-130 290,-130 290,-111 432,-111 432,-130"/>
<text text-anchor="middle" x="361" y="-118" font-family="Helvetica,sans-Serif" font-size="10.00">hgps::FoodLabellingScenario</text>
</a>
</g>
</g>
<!-- Node1&#45;&gt;Node6 -->
<g id="edge5" class="edge">
<title>Node1&#45;&gt;Node6</title>
<path fill="none" stroke="#63b8ff" d="M260.54,-109.73C270.16,-110.77 279.98,-111.84 289.52,-112.87"/>
<polygon fill="#63b8ff" stroke="#63b8ff" points="261.17,-106.28 250.86,-108.68 260.42,-113.24 261.17,-106.28"/>
</g>
<!-- Node7 -->
<g id="node7" class="node">
<title>Node7</title>
<g id="a_node7"><a xlink:href="classhgps_1_1_marketing_policy_scenario.html" target="_top" xlink:title=" ">
<polygon fill="white" stroke="#666666" points="437,-93 285,-93 285,-74 437,-74 437,-93"/>
<text text-anchor="middle" x="361" y="-81" font-family="Helvetica,sans-Serif" font-size="10.00">hgps::MarketingPolicyScenario</text>
</a>
</g>
</g>
<!-- Node1&#45;&gt;Node7 -->
<g id="edge6" class="edge">
<title>Node1&#45;&gt;Node7</title>
<path fill="none" stroke="#63b8ff" d="M260.57,-93.7C268.59,-92.88 276.74,-92.04 284.74,-91.22"/>
<polygon fill="#63b8ff" stroke="#63b8ff" points="260.45,-90.19 250.86,-94.69 261.16,-97.16 260.45,-90.19"/>
</g>
<!-- Node8 -->
<g id="node8" class="node">
<title>Node8</title>
<g id="a_node8"><a xlink:href="classhgps_1_1_physical_activity_scenario.html" target="_top" xlink:title=" ">
<polygon fill="white" stroke="#666666" points="436.5,-56 285.5,-56 285.5,-37 436.5,-37 436.5,-56"/>
<text text-anchor="middle" x="361" y="-44" font-family="Helvetica,sans-Serif" font-size="10.00">hgps::PhysicalActivityScenario</text>
</a>
</g>
</g>
<!-- Node1&#45;&gt;Node8 -->
<g id="edge7" class="edge">
<title>Node1&#45;&gt;Node8</title>
<path fill="none" stroke="#63b8ff" d="M219.64,-87.41C238.78,-80.03 262.99,-71.17 285,-64.5 294.61,-61.59 305.03,-58.84 314.95,-56.4"/>
<polygon fill="#63b8ff" stroke="#63b8ff" points="218.46,-84.12 210.42,-91.01 221.01,-90.64 218.46,-84.12"/>
</g>
<!-- Node9 -->
<g id="node9" class="node">
<title>Node9</title>
<g id="a_node9"><a xlink:href="classhgps_1_1_simple_policy_scenario.html" target="_top" xlink:title=" ">
<polygon fill="white" stroke="#666666" points="430.5,-19 291.5,-19 291.5,0 430.5,0 430.5,-19"/>
<text text-anchor="middle" x="361" y="-7" font-family="Helvetica,sans-Serif" font-size="10.00">hgps::SimplePolicyScenario</text>
</a>
</g>
</g>
<!-- Node1&#45;&gt;Node9 -->
<g id="edge8" class="edge">
<title>Node1&#45;&gt;Node9</title>
<path fill="none" stroke="#63b8ff" d="M203.09,-84.2C222.23,-67.32 253.59,-42.1 285,-27.5 291.92,-24.28 299.48,-21.61 307.05,-19.39"/>
<polygon fill="#63b8ff" stroke="#63b8ff" points="200.94,-81.43 195.86,-90.72 205.63,-86.63 200.94,-81.43"/>
</g>
<!-- Node2 -->
<g id="node2" class="node">
<title>Node2</title>
<g id="a_node2"><a xlink:href="classhgps_1_1_scenario.html" target="_top" xlink:title="Health GPS simulation scenario interface.">
<polygon fill="white" stroke="#666666" points="82,-111 0,-111 0,-92 82,-92 82,-111"/>
<text text-anchor="middle" x="41" y="-99" font-family="Helvetica,sans-Serif" font-size="10.00">hgps::Scenario</text>
</a>
</g>
</g>
<!-- Node2&#45;&gt;Node1 -->
<g id="edge1" class="edge">
<title>Node2&#45;&gt;Node1</title>
<path fill="none" stroke="#63b8ff" d="M93.73,-101.5C101.49,-101.5 109.57,-101.5 117.56,-101.5"/>
<polygon fill="#63b8ff" stroke="#63b8ff" points="93.78,-98 83.78,-101.5 93.78,-105 93.78,-98"/>
</g>
<!-- Node4 -->
<g id="node4" class="node">
<title>Node4</title>
<g id="a_node4"><a xlink:href="classhgps_1_1_marketing_dynamic_scenario.html" target="_top" xlink:title=" ">
<polygon fill="white" stroke="#666666" points="636,-210 473,-210 473,-191 636,-191 636,-210"/>
<text text-anchor="middle" x="554.5" y="-198" font-family="Helvetica,sans-Serif" font-size="10.00">hgps::MarketingDynamicScenario</text>
</a>
</g>
</g>
<!-- Node3&#45;&gt;Node4 -->
<g id="edge3" class="edge">
<title>Node3&#45;&gt;Node4</title>
<path fill="none" stroke="#63b8ff" d="M438.08,-200.5C449.48,-200.5 461.28,-200.5 472.77,-200.5"/>
<polygon fill="#63b8ff" stroke="#63b8ff" points="438.35,-197 428.35,-200.5 438.35,-204 438.35,-197"/>
</g>
</g>
</svg>
