<?xml version="1.0" encoding="UTF-8" standalone="no"?>
<!DOCTYPE svg PUBLIC "-//W3C//DTD SVG 1.1//EN"
 "http://www.w3.org/Graphics/SVG/1.1/DTD/svg11.dtd">
<!-- Generated by graphviz version 2.43.0 (0)
 -->
<!-- Title: hgps::ModelInput::settings Pages: 1 -->
<svg width="588pt" height="137pt"
 viewBox="0.00 0.00 588.00 137.00" xmlns="http://www.w3.org/2000/svg" xmlns:xlink="http://www.w3.org/1999/xlink">
<g id="graph0" class="graph" transform="scale(1 1) rotate(0) translate(4 133)">
<title>hgps::ModelInput::settings</title>
<!-- Node1 -->
<g id="node1" class="node">
<title>Node1</title>
<g id="a_node1"><a xlink:title="Gets the simulation experiment settings definition.">
<polygon fill="#bfbfbf" stroke="black" points="434,-55 434,-74 580,-74 580,-55 434,-55"/>
<text text-anchor="middle" x="507" y="-62" font-family="Helvetica,sans-Serif" font-size="10.00">hgps::ModelInput::settings</text>
</a>
</g>
</g>
<!-- Node2 -->
<g id="node2" class="node">
<title>Node2</title>
<g id="a_node2"><a xlink:href="namespacehgps.html#a00f39dc81f9c78a17b520811df508289" target="_top" xlink:title="Builds a new instance of the AnalysisModule using the given data infrastructure.">
<polygon fill="none" stroke="black" points="276.5,-98.5 276.5,-128.5 392.5,-128.5 392.5,-98.5 276.5,-98.5"/>
<text text-anchor="start" x="284.5" y="-116.5" font-family="Helvetica,sans-Serif" font-size="10.00">hgps::build_analysis</text>
<text text-anchor="middle" x="334.5" y="-105.5" font-family="Helvetica,sans-Serif" font-size="10.00">_module</text>
</a>
</g>
</g>
<!-- Node1&#45;&gt;Node2 -->
<g id="edge1" class="edge">
<title>Node1&#45;&gt;Node2</title>
<path fill="none" stroke="midnightblue" d="M462.97,-76.87C440.14,-83.43 411.91,-91.54 387.82,-98.46"/>
<polygon fill="midnightblue" stroke="midnightblue" points="464.08,-80.19 472.72,-74.06 462.14,-73.46 464.08,-80.19"/>
</g>
<!-- Node5 -->
<g id="node5" class="node">
<title>Node5</title>
<g id="a_node5"><a xlink:href="namespacehgps.html#a1dfc6cbd78a8f76582f05e63bcd8d3a6" target="_top" xlink:title="Builds a new instance of the DiseaseModule using the given data infrastructure.">
<polygon fill="none" stroke="black" points="278,-49.5 278,-79.5 391,-79.5 391,-49.5 278,-49.5"/>
<text text-anchor="start" x="286" y="-67.5" font-family="Helvetica,sans-Serif" font-size="10.00">hgps::build_disease</text>
<text text-anchor="middle" x="334.5" y="-56.5" font-family="Helvetica,sans-Serif" font-size="10.00">_module</text>
</a>
</g>
</g>
<!-- Node1&#45;&gt;Node5 -->
<g id="edge4" class="edge">
<title>Node1&#45;&gt;Node5</title>
<path fill="none" stroke="midnightblue" d="M423.61,-64.5C412.6,-64.5 401.51,-64.5 391.11,-64.5"/>
<polygon fill="midnightblue" stroke="midnightblue" points="423.69,-68 433.69,-64.5 423.69,-61 423.69,-68"/>
</g>
<!-- Node6 -->
<g id="node6" class="node">
<title>Node6</title>
<g id="a_node6"><a xlink:href="namespacehgps.html#ad7d042f1937872f2f8b344915584a7a9" target="_top" xlink:title="Builds a new instance of the PopulationModule using the given data infrastructure.">
<polygon fill="none" stroke="black" points="271,-0.5 271,-30.5 398,-30.5 398,-0.5 271,-0.5"/>
<text text-anchor="start" x="279" y="-18.5" font-family="Helvetica,sans-Serif" font-size="10.00">hgps::build_population</text>
<text text-anchor="middle" x="334.5" y="-7.5" font-family="Helvetica,sans-Serif" font-size="10.00">_module</text>
</a>
</g>
</g>
<!-- Node1&#45;&gt;Node6 -->
<g id="edge6" class="edge">
<title>Node1&#45;&gt;Node6</title>
<path fill="none" stroke="midnightblue" d="M462.97,-52.13C440.14,-45.57 411.91,-37.46 387.82,-30.54"/>
<polygon fill="midnightblue" stroke="midnightblue" points="462.14,-55.54 472.72,-54.94 464.08,-48.81 462.14,-55.54"/>
</g>
<!-- Node3 -->
<g id="node3" class="node">
<title>Node3</title>
<g id="a_node3"><a xlink:href="namespacehgps.html#aef8e3dcb57d8eabeb75baa00c53f6b98" target="_top" xlink:title="Create the default simulation modules factory for production usage.">
<polygon fill="none" stroke="black" points="77,-49.5 77,-79.5 235,-79.5 235,-49.5 77,-49.5"/>
<text text-anchor="start" x="85" y="-67.5" font-family="Helvetica,sans-Serif" font-size="10.00">hgps::get_default_simulation</text>
<text text-anchor="middle" x="156" y="-56.5" font-family="Helvetica,sans-Serif" font-size="10.00">_module_factory</text>
</a>
</g>
</g>
<!-- Node2&#45;&gt;Node3 -->
<g id="edge2" class="edge">
<title>Node2&#45;&gt;Node3</title>
<path fill="none" stroke="midnightblue" d="M269.31,-95.68C250.25,-90.39 229.57,-84.65 211.22,-79.55"/>
<polygon fill="midnightblue" stroke="midnightblue" points="268.53,-99.1 279.1,-98.4 270.4,-92.35 268.53,-99.1"/>
</g>
<!-- Node4 -->
<g id="node4" class="node">
<title>Node4</title>
<g id="a_node4"><a xlink:href="program_8cpp.html#a0ddf1224851353fc92bfbff6f499fa97" target="_top" xlink:title="Health&#45;GPS host application entry point.">
<polygon fill="none" stroke="black" points="0,-55 0,-74 41,-74 41,-55 0,-55"/>
<text text-anchor="middle" x="20.5" y="-62" font-family="Helvetica,sans-Serif" font-size="10.00">main</text>
</a>
</g>
</g>
<!-- Node3&#45;&gt;Node4 -->
<g id="edge3" class="edge">
<title>Node3&#45;&gt;Node4</title>
<path fill="none" stroke="midnightblue" d="M66.88,-64.5C57.39,-64.5 48.55,-64.5 41.24,-64.5"/>
<polygon fill="midnightblue" stroke="midnightblue" points="66.96,-68 76.96,-64.5 66.96,-61 66.96,-68"/>
</g>
<!-- Node5&#45;&gt;Node3 -->
<g id="edge5" class="edge">
<title>Node5&#45;&gt;Node3</title>
<path fill="none" stroke="midnightblue" d="M267.64,-64.5C257.02,-64.5 245.93,-64.5 235.06,-64.5"/>
<polygon fill="midnightblue" stroke="midnightblue" points="267.65,-68 277.65,-64.5 267.65,-61 267.65,-68"/>
</g>
<!-- Node6&#45;&gt;Node3 -->
<g id="edge7" class="edge">
<title>Node6&#45;&gt;Node3</title>
<path fill="none" stroke="midnightblue" d="M269.31,-33.32C250.25,-38.61 229.57,-44.35 211.22,-49.45"/>
<polygon fill="midnightblue" stroke="midnightblue" points="270.4,-36.65 279.1,-30.6 268.53,-29.9 270.4,-36.65"/>
</g>
</g>
</svg>
