<?xml version="1.0" encoding="UTF-8" standalone="no"?>
<!DOCTYPE svg PUBLIC "-//W3C//DTD SVG 1.1//EN"
 "http://www.w3.org/Graphics/SVG/1.1/DTD/svg11.dtd">
<!-- Generated by graphviz version 2.43.0 (0)
 -->
<!-- Title: hgps::core::Datastore::get_diseases Pages: 1 -->
<svg width="373pt" height="39pt"
 viewBox="0.00 0.00 373.00 39.00" xmlns="http://www.w3.org/2000/svg" xmlns:xlink="http://www.w3.org/1999/xlink">
<g id="graph0" class="graph" transform="scale(1 1) rotate(0) translate(4 35)">
<title>hgps::core::Datastore::get_diseases</title>
<!-- Node1 -->
<g id="node1" class="node">
<title>Node1</title>
<g id="a_node1"><a xlink:title="Gets the collection of diseases information in the store.">
<polygon fill="#bfbfbf" stroke="black" points="244,-0.5 244,-30.5 365,-30.5 365,-0.5 244,-0.5"/>
<text text-anchor="start" x="252" y="-18.5" font-family="Helvetica,sans-Serif" font-size="10.00">hgps::core::Datastore</text>
<text text-anchor="middle" x="304.5" y="-7.5" font-family="Helvetica,sans-Serif" font-size="10.00">::get_diseases</text>
</a>
</g>
</g>
<!-- Node2 -->
<g id="node2" class="node">
<title>Node2</title>
<g id="a_node2"><a xlink:href="namespacehost.html#a7f97a3006678c2e01ad9ebd10c11fe60" target="_top" xlink:title="Gets the collection of diseases that matches the selected input list.">
<polygon fill="none" stroke="black" points="77,-6 77,-25 208,-25 208,-6 77,-6"/>
<text text-anchor="middle" x="142.5" y="-13" font-family="Helvetica,sans-Serif" font-size="10.00">host::get_diseases_info</text>
</a>
</g>
</g>
<!-- Node1&#45;&gt;Node2 -->
<g id="edge1" class="edge">
<title>Node1&#45;&gt;Node2</title>
<path fill="none" stroke="midnightblue" d="M233.7,-15.5C225.24,-15.5 216.62,-15.5 208.23,-15.5"/>
<polygon fill="midnightblue" stroke="midnightblue" points="233.92,-19 243.92,-15.5 233.92,-12 233.92,-19"/>
</g>
<!-- Node3 -->
<g id="node3" class="node">
<title>Node3</title>
<g id="a_node3"><a xlink:href="program_8cpp.html#a0ddf1224851353fc92bfbff6f499fa97" target="_top" xlink:title="Health&#45;GPS host application entry point.">
<polygon fill="none" stroke="black" points="0,-6 0,-25 41,-25 41,-6 0,-6"/>
<text text-anchor="middle" x="20.5" y="-13" font-family="Helvetica,sans-Serif" font-size="10.00">main</text>
</a>
</g>
</g>
<!-- Node2&#45;&gt;Node3 -->
<g id="edge2" class="edge">
<title>Node2&#45;&gt;Node3</title>
<path fill="none" stroke="midnightblue" d="M66.91,-15.5C57.43,-15.5 48.46,-15.5 41.05,-15.5"/>
<polygon fill="midnightblue" stroke="midnightblue" points="66.93,-19 76.93,-15.5 66.93,-12 66.93,-19"/>
</g>
</g>
</svg>
