<?xml version="1.0" encoding="UTF-8" standalone="no"?>
<!DOCTYPE svg PUBLIC "-//W3C//DTD SVG 1.1//EN"
 "http://www.w3.org/Graphics/SVG/1.1/DTD/svg11.dtd">
<!-- Generated by graphviz version 7.0.6 (20230106.0513)
 -->
<!-- Title: hgps::MTRandom32::MTRandom32 Pages: 1 -->
<svg width="345pt" height="45pt"
 viewBox="0.00 0.00 345.00 45.00" xmlns="http://www.w3.org/2000/svg" xmlns:xlink="http://www.w3.org/1999/xlink">
<g id="graph0" class="graph" transform="scale(1 1) rotate(0) translate(4 41)">
<title>hgps::MTRandom32::MTRandom32</title>
<!-- Node1 -->
<g id="node1" class="node">
<title>Node1</title>
<g id="a_node1"><a xlink:title=" ">
<polygon fill="#999999" stroke="#666666" points="170,-19 0,-19 0,0 170,0 170,-19"/>
<text text-anchor="middle" x="85" y="-7" font-family="Helvetica,sans-Serif" font-size="10.00">hgps::MTRandom32::MTRandom32</text>
</a>
</g>
</g>
<!-- Node2 -->
<g id="node2" class="node">
<title>Node2</title>
<g id="a_node2"><a xlink:href="classhgps_1_1_m_t_random32.html#a0db7dd09dd700070d36a5ac314733089" target="_top" xlink:title=" ">
<polygon fill="white" stroke="#666666" points="337,-19 206,-19 206,0 337,0 337,-19"/>
<text text-anchor="middle" x="271.5" y="-7" font-family="Helvetica,sans-Serif" font-size="10.00">hgps::MTRandom32::seed</text>
</a>
</g>
</g>
<!-- Node1&#45;&gt;Node2 -->
<g id="edge1" class="edge">
<title>Node1&#45;&gt;Node2</title>
<path fill="none" stroke="#63b8ff" d="M170.42,-9.5C178.39,-9.5 186.44,-9.5 194.32,-9.5"/>
<polygon fill="#63b8ff" stroke="#63b8ff" points="194.22,-13 204.22,-9.5 194.22,-6 194.22,-13"/>
</g>
<!-- Node2&#45;&gt;Node2 -->
<g id="edge2" class="edge">
<title>Node2&#45;&gt;Node2</title>
<path fill="none" stroke="#63b8ff" d="M242.3,-19.37C228.98,-27.94 238.72,-37 271.5,-37 290.45,-37 301.7,-33.97 305.25,-29.76"/>
<polygon fill="#63b8ff" stroke="#63b8ff" points="308.52,-28.51 301.3,-20.75 302.11,-31.32 308.52,-28.51"/>
</g>
</g>
</svg>
