<?xml version="1.0" encoding="UTF-8" standalone="no"?>
<!DOCTYPE svg PUBLIC "-//W3C//DTD SVG 1.1//EN"
 "http://www.w3.org/Graphics/SVG/1.1/DTD/svg11.dtd">
<!-- Generated by graphviz version 7.0.6 (20230106.0513)
 -->
<!-- Title: hgps::ModelInput::settings Pages: 1 -->
<svg width="464pt" height="152pt"
 viewBox="0.00 0.00 464.00 152.00" xmlns="http://www.w3.org/2000/svg" xmlns:xlink="http://www.w3.org/1999/xlink">
<g id="graph0" class="graph" transform="scale(1 1) rotate(0) translate(4 148)">
<title>hgps::ModelInput::settings</title>
<!-- Node1 -->
<g id="node1" class="node">
<title>Node1</title>
<g id="a_node1"><a xlink:title=" ">
<polygon fill="#999999" stroke="#666666" points="456,-90.5 325,-90.5 325,-71.5 456,-71.5 456,-90.5"/>
<text text-anchor="middle" x="390.5" y="-78.5" font-family="Helvetica,sans-Serif" font-size="10.00">hgps::ModelInput::settings</text>
</a>
</g>
</g>
<!-- Node2 -->
<g id="node2" class="node">
<title>Node2</title>
<g id="a_node2"><a xlink:href="namespacehgps.html#a00f39dc81f9c78a17b520811df508289" target="_top" xlink:title=" ">
<polygon fill="white" stroke="#666666" points="285,-144 180,-144 180,-114 285,-114 285,-144"/>
<text text-anchor="start" x="188" y="-132" font-family="Helvetica,sans-Serif" font-size="10.00">hgps::build_analysis</text>
<text text-anchor="middle" x="232.5" y="-121" font-family="Helvetica,sans-Serif" font-size="10.00">_module</text>
</a>
</g>
</g>
<!-- Node1&#45;&gt;Node2 -->
<g id="edge1" class="edge">
<title>Node1&#45;&gt;Node2</title>
<path fill="none" stroke="#63b8ff" d="M346.21,-94.32C326.79,-100.3 303.76,-107.38 283.6,-113.58"/>
<polygon fill="#63b8ff" stroke="#63b8ff" points="347.2,-97.68 355.73,-91.39 345.14,-90.99 347.2,-97.68"/>
</g>
<!-- Node4 -->
<g id="node4" class="node">
<title>Node4</title>
<g id="a_node4"><a xlink:href="namespacehgps.html#a1dfc6cbd78a8f76582f05e63bcd8d3a6" target="_top" xlink:title=" ">
<polygon fill="white" stroke="#666666" points="284,-96 181,-96 181,-66 284,-66 284,-96"/>
<text text-anchor="start" x="189" y="-84" font-family="Helvetica,sans-Serif" font-size="10.00">hgps::build_disease</text>
<text text-anchor="middle" x="232.5" y="-73" font-family="Helvetica,sans-Serif" font-size="10.00">_module</text>
</a>
</g>
</g>
<!-- Node1&#45;&gt;Node4 -->
<g id="edge3" class="edge">
<title>Node1&#45;&gt;Node4</title>
<path fill="none" stroke="#63b8ff" d="M313.48,-81C303.51,-81 293.48,-81 284.07,-81"/>
<polygon fill="#63b8ff" stroke="#63b8ff" points="313.18,-84.5 323.18,-81 313.18,-77.5 313.18,-84.5"/>
</g>
<!-- Node5 -->
<g id="node5" class="node">
<title>Node5</title>
<g id="a_node5"><a xlink:href="namespacehgps.html#ad7d042f1937872f2f8b344915584a7a9" target="_top" xlink:title=" ">
<polygon fill="white" stroke="#666666" points="289,-30 176,-30 176,0 289,0 289,-30"/>
<text text-anchor="start" x="184" y="-18" font-family="Helvetica,sans-Serif" font-size="10.00">hgps::build_population</text>
<text text-anchor="middle" x="232.5" y="-7" font-family="Helvetica,sans-Serif" font-size="10.00">_module</text>
</a>
</g>
</g>
<!-- Node1&#45;&gt;Node5 -->
<g id="edge5" class="edge">
<title>Node1&#45;&gt;Node5</title>
<path fill="none" stroke="#63b8ff" d="M355.6,-66.66C330.36,-55.98 295.94,-41.42 270.07,-30.47"/>
<polygon fill="#63b8ff" stroke="#63b8ff" points="354.18,-69.86 364.75,-70.53 356.91,-63.41 354.18,-69.86"/>
</g>
<!-- Node3 -->
<g id="node3" class="node">
<title>Node3</title>
<g id="a_node3"><a xlink:href="namespacehgps.html#aef8e3dcb57d8eabeb75baa00c53f6b98" target="_top" xlink:title="Create the default simulation modules factory for production usage.">
<polygon fill="white" stroke="#666666" points="140,-96 0,-96 0,-66 140,-66 140,-96"/>
<text text-anchor="start" x="8" y="-84" font-family="Helvetica,sans-Serif" font-size="10.00">hgps::get_default_simulation</text>
<text text-anchor="middle" x="70" y="-73" font-family="Helvetica,sans-Serif" font-size="10.00">_module_factory</text>
</a>
</g>
</g>
<!-- Node2&#45;&gt;Node3 -->
<g id="edge2" class="edge">
<title>Node2&#45;&gt;Node3</title>
<path fill="none" stroke="#63b8ff" d="M168.87,-110.27C153.54,-105.68 137.31,-100.83 122.57,-96.42"/>
<polygon fill="#63b8ff" stroke="#63b8ff" points="167.8,-113.6 178.38,-113.11 169.81,-106.9 167.8,-113.6"/>
</g>
<!-- Node4&#45;&gt;Node3 -->
<g id="edge4" class="edge">
<title>Node4&#45;&gt;Node3</title>
<path fill="none" stroke="#63b8ff" d="M169.31,-81C159.78,-81 149.9,-81 140.23,-81"/>
<polygon fill="#63b8ff" stroke="#63b8ff" points="169.2,-84.5 179.2,-81 169.2,-77.5 169.2,-84.5"/>
</g>
<!-- Node5&#45;&gt;Node3 -->
<g id="edge7" class="edge">
<title>Node5&#45;&gt;Node3</title>
<path fill="none" stroke="#63b8ff" d="M183.25,-34.84C159.36,-44.67 130.94,-56.35 108.67,-65.51"/>
<polygon fill="#63b8ff" stroke="#63b8ff" points="184.55,-38.09 192.47,-31.05 181.89,-31.62 184.55,-38.09"/>
</g>
<!-- Node5&#45;&gt;Node5 -->
<g id="edge6" class="edge">
<title>Node5&#45;&gt;Node5</title>
<path fill="none" stroke="#63b8ff" d="M259.16,-41.61C254.89,-45.43 246,-48 232.5,-48 207.81,-48 198.55,-39.41 204.73,-30.28"/>
<polygon fill="#63b8ff" stroke="#63b8ff" points="262.63,-42.08 260.13,-31.78 255.66,-41.39 262.63,-42.08"/>
</g>
</g>
</svg>
