<?xml version="1.0" encoding="UTF-8" standalone="no"?>
<!DOCTYPE svg PUBLIC "-//W3C//DTD SVG 1.1//EN"
 "http://www.w3.org/Graphics/SVG/1.1/DTD/svg11.dtd">
<!-- Generated by graphviz version 7.0.6 (20230106.0513)
 -->
<!-- Title: hgps::core::DataTable::num_columns Pages: 1 -->
<svg width="647pt" height="102pt"
 viewBox="0.00 0.00 647.00 101.50" xmlns="http://www.w3.org/2000/svg" xmlns:xlink="http://www.w3.org/1999/xlink">
<g id="graph0" class="graph" transform="scale(1 1) rotate(0) translate(4 97.5)">
<title>hgps::core::DataTable::num_columns</title>
<!-- Node1 -->
<g id="node1" class="node">
<title>Node1</title>
<g id="a_node1"><a xlink:title=" ">
<polygon fill="#999999" stroke="#666666" points="639,-78 527,-78 527,-48 639,-48 639,-78"/>
<text text-anchor="start" x="535" y="-66" font-family="Helvetica,sans-Serif" font-size="10.00">hgps::core::DataTable</text>
<text text-anchor="middle" x="583" y="-55" font-family="Helvetica,sans-Serif" font-size="10.00">::num_columns</text>
</a>
</g>
</g>
<!-- Node2 -->
<g id="node2" class="node">
<title>Node2</title>
<g id="a_node2"><a xlink:href="classhgps_1_1core_1_1_data_table.html#ae022bf3052be4728cce521ca87a54865" target="_top" xlink:title=" ">
<polygon fill="white" stroke="#666666" points="343,-93.5 209,-93.5 209,-74.5 343,-74.5 343,-93.5"/>
<text text-anchor="middle" x="276" y="-81.5" font-family="Helvetica,sans-Serif" font-size="10.00">hgps::core::DataTable::add</text>
</a>
</g>
</g>
<!-- Node1&#45;&gt;Node2 -->
<g id="edge1" class="edge">
<title>Node1&#45;&gt;Node2</title>
<path fill="none" stroke="#63b8ff" d="M521.94,-81.17C511.71,-83.59 501.11,-85.69 491,-87 441.81,-93.38 385.73,-92.29 343.32,-89.78"/>
<polygon fill="#63b8ff" stroke="#63b8ff" points="522.55,-84.62 531.4,-78.8 520.85,-77.83 522.55,-84.62"/>
</g>
<!-- Node5 -->
<g id="node5" class="node">
<title>Node5</title>
<g id="a_node5"><a xlink:href="classhgps_1_1core_1_1_data_table.html#aea4b85552bb60b81746a68bdcf95e059" target="_top" xlink:title=" ">
<polygon fill="white" stroke="#666666" points="491,-78 379,-78 379,-48 491,-48 491,-78"/>
<text text-anchor="start" x="387" y="-66" font-family="Helvetica,sans-Serif" font-size="10.00">hgps::core::DataTable</text>
<text text-anchor="middle" x="435" y="-55" font-family="Helvetica,sans-Serif" font-size="10.00">::column</text>
</a>
</g>
</g>
<!-- Node1&#45;&gt;Node5 -->
<g id="edge4" class="edge">
<title>Node1&#45;&gt;Node5</title>
<path fill="none" stroke="#63b8ff" d="M515.47,-63C507.38,-63 499.18,-63 491.27,-63"/>
<polygon fill="#63b8ff" stroke="#63b8ff" points="515.29,-66.5 525.29,-63 515.29,-59.5 515.29,-66.5"/>
</g>
<!-- Node6 -->
<g id="node6" class="node">
<title>Node6</title>
<g id="a_node6"><a xlink:href="classhgps_1_1core_1_1_data_table.html#ab4a773277858efb48c2dcc9286a81f40" target="_top" xlink:title=" ">
<polygon fill="white" stroke="#666666" points="491,-30 379,-30 379,0 491,0 491,-30"/>
<text text-anchor="start" x="387" y="-18" font-family="Helvetica,sans-Serif" font-size="10.00">hgps::core::DataTable</text>
<text text-anchor="middle" x="435" y="-7" font-family="Helvetica,sans-Serif" font-size="10.00">::to_string</text>
</a>
</g>
</g>
<!-- Node1&#45;&gt;Node6 -->
<g id="edge6" class="edge">
<title>Node1&#45;&gt;Node6</title>
<path fill="none" stroke="#63b8ff" d="M524.21,-44C510.51,-39.5 496.06,-34.75 482.91,-30.42"/>
<polygon fill="#63b8ff" stroke="#63b8ff" points="522.97,-47.28 533.56,-47.08 525.16,-40.63 522.97,-47.28"/>
</g>
<!-- Node3 -->
<g id="node3" class="node">
<title>Node3</title>
<g id="a_node3"><a xlink:href="csvparser_8cpp.html#aa36bf705a50d4f460573db11852ca40c" target="_top" xlink:title=" ">
<polygon fill="white" stroke="#666666" points="173,-93.5 74,-93.5 74,-74.5 173,-74.5 173,-93.5"/>
<text text-anchor="middle" x="123.5" y="-81.5" font-family="Helvetica,sans-Serif" font-size="10.00">load_datatable_csv</text>
</a>
</g>
</g>
<!-- Node2&#45;&gt;Node3 -->
<g id="edge2" class="edge">
<title>Node2&#45;&gt;Node3</title>
<path fill="none" stroke="#63b8ff" d="M197.15,-84C189.08,-84 181.04,-84 173.42,-84"/>
<polygon fill="#63b8ff" stroke="#63b8ff" points="197.04,-87.5 207.04,-84 197.04,-80.5 197.04,-87.5"/>
</g>
<!-- Node4 -->
<g id="node4" class="node">
<title>Node4</title>
<g id="a_node4"><a xlink:href="program_8cpp.html#a0ddf1224851353fc92bfbff6f499fa97" target="_top" xlink:title=" ">
<polygon fill="white" stroke="#666666" points="38,-93.5 0,-93.5 0,-74.5 38,-74.5 38,-93.5"/>
<text text-anchor="middle" x="19" y="-81.5" font-family="Helvetica,sans-Serif" font-size="10.00">main</text>
</a>
</g>
</g>
<!-- Node3&#45;&gt;Node4 -->
<g id="edge3" class="edge">
<title>Node3&#45;&gt;Node4</title>
<path fill="none" stroke="#63b8ff" d="M62.18,-84C53.55,-84 45.27,-84 38.37,-84"/>
<polygon fill="#63b8ff" stroke="#63b8ff" points="62.14,-87.5 72.14,-84 62.14,-80.5 62.14,-87.5"/>
</g>
<!-- Node5&#45;&gt;Node2 -->
<g id="edge5" class="edge">
<title>Node5&#45;&gt;Node2</title>
<path fill="none" stroke="#63b8ff" d="M367.24,-71.93C359.36,-72.98 351.31,-74.06 343.42,-75.12"/>
<polygon fill="#63b8ff" stroke="#63b8ff" points="367.7,-75.4 377.15,-70.6 366.77,-68.46 367.7,-75.4"/>
</g>
<!-- Node7 -->
<g id="node7" class="node">
<title>Node7</title>
<g id="a_node7"><a xlink:href="datatable_8cpp.html#a6404541ea4e5bbe502c3ab05b4e680f4" target="_top" xlink:title=" ">
<polygon fill="white" stroke="#666666" points="308,-24.5 244,-24.5 244,-5.5 308,-5.5 308,-24.5"/>
<text text-anchor="middle" x="276" y="-12.5" font-family="Helvetica,sans-Serif" font-size="10.00">operator&lt;&lt;</text>
</a>
</g>
</g>
<!-- Node6&#45;&gt;Node7 -->
<g id="edge7" class="edge">
<title>Node6&#45;&gt;Node7</title>
<path fill="none" stroke="#63b8ff" d="M367.37,-15C346.79,-15 325.1,-15 308.13,-15"/>
<polygon fill="#63b8ff" stroke="#63b8ff" points="367.13,-18.5 377.13,-15 367.13,-11.5 367.13,-18.5"/>
</g>
</g>
</svg>
