<?xml version="1.0" encoding="UTF-8" standalone="no"?>
<!DOCTYPE svg PUBLIC "-//W3C//DTD SVG 1.1//EN"
 "http://www.w3.org/Graphics/SVG/1.1/DTD/svg11.dtd">
<!-- Generated by graphviz version 7.0.6 (20230106.0513)
 -->
<!-- Title: hgps::RelativeRiskLookup::RelativeRiskLookup Pages: 1 -->
<svg width="440pt" height="172pt"
 viewBox="0.00 0.00 440.00 172.00" xmlns="http://www.w3.org/2000/svg" xmlns:xlink="http://www.w3.org/1999/xlink">
<g id="graph0" class="graph" transform="scale(1 1) rotate(0) translate(4 168)">
<title>hgps::RelativeRiskLookup::RelativeRiskLookup</title>
<!-- Node1 -->
<g id="node1" class="node">
<title>Node1</title>
<g id="a_node1"><a xlink:title=" ">
<polygon fill="#999999" stroke="#666666" points="128,-99 0,-99 0,-69 128,-69 128,-99"/>
<text text-anchor="start" x="8" y="-87" font-family="Helvetica,sans-Serif" font-size="10.00">hgps::RelativeRiskLookup</text>
<text text-anchor="middle" x="64" y="-76" font-family="Helvetica,sans-Serif" font-size="10.00">::RelativeRiskLookup</text>
</a>
</g>
</g>
<!-- Node2 -->
<g id="node2" class="node">
<title>Node2</title>
<g id="a_node2"><a xlink:href="classhgps_1_1core_1_1_array2_d.html#af87838b154483145034cd854c402d726" target="_top" xlink:title=" ">
<polygon fill="white" stroke="#666666" points="280,-164 176,-164 176,-134 280,-134 280,-164"/>
<text text-anchor="start" x="184" y="-152" font-family="Helvetica,sans-Serif" font-size="10.00">hgps::core::Array2D</text>
<text text-anchor="middle" x="228" y="-141" font-family="Helvetica,sans-Serif" font-size="10.00">::columns</text>
</a>
</g>
</g>
<!-- Node1&#45;&gt;Node2 -->
<g id="edge1" class="edge">
<title>Node1&#45;&gt;Node2</title>
<path fill="none" stroke="#63b8ff" d="M103.39,-99.4C125.7,-108.36 154.05,-119.73 177.96,-129.33"/>
<polygon fill="#63b8ff" stroke="#63b8ff" points="176.61,-132.55 187.2,-133.03 179.22,-126.06 176.61,-132.55"/>
</g>
<!-- Node3 -->
<g id="node3" class="node">
<title>Node3</title>
<g id="a_node3"><a xlink:href="classhgps_1_1core_1_1_array2_d.html#ad60e06e81e15e37a2ec58d8c2b39755d" target="_top" xlink:title=" ">
<polygon fill="white" stroke="#666666" points="432,-99 328,-99 328,-69 432,-69 432,-99"/>
<text text-anchor="start" x="336" y="-87" font-family="Helvetica,sans-Serif" font-size="10.00">hgps::core::Array2D</text>
<text text-anchor="middle" x="380" y="-76" font-family="Helvetica,sans-Serif" font-size="10.00">::rows</text>
</a>
</g>
</g>
<!-- Node1&#45;&gt;Node3 -->
<g id="edge2" class="edge">
<title>Node1&#45;&gt;Node3</title>
<path fill="none" stroke="#63b8ff" d="M128.37,-86.21C140.21,-86.54 152.48,-86.83 164,-87 220.88,-87.86 235.12,-87.98 292,-87 299.91,-86.86 308.22,-86.66 316.44,-86.42"/>
<polygon fill="#63b8ff" stroke="#63b8ff" points="316.55,-89.91 326.43,-86.1 316.33,-82.92 316.55,-89.91"/>
</g>
<!-- Node4 -->
<g id="node4" class="node">
<title>Node4</title>
<g id="a_node4"><a xlink:href="classhgps_1_1_relative_risk_lookup.html#a7c41a6fb0004de0f0eb9c680ef511083" target="_top" xlink:title=" ">
<polygon fill="white" stroke="#666666" points="292,-78 164,-78 164,-48 292,-48 292,-78"/>
<text text-anchor="start" x="172" y="-66" font-family="Helvetica,sans-Serif" font-size="10.00">hgps::RelativeRiskLookup</text>
<text text-anchor="middle" x="228" y="-55" font-family="Helvetica,sans-Serif" font-size="10.00">::rows</text>
</a>
</g>
</g>
<!-- Node1&#45;&gt;Node4 -->
<g id="edge3" class="edge">
<title>Node1&#45;&gt;Node4</title>
<path fill="none" stroke="#63b8ff" d="M128.1,-75.82C136.01,-74.8 144.16,-73.74 152.23,-72.69"/>
<polygon fill="#63b8ff" stroke="#63b8ff" points="152.57,-76.18 162.04,-71.42 151.67,-69.24 152.57,-76.18"/>
</g>
<!-- Node5 -->
<g id="node5" class="node">
<title>Node5</title>
<g id="a_node5"><a xlink:href="classhgps_1_1_monotonic_vector.html#a4034db763740e2cef762f60521cf79a4" target="_top" xlink:title=" ">
<polygon fill="white" stroke="#666666" points="286.5,-30 169.5,-30 169.5,0 286.5,0 286.5,-30"/>
<text text-anchor="start" x="177.5" y="-18" font-family="Helvetica,sans-Serif" font-size="10.00">hgps::MonotonicVector</text>
<text text-anchor="middle" x="228" y="-7" font-family="Helvetica,sans-Serif" font-size="10.00">::size</text>
</a>
</g>
</g>
<!-- Node1&#45;&gt;Node5 -->
<g id="edge5" class="edge">
<title>Node1&#45;&gt;Node5</title>
<path fill="none" stroke="#63b8ff" d="M97.32,-68.69C116.56,-59.73 141.52,-48.38 164,-39 167.56,-37.51 171.26,-36.01 174.99,-34.52"/>
<polygon fill="#63b8ff" stroke="#63b8ff" points="176.08,-37.85 184.1,-30.94 173.51,-31.34 176.08,-37.85"/>
</g>
<!-- Node4&#45;&gt;Node3 -->
<g id="edge4" class="edge">
<title>Node4&#45;&gt;Node3</title>
<path fill="none" stroke="#63b8ff" d="M292.18,-71.85C300.23,-72.97 308.47,-74.13 316.52,-75.25"/>
<polygon fill="#63b8ff" stroke="#63b8ff" points="315.83,-78.69 326.22,-76.61 316.8,-71.76 315.83,-78.69"/>
</g>
</g>
</svg>
