<?xml version="1.0" encoding="UTF-8" standalone="no"?>
<!DOCTYPE svg PUBLIC "-//W3C//DTD SVG 1.1//EN"
 "http://www.w3.org/Graphics/SVG/1.1/DTD/svg11.dtd">
<!-- Generated by graphviz version 2.43.0 (0)
 -->
<!-- Title: hgps::core::DataTableColumn::name Pages: 1 -->
<svg width="578pt" height="39pt"
 viewBox="0.00 0.00 578.00 39.00" xmlns="http://www.w3.org/2000/svg" xmlns:xlink="http://www.w3.org/1999/xlink">
<g id="graph0" class="graph" transform="scale(1 1) rotate(0) translate(4 35)">
<title>hgps::core::DataTableColumn::name</title>
<!-- Node1 -->
<g id="node1" class="node">
<title>Node1</title>
<g id="a_node1"><a xlink:title="Gets the column name identifier.">
<polygon fill="#bfbfbf" stroke="black" points="411,-0.5 411,-30.5 570,-30.5 570,-0.5 411,-0.5"/>
<text text-anchor="start" x="419" y="-18.5" font-family="Helvetica,sans-Serif" font-size="10.00">hgps::core::DataTableColumn</text>
<text text-anchor="middle" x="490.5" y="-7.5" font-family="Helvetica,sans-Serif" font-size="10.00">::name</text>
</a>
</g>
</g>
<!-- Node2 -->
<g id="node2" class="node">
<title>Node2</title>
<g id="a_node2"><a xlink:href="classhgps_1_1core_1_1DataTable.html#ae022bf3052be4728cce521ca87a54865" target="_top" xlink:title="Adds a new column to the table.">
<polygon fill="none" stroke="black" points="229,-6 229,-25 375,-25 375,-6 229,-6"/>
<text text-anchor="middle" x="302" y="-13" font-family="Helvetica,sans-Serif" font-size="10.00">hgps::core::DataTable::add</text>
</a>
</g>
</g>
<!-- Node1&#45;&gt;Node2 -->
<g id="edge1" class="edge">
<title>Node1&#45;&gt;Node2</title>
<path fill="none" stroke="midnightblue" d="M400.89,-15.5C392.29,-15.5 383.64,-15.5 375.23,-15.5"/>
<polygon fill="midnightblue" stroke="midnightblue" points="400.95,-19 410.95,-15.5 400.95,-12 400.95,-19"/>
</g>
<!-- Node3 -->
<g id="node3" class="node">
<title>Node3</title>
<g id="a_node3"><a xlink:href="namespacehost.html#a186b46487783fb34e9ac1ce3d52778aa" target="_top" xlink:title="Populates a datatable with the input data file contents.">
<polygon fill="none" stroke="black" points="77,-0.5 77,-30.5 193,-30.5 193,-0.5 77,-0.5"/>
<text text-anchor="start" x="85" y="-18.5" font-family="Helvetica,sans-Serif" font-size="10.00">host::load_datatable</text>
<text text-anchor="middle" x="135" y="-7.5" font-family="Helvetica,sans-Serif" font-size="10.00">_from_csv</text>
</a>
</g>
</g>
<!-- Node2&#45;&gt;Node3 -->
<g id="edge2" class="edge">
<title>Node2&#45;&gt;Node3</title>
<path fill="none" stroke="midnightblue" d="M218.37,-15.5C209.94,-15.5 201.51,-15.5 193.44,-15.5"/>
<polygon fill="midnightblue" stroke="midnightblue" points="218.63,-19 228.63,-15.5 218.63,-12 218.63,-19"/>
</g>
<!-- Node4 -->
<g id="node4" class="node">
<title>Node4</title>
<g id="a_node4"><a xlink:href="program_8cpp.html#a0ddf1224851353fc92bfbff6f499fa97" target="_top" xlink:title="Health&#45;GPS host application entry point.">
<polygon fill="none" stroke="black" points="0,-6 0,-25 41,-25 41,-6 0,-6"/>
<text text-anchor="middle" x="20.5" y="-13" font-family="Helvetica,sans-Serif" font-size="10.00">main</text>
</a>
</g>
</g>
<!-- Node3&#45;&gt;Node4 -->
<g id="edge3" class="edge">
<title>Node3&#45;&gt;Node4</title>
<path fill="none" stroke="midnightblue" d="M66.62,-15.5C57.37,-15.5 48.55,-15.5 41.19,-15.5"/>
<polygon fill="midnightblue" stroke="midnightblue" points="66.76,-19 76.76,-15.5 66.76,-12 66.76,-19"/>
</g>
</g>
</svg>
