<?xml version="1.0" encoding="UTF-8" standalone="no"?>
<!DOCTYPE svg PUBLIC "-//W3C//DTD SVG 1.1//EN"
 "http://www.w3.org/Graphics/SVG/1.1/DTD/svg11.dtd">
<!-- Generated by graphviz version 2.43.0 (0)
 -->
<!-- Title: hgps::UnivariateVisitor::visit Pages: 1 -->
<svg width="343pt" height="137pt"
 viewBox="0.00 0.00 343.00 137.00" xmlns="http://www.w3.org/2000/svg" xmlns:xlink="http://www.w3.org/1999/xlink">
<g id="graph0" class="graph" transform="scale(1 1) rotate(0) translate(4 133)">
<title>hgps::UnivariateVisitor::visit</title>
<!-- Node1 -->
<g id="node1" class="node">
<title>Node1</title>
<g id="a_node1"><a xlink:title="Visits a column of DoubleDataTableColumn type.">
<polygon fill="#bfbfbf" stroke="black" points="0,-49.5 0,-79.5 128,-79.5 128,-49.5 0,-49.5"/>
<text text-anchor="start" x="8" y="-67.5" font-family="Helvetica,sans-Serif" font-size="10.00">hgps::UnivariateVisitor</text>
<text text-anchor="middle" x="64" y="-56.5" font-family="Helvetica,sans-Serif" font-size="10.00">::visit</text>
</a>
</g>
</g>
<!-- Node2 -->
<g id="node2" class="node">
<title>Node2</title>
<g id="a_node2"><a xlink:href="classhgps_1_1core_1_1UnivariateSummary.html#acc2a6a5a218c755aeaba56358aa846d1" target="_top" xlink:title="Append a new data point to the summary.">
<polygon fill="none" stroke="black" points="164,-98.5 164,-128.5 335,-128.5 335,-98.5 164,-98.5"/>
<text text-anchor="start" x="172" y="-116.5" font-family="Helvetica,sans-Serif" font-size="10.00">hgps::core::UnivariateSummary</text>
<text text-anchor="middle" x="249.5" y="-105.5" font-family="Helvetica,sans-Serif" font-size="10.00">::append</text>
</a>
</g>
</g>
<!-- Node1&#45;&gt;Node2 -->
<g id="edge1" class="edge">
<title>Node1&#45;&gt;Node2</title>
<path fill="none" stroke="midnightblue" d="M121.3,-79.53C140.68,-84.71 162.55,-90.55 182.61,-95.91"/>
<polygon fill="midnightblue" stroke="midnightblue" points="181.74,-99.3 192.3,-98.49 183.54,-92.53 181.74,-99.3"/>
</g>
<!-- Node3 -->
<g id="node3" class="node">
<title>Node3</title>
<g id="a_node3"><a xlink:href="classhgps_1_1core_1_1PrimitiveDataTableColumn.html#aaa7fee516e57699b7d2e5b95fa503eaf" target="_top" xlink:title="Gets the column name identifier.">
<polygon fill="none" stroke="black" points="179.5,-49.5 179.5,-79.5 319.5,-79.5 319.5,-49.5 179.5,-49.5"/>
<text text-anchor="start" x="187.5" y="-67.5" font-family="Helvetica,sans-Serif" font-size="10.00">hgps::core::PrimitiveData</text>
<text text-anchor="middle" x="249.5" y="-56.5" font-family="Helvetica,sans-Serif" font-size="10.00">TableColumn::name</text>
</a>
</g>
</g>
<!-- Node1&#45;&gt;Node3 -->
<g id="edge2" class="edge">
<title>Node1&#45;&gt;Node3</title>
<path fill="none" stroke="midnightblue" d="M128.15,-64.5C141.29,-64.5 155.29,-64.5 168.93,-64.5"/>
<polygon fill="midnightblue" stroke="midnightblue" points="169.27,-68 179.27,-64.5 169.27,-61 169.27,-68"/>
</g>
<!-- Node4 -->
<g id="node4" class="node">
<title>Node4</title>
<g id="a_node4"><a xlink:href="classhgps_1_1core_1_1PrimitiveDataTableColumn.html#ac03e5bf33ed4db02588b197c483964d0" target="_top" xlink:title="Gets the number of null values in the column data.">
<polygon fill="none" stroke="black" points="179.5,-0.5 179.5,-30.5 319.5,-30.5 319.5,-0.5 179.5,-0.5"/>
<text text-anchor="start" x="187.5" y="-18.5" font-family="Helvetica,sans-Serif" font-size="10.00">hgps::core::PrimitiveData</text>
<text text-anchor="middle" x="249.5" y="-7.5" font-family="Helvetica,sans-Serif" font-size="10.00">TableColumn::null_count</text>
</a>
</g>
</g>
<!-- Node1&#45;&gt;Node4 -->
<g id="edge3" class="edge">
<title>Node1&#45;&gt;Node4</title>
<path fill="none" stroke="midnightblue" d="M121.3,-49.47C140.68,-44.29 162.55,-38.45 182.61,-33.09"/>
<polygon fill="midnightblue" stroke="midnightblue" points="183.54,-36.47 192.3,-30.51 181.74,-29.7 183.54,-36.47"/>
</g>
</g>
</svg>
