<?xml version="1.0" encoding="UTF-8" standalone="no"?>
<!DOCTYPE svg PUBLIC "-//W3C//DTD SVG 1.1//EN"
 "http://www.w3.org/Graphics/SVG/1.1/DTD/svg11.dtd">
<!-- Generated by graphviz version 2.43.0 (0)
 -->
<!-- Title: hgps::RuntimeContext::population Pages: 1 -->
<svg width="544pt" height="689pt"
 viewBox="0.00 0.00 544.00 688.50" xmlns="http://www.w3.org/2000/svg" xmlns:xlink="http://www.w3.org/1999/xlink">
<g id="graph0" class="graph" transform="scale(1 1) rotate(0) translate(4 684.5)">
<title>hgps::RuntimeContext::population</title>
<!-- Node1 -->
<g id="node1" class="node">
<title>Node1</title>
<g id="a_node1"><a xlink:title="Gets a reference to the virtual population container.">
<polygon fill="#bfbfbf" stroke="black" points="411,-330 411,-360 536,-360 536,-330 411,-330"/>
<text text-anchor="start" x="419" y="-348" font-family="Helvetica,sans-Serif" font-size="10.00">hgps::RuntimeContext</text>
<text text-anchor="middle" x="473.5" y="-337" font-family="Helvetica,sans-Serif" font-size="10.00">::population</text>
</a>
</g>
</g>
<!-- Node2 -->
<g id="node2" class="node">
<title>Node2</title>
<g id="a_node2"><a xlink:href="classhgps_1_1RiskfactorAdjustmentModel.html#a1cfc148566739100cb533e439fbdd00e" target="_top" xlink:title="Applies the baseline adjustments to the population risk factor values.">
<polygon fill="none" stroke="black" points="210.5,-650 210.5,-680 362.5,-680 362.5,-650 210.5,-650"/>
<text text-anchor="start" x="218.5" y="-668" font-family="Helvetica,sans-Serif" font-size="10.00">hgps::RiskfactorAdjustment</text>
<text text-anchor="middle" x="286.5" y="-657" font-family="Helvetica,sans-Serif" font-size="10.00">Model::Apply</text>
</a>
</g>
</g>
<!-- Node1&#45;&gt;Node2 -->
<g id="edge1" class="edge">
<title>Node1&#45;&gt;Node2</title>
<path fill="none" stroke="midnightblue" d="M471.72,-370.32C468.58,-427.05 452.89,-565.23 375,-640 371.01,-643.83 366.48,-647.08 361.62,-649.84"/>
<polygon fill="midnightblue" stroke="midnightblue" points="475.23,-370.25 472.2,-360.1 468.24,-369.92 475.23,-370.25"/>
</g>
<!-- Node4 -->
<g id="node4" class="node">
<title>Node4</title>
<g id="a_node4"><a xlink:href="classhgps_1_1StaticHierarchicalLinearModel.html#aed69f3d22a37908a2e350b73f4b3dfd0" target="_top" xlink:title="Generates the initial risk factors for a population and newborns.">
<polygon fill="none" stroke="black" points="220.5,-589.5 220.5,-630.5 352.5,-630.5 352.5,-589.5 220.5,-589.5"/>
<text text-anchor="start" x="228.5" y="-618.5" font-family="Helvetica,sans-Serif" font-size="10.00">hgps::StaticHierarchical</text>
<text text-anchor="start" x="228.5" y="-607.5" font-family="Helvetica,sans-Serif" font-size="10.00">LinearModel::generate</text>
<text text-anchor="middle" x="286.5" y="-596.5" font-family="Helvetica,sans-Serif" font-size="10.00">_risk_factors</text>
</a>
</g>
</g>
<!-- Node1&#45;&gt;Node4 -->
<g id="edge3" class="edge">
<title>Node1&#45;&gt;Node4</title>
<path fill="none" stroke="midnightblue" d="M468.98,-370.11C461,-417.75 437.14,-521.66 375,-580 368.56,-586.05 360.85,-590.88 352.71,-594.74"/>
<polygon fill="midnightblue" stroke="midnightblue" points="472.47,-370.48 470.57,-360.05 465.55,-369.39 472.47,-370.48"/>
</g>
<!-- Node5 -->
<g id="node5" class="node">
<title>Node5</title>
<g id="a_node5"><a xlink:href="classhgps_1_1HealthGPS.html#a2c23ed4aa847824887750396e4f28637" target="_top" xlink:title="Called when the model is added to the simulation executive.">
<polygon fill="none" stroke="black" points="227,-551.5 227,-570.5 346,-570.5 346,-551.5 227,-551.5"/>
<text text-anchor="middle" x="286.5" y="-558.5" font-family="Helvetica,sans-Serif" font-size="10.00">hgps::HealthGPS::init</text>
</a>
</g>
</g>
<!-- Node1&#45;&gt;Node5 -->
<g id="edge4" class="edge">
<title>Node1&#45;&gt;Node5</title>
<path fill="none" stroke="midnightblue" d="M467.5,-369.93C457.65,-412.26 431.58,-497.86 375,-542 366.67,-548.5 356.59,-552.89 346.27,-555.83"/>
<polygon fill="midnightblue" stroke="midnightblue" points="470.92,-370.68 469.66,-360.16 464.09,-369.16 470.92,-370.68"/>
</g>
<!-- Node6 -->
<g id="node6" class="node">
<title>Node6</title>
<g id="a_node6"><a xlink:href="classhgps_1_1DefaultCancerModel.html#aec3e6ee1bc0d3dc97761638df893b82b" target="_top" xlink:title="Initialises the average relative risks once all diseases status were initialised.">
<polygon fill="none" stroke="black" points="198.5,-502 198.5,-532 374.5,-532 374.5,-502 198.5,-502"/>
<text text-anchor="start" x="206.5" y="-520" font-family="Helvetica,sans-Serif" font-size="10.00">hgps::DefaultCancerModel</text>
<text text-anchor="middle" x="286.5" y="-509" font-family="Helvetica,sans-Serif" font-size="10.00">::initialise_average_relative_risk</text>
</a>
</g>
</g>
<!-- Node1&#45;&gt;Node6 -->
<g id="edge5" class="edge">
<title>Node1&#45;&gt;Node6</title>
<path fill="none" stroke="midnightblue" d="M462.9,-369.6C448.71,-402.69 419,-461.05 375,-493 370.28,-496.42 365.1,-499.36 359.69,-501.88"/>
<polygon fill="midnightblue" stroke="midnightblue" points="466.2,-370.78 466.8,-360.2 459.73,-368.09 466.2,-370.78"/>
</g>
<!-- Node7 -->
<g id="node7" class="node">
<title>Node7</title>
<g id="a_node7"><a xlink:href="classhgps_1_1DefaultDiseaseModel.html#a31040870542eb041053bb70d14e4afc4" target="_top" xlink:title="Initialises the average relative risks once all diseases status were initialised.">
<polygon fill="none" stroke="black" points="198.5,-453 198.5,-483 374.5,-483 374.5,-453 198.5,-453"/>
<text text-anchor="start" x="206.5" y="-471" font-family="Helvetica,sans-Serif" font-size="10.00">hgps::DefaultDiseaseModel</text>
<text text-anchor="middle" x="286.5" y="-460" font-family="Helvetica,sans-Serif" font-size="10.00">::initialise_average_relative_risk</text>
</a>
</g>
</g>
<!-- Node1&#45;&gt;Node7 -->
<g id="edge6" class="edge">
<title>Node1&#45;&gt;Node7</title>
<path fill="none" stroke="midnightblue" d="M455.57,-368.25C437.91,-390.85 408.21,-424.52 375,-444 369.16,-447.43 362.81,-450.38 356.29,-452.92"/>
<polygon fill="midnightblue" stroke="midnightblue" points="458.44,-370.26 461.73,-360.19 452.88,-366.01 458.44,-370.26"/>
</g>
<!-- Node8 -->
<g id="node8" class="node">
<title>Node8</title>
<g id="a_node8"><a xlink:href="classhgps_1_1DefaultCancerModel.html#a59790779c6af498fed3df81b168cd504" target="_top" xlink:title="Initialises the population disease status.">
<polygon fill="none" stroke="black" points="213.5,-404 213.5,-434 359.5,-434 359.5,-404 213.5,-404"/>
<text text-anchor="start" x="221.5" y="-422" font-family="Helvetica,sans-Serif" font-size="10.00">hgps::DefaultCancerModel</text>
<text text-anchor="middle" x="286.5" y="-411" font-family="Helvetica,sans-Serif" font-size="10.00">::initialise_disease_status</text>
</a>
</g>
</g>
<!-- Node1&#45;&gt;Node8 -->
<g id="edge7" class="edge">
<title>Node1&#45;&gt;Node8</title>
<path fill="none" stroke="midnightblue" d="M437.87,-364.97C419.59,-374.94 396.54,-386.63 375,-395 366.63,-398.25 357.65,-401.25 348.75,-403.94"/>
<polygon fill="midnightblue" stroke="midnightblue" points="439.64,-367.99 446.69,-360.09 436.25,-361.87 439.64,-367.99"/>
</g>
<!-- Node9 -->
<g id="node9" class="node">
<title>Node9</title>
<g id="a_node9"><a xlink:href="classhgps_1_1DefaultDiseaseModel.html#a2b8381459ae01f7ebf9b6023f1ad38db" target="_top" xlink:title="Initialises the population disease status.">
<polygon fill="none" stroke="black" points="211,-355 211,-385 362,-385 362,-355 211,-355"/>
<text text-anchor="start" x="219" y="-373" font-family="Helvetica,sans-Serif" font-size="10.00">hgps::DefaultDiseaseModel</text>
<text text-anchor="middle" x="286.5" y="-362" font-family="Helvetica,sans-Serif" font-size="10.00">::initialise_disease_status</text>
</a>
</g>
</g>
<!-- Node1&#45;&gt;Node9 -->
<g id="edge8" class="edge">
<title>Node1&#45;&gt;Node9</title>
<path fill="none" stroke="midnightblue" d="M400.83,-354.69C388.1,-356.41 374.82,-358.2 362.01,-359.93"/>
<polygon fill="midnightblue" stroke="midnightblue" points="401.46,-358.13 410.9,-353.32 400.52,-351.2 401.46,-358.13"/>
</g>
<!-- Node10 -->
<g id="node10" class="node">
<title>Node10</title>
<g id="a_node10"><a xlink:href="classhgps_1_1AnalysisModule.html#ad8a0a99804d6d01a1ed39c3e4f080999" target="_top" xlink:title="Initialises the virtual population.">
<polygon fill="none" stroke="black" points="225,-306 225,-336 348,-336 348,-306 225,-306"/>
<text text-anchor="start" x="233" y="-324" font-family="Helvetica,sans-Serif" font-size="10.00">hgps::AnalysisModule</text>
<text text-anchor="middle" x="286.5" y="-313" font-family="Helvetica,sans-Serif" font-size="10.00">::initialise_population</text>
</a>
</g>
</g>
<!-- Node1&#45;&gt;Node10 -->
<g id="edge9" class="edge">
<title>Node1&#45;&gt;Node10</title>
<path fill="none" stroke="midnightblue" d="M400.81,-335.7C383.43,-333.44 365.02,-331.06 348.2,-328.88"/>
<polygon fill="midnightblue" stroke="midnightblue" points="400.53,-339.19 410.9,-337.01 401.43,-332.25 400.53,-339.19"/>
</g>
<!-- Node11 -->
<g id="node11" class="node">
<title>Node11</title>
<g id="a_node11"><a xlink:href="classhgps_1_1PopulationModule.html#a2fa854bc1b6185fa06418677bf0c2ab8" target="_top" xlink:title="Initialises the virtual population.">
<polygon fill="none" stroke="black" points="219.5,-257 219.5,-287 353.5,-287 353.5,-257 219.5,-257"/>
<text text-anchor="start" x="227.5" y="-275" font-family="Helvetica,sans-Serif" font-size="10.00">hgps::PopulationModule</text>
<text text-anchor="middle" x="286.5" y="-264" font-family="Helvetica,sans-Serif" font-size="10.00">::initialise_population</text>
</a>
</g>
</g>
<!-- Node1&#45;&gt;Node11 -->
<g id="edge10" class="edge">
<title>Node1&#45;&gt;Node11</title>
<path fill="none" stroke="midnightblue" d="M436.33,-325.26C418.25,-315.9 395.84,-305.03 375,-297 365.71,-293.42 355.7,-290.09 345.87,-287.1"/>
<polygon fill="midnightblue" stroke="midnightblue" points="434.87,-328.45 445.35,-330 438.12,-322.25 434.87,-328.45"/>
</g>
<!-- Node12 -->
<g id="node12" class="node">
<title>Node12</title>
<g id="a_node12"><a xlink:href="classhgps_1_1SESNoiseModule.html#ae0a5e4a940571744b83d420bcb5f99b1" target="_top" xlink:title="Initialises the virtual population.">
<polygon fill="none" stroke="black" points="222.5,-208 222.5,-238 350.5,-238 350.5,-208 222.5,-208"/>
<text text-anchor="start" x="230.5" y="-226" font-family="Helvetica,sans-Serif" font-size="10.00">hgps::SESNoiseModule</text>
<text text-anchor="middle" x="286.5" y="-215" font-family="Helvetica,sans-Serif" font-size="10.00">::initialise_population</text>
</a>
</g>
</g>
<!-- Node1&#45;&gt;Node12 -->
<g id="edge11" class="edge">
<title>Node1&#45;&gt;Node12</title>
<path fill="none" stroke="midnightblue" d="M455.12,-321.93C437.32,-299.86 407.69,-267.18 375,-248 367.51,-243.6 359.19,-239.94 350.76,-236.9"/>
<polygon fill="midnightblue" stroke="midnightblue" points="452.41,-324.14 461.35,-329.82 457.9,-319.8 452.41,-324.14"/>
</g>
<!-- Node13 -->
<g id="node13" class="node">
<title>Node13</title>
<g id="a_node13"><a xlink:href="classhgps_1_1SESNoiseModule.html#ad24d0002d518f941159a9873fe918c44" target="_top" xlink:title="Updates the virtual population status.">
<polygon fill="none" stroke="black" points="222.5,-159 222.5,-189 350.5,-189 350.5,-159 222.5,-159"/>
<text text-anchor="start" x="230.5" y="-177" font-family="Helvetica,sans-Serif" font-size="10.00">hgps::SESNoiseModule</text>
<text text-anchor="middle" x="286.5" y="-166" font-family="Helvetica,sans-Serif" font-size="10.00">::update_population</text>
</a>
</g>
</g>
<!-- Node1&#45;&gt;Node13 -->
<g id="edge12" class="edge">
<title>Node1&#45;&gt;Node13</title>
<path fill="none" stroke="midnightblue" d="M462.54,-320.29C448.11,-287.64 418.29,-230.58 375,-199 367.72,-193.69 359.35,-189.51 350.73,-186.21"/>
<polygon fill="midnightblue" stroke="midnightblue" points="459.36,-321.77 466.52,-329.59 465.8,-319.02 459.36,-321.77"/>
</g>
<!-- Node14 -->
<g id="node14" class="node">
<title>Node14</title>
<g id="a_node14"><a xlink:href="classhgps_1_1PopulationModule.html#aee3e42276edae4477f41ca360b090323" target="_top" xlink:title="Updates the virtual population status.">
<polygon fill="none" stroke="black" points="219.5,-110 219.5,-140 353.5,-140 353.5,-110 219.5,-110"/>
<text text-anchor="start" x="227.5" y="-128" font-family="Helvetica,sans-Serif" font-size="10.00">hgps::PopulationModule</text>
<text text-anchor="middle" x="286.5" y="-117" font-family="Helvetica,sans-Serif" font-size="10.00">::update_population</text>
</a>
</g>
</g>
<!-- Node1&#45;&gt;Node14 -->
<g id="edge13" class="edge">
<title>Node1&#45;&gt;Node14</title>
<path fill="none" stroke="midnightblue" d="M466.97,-320.13C456.44,-278.6 429.53,-195.25 375,-150 368.68,-144.75 361.31,-140.61 353.59,-137.33"/>
<polygon fill="midnightblue" stroke="midnightblue" points="463.6,-321.07 469.36,-329.97 470.4,-319.42 463.6,-321.07"/>
</g>
<!-- Node15 -->
<g id="node15" class="node">
<title>Node15</title>
<g id="a_node15"><a xlink:href="classhgps_1_1EnergyBalanceHierarchicalModel.html#a3b51c4a34acc3382b17d6c251884e619" target="_top" xlink:title="Update risk factors for population.">
<polygon fill="none" stroke="black" points="198,-61 198,-91 375,-91 375,-61 198,-61"/>
<text text-anchor="start" x="206" y="-79" font-family="Helvetica,sans-Serif" font-size="10.00">hgps::EnergyBalanceHierarchical</text>
<text text-anchor="middle" x="286.5" y="-68" font-family="Helvetica,sans-Serif" font-size="10.00">Model::update_risk_factors</text>
</a>
</g>
</g>
<!-- Node1&#45;&gt;Node15 -->
<g id="edge14" class="edge">
<title>Node1&#45;&gt;Node15</title>
<path fill="none" stroke="midnightblue" d="M469.7,-319.67C462.88,-270.2 440.79,-160.4 375,-101 370.78,-97.19 366.01,-93.95 360.94,-91.21"/>
<polygon fill="midnightblue" stroke="midnightblue" points="466.26,-320.33 471,-329.81 473.2,-319.44 466.26,-320.33"/>
</g>
<!-- Node16 -->
<g id="node16" class="node">
<title>Node16</title>
<g id="a_node16"><a xlink:href="classhgps_1_1StaticHierarchicalLinearModel.html#a2501846cb781316081a03317bfabfeca" target="_top" xlink:title="Update risk factors for population.">
<polygon fill="none" stroke="black" points="216.5,-0.5 216.5,-41.5 356.5,-41.5 356.5,-0.5 216.5,-0.5"/>
<text text-anchor="start" x="224.5" y="-29.5" font-family="Helvetica,sans-Serif" font-size="10.00">hgps::StaticHierarchical</text>
<text text-anchor="start" x="224.5" y="-18.5" font-family="Helvetica,sans-Serif" font-size="10.00">LinearModel::update_risk</text>
<text text-anchor="middle" x="286.5" y="-7.5" font-family="Helvetica,sans-Serif" font-size="10.00">_factors</text>
</a>
</g>
</g>
<!-- Node1&#45;&gt;Node16 -->
<g id="edge15" class="edge">
<title>Node1&#45;&gt;Node16</title>
<path fill="none" stroke="midnightblue" d="M471.3,-319.8C467.3,-263.9 449.97,-128.42 375,-52 369.7,-46.59 363.39,-42.13 356.63,-38.44"/>
<polygon fill="midnightblue" stroke="midnightblue" points="467.82,-320.12 471.94,-329.88 474.8,-319.68 467.82,-320.12"/>
</g>
<!-- Node3 -->
<g id="node3" class="node">
<title>Node3</title>
<g id="a_node3"><a xlink:href="classhgps_1_1RiskFactorModule.html#a84146832e73a95c800de619eafceeabc" target="_top" xlink:title="Apply baseline risk factor adjustments to population.">
<polygon fill="none" stroke="black" points="0,-650 0,-680 162,-680 162,-650 0,-650"/>
<text text-anchor="start" x="8" y="-668" font-family="Helvetica,sans-Serif" font-size="10.00">hgps::RiskFactorModule</text>
<text text-anchor="middle" x="81" y="-657" font-family="Helvetica,sans-Serif" font-size="10.00">::apply_baseline_adjustments</text>
</a>
</g>
</g>
<!-- Node2&#45;&gt;Node3 -->
<g id="edge2" class="edge">
<title>Node2&#45;&gt;Node3</title>
<path fill="none" stroke="midnightblue" d="M200.24,-665C187.57,-665 174.56,-665 162.01,-665"/>
<polygon fill="midnightblue" stroke="midnightblue" points="200.3,-668.5 210.3,-665 200.3,-661.5 200.3,-668.5"/>
</g>
</g>
</svg>
