<?xml version="1.0" encoding="UTF-8" standalone="no"?>
<!DOCTYPE svg PUBLIC "-//W3C//DTD SVG 1.1//EN"
 "http://www.w3.org/Graphics/SVG/1.1/DTD/svg11.dtd">
<!-- Generated by graphviz version 7.0.6 (20230106.0513)
 -->
<!-- Title: hgps::core::Array2D::rows Pages: 1 -->
<svg width="440pt" height="59pt"
 viewBox="0.00 0.00 440.00 59.00" xmlns="http://www.w3.org/2000/svg" xmlns:xlink="http://www.w3.org/1999/xlink">
<g id="graph0" class="graph" transform="scale(1 1) rotate(0) translate(4 55)">
<title>hgps::core::Array2D::rows</title>
<!-- Node1 -->
<g id="node1" class="node">
<title>Node1</title>
<g id="a_node1"><a xlink:title=" ">
<polygon fill="#999999" stroke="#666666" points="432,-51 328,-51 328,-21 432,-21 432,-51"/>
<text text-anchor="start" x="336" y="-39" font-family="Helvetica,sans-Serif" font-size="10.00">hgps::core::Array2D</text>
<text text-anchor="middle" x="380" y="-28" font-family="Helvetica,sans-Serif" font-size="10.00">::rows</text>
</a>
</g>
</g>
<!-- Node2 -->
<g id="node2" class="node">
<title>Node2</title>
<g id="a_node2"><a xlink:href="classhgps_1_1_relative_risk_lookup.html#ae807e285da2387e3b44ea68372b3f34c" target="_top" xlink:title=" ">
<polygon fill="white" stroke="#666666" points="128,-51 0,-51 0,-21 128,-21 128,-51"/>
<text text-anchor="start" x="8" y="-39" font-family="Helvetica,sans-Serif" font-size="10.00">hgps::RelativeRiskLookup</text>
<text text-anchor="middle" x="64" y="-28" font-family="Helvetica,sans-Serif" font-size="10.00">::RelativeRiskLookup</text>
</a>
</g>
</g>
<!-- Node1&#45;&gt;Node2 -->
<g id="edge1" class="edge">
<title>Node1&#45;&gt;Node2</title>
<path fill="none" stroke="#63b8ff" d="M316.44,-38.42C308.22,-38.66 299.91,-38.86 292,-39 235.12,-39.98 220.88,-39.86 164,-39 152.48,-38.83 140.21,-38.54 128.37,-38.21"/>
<polygon fill="#63b8ff" stroke="#63b8ff" points="316.55,-41.91 326.43,-38.1 316.33,-34.92 316.55,-41.91"/>
</g>
<!-- Node3 -->
<g id="node3" class="node">
<title>Node3</title>
<g id="a_node3"><a xlink:href="classhgps_1_1_relative_risk_lookup.html#a7c41a6fb0004de0f0eb9c680ef511083" target="_top" xlink:title=" ">
<polygon fill="white" stroke="#666666" points="292,-30 164,-30 164,0 292,0 292,-30"/>
<text text-anchor="start" x="172" y="-18" font-family="Helvetica,sans-Serif" font-size="10.00">hgps::RelativeRiskLookup</text>
<text text-anchor="middle" x="228" y="-7" font-family="Helvetica,sans-Serif" font-size="10.00">::rows</text>
</a>
</g>
</g>
<!-- Node1&#45;&gt;Node3 -->
<g id="edge2" class="edge">
<title>Node1&#45;&gt;Node3</title>
<path fill="none" stroke="#63b8ff" d="M316.66,-27.27C308.66,-26.15 300.46,-25 292.44,-23.88"/>
<polygon fill="#63b8ff" stroke="#63b8ff" points="315.91,-30.7 326.3,-28.62 316.88,-23.77 315.91,-30.7"/>
</g>
<!-- Node3&#45;&gt;Node2 -->
<g id="edge3" class="edge">
<title>Node3&#45;&gt;Node2</title>
<path fill="none" stroke="#63b8ff" d="M152.59,-24.65C144.53,-25.69 136.38,-26.75 128.46,-27.77"/>
<polygon fill="#63b8ff" stroke="#63b8ff" points="152.93,-28.13 162.4,-23.37 152.03,-21.19 152.93,-28.13"/>
</g>
</g>
</svg>
