<?xml version="1.0" encoding="UTF-8" standalone="no"?>
<!DOCTYPE svg PUBLIC "-//W3C//DTD SVG 1.1//EN"
 "http://www.w3.org/Graphics/SVG/1.1/DTD/svg11.dtd">
<!-- Generated by graphviz version 7.0.6 (20230106.0513)
 -->
<!-- Title: hgps::core::DataTable::num_rows Pages: 1 -->
<svg width="368pt" height="38pt"
 viewBox="0.00 0.00 368.00 38.00" xmlns="http://www.w3.org/2000/svg" xmlns:xlink="http://www.w3.org/1999/xlink">
<g id="graph0" class="graph" transform="scale(1 1) rotate(0) translate(4 34)">
<title>hgps::core::DataTable::num_rows</title>
<!-- Node1 -->
<g id="node1" class="node">
<title>Node1</title>
<g id="a_node1"><a xlink:title=" ">
<polygon fill="#999999" stroke="#666666" points="360,-30 248,-30 248,0 360,0 360,-30"/>
<text text-anchor="start" x="256" y="-18" font-family="Helvetica,sans-Serif" font-size="10.00">hgps::core::DataTable</text>
<text text-anchor="middle" x="304" y="-7" font-family="Helvetica,sans-Serif" font-size="10.00">::num_rows</text>
</a>
</g>
</g>
<!-- Node2 -->
<g id="node2" class="node">
<title>Node2</title>
<g id="a_node2"><a xlink:href="classhgps_1_1core_1_1_data_table.html#ab4a773277858efb48c2dcc9286a81f40" target="_top" xlink:title=" ">
<polygon fill="white" stroke="#666666" points="212,-30 100,-30 100,0 212,0 212,-30"/>
<text text-anchor="start" x="108" y="-18" font-family="Helvetica,sans-Serif" font-size="10.00">hgps::core::DataTable</text>
<text text-anchor="middle" x="156" y="-7" font-family="Helvetica,sans-Serif" font-size="10.00">::to_string</text>
</a>
</g>
</g>
<!-- Node1&#45;&gt;Node2 -->
<g id="edge1" class="edge">
<title>Node1&#45;&gt;Node2</title>
<path fill="none" stroke="#63b8ff" d="M236.47,-15C228.38,-15 220.18,-15 212.27,-15"/>
<polygon fill="#63b8ff" stroke="#63b8ff" points="236.29,-18.5 246.29,-15 236.29,-11.5 236.29,-18.5"/>
</g>
<!-- Node3 -->
<g id="node3" class="node">
<title>Node3</title>
<g id="a_node3"><a xlink:href="datatable_8cpp.html#a6404541ea4e5bbe502c3ab05b4e680f4" target="_top" xlink:title=" ">
<polygon fill="white" stroke="#666666" points="64,-24.5 0,-24.5 0,-5.5 64,-5.5 64,-24.5"/>
<text text-anchor="middle" x="32" y="-12.5" font-family="Helvetica,sans-Serif" font-size="10.00">operator&lt;&lt;</text>
</a>
</g>
</g>
<!-- Node2&#45;&gt;Node3 -->
<g id="edge2" class="edge">
<title>Node2&#45;&gt;Node3</title>
<path fill="none" stroke="#63b8ff" d="M88.33,-15C80.01,-15 71.83,-15 64.42,-15"/>
<polygon fill="#63b8ff" stroke="#63b8ff" points="88.2,-18.5 98.2,-15 88.2,-11.5 88.2,-18.5"/>
</g>
</g>
</svg>
