<?xml version="1.0" encoding="UTF-8" standalone="no"?>
<!DOCTYPE svg PUBLIC "-//W3C//DTD SVG 1.1//EN"
 "http://www.w3.org/Graphics/SVG/1.1/DTD/svg11.dtd">
<!-- Generated by graphviz version 7.0.6 (20230106.0513)
 -->
<!-- Title: hgps::DataSeries::add_channels Pages: 1 -->
<svg width="446pt" height="76pt"
 viewBox="0.00 0.00 446.00 75.50" xmlns="http://www.w3.org/2000/svg" xmlns:xlink="http://www.w3.org/1999/xlink">
<g id="graph0" class="graph" transform="scale(1 1) rotate(0) translate(4 71.5)">
<title>hgps::DataSeries::add_channels</title>
<!-- Node1 -->
<g id="node1" class="node">
<title>Node1</title>
<g id="a_node1"><a xlink:title=" ">
<polygon fill="#999999" stroke="#666666" points="113,-45.5 0,-45.5 0,-15.5 113,-15.5 113,-45.5"/>
<text text-anchor="start" x="8" y="-33.5" font-family="Helvetica,sans-Serif" font-size="10.00">hgps::DataSeries::add</text>
<text text-anchor="middle" x="56.5" y="-22.5" font-family="Helvetica,sans-Serif" font-size="10.00">_channels</text>
</a>
</g>
</g>
<!-- Node2 -->
<g id="node2" class="node">
<title>Node2</title>
<g id="a_node2"><a xlink:href="classhgps_1_1_data_series.html#a3d3e52a0ea2ac6686e28ec69b462266d" target="_top" xlink:title=" ">
<polygon fill="white" stroke="#666666" points="262,-45.5 149,-45.5 149,-15.5 262,-15.5 262,-45.5"/>
<text text-anchor="start" x="157" y="-33.5" font-family="Helvetica,sans-Serif" font-size="10.00">hgps::DataSeries::add</text>
<text text-anchor="middle" x="205.5" y="-22.5" font-family="Helvetica,sans-Serif" font-size="10.00">_channel</text>
</a>
</g>
</g>
<!-- Node1&#45;&gt;Node2 -->
<g id="edge1" class="edge">
<title>Node1&#45;&gt;Node2</title>
<path fill="none" stroke="#63b8ff" d="M113.49,-30.5C121.23,-30.5 129.25,-30.5 137.17,-30.5"/>
<polygon fill="#63b8ff" stroke="#63b8ff" points="137.15,-34 147.15,-30.5 137.15,-27 137.15,-34"/>
</g>
<!-- Node3 -->
<g id="node3" class="node">
<title>Node3</title>
<g id="a_node3"><a xlink:href="structhgps_1_1core_1_1case__insensitive.html#a83bdacfb623688d6405453d17ff798e6" target="_top" xlink:title=" ">
<polygon fill="white" stroke="#666666" points="438,-67.5 298,-67.5 298,-37.5 438,-37.5 438,-67.5"/>
<text text-anchor="start" x="306" y="-55.5" font-family="Helvetica,sans-Serif" font-size="10.00">hgps::core::case_insensitive</text>
<text text-anchor="middle" x="368" y="-44.5" font-family="Helvetica,sans-Serif" font-size="10.00">::contains</text>
</a>
</g>
</g>
<!-- Node2&#45;&gt;Node3 -->
<g id="edge2" class="edge">
<title>Node2&#45;&gt;Node3</title>
<path fill="none" stroke="#63b8ff" d="M262.18,-38.13C270.03,-39.21 278.22,-40.33 286.41,-41.45"/>
<polygon fill="#63b8ff" stroke="#63b8ff" points="285.67,-44.89 296.06,-42.78 286.62,-37.95 285.67,-44.89"/>
</g>
<!-- Node4 -->
<g id="node4" class="node">
<title>Node4</title>
<g id="a_node4"><a xlink:href="namespacehgps_1_1core.html#a502537e3fe210afb2531f156977eb2f6" target="_top" xlink:title=" ">
<polygon fill="white" stroke="#666666" points="420,-19 316,-19 316,0 420,0 420,-19"/>
<text text-anchor="middle" x="368" y="-7" font-family="Helvetica,sans-Serif" font-size="10.00">hgps::core::to_lower</text>
</a>
</g>
</g>
<!-- Node2&#45;&gt;Node4 -->
<g id="edge3" class="edge">
<title>Node2&#45;&gt;Node4</title>
<path fill="none" stroke="#63b8ff" d="M262.18,-23.21C275.9,-21.42 290.68,-19.49 304.69,-17.65"/>
<polygon fill="#63b8ff" stroke="#63b8ff" points="304.76,-21.17 314.22,-16.41 303.85,-14.23 304.76,-21.17"/>
</g>
</g>
</svg>
