<?xml version="1.0" encoding="UTF-8" standalone="no"?>
<!DOCTYPE svg PUBLIC "-//W3C//DTD SVG 1.1//EN"
 "http://www.w3.org/Graphics/SVG/1.1/DTD/svg11.dtd">
<!-- Generated by graphviz version 2.43.0 (0)
 -->
<!-- Title: hgps::data::DataManager::get_country Pages: 1 -->
<svg width="338pt" height="88pt"
 viewBox="0.00 0.00 338.00 88.00" xmlns="http://www.w3.org/2000/svg" xmlns:xlink="http://www.w3.org/1999/xlink">
<g id="graph0" class="graph" transform="scale(1 1) rotate(0) translate(4 84)">
<title>hgps::data::DataManager::get_country</title>
<!-- Node1 -->
<g id="node1" class="node">
<title>Node1</title>
<g id="a_node1"><a xlink:title=" ">
<polygon fill="#bfbfbf" stroke="black" points="0,-24.5 0,-54.5 140,-54.5 140,-24.5 0,-24.5"/>
<text text-anchor="start" x="8" y="-42.5" font-family="Helvetica,sans-Serif" font-size="10.00">hgps::data::DataManager</text>
<text text-anchor="middle" x="70" y="-31.5" font-family="Helvetica,sans-Serif" font-size="10.00">::get_country</text>
</a>
</g>
</g>
<!-- Node2 -->
<g id="node2" class="node">
<title>Node2</title>
<g id="a_node2"><a xlink:href="structhgps_1_1core_1_1case__insensitive.html#a7c3f04e32aa1d7a41ef339443139b5c0" target="_top" xlink:title=" ">
<polygon fill="none" stroke="black" points="176,-49.5 176,-79.5 330,-79.5 330,-49.5 176,-49.5"/>
<text text-anchor="start" x="184" y="-67.5" font-family="Helvetica,sans-Serif" font-size="10.00">hgps::core::case_insensitive</text>
<text text-anchor="middle" x="253" y="-56.5" font-family="Helvetica,sans-Serif" font-size="10.00">::equals</text>
</a>
</g>
</g>
<!-- Node1&#45;&gt;Node2 -->
<g id="edge1" class="edge">
<title>Node1&#45;&gt;Node2</title>
<path fill="none" stroke="midnightblue" d="M140.2,-49.06C148.6,-50.22 157.25,-51.41 165.85,-52.6"/>
<polygon fill="midnightblue" stroke="midnightblue" points="165.51,-56.09 175.9,-53.99 166.47,-49.15 165.51,-56.09"/>
</g>
<!-- Node3 -->
<g id="node3" class="node">
<title>Node3</title>
<g id="a_node3"><a xlink:href="classhgps_1_1data_1_1DataManager.html#abc42fa2dd5e12e64a82848a0b31b2826" target="_top" xlink:title=" ">
<polygon fill="none" stroke="black" points="183,-0.5 183,-30.5 323,-30.5 323,-0.5 183,-0.5"/>
<text text-anchor="start" x="191" y="-18.5" font-family="Helvetica,sans-Serif" font-size="10.00">hgps::data::DataManager</text>
<text text-anchor="middle" x="253" y="-7.5" font-family="Helvetica,sans-Serif" font-size="10.00">::get_countries</text>
</a>
</g>
</g>
<!-- Node1&#45;&gt;Node3 -->
<g id="edge2" class="edge">
<title>Node1&#45;&gt;Node3</title>
<path fill="none" stroke="midnightblue" d="M140.2,-30.32C150.9,-28.91 162.02,-27.43 172.91,-25.99"/>
<polygon fill="midnightblue" stroke="midnightblue" points="173.38,-29.46 182.84,-24.67 172.46,-22.52 173.38,-29.46"/>
</g>
</g>
</svg>
