<?xml version="1.0" encoding="UTF-8" standalone="no"?>
<!DOCTYPE svg PUBLIC "-//W3C//DTD SVG 1.1//EN"
 "http://www.w3.org/Graphics/SVG/1.1/DTD/svg11.dtd">
<!-- Generated by graphviz version 7.0.6 (20230106.0513)
 -->
<!-- Title: hgps::DiseaseModel Pages: 1 -->
<svg width="292pt" height="82pt"
 viewBox="0.00 0.00 292.00 82.00" xmlns="http://www.w3.org/2000/svg" xmlns:xlink="http://www.w3.org/1999/xlink">
<g id="graph0" class="graph" transform="scale(1 1) rotate(0) translate(4 78)">
<title>hgps::DiseaseModel</title>
<!-- Node1 -->
<g id="node1" class="node">
<title>Node1</title>
<g id="a_node1"><a xlink:title="Diseases model interface.">
<polygon fill="#999999" stroke="#666666" points="193,-74 88,-74 88,-55 193,-55 193,-74"/>
<text text-anchor="middle" x="140.5" y="-62" font-family="Helvetica,sans-Serif" font-size="10.00">hgps::DiseaseModel</text>
</a>
</g>
</g>
<!-- Node2 -->
<g id="node2" class="node">
<title>Node2</title>
<g id="a_node2"><a xlink:href="classhgps_1_1_default_cancer_model.html" target="_top" xlink:title=" ">
<polygon fill="white" stroke="#666666" points="131,-19 0,-19 0,0 131,0 131,-19"/>
<text text-anchor="middle" x="65.5" y="-7" font-family="Helvetica,sans-Serif" font-size="10.00">hgps::DefaultCancerModel</text>
</a>
</g>
</g>
<!-- Node1&#45;&gt;Node2 -->
<g id="edge1" class="edge">
<title>Node1&#45;&gt;Node2</title>
<path fill="none" stroke="#63b8ff" d="M118.45,-47.92C105.28,-38.61 89.03,-27.13 78.03,-19.36"/>
<polygon fill="#63b8ff" stroke="#63b8ff" points="116.35,-50.72 126.54,-53.64 120.39,-45.01 116.35,-50.72"/>
</g>
<!-- Node3 -->
<g id="node3" class="node">
<title>Node3</title>
<g id="a_node3"><a xlink:href="classhgps_1_1_default_disease_model.html" target="_top" xlink:title=" ">
<polygon fill="white" stroke="#666666" points="284,-19 149,-19 149,0 284,0 284,-19"/>
<text text-anchor="middle" x="216.5" y="-7" font-family="Helvetica,sans-Serif" font-size="10.00">hgps::DefaultDiseaseModel</text>
</a>
</g>
</g>
<!-- Node1&#45;&gt;Node3 -->
<g id="edge2" class="edge">
<title>Node1&#45;&gt;Node3</title>
<path fill="none" stroke="#63b8ff" d="M162.46,-48.19C175.87,-38.84 192.54,-27.21 203.8,-19.36"/>
<polygon fill="#63b8ff" stroke="#63b8ff" points="160.83,-45.05 154.63,-53.64 164.84,-50.79 160.83,-45.05"/>
</g>
</g>
</svg>
