<?xml version="1.0" encoding="UTF-8" standalone="no"?>
<!DOCTYPE svg PUBLIC "-//W3C//DTD SVG 1.1//EN"
 "http://www.w3.org/Graphics/SVG/1.1/DTD/svg11.dtd">
<!-- Generated by graphviz version 2.43.0 (0)
 -->
<!-- Title: hgps::RuntimeContext::metrics Pages: 1 -->
<svg width="306pt" height="116pt"
 viewBox="0.00 0.00 306.00 115.50" xmlns="http://www.w3.org/2000/svg" xmlns:xlink="http://www.w3.org/1999/xlink">
<g id="graph0" class="graph" transform="scale(1 1) rotate(0) translate(4 111.5)">
<title>hgps::RuntimeContext::metrics</title>
<!-- Node1 -->
<g id="node1" class="node">
<title>Node1</title>
<g id="a_node1"><a xlink:title=" ">
<polygon fill="#bfbfbf" stroke="black" points="173,-44.5 173,-74.5 298,-74.5 298,-44.5 173,-44.5"/>
<text text-anchor="start" x="181" y="-62.5" font-family="Helvetica,sans-Serif" font-size="10.00">hgps::RuntimeContext</text>
<text text-anchor="middle" x="235.5" y="-51.5" font-family="Helvetica,sans-Serif" font-size="10.00">::metrics</text>
</a>
</g>
</g>
<!-- Node2 -->
<g id="node2" class="node">
<title>Node2</title>
<g id="a_node2"><a xlink:href="classhgps_1_1HealthGPS.html#a2c23ed4aa847824887750396e4f28637" target="_top" xlink:title="Called when the model is added to the simulation executive.">
<polygon fill="none" stroke="black" points="9,-88 9,-107 128,-107 128,-88 9,-88"/>
<text text-anchor="middle" x="68.5" y="-95" font-family="Helvetica,sans-Serif" font-size="10.00">hgps::HealthGPS::init</text>
</a>
</g>
</g>
<!-- Node1&#45;&gt;Node2 -->
<g id="edge1" class="edge">
<title>Node1&#45;&gt;Node2</title>
<path fill="none" stroke="midnightblue" d="M162.39,-76.11C144.89,-80.14 126.76,-84.31 111.22,-87.89"/>
<polygon fill="midnightblue" stroke="midnightblue" points="163.63,-79.41 172.59,-73.76 162.06,-72.59 163.63,-79.41"/>
</g>
<!-- Node3 -->
<g id="node3" class="node">
<title>Node3</title>
<g id="a_node3"><a xlink:href="classhgps_1_1HealthGPS.html#af36af9f5aacf623d283f72e9a7b2c411" target="_top" xlink:title="Called to assign a new state to the model at current time.">
<polygon fill="none" stroke="black" points="0,-50 0,-69 137,-69 137,-50 0,-50"/>
<text text-anchor="middle" x="68.5" y="-57" font-family="Helvetica,sans-Serif" font-size="10.00">hgps::HealthGPS::update</text>
</a>
</g>
</g>
<!-- Node1&#45;&gt;Node3 -->
<g id="edge2" class="edge">
<title>Node1&#45;&gt;Node3</title>
<path fill="none" stroke="midnightblue" d="M162.4,-59.5C153.96,-59.5 145.38,-59.5 137.01,-59.5"/>
<polygon fill="midnightblue" stroke="midnightblue" points="162.59,-63 172.59,-59.5 162.59,-56 162.59,-63"/>
</g>
<!-- Node4 -->
<g id="node4" class="node">
<title>Node4</title>
<g id="a_node4"><a xlink:href="classhgps_1_1PopulationModule.html#aee3e42276edae4477f41ca360b090323" target="_top" xlink:title="Updates the virtual population status.">
<polygon fill="none" stroke="black" points="1.5,-0.5 1.5,-30.5 135.5,-30.5 135.5,-0.5 1.5,-0.5"/>
<text text-anchor="start" x="9.5" y="-18.5" font-family="Helvetica,sans-Serif" font-size="10.00">hgps::PopulationModule</text>
<text text-anchor="middle" x="68.5" y="-7.5" font-family="Helvetica,sans-Serif" font-size="10.00">::update_population</text>
</a>
</g>
</g>
<!-- Node1&#45;&gt;Node4 -->
<g id="edge3" class="edge">
<title>Node1&#45;&gt;Node4</title>
<path fill="none" stroke="midnightblue" d="M168.11,-41.8C154.1,-38.06 139.45,-34.15 125.85,-30.53"/>
<polygon fill="midnightblue" stroke="midnightblue" points="167.61,-45.29 178.18,-44.48 169.42,-38.52 167.61,-45.29"/>
</g>
</g>
</svg>
