<?xml version="1.0" encoding="UTF-8" standalone="no"?>
<!DOCTYPE svg PUBLIC "-//W3C//DTD SVG 1.1//EN"
 "http://www.w3.org/Graphics/SVG/1.1/DTD/svg11.dtd">
<!-- Generated by graphviz version 2.43.0 (0)
 -->
<!-- Title: hgps::Simulation Pages: 1 -->
<svg width="290pt" height="95pt"
 viewBox="0.00 0.00 289.50 95.00" xmlns="http://www.w3.org/2000/svg" xmlns:xlink="http://www.w3.org/1999/xlink">
<g id="graph0" class="graph" transform="scale(1 1) rotate(0) translate(4 91)">
<title>hgps::Simulation</title>
<!-- Node1 -->
<g id="node1" class="node">
<title>Node1</title>
<g id="a_node1"><a xlink:title=" ">
<polygon fill="#bfbfbf" stroke="black" points="84.5,-0.5 84.5,-19.5 182.5,-19.5 182.5,-0.5 84.5,-0.5"/>
<text text-anchor="middle" x="133.5" y="-7.5" font-family="Helvetica,sans-Serif" font-size="10.00">hgps::Simulation</text>
</a>
</g>
</g>
<!-- Node2 -->
<g id="node2" class="node">
<title>Node2</title>
<g id="a_node2"><a xlink:title=" ">
<polygon fill="none" stroke="#bfbfbf" points="0,-67.5 0,-86.5 117,-86.5 117,-67.5 0,-67.5"/>
<text text-anchor="middle" x="58.5" y="-74.5" font-family="Helvetica,sans-Serif" font-size="10.00">adevs::Model&lt; int &gt;</text>
</a>
</g>
</g>
<!-- Node2&#45;&gt;Node1 -->
<g id="edge1" class="edge">
<title>Node2&#45;&gt;Node1</title>
<path fill="none" stroke="midnightblue" d="M76.55,-60.36C91.29,-47.58 111.59,-29.99 123.55,-19.63"/>
<polygon fill="midnightblue" stroke="midnightblue" points="73.88,-58.04 68.61,-67.23 78.46,-63.33 73.88,-58.04"/>
</g>
<!-- Node3 -->
<g id="node3" class="node">
<title>Node3</title>
<g id="a_node3"><a xlink:href="structhgps_1_1SimulationDefinition.html" target="_top" xlink:title=" ">
<polygon fill="none" stroke="black" points="135.5,-67.5 135.5,-86.5 281.5,-86.5 281.5,-67.5 135.5,-67.5"/>
<text text-anchor="middle" x="208.5" y="-74.5" font-family="Helvetica,sans-Serif" font-size="10.00">hgps::SimulationDefinition</text>
</a>
</g>
</g>
<!-- Node3&#45;&gt;Node1 -->
<g id="edge2" class="edge">
<title>Node3&#45;&gt;Node1</title>
<path fill="none" stroke="#9a32cd" stroke-dasharray="5,2" d="M190.45,-60.36C175.71,-47.58 155.41,-29.99 143.45,-19.63"/>
<polygon fill="#9a32cd" stroke="#9a32cd" points="188.54,-63.33 198.39,-67.23 193.12,-58.04 188.54,-63.33"/>
<text text-anchor="middle" x="202" y="-41" font-family="Helvetica,sans-Serif" font-size="10.00"> definition_</text>
</g>
</g>
</svg>
