<?xml version="1.0" encoding="UTF-8" standalone="no"?>
<!DOCTYPE svg PUBLIC "-//W3C//DTD SVG 1.1//EN"
 "http://www.w3.org/Graphics/SVG/1.1/DTD/svg11.dtd">
<!-- Generated by graphviz version 7.0.6 (20230106.0513)
 -->
<!-- Title: hgps::MarketingPolicyScenario::apply Pages: 1 -->
<svg width="297pt" height="76pt"
 viewBox="0.00 0.00 297.00 75.50" xmlns="http://www.w3.org/2000/svg" xmlns:xlink="http://www.w3.org/1999/xlink">
<g id="graph0" class="graph" transform="scale(1 1) rotate(0) translate(4 71.5)">
<title>hgps::MarketingPolicyScenario::apply</title>
<!-- Node1 -->
<g id="node1" class="node">
<title>Node1</title>
<g id="a_node1"><a xlink:title=" ">
<polygon fill="#999999" stroke="#666666" points="152,-45.5 0,-45.5 0,-15.5 152,-15.5 152,-45.5"/>
<text text-anchor="start" x="8" y="-33.5" font-family="Helvetica,sans-Serif" font-size="10.00">hgps::MarketingPolicyScenario</text>
<text text-anchor="middle" x="76" y="-22.5" font-family="Helvetica,sans-Serif" font-size="10.00">::apply</text>
</a>
</g>
</g>
<!-- Node2 -->
<g id="node2" class="node">
<title>Node2</title>
<g id="a_node2"><a xlink:href="structhgps_1_1_policy_interval.html#a920ea4c319e42738ede74c2c5fd3f307" target="_top" xlink:title=" ">
<polygon fill="white" stroke="#666666" points="289,-67.5 188,-67.5 188,-37.5 289,-37.5 289,-67.5"/>
<text text-anchor="start" x="196" y="-55.5" font-family="Helvetica,sans-Serif" font-size="10.00">hgps::PolicyInterval</text>
<text text-anchor="middle" x="238.5" y="-44.5" font-family="Helvetica,sans-Serif" font-size="10.00">::contains</text>
</a>
</g>
</g>
<!-- Node1&#45;&gt;Node2 -->
<g id="edge1" class="edge">
<title>Node1&#45;&gt;Node2</title>
<path fill="none" stroke="#63b8ff" d="M152.08,-40.79C160.19,-41.9 168.38,-43.03 176.3,-44.11"/>
<polygon fill="#63b8ff" stroke="#63b8ff" points="175.79,-47.57 186.18,-45.46 176.74,-40.64 175.79,-47.57"/>
</g>
<!-- Node3 -->
<g id="node3" class="node">
<title>Node3</title>
<g id="a_node3"><a xlink:href="structhgps_1_1_person.html#a55a222e5e970c4fb8646079effbb279a" target="_top" xlink:title=" ">
<polygon fill="white" stroke="#666666" points="282.5,-19 194.5,-19 194.5,0 282.5,0 282.5,-19"/>
<text text-anchor="middle" x="238.5" y="-7" font-family="Helvetica,sans-Serif" font-size="10.00">hgps::Person::id</text>
</a>
</g>
</g>
<!-- Node1&#45;&gt;Node3 -->
<g id="edge2" class="edge">
<title>Node1&#45;&gt;Node3</title>
<path fill="none" stroke="#63b8ff" d="M152.08,-20.68C162.52,-19.31 173.07,-17.93 183.04,-16.63"/>
<polygon fill="#63b8ff" stroke="#63b8ff" points="183.45,-20.1 192.91,-15.33 182.54,-13.16 183.45,-20.1"/>
</g>
</g>
</svg>
