<?xml version="1.0" encoding="UTF-8" standalone="no"?>
<!DOCTYPE svg PUBLIC "-//W3C//DTD SVG 1.1//EN"
 "http://www.w3.org/Graphics/SVG/1.1/DTD/svg11.dtd">
<!-- Generated by graphviz version 2.43.0 (0)
 -->
<!-- Title: hgps::HealthGPS::fini Pages: 1 -->
<svg width="477pt" height="176pt"
 viewBox="0.00 0.00 477.00 176.00" xmlns="http://www.w3.org/2000/svg" xmlns:xlink="http://www.w3.org/1999/xlink">
<g id="graph0" class="graph" transform="scale(1 1) rotate(0) translate(4 172)">
<title>hgps::HealthGPS::fini</title>
<!-- Node1 -->
<g id="node1" class="node">
<title>Node1</title>
<g id="a_node1"><a xlink:title=" ">
<polygon fill="#bfbfbf" stroke="black" points="0,-77 0,-96 119,-96 119,-77 0,-77"/>
<text text-anchor="middle" x="59.5" y="-84" font-family="Helvetica,sans-Serif" font-size="10.00">hgps::HealthGPS::fini</text>
</a>
</g>
</g>
<!-- Node2 -->
<g id="node2" class="node">
<title>Node2</title>
<g id="a_node2"><a xlink:href="classhgps_1_1RuntimeContext.html#a1a283e5db3f10c4296241cc957122c87" target="_top" xlink:title=" ">
<polygon fill="none" stroke="black" points="158.5,-137.5 158.5,-167.5 283.5,-167.5 283.5,-137.5 158.5,-137.5"/>
<text text-anchor="start" x="166.5" y="-155.5" font-family="Helvetica,sans-Serif" font-size="10.00">hgps::RuntimeContext</text>
<text text-anchor="middle" x="221" y="-144.5" font-family="Helvetica,sans-Serif" font-size="10.00">::current_run</text>
</a>
</g>
</g>
<!-- Node1&#45;&gt;Node2 -->
<g id="edge1" class="edge">
<title>Node1&#45;&gt;Node2</title>
<path fill="none" stroke="midnightblue" d="M81.78,-96.04C100.87,-104.52 129.67,-117.14 155,-127.5 160.04,-129.56 165.31,-131.67 170.58,-133.74"/>
<polygon fill="midnightblue" stroke="midnightblue" points="169.43,-137.05 180.02,-137.43 171.98,-130.53 169.43,-137.05"/>
</g>
<!-- Node3 -->
<g id="node3" class="node">
<title>Node3</title>
<g id="a_node3"><a xlink:href="classhgps_1_1Simulation.html#a405fa37a049c3a5e1ee9f16c8c8e2a80" target="_top" xlink:title=" ">
<polygon fill="none" stroke="black" points="155,-99 155,-118 287,-118 287,-99 155,-99"/>
<text text-anchor="middle" x="221" y="-106" font-family="Helvetica,sans-Serif" font-size="10.00">hgps::Simulation::name</text>
</a>
</g>
</g>
<!-- Node1&#45;&gt;Node3 -->
<g id="edge2" class="edge">
<title>Node1&#45;&gt;Node3</title>
<path fill="none" stroke="midnightblue" d="M119.44,-94.63C127.73,-95.77 136.35,-96.96 144.89,-98.14"/>
<polygon fill="midnightblue" stroke="midnightblue" points="144.48,-101.62 154.86,-99.52 145.43,-94.68 144.48,-101.62"/>
</g>
<!-- Node5 -->
<g id="node5" class="node">
<title>Node5</title>
<g id="a_node5"><a xlink:href="classhgps_1_1RuntimeContext.html#ac0b304648b1a5fa47ebf4dfe348cfaa7" target="_top" xlink:title=" ">
<polygon fill="none" stroke="black" points="158.5,-49.5 158.5,-79.5 283.5,-79.5 283.5,-49.5 158.5,-49.5"/>
<text text-anchor="start" x="166.5" y="-67.5" font-family="Helvetica,sans-Serif" font-size="10.00">hgps::RuntimeContext</text>
<text text-anchor="middle" x="221" y="-56.5" font-family="Helvetica,sans-Serif" font-size="10.00">::publish</text>
</a>
</g>
</g>
<!-- Node1&#45;&gt;Node5 -->
<g id="edge4" class="edge">
<title>Node1&#45;&gt;Node5</title>
<path fill="none" stroke="midnightblue" d="M119.44,-78.37C128.86,-77.07 138.69,-75.71 148.37,-74.38"/>
<polygon fill="midnightblue" stroke="midnightblue" points="148.94,-77.84 158.36,-73 147.98,-70.9 148.94,-77.84"/>
</g>
<!-- Node6 -->
<g id="node6" class="node">
<title>Node6</title>
<g id="a_node6"><a xlink:href="classhgps_1_1RuntimeContext.html#a5eb9de9f095d934ababb9119d506b781" target="_top" xlink:title=" ">
<polygon fill="none" stroke="black" points="158.5,-0.5 158.5,-30.5 283.5,-30.5 283.5,-0.5 158.5,-0.5"/>
<text text-anchor="start" x="166.5" y="-18.5" font-family="Helvetica,sans-Serif" font-size="10.00">hgps::RuntimeContext</text>
<text text-anchor="middle" x="221" y="-7.5" font-family="Helvetica,sans-Serif" font-size="10.00">::time_now</text>
</a>
</g>
</g>
<!-- Node1&#45;&gt;Node6 -->
<g id="edge5" class="edge">
<title>Node1&#45;&gt;Node6</title>
<path fill="none" stroke="midnightblue" d="M79.11,-76.86C98.01,-67.2 128.23,-52.14 155,-40.5 159.73,-38.44 164.69,-36.38 169.67,-34.36"/>
<polygon fill="midnightblue" stroke="midnightblue" points="171.21,-37.52 179.21,-30.57 168.63,-31.01 171.21,-37.52"/>
</g>
<!-- Node4 -->
<g id="node4" class="node">
<title>Node4</title>
<g id="a_node4"><a xlink:href="structhgps_1_1SimulationDefinition.html#af3cfaccd2244487a2002ae4fd2f0fdf7" target="_top" xlink:title=" ">
<polygon fill="none" stroke="black" points="323,-93.5 323,-123.5 469,-123.5 469,-93.5 323,-93.5"/>
<text text-anchor="start" x="331" y="-111.5" font-family="Helvetica,sans-Serif" font-size="10.00">hgps::SimulationDefinition</text>
<text text-anchor="middle" x="396" y="-100.5" font-family="Helvetica,sans-Serif" font-size="10.00">::identifier</text>
</a>
</g>
</g>
<!-- Node3&#45;&gt;Node4 -->
<g id="edge3" class="edge">
<title>Node3&#45;&gt;Node4</title>
<path fill="none" stroke="midnightblue" d="M287.4,-108.5C295.64,-108.5 304.14,-108.5 312.59,-108.5"/>
<polygon fill="midnightblue" stroke="midnightblue" points="312.85,-112 322.85,-108.5 312.85,-105 312.85,-112"/>
</g>
</g>
</svg>
