<?xml version="1.0" encoding="UTF-8" standalone="no"?>
<!DOCTYPE svg PUBLIC "-//W3C//DTD SVG 1.1//EN"
 "http://www.w3.org/Graphics/SVG/1.1/DTD/svg11.dtd">
<!-- Generated by graphviz version 2.43.0 (0)
 -->
<!-- Title: hgps::PopulationModule::update_population Pages: 1 -->
<svg width="326pt" height="323pt"
 viewBox="0.00 0.00 326.00 323.00" xmlns="http://www.w3.org/2000/svg" xmlns:xlink="http://www.w3.org/1999/xlink">
<g id="graph0" class="graph" transform="scale(1 1) rotate(0) translate(4 319)">
<title>hgps::PopulationModule::update_population</title>
<!-- Node1 -->
<g id="node1" class="node">
<title>Node1</title>
<g id="a_node1"><a xlink:title="Updates the virtual population status.">
<polygon fill="#bfbfbf" stroke="black" points="0,-137.5 0,-167.5 134,-167.5 134,-137.5 0,-137.5"/>
<text text-anchor="start" x="8" y="-155.5" font-family="Helvetica,sans-Serif" font-size="10.00">hgps::PopulationModule</text>
<text text-anchor="middle" x="67" y="-144.5" font-family="Helvetica,sans-Serif" font-size="10.00">::update_population</text>
</a>
</g>
</g>
<!-- Node2 -->
<g id="node2" class="node">
<title>Node2</title>
<g id="a_node2"><a xlink:href="classhgps_1_1Population.html#ace8256fba4946bcc0555474d7687d429" target="_top" xlink:title=" ">
<polygon fill="none" stroke="black" points="183,-284.5 183,-314.5 305,-314.5 305,-284.5 183,-284.5"/>
<text text-anchor="start" x="191" y="-302.5" font-family="Helvetica,sans-Serif" font-size="10.00">hgps::Population::add</text>
<text text-anchor="middle" x="244" y="-291.5" font-family="Helvetica,sans-Serif" font-size="10.00">_newborn_babies</text>
</a>
</g>
</g>
<!-- Node1&#45;&gt;Node2 -->
<g id="edge1" class="edge">
<title>Node1&#45;&gt;Node2</title>
<path fill="none" stroke="midnightblue" d="M76.64,-167.71C92.09,-193.57 126.9,-246.14 170,-275.5 172.25,-277.03 174.6,-278.47 177.03,-279.82"/>
<polygon fill="midnightblue" stroke="midnightblue" points="175.58,-283.01 186.09,-284.35 178.71,-276.75 175.58,-283.01"/>
</g>
<!-- Node3 -->
<g id="node3" class="node">
<title>Node3</title>
<g id="a_node3"><a xlink:href="classhgps_1_1Population.html#a67406e28d8144d8d4bbf3ec9e3cae573" target="_top" xlink:title=" ">
<polygon fill="none" stroke="black" points="175,-235.5 175,-265.5 313,-265.5 313,-235.5 175,-235.5"/>
<text text-anchor="start" x="183" y="-253.5" font-family="Helvetica,sans-Serif" font-size="10.00">hgps::Population::current</text>
<text text-anchor="middle" x="244" y="-242.5" font-family="Helvetica,sans-Serif" font-size="10.00">_active_size</text>
</a>
</g>
</g>
<!-- Node1&#45;&gt;Node3 -->
<g id="edge2" class="edge">
<title>Node1&#45;&gt;Node3</title>
<path fill="none" stroke="midnightblue" d="M85.32,-167.67C104.78,-184.08 137.86,-210.07 170,-226.5 173.51,-228.29 177.18,-229.99 180.93,-231.6"/>
<polygon fill="midnightblue" stroke="midnightblue" points="179.77,-234.9 190.36,-235.38 182.38,-228.41 179.77,-234.9"/>
</g>
<!-- Node4 -->
<g id="node4" class="node">
<title>Node4</title>
<g id="a_node4"><a xlink:href="classhgps_1_1PopulationModule.html#a3bb8e9f20ef78774f88f9acbed832b3e" target="_top" xlink:title="Gets the total population at a specific point in time.">
<polygon fill="none" stroke="black" points="170,-186.5 170,-216.5 318,-216.5 318,-186.5 170,-186.5"/>
<text text-anchor="start" x="178" y="-204.5" font-family="Helvetica,sans-Serif" font-size="10.00">hgps::PopulationModule</text>
<text text-anchor="middle" x="244" y="-193.5" font-family="Helvetica,sans-Serif" font-size="10.00">::get_total_population_size</text>
</a>
</g>
</g>
<!-- Node1&#45;&gt;Node4 -->
<g id="edge3" class="edge">
<title>Node1&#45;&gt;Node4</title>
<path fill="none" stroke="midnightblue" d="M121.93,-167.6C140.15,-172.7 160.65,-178.44 179.54,-183.73"/>
<polygon fill="midnightblue" stroke="midnightblue" points="178.67,-187.12 189.24,-186.45 180.56,-180.38 178.67,-187.12"/>
</g>
<!-- Node5 -->
<g id="node5" class="node">
<title>Node5</title>
<g id="a_node5"><a xlink:href="classhgps_1_1RuntimeContext.html#a0e888d326a217dcf378f1cb29eecf3b0" target="_top" xlink:title=" ">
<polygon fill="none" stroke="black" points="181.5,-137.5 181.5,-167.5 306.5,-167.5 306.5,-137.5 181.5,-137.5"/>
<text text-anchor="start" x="189.5" y="-155.5" font-family="Helvetica,sans-Serif" font-size="10.00">hgps::RuntimeContext</text>
<text text-anchor="middle" x="244" y="-144.5" font-family="Helvetica,sans-Serif" font-size="10.00">::metrics</text>
</a>
</g>
</g>
<!-- Node1&#45;&gt;Node5 -->
<g id="edge4" class="edge">
<title>Node1&#45;&gt;Node5</title>
<path fill="none" stroke="midnightblue" d="M134.16,-152.5C146.26,-152.5 158.94,-152.5 171.19,-152.5"/>
<polygon fill="midnightblue" stroke="midnightblue" points="171.36,-156 181.36,-152.5 171.36,-149 171.36,-156"/>
</g>
<!-- Node6 -->
<g id="node6" class="node">
<title>Node6</title>
<g id="a_node6"><a xlink:href="classhgps_1_1RuntimeContext.html#a346d7fdd33294a4836c708b1073df653" target="_top" xlink:title=" ">
<polygon fill="none" stroke="black" points="181.5,-88.5 181.5,-118.5 306.5,-118.5 306.5,-88.5 181.5,-88.5"/>
<text text-anchor="start" x="189.5" y="-106.5" font-family="Helvetica,sans-Serif" font-size="10.00">hgps::RuntimeContext</text>
<text text-anchor="middle" x="244" y="-95.5" font-family="Helvetica,sans-Serif" font-size="10.00">::population</text>
</a>
</g>
</g>
<!-- Node1&#45;&gt;Node6 -->
<g id="edge5" class="edge">
<title>Node1&#45;&gt;Node6</title>
<path fill="none" stroke="midnightblue" d="M121.93,-137.4C140.15,-132.3 160.65,-126.56 179.54,-121.27"/>
<polygon fill="midnightblue" stroke="midnightblue" points="180.56,-124.62 189.24,-118.55 178.67,-117.88 180.56,-124.62"/>
</g>
<!-- Node7 -->
<g id="node7" class="node">
<title>Node7</title>
<g id="a_node7"><a xlink:href="namespacehgps_1_1core.html#a46c52a5e953821a3c37786635acfd9b5" target="_top" xlink:title=" ">
<polygon fill="none" stroke="black" points="183,-50 183,-69 305,-69 305,-50 183,-50"/>
<text text-anchor="middle" x="244" y="-57" font-family="Helvetica,sans-Serif" font-size="10.00">hgps::core::run_async</text>
</a>
</g>
</g>
<!-- Node1&#45;&gt;Node7 -->
<g id="edge6" class="edge">
<title>Node1&#45;&gt;Node7</title>
<path fill="none" stroke="midnightblue" d="M85.2,-137.24C104.56,-120.81 137.56,-94.94 170,-79.5 175.84,-76.72 182.13,-74.27 188.49,-72.13"/>
<polygon fill="midnightblue" stroke="midnightblue" points="189.97,-75.33 198.47,-69 187.88,-68.65 189.97,-75.33"/>
</g>
<!-- Node8 -->
<g id="node8" class="node">
<title>Node8</title>
<g id="a_node8"><a xlink:href="classhgps_1_1RuntimeContext.html#a5eb9de9f095d934ababb9119d506b781" target="_top" xlink:title=" ">
<polygon fill="none" stroke="black" points="181.5,-0.5 181.5,-30.5 306.5,-30.5 306.5,-0.5 181.5,-0.5"/>
<text text-anchor="start" x="189.5" y="-18.5" font-family="Helvetica,sans-Serif" font-size="10.00">hgps::RuntimeContext</text>
<text text-anchor="middle" x="244" y="-7.5" font-family="Helvetica,sans-Serif" font-size="10.00">::time_now</text>
</a>
</g>
</g>
<!-- Node1&#45;&gt;Node8 -->
<g id="edge7" class="edge">
<title>Node1&#45;&gt;Node8</title>
<path fill="none" stroke="midnightblue" d="M78.07,-137.21C94.55,-113.3 129.55,-67.06 170,-40.5 173.09,-38.47 176.37,-36.58 179.75,-34.84"/>
<polygon fill="midnightblue" stroke="midnightblue" points="181.34,-37.96 188.91,-30.54 178.37,-31.62 181.34,-37.96"/>
</g>
</g>
</svg>
