<?xml version="1.0" encoding="UTF-8" standalone="no"?>
<!DOCTYPE svg PUBLIC "-//W3C//DTD SVG 1.1//EN"
 "http://www.w3.org/Graphics/SVG/1.1/DTD/svg11.dtd">
<!-- Generated by graphviz version 2.43.0 (0)
 -->
<!-- Title: hgps::Repository::get_lms_definition Pages: 1 -->
<svg width="550pt" height="88pt"
 viewBox="0.00 0.00 550.00 88.00" xmlns="http://www.w3.org/2000/svg" xmlns:xlink="http://www.w3.org/1999/xlink">
<g id="graph0" class="graph" transform="scale(1 1) rotate(0) translate(4 84)">
<title>hgps::Repository::get_lms_definition</title>
<!-- Node1 -->
<g id="node1" class="node">
<title>Node1</title>
<g id="a_node1"><a xlink:title="Gets the LMS (lambda&#45;mu&#45;sigma) definition.">
<polygon fill="#bfbfbf" stroke="black" points="423,-24.5 423,-54.5 542,-54.5 542,-24.5 423,-24.5"/>
<text text-anchor="start" x="431" y="-42.5" font-family="Helvetica,sans-Serif" font-size="10.00">hgps::Repository::get</text>
<text text-anchor="middle" x="482.5" y="-31.5" font-family="Helvetica,sans-Serif" font-size="10.00">_lms_definition</text>
</a>
</g>
</g>
<!-- Node2 -->
<g id="node2" class="node">
<title>Node2</title>
<g id="a_node2"><a xlink:href="namespacehgps.html#a00f39dc81f9c78a17b520811df508289" target="_top" xlink:title="Builds a new instance of the AnalysisModule using the given data infrastructure.">
<polygon fill="none" stroke="black" points="271,-49.5 271,-79.5 387,-79.5 387,-49.5 271,-49.5"/>
<text text-anchor="start" x="279" y="-67.5" font-family="Helvetica,sans-Serif" font-size="10.00">hgps::build_analysis</text>
<text text-anchor="middle" x="329" y="-56.5" font-family="Helvetica,sans-Serif" font-size="10.00">_module</text>
</a>
</g>
</g>
<!-- Node1&#45;&gt;Node2 -->
<g id="edge1" class="edge">
<title>Node1&#45;&gt;Node2</title>
<path fill="none" stroke="midnightblue" d="M412.98,-50.81C404.44,-52.22 395.77,-53.65 387.42,-55.02"/>
<polygon fill="midnightblue" stroke="midnightblue" points="413.63,-54.25 422.93,-49.17 412.49,-47.34 413.63,-54.25"/>
</g>
<!-- Node5 -->
<g id="node5" class="node">
<title>Node5</title>
<g id="a_node5"><a xlink:href="namespacehgps.html#a1dfc6cbd78a8f76582f05e63bcd8d3a6" target="_top" xlink:title="Builds a new instance of the DiseaseModule using the given data infrastructure.">
<polygon fill="none" stroke="black" points="272.5,-0.5 272.5,-30.5 385.5,-30.5 385.5,-0.5 272.5,-0.5"/>
<text text-anchor="start" x="280.5" y="-18.5" font-family="Helvetica,sans-Serif" font-size="10.00">hgps::build_disease</text>
<text text-anchor="middle" x="329" y="-7.5" font-family="Helvetica,sans-Serif" font-size="10.00">_module</text>
</a>
</g>
</g>
<!-- Node1&#45;&gt;Node5 -->
<g id="edge4" class="edge">
<title>Node1&#45;&gt;Node5</title>
<path fill="none" stroke="midnightblue" d="M412.84,-28.62C403.83,-27.2 394.69,-25.75 385.93,-24.36"/>
<polygon fill="midnightblue" stroke="midnightblue" points="412.5,-32.11 422.93,-30.22 413.6,-25.2 412.5,-32.11"/>
</g>
<!-- Node3 -->
<g id="node3" class="node">
<title>Node3</title>
<g id="a_node3"><a xlink:href="namespacehgps.html#aef8e3dcb57d8eabeb75baa00c53f6b98" target="_top" xlink:title="Create the default simulation modules factory for production usage.">
<polygon fill="none" stroke="black" points="77,-24.5 77,-54.5 235,-54.5 235,-24.5 77,-24.5"/>
<text text-anchor="start" x="85" y="-42.5" font-family="Helvetica,sans-Serif" font-size="10.00">hgps::get_default_simulation</text>
<text text-anchor="middle" x="156" y="-31.5" font-family="Helvetica,sans-Serif" font-size="10.00">_module_factory</text>
</a>
</g>
</g>
<!-- Node2&#45;&gt;Node3 -->
<g id="edge2" class="edge">
<title>Node2&#45;&gt;Node3</title>
<path fill="none" stroke="midnightblue" d="M260.58,-54.64C252.26,-53.43 243.7,-52.17 235.23,-50.94"/>
<polygon fill="midnightblue" stroke="midnightblue" points="260.18,-58.12 270.58,-56.11 261.2,-51.2 260.18,-58.12"/>
</g>
<!-- Node4 -->
<g id="node4" class="node">
<title>Node4</title>
<g id="a_node4"><a xlink:href="program_8cpp.html#a0ddf1224851353fc92bfbff6f499fa97" target="_top" xlink:title="Health&#45;GPS host application entry point.">
<polygon fill="none" stroke="black" points="0,-30 0,-49 41,-49 41,-30 0,-30"/>
<text text-anchor="middle" x="20.5" y="-37" font-family="Helvetica,sans-Serif" font-size="10.00">main</text>
</a>
</g>
</g>
<!-- Node3&#45;&gt;Node4 -->
<g id="edge3" class="edge">
<title>Node3&#45;&gt;Node4</title>
<path fill="none" stroke="midnightblue" d="M66.88,-39.5C57.39,-39.5 48.55,-39.5 41.24,-39.5"/>
<polygon fill="midnightblue" stroke="midnightblue" points="66.96,-43 76.96,-39.5 66.96,-36 66.96,-43"/>
</g>
<!-- Node5&#45;&gt;Node3 -->
<g id="edge5" class="edge">
<title>Node5&#45;&gt;Node3</title>
<path fill="none" stroke="midnightblue" d="M262.54,-24.69C253.61,-25.94 244.36,-27.24 235.23,-28.52"/>
<polygon fill="midnightblue" stroke="midnightblue" points="263.06,-28.15 272.48,-23.29 262.09,-21.22 263.06,-28.15"/>
</g>
</g>
</svg>
