<?xml version="1.0" encoding="UTF-8" standalone="no"?>
<!DOCTYPE svg PUBLIC "-//W3C//DTD SVG 1.1//EN"
 "http://www.w3.org/Graphics/SVG/1.1/DTD/svg11.dtd">
<!-- Generated by graphviz version 2.43.0 (0)
 -->
<!-- Title: hgps::core::DataTable::num_columns Pages: 1 -->
<svg width="694pt" height="105pt"
 viewBox="0.00 0.00 694.00 104.50" xmlns="http://www.w3.org/2000/svg" xmlns:xlink="http://www.w3.org/1999/xlink">
<g id="graph0" class="graph" transform="scale(1 1) rotate(0) translate(4 100.5)">
<title>hgps::core::DataTable::num_columns</title>
<!-- Node1 -->
<g id="node1" class="node">
<title>Node1</title>
<g id="a_node1"><a xlink:title=" ">
<polygon fill="#bfbfbf" stroke="black" points="564,-49.5 564,-79.5 686,-79.5 686,-49.5 564,-49.5"/>
<text text-anchor="start" x="572" y="-67.5" font-family="Helvetica,sans-Serif" font-size="10.00">hgps::core::DataTable</text>
<text text-anchor="middle" x="625" y="-56.5" font-family="Helvetica,sans-Serif" font-size="10.00">::num_columns</text>
</a>
</g>
</g>
<!-- Node2 -->
<g id="node2" class="node">
<title>Node2</title>
<g id="a_node2"><a xlink:href="classhgps_1_1core_1_1DataTable.html#ae022bf3052be4728cce521ca87a54865" target="_top" xlink:title=" ">
<polygon fill="none" stroke="black" points="224,-77 224,-96 370,-96 370,-77 224,-77"/>
<text text-anchor="middle" x="297" y="-84" font-family="Helvetica,sans-Serif" font-size="10.00">hgps::core::DataTable::add</text>
</a>
</g>
</g>
<!-- Node1&#45;&gt;Node2 -->
<g id="edge1" class="edge">
<title>Node1&#45;&gt;Node2</title>
<path fill="none" stroke="midnightblue" d="M566.28,-82.06C553.77,-85.16 540.54,-87.89 528,-89.5 475.42,-96.23 415.52,-95.18 370.04,-92.6"/>
<polygon fill="midnightblue" stroke="midnightblue" points="567.32,-85.41 576.13,-79.52 565.57,-78.63 567.32,-85.41"/>
</g>
<!-- Node5 -->
<g id="node5" class="node">
<title>Node5</title>
<g id="a_node5"><a xlink:href="classhgps_1_1core_1_1DataTable.html#aea4b85552bb60b81746a68bdcf95e059" target="_top" xlink:title=" ">
<polygon fill="none" stroke="black" points="406,-49.5 406,-79.5 528,-79.5 528,-49.5 406,-49.5"/>
<text text-anchor="start" x="414" y="-67.5" font-family="Helvetica,sans-Serif" font-size="10.00">hgps::core::DataTable</text>
<text text-anchor="middle" x="467" y="-56.5" font-family="Helvetica,sans-Serif" font-size="10.00">::column</text>
</a>
</g>
</g>
<!-- Node1&#45;&gt;Node5 -->
<g id="edge4" class="edge">
<title>Node1&#45;&gt;Node5</title>
<path fill="none" stroke="midnightblue" d="M553.46,-64.5C545.01,-64.5 536.44,-64.5 528.15,-64.5"/>
<polygon fill="midnightblue" stroke="midnightblue" points="553.69,-68 563.69,-64.5 553.69,-61 553.69,-68"/>
</g>
<!-- Node6 -->
<g id="node6" class="node">
<title>Node6</title>
<g id="a_node6"><a xlink:href="classhgps_1_1core_1_1DataTable.html#ab4a773277858efb48c2dcc9286a81f40" target="_top" xlink:title=" ">
<polygon fill="none" stroke="black" points="406,-0.5 406,-30.5 528,-30.5 528,-0.5 406,-0.5"/>
<text text-anchor="start" x="414" y="-18.5" font-family="Helvetica,sans-Serif" font-size="10.00">hgps::core::DataTable</text>
<text text-anchor="middle" x="467" y="-7.5" font-family="Helvetica,sans-Serif" font-size="10.00">::to_string</text>
</a>
</g>
</g>
<!-- Node1&#45;&gt;Node6 -->
<g id="edge6" class="edge">
<title>Node1&#45;&gt;Node6</title>
<path fill="none" stroke="midnightblue" d="M566.33,-46.39C549.75,-41.18 531.85,-35.55 515.92,-30.55"/>
<polygon fill="midnightblue" stroke="midnightblue" points="565.33,-49.74 575.92,-49.4 567.43,-43.06 565.33,-49.74"/>
</g>
<!-- Node3 -->
<g id="node3" class="node">
<title>Node3</title>
<g id="a_node3"><a xlink:href="csvparser_8cpp.html#aa36bf705a50d4f460573db11852ca40c" target="_top" xlink:title=" ">
<polygon fill="none" stroke="black" points="77,-77 77,-96 188,-96 188,-77 77,-77"/>
<text text-anchor="middle" x="132.5" y="-84" font-family="Helvetica,sans-Serif" font-size="10.00">load_datatable_csv</text>
</a>
</g>
</g>
<!-- Node2&#45;&gt;Node3 -->
<g id="edge2" class="edge">
<title>Node2&#45;&gt;Node3</title>
<path fill="none" stroke="midnightblue" d="M213.73,-86.5C205.15,-86.5 196.59,-86.5 188.43,-86.5"/>
<polygon fill="midnightblue" stroke="midnightblue" points="213.78,-90 223.78,-86.5 213.78,-83 213.78,-90"/>
</g>
<!-- Node4 -->
<g id="node4" class="node">
<title>Node4</title>
<g id="a_node4"><a xlink:href="program_8cpp.html#a0ddf1224851353fc92bfbff6f499fa97" target="_top" xlink:title=" ">
<polygon fill="none" stroke="black" points="0,-77 0,-96 41,-96 41,-77 0,-77"/>
<text text-anchor="middle" x="20.5" y="-84" font-family="Helvetica,sans-Serif" font-size="10.00">main</text>
</a>
</g>
</g>
<!-- Node3&#45;&gt;Node4 -->
<g id="edge3" class="edge">
<title>Node3&#45;&gt;Node4</title>
<path fill="none" stroke="midnightblue" d="M66.64,-86.5C57.35,-86.5 48.45,-86.5 41.05,-86.5"/>
<polygon fill="midnightblue" stroke="midnightblue" points="66.82,-90 76.82,-86.5 66.82,-83 66.82,-90"/>
</g>
<!-- Node5&#45;&gt;Node2 -->
<g id="edge5" class="edge">
<title>Node5&#45;&gt;Node2</title>
<path fill="none" stroke="midnightblue" d="M395.64,-73.71C387.19,-74.82 378.56,-75.95 370.09,-77.06"/>
<polygon fill="midnightblue" stroke="midnightblue" points="396.36,-77.15 405.82,-72.38 395.45,-70.21 396.36,-77.15"/>
</g>
<!-- Node7 -->
<g id="node7" class="node">
<title>Node7</title>
<g id="a_node7"><a xlink:href="datatable_8cpp.html#a5729aff4cd21f2767713c38c51bd3af4" target="_top" xlink:title=" ">
<polygon fill="none" stroke="black" points="260,-6 260,-25 334,-25 334,-6 260,-6"/>
<text text-anchor="middle" x="297" y="-13" font-family="Helvetica,sans-Serif" font-size="10.00">operator&lt;&lt;</text>
</a>
</g>
</g>
<!-- Node6&#45;&gt;Node7 -->
<g id="edge7" class="edge">
<title>Node6&#45;&gt;Node7</title>
<path fill="none" stroke="midnightblue" d="M395.59,-15.5C374.51,-15.5 352.25,-15.5 334.33,-15.5"/>
<polygon fill="midnightblue" stroke="midnightblue" points="395.82,-19 405.82,-15.5 395.82,-12 395.82,-19"/>
</g>
</g>
</svg>
