<?xml version="1.0" encoding="UTF-8" standalone="no"?>
<!DOCTYPE svg PUBLIC "-//W3C//DTD SVG 1.1//EN"
 "http://www.w3.org/Graphics/SVG/1.1/DTD/svg11.dtd">
<!-- Generated by graphviz version 2.43.0 (0)
 -->
<!-- Title: hgps::core::UnivariateSummary::variance Pages: 1 -->
<svg width="593pt" height="225pt"
 viewBox="0.00 0.00 593.00 225.00" xmlns="http://www.w3.org/2000/svg" xmlns:xlink="http://www.w3.org/1999/xlink">
<g id="graph0" class="graph" transform="scale(1 1) rotate(0) translate(4 221)">
<title>hgps::core::UnivariateSummary::variance</title>
<!-- Node1 -->
<g id="node1" class="node">
<title>Node1</title>
<g id="a_node1"><a xlink:title=" ">
<polygon fill="#bfbfbf" stroke="black" points="414,-98.5 414,-128.5 585,-128.5 585,-98.5 414,-98.5"/>
<text text-anchor="start" x="422" y="-116.5" font-family="Helvetica,sans-Serif" font-size="10.00">hgps::core::UnivariateSummary</text>
<text text-anchor="middle" x="499.5" y="-105.5" font-family="Helvetica,sans-Serif" font-size="10.00">::variance</text>
</a>
</g>
</g>
<!-- Node2 -->
<g id="node2" class="node">
<title>Node2</title>
<g id="a_node2"><a xlink:href="classhgps_1_1core_1_1UnivariateSummary.html#a60b5e4a3172619b5880c222b7d9ad8ee" target="_top" xlink:title=" ">
<polygon fill="none" stroke="black" points="207,-186.5 207,-216.5 378,-216.5 378,-186.5 207,-186.5"/>
<text text-anchor="start" x="215" y="-204.5" font-family="Helvetica,sans-Serif" font-size="10.00">hgps::core::UnivariateSummary</text>
<text text-anchor="middle" x="292.5" y="-193.5" font-family="Helvetica,sans-Serif" font-size="10.00">::kurtosis</text>
</a>
</g>
</g>
<!-- Node1&#45;&gt;Node2 -->
<g id="edge1" class="edge">
<title>Node1&#45;&gt;Node2</title>
<path fill="none" stroke="midnightblue" d="M460.26,-133.2C436.81,-144.96 406,-159.83 378,-171.5 365.5,-176.71 351.74,-181.84 339.01,-186.35"/>
<polygon fill="midnightblue" stroke="midnightblue" points="461.84,-136.33 469.19,-128.7 458.69,-130.08 461.84,-136.33"/>
</g>
<!-- Node3 -->
<g id="node3" class="node">
<title>Node3</title>
<g id="a_node3"><a xlink:href="classhgps_1_1core_1_1UnivariateSummary.html#a6495055dfccf8ab34cb6ac87bf343772" target="_top" xlink:title=" ">
<polygon fill="none" stroke="black" points="0,-98.5 0,-128.5 171,-128.5 171,-98.5 0,-98.5"/>
<text text-anchor="start" x="8" y="-116.5" font-family="Helvetica,sans-Serif" font-size="10.00">hgps::core::UnivariateSummary</text>
<text text-anchor="middle" x="85.5" y="-105.5" font-family="Helvetica,sans-Serif" font-size="10.00">::to_string</text>
</a>
</g>
</g>
<!-- Node1&#45;&gt;Node3 -->
<g id="edge9" class="edge">
<title>Node1&#45;&gt;Node3</title>
<path fill="none" stroke="midnightblue" d="M428.16,-130.61C411.79,-133.89 394.37,-136.82 378,-138.5 302.4,-146.26 282.6,-146.26 207,-138.5 187.23,-136.47 165.93,-132.62 146.81,-128.53"/>
<polygon fill="midnightblue" stroke="midnightblue" points="429.11,-133.99 438.19,-128.53 427.69,-127.13 429.11,-133.99"/>
</g>
<!-- Node4 -->
<g id="node4" class="node">
<title>Node4</title>
<g id="a_node4"><a xlink:href="classhgps_1_1core_1_1UnivariateSummary.html#a39a6327c4a6b555454a41c233eb90242" target="_top" xlink:title=" ">
<polygon fill="none" stroke="black" points="207,-98.5 207,-128.5 378,-128.5 378,-98.5 207,-98.5"/>
<text text-anchor="start" x="215" y="-116.5" font-family="Helvetica,sans-Serif" font-size="10.00">hgps::core::UnivariateSummary</text>
<text text-anchor="middle" x="292.5" y="-105.5" font-family="Helvetica,sans-Serif" font-size="10.00">::skewness</text>
</a>
</g>
</g>
<!-- Node1&#45;&gt;Node4 -->
<g id="edge3" class="edge">
<title>Node1&#45;&gt;Node4</title>
<path fill="none" stroke="midnightblue" d="M403.91,-113.5C395.34,-113.5 386.69,-113.5 378.2,-113.5"/>
<polygon fill="midnightblue" stroke="midnightblue" points="403.94,-117 413.94,-113.5 403.94,-110 403.94,-117"/>
</g>
<!-- Node5 -->
<g id="node5" class="node">
<title>Node5</title>
<g id="a_node5"><a xlink:href="classhgps_1_1core_1_1UnivariateSummary.html#a3d021888aae889b79fb9c9123f8b1d69" target="_top" xlink:title=" ">
<polygon fill="none" stroke="black" points="207,-49.5 207,-79.5 378,-79.5 378,-49.5 207,-49.5"/>
<text text-anchor="start" x="215" y="-67.5" font-family="Helvetica,sans-Serif" font-size="10.00">hgps::core::UnivariateSummary</text>
<text text-anchor="middle" x="292.5" y="-56.5" font-family="Helvetica,sans-Serif" font-size="10.00">::std_deviation</text>
</a>
</g>
</g>
<!-- Node1&#45;&gt;Node5 -->
<g id="edge5" class="edge">
<title>Node1&#45;&gt;Node5</title>
<path fill="none" stroke="midnightblue" d="M425.69,-96.1C403.01,-90.68 378.21,-84.75 356.28,-79.51"/>
<polygon fill="midnightblue" stroke="midnightblue" points="425.06,-99.54 435.6,-98.47 426.69,-92.74 425.06,-99.54"/>
</g>
<!-- Node6 -->
<g id="node6" class="node">
<title>Node6</title>
<g id="a_node6"><a xlink:href="classhgps_1_1core_1_1UnivariateSummary.html#aa22f4d3eebe7a220290ae53521081599" target="_top" xlink:title=" ">
<polygon fill="none" stroke="black" points="207,-0.5 207,-30.5 378,-30.5 378,-0.5 207,-0.5"/>
<text text-anchor="start" x="215" y="-18.5" font-family="Helvetica,sans-Serif" font-size="10.00">hgps::core::UnivariateSummary</text>
<text text-anchor="middle" x="292.5" y="-7.5" font-family="Helvetica,sans-Serif" font-size="10.00">::std_error</text>
</a>
</g>
</g>
<!-- Node1&#45;&gt;Node6 -->
<g id="edge7" class="edge">
<title>Node1&#45;&gt;Node6</title>
<path fill="none" stroke="midnightblue" d="M468.68,-92.45C444.99,-76.48 410.53,-54.88 378,-40.5 369.74,-36.85 360.81,-33.56 351.94,-30.65"/>
<polygon fill="midnightblue" stroke="midnightblue" points="466.98,-95.53 477.21,-98.28 470.93,-89.75 466.98,-95.53"/>
</g>
<!-- Node2&#45;&gt;Node3 -->
<g id="edge2" class="edge">
<title>Node2&#45;&gt;Node3</title>
<path fill="none" stroke="midnightblue" d="M236.29,-182.86C226.46,-179.27 216.38,-175.41 207,-171.5 175.28,-158.28 139.96,-140.96 115.81,-128.7"/>
<polygon fill="midnightblue" stroke="midnightblue" points="235.39,-186.26 245.99,-186.35 237.76,-179.67 235.39,-186.26"/>
</g>
<!-- Node4&#45;&gt;Node3 -->
<g id="edge4" class="edge">
<title>Node4&#45;&gt;Node3</title>
<path fill="none" stroke="midnightblue" d="M196.91,-113.5C188.34,-113.5 179.69,-113.5 171.2,-113.5"/>
<polygon fill="midnightblue" stroke="midnightblue" points="196.94,-117 206.94,-113.5 196.94,-110 196.94,-117"/>
</g>
<!-- Node5&#45;&gt;Node3 -->
<g id="edge6" class="edge">
<title>Node5&#45;&gt;Node3</title>
<path fill="none" stroke="midnightblue" d="M218.69,-81.9C196.01,-87.32 171.21,-93.25 149.28,-98.49"/>
<polygon fill="midnightblue" stroke="midnightblue" points="219.69,-85.26 228.6,-79.53 218.06,-78.46 219.69,-85.26"/>
</g>
<!-- Node6&#45;&gt;Node3 -->
<g id="edge8" class="edge">
<title>Node6&#45;&gt;Node3</title>
<path fill="none" stroke="midnightblue" d="M223.51,-33.93C217.86,-35.97 212.29,-38.16 207,-40.5 170.31,-56.72 131.18,-82.11 107.79,-98.28"/>
<polygon fill="midnightblue" stroke="midnightblue" points="224.74,-37.21 233.06,-30.65 222.47,-30.59 224.74,-37.21"/>
</g>
</g>
</svg>
