<?xml version="1.0" encoding="UTF-8" standalone="no"?>
<!DOCTYPE svg PUBLIC "-//W3C//DTD SVG 1.1//EN"
 "http://www.w3.org/Graphics/SVG/1.1/DTD/svg11.dtd">
<!-- Generated by graphviz version 2.43.0 (0)
 -->
<!-- Title: hgps::MappingEntry::name Pages: 1 -->
<svg width="344pt" height="116pt"
 viewBox="0.00 0.00 344.00 115.50" xmlns="http://www.w3.org/2000/svg" xmlns:xlink="http://www.w3.org/1999/xlink">
<g id="graph0" class="graph" transform="scale(1 1) rotate(0) translate(4 111.5)">
<title>hgps::MappingEntry::name</title>
<!-- Node1 -->
<g id="node1" class="node">
<title>Node1</title>
<g id="a_node1"><a xlink:title="Gets the factor name.">
<polygon fill="#bfbfbf" stroke="black" points="223,-33 223,-63 336,-63 336,-33 223,-33"/>
<text text-anchor="start" x="231" y="-51" font-family="Helvetica,sans-Serif" font-size="10.00">hgps::MappingEntry</text>
<text text-anchor="middle" x="279.5" y="-40" font-family="Helvetica,sans-Serif" font-size="10.00">::name</text>
</a>
</g>
</g>
<!-- Node2 -->
<g id="node2" class="node">
<title>Node2</title>
<g id="a_node2"><a xlink:href="namespacehost.html#a582511be039f0908f942b738900378bb" target="_top" xlink:title=" ">
<polygon fill="none" stroke="black" points="77,-77 77,-107 187,-107 187,-77 77,-77"/>
<text text-anchor="start" x="85" y="-95" font-family="Helvetica,sans-Serif" font-size="10.00">host::create_model</text>
<text text-anchor="middle" x="132" y="-84" font-family="Helvetica,sans-Serif" font-size="10.00">_input</text>
</a>
</g>
</g>
<!-- Node1&#45;&gt;Node2 -->
<g id="edge1" class="edge">
<title>Node1&#45;&gt;Node2</title>
<path fill="none" stroke="midnightblue" d="M218.93,-66.01C206.98,-69.63 194.53,-73.39 182.94,-76.9"/>
<polygon fill="midnightblue" stroke="midnightblue" points="220.28,-69.26 228.83,-63.02 218.25,-62.56 220.28,-69.26"/>
</g>
<!-- Node4 -->
<g id="node4" class="node">
<title>Node4</title>
<g id="a_node4"><a xlink:href="namespacehgps.html#a5c85bd56f021b531a95835e8c7287126" target="_top" xlink:title=" ">
<polygon fill="none" stroke="black" points="84.5,-38.5 84.5,-57.5 179.5,-57.5 179.5,-38.5 84.5,-38.5"/>
<text text-anchor="middle" x="132" y="-45.5" font-family="Helvetica,sans-Serif" font-size="10.00">hgps::operator&lt;</text>
</a>
</g>
</g>
<!-- Node1&#45;&gt;Node4 -->
<g id="edge3" class="edge">
<title>Node1&#45;&gt;Node4</title>
<path fill="none" stroke="midnightblue" d="M212.63,-48C201.6,-48 190.36,-48 179.94,-48"/>
<polygon fill="midnightblue" stroke="midnightblue" points="212.66,-51.5 222.66,-48 212.66,-44.5 212.66,-51.5"/>
</g>
<!-- Node5 -->
<g id="node5" class="node">
<title>Node5</title>
<g id="a_node5"><a xlink:href="namespacehgps.html#a29a13330f3ff2e03901be85a54d11aeb" target="_top" xlink:title=" ">
<polygon fill="none" stroke="black" points="84.5,-0.5 84.5,-19.5 179.5,-19.5 179.5,-0.5 84.5,-0.5"/>
<text text-anchor="middle" x="132" y="-7.5" font-family="Helvetica,sans-Serif" font-size="10.00">hgps::operator&gt;</text>
</a>
</g>
</g>
<!-- Node1&#45;&gt;Node5 -->
<g id="edge4" class="edge">
<title>Node1&#45;&gt;Node5</title>
<path fill="none" stroke="midnightblue" d="M212.96,-30.88C198.07,-26.99 182.76,-23 169.59,-19.56"/>
<polygon fill="midnightblue" stroke="midnightblue" points="212.1,-34.28 222.66,-33.42 213.87,-27.5 212.1,-34.28"/>
</g>
<!-- Node3 -->
<g id="node3" class="node">
<title>Node3</title>
<g id="a_node3"><a xlink:href="program_8cpp.html#a0ddf1224851353fc92bfbff6f499fa97" target="_top" xlink:title="Health&#45;GPS host application entry point.">
<polygon fill="none" stroke="black" points="0,-82.5 0,-101.5 41,-101.5 41,-82.5 0,-82.5"/>
<text text-anchor="middle" x="20.5" y="-89.5" font-family="Helvetica,sans-Serif" font-size="10.00">main</text>
</a>
</g>
</g>
<!-- Node2&#45;&gt;Node3 -->
<g id="edge2" class="edge">
<title>Node2&#45;&gt;Node3</title>
<path fill="none" stroke="midnightblue" d="M66.72,-92C57.43,-92 48.51,-92 41.09,-92"/>
<polygon fill="midnightblue" stroke="midnightblue" points="66.89,-95.5 76.89,-92 66.89,-88.5 66.89,-95.5"/>
</g>
</g>
</svg>
