<?xml version="1.0" encoding="UTF-8" standalone="no"?>
<!DOCTYPE svg PUBLIC "-//W3C//DTD SVG 1.1//EN"
 "http://www.w3.org/Graphics/SVG/1.1/DTD/svg11.dtd">
<!-- Generated by graphviz version 2.43.0 (0)
 -->
<!-- Title: hgps::core::UnivariateSummary::to_string Pages: 1 -->
<svg width="827pt" height="614pt"
 viewBox="0.00 0.00 827.00 613.50" xmlns="http://www.w3.org/2000/svg" xmlns:xlink="http://www.w3.org/1999/xlink">
<g id="graph0" class="graph" transform="scale(1 1) rotate(0) translate(4 609.5)">
<title>hgps::core::UnivariateSummary::to_string</title>
<!-- Node1 -->
<g id="node1" class="node">
<title>Node1</title>
<g id="a_node1"><a xlink:title=" ">
<polygon fill="#bfbfbf" stroke="black" points="0,-298 0,-328 171,-328 171,-298 0,-298"/>
<text text-anchor="start" x="8" y="-316" font-family="Helvetica,sans-Serif" font-size="10.00">hgps::core::UnivariateSummary</text>
<text text-anchor="middle" x="85.5" y="-305" font-family="Helvetica,sans-Serif" font-size="10.00">::to_string</text>
</a>
</g>
</g>
<!-- Node2 -->
<g id="node2" class="node">
<title>Node2</title>
<g id="a_node2"><a xlink:href="classhgps_1_1core_1_1UnivariateSummary.html#a482f522093e26eba6bf0170ab036307f" target="_top" xlink:title=" ">
<polygon fill="none" stroke="black" points="220.5,-575 220.5,-605 391.5,-605 391.5,-575 220.5,-575"/>
<text text-anchor="start" x="228.5" y="-593" font-family="Helvetica,sans-Serif" font-size="10.00">hgps::core::UnivariateSummary</text>
<text text-anchor="middle" x="306" y="-582" font-family="Helvetica,sans-Serif" font-size="10.00">::average</text>
</a>
</g>
</g>
<!-- Node1&#45;&gt;Node2 -->
<g id="edge1" class="edge">
<title>Node1&#45;&gt;Node2</title>
<path fill="none" stroke="midnightblue" d="M89.46,-328.06C98.69,-370.99 131,-495.07 207,-560 211.59,-563.92 216.69,-567.34 222.08,-570.3"/>
<polygon fill="midnightblue" stroke="midnightblue" points="220.87,-573.6 231.39,-574.88 223.96,-567.32 220.87,-573.6"/>
</g>
<!-- Node3 -->
<g id="node3" class="node">
<title>Node3</title>
<g id="a_node3"><a xlink:href="classhgps_1_1core_1_1UnivariateSummary.html#ad6666baff8ce41a1d743c62165c98ee2" target="_top" xlink:title=" ">
<polygon fill="none" stroke="black" points="441,-529 441,-559 612,-559 612,-529 441,-529"/>
<text text-anchor="start" x="449" y="-547" font-family="Helvetica,sans-Serif" font-size="10.00">hgps::core::UnivariateSummary</text>
<text text-anchor="middle" x="526.5" y="-536" font-family="Helvetica,sans-Serif" font-size="10.00">::count_null</text>
</a>
</g>
</g>
<!-- Node1&#45;&gt;Node3 -->
<g id="edge2" class="edge">
<title>Node1&#45;&gt;Node3</title>
<path fill="none" stroke="midnightblue" d="M89.74,-328.11C99.35,-368.72 131.84,-480.33 207,-527 277.03,-570.48 373.31,-569.14 441.63,-560.41"/>
<polygon fill="midnightblue" stroke="midnightblue" points="442.49,-563.82 451.92,-559.01 441.54,-556.89 442.49,-563.82"/>
</g>
<!-- Node4 -->
<g id="node4" class="node">
<title>Node4</title>
<g id="a_node4"><a xlink:href="classhgps_1_1core_1_1UnivariateSummary.html#a728329f04594446f26ab3c3cdab552ec" target="_top" xlink:title=" ">
<polygon fill="none" stroke="black" points="220.5,-487 220.5,-517 391.5,-517 391.5,-487 220.5,-487"/>
<text text-anchor="start" x="228.5" y="-505" font-family="Helvetica,sans-Serif" font-size="10.00">hgps::core::UnivariateSummary</text>
<text text-anchor="middle" x="306" y="-494" font-family="Helvetica,sans-Serif" font-size="10.00">::count_total</text>
</a>
</g>
</g>
<!-- Node1&#45;&gt;Node4 -->
<g id="edge3" class="edge">
<title>Node1&#45;&gt;Node4</title>
<path fill="none" stroke="midnightblue" d="M93.84,-328.22C109.86,-359.83 151.06,-432.93 207,-472 213.02,-476.2 219.64,-479.83 226.52,-482.96"/>
<polygon fill="midnightblue" stroke="midnightblue" points="225.44,-486.3 236.02,-486.92 228.14,-479.84 225.44,-486.3"/>
</g>
<!-- Node5 -->
<g id="node5" class="node">
<title>Node5</title>
<g id="a_node5"><a xlink:href="classhgps_1_1core_1_1UnivariateSummary.html#a0d9ff342a85afcc337e930c0f7487e05" target="_top" xlink:title=" ">
<polygon fill="none" stroke="black" points="648,-443 648,-473 819,-473 819,-443 648,-443"/>
<text text-anchor="start" x="656" y="-461" font-family="Helvetica,sans-Serif" font-size="10.00">hgps::core::UnivariateSummary</text>
<text text-anchor="middle" x="733.5" y="-450" font-family="Helvetica,sans-Serif" font-size="10.00">::count_valid</text>
</a>
</g>
</g>
<!-- Node1&#45;&gt;Node5 -->
<g id="edge6" class="edge">
<title>Node1&#45;&gt;Node5</title>
<path fill="none" stroke="midnightblue" d="M95.39,-328.23C112.71,-356.23 153.98,-415.2 207,-439 281.3,-472.35 507.29,-468.44 637.44,-463.01"/>
<polygon fill="midnightblue" stroke="midnightblue" points="637.95,-466.49 647.79,-462.57 637.65,-459.5 637.95,-466.49"/>
</g>
<!-- Node6 -->
<g id="node6" class="node">
<title>Node6</title>
<g id="a_node6"><a xlink:href="classhgps_1_1core_1_1UnivariateSummary.html#a60b5e4a3172619b5880c222b7d9ad8ee" target="_top" xlink:title=" ">
<polygon fill="none" stroke="black" points="220.5,-399 220.5,-429 391.5,-429 391.5,-399 220.5,-399"/>
<text text-anchor="start" x="228.5" y="-417" font-family="Helvetica,sans-Serif" font-size="10.00">hgps::core::UnivariateSummary</text>
<text text-anchor="middle" x="306" y="-406" font-family="Helvetica,sans-Serif" font-size="10.00">::kurtosis</text>
</a>
</g>
</g>
<!-- Node1&#45;&gt;Node6 -->
<g id="edge7" class="edge">
<title>Node1&#45;&gt;Node6</title>
<path fill="none" stroke="midnightblue" d="M108.75,-328.28C132.31,-343.93 171,-368.15 207,-384 216.85,-388.34 227.52,-392.3 238.06,-395.82"/>
<polygon fill="midnightblue" stroke="midnightblue" points="237.1,-399.19 247.69,-398.93 239.25,-392.53 237.1,-399.19"/>
</g>
<!-- Node7 -->
<g id="node7" class="node">
<title>Node7</title>
<g id="a_node7"><a xlink:href="classhgps_1_1core_1_1UnivariateSummary.html#a0be60fa3713183e9943d1e694b12a731" target="_top" xlink:title=" ">
<polygon fill="none" stroke="black" points="441,-246 441,-276 612,-276 612,-246 441,-246"/>
<text text-anchor="start" x="449" y="-264" font-family="Helvetica,sans-Serif" font-size="10.00">hgps::core::UnivariateSummary</text>
<text text-anchor="middle" x="526.5" y="-253" font-family="Helvetica,sans-Serif" font-size="10.00">::variance</text>
</a>
</g>
</g>
<!-- Node1&#45;&gt;Node7 -->
<g id="edge21" class="edge">
<title>Node1&#45;&gt;Node7</title>
<path fill="none" stroke="midnightblue" d="M125.08,-328.08C186.1,-349.63 307.89,-383.26 405,-351 444.9,-337.74 482.28,-305.56 504.52,-283.5"/>
<polygon fill="midnightblue" stroke="midnightblue" points="507.22,-285.75 511.74,-276.17 502.23,-280.84 507.22,-285.75"/>
</g>
<!-- Node8 -->
<g id="node8" class="node">
<title>Node8</title>
<g id="a_node8"><a xlink:href="classhgps_1_1core_1_1UnivariateSummary.html#a422a788556375204cd85f43542353e7c" target="_top" xlink:title=" ">
<polygon fill="none" stroke="black" points="207,-322.5 207,-341.5 405,-341.5 405,-322.5 207,-322.5"/>
<text text-anchor="middle" x="306" y="-329.5" font-family="Helvetica,sans-Serif" font-size="10.00">hgps::core::UnivariateSummary::max</text>
</a>
</g>
</g>
<!-- Node1&#45;&gt;Node8 -->
<g id="edge10" class="edge">
<title>Node1&#45;&gt;Node8</title>
<path fill="none" stroke="midnightblue" d="M171.29,-320.37C179.65,-321.1 188.22,-321.85 196.78,-322.59"/>
<polygon fill="midnightblue" stroke="midnightblue" points="196.54,-326.08 206.8,-323.46 197.14,-319.11 196.54,-326.08"/>
</g>
<!-- Node9 -->
<g id="node9" class="node">
<title>Node9</title>
<g id="a_node9"><a xlink:href="classhgps_1_1core_1_1UnivariateSummary.html#afa2b6434a0a6490fac3fd898fd39a460" target="_top" xlink:title=" ">
<polygon fill="none" stroke="black" points="208.5,-284.5 208.5,-303.5 403.5,-303.5 403.5,-284.5 208.5,-284.5"/>
<text text-anchor="middle" x="306" y="-291.5" font-family="Helvetica,sans-Serif" font-size="10.00">hgps::core::UnivariateSummary::min</text>
</a>
</g>
</g>
<!-- Node1&#45;&gt;Node9 -->
<g id="edge11" class="edge">
<title>Node1&#45;&gt;Node9</title>
<path fill="none" stroke="midnightblue" d="M171.29,-305.63C180.09,-304.86 189.12,-304.08 198.12,-303.29"/>
<polygon fill="midnightblue" stroke="midnightblue" points="198.61,-306.76 208.27,-302.41 198,-299.79 198.61,-306.76"/>
</g>
<!-- Node10 -->
<g id="node10" class="node">
<title>Node10</title>
<g id="a_node10"><a xlink:href="classhgps_1_1core_1_1UnivariateSummary.html#ac0be132b598f7e3054c3f3e78e6a4461" target="_top" xlink:title=" ">
<polygon fill="none" stroke="black" points="220.5,-235 220.5,-265 391.5,-265 391.5,-235 220.5,-235"/>
<text text-anchor="start" x="228.5" y="-253" font-family="Helvetica,sans-Serif" font-size="10.00">hgps::core::UnivariateSummary</text>
<text text-anchor="middle" x="306" y="-242" font-family="Helvetica,sans-Serif" font-size="10.00">::name</text>
</a>
</g>
</g>
<!-- Node1&#45;&gt;Node10 -->
<g id="edge12" class="edge">
<title>Node1&#45;&gt;Node10</title>
<path fill="none" stroke="midnightblue" d="M132.1,-297.96C154.56,-290.72 182.11,-282.09 207,-275 215.74,-272.51 224.96,-270 234.1,-267.59"/>
<polygon fill="midnightblue" stroke="midnightblue" points="235.17,-270.93 243.96,-265.01 233.4,-264.15 235.17,-270.93"/>
</g>
<!-- Node11 -->
<g id="node11" class="node">
<title>Node11</title>
<g id="a_node11"><a xlink:href="classhgps_1_1core_1_1UnivariateSummary.html#a4f128e8f9887dccd4d6d87752340cffc" target="_top" xlink:title=" ">
<polygon fill="none" stroke="black" points="220.5,-186 220.5,-216 391.5,-216 391.5,-186 220.5,-186"/>
<text text-anchor="start" x="228.5" y="-204" font-family="Helvetica,sans-Serif" font-size="10.00">hgps::core::UnivariateSummary</text>
<text text-anchor="middle" x="306" y="-193" font-family="Helvetica,sans-Serif" font-size="10.00">::range</text>
</a>
</g>
</g>
<!-- Node1&#45;&gt;Node11 -->
<g id="edge13" class="edge">
<title>Node1&#45;&gt;Node11</title>
<path fill="none" stroke="midnightblue" d="M103.15,-297.8C125.28,-278.38 166.33,-245.02 207,-226 212.25,-223.55 217.77,-221.31 223.41,-219.27"/>
<polygon fill="midnightblue" stroke="midnightblue" points="224.63,-222.55 232.98,-216.04 222.39,-215.92 224.63,-222.55"/>
</g>
<!-- Node12 -->
<g id="node12" class="node">
<title>Node12</title>
<g id="a_node12"><a xlink:href="classhgps_1_1core_1_1UnivariateSummary.html#a39a6327c4a6b555454a41c233eb90242" target="_top" xlink:title=" ">
<polygon fill="none" stroke="black" points="220.5,-137 220.5,-167 391.5,-167 391.5,-137 220.5,-137"/>
<text text-anchor="start" x="228.5" y="-155" font-family="Helvetica,sans-Serif" font-size="10.00">hgps::core::UnivariateSummary</text>
<text text-anchor="middle" x="306" y="-144" font-family="Helvetica,sans-Serif" font-size="10.00">::skewness</text>
</a>
</g>
</g>
<!-- Node1&#45;&gt;Node12 -->
<g id="edge14" class="edge">
<title>Node1&#45;&gt;Node12</title>
<path fill="none" stroke="midnightblue" d="M95.63,-297.66C113.37,-269.27 155.29,-208.54 207,-177 210.58,-174.81 214.35,-172.82 218.24,-171"/>
<polygon fill="midnightblue" stroke="midnightblue" points="219.67,-174.19 227.5,-167.05 216.93,-167.75 219.67,-174.19"/>
</g>
<!-- Node13 -->
<g id="node13" class="node">
<title>Node13</title>
<g id="a_node13"><a xlink:href="classhgps_1_1core_1_1UnivariateSummary.html#a3d021888aae889b79fb9c9123f8b1d69" target="_top" xlink:title=" ">
<polygon fill="none" stroke="black" points="220.5,-88 220.5,-118 391.5,-118 391.5,-88 220.5,-88"/>
<text text-anchor="start" x="228.5" y="-106" font-family="Helvetica,sans-Serif" font-size="10.00">hgps::core::UnivariateSummary</text>
<text text-anchor="middle" x="306" y="-95" font-family="Helvetica,sans-Serif" font-size="10.00">::std_deviation</text>
</a>
</g>
</g>
<!-- Node1&#45;&gt;Node13 -->
<g id="edge16" class="edge">
<title>Node1&#45;&gt;Node13</title>
<path fill="none" stroke="midnightblue" d="M91.92,-297.8C105.42,-262.21 144.06,-173.09 207,-128 209.71,-126.06 212.56,-124.27 215.51,-122.61"/>
<polygon fill="midnightblue" stroke="midnightblue" points="217.25,-125.66 224.64,-118.06 214.13,-119.39 217.25,-125.66"/>
</g>
<!-- Node14 -->
<g id="node14" class="node">
<title>Node14</title>
<g id="a_node14"><a xlink:href="classhgps_1_1core_1_1UnivariateSummary.html#aa22f4d3eebe7a220290ae53521081599" target="_top" xlink:title=" ">
<polygon fill="none" stroke="black" points="220.5,-39 220.5,-69 391.5,-69 391.5,-39 220.5,-39"/>
<text text-anchor="start" x="228.5" y="-57" font-family="Helvetica,sans-Serif" font-size="10.00">hgps::core::UnivariateSummary</text>
<text text-anchor="middle" x="306" y="-46" font-family="Helvetica,sans-Serif" font-size="10.00">::std_error</text>
</a>
</g>
</g>
<!-- Node1&#45;&gt;Node14 -->
<g id="edge18" class="edge">
<title>Node1&#45;&gt;Node14</title>
<path fill="none" stroke="midnightblue" d="M89.66,-297.85C99.23,-255.87 131.99,-137.26 207,-78 208.6,-76.74 210.25,-75.54 211.96,-74.41"/>
<polygon fill="midnightblue" stroke="midnightblue" points="213.96,-77.29 220.84,-69.23 210.44,-71.24 213.96,-77.29"/>
</g>
<!-- Node15 -->
<g id="node15" class="node">
<title>Node15</title>
<g id="a_node15"><a xlink:href="classhgps_1_1core_1_1UnivariateSummary.html#ac1bf1e5761dcf88f1b3c856722df9600" target="_top" xlink:title=" ">
<polygon fill="none" stroke="black" points="207.5,-0.5 207.5,-19.5 404.5,-19.5 404.5,-0.5 207.5,-0.5"/>
<text text-anchor="middle" x="306" y="-7.5" font-family="Helvetica,sans-Serif" font-size="10.00">hgps::core::UnivariateSummary::sum</text>
</a>
</g>
</g>
<!-- Node1&#45;&gt;Node15 -->
<g id="edge20" class="edge">
<title>Node1&#45;&gt;Node15</title>
<path fill="none" stroke="midnightblue" d="M88.05,-297.73C93.79,-249.72 118.33,-100.78 207,-29 208.86,-27.49 210.81,-26.09 212.82,-24.8"/>
<polygon fill="midnightblue" stroke="midnightblue" points="214.98,-27.6 222.06,-19.72 211.61,-21.47 214.98,-27.6"/>
</g>
<!-- Node4&#45;&gt;Node3 -->
<g id="edge4" class="edge">
<title>Node4&#45;&gt;Node3</title>
<path fill="none" stroke="midnightblue" d="M385.27,-517.04C402.16,-520.29 420.12,-523.74 437.36,-527.06"/>
<polygon fill="midnightblue" stroke="midnightblue" points="436.93,-530.54 447.41,-528.99 438.25,-523.67 436.93,-530.54"/>
</g>
<!-- Node4&#45;&gt;Node5 -->
<g id="edge5" class="edge">
<title>Node4&#45;&gt;Node5</title>
<path fill="none" stroke="midnightblue" d="M391.52,-494.09C452.76,-488.26 537.54,-479.99 612,-472 620.35,-471.1 629.03,-470.15 637.72,-469.17"/>
<polygon fill="midnightblue" stroke="midnightblue" points="638.38,-472.62 647.92,-468.02 637.59,-465.66 638.38,-472.62"/>
</g>
<!-- Node6&#45;&gt;Node7 -->
<g id="edge8" class="edge">
<title>Node6&#45;&gt;Node7</title>
<path fill="none" stroke="midnightblue" d="M372.49,-398.95C383.76,-394.98 395.04,-390.06 405,-384 448.33,-357.65 487.15,-312.21 508.41,-284.55"/>
<polygon fill="midnightblue" stroke="midnightblue" points="511.45,-286.33 514.67,-276.24 505.86,-282.12 511.45,-286.33"/>
</g>
<!-- Node7&#45;&gt;Node5 -->
<g id="edge9" class="edge">
<title>Node7&#45;&gt;Node5</title>
<path fill="none" stroke="midnightblue" d="M543.25,-276.13C579.17,-310.65 667.31,-395.36 709.4,-435.8"/>
<polygon fill="midnightblue" stroke="midnightblue" points="707.07,-438.41 716.7,-442.82 711.92,-433.36 707.07,-438.41"/>
</g>
<!-- Node12&#45;&gt;Node7 -->
<g id="edge15" class="edge">
<title>Node12&#45;&gt;Node7</title>
<path fill="none" stroke="midnightblue" d="M378.44,-167C387.55,-169.85 396.62,-173.16 405,-177 440.52,-193.26 476.68,-220.14 499.99,-239.1"/>
<polygon fill="midnightblue" stroke="midnightblue" points="498.04,-242.03 507.97,-245.7 502.49,-236.63 498.04,-242.03"/>
</g>
<!-- Node13&#45;&gt;Node7 -->
<g id="edge17" class="edge">
<title>Node13&#45;&gt;Node7</title>
<path fill="none" stroke="midnightblue" d="M384.2,-118.03C391.47,-120.81 398.53,-124.1 405,-128 451.2,-155.83 490.01,-206.83 510.31,-236.94"/>
<polygon fill="midnightblue" stroke="midnightblue" points="507.57,-239.15 516,-245.57 513.41,-235.3 507.57,-239.15"/>
</g>
<!-- Node14&#45;&gt;Node7 -->
<g id="edge19" class="edge">
<title>Node14&#45;&gt;Node7</title>
<path fill="none" stroke="midnightblue" d="M389.29,-69.1C394.83,-71.62 400.13,-74.57 405,-78 462.76,-118.75 500.16,-196.76 516.32,-236.47"/>
<polygon fill="midnightblue" stroke="midnightblue" points="513.13,-237.91 520.06,-245.92 519.64,-235.33 513.13,-237.91"/>
</g>
</g>
</svg>
