<?xml version="1.0" encoding="UTF-8" standalone="no"?>
<!DOCTYPE svg PUBLIC "-//W3C//DTD SVG 1.1//EN"
 "http://www.w3.org/Graphics/SVG/1.1/DTD/svg11.dtd">
<!-- Generated by graphviz version 7.0.6 (20230106.0513)
 -->
<!-- Title: hgps::DynamicInterventionScenario Pages: 1 -->
<svg width="139pt" height="148pt"
 viewBox="0.00 0.00 139.00 148.00" xmlns="http://www.w3.org/2000/svg" xmlns:xlink="http://www.w3.org/1999/xlink">
<g id="graph0" class="graph" transform="scale(1 1) rotate(0) translate(4 144)">
<title>hgps::DynamicInterventionScenario</title>
<!-- Node1 -->
<g id="node1" class="node">
<title>Node1</title>
<g id="a_node1"><a xlink:title="Health GPS dynamic intervention policy scenario interface.">
<polygon fill="#999999" stroke="#666666" points="131,-30 0,-30 0,0 131,0 131,-30"/>
<text text-anchor="start" x="8" y="-18" font-family="Helvetica,sans-Serif" font-size="10.00">hgps::DynamicIntervention</text>
<text text-anchor="middle" x="65.5" y="-7" font-family="Helvetica,sans-Serif" font-size="10.00">Scenario</text>
</a>
</g>
</g>
<!-- Node2 -->
<g id="node2" class="node">
<title>Node2</title>
<g id="a_node2"><a xlink:href="classhgps_1_1_intervention_scenario.html" target="_top" xlink:title="Health GPS scripted intervention policy scenario interface.">
<polygon fill="white" stroke="#666666" points="131,-85 0,-85 0,-66 131,-66 131,-85"/>
<text text-anchor="middle" x="65.5" y="-73" font-family="Helvetica,sans-Serif" font-size="10.00">hgps::InterventionScenario</text>
</a>
</g>
</g>
<!-- Node2&#45;&gt;Node1 -->
<g id="edge1" class="edge">
<title>Node2&#45;&gt;Node1</title>
<path fill="none" stroke="#63b8ff" d="M65.5,-54.51C65.5,-46.49 65.5,-37.43 65.5,-30.11"/>
<polygon fill="#63b8ff" stroke="#63b8ff" points="62,-54.35 65.5,-64.35 69,-54.35 62,-54.35"/>
</g>
<!-- Node3 -->
<g id="node3" class="node">
<title>Node3</title>
<g id="a_node3"><a xlink:href="classhgps_1_1_scenario.html" target="_top" xlink:title="Health GPS simulation scenario interface.">
<polygon fill="white" stroke="#666666" points="106.5,-140 24.5,-140 24.5,-121 106.5,-121 106.5,-140"/>
<text text-anchor="middle" x="65.5" y="-128" font-family="Helvetica,sans-Serif" font-size="10.00">hgps::Scenario</text>
</a>
</g>
</g>
<!-- Node3&#45;&gt;Node2 -->
<g id="edge2" class="edge">
<title>Node3&#45;&gt;Node2</title>
<path fill="none" stroke="#63b8ff" d="M65.5,-109.35C65.5,-101.1 65.5,-91.97 65.5,-85.44"/>
<polygon fill="#63b8ff" stroke="#63b8ff" points="62,-109.23 65.5,-119.23 69,-109.23 62,-109.23"/>
</g>
</g>
</svg>
