<?xml version="1.0" encoding="UTF-8" standalone="no"?>
<!DOCTYPE svg PUBLIC "-//W3C//DTD SVG 1.1//EN"
 "http://www.w3.org/Graphics/SVG/1.1/DTD/svg11.dtd">
<!-- Generated by graphviz version 7.0.6 (20230106.0513)
 -->
<!-- Title: hgps::Random::next_double Pages: 1 -->
<svg width="311pt" height="278pt"
 viewBox="0.00 0.00 311.00 278.00" xmlns="http://www.w3.org/2000/svg" xmlns:xlink="http://www.w3.org/1999/xlink">
<g id="graph0" class="graph" transform="scale(1 1) rotate(0) translate(4 274)">
<title>hgps::Random::next_double</title>
<!-- Node1 -->
<g id="node1" class="node">
<title>Node1</title>
<g id="a_node1"><a xlink:title=" ">
<polygon fill="#999999" stroke="#666666" points="303,-150 199,-150 199,-120 303,-120 303,-150"/>
<text text-anchor="start" x="207" y="-138" font-family="Helvetica,sans-Serif" font-size="10.00">hgps::Random::next</text>
<text text-anchor="middle" x="251" y="-127" font-family="Helvetica,sans-Serif" font-size="10.00">_double</text>
</a>
</g>
</g>
<!-- Node2 -->
<g id="node2" class="node">
<title>Node2</title>
<g id="a_node2"><a xlink:href="classhgps_1_1_food_labelling_scenario.html#aa834940afe9a25e18be90b058767feff" target="_top" xlink:title=" ">
<polygon fill="white" stroke="#666666" points="152.5,-270 10.5,-270 10.5,-240 152.5,-240 152.5,-270"/>
<text text-anchor="start" x="18.5" y="-258" font-family="Helvetica,sans-Serif" font-size="10.00">hgps::FoodLabellingScenario</text>
<text text-anchor="middle" x="81.5" y="-247" font-family="Helvetica,sans-Serif" font-size="10.00">::apply</text>
</a>
</g>
</g>
<!-- Node1&#45;&gt;Node2 -->
<g id="edge1" class="edge">
<title>Node1&#45;&gt;Node2</title>
<path fill="none" stroke="#63b8ff" d="M233.64,-159.63C217.96,-181.4 192.38,-212.49 163,-231 157.82,-234.26 152.17,-237.1 146.35,-239.57"/>
<polygon fill="#63b8ff" stroke="#63b8ff" points="236.39,-161.8 239.26,-151.6 230.66,-157.79 236.39,-161.8"/>
</g>
<!-- Node3 -->
<g id="node3" class="node">
<title>Node3</title>
<g id="a_node3"><a xlink:href="classhgps_1_1_marketing_dynamic_scenario.html#a84574c7750050d6d3b1b0c91276df416" target="_top" xlink:title=" ">
<polygon fill="white" stroke="#666666" points="163,-222 0,-222 0,-192 163,-192 163,-222"/>
<text text-anchor="start" x="8" y="-210" font-family="Helvetica,sans-Serif" font-size="10.00">hgps::MarketingDynamicScenario</text>
<text text-anchor="middle" x="81.5" y="-199" font-family="Helvetica,sans-Serif" font-size="10.00">::apply</text>
</a>
</g>
</g>
<!-- Node1&#45;&gt;Node3 -->
<g id="edge2" class="edge">
<title>Node1&#45;&gt;Node3</title>
<path fill="none" stroke="#63b8ff" d="M215.8,-156.1C200.1,-165.19 181.01,-175.45 163,-183 155.6,-186.1 147.67,-188.98 139.77,-191.58"/>
<polygon fill="#63b8ff" stroke="#63b8ff" points="217.44,-159.19 224.28,-151.1 213.89,-153.16 217.44,-159.19"/>
</g>
<!-- Node4 -->
<g id="node4" class="node">
<title>Node4</title>
<g id="a_node4"><a xlink:href="classhgps_1_1_physical_activity_scenario.html#ac34bbccd8ce8326f998e897313898647" target="_top" xlink:title=" ">
<polygon fill="white" stroke="#666666" points="157,-174 6,-174 6,-144 157,-144 157,-174"/>
<text text-anchor="start" x="14" y="-162" font-family="Helvetica,sans-Serif" font-size="10.00">hgps::PhysicalActivityScenario</text>
<text text-anchor="middle" x="81.5" y="-151" font-family="Helvetica,sans-Serif" font-size="10.00">::apply</text>
</a>
</g>
</g>
<!-- Node1&#45;&gt;Node4 -->
<g id="edge3" class="edge">
<title>Node1&#45;&gt;Node4</title>
<path fill="none" stroke="#63b8ff" d="M187.53,-143.95C177.71,-145.36 167.47,-146.83 157.4,-148.27"/>
<polygon fill="#63b8ff" stroke="#63b8ff" points="187.93,-147.43 197.34,-142.55 186.94,-140.5 187.93,-147.43"/>
</g>
<!-- Node5 -->
<g id="node5" class="node">
<title>Node5</title>
<g id="a_node5"><a xlink:href="classhgps_1_1_default_cancer_model.html#a59790779c6af498fed3df81b168cd504" target="_top" xlink:title="Initialises the population disease status.">
<polygon fill="white" stroke="#666666" points="147,-126 16,-126 16,-96 147,-96 147,-126"/>
<text text-anchor="start" x="24" y="-114" font-family="Helvetica,sans-Serif" font-size="10.00">hgps::DefaultCancerModel</text>
<text text-anchor="middle" x="81.5" y="-103" font-family="Helvetica,sans-Serif" font-size="10.00">::initialise_disease_status</text>
</a>
</g>
</g>
<!-- Node1&#45;&gt;Node5 -->
<g id="edge4" class="edge">
<title>Node1&#45;&gt;Node5</title>
<path fill="none" stroke="#63b8ff" d="M187.52,-126.05C174.39,-124.17 160.5,-122.18 147.29,-120.28"/>
<polygon fill="#63b8ff" stroke="#63b8ff" points="186.94,-129.5 197.34,-127.45 187.93,-122.57 186.94,-129.5"/>
</g>
<!-- Node6 -->
<g id="node6" class="node">
<title>Node6</title>
<g id="a_node6"><a xlink:href="classhgps_1_1_default_disease_model.html#a2b8381459ae01f7ebf9b6023f1ad38db" target="_top" xlink:title="Initialises the population disease status.">
<polygon fill="white" stroke="#666666" points="149,-78 14,-78 14,-48 149,-48 149,-78"/>
<text text-anchor="start" x="22" y="-66" font-family="Helvetica,sans-Serif" font-size="10.00">hgps::DefaultDiseaseModel</text>
<text text-anchor="middle" x="81.5" y="-55" font-family="Helvetica,sans-Serif" font-size="10.00">::initialise_disease_status</text>
</a>
</g>
</g>
<!-- Node1&#45;&gt;Node6 -->
<g id="edge5" class="edge">
<title>Node1&#45;&gt;Node6</title>
<path fill="none" stroke="#63b8ff" d="M215.8,-113.9C200.1,-104.81 181.01,-94.55 163,-87 155.6,-83.9 147.67,-81.02 139.77,-78.42"/>
<polygon fill="#63b8ff" stroke="#63b8ff" points="213.89,-116.84 224.28,-118.9 217.44,-110.81 213.89,-116.84"/>
</g>
<!-- Node7 -->
<g id="node7" class="node">
<title>Node7</title>
<g id="a_node7"><a xlink:href="classhgps_1_1_random.html#ad27457392d0893a9f7f01efea5bc6478" target="_top" xlink:title=" ">
<polygon fill="white" stroke="#666666" points="133.5,-30 29.5,-30 29.5,0 133.5,0 133.5,-30"/>
<text text-anchor="start" x="37.5" y="-18" font-family="Helvetica,sans-Serif" font-size="10.00">hgps::Random::next</text>
<text text-anchor="middle" x="81.5" y="-7" font-family="Helvetica,sans-Serif" font-size="10.00">_empirical_discrete</text>
</a>
</g>
</g>
<!-- Node1&#45;&gt;Node7 -->
<g id="edge6" class="edge">
<title>Node1&#45;&gt;Node7</title>
<path fill="none" stroke="#63b8ff" d="M233.64,-110.37C217.96,-88.6 192.38,-57.51 163,-39 154.12,-33.4 143.86,-29.06 133.71,-25.7"/>
<polygon fill="#63b8ff" stroke="#63b8ff" points="230.66,-112.21 239.26,-118.4 236.39,-108.2 230.66,-112.21"/>
</g>
</g>
</svg>
