<?xml version="1.0" encoding="UTF-8" standalone="no"?>
<!DOCTYPE svg PUBLIC "-//W3C//DTD SVG 1.1//EN"
 "http://www.w3.org/Graphics/SVG/1.1/DTD/svg11.dtd">
<!-- Generated by graphviz version 7.0.6 (20230106.0513)
 -->
<!-- Title: hgps::DiseaseTable::DiseaseTable Pages: 1 -->
<svg width="250pt" height="86pt"
 viewBox="0.00 0.00 250.00 86.00" xmlns="http://www.w3.org/2000/svg" xmlns:xlink="http://www.w3.org/1999/xlink">
<g id="graph0" class="graph" transform="scale(1 1) rotate(0) translate(4 82)">
<title>hgps::DiseaseTable::DiseaseTable</title>
<!-- Node1 -->
<g id="node1" class="node">
<title>Node1</title>
<g id="a_node1"><a xlink:title=" ">
<polygon fill="#999999" stroke="#666666" points="102,-54 0,-54 0,-24 102,-24 102,-54"/>
<text text-anchor="start" x="8" y="-42" font-family="Helvetica,sans-Serif" font-size="10.00">hgps::DiseaseTable</text>
<text text-anchor="middle" x="51" y="-31" font-family="Helvetica,sans-Serif" font-size="10.00">::DiseaseTable</text>
</a>
</g>
</g>
<!-- Node2 -->
<g id="node2" class="node">
<title>Node2</title>
<g id="a_node2"><a xlink:href="classhgps_1_1_disease_table.html#a34d90b0514afb09a3584bac147e37fdb" target="_top" xlink:title=" ">
<polygon fill="white" stroke="#666666" points="241,-78 139,-78 139,-48 241,-48 241,-78"/>
<text text-anchor="start" x="147" y="-66" font-family="Helvetica,sans-Serif" font-size="10.00">hgps::DiseaseTable</text>
<text text-anchor="middle" x="190" y="-55" font-family="Helvetica,sans-Serif" font-size="10.00">::info</text>
</a>
</g>
</g>
<!-- Node1&#45;&gt;Node2 -->
<g id="edge1" class="edge">
<title>Node1&#45;&gt;Node2</title>
<path fill="none" stroke="#63b8ff" d="M102.24,-47.8C110.52,-49.25 119.19,-50.77 127.7,-52.26"/>
<polygon fill="#63b8ff" stroke="#63b8ff" points="126.83,-55.66 137.28,-53.94 128.03,-48.77 126.83,-55.66"/>
</g>
<!-- Node3 -->
<g id="node3" class="node">
<title>Node3</title>
<g id="a_node3"><a xlink:href="structhgps_1_1core_1_1_identifier.html#a12ec4bf7f0b4d13883ac7addb1f2a6a9" target="_top" xlink:title=" ">
<polygon fill="white" stroke="#666666" points="242,-30 138,-30 138,0 242,0 242,-30"/>
<text text-anchor="start" x="146" y="-18" font-family="Helvetica,sans-Serif" font-size="10.00">hgps::core::Identifier</text>
<text text-anchor="middle" x="190" y="-7" font-family="Helvetica,sans-Serif" font-size="10.00">::is_empty</text>
</a>
</g>
</g>
<!-- Node1&#45;&gt;Node3 -->
<g id="edge2" class="edge">
<title>Node1&#45;&gt;Node3</title>
<path fill="none" stroke="#63b8ff" d="M102.24,-30.2C110.22,-28.8 118.55,-27.34 126.77,-25.9"/>
<polygon fill="#63b8ff" stroke="#63b8ff" points="127.12,-29.39 136.36,-24.22 125.91,-22.5 127.12,-29.39"/>
</g>
</g>
</svg>
