<?xml version="1.0" encoding="UTF-8" standalone="no"?>
<!DOCTYPE svg PUBLIC "-//W3C//DTD SVG 1.1//EN"
 "http://www.w3.org/Graphics/SVG/1.1/DTD/svg11.dtd">
<!-- Generated by graphviz version 7.0.6 (20230106.0513)
 -->
<!-- Title: hgps::core::UnivariateSummary::count_total Pages: 1 -->
<svg width="348pt" height="86pt"
 viewBox="0.00 0.00 348.00 86.00" xmlns="http://www.w3.org/2000/svg" xmlns:xlink="http://www.w3.org/1999/xlink">
<g id="graph0" class="graph" transform="scale(1 1) rotate(0) translate(4 82)">
<title>hgps::core::UnivariateSummary::count_total</title>
<!-- Node1 -->
<g id="node1" class="node">
<title>Node1</title>
<g id="a_node1"><a xlink:title=" ">
<polygon fill="#999999" stroke="#666666" points="152,-54 0,-54 0,-24 152,-24 152,-54"/>
<text text-anchor="start" x="8" y="-42" font-family="Helvetica,sans-Serif" font-size="10.00">hgps::core::UnivariateSummary</text>
<text text-anchor="middle" x="76" y="-31" font-family="Helvetica,sans-Serif" font-size="10.00">::count_total</text>
</a>
</g>
</g>
<!-- Node2 -->
<g id="node2" class="node">
<title>Node2</title>
<g id="a_node2"><a xlink:href="classhgps_1_1core_1_1_univariate_summary.html#ad6666baff8ce41a1d743c62165c98ee2" target="_top" xlink:title=" ">
<polygon fill="white" stroke="#666666" points="340,-78 188,-78 188,-48 340,-48 340,-78"/>
<text text-anchor="start" x="196" y="-66" font-family="Helvetica,sans-Serif" font-size="10.00">hgps::core::UnivariateSummary</text>
<text text-anchor="middle" x="264" y="-55" font-family="Helvetica,sans-Serif" font-size="10.00">::count_null</text>
</a>
</g>
</g>
<!-- Node1&#45;&gt;Node2 -->
<g id="edge1" class="edge">
<title>Node1&#45;&gt;Node2</title>
<path fill="none" stroke="#63b8ff" d="M152.39,-48.73C160.26,-49.74 168.3,-50.78 176.29,-51.81"/>
<polygon fill="#63b8ff" stroke="#63b8ff" points="175.64,-55.26 186.01,-53.07 176.54,-48.31 175.64,-55.26"/>
</g>
<!-- Node3 -->
<g id="node3" class="node">
<title>Node3</title>
<g id="a_node3"><a xlink:href="classhgps_1_1core_1_1_univariate_summary.html#a0d9ff342a85afcc337e930c0f7487e05" target="_top" xlink:title=" ">
<polygon fill="white" stroke="#666666" points="340,-30 188,-30 188,0 340,0 340,-30"/>
<text text-anchor="start" x="196" y="-18" font-family="Helvetica,sans-Serif" font-size="10.00">hgps::core::UnivariateSummary</text>
<text text-anchor="middle" x="264" y="-7" font-family="Helvetica,sans-Serif" font-size="10.00">::count_valid</text>
</a>
</g>
</g>
<!-- Node1&#45;&gt;Node3 -->
<g id="edge2" class="edge">
<title>Node1&#45;&gt;Node3</title>
<path fill="none" stroke="#63b8ff" d="M152.39,-29.27C160.26,-28.26 168.3,-27.22 176.29,-26.19"/>
<polygon fill="#63b8ff" stroke="#63b8ff" points="176.54,-29.69 186.01,-24.93 175.64,-22.74 176.54,-29.69"/>
</g>
</g>
</svg>
