<?xml version="1.0" encoding="UTF-8" standalone="no"?>
<!DOCTYPE svg PUBLIC "-//W3C//DTD SVG 1.1//EN"
 "http://www.w3.org/Graphics/SVG/1.1/DTD/svg11.dtd">
<!-- Generated by graphviz version 7.0.6 (20230106.0513)
 -->
<!-- Title: hgps::RuntimeContext::current_run Pages: 1 -->
<svg width="285pt" height="101pt"
 viewBox="0.00 0.00 285.00 101.00" xmlns="http://www.w3.org/2000/svg" xmlns:xlink="http://www.w3.org/1999/xlink">
<g id="graph0" class="graph" transform="scale(1 1) rotate(0) translate(4 97)">
<title>hgps::RuntimeContext::current_run</title>
<!-- Node1 -->
<g id="node1" class="node">
<title>Node1</title>
<g id="a_node1"><a xlink:title=" ">
<polygon fill="#999999" stroke="#666666" points="277,-61.5 164,-61.5 164,-31.5 277,-31.5 277,-61.5"/>
<text text-anchor="start" x="172" y="-49.5" font-family="Helvetica,sans-Serif" font-size="10.00">hgps::RuntimeContext</text>
<text text-anchor="middle" x="220.5" y="-38.5" font-family="Helvetica,sans-Serif" font-size="10.00">::current_run</text>
</a>
</g>
</g>
<!-- Node2 -->
<g id="node2" class="node">
<title>Node2</title>
<g id="a_node2"><a xlink:href="classhgps_1_1_health_g_p_s.html#a5914cc38a777cdb4d694f52ba90bc054" target="_top" xlink:title=" ">
<polygon fill="white" stroke="#666666" points="119,-93 9,-93 9,-74 119,-74 119,-93"/>
<text text-anchor="middle" x="64" y="-81" font-family="Helvetica,sans-Serif" font-size="10.00">hgps::HealthGPS::fini</text>
</a>
</g>
</g>
<!-- Node1&#45;&gt;Node2 -->
<g id="edge1" class="edge">
<title>Node1&#45;&gt;Node2</title>
<path fill="none" stroke="#63b8ff" d="M152.96,-62.44C137.23,-66.2 120.89,-70.11 106.63,-73.53"/>
<polygon fill="#63b8ff" stroke="#63b8ff" points="153.34,-65.94 162.25,-60.21 151.71,-59.14 153.34,-65.94"/>
</g>
<!-- Node3 -->
<g id="node3" class="node">
<title>Node3</title>
<g id="a_node3"><a xlink:href="classhgps_1_1_health_g_p_s.html#a2c23ed4aa847824887750396e4f28637" target="_top" xlink:title=" ">
<polygon fill="white" stroke="#666666" points="119.5,-56 8.5,-56 8.5,-37 119.5,-37 119.5,-56"/>
<text text-anchor="middle" x="64" y="-44" font-family="Helvetica,sans-Serif" font-size="10.00">hgps::HealthGPS::init</text>
</a>
</g>
</g>
<!-- Node1&#45;&gt;Node3 -->
<g id="edge2" class="edge">
<title>Node1&#45;&gt;Node3</title>
<path fill="none" stroke="#63b8ff" d="M152.52,-46.5C141.63,-46.5 130.47,-46.5 119.92,-46.5"/>
<polygon fill="#63b8ff" stroke="#63b8ff" points="152.21,-50 162.21,-46.5 152.21,-43 152.21,-50"/>
</g>
<!-- Node4 -->
<g id="node4" class="node">
<title>Node4</title>
<g id="a_node4"><a xlink:href="classhgps_1_1_health_g_p_s.html#af36af9f5aacf623d283f72e9a7b2c411" target="_top" xlink:title=" ">
<polygon fill="white" stroke="#666666" points="128,-19 0,-19 0,0 128,0 128,-19"/>
<text text-anchor="middle" x="64" y="-7" font-family="Helvetica,sans-Serif" font-size="10.00">hgps::HealthGPS::update</text>
</a>
</g>
</g>
<!-- Node1&#45;&gt;Node4 -->
<g id="edge3" class="edge">
<title>Node1&#45;&gt;Node4</title>
<path fill="none" stroke="#63b8ff" d="M152.96,-30.56C137.23,-26.8 120.89,-22.89 106.63,-19.47"/>
<polygon fill="#63b8ff" stroke="#63b8ff" points="151.71,-33.86 162.25,-32.79 153.34,-27.06 151.71,-33.86"/>
</g>
</g>
</svg>
