<?xml version="1.0" encoding="UTF-8" standalone="no"?>
<!DOCTYPE svg PUBLIC "-//W3C//DTD SVG 1.1//EN"
 "http://www.w3.org/Graphics/SVG/1.1/DTD/svg11.dtd">
<!-- Generated by graphviz version 7.0.6 (20230106.0513)
 -->
<!-- Title: hgps::AnalysisModule::initialise_population Pages: 1 -->
<svg width="270pt" height="86pt"
 viewBox="0.00 0.00 270.00 86.00" xmlns="http://www.w3.org/2000/svg" xmlns:xlink="http://www.w3.org/1999/xlink">
<g id="graph0" class="graph" transform="scale(1 1) rotate(0) translate(4 82)">
<title>hgps::AnalysisModule::initialise_population</title>
<!-- Node1 -->
<g id="node1" class="node">
<title>Node1</title>
<g id="a_node1"><a xlink:title="Initialises the virtual population.">
<polygon fill="#999999" stroke="#666666" points="113,-54 0,-54 0,-24 113,-24 113,-54"/>
<text text-anchor="start" x="8" y="-42" font-family="Helvetica,sans-Serif" font-size="10.00">hgps::AnalysisModule</text>
<text text-anchor="middle" x="56.5" y="-31" font-family="Helvetica,sans-Serif" font-size="10.00">::initialise_population</text>
</a>
</g>
</g>
<!-- Node2 -->
<g id="node2" class="node">
<title>Node2</title>
<g id="a_node2"><a xlink:href="classhgps_1_1_runtime_context.html#a143ba237af957e455b95b6dd01e463c0" target="_top" xlink:title=" ">
<polygon fill="white" stroke="#666666" points="262,-78 149,-78 149,-48 262,-48 262,-78"/>
<text text-anchor="start" x="157" y="-66" font-family="Helvetica,sans-Serif" font-size="10.00">hgps::RuntimeContext</text>
<text text-anchor="middle" x="205.5" y="-55" font-family="Helvetica,sans-Serif" font-size="10.00">::age_range</text>
</a>
</g>
</g>
<!-- Node1&#45;&gt;Node2 -->
<g id="edge1" class="edge">
<title>Node1&#45;&gt;Node2</title>
<path fill="none" stroke="#63b8ff" d="M113.49,-48.14C121.32,-49.42 129.44,-50.74 137.45,-52.05"/>
<polygon fill="#63b8ff" stroke="#63b8ff" points="136.73,-55.48 147.17,-53.64 137.86,-48.57 136.73,-55.48"/>
</g>
<!-- Node3 -->
<g id="node3" class="node">
<title>Node3</title>
<g id="a_node3"><a xlink:href="classhgps_1_1_runtime_context.html#a346d7fdd33294a4836c708b1073df653" target="_top" xlink:title=" ">
<polygon fill="white" stroke="#666666" points="262,-30 149,-30 149,0 262,0 262,-30"/>
<text text-anchor="start" x="157" y="-18" font-family="Helvetica,sans-Serif" font-size="10.00">hgps::RuntimeContext</text>
<text text-anchor="middle" x="205.5" y="-7" font-family="Helvetica,sans-Serif" font-size="10.00">::population</text>
</a>
</g>
</g>
<!-- Node1&#45;&gt;Node3 -->
<g id="edge2" class="edge">
<title>Node1&#45;&gt;Node3</title>
<path fill="none" stroke="#63b8ff" d="M113.49,-29.86C121.32,-28.58 129.44,-27.26 137.45,-25.95"/>
<polygon fill="#63b8ff" stroke="#63b8ff" points="137.86,-29.43 147.17,-24.36 136.73,-22.52 137.86,-29.43"/>
</g>
</g>
</svg>
