<?xml version="1.0" encoding="UTF-8" standalone="no"?>
<!DOCTYPE svg PUBLIC "-//W3C//DTD SVG 1.1//EN"
 "http://www.w3.org/Graphics/SVG/1.1/DTD/svg11.dtd">
<!-- Generated by graphviz version 7.0.6 (20230106.0513)
 -->
<!-- Title: hgps::core::UnivariateSummary::count_valid Pages: 1 -->
<svg width="724pt" height="306pt"
 viewBox="0.00 0.00 724.00 306.00" xmlns="http://www.w3.org/2000/svg" xmlns:xlink="http://www.w3.org/1999/xlink">
<g id="graph0" class="graph" transform="scale(1 1) rotate(0) translate(4 302)">
<title>hgps::core::UnivariateSummary::count_valid</title>
<!-- Node1 -->
<g id="node1" class="node">
<title>Node1</title>
<g id="a_node1"><a xlink:title=" ">
<polygon fill="#999999" stroke="#666666" points="716,-255 564,-255 564,-225 716,-225 716,-255"/>
<text text-anchor="start" x="572" y="-243" font-family="Helvetica,sans-Serif" font-size="10.00">hgps::core::UnivariateSummary</text>
<text text-anchor="middle" x="640" y="-232" font-family="Helvetica,sans-Serif" font-size="10.00">::count_valid</text>
</a>
</g>
</g>
<!-- Node2 -->
<g id="node2" class="node">
<title>Node2</title>
<g id="a_node2"><a xlink:href="classhgps_1_1core_1_1_univariate_summary.html#a728329f04594446f26ab3c3cdab552ec" target="_top" xlink:title=" ">
<polygon fill="white" stroke="#666666" points="528,-298 376,-298 376,-268 528,-268 528,-298"/>
<text text-anchor="start" x="384" y="-286" font-family="Helvetica,sans-Serif" font-size="10.00">hgps::core::UnivariateSummary</text>
<text text-anchor="middle" x="452" y="-275" font-family="Helvetica,sans-Serif" font-size="10.00">::count_total</text>
</a>
</g>
</g>
<!-- Node1&#45;&gt;Node2 -->
<g id="edge1" class="edge">
<title>Node1&#45;&gt;Node2</title>
<path fill="none" stroke="#63b8ff" d="M561.22,-257.98C547.5,-261.15 533.32,-264.43 519.92,-267.53"/>
<polygon fill="#63b8ff" stroke="#63b8ff" points="561.68,-261.47 570.64,-255.8 560.11,-254.65 561.68,-261.47"/>
</g>
<!-- Node3 -->
<g id="node3" class="node">
<title>Node3</title>
<g id="a_node3"><a xlink:href="classhgps_1_1core_1_1_univariate_summary.html#a6495055dfccf8ab34cb6ac87bf343772" target="_top" xlink:title=" ">
<polygon fill="white" stroke="#666666" points="152,-174 0,-174 0,-144 152,-144 152,-174"/>
<text text-anchor="start" x="8" y="-162" font-family="Helvetica,sans-Serif" font-size="10.00">hgps::core::UnivariateSummary</text>
<text text-anchor="middle" x="76" y="-151" font-family="Helvetica,sans-Serif" font-size="10.00">::to_string</text>
</a>
</g>
</g>
<!-- Node1&#45;&gt;Node3 -->
<g id="edge3" class="edge">
<title>Node1&#45;&gt;Node3</title>
<path fill="none" stroke="#63b8ff" d="M552.42,-239.1C460.84,-236.59 312.66,-228.03 188,-200 161.54,-194.05 132.86,-183.34 111.28,-174.35"/>
<polygon fill="#63b8ff" stroke="#63b8ff" points="552.25,-242.6 562.34,-239.36 552.43,-235.6 552.25,-242.6"/>
</g>
<!-- Node4 -->
<g id="node4" class="node">
<title>Node4</title>
<g id="a_node4"><a xlink:href="classhgps_1_1core_1_1_univariate_summary.html#a0be60fa3713183e9943d1e694b12a731" target="_top" xlink:title=" ">
<polygon fill="white" stroke="#666666" points="528,-150 376,-150 376,-120 528,-120 528,-150"/>
<text text-anchor="start" x="384" y="-138" font-family="Helvetica,sans-Serif" font-size="10.00">hgps::core::UnivariateSummary</text>
<text text-anchor="middle" x="452" y="-127" font-family="Helvetica,sans-Serif" font-size="10.00">::variance</text>
</a>
</g>
</g>
<!-- Node1&#45;&gt;Node4 -->
<g id="edge4" class="edge">
<title>Node1&#45;&gt;Node4</title>
<path fill="none" stroke="#63b8ff" d="M601.93,-219.07C566.02,-198.8 512.41,-168.54 480.25,-150.39"/>
<polygon fill="#63b8ff" stroke="#63b8ff" points="599.81,-221.89 610.24,-223.76 603.25,-215.8 599.81,-221.89"/>
</g>
<!-- Node2&#45;&gt;Node3 -->
<g id="edge2" class="edge">
<title>Node2&#45;&gt;Node3</title>
<path fill="none" stroke="#63b8ff" d="M364.33,-286.14C311.4,-285.02 243.47,-278.03 188,-254 146.11,-235.85 108.25,-196.26 89.46,-174.35"/>
<polygon fill="#63b8ff" stroke="#63b8ff" points="364.17,-289.63 374.22,-286.27 364.27,-282.64 364.17,-289.63"/>
</g>
<!-- Node4&#45;&gt;Node3 -->
<g id="edge13" class="edge">
<title>Node4&#45;&gt;Node3</title>
<path fill="none" stroke="#63b8ff" d="M414.12,-155.48C393.09,-165.97 365.85,-177.65 340,-183 271.42,-197.19 191.04,-185.9 137.37,-174.49"/>
<polygon fill="#63b8ff" stroke="#63b8ff" points="415.56,-158.67 422.86,-150.99 412.36,-152.44 415.56,-158.67"/>
</g>
<!-- Node5 -->
<g id="node5" class="node">
<title>Node5</title>
<g id="a_node5"><a xlink:href="classhgps_1_1core_1_1_univariate_summary.html#a60b5e4a3172619b5880c222b7d9ad8ee" target="_top" xlink:title=" ">
<polygon fill="white" stroke="#666666" points="340,-174 188,-174 188,-144 340,-144 340,-174"/>
<text text-anchor="start" x="196" y="-162" font-family="Helvetica,sans-Serif" font-size="10.00">hgps::core::UnivariateSummary</text>
<text text-anchor="middle" x="264" y="-151" font-family="Helvetica,sans-Serif" font-size="10.00">::kurtosis</text>
</a>
</g>
</g>
<!-- Node4&#45;&gt;Node5 -->
<g id="edge5" class="edge">
<title>Node4&#45;&gt;Node5</title>
<path fill="none" stroke="#63b8ff" d="M364.39,-146.17C356.41,-147.2 348.37,-148.24 340.49,-149.26"/>
<polygon fill="#63b8ff" stroke="#63b8ff" points="364.64,-149.67 374.11,-144.92 363.75,-142.73 364.64,-149.67"/>
</g>
<!-- Node6 -->
<g id="node6" class="node">
<title>Node6</title>
<g id="a_node6"><a xlink:href="classhgps_1_1core_1_1_univariate_summary.html#a39a6327c4a6b555454a41c233eb90242" target="_top" xlink:title=" ">
<polygon fill="white" stroke="#666666" points="340,-126 188,-126 188,-96 340,-96 340,-126"/>
<text text-anchor="start" x="196" y="-114" font-family="Helvetica,sans-Serif" font-size="10.00">hgps::core::UnivariateSummary</text>
<text text-anchor="middle" x="264" y="-103" font-family="Helvetica,sans-Serif" font-size="10.00">::skewness</text>
</a>
</g>
</g>
<!-- Node4&#45;&gt;Node6 -->
<g id="edge7" class="edge">
<title>Node4&#45;&gt;Node6</title>
<path fill="none" stroke="#63b8ff" d="M364.39,-123.83C356.41,-122.8 348.37,-121.76 340.49,-120.74"/>
<polygon fill="#63b8ff" stroke="#63b8ff" points="363.75,-127.27 374.11,-125.08 364.64,-120.33 363.75,-127.27"/>
</g>
<!-- Node7 -->
<g id="node7" class="node">
<title>Node7</title>
<g id="a_node7"><a xlink:href="classhgps_1_1core_1_1_univariate_summary.html#a3d021888aae889b79fb9c9123f8b1d69" target="_top" xlink:title=" ">
<polygon fill="white" stroke="#666666" points="340,-78 188,-78 188,-48 340,-48 340,-78"/>
<text text-anchor="start" x="196" y="-66" font-family="Helvetica,sans-Serif" font-size="10.00">hgps::core::UnivariateSummary</text>
<text text-anchor="middle" x="264" y="-55" font-family="Helvetica,sans-Serif" font-size="10.00">::std_deviation</text>
</a>
</g>
</g>
<!-- Node4&#45;&gt;Node7 -->
<g id="edge9" class="edge">
<title>Node4&#45;&gt;Node7</title>
<path fill="none" stroke="#63b8ff" d="M407.35,-114.94C387.06,-105.93 362.49,-95.44 340,-87 332.19,-84.07 323.85,-81.17 315.66,-78.46"/>
<polygon fill="#63b8ff" stroke="#63b8ff" points="405.9,-118.13 416.45,-119.02 408.76,-111.74 405.9,-118.13"/>
</g>
<!-- Node8 -->
<g id="node8" class="node">
<title>Node8</title>
<g id="a_node8"><a xlink:href="classhgps_1_1core_1_1_univariate_summary.html#aa22f4d3eebe7a220290ae53521081599" target="_top" xlink:title=" ">
<polygon fill="white" stroke="#666666" points="340,-30 188,-30 188,0 340,0 340,-30"/>
<text text-anchor="start" x="196" y="-18" font-family="Helvetica,sans-Serif" font-size="10.00">hgps::core::UnivariateSummary</text>
<text text-anchor="middle" x="264" y="-7" font-family="Helvetica,sans-Serif" font-size="10.00">::std_error</text>
</a>
</g>
</g>
<!-- Node4&#45;&gt;Node8 -->
<g id="edge11" class="edge">
<title>Node4&#45;&gt;Node8</title>
<path fill="none" stroke="#63b8ff" d="M429.11,-111.22C408.11,-89.67 374.57,-58.4 340,-39 334.28,-35.79 328.06,-32.94 321.74,-30.43"/>
<polygon fill="#63b8ff" stroke="#63b8ff" points="426.56,-113.62 436,-118.43 431.62,-108.78 426.56,-113.62"/>
</g>
<!-- Node5&#45;&gt;Node3 -->
<g id="edge6" class="edge">
<title>Node5&#45;&gt;Node3</title>
<path fill="none" stroke="#63b8ff" d="M176.12,-159C168.23,-159 160.27,-159 152.49,-159"/>
<polygon fill="#63b8ff" stroke="#63b8ff" points="176.1,-162.5 186.1,-159 176.1,-155.5 176.1,-162.5"/>
</g>
<!-- Node6&#45;&gt;Node3 -->
<g id="edge8" class="edge">
<title>Node6&#45;&gt;Node3</title>
<path fill="none" stroke="#63b8ff" d="M192.22,-129.27C173.93,-133.98 154.43,-139.02 136.76,-143.58"/>
<polygon fill="#63b8ff" stroke="#63b8ff" points="192.85,-132.72 201.66,-126.83 191.1,-125.94 192.85,-132.72"/>
</g>
<!-- Node7&#45;&gt;Node3 -->
<g id="edge10" class="edge">
<title>Node7&#45;&gt;Node3</title>
<path fill="none" stroke="#63b8ff" d="M198.14,-82.54C194.67,-83.96 191.27,-85.45 188,-87 154.17,-103.03 118.42,-127.84 96.91,-143.75"/>
<polygon fill="#63b8ff" stroke="#63b8ff" points="199.18,-85.89 207.25,-79.03 196.66,-79.36 199.18,-85.89"/>
</g>
<!-- Node8&#45;&gt;Node3 -->
<g id="edge12" class="edge">
<title>Node8&#45;&gt;Node3</title>
<path fill="none" stroke="#63b8ff" d="M194.14,-35.4C192.04,-36.54 189.98,-37.74 188,-39 143.24,-67.5 104.64,-118.4 87.09,-143.76"/>
<polygon fill="#63b8ff" stroke="#63b8ff" points="195.48,-38.63 202.96,-31.13 192.44,-32.33 195.48,-38.63"/>
</g>
</g>
</svg>
