<?xml version="1.0" encoding="UTF-8" standalone="no"?>
<!DOCTYPE svg PUBLIC "-//W3C//DTD SVG 1.1//EN"
 "http://www.w3.org/Graphics/SVG/1.1/DTD/svg11.dtd">
<!-- Generated by graphviz version 7.0.6 (20230106.0513)
 -->
<!-- Title: hgps::HierarchicalMapping::at_level_without_dynamic Pages: 1 -->
<svg width="302pt" height="108pt"
 viewBox="0.00 0.00 302.00 108.00" xmlns="http://www.w3.org/2000/svg" xmlns:xlink="http://www.w3.org/1999/xlink">
<g id="graph0" class="graph" transform="scale(1 1) rotate(0) translate(4 104)">
<title>hgps::HierarchicalMapping::at_level_without_dynamic</title>
<!-- Node1 -->
<g id="node1" class="node">
<title>Node1</title>
<g id="a_node1"><a xlink:title=" ">
<polygon fill="#999999" stroke="#666666" points="294,-64.5 161,-64.5 161,-34.5 294,-34.5 294,-64.5"/>
<text text-anchor="start" x="169" y="-52.5" font-family="Helvetica,sans-Serif" font-size="10.00">hgps::HierarchicalMapping</text>
<text text-anchor="middle" x="227.5" y="-41.5" font-family="Helvetica,sans-Serif" font-size="10.00">::at_level_without_dynamic</text>
</a>
</g>
</g>
<!-- Node2 -->
<g id="node2" class="node">
<title>Node2</title>
<g id="a_node2"><a xlink:href="classhgps_1_1_static_hierarchical_linear_model.html#aed69f3d22a37908a2e350b73f4b3dfd0" target="_top" xlink:title="Generates the initial risk factors for a population and newborns.">
<polygon fill="white" stroke="#666666" points="122.5,-100 2.5,-100 2.5,-59 122.5,-59 122.5,-100"/>
<text text-anchor="start" x="10.5" y="-88" font-family="Helvetica,sans-Serif" font-size="10.00">hgps::StaticHierarchical</text>
<text text-anchor="start" x="10.5" y="-77" font-family="Helvetica,sans-Serif" font-size="10.00">LinearModel::generate</text>
<text text-anchor="middle" x="62.5" y="-66" font-family="Helvetica,sans-Serif" font-size="10.00">_risk_factors</text>
</a>
</g>
</g>
<!-- Node1&#45;&gt;Node2 -->
<g id="edge1" class="edge">
<title>Node1&#45;&gt;Node2</title>
<path fill="none" stroke="#63b8ff" d="M149.47,-63.68C140.58,-65.31 131.61,-66.96 123,-68.55"/>
<polygon fill="#63b8ff" stroke="#63b8ff" points="149.98,-67.14 159.18,-61.89 148.71,-60.26 149.98,-67.14"/>
</g>
<!-- Node3 -->
<g id="node3" class="node">
<title>Node3</title>
<g id="a_node3"><a xlink:href="classhgps_1_1_static_hierarchical_linear_model.html#a2501846cb781316081a03317bfabfeca" target="_top" xlink:title="Update risk factors for population.">
<polygon fill="white" stroke="#666666" points="125,-41 0,-41 0,0 125,0 125,-41"/>
<text text-anchor="start" x="8" y="-29" font-family="Helvetica,sans-Serif" font-size="10.00">hgps::StaticHierarchical</text>
<text text-anchor="start" x="8" y="-18" font-family="Helvetica,sans-Serif" font-size="10.00">LinearModel::update_risk</text>
<text text-anchor="middle" x="62.5" y="-7" font-family="Helvetica,sans-Serif" font-size="10.00">_factors</text>
</a>
</g>
</g>
<!-- Node1&#45;&gt;Node3 -->
<g id="edge2" class="edge">
<title>Node1&#45;&gt;Node3</title>
<path fill="none" stroke="#63b8ff" d="M149.36,-35.78C141.31,-34.34 133.2,-32.9 125.35,-31.5"/>
<polygon fill="#63b8ff" stroke="#63b8ff" points="148.72,-39.22 159.18,-37.52 149.95,-32.33 148.72,-39.22"/>
</g>
</g>
</svg>
