<?xml version="1.0" encoding="UTF-8" standalone="no"?>
<!DOCTYPE svg PUBLIC "-//W3C//DTD SVG 1.1//EN"
 "http://www.w3.org/Graphics/SVG/1.1/DTD/svg11.dtd">
<!-- Generated by graphviz version 2.43.0 (0)
 -->
<!-- Title: hgps::HierarchicalMapping::at_level_without_dynamic Pages: 1 -->
<svg width="335pt" height="110pt"
 viewBox="0.00 0.00 335.00 110.00" xmlns="http://www.w3.org/2000/svg" xmlns:xlink="http://www.w3.org/1999/xlink">
<g id="graph0" class="graph" transform="scale(1 1) rotate(0) translate(4 106)">
<title>hgps::HierarchicalMapping::at_level_without_dynamic</title>
<!-- Node1 -->
<g id="node1" class="node">
<title>Node1</title>
<g id="a_node1"><a xlink:title=" ">
<polygon fill="#bfbfbf" stroke="black" points="176,-36 176,-66 327,-66 327,-36 176,-36"/>
<text text-anchor="start" x="184" y="-54" font-family="Helvetica,sans-Serif" font-size="10.00">hgps::HierarchicalMapping</text>
<text text-anchor="middle" x="251.5" y="-43" font-family="Helvetica,sans-Serif" font-size="10.00">::at_level_without_dynamic</text>
</a>
</g>
</g>
<!-- Node2 -->
<g id="node2" class="node">
<title>Node2</title>
<g id="a_node2"><a xlink:href="classhgps_1_1StaticHierarchicalLinearModel.html#aed69f3d22a37908a2e350b73f4b3dfd0" target="_top" xlink:title="Generates the initial risk factors for a population and newborns.">
<polygon fill="none" stroke="black" points="4,-60.5 4,-101.5 136,-101.5 136,-60.5 4,-60.5"/>
<text text-anchor="start" x="12" y="-89.5" font-family="Helvetica,sans-Serif" font-size="10.00">hgps::StaticHierarchical</text>
<text text-anchor="start" x="12" y="-78.5" font-family="Helvetica,sans-Serif" font-size="10.00">LinearModel::generate</text>
<text text-anchor="middle" x="70" y="-67.5" font-family="Helvetica,sans-Serif" font-size="10.00">_risk_factors</text>
</a>
</g>
</g>
<!-- Node1&#45;&gt;Node2 -->
<g id="edge1" class="edge">
<title>Node1&#45;&gt;Node2</title>
<path fill="none" stroke="midnightblue" d="M165.97,-65.13C155.96,-66.8 145.86,-68.49 136.18,-70.11"/>
<polygon fill="midnightblue" stroke="midnightblue" points="166.65,-68.56 175.94,-63.46 165.5,-61.66 166.65,-68.56"/>
</g>
<!-- Node3 -->
<g id="node3" class="node">
<title>Node3</title>
<g id="a_node3"><a xlink:href="classhgps_1_1StaticHierarchicalLinearModel.html#a2501846cb781316081a03317bfabfeca" target="_top" xlink:title="Update risk factors for population.">
<polygon fill="none" stroke="black" points="0,-0.5 0,-41.5 140,-41.5 140,-0.5 0,-0.5"/>
<text text-anchor="start" x="8" y="-29.5" font-family="Helvetica,sans-Serif" font-size="10.00">hgps::StaticHierarchical</text>
<text text-anchor="start" x="8" y="-18.5" font-family="Helvetica,sans-Serif" font-size="10.00">LinearModel::update_risk</text>
<text text-anchor="middle" x="70" y="-7.5" font-family="Helvetica,sans-Serif" font-size="10.00">_factors</text>
</a>
</g>
</g>
<!-- Node1&#45;&gt;Node3 -->
<g id="edge2" class="edge">
<title>Node1&#45;&gt;Node3</title>
<path fill="none" stroke="midnightblue" d="M165.87,-36.86C157.26,-35.42 148.58,-33.97 140.16,-32.56"/>
<polygon fill="midnightblue" stroke="midnightblue" points="165.5,-40.34 175.94,-38.54 166.65,-33.44 165.5,-40.34"/>
</g>
</g>
</svg>
