<?xml version="1.0" encoding="UTF-8" standalone="no"?>
<!DOCTYPE svg PUBLIC "-//W3C//DTD SVG 1.1//EN"
 "http://www.w3.org/Graphics/SVG/1.1/DTD/svg11.dtd">
<!-- Generated by graphviz version 2.43.0 (0)
 -->
<!-- Title: hgps::core::Array2D::fill Pages: 1 -->
<svg width="270pt" height="88pt"
 viewBox="0.00 0.00 270.00 88.00" xmlns="http://www.w3.org/2000/svg" xmlns:xlink="http://www.w3.org/1999/xlink">
<g id="graph0" class="graph" transform="scale(1 1) rotate(0) translate(4 84)">
<title>hgps::core::Array2D::fill</title>
<!-- Node1 -->
<g id="node1" class="node">
<title>Node1</title>
<g id="a_node1"><a xlink:title="Fill the array data with a default value.">
<polygon fill="#bfbfbf" stroke="black" points="149,-24.5 149,-54.5 262,-54.5 262,-24.5 149,-24.5"/>
<text text-anchor="start" x="157" y="-42.5" font-family="Helvetica,sans-Serif" font-size="10.00">hgps::core::Array2D</text>
<text text-anchor="middle" x="205.5" y="-31.5" font-family="Helvetica,sans-Serif" font-size="10.00">::fill</text>
</a>
</g>
</g>
<!-- Node2 -->
<g id="node2" class="node">
<title>Node2</title>
<g id="a_node2"><a xlink:href="classhgps_1_1core_1_1Array2D.html#af12c4c5344bcf952645ec6acb3ebd394" target="_top" xlink:title="Initialises new instance of the Array2D class with custom default value.">
<polygon fill="none" stroke="black" points="0,-49.5 0,-79.5 113,-79.5 113,-49.5 0,-49.5"/>
<text text-anchor="start" x="8" y="-67.5" font-family="Helvetica,sans-Serif" font-size="10.00">hgps::core::Array2D</text>
<text text-anchor="middle" x="56.5" y="-56.5" font-family="Helvetica,sans-Serif" font-size="10.00">::Array2D</text>
</a>
</g>
</g>
<!-- Node1&#45;&gt;Node2 -->
<g id="edge1" class="edge">
<title>Node1&#45;&gt;Node2</title>
<path fill="none" stroke="midnightblue" d="M138.92,-50.65C130.32,-52.12 121.57,-53.6 113.15,-55.04"/>
<polygon fill="midnightblue" stroke="midnightblue" points="139.65,-54.08 148.93,-48.95 138.48,-47.18 139.65,-54.08"/>
</g>
<!-- Node3 -->
<g id="node3" class="node">
<title>Node3</title>
<g id="a_node3"><a xlink:href="classhgps_1_1core_1_1Array2D.html#af71f224a36c510df928905bba8ddbc6b" target="_top" xlink:title="Clears the array data with the default type value.">
<polygon fill="none" stroke="black" points="0,-0.5 0,-30.5 113,-30.5 113,-0.5 0,-0.5"/>
<text text-anchor="start" x="8" y="-18.5" font-family="Helvetica,sans-Serif" font-size="10.00">hgps::core::Array2D</text>
<text text-anchor="middle" x="56.5" y="-7.5" font-family="Helvetica,sans-Serif" font-size="10.00">::clear</text>
</a>
</g>
</g>
<!-- Node1&#45;&gt;Node3 -->
<g id="edge2" class="edge">
<title>Node1&#45;&gt;Node3</title>
<path fill="none" stroke="midnightblue" d="M138.92,-28.79C130.32,-27.39 121.57,-25.96 113.15,-24.59"/>
<polygon fill="midnightblue" stroke="midnightblue" points="138.49,-32.27 148.93,-30.43 139.62,-25.36 138.49,-32.27"/>
</g>
</g>
</svg>
