<?xml version="1.0" encoding="UTF-8" standalone="no"?>
<!DOCTYPE svg PUBLIC "-//W3C//DTD SVG 1.1//EN"
 "http://www.w3.org/Graphics/SVG/1.1/DTD/svg11.dtd">
<!-- Generated by graphviz version 7.0.6 (20230106.0513)
 -->
<!-- Title: hgps::Repository::get_baseline_adjustment_definition Pages: 1 -->
<svg width="445pt" height="49pt"
 viewBox="0.00 0.00 445.00 49.00" xmlns="http://www.w3.org/2000/svg" xmlns:xlink="http://www.w3.org/1999/xlink">
<g id="graph0" class="graph" transform="scale(1 1) rotate(0) translate(4 45)">
<title>hgps::Repository::get_baseline_adjustment_definition</title>
<!-- Node1 -->
<g id="node1" class="node">
<title>Node1</title>
<g id="a_node1"><a xlink:title=" ">
<polygon fill="#999999" stroke="#666666" points="437,-41 326,-41 326,0 437,0 437,-41"/>
<text text-anchor="start" x="334" y="-29" font-family="Helvetica,sans-Serif" font-size="10.00">hgps::Repository::get</text>
<text text-anchor="start" x="334" y="-18" font-family="Helvetica,sans-Serif" font-size="10.00">_baseline_adjustment</text>
<text text-anchor="middle" x="381.5" y="-7" font-family="Helvetica,sans-Serif" font-size="10.00">_definition</text>
</a>
</g>
</g>
<!-- Node2 -->
<g id="node2" class="node">
<title>Node2</title>
<g id="a_node2"><a xlink:href="namespacehgps.html#ab5f6a94224d6b1722264694ccdb4debb" target="_top" xlink:title=" ">
<polygon fill="white" stroke="#666666" points="290,-35.5 176,-35.5 176,-5.5 290,-5.5 290,-35.5"/>
<text text-anchor="start" x="184" y="-23.5" font-family="Helvetica,sans-Serif" font-size="10.00">hgps::build_risk_factor</text>
<text text-anchor="middle" x="233" y="-12.5" font-family="Helvetica,sans-Serif" font-size="10.00">_module</text>
</a>
</g>
</g>
<!-- Node1&#45;&gt;Node2 -->
<g id="edge1" class="edge">
<title>Node1&#45;&gt;Node2</title>
<path fill="none" stroke="#63b8ff" d="M314.3,-20.5C306.26,-20.5 298.12,-20.5 290.25,-20.5"/>
<polygon fill="#63b8ff" stroke="#63b8ff" points="314.02,-24 324.02,-20.5 314.02,-17 314.02,-24"/>
</g>
<!-- Node3 -->
<g id="node3" class="node">
<title>Node3</title>
<g id="a_node3"><a xlink:href="namespacehgps.html#aef8e3dcb57d8eabeb75baa00c53f6b98" target="_top" xlink:title="Create the default simulation modules factory for production usage.">
<polygon fill="white" stroke="#666666" points="140,-35.5 0,-35.5 0,-5.5 140,-5.5 140,-35.5"/>
<text text-anchor="start" x="8" y="-23.5" font-family="Helvetica,sans-Serif" font-size="10.00">hgps::get_default_simulation</text>
<text text-anchor="middle" x="70" y="-12.5" font-family="Helvetica,sans-Serif" font-size="10.00">_module_factory</text>
</a>
</g>
</g>
<!-- Node2&#45;&gt;Node3 -->
<g id="edge2" class="edge">
<title>Node2&#45;&gt;Node3</title>
<path fill="none" stroke="#63b8ff" d="M164.25,-20.5C156.33,-20.5 148.25,-20.5 140.31,-20.5"/>
<polygon fill="#63b8ff" stroke="#63b8ff" points="164.18,-24 174.18,-20.5 164.18,-17 164.18,-24"/>
</g>
</g>
</svg>
