<?xml version="1.0" encoding="UTF-8" standalone="no"?>
<!DOCTYPE svg PUBLIC "-//W3C//DTD SVG 1.1//EN"
 "http://www.w3.org/Graphics/SVG/1.1/DTD/svg11.dtd">
<!-- Generated by graphviz version 7.0.6 (20230106.0513)
 -->
<!-- Title: hgps::RuntimeContext::mapping Pages: 1 -->
<svg width="318pt" height="157pt"
 viewBox="0.00 0.00 318.00 157.00" xmlns="http://www.w3.org/2000/svg" xmlns:xlink="http://www.w3.org/1999/xlink">
<g id="graph0" class="graph" transform="scale(1 1) rotate(0) translate(4 153)">
<title>hgps::RuntimeContext::mapping</title>
<!-- Node1 -->
<g id="node1" class="node">
<title>Node1</title>
<g id="a_node1"><a xlink:title=" ">
<polygon fill="#999999" stroke="#666666" points="310,-89.5 197,-89.5 197,-59.5 310,-59.5 310,-89.5"/>
<text text-anchor="start" x="205" y="-77.5" font-family="Helvetica,sans-Serif" font-size="10.00">hgps::RuntimeContext</text>
<text text-anchor="middle" x="253.5" y="-66.5" font-family="Helvetica,sans-Serif" font-size="10.00">::mapping</text>
</a>
</g>
</g>
<!-- Node2 -->
<g id="node2" class="node">
<title>Node2</title>
<g id="a_node2"><a xlink:href="classhgps_1_1_static_hierarchical_linear_model.html#aed69f3d22a37908a2e350b73f4b3dfd0" target="_top" xlink:title="Generates the initial risk factors for a population and newborns.">
<polygon fill="white" stroke="#666666" points="140.5,-149 20.5,-149 20.5,-108 140.5,-108 140.5,-149"/>
<text text-anchor="start" x="28.5" y="-137" font-family="Helvetica,sans-Serif" font-size="10.00">hgps::StaticHierarchical</text>
<text text-anchor="start" x="28.5" y="-126" font-family="Helvetica,sans-Serif" font-size="10.00">LinearModel::generate</text>
<text text-anchor="middle" x="80.5" y="-115" font-family="Helvetica,sans-Serif" font-size="10.00">_risk_factors</text>
</a>
</g>
</g>
<!-- Node1&#45;&gt;Node2 -->
<g id="edge1" class="edge">
<title>Node1&#45;&gt;Node2</title>
<path fill="none" stroke="#63b8ff" d="M192.69,-93.39C175.88,-98.7 157.61,-104.47 140.83,-109.77"/>
<polygon fill="#63b8ff" stroke="#63b8ff" points="193.57,-96.78 202.05,-90.43 191.47,-90.1 193.57,-96.78"/>
</g>
<!-- Node3 -->
<g id="node3" class="node">
<title>Node3</title>
<g id="a_node3"><a xlink:href="classhgps_1_1_energy_balance_hierarchical_model.html#a3b51c4a34acc3382b17d6c251884e619" target="_top" xlink:title="Update risk factors for population.">
<polygon fill="white" stroke="#666666" points="161,-89.5 0,-89.5 0,-59.5 161,-59.5 161,-89.5"/>
<text text-anchor="start" x="8" y="-77.5" font-family="Helvetica,sans-Serif" font-size="10.00">hgps::EnergyBalanceHierarchical</text>
<text text-anchor="middle" x="80.5" y="-66.5" font-family="Helvetica,sans-Serif" font-size="10.00">Model::update_risk_factors</text>
</a>
</g>
</g>
<!-- Node1&#45;&gt;Node3 -->
<g id="edge2" class="edge">
<title>Node1&#45;&gt;Node3</title>
<path fill="none" stroke="#63b8ff" d="M185.17,-74.5C177.3,-74.5 169.21,-74.5 161.2,-74.5"/>
<polygon fill="#63b8ff" stroke="#63b8ff" points="184.99,-78 194.99,-74.5 184.99,-71 184.99,-78"/>
</g>
<!-- Node4 -->
<g id="node4" class="node">
<title>Node4</title>
<g id="a_node4"><a xlink:href="classhgps_1_1_static_hierarchical_linear_model.html#a2501846cb781316081a03317bfabfeca" target="_top" xlink:title="Update risk factors for population.">
<polygon fill="white" stroke="#666666" points="143,-41 18,-41 18,0 143,0 143,-41"/>
<text text-anchor="start" x="26" y="-29" font-family="Helvetica,sans-Serif" font-size="10.00">hgps::StaticHierarchical</text>
<text text-anchor="start" x="26" y="-18" font-family="Helvetica,sans-Serif" font-size="10.00">LinearModel::update_risk</text>
<text text-anchor="middle" x="80.5" y="-7" font-family="Helvetica,sans-Serif" font-size="10.00">_factors</text>
</a>
</g>
</g>
<!-- Node1&#45;&gt;Node4 -->
<g id="edge3" class="edge">
<title>Node1&#45;&gt;Node4</title>
<path fill="none" stroke="#63b8ff" d="M192.68,-55.61C176.7,-50.56 159.4,-45.1 143.32,-40.02"/>
<polygon fill="#63b8ff" stroke="#63b8ff" points="191.47,-58.9 202.05,-58.57 193.57,-52.22 191.47,-58.9"/>
</g>
</g>
</svg>
