<?xml version="1.0" encoding="UTF-8" standalone="no"?>
<!DOCTYPE svg PUBLIC "-//W3C//DTD SVG 1.1//EN"
 "http://www.w3.org/Graphics/SVG/1.1/DTD/svg11.dtd">
<!-- Generated by graphviz version 7.0.6 (20230106.0513)
 -->
<!-- Title: hgps::RiskFactorModule::apply_baseline_adjustments Pages: 1 -->
<svg width="476pt" height="38pt"
 viewBox="0.00 0.00 476.00 38.00" xmlns="http://www.w3.org/2000/svg" xmlns:xlink="http://www.w3.org/1999/xlink">
<g id="graph0" class="graph" transform="scale(1 1) rotate(0) translate(4 34)">
<title>hgps::RiskFactorModule::apply_baseline_adjustments</title>
<!-- Node1 -->
<g id="node1" class="node">
<title>Node1</title>
<g id="a_node1"><a xlink:title="Apply baseline risk factor adjustments to population.">
<polygon fill="#999999" stroke="#666666" points="146,-30 0,-30 0,0 146,0 146,-30"/>
<text text-anchor="start" x="8" y="-18" font-family="Helvetica,sans-Serif" font-size="10.00">hgps::RiskFactorModule</text>
<text text-anchor="middle" x="73" y="-7" font-family="Helvetica,sans-Serif" font-size="10.00">::apply_baseline_adjustments</text>
</a>
</g>
</g>
<!-- Node2 -->
<g id="node2" class="node">
<title>Node2</title>
<g id="a_node2"><a xlink:href="classhgps_1_1_riskfactor_adjustment_model.html#a1cfc148566739100cb533e439fbdd00e" target="_top" xlink:title=" ">
<polygon fill="white" stroke="#666666" points="319,-30 182,-30 182,0 319,0 319,-30"/>
<text text-anchor="start" x="190" y="-18" font-family="Helvetica,sans-Serif" font-size="10.00">hgps::RiskfactorAdjustment</text>
<text text-anchor="middle" x="250.5" y="-7" font-family="Helvetica,sans-Serif" font-size="10.00">Model::Apply</text>
</a>
</g>
</g>
<!-- Node1&#45;&gt;Node2 -->
<g id="edge1" class="edge">
<title>Node1&#45;&gt;Node2</title>
<path fill="none" stroke="#63b8ff" d="M146.4,-15C154.35,-15 162.49,-15 170.52,-15"/>
<polygon fill="#63b8ff" stroke="#63b8ff" points="170.27,-18.5 180.27,-15 170.27,-11.5 170.27,-18.5"/>
</g>
<!-- Node3 -->
<g id="node3" class="node">
<title>Node3</title>
<g id="a_node3"><a xlink:href="classhgps_1_1_runtime_context.html#a346d7fdd33294a4836c708b1073df653" target="_top" xlink:title=" ">
<polygon fill="white" stroke="#666666" points="468,-30 355,-30 355,0 468,0 468,-30"/>
<text text-anchor="start" x="363" y="-18" font-family="Helvetica,sans-Serif" font-size="10.00">hgps::RuntimeContext</text>
<text text-anchor="middle" x="411.5" y="-7" font-family="Helvetica,sans-Serif" font-size="10.00">::population</text>
</a>
</g>
</g>
<!-- Node2&#45;&gt;Node3 -->
<g id="edge2" class="edge">
<title>Node2&#45;&gt;Node3</title>
<path fill="none" stroke="#63b8ff" d="M319.39,-15C327.33,-15 335.43,-15 343.36,-15"/>
<polygon fill="#63b8ff" stroke="#63b8ff" points="343.3,-18.5 353.3,-15 343.3,-11.5 343.3,-18.5"/>
</g>
</g>
</svg>
