<?xml version="1.0" encoding="UTF-8" standalone="no"?>
<!DOCTYPE svg PUBLIC "-//W3C//DTD SVG 1.1//EN"
 "http://www.w3.org/Graphics/SVG/1.1/DTD/svg11.dtd">
<!-- Generated by graphviz version 7.0.6 (20230106.0513)
 -->
<!-- Title: hgps::HealthGPS Pages: 1 -->
<svg width="258pt" height="149pt"
 viewBox="0.00 0.00 257.50 149.00" xmlns="http://www.w3.org/2000/svg" xmlns:xlink="http://www.w3.org/1999/xlink">
<g id="graph0" class="graph" transform="scale(1 1) rotate(0) translate(4 145)">
<title>hgps::HealthGPS</title>
<!-- Node1 -->
<g id="node1" class="node">
<title>Node1</title>
<g id="a_node1"><a xlink:title=" ">
<polygon fill="#999999" stroke="#666666" points="164,-19 72,-19 72,0 164,0 164,-19"/>
<text text-anchor="middle" x="118" y="-7" font-family="Helvetica,sans-Serif" font-size="10.00">hgps::HealthGPS</text>
</a>
</g>
</g>
<!-- Node2 -->
<g id="node2" class="node">
<title>Node2</title>
<g id="a_node2"><a xlink:href="classhgps_1_1_simulation.html" target="_top" xlink:title=" ">
<polygon fill="white" stroke="#666666" points="162.5,-75 73.5,-75 73.5,-56 162.5,-56 162.5,-75"/>
<text text-anchor="middle" x="118" y="-63" font-family="Helvetica,sans-Serif" font-size="10.00">hgps::Simulation</text>
</a>
</g>
</g>
<!-- Node2&#45;&gt;Node1 -->
<g id="edge1" class="edge">
<title>Node2&#45;&gt;Node1</title>
<path fill="none" stroke="#63b8ff" d="M118,-44.11C118,-35.52 118,-25.97 118,-19.25"/>
<polygon fill="#63b8ff" stroke="#63b8ff" points="114.5,-44.07 118,-54.07 121.5,-44.07 114.5,-44.07"/>
</g>
<!-- Node3 -->
<g id="node3" class="node">
<title>Node3</title>
<g id="a_node3"><a xlink:title=" ">
<polygon fill="white" stroke="#666666" points="102,-141 0,-141 0,-122 102,-122 102,-141"/>
<text text-anchor="middle" x="51" y="-129" font-family="Helvetica,sans-Serif" font-size="10.00">adevs::Model&lt; int &gt;</text>
</a>
</g>
</g>
<!-- Node3&#45;&gt;Node2 -->
<g id="edge2" class="edge">
<title>Node3&#45;&gt;Node2</title>
<path fill="none" stroke="#63b8ff" d="M68.45,-113.83C81.34,-101.52 98.4,-85.23 108.76,-75.32"/>
<polygon fill="#63b8ff" stroke="#63b8ff" points="66.22,-111.12 61.41,-120.56 71.06,-116.18 66.22,-111.12"/>
</g>
<!-- Node4 -->
<g id="node4" class="node">
<title>Node4</title>
<g id="a_node4"><a xlink:href="structhgps_1_1_simulation_definition.html" target="_top" xlink:title=" ">
<polygon fill="white" stroke="#666666" points="249.5,-141 120.5,-141 120.5,-122 249.5,-122 249.5,-141"/>
<text text-anchor="middle" x="185" y="-129" font-family="Helvetica,sans-Serif" font-size="10.00">hgps::SimulationDefinition</text>
</a>
</g>
</g>
<!-- Node4&#45;&gt;Node2 -->
<g id="edge3" class="edge">
<title>Node4&#45;&gt;Node2</title>
<path fill="none" stroke="#9a32cd" stroke-dasharray="5,2" d="M167.55,-113.83C154.66,-101.52 137.6,-85.23 127.24,-75.32"/>
<polygon fill="#9a32cd" stroke="#9a32cd" points="164.94,-116.18 174.59,-120.56 169.78,-111.12 164.94,-116.18"/>
<text text-anchor="middle" x="178.5" y="-96" font-family="Helvetica,sans-Serif" font-size="10.00"> definition_</text>
</g>
</g>
</svg>
