<?xml version="1.0" encoding="UTF-8" standalone="no"?>
<!DOCTYPE svg PUBLIC "-//W3C//DTD SVG 1.1//EN"
 "http://www.w3.org/Graphics/SVG/1.1/DTD/svg11.dtd">
<!-- Generated by graphviz version 7.0.6 (20230106.0513)
 -->
<!-- Title: hgps::PopulationModule::update_population Pages: 1 -->
<svg width="298pt" height="316pt"
 viewBox="0.00 0.00 298.00 316.00" xmlns="http://www.w3.org/2000/svg" xmlns:xlink="http://www.w3.org/1999/xlink">
<g id="graph0" class="graph" transform="scale(1 1) rotate(0) translate(4 312)">
<title>hgps::PopulationModule::update_population</title>
<!-- Node1 -->
<g id="node1" class="node">
<title>Node1</title>
<g id="a_node1"><a xlink:title="Updates the virtual population status.">
<polygon fill="#999999" stroke="#666666" points="121,-164 0,-164 0,-134 121,-134 121,-164"/>
<text text-anchor="start" x="8" y="-152" font-family="Helvetica,sans-Serif" font-size="10.00">hgps::PopulationModule</text>
<text text-anchor="middle" x="60.5" y="-141" font-family="Helvetica,sans-Serif" font-size="10.00">::update_population</text>
</a>
</g>
</g>
<!-- Node2 -->
<g id="node2" class="node">
<title>Node2</title>
<g id="a_node2"><a xlink:href="classhgps_1_1_population.html#ace8256fba4946bcc0555474d7687d429" target="_top" xlink:title=" ">
<polygon fill="white" stroke="#666666" points="279,-308 168,-308 168,-278 279,-278 279,-308"/>
<text text-anchor="start" x="176" y="-296" font-family="Helvetica,sans-Serif" font-size="10.00">hgps::Population::add</text>
<text text-anchor="middle" x="223.5" y="-285" font-family="Helvetica,sans-Serif" font-size="10.00">_newborn_babies</text>
</a>
</g>
</g>
<!-- Node1&#45;&gt;Node2 -->
<g id="edge1" class="edge">
<title>Node1&#45;&gt;Node2</title>
<path fill="none" stroke="#63b8ff" d="M69.77,-164.11C84.28,-189.27 116.62,-239.87 157,-269 158.55,-270.12 160.16,-271.19 161.82,-272.22"/>
<polygon fill="#63b8ff" stroke="#63b8ff" points="159.92,-275.17 170.38,-276.9 163.28,-269.03 159.92,-275.17"/>
</g>
<!-- Node3 -->
<g id="node3" class="node">
<title>Node3</title>
<g id="a_node3"><a xlink:href="classhgps_1_1_population.html#a67406e28d8144d8d4bbf3ec9e3cae573" target="_top" xlink:title=" ">
<polygon fill="white" stroke="#666666" points="286,-260 161,-260 161,-230 286,-230 286,-260"/>
<text text-anchor="start" x="169" y="-248" font-family="Helvetica,sans-Serif" font-size="10.00">hgps::Population::current</text>
<text text-anchor="middle" x="223.5" y="-237" font-family="Helvetica,sans-Serif" font-size="10.00">_active_size</text>
</a>
</g>
</g>
<!-- Node1&#45;&gt;Node3 -->
<g id="edge2" class="edge">
<title>Node1&#45;&gt;Node3</title>
<path fill="none" stroke="#63b8ff" d="M78.72,-164.49C97.06,-180.35 127.46,-204.91 157,-221 159.51,-222.37 162.12,-223.69 164.78,-224.96"/>
<polygon fill="#63b8ff" stroke="#63b8ff" points="163.3,-228.13 173.86,-228.98 166.13,-221.73 163.3,-228.13"/>
</g>
<!-- Node4 -->
<g id="node4" class="node">
<title>Node4</title>
<g id="a_node4"><a xlink:href="classhgps_1_1_population_module.html#a3bb8e9f20ef78774f88f9acbed832b3e" target="_top" xlink:title="Gets the total population at a specific point in time.">
<polygon fill="white" stroke="#666666" points="290,-212 157,-212 157,-182 290,-182 290,-212"/>
<text text-anchor="start" x="165" y="-200" font-family="Helvetica,sans-Serif" font-size="10.00">hgps::PopulationModule</text>
<text text-anchor="middle" x="223.5" y="-189" font-family="Helvetica,sans-Serif" font-size="10.00">::get_total_population_size</text>
</a>
</g>
</g>
<!-- Node1&#45;&gt;Node4 -->
<g id="edge3" class="edge">
<title>Node1&#45;&gt;Node4</title>
<path fill="none" stroke="#63b8ff" d="M113.33,-164.45C128.12,-168.86 144.4,-173.72 159.77,-178.3"/>
<polygon fill="#63b8ff" stroke="#63b8ff" points="158.74,-181.64 169.32,-181.14 160.74,-174.93 158.74,-181.64"/>
</g>
<!-- Node5 -->
<g id="node5" class="node">
<title>Node5</title>
<g id="a_node5"><a xlink:href="classhgps_1_1_runtime_context.html#a0e888d326a217dcf378f1cb29eecf3b0" target="_top" xlink:title=" ">
<polygon fill="white" stroke="#666666" points="280,-164 167,-164 167,-134 280,-134 280,-164"/>
<text text-anchor="start" x="175" y="-152" font-family="Helvetica,sans-Serif" font-size="10.00">hgps::RuntimeContext</text>
<text text-anchor="middle" x="223.5" y="-141" font-family="Helvetica,sans-Serif" font-size="10.00">::metrics</text>
</a>
</g>
</g>
<!-- Node1&#45;&gt;Node5 -->
<g id="edge4" class="edge">
<title>Node1&#45;&gt;Node5</title>
<path fill="none" stroke="#63b8ff" d="M121.45,-149C132.58,-149 144.27,-149 155.6,-149"/>
<polygon fill="#63b8ff" stroke="#63b8ff" points="155.25,-152.5 165.25,-149 155.25,-145.5 155.25,-152.5"/>
</g>
<!-- Node6 -->
<g id="node6" class="node">
<title>Node6</title>
<g id="a_node6"><a xlink:href="classhgps_1_1_runtime_context.html#a346d7fdd33294a4836c708b1073df653" target="_top" xlink:title=" ">
<polygon fill="white" stroke="#666666" points="280,-116 167,-116 167,-86 280,-86 280,-116"/>
<text text-anchor="start" x="175" y="-104" font-family="Helvetica,sans-Serif" font-size="10.00">hgps::RuntimeContext</text>
<text text-anchor="middle" x="223.5" y="-93" font-family="Helvetica,sans-Serif" font-size="10.00">::population</text>
</a>
</g>
</g>
<!-- Node1&#45;&gt;Node6 -->
<g id="edge5" class="edge">
<title>Node1&#45;&gt;Node6</title>
<path fill="none" stroke="#63b8ff" d="M113.33,-133.55C128.12,-129.14 144.4,-124.28 159.77,-119.7"/>
<polygon fill="#63b8ff" stroke="#63b8ff" points="160.74,-123.07 169.32,-116.86 158.74,-116.36 160.74,-123.07"/>
</g>
<!-- Node7 -->
<g id="node7" class="node">
<title>Node7</title>
<g id="a_node7"><a xlink:href="namespacehgps_1_1core.html#a46c52a5e953821a3c37786635acfd9b5" target="_top" xlink:title=" ">
<polygon fill="white" stroke="#666666" points="280,-67.5 167,-67.5 167,-48.5 280,-48.5 280,-67.5"/>
<text text-anchor="middle" x="223.5" y="-55.5" font-family="Helvetica,sans-Serif" font-size="10.00">hgps::core::run_async</text>
</a>
</g>
</g>
<!-- Node1&#45;&gt;Node7 -->
<g id="edge6" class="edge">
<title>Node1&#45;&gt;Node7</title>
<path fill="none" stroke="#63b8ff" d="M77.84,-133.69C95.92,-117.51 126.55,-92.24 157,-77 160.88,-75.06 164.99,-73.28 169.19,-71.67"/>
<polygon fill="#63b8ff" stroke="#63b8ff" points="170.01,-75.09 178.28,-68.47 167.69,-68.48 170.01,-75.09"/>
</g>
<!-- Node8 -->
<g id="node8" class="node">
<title>Node8</title>
<g id="a_node8"><a xlink:href="classhgps_1_1_runtime_context.html#a5eb9de9f095d934ababb9119d506b781" target="_top" xlink:title=" ">
<polygon fill="white" stroke="#666666" points="280,-30 167,-30 167,0 280,0 280,-30"/>
<text text-anchor="start" x="175" y="-18" font-family="Helvetica,sans-Serif" font-size="10.00">hgps::RuntimeContext</text>
<text text-anchor="middle" x="223.5" y="-7" font-family="Helvetica,sans-Serif" font-size="10.00">::time_now</text>
</a>
</g>
</g>
<!-- Node1&#45;&gt;Node8 -->
<g id="edge7" class="edge">
<title>Node1&#45;&gt;Node8</title>
<path fill="none" stroke="#63b8ff" d="M71.15,-133.88C86.65,-110.7 119.21,-66.3 157,-40 159.19,-38.47 161.49,-37.03 163.86,-35.66"/>
<polygon fill="#63b8ff" stroke="#63b8ff" points="165.3,-38.85 172.56,-31.13 162.08,-32.64 165.3,-38.85"/>
</g>
</g>
</svg>
