<?xml version="1.0" encoding="UTF-8" standalone="no"?>
<!DOCTYPE svg PUBLIC "-//W3C//DTD SVG 1.1//EN"
 "http://www.w3.org/Graphics/SVG/1.1/DTD/svg11.dtd">
<!-- Generated by graphviz version 7.0.6 (20230106.0513)
 -->
<!-- Title: hgps::RuntimeContext::set_current_time Pages: 1 -->
<svg width="285pt" height="64pt"
 viewBox="0.00 0.00 285.00 64.00" xmlns="http://www.w3.org/2000/svg" xmlns:xlink="http://www.w3.org/1999/xlink">
<g id="graph0" class="graph" transform="scale(1 1) rotate(0) translate(4 60)">
<title>hgps::RuntimeContext::set_current_time</title>
<!-- Node1 -->
<g id="node1" class="node">
<title>Node1</title>
<g id="a_node1"><a xlink:title=" ">
<polygon fill="#999999" stroke="#666666" points="277,-42.5 164,-42.5 164,-12.5 277,-12.5 277,-42.5"/>
<text text-anchor="start" x="172" y="-30.5" font-family="Helvetica,sans-Serif" font-size="10.00">hgps::RuntimeContext</text>
<text text-anchor="middle" x="220.5" y="-19.5" font-family="Helvetica,sans-Serif" font-size="10.00">::set_current_time</text>
</a>
</g>
</g>
<!-- Node2 -->
<g id="node2" class="node">
<title>Node2</title>
<g id="a_node2"><a xlink:href="classhgps_1_1_health_g_p_s.html#a2c23ed4aa847824887750396e4f28637" target="_top" xlink:title=" ">
<polygon fill="white" stroke="#666666" points="119.5,-56 8.5,-56 8.5,-37 119.5,-37 119.5,-56"/>
<text text-anchor="middle" x="64" y="-44" font-family="Helvetica,sans-Serif" font-size="10.00">hgps::HealthGPS::init</text>
</a>
</g>
</g>
<!-- Node1&#45;&gt;Node2 -->
<g id="edge1" class="edge">
<title>Node1&#45;&gt;Node2</title>
<path fill="none" stroke="#63b8ff" d="M152.52,-35.74C141.63,-37.08 130.47,-38.45 119.92,-39.75"/>
<polygon fill="#63b8ff" stroke="#63b8ff" points="152.72,-39.24 162.22,-34.54 151.87,-32.29 152.72,-39.24"/>
</g>
<!-- Node3 -->
<g id="node3" class="node">
<title>Node3</title>
<g id="a_node3"><a xlink:href="classhgps_1_1_health_g_p_s.html#af36af9f5aacf623d283f72e9a7b2c411" target="_top" xlink:title=" ">
<polygon fill="white" stroke="#666666" points="128,-19 0,-19 0,0 128,0 128,-19"/>
<text text-anchor="middle" x="64" y="-7" font-family="Helvetica,sans-Serif" font-size="10.00">hgps::HealthGPS::update</text>
</a>
</g>
</g>
<!-- Node1&#45;&gt;Node3 -->
<g id="edge2" class="edge">
<title>Node1&#45;&gt;Node3</title>
<path fill="none" stroke="#63b8ff" d="M152.5,-19.69C144.47,-18.76 136.28,-17.8 128.3,-16.87"/>
<polygon fill="#63b8ff" stroke="#63b8ff" points="151.88,-23.15 162.22,-20.83 152.69,-16.19 151.88,-23.15"/>
</g>
</g>
</svg>
