<?xml version="1.0" encoding="UTF-8" standalone="no"?>
<!DOCTYPE svg PUBLIC "-//W3C//DTD SVG 1.1//EN"
 "http://www.w3.org/Graphics/SVG/1.1/DTD/svg11.dtd">
<!-- Generated by graphviz version 7.0.6 (20230106.0513)
 -->
<!-- Title: hgps::core::PrimitiveDataTableColumn::name Pages: 1 -->
<svg width="294pt" height="86pt"
 viewBox="0.00 0.00 294.00 86.00" xmlns="http://www.w3.org/2000/svg" xmlns:xlink="http://www.w3.org/1999/xlink">
<g id="graph0" class="graph" transform="scale(1 1) rotate(0) translate(4 82)">
<title>hgps::core::PrimitiveDataTableColumn::name</title>
<!-- Node1 -->
<g id="node1" class="node">
<title>Node1</title>
<g id="a_node1"><a xlink:title=" ">
<polygon fill="#999999" stroke="#666666" points="286,-54 161,-54 161,-24 286,-24 286,-54"/>
<text text-anchor="start" x="169" y="-42" font-family="Helvetica,sans-Serif" font-size="10.00">hgps::core::PrimitiveData</text>
<text text-anchor="middle" x="223.5" y="-31" font-family="Helvetica,sans-Serif" font-size="10.00">TableColumn::name</text>
</a>
</g>
</g>
<!-- Node2 -->
<g id="node2" class="node">
<title>Node2</title>
<g id="a_node2"><a xlink:href="classhgps_1_1core_1_1_primitive_data_table_column.html#a54a9b261d8c1cc6dec2d74906b3b1b97" target="_top" xlink:title=" ">
<polygon fill="white" stroke="#666666" points="125,-78 0,-78 0,-48 125,-48 125,-78"/>
<text text-anchor="start" x="8" y="-66" font-family="Helvetica,sans-Serif" font-size="10.00">hgps::core::PrimitiveData</text>
<text text-anchor="middle" x="62.5" y="-55" font-family="Helvetica,sans-Serif" font-size="10.00">TableColumn::type</text>
</a>
</g>
</g>
<!-- Node1&#45;&gt;Node2 -->
<g id="edge1" class="edge">
<title>Node1&#45;&gt;Node2</title>
<path fill="none" stroke="#63b8ff" d="M149.3,-50.05C141.26,-51.26 133.14,-52.49 125.26,-53.68"/>
<polygon fill="#63b8ff" stroke="#63b8ff" points="149.71,-53.53 159.07,-48.57 148.66,-46.61 149.71,-53.53"/>
</g>
<!-- Node3 -->
<g id="node3" class="node">
<title>Node3</title>
<g id="a_node3"><a xlink:href="classhgps_1_1_univariate_visitor.html#abc1e4dc5cafdbcf2ff2b8c4a10d8950f" target="_top" xlink:title=" ">
<polygon fill="white" stroke="#666666" points="119,-30 6,-30 6,0 119,0 119,-30"/>
<text text-anchor="start" x="14" y="-18" font-family="Helvetica,sans-Serif" font-size="10.00">hgps::UnivariateVisitor</text>
<text text-anchor="middle" x="62.5" y="-7" font-family="Helvetica,sans-Serif" font-size="10.00">::visit</text>
</a>
</g>
</g>
<!-- Node1&#45;&gt;Node3 -->
<g id="edge2" class="edge">
<title>Node1&#45;&gt;Node3</title>
<path fill="none" stroke="#63b8ff" d="M149.29,-27.95C139.21,-26.43 128.99,-24.89 119.3,-23.42"/>
<polygon fill="#63b8ff" stroke="#63b8ff" points="148.66,-31.39 159.07,-29.43 149.71,-24.47 148.66,-31.39"/>
</g>
</g>
</svg>
