<?xml version="1.0" encoding="UTF-8" standalone="no"?>
<!DOCTYPE svg PUBLIC "-//W3C//DTD SVG 1.1//EN"
 "http://www.w3.org/Graphics/SVG/1.1/DTD/svg11.dtd">
<!-- Generated by graphviz version 2.43.0 (0)
 -->
<!-- Title: hgps::core::DataTableColumn Pages: 1 -->
<svg width="546pt" height="235pt"
 viewBox="0.00 0.00 546.00 235.00" xmlns="http://www.w3.org/2000/svg" xmlns:xlink="http://www.w3.org/1999/xlink">
<g id="graph0" class="graph" transform="scale(1 1) rotate(0) translate(4 231)">
<title>hgps::core::DataTableColumn</title>
<!-- Node1 -->
<g id="node1" class="node">
<title>Node1</title>
<g id="a_node1"><a xlink:title=" ">
<polygon fill="#bfbfbf" stroke="black" points="0,-104 0,-123 159,-123 159,-104 0,-104"/>
<text text-anchor="middle" x="79.5" y="-111" font-family="Helvetica,sans-Serif" font-size="10.00">hgps::core::DataTableColumn</text>
</a>
</g>
</g>
<!-- Node2 -->
<g id="node2" class="node">
<title>Node2</title>
<g id="a_node2"><a xlink:href="classhgps_1_1core_1_1PrimitiveDataTableColumn.html" target="_top" xlink:title=" ">
<polygon fill="none" stroke="black" points="200.5,-196.5 200.5,-226.5 340.5,-226.5 340.5,-196.5 200.5,-196.5"/>
<text text-anchor="start" x="208.5" y="-214.5" font-family="Helvetica,sans-Serif" font-size="10.00">hgps::core::PrimitiveData</text>
<text text-anchor="middle" x="270.5" y="-203.5" font-family="Helvetica,sans-Serif" font-size="10.00">TableColumn&lt; double &gt;</text>
</a>
</g>
</g>
<!-- Node1&#45;&gt;Node2 -->
<g id="edge1" class="edge">
<title>Node1&#45;&gt;Node2</title>
<path fill="none" stroke="midnightblue" d="M101.22,-129.28C123.43,-145.62 160.23,-171.01 195,-187.5 201.88,-190.76 209.31,-193.74 216.73,-196.41"/>
<polygon fill="midnightblue" stroke="midnightblue" points="103.02,-126.26 92.91,-123.09 98.84,-131.87 103.02,-126.26"/>
</g>
<!-- Node4 -->
<g id="node4" class="node">
<title>Node4</title>
<g id="a_node4"><a xlink:href="classhgps_1_1core_1_1PrimitiveDataTableColumn.html" target="_top" xlink:title=" ">
<polygon fill="none" stroke="black" points="195,-147.5 195,-177.5 346,-177.5 346,-147.5 195,-147.5"/>
<text text-anchor="start" x="203" y="-165.5" font-family="Helvetica,sans-Serif" font-size="10.00">hgps::core::PrimitiveData</text>
<text text-anchor="middle" x="270.5" y="-154.5" font-family="Helvetica,sans-Serif" font-size="10.00">TableColumn&lt; std::string &gt;</text>
</a>
</g>
</g>
<!-- Node1&#45;&gt;Node4 -->
<g id="edge3" class="edge">
<title>Node1&#45;&gt;Node4</title>
<path fill="none" stroke="midnightblue" d="M127.18,-125.6C152.66,-132.21 184.44,-140.45 211.5,-147.46"/>
<polygon fill="midnightblue" stroke="midnightblue" points="127.95,-122.19 117.39,-123.06 126.19,-128.96 127.95,-122.19"/>
</g>
<!-- Node6 -->
<g id="node6" class="node">
<title>Node6</title>
<g id="a_node6"><a xlink:href="classhgps_1_1core_1_1PrimitiveDataTableColumn.html" target="_top" xlink:title=" ">
<polygon fill="none" stroke="black" points="200.5,-98.5 200.5,-128.5 340.5,-128.5 340.5,-98.5 200.5,-98.5"/>
<text text-anchor="start" x="208.5" y="-116.5" font-family="Helvetica,sans-Serif" font-size="10.00">hgps::core::PrimitiveData</text>
<text text-anchor="middle" x="270.5" y="-105.5" font-family="Helvetica,sans-Serif" font-size="10.00">TableColumn&lt; float &gt;</text>
</a>
</g>
</g>
<!-- Node1&#45;&gt;Node6 -->
<g id="edge5" class="edge">
<title>Node1&#45;&gt;Node6</title>
<path fill="none" stroke="midnightblue" d="M169.02,-113.5C179.52,-113.5 190.11,-113.5 200.28,-113.5"/>
<polygon fill="midnightblue" stroke="midnightblue" points="169.01,-110 159.01,-113.5 169.01,-117 169.01,-110"/>
</g>
<!-- Node8 -->
<g id="node8" class="node">
<title>Node8</title>
<g id="a_node8"><a xlink:href="classhgps_1_1core_1_1PrimitiveDataTableColumn.html" target="_top" xlink:title=" ">
<polygon fill="none" stroke="black" points="200.5,-49.5 200.5,-79.5 340.5,-79.5 340.5,-49.5 200.5,-49.5"/>
<text text-anchor="start" x="208.5" y="-67.5" font-family="Helvetica,sans-Serif" font-size="10.00">hgps::core::PrimitiveData</text>
<text text-anchor="middle" x="270.5" y="-56.5" font-family="Helvetica,sans-Serif" font-size="10.00">TableColumn&lt; int &gt;</text>
</a>
</g>
</g>
<!-- Node1&#45;&gt;Node8 -->
<g id="edge7" class="edge">
<title>Node1&#45;&gt;Node8</title>
<path fill="none" stroke="midnightblue" d="M127.18,-101.4C152.66,-94.79 184.44,-86.55 211.5,-79.54"/>
<polygon fill="midnightblue" stroke="midnightblue" points="126.19,-98.04 117.39,-103.94 127.95,-104.81 126.19,-98.04"/>
</g>
<!-- Node10 -->
<g id="node10" class="node">
<title>Node10</title>
<g id="a_node10"><a xlink:href="classhgps_1_1core_1_1PrimitiveDataTableColumn.html" target="_top" xlink:title=" ">
<polygon fill="none" stroke="black" points="200.5,-0.5 200.5,-30.5 340.5,-30.5 340.5,-0.5 200.5,-0.5"/>
<text text-anchor="start" x="208.5" y="-18.5" font-family="Helvetica,sans-Serif" font-size="10.00">hgps::core::PrimitiveData</text>
<text text-anchor="middle" x="270.5" y="-7.5" font-family="Helvetica,sans-Serif" font-size="10.00">TableColumn&lt; TYPE &gt;</text>
</a>
</g>
</g>
<!-- Node1&#45;&gt;Node10 -->
<g id="edge9" class="edge">
<title>Node1&#45;&gt;Node10</title>
<path fill="none" stroke="midnightblue" d="M101.65,-97.78C123.97,-81.74 160.6,-56.93 195,-40.5 202.63,-36.85 210.94,-33.51 219.14,-30.53"/>
<polygon fill="midnightblue" stroke="midnightblue" points="99.32,-95.15 93.29,-103.86 103.43,-100.81 99.32,-95.15"/>
</g>
<!-- Node3 -->
<g id="node3" class="node">
<title>Node3</title>
<g id="a_node3"><a xlink:href="classhgps_1_1core_1_1DoubleDataTableColumn.html" target="_top" xlink:title=" ">
<polygon fill="none" stroke="black" points="382,-196.5 382,-226.5 538,-226.5 538,-196.5 382,-196.5"/>
<text text-anchor="start" x="390" y="-214.5" font-family="Helvetica,sans-Serif" font-size="10.00">hgps::core::DoubleDataTable</text>
<text text-anchor="middle" x="460" y="-203.5" font-family="Helvetica,sans-Serif" font-size="10.00">Column</text>
</a>
</g>
</g>
<!-- Node2&#45;&gt;Node3 -->
<g id="edge2" class="edge">
<title>Node2&#45;&gt;Node3</title>
<path fill="none" stroke="midnightblue" d="M350.74,-211.5C361.06,-211.5 371.62,-211.5 381.91,-211.5"/>
<polygon fill="midnightblue" stroke="midnightblue" points="350.52,-208 340.52,-211.5 350.52,-215 350.52,-208"/>
</g>
<!-- Node5 -->
<g id="node5" class="node">
<title>Node5</title>
<g id="a_node5"><a xlink:href="classhgps_1_1core_1_1StringDataTableColumn.html" target="_top" xlink:title=" ">
<polygon fill="none" stroke="black" points="385,-147.5 385,-177.5 535,-177.5 535,-147.5 385,-147.5"/>
<text text-anchor="start" x="393" y="-165.5" font-family="Helvetica,sans-Serif" font-size="10.00">hgps::core::StringDataTable</text>
<text text-anchor="middle" x="460" y="-154.5" font-family="Helvetica,sans-Serif" font-size="10.00">Column</text>
</a>
</g>
</g>
<!-- Node4&#45;&gt;Node5 -->
<g id="edge4" class="edge">
<title>Node4&#45;&gt;Node5</title>
<path fill="none" stroke="midnightblue" d="M356.4,-162.5C365.92,-162.5 375.56,-162.5 384.92,-162.5"/>
<polygon fill="midnightblue" stroke="midnightblue" points="356.14,-159 346.14,-162.5 356.14,-166 356.14,-159"/>
</g>
<!-- Node7 -->
<g id="node7" class="node">
<title>Node7</title>
<g id="a_node7"><a xlink:href="classhgps_1_1core_1_1FloatDataTableColumn.html" target="_top" xlink:title=" ">
<polygon fill="none" stroke="black" points="387,-98.5 387,-128.5 533,-128.5 533,-98.5 387,-98.5"/>
<text text-anchor="start" x="395" y="-116.5" font-family="Helvetica,sans-Serif" font-size="10.00">hgps::core::FloatDataTable</text>
<text text-anchor="middle" x="460" y="-105.5" font-family="Helvetica,sans-Serif" font-size="10.00">Column</text>
</a>
</g>
</g>
<!-- Node6&#45;&gt;Node7 -->
<g id="edge6" class="edge">
<title>Node6&#45;&gt;Node7</title>
<path fill="none" stroke="midnightblue" d="M350.57,-113.5C362.65,-113.5 375.06,-113.5 386.98,-113.5"/>
<polygon fill="midnightblue" stroke="midnightblue" points="350.52,-110 340.52,-113.5 350.52,-117 350.52,-110"/>
</g>
<!-- Node9 -->
<g id="node9" class="node">
<title>Node9</title>
<g id="a_node9"><a xlink:href="classhgps_1_1core_1_1IntegerDataTableColumn.html" target="_top" xlink:title=" ">
<polygon fill="none" stroke="black" points="382,-49.5 382,-79.5 538,-79.5 538,-49.5 382,-49.5"/>
<text text-anchor="start" x="390" y="-67.5" font-family="Helvetica,sans-Serif" font-size="10.00">hgps::core::IntegerDataTable</text>
<text text-anchor="middle" x="460" y="-56.5" font-family="Helvetica,sans-Serif" font-size="10.00">Column</text>
</a>
</g>
</g>
<!-- Node8&#45;&gt;Node9 -->
<g id="edge8" class="edge">
<title>Node8&#45;&gt;Node9</title>
<path fill="none" stroke="midnightblue" d="M350.74,-64.5C361.06,-64.5 371.62,-64.5 381.91,-64.5"/>
<polygon fill="midnightblue" stroke="midnightblue" points="350.52,-61 340.52,-64.5 350.52,-68 350.52,-61"/>
</g>
</g>
</svg>
