<?xml version="1.0" encoding="UTF-8" standalone="no"?>
<!DOCTYPE svg PUBLIC "-//W3C//DTD SVG 1.1//EN"
 "http://www.w3.org/Graphics/SVG/1.1/DTD/svg11.dtd">
<!-- Generated by graphviz version 7.0.6 (20230106.0513)
 -->
<!-- Title: hgps::StaticHierarchicalLinearModel::update_risk_factors Pages: 1 -->
<svg width="302pt" height="134pt"
 viewBox="0.00 0.00 302.00 134.00" xmlns="http://www.w3.org/2000/svg" xmlns:xlink="http://www.w3.org/1999/xlink">
<g id="graph0" class="graph" transform="scale(1 1) rotate(0) translate(4 130)">
<title>hgps::StaticHierarchicalLinearModel::update_risk_factors</title>
<!-- Node1 -->
<g id="node1" class="node">
<title>Node1</title>
<g id="a_node1"><a xlink:title="Update risk factors for population.">
<polygon fill="#999999" stroke="#666666" points="125,-83.5 0,-83.5 0,-42.5 125,-42.5 125,-83.5"/>
<text text-anchor="start" x="8" y="-71.5" font-family="Helvetica,sans-Serif" font-size="10.00">hgps::StaticHierarchical</text>
<text text-anchor="start" x="8" y="-60.5" font-family="Helvetica,sans-Serif" font-size="10.00">LinearModel::update_risk</text>
<text text-anchor="middle" x="62.5" y="-49.5" font-family="Helvetica,sans-Serif" font-size="10.00">_factors</text>
</a>
</g>
</g>
<!-- Node2 -->
<g id="node2" class="node">
<title>Node2</title>
<g id="a_node2"><a xlink:href="classhgps_1_1_hierarchical_mapping.html#a9773bbbb829cd02f3901ea6d9726adee" target="_top" xlink:title=" ">
<polygon fill="white" stroke="#666666" points="294,-126 161,-126 161,-96 294,-96 294,-126"/>
<text text-anchor="start" x="169" y="-114" font-family="Helvetica,sans-Serif" font-size="10.00">hgps::HierarchicalMapping</text>
<text text-anchor="middle" x="227.5" y="-103" font-family="Helvetica,sans-Serif" font-size="10.00">::at_level_without_dynamic</text>
</a>
</g>
</g>
<!-- Node1&#45;&gt;Node2 -->
<g id="edge1" class="edge">
<title>Node1&#45;&gt;Node2</title>
<path fill="none" stroke="#63b8ff" d="M125.12,-81.15C137.6,-84.82 150.75,-88.69 163.28,-92.38"/>
<polygon fill="#63b8ff" stroke="#63b8ff" points="162.08,-95.68 172.66,-95.15 164.06,-88.96 162.08,-95.68"/>
</g>
<!-- Node3 -->
<g id="node3" class="node">
<title>Node3</title>
<g id="a_node3"><a xlink:href="classhgps_1_1_runtime_context.html#a6b4e9897cf7892cafa62def6cb5cdfcf" target="_top" xlink:title=" ">
<polygon fill="white" stroke="#666666" points="284,-78 171,-78 171,-48 284,-48 284,-78"/>
<text text-anchor="start" x="179" y="-66" font-family="Helvetica,sans-Serif" font-size="10.00">hgps::RuntimeContext</text>
<text text-anchor="middle" x="227.5" y="-55" font-family="Helvetica,sans-Serif" font-size="10.00">::mapping</text>
</a>
</g>
</g>
<!-- Node1&#45;&gt;Node3 -->
<g id="edge2" class="edge">
<title>Node1&#45;&gt;Node3</title>
<path fill="none" stroke="#63b8ff" d="M125.12,-63C136.35,-63 148.11,-63 159.48,-63"/>
<polygon fill="#63b8ff" stroke="#63b8ff" points="159.17,-66.5 169.17,-63 159.17,-59.5 159.17,-66.5"/>
</g>
<!-- Node4 -->
<g id="node4" class="node">
<title>Node4</title>
<g id="a_node4"><a xlink:href="classhgps_1_1_runtime_context.html#a346d7fdd33294a4836c708b1073df653" target="_top" xlink:title=" ">
<polygon fill="white" stroke="#666666" points="284,-30 171,-30 171,0 284,0 284,-30"/>
<text text-anchor="start" x="179" y="-18" font-family="Helvetica,sans-Serif" font-size="10.00">hgps::RuntimeContext</text>
<text text-anchor="middle" x="227.5" y="-7" font-family="Helvetica,sans-Serif" font-size="10.00">::population</text>
</a>
</g>
</g>
<!-- Node1&#45;&gt;Node4 -->
<g id="edge3" class="edge">
<title>Node1&#45;&gt;Node4</title>
<path fill="none" stroke="#63b8ff" d="M125.12,-44.85C137.6,-41.18 150.75,-37.31 163.28,-33.62"/>
<polygon fill="#63b8ff" stroke="#63b8ff" points="164.06,-37.04 172.66,-30.85 162.08,-30.32 164.06,-37.04"/>
</g>
</g>
</svg>
