<?xml version="1.0" encoding="UTF-8" standalone="no"?>
<!DOCTYPE svg PUBLIC "-//W3C//DTD SVG 1.1//EN"
 "http://www.w3.org/Graphics/SVG/1.1/DTD/svg11.dtd">
<!-- Generated by graphviz version 7.0.6 (20230106.0513)
 -->
<!-- Title: hgps::Simulation::type Pages: 1 -->
<svg width="287pt" height="76pt"
 viewBox="0.00 0.00 287.00 75.50" xmlns="http://www.w3.org/2000/svg" xmlns:xlink="http://www.w3.org/1999/xlink">
<g id="graph0" class="graph" transform="scale(1 1) rotate(0) translate(4 71.5)">
<title>hgps::Simulation::type</title>
<!-- Node1 -->
<g id="node1" class="node">
<title>Node1</title>
<g id="a_node1"><a xlink:title=" ">
<polygon fill="#999999" stroke="#666666" points="114,-40 0,-40 0,-21 114,-21 114,-40"/>
<text text-anchor="middle" x="57" y="-28" font-family="Helvetica,sans-Serif" font-size="10.00">hgps::Simulation::type</text>
</a>
</g>
</g>
<!-- Node2 -->
<g id="node2" class="node">
<title>Node2</title>
<g id="a_node2"><a xlink:href="structhgps_1_1_simulation_definition.html#a3d1a883a3a4b1c96fe90cb22b7dd9230" target="_top" xlink:title=" ">
<polygon fill="white" stroke="#666666" points="279,-67.5 150,-67.5 150,-37.5 279,-37.5 279,-67.5"/>
<text text-anchor="start" x="158" y="-55.5" font-family="Helvetica,sans-Serif" font-size="10.00">hgps::SimulationDefinition</text>
<text text-anchor="middle" x="214.5" y="-44.5" font-family="Helvetica,sans-Serif" font-size="10.00">::scenario</text>
</a>
</g>
</g>
<!-- Node1&#45;&gt;Node2 -->
<g id="edge1" class="edge">
<title>Node1&#45;&gt;Node2</title>
<path fill="none" stroke="#63b8ff" d="M114.14,-38.44C121.94,-39.55 130.06,-40.7 138.15,-41.84"/>
<polygon fill="#63b8ff" stroke="#63b8ff" points="137.63,-45.3 148.02,-43.24 138.61,-38.37 137.63,-45.3"/>
</g>
<!-- Node3 -->
<g id="node3" class="node">
<title>Node3</title>
<g id="a_node3"><a xlink:href="classhgps_1_1_scenario.html#aa3dadbd9858a6668a9fdbbfc2a83d978" target="_top" xlink:title=" ">
<polygon fill="white" stroke="#666666" points="268,-19 161,-19 161,0 268,0 268,-19"/>
<text text-anchor="middle" x="214.5" y="-7" font-family="Helvetica,sans-Serif" font-size="10.00">hgps::Scenario::type</text>
</a>
</g>
</g>
<!-- Node1&#45;&gt;Node3 -->
<g id="edge2" class="edge">
<title>Node1&#45;&gt;Node3</title>
<path fill="none" stroke="#63b8ff" d="M114.14,-22.92C125.61,-21.37 137.76,-19.73 149.49,-18.15"/>
<polygon fill="#63b8ff" stroke="#63b8ff" points="149.61,-21.66 159.06,-16.85 148.68,-14.72 149.61,-21.66"/>
</g>
</g>
</svg>
