<?xml version="1.0" encoding="UTF-8" standalone="no"?>
<!DOCTYPE svg PUBLIC "-//W3C//DTD SVG 1.1//EN"
 "http://www.w3.org/Graphics/SVG/1.1/DTD/svg11.dtd">
<!-- Generated by graphviz version 2.43.0 (0)
 -->
<!-- Title: hgps::ModelInput::start_time Pages: 1 -->
<svg width="599pt" height="78pt"
 viewBox="0.00 0.00 599.00 77.50" xmlns="http://www.w3.org/2000/svg" xmlns:xlink="http://www.w3.org/1999/xlink">
<g id="graph0" class="graph" transform="scale(1 1) rotate(0) translate(4 73.5)">
<title>hgps::ModelInput::start_time</title>
<!-- Node1 -->
<g id="node1" class="node">
<title>Node1</title>
<g id="a_node1"><a xlink:title="Gets the experiment start time.">
<polygon fill="#bfbfbf" stroke="black" points="434,-22.5 434,-41.5 591,-41.5 591,-22.5 434,-22.5"/>
<text text-anchor="middle" x="512.5" y="-29.5" font-family="Helvetica,sans-Serif" font-size="10.00">hgps::ModelInput::start_time</text>
</a>
</g>
</g>
<!-- Node2 -->
<g id="node2" class="node">
<title>Node2</title>
<g id="a_node2"><a xlink:href="namespacehgps.html#ad7d042f1937872f2f8b344915584a7a9" target="_top" xlink:title="Builds a new instance of the PopulationModule using the given data infrastructure.">
<polygon fill="none" stroke="black" points="271,-39 271,-69 398,-69 398,-39 271,-39"/>
<text text-anchor="start" x="279" y="-57" font-family="Helvetica,sans-Serif" font-size="10.00">hgps::build_population</text>
<text text-anchor="middle" x="334.5" y="-46" font-family="Helvetica,sans-Serif" font-size="10.00">_module</text>
</a>
</g>
</g>
<!-- Node1&#45;&gt;Node2 -->
<g id="edge1" class="edge">
<title>Node1&#45;&gt;Node2</title>
<path fill="none" stroke="midnightblue" d="M425.36,-42.77C416.14,-43.92 406.9,-45.07 398.04,-46.18"/>
<polygon fill="midnightblue" stroke="midnightblue" points="425.84,-46.23 435.33,-41.52 424.97,-39.29 425.84,-46.23"/>
</g>
<!-- Node5 -->
<g id="node5" class="node">
<title>Node5</title>
<g id="a_node5"><a xlink:href="classhgps_1_1HealthGPS.html#a2c23ed4aa847824887750396e4f28637" target="_top" xlink:title="Called when the model is added to the simulation executive.">
<polygon fill="none" stroke="black" points="275,-0.5 275,-19.5 394,-19.5 394,-0.5 275,-0.5"/>
<text text-anchor="middle" x="334.5" y="-7.5" font-family="Helvetica,sans-Serif" font-size="10.00">hgps::HealthGPS::init</text>
</a>
</g>
</g>
<!-- Node1&#45;&gt;Node5 -->
<g id="edge4" class="edge">
<title>Node1&#45;&gt;Node5</title>
<path fill="none" stroke="midnightblue" d="M425.22,-21.22C414.65,-19.89 404.04,-18.57 394.01,-17.31"/>
<polygon fill="midnightblue" stroke="midnightblue" points="424.97,-24.71 435.33,-22.48 425.84,-17.77 424.97,-24.71"/>
</g>
<!-- Node3 -->
<g id="node3" class="node">
<title>Node3</title>
<g id="a_node3"><a xlink:href="namespacehgps.html#aef8e3dcb57d8eabeb75baa00c53f6b98" target="_top" xlink:title="Create the default simulation modules factory for production usage.">
<polygon fill="none" stroke="black" points="77,-39 77,-69 235,-69 235,-39 77,-39"/>
<text text-anchor="start" x="85" y="-57" font-family="Helvetica,sans-Serif" font-size="10.00">hgps::get_default_simulation</text>
<text text-anchor="middle" x="156" y="-46" font-family="Helvetica,sans-Serif" font-size="10.00">_module_factory</text>
</a>
</g>
</g>
<!-- Node2&#45;&gt;Node3 -->
<g id="edge2" class="edge">
<title>Node2&#45;&gt;Node3</title>
<path fill="none" stroke="midnightblue" d="M260.67,-54C252.29,-54 243.72,-54 235.27,-54"/>
<polygon fill="midnightblue" stroke="midnightblue" points="260.78,-57.5 270.78,-54 260.78,-50.5 260.78,-57.5"/>
</g>
<!-- Node4 -->
<g id="node4" class="node">
<title>Node4</title>
<g id="a_node4"><a xlink:href="program_8cpp.html#a0ddf1224851353fc92bfbff6f499fa97" target="_top" xlink:title="Health&#45;GPS host application entry point.">
<polygon fill="none" stroke="black" points="0,-44.5 0,-63.5 41,-63.5 41,-44.5 0,-44.5"/>
<text text-anchor="middle" x="20.5" y="-51.5" font-family="Helvetica,sans-Serif" font-size="10.00">main</text>
</a>
</g>
</g>
<!-- Node3&#45;&gt;Node4 -->
<g id="edge3" class="edge">
<title>Node3&#45;&gt;Node4</title>
<path fill="none" stroke="midnightblue" d="M66.88,-54C57.39,-54 48.55,-54 41.24,-54"/>
<polygon fill="midnightblue" stroke="midnightblue" points="66.96,-57.5 76.96,-54 66.96,-50.5 66.96,-57.5"/>
</g>
</g>
</svg>
