<?xml version="1.0" encoding="UTF-8" standalone="no"?>
<!DOCTYPE svg PUBLIC "-//W3C//DTD SVG 1.1//EN"
 "http://www.w3.org/Graphics/SVG/1.1/DTD/svg11.dtd">
<!-- Generated by graphviz version 7.0.6 (20230106.0513)
 -->
<!-- Title: hgps::ModelInput::seed Pages: 1 -->
<svg width="370pt" height="76pt"
 viewBox="0.00 0.00 370.00 75.50" xmlns="http://www.w3.org/2000/svg" xmlns:xlink="http://www.w3.org/1999/xlink">
<g id="graph0" class="graph" transform="scale(1 1) rotate(0) translate(4 71.5)">
<title>hgps::ModelInput::seed</title>
<!-- Node1 -->
<g id="node1" class="node">
<title>Node1</title>
<g id="a_node1"><a xlink:title=" ">
<polygon fill="#999999" stroke="#666666" points="362,-40 244,-40 244,-21 362,-21 362,-40"/>
<text text-anchor="middle" x="303" y="-28" font-family="Helvetica,sans-Serif" font-size="10.00">hgps::ModelInput::seed</text>
</a>
</g>
</g>
<!-- Node2 -->
<g id="node2" class="node">
<title>Node2</title>
<g id="a_node2"><a xlink:href="configuration_8cpp.html#af5bcc5029f8d8a94e399e6570cbcd645" target="_top" xlink:title=" ">
<polygon fill="white" stroke="#666666" points="188.5,-67.5 93.5,-67.5 93.5,-37.5 188.5,-37.5 188.5,-67.5"/>
<text text-anchor="start" x="101.5" y="-55.5" font-family="Helvetica,sans-Serif" font-size="10.00">create_results_file</text>
<text text-anchor="middle" x="141" y="-44.5" font-family="Helvetica,sans-Serif" font-size="10.00">_logger</text>
</a>
</g>
</g>
<!-- Node1&#45;&gt;Node2 -->
<g id="edge1" class="edge">
<title>Node1&#45;&gt;Node2</title>
<path fill="none" stroke="#63b8ff" d="M232.62,-40.04C217.85,-42.07 202.59,-44.17 188.91,-46.05"/>
<polygon fill="#63b8ff" stroke="#63b8ff" points="232.85,-43.54 242.28,-38.71 231.9,-36.61 232.85,-43.54"/>
</g>
<!-- Node4 -->
<g id="node4" class="node">
<title>Node4</title>
<g id="a_node4"><a xlink:href="classhgps_1_1_health_g_p_s.html#a7b9b065171ddebcefd5827688a79472c" target="_top" xlink:title=" ">
<polygon fill="white" stroke="#666666" points="208,-19 74,-19 74,0 208,0 208,-19"/>
<text text-anchor="middle" x="141" y="-7" font-family="Helvetica,sans-Serif" font-size="10.00">hgps::HealthGPS::initialize</text>
</a>
</g>
</g>
<!-- Node1&#45;&gt;Node4 -->
<g id="edge3" class="edge">
<title>Node1&#45;&gt;Node4</title>
<path fill="none" stroke="#63b8ff" d="M232.54,-21.38C224.5,-20.33 216.31,-19.25 208.31,-18.2"/>
<polygon fill="#63b8ff" stroke="#63b8ff" points="231.91,-24.83 242.28,-22.66 232.82,-17.89 231.91,-24.83"/>
</g>
<!-- Node3 -->
<g id="node3" class="node">
<title>Node3</title>
<g id="a_node3"><a xlink:href="program_8cpp.html#a0ddf1224851353fc92bfbff6f499fa97" target="_top" xlink:title=" ">
<polygon fill="white" stroke="#666666" points="38,-62 0,-62 0,-43 38,-43 38,-62"/>
<text text-anchor="middle" x="19" y="-50" font-family="Helvetica,sans-Serif" font-size="10.00">main</text>
</a>
</g>
</g>
<!-- Node2&#45;&gt;Node3 -->
<g id="edge2" class="edge">
<title>Node2&#45;&gt;Node3</title>
<path fill="none" stroke="#63b8ff" d="M81.85,-52.5C66.04,-52.5 50.07,-52.5 38.31,-52.5"/>
<polygon fill="#63b8ff" stroke="#63b8ff" points="81.75,-56 91.75,-52.5 81.75,-49 81.75,-56"/>
</g>
</g>
</svg>
