<?xml version="1.0" encoding="UTF-8" standalone="no"?>
<!DOCTYPE svg PUBLIC "-//W3C//DTD SVG 1.1//EN"
 "http://www.w3.org/Graphics/SVG/1.1/DTD/svg11.dtd">
<!-- Generated by graphviz version 2.43.0 (0)
 -->
<!-- Title: hgps::RuntimeContext::set_current_time Pages: 1 -->
<svg width="306pt" height="66pt"
 viewBox="0.00 0.00 306.00 66.00" xmlns="http://www.w3.org/2000/svg" xmlns:xlink="http://www.w3.org/1999/xlink">
<g id="graph0" class="graph" transform="scale(1 1) rotate(0) translate(4 62)">
<title>hgps::RuntimeContext::set_current_time</title>
<!-- Node1 -->
<g id="node1" class="node">
<title>Node1</title>
<g id="a_node1"><a xlink:title=" ">
<polygon fill="#bfbfbf" stroke="black" points="173,-14 173,-44 298,-44 298,-14 173,-14"/>
<text text-anchor="start" x="181" y="-32" font-family="Helvetica,sans-Serif" font-size="10.00">hgps::RuntimeContext</text>
<text text-anchor="middle" x="235.5" y="-21" font-family="Helvetica,sans-Serif" font-size="10.00">::set_current_time</text>
</a>
</g>
</g>
<!-- Node2 -->
<g id="node2" class="node">
<title>Node2</title>
<g id="a_node2"><a xlink:href="classhgps_1_1HealthGPS.html#a2c23ed4aa847824887750396e4f28637" target="_top" xlink:title=" ">
<polygon fill="none" stroke="black" points="9,-38.5 9,-57.5 128,-57.5 128,-38.5 9,-38.5"/>
<text text-anchor="middle" x="68.5" y="-45.5" font-family="Helvetica,sans-Serif" font-size="10.00">hgps::HealthGPS::init</text>
</a>
</g>
</g>
<!-- Node1&#45;&gt;Node2 -->
<g id="edge1" class="edge">
<title>Node1&#45;&gt;Node2</title>
<path fill="none" stroke="midnightblue" d="M162.59,-37.28C151.1,-38.6 139.34,-39.96 128.21,-41.24"/>
<polygon fill="midnightblue" stroke="midnightblue" points="163.06,-40.75 172.59,-36.13 162.26,-33.8 163.06,-40.75"/>
</g>
<!-- Node3 -->
<g id="node3" class="node">
<title>Node3</title>
<g id="a_node3"><a xlink:href="classhgps_1_1HealthGPS.html#af36af9f5aacf623d283f72e9a7b2c411" target="_top" xlink:title=" ">
<polygon fill="none" stroke="black" points="0,-0.5 0,-19.5 137,-19.5 137,-0.5 0,-0.5"/>
<text text-anchor="middle" x="68.5" y="-7.5" font-family="Helvetica,sans-Serif" font-size="10.00">hgps::HealthGPS::update</text>
</a>
</g>
</g>
<!-- Node1&#45;&gt;Node3 -->
<g id="edge2" class="edge">
<title>Node1&#45;&gt;Node3</title>
<path fill="none" stroke="midnightblue" d="M162.4,-20.7C153.96,-19.73 145.38,-18.74 137.01,-17.77"/>
<polygon fill="midnightblue" stroke="midnightblue" points="162.26,-24.2 172.59,-21.87 163.06,-17.25 162.26,-24.2"/>
</g>
</g>
</svg>
