<?xml version="1.0" encoding="UTF-8" standalone="no"?>
<!DOCTYPE svg PUBLIC "-//W3C//DTD SVG 1.1//EN"
 "http://www.w3.org/Graphics/SVG/1.1/DTD/svg11.dtd">
<!-- Generated by graphviz version 2.43.0 (0)
 -->
<!-- Title: hgps::StaticHierarchicalLinearModel::update_risk_factors Pages: 1 -->
<svg width="335pt" height="137pt"
 viewBox="0.00 0.00 335.00 137.00" xmlns="http://www.w3.org/2000/svg" xmlns:xlink="http://www.w3.org/1999/xlink">
<g id="graph0" class="graph" transform="scale(1 1) rotate(0) translate(4 133)">
<title>hgps::StaticHierarchicalLinearModel::update_risk_factors</title>
<!-- Node1 -->
<g id="node1" class="node">
<title>Node1</title>
<g id="a_node1"><a xlink:title="Update risk factors for population.">
<polygon fill="#bfbfbf" stroke="black" points="0,-44 0,-85 140,-85 140,-44 0,-44"/>
<text text-anchor="start" x="8" y="-73" font-family="Helvetica,sans-Serif" font-size="10.00">hgps::StaticHierarchical</text>
<text text-anchor="start" x="8" y="-62" font-family="Helvetica,sans-Serif" font-size="10.00">LinearModel::update_risk</text>
<text text-anchor="middle" x="70" y="-51" font-family="Helvetica,sans-Serif" font-size="10.00">_factors</text>
</a>
</g>
</g>
<!-- Node2 -->
<g id="node2" class="node">
<title>Node2</title>
<g id="a_node2"><a xlink:href="classhgps_1_1HierarchicalMapping.html#a9773bbbb829cd02f3901ea6d9726adee" target="_top" xlink:title=" ">
<polygon fill="none" stroke="black" points="176,-98.5 176,-128.5 327,-128.5 327,-98.5 176,-98.5"/>
<text text-anchor="start" x="184" y="-116.5" font-family="Helvetica,sans-Serif" font-size="10.00">hgps::HierarchicalMapping</text>
<text text-anchor="middle" x="251.5" y="-105.5" font-family="Helvetica,sans-Serif" font-size="10.00">::at_level_without_dynamic</text>
</a>
</g>
</g>
<!-- Node1&#45;&gt;Node2 -->
<g id="edge1" class="edge">
<title>Node1&#45;&gt;Node2</title>
<path fill="none" stroke="midnightblue" d="M140.14,-83.37C154.99,-87.43 170.63,-91.7 185.32,-95.71"/>
<polygon fill="midnightblue" stroke="midnightblue" points="184.74,-99.18 195.31,-98.43 186.59,-92.43 184.74,-99.18"/>
</g>
<!-- Node3 -->
<g id="node3" class="node">
<title>Node3</title>
<g id="a_node3"><a xlink:href="classhgps_1_1RuntimeContext.html#a6b4e9897cf7892cafa62def6cb5cdfcf" target="_top" xlink:title=" ">
<polygon fill="none" stroke="black" points="189,-49.5 189,-79.5 314,-79.5 314,-49.5 189,-49.5"/>
<text text-anchor="start" x="197" y="-67.5" font-family="Helvetica,sans-Serif" font-size="10.00">hgps::RuntimeContext</text>
<text text-anchor="middle" x="251.5" y="-56.5" font-family="Helvetica,sans-Serif" font-size="10.00">::mapping</text>
</a>
</g>
</g>
<!-- Node1&#45;&gt;Node3 -->
<g id="edge2" class="edge">
<title>Node1&#45;&gt;Node3</title>
<path fill="none" stroke="midnightblue" d="M140.14,-64.5C152.77,-64.5 165.97,-64.5 178.67,-64.5"/>
<polygon fill="midnightblue" stroke="midnightblue" points="178.73,-68 188.73,-64.5 178.73,-61 178.73,-68"/>
</g>
<!-- Node4 -->
<g id="node4" class="node">
<title>Node4</title>
<g id="a_node4"><a xlink:href="classhgps_1_1RuntimeContext.html#a346d7fdd33294a4836c708b1073df653" target="_top" xlink:title=" ">
<polygon fill="none" stroke="black" points="189,-0.5 189,-30.5 314,-30.5 314,-0.5 189,-0.5"/>
<text text-anchor="start" x="197" y="-18.5" font-family="Helvetica,sans-Serif" font-size="10.00">hgps::RuntimeContext</text>
<text text-anchor="middle" x="251.5" y="-7.5" font-family="Helvetica,sans-Serif" font-size="10.00">::population</text>
</a>
</g>
</g>
<!-- Node1&#45;&gt;Node4 -->
<g id="edge3" class="edge">
<title>Node1&#45;&gt;Node4</title>
<path fill="none" stroke="midnightblue" d="M140.14,-45.63C154.99,-41.57 170.63,-37.3 185.32,-33.29"/>
<polygon fill="midnightblue" stroke="midnightblue" points="186.59,-36.57 195.31,-30.57 184.74,-29.82 186.59,-36.57"/>
</g>
</g>
</svg>
