<?xml version="1.0" encoding="UTF-8" standalone="no"?>
<!DOCTYPE svg PUBLIC "-//W3C//DTD SVG 1.1//EN"
 "http://www.w3.org/Graphics/SVG/1.1/DTD/svg11.dtd">
<!-- Generated by graphviz version 7.0.6 (20230106.0513)
 -->
<!-- Title: hgps::core::DataTableColumn::length Pages: 1 -->
<svg width="532pt" height="38pt"
 viewBox="0.00 0.00 532.00 38.00" xmlns="http://www.w3.org/2000/svg" xmlns:xlink="http://www.w3.org/1999/xlink">
<g id="graph0" class="graph" transform="scale(1 1) rotate(0) translate(4 34)">
<title>hgps::core::DataTableColumn::length</title>
<!-- Node1 -->
<g id="node1" class="node">
<title>Node1</title>
<g id="a_node1"><a xlink:title=" ">
<polygon fill="#999999" stroke="#666666" points="524,-30 379,-30 379,0 524,0 524,-30"/>
<text text-anchor="start" x="387" y="-18" font-family="Helvetica,sans-Serif" font-size="10.00">hgps::core::DataTableColumn</text>
<text text-anchor="middle" x="451.5" y="-7" font-family="Helvetica,sans-Serif" font-size="10.00">::length</text>
</a>
</g>
</g>
<!-- Node2 -->
<g id="node2" class="node">
<title>Node2</title>
<g id="a_node2"><a xlink:href="classhgps_1_1core_1_1_data_table.html#ae022bf3052be4728cce521ca87a54865" target="_top" xlink:title=" ">
<polygon fill="white" stroke="#666666" points="343,-24.5 209,-24.5 209,-5.5 343,-5.5 343,-24.5"/>
<text text-anchor="middle" x="276" y="-12.5" font-family="Helvetica,sans-Serif" font-size="10.00">hgps::core::DataTable::add</text>
</a>
</g>
</g>
<!-- Node1&#45;&gt;Node2 -->
<g id="edge1" class="edge">
<title>Node1&#45;&gt;Node2</title>
<path fill="none" stroke="#63b8ff" d="M367.4,-15C359.37,-15 351.31,-15 343.48,-15"/>
<polygon fill="#63b8ff" stroke="#63b8ff" points="367.16,-18.5 377.16,-15 367.16,-11.5 367.16,-18.5"/>
</g>
<!-- Node3 -->
<g id="node3" class="node">
<title>Node3</title>
<g id="a_node3"><a xlink:href="csvparser_8cpp.html#aa36bf705a50d4f460573db11852ca40c" target="_top" xlink:title=" ">
<polygon fill="white" stroke="#666666" points="173,-24.5 74,-24.5 74,-5.5 173,-5.5 173,-24.5"/>
<text text-anchor="middle" x="123.5" y="-12.5" font-family="Helvetica,sans-Serif" font-size="10.00">load_datatable_csv</text>
</a>
</g>
</g>
<!-- Node2&#45;&gt;Node3 -->
<g id="edge2" class="edge">
<title>Node2&#45;&gt;Node3</title>
<path fill="none" stroke="#63b8ff" d="M197.15,-15C189.08,-15 181.04,-15 173.42,-15"/>
<polygon fill="#63b8ff" stroke="#63b8ff" points="197.04,-18.5 207.04,-15 197.04,-11.5 197.04,-18.5"/>
</g>
<!-- Node4 -->
<g id="node4" class="node">
<title>Node4</title>
<g id="a_node4"><a xlink:href="program_8cpp.html#a0ddf1224851353fc92bfbff6f499fa97" target="_top" xlink:title=" ">
<polygon fill="white" stroke="#666666" points="38,-24.5 0,-24.5 0,-5.5 38,-5.5 38,-24.5"/>
<text text-anchor="middle" x="19" y="-12.5" font-family="Helvetica,sans-Serif" font-size="10.00">main</text>
</a>
</g>
</g>
<!-- Node3&#45;&gt;Node4 -->
<g id="edge3" class="edge">
<title>Node3&#45;&gt;Node4</title>
<path fill="none" stroke="#63b8ff" d="M62.18,-15C53.55,-15 45.27,-15 38.37,-15"/>
<polygon fill="#63b8ff" stroke="#63b8ff" points="62.14,-18.5 72.14,-15 62.14,-11.5 62.14,-18.5"/>
</g>
</g>
</svg>
