<?xml version="1.0" encoding="UTF-8" standalone="no"?>
<!DOCTYPE svg PUBLIC "-//W3C//DTD SVG 1.1//EN"
 "http://www.w3.org/Graphics/SVG/1.1/DTD/svg11.dtd">
<!-- Generated by graphviz version 2.43.0 (0)
 -->
<!-- Title: hgps::core::Array2D::rows Pages: 1 -->
<svg width="477pt" height="61pt"
 viewBox="0.00 0.00 477.00 61.00" xmlns="http://www.w3.org/2000/svg" xmlns:xlink="http://www.w3.org/1999/xlink">
<g id="graph0" class="graph" transform="scale(1 1) rotate(0) translate(4 57)">
<title>hgps::core::Array2D::rows</title>
<!-- Node1 -->
<g id="node1" class="node">
<title>Node1</title>
<g id="a_node1"><a xlink:title="Gets the number of rows in the array.">
<polygon fill="#bfbfbf" stroke="black" points="356,-22.5 356,-52.5 469,-52.5 469,-22.5 356,-22.5"/>
<text text-anchor="start" x="364" y="-40.5" font-family="Helvetica,sans-Serif" font-size="10.00">hgps::core::Array2D</text>
<text text-anchor="middle" x="412.5" y="-29.5" font-family="Helvetica,sans-Serif" font-size="10.00">::rows</text>
</a>
</g>
</g>
<!-- Node2 -->
<g id="node2" class="node">
<title>Node2</title>
<g id="a_node2"><a xlink:href="classhgps_1_1RelativeRiskLookup.html#ae807e285da2387e3b44ea68372b3f34c" target="_top" xlink:title="Initialises a new instance of the RelativeRiskLookup class.">
<polygon fill="none" stroke="black" points="0,-22.5 0,-52.5 142,-52.5 142,-22.5 0,-22.5"/>
<text text-anchor="start" x="8" y="-40.5" font-family="Helvetica,sans-Serif" font-size="10.00">hgps::RelativeRiskLookup</text>
<text text-anchor="middle" x="71" y="-29.5" font-family="Helvetica,sans-Serif" font-size="10.00">::RelativeRiskLookup</text>
</a>
</g>
</g>
<!-- Node1&#45;&gt;Node2 -->
<g id="edge1" class="edge">
<title>Node1&#45;&gt;Node2</title>
<path fill="none" stroke="midnightblue" d="M345.77,-39.91C337.1,-40.16 328.34,-40.36 320,-40.5 256.9,-41.53 241.1,-41.39 178,-40.5 166.4,-40.34 154.09,-40.07 142.13,-39.76"/>
<polygon fill="midnightblue" stroke="midnightblue" points="345.97,-43.41 355.86,-39.62 345.76,-36.41 345.97,-43.41"/>
</g>
<!-- Node3 -->
<g id="node3" class="node">
<title>Node3</title>
<g id="a_node3"><a xlink:href="classhgps_1_1RelativeRiskLookup.html#a7c41a6fb0004de0f0eb9c680ef511083" target="_top" xlink:title="Gets the number of rows lookup breakpoints.">
<polygon fill="none" stroke="black" points="178,-0.5 178,-30.5 320,-30.5 320,-0.5 178,-0.5"/>
<text text-anchor="start" x="186" y="-18.5" font-family="Helvetica,sans-Serif" font-size="10.00">hgps::RelativeRiskLookup</text>
<text text-anchor="middle" x="249" y="-7.5" font-family="Helvetica,sans-Serif" font-size="10.00">::rows</text>
</a>
</g>
</g>
<!-- Node1&#45;&gt;Node3 -->
<g id="edge2" class="edge">
<title>Node1&#45;&gt;Node3</title>
<path fill="none" stroke="midnightblue" d="M345.79,-28.55C337.37,-27.4 328.72,-26.22 320.23,-25.07"/>
<polygon fill="midnightblue" stroke="midnightblue" points="345.54,-32.05 355.92,-29.93 346.48,-25.11 345.54,-32.05"/>
</g>
<!-- Node3&#45;&gt;Node2 -->
<g id="edge3" class="edge">
<title>Node3&#45;&gt;Node2</title>
<path fill="none" stroke="midnightblue" d="M167.9,-25.51C159.29,-26.59 150.59,-27.68 142.11,-28.74"/>
<polygon fill="midnightblue" stroke="midnightblue" points="168.45,-28.97 177.93,-24.26 167.58,-22.03 168.45,-28.97"/>
</g>
</g>
</svg>
