<?xml version="1.0" encoding="UTF-8" standalone="no"?>
<!DOCTYPE svg PUBLIC "-//W3C//DTD SVG 1.1//EN"
 "http://www.w3.org/Graphics/SVG/1.1/DTD/svg11.dtd">
<!-- Generated by graphviz version 2.43.0 (0)
 -->
<!-- Title: hgps::DataSeries::add_channel Pages: 1 -->
<svg width="321pt" height="78pt"
 viewBox="0.00 0.00 321.00 77.50" xmlns="http://www.w3.org/2000/svg" xmlns:xlink="http://www.w3.org/1999/xlink">
<g id="graph0" class="graph" transform="scale(1 1) rotate(0) translate(4 73.5)">
<title>hgps::DataSeries::add_channel</title>
<!-- Node1 -->
<g id="node1" class="node">
<title>Node1</title>
<g id="a_node1"><a xlink:title=" ">
<polygon fill="#bfbfbf" stroke="black" points="0,-17 0,-47 123,-47 123,-17 0,-17"/>
<text text-anchor="start" x="8" y="-35" font-family="Helvetica,sans-Serif" font-size="10.00">hgps::DataSeries::add</text>
<text text-anchor="middle" x="61.5" y="-24" font-family="Helvetica,sans-Serif" font-size="10.00">_channel</text>
</a>
</g>
</g>
<!-- Node2 -->
<g id="node2" class="node">
<title>Node2</title>
<g id="a_node2"><a xlink:href="structhgps_1_1core_1_1case__insensitive.html#a83bdacfb623688d6405453d17ff798e6" target="_top" xlink:title="Checks whether a specified substring occurs within a ASCII string.">
<polygon fill="none" stroke="black" points="159,-39 159,-69 313,-69 313,-39 159,-39"/>
<text text-anchor="start" x="167" y="-57" font-family="Helvetica,sans-Serif" font-size="10.00">hgps::core::case_insensitive</text>
<text text-anchor="middle" x="236" y="-46" font-family="Helvetica,sans-Serif" font-size="10.00">::contains</text>
</a>
</g>
</g>
<!-- Node1&#45;&gt;Node2 -->
<g id="edge1" class="edge">
<title>Node1&#45;&gt;Node2</title>
<path fill="none" stroke="midnightblue" d="M123.32,-39.76C131.54,-40.81 140.11,-41.9 148.68,-42.99"/>
<polygon fill="midnightblue" stroke="midnightblue" points="148.35,-46.48 158.71,-44.27 149.24,-39.53 148.35,-46.48"/>
</g>
<!-- Node3 -->
<g id="node3" class="node">
<title>Node3</title>
<g id="a_node3"><a xlink:href="namespacehgps_1_1core.html#a502537e3fe210afb2531f156977eb2f6" target="_top" xlink:title="Converts the given ASCII string to lower&#45;case.">
<polygon fill="none" stroke="black" points="178.5,-0.5 178.5,-19.5 293.5,-19.5 293.5,-0.5 178.5,-0.5"/>
<text text-anchor="middle" x="236" y="-7.5" font-family="Helvetica,sans-Serif" font-size="10.00">hgps::core::to_lower</text>
</a>
</g>
</g>
<!-- Node1&#45;&gt;Node3 -->
<g id="edge2" class="edge">
<title>Node1&#45;&gt;Node3</title>
<path fill="none" stroke="midnightblue" d="M123.32,-24.24C137.9,-22.38 153.54,-20.39 168.37,-18.5"/>
<polygon fill="midnightblue" stroke="midnightblue" points="169.01,-21.95 178.48,-17.21 168.12,-15 169.01,-21.95"/>
</g>
</g>
</svg>
