<?xml version="1.0" encoding="UTF-8" standalone="no"?>
<!DOCTYPE svg PUBLIC "-//W3C//DTD SVG 1.1//EN"
 "http://www.w3.org/Graphics/SVG/1.1/DTD/svg11.dtd">
<!-- Generated by graphviz version 2.43.0 (0)
 -->
<!-- Title: hgps::core::UnivariateSummary::count_null Pages: 1 -->
<svg width="593pt" height="61pt"
 viewBox="0.00 0.00 593.00 61.00" xmlns="http://www.w3.org/2000/svg" xmlns:xlink="http://www.w3.org/1999/xlink">
<g id="graph0" class="graph" transform="scale(1 1) rotate(0) translate(4 57)">
<title>hgps::core::UnivariateSummary::count_null</title>
<!-- Node1 -->
<g id="node1" class="node">
<title>Node1</title>
<g id="a_node1"><a xlink:title="Gets the number of null data points, not included in the summary.">
<polygon fill="#bfbfbf" stroke="black" points="414,-0.5 414,-30.5 585,-30.5 585,-0.5 414,-0.5"/>
<text text-anchor="start" x="422" y="-18.5" font-family="Helvetica,sans-Serif" font-size="10.00">hgps::core::UnivariateSummary</text>
<text text-anchor="middle" x="499.5" y="-7.5" font-family="Helvetica,sans-Serif" font-size="10.00">::count_null</text>
</a>
</g>
</g>
<!-- Node2 -->
<g id="node2" class="node">
<title>Node2</title>
<g id="a_node2"><a xlink:href="classhgps_1_1core_1_1UnivariateSummary.html#a728329f04594446f26ab3c3cdab552ec" target="_top" xlink:title="Gets the total number of data points.">
<polygon fill="none" stroke="black" points="207,-22.5 207,-52.5 378,-52.5 378,-22.5 207,-22.5"/>
<text text-anchor="start" x="215" y="-40.5" font-family="Helvetica,sans-Serif" font-size="10.00">hgps::core::UnivariateSummary</text>
<text text-anchor="middle" x="292.5" y="-29.5" font-family="Helvetica,sans-Serif" font-size="10.00">::count_total</text>
</a>
</g>
</g>
<!-- Node1&#45;&gt;Node2 -->
<g id="edge1" class="edge">
<title>Node1&#45;&gt;Node2</title>
<path fill="none" stroke="midnightblue" d="M403.91,-25.65C395.34,-26.57 386.69,-27.5 378.2,-28.41"/>
<polygon fill="midnightblue" stroke="midnightblue" points="404.37,-29.12 413.94,-24.58 403.62,-22.16 404.37,-29.12"/>
</g>
<!-- Node3 -->
<g id="node3" class="node">
<title>Node3</title>
<g id="a_node3"><a xlink:href="classhgps_1_1core_1_1UnivariateSummary.html#a6495055dfccf8ab34cb6ac87bf343772" target="_top" xlink:title="Convert this instance to a string representation.">
<polygon fill="none" stroke="black" points="0,-0.5 0,-30.5 171,-30.5 171,-0.5 0,-0.5"/>
<text text-anchor="start" x="8" y="-18.5" font-family="Helvetica,sans-Serif" font-size="10.00">hgps::core::UnivariateSummary</text>
<text text-anchor="middle" x="85.5" y="-7.5" font-family="Helvetica,sans-Serif" font-size="10.00">::to_string</text>
</a>
</g>
</g>
<!-- Node1&#45;&gt;Node3 -->
<g id="edge3" class="edge">
<title>Node1&#45;&gt;Node3</title>
<path fill="none" stroke="midnightblue" d="M403.71,-13.78C395.02,-13.67 386.35,-13.57 378,-13.5 302,-12.87 283,-12.87 207,-13.5 195.39,-13.6 183.15,-13.74 171.1,-13.92"/>
<polygon fill="midnightblue" stroke="midnightblue" points="403.86,-17.28 413.9,-13.92 403.95,-10.28 403.86,-17.28"/>
</g>
<!-- Node2&#45;&gt;Node3 -->
<g id="edge2" class="edge">
<title>Node2&#45;&gt;Node3</title>
<path fill="none" stroke="midnightblue" d="M196.91,-27.35C188.34,-26.43 179.69,-25.5 171.2,-24.59"/>
<polygon fill="midnightblue" stroke="midnightblue" points="196.62,-30.84 206.94,-28.42 197.37,-23.88 196.62,-30.84"/>
</g>
</g>
</svg>
