<?xml version="1.0" encoding="UTF-8" standalone="no"?>
<!DOCTYPE svg PUBLIC "-//W3C//DTD SVG 1.1//EN"
 "http://www.w3.org/Graphics/SVG/1.1/DTD/svg11.dtd">
<!-- Generated by graphviz version 2.43.0 (0)
 -->
<!-- Title: hgps::core::DataTable::add Pages: 1 -->
<svg width="507pt" height="215pt"
 viewBox="0.00 0.00 507.00 214.50" xmlns="http://www.w3.org/2000/svg" xmlns:xlink="http://www.w3.org/1999/xlink">
<g id="graph0" class="graph" transform="scale(1 1) rotate(0) translate(4 210.5)">
<title>hgps::core::DataTable::add</title>
<!-- Node1 -->
<g id="node1" class="node">
<title>Node1</title>
<g id="a_node1"><a xlink:title=" ">
<polygon fill="#bfbfbf" stroke="black" points="0,-93.5 0,-112.5 146,-112.5 146,-93.5 0,-93.5"/>
<text text-anchor="middle" x="73" y="-100.5" font-family="Helvetica,sans-Serif" font-size="10.00">hgps::core::DataTable::add</text>
</a>
</g>
</g>
<!-- Node2 -->
<g id="node2" class="node">
<title>Node2</title>
<g id="a_node2"><a xlink:href="classhgps_1_1core_1_1DataTable.html#aea4b85552bb60b81746a68bdcf95e059" target="_top" xlink:title=" ">
<polygon fill="none" stroke="black" points="200.5,-176 200.5,-206 322.5,-206 322.5,-176 200.5,-176"/>
<text text-anchor="start" x="208.5" y="-194" font-family="Helvetica,sans-Serif" font-size="10.00">hgps::core::DataTable</text>
<text text-anchor="middle" x="261.5" y="-183" font-family="Helvetica,sans-Serif" font-size="10.00">::column</text>
</a>
</g>
</g>
<!-- Node1&#45;&gt;Node2 -->
<g id="edge1" class="edge">
<title>Node1&#45;&gt;Node2</title>
<path fill="none" stroke="midnightblue" d="M90.14,-112.51C110.97,-124.58 148.52,-145.69 182,-161 190.48,-164.88 199.61,-168.69 208.55,-172.22"/>
<polygon fill="midnightblue" stroke="midnightblue" points="207.54,-175.59 218.13,-175.94 210.07,-169.06 207.54,-175.59"/>
</g>
<!-- Node3 -->
<g id="node3" class="node">
<title>Node3</title>
<g id="a_node3"><a xlink:href="classhgps_1_1core_1_1DataTable.html#a5b4ada045a3551ea156edd2888fbb425" target="_top" xlink:title=" ">
<polygon fill="none" stroke="black" points="377,-154 377,-184 499,-184 499,-154 377,-154"/>
<text text-anchor="start" x="385" y="-172" font-family="Helvetica,sans-Serif" font-size="10.00">hgps::core::DataTable</text>
<text text-anchor="middle" x="438" y="-161" font-family="Helvetica,sans-Serif" font-size="10.00">::num_columns</text>
</a>
</g>
</g>
<!-- Node1&#45;&gt;Node3 -->
<g id="edge5" class="edge">
<title>Node1&#45;&gt;Node3</title>
<path fill="none" stroke="midnightblue" d="M112.35,-112.55C132.93,-117.5 158.77,-123.45 182,-128 244.19,-140.18 315.43,-151.41 366.78,-159.02"/>
<polygon fill="midnightblue" stroke="midnightblue" points="366.37,-162.5 376.77,-160.5 367.39,-155.58 366.37,-162.5"/>
</g>
<!-- Node4 -->
<g id="node4" class="node">
<title>Node4</title>
<g id="a_node4"><a xlink:href="classhgps_1_1core_1_1DataTableColumn.html#a6c4fca6541099b0471948cf9f00178bd" target="_top" xlink:title=" ">
<polygon fill="none" stroke="black" points="182,-88 182,-118 341,-118 341,-88 182,-88"/>
<text text-anchor="start" x="190" y="-106" font-family="Helvetica,sans-Serif" font-size="10.00">hgps::core::DataTableColumn</text>
<text text-anchor="middle" x="261.5" y="-95" font-family="Helvetica,sans-Serif" font-size="10.00">::length</text>
</a>
</g>
</g>
<!-- Node1&#45;&gt;Node4 -->
<g id="edge3" class="edge">
<title>Node1&#45;&gt;Node4</title>
<path fill="none" stroke="midnightblue" d="M146.11,-103C154.5,-103 163.14,-103 171.73,-103"/>
<polygon fill="midnightblue" stroke="midnightblue" points="171.78,-106.5 181.78,-103 171.78,-99.5 171.78,-106.5"/>
</g>
<!-- Node5 -->
<g id="node5" class="node">
<title>Node5</title>
<g id="a_node5"><a xlink:href="classhgps_1_1core_1_1DataTableColumn.html#aead9fbd8096b197bd3c1889f09af21d8" target="_top" xlink:title=" ">
<polygon fill="none" stroke="black" points="182,-39 182,-69 341,-69 341,-39 182,-39"/>
<text text-anchor="start" x="190" y="-57" font-family="Helvetica,sans-Serif" font-size="10.00">hgps::core::DataTableColumn</text>
<text text-anchor="middle" x="261.5" y="-46" font-family="Helvetica,sans-Serif" font-size="10.00">::name</text>
</a>
</g>
</g>
<!-- Node1&#45;&gt;Node5 -->
<g id="edge4" class="edge">
<title>Node1&#45;&gt;Node5</title>
<path fill="none" stroke="midnightblue" d="M110.4,-93.44C134.01,-87.23 165.49,-78.96 193.52,-71.6"/>
<polygon fill="midnightblue" stroke="midnightblue" points="194.49,-74.96 203.27,-69.04 192.71,-68.19 194.49,-74.96"/>
</g>
<!-- Node6 -->
<g id="node6" class="node">
<title>Node6</title>
<g id="a_node6"><a xlink:href="namespacehgps_1_1core.html#a502537e3fe210afb2531f156977eb2f6" target="_top" xlink:title=" ">
<polygon fill="none" stroke="black" points="204,-0.5 204,-19.5 319,-19.5 319,-0.5 204,-0.5"/>
<text text-anchor="middle" x="261.5" y="-7.5" font-family="Helvetica,sans-Serif" font-size="10.00">hgps::core::to_lower</text>
</a>
</g>
</g>
<!-- Node1&#45;&gt;Node6 -->
<g id="edge6" class="edge">
<title>Node1&#45;&gt;Node6</title>
<path fill="none" stroke="midnightblue" d="M85.19,-93.48C103.99,-77.96 143.6,-47.24 182,-30 188.29,-27.18 195.06,-24.7 201.88,-22.54"/>
<polygon fill="midnightblue" stroke="midnightblue" points="203.26,-25.78 211.87,-19.6 201.29,-19.07 203.26,-25.78"/>
</g>
<!-- Node2&#45;&gt;Node3 -->
<g id="edge2" class="edge">
<title>Node2&#45;&gt;Node3</title>
<path fill="none" stroke="midnightblue" d="M322.55,-183.43C336.81,-181.63 352.15,-179.7 366.81,-177.85"/>
<polygon fill="midnightblue" stroke="midnightblue" points="367.35,-181.31 376.84,-176.59 366.48,-174.36 367.35,-181.31"/>
</g>
</g>
</svg>
