<?xml version="1.0" encoding="UTF-8" standalone="no"?>
<!DOCTYPE svg PUBLIC "-//W3C//DTD SVG 1.1//EN"
 "http://www.w3.org/Graphics/SVG/1.1/DTD/svg11.dtd">
<!-- Generated by graphviz version 2.43.0 (0)
 -->
<!-- Title: hgps::HealthGPS Pages: 1 -->
<svg width="290pt" height="152pt"
 viewBox="0.00 0.00 289.50 152.00" xmlns="http://www.w3.org/2000/svg" xmlns:xlink="http://www.w3.org/1999/xlink">
<g id="graph0" class="graph" transform="scale(1 1) rotate(0) translate(4 148)">
<title>hgps::HealthGPS</title>
<!-- Node1 -->
<g id="node1" class="node">
<title>Node1</title>
<g id="a_node1"><a xlink:title=" ">
<polygon fill="#bfbfbf" stroke="black" points="84.5,-0.5 84.5,-19.5 182.5,-19.5 182.5,-0.5 84.5,-0.5"/>
<text text-anchor="middle" x="133.5" y="-7.5" font-family="Helvetica,sans-Serif" font-size="10.00">hgps::HealthGPS</text>
</a>
</g>
</g>
<!-- Node2 -->
<g id="node2" class="node">
<title>Node2</title>
<g id="a_node2"><a xlink:href="classhgps_1_1Simulation.html" target="_top" xlink:title=" ">
<polygon fill="none" stroke="black" points="84.5,-57.5 84.5,-76.5 182.5,-76.5 182.5,-57.5 84.5,-57.5"/>
<text text-anchor="middle" x="133.5" y="-64.5" font-family="Helvetica,sans-Serif" font-size="10.00">hgps::Simulation</text>
</a>
</g>
</g>
<!-- Node2&#45;&gt;Node1 -->
<g id="edge1" class="edge">
<title>Node2&#45;&gt;Node1</title>
<path fill="none" stroke="midnightblue" d="M133.5,-47.12C133.5,-37.82 133.5,-27.06 133.5,-19.71"/>
<polygon fill="midnightblue" stroke="midnightblue" points="130,-47.41 133.5,-57.41 137,-47.41 130,-47.41"/>
</g>
<!-- Node3 -->
<g id="node3" class="node">
<title>Node3</title>
<g id="a_node3"><a xlink:title=" ">
<polygon fill="none" stroke="#bfbfbf" points="0,-124.5 0,-143.5 117,-143.5 117,-124.5 0,-124.5"/>
<text text-anchor="middle" x="58.5" y="-131.5" font-family="Helvetica,sans-Serif" font-size="10.00">adevs::Model&lt; int &gt;</text>
</a>
</g>
</g>
<!-- Node3&#45;&gt;Node2 -->
<g id="edge2" class="edge">
<title>Node3&#45;&gt;Node2</title>
<path fill="none" stroke="midnightblue" d="M76.55,-117.36C91.29,-104.58 111.59,-86.99 123.55,-76.63"/>
<polygon fill="midnightblue" stroke="midnightblue" points="73.88,-115.04 68.61,-124.23 78.46,-120.33 73.88,-115.04"/>
</g>
<!-- Node4 -->
<g id="node4" class="node">
<title>Node4</title>
<g id="a_node4"><a xlink:href="structhgps_1_1SimulationDefinition.html" target="_top" xlink:title=" ">
<polygon fill="none" stroke="black" points="135.5,-124.5 135.5,-143.5 281.5,-143.5 281.5,-124.5 135.5,-124.5"/>
<text text-anchor="middle" x="208.5" y="-131.5" font-family="Helvetica,sans-Serif" font-size="10.00">hgps::SimulationDefinition</text>
</a>
</g>
</g>
<!-- Node4&#45;&gt;Node2 -->
<g id="edge3" class="edge">
<title>Node4&#45;&gt;Node2</title>
<path fill="none" stroke="#9a32cd" stroke-dasharray="5,2" d="M190.45,-117.36C175.71,-104.58 155.41,-86.99 143.45,-76.63"/>
<polygon fill="#9a32cd" stroke="#9a32cd" points="188.54,-120.33 198.39,-124.23 193.12,-115.04 188.54,-120.33"/>
<text text-anchor="middle" x="202" y="-98" font-family="Helvetica,sans-Serif" font-size="10.00"> definition_</text>
</g>
</g>
</svg>
