<?xml version="1.0" encoding="UTF-8" standalone="no"?>
<!DOCTYPE svg PUBLIC "-//W3C//DTD SVG 1.1//EN"
 "http://www.w3.org/Graphics/SVG/1.1/DTD/svg11.dtd">
<!-- Generated by graphviz version 7.0.6 (20230106.0513)
 -->
<!-- Title: hgps::core::DataTableColumn Pages: 1 -->
<svg width="501pt" height="230pt"
 viewBox="0.00 0.00 501.00 230.00" xmlns="http://www.w3.org/2000/svg" xmlns:xlink="http://www.w3.org/1999/xlink">
<g id="graph0" class="graph" transform="scale(1 1) rotate(0) translate(4 226)">
<title>hgps::core::DataTableColumn</title>
<!-- Node1 -->
<g id="node1" class="node">
<title>Node1</title>
<g id="a_node1"><a xlink:title=" ">
<polygon fill="#999999" stroke="#666666" points="145,-120.5 0,-120.5 0,-101.5 145,-101.5 145,-120.5"/>
<text text-anchor="middle" x="72.5" y="-108.5" font-family="Helvetica,sans-Serif" font-size="10.00">hgps::core::DataTableColumn</text>
</a>
</g>
</g>
<!-- Node2 -->
<g id="node2" class="node">
<title>Node2</title>
<g id="a_node2"><a xlink:href="classhgps_1_1core_1_1_primitive_data_table_column.html" target="_top" xlink:title=" ">
<polygon fill="white" stroke="#666666" points="310.5,-222 185.5,-222 185.5,-192 310.5,-192 310.5,-222"/>
<text text-anchor="start" x="193.5" y="-210" font-family="Helvetica,sans-Serif" font-size="10.00">hgps::core::PrimitiveData</text>
<text text-anchor="middle" x="248" y="-199" font-family="Helvetica,sans-Serif" font-size="10.00">TableColumn&lt; double &gt;</text>
</a>
</g>
</g>
<!-- Node1&#45;&gt;Node2 -->
<g id="edge1" class="edge">
<title>Node1&#45;&gt;Node2</title>
<path fill="none" stroke="#63b8ff" d="M95.14,-127.78C116.19,-143.54 149.53,-167.03 181,-183 187.09,-186.09 193.67,-188.97 200.24,-191.6"/>
<polygon fill="#63b8ff" stroke="#63b8ff" points="97.4,-125.11 87.32,-121.85 93.17,-130.68 97.4,-125.11"/>
</g>
<!-- Node4 -->
<g id="node4" class="node">
<title>Node4</title>
<g id="a_node4"><a xlink:href="classhgps_1_1core_1_1_primitive_data_table_column.html" target="_top" xlink:title=" ">
<polygon fill="white" stroke="#666666" points="310.5,-174 185.5,-174 185.5,-144 310.5,-144 310.5,-174"/>
<text text-anchor="start" x="193.5" y="-162" font-family="Helvetica,sans-Serif" font-size="10.00">hgps::core::PrimitiveData</text>
<text text-anchor="middle" x="248" y="-151" font-family="Helvetica,sans-Serif" font-size="10.00">TableColumn&lt; float &gt;</text>
</a>
</g>
</g>
<!-- Node1&#45;&gt;Node4 -->
<g id="edge3" class="edge">
<title>Node1&#45;&gt;Node4</title>
<path fill="none" stroke="#63b8ff" d="M120.44,-123.99C142.29,-130.03 168.44,-137.26 191.28,-143.58"/>
<polygon fill="#63b8ff" stroke="#63b8ff" points="121.48,-120.64 110.91,-121.35 119.61,-127.39 121.48,-120.64"/>
</g>
<!-- Node6 -->
<g id="node6" class="node">
<title>Node6</title>
<g id="a_node6"><a xlink:href="classhgps_1_1core_1_1_primitive_data_table_column.html" target="_top" xlink:title=" ">
<polygon fill="white" stroke="#666666" points="310.5,-126 185.5,-126 185.5,-96 310.5,-96 310.5,-126"/>
<text text-anchor="start" x="193.5" y="-114" font-family="Helvetica,sans-Serif" font-size="10.00">hgps::core::PrimitiveData</text>
<text text-anchor="middle" x="248" y="-103" font-family="Helvetica,sans-Serif" font-size="10.00">TableColumn&lt; int &gt;</text>
</a>
</g>
</g>
<!-- Node1&#45;&gt;Node6 -->
<g id="edge5" class="edge">
<title>Node1&#45;&gt;Node6</title>
<path fill="none" stroke="#63b8ff" d="M156.58,-111C166.21,-111 175.91,-111 185.19,-111"/>
<polygon fill="#63b8ff" stroke="#63b8ff" points="156.84,-107.5 146.84,-111 156.84,-114.5 156.84,-107.5"/>
</g>
<!-- Node8 -->
<g id="node8" class="node">
<title>Node8</title>
<g id="a_node8"><a xlink:href="classhgps_1_1core_1_1_primitive_data_table_column.html" target="_top" xlink:title=" ">
<polygon fill="white" stroke="#666666" points="315,-78 181,-78 181,-48 315,-48 315,-78"/>
<text text-anchor="start" x="189" y="-66" font-family="Helvetica,sans-Serif" font-size="10.00">hgps::core::PrimitiveData</text>
<text text-anchor="middle" x="248" y="-55" font-family="Helvetica,sans-Serif" font-size="10.00">TableColumn&lt; std::string &gt;</text>
</a>
</g>
</g>
<!-- Node1&#45;&gt;Node8 -->
<g id="edge7" class="edge">
<title>Node1&#45;&gt;Node8</title>
<path fill="none" stroke="#63b8ff" d="M120.44,-98.01C142.29,-91.97 168.44,-84.74 191.28,-78.42"/>
<polygon fill="#63b8ff" stroke="#63b8ff" points="119.61,-94.61 110.91,-100.65 121.48,-101.36 119.61,-94.61"/>
</g>
<!-- Node10 -->
<g id="node10" class="node">
<title>Node10</title>
<g id="a_node10"><a xlink:href="classhgps_1_1core_1_1_primitive_data_table_column.html" target="_top" xlink:title=" ">
<polygon fill="white" stroke="#666666" points="310.5,-30 185.5,-30 185.5,0 310.5,0 310.5,-30"/>
<text text-anchor="start" x="193.5" y="-18" font-family="Helvetica,sans-Serif" font-size="10.00">hgps::core::PrimitiveData</text>
<text text-anchor="middle" x="248" y="-7" font-family="Helvetica,sans-Serif" font-size="10.00">TableColumn&lt; TYPE &gt;</text>
</a>
</g>
</g>
<!-- Node1&#45;&gt;Node10 -->
<g id="edge9" class="edge">
<title>Node1&#45;&gt;Node10</title>
<path fill="none" stroke="#63b8ff" d="M95.14,-94.22C116.19,-78.46 149.53,-54.97 181,-39 187.09,-35.91 193.67,-33.03 200.24,-30.4"/>
<polygon fill="#63b8ff" stroke="#63b8ff" points="93.17,-91.32 87.32,-100.15 97.4,-96.89 93.17,-91.32"/>
</g>
<!-- Node3 -->
<g id="node3" class="node">
<title>Node3</title>
<g id="a_node3"><a xlink:href="classhgps_1_1core_1_1_double_data_table_column.html" target="_top" xlink:title=" ">
<polygon fill="white" stroke="#666666" points="493,-222 351,-222 351,-192 493,-192 493,-222"/>
<text text-anchor="start" x="359" y="-210" font-family="Helvetica,sans-Serif" font-size="10.00">hgps::core::DoubleDataTable</text>
<text text-anchor="middle" x="422" y="-199" font-family="Helvetica,sans-Serif" font-size="10.00">Column</text>
</a>
</g>
</g>
<!-- Node2&#45;&gt;Node3 -->
<g id="edge2" class="edge">
<title>Node2&#45;&gt;Node3</title>
<path fill="none" stroke="#63b8ff" d="M322.07,-207C331.57,-207 341.29,-207 350.75,-207"/>
<polygon fill="#63b8ff" stroke="#63b8ff" points="322.12,-203.5 312.12,-207 322.12,-210.5 322.12,-203.5"/>
</g>
<!-- Node5 -->
<g id="node5" class="node">
<title>Node5</title>
<g id="a_node5"><a xlink:href="classhgps_1_1core_1_1_float_data_table_column.html" target="_top" xlink:title=" ">
<polygon fill="white" stroke="#666666" points="489,-174 355,-174 355,-144 489,-144 489,-174"/>
<text text-anchor="start" x="363" y="-162" font-family="Helvetica,sans-Serif" font-size="10.00">hgps::core::FloatDataTable</text>
<text text-anchor="middle" x="422" y="-151" font-family="Helvetica,sans-Serif" font-size="10.00">Column</text>
</a>
</g>
</g>
<!-- Node4&#45;&gt;Node5 -->
<g id="edge4" class="edge">
<title>Node4&#45;&gt;Node5</title>
<path fill="none" stroke="#63b8ff" d="M321.81,-159C332.68,-159 343.85,-159 354.58,-159"/>
<polygon fill="#63b8ff" stroke="#63b8ff" points="322.12,-155.5 312.12,-159 322.12,-162.5 322.12,-155.5"/>
</g>
<!-- Node7 -->
<g id="node7" class="node">
<title>Node7</title>
<g id="a_node7"><a xlink:href="classhgps_1_1core_1_1_integer_data_table_column.html" target="_top" xlink:title=" ">
<polygon fill="white" stroke="#666666" points="492.5,-126 351.5,-126 351.5,-96 492.5,-96 492.5,-126"/>
<text text-anchor="start" x="359.5" y="-114" font-family="Helvetica,sans-Serif" font-size="10.00">hgps::core::IntegerDataTable</text>
<text text-anchor="middle" x="422" y="-103" font-family="Helvetica,sans-Serif" font-size="10.00">Column</text>
</a>
</g>
</g>
<!-- Node6&#45;&gt;Node7 -->
<g id="edge6" class="edge">
<title>Node6&#45;&gt;Node7</title>
<path fill="none" stroke="#63b8ff" d="M321.84,-111C331.51,-111 341.42,-111 351.05,-111"/>
<polygon fill="#63b8ff" stroke="#63b8ff" points="322.12,-107.5 312.12,-111 322.12,-114.5 322.12,-107.5"/>
</g>
<!-- Node9 -->
<g id="node9" class="node">
<title>Node9</title>
<g id="a_node9"><a xlink:href="classhgps_1_1core_1_1_string_data_table_column.html" target="_top" xlink:title=" ">
<polygon fill="white" stroke="#666666" points="490.5,-78 353.5,-78 353.5,-48 490.5,-48 490.5,-78"/>
<text text-anchor="start" x="361.5" y="-66" font-family="Helvetica,sans-Serif" font-size="10.00">hgps::core::StringDataTable</text>
<text text-anchor="middle" x="422" y="-55" font-family="Helvetica,sans-Serif" font-size="10.00">Column</text>
</a>
</g>
</g>
<!-- Node8&#45;&gt;Node9 -->
<g id="edge8" class="edge">
<title>Node8&#45;&gt;Node9</title>
<path fill="none" stroke="#63b8ff" d="M326.95,-63C335.73,-63 344.62,-63 353.26,-63"/>
<polygon fill="#63b8ff" stroke="#63b8ff" points="327.01,-59.5 317.01,-63 327.01,-66.5 327.01,-59.5"/>
</g>
</g>
</svg>
