<?xml version="1.0" encoding="UTF-8" standalone="no"?>
<!DOCTYPE svg PUBLIC "-//W3C//DTD SVG 1.1//EN"
 "http://www.w3.org/Graphics/SVG/1.1/DTD/svg11.dtd">
<!-- Generated by graphviz version 2.43.0 (0)
 -->
<!-- Title: hgps::core::PrimitiveDataTableColumn::size Pages: 1 -->
<svg width="500pt" height="161pt"
 viewBox="0.00 0.00 500.00 161.00" xmlns="http://www.w3.org/2000/svg" xmlns:xlink="http://www.w3.org/1999/xlink">
<g id="graph0" class="graph" transform="scale(1 1) rotate(0) translate(4 157)">
<title>hgps::core::PrimitiveDataTableColumn::size</title>
<!-- Node1 -->
<g id="node1" class="node">
<title>Node1</title>
<g id="a_node1"><a xlink:title="The size of the column data, number of rows.">
<polygon fill="#bfbfbf" stroke="black" points="352,-73.5 352,-103.5 492,-103.5 492,-73.5 352,-73.5"/>
<text text-anchor="start" x="360" y="-91.5" font-family="Helvetica,sans-Serif" font-size="10.00">hgps::core::PrimitiveData</text>
<text text-anchor="middle" x="422" y="-80.5" font-family="Helvetica,sans-Serif" font-size="10.00">TableColumn::size</text>
</a>
</g>
</g>
<!-- Node2 -->
<g id="node2" class="node">
<title>Node2</title>
<g id="a_node2"><a xlink:href="classhgps_1_1core_1_1PrimitiveDataTableColumn.html#aa5126870cfcb17847f77fcfe30f1a37e" target="_top" xlink:title="Gets the iterator element following the last element of the column.">
<polygon fill="none" stroke="black" points="176,-122.5 176,-152.5 316,-152.5 316,-122.5 176,-122.5"/>
<text text-anchor="start" x="184" y="-140.5" font-family="Helvetica,sans-Serif" font-size="10.00">hgps::core::PrimitiveData</text>
<text text-anchor="middle" x="246" y="-129.5" font-family="Helvetica,sans-Serif" font-size="10.00">TableColumn::end</text>
</a>
</g>
</g>
<!-- Node1&#45;&gt;Node2 -->
<g id="edge1" class="edge">
<title>Node1&#45;&gt;Node2</title>
<path fill="none" stroke="midnightblue" d="M357.72,-106.32C338.93,-111.61 318.55,-117.35 300.45,-122.45"/>
<polygon fill="midnightblue" stroke="midnightblue" points="358.7,-109.68 367.37,-103.6 356.8,-102.94 358.7,-109.68"/>
</g>
<!-- Node3 -->
<g id="node3" class="node">
<title>Node3</title>
<g id="a_node3"><a xlink:href="classhgps_1_1core_1_1PrimitiveDataTableColumn.html#a2611bd155afb6b2c802850f80bc0b438" target="_top" xlink:title="Determine whether a column value is null.">
<polygon fill="none" stroke="black" points="176,-73.5 176,-103.5 316,-103.5 316,-73.5 176,-73.5"/>
<text text-anchor="start" x="184" y="-91.5" font-family="Helvetica,sans-Serif" font-size="10.00">hgps::core::PrimitiveData</text>
<text text-anchor="middle" x="246" y="-80.5" font-family="Helvetica,sans-Serif" font-size="10.00">TableColumn::is_null</text>
</a>
</g>
</g>
<!-- Node1&#45;&gt;Node3 -->
<g id="edge2" class="edge">
<title>Node1&#45;&gt;Node3</title>
<path fill="none" stroke="midnightblue" d="M341.97,-88.5C333.38,-88.5 324.68,-88.5 316.22,-88.5"/>
<polygon fill="midnightblue" stroke="midnightblue" points="341.98,-92 351.98,-88.5 341.98,-85 341.98,-92"/>
</g>
<!-- Node4 -->
<g id="node4" class="node">
<title>Node4</title>
<g id="a_node4"><a xlink:href="classhgps_1_1core_1_1PrimitiveDataTableColumn.html#aabf60a23ea7dbd86649a581a79db8fba" target="_top" xlink:title="Determine whether a column value is not null.">
<polygon fill="none" stroke="black" points="176,-24.5 176,-54.5 316,-54.5 316,-24.5 176,-24.5"/>
<text text-anchor="start" x="184" y="-42.5" font-family="Helvetica,sans-Serif" font-size="10.00">hgps::core::PrimitiveData</text>
<text text-anchor="middle" x="246" y="-31.5" font-family="Helvetica,sans-Serif" font-size="10.00">TableColumn::is_valid</text>
</a>
</g>
</g>
<!-- Node1&#45;&gt;Node4 -->
<g id="edge3" class="edge">
<title>Node1&#45;&gt;Node4</title>
<path fill="none" stroke="midnightblue" d="M357.72,-70.68C338.93,-65.39 318.55,-59.65 300.45,-54.55"/>
<polygon fill="midnightblue" stroke="midnightblue" points="356.8,-74.06 367.37,-73.4 358.7,-67.32 356.8,-74.06"/>
</g>
<!-- Node5 -->
<g id="node5" class="node">
<title>Node5</title>
<g id="a_node5"><a xlink:href="classhgps_1_1core_1_1PrimitiveDataTableColumn.html#a3f6c98d0500418b4a2a89095e8d1af57" target="_top" xlink:title="Gets the column value at a given index.">
<polygon fill="none" stroke="black" points="0,-49.5 0,-79.5 140,-79.5 140,-49.5 0,-49.5"/>
<text text-anchor="start" x="8" y="-67.5" font-family="Helvetica,sans-Serif" font-size="10.00">hgps::core::PrimitiveData</text>
<text text-anchor="middle" x="70" y="-56.5" font-family="Helvetica,sans-Serif" font-size="10.00">TableColumn::value</text>
</a>
</g>
</g>
<!-- Node4&#45;&gt;Node5 -->
<g id="edge4" class="edge">
<title>Node4&#45;&gt;Node5</title>
<path fill="none" stroke="midnightblue" d="M165.97,-50.86C157.38,-52.09 148.68,-53.34 140.22,-54.55"/>
<polygon fill="midnightblue" stroke="midnightblue" points="166.58,-54.3 175.98,-49.42 165.58,-47.37 166.58,-54.3"/>
</g>
<!-- Node6 -->
<g id="node6" class="node">
<title>Node6</title>
<g id="a_node6"><a xlink:href="classhgps_1_1core_1_1PrimitiveDataTableColumn.html#a6e571415ddd86575a3111e9a805c45b2" target="_top" xlink:title="Gets the column value at a given index.">
<polygon fill="none" stroke="black" points="0,-0.5 0,-30.5 140,-30.5 140,-0.5 0,-0.5"/>
<text text-anchor="start" x="8" y="-18.5" font-family="Helvetica,sans-Serif" font-size="10.00">hgps::core::PrimitiveData</text>
<text text-anchor="middle" x="70" y="-7.5" font-family="Helvetica,sans-Serif" font-size="10.00">TableColumn::value_safe</text>
</a>
</g>
</g>
<!-- Node4&#45;&gt;Node6 -->
<g id="edge5" class="edge">
<title>Node4&#45;&gt;Node6</title>
<path fill="none" stroke="midnightblue" d="M165.97,-28.6C157.38,-27.41 148.68,-26.21 140.22,-25.05"/>
<polygon fill="midnightblue" stroke="midnightblue" points="165.6,-32.08 175.98,-29.98 166.55,-25.15 165.6,-32.08"/>
</g>
</g>
</svg>
