<?xml version="1.0" encoding="UTF-8" standalone="no"?>
<!DOCTYPE svg PUBLIC "-//W3C//DTD SVG 1.1//EN"
 "http://www.w3.org/Graphics/SVG/1.1/DTD/svg11.dtd">
<!-- Generated by graphviz version 7.0.6 (20230106.0513)
 -->
<!-- Title: hgps::core::PrimitiveDataTableColumn::length Pages: 1 -->
<svg width="455pt" height="158pt"
 viewBox="0.00 0.00 455.00 158.00" xmlns="http://www.w3.org/2000/svg" xmlns:xlink="http://www.w3.org/1999/xlink">
<g id="graph0" class="graph" transform="scale(1 1) rotate(0) translate(4 154)">
<title>hgps::core::PrimitiveDataTableColumn::length</title>
<!-- Node1 -->
<g id="node1" class="node">
<title>Node1</title>
<g id="a_node1"><a xlink:title=" ">
<polygon fill="#999999" stroke="#666666" points="447,-102 322,-102 322,-72 447,-72 447,-102"/>
<text text-anchor="start" x="330" y="-90" font-family="Helvetica,sans-Serif" font-size="10.00">hgps::core::PrimitiveData</text>
<text text-anchor="middle" x="384.5" y="-79" font-family="Helvetica,sans-Serif" font-size="10.00">TableColumn::length</text>
</a>
</g>
</g>
<!-- Node2 -->
<g id="node2" class="node">
<title>Node2</title>
<g id="a_node2"><a xlink:href="classhgps_1_1core_1_1_primitive_data_table_column.html#aa5126870cfcb17847f77fcfe30f1a37e" target="_top" xlink:title=" ">
<polygon fill="white" stroke="#666666" points="286,-150 161,-150 161,-120 286,-120 286,-150"/>
<text text-anchor="start" x="169" y="-138" font-family="Helvetica,sans-Serif" font-size="10.00">hgps::core::PrimitiveData</text>
<text text-anchor="middle" x="223.5" y="-127" font-family="Helvetica,sans-Serif" font-size="10.00">TableColumn::end</text>
</a>
</g>
</g>
<!-- Node1&#45;&gt;Node2 -->
<g id="edge1" class="edge">
<title>Node1&#45;&gt;Node2</title>
<path fill="none" stroke="#63b8ff" d="M321.45,-105.73C306.27,-110.32 290.19,-115.17 275.59,-119.58"/>
<polygon fill="#63b8ff" stroke="#63b8ff" points="322.31,-109.13 330.87,-102.89 320.28,-102.43 322.31,-109.13"/>
</g>
<!-- Node3 -->
<g id="node3" class="node">
<title>Node3</title>
<g id="a_node3"><a xlink:href="classhgps_1_1core_1_1_primitive_data_table_column.html#a2611bd155afb6b2c802850f80bc0b438" target="_top" xlink:title="Checks if value at column index is null.">
<polygon fill="white" stroke="#666666" points="286,-102 161,-102 161,-72 286,-72 286,-102"/>
<text text-anchor="start" x="169" y="-90" font-family="Helvetica,sans-Serif" font-size="10.00">hgps::core::PrimitiveData</text>
<text text-anchor="middle" x="223.5" y="-79" font-family="Helvetica,sans-Serif" font-size="10.00">TableColumn::is_null</text>
</a>
</g>
</g>
<!-- Node1&#45;&gt;Node3 -->
<g id="edge2" class="edge">
<title>Node1&#45;&gt;Node3</title>
<path fill="none" stroke="#63b8ff" d="M310.3,-87C302.26,-87 294.14,-87 286.26,-87"/>
<polygon fill="#63b8ff" stroke="#63b8ff" points="310.06,-90.5 320.06,-87 310.06,-83.5 310.06,-90.5"/>
</g>
<!-- Node4 -->
<g id="node4" class="node">
<title>Node4</title>
<g id="a_node4"><a xlink:href="classhgps_1_1core_1_1_primitive_data_table_column.html#aabf60a23ea7dbd86649a581a79db8fba" target="_top" xlink:title="Checks if value at column index is null, does not bounds check.">
<polygon fill="white" stroke="#666666" points="286,-54 161,-54 161,-24 286,-24 286,-54"/>
<text text-anchor="start" x="169" y="-42" font-family="Helvetica,sans-Serif" font-size="10.00">hgps::core::PrimitiveData</text>
<text text-anchor="middle" x="223.5" y="-31" font-family="Helvetica,sans-Serif" font-size="10.00">TableColumn::is_valid</text>
</a>
</g>
</g>
<!-- Node1&#45;&gt;Node4 -->
<g id="edge3" class="edge">
<title>Node1&#45;&gt;Node4</title>
<path fill="none" stroke="#63b8ff" d="M321.45,-68.27C306.27,-63.68 290.19,-58.83 275.59,-54.42"/>
<polygon fill="#63b8ff" stroke="#63b8ff" points="320.28,-71.57 330.87,-71.11 322.31,-64.87 320.28,-71.57"/>
</g>
<!-- Node5 -->
<g id="node5" class="node">
<title>Node5</title>
<g id="a_node5"><a xlink:href="classhgps_1_1core_1_1_primitive_data_table_column.html#a3f6c98d0500418b4a2a89095e8d1af57" target="_top" xlink:title=" ">
<polygon fill="white" stroke="#666666" points="125,-78 0,-78 0,-48 125,-48 125,-78"/>
<text text-anchor="start" x="8" y="-66" font-family="Helvetica,sans-Serif" font-size="10.00">hgps::core::PrimitiveData</text>
<text text-anchor="middle" x="62.5" y="-55" font-family="Helvetica,sans-Serif" font-size="10.00">TableColumn::value</text>
</a>
</g>
</g>
<!-- Node4&#45;&gt;Node5 -->
<g id="edge4" class="edge">
<title>Node4&#45;&gt;Node5</title>
<path fill="none" stroke="#63b8ff" d="M149.3,-50.05C141.26,-51.26 133.14,-52.49 125.26,-53.68"/>
<polygon fill="#63b8ff" stroke="#63b8ff" points="149.71,-53.53 159.07,-48.57 148.66,-46.61 149.71,-53.53"/>
</g>
<!-- Node6 -->
<g id="node6" class="node">
<title>Node6</title>
<g id="a_node6"><a xlink:href="classhgps_1_1core_1_1_primitive_data_table_column.html#a7b634260f244827ba4eae5d958fafde4" target="_top" xlink:title=" ">
<polygon fill="white" stroke="#666666" points="125,-30 0,-30 0,0 125,0 125,-30"/>
<text text-anchor="start" x="8" y="-18" font-family="Helvetica,sans-Serif" font-size="10.00">hgps::core::PrimitiveData</text>
<text text-anchor="middle" x="62.5" y="-7" font-family="Helvetica,sans-Serif" font-size="10.00">TableColumn::value_safe</text>
</a>
</g>
</g>
<!-- Node4&#45;&gt;Node6 -->
<g id="edge5" class="edge">
<title>Node4&#45;&gt;Node6</title>
<path fill="none" stroke="#63b8ff" d="M149.3,-27.95C141.26,-26.74 133.14,-25.51 125.26,-24.32"/>
<polygon fill="#63b8ff" stroke="#63b8ff" points="148.66,-31.39 159.07,-29.43 149.71,-24.47 148.66,-31.39"/>
</g>
</g>
</svg>
