<?xml version="1.0" encoding="UTF-8" standalone="no"?>
<!DOCTYPE svg PUBLIC "-//W3C//DTD SVG 1.1//EN"
 "http://www.w3.org/Graphics/SVG/1.1/DTD/svg11.dtd">
<!-- Generated by graphviz version 7.0.6 (20230106.0513)
 -->
<!-- Title: HealthGPS.Core/column_numeric.h Pages: 1 -->
<svg width="396pt" height="313pt"
 viewBox="0.00 0.00 396.00 313.00" xmlns="http://www.w3.org/2000/svg" xmlns:xlink="http://www.w3.org/1999/xlink">
<g id="graph0" class="graph" transform="scale(1 1) rotate(0) translate(4 309)">
<title>HealthGPS.Core/column_numeric.h</title>
<!-- Node1 -->
<g id="node1" class="node">
<title>Node1</title>
<g id="a_node1"><a xlink:title=" ">
<polygon fill="#999999" stroke="#666666" points="220.5,-305 97.5,-305 97.5,-275 220.5,-275 220.5,-305"/>
<text text-anchor="start" x="105.5" y="-293" font-family="Helvetica,sans-Serif" font-size="10.00">HealthGPS.Core/column</text>
<text text-anchor="middle" x="159" y="-282" font-family="Helvetica,sans-Serif" font-size="10.00">_numeric.h</text>
</a>
</g>
</g>
<!-- Node2 -->
<g id="node2" class="node">
<title>Node2</title>
<g id="a_node2"><a xlink:href="column__primitive_8h.html" target="_top" xlink:title=" ">
<polygon fill="white" stroke="#666666" points="207.5,-239 110.5,-239 110.5,-220 207.5,-220 207.5,-239"/>
<text text-anchor="middle" x="159" y="-227" font-family="Helvetica,sans-Serif" font-size="10.00">column_primitive.h</text>
</a>
</g>
</g>
<!-- Node1&#45;&gt;Node2 -->
<g id="edge1" class="edge">
<title>Node1&#45;&gt;Node2</title>
<path fill="none" stroke="#63b8ff" d="M159,-274.54C159,-267.34 159,-258.53 159,-250.68"/>
<polygon fill="#63b8ff" stroke="#63b8ff" points="162.5,-250.69 159,-240.69 155.5,-250.69 162.5,-250.69"/>
</g>
<!-- Node3 -->
<g id="node3" class="node">
<title>Node3</title>
<g id="a_node3"><a xlink:title=" ">
<polygon fill="#e0e0e0" stroke="#999999" points="56,-184 0,-184 0,-165 56,-165 56,-184"/>
<text text-anchor="middle" x="28" y="-172" font-family="Helvetica,sans-Serif" font-size="10.00">algorithm</text>
</a>
</g>
</g>
<!-- Node2&#45;&gt;Node3 -->
<g id="edge2" class="edge">
<title>Node2&#45;&gt;Node3</title>
<path fill="none" stroke="#63b8ff" d="M136.78,-219.51C115.86,-211.04 84.27,-198.27 60.52,-188.66"/>
<polygon fill="#63b8ff" stroke="#63b8ff" points="61.88,-185.43 51.3,-184.93 59.25,-191.92 61.88,-185.43"/>
</g>
<!-- Node4 -->
<g id="node4" class="node">
<title>Node4</title>
<g id="a_node4"><a xlink:title=" ">
<polygon fill="#e0e0e0" stroke="#999999" points="116,-184 74,-184 74,-165 116,-165 116,-184"/>
<text text-anchor="middle" x="95" y="-172" font-family="Helvetica,sans-Serif" font-size="10.00">vector</text>
</a>
</g>
</g>
<!-- Node2&#45;&gt;Node4 -->
<g id="edge3" class="edge">
<title>Node2&#45;&gt;Node4</title>
<path fill="none" stroke="#63b8ff" d="M148.14,-219.51C138.89,-211.85 125.38,-200.66 114.29,-191.47"/>
<polygon fill="#63b8ff" stroke="#63b8ff" points="116.8,-189.01 106.86,-185.32 112.33,-194.4 116.8,-189.01"/>
</g>
<!-- Node5 -->
<g id="node5" class="node">
<title>Node5</title>
<g id="a_node5"><a xlink:title=" ">
<polygon fill="#e0e0e0" stroke="#999999" points="184,-184 134,-184 134,-165 184,-165 184,-184"/>
<text text-anchor="middle" x="159" y="-172" font-family="Helvetica,sans-Serif" font-size="10.00">optional</text>
</a>
</g>
</g>
<!-- Node2&#45;&gt;Node5 -->
<g id="edge4" class="edge">
<title>Node2&#45;&gt;Node5</title>
<path fill="none" stroke="#63b8ff" d="M159,-219.75C159,-213.27 159,-204.16 159,-195.9"/>
<polygon fill="#63b8ff" stroke="#63b8ff" points="162.5,-195.96 159,-185.96 155.5,-195.96 162.5,-195.96"/>
</g>
<!-- Node6 -->
<g id="node6" class="node">
<title>Node6</title>
<g id="a_node6"><a xlink:href="column_8h.html" target="_top" xlink:title=" ">
<polygon fill="white" stroke="#666666" points="258,-184 202,-184 202,-165 258,-165 258,-184"/>
<text text-anchor="middle" x="230" y="-172" font-family="Helvetica,sans-Serif" font-size="10.00">column.h</text>
</a>
</g>
</g>
<!-- Node2&#45;&gt;Node6 -->
<g id="edge5" class="edge">
<title>Node2&#45;&gt;Node6</title>
<path fill="none" stroke="#63b8ff" d="M171.04,-219.51C181.41,-211.77 196.6,-200.43 208.97,-191.2"/>
<polygon fill="#63b8ff" stroke="#63b8ff" points="211,-194.05 216.92,-185.26 206.81,-188.44 211,-194.05"/>
</g>
<!-- Node14 -->
<g id="node14" class="node">
<title>Node14</title>
<g id="a_node14"><a xlink:href="column__iterator_8h.html" target="_top" xlink:title=" ">
<polygon fill="white" stroke="#666666" points="388,-184 296,-184 296,-165 388,-165 388,-184"/>
<text text-anchor="middle" x="342" y="-172" font-family="Helvetica,sans-Serif" font-size="10.00">column_iterator.h</text>
</a>
</g>
</g>
<!-- Node2&#45;&gt;Node14 -->
<g id="edge13" class="edge">
<title>Node2&#45;&gt;Node14</title>
<path fill="none" stroke="#63b8ff" d="M190.04,-219.51C220.37,-210.73 266.73,-197.3 300.27,-187.59"/>
<polygon fill="#63b8ff" stroke="#63b8ff" points="301.02,-191.01 309.66,-184.87 299.08,-184.29 301.02,-191.01"/>
</g>
<!-- Node7 -->
<g id="node7" class="node">
<title>Node7</title>
<g id="a_node7"><a xlink:title=" ">
<polygon fill="#e0e0e0" stroke="#999999" points="123,-129 91,-129 91,-110 123,-110 123,-129"/>
<text text-anchor="middle" x="107" y="-117" font-family="Helvetica,sans-Serif" font-size="10.00">any</text>
</a>
</g>
</g>
<!-- Node6&#45;&gt;Node7 -->
<g id="edge6" class="edge">
<title>Node6&#45;&gt;Node7</title>
<path fill="none" stroke="#63b8ff" d="M209.13,-164.51C188.38,-155.57 156.44,-141.81 133.82,-132.06"/>
<polygon fill="#63b8ff" stroke="#63b8ff" points="135.2,-128.84 124.63,-128.1 132.43,-135.27 135.2,-128.84"/>
</g>
<!-- Node8 -->
<g id="node8" class="node">
<title>Node8</title>
<g id="a_node8"><a xlink:title=" ">
<polygon fill="#e0e0e0" stroke="#999999" points="191,-129 141,-129 141,-110 191,-110 191,-129"/>
<text text-anchor="middle" x="166" y="-117" font-family="Helvetica,sans-Serif" font-size="10.00">typeinfo</text>
</a>
</g>
</g>
<!-- Node6&#45;&gt;Node8 -->
<g id="edge7" class="edge">
<title>Node6&#45;&gt;Node8</title>
<path fill="none" stroke="#63b8ff" d="M219.14,-164.51C209.89,-156.85 196.38,-145.66 185.29,-136.47"/>
<polygon fill="#63b8ff" stroke="#63b8ff" points="187.8,-134.01 177.86,-130.32 183.33,-139.4 187.8,-134.01"/>
</g>
<!-- Node9 -->
<g id="node9" class="node">
<title>Node9</title>
<g id="a_node9"><a xlink:title=" ">
<polygon fill="#e0e0e0" stroke="#999999" points="250.5,-129 209.5,-129 209.5,-110 250.5,-110 250.5,-129"/>
<text text-anchor="middle" x="230" y="-117" font-family="Helvetica,sans-Serif" font-size="10.00">string</text>
</a>
</g>
</g>
<!-- Node6&#45;&gt;Node9 -->
<g id="edge8" class="edge">
<title>Node6&#45;&gt;Node9</title>
<path fill="none" stroke="#63b8ff" d="M230,-164.75C230,-158.27 230,-149.16 230,-140.9"/>
<polygon fill="#63b8ff" stroke="#63b8ff" points="233.5,-140.96 230,-130.96 226.5,-140.96 233.5,-140.96"/>
</g>
<!-- Node10 -->
<g id="node10" class="node">
<title>Node10</title>
<g id="a_node10"><a xlink:href="visitor_8h.html" target="_top" xlink:title=" ">
<polygon fill="white" stroke="#666666" points="319,-129 269,-129 269,-110 319,-110 319,-129"/>
<text text-anchor="middle" x="294" y="-117" font-family="Helvetica,sans-Serif" font-size="10.00">visitor.h</text>
</a>
</g>
</g>
<!-- Node6&#45;&gt;Node10 -->
<g id="edge9" class="edge">
<title>Node6&#45;&gt;Node10</title>
<path fill="none" stroke="#63b8ff" d="M240.86,-164.51C250.11,-156.85 263.62,-145.66 274.71,-136.47"/>
<polygon fill="#63b8ff" stroke="#63b8ff" points="276.67,-139.4 282.14,-130.32 272.2,-134.01 276.67,-139.4"/>
</g>
<!-- Node11 -->
<g id="node11" class="node">
<title>Node11</title>
<g id="a_node11"><a xlink:href="forward__type_8h.html" target="_top" xlink:title=" ">
<polygon fill="white" stroke="#666666" points="334,-74 254,-74 254,-55 334,-55 334,-74"/>
<text text-anchor="middle" x="294" y="-62" font-family="Helvetica,sans-Serif" font-size="10.00">forward_type.h</text>
</a>
</g>
</g>
<!-- Node10&#45;&gt;Node11 -->
<g id="edge10" class="edge">
<title>Node10&#45;&gt;Node11</title>
<path fill="none" stroke="#63b8ff" d="M294,-109.75C294,-103.27 294,-94.16 294,-85.9"/>
<polygon fill="#63b8ff" stroke="#63b8ff" points="297.5,-85.96 294,-75.96 290.5,-85.96 297.5,-85.96"/>
</g>
<!-- Node12 -->
<g id="node12" class="node">
<title>Node12</title>
<g id="a_node12"><a xlink:title=" ">
<polygon fill="#e0e0e0" stroke="#999999" points="289,-19 227,-19 227,0 289,0 289,-19"/>
<text text-anchor="middle" x="258" y="-7" font-family="Helvetica,sans-Serif" font-size="10.00">type_traits</text>
</a>
</g>
</g>
<!-- Node11&#45;&gt;Node12 -->
<g id="edge11" class="edge">
<title>Node11&#45;&gt;Node12</title>
<path fill="none" stroke="#63b8ff" d="M288.06,-54.75C283.29,-47.73 276.44,-37.64 270.48,-28.87"/>
<polygon fill="#63b8ff" stroke="#63b8ff" points="273.44,-27 264.92,-20.69 267.65,-30.93 273.44,-27"/>
</g>
<!-- Node13 -->
<g id="node13" class="node">
<title>Node13</title>
<g id="a_node13"><a xlink:title=" ">
<polygon fill="#e0e0e0" stroke="#999999" points="353,-19 307,-19 307,0 353,0 353,-19"/>
<text text-anchor="middle" x="330" y="-7" font-family="Helvetica,sans-Serif" font-size="10.00">cstdint</text>
</a>
</g>
</g>
<!-- Node11&#45;&gt;Node13 -->
<g id="edge12" class="edge">
<title>Node11&#45;&gt;Node13</title>
<path fill="none" stroke="#63b8ff" d="M299.94,-54.75C304.71,-47.73 311.56,-37.64 317.52,-28.87"/>
<polygon fill="#63b8ff" stroke="#63b8ff" points="320.35,-30.93 323.08,-20.69 314.56,-27 320.35,-30.93"/>
</g>
<!-- Node15 -->
<g id="node15" class="node">
<title>Node15</title>
<g id="a_node15"><a xlink:title=" ">
<polygon fill="#e0e0e0" stroke="#999999" points="384.5,-129 337.5,-129 337.5,-110 384.5,-110 384.5,-129"/>
<text text-anchor="middle" x="361" y="-117" font-family="Helvetica,sans-Serif" font-size="10.00">iterator</text>
</a>
</g>
</g>
<!-- Node14&#45;&gt;Node15 -->
<g id="edge14" class="edge">
<title>Node14&#45;&gt;Node15</title>
<path fill="none" stroke="#63b8ff" d="M345.14,-164.75C347.54,-158.04 350.96,-148.52 354,-140.02"/>
<polygon fill="#63b8ff" stroke="#63b8ff" points="357.2,-141.46 357.28,-130.87 350.61,-139.1 357.2,-141.46"/>
</g>
</g>
</svg>
