<?xml version="1.0" encoding="UTF-8" standalone="no"?>
<!DOCTYPE svg PUBLIC "-//W3C//DTD SVG 1.1//EN"
 "http://www.w3.org/Graphics/SVG/1.1/DTD/svg11.dtd">
<!-- Generated by graphviz version 2.43.0 (0)
 -->
<!-- Title: HealthGPS.Core/column_primitive.h Pages: 1 -->
<svg width="436pt" height="263pt"
 viewBox="0.00 0.00 436.00 263.00" xmlns="http://www.w3.org/2000/svg" xmlns:xlink="http://www.w3.org/1999/xlink">
<g id="graph0" class="graph" transform="scale(1 1) rotate(0) translate(4 259)">
<title>HealthGPS.Core/column_primitive.h</title>
<!-- Node1 -->
<g id="node1" class="node">
<title>Node1</title>
<g id="a_node1"><a xlink:title=" ">
<polygon fill="#bfbfbf" stroke="black" points="113.5,-224.5 113.5,-254.5 246.5,-254.5 246.5,-224.5 113.5,-224.5"/>
<text text-anchor="start" x="121.5" y="-242.5" font-family="Helvetica,sans-Serif" font-size="10.00">HealthGPS.Core/column</text>
<text text-anchor="middle" x="180" y="-231.5" font-family="Helvetica,sans-Serif" font-size="10.00">_primitive.h</text>
</a>
</g>
</g>
<!-- Node2 -->
<g id="node2" class="node">
<title>Node2</title>
<g id="a_node2"><a xlink:title=" ">
<polygon fill="none" stroke="#bfbfbf" points="0,-168.5 0,-187.5 64,-187.5 64,-168.5 0,-168.5"/>
<text text-anchor="middle" x="32" y="-175.5" font-family="Helvetica,sans-Serif" font-size="10.00">algorithm</text>
</a>
</g>
</g>
<!-- Node1&#45;&gt;Node2 -->
<g id="edge1" class="edge">
<title>Node1&#45;&gt;Node2</title>
<path fill="none" stroke="midnightblue" d="M144.93,-224.4C119.98,-214.37 86.79,-201.03 62.86,-191.4"/>
<polygon fill="midnightblue" stroke="midnightblue" points="64.12,-188.14 53.54,-187.66 61.51,-194.64 64.12,-188.14"/>
</g>
<!-- Node3 -->
<g id="node3" class="node">
<title>Node3</title>
<g id="a_node3"><a xlink:title=" ">
<polygon fill="none" stroke="#bfbfbf" points="82,-168.5 82,-187.5 138,-187.5 138,-168.5 82,-168.5"/>
<text text-anchor="middle" x="110" y="-175.5" font-family="Helvetica,sans-Serif" font-size="10.00">optional</text>
</a>
</g>
</g>
<!-- Node1&#45;&gt;Node3 -->
<g id="edge2" class="edge">
<title>Node1&#45;&gt;Node3</title>
<path fill="none" stroke="midnightblue" d="M163.41,-224.4C152.71,-215.31 138.81,-203.49 127.87,-194.19"/>
<polygon fill="midnightblue" stroke="midnightblue" points="130.07,-191.47 120.19,-187.66 125.54,-196.8 130.07,-191.47"/>
</g>
<!-- Node4 -->
<g id="node4" class="node">
<title>Node4</title>
<g id="a_node4"><a xlink:title=" ">
<polygon fill="none" stroke="#bfbfbf" points="156.5,-168.5 156.5,-187.5 203.5,-187.5 203.5,-168.5 156.5,-168.5"/>
<text text-anchor="middle" x="180" y="-175.5" font-family="Helvetica,sans-Serif" font-size="10.00">vector</text>
</a>
</g>
</g>
<!-- Node1&#45;&gt;Node4 -->
<g id="edge3" class="edge">
<title>Node1&#45;&gt;Node4</title>
<path fill="none" stroke="midnightblue" d="M180,-224.4C180,-216.47 180,-206.46 180,-197.86"/>
<polygon fill="midnightblue" stroke="midnightblue" points="183.5,-197.66 180,-187.66 176.5,-197.66 183.5,-197.66"/>
</g>
<!-- Node5 -->
<g id="node5" class="node">
<title>Node5</title>
<g id="a_node5"><a xlink:href="column_8h.html" target="_top" xlink:title=" ">
<polygon fill="none" stroke="black" points="222,-168.5 222,-187.5 284,-187.5 284,-168.5 222,-168.5"/>
<text text-anchor="middle" x="253" y="-175.5" font-family="Helvetica,sans-Serif" font-size="10.00">column.h</text>
</a>
</g>
</g>
<!-- Node1&#45;&gt;Node5 -->
<g id="edge4" class="edge">
<title>Node1&#45;&gt;Node5</title>
<path fill="none" stroke="midnightblue" d="M197.3,-224.4C208.45,-215.31 222.95,-203.49 234.36,-194.19"/>
<polygon fill="midnightblue" stroke="midnightblue" points="236.84,-196.69 242.38,-187.66 232.42,-191.26 236.84,-196.69"/>
</g>
<!-- Node13 -->
<g id="node13" class="node">
<title>Node13</title>
<g id="a_node13"><a xlink:href="column__iterator_8h.html" target="_top" xlink:title=" ">
<polygon fill="none" stroke="black" points="326,-168.5 326,-187.5 428,-187.5 428,-168.5 326,-168.5"/>
<text text-anchor="middle" x="377" y="-175.5" font-family="Helvetica,sans-Serif" font-size="10.00">column_iterator.h</text>
</a>
</g>
</g>
<!-- Node1&#45;&gt;Node13 -->
<g id="edge12" class="edge">
<title>Node1&#45;&gt;Node13</title>
<path fill="none" stroke="midnightblue" d="M226.69,-224.4C260.88,-214.07 306.71,-200.23 338.74,-190.56"/>
<polygon fill="midnightblue" stroke="midnightblue" points="340.06,-193.81 348.62,-187.57 338.04,-187.11 340.06,-193.81"/>
</g>
<!-- Node6 -->
<g id="node6" class="node">
<title>Node6</title>
<g id="a_node6"><a xlink:title=" ">
<polygon fill="none" stroke="#bfbfbf" points="108.5,-112.5 108.5,-131.5 143.5,-131.5 143.5,-112.5 108.5,-112.5"/>
<text text-anchor="middle" x="126" y="-119.5" font-family="Helvetica,sans-Serif" font-size="10.00">any</text>
</a>
</g>
</g>
<!-- Node5&#45;&gt;Node6 -->
<g id="edge5" class="edge">
<title>Node5&#45;&gt;Node6</title>
<path fill="none" stroke="midnightblue" d="M232.88,-168.44C211.24,-159.24 176.73,-144.57 152.8,-134.4"/>
<polygon fill="midnightblue" stroke="midnightblue" points="154.15,-131.17 143.58,-130.47 151.41,-137.61 154.15,-131.17"/>
</g>
<!-- Node7 -->
<g id="node7" class="node">
<title>Node7</title>
<g id="a_node7"><a xlink:title=" ">
<polygon fill="none" stroke="#bfbfbf" points="162,-112.5 162,-131.5 206,-131.5 206,-112.5 162,-112.5"/>
<text text-anchor="middle" x="184" y="-119.5" font-family="Helvetica,sans-Serif" font-size="10.00">string</text>
</a>
</g>
</g>
<!-- Node5&#45;&gt;Node7 -->
<g id="edge6" class="edge">
<title>Node5&#45;&gt;Node7</title>
<path fill="none" stroke="midnightblue" d="M241.91,-168.32C231.51,-160.18 215.74,-147.84 203.28,-138.09"/>
<polygon fill="midnightblue" stroke="midnightblue" points="205.32,-135.24 195.29,-131.83 201.01,-140.75 205.32,-135.24"/>
</g>
<!-- Node8 -->
<g id="node8" class="node">
<title>Node8</title>
<g id="a_node8"><a xlink:title=" ">
<polygon fill="none" stroke="#bfbfbf" points="224.5,-112.5 224.5,-131.5 281.5,-131.5 281.5,-112.5 224.5,-112.5"/>
<text text-anchor="middle" x="253" y="-119.5" font-family="Helvetica,sans-Serif" font-size="10.00">typeinfo</text>
</a>
</g>
</g>
<!-- Node5&#45;&gt;Node8 -->
<g id="edge7" class="edge">
<title>Node5&#45;&gt;Node8</title>
<path fill="none" stroke="midnightblue" d="M253,-168.08C253,-161.01 253,-150.86 253,-141.99"/>
<polygon fill="midnightblue" stroke="midnightblue" points="256.5,-141.75 253,-131.75 249.5,-141.75 256.5,-141.75"/>
</g>
<!-- Node9 -->
<g id="node9" class="node">
<title>Node9</title>
<g id="a_node9"><a xlink:href="visitor_8h.html" target="_top" xlink:title=" ">
<polygon fill="none" stroke="black" points="300,-112.5 300,-131.5 356,-131.5 356,-112.5 300,-112.5"/>
<text text-anchor="middle" x="328" y="-119.5" font-family="Helvetica,sans-Serif" font-size="10.00">visitor.h</text>
</a>
</g>
</g>
<!-- Node5&#45;&gt;Node9 -->
<g id="edge8" class="edge">
<title>Node5&#45;&gt;Node9</title>
<path fill="none" stroke="midnightblue" d="M265.05,-168.32C276.46,-160.11 293.83,-147.6 307.43,-137.81"/>
<polygon fill="midnightblue" stroke="midnightblue" points="309.66,-140.52 315.73,-131.83 305.57,-134.84 309.66,-140.52"/>
</g>
<!-- Node10 -->
<g id="node10" class="node">
<title>Node10</title>
<g id="a_node10"><a xlink:href="forward__type_8h.html" target="_top" xlink:title=" ">
<polygon fill="none" stroke="black" points="283,-56.5 283,-75.5 373,-75.5 373,-56.5 283,-56.5"/>
<text text-anchor="middle" x="328" y="-63.5" font-family="Helvetica,sans-Serif" font-size="10.00">forward_type.h</text>
</a>
</g>
</g>
<!-- Node9&#45;&gt;Node10 -->
<g id="edge9" class="edge">
<title>Node9&#45;&gt;Node10</title>
<path fill="none" stroke="midnightblue" d="M328,-112.08C328,-105.01 328,-94.86 328,-85.99"/>
<polygon fill="midnightblue" stroke="midnightblue" points="331.5,-85.75 328,-75.75 324.5,-85.75 331.5,-85.75"/>
</g>
<!-- Node11 -->
<g id="node11" class="node">
<title>Node11</title>
<g id="a_node11"><a xlink:title=" ">
<polygon fill="none" stroke="#bfbfbf" points="264,-0.5 264,-19.5 314,-19.5 314,-0.5 264,-0.5"/>
<text text-anchor="middle" x="289" y="-7.5" font-family="Helvetica,sans-Serif" font-size="10.00">cstdint</text>
</a>
</g>
</g>
<!-- Node10&#45;&gt;Node11 -->
<g id="edge10" class="edge">
<title>Node10&#45;&gt;Node11</title>
<path fill="none" stroke="midnightblue" d="M321.56,-56.08C316.05,-48.46 307.97,-37.26 301.24,-27.94"/>
<polygon fill="midnightblue" stroke="midnightblue" points="304.01,-25.81 295.32,-19.75 298.34,-29.91 304.01,-25.81"/>
</g>
<!-- Node12 -->
<g id="node12" class="node">
<title>Node12</title>
<g id="a_node12"><a xlink:title=" ">
<polygon fill="none" stroke="#bfbfbf" points="332.5,-0.5 332.5,-19.5 401.5,-19.5 401.5,-0.5 332.5,-0.5"/>
<text text-anchor="middle" x="367" y="-7.5" font-family="Helvetica,sans-Serif" font-size="10.00">type_traits</text>
</a>
</g>
</g>
<!-- Node10&#45;&gt;Node12 -->
<g id="edge11" class="edge">
<title>Node10&#45;&gt;Node12</title>
<path fill="none" stroke="midnightblue" d="M334.44,-56.08C339.95,-48.46 348.03,-37.26 354.76,-27.94"/>
<polygon fill="midnightblue" stroke="midnightblue" points="357.66,-29.91 360.68,-19.75 351.99,-25.81 357.66,-29.91"/>
</g>
<!-- Node14 -->
<g id="node14" class="node">
<title>Node14</title>
<g id="a_node14"><a xlink:title=" ">
<polygon fill="none" stroke="#bfbfbf" points="374.5,-112.5 374.5,-131.5 427.5,-131.5 427.5,-112.5 374.5,-112.5"/>
<text text-anchor="middle" x="401" y="-119.5" font-family="Helvetica,sans-Serif" font-size="10.00">iterator</text>
</a>
</g>
</g>
<!-- Node13&#45;&gt;Node14 -->
<g id="edge13" class="edge">
<title>Node13&#45;&gt;Node14</title>
<path fill="none" stroke="midnightblue" d="M380.96,-168.08C384.21,-160.77 388.92,-150.18 392.95,-141.1"/>
<polygon fill="midnightblue" stroke="midnightblue" points="396.25,-142.31 397.11,-131.75 389.85,-139.47 396.25,-142.31"/>
</g>
</g>
</svg>
