<?xml version="1.0" encoding="UTF-8" standalone="no"?>
<!DOCTYPE svg PUBLIC "-//W3C//DTD SVG 1.1//EN"
 "http://www.w3.org/Graphics/SVG/1.1/DTD/svg11.dtd">
<!-- Generated by graphviz version 2.43.0 (0)
 -->
<!-- Title: HealthGPS.Core/column_primitive.h Pages: 1 -->
<svg width="433pt" height="263pt"
 viewBox="0.00 0.00 433.00 263.00" xmlns="http://www.w3.org/2000/svg" xmlns:xlink="http://www.w3.org/1999/xlink">
<g id="graph0" class="graph" transform="scale(1 1) rotate(0) translate(4 259)">
<title>HealthGPS.Core/column_primitive.h</title>
<!-- Node1 -->
<g id="node1" class="node">
<title>Node1</title>
<g id="a_node1"><a xlink:title=" ">
<polygon fill="#bfbfbf" stroke="black" points="109.5,-224.5 109.5,-254.5 242.5,-254.5 242.5,-224.5 109.5,-224.5"/>
<text text-anchor="start" x="117.5" y="-242.5" font-family="Helvetica,sans-Serif" font-size="10.00">HealthGPS.Core/column</text>
<text text-anchor="middle" x="176" y="-231.5" font-family="Helvetica,sans-Serif" font-size="10.00">_primitive.h</text>
</a>
</g>
</g>
<!-- Node2 -->
<g id="node2" class="node">
<title>Node2</title>
<g id="a_node2"><a xlink:title=" ">
<polygon fill="none" stroke="#bfbfbf" points="0,-168.5 0,-187.5 64,-187.5 64,-168.5 0,-168.5"/>
<text text-anchor="middle" x="32" y="-175.5" font-family="Helvetica,sans-Serif" font-size="10.00">algorithm</text>
</a>
</g>
</g>
<!-- Node1&#45;&gt;Node2 -->
<g id="edge1" class="edge">
<title>Node1&#45;&gt;Node2</title>
<path fill="none" stroke="midnightblue" d="M141.87,-224.4C117.71,-214.42 85.6,-201.15 62.33,-191.53"/>
<polygon fill="midnightblue" stroke="midnightblue" points="63.53,-188.24 52.95,-187.66 60.86,-194.71 63.53,-188.24"/>
</g>
<!-- Node3 -->
<g id="node3" class="node">
<title>Node3</title>
<g id="a_node3"><a xlink:title=" ">
<polygon fill="none" stroke="#bfbfbf" points="82.5,-168.5 82.5,-187.5 129.5,-187.5 129.5,-168.5 82.5,-168.5"/>
<text text-anchor="middle" x="106" y="-175.5" font-family="Helvetica,sans-Serif" font-size="10.00">vector</text>
</a>
</g>
</g>
<!-- Node1&#45;&gt;Node3 -->
<g id="edge2" class="edge">
<title>Node1&#45;&gt;Node3</title>
<path fill="none" stroke="midnightblue" d="M159.41,-224.4C148.71,-215.31 134.81,-203.49 123.87,-194.19"/>
<polygon fill="midnightblue" stroke="midnightblue" points="126.07,-191.47 116.19,-187.66 121.54,-196.8 126.07,-191.47"/>
</g>
<!-- Node4 -->
<g id="node4" class="node">
<title>Node4</title>
<g id="a_node4"><a xlink:title=" ">
<polygon fill="none" stroke="#bfbfbf" points="148,-168.5 148,-187.5 204,-187.5 204,-168.5 148,-168.5"/>
<text text-anchor="middle" x="176" y="-175.5" font-family="Helvetica,sans-Serif" font-size="10.00">optional</text>
</a>
</g>
</g>
<!-- Node1&#45;&gt;Node4 -->
<g id="edge3" class="edge">
<title>Node1&#45;&gt;Node4</title>
<path fill="none" stroke="midnightblue" d="M176,-224.4C176,-216.47 176,-206.46 176,-197.86"/>
<polygon fill="midnightblue" stroke="midnightblue" points="179.5,-197.66 176,-187.66 172.5,-197.66 179.5,-197.66"/>
</g>
<!-- Node5 -->
<g id="node5" class="node">
<title>Node5</title>
<g id="a_node5"><a xlink:href="column_8h.html" target="_top" xlink:title=" ">
<polygon fill="none" stroke="black" points="222,-168.5 222,-187.5 284,-187.5 284,-168.5 222,-168.5"/>
<text text-anchor="middle" x="253" y="-175.5" font-family="Helvetica,sans-Serif" font-size="10.00">column.h</text>
</a>
</g>
</g>
<!-- Node1&#45;&gt;Node5 -->
<g id="edge4" class="edge">
<title>Node1&#45;&gt;Node5</title>
<path fill="none" stroke="midnightblue" d="M194.25,-224.4C206.13,-215.22 221.61,-203.26 233.69,-193.92"/>
<polygon fill="midnightblue" stroke="midnightblue" points="236.02,-196.54 241.8,-187.66 231.74,-191 236.02,-196.54"/>
</g>
<!-- Node13 -->
<g id="node13" class="node">
<title>Node13</title>
<g id="a_node13"><a xlink:href="column__iterator_8h.html" target="_top" xlink:title=" ">
<polygon fill="none" stroke="black" points="323,-168.5 323,-187.5 425,-187.5 425,-168.5 323,-168.5"/>
<text text-anchor="middle" x="374" y="-175.5" font-family="Helvetica,sans-Serif" font-size="10.00">column_iterator.h</text>
</a>
</g>
</g>
<!-- Node1&#45;&gt;Node13 -->
<g id="edge12" class="edge">
<title>Node1&#45;&gt;Node13</title>
<path fill="none" stroke="midnightblue" d="M222.67,-224.47C257.13,-214.12 303.46,-200.2 335.74,-190.5"/>
<polygon fill="midnightblue" stroke="midnightblue" points="337.12,-193.74 345.69,-187.51 335.11,-187.03 337.12,-193.74"/>
</g>
<!-- Node6 -->
<g id="node6" class="node">
<title>Node6</title>
<g id="a_node6"><a xlink:title=" ">
<polygon fill="none" stroke="#bfbfbf" points="102.5,-112.5 102.5,-131.5 137.5,-131.5 137.5,-112.5 102.5,-112.5"/>
<text text-anchor="middle" x="120" y="-119.5" font-family="Helvetica,sans-Serif" font-size="10.00">any</text>
</a>
</g>
</g>
<!-- Node5&#45;&gt;Node6 -->
<g id="edge5" class="edge">
<title>Node5&#45;&gt;Node6</title>
<path fill="none" stroke="midnightblue" d="M231.93,-168.44C208.91,-159.1 171.97,-144.1 146.88,-133.92"/>
<polygon fill="midnightblue" stroke="midnightblue" points="148.16,-130.66 137.58,-130.14 145.53,-137.14 148.16,-130.66"/>
</g>
<!-- Node7 -->
<g id="node7" class="node">
<title>Node7</title>
<g id="a_node7"><a xlink:title=" ">
<polygon fill="none" stroke="#bfbfbf" points="155.5,-112.5 155.5,-131.5 212.5,-131.5 212.5,-112.5 155.5,-112.5"/>
<text text-anchor="middle" x="184" y="-119.5" font-family="Helvetica,sans-Serif" font-size="10.00">typeinfo</text>
</a>
</g>
</g>
<!-- Node5&#45;&gt;Node7 -->
<g id="edge6" class="edge">
<title>Node5&#45;&gt;Node7</title>
<path fill="none" stroke="midnightblue" d="M241.91,-168.32C231.51,-160.18 215.74,-147.84 203.28,-138.09"/>
<polygon fill="midnightblue" stroke="midnightblue" points="205.32,-135.24 195.29,-131.83 201.01,-140.75 205.32,-135.24"/>
</g>
<!-- Node8 -->
<g id="node8" class="node">
<title>Node8</title>
<g id="a_node8"><a xlink:title=" ">
<polygon fill="none" stroke="#bfbfbf" points="231,-112.5 231,-131.5 275,-131.5 275,-112.5 231,-112.5"/>
<text text-anchor="middle" x="253" y="-119.5" font-family="Helvetica,sans-Serif" font-size="10.00">string</text>
</a>
</g>
</g>
<!-- Node5&#45;&gt;Node8 -->
<g id="edge7" class="edge">
<title>Node5&#45;&gt;Node8</title>
<path fill="none" stroke="midnightblue" d="M253,-168.08C253,-161.01 253,-150.86 253,-141.99"/>
<polygon fill="midnightblue" stroke="midnightblue" points="256.5,-141.75 253,-131.75 249.5,-141.75 256.5,-141.75"/>
</g>
<!-- Node9 -->
<g id="node9" class="node">
<title>Node9</title>
<g id="a_node9"><a xlink:href="visitor_8h.html" target="_top" xlink:title=" ">
<polygon fill="none" stroke="black" points="293,-112.5 293,-131.5 349,-131.5 349,-112.5 293,-112.5"/>
<text text-anchor="middle" x="321" y="-119.5" font-family="Helvetica,sans-Serif" font-size="10.00">visitor.h</text>
</a>
</g>
</g>
<!-- Node5&#45;&gt;Node9 -->
<g id="edge8" class="edge">
<title>Node5&#45;&gt;Node9</title>
<path fill="none" stroke="midnightblue" d="M263.93,-168.32C274.17,-160.18 289.72,-147.84 302,-138.09"/>
<polygon fill="midnightblue" stroke="midnightblue" points="304.22,-140.79 309.88,-131.83 299.87,-135.31 304.22,-140.79"/>
</g>
<!-- Node10 -->
<g id="node10" class="node">
<title>Node10</title>
<g id="a_node10"><a xlink:href="forward__type_8h.html" target="_top" xlink:title=" ">
<polygon fill="none" stroke="black" points="276,-56.5 276,-75.5 366,-75.5 366,-56.5 276,-56.5"/>
<text text-anchor="middle" x="321" y="-63.5" font-family="Helvetica,sans-Serif" font-size="10.00">forward_type.h</text>
</a>
</g>
</g>
<!-- Node9&#45;&gt;Node10 -->
<g id="edge9" class="edge">
<title>Node9&#45;&gt;Node10</title>
<path fill="none" stroke="midnightblue" d="M321,-112.08C321,-105.01 321,-94.86 321,-85.99"/>
<polygon fill="midnightblue" stroke="midnightblue" points="324.5,-85.75 321,-75.75 317.5,-85.75 324.5,-85.75"/>
</g>
<!-- Node11 -->
<g id="node11" class="node">
<title>Node11</title>
<g id="a_node11"><a xlink:title=" ">
<polygon fill="none" stroke="#bfbfbf" points="247.5,-0.5 247.5,-19.5 316.5,-19.5 316.5,-0.5 247.5,-0.5"/>
<text text-anchor="middle" x="282" y="-7.5" font-family="Helvetica,sans-Serif" font-size="10.00">type_traits</text>
</a>
</g>
</g>
<!-- Node10&#45;&gt;Node11 -->
<g id="edge10" class="edge">
<title>Node10&#45;&gt;Node11</title>
<path fill="none" stroke="midnightblue" d="M314.56,-56.08C309.05,-48.46 300.97,-37.26 294.24,-27.94"/>
<polygon fill="midnightblue" stroke="midnightblue" points="297.01,-25.81 288.32,-19.75 291.34,-29.91 297.01,-25.81"/>
</g>
<!-- Node12 -->
<g id="node12" class="node">
<title>Node12</title>
<g id="a_node12"><a xlink:title=" ">
<polygon fill="none" stroke="#bfbfbf" points="335,-0.5 335,-19.5 385,-19.5 385,-0.5 335,-0.5"/>
<text text-anchor="middle" x="360" y="-7.5" font-family="Helvetica,sans-Serif" font-size="10.00">cstdint</text>
</a>
</g>
</g>
<!-- Node10&#45;&gt;Node12 -->
<g id="edge11" class="edge">
<title>Node10&#45;&gt;Node12</title>
<path fill="none" stroke="midnightblue" d="M327.44,-56.08C332.95,-48.46 341.03,-37.26 347.76,-27.94"/>
<polygon fill="midnightblue" stroke="midnightblue" points="350.66,-29.91 353.68,-19.75 344.99,-25.81 350.66,-29.91"/>
</g>
<!-- Node14 -->
<g id="node14" class="node">
<title>Node14</title>
<g id="a_node14"><a xlink:title=" ">
<polygon fill="none" stroke="#bfbfbf" points="367.5,-112.5 367.5,-131.5 420.5,-131.5 420.5,-112.5 367.5,-112.5"/>
<text text-anchor="middle" x="394" y="-119.5" font-family="Helvetica,sans-Serif" font-size="10.00">iterator</text>
</a>
</g>
</g>
<!-- Node13&#45;&gt;Node14 -->
<g id="edge13" class="edge">
<title>Node13&#45;&gt;Node14</title>
<path fill="none" stroke="midnightblue" d="M377.3,-168.08C379.98,-160.85 383.85,-150.41 387.19,-141.4"/>
<polygon fill="midnightblue" stroke="midnightblue" points="390.57,-142.34 390.76,-131.75 384,-139.91 390.57,-142.34"/>
</g>
</g>
</svg>
