<?xml version="1.0" encoding="UTF-8" standalone="no"?>
<!DOCTYPE svg PUBLIC "-//W3C//DTD SVG 1.1//EN"
 "http://www.w3.org/Graphics/SVG/1.1/DTD/svg11.dtd">
<!-- Generated by graphviz version 7.0.6 (20230106.0513)
 -->
<!-- Title: HealthGPS.Core/column_builder.h Pages: 1 -->
<svg width="457pt" height="258pt"
 viewBox="0.00 0.00 457.00 258.00" xmlns="http://www.w3.org/2000/svg" xmlns:xlink="http://www.w3.org/1999/xlink">
<g id="graph0" class="graph" transform="scale(1 1) rotate(0) translate(4 254)">
<title>HealthGPS.Core/column_builder.h</title>
<!-- Node1 -->
<g id="node1" class="node">
<title>Node1</title>
<g id="a_node1"><a xlink:title=" ">
<polygon fill="#999999" stroke="#666666" points="210.5,-250 87.5,-250 87.5,-220 210.5,-220 210.5,-250"/>
<text text-anchor="start" x="95.5" y="-238" font-family="Helvetica,sans-Serif" font-size="10.00">HealthGPS.Core/column</text>
<text text-anchor="middle" x="149" y="-227" font-family="Helvetica,sans-Serif" font-size="10.00">_builder.h</text>
</a>
</g>
</g>
<!-- Node2 -->
<g id="node2" class="node">
<title>Node2</title>
<g id="a_node2"><a xlink:title=" ">
<polygon fill="#e0e0e0" stroke="#999999" points="52,-184 0,-184 0,-165 52,-165 52,-184"/>
<text text-anchor="middle" x="26" y="-172" font-family="Helvetica,sans-Serif" font-size="10.00">memory</text>
</a>
</g>
</g>
<!-- Node1&#45;&gt;Node2 -->
<g id="edge1" class="edge">
<title>Node1&#45;&gt;Node2</title>
<path fill="none" stroke="#63b8ff" d="M118.6,-219.54C99.12,-210.28 73.99,-198.33 54.83,-189.21"/>
<polygon fill="#63b8ff" stroke="#63b8ff" points="56.5,-186.13 45.97,-185 53.49,-192.45 56.5,-186.13"/>
</g>
<!-- Node3 -->
<g id="node3" class="node">
<title>Node3</title>
<g id="a_node3"><a xlink:title=" ">
<polygon fill="#e0e0e0" stroke="#999999" points="110,-184 70,-184 70,-165 110,-165 110,-184"/>
<text text-anchor="middle" x="90" y="-172" font-family="Helvetica,sans-Serif" font-size="10.00">limits</text>
</a>
</g>
</g>
<!-- Node1&#45;&gt;Node3 -->
<g id="edge2" class="edge">
<title>Node1&#45;&gt;Node3</title>
<path fill="none" stroke="#63b8ff" d="M134.42,-219.54C126.02,-211.22 115.44,-200.72 106.71,-192.07"/>
<polygon fill="#63b8ff" stroke="#63b8ff" points="109.39,-189.8 99.82,-185.24 104.46,-194.77 109.39,-189.8"/>
</g>
<!-- Node4 -->
<g id="node4" class="node">
<title>Node4</title>
<g id="a_node4"><a xlink:title=" ">
<polygon fill="#e0e0e0" stroke="#999999" points="170,-184 128,-184 128,-165 170,-165 170,-184"/>
<text text-anchor="middle" x="149" y="-172" font-family="Helvetica,sans-Serif" font-size="10.00">vector</text>
</a>
</g>
</g>
<!-- Node1&#45;&gt;Node4 -->
<g id="edge3" class="edge">
<title>Node1&#45;&gt;Node4</title>
<path fill="none" stroke="#63b8ff" d="M149,-219.54C149,-212.34 149,-203.53 149,-195.68"/>
<polygon fill="#63b8ff" stroke="#63b8ff" points="152.5,-195.69 149,-185.69 145.5,-195.69 152.5,-195.69"/>
</g>
<!-- Node5 -->
<g id="node5" class="node">
<title>Node5</title>
<g id="a_node5"><a xlink:title=" ">
<polygon fill="#e0e0e0" stroke="#999999" points="247.5,-184 188.5,-184 188.5,-165 247.5,-165 247.5,-184"/>
<text text-anchor="middle" x="218" y="-172" font-family="Helvetica,sans-Serif" font-size="10.00">exception</text>
</a>
</g>
</g>
<!-- Node1&#45;&gt;Node5 -->
<g id="edge4" class="edge">
<title>Node1&#45;&gt;Node5</title>
<path fill="none" stroke="#63b8ff" d="M166.06,-219.54C176.08,-211.04 188.76,-200.29 199.09,-191.53"/>
<polygon fill="#63b8ff" stroke="#63b8ff" points="201.25,-194.29 206.61,-185.15 196.72,-188.95 201.25,-194.29"/>
</g>
<!-- Node6 -->
<g id="node6" class="node">
<title>Node6</title>
<g id="a_node6"><a xlink:href="column_8h.html" target="_top" xlink:title=" ">
<polygon fill="white" stroke="#666666" points="322,-184 266,-184 266,-165 322,-165 322,-184"/>
<text text-anchor="middle" x="294" y="-172" font-family="Helvetica,sans-Serif" font-size="10.00">column.h</text>
</a>
</g>
</g>
<!-- Node1&#45;&gt;Node6 -->
<g id="edge5" class="edge">
<title>Node1&#45;&gt;Node6</title>
<path fill="none" stroke="#63b8ff" d="M184.84,-219.54C208.34,-210.06 238.8,-197.77 261.58,-188.58"/>
<polygon fill="#63b8ff" stroke="#63b8ff" points="262.71,-191.9 270.67,-184.91 260.09,-185.41 262.71,-191.9"/>
</g>
<!-- Node7 -->
<g id="node7" class="node">
<title>Node7</title>
<g id="a_node7"><a xlink:title=" ">
<polygon fill="#e0e0e0" stroke="#999999" points="219,-129 187,-129 187,-110 219,-110 219,-129"/>
<text text-anchor="middle" x="203" y="-117" font-family="Helvetica,sans-Serif" font-size="10.00">any</text>
</a>
</g>
</g>
<!-- Node6&#45;&gt;Node7 -->
<g id="edge6" class="edge">
<title>Node6&#45;&gt;Node7</title>
<path fill="none" stroke="#63b8ff" d="M278.56,-164.51C264.75,-156.47 244.25,-144.53 228.09,-135.11"/>
<polygon fill="#63b8ff" stroke="#63b8ff" points="229.92,-132.13 219.52,-130.12 226.4,-138.18 229.92,-132.13"/>
</g>
<!-- Node8 -->
<g id="node8" class="node">
<title>Node8</title>
<g id="a_node8"><a xlink:title=" ">
<polygon fill="#e0e0e0" stroke="#999999" points="287,-129 237,-129 237,-110 287,-110 287,-129"/>
<text text-anchor="middle" x="262" y="-117" font-family="Helvetica,sans-Serif" font-size="10.00">typeinfo</text>
</a>
</g>
</g>
<!-- Node6&#45;&gt;Node8 -->
<g id="edge7" class="edge">
<title>Node6&#45;&gt;Node8</title>
<path fill="none" stroke="#63b8ff" d="M288.72,-164.75C284.53,-157.81 278.52,-147.86 273.27,-139.16"/>
<polygon fill="#63b8ff" stroke="#63b8ff" points="276.35,-137.49 268.18,-130.74 270.35,-141.11 276.35,-137.49"/>
</g>
<!-- Node9 -->
<g id="node9" class="node">
<title>Node9</title>
<g id="a_node9"><a xlink:title=" ">
<polygon fill="#e0e0e0" stroke="#999999" points="346.5,-129 305.5,-129 305.5,-110 346.5,-110 346.5,-129"/>
<text text-anchor="middle" x="326" y="-117" font-family="Helvetica,sans-Serif" font-size="10.00">string</text>
</a>
</g>
</g>
<!-- Node6&#45;&gt;Node9 -->
<g id="edge8" class="edge">
<title>Node6&#45;&gt;Node9</title>
<path fill="none" stroke="#63b8ff" d="M299.28,-164.75C303.47,-157.81 309.48,-147.86 314.73,-139.16"/>
<polygon fill="#63b8ff" stroke="#63b8ff" points="317.65,-141.11 319.82,-130.74 311.65,-137.49 317.65,-141.11"/>
</g>
<!-- Node10 -->
<g id="node10" class="node">
<title>Node10</title>
<g id="a_node10"><a xlink:href="visitor_8h.html" target="_top" xlink:title=" ">
<polygon fill="white" stroke="#666666" points="415,-129 365,-129 365,-110 415,-110 415,-129"/>
<text text-anchor="middle" x="390" y="-117" font-family="Helvetica,sans-Serif" font-size="10.00">visitor.h</text>
</a>
</g>
</g>
<!-- Node6&#45;&gt;Node10 -->
<g id="edge9" class="edge">
<title>Node6&#45;&gt;Node10</title>
<path fill="none" stroke="#63b8ff" d="M310.29,-164.51C324.99,-156.39 346.89,-144.3 364.02,-134.85"/>
<polygon fill="#63b8ff" stroke="#63b8ff" points="365.57,-137.99 372.63,-130.09 362.18,-131.86 365.57,-137.99"/>
</g>
<!-- Node11 -->
<g id="node11" class="node">
<title>Node11</title>
<g id="a_node11"><a xlink:href="forward__type_8h.html" target="_top" xlink:title=" ">
<polygon fill="white" stroke="#666666" points="430,-74 350,-74 350,-55 430,-55 430,-74"/>
<text text-anchor="middle" x="390" y="-62" font-family="Helvetica,sans-Serif" font-size="10.00">forward_type.h</text>
</a>
</g>
</g>
<!-- Node10&#45;&gt;Node11 -->
<g id="edge10" class="edge">
<title>Node10&#45;&gt;Node11</title>
<path fill="none" stroke="#63b8ff" d="M390,-109.75C390,-103.27 390,-94.16 390,-85.9"/>
<polygon fill="#63b8ff" stroke="#63b8ff" points="393.5,-85.96 390,-75.96 386.5,-85.96 393.5,-85.96"/>
</g>
<!-- Node12 -->
<g id="node12" class="node">
<title>Node12</title>
<g id="a_node12"><a xlink:title=" ">
<polygon fill="#e0e0e0" stroke="#999999" points="385,-19 323,-19 323,0 385,0 385,-19"/>
<text text-anchor="middle" x="354" y="-7" font-family="Helvetica,sans-Serif" font-size="10.00">type_traits</text>
</a>
</g>
</g>
<!-- Node11&#45;&gt;Node12 -->
<g id="edge11" class="edge">
<title>Node11&#45;&gt;Node12</title>
<path fill="none" stroke="#63b8ff" d="M384.06,-54.75C379.29,-47.73 372.44,-37.64 366.48,-28.87"/>
<polygon fill="#63b8ff" stroke="#63b8ff" points="369.44,-27 360.92,-20.69 363.65,-30.93 369.44,-27"/>
</g>
<!-- Node13 -->
<g id="node13" class="node">
<title>Node13</title>
<g id="a_node13"><a xlink:title=" ">
<polygon fill="#e0e0e0" stroke="#999999" points="449,-19 403,-19 403,0 449,0 449,-19"/>
<text text-anchor="middle" x="426" y="-7" font-family="Helvetica,sans-Serif" font-size="10.00">cstdint</text>
</a>
</g>
</g>
<!-- Node11&#45;&gt;Node13 -->
<g id="edge12" class="edge">
<title>Node11&#45;&gt;Node13</title>
<path fill="none" stroke="#63b8ff" d="M395.94,-54.75C400.71,-47.73 407.56,-37.64 413.52,-28.87"/>
<polygon fill="#63b8ff" stroke="#63b8ff" points="416.35,-30.93 419.08,-20.69 410.56,-27 416.35,-30.93"/>
</g>
</g>
</svg>
