<?xml version="1.0" encoding="UTF-8" standalone="no"?>
<!DOCTYPE svg PUBLIC "-//W3C//DTD SVG 1.1//EN"
 "http://www.w3.org/Graphics/SVG/1.1/DTD/svg11.dtd">
<!-- Generated by graphviz version 2.43.0 (0)
 -->
<!-- Title: load_configuration Pages: 1 -->
<svg width="305pt" height="165pt"
 viewBox="0.00 0.00 305.00 165.00" xmlns="http://www.w3.org/2000/svg" xmlns:xlink="http://www.w3.org/1999/xlink">
<g id="graph0" class="graph" transform="scale(1 1) rotate(0) translate(4 161)">
<title>load_configuration</title>
<!-- Node1 -->
<g id="node1" class="node">
<title>Node1</title>
<g id="a_node1"><a xlink:title=" ">
<polygon fill="#bfbfbf" stroke="black" points="0,-68.5 0,-87.5 107,-87.5 107,-68.5 0,-68.5"/>
<text text-anchor="middle" x="53.5" y="-75.5" font-family="Helvetica,sans-Serif" font-size="10.00">load_configuration</text>
</a>
</g>
</g>
<!-- Node2 -->
<g id="node2" class="node">
<title>Node2</title>
<g id="a_node2"><a xlink:href="configuration_8cpp.html#a1795c5541ce3065fd05e28e44e7335b0" target="_top" xlink:title=" ">
<polygon fill="none" stroke="black" points="161,-137.5 161,-156.5 279,-156.5 279,-137.5 161,-137.5"/>
<text text-anchor="middle" x="220" y="-144.5" font-family="Helvetica,sans-Serif" font-size="10.00">create_output_folder</text>
</a>
</g>
</g>
<!-- Node1&#45;&gt;Node2 -->
<g id="edge1" class="edge">
<title>Node1&#45;&gt;Node2</title>
<path fill="none" stroke="midnightblue" d="M68.62,-87.57C85.6,-98.7 115.3,-116.95 143,-128 149.2,-130.47 155.81,-132.69 162.45,-134.67"/>
<polygon fill="midnightblue" stroke="midnightblue" points="161.58,-138.06 172.15,-137.39 163.47,-131.32 161.58,-138.06"/>
</g>
<!-- Node3 -->
<g id="node3" class="node">
<title>Node3</title>
<g id="a_node3"><a xlink:href="structhgps_1_1core_1_1case__insensitive.html#a7c3f04e32aa1d7a41ef339443139b5c0" target="_top" xlink:title=" ">
<polygon fill="none" stroke="black" points="143,-88 143,-118 297,-118 297,-88 143,-88"/>
<text text-anchor="start" x="151" y="-106" font-family="Helvetica,sans-Serif" font-size="10.00">hgps::core::case_insensitive</text>
<text text-anchor="middle" x="220" y="-95" font-family="Helvetica,sans-Serif" font-size="10.00">::equals</text>
</a>
</g>
</g>
<!-- Node1&#45;&gt;Node3 -->
<g id="edge2" class="edge">
<title>Node1&#45;&gt;Node3</title>
<path fill="none" stroke="midnightblue" d="M107,-85.98C115.27,-87.24 124,-88.56 132.79,-89.9"/>
<polygon fill="midnightblue" stroke="midnightblue" points="132.3,-93.36 142.72,-91.41 133.36,-86.44 132.3,-93.36"/>
</g>
<!-- Node4 -->
<g id="node4" class="node">
<title>Node4</title>
<g id="a_node4"><a xlink:href="configuration_8cpp.html#a1ce92c675b7577ecb00196d4de5f669a" target="_top" xlink:title=" ">
<polygon fill="none" stroke="black" points="160,-39 160,-69 280,-69 280,-39 160,-39"/>
<text text-anchor="start" x="168" y="-57" font-family="Helvetica,sans-Serif" font-size="10.00">expand_environment</text>
<text text-anchor="middle" x="220" y="-46" font-family="Helvetica,sans-Serif" font-size="10.00">_variables</text>
</a>
</g>
</g>
<!-- Node1&#45;&gt;Node4 -->
<g id="edge3" class="edge">
<title>Node1&#45;&gt;Node4</title>
<path fill="none" stroke="midnightblue" d="M107,-70.34C120.54,-68.36 135.33,-66.21 149.59,-64.13"/>
<polygon fill="midnightblue" stroke="midnightblue" points="150.47,-67.54 159.86,-62.63 149.46,-60.61 150.47,-67.54"/>
</g>
<!-- Node5 -->
<g id="node5" class="node">
<title>Node5</title>
<g id="a_node5"><a xlink:href="namespacehgps_1_1core.html#a502537e3fe210afb2531f156977eb2f6" target="_top" xlink:title=" ">
<polygon fill="none" stroke="black" points="162.5,-0.5 162.5,-19.5 277.5,-19.5 277.5,-0.5 162.5,-0.5"/>
<text text-anchor="middle" x="220" y="-7.5" font-family="Helvetica,sans-Serif" font-size="10.00">hgps::core::to_lower</text>
</a>
</g>
</g>
<!-- Node1&#45;&gt;Node5 -->
<g id="edge4" class="edge">
<title>Node1&#45;&gt;Node5</title>
<path fill="none" stroke="midnightblue" d="M69.62,-68.34C86.82,-57.7 116.02,-40.69 143,-30 150.22,-27.14 158,-24.56 165.71,-22.28"/>
<polygon fill="midnightblue" stroke="midnightblue" points="166.73,-25.63 175.42,-19.55 164.84,-18.89 166.73,-25.63"/>
</g>
</g>
</svg>
