<?xml version="1.0" encoding="UTF-8" standalone="no"?>
<!DOCTYPE svg PUBLIC "-//W3C//DTD SVG 1.1//EN"
 "http://www.w3.org/Graphics/SVG/1.1/DTD/svg11.dtd">
<!-- Generated by graphviz version 7.0.6 (20230106.0513)
 -->
<!-- Title: create_intervention_scenario Pages: 1 -->
<svg width="413pt" height="59pt"
 viewBox="0.00 0.00 413.00 59.00" xmlns="http://www.w3.org/2000/svg" xmlns:xlink="http://www.w3.org/1999/xlink">
<g id="graph0" class="graph" transform="scale(1 1) rotate(0) translate(4 55)">
<title>create_intervention_scenario</title>
<!-- Node1 -->
<g id="node1" class="node">
<title>Node1</title>
<g id="a_node1"><a xlink:title=" ">
<polygon fill="#999999" stroke="#666666" points="98,-51 0,-51 0,-21 98,-21 98,-51"/>
<text text-anchor="start" x="8" y="-39" font-family="Helvetica,sans-Serif" font-size="10.00">create_intervention</text>
<text text-anchor="middle" x="49" y="-28" font-family="Helvetica,sans-Serif" font-size="10.00">_scenario</text>
</a>
</g>
</g>
<!-- Node2 -->
<g id="node2" class="node">
<title>Node2</title>
<g id="a_node2"><a xlink:href="structhgps_1_1core_1_1case__insensitive.html#a7c3f04e32aa1d7a41ef339443139b5c0" target="_top" xlink:title=" ">
<polygon fill="white" stroke="#666666" points="405,-51 265,-51 265,-21 405,-21 405,-51"/>
<text text-anchor="start" x="273" y="-39" font-family="Helvetica,sans-Serif" font-size="10.00">hgps::core::case_insensitive</text>
<text text-anchor="middle" x="335" y="-28" font-family="Helvetica,sans-Serif" font-size="10.00">::equals</text>
</a>
</g>
</g>
<!-- Node1&#45;&gt;Node2 -->
<g id="edge1" class="edge">
<title>Node1&#45;&gt;Node2</title>
<path fill="none" stroke="#63b8ff" d="M98.41,-38.02C110.06,-38.43 122.47,-38.79 134,-39 176.22,-39.75 186.78,-39.6 229,-39 236.81,-38.89 244.94,-38.73 253.07,-38.54"/>
<polygon fill="#63b8ff" stroke="#63b8ff" points="253.11,-42.04 263.02,-38.3 252.94,-35.05 253.11,-42.04"/>
</g>
<!-- Node3 -->
<g id="node3" class="node">
<title>Node3</title>
<g id="a_node3"><a xlink:href="namespacehgps.html#adf9e6a1bb7098d2f9a2fd6c49d575fe1" target="_top" xlink:title=" ">
<polygon fill="white" stroke="#666666" points="229,-30 134,-30 134,0 229,0 229,-30"/>
<text text-anchor="start" x="142" y="-18" font-family="Helvetica,sans-Serif" font-size="10.00">hgps::parse_fiscal</text>
<text text-anchor="middle" x="181.5" y="-7" font-family="Helvetica,sans-Serif" font-size="10.00">_impact_type</text>
</a>
</g>
</g>
<!-- Node1&#45;&gt;Node3 -->
<g id="edge2" class="edge">
<title>Node1&#45;&gt;Node3</title>
<path fill="none" stroke="#63b8ff" d="M98.22,-28.24C106.12,-26.97 114.37,-25.64 122.48,-24.34"/>
<polygon fill="#63b8ff" stroke="#63b8ff" points="122.97,-27.8 132.28,-22.76 121.85,-20.89 122.97,-27.8"/>
</g>
<!-- Node3&#45;&gt;Node2 -->
<g id="edge3" class="edge">
<title>Node3&#45;&gt;Node2</title>
<path fill="none" stroke="#63b8ff" d="M229.19,-21.47C236.9,-22.54 245.09,-23.68 253.35,-24.82"/>
<polygon fill="#63b8ff" stroke="#63b8ff" points="252.74,-28.27 263.13,-26.18 253.7,-21.34 252.74,-28.27"/>
</g>
</g>
</svg>
