<?xml version="1.0" encoding="UTF-8" standalone="no"?>
<!DOCTYPE svg PUBLIC "-//W3C//DTD SVG 1.1//EN"
 "http://www.w3.org/Graphics/SVG/1.1/DTD/svg11.dtd">
<!-- Generated by graphviz version 7.0.6 (20230106.0513)
 -->
<!-- Title: get_diseases Pages: 1 -->
<svg width="228pt" height="86pt"
 viewBox="0.00 0.00 228.00 86.00" xmlns="http://www.w3.org/2000/svg" xmlns:xlink="http://www.w3.org/1999/xlink">
<g id="graph0" class="graph" transform="scale(1 1) rotate(0) translate(4 82)">
<title>get_diseases</title>
<!-- Node1 -->
<g id="node1" class="node">
<title>Node1</title>
<g id="a_node1"><a xlink:title=" ">
<polygon fill="#999999" stroke="#666666" points="74,-48.5 0,-48.5 0,-29.5 74,-29.5 74,-48.5"/>
<text text-anchor="middle" x="37" y="-36.5" font-family="Helvetica,sans-Serif" font-size="10.00">get_diseases</text>
</a>
</g>
</g>
<!-- Node2 -->
<g id="node2" class="node">
<title>Node2</title>
<g id="a_node2"><a xlink:href="classhgps_1_1core_1_1_datastore.html#a1e6ca1ba28eafd7c3023994e42f550d4" target="_top" xlink:title=" ">
<polygon fill="white" stroke="#666666" points="220,-78 110,-78 110,-48 220,-48 220,-78"/>
<text text-anchor="start" x="118" y="-66" font-family="Helvetica,sans-Serif" font-size="10.00">hgps::core::Datastore</text>
<text text-anchor="middle" x="165" y="-55" font-family="Helvetica,sans-Serif" font-size="10.00">::get_disease_info</text>
</a>
</g>
</g>
<!-- Node1&#45;&gt;Node2 -->
<g id="edge1" class="edge">
<title>Node1&#45;&gt;Node2</title>
<path fill="none" stroke="#63b8ff" d="M74.44,-45.94C82.04,-47.39 90.27,-48.96 98.55,-50.53"/>
<polygon fill="#63b8ff" stroke="#63b8ff" points="97.86,-53.96 108.34,-52.4 99.17,-47.09 97.86,-53.96"/>
</g>
<!-- Node3 -->
<g id="node3" class="node">
<title>Node3</title>
<g id="a_node3"><a xlink:href="classhgps_1_1core_1_1_datastore.html#ae9baf94e6cc8a1329dd270b2159c8711" target="_top" xlink:title=" ">
<polygon fill="white" stroke="#666666" points="220,-30 110,-30 110,0 220,0 220,-30"/>
<text text-anchor="start" x="118" y="-18" font-family="Helvetica,sans-Serif" font-size="10.00">hgps::core::Datastore</text>
<text text-anchor="middle" x="165" y="-7" font-family="Helvetica,sans-Serif" font-size="10.00">::get_diseases</text>
</a>
</g>
</g>
<!-- Node1&#45;&gt;Node3 -->
<g id="edge2" class="edge">
<title>Node1&#45;&gt;Node3</title>
<path fill="none" stroke="#63b8ff" d="M74.44,-32.06C82.04,-30.61 90.27,-29.04 98.55,-27.47"/>
<polygon fill="#63b8ff" stroke="#63b8ff" points="99.17,-30.91 108.34,-25.6 97.86,-24.04 99.17,-30.91"/>
</g>
</g>
</svg>
