<?xml version="1.0" encoding="UTF-8" standalone="no"?>
<!DOCTYPE svg PUBLIC "-//W3C//DTD SVG 1.1//EN"
 "http://www.w3.org/Graphics/SVG/1.1/DTD/svg11.dtd">
<!-- Generated by graphviz version 7.0.6 (20230106.0513)
 -->
<!-- Title: create_intervention_simulation Pages: 1 -->
<svg width="547pt" height="59pt"
 viewBox="0.00 0.00 547.00 59.00" xmlns="http://www.w3.org/2000/svg" xmlns:xlink="http://www.w3.org/1999/xlink">
<g id="graph0" class="graph" transform="scale(1 1) rotate(0) translate(4 55)">
<title>create_intervention_simulation</title>
<!-- Node1 -->
<g id="node1" class="node">
<title>Node1</title>
<g id="a_node1"><a xlink:title=" ">
<polygon fill="#999999" stroke="#666666" points="98,-51 0,-51 0,-21 98,-21 98,-51"/>
<text text-anchor="start" x="8" y="-39" font-family="Helvetica,sans-Serif" font-size="10.00">create_intervention</text>
<text text-anchor="middle" x="49" y="-28" font-family="Helvetica,sans-Serif" font-size="10.00">_simulation</text>
</a>
</g>
</g>
<!-- Node2 -->
<g id="node2" class="node">
<title>Node2</title>
<g id="a_node2"><a xlink:href="configuration_8cpp.html#a296320e54b04702f2a8300dc287dec3f" target="_top" xlink:title=" ">
<polygon fill="white" stroke="#666666" points="232,-51 134,-51 134,-21 232,-21 232,-51"/>
<text text-anchor="start" x="142" y="-39" font-family="Helvetica,sans-Serif" font-size="10.00">create_intervention</text>
<text text-anchor="middle" x="183" y="-28" font-family="Helvetica,sans-Serif" font-size="10.00">_scenario</text>
</a>
</g>
</g>
<!-- Node1&#45;&gt;Node2 -->
<g id="edge1" class="edge">
<title>Node1&#45;&gt;Node2</title>
<path fill="none" stroke="#63b8ff" d="M98.4,-36C106.11,-36 114.17,-36 122.11,-36"/>
<polygon fill="#63b8ff" stroke="#63b8ff" points="122.09,-39.5 132.09,-36 122.09,-32.5 122.09,-39.5"/>
</g>
<!-- Node3 -->
<g id="node3" class="node">
<title>Node3</title>
<g id="a_node3"><a xlink:href="structhgps_1_1core_1_1case__insensitive.html#a7c3f04e32aa1d7a41ef339443139b5c0" target="_top" xlink:title=" ">
<polygon fill="white" stroke="#666666" points="539,-51 399,-51 399,-21 539,-21 539,-51"/>
<text text-anchor="start" x="407" y="-39" font-family="Helvetica,sans-Serif" font-size="10.00">hgps::core::case_insensitive</text>
<text text-anchor="middle" x="469" y="-28" font-family="Helvetica,sans-Serif" font-size="10.00">::equals</text>
</a>
</g>
</g>
<!-- Node2&#45;&gt;Node3 -->
<g id="edge2" class="edge">
<title>Node2&#45;&gt;Node3</title>
<path fill="none" stroke="#63b8ff" d="M232.41,-38.02C244.06,-38.43 256.47,-38.79 268,-39 310.22,-39.75 320.78,-39.6 363,-39 370.81,-38.89 378.94,-38.73 387.07,-38.54"/>
<polygon fill="#63b8ff" stroke="#63b8ff" points="387.11,-42.04 397.02,-38.3 386.94,-35.05 387.11,-42.04"/>
</g>
<!-- Node4 -->
<g id="node4" class="node">
<title>Node4</title>
<g id="a_node4"><a xlink:href="namespacehgps.html#adf9e6a1bb7098d2f9a2fd6c49d575fe1" target="_top" xlink:title=" ">
<polygon fill="white" stroke="#666666" points="363,-30 268,-30 268,0 363,0 363,-30"/>
<text text-anchor="start" x="276" y="-18" font-family="Helvetica,sans-Serif" font-size="10.00">hgps::parse_fiscal</text>
<text text-anchor="middle" x="315.5" y="-7" font-family="Helvetica,sans-Serif" font-size="10.00">_impact_type</text>
</a>
</g>
</g>
<!-- Node2&#45;&gt;Node4 -->
<g id="edge3" class="edge">
<title>Node2&#45;&gt;Node4</title>
<path fill="none" stroke="#63b8ff" d="M232.22,-28.24C240.12,-26.97 248.37,-25.64 256.48,-24.34"/>
<polygon fill="#63b8ff" stroke="#63b8ff" points="256.97,-27.8 266.28,-22.76 255.85,-20.89 256.97,-27.8"/>
</g>
<!-- Node4&#45;&gt;Node3 -->
<g id="edge4" class="edge">
<title>Node4&#45;&gt;Node3</title>
<path fill="none" stroke="#63b8ff" d="M363.19,-21.47C370.9,-22.54 379.09,-23.68 387.35,-24.82"/>
<polygon fill="#63b8ff" stroke="#63b8ff" points="386.74,-28.27 397.13,-26.18 387.7,-21.34 386.74,-28.27"/>
</g>
</g>
</svg>
