<?xml version="1.0" encoding="UTF-8" standalone="no"?>
<!DOCTYPE svg PUBLIC "-//W3C//DTD SVG 1.1//EN"
 "http://www.w3.org/Graphics/SVG/1.1/DTD/svg11.dtd">
<!-- Generated by graphviz version 7.0.6 (20230106.0513)
 -->
<!-- Title: create_results_file_logger Pages: 1 -->
<svg width="437pt" height="104pt"
 viewBox="0.00 0.00 437.00 104.00" xmlns="http://www.w3.org/2000/svg" xmlns:xlink="http://www.w3.org/1999/xlink">
<g id="graph0" class="graph" transform="scale(1 1) rotate(0) translate(4 100)">
<title>create_results_file_logger</title>
<!-- Node1 -->
<g id="node1" class="node">
<title>Node1</title>
<g id="a_node1"><a xlink:title=" ">
<polygon fill="#999999" stroke="#666666" points="95,-44 0,-44 0,-14 95,-14 95,-44"/>
<text text-anchor="start" x="8" y="-32" font-family="Helvetica,sans-Serif" font-size="10.00">create_results_file</text>
<text text-anchor="middle" x="47.5" y="-21" font-family="Helvetica,sans-Serif" font-size="10.00">_logger</text>
</a>
</g>
</g>
<!-- Node2 -->
<g id="node2" class="node">
<title>Node2</title>
<g id="a_node2"><a xlink:href="configuration_8cpp.html#ab41af12c9a317e192dba580788e542fe" target="_top" xlink:title=" ">
<polygon fill="white" stroke="#666666" points="253,-57.5 131,-57.5 131,-38.5 253,-38.5 253,-57.5"/>
<text text-anchor="middle" x="192" y="-45.5" font-family="Helvetica,sans-Serif" font-size="10.00">create_output_file_name</text>
</a>
</g>
</g>
<!-- Node1&#45;&gt;Node2 -->
<g id="edge1" class="edge">
<title>Node1&#45;&gt;Node2</title>
<path fill="none" stroke="#63b8ff" d="M95.16,-35.22C102.97,-36.26 111.23,-37.36 119.5,-38.47"/>
<polygon fill="#63b8ff" stroke="#63b8ff" points="118.86,-41.91 129.23,-39.76 119.79,-34.97 118.86,-41.91"/>
</g>
<!-- Node5 -->
<g id="node5" class="node">
<title>Node5</title>
<g id="a_node5"><a xlink:href="classhgps_1_1_model_input.html#a5035a15c52467ce060d8f4d5ed21116b" target="_top" xlink:title=" ">
<polygon fill="white" stroke="#666666" points="251,-20.5 133,-20.5 133,-1.5 251,-1.5 251,-20.5"/>
<text text-anchor="middle" x="192" y="-8.5" font-family="Helvetica,sans-Serif" font-size="10.00">hgps::ModelInput::seed</text>
</a>
</g>
</g>
<!-- Node1&#45;&gt;Node5 -->
<g id="edge5" class="edge">
<title>Node1&#45;&gt;Node5</title>
<path fill="none" stroke="#63b8ff" d="M95.16,-23.11C103.55,-22.05 112.46,-20.92 121.33,-19.8"/>
<polygon fill="#63b8ff" stroke="#63b8ff" points="121.53,-23.3 131.01,-18.58 120.65,-16.36 121.53,-23.3"/>
</g>
<!-- Node3 -->
<g id="node3" class="node">
<title>Node3</title>
<g id="a_node3"><a xlink:href="structhgps_1_1core_1_1case__insensitive.html#a7c3f04e32aa1d7a41ef339443139b5c0" target="_top" xlink:title=" ">
<polygon fill="white" stroke="#666666" points="429,-96 289,-96 289,-66 429,-66 429,-96"/>
<text text-anchor="start" x="297" y="-84" font-family="Helvetica,sans-Serif" font-size="10.00">hgps::core::case_insensitive</text>
<text text-anchor="middle" x="359" y="-73" font-family="Helvetica,sans-Serif" font-size="10.00">::equals</text>
</a>
</g>
</g>
<!-- Node2&#45;&gt;Node3 -->
<g id="edge2" class="edge">
<title>Node2&#45;&gt;Node3</title>
<path fill="none" stroke="#63b8ff" d="M242.95,-57.99C253.88,-60.18 265.71,-62.54 277.49,-64.9"/>
<polygon fill="#63b8ff" stroke="#63b8ff" points="276.76,-68.32 287.25,-66.85 278.13,-61.46 276.76,-68.32"/>
</g>
<!-- Node4 -->
<g id="node4" class="node">
<title>Node4</title>
<g id="a_node4"><a xlink:href="configuration_8cpp.html#a1ce92c675b7577ecb00196d4de5f669a" target="_top" xlink:title=" ">
<polygon fill="white" stroke="#666666" points="411.5,-30 306.5,-30 306.5,0 411.5,0 411.5,-30"/>
<text text-anchor="start" x="314.5" y="-18" font-family="Helvetica,sans-Serif" font-size="10.00">expand_environment</text>
<text text-anchor="middle" x="359" y="-7" font-family="Helvetica,sans-Serif" font-size="10.00">_variables</text>
</a>
</g>
</g>
<!-- Node2&#45;&gt;Node4 -->
<g id="edge3" class="edge">
<title>Node2&#45;&gt;Node4</title>
<path fill="none" stroke="#63b8ff" d="M242.95,-38.01C259.37,-34.73 277.84,-31.03 295.09,-27.58"/>
<polygon fill="#63b8ff" stroke="#63b8ff" points="295.61,-31.05 304.73,-25.65 294.24,-24.18 295.61,-31.05"/>
</g>
<!-- Node4&#45;&gt;Node4 -->
<g id="edge4" class="edge">
<title>Node4&#45;&gt;Node4</title>
<path fill="none" stroke="#63b8ff" d="M329.64,-30.28C323.12,-39.41 332.91,-48 359,-48 373.27,-48 382.66,-45.43 387.18,-41.61"/>
<polygon fill="#63b8ff" stroke="#63b8ff" points="390.65,-42.09 388.2,-31.78 383.68,-41.37 390.65,-42.09"/>
</g>
</g>
</svg>
