<?xml version="1.0" encoding="UTF-8" standalone="no"?>
<!DOCTYPE svg PUBLIC "-//W3C//DTD SVG 1.1//EN"
 "http://www.w3.org/Graphics/SVG/1.1/DTD/svg11.dtd">
<!-- Generated by graphviz version 7.0.6 (20230106.0513)
 -->
<!-- Title: create_output_file_name Pages: 1 -->
<svg width="306pt" height="104pt"
 viewBox="0.00 0.00 306.00 104.00" xmlns="http://www.w3.org/2000/svg" xmlns:xlink="http://www.w3.org/1999/xlink">
<g id="graph0" class="graph" transform="scale(1 1) rotate(0) translate(4 100)">
<title>create_output_file_name</title>
<!-- Node1 -->
<g id="node1" class="node">
<title>Node1</title>
<g id="a_node1"><a xlink:title=" ">
<polygon fill="#999999" stroke="#666666" points="122,-57.5 0,-57.5 0,-38.5 122,-38.5 122,-57.5"/>
<text text-anchor="middle" x="61" y="-45.5" font-family="Helvetica,sans-Serif" font-size="10.00">create_output_file_name</text>
</a>
</g>
</g>
<!-- Node2 -->
<g id="node2" class="node">
<title>Node2</title>
<g id="a_node2"><a xlink:href="structhgps_1_1core_1_1case__insensitive.html#a7c3f04e32aa1d7a41ef339443139b5c0" target="_top" xlink:title=" ">
<polygon fill="white" stroke="#666666" points="298,-96 158,-96 158,-66 298,-66 298,-96"/>
<text text-anchor="start" x="166" y="-84" font-family="Helvetica,sans-Serif" font-size="10.00">hgps::core::case_insensitive</text>
<text text-anchor="middle" x="228" y="-73" font-family="Helvetica,sans-Serif" font-size="10.00">::equals</text>
</a>
</g>
</g>
<!-- Node1&#45;&gt;Node2 -->
<g id="edge1" class="edge">
<title>Node1&#45;&gt;Node2</title>
<path fill="none" stroke="#63b8ff" d="M111.95,-57.99C122.88,-60.18 134.71,-62.54 146.49,-64.9"/>
<polygon fill="#63b8ff" stroke="#63b8ff" points="145.76,-68.32 156.25,-66.85 147.13,-61.46 145.76,-68.32"/>
</g>
<!-- Node3 -->
<g id="node3" class="node">
<title>Node3</title>
<g id="a_node3"><a xlink:href="configuration_8cpp.html#a1ce92c675b7577ecb00196d4de5f669a" target="_top" xlink:title=" ">
<polygon fill="white" stroke="#666666" points="280.5,-30 175.5,-30 175.5,0 280.5,0 280.5,-30"/>
<text text-anchor="start" x="183.5" y="-18" font-family="Helvetica,sans-Serif" font-size="10.00">expand_environment</text>
<text text-anchor="middle" x="228" y="-7" font-family="Helvetica,sans-Serif" font-size="10.00">_variables</text>
</a>
</g>
</g>
<!-- Node1&#45;&gt;Node3 -->
<g id="edge2" class="edge">
<title>Node1&#45;&gt;Node3</title>
<path fill="none" stroke="#63b8ff" d="M111.95,-38.01C128.37,-34.73 146.84,-31.03 164.09,-27.58"/>
<polygon fill="#63b8ff" stroke="#63b8ff" points="164.61,-31.05 173.73,-25.65 163.24,-24.18 164.61,-31.05"/>
</g>
<!-- Node3&#45;&gt;Node3 -->
<g id="edge3" class="edge">
<title>Node3&#45;&gt;Node3</title>
<path fill="none" stroke="#63b8ff" d="M198.64,-30.28C192.12,-39.41 201.91,-48 228,-48 242.27,-48 251.66,-45.43 256.18,-41.61"/>
<polygon fill="#63b8ff" stroke="#63b8ff" points="259.65,-42.09 257.2,-31.78 252.68,-41.37 259.65,-42.09"/>
</g>
</g>
</svg>
