<?xml version="1.0" encoding="UTF-8" standalone="no"?>
<!DOCTYPE svg PUBLIC "-//W3C//DTD SVG 1.1//EN"
 "http://www.w3.org/Graphics/SVG/1.1/DTD/svg11.dtd">
<!-- Generated by graphviz version 2.43.0 (0)
 -->
<!-- Title: expand_environment_variables Pages: 1 -->
<svg width="521pt" height="78pt"
 viewBox="0.00 0.00 521.00 77.50" xmlns="http://www.w3.org/2000/svg" xmlns:xlink="http://www.w3.org/1999/xlink">
<g id="graph0" class="graph" transform="scale(1 1) rotate(0) translate(4 73.5)">
<title>expand_environment_variables</title>
<!-- Node1 -->
<g id="node1" class="node">
<title>Node1</title>
<g id="a_node1"><a xlink:title=" ">
<polygon fill="#bfbfbf" stroke="black" points="393,-17 393,-47 513,-47 513,-17 393,-17"/>
<text text-anchor="start" x="401" y="-35" font-family="Helvetica,sans-Serif" font-size="10.00">expand_environment</text>
<text text-anchor="middle" x="453" y="-24" font-family="Helvetica,sans-Serif" font-size="10.00">_variables</text>
</a>
</g>
</g>
<!-- Node2 -->
<g id="node2" class="node">
<title>Node2</title>
<g id="a_node2"><a xlink:href="configuration_8cpp.html#ab41af12c9a317e192dba580788e542fe" target="_top" xlink:title=" ">
<polygon fill="none" stroke="black" points="220,-42.5 220,-61.5 357,-61.5 357,-42.5 220,-42.5"/>
<text text-anchor="middle" x="288.5" y="-49.5" font-family="Helvetica,sans-Serif" font-size="10.00">create_output_file_name</text>
</a>
</g>
</g>
<!-- Node1&#45;&gt;Node2 -->
<g id="edge1" class="edge">
<title>Node1&#45;&gt;Node2</title>
<path fill="none" stroke="midnightblue" d="M382.94,-40.5C374.39,-41.55 365.65,-42.63 357.12,-43.68"/>
<polygon fill="midnightblue" stroke="midnightblue" points="383.38,-43.97 392.87,-39.28 382.52,-37.02 383.38,-43.97"/>
</g>
<!-- Node5 -->
<g id="node5" class="node">
<title>Node5</title>
<g id="a_node5"><a xlink:href="configuration_8cpp.html#af1d74f465c1ecdaac9ccef435ca1462c" target="_top" xlink:title=" ">
<polygon fill="none" stroke="black" points="77,-0.5 77,-19.5 184,-19.5 184,-0.5 77,-0.5"/>
<text text-anchor="middle" x="130.5" y="-7.5" font-family="Helvetica,sans-Serif" font-size="10.00">load_configuration</text>
</a>
</g>
</g>
<!-- Node1&#45;&gt;Node5 -->
<g id="edge4" class="edge">
<title>Node1&#45;&gt;Node5</title>
<path fill="none" stroke="midnightblue" d="M382.76,-27.25C323.16,-23.16 238.43,-17.34 184.2,-13.62"/>
<polygon fill="midnightblue" stroke="midnightblue" points="382.63,-30.75 392.84,-27.94 383.11,-23.76 382.63,-30.75"/>
</g>
<!-- Node3 -->
<g id="node3" class="node">
<title>Node3</title>
<g id="a_node3"><a xlink:href="configuration_8cpp.html#af5bcc5029f8d8a94e399e6570cbcd645" target="_top" xlink:title=" ">
<polygon fill="none" stroke="black" points="77.5,-39 77.5,-69 183.5,-69 183.5,-39 77.5,-39"/>
<text text-anchor="start" x="85.5" y="-57" font-family="Helvetica,sans-Serif" font-size="10.00">create_results_file</text>
<text text-anchor="middle" x="130.5" y="-46" font-family="Helvetica,sans-Serif" font-size="10.00">_logger</text>
</a>
</g>
</g>
<!-- Node2&#45;&gt;Node3 -->
<g id="edge2" class="edge">
<title>Node2&#45;&gt;Node3</title>
<path fill="none" stroke="midnightblue" d="M209.93,-52.99C201.01,-53.11 192.07,-53.22 183.6,-53.33"/>
<polygon fill="midnightblue" stroke="midnightblue" points="210.03,-56.49 219.98,-52.87 209.94,-49.49 210.03,-56.49"/>
</g>
<!-- Node4 -->
<g id="node4" class="node">
<title>Node4</title>
<g id="a_node4"><a xlink:href="program_8cpp.html#a0ddf1224851353fc92bfbff6f499fa97" target="_top" xlink:title=" ">
<polygon fill="none" stroke="black" points="0,-22.5 0,-41.5 41,-41.5 41,-22.5 0,-22.5"/>
<text text-anchor="middle" x="20.5" y="-29.5" font-family="Helvetica,sans-Serif" font-size="10.00">main</text>
</a>
</g>
</g>
<!-- Node3&#45;&gt;Node4 -->
<g id="edge3" class="edge">
<title>Node3&#45;&gt;Node4</title>
<path fill="none" stroke="midnightblue" d="M67.41,-41.35C57.89,-39.41 48.72,-37.54 41.1,-35.99"/>
<polygon fill="midnightblue" stroke="midnightblue" points="66.9,-44.82 77.4,-43.39 68.3,-37.96 66.9,-44.82"/>
</g>
<!-- Node5&#45;&gt;Node4 -->
<g id="edge5" class="edge">
<title>Node5&#45;&gt;Node4</title>
<path fill="none" stroke="midnightblue" d="M72.78,-21.55C61.41,-23.87 50.21,-26.15 41.18,-27.99"/>
<polygon fill="midnightblue" stroke="midnightblue" points="73.66,-24.95 82.76,-19.52 72.26,-18.09 73.66,-24.95"/>
</g>
</g>
</svg>
