<?xml version="1.0" encoding="UTF-8" standalone="no"?>
<!DOCTYPE svg PUBLIC "-//W3C//DTD SVG 1.1//EN"
 "http://www.w3.org/Graphics/SVG/1.1/DTD/svg11.dtd">
<!-- Generated by graphviz version 2.43.0 (0)
 -->
<!-- Title: create_baseline_scenario Pages: 1 -->
<svg width="412pt" height="28pt"
 viewBox="0.00 0.00 412.00 28.00" xmlns="http://www.w3.org/2000/svg" xmlns:xlink="http://www.w3.org/1999/xlink">
<g id="graph0" class="graph" transform="scale(1 1) rotate(0) translate(4 24)">
<title>create_baseline_scenario</title>
<!-- Node1 -->
<g id="node1" class="node">
<title>Node1</title>
<g id="a_node1"><a xlink:title=" ">
<polygon fill="#bfbfbf" stroke="black" points="264,-0.5 264,-19.5 404,-19.5 404,-0.5 264,-0.5"/>
<text text-anchor="middle" x="334" y="-7.5" font-family="Helvetica,sans-Serif" font-size="10.00">create_baseline_scenario</text>
</a>
</g>
</g>
<!-- Node2 -->
<g id="node2" class="node">
<title>Node2</title>
<g id="a_node2"><a xlink:href="configuration_8cpp.html#abca01cbba192888924595a9e6afbd6c5" target="_top" xlink:title=" ">
<polygon fill="none" stroke="black" points="77,-0.5 77,-19.5 228,-19.5 228,-0.5 77,-0.5"/>
<text text-anchor="middle" x="152.5" y="-7.5" font-family="Helvetica,sans-Serif" font-size="10.00">create_baseline_simulation</text>
</a>
</g>
</g>
<!-- Node1&#45;&gt;Node2 -->
<g id="edge1" class="edge">
<title>Node1&#45;&gt;Node2</title>
<path fill="none" stroke="midnightblue" d="M253.65,-10C245.21,-10 236.65,-10 228.27,-10"/>
<polygon fill="midnightblue" stroke="midnightblue" points="253.86,-13.5 263.86,-10 253.86,-6.5 253.86,-13.5"/>
</g>
<!-- Node3 -->
<g id="node3" class="node">
<title>Node3</title>
<g id="a_node3"><a xlink:href="program_8cpp.html#a0ddf1224851353fc92bfbff6f499fa97" target="_top" xlink:title=" ">
<polygon fill="none" stroke="black" points="0,-0.5 0,-19.5 41,-19.5 41,-0.5 0,-0.5"/>
<text text-anchor="middle" x="20.5" y="-7.5" font-family="Helvetica,sans-Serif" font-size="10.00">main</text>
</a>
</g>
</g>
<!-- Node2&#45;&gt;Node3 -->
<g id="edge2" class="edge">
<title>Node2&#45;&gt;Node3</title>
<path fill="none" stroke="midnightblue" d="M66.35,-10C57.06,-10 48.38,-10 41.18,-10"/>
<polygon fill="midnightblue" stroke="midnightblue" points="66.63,-13.5 76.63,-10 66.63,-6.5 66.63,-13.5"/>
</g>
</g>
</svg>
