<?xml version="1.0" encoding="UTF-8" standalone="no"?>
<!DOCTYPE svg PUBLIC "-//W3C//DTD SVG 1.1//EN"
 "http://www.w3.org/Graphics/SVG/1.1/DTD/svg11.dtd">
<!-- Generated by graphviz version 7.0.6 (20230106.0513)
 -->
<!-- Title: get_time_now_str Pages: 1 -->
<svg width="295pt" height="64pt"
 viewBox="0.00 0.00 295.00 64.00" xmlns="http://www.w3.org/2000/svg" xmlns:xlink="http://www.w3.org/1999/xlink">
<g id="graph0" class="graph" transform="scale(1 1) rotate(0) translate(4 60)">
<title>get_time_now_str</title>
<!-- Node1 -->
<g id="node1" class="node">
<title>Node1</title>
<g id="a_node1"><a xlink:title=" ">
<polygon fill="#999999" stroke="#666666" points="287,-37 194,-37 194,-18 287,-18 287,-37"/>
<text text-anchor="middle" x="240.5" y="-25" font-family="Helvetica,sans-Serif" font-size="10.00">get_time_now_str</text>
</a>
</g>
</g>
<!-- Node2 -->
<g id="node2" class="node">
<title>Node2</title>
<g id="a_node2"><a xlink:href="program_8cpp.html#a9f102f55bc6fac1b9624a0b1dd5ed75b" target="_top" xlink:title=" ">
<polygon fill="white" stroke="#666666" points="158,-56 74,-56 74,-37 158,-37 158,-56"/>
<text text-anchor="middle" x="116" y="-44" font-family="Helvetica,sans-Serif" font-size="10.00">exit_application</text>
</a>
</g>
</g>
<!-- Node1&#45;&gt;Node2 -->
<g id="edge1" class="edge">
<title>Node1&#45;&gt;Node2</title>
<path fill="none" stroke="#63b8ff" d="M182.27,-36.38C174.21,-37.63 166.06,-38.89 158.38,-40.08"/>
<polygon fill="#63b8ff" stroke="#63b8ff" points="182.7,-39.85 192.04,-34.86 181.62,-32.94 182.7,-39.85"/>
</g>
<!-- Node4 -->
<g id="node4" class="node">
<title>Node4</title>
<g id="a_node4"><a xlink:href="configuration_8cpp.html#a8ad33901fb05829054f97821a5b5d192" target="_top" xlink:title=" ">
<polygon fill="white" stroke="#666666" points="154.5,-19 77.5,-19 77.5,0 154.5,0 154.5,-19"/>
<text text-anchor="middle" x="116" y="-7" font-family="Helvetica,sans-Serif" font-size="10.00">print_app_title</text>
</a>
</g>
</g>
<!-- Node1&#45;&gt;Node4 -->
<g id="edge3" class="edge">
<title>Node1&#45;&gt;Node4</title>
<path fill="none" stroke="#63b8ff" d="M182.29,-19.09C172.97,-17.72 163.53,-16.34 154.82,-15.06"/>
<polygon fill="#63b8ff" stroke="#63b8ff" points="181.64,-22.54 192.04,-20.53 182.65,-15.61 181.64,-22.54"/>
</g>
<!-- Node3 -->
<g id="node3" class="node">
<title>Node3</title>
<g id="a_node3"><a xlink:href="program_8cpp.html#a0ddf1224851353fc92bfbff6f499fa97" target="_top" xlink:title=" ">
<polygon fill="white" stroke="#666666" points="38,-37 0,-37 0,-18 38,-18 38,-37"/>
<text text-anchor="middle" x="19" y="-25" font-family="Helvetica,sans-Serif" font-size="10.00">main</text>
</a>
</g>
</g>
<!-- Node2&#45;&gt;Node3 -->
<g id="edge2" class="edge">
<title>Node2&#45;&gt;Node3</title>
<path fill="none" stroke="#63b8ff" d="M62.51,-36C53.76,-34.25 45.25,-32.55 38.17,-31.13"/>
<polygon fill="#63b8ff" stroke="#63b8ff" points="61.63,-39.4 72.12,-37.92 63,-32.53 61.63,-39.4"/>
</g>
<!-- Node4&#45;&gt;Node3 -->
<g id="edge4" class="edge">
<title>Node4&#45;&gt;Node3</title>
<path fill="none" stroke="#63b8ff" d="M66.08,-18.77C56.2,-20.64 46.4,-22.5 38.4,-24.01"/>
<polygon fill="#63b8ff" stroke="#63b8ff" points="66.52,-22.25 75.69,-16.95 65.22,-15.37 66.52,-22.25"/>
</g>
</g>
</svg>
