<?xml version="1.0" encoding="UTF-8" standalone="no"?>
<!DOCTYPE svg PUBLIC "-//W3C//DTD SVG 1.1//EN"
 "http://www.w3.org/Graphics/SVG/1.1/DTD/svg11.dtd">
<!-- Generated by graphviz version 2.43.0 (0)
 -->
<!-- Title: HealthGPS/converter.h Pages: 1 -->
<svg width="765pt" height="95pt"
 viewBox="0.00 0.00 765.00 95.00" xmlns="http://www.w3.org/2000/svg" xmlns:xlink="http://www.w3.org/1999/xlink">
<g id="graph0" class="graph" transform="scale(1 1) rotate(0) translate(4 91)">
<title>HealthGPS/converter.h</title>
<!-- Node1 -->
<g id="node1" class="node">
<title>Node1</title>
<g id="a_node1"><a xlink:title=" ">
<polygon fill="#bfbfbf" stroke="black" points="300,-67.5 300,-86.5 426,-86.5 426,-67.5 300,-67.5"/>
<text text-anchor="middle" x="363" y="-74.5" font-family="Helvetica,sans-Serif" font-size="10.00">HealthGPS/converter.h</text>
</a>
</g>
</g>
<!-- Node2 -->
<g id="node2" class="node">
<title>Node2</title>
<g id="a_node2"><a xlink:href="analysis__module_8cpp.html" target="_top" xlink:title=" ">
<polygon fill="none" stroke="black" points="0,-0.5 0,-30.5 112,-30.5 112,-0.5 0,-0.5"/>
<text text-anchor="start" x="8" y="-18.5" font-family="Helvetica,sans-Serif" font-size="10.00">HealthGPS/analysis</text>
<text text-anchor="middle" x="56" y="-7.5" font-family="Helvetica,sans-Serif" font-size="10.00">_module.cpp</text>
</a>
</g>
</g>
<!-- Node1&#45;&gt;Node2 -->
<g id="edge1" class="edge">
<title>Node1&#45;&gt;Node2</title>
<path fill="none" stroke="midnightblue" d="M304.11,-65.66C255.04,-56.89 183.34,-43.75 121,-31 118.17,-30.42 115.27,-29.82 112.34,-29.2"/>
<polygon fill="midnightblue" stroke="midnightblue" points="303.77,-69.15 314.23,-67.46 305,-62.26 303.77,-69.15"/>
</g>
<!-- Node3 -->
<g id="node3" class="node">
<title>Node3</title>
<g id="a_node3"><a xlink:href="converter_8cpp.html" target="_top" xlink:title=" ">
<polygon fill="none" stroke="black" points="130.5,-6 130.5,-25 267.5,-25 267.5,-6 130.5,-6"/>
<text text-anchor="middle" x="199" y="-13" font-family="Helvetica,sans-Serif" font-size="10.00">HealthGPS/converter.cpp</text>
</a>
</g>
</g>
<!-- Node1&#45;&gt;Node3 -->
<g id="edge2" class="edge">
<title>Node1&#45;&gt;Node3</title>
<path fill="none" stroke="midnightblue" d="M329.74,-63.93C297.86,-52.37 250.57,-35.21 222.45,-25.01"/>
<polygon fill="midnightblue" stroke="midnightblue" points="328.91,-67.35 339.5,-67.48 331.3,-60.77 328.91,-67.35"/>
</g>
<!-- Node4 -->
<g id="node4" class="node">
<title>Node4</title>
<g id="a_node4"><a xlink:href="demographic_8cpp.html" target="_top" xlink:title=" ">
<polygon fill="none" stroke="black" points="285.5,-6 285.5,-25 440.5,-25 440.5,-6 285.5,-6"/>
<text text-anchor="middle" x="363" y="-13" font-family="Helvetica,sans-Serif" font-size="10.00">HealthGPS/demographic.cpp</text>
</a>
</g>
</g>
<!-- Node1&#45;&gt;Node4 -->
<g id="edge3" class="edge">
<title>Node1&#45;&gt;Node4</title>
<path fill="none" stroke="midnightblue" d="M363,-57.32C363,-46.5 363,-33.4 363,-25.01"/>
<polygon fill="midnightblue" stroke="midnightblue" points="359.5,-57.48 363,-67.48 366.5,-57.48 359.5,-57.48"/>
</g>
<!-- Node5 -->
<g id="node5" class="node">
<title>Node5</title>
<g id="a_node5"><a xlink:href="healthgps_8cpp.html" target="_top" xlink:title=" ">
<polygon fill="none" stroke="black" points="459,-6 459,-25 599,-25 599,-6 459,-6"/>
<text text-anchor="middle" x="529" y="-13" font-family="Helvetica,sans-Serif" font-size="10.00">HealthGPS/healthgps.cpp</text>
</a>
</g>
</g>
<!-- Node1&#45;&gt;Node5 -->
<g id="edge4" class="edge">
<title>Node1&#45;&gt;Node5</title>
<path fill="none" stroke="midnightblue" d="M396.25,-64.08C428.52,-52.52 476.68,-35.25 505.26,-25.01"/>
<polygon fill="midnightblue" stroke="midnightblue" points="395.02,-60.81 386.78,-67.48 397.38,-67.4 395.02,-60.81"/>
</g>
<!-- Node6 -->
<g id="node6" class="node">
<title>Node6</title>
<g id="a_node6"><a xlink:href="repository_8cpp.html" target="_top" xlink:title=" ">
<polygon fill="none" stroke="black" points="617,-6 617,-25 757,-25 757,-6 617,-6"/>
<text text-anchor="middle" x="687" y="-13" font-family="Helvetica,sans-Serif" font-size="10.00">HealthGPS/repository.cpp</text>
</a>
</g>
</g>
<!-- Node1&#45;&gt;Node6 -->
<g id="edge5" class="edge">
<title>Node1&#45;&gt;Node6</title>
<path fill="none" stroke="midnightblue" d="M419.54,-65.62C482.29,-54.09 582.36,-35.72 640.66,-25.01"/>
<polygon fill="midnightblue" stroke="midnightblue" points="418.62,-62.23 409.42,-67.48 419.89,-69.11 418.62,-62.23"/>
</g>
</g>
</svg>
