<?xml version="1.0" encoding="UTF-8" standalone="no"?>
<!DOCTYPE svg PUBLIC "-//W3C//DTD SVG 1.1//EN"
 "http://www.w3.org/Graphics/SVG/1.1/DTD/svg11.dtd">
<!-- Generated by graphviz version 2.43.0 (0)
 -->
<!-- Title: HealthGPS.Console/csvparser.h Pages: 1 -->
<svg width="1962pt" height="420pt"
 viewBox="0.00 0.00 1962.24 420.00" xmlns="http://www.w3.org/2000/svg" xmlns:xlink="http://www.w3.org/1999/xlink">
<g id="graph0" class="graph" transform="scale(1 1) rotate(0) translate(4 416)">
<title>HealthGPS.Console/csvparser.h</title>
<!-- Node1 -->
<g id="node1" class="node">
<title>Node1</title>
<g id="a_node1"><a xlink:title=" ">
<polygon fill="#bfbfbf" stroke="black" points="769.74,-392.5 769.74,-411.5 938.74,-411.5 938.74,-392.5 769.74,-392.5"/>
<text text-anchor="middle" x="854.24" y="-399.5" font-family="Helvetica,sans-Serif" font-size="10.00">HealthGPS.Console/csvparser.h</text>
</a>
</g>
</g>
<!-- Node2 -->
<g id="node2" class="node">
<title>Node2</title>
<g id="a_node2"><a xlink:href="HealthGPS_8Core_2api_8h.html" target="_top" xlink:title=" ">
<polygon fill="none" stroke="black" points="793.74,-336.5 793.74,-355.5 914.74,-355.5 914.74,-336.5 793.74,-336.5"/>
<text text-anchor="middle" x="854.24" y="-343.5" font-family="Helvetica,sans-Serif" font-size="10.00">HealthGPS.Core/api.h</text>
</a>
</g>
</g>
<!-- Node1&#45;&gt;Node2 -->
<g id="edge1" class="edge">
<title>Node1&#45;&gt;Node2</title>
<path fill="none" stroke="midnightblue" d="M854.24,-392.08C854.24,-385.01 854.24,-374.86 854.24,-365.99"/>
<polygon fill="midnightblue" stroke="midnightblue" points="857.74,-365.75 854.24,-355.75 850.74,-365.75 857.74,-365.75"/>
</g>
<!-- Node3 -->
<g id="node3" class="node">
<title>Node3</title>
<g id="a_node3"><a xlink:href="version_8h.html" target="_top" xlink:title=" ">
<polygon fill="none" stroke="black" points="124.24,-280.5 124.24,-299.5 186.24,-299.5 186.24,-280.5 124.24,-280.5"/>
<text text-anchor="middle" x="155.24" y="-287.5" font-family="Helvetica,sans-Serif" font-size="10.00">version.h</text>
</a>
</g>
</g>
<!-- Node2&#45;&gt;Node3 -->
<g id="edge2" class="edge">
<title>Node2&#45;&gt;Node3</title>
<path fill="none" stroke="midnightblue" d="M793.73,-340.33C654.5,-329.57 314.3,-303.29 196.33,-294.17"/>
<polygon fill="midnightblue" stroke="midnightblue" points="196.51,-290.68 186.27,-293.4 195.97,-297.66 196.51,-290.68"/>
</g>
<!-- Node5 -->
<g id="node5" class="node">
<title>Node5</title>
<g id="a_node5"><a xlink:href="datastore_8h.html" target="_top" xlink:title=" ">
<polygon fill="none" stroke="black" points="696.24,-280.5 696.24,-299.5 768.24,-299.5 768.24,-280.5 696.24,-280.5"/>
<text text-anchor="middle" x="732.24" y="-287.5" font-family="Helvetica,sans-Serif" font-size="10.00">datastore.h</text>
</a>
</g>
</g>
<!-- Node2&#45;&gt;Node5 -->
<g id="edge4" class="edge">
<title>Node2&#45;&gt;Node5</title>
<path fill="none" stroke="midnightblue" d="M834.91,-336.44C814.92,-327.6 783.5,-313.69 760.68,-303.59"/>
<polygon fill="midnightblue" stroke="midnightblue" points="762.04,-300.36 751.48,-299.52 759.21,-306.76 762.04,-300.36"/>
</g>
<!-- Node8 -->
<g id="node8" class="node">
<title>Node8</title>
<g id="a_node8"><a xlink:href="interval_8h.html" target="_top" xlink:title=" ">
<polygon fill="none" stroke="black" points="760.74,-224.5 760.74,-243.5 823.74,-243.5 823.74,-224.5 760.74,-224.5"/>
<text text-anchor="middle" x="792.24" y="-231.5" font-family="Helvetica,sans-Serif" font-size="10.00">interval.h</text>
</a>
</g>
</g>
<!-- Node2&#45;&gt;Node8 -->
<g id="edge68" class="edge">
<title>Node2&#45;&gt;Node8</title>
<path fill="none" stroke="midnightblue" d="M849.37,-336.37C839.19,-318.3 815.45,-276.18 801.99,-252.31"/>
<polygon fill="midnightblue" stroke="midnightblue" points="805.04,-250.58 797.08,-243.59 798.94,-254.02 805.04,-250.58"/>
</g>
<!-- Node15 -->
<g id="node15" class="node">
<title>Node15</title>
<g id="a_node15"><a xlink:href="poco_8h.html" target="_top" xlink:title=" ">
<polygon fill="none" stroke="black" points="316.74,-224.5 316.74,-243.5 365.74,-243.5 365.74,-224.5 316.74,-224.5"/>
<text text-anchor="middle" x="341.24" y="-231.5" font-family="Helvetica,sans-Serif" font-size="10.00">poco.h</text>
</a>
</g>
</g>
<!-- Node2&#45;&gt;Node15 -->
<g id="edge82" class="edge">
<title>Node2&#45;&gt;Node15</title>
<path fill="none" stroke="midnightblue" d="M793.46,-342.25C721.83,-337.88 599.71,-326.9 498.24,-300 450.12,-287.24 397.23,-263.06 366.76,-248.06"/>
<polygon fill="midnightblue" stroke="midnightblue" points="368.2,-244.87 357.69,-243.54 365.07,-251.13 368.2,-244.87"/>
</g>
<!-- Node21 -->
<g id="node21" class="node">
<title>Node21</title>
<g id="a_node21"><a xlink:href="identifier_8h.html" target="_top" xlink:title=" ">
<polygon fill="none" stroke="black" points="535.24,-112.5 535.24,-131.5 603.24,-131.5 603.24,-112.5 535.24,-112.5"/>
<text text-anchor="middle" x="569.24" y="-119.5" font-family="Helvetica,sans-Serif" font-size="10.00">identifier.h</text>
</a>
</g>
</g>
<!-- Node2&#45;&gt;Node21 -->
<g id="edge81" class="edge">
<title>Node2&#45;&gt;Node21</title>
<path fill="none" stroke="midnightblue" d="M799.68,-336.46C715.63,-321.98 561.12,-289.68 532.24,-244 521.26,-226.64 546.05,-170.1 560.22,-140.87"/>
<polygon fill="midnightblue" stroke="midnightblue" points="563.42,-142.29 564.72,-131.78 557.15,-139.19 563.42,-142.29"/>
</g>
<!-- Node26 -->
<g id="node26" class="node">
<title>Node26</title>
<g id="a_node26"><a xlink:href="visitor_8h.html" target="_top" xlink:title=" ">
<polygon fill="none" stroke="black" points="1345.24,-112.5 1345.24,-131.5 1401.24,-131.5 1401.24,-112.5 1345.24,-112.5"/>
<text text-anchor="middle" x="1373.24" y="-119.5" font-family="Helvetica,sans-Serif" font-size="10.00">visitor.h</text>
</a>
</g>
</g>
<!-- Node2&#45;&gt;Node26 -->
<g id="edge38" class="edge">
<title>Node2&#45;&gt;Node26</title>
<path fill="none" stroke="midnightblue" d="M914.9,-345.22C1107.23,-344.45 1697.13,-330.34 1805.24,-188 1853.84,-124.01 1526.05,-121.42 1411.63,-122.42"/>
<polygon fill="midnightblue" stroke="midnightblue" points="1411.52,-118.93 1401.56,-122.53 1411.59,-125.93 1411.52,-118.93"/>
</g>
<!-- Node27 -->
<g id="node27" class="node">
<title>Node27</title>
<g id="a_node27"><a xlink:href="datatable_8h.html" target="_top" xlink:title=" ">
<polygon fill="none" stroke="black" points="855.24,-224.5 855.24,-243.5 927.24,-243.5 927.24,-224.5 855.24,-224.5"/>
<text text-anchor="middle" x="891.24" y="-231.5" font-family="Helvetica,sans-Serif" font-size="10.00">datatable.h</text>
</a>
</g>
</g>
<!-- Node2&#45;&gt;Node27 -->
<g id="edge40" class="edge">
<title>Node2&#45;&gt;Node27</title>
<path fill="none" stroke="midnightblue" d="M857.14,-336.37C863.14,-318.54 877.01,-277.3 885.09,-253.27"/>
<polygon fill="midnightblue" stroke="midnightblue" points="888.48,-254.19 888.35,-243.59 881.84,-251.95 888.48,-254.19"/>
</g>
<!-- Node35 -->
<g id="node35" class="node">
<title>Node35</title>
<g id="a_node35"><a xlink:href="column__numeric_8h.html" target="_top" xlink:title=" ">
<polygon fill="none" stroke="black" points="1029.74,-280.5 1029.74,-299.5 1136.74,-299.5 1136.74,-280.5 1029.74,-280.5"/>
<text text-anchor="middle" x="1083.24" y="-287.5" font-family="Helvetica,sans-Serif" font-size="10.00">column_numeric.h</text>
</a>
</g>
</g>
<!-- Node2&#45;&gt;Node35 -->
<g id="edge53" class="edge">
<title>Node2&#45;&gt;Node35</title>
<path fill="none" stroke="midnightblue" d="M890.52,-336.44C930.22,-327.08 993.95,-312.06 1037.15,-301.87"/>
<polygon fill="midnightblue" stroke="midnightblue" points="1038.19,-305.22 1047.12,-299.52 1036.59,-298.41 1038.19,-305.22"/>
</g>
<!-- Node37 -->
<g id="node37" class="node">
<title>Node37</title>
<g id="a_node37"><a xlink:href="column__iterator_8h.html" target="_top" xlink:title=" ">
<polygon fill="none" stroke="black" points="1852.24,-168.5 1852.24,-187.5 1954.24,-187.5 1954.24,-168.5 1852.24,-168.5"/>
<text text-anchor="middle" x="1903.24" y="-175.5" font-family="Helvetica,sans-Serif" font-size="10.00">column_iterator.h</text>
</a>
</g>
</g>
<!-- Node2&#45;&gt;Node37 -->
<g id="edge67" class="edge">
<title>Node2&#45;&gt;Node37</title>
<path fill="none" stroke="midnightblue" d="M914.85,-343.87C1123.16,-339.77 1799.09,-324.64 1838.24,-300 1874.96,-276.89 1892.31,-225.51 1899.29,-197.72"/>
<polygon fill="midnightblue" stroke="midnightblue" points="1902.76,-198.24 1901.6,-187.71 1895.94,-196.67 1902.76,-198.24"/>
</g>
<!-- Node39 -->
<g id="node39" class="node">
<title>Node39</title>
<g id="a_node39"><a xlink:href="column__builder_8h.html" target="_top" xlink:title=" ">
<polygon fill="none" stroke="black" points="1495.24,-224.5 1495.24,-243.5 1595.24,-243.5 1595.24,-224.5 1495.24,-224.5"/>
<text text-anchor="middle" x="1545.24" y="-231.5" font-family="Helvetica,sans-Serif" font-size="10.00">column_builder.h</text>
</a>
</g>
</g>
<!-- Node2&#45;&gt;Node39 -->
<g id="edge61" class="edge">
<title>Node2&#45;&gt;Node39</title>
<path fill="none" stroke="midnightblue" d="M914.82,-337.86C982.56,-329.65 1095.47,-315.34 1192.24,-300 1299.22,-283.04 1423.67,-259.14 1492.54,-245.55"/>
<polygon fill="midnightblue" stroke="midnightblue" points="1493.57,-248.91 1502.7,-243.54 1492.21,-242.05 1493.57,-248.91"/>
</g>
<!-- Node42 -->
<g id="node42" class="node">
<title>Node42</title>
<g id="a_node42"><a xlink:href="array2d_8h.html" target="_top" xlink:title=" ">
<polygon fill="none" stroke="black" points="1307.74,-224.5 1307.74,-243.5 1370.74,-243.5 1370.74,-224.5 1307.74,-224.5"/>
<text text-anchor="middle" x="1339.24" y="-231.5" font-family="Helvetica,sans-Serif" font-size="10.00">array2d.h</text>
</a>
</g>
</g>
<!-- Node2&#45;&gt;Node42 -->
<g id="edge69" class="edge">
<title>Node2&#45;&gt;Node42</title>
<path fill="none" stroke="midnightblue" d="M914.95,-338.73C974.43,-331.86 1067.37,-319.21 1146.24,-300 1204.74,-285.75 1270.8,-261.7 1308.49,-247.19"/>
<polygon fill="midnightblue" stroke="midnightblue" points="1309.83,-250.42 1317.89,-243.54 1307.3,-243.9 1309.83,-250.42"/>
</g>
<!-- Node45 -->
<g id="node45" class="node">
<title>Node45</title>
<g id="a_node45"><a xlink:href="univariate__summary_8h.html" target="_top" xlink:title=" ">
<polygon fill="none" stroke="black" points="540.74,-224.5 540.74,-243.5 665.74,-243.5 665.74,-224.5 540.74,-224.5"/>
<text text-anchor="middle" x="603.24" y="-231.5" font-family="Helvetica,sans-Serif" font-size="10.00">univariate_summary.h</text>
</a>
</g>
</g>
<!-- Node2&#45;&gt;Node45 -->
<g id="edge77" class="edge">
<title>Node2&#45;&gt;Node45</title>
<path fill="none" stroke="midnightblue" d="M801.92,-336.43C768,-329.56 723.55,-318.03 687.24,-300 661.08,-287.01 635.14,-265.21 619.15,-250.48"/>
<polygon fill="midnightblue" stroke="midnightblue" points="621.43,-247.82 611.76,-243.5 616.63,-252.91 621.43,-247.82"/>
</g>
<!-- Node4 -->
<g id="node4" class="node">
<title>Node4</title>
<g id="a_node4"><a xlink:title=" ">
<polygon fill="none" stroke="#bfbfbf" points="326.24,-56.5 326.24,-75.5 370.24,-75.5 370.24,-56.5 326.24,-56.5"/>
<text text-anchor="middle" x="348.24" y="-63.5" font-family="Helvetica,sans-Serif" font-size="10.00">string</text>
</a>
</g>
</g>
<!-- Node3&#45;&gt;Node4 -->
<g id="edge3" class="edge">
<title>Node3&#45;&gt;Node4</title>
<path fill="none" stroke="midnightblue" d="M138.89,-280.5C91.09,-254.62 -41.62,-174.72 13.24,-112 52.36,-67.27 239.27,-65.15 315.63,-66.22"/>
<polygon fill="midnightblue" stroke="midnightblue" points="316.01,-69.72 326.06,-66.39 316.12,-62.72 316.01,-69.72"/>
</g>
<!-- Node6 -->
<g id="node6" class="node">
<title>Node6</title>
<g id="a_node6"><a xlink:title=" ">
<polygon fill="none" stroke="#bfbfbf" points="735.74,-112.5 735.74,-131.5 782.74,-131.5 782.74,-112.5 735.74,-112.5"/>
<text text-anchor="middle" x="759.24" y="-119.5" font-family="Helvetica,sans-Serif" font-size="10.00">vector</text>
</a>
</g>
</g>
<!-- Node5&#45;&gt;Node6 -->
<g id="edge5" class="edge">
<title>Node5&#45;&gt;Node6</title>
<path fill="none" stroke="midnightblue" d="M724.61,-280.27C704.12,-256.77 649.28,-193.6 647.24,-188 644.19,-179.65 642.26,-175.36 647.24,-168 664.64,-142.25 699.47,-131.23 725.7,-126.52"/>
<polygon fill="midnightblue" stroke="midnightblue" points="726.29,-129.97 735.62,-124.96 725.2,-123.06 726.29,-129.97"/>
</g>
<!-- Node7 -->
<g id="node7" class="node">
<title>Node7</title>
<g id="a_node7"><a xlink:title=" ">
<polygon fill="none" stroke="#bfbfbf" points="656.24,-168.5 656.24,-187.5 712.24,-187.5 712.24,-168.5 656.24,-168.5"/>
<text text-anchor="middle" x="684.24" y="-175.5" font-family="Helvetica,sans-Serif" font-size="10.00">optional</text>
</a>
</g>
</g>
<!-- Node5&#45;&gt;Node7 -->
<g id="edge6" class="edge">
<title>Node5&#45;&gt;Node7</title>
<path fill="none" stroke="midnightblue" d="M729.49,-280.44C725.37,-267.86 717.1,-243.75 708.24,-224 704.12,-214.81 698.92,-204.9 694.42,-196.73"/>
<polygon fill="midnightblue" stroke="midnightblue" points="697.34,-194.79 689.39,-187.79 691.24,-198.22 697.34,-194.79"/>
</g>
<!-- Node5&#45;&gt;Node8 -->
<g id="edge7" class="edge">
<title>Node5&#45;&gt;Node8</title>
<path fill="none" stroke="midnightblue" d="M741.88,-280.32C750.75,-272.34 764.11,-260.31 774.85,-250.65"/>
<polygon fill="midnightblue" stroke="midnightblue" points="777.33,-253.13 782.42,-243.83 772.65,-247.92 777.33,-253.13"/>
</g>
<!-- Node5&#45;&gt;Node15 -->
<g id="edge15" class="edge">
<title>Node5&#45;&gt;Node15</title>
<path fill="none" stroke="midnightblue" d="M696.16,-284.02C621.38,-273.69 450.31,-250.06 376.36,-239.85"/>
<polygon fill="midnightblue" stroke="midnightblue" points="376.57,-236.35 366.18,-238.44 375.61,-243.28 376.57,-236.35"/>
</g>
<!-- Node9 -->
<g id="node9" class="node">
<title>Node9</title>
<g id="a_node9"><a xlink:href="forward__type_8h.html" target="_top" xlink:title=" ">
<polygon fill="none" stroke="black" points="662.24,-56.5 662.24,-75.5 752.24,-75.5 752.24,-56.5 662.24,-56.5"/>
<text text-anchor="middle" x="707.24" y="-63.5" font-family="Helvetica,sans-Serif" font-size="10.00">forward_type.h</text>
</a>
</g>
</g>
<!-- Node8&#45;&gt;Node9 -->
<g id="edge8" class="edge">
<title>Node8&#45;&gt;Node9</title>
<path fill="none" stroke="midnightblue" d="M785.45,-224.29C772.53,-207.37 744.2,-168.49 727.24,-132 720.24,-116.94 714.9,-98.82 711.5,-85.53"/>
<polygon fill="midnightblue" stroke="midnightblue" points="714.87,-84.58 709.11,-75.69 708.07,-86.23 714.87,-84.58"/>
</g>
<!-- Node12 -->
<g id="node12" class="node">
<title>Node12</title>
<g id="a_node12"><a xlink:href="string__util_8h.html" target="_top" xlink:title=" ">
<polygon fill="none" stroke="black" points="311.24,-112.5 311.24,-131.5 385.24,-131.5 385.24,-112.5 311.24,-112.5"/>
<text text-anchor="middle" x="348.24" y="-119.5" font-family="Helvetica,sans-Serif" font-size="10.00">string_util.h</text>
</a>
</g>
</g>
<!-- Node8&#45;&gt;Node12 -->
<g id="edge11" class="edge">
<title>Node8&#45;&gt;Node12</title>
<path fill="none" stroke="midnightblue" d="M760.57,-230.61C664.55,-223.25 382.35,-200.62 367.24,-188 353.87,-176.83 349.61,-156.8 348.4,-141.92"/>
<polygon fill="midnightblue" stroke="midnightblue" points="351.89,-141.62 347.96,-131.78 344.89,-141.92 351.89,-141.62"/>
</g>
<!-- Node14 -->
<g id="node14" class="node">
<title>Node14</title>
<g id="a_node14"><a xlink:title=" ">
<polygon fill="none" stroke="#bfbfbf" points="1022.74,-168.5 1022.74,-187.5 1101.74,-187.5 1101.74,-168.5 1022.74,-168.5"/>
<text text-anchor="middle" x="1062.24" y="-175.5" font-family="Helvetica,sans-Serif" font-size="10.00">fmt/format.h</text>
</a>
</g>
</g>
<!-- Node8&#45;&gt;Node14 -->
<g id="edge14" class="edge">
<title>Node8&#45;&gt;Node14</title>
<path fill="none" stroke="midnightblue" d="M823.74,-226.7C870.23,-217.4 957.64,-199.92 1012.75,-188.9"/>
<polygon fill="midnightblue" stroke="midnightblue" points="1013.53,-192.31 1022.65,-186.92 1012.15,-185.45 1013.53,-192.31"/>
</g>
<!-- Node10 -->
<g id="node10" class="node">
<title>Node10</title>
<g id="a_node10"><a xlink:title=" ">
<polygon fill="none" stroke="#bfbfbf" points="633.74,-0.5 633.74,-19.5 702.74,-19.5 702.74,-0.5 633.74,-0.5"/>
<text text-anchor="middle" x="668.24" y="-7.5" font-family="Helvetica,sans-Serif" font-size="10.00">type_traits</text>
</a>
</g>
</g>
<!-- Node9&#45;&gt;Node10 -->
<g id="edge9" class="edge">
<title>Node9&#45;&gt;Node10</title>
<path fill="none" stroke="midnightblue" d="M700.8,-56.08C695.29,-48.46 687.21,-37.26 680.47,-27.94"/>
<polygon fill="midnightblue" stroke="midnightblue" points="683.25,-25.81 674.56,-19.75 677.58,-29.91 683.25,-25.81"/>
</g>
<!-- Node11 -->
<g id="node11" class="node">
<title>Node11</title>
<g id="a_node11"><a xlink:title=" ">
<polygon fill="none" stroke="#bfbfbf" points="721.24,-0.5 721.24,-19.5 771.24,-19.5 771.24,-0.5 721.24,-0.5"/>
<text text-anchor="middle" x="746.24" y="-7.5" font-family="Helvetica,sans-Serif" font-size="10.00">cstdint</text>
</a>
</g>
</g>
<!-- Node9&#45;&gt;Node11 -->
<g id="edge10" class="edge">
<title>Node9&#45;&gt;Node11</title>
<path fill="none" stroke="midnightblue" d="M713.68,-56.08C719.19,-48.46 727.27,-37.26 734,-27.94"/>
<polygon fill="midnightblue" stroke="midnightblue" points="736.9,-29.91 739.92,-19.75 731.23,-25.81 736.9,-29.91"/>
</g>
<!-- Node12&#45;&gt;Node4 -->
<g id="edge12" class="edge">
<title>Node12&#45;&gt;Node4</title>
<path fill="none" stroke="midnightblue" d="M348.24,-112.08C348.24,-105.01 348.24,-94.86 348.24,-85.99"/>
<polygon fill="midnightblue" stroke="midnightblue" points="351.74,-85.75 348.24,-75.75 344.74,-85.75 351.74,-85.75"/>
</g>
<!-- Node13 -->
<g id="node13" class="node">
<title>Node13</title>
<g id="a_node13"><a xlink:title=" ">
<polygon fill="none" stroke="#bfbfbf" points="446.74,-56.5 446.74,-75.5 511.74,-75.5 511.74,-56.5 446.74,-56.5"/>
<text text-anchor="middle" x="479.24" y="-63.5" font-family="Helvetica,sans-Serif" font-size="10.00">functional</text>
</a>
</g>
</g>
<!-- Node12&#45;&gt;Node13 -->
<g id="edge13" class="edge">
<title>Node12&#45;&gt;Node13</title>
<path fill="none" stroke="midnightblue" d="M369,-112.44C390.56,-103.56 424.5,-89.56 449.03,-79.45"/>
<polygon fill="midnightblue" stroke="midnightblue" points="450.67,-82.56 458.58,-75.52 448,-76.09 450.67,-82.56"/>
</g>
<!-- Node16 -->
<g id="node16" class="node">
<title>Node16</title>
<g id="a_node16"><a xlink:href="country_8h.html" target="_top" xlink:title=" ">
<polygon fill="none" stroke="black" points="193.74,-112.5 193.74,-131.5 254.74,-131.5 254.74,-112.5 193.74,-112.5"/>
<text text-anchor="middle" x="224.24" y="-119.5" font-family="Helvetica,sans-Serif" font-size="10.00">country.h</text>
</a>
</g>
</g>
<!-- Node15&#45;&gt;Node16 -->
<g id="edge16" class="edge">
<title>Node15&#45;&gt;Node16</title>
<path fill="none" stroke="midnightblue" d="M332.06,-224.37C312.41,-205.89 266.03,-162.29 240.98,-138.74"/>
<polygon fill="midnightblue" stroke="midnightblue" points="243.06,-135.89 233.38,-131.59 238.27,-140.99 243.06,-135.89"/>
</g>
<!-- Node17 -->
<g id="node17" class="node">
<title>Node17</title>
<g id="a_node17"><a xlink:href="population__item_8h.html" target="_top" xlink:title=" ">
<polygon fill="none" stroke="black" points="51.74,-168.5 51.74,-187.5 156.74,-187.5 156.74,-168.5 51.74,-168.5"/>
<text text-anchor="middle" x="104.24" y="-175.5" font-family="Helvetica,sans-Serif" font-size="10.00">population_item.h</text>
</a>
</g>
</g>
<!-- Node15&#45;&gt;Node17 -->
<g id="edge18" class="edge">
<title>Node15&#45;&gt;Node17</title>
<path fill="none" stroke="midnightblue" d="M316.32,-227.32C277.3,-218.43 201.09,-201.07 151.45,-189.76"/>
<polygon fill="midnightblue" stroke="midnightblue" points="152.12,-186.32 141.59,-187.51 150.56,-193.14 152.12,-186.32"/>
</g>
<!-- Node19 -->
<g id="node19" class="node">
<title>Node19</title>
<g id="a_node19"><a xlink:href="HealthGPS_8Core_2disease_8h.html" target="_top" xlink:title=" ">
<polygon fill="none" stroke="black" points="460.74,-168.5 460.74,-187.5 523.74,-187.5 523.74,-168.5 460.74,-168.5"/>
<text text-anchor="middle" x="492.24" y="-175.5" font-family="Helvetica,sans-Serif" font-size="10.00">disease.h</text>
</a>
</g>
</g>
<!-- Node15&#45;&gt;Node19 -->
<g id="edge20" class="edge">
<title>Node15&#45;&gt;Node19</title>
<path fill="none" stroke="midnightblue" d="M365.17,-224.44C390.46,-215.4 430.54,-201.06 458.92,-190.92"/>
<polygon fill="midnightblue" stroke="midnightblue" points="460.19,-194.18 468.42,-187.52 457.83,-187.59 460.19,-194.18"/>
</g>
<!-- Node23 -->
<g id="node23" class="node">
<title>Node23</title>
<g id="a_node23"><a xlink:href="analysis_8h.html" target="_top" xlink:title=" ">
<polygon fill="none" stroke="black" points="376.24,-168.5 376.24,-187.5 442.24,-187.5 442.24,-168.5 376.24,-168.5"/>
<text text-anchor="middle" x="409.24" y="-175.5" font-family="Helvetica,sans-Serif" font-size="10.00">analysis.h</text>
</a>
</g>
</g>
<!-- Node15&#45;&gt;Node23 -->
<g id="edge29" class="edge">
<title>Node15&#45;&gt;Node23</title>
<path fill="none" stroke="midnightblue" d="M352.16,-224.32C362.41,-216.18 377.96,-203.84 390.24,-194.09"/>
<polygon fill="midnightblue" stroke="midnightblue" points="392.46,-196.79 398.12,-187.83 388.11,-191.31 392.46,-196.79"/>
</g>
<!-- Node24 -->
<g id="node24" class="node">
<title>Node24</title>
<g id="a_node24"><a xlink:href="indicator_8h.html" target="_top" xlink:title=" ">
<polygon fill="none" stroke="black" points="22.24,-112.5 22.24,-131.5 90.24,-131.5 90.24,-112.5 22.24,-112.5"/>
<text text-anchor="middle" x="56.24" y="-119.5" font-family="Helvetica,sans-Serif" font-size="10.00">indicator.h</text>
</a>
</g>
</g>
<!-- Node15&#45;&gt;Node24 -->
<g id="edge34" class="edge">
<title>Node15&#45;&gt;Node24</title>
<path fill="none" stroke="midnightblue" d="M316.47,-233.21C251.3,-233.19 77.68,-229.18 42.24,-188 30.98,-174.92 37.65,-154.95 45.14,-140.6"/>
<polygon fill="midnightblue" stroke="midnightblue" points="48.3,-142.13 50.25,-131.71 42.23,-138.64 48.3,-142.13"/>
</g>
<!-- Node25 -->
<g id="node25" class="node">
<title>Node25</title>
<g id="a_node25"><a xlink:href="mortality_8h.html" target="_top" xlink:title=" ">
<polygon fill="none" stroke="black" points="174.74,-168.5 174.74,-187.5 243.74,-187.5 243.74,-168.5 174.74,-168.5"/>
<text text-anchor="middle" x="209.24" y="-175.5" font-family="Helvetica,sans-Serif" font-size="10.00">mortality.h</text>
</a>
</g>
</g>
<!-- Node15&#45;&gt;Node25 -->
<g id="edge36" class="edge">
<title>Node15&#45;&gt;Node25</title>
<path fill="none" stroke="midnightblue" d="M320.32,-224.44C298.5,-215.52 264.09,-201.44 239.35,-191.32"/>
<polygon fill="midnightblue" stroke="midnightblue" points="240.64,-188.06 230.06,-187.52 237.99,-194.54 240.64,-188.06"/>
</g>
<!-- Node16&#45;&gt;Node4 -->
<g id="edge17" class="edge">
<title>Node16&#45;&gt;Node4</title>
<path fill="none" stroke="midnightblue" d="M243.89,-112.44C264.2,-103.6 296.14,-89.69 319.34,-79.59"/>
<polygon fill="midnightblue" stroke="midnightblue" points="320.91,-82.72 328.68,-75.52 318.12,-76.3 320.91,-82.72"/>
</g>
<!-- Node18 -->
<g id="node18" class="node">
<title>Node18</title>
<g id="a_node18"><a xlink:title=" ">
<polygon fill="none" stroke="#bfbfbf" points="125.74,-112.5 125.74,-131.5 166.74,-131.5 166.74,-112.5 125.74,-112.5"/>
<text text-anchor="middle" x="146.24" y="-119.5" font-family="Helvetica,sans-Serif" font-size="10.00">tuple</text>
</a>
</g>
</g>
<!-- Node17&#45;&gt;Node18 -->
<g id="edge19" class="edge">
<title>Node17&#45;&gt;Node18</title>
<path fill="none" stroke="midnightblue" d="M111.17,-168.08C117.17,-160.38 125.99,-149.03 133.29,-139.65"/>
<polygon fill="midnightblue" stroke="midnightblue" points="136.06,-141.79 139.43,-131.75 130.53,-137.5 136.06,-141.79"/>
</g>
<!-- Node19&#45;&gt;Node4 -->
<g id="edge21" class="edge">
<title>Node19&#45;&gt;Node4</title>
<path fill="none" stroke="midnightblue" d="M494.5,-168.37C497.49,-154.82 501,-128.43 488.24,-112 462.79,-79.26 413.28,-69.95 380.48,-67.52"/>
<polygon fill="midnightblue" stroke="midnightblue" points="380.66,-64.02 370.47,-66.95 380.26,-71.01 380.66,-64.02"/>
</g>
<!-- Node19&#45;&gt;Node6 -->
<g id="edge22" class="edge">
<title>Node19&#45;&gt;Node6</title>
<path fill="none" stroke="midnightblue" d="M523.92,-170.59C574.58,-160.35 673.4,-140.36 725.39,-129.85"/>
<polygon fill="midnightblue" stroke="midnightblue" points="726.33,-133.23 735.44,-127.81 724.95,-126.36 726.33,-133.23"/>
</g>
<!-- Node19&#45;&gt;Node9 -->
<g id="edge24" class="edge">
<title>Node19&#45;&gt;Node9</title>
<path fill="none" stroke="midnightblue" d="M523.79,-172.65C556.16,-167.1 607.06,-155.28 645.24,-132 665.75,-119.49 684.02,-98.51 695.33,-83.77"/>
<polygon fill="midnightblue" stroke="midnightblue" points="698.29,-85.66 701.42,-75.53 692.66,-81.49 698.29,-85.66"/>
</g>
<!-- Node20 -->
<g id="node20" class="node">
<title>Node20</title>
<g id="a_node20"><a xlink:title=" ">
<polygon fill="none" stroke="#bfbfbf" points="441.24,-112.5 441.24,-131.5 479.24,-131.5 479.24,-112.5 441.24,-112.5"/>
<text text-anchor="middle" x="460.24" y="-119.5" font-family="Helvetica,sans-Serif" font-size="10.00">map</text>
</a>
</g>
</g>
<!-- Node19&#45;&gt;Node20 -->
<g id="edge23" class="edge">
<title>Node19&#45;&gt;Node20</title>
<path fill="none" stroke="midnightblue" d="M486.96,-168.08C482.53,-160.61 476.08,-149.72 470.62,-140.52"/>
<polygon fill="midnightblue" stroke="midnightblue" points="473.53,-138.57 465.43,-131.75 467.51,-142.14 473.53,-138.57"/>
</g>
<!-- Node19&#45;&gt;Node21 -->
<g id="edge25" class="edge">
<title>Node19&#45;&gt;Node21</title>
<path fill="none" stroke="midnightblue" d="M504.61,-168.32C516.4,-160.06 534.37,-147.45 548.37,-137.63"/>
<polygon fill="midnightblue" stroke="midnightblue" points="550.72,-140.26 556.9,-131.65 546.7,-134.53 550.72,-140.26"/>
</g>
<!-- Node21&#45;&gt;Node4 -->
<g id="edge26" class="edge">
<title>Node21&#45;&gt;Node4</title>
<path fill="none" stroke="midnightblue" d="M535.19,-112.68C492.89,-102.34 421.26,-84.84 380.03,-74.77"/>
<polygon fill="midnightblue" stroke="midnightblue" points="380.79,-71.35 370.24,-72.38 379.12,-78.15 380.79,-71.35"/>
</g>
<!-- Node21&#45;&gt;Node13 -->
<g id="edge28" class="edge">
<title>Node21&#45;&gt;Node13</title>
<path fill="none" stroke="midnightblue" d="M554.78,-112.32C540.74,-103.9 519.19,-90.97 502.7,-81.07"/>
<polygon fill="midnightblue" stroke="midnightblue" points="504.04,-77.8 493.66,-75.65 500.44,-83.8 504.04,-77.8"/>
</g>
<!-- Node22 -->
<g id="node22" class="node">
<title>Node22</title>
<g id="a_node22"><a xlink:title=" ">
<polygon fill="none" stroke="#bfbfbf" points="563.74,-56.5 563.74,-75.5 620.74,-75.5 620.74,-56.5 563.74,-56.5"/>
<text text-anchor="middle" x="592.24" y="-63.5" font-family="Helvetica,sans-Serif" font-size="10.00">ostream</text>
</a>
</g>
</g>
<!-- Node21&#45;&gt;Node22 -->
<g id="edge27" class="edge">
<title>Node21&#45;&gt;Node22</title>
<path fill="none" stroke="midnightblue" d="M573.04,-112.08C576.15,-104.77 580.66,-94.18 584.53,-85.1"/>
<polygon fill="midnightblue" stroke="midnightblue" points="587.81,-86.32 588.51,-75.75 581.37,-83.58 587.81,-86.32"/>
</g>
<!-- Node23&#45;&gt;Node4 -->
<g id="edge32" class="edge">
<title>Node23&#45;&gt;Node4</title>
<path fill="none" stroke="midnightblue" d="M408.79,-168.45C407.79,-155.48 404.56,-130.38 394.24,-112 387.79,-100.51 377.52,-90.06 368.32,-82.13"/>
<polygon fill="midnightblue" stroke="midnightblue" points="370.28,-79.2 360.32,-75.59 365.85,-84.63 370.28,-79.2"/>
</g>
<!-- Node23&#45;&gt;Node6 -->
<g id="edge31" class="edge">
<title>Node23&#45;&gt;Node6</title>
<path fill="none" stroke="midnightblue" d="M442.67,-169.63C445.56,-169.05 448.45,-168.5 451.24,-168 550.42,-150.15 668.54,-134.43 725.38,-127.2"/>
<polygon fill="midnightblue" stroke="midnightblue" points="726.1,-130.64 735.58,-125.91 725.22,-123.7 726.1,-130.64"/>
</g>
<!-- Node23&#45;&gt;Node9 -->
<g id="edge33" class="edge">
<title>Node23&#45;&gt;Node9</title>
<path fill="none" stroke="midnightblue" d="M442.42,-169.81C498.97,-157.54 608.32,-133.7 612.24,-132 620.23,-128.53 661.44,-99.61 686.89,-81.54"/>
<polygon fill="midnightblue" stroke="midnightblue" points="689.03,-84.3 695.15,-75.65 684.97,-78.6 689.03,-84.3"/>
</g>
<!-- Node23&#45;&gt;Node20 -->
<g id="edge30" class="edge">
<title>Node23&#45;&gt;Node20</title>
<path fill="none" stroke="midnightblue" d="M417.66,-168.08C425.09,-160.22 436.09,-148.57 445.05,-139.08"/>
<polygon fill="midnightblue" stroke="midnightblue" points="447.65,-141.42 451.97,-131.75 442.56,-136.62 447.65,-141.42"/>
</g>
<!-- Node24&#45;&gt;Node4 -->
<g id="edge35" class="edge">
<title>Node24&#45;&gt;Node4</title>
<path fill="none" stroke="midnightblue" d="M90.31,-114.7C147.12,-104.19 260.46,-83.23 316.02,-72.96"/>
<polygon fill="midnightblue" stroke="midnightblue" points="316.82,-76.37 326.01,-71.11 315.54,-69.49 316.82,-76.37"/>
</g>
<!-- Node25&#45;&gt;Node18 -->
<g id="edge37" class="edge">
<title>Node25&#45;&gt;Node18</title>
<path fill="none" stroke="midnightblue" d="M199.12,-168.32C189.71,-160.26 175.5,-148.08 164.17,-138.37"/>
<polygon fill="midnightblue" stroke="midnightblue" points="166.42,-135.68 156.55,-131.83 161.86,-141 166.42,-135.68"/>
</g>
<!-- Node26&#45;&gt;Node9 -->
<g id="edge39" class="edge">
<title>Node26&#45;&gt;Node9</title>
<path fill="none" stroke="midnightblue" d="M1345.06,-113.63C1342.09,-113.01 1339.11,-112.45 1336.24,-112 1126.14,-79.17 872.76,-70.25 762.73,-67.86"/>
<polygon fill="midnightblue" stroke="midnightblue" points="762.6,-64.36 752.53,-67.65 762.46,-71.36 762.6,-64.36"/>
</g>
<!-- Node27&#45;&gt;Node6 -->
<g id="edge43" class="edge">
<title>Node27&#45;&gt;Node6</title>
<path fill="none" stroke="midnightblue" d="M866.13,-224.37C847.06,-216.91 820.99,-204.69 802.24,-188 787.27,-174.68 775.24,-155.03 767.74,-140.82"/>
<polygon fill="midnightblue" stroke="midnightblue" points="770.73,-138.97 763.12,-131.6 764.48,-142.11 770.73,-138.97"/>
</g>
<!-- Node27&#45;&gt;Node7 -->
<g id="edge46" class="edge">
<title>Node27&#45;&gt;Node7</title>
<path fill="none" stroke="midnightblue" d="M858.44,-224.44C821.5,-214.81 761.54,-199.17 722.5,-188.98"/>
<polygon fill="midnightblue" stroke="midnightblue" points="723.12,-185.53 712.56,-186.39 721.35,-192.3 723.12,-185.53"/>
</g>
<!-- Node27&#45;&gt;Node22 -->
<g id="edge47" class="edge">
<title>Node27&#45;&gt;Node22</title>
<path fill="none" stroke="midnightblue" d="M878.33,-224.48C866.41,-216.16 848.71,-202.66 836.24,-188 810.95,-158.27 823.69,-135.11 792.24,-112 779.31,-102.5 685.31,-84.05 630.9,-73.97"/>
<polygon fill="midnightblue" stroke="midnightblue" points="631.38,-70.5 620.91,-72.13 630.11,-77.39 631.38,-70.5"/>
</g>
<!-- Node28 -->
<g id="node28" class="node">
<title>Node28</title>
<g id="a_node28"><a xlink:title=" ">
<polygon fill="none" stroke="#bfbfbf" points="1358.24,-168.5 1358.24,-187.5 1416.24,-187.5 1416.24,-168.5 1358.24,-168.5"/>
<text text-anchor="middle" x="1387.24" y="-175.5" font-family="Helvetica,sans-Serif" font-size="10.00">memory</text>
</a>
</g>
</g>
<!-- Node27&#45;&gt;Node28 -->
<g id="edge41" class="edge">
<title>Node27&#45;&gt;Node28</title>
<path fill="none" stroke="midnightblue" d="M927.38,-231.11C1003.44,-226.77 1185.72,-214.51 1347.71,-188.05"/>
<polygon fill="midnightblue" stroke="midnightblue" points="1348.57,-191.46 1357.86,-186.37 1347.42,-184.55 1348.57,-191.46"/>
</g>
<!-- Node29 -->
<g id="node29" class="node">
<title>Node29</title>
<g id="a_node29"><a xlink:title=" ">
<polygon fill="none" stroke="#bfbfbf" points="956.24,-168.5 956.24,-187.5 1004.24,-187.5 1004.24,-168.5 956.24,-168.5"/>
<text text-anchor="middle" x="980.24" y="-175.5" font-family="Helvetica,sans-Serif" font-size="10.00">mutex</text>
</a>
</g>
</g>
<!-- Node27&#45;&gt;Node29 -->
<g id="edge42" class="edge">
<title>Node27&#45;&gt;Node29</title>
<path fill="none" stroke="midnightblue" d="M905.54,-224.32C919.42,-215.9 940.73,-202.97 957.04,-193.07"/>
<polygon fill="midnightblue" stroke="midnightblue" points="959.24,-195.83 965.98,-187.65 955.61,-189.85 959.24,-195.83"/>
</g>
<!-- Node30 -->
<g id="node30" class="node">
<title>Node30</title>
<g id="a_node30"><a xlink:title=" ">
<polygon fill="none" stroke="#bfbfbf" points="844.74,-168.5 844.74,-187.5 937.74,-187.5 937.74,-168.5 844.74,-168.5"/>
<text text-anchor="middle" x="891.24" y="-175.5" font-family="Helvetica,sans-Serif" font-size="10.00">unordered_map</text>
</a>
</g>
</g>
<!-- Node27&#45;&gt;Node30 -->
<g id="edge44" class="edge">
<title>Node27&#45;&gt;Node30</title>
<path fill="none" stroke="midnightblue" d="M891.24,-224.08C891.24,-217.01 891.24,-206.86 891.24,-197.99"/>
<polygon fill="midnightblue" stroke="midnightblue" points="894.74,-197.75 891.24,-187.75 887.74,-197.75 894.74,-197.75"/>
</g>
<!-- Node31 -->
<g id="node31" class="node">
<title>Node31</title>
<g id="a_node31"><a xlink:title=" ">
<polygon fill="none" stroke="#bfbfbf" points="1120.24,-168.5 1120.24,-187.5 1184.24,-187.5 1184.24,-168.5 1120.24,-168.5"/>
<text text-anchor="middle" x="1152.24" y="-175.5" font-family="Helvetica,sans-Serif" font-size="10.00">algorithm</text>
</a>
</g>
</g>
<!-- Node27&#45;&gt;Node31 -->
<g id="edge45" class="edge">
<title>Node27&#45;&gt;Node31</title>
<path fill="none" stroke="midnightblue" d="M927.48,-225.75C969.15,-217.38 1039.88,-203.07 1110.12,-188.22"/>
<polygon fill="midnightblue" stroke="midnightblue" points="1110.96,-191.61 1120.02,-186.12 1109.51,-184.77 1110.96,-191.61"/>
</g>
<!-- Node32 -->
<g id="node32" class="node">
<title>Node32</title>
<g id="a_node32"><a xlink:href="column_8h.html" target="_top" xlink:title=" ">
<polygon fill="none" stroke="black" points="1278.24,-168.5 1278.24,-187.5 1340.24,-187.5 1340.24,-168.5 1278.24,-168.5"/>
<text text-anchor="middle" x="1309.24" y="-175.5" font-family="Helvetica,sans-Serif" font-size="10.00">column.h</text>
</a>
</g>
</g>
<!-- Node27&#45;&gt;Node32 -->
<g id="edge48" class="edge">
<title>Node27&#45;&gt;Node32</title>
<path fill="none" stroke="midnightblue" d="M927.24,-228.35C1004.63,-218.35 1186.42,-194.87 1268.16,-184.31"/>
<polygon fill="midnightblue" stroke="midnightblue" points="1268.61,-187.78 1278.08,-183.03 1267.71,-180.84 1268.61,-187.78"/>
</g>
<!-- Node32&#45;&gt;Node4 -->
<g id="edge51" class="edge">
<title>Node32&#45;&gt;Node4</title>
<path fill="none" stroke="midnightblue" d="M1278.23,-172.28C1268.62,-170.85 1258,-169.32 1248.24,-168 1045.89,-140.65 995.16,-134.74 792.24,-112 787.1,-111.42 481.8,-80.52 380.5,-70.27"/>
<polygon fill="midnightblue" stroke="midnightblue" points="380.57,-66.75 370.27,-69.23 379.86,-73.72 380.57,-66.75"/>
</g>
<!-- Node32&#45;&gt;Node26 -->
<g id="edge52" class="edge">
<title>Node32&#45;&gt;Node26</title>
<path fill="none" stroke="midnightblue" d="M1319.52,-168.32C1329.08,-160.26 1343.52,-148.08 1355.02,-138.37"/>
<polygon fill="midnightblue" stroke="midnightblue" points="1357.38,-140.96 1362.77,-131.83 1352.87,-135.61 1357.38,-140.96"/>
</g>
<!-- Node33 -->
<g id="node33" class="node">
<title>Node33</title>
<g id="a_node33"><a xlink:title=" ">
<polygon fill="none" stroke="#bfbfbf" points="1291.74,-112.5 1291.74,-131.5 1326.74,-131.5 1326.74,-112.5 1291.74,-112.5"/>
<text text-anchor="middle" x="1309.24" y="-119.5" font-family="Helvetica,sans-Serif" font-size="10.00">any</text>
</a>
</g>
</g>
<!-- Node32&#45;&gt;Node33 -->
<g id="edge49" class="edge">
<title>Node32&#45;&gt;Node33</title>
<path fill="none" stroke="midnightblue" d="M1309.24,-168.08C1309.24,-161.01 1309.24,-150.86 1309.24,-141.99"/>
<polygon fill="midnightblue" stroke="midnightblue" points="1312.74,-141.75 1309.24,-131.75 1305.74,-141.75 1312.74,-141.75"/>
</g>
<!-- Node34 -->
<g id="node34" class="node">
<title>Node34</title>
<g id="a_node34"><a xlink:title=" ">
<polygon fill="none" stroke="#bfbfbf" points="1216.74,-112.5 1216.74,-131.5 1273.74,-131.5 1273.74,-112.5 1216.74,-112.5"/>
<text text-anchor="middle" x="1245.24" y="-119.5" font-family="Helvetica,sans-Serif" font-size="10.00">typeinfo</text>
</a>
</g>
</g>
<!-- Node32&#45;&gt;Node34 -->
<g id="edge50" class="edge">
<title>Node32&#45;&gt;Node34</title>
<path fill="none" stroke="midnightblue" d="M1298.96,-168.32C1289.4,-160.26 1274.96,-148.08 1263.45,-138.37"/>
<polygon fill="midnightblue" stroke="midnightblue" points="1265.61,-135.61 1255.71,-131.83 1261.09,-140.96 1265.61,-135.61"/>
</g>
<!-- Node36 -->
<g id="node36" class="node">
<title>Node36</title>
<g id="a_node36"><a xlink:href="column__primitive_8h.html" target="_top" xlink:title=" ">
<polygon fill="none" stroke="black" points="1126.74,-224.5 1126.74,-243.5 1237.74,-243.5 1237.74,-224.5 1126.74,-224.5"/>
<text text-anchor="middle" x="1182.24" y="-231.5" font-family="Helvetica,sans-Serif" font-size="10.00">column_primitive.h</text>
</a>
</g>
</g>
<!-- Node35&#45;&gt;Node36 -->
<g id="edge54" class="edge">
<title>Node35&#45;&gt;Node36</title>
<path fill="none" stroke="midnightblue" d="M1099.15,-280.32C1114.88,-271.74 1139.18,-258.49 1157.45,-248.52"/>
<polygon fill="midnightblue" stroke="midnightblue" points="1159.27,-251.52 1166.37,-243.65 1155.92,-245.37 1159.27,-251.52"/>
</g>
<!-- Node36&#45;&gt;Node6 -->
<g id="edge56" class="edge">
<title>Node36&#45;&gt;Node6</title>
<path fill="none" stroke="midnightblue" d="M1187.73,-224.16C1195.54,-210.33 1207.44,-183.55 1193.24,-168 1163.45,-135.38 840.84,-139.11 797.24,-132 795.78,-131.76 794.28,-131.5 792.78,-131.22"/>
<polygon fill="midnightblue" stroke="midnightblue" points="793.36,-127.76 782.85,-129.14 791.92,-134.61 793.36,-127.76"/>
</g>
<!-- Node36&#45;&gt;Node7 -->
<g id="edge57" class="edge">
<title>Node36&#45;&gt;Node7</title>
<path fill="none" stroke="midnightblue" d="M1126.56,-226.96C1024.49,-215.89 809.88,-192.62 722.49,-183.15"/>
<polygon fill="midnightblue" stroke="midnightblue" points="722.8,-179.66 712.48,-182.06 722.04,-186.62 722.8,-179.66"/>
</g>
<!-- Node36&#45;&gt;Node31 -->
<g id="edge55" class="edge">
<title>Node36&#45;&gt;Node31</title>
<path fill="none" stroke="midnightblue" d="M1177.29,-224.08C1173.14,-216.61 1167.09,-205.72 1161.97,-196.52"/>
<polygon fill="midnightblue" stroke="midnightblue" points="1165.02,-194.79 1157.1,-187.75 1158.9,-198.19 1165.02,-194.79"/>
</g>
<!-- Node36&#45;&gt;Node32 -->
<g id="edge58" class="edge">
<title>Node36&#45;&gt;Node32</title>
<path fill="none" stroke="midnightblue" d="M1202.36,-224.44C1223.26,-215.56 1256.17,-201.56 1279.96,-191.45"/>
<polygon fill="midnightblue" stroke="midnightblue" points="1281.38,-194.65 1289.21,-187.52 1278.64,-188.21 1281.38,-194.65"/>
</g>
<!-- Node36&#45;&gt;Node37 -->
<g id="edge59" class="edge">
<title>Node36&#45;&gt;Node37</title>
<path fill="none" stroke="midnightblue" d="M1237.88,-228.65C1257.29,-227.16 1279.23,-225.48 1299.24,-224 1524.08,-207.35 1580.53,-206.31 1805.24,-188 1817.15,-187.03 1829.86,-185.92 1842.05,-184.81"/>
<polygon fill="midnightblue" stroke="midnightblue" points="1842.5,-188.29 1852.14,-183.89 1841.86,-181.32 1842.5,-188.29"/>
</g>
<!-- Node38 -->
<g id="node38" class="node">
<title>Node38</title>
<g id="a_node38"><a xlink:title=" ">
<polygon fill="none" stroke="#bfbfbf" points="1876.74,-112.5 1876.74,-131.5 1929.74,-131.5 1929.74,-112.5 1876.74,-112.5"/>
<text text-anchor="middle" x="1903.24" y="-119.5" font-family="Helvetica,sans-Serif" font-size="10.00">iterator</text>
</a>
</g>
</g>
<!-- Node37&#45;&gt;Node38 -->
<g id="edge60" class="edge">
<title>Node37&#45;&gt;Node38</title>
<path fill="none" stroke="midnightblue" d="M1903.24,-168.08C1903.24,-161.01 1903.24,-150.86 1903.24,-141.99"/>
<polygon fill="midnightblue" stroke="midnightblue" points="1906.74,-141.75 1903.24,-131.75 1899.74,-141.75 1906.74,-141.75"/>
</g>
<!-- Node39&#45;&gt;Node6 -->
<g id="edge64" class="edge">
<title>Node39&#45;&gt;Node6</title>
<path fill="none" stroke="midnightblue" d="M1556.76,-224.4C1573.2,-211.12 1599.69,-185.37 1583.24,-168 1555.64,-138.86 944.81,-126.25 793.11,-123.56"/>
<polygon fill="midnightblue" stroke="midnightblue" points="793.05,-120.06 782.99,-123.39 792.93,-127.06 793.05,-120.06"/>
</g>
<!-- Node39&#45;&gt;Node28 -->
<g id="edge62" class="edge">
<title>Node39&#45;&gt;Node28</title>
<path fill="none" stroke="midnightblue" d="M1520.2,-224.44C1493.62,-215.36 1451.43,-200.94 1421.72,-190.78"/>
<polygon fill="midnightblue" stroke="midnightblue" points="1422.75,-187.44 1412.16,-187.52 1420.49,-194.06 1422.75,-187.44"/>
</g>
<!-- Node39&#45;&gt;Node32 -->
<g id="edge66" class="edge">
<title>Node39&#45;&gt;Node32</title>
<path fill="none" stroke="midnightblue" d="M1507.84,-224.44C1464.92,-214.62 1394.73,-198.56 1350.31,-188.4"/>
<polygon fill="midnightblue" stroke="midnightblue" points="1350.96,-184.96 1340.43,-186.14 1349.4,-191.78 1350.96,-184.96"/>
</g>
<!-- Node40 -->
<g id="node40" class="node">
<title>Node40</title>
<g id="a_node40"><a xlink:title=" ">
<polygon fill="none" stroke="#bfbfbf" points="1668.24,-168.5 1668.24,-187.5 1712.24,-187.5 1712.24,-168.5 1668.24,-168.5"/>
<text text-anchor="middle" x="1690.24" y="-175.5" font-family="Helvetica,sans-Serif" font-size="10.00">limits</text>
</a>
</g>
</g>
<!-- Node39&#45;&gt;Node40 -->
<g id="edge63" class="edge">
<title>Node39&#45;&gt;Node40</title>
<path fill="none" stroke="midnightblue" d="M1568.21,-224.44C1592.54,-215.39 1631.11,-201.02 1658.36,-190.87"/>
<polygon fill="midnightblue" stroke="midnightblue" points="1659.7,-194.11 1667.85,-187.34 1657.25,-187.55 1659.7,-194.11"/>
</g>
<!-- Node41 -->
<g id="node41" class="node">
<title>Node41</title>
<g id="a_node41"><a xlink:title=" ">
<polygon fill="none" stroke="#bfbfbf" points="1730.74,-168.5 1730.74,-187.5 1795.74,-187.5 1795.74,-168.5 1730.74,-168.5"/>
<text text-anchor="middle" x="1763.24" y="-175.5" font-family="Helvetica,sans-Serif" font-size="10.00">exception</text>
</a>
</g>
</g>
<!-- Node39&#45;&gt;Node41 -->
<g id="edge65" class="edge">
<title>Node39&#45;&gt;Node41</title>
<path fill="none" stroke="midnightblue" d="M1579.78,-224.44C1618.05,-214.96 1679.76,-199.68 1720.91,-189.49"/>
<polygon fill="midnightblue" stroke="midnightblue" points="1721.77,-192.88 1730.64,-187.08 1720.09,-186.08 1721.77,-192.88"/>
</g>
<!-- Node42&#45;&gt;Node6 -->
<g id="edge72" class="edge">
<title>Node42&#45;&gt;Node6</title>
<path fill="none" stroke="midnightblue" d="M1326.37,-224.41C1303.9,-209.9 1255.59,-180.89 1210.24,-168 1033,-117.64 979.14,-161.31 797.24,-132 795.78,-131.76 794.28,-131.5 792.78,-131.22"/>
<polygon fill="midnightblue" stroke="midnightblue" points="793.35,-127.77 782.85,-129.15 791.93,-134.62 793.35,-127.77"/>
</g>
<!-- Node42&#45;&gt;Node9 -->
<g id="edge70" class="edge">
<title>Node42&#45;&gt;Node9</title>
<path fill="none" stroke="midnightblue" d="M1371,-231.99C1430.82,-229.35 1556.58,-220.03 1583.24,-188 1588.93,-181.17 1588.47,-175.19 1583.24,-168 1535.7,-102.64 1489.62,-127.14 1410.24,-112 1286.45,-88.39 906.36,-73.63 762.86,-68.77"/>
<polygon fill="midnightblue" stroke="midnightblue" points="762.65,-65.26 752.54,-68.43 762.42,-72.26 762.65,-65.26"/>
</g>
<!-- Node42&#45;&gt;Node14 -->
<g id="edge76" class="edge">
<title>Node42&#45;&gt;Node14</title>
<path fill="none" stroke="midnightblue" d="M1307.73,-226.86C1259.98,-217.55 1168.83,-199.78 1112.04,-188.71"/>
<polygon fill="midnightblue" stroke="midnightblue" points="1112.68,-185.27 1102.2,-186.79 1111.34,-192.14 1112.68,-185.27"/>
</g>
<!-- Node42&#45;&gt;Node28 -->
<g id="edge71" class="edge">
<title>Node42&#45;&gt;Node28</title>
<path fill="none" stroke="midnightblue" d="M1347.17,-224.08C1354.09,-216.3 1364.3,-204.8 1372.69,-195.37"/>
<polygon fill="midnightblue" stroke="midnightblue" points="1375.43,-197.55 1379.46,-187.75 1370.2,-192.9 1375.43,-197.55"/>
</g>
<!-- Node42&#45;&gt;Node31 -->
<g id="edge73" class="edge">
<title>Node42&#45;&gt;Node31</title>
<path fill="none" stroke="midnightblue" d="M1309.61,-224.44C1277.74,-215.24 1226.91,-200.56 1191.68,-190.39"/>
<polygon fill="midnightblue" stroke="midnightblue" points="1192.31,-186.93 1181.73,-187.52 1190.37,-193.65 1192.31,-186.93"/>
</g>
<!-- Node43 -->
<g id="node43" class="node">
<title>Node43</title>
<g id="a_node43"><a xlink:title=" ">
<polygon fill="none" stroke="#bfbfbf" points="1434.74,-168.5 1434.74,-187.5 1499.74,-187.5 1499.74,-168.5 1434.74,-168.5"/>
<text text-anchor="middle" x="1467.24" y="-175.5" font-family="Helvetica,sans-Serif" font-size="10.00">stdexcept</text>
</a>
</g>
</g>
<!-- Node42&#45;&gt;Node43 -->
<g id="edge74" class="edge">
<title>Node42&#45;&gt;Node43</title>
<path fill="none" stroke="midnightblue" d="M1359.52,-224.44C1380.59,-215.56 1413.76,-201.56 1437.72,-191.45"/>
<polygon fill="midnightblue" stroke="midnightblue" points="1439.2,-194.63 1447.05,-187.52 1436.48,-188.18 1439.2,-194.63"/>
</g>
<!-- Node44 -->
<g id="node44" class="node">
<title>Node44</title>
<g id="a_node44"><a xlink:title=" ">
<polygon fill="none" stroke="#bfbfbf" points="1518.24,-168.5 1518.24,-187.5 1574.24,-187.5 1574.24,-168.5 1518.24,-168.5"/>
<text text-anchor="middle" x="1546.24" y="-175.5" font-family="Helvetica,sans-Serif" font-size="10.00">sstream</text>
</a>
</g>
</g>
<!-- Node42&#45;&gt;Node44 -->
<g id="edge75" class="edge">
<title>Node42&#45;&gt;Node44</title>
<path fill="none" stroke="midnightblue" d="M1371.13,-224.68C1408.06,-215.05 1468.85,-199.19 1508.21,-188.92"/>
<polygon fill="midnightblue" stroke="midnightblue" points="1509.18,-192.28 1517.97,-186.37 1507.41,-185.51 1509.18,-192.28"/>
</g>
<!-- Node45&#45;&gt;Node4 -->
<g id="edge78" class="edge">
<title>Node45&#45;&gt;Node4</title>
<path fill="none" stroke="midnightblue" d="M540.52,-233.39C486.76,-231.13 408.92,-221.53 350.24,-188 315.55,-168.18 286.75,-148.82 302.24,-112 307.26,-100.05 317.18,-89.69 326.53,-81.93"/>
<polygon fill="midnightblue" stroke="midnightblue" points="328.68,-84.69 334.45,-75.81 324.4,-79.15 328.68,-84.69"/>
</g>
<!-- Node45&#45;&gt;Node6 -->
<g id="edge79" class="edge">
<title>Node45&#45;&gt;Node6</title>
<path fill="none" stroke="midnightblue" d="M602.07,-224.23C600.76,-210.49 600.37,-183.85 614.24,-168 628.91,-151.23 687.47,-136.98 725.53,-129.24"/>
<polygon fill="midnightblue" stroke="midnightblue" points="726.54,-132.61 735.67,-127.23 725.18,-125.74 726.54,-132.61"/>
</g>
<!-- Node45&#45;&gt;Node7 -->
<g id="edge80" class="edge">
<title>Node45&#45;&gt;Node7</title>
<path fill="none" stroke="midnightblue" d="M616.25,-224.32C628.77,-215.98 647.92,-203.21 662.71,-193.35"/>
<polygon fill="midnightblue" stroke="midnightblue" points="664.88,-196.11 671.26,-187.65 661,-190.29 664.88,-196.11"/>
</g>
</g>
</svg>
