<?xml version="1.0" encoding="UTF-8" standalone="no"?>
<!DOCTYPE svg PUBLIC "-//W3C//DTD SVG 1.1//EN"
 "http://www.w3.org/Graphics/SVG/1.1/DTD/svg11.dtd">
<!-- Generated by graphviz version 7.0.6 (20230106.0513)
 -->
<!-- Title: HealthGPS.Console/csvparser.h Pages: 1 -->
<svg width="505pt" height="93pt"
 viewBox="0.00 0.00 505.00 93.00" xmlns="http://www.w3.org/2000/svg" xmlns:xlink="http://www.w3.org/1999/xlink">
<g id="graph0" class="graph" transform="scale(1 1) rotate(0) translate(4 89)">
<title>HealthGPS.Console/csvparser.h</title>
<!-- Node1 -->
<g id="node1" class="node">
<title>Node1</title>
<g id="a_node1"><a xlink:title=" ">
<polygon fill="#999999" stroke="#666666" points="329.5,-85 173.5,-85 173.5,-66 329.5,-66 329.5,-85"/>
<text text-anchor="middle" x="251.5" y="-73" font-family="Helvetica,sans-Serif" font-size="10.00">HealthGPS.Console/csvparser.h</text>
</a>
</g>
</g>
<!-- Node2 -->
<g id="node2" class="node">
<title>Node2</title>
<g id="a_node2"><a xlink:href="csvparser_8cpp.html" target="_top" xlink:title=" ">
<polygon fill="white" stroke="#666666" points="167,-24.5 0,-24.5 0,-5.5 167,-5.5 167,-24.5"/>
<text text-anchor="middle" x="83.5" y="-12.5" font-family="Helvetica,sans-Serif" font-size="10.00">HealthGPS.Console/csvparser.cpp</text>
</a>
</g>
</g>
<!-- Node1&#45;&gt;Node2 -->
<g id="edge1" class="edge">
<title>Node1&#45;&gt;Node2</title>
<path fill="none" stroke="#63b8ff" d="M215.31,-61.9C183.37,-50.78 137.6,-34.84 109.26,-24.97"/>
<polygon fill="#63b8ff" stroke="#63b8ff" points="213.96,-65.13 224.56,-65.12 216.26,-58.52 213.96,-65.13"/>
</g>
<!-- Node3 -->
<g id="node3" class="node">
<title>Node3</title>
<g id="a_node3"><a xlink:href="model__parser_8cpp.html" target="_top" xlink:title=" ">
<polygon fill="white" stroke="#666666" points="318,-30 185,-30 185,0 318,0 318,-30"/>
<text text-anchor="start" x="193" y="-18" font-family="Helvetica,sans-Serif" font-size="10.00">HealthGPS.Console/model</text>
<text text-anchor="middle" x="251.5" y="-7" font-family="Helvetica,sans-Serif" font-size="10.00">_parser.cpp</text>
</a>
</g>
</g>
<!-- Node1&#45;&gt;Node3 -->
<g id="edge2" class="edge">
<title>Node1&#45;&gt;Node3</title>
<path fill="none" stroke="#63b8ff" d="M251.5,-54.51C251.5,-46.49 251.5,-37.43 251.5,-30.11"/>
<polygon fill="#63b8ff" stroke="#63b8ff" points="248,-54.35 251.5,-64.35 255,-54.35 248,-54.35"/>
</g>
<!-- Node4 -->
<g id="node4" class="node">
<title>Node4</title>
<g id="a_node4"><a xlink:href="program_8cpp.html" target="_top" xlink:title=" ">
<polygon fill="white" stroke="#666666" points="497,-24.5 336,-24.5 336,-5.5 497,-5.5 497,-24.5"/>
<text text-anchor="middle" x="416.5" y="-12.5" font-family="Helvetica,sans-Serif" font-size="10.00">HealthGPS.Console/program.cpp</text>
</a>
</g>
</g>
<!-- Node1&#45;&gt;Node4 -->
<g id="edge3" class="edge">
<title>Node1&#45;&gt;Node4</title>
<path fill="none" stroke="#63b8ff" d="M287.04,-61.9C318.41,-50.78 363.37,-34.84 391.2,-24.97"/>
<polygon fill="#63b8ff" stroke="#63b8ff" points="286.24,-58.47 277.99,-65.11 288.58,-65.07 286.24,-58.47"/>
</g>
</g>
</svg>
