<?xml version="1.0" encoding="UTF-8" standalone="no"?>
<!DOCTYPE svg PUBLIC "-//W3C//DTD SVG 1.1//EN"
 "http://www.w3.org/Graphics/SVG/1.1/DTD/svg11.dtd">
<!-- Generated by graphviz version 2.43.0 (0)
 -->
<!-- Title: HealthGPS/data_series.h Pages: 1 -->
<svg width="333pt" height="151pt"
 viewBox="0.00 0.00 332.50 151.00" xmlns="http://www.w3.org/2000/svg" xmlns:xlink="http://www.w3.org/1999/xlink">
<g id="graph0" class="graph" transform="scale(1 1) rotate(0) translate(4 147)">
<title>HealthGPS/data_series.h</title>
<!-- Node1 -->
<g id="node1" class="node">
<title>Node1</title>
<g id="a_node1"><a xlink:title=" ">
<polygon fill="#bfbfbf" stroke="black" points="144,-123.5 144,-142.5 281,-142.5 281,-123.5 144,-123.5"/>
<text text-anchor="middle" x="212.5" y="-130.5" font-family="Helvetica,sans-Serif" font-size="10.00">HealthGPS/data_series.h</text>
</a>
</g>
</g>
<!-- Node2 -->
<g id="node2" class="node">
<title>Node2</title>
<g id="a_node2"><a xlink:href="forward__type_8h.html" target="_top" xlink:title=" ">
<polygon fill="none" stroke="black" points="6.5,-56.5 6.5,-86.5 140.5,-86.5 140.5,-56.5 6.5,-56.5"/>
<text text-anchor="start" x="14.5" y="-74.5" font-family="Helvetica,sans-Serif" font-size="10.00">HealthGPS.Core/forward</text>
<text text-anchor="middle" x="73.5" y="-63.5" font-family="Helvetica,sans-Serif" font-size="10.00">_type.h</text>
</a>
</g>
</g>
<!-- Node1&#45;&gt;Node2 -->
<g id="edge1" class="edge">
<title>Node1&#45;&gt;Node2</title>
<path fill="none" stroke="midnightblue" d="M192.58,-123.48C172.62,-114.93 141.25,-101.5 115.72,-90.57"/>
<polygon fill="midnightblue" stroke="midnightblue" points="116.83,-87.24 106.26,-86.52 114.08,-93.68 116.83,-87.24"/>
</g>
<!-- Node5 -->
<g id="node5" class="node">
<title>Node5</title>
<g id="a_node5"><a xlink:title=" ">
<polygon fill="none" stroke="#bfbfbf" points="158.5,-62 158.5,-81 202.5,-81 202.5,-62 158.5,-62"/>
<text text-anchor="middle" x="180.5" y="-69" font-family="Helvetica,sans-Serif" font-size="10.00">string</text>
</a>
</g>
</g>
<!-- Node1&#45;&gt;Node5 -->
<g id="edge4" class="edge">
<title>Node1&#45;&gt;Node5</title>
<path fill="none" stroke="midnightblue" d="M207.92,-123.48C203.26,-114.82 195.91,-101.15 189.99,-90.15"/>
<polygon fill="midnightblue" stroke="midnightblue" points="192.9,-88.16 185.08,-81.01 186.73,-91.47 192.9,-88.16"/>
</g>
<!-- Node6 -->
<g id="node6" class="node">
<title>Node6</title>
<g id="a_node6"><a xlink:title=" ">
<polygon fill="none" stroke="#bfbfbf" points="221,-62 221,-81 268,-81 268,-62 221,-62"/>
<text text-anchor="middle" x="244.5" y="-69" font-family="Helvetica,sans-Serif" font-size="10.00">vector</text>
</a>
</g>
</g>
<!-- Node1&#45;&gt;Node6 -->
<g id="edge5" class="edge">
<title>Node1&#45;&gt;Node6</title>
<path fill="none" stroke="midnightblue" d="M217.08,-123.48C221.74,-114.82 229.09,-101.15 235.01,-90.15"/>
<polygon fill="midnightblue" stroke="midnightblue" points="238.27,-91.47 239.92,-81.01 232.1,-88.16 238.27,-91.47"/>
</g>
<!-- Node7 -->
<g id="node7" class="node">
<title>Node7</title>
<g id="a_node7"><a xlink:title=" ">
<polygon fill="none" stroke="#bfbfbf" points="286.5,-62 286.5,-81 324.5,-81 324.5,-62 286.5,-62"/>
<text text-anchor="middle" x="305.5" y="-69" font-family="Helvetica,sans-Serif" font-size="10.00">map</text>
</a>
</g>
</g>
<!-- Node1&#45;&gt;Node7 -->
<g id="edge6" class="edge">
<title>Node1&#45;&gt;Node7</title>
<path fill="none" stroke="midnightblue" d="M225.82,-123.48C240.88,-113.84 265.62,-98.02 283.54,-86.55"/>
<polygon fill="midnightblue" stroke="midnightblue" points="285.66,-89.35 292.2,-81.01 281.89,-83.45 285.66,-89.35"/>
</g>
<!-- Node3 -->
<g id="node3" class="node">
<title>Node3</title>
<g id="a_node3"><a xlink:title=" ">
<polygon fill="none" stroke="#bfbfbf" points="0,-0.5 0,-19.5 69,-19.5 69,-0.5 0,-0.5"/>
<text text-anchor="middle" x="34.5" y="-7.5" font-family="Helvetica,sans-Serif" font-size="10.00">type_traits</text>
</a>
</g>
</g>
<!-- Node2&#45;&gt;Node3 -->
<g id="edge2" class="edge">
<title>Node2&#45;&gt;Node3</title>
<path fill="none" stroke="midnightblue" d="M64.26,-56.4C58.71,-47.93 51.61,-37.1 45.73,-28.14"/>
<polygon fill="midnightblue" stroke="midnightblue" points="48.58,-26.1 40.17,-19.66 42.73,-29.94 48.58,-26.1"/>
</g>
<!-- Node4 -->
<g id="node4" class="node">
<title>Node4</title>
<g id="a_node4"><a xlink:title=" ">
<polygon fill="none" stroke="#bfbfbf" points="87.5,-0.5 87.5,-19.5 137.5,-19.5 137.5,-0.5 87.5,-0.5"/>
<text text-anchor="middle" x="112.5" y="-7.5" font-family="Helvetica,sans-Serif" font-size="10.00">cstdint</text>
</a>
</g>
</g>
<!-- Node2&#45;&gt;Node4 -->
<g id="edge3" class="edge">
<title>Node2&#45;&gt;Node4</title>
<path fill="none" stroke="midnightblue" d="M82.74,-56.4C88.29,-47.93 95.39,-37.1 101.27,-28.14"/>
<polygon fill="midnightblue" stroke="midnightblue" points="104.27,-29.94 106.83,-19.66 98.42,-26.1 104.27,-29.94"/>
</g>
</g>
</svg>
