<?xml version="1.0" encoding="UTF-8" standalone="no"?>
<!DOCTYPE svg PUBLIC "-//W3C//DTD SVG 1.1//EN"
 "http://www.w3.org/Graphics/SVG/1.1/DTD/svg11.dtd">
<!-- Generated by graphviz version 2.43.0 (0)
 -->
<!-- Title: HealthGPS.Core/datatable.cpp Pages: 1 -->
<svg width="945pt" height="308pt"
 viewBox="0.00 0.00 944.50 308.00" xmlns="http://www.w3.org/2000/svg" xmlns:xlink="http://www.w3.org/1999/xlink">
<g id="graph0" class="graph" transform="scale(1 1) rotate(0) translate(4 304)">
<title>HealthGPS.Core/datatable.cpp</title>
<!-- Node1 -->
<g id="node1" class="node">
<title>Node1</title>
<g id="a_node1"><a xlink:title=" ">
<polygon fill="#bfbfbf" stroke="black" points="658,-280.5 658,-299.5 822,-299.5 822,-280.5 658,-280.5"/>
<text text-anchor="middle" x="740" y="-287.5" font-family="Helvetica,sans-Serif" font-size="10.00">HealthGPS.Core/datatable.cpp</text>
</a>
</g>
</g>
<!-- Node2 -->
<g id="node2" class="node">
<title>Node2</title>
<g id="a_node2"><a xlink:href="datatable_8h.html" target="_top" xlink:title=" ">
<polygon fill="none" stroke="black" points="291,-224.5 291,-243.5 363,-243.5 363,-224.5 291,-224.5"/>
<text text-anchor="middle" x="327" y="-231.5" font-family="Helvetica,sans-Serif" font-size="10.00">datatable.h</text>
</a>
</g>
</g>
<!-- Node1&#45;&gt;Node2 -->
<g id="edge1" class="edge">
<title>Node1&#45;&gt;Node2</title>
<path fill="none" stroke="midnightblue" d="M674.56,-280.44C590.55,-269.46 446.89,-250.68 373.35,-241.06"/>
<polygon fill="midnightblue" stroke="midnightblue" points="373.39,-237.54 363.02,-239.71 372.49,-244.48 373.39,-237.54"/>
</g>
<!-- Node18 -->
<g id="node18" class="node">
<title>Node18</title>
<g id="a_node18"><a xlink:href="string__util_8h.html" target="_top" xlink:title=" ">
<polygon fill="none" stroke="black" points="608,-224.5 608,-243.5 682,-243.5 682,-224.5 608,-224.5"/>
<text text-anchor="middle" x="645" y="-231.5" font-family="Helvetica,sans-Serif" font-size="10.00">string_util.h</text>
</a>
</g>
</g>
<!-- Node1&#45;&gt;Node18 -->
<g id="edge17" class="edge">
<title>Node1&#45;&gt;Node18</title>
<path fill="none" stroke="midnightblue" d="M724.74,-280.32C709.78,-271.82 686.75,-258.73 669.27,-248.8"/>
<polygon fill="midnightblue" stroke="midnightblue" points="670.65,-245.55 660.23,-243.65 667.19,-251.64 670.65,-245.55"/>
</g>
<!-- Node20 -->
<g id="node20" class="node">
<title>Node20</title>
<g id="a_node20"><a xlink:title=" ">
<polygon fill="none" stroke="#bfbfbf" points="700.5,-224.5 700.5,-243.5 779.5,-243.5 779.5,-224.5 700.5,-224.5"/>
<text text-anchor="middle" x="740" y="-231.5" font-family="Helvetica,sans-Serif" font-size="10.00">fmt/format.h</text>
</a>
</g>
</g>
<!-- Node1&#45;&gt;Node20 -->
<g id="edge20" class="edge">
<title>Node1&#45;&gt;Node20</title>
<path fill="none" stroke="midnightblue" d="M740,-280.08C740,-273.01 740,-262.86 740,-253.99"/>
<polygon fill="midnightblue" stroke="midnightblue" points="743.5,-253.75 740,-243.75 736.5,-253.75 743.5,-253.75"/>
</g>
<!-- Node21 -->
<g id="node21" class="node">
<title>Node21</title>
<g id="a_node21"><a xlink:title=" ">
<polygon fill="none" stroke="#bfbfbf" points="797,-224.5 797,-243.5 853,-243.5 853,-224.5 797,-224.5"/>
<text text-anchor="middle" x="825" y="-231.5" font-family="Helvetica,sans-Serif" font-size="10.00">sstream</text>
</a>
</g>
</g>
<!-- Node1&#45;&gt;Node21 -->
<g id="edge21" class="edge">
<title>Node1&#45;&gt;Node21</title>
<path fill="none" stroke="midnightblue" d="M753.66,-280.32C766.92,-271.9 787.27,-258.97 802.85,-249.07"/>
<polygon fill="midnightblue" stroke="midnightblue" points="804.81,-251.97 811.38,-243.65 801.06,-246.06 804.81,-251.97"/>
</g>
<!-- Node22 -->
<g id="node22" class="node">
<title>Node22</title>
<g id="a_node22"><a xlink:title=" ">
<polygon fill="none" stroke="#bfbfbf" points="871.5,-224.5 871.5,-243.5 936.5,-243.5 936.5,-224.5 871.5,-224.5"/>
<text text-anchor="middle" x="904" y="-231.5" font-family="Helvetica,sans-Serif" font-size="10.00">stdexcept</text>
</a>
</g>
</g>
<!-- Node1&#45;&gt;Node22 -->
<g id="edge22" class="edge">
<title>Node1&#45;&gt;Node22</title>
<path fill="none" stroke="midnightblue" d="M765.99,-280.44C793.7,-271.32 837.75,-256.81 868.62,-246.65"/>
<polygon fill="midnightblue" stroke="midnightblue" points="869.73,-249.97 878.14,-243.52 867.54,-243.32 869.73,-249.97"/>
</g>
<!-- Node3 -->
<g id="node3" class="node">
<title>Node3</title>
<g id="a_node3"><a xlink:title=" ">
<polygon fill="none" stroke="#bfbfbf" points="0,-168.5 0,-187.5 64,-187.5 64,-168.5 0,-168.5"/>
<text text-anchor="middle" x="32" y="-175.5" font-family="Helvetica,sans-Serif" font-size="10.00">algorithm</text>
</a>
</g>
</g>
<!-- Node2&#45;&gt;Node3 -->
<g id="edge2" class="edge">
<title>Node2&#45;&gt;Node3</title>
<path fill="none" stroke="midnightblue" d="M290.74,-227.05C243.26,-219.16 157.19,-204.5 74.06,-188.15"/>
<polygon fill="midnightblue" stroke="midnightblue" points="74.69,-184.71 64.2,-186.2 73.33,-191.57 74.69,-184.71"/>
</g>
<!-- Node4 -->
<g id="node4" class="node">
<title>Node4</title>
<g id="a_node4"><a xlink:title=" ">
<polygon fill="none" stroke="#bfbfbf" points="82,-168.5 82,-187.5 140,-187.5 140,-168.5 82,-168.5"/>
<text text-anchor="middle" x="111" y="-175.5" font-family="Helvetica,sans-Serif" font-size="10.00">memory</text>
</a>
</g>
</g>
<!-- Node2&#45;&gt;Node4 -->
<g id="edge3" class="edge">
<title>Node2&#45;&gt;Node4</title>
<path fill="none" stroke="midnightblue" d="M292.77,-224.44C253.95,-214.74 190.77,-198.94 150.06,-188.76"/>
<polygon fill="midnightblue" stroke="midnightblue" points="150.77,-185.33 140.22,-186.3 149.07,-192.13 150.77,-185.33"/>
</g>
<!-- Node5 -->
<g id="node5" class="node">
<title>Node5</title>
<g id="a_node5"><a xlink:title=" ">
<polygon fill="none" stroke="#bfbfbf" points="158,-168.5 158,-187.5 206,-187.5 206,-168.5 158,-168.5"/>
<text text-anchor="middle" x="182" y="-175.5" font-family="Helvetica,sans-Serif" font-size="10.00">mutex</text>
</a>
</g>
</g>
<!-- Node2&#45;&gt;Node5 -->
<g id="edge4" class="edge">
<title>Node2&#45;&gt;Node5</title>
<path fill="none" stroke="midnightblue" d="M304.02,-224.44C279.84,-215.44 241.58,-201.19 214.35,-191.05"/>
<polygon fill="midnightblue" stroke="midnightblue" points="215.46,-187.73 204.87,-187.52 213.02,-194.29 215.46,-187.73"/>
</g>
<!-- Node6 -->
<g id="node6" class="node">
<title>Node6</title>
<g id="a_node6"><a xlink:title=" ">
<polygon fill="none" stroke="#bfbfbf" points="224,-168.5 224,-187.5 280,-187.5 280,-168.5 224,-168.5"/>
<text text-anchor="middle" x="252" y="-175.5" font-family="Helvetica,sans-Serif" font-size="10.00">optional</text>
</a>
</g>
</g>
<!-- Node2&#45;&gt;Node6 -->
<g id="edge5" class="edge">
<title>Node2&#45;&gt;Node6</title>
<path fill="none" stroke="midnightblue" d="M314.95,-224.32C303.54,-216.11 286.17,-203.6 272.57,-193.81"/>
<polygon fill="midnightblue" stroke="midnightblue" points="274.43,-190.84 264.27,-187.83 270.34,-196.52 274.43,-190.84"/>
</g>
<!-- Node7 -->
<g id="node7" class="node">
<title>Node7</title>
<g id="a_node7"><a xlink:title=" ">
<polygon fill="none" stroke="#bfbfbf" points="298.5,-168.5 298.5,-187.5 355.5,-187.5 355.5,-168.5 298.5,-168.5"/>
<text text-anchor="middle" x="327" y="-175.5" font-family="Helvetica,sans-Serif" font-size="10.00">ostream</text>
</a>
</g>
</g>
<!-- Node2&#45;&gt;Node7 -->
<g id="edge6" class="edge">
<title>Node2&#45;&gt;Node7</title>
<path fill="none" stroke="midnightblue" d="M327,-224.08C327,-217.01 327,-206.86 327,-197.99"/>
<polygon fill="midnightblue" stroke="midnightblue" points="330.5,-197.75 327,-187.75 323.5,-197.75 330.5,-197.75"/>
</g>
<!-- Node8 -->
<g id="node8" class="node">
<title>Node8</title>
<g id="a_node8"><a xlink:title=" ">
<polygon fill="none" stroke="#bfbfbf" points="373.5,-168.5 373.5,-187.5 466.5,-187.5 466.5,-168.5 373.5,-168.5"/>
<text text-anchor="middle" x="420" y="-175.5" font-family="Helvetica,sans-Serif" font-size="10.00">unordered_map</text>
</a>
</g>
</g>
<!-- Node2&#45;&gt;Node8 -->
<g id="edge7" class="edge">
<title>Node2&#45;&gt;Node8</title>
<path fill="none" stroke="midnightblue" d="M341.94,-224.32C356.59,-215.82 379.13,-202.73 396.24,-192.8"/>
<polygon fill="midnightblue" stroke="midnightblue" points="398.2,-195.7 405.1,-187.65 394.69,-189.65 398.2,-195.7"/>
</g>
<!-- Node9 -->
<g id="node9" class="node">
<title>Node9</title>
<g id="a_node9"><a xlink:title=" ">
<polygon fill="none" stroke="#bfbfbf" points="484.5,-168.5 484.5,-187.5 531.5,-187.5 531.5,-168.5 484.5,-168.5"/>
<text text-anchor="middle" x="508" y="-175.5" font-family="Helvetica,sans-Serif" font-size="10.00">vector</text>
</a>
</g>
</g>
<!-- Node2&#45;&gt;Node9 -->
<g id="edge8" class="edge">
<title>Node2&#45;&gt;Node9</title>
<path fill="none" stroke="midnightblue" d="M355.68,-224.44C387.93,-214.82 440.24,-199.21 474.39,-189.03"/>
<polygon fill="midnightblue" stroke="midnightblue" points="475.78,-192.27 484.36,-186.05 473.77,-185.56 475.78,-192.27"/>
</g>
<!-- Node10 -->
<g id="node10" class="node">
<title>Node10</title>
<g id="a_node10"><a xlink:href="column_8h.html" target="_top" xlink:title=" ">
<polygon fill="none" stroke="black" points="550,-168.5 550,-187.5 612,-187.5 612,-168.5 550,-168.5"/>
<text text-anchor="middle" x="581" y="-175.5" font-family="Helvetica,sans-Serif" font-size="10.00">column.h</text>
</a>
</g>
</g>
<!-- Node2&#45;&gt;Node10 -->
<g id="edge9" class="edge">
<title>Node2&#45;&gt;Node10</title>
<path fill="none" stroke="midnightblue" d="M363,-225.59C403.56,-217.21 471.72,-203.01 539.56,-188.29"/>
<polygon fill="midnightblue" stroke="midnightblue" points="540.54,-191.66 549.57,-186.12 539.05,-184.82 540.54,-191.66"/>
</g>
<!-- Node11 -->
<g id="node11" class="node">
<title>Node11</title>
<g id="a_node11"><a xlink:title=" ">
<polygon fill="none" stroke="#bfbfbf" points="424.5,-112.5 424.5,-131.5 459.5,-131.5 459.5,-112.5 424.5,-112.5"/>
<text text-anchor="middle" x="442" y="-119.5" font-family="Helvetica,sans-Serif" font-size="10.00">any</text>
</a>
</g>
</g>
<!-- Node10&#45;&gt;Node11 -->
<g id="edge10" class="edge">
<title>Node10&#45;&gt;Node11</title>
<path fill="none" stroke="midnightblue" d="M558.98,-168.44C534.54,-158.95 495.1,-143.63 468.87,-133.44"/>
<polygon fill="midnightblue" stroke="midnightblue" points="470.11,-130.17 459.52,-129.81 467.57,-136.69 470.11,-130.17"/>
</g>
<!-- Node12 -->
<g id="node12" class="node">
<title>Node12</title>
<g id="a_node12"><a xlink:title=" ">
<polygon fill="none" stroke="#bfbfbf" points="627,-112.5 627,-131.5 671,-131.5 671,-112.5 627,-112.5"/>
<text text-anchor="middle" x="649" y="-119.5" font-family="Helvetica,sans-Serif" font-size="10.00">string</text>
</a>
</g>
</g>
<!-- Node10&#45;&gt;Node12 -->
<g id="edge11" class="edge">
<title>Node10&#45;&gt;Node12</title>
<path fill="none" stroke="midnightblue" d="M591.93,-168.32C602.17,-160.18 617.72,-147.84 630,-138.09"/>
<polygon fill="midnightblue" stroke="midnightblue" points="632.22,-140.79 637.88,-131.83 627.87,-135.31 632.22,-140.79"/>
</g>
<!-- Node13 -->
<g id="node13" class="node">
<title>Node13</title>
<g id="a_node13"><a xlink:title=" ">
<polygon fill="none" stroke="#bfbfbf" points="477.5,-112.5 477.5,-131.5 534.5,-131.5 534.5,-112.5 477.5,-112.5"/>
<text text-anchor="middle" x="506" y="-119.5" font-family="Helvetica,sans-Serif" font-size="10.00">typeinfo</text>
</a>
</g>
</g>
<!-- Node10&#45;&gt;Node13 -->
<g id="edge12" class="edge">
<title>Node10&#45;&gt;Node13</title>
<path fill="none" stroke="midnightblue" d="M568.95,-168.32C557.54,-160.11 540.17,-147.6 526.57,-137.81"/>
<polygon fill="midnightblue" stroke="midnightblue" points="528.43,-134.84 518.27,-131.83 524.34,-140.52 528.43,-134.84"/>
</g>
<!-- Node14 -->
<g id="node14" class="node">
<title>Node14</title>
<g id="a_node14"><a xlink:href="visitor_8h.html" target="_top" xlink:title=" ">
<polygon fill="none" stroke="black" points="553,-112.5 553,-131.5 609,-131.5 609,-112.5 553,-112.5"/>
<text text-anchor="middle" x="581" y="-119.5" font-family="Helvetica,sans-Serif" font-size="10.00">visitor.h</text>
</a>
</g>
</g>
<!-- Node10&#45;&gt;Node14 -->
<g id="edge13" class="edge">
<title>Node10&#45;&gt;Node14</title>
<path fill="none" stroke="midnightblue" d="M581,-168.08C581,-161.01 581,-150.86 581,-141.99"/>
<polygon fill="midnightblue" stroke="midnightblue" points="584.5,-141.75 581,-131.75 577.5,-141.75 584.5,-141.75"/>
</g>
<!-- Node15 -->
<g id="node15" class="node">
<title>Node15</title>
<g id="a_node15"><a xlink:href="forward__type_8h.html" target="_top" xlink:title=" ">
<polygon fill="none" stroke="black" points="536,-56.5 536,-75.5 626,-75.5 626,-56.5 536,-56.5"/>
<text text-anchor="middle" x="581" y="-63.5" font-family="Helvetica,sans-Serif" font-size="10.00">forward_type.h</text>
</a>
</g>
</g>
<!-- Node14&#45;&gt;Node15 -->
<g id="edge14" class="edge">
<title>Node14&#45;&gt;Node15</title>
<path fill="none" stroke="midnightblue" d="M581,-112.08C581,-105.01 581,-94.86 581,-85.99"/>
<polygon fill="midnightblue" stroke="midnightblue" points="584.5,-85.75 581,-75.75 577.5,-85.75 584.5,-85.75"/>
</g>
<!-- Node16 -->
<g id="node16" class="node">
<title>Node16</title>
<g id="a_node16"><a xlink:title=" ">
<polygon fill="none" stroke="#bfbfbf" points="517,-0.5 517,-19.5 567,-19.5 567,-0.5 517,-0.5"/>
<text text-anchor="middle" x="542" y="-7.5" font-family="Helvetica,sans-Serif" font-size="10.00">cstdint</text>
</a>
</g>
</g>
<!-- Node15&#45;&gt;Node16 -->
<g id="edge15" class="edge">
<title>Node15&#45;&gt;Node16</title>
<path fill="none" stroke="midnightblue" d="M574.56,-56.08C569.05,-48.46 560.97,-37.26 554.24,-27.94"/>
<polygon fill="midnightblue" stroke="midnightblue" points="557.01,-25.81 548.32,-19.75 551.34,-29.91 557.01,-25.81"/>
</g>
<!-- Node17 -->
<g id="node17" class="node">
<title>Node17</title>
<g id="a_node17"><a xlink:title=" ">
<polygon fill="none" stroke="#bfbfbf" points="585.5,-0.5 585.5,-19.5 654.5,-19.5 654.5,-0.5 585.5,-0.5"/>
<text text-anchor="middle" x="620" y="-7.5" font-family="Helvetica,sans-Serif" font-size="10.00">type_traits</text>
</a>
</g>
</g>
<!-- Node15&#45;&gt;Node17 -->
<g id="edge16" class="edge">
<title>Node15&#45;&gt;Node17</title>
<path fill="none" stroke="midnightblue" d="M587.44,-56.08C592.95,-48.46 601.03,-37.26 607.76,-27.94"/>
<polygon fill="midnightblue" stroke="midnightblue" points="610.66,-29.91 613.68,-19.75 604.99,-25.81 610.66,-29.91"/>
</g>
<!-- Node18&#45;&gt;Node12 -->
<g id="edge19" class="edge">
<title>Node18&#45;&gt;Node12</title>
<path fill="none" stroke="midnightblue" d="M645.31,-224.37C645.96,-206.62 647.45,-165.67 648.32,-141.6"/>
<polygon fill="midnightblue" stroke="midnightblue" points="651.82,-141.71 648.69,-131.59 644.83,-141.46 651.82,-141.71"/>
</g>
<!-- Node19 -->
<g id="node19" class="node">
<title>Node19</title>
<g id="a_node19"><a xlink:title=" ">
<polygon fill="none" stroke="#bfbfbf" points="673.5,-168.5 673.5,-187.5 738.5,-187.5 738.5,-168.5 673.5,-168.5"/>
<text text-anchor="middle" x="706" y="-175.5" font-family="Helvetica,sans-Serif" font-size="10.00">functional</text>
</a>
</g>
</g>
<!-- Node18&#45;&gt;Node19 -->
<g id="edge18" class="edge">
<title>Node18&#45;&gt;Node19</title>
<path fill="none" stroke="midnightblue" d="M654.8,-224.32C663.82,-216.34 677.41,-204.31 688.32,-194.65"/>
<polygon fill="midnightblue" stroke="midnightblue" points="690.85,-197.08 696.02,-187.83 686.21,-191.84 690.85,-197.08"/>
</g>
</g>
</svg>
