<?xml version="1.0" encoding="UTF-8" standalone="no"?>
<!DOCTYPE svg PUBLIC "-//W3C//DTD SVG 1.1//EN"
 "http://www.w3.org/Graphics/SVG/1.1/DTD/svg11.dtd">
<!-- Generated by graphviz version 2.43.0 (0)
 -->
<!-- Title: HealthGPS/data_series.h Pages: 1 -->
<svg width="726pt" height="453pt"
 viewBox="0.00 0.00 726.00 453.00" xmlns="http://www.w3.org/2000/svg" xmlns:xlink="http://www.w3.org/1999/xlink">
<g id="graph0" class="graph" transform="scale(1 1) rotate(0) translate(4 449)">
<title>HealthGPS/data_series.h</title>
<!-- Node1 -->
<g id="node1" class="node">
<title>Node1</title>
<g id="a_node1"><a xlink:title=" ">
<polygon fill="#bfbfbf" stroke="black" points="247,-425.5 247,-444.5 384,-444.5 384,-425.5 247,-425.5"/>
<text text-anchor="middle" x="315.5" y="-432.5" font-family="Helvetica,sans-Serif" font-size="10.00">HealthGPS/data_series.h</text>
</a>
</g>
</g>
<!-- Node2 -->
<g id="node2" class="node">
<title>Node2</title>
<g id="a_node2"><a xlink:href="data__series_8cpp.html" target="_top" xlink:title=" ">
<polygon fill="none" stroke="black" points="77.5,-369.5 77.5,-388.5 225.5,-388.5 225.5,-369.5 77.5,-369.5"/>
<text text-anchor="middle" x="151.5" y="-376.5" font-family="Helvetica,sans-Serif" font-size="10.00">HealthGPS/data_series.cpp</text>
</a>
</g>
</g>
<!-- Node1&#45;&gt;Node2 -->
<g id="edge1" class="edge">
<title>Node1&#45;&gt;Node2</title>
<path fill="none" stroke="midnightblue" d="M279.98,-422.3C249.08,-412.13 205.03,-397.62 177.36,-388.52"/>
<polygon fill="midnightblue" stroke="midnightblue" points="278.92,-425.64 289.51,-425.44 281.11,-418.99 278.92,-425.64"/>
</g>
<!-- Node3 -->
<g id="node3" class="node">
<title>Node3</title>
<g id="a_node3"><a xlink:href="model__result_8h.html" target="_top" xlink:title=" ">
<polygon fill="none" stroke="black" points="243.5,-369.5 243.5,-388.5 387.5,-388.5 387.5,-369.5 243.5,-369.5"/>
<text text-anchor="middle" x="315.5" y="-376.5" font-family="Helvetica,sans-Serif" font-size="10.00">HealthGPS/model_result.h</text>
</a>
</g>
</g>
<!-- Node1&#45;&gt;Node3 -->
<g id="edge2" class="edge">
<title>Node1&#45;&gt;Node3</title>
<path fill="none" stroke="midnightblue" d="M315.5,-414.8C315.5,-405.91 315.5,-395.78 315.5,-388.75"/>
<polygon fill="midnightblue" stroke="midnightblue" points="312,-415.08 315.5,-425.08 319,-415.08 312,-415.08"/>
</g>
<!-- Node21 -->
<g id="node21" class="node">
<title>Node21</title>
<g id="a_node21"><a xlink:href="result__file__writer_8cpp.html" target="_top" xlink:title=" ">
<polygon fill="none" stroke="black" points="577,-112.5 577,-142.5 718,-142.5 718,-112.5 577,-112.5"/>
<text text-anchor="start" x="585" y="-130.5" font-family="Helvetica,sans-Serif" font-size="10.00">HealthGPS.Console/result</text>
<text text-anchor="middle" x="647.5" y="-119.5" font-family="Helvetica,sans-Serif" font-size="10.00">_file_writer.cpp</text>
</a>
</g>
</g>
<!-- Node1&#45;&gt;Node21 -->
<g id="edge25" class="edge">
<title>Node1&#45;&gt;Node21</title>
<path fill="none" stroke="midnightblue" d="M393.38,-424.01C491.52,-409.2 647.5,-377.27 647.5,-324 647.5,-324 647.5,-324 647.5,-260.5 647.5,-217.65 647.5,-166.97 647.5,-142.76"/>
<polygon fill="midnightblue" stroke="midnightblue" points="392.87,-420.55 383.49,-425.47 393.89,-427.47 392.87,-420.55"/>
</g>
<!-- Node4 -->
<g id="node4" class="node">
<title>Node4</title>
<g id="a_node4"><a xlink:href="model__result_8cpp.html" target="_top" xlink:title=" ">
<polygon fill="none" stroke="black" points="63,-313.5 63,-332.5 218,-332.5 218,-313.5 63,-313.5"/>
<text text-anchor="middle" x="140.5" y="-320.5" font-family="Helvetica,sans-Serif" font-size="10.00">HealthGPS/model_result.cpp</text>
</a>
</g>
</g>
<!-- Node3&#45;&gt;Node4 -->
<g id="edge3" class="edge">
<title>Node3&#45;&gt;Node4</title>
<path fill="none" stroke="midnightblue" d="M278.03,-366.44C245.03,-356.26 197.74,-341.66 168.1,-332.52"/>
<polygon fill="midnightblue" stroke="midnightblue" points="277.18,-369.84 287.77,-369.44 279.25,-363.15 277.18,-369.84"/>
</g>
<!-- Node5 -->
<g id="node5" class="node">
<title>Node5</title>
<g id="a_node5"><a xlink:href="result__message_8h.html" target="_top" xlink:title=" ">
<polygon fill="none" stroke="black" points="236.5,-313.5 236.5,-332.5 394.5,-332.5 394.5,-313.5 236.5,-313.5"/>
<text text-anchor="middle" x="315.5" y="-320.5" font-family="Helvetica,sans-Serif" font-size="10.00">HealthGPS/result_message.h</text>
</a>
</g>
</g>
<!-- Node3&#45;&gt;Node5 -->
<g id="edge4" class="edge">
<title>Node3&#45;&gt;Node5</title>
<path fill="none" stroke="midnightblue" d="M315.5,-358.8C315.5,-349.91 315.5,-339.78 315.5,-332.75"/>
<polygon fill="midnightblue" stroke="midnightblue" points="312,-359.08 315.5,-369.08 319,-359.08 312,-359.08"/>
</g>
<!-- Node6 -->
<g id="node6" class="node">
<title>Node6</title>
<g id="a_node6"><a xlink:href="analysis__module_8h.html" target="_top" xlink:title=" ">
<polygon fill="none" stroke="black" points="186.5,-246.5 186.5,-276.5 298.5,-276.5 298.5,-246.5 186.5,-246.5"/>
<text text-anchor="start" x="194.5" y="-264.5" font-family="Helvetica,sans-Serif" font-size="10.00">HealthGPS/analysis</text>
<text text-anchor="middle" x="242.5" y="-253.5" font-family="Helvetica,sans-Serif" font-size="10.00">_module.h</text>
</a>
</g>
</g>
<!-- Node5&#45;&gt;Node6 -->
<g id="edge5" class="edge">
<title>Node5&#45;&gt;Node6</title>
<path fill="none" stroke="midnightblue" d="M297,-306.92C285.54,-297.58 270.92,-285.66 259.7,-276.52"/>
<polygon fill="midnightblue" stroke="midnightblue" points="295.08,-309.87 305.04,-313.48 299.5,-304.44 295.08,-309.87"/>
</g>
<!-- Node16 -->
<g id="node16" class="node">
<title>Node16</title>
<g id="a_node16"><a xlink:href="result__message_8cpp.html" target="_top" xlink:title=" ">
<polygon fill="none" stroke="black" points="0,-252 0,-271 169,-271 169,-252 0,-252"/>
<text text-anchor="middle" x="84.5" y="-259" font-family="Helvetica,sans-Serif" font-size="10.00">HealthGPS/result_message.cpp</text>
</a>
</g>
</g>
<!-- Node5&#45;&gt;Node16 -->
<g id="edge17" class="edge">
<title>Node5&#45;&gt;Node16</title>
<path fill="none" stroke="midnightblue" d="M272.67,-310.97C227.82,-299.41 158.33,-281.52 117.54,-271.01"/>
<polygon fill="midnightblue" stroke="midnightblue" points="271.85,-314.37 282.4,-313.48 273.59,-307.59 271.85,-314.37"/>
</g>
<!-- Node17 -->
<g id="node17" class="node">
<title>Node17</title>
<g id="a_node17"><a xlink:href="result__writer_8h.html" target="_top" xlink:title=" ">
<polygon fill="none" stroke="black" points="319,-246.5 319,-276.5 460,-276.5 460,-246.5 319,-246.5"/>
<text text-anchor="start" x="327" y="-264.5" font-family="Helvetica,sans-Serif" font-size="10.00">HealthGPS.Console/result</text>
<text text-anchor="middle" x="389.5" y="-253.5" font-family="Helvetica,sans-Serif" font-size="10.00">_writer.h</text>
</a>
</g>
</g>
<!-- Node5&#45;&gt;Node17 -->
<g id="edge18" class="edge">
<title>Node5&#45;&gt;Node17</title>
<path fill="none" stroke="midnightblue" d="M333.91,-307.2C345.58,-297.81 360.58,-285.75 372.06,-276.52"/>
<polygon fill="midnightblue" stroke="midnightblue" points="331.7,-304.48 326.1,-313.48 336.09,-309.94 331.7,-304.48"/>
</g>
<!-- Node7 -->
<g id="node7" class="node">
<title>Node7</title>
<g id="a_node7"><a xlink:href="analysis__module_8cpp.html" target="_top" xlink:title=" ">
<polygon fill="none" stroke="black" points="47.5,-179.5 47.5,-209.5 159.5,-209.5 159.5,-179.5 47.5,-179.5"/>
<text text-anchor="start" x="55.5" y="-197.5" font-family="Helvetica,sans-Serif" font-size="10.00">HealthGPS/analysis</text>
<text text-anchor="middle" x="103.5" y="-186.5" font-family="Helvetica,sans-Serif" font-size="10.00">_module.cpp</text>
</a>
</g>
</g>
<!-- Node6&#45;&gt;Node7 -->
<g id="edge6" class="edge">
<title>Node6&#45;&gt;Node7</title>
<path fill="none" stroke="midnightblue" d="M203.22,-242.13C181.13,-231.8 153.99,-219.11 133.6,-209.58"/>
<polygon fill="midnightblue" stroke="midnightblue" points="201.8,-245.33 212.34,-246.4 204.76,-238.99 201.8,-245.33"/>
</g>
<!-- Node8 -->
<g id="node8" class="node">
<title>Node8</title>
<g id="a_node8"><a xlink:href="simulation__module_8h.html" target="_top" xlink:title=" ">
<polygon fill="none" stroke="black" points="178,-179.5 178,-209.5 301,-209.5 301,-179.5 178,-179.5"/>
<text text-anchor="start" x="186" y="-197.5" font-family="Helvetica,sans-Serif" font-size="10.00">HealthGPS/simulation</text>
<text text-anchor="middle" x="239.5" y="-186.5" font-family="Helvetica,sans-Serif" font-size="10.00">_module.h</text>
</a>
</g>
</g>
<!-- Node6&#45;&gt;Node8 -->
<g id="edge7" class="edge">
<title>Node6&#45;&gt;Node8</title>
<path fill="none" stroke="midnightblue" d="M241.39,-236.4C240.97,-227.37 240.51,-217.41 240.15,-209.58"/>
<polygon fill="midnightblue" stroke="midnightblue" points="237.89,-236.57 241.85,-246.4 244.88,-236.25 237.89,-236.57"/>
</g>
<!-- Node9 -->
<g id="node9" class="node">
<title>Node9</title>
<g id="a_node9"><a xlink:href="HealthGPS_2api_8h.html" target="_top" xlink:title=" ">
<polygon fill="none" stroke="black" points="69,-56.5 69,-75.5 164,-75.5 164,-56.5 69,-56.5"/>
<text text-anchor="middle" x="116.5" y="-63.5" font-family="Helvetica,sans-Serif" font-size="10.00">HealthGPS/api.h</text>
</a>
</g>
</g>
<!-- Node8&#45;&gt;Node9 -->
<g id="edge8" class="edge">
<title>Node8&#45;&gt;Node9</title>
<path fill="none" stroke="midnightblue" d="M213.26,-173.13C202.42,-164.29 189.97,-153.55 179.5,-143 157.04,-120.38 133.96,-90.51 123.02,-75.86"/>
<polygon fill="midnightblue" stroke="midnightblue" points="211.19,-175.95 221.18,-179.49 215.57,-170.5 211.19,-175.95"/>
</g>
<!-- Node11 -->
<g id="node11" class="node">
<title>Node11</title>
<g id="a_node11"><a xlink:href="healthgps_8h.html" target="_top" xlink:title=" ">
<polygon fill="none" stroke="black" points="188.5,-118 188.5,-137 316.5,-137 316.5,-118 188.5,-118"/>
<text text-anchor="middle" x="252.5" y="-125" font-family="Helvetica,sans-Serif" font-size="10.00">HealthGPS/healthgps.h</text>
</a>
</g>
</g>
<!-- Node8&#45;&gt;Node11 -->
<g id="edge10" class="edge">
<title>Node8&#45;&gt;Node11</title>
<path fill="none" stroke="midnightblue" d="M244.35,-169.25C246.6,-158.02 249.12,-145.38 250.76,-137.19"/>
<polygon fill="midnightblue" stroke="midnightblue" points="240.85,-168.9 242.32,-179.4 247.71,-170.28 240.85,-168.9"/>
</g>
<!-- Node15 -->
<g id="node15" class="node">
<title>Node15</title>
<g id="a_node15"><a xlink:href="simulation__module_8cpp.html" target="_top" xlink:title=" ">
<polygon fill="none" stroke="black" points="9,-112.5 9,-142.5 132,-142.5 132,-112.5 9,-112.5"/>
<text text-anchor="start" x="17" y="-130.5" font-family="Helvetica,sans-Serif" font-size="10.00">HealthGPS/simulation</text>
<text text-anchor="middle" x="70.5" y="-119.5" font-family="Helvetica,sans-Serif" font-size="10.00">_module.cpp</text>
</a>
</g>
</g>
<!-- Node8&#45;&gt;Node15 -->
<g id="edge16" class="edge">
<title>Node8&#45;&gt;Node15</title>
<path fill="none" stroke="midnightblue" d="M193.17,-175.68C166.07,-165.26 132.33,-152.28 107.1,-142.58"/>
<polygon fill="midnightblue" stroke="midnightblue" points="192.24,-179.07 202.83,-179.4 194.75,-172.54 192.24,-179.07"/>
</g>
<!-- Node10 -->
<g id="node10" class="node">
<title>Node10</title>
<g id="a_node10"><a xlink:href="program_8cpp.html" target="_top" xlink:title=" ">
<polygon fill="none" stroke="black" points="240,-0.5 240,-19.5 415,-19.5 415,-0.5 240,-0.5"/>
<text text-anchor="middle" x="327.5" y="-7.5" font-family="Helvetica,sans-Serif" font-size="10.00">HealthGPS.Console/program.cpp</text>
</a>
</g>
</g>
<!-- Node9&#45;&gt;Node10 -->
<g id="edge9" class="edge">
<title>Node9&#45;&gt;Node10</title>
<path fill="none" stroke="midnightblue" d="M159.64,-53.96C199.49,-43.76 257.86,-28.82 294.22,-19.52"/>
<polygon fill="midnightblue" stroke="midnightblue" points="158.75,-50.57 149.93,-56.44 160.49,-57.35 158.75,-50.57"/>
</g>
<!-- Node11&#45;&gt;Node9 -->
<g id="edge11" class="edge">
<title>Node11&#45;&gt;Node9</title>
<path fill="none" stroke="midnightblue" d="M223.53,-113.83C197.13,-102.28 158.86,-85.53 135.95,-75.51"/>
<polygon fill="midnightblue" stroke="midnightblue" points="222.45,-117.17 233.01,-117.98 225.26,-110.76 222.45,-117.17"/>
</g>
<!-- Node12 -->
<g id="node12" class="node">
<title>Node12</title>
<g id="a_node12"><a xlink:href="healthgps_8cpp.html" target="_top" xlink:title=" ">
<polygon fill="none" stroke="black" points="182.5,-56.5 182.5,-75.5 322.5,-75.5 322.5,-56.5 182.5,-56.5"/>
<text text-anchor="middle" x="252.5" y="-63.5" font-family="Helvetica,sans-Serif" font-size="10.00">HealthGPS/healthgps.cpp</text>
</a>
</g>
</g>
<!-- Node11&#45;&gt;Node12 -->
<g id="edge12" class="edge">
<title>Node11&#45;&gt;Node12</title>
<path fill="none" stroke="midnightblue" d="M252.5,-107.82C252.5,-97 252.5,-83.9 252.5,-75.51"/>
<polygon fill="midnightblue" stroke="midnightblue" points="249,-107.98 252.5,-117.98 256,-107.98 249,-107.98"/>
</g>
<!-- Node13 -->
<g id="node13" class="node">
<title>Node13</title>
<g id="a_node13"><a xlink:href="configuration_8h.html" target="_top" xlink:title=" ">
<polygon fill="none" stroke="black" points="416.5,-56.5 416.5,-75.5 602.5,-75.5 602.5,-56.5 416.5,-56.5"/>
<text text-anchor="middle" x="509.5" y="-63.5" font-family="Helvetica,sans-Serif" font-size="10.00">HealthGPS.Console/configuration.h</text>
</a>
</g>
</g>
<!-- Node11&#45;&gt;Node13 -->
<g id="edge13" class="edge">
<title>Node11&#45;&gt;Node13</title>
<path fill="none" stroke="midnightblue" d="M299.21,-115.69C349.08,-104.14 427.07,-86.08 472.75,-75.51"/>
<polygon fill="midnightblue" stroke="midnightblue" points="298.27,-112.31 289.32,-117.98 299.85,-119.13 298.27,-112.31"/>
</g>
<!-- Node13&#45;&gt;Node10 -->
<g id="edge15" class="edge">
<title>Node13&#45;&gt;Node10</title>
<path fill="none" stroke="midnightblue" d="M470.97,-53.57C436.64,-43.38 387.17,-28.7 356.2,-19.52"/>
<polygon fill="midnightblue" stroke="midnightblue" points="470.08,-56.95 480.66,-56.44 472.07,-50.24 470.08,-56.95"/>
</g>
<!-- Node14 -->
<g id="node14" class="node">
<title>Node14</title>
<g id="a_node14"><a xlink:href="configuration_8cpp.html" target="_top" xlink:title=" ">
<polygon fill="none" stroke="black" points="433,-0.5 433,-19.5 630,-19.5 630,-0.5 433,-0.5"/>
<text text-anchor="middle" x="531.5" y="-7.5" font-family="Helvetica,sans-Serif" font-size="10.00">HealthGPS.Console/configuration.cpp</text>
</a>
</g>
</g>
<!-- Node13&#45;&gt;Node14 -->
<g id="edge14" class="edge">
<title>Node13&#45;&gt;Node14</title>
<path fill="none" stroke="midnightblue" d="M516.96,-46.69C520.67,-37.59 524.98,-27.01 527.93,-19.75"/>
<polygon fill="midnightblue" stroke="midnightblue" points="513.66,-45.5 513.13,-56.08 520.15,-48.14 513.66,-45.5"/>
</g>
<!-- Node18 -->
<g id="node18" class="node">
<title>Node18</title>
<g id="a_node18"><a xlink:href="event__monitor_8h.html" target="_top" xlink:title=" ">
<polygon fill="none" stroke="black" points="319,-179.5 319,-209.5 460,-209.5 460,-179.5 319,-179.5"/>
<text text-anchor="start" x="327" y="-197.5" font-family="Helvetica,sans-Serif" font-size="10.00">HealthGPS.Console/event</text>
<text text-anchor="middle" x="389.5" y="-186.5" font-family="Helvetica,sans-Serif" font-size="10.00">_monitor.h</text>
</a>
</g>
</g>
<!-- Node17&#45;&gt;Node18 -->
<g id="edge19" class="edge">
<title>Node17&#45;&gt;Node18</title>
<path fill="none" stroke="midnightblue" d="M389.5,-236.11C389.5,-227.15 389.5,-217.32 389.5,-209.58"/>
<polygon fill="midnightblue" stroke="midnightblue" points="386,-236.4 389.5,-246.4 393,-236.4 386,-236.4"/>
</g>
<!-- Node20 -->
<g id="node20" class="node">
<title>Node20</title>
<g id="a_node20"><a xlink:href="result__file__writer_8h.html" target="_top" xlink:title=" ">
<polygon fill="none" stroke="black" points="478,-179.5 478,-209.5 619,-209.5 619,-179.5 478,-179.5"/>
<text text-anchor="start" x="486" y="-197.5" font-family="Helvetica,sans-Serif" font-size="10.00">HealthGPS.Console/result</text>
<text text-anchor="middle" x="548.5" y="-186.5" font-family="Helvetica,sans-Serif" font-size="10.00">_file_writer.h</text>
</a>
</g>
</g>
<!-- Node17&#45;&gt;Node20 -->
<g id="edge22" class="edge">
<title>Node17&#45;&gt;Node20</title>
<path fill="none" stroke="midnightblue" d="M433.42,-242.54C458.87,-232.14 490.43,-219.24 514.07,-209.58"/>
<polygon fill="midnightblue" stroke="midnightblue" points="431.93,-239.37 424,-246.4 434.58,-245.85 431.93,-239.37"/>
</g>
<!-- Node18&#45;&gt;Node10 -->
<g id="edge21" class="edge">
<title>Node18&#45;&gt;Node10</title>
<path fill="none" stroke="midnightblue" d="M379.86,-170.15C376.46,-161.65 372.69,-151.94 369.5,-143 353.1,-97.02 336.3,-40.96 330.05,-19.72"/>
<polygon fill="midnightblue" stroke="midnightblue" points="376.63,-171.5 383.63,-179.45 383.12,-168.87 376.63,-171.5"/>
</g>
<!-- Node19 -->
<g id="node19" class="node">
<title>Node19</title>
<g id="a_node19"><a xlink:href="event__monitor_8cpp.html" target="_top" xlink:title=" ">
<polygon fill="none" stroke="black" points="379,-112.5 379,-142.5 520,-142.5 520,-112.5 379,-112.5"/>
<text text-anchor="start" x="387" y="-130.5" font-family="Helvetica,sans-Serif" font-size="10.00">HealthGPS.Console/event</text>
<text text-anchor="middle" x="449.5" y="-119.5" font-family="Helvetica,sans-Serif" font-size="10.00">_monitor.cpp</text>
</a>
</g>
</g>
<!-- Node18&#45;&gt;Node19 -->
<g id="edge20" class="edge">
<title>Node18&#45;&gt;Node19</title>
<path fill="none" stroke="midnightblue" d="M409.32,-172.02C418.26,-162.34 428.57,-151.17 436.51,-142.58"/>
<polygon fill="midnightblue" stroke="midnightblue" points="406.73,-169.67 402.52,-179.4 411.87,-174.42 406.73,-169.67"/>
</g>
<!-- Node20&#45;&gt;Node13 -->
<g id="edge23" class="edge">
<title>Node20&#45;&gt;Node13</title>
<path fill="none" stroke="midnightblue" d="M544.16,-169.56C540.89,-153.15 535.87,-130.98 529.5,-112 525.15,-99.03 518.42,-84.7 513.99,-75.77"/>
<polygon fill="midnightblue" stroke="midnightblue" points="540.73,-170.27 546.06,-179.43 547.61,-168.95 540.73,-170.27"/>
</g>
<!-- Node20&#45;&gt;Node21 -->
<g id="edge24" class="edge">
<title>Node20&#45;&gt;Node21</title>
<path fill="none" stroke="midnightblue" d="M578.61,-173.73C593.92,-163.68 612.19,-151.68 626.06,-142.58"/>
<polygon fill="midnightblue" stroke="midnightblue" points="576.42,-170.98 569.98,-179.4 580.26,-176.83 576.42,-170.98"/>
</g>
</g>
</svg>
