<?xml version="1.0" encoding="UTF-8" standalone="no"?>
<!DOCTYPE svg PUBLIC "-//W3C//DTD SVG 1.1//EN"
 "http://www.w3.org/Graphics/SVG/1.1/DTD/svg11.dtd">
<!-- Generated by graphviz version 7.0.6 (20230106.0513)
 -->
<!-- Title: HealthGPS/data_series.cpp Pages: 1 -->
<svg width="531pt" height="214pt"
 viewBox="0.00 0.00 530.50 214.00" xmlns="http://www.w3.org/2000/svg" xmlns:xlink="http://www.w3.org/1999/xlink">
<g id="graph0" class="graph" transform="scale(1 1) rotate(0) translate(4 210)">
<title>HealthGPS/data_series.cpp</title>
<!-- Node1 -->
<g id="node1" class="node">
<title>Node1</title>
<g id="a_node1"><a xlink:title=" ">
<polygon fill="#999999" stroke="#666666" points="430.5,-206 293.5,-206 293.5,-187 430.5,-187 430.5,-206"/>
<text text-anchor="middle" x="362" y="-194" font-family="Helvetica,sans-Serif" font-size="10.00">HealthGPS/data_series.cpp</text>
</a>
</g>
</g>
<!-- Node2 -->
<g id="node2" class="node">
<title>Node2</title>
<g id="a_node2"><a xlink:href="data__series_8h.html" target="_top" xlink:title=" ">
<polygon fill="white" stroke="#666666" points="232.5,-145.5 157.5,-145.5 157.5,-126.5 232.5,-126.5 232.5,-145.5"/>
<text text-anchor="middle" x="195" y="-133.5" font-family="Helvetica,sans-Serif" font-size="10.00">data_series.h</text>
</a>
</g>
</g>
<!-- Node1&#45;&gt;Node2 -->
<g id="edge1" class="edge">
<title>Node1&#45;&gt;Node2</title>
<path fill="none" stroke="#63b8ff" d="M336.64,-186.62C308.56,-176.78 263.07,-160.84 231.24,-149.69"/>
<polygon fill="#63b8ff" stroke="#63b8ff" points="232.63,-146.47 222.03,-146.47 230.31,-153.08 232.63,-146.47"/>
</g>
<!-- Node9 -->
<g id="node9" class="node">
<title>Node9</title>
<g id="a_node9"><a xlink:href="string__util_8h.html" target="_top" xlink:title=" ">
<polygon fill="white" stroke="#666666" points="367,-151 251,-151 251,-121 367,-121 367,-151"/>
<text text-anchor="start" x="259" y="-139" font-family="Helvetica,sans-Serif" font-size="10.00">HealthGPS.Core/string</text>
<text text-anchor="middle" x="309" y="-128" font-family="Helvetica,sans-Serif" font-size="10.00">_util.h</text>
</a>
</g>
</g>
<!-- Node1&#45;&gt;Node9 -->
<g id="edge8" class="edge">
<title>Node1&#45;&gt;Node9</title>
<path fill="none" stroke="#63b8ff" d="M354.18,-186.87C347.65,-179.67 338.05,-169.07 329.38,-159.49"/>
<polygon fill="#63b8ff" stroke="#63b8ff" points="332.11,-157.3 322.8,-152.24 326.92,-162 332.11,-157.3"/>
</g>
<!-- Node11 -->
<g id="node11" class="node">
<title>Node11</title>
<g id="a_node11"><a xlink:title=" ">
<polygon fill="#e0e0e0" stroke="#999999" points="445,-145.5 385,-145.5 385,-126.5 445,-126.5 445,-145.5"/>
<text text-anchor="middle" x="415" y="-133.5" font-family="Helvetica,sans-Serif" font-size="10.00">fmt/core.h</text>
</a>
</g>
</g>
<!-- Node1&#45;&gt;Node11 -->
<g id="edge11" class="edge">
<title>Node1&#45;&gt;Node11</title>
<path fill="none" stroke="#63b8ff" d="M369.82,-186.87C377.65,-178.23 389.9,-164.7 399.67,-153.92"/>
<polygon fill="#63b8ff" stroke="#63b8ff" points="402.01,-156.55 406.13,-146.79 396.82,-151.85 402.01,-156.55"/>
</g>
<!-- Node12 -->
<g id="node12" class="node">
<title>Node12</title>
<g id="a_node12"><a xlink:title=" ">
<polygon fill="#e0e0e0" stroke="#999999" points="522.5,-145.5 463.5,-145.5 463.5,-126.5 522.5,-126.5 522.5,-145.5"/>
<text text-anchor="middle" x="493" y="-133.5" font-family="Helvetica,sans-Serif" font-size="10.00">stdexcept</text>
</a>
</g>
</g>
<!-- Node1&#45;&gt;Node12 -->
<g id="edge12" class="edge">
<title>Node1&#45;&gt;Node12</title>
<path fill="none" stroke="#63b8ff" d="M381.9,-186.62C403.34,-177.04 437.74,-161.68 462.59,-150.58"/>
<polygon fill="#63b8ff" stroke="#63b8ff" points="463.83,-153.86 471.53,-146.59 460.98,-147.47 463.83,-153.86"/>
</g>
<!-- Node3 -->
<g id="node3" class="node">
<title>Node3</title>
<g id="a_node3"><a xlink:href="forward__type_8h.html" target="_top" xlink:title=" ">
<polygon fill="white" stroke="#666666" points="128,-85 6,-85 6,-55 128,-55 128,-85"/>
<text text-anchor="start" x="14" y="-73" font-family="Helvetica,sans-Serif" font-size="10.00">HealthGPS.Core/forward</text>
<text text-anchor="middle" x="67" y="-62" font-family="Helvetica,sans-Serif" font-size="10.00">_type.h</text>
</a>
</g>
</g>
<!-- Node2&#45;&gt;Node3 -->
<g id="edge2" class="edge">
<title>Node2&#45;&gt;Node3</title>
<path fill="none" stroke="#63b8ff" d="M177.2,-126.1C158.89,-116.95 129.78,-102.39 106.07,-90.54"/>
<polygon fill="#63b8ff" stroke="#63b8ff" points="107.82,-87.5 97.31,-86.15 104.69,-93.76 107.82,-87.5"/>
</g>
<!-- Node6 -->
<g id="node6" class="node">
<title>Node6</title>
<g id="a_node6"><a xlink:title=" ">
<polygon fill="#e0e0e0" stroke="#999999" points="300.5,-79.5 259.5,-79.5 259.5,-60.5 300.5,-60.5 300.5,-79.5"/>
<text text-anchor="middle" x="280" y="-67.5" font-family="Helvetica,sans-Serif" font-size="10.00">string</text>
</a>
</g>
</g>
<!-- Node2&#45;&gt;Node6 -->
<g id="edge5" class="edge">
<title>Node2&#45;&gt;Node6</title>
<path fill="none" stroke="#63b8ff" d="M206.82,-126.1C220.39,-115.88 242.91,-98.93 259.39,-86.52"/>
<polygon fill="#63b8ff" stroke="#63b8ff" points="261.19,-89.54 267.07,-80.73 256.98,-83.95 261.19,-89.54"/>
</g>
<!-- Node7 -->
<g id="node7" class="node">
<title>Node7</title>
<g id="a_node7"><a xlink:title=" ">
<polygon fill="#e0e0e0" stroke="#999999" points="188,-79.5 146,-79.5 146,-60.5 188,-60.5 188,-79.5"/>
<text text-anchor="middle" x="167" y="-67.5" font-family="Helvetica,sans-Serif" font-size="10.00">vector</text>
</a>
</g>
</g>
<!-- Node2&#45;&gt;Node7 -->
<g id="edge6" class="edge">
<title>Node2&#45;&gt;Node7</title>
<path fill="none" stroke="#63b8ff" d="M191.11,-126.1C187.05,-116.84 180.58,-102.04 175.36,-90.11"/>
<polygon fill="#63b8ff" stroke="#63b8ff" points="178.68,-88.97 171.47,-81.21 172.27,-91.77 178.68,-88.97"/>
</g>
<!-- Node8 -->
<g id="node8" class="node">
<title>Node8</title>
<g id="a_node8"><a xlink:title=" ">
<polygon fill="#e0e0e0" stroke="#999999" points="241.5,-79.5 206.5,-79.5 206.5,-60.5 241.5,-60.5 241.5,-79.5"/>
<text text-anchor="middle" x="224" y="-67.5" font-family="Helvetica,sans-Serif" font-size="10.00">map</text>
</a>
</g>
</g>
<!-- Node2&#45;&gt;Node8 -->
<g id="edge7" class="edge">
<title>Node2&#45;&gt;Node8</title>
<path fill="none" stroke="#63b8ff" d="M199.03,-126.1C203.23,-116.84 209.94,-102.04 215.34,-90.11"/>
<polygon fill="#63b8ff" stroke="#63b8ff" points="218.44,-91.76 219.38,-81.2 212.06,-88.87 218.44,-91.76"/>
</g>
<!-- Node4 -->
<g id="node4" class="node">
<title>Node4</title>
<g id="a_node4"><a xlink:title=" ">
<polygon fill="#e0e0e0" stroke="#999999" points="62,-19 0,-19 0,0 62,0 62,-19"/>
<text text-anchor="middle" x="31" y="-7" font-family="Helvetica,sans-Serif" font-size="10.00">type_traits</text>
</a>
</g>
</g>
<!-- Node3&#45;&gt;Node4 -->
<g id="edge3" class="edge">
<title>Node3&#45;&gt;Node4</title>
<path fill="none" stroke="#63b8ff" d="M58.1,-54.54C53.3,-46.74 47.32,-37.03 42.21,-28.71"/>
<polygon fill="#63b8ff" stroke="#63b8ff" points="45.35,-27.15 37.13,-20.46 39.39,-30.82 45.35,-27.15"/>
</g>
<!-- Node5 -->
<g id="node5" class="node">
<title>Node5</title>
<g id="a_node5"><a xlink:title=" ">
<polygon fill="#e0e0e0" stroke="#999999" points="126,-19 80,-19 80,0 126,0 126,-19"/>
<text text-anchor="middle" x="103" y="-7" font-family="Helvetica,sans-Serif" font-size="10.00">cstdint</text>
</a>
</g>
</g>
<!-- Node3&#45;&gt;Node5 -->
<g id="edge4" class="edge">
<title>Node3&#45;&gt;Node5</title>
<path fill="none" stroke="#63b8ff" d="M75.9,-54.54C80.7,-46.74 86.68,-37.03 91.79,-28.71"/>
<polygon fill="#63b8ff" stroke="#63b8ff" points="94.61,-30.82 96.87,-20.46 88.65,-27.15 94.61,-30.82"/>
</g>
<!-- Node9&#45;&gt;Node6 -->
<g id="edge9" class="edge">
<title>Node9&#45;&gt;Node6</title>
<path fill="none" stroke="#63b8ff" d="M302.56,-120.8C298.49,-111.8 293.16,-100.04 288.71,-90.22"/>
<polygon fill="#63b8ff" stroke="#63b8ff" points="291.95,-88.89 284.63,-81.22 285.57,-91.78 291.95,-88.89"/>
</g>
<!-- Node10 -->
<g id="node10" class="node">
<title>Node10</title>
<g id="a_node10"><a xlink:title=" ">
<polygon fill="#e0e0e0" stroke="#999999" points="377,-79.5 319,-79.5 319,-60.5 377,-60.5 377,-79.5"/>
<text text-anchor="middle" x="348" y="-67.5" font-family="Helvetica,sans-Serif" font-size="10.00">functional</text>
</a>
</g>
</g>
<!-- Node9&#45;&gt;Node10 -->
<g id="edge10" class="edge">
<title>Node9&#45;&gt;Node10</title>
<path fill="none" stroke="#63b8ff" d="M317.66,-120.8C323.26,-111.6 330.61,-99.53 336.68,-89.58"/>
<polygon fill="#63b8ff" stroke="#63b8ff" points="339.61,-91.5 341.82,-81.14 333.63,-87.85 339.61,-91.5"/>
</g>
</g>
</svg>
