<?xml version="1.0" encoding="UTF-8" standalone="no"?>
<!DOCTYPE svg PUBLIC "-//W3C//DTD SVG 1.1//EN"
 "http://www.w3.org/Graphics/SVG/1.1/DTD/svg11.dtd">
<!-- Generated by graphviz version 2.43.0 (0)
 -->
<!-- Title: HealthGPS.Core/datastore.h Pages: 1 -->
<svg width="896pt" height="252pt"
 viewBox="0.00 0.00 896.00 252.00" xmlns="http://www.w3.org/2000/svg" xmlns:xlink="http://www.w3.org/1999/xlink">
<g id="graph0" class="graph" transform="scale(1 1) rotate(0) translate(4 248)">
<title>HealthGPS.Core/datastore.h</title>
<!-- Node1 -->
<g id="node1" class="node">
<title>Node1</title>
<g id="a_node1"><a xlink:title=" ">
<polygon fill="#bfbfbf" stroke="black" points="451.5,-224.5 451.5,-243.5 603.5,-243.5 603.5,-224.5 451.5,-224.5"/>
<text text-anchor="middle" x="527.5" y="-231.5" font-family="Helvetica,sans-Serif" font-size="10.00">HealthGPS.Core/datastore.h</text>
</a>
</g>
</g>
<!-- Node2 -->
<g id="node2" class="node">
<title>Node2</title>
<g id="a_node2"><a xlink:href="interval_8h.html" target="_top" xlink:title=" ">
<polygon fill="none" stroke="black" points="161,-112.5 161,-131.5 224,-131.5 224,-112.5 161,-112.5"/>
<text text-anchor="middle" x="192.5" y="-119.5" font-family="Helvetica,sans-Serif" font-size="10.00">interval.h</text>
</a>
</g>
</g>
<!-- Node1&#45;&gt;Node2 -->
<g id="edge1" class="edge">
<title>Node1&#45;&gt;Node2</title>
<path fill="none" stroke="midnightblue" d="M501.49,-224.46C442.13,-204.97 296.53,-157.16 228.56,-134.84"/>
<polygon fill="midnightblue" stroke="midnightblue" points="229.32,-131.4 218.72,-131.61 227.13,-138.06 229.32,-131.4"/>
</g>
<!-- Node10 -->
<g id="node10" class="node">
<title>Node10</title>
<g id="a_node10"><a xlink:href="HealthGPS_8Core_2poco_8h.html" target="_top" xlink:title=" ">
<polygon fill="none" stroke="black" points="533,-168.5 533,-187.5 582,-187.5 582,-168.5 533,-168.5"/>
<text text-anchor="middle" x="557.5" y="-175.5" font-family="Helvetica,sans-Serif" font-size="10.00">poco.h</text>
</a>
</g>
</g>
<!-- Node1&#45;&gt;Node10 -->
<g id="edge9" class="edge">
<title>Node1&#45;&gt;Node10</title>
<path fill="none" stroke="midnightblue" d="M532.45,-224.08C536.6,-216.61 542.65,-205.72 547.77,-196.52"/>
<polygon fill="midnightblue" stroke="midnightblue" points="550.84,-198.19 552.64,-187.75 544.72,-194.79 550.84,-198.19"/>
</g>
<!-- Node13 -->
<g id="node13" class="node">
<title>Node13</title>
<g id="a_node13"><a xlink:title=" ">
<polygon fill="none" stroke="#bfbfbf" points="478,-56.5 478,-75.5 525,-75.5 525,-56.5 478,-56.5"/>
<text text-anchor="middle" x="501.5" y="-63.5" font-family="Helvetica,sans-Serif" font-size="10.00">vector</text>
</a>
</g>
</g>
<!-- Node1&#45;&gt;Node13 -->
<g id="edge33" class="edge">
<title>Node1&#45;&gt;Node13</title>
<path fill="none" stroke="midnightblue" d="M526.1,-224.08C522.01,-197.95 509.99,-121.21 504.41,-85.58"/>
<polygon fill="midnightblue" stroke="midnightblue" points="507.85,-84.91 502.84,-75.57 500.93,-85.99 507.85,-84.91"/>
</g>
<!-- Node22 -->
<g id="node22" class="node">
<title>Node22</title>
<g id="a_node22"><a xlink:title=" ">
<polygon fill="none" stroke="#bfbfbf" points="600.5,-168.5 600.5,-187.5 656.5,-187.5 656.5,-168.5 600.5,-168.5"/>
<text text-anchor="middle" x="628.5" y="-175.5" font-family="Helvetica,sans-Serif" font-size="10.00">optional</text>
</a>
</g>
</g>
<!-- Node1&#45;&gt;Node22 -->
<g id="edge32" class="edge">
<title>Node1&#45;&gt;Node22</title>
<path fill="none" stroke="midnightblue" d="M543.73,-224.32C559.85,-215.7 584.8,-202.36 603.46,-192.39"/>
<polygon fill="midnightblue" stroke="midnightblue" points="605.14,-195.46 612.31,-187.65 601.84,-189.28 605.14,-195.46"/>
</g>
<!-- Node3 -->
<g id="node3" class="node">
<title>Node3</title>
<g id="a_node3"><a xlink:href="forward__type_8h.html" target="_top" xlink:title=" ">
<polygon fill="none" stroke="black" points="97.5,-56.5 97.5,-75.5 187.5,-75.5 187.5,-56.5 97.5,-56.5"/>
<text text-anchor="middle" x="142.5" y="-63.5" font-family="Helvetica,sans-Serif" font-size="10.00">forward_type.h</text>
</a>
</g>
</g>
<!-- Node2&#45;&gt;Node3 -->
<g id="edge2" class="edge">
<title>Node2&#45;&gt;Node3</title>
<path fill="none" stroke="midnightblue" d="M184.24,-112.08C177.04,-104.3 166.39,-92.8 157.65,-83.37"/>
<polygon fill="midnightblue" stroke="midnightblue" points="159.97,-80.71 150.6,-75.75 154.83,-85.47 159.97,-80.71"/>
</g>
<!-- Node6 -->
<g id="node6" class="node">
<title>Node6</title>
<g id="a_node6"><a xlink:href="string__util_8h.html" target="_top" xlink:title=" ">
<polygon fill="none" stroke="black" points="205.5,-56.5 205.5,-75.5 279.5,-75.5 279.5,-56.5 205.5,-56.5"/>
<text text-anchor="middle" x="242.5" y="-63.5" font-family="Helvetica,sans-Serif" font-size="10.00">string_util.h</text>
</a>
</g>
</g>
<!-- Node2&#45;&gt;Node6 -->
<g id="edge5" class="edge">
<title>Node2&#45;&gt;Node6</title>
<path fill="none" stroke="midnightblue" d="M200.76,-112.08C207.96,-104.3 218.61,-92.8 227.35,-83.37"/>
<polygon fill="midnightblue" stroke="midnightblue" points="230.17,-85.47 234.4,-75.75 225.03,-80.71 230.17,-85.47"/>
</g>
<!-- Node9 -->
<g id="node9" class="node">
<title>Node9</title>
<g id="a_node9"><a xlink:title=" ">
<polygon fill="none" stroke="#bfbfbf" points="0,-56.5 0,-75.5 79,-75.5 79,-56.5 0,-56.5"/>
<text text-anchor="middle" x="39.5" y="-63.5" font-family="Helvetica,sans-Serif" font-size="10.00">fmt/format.h</text>
</a>
</g>
</g>
<!-- Node2&#45;&gt;Node9 -->
<g id="edge8" class="edge">
<title>Node2&#45;&gt;Node9</title>
<path fill="none" stroke="midnightblue" d="M168.26,-112.44C142.63,-103.4 102.01,-89.06 73.26,-78.92"/>
<polygon fill="midnightblue" stroke="midnightblue" points="74.22,-75.54 63.63,-75.52 71.89,-82.15 74.22,-75.54"/>
</g>
<!-- Node4 -->
<g id="node4" class="node">
<title>Node4</title>
<g id="a_node4"><a xlink:title=" ">
<polygon fill="none" stroke="#bfbfbf" points="129.5,-0.5 129.5,-19.5 179.5,-19.5 179.5,-0.5 129.5,-0.5"/>
<text text-anchor="middle" x="154.5" y="-7.5" font-family="Helvetica,sans-Serif" font-size="10.00">cstdint</text>
</a>
</g>
</g>
<!-- Node3&#45;&gt;Node4 -->
<g id="edge3" class="edge">
<title>Node3&#45;&gt;Node4</title>
<path fill="none" stroke="midnightblue" d="M144.48,-56.08C146.07,-48.93 148.36,-38.64 150.35,-29.69"/>
<polygon fill="midnightblue" stroke="midnightblue" points="153.8,-30.27 152.56,-19.75 146.97,-28.75 153.8,-30.27"/>
</g>
<!-- Node5 -->
<g id="node5" class="node">
<title>Node5</title>
<g id="a_node5"><a xlink:title=" ">
<polygon fill="none" stroke="#bfbfbf" points="42,-0.5 42,-19.5 111,-19.5 111,-0.5 42,-0.5"/>
<text text-anchor="middle" x="76.5" y="-7.5" font-family="Helvetica,sans-Serif" font-size="10.00">type_traits</text>
</a>
</g>
</g>
<!-- Node3&#45;&gt;Node5 -->
<g id="edge4" class="edge">
<title>Node3&#45;&gt;Node5</title>
<path fill="none" stroke="midnightblue" d="M131.9,-56.32C122.04,-48.26 107.15,-36.08 95.28,-26.37"/>
<polygon fill="midnightblue" stroke="midnightblue" points="97.25,-23.46 87.3,-19.83 92.82,-28.88 97.25,-23.46"/>
</g>
<!-- Node7 -->
<g id="node7" class="node">
<title>Node7</title>
<g id="a_node7"><a xlink:title=" ">
<polygon fill="none" stroke="#bfbfbf" points="215,-0.5 215,-19.5 280,-19.5 280,-0.5 215,-0.5"/>
<text text-anchor="middle" x="247.5" y="-7.5" font-family="Helvetica,sans-Serif" font-size="10.00">functional</text>
</a>
</g>
</g>
<!-- Node6&#45;&gt;Node7 -->
<g id="edge6" class="edge">
<title>Node6&#45;&gt;Node7</title>
<path fill="none" stroke="midnightblue" d="M243.33,-56.08C243.98,-49.01 244.92,-38.86 245.74,-29.99"/>
<polygon fill="midnightblue" stroke="midnightblue" points="249.25,-30.03 246.69,-19.75 242.28,-29.39 249.25,-30.03"/>
</g>
<!-- Node8 -->
<g id="node8" class="node">
<title>Node8</title>
<g id="a_node8"><a xlink:title=" ">
<polygon fill="none" stroke="#bfbfbf" points="454.5,-0.5 454.5,-19.5 498.5,-19.5 498.5,-0.5 454.5,-0.5"/>
<text text-anchor="middle" x="476.5" y="-7.5" font-family="Helvetica,sans-Serif" font-size="10.00">string</text>
</a>
</g>
</g>
<!-- Node6&#45;&gt;Node8 -->
<g id="edge7" class="edge">
<title>Node6&#45;&gt;Node8</title>
<path fill="none" stroke="midnightblue" d="M279.58,-56.44C325.06,-45.95 401.4,-28.33 444.45,-18.4"/>
<polygon fill="midnightblue" stroke="midnightblue" points="445.43,-21.76 454.38,-16.1 443.85,-14.94 445.43,-21.76"/>
</g>
<!-- Node11 -->
<g id="node11" class="node">
<title>Node11</title>
<g id="a_node11"><a xlink:href="analysis_8h.html" target="_top" xlink:title=" ">
<polygon fill="none" stroke="black" points="407.5,-112.5 407.5,-131.5 473.5,-131.5 473.5,-112.5 407.5,-112.5"/>
<text text-anchor="middle" x="440.5" y="-119.5" font-family="Helvetica,sans-Serif" font-size="10.00">analysis.h</text>
</a>
</g>
</g>
<!-- Node10&#45;&gt;Node11 -->
<g id="edge10" class="edge">
<title>Node10&#45;&gt;Node11</title>
<path fill="none" stroke="midnightblue" d="M538.96,-168.44C519.88,-159.64 489.93,-145.81 468.06,-135.72"/>
<polygon fill="midnightblue" stroke="midnightblue" points="469.5,-132.53 458.95,-131.52 466.57,-138.88 469.5,-132.53"/>
</g>
<!-- Node14 -->
<g id="node14" class="node">
<title>Node14</title>
<g id="a_node14"><a xlink:href="country_8h.html" target="_top" xlink:title=" ">
<polygon fill="none" stroke="black" points="530,-112.5 530,-131.5 591,-131.5 591,-112.5 530,-112.5"/>
<text text-anchor="middle" x="560.5" y="-119.5" font-family="Helvetica,sans-Serif" font-size="10.00">country.h</text>
</a>
</g>
</g>
<!-- Node10&#45;&gt;Node14 -->
<g id="edge15" class="edge">
<title>Node10&#45;&gt;Node14</title>
<path fill="none" stroke="midnightblue" d="M558,-168.08C558.39,-161.01 558.95,-150.86 559.45,-141.99"/>
<polygon fill="midnightblue" stroke="midnightblue" points="562.95,-141.93 560.01,-131.75 555.96,-141.54 562.95,-141.93"/>
</g>
<!-- Node15 -->
<g id="node15" class="node">
<title>Node15</title>
<g id="a_node15"><a xlink:href="HealthGPS_8Core_2disease_8h.html" target="_top" xlink:title=" ">
<polygon fill="none" stroke="black" points="326,-112.5 326,-131.5 389,-131.5 389,-112.5 326,-112.5"/>
<text text-anchor="middle" x="357.5" y="-119.5" font-family="Helvetica,sans-Serif" font-size="10.00">disease.h</text>
</a>
</g>
</g>
<!-- Node10&#45;&gt;Node15 -->
<g id="edge17" class="edge">
<title>Node10&#45;&gt;Node15</title>
<path fill="none" stroke="midnightblue" d="M532.98,-170.38C499.61,-161.37 439.44,-145.12 398.98,-134.2"/>
<polygon fill="midnightblue" stroke="midnightblue" points="399.72,-130.77 389.15,-131.55 397.89,-137.53 399.72,-130.77"/>
</g>
<!-- Node18 -->
<g id="node18" class="node">
<title>Node18</title>
<g id="a_node18"><a xlink:href="indicator_8h.html" target="_top" xlink:title=" ">
<polygon fill="none" stroke="black" points="609.5,-112.5 609.5,-131.5 677.5,-131.5 677.5,-112.5 609.5,-112.5"/>
<text text-anchor="middle" x="643.5" y="-119.5" font-family="Helvetica,sans-Serif" font-size="10.00">indicator.h</text>
</a>
</g>
</g>
<!-- Node10&#45;&gt;Node18 -->
<g id="edge26" class="edge">
<title>Node10&#45;&gt;Node18</title>
<path fill="none" stroke="midnightblue" d="M571.32,-168.32C584.73,-159.9 605.32,-146.97 621.09,-137.07"/>
<polygon fill="midnightblue" stroke="midnightblue" points="623.11,-139.94 629.72,-131.65 619.39,-134.01 623.11,-139.94"/>
</g>
<!-- Node19 -->
<g id="node19" class="node">
<title>Node19</title>
<g id="a_node19"><a xlink:href="mortality_8h.html" target="_top" xlink:title=" ">
<polygon fill="none" stroke="black" points="696,-112.5 696,-131.5 765,-131.5 765,-112.5 696,-112.5"/>
<text text-anchor="middle" x="730.5" y="-119.5" font-family="Helvetica,sans-Serif" font-size="10.00">mortality.h</text>
</a>
</g>
</g>
<!-- Node10&#45;&gt;Node19 -->
<g id="edge28" class="edge">
<title>Node10&#45;&gt;Node19</title>
<path fill="none" stroke="midnightblue" d="M582.29,-169.26C611.33,-160.2 659.74,-145.09 693.29,-134.61"/>
<polygon fill="midnightblue" stroke="midnightblue" points="694.69,-137.85 703.19,-131.52 692.6,-131.16 694.69,-137.85"/>
</g>
<!-- Node21 -->
<g id="node21" class="node">
<title>Node21</title>
<g id="a_node21"><a xlink:href="population__item_8h.html" target="_top" xlink:title=" ">
<polygon fill="none" stroke="black" points="783,-112.5 783,-131.5 888,-131.5 888,-112.5 783,-112.5"/>
<text text-anchor="middle" x="835.5" y="-119.5" font-family="Helvetica,sans-Serif" font-size="10.00">population_item.h</text>
</a>
</g>
</g>
<!-- Node10&#45;&gt;Node21 -->
<g id="edge30" class="edge">
<title>Node10&#45;&gt;Node21</title>
<path fill="none" stroke="midnightblue" d="M582.33,-170.19C585.41,-169.42 588.52,-168.67 591.5,-168 652.84,-154.25 723.55,-141.55 773,-133.17"/>
<polygon fill="midnightblue" stroke="midnightblue" points="773.63,-136.62 782.91,-131.5 772.47,-129.71 773.63,-136.62"/>
</g>
<!-- Node11&#45;&gt;Node3 -->
<g id="edge11" class="edge">
<title>Node11&#45;&gt;Node3</title>
<path fill="none" stroke="midnightblue" d="M407.19,-113.92C403.92,-113.26 400.65,-112.61 397.5,-112 328.8,-98.75 249.39,-84.98 197.68,-76.22"/>
<polygon fill="midnightblue" stroke="midnightblue" points="198.16,-72.75 187.72,-74.54 197,-79.65 198.16,-72.75"/>
</g>
<!-- Node11&#45;&gt;Node8 -->
<g id="edge13" class="edge">
<title>Node11&#45;&gt;Node8</title>
<path fill="none" stroke="midnightblue" d="M473.64,-114.36C494.73,-108.24 520.45,-96.82 533.5,-76 545.72,-56.5 522.86,-37.05 502.56,-24.57"/>
<polygon fill="midnightblue" stroke="midnightblue" points="504.24,-21.5 493.83,-19.52 500.73,-27.56 504.24,-21.5"/>
</g>
<!-- Node12 -->
<g id="node12" class="node">
<title>Node12</title>
<g id="a_node12"><a xlink:title=" ">
<polygon fill="none" stroke="#bfbfbf" points="421.5,-56.5 421.5,-75.5 459.5,-75.5 459.5,-56.5 421.5,-56.5"/>
<text text-anchor="middle" x="440.5" y="-63.5" font-family="Helvetica,sans-Serif" font-size="10.00">map</text>
</a>
</g>
</g>
<!-- Node11&#45;&gt;Node12 -->
<g id="edge12" class="edge">
<title>Node11&#45;&gt;Node12</title>
<path fill="none" stroke="midnightblue" d="M440.5,-112.08C440.5,-105.01 440.5,-94.86 440.5,-85.99"/>
<polygon fill="midnightblue" stroke="midnightblue" points="444,-85.75 440.5,-75.75 437,-85.75 444,-85.75"/>
</g>
<!-- Node11&#45;&gt;Node13 -->
<g id="edge14" class="edge">
<title>Node11&#45;&gt;Node13</title>
<path fill="none" stroke="midnightblue" d="M450.3,-112.32C459.32,-104.34 472.91,-92.31 483.82,-82.65"/>
<polygon fill="midnightblue" stroke="midnightblue" points="486.35,-85.08 491.52,-75.83 481.71,-79.84 486.35,-85.08"/>
</g>
<!-- Node14&#45;&gt;Node8 -->
<g id="edge16" class="edge">
<title>Node14&#45;&gt;Node8</title>
<path fill="none" stroke="midnightblue" d="M561.19,-112.18C561.79,-98.84 561.14,-73.27 549.5,-56 539.54,-41.21 522.92,-30.41 508.05,-23.11"/>
<polygon fill="midnightblue" stroke="midnightblue" points="509.17,-19.77 498.62,-18.8 506.27,-26.14 509.17,-19.77"/>
</g>
<!-- Node15&#45;&gt;Node3 -->
<g id="edge21" class="edge">
<title>Node15&#45;&gt;Node3</title>
<path fill="none" stroke="midnightblue" d="M325.78,-113.03C288.87,-103.76 227.72,-88.4 186.3,-78"/>
<polygon fill="midnightblue" stroke="midnightblue" points="187.04,-74.58 176.49,-75.54 185.33,-81.37 187.04,-74.58"/>
</g>
<!-- Node15&#45;&gt;Node8 -->
<g id="edge19" class="edge">
<title>Node15&#45;&gt;Node8</title>
<path fill="none" stroke="midnightblue" d="M363.65,-112.4C373.22,-99.35 392.64,-74.15 412.5,-56 425.16,-44.42 440.92,-33.31 453.62,-25.03"/>
<polygon fill="midnightblue" stroke="midnightblue" points="455.7,-27.85 462.25,-19.53 451.94,-21.95 455.7,-27.85"/>
</g>
<!-- Node15&#45;&gt;Node12 -->
<g id="edge18" class="edge">
<title>Node15&#45;&gt;Node12</title>
<path fill="none" stroke="midnightblue" d="M370.84,-112.32C383.66,-103.98 403.28,-91.21 418.44,-81.35"/>
<polygon fill="midnightblue" stroke="midnightblue" points="420.72,-84.04 427.2,-75.65 416.91,-78.17 420.72,-84.04"/>
</g>
<!-- Node15&#45;&gt;Node13 -->
<g id="edge20" class="edge">
<title>Node15&#45;&gt;Node13</title>
<path fill="none" stroke="midnightblue" d="M380.32,-112.44C404.33,-103.44 442.33,-89.19 469.37,-79.05"/>
<polygon fill="midnightblue" stroke="midnightblue" points="470.66,-82.3 478.79,-75.52 468.2,-75.75 470.66,-82.3"/>
</g>
<!-- Node16 -->
<g id="node16" class="node">
<title>Node16</title>
<g id="a_node16"><a xlink:href="identifier_8h.html" target="_top" xlink:title=" ">
<polygon fill="none" stroke="black" points="297.5,-56.5 297.5,-75.5 365.5,-75.5 365.5,-56.5 297.5,-56.5"/>
<text text-anchor="middle" x="331.5" y="-63.5" font-family="Helvetica,sans-Serif" font-size="10.00">identifier.h</text>
</a>
</g>
</g>
<!-- Node15&#45;&gt;Node16 -->
<g id="edge22" class="edge">
<title>Node15&#45;&gt;Node16</title>
<path fill="none" stroke="midnightblue" d="M353.21,-112.08C349.65,-104.69 344.48,-93.95 340.08,-84.81"/>
<polygon fill="midnightblue" stroke="midnightblue" points="343.21,-83.24 335.71,-75.75 336.9,-86.28 343.21,-83.24"/>
</g>
<!-- Node16&#45;&gt;Node7 -->
<g id="edge23" class="edge">
<title>Node16&#45;&gt;Node7</title>
<path fill="none" stroke="midnightblue" d="M318,-56.32C304.9,-47.9 284.79,-34.97 269.39,-25.07"/>
<polygon fill="midnightblue" stroke="midnightblue" points="271.27,-22.12 260.96,-19.65 267.48,-28.01 271.27,-22.12"/>
</g>
<!-- Node16&#45;&gt;Node8 -->
<g id="edge25" class="edge">
<title>Node16&#45;&gt;Node8</title>
<path fill="none" stroke="midnightblue" d="M354.48,-56.44C378.8,-47.39 417.37,-33.02 444.63,-22.87"/>
<polygon fill="midnightblue" stroke="midnightblue" points="445.96,-26.11 454.11,-19.34 443.52,-19.55 445.96,-26.11"/>
</g>
<!-- Node17 -->
<g id="node17" class="node">
<title>Node17</title>
<g id="a_node17"><a xlink:title=" ">
<polygon fill="none" stroke="#bfbfbf" points="303,-0.5 303,-19.5 360,-19.5 360,-0.5 303,-0.5"/>
<text text-anchor="middle" x="331.5" y="-7.5" font-family="Helvetica,sans-Serif" font-size="10.00">ostream</text>
</a>
</g>
</g>
<!-- Node16&#45;&gt;Node17 -->
<g id="edge24" class="edge">
<title>Node16&#45;&gt;Node17</title>
<path fill="none" stroke="midnightblue" d="M331.5,-56.08C331.5,-49.01 331.5,-38.86 331.5,-29.99"/>
<polygon fill="midnightblue" stroke="midnightblue" points="335,-29.75 331.5,-19.75 328,-29.75 335,-29.75"/>
</g>
<!-- Node18&#45;&gt;Node8 -->
<g id="edge27" class="edge">
<title>Node18&#45;&gt;Node8</title>
<path fill="none" stroke="midnightblue" d="M634.88,-112.18C621.53,-98.86 594.65,-73.3 568.5,-56 549.14,-43.19 525.61,-31.75 507.18,-23.6"/>
<polygon fill="midnightblue" stroke="midnightblue" points="508.37,-20.3 497.8,-19.54 505.59,-26.73 508.37,-20.3"/>
</g>
<!-- Node20 -->
<g id="node20" class="node">
<title>Node20</title>
<g id="a_node20"><a xlink:title=" ">
<polygon fill="none" stroke="#bfbfbf" points="763,-56.5 763,-75.5 804,-75.5 804,-56.5 763,-56.5"/>
<text text-anchor="middle" x="783.5" y="-63.5" font-family="Helvetica,sans-Serif" font-size="10.00">tuple</text>
</a>
</g>
</g>
<!-- Node19&#45;&gt;Node20 -->
<g id="edge29" class="edge">
<title>Node19&#45;&gt;Node20</title>
<path fill="none" stroke="midnightblue" d="M739.25,-112.08C746.97,-104.22 758.4,-92.57 767.72,-83.08"/>
<polygon fill="midnightblue" stroke="midnightblue" points="770.4,-85.34 774.91,-75.75 765.41,-80.44 770.4,-85.34"/>
</g>
<!-- Node21&#45;&gt;Node20 -->
<g id="edge31" class="edge">
<title>Node21&#45;&gt;Node20</title>
<path fill="none" stroke="midnightblue" d="M826.91,-112.08C819.34,-104.22 808.12,-92.57 798.99,-83.08"/>
<polygon fill="midnightblue" stroke="midnightblue" points="801.38,-80.53 791.93,-75.75 796.34,-85.38 801.38,-80.53"/>
</g>
</g>
</svg>
