<?xml version="1.0" encoding="UTF-8" standalone="no"?>
<!DOCTYPE svg PUBLIC "-//W3C//DTD SVG 1.1//EN"
 "http://www.w3.org/Graphics/SVG/1.1/DTD/svg11.dtd">
<!-- Generated by graphviz version 2.43.0 (0)
 -->
<!-- Title: HealthGPS.Datastore/datamanager.cpp Pages: 1 -->
<svg width="2106pt" height="498pt"
 viewBox="0.00 0.00 2106.00 498.00" xmlns="http://www.w3.org/2000/svg" xmlns:xlink="http://www.w3.org/1999/xlink">
<g id="graph0" class="graph" transform="scale(1 1) rotate(0) translate(4 494)">
<title>HealthGPS.Datastore/datamanager.cpp</title>
<!-- Node1 -->
<g id="node1" class="node">
<title>Node1</title>
<g id="a_node1"><a xlink:title=" ">
<polygon fill="#bfbfbf" stroke="black" points="573.5,-459.5 573.5,-489.5 692.5,-489.5 692.5,-459.5 573.5,-459.5"/>
<text text-anchor="start" x="581.5" y="-477.5" font-family="Helvetica,sans-Serif" font-size="10.00">HealthGPS.Datastore</text>
<text text-anchor="middle" x="633" y="-466.5" font-family="Helvetica,sans-Serif" font-size="10.00">/datamanager.cpp</text>
</a>
</g>
</g>
<!-- Node2 -->
<g id="node2" class="node">
<title>Node2</title>
<g id="a_node2"><a xlink:href="datamanager_8h.html" target="_top" xlink:title=" ">
<polygon fill="none" stroke="black" points="411,-398 411,-417 501,-417 501,-398 411,-398"/>
<text text-anchor="middle" x="456" y="-405" font-family="Helvetica,sans-Serif" font-size="10.00">datamanager.h</text>
</a>
</g>
</g>
<!-- Node1&#45;&gt;Node2 -->
<g id="edge1" class="edge">
<title>Node1&#45;&gt;Node2</title>
<path fill="none" stroke="midnightblue" d="M594.59,-459.4C562.99,-447.79 518.67,-431.51 488.73,-420.52"/>
<polygon fill="midnightblue" stroke="midnightblue" points="489.76,-417.17 479.17,-417.01 487.35,-423.74 489.76,-417.17"/>
</g>
<!-- Node13 -->
<g id="node13" class="node">
<title>Node13</title>
<g id="a_node13"><a xlink:href="string__util_8h.html" target="_top" xlink:title=" ">
<polygon fill="none" stroke="black" points="152,-112.5 152,-131.5 226,-131.5 226,-112.5 152,-112.5"/>
<text text-anchor="middle" x="189" y="-119.5" font-family="Helvetica,sans-Serif" font-size="10.00">string_util.h</text>
</a>
</g>
</g>
<!-- Node1&#45;&gt;Node13 -->
<g id="edge83" class="edge">
<title>Node1&#45;&gt;Node13</title>
<path fill="none" stroke="midnightblue" d="M573.34,-472.13C432.28,-467.28 90,-445.37 90,-347 90,-347 90,-347 90,-233 90,-189.18 133.94,-154.93 163.27,-136.94"/>
<polygon fill="midnightblue" stroke="midnightblue" points="165.36,-139.77 172.21,-131.68 161.81,-133.74 165.36,-139.77"/>
</g>
<!-- Node49 -->
<g id="node47" class="node">
<title>Node49</title>
<g id="a_node47"><a xlink:href="math__util_8h.html" target="_top" xlink:title=" ">
<polygon fill="none" stroke="black" points="519,-392.5 519,-422.5 641,-422.5 641,-392.5 519,-392.5"/>
<text text-anchor="start" x="527" y="-410.5" font-family="Helvetica,sans-Serif" font-size="10.00">HealthGPS.Core/math</text>
<text text-anchor="middle" x="580" y="-399.5" font-family="Helvetica,sans-Serif" font-size="10.00">_util.h</text>
</a>
</g>
</g>
<!-- Node1&#45;&gt;Node49 -->
<g id="edge84" class="edge">
<title>Node1&#45;&gt;Node49</title>
<path fill="none" stroke="midnightblue" d="M621.5,-459.4C614.62,-450.96 605.74,-440.07 597.96,-430.52"/>
<polygon fill="midnightblue" stroke="midnightblue" points="600.51,-428.11 591.48,-422.58 595.08,-432.54 600.51,-428.11"/>
</g>
<!-- Node50 -->
<g id="node48" class="node">
<title>Node50</title>
<g id="a_node48"><a xlink:title=" ">
<polygon fill="none" stroke="#bfbfbf" points="659.5,-398 659.5,-417 714.5,-417 714.5,-398 659.5,-398"/>
<text text-anchor="middle" x="687" y="-405" font-family="Helvetica,sans-Serif" font-size="10.00">fstream</text>
</a>
</g>
</g>
<!-- Node1&#45;&gt;Node50 -->
<g id="edge85" class="edge">
<title>Node1&#45;&gt;Node50</title>
<path fill="none" stroke="midnightblue" d="M644.72,-459.4C653.14,-449.26 664.51,-435.57 673.34,-424.94"/>
<polygon fill="midnightblue" stroke="midnightblue" points="676.08,-427.12 679.78,-417.19 670.69,-422.65 676.08,-427.12"/>
</g>
<!-- Node51 -->
<g id="node49" class="node">
<title>Node51</title>
<g id="a_node49"><a xlink:title=" ">
<polygon fill="none" stroke="#bfbfbf" points="733,-398 733,-417 799,-417 799,-398 733,-398"/>
<text text-anchor="middle" x="766" y="-405" font-family="Helvetica,sans-Serif" font-size="10.00">rapidcsv.h</text>
</a>
</g>
</g>
<!-- Node1&#45;&gt;Node51 -->
<g id="edge86" class="edge">
<title>Node1&#45;&gt;Node51</title>
<path fill="none" stroke="midnightblue" d="M661.86,-459.4C684.89,-448.14 716.89,-432.5 739.32,-421.54"/>
<polygon fill="midnightblue" stroke="midnightblue" points="741.15,-424.54 748.59,-417.01 738.07,-418.25 741.15,-424.54"/>
</g>
<!-- Node52 -->
<g id="node50" class="node">
<title>Node52</title>
<g id="a_node50"><a xlink:title=" ">
<polygon fill="none" stroke="#bfbfbf" points="817.5,-398 817.5,-417 886.5,-417 886.5,-398 817.5,-398"/>
<text text-anchor="middle" x="852" y="-405" font-family="Helvetica,sans-Serif" font-size="10.00">fmt/color.h</text>
</a>
</g>
</g>
<!-- Node1&#45;&gt;Node52 -->
<g id="edge87" class="edge">
<title>Node1&#45;&gt;Node52</title>
<path fill="none" stroke="midnightblue" d="M683.69,-459.41C718.71,-449.55 766.31,-435.88 808,-423 810.9,-422.1 813.91,-421.16 816.92,-420.19"/>
<polygon fill="midnightblue" stroke="midnightblue" points="818.03,-423.51 826.46,-417.1 815.87,-416.85 818.03,-423.51"/>
</g>
<!-- Node3 -->
<g id="node3" class="node">
<title>Node3</title>
<g id="a_node3"><a xlink:href="HealthGPS_8Core_2api_8h.html" target="_top" xlink:title=" ">
<polygon fill="none" stroke="black" points="929.5,-336.5 929.5,-355.5 1050.5,-355.5 1050.5,-336.5 929.5,-336.5"/>
<text text-anchor="middle" x="990" y="-343.5" font-family="Helvetica,sans-Serif" font-size="10.00">HealthGPS.Core/api.h</text>
</a>
</g>
</g>
<!-- Node2&#45;&gt;Node3 -->
<g id="edge2" class="edge">
<title>Node2&#45;&gt;Node3</title>
<path fill="none" stroke="midnightblue" d="M484.1,-397.99C492.38,-395.75 501.5,-393.53 510,-392 653.91,-366.12 824.95,-354.61 919.06,-349.9"/>
<polygon fill="midnightblue" stroke="midnightblue" points="919.5,-353.39 929.32,-349.4 919.16,-346.39 919.5,-353.39"/>
</g>
<!-- Node47 -->
<g id="node45" class="node">
<title>Node47</title>
<g id="a_node45"><a xlink:title=" ">
<polygon fill="none" stroke="#bfbfbf" points="369,-336.5 369,-355.5 437,-355.5 437,-336.5 369,-336.5"/>
<text text-anchor="middle" x="403" y="-343.5" font-family="Helvetica,sans-Serif" font-size="10.00">filesystem</text>
</a>
</g>
</g>
<!-- Node2&#45;&gt;Node47 -->
<g id="edge81" class="edge">
<title>Node2&#45;&gt;Node47</title>
<path fill="none" stroke="midnightblue" d="M448.41,-397.98C440.3,-388.87 427.27,-374.24 417.24,-362.98"/>
<polygon fill="midnightblue" stroke="midnightblue" points="419.84,-360.65 410.58,-355.51 414.62,-365.3 419.84,-360.65"/>
</g>
<!-- Node48 -->
<g id="node46" class="node">
<title>Node48</title>
<g id="a_node46"><a xlink:title=" ">
<polygon fill="none" stroke="#bfbfbf" points="455,-336.5 455,-355.5 565,-355.5 565,-336.5 455,-336.5"/>
<text text-anchor="middle" x="510" y="-343.5" font-family="Helvetica,sans-Serif" font-size="10.00">nlohmann/json.hpp</text>
</a>
</g>
</g>
<!-- Node2&#45;&gt;Node48 -->
<g id="edge82" class="edge">
<title>Node2&#45;&gt;Node48</title>
<path fill="none" stroke="midnightblue" d="M463.74,-397.98C472,-388.87 485.28,-374.24 495.49,-362.98"/>
<polygon fill="midnightblue" stroke="midnightblue" points="498.15,-365.27 502.28,-355.51 492.97,-360.56 498.15,-365.27"/>
</g>
<!-- Node4 -->
<g id="node4" class="node">
<title>Node4</title>
<g id="a_node4"><a xlink:href="version_8h.html" target="_top" xlink:title=" ">
<polygon fill="none" stroke="black" points="0,-280.5 0,-299.5 62,-299.5 62,-280.5 0,-280.5"/>
<text text-anchor="middle" x="31" y="-287.5" font-family="Helvetica,sans-Serif" font-size="10.00">version.h</text>
</a>
</g>
</g>
<!-- Node3&#45;&gt;Node4 -->
<g id="edge3" class="edge">
<title>Node3&#45;&gt;Node4</title>
<path fill="none" stroke="midnightblue" d="M929.39,-343.07C786.96,-338.28 419.88,-324.42 114,-300 100.43,-298.92 85.65,-297.42 72.37,-295.95"/>
<polygon fill="midnightblue" stroke="midnightblue" points="72.43,-292.44 62.1,-294.79 71.64,-299.39 72.43,-292.44"/>
</g>
<!-- Node6 -->
<g id="node6" class="node">
<title>Node6</title>
<g id="a_node6"><a xlink:href="datastore_8h.html" target="_top" xlink:title=" ">
<polygon fill="none" stroke="black" points="758,-280.5 758,-299.5 830,-299.5 830,-280.5 758,-280.5"/>
<text text-anchor="middle" x="794" y="-287.5" font-family="Helvetica,sans-Serif" font-size="10.00">datastore.h</text>
</a>
</g>
</g>
<!-- Node3&#45;&gt;Node6 -->
<g id="edge5" class="edge">
<title>Node3&#45;&gt;Node6</title>
<path fill="none" stroke="midnightblue" d="M958.94,-336.44C925.4,-327.2 871.8,-312.44 834.86,-302.26"/>
<polygon fill="midnightblue" stroke="midnightblue" points="835.48,-298.8 824.91,-299.52 833.62,-305.55 835.48,-298.8"/>
</g>
<!-- Node9 -->
<g id="node9" class="node">
<title>Node9</title>
<g id="a_node9"><a xlink:href="interval_8h.html" target="_top" xlink:title=" ">
<polygon fill="none" stroke="black" points="694.5,-224.5 694.5,-243.5 757.5,-243.5 757.5,-224.5 694.5,-224.5"/>
<text text-anchor="middle" x="726" y="-231.5" font-family="Helvetica,sans-Serif" font-size="10.00">interval.h</text>
</a>
</g>
</g>
<!-- Node3&#45;&gt;Node9 -->
<g id="edge65" class="edge">
<title>Node3&#45;&gt;Node9</title>
<path fill="none" stroke="midnightblue" d="M929.27,-340.53C866.97,-334.78 775.52,-322.69 749,-300 735.52,-288.47 729.94,-268.5 727.63,-253.73"/>
<polygon fill="midnightblue" stroke="midnightblue" points="731.09,-253.19 726.42,-243.68 724.14,-254.02 731.09,-253.19"/>
</g>
<!-- Node16 -->
<g id="node16" class="node">
<title>Node16</title>
<g id="a_node16"><a xlink:href="HealthGPS_8Core_2poco_8h.html" target="_top" xlink:title=" ">
<polygon fill="none" stroke="black" points="428.5,-224.5 428.5,-243.5 477.5,-243.5 477.5,-224.5 428.5,-224.5"/>
<text text-anchor="middle" x="453" y="-231.5" font-family="Helvetica,sans-Serif" font-size="10.00">poco.h</text>
</a>
</g>
</g>
<!-- Node3&#45;&gt;Node16 -->
<g id="edge80" class="edge">
<title>Node3&#45;&gt;Node16</title>
<path fill="none" stroke="midnightblue" d="M935.51,-336.47C882.98,-328.03 801.32,-314.32 731,-300 642.89,-282.06 540.06,-256.91 487.61,-243.77"/>
<polygon fill="midnightblue" stroke="midnightblue" points="488.37,-240.35 477.81,-241.31 486.66,-247.14 488.37,-240.35"/>
</g>
<!-- Node22 -->
<g id="node20" class="node">
<title>Node22</title>
<g id="a_node20"><a xlink:href="identifier_8h.html" target="_top" xlink:title=" ">
<polygon fill="none" stroke="black" points="410,-112.5 410,-131.5 478,-131.5 478,-112.5 410,-112.5"/>
<text text-anchor="middle" x="444" y="-119.5" font-family="Helvetica,sans-Serif" font-size="10.00">identifier.h</text>
</a>
</g>
</g>
<!-- Node3&#45;&gt;Node22 -->
<g id="edge79" class="edge">
<title>Node3&#45;&gt;Node22</title>
<path fill="none" stroke="midnightblue" d="M929.44,-342.98C758.33,-335.84 277.74,-305.49 186,-188 144.21,-134.48 89.47,-189.67 399.53,-132.21"/>
<polygon fill="midnightblue" stroke="midnightblue" points="400.57,-135.57 409.76,-130.3 399.28,-128.69 400.57,-135.57"/>
</g>
<!-- Node27 -->
<g id="node25" class="node">
<title>Node27</title>
<g id="a_node25"><a xlink:href="visitor_8h.html" target="_top" xlink:title=" ">
<polygon fill="none" stroke="black" points="1700,-112.5 1700,-131.5 1756,-131.5 1756,-112.5 1700,-112.5"/>
<text text-anchor="middle" x="1728" y="-119.5" font-family="Helvetica,sans-Serif" font-size="10.00">visitor.h</text>
</a>
</g>
</g>
<!-- Node3&#45;&gt;Node27 -->
<g id="edge35" class="edge">
<title>Node3&#45;&gt;Node27</title>
<path fill="none" stroke="midnightblue" d="M1050.64,-339.93C1120.26,-333.46 1237.66,-320.58 1337,-300 1513.59,-263.41 1617.39,-331.21 1727,-188 1736.96,-174.99 1735.94,-155.83 1733.2,-141.68"/>
<polygon fill="midnightblue" stroke="midnightblue" points="1736.52,-140.54 1730.8,-131.62 1729.71,-142.16 1736.52,-140.54"/>
</g>
<!-- Node28 -->
<g id="node26" class="node">
<title>Node28</title>
<g id="a_node26"><a xlink:href="datatable_8h.html" target="_top" xlink:title=" ">
<polygon fill="none" stroke="black" points="1414,-224.5 1414,-243.5 1486,-243.5 1486,-224.5 1414,-224.5"/>
<text text-anchor="middle" x="1450" y="-231.5" font-family="Helvetica,sans-Serif" font-size="10.00">datatable.h</text>
</a>
</g>
</g>
<!-- Node3&#45;&gt;Node28 -->
<g id="edge37" class="edge">
<title>Node3&#45;&gt;Node28</title>
<path fill="none" stroke="midnightblue" d="M1050.54,-340.57C1112.76,-334.97 1211.99,-323.13 1295,-300 1342.18,-286.85 1394.12,-263.01 1424.3,-248.14"/>
<polygon fill="midnightblue" stroke="midnightblue" points="1425.91,-251.25 1433.3,-243.65 1422.79,-244.98 1425.91,-251.25"/>
</g>
<!-- Node36 -->
<g id="node34" class="node">
<title>Node36</title>
<g id="a_node34"><a xlink:href="column__numeric_8h.html" target="_top" xlink:title=" ">
<polygon fill="none" stroke="black" points="1178.5,-280.5 1178.5,-299.5 1285.5,-299.5 1285.5,-280.5 1178.5,-280.5"/>
<text text-anchor="middle" x="1232" y="-287.5" font-family="Helvetica,sans-Serif" font-size="10.00">column_numeric.h</text>
</a>
</g>
</g>
<!-- Node3&#45;&gt;Node36 -->
<g id="edge50" class="edge">
<title>Node3&#45;&gt;Node36</title>
<path fill="none" stroke="midnightblue" d="M1028.35,-336.44C1070.47,-327.04 1138.21,-311.93 1183.87,-301.74"/>
<polygon fill="midnightblue" stroke="midnightblue" points="1184.84,-305.11 1193.83,-299.52 1183.31,-298.28 1184.84,-305.11"/>
</g>
<!-- Node38 -->
<g id="node36" class="node">
<title>Node38</title>
<g id="a_node36"><a xlink:href="column__iterator_8h.html" target="_top" xlink:title=" ">
<polygon fill="none" stroke="black" points="1812,-168.5 1812,-187.5 1914,-187.5 1914,-168.5 1812,-168.5"/>
<text text-anchor="middle" x="1863" y="-175.5" font-family="Helvetica,sans-Serif" font-size="10.00">column_iterator.h</text>
</a>
</g>
</g>
<!-- Node3&#45;&gt;Node38 -->
<g id="edge64" class="edge">
<title>Node3&#45;&gt;Node38</title>
<path fill="none" stroke="midnightblue" d="M1050.77,-344.18C1221.51,-341.49 1697.22,-331.26 1760,-300 1805.53,-277.33 1838.9,-224.56 1854.01,-196.8"/>
<polygon fill="midnightblue" stroke="midnightblue" points="1857.19,-198.28 1858.74,-187.8 1850.99,-195.03 1857.19,-198.28"/>
</g>
<!-- Node40 -->
<g id="node38" class="node">
<title>Node40</title>
<g id="a_node38"><a xlink:href="column__builder_8h.html" target="_top" xlink:title=" ">
<polygon fill="none" stroke="black" points="1871,-224.5 1871,-243.5 1971,-243.5 1971,-224.5 1871,-224.5"/>
<text text-anchor="middle" x="1921" y="-231.5" font-family="Helvetica,sans-Serif" font-size="10.00">column_builder.h</text>
</a>
</g>
</g>
<!-- Node3&#45;&gt;Node40 -->
<g id="edge58" class="edge">
<title>Node3&#45;&gt;Node40</title>
<path fill="none" stroke="midnightblue" d="M1050.62,-343.87C1232.24,-340.18 1763.93,-327.16 1837,-300 1864.67,-289.72 1890.58,-266.87 1906.12,-251.2"/>
<polygon fill="midnightblue" stroke="midnightblue" points="1908.85,-253.41 1913.25,-243.77 1903.8,-248.56 1908.85,-253.41"/>
</g>
<!-- Node43 -->
<g id="node41" class="node">
<title>Node43</title>
<g id="a_node41"><a xlink:href="array2d_8h.html" target="_top" xlink:title=" ">
<polygon fill="none" stroke="black" points="958.5,-224.5 958.5,-243.5 1021.5,-243.5 1021.5,-224.5 958.5,-224.5"/>
<text text-anchor="middle" x="990" y="-231.5" font-family="Helvetica,sans-Serif" font-size="10.00">array2d.h</text>
</a>
</g>
</g>
<!-- Node3&#45;&gt;Node43 -->
<g id="edge66" class="edge">
<title>Node3&#45;&gt;Node43</title>
<path fill="none" stroke="midnightblue" d="M990,-336.37C990,-318.62 990,-277.67 990,-253.6"/>
<polygon fill="midnightblue" stroke="midnightblue" points="993.5,-253.59 990,-243.59 986.5,-253.59 993.5,-253.59"/>
</g>
<!-- Node46 -->
<g id="node44" class="node">
<title>Node46</title>
<g id="a_node44"><a xlink:href="univariate__summary_8h.html" target="_top" xlink:title=" ">
<polygon fill="none" stroke="black" points="1041.5,-224.5 1041.5,-243.5 1166.5,-243.5 1166.5,-224.5 1041.5,-224.5"/>
<text text-anchor="middle" x="1104" y="-231.5" font-family="Helvetica,sans-Serif" font-size="10.00">univariate_summary.h</text>
</a>
</g>
</g>
<!-- Node3&#45;&gt;Node46 -->
<g id="edge74" class="edge">
<title>Node3&#45;&gt;Node46</title>
<path fill="none" stroke="midnightblue" d="M998.95,-336.37C1018.09,-317.89 1063.28,-274.29 1087.68,-250.74"/>
<polygon fill="midnightblue" stroke="midnightblue" points="1090.33,-253.05 1095.1,-243.59 1085.47,-248.02 1090.33,-253.05"/>
</g>
<!-- Node5 -->
<g id="node5" class="node">
<title>Node5</title>
<g id="a_node5"><a xlink:title=" ">
<polygon fill="none" stroke="#bfbfbf" points="422,-56.5 422,-75.5 466,-75.5 466,-56.5 422,-56.5"/>
<text text-anchor="middle" x="444" y="-63.5" font-family="Helvetica,sans-Serif" font-size="10.00">string</text>
</a>
</g>
</g>
<!-- Node4&#45;&gt;Node5 -->
<g id="edge4" class="edge">
<title>Node4&#45;&gt;Node5</title>
<path fill="none" stroke="midnightblue" d="M32.61,-280.37C36.83,-259.47 49.74,-205.15 76,-168 98.4,-136.31 107.6,-127.91 143,-112 190.69,-90.57 344.54,-75.38 411.91,-69.59"/>
<polygon fill="midnightblue" stroke="midnightblue" points="412.28,-73.07 421.95,-68.74 411.69,-66.1 412.28,-73.07"/>
</g>
<!-- Node7 -->
<g id="node7" class="node">
<title>Node7</title>
<g id="a_node7"><a xlink:title=" ">
<polygon fill="none" stroke="#bfbfbf" points="1018.5,-112.5 1018.5,-131.5 1065.5,-131.5 1065.5,-112.5 1018.5,-112.5"/>
<text text-anchor="middle" x="1042" y="-119.5" font-family="Helvetica,sans-Serif" font-size="10.00">vector</text>
</a>
</g>
</g>
<!-- Node6&#45;&gt;Node7 -->
<g id="edge6" class="edge">
<title>Node6&#45;&gt;Node7</title>
<path fill="none" stroke="midnightblue" d="M792.45,-280.24C789.07,-258.08 783.62,-199.34 814,-168 840.45,-140.72 951.41,-129.22 1008.2,-125.05"/>
<polygon fill="midnightblue" stroke="midnightblue" points="1008.74,-128.52 1018.47,-124.33 1008.25,-121.54 1008.74,-128.52"/>
</g>
<!-- Node8 -->
<g id="node8" class="node">
<title>Node8</title>
<g id="a_node8"><a xlink:title=" ">
<polygon fill="none" stroke="#bfbfbf" points="1170,-168.5 1170,-187.5 1226,-187.5 1226,-168.5 1170,-168.5"/>
<text text-anchor="middle" x="1198" y="-175.5" font-family="Helvetica,sans-Serif" font-size="10.00">optional</text>
</a>
</g>
</g>
<!-- Node6&#45;&gt;Node8 -->
<g id="edge7" class="edge">
<title>Node6&#45;&gt;Node8</title>
<path fill="none" stroke="midnightblue" d="M830.19,-289.5C915.02,-289.95 1123.46,-286.56 1176,-244 1189.72,-232.89 1194.93,-212.85 1196.88,-197.95"/>
<polygon fill="midnightblue" stroke="midnightblue" points="1200.38,-198.07 1197.83,-187.79 1193.42,-197.43 1200.38,-198.07"/>
</g>
<!-- Node6&#45;&gt;Node9 -->
<g id="edge8" class="edge">
<title>Node6&#45;&gt;Node9</title>
<path fill="none" stroke="midnightblue" d="M783.07,-280.32C772.83,-272.18 757.28,-259.84 745,-250.09"/>
<polygon fill="midnightblue" stroke="midnightblue" points="747.13,-247.31 737.12,-243.83 742.78,-252.79 747.13,-247.31"/>
</g>
<!-- Node6&#45;&gt;Node16 -->
<g id="edge16" class="edge">
<title>Node6&#45;&gt;Node16</title>
<path fill="none" stroke="midnightblue" d="M757.83,-283.27C691.91,-272.83 553.03,-250.84 487.99,-240.54"/>
<polygon fill="midnightblue" stroke="midnightblue" points="488.26,-237.04 477.84,-238.93 487.17,-243.95 488.26,-237.04"/>
</g>
<!-- Node10 -->
<g id="node10" class="node">
<title>Node10</title>
<g id="a_node10"><a xlink:href="forward__type_8h.html" target="_top" xlink:title=" ">
<polygon fill="none" stroke="black" points="613,-56.5 613,-75.5 703,-75.5 703,-56.5 613,-56.5"/>
<text text-anchor="middle" x="658" y="-63.5" font-family="Helvetica,sans-Serif" font-size="10.00">forward_type.h</text>
</a>
</g>
</g>
<!-- Node9&#45;&gt;Node10 -->
<g id="edge9" class="edge">
<title>Node9&#45;&gt;Node10</title>
<path fill="none" stroke="midnightblue" d="M712.72,-224.34C701.57,-216.31 686.18,-203.31 678,-188 660.42,-155.09 657.53,-110.53 657.47,-85.7"/>
<polygon fill="midnightblue" stroke="midnightblue" points="660.97,-85.55 657.6,-75.51 653.97,-85.46 660.97,-85.55"/>
</g>
<!-- Node9&#45;&gt;Node13 -->
<g id="edge12" class="edge">
<title>Node9&#45;&gt;Node13</title>
<path fill="none" stroke="midnightblue" d="M694.22,-230.37C645.68,-225.69 550.64,-213.85 474,-188 455.54,-181.77 453.45,-174.24 435,-168 352.45,-140.09 325.64,-148.04 236.18,-132.15"/>
<polygon fill="midnightblue" stroke="midnightblue" points="236.61,-128.67 226.15,-130.32 235.36,-135.56 236.61,-128.67"/>
</g>
<!-- Node15 -->
<g id="node15" class="node">
<title>Node15</title>
<g id="a_node15"><a xlink:title=" ">
<polygon fill="none" stroke="#bfbfbf" points="686.5,-168.5 686.5,-187.5 765.5,-187.5 765.5,-168.5 686.5,-168.5"/>
<text text-anchor="middle" x="726" y="-175.5" font-family="Helvetica,sans-Serif" font-size="10.00">fmt/format.h</text>
</a>
</g>
</g>
<!-- Node9&#45;&gt;Node15 -->
<g id="edge15" class="edge">
<title>Node9&#45;&gt;Node15</title>
<path fill="none" stroke="midnightblue" d="M726,-224.08C726,-217.01 726,-206.86 726,-197.99"/>
<polygon fill="midnightblue" stroke="midnightblue" points="729.5,-197.75 726,-187.75 722.5,-197.75 729.5,-197.75"/>
</g>
<!-- Node11 -->
<g id="node11" class="node">
<title>Node11</title>
<g id="a_node11"><a xlink:title=" ">
<polygon fill="none" stroke="#bfbfbf" points="584.5,-0.5 584.5,-19.5 653.5,-19.5 653.5,-0.5 584.5,-0.5"/>
<text text-anchor="middle" x="619" y="-7.5" font-family="Helvetica,sans-Serif" font-size="10.00">type_traits</text>
</a>
</g>
</g>
<!-- Node10&#45;&gt;Node11 -->
<g id="edge10" class="edge">
<title>Node10&#45;&gt;Node11</title>
<path fill="none" stroke="midnightblue" d="M651.56,-56.08C646.05,-48.46 637.97,-37.26 631.24,-27.94"/>
<polygon fill="midnightblue" stroke="midnightblue" points="634.01,-25.81 625.32,-19.75 628.34,-29.91 634.01,-25.81"/>
</g>
<!-- Node12 -->
<g id="node12" class="node">
<title>Node12</title>
<g id="a_node12"><a xlink:title=" ">
<polygon fill="none" stroke="#bfbfbf" points="672,-0.5 672,-19.5 722,-19.5 722,-0.5 672,-0.5"/>
<text text-anchor="middle" x="697" y="-7.5" font-family="Helvetica,sans-Serif" font-size="10.00">cstdint</text>
</a>
</g>
</g>
<!-- Node10&#45;&gt;Node12 -->
<g id="edge11" class="edge">
<title>Node10&#45;&gt;Node12</title>
<path fill="none" stroke="midnightblue" d="M664.44,-56.08C669.95,-48.46 678.03,-37.26 684.76,-27.94"/>
<polygon fill="midnightblue" stroke="midnightblue" points="687.66,-29.91 690.68,-19.75 681.99,-25.81 687.66,-29.91"/>
</g>
<!-- Node13&#45;&gt;Node5 -->
<g id="edge13" class="edge">
<title>Node13&#45;&gt;Node5</title>
<path fill="none" stroke="midnightblue" d="M226.08,-113.15C276.16,-102.54 364.6,-83.81 411.95,-73.79"/>
<polygon fill="midnightblue" stroke="midnightblue" points="412.9,-77.16 421.95,-71.67 411.45,-70.32 412.9,-77.16"/>
</g>
<!-- Node14 -->
<g id="node14" class="node">
<title>Node14</title>
<g id="a_node14"><a xlink:title=" ">
<polygon fill="none" stroke="#bfbfbf" points="247.5,-56.5 247.5,-75.5 312.5,-75.5 312.5,-56.5 247.5,-56.5"/>
<text text-anchor="middle" x="280" y="-63.5" font-family="Helvetica,sans-Serif" font-size="10.00">functional</text>
</a>
</g>
</g>
<!-- Node13&#45;&gt;Node14 -->
<g id="edge14" class="edge">
<title>Node13&#45;&gt;Node14</title>
<path fill="none" stroke="midnightblue" d="M203.62,-112.32C217.95,-103.82 240.01,-90.73 256.75,-80.8"/>
<polygon fill="midnightblue" stroke="midnightblue" points="258.6,-83.77 265.42,-75.65 255.03,-77.75 258.6,-83.77"/>
</g>
<!-- Node17 -->
<g id="node17" class="node">
<title>Node17</title>
<g id="a_node17"><a xlink:href="country_8h.html" target="_top" xlink:title=" ">
<polygon fill="none" stroke="black" points="330.5,-112.5 330.5,-131.5 391.5,-131.5 391.5,-112.5 330.5,-112.5"/>
<text text-anchor="middle" x="361" y="-119.5" font-family="Helvetica,sans-Serif" font-size="10.00">country.h</text>
</a>
</g>
</g>
<!-- Node16&#45;&gt;Node17 -->
<g id="edge17" class="edge">
<title>Node16&#45;&gt;Node17</title>
<path fill="none" stroke="midnightblue" d="M428.08,-230.1C403.04,-225.72 365.69,-214.82 348,-188 338.72,-173.93 344.31,-154.68 350.8,-140.79"/>
<polygon fill="midnightblue" stroke="midnightblue" points="353.98,-142.26 355.48,-131.77 347.77,-139.04 353.98,-142.26"/>
</g>
<!-- Node18 -->
<g id="node18" class="node">
<title>Node18</title>
<g id="a_node18"><a xlink:href="population__item_8h.html" target="_top" xlink:title=" ">
<polygon fill="none" stroke="red" points="194.5,-168.5 194.5,-187.5 299.5,-187.5 299.5,-168.5 194.5,-168.5"/>
<text text-anchor="middle" x="247" y="-175.5" font-family="Helvetica,sans-Serif" font-size="10.00">population_item.h</text>
</a>
</g>
</g>
<!-- Node16&#45;&gt;Node18 -->
<g id="edge19" class="edge">
<title>Node16&#45;&gt;Node18</title>
<path fill="none" stroke="midnightblue" d="M428.15,-226.49C393.85,-217.49 331.49,-201.15 289.65,-190.18"/>
<polygon fill="midnightblue" stroke="midnightblue" points="290.31,-186.73 279.75,-187.58 288.53,-193.51 290.31,-186.73"/>
</g>
<!-- Node20 -->
<g id="node19" class="node">
<title>Node20</title>
<g id="a_node19"><a xlink:href="HealthGPS_8Core_2disease_8h.html" target="_top" xlink:title=" ">
<polygon fill="none" stroke="red" points="482.5,-168.5 482.5,-187.5 545.5,-187.5 545.5,-168.5 482.5,-168.5"/>
<text text-anchor="middle" x="514" y="-175.5" font-family="Helvetica,sans-Serif" font-size="10.00">disease.h</text>
</a>
</g>
</g>
<!-- Node16&#45;&gt;Node20 -->
<g id="edge20" class="edge">
<title>Node16&#45;&gt;Node20</title>
<path fill="none" stroke="midnightblue" d="M462.8,-224.32C471.82,-216.34 485.41,-204.31 496.32,-194.65"/>
<polygon fill="midnightblue" stroke="midnightblue" points="498.85,-197.08 504.02,-187.83 494.21,-191.84 498.85,-197.08"/>
</g>
<!-- Node24 -->
<g id="node22" class="node">
<title>Node24</title>
<g id="a_node22"><a xlink:href="analysis_8h.html" target="_top" xlink:title=" ">
<polygon fill="none" stroke="red" points="564,-168.5 564,-187.5 630,-187.5 630,-168.5 564,-168.5"/>
<text text-anchor="middle" x="597" y="-175.5" font-family="Helvetica,sans-Serif" font-size="10.00">analysis.h</text>
</a>
</g>
</g>
<!-- Node16&#45;&gt;Node24 -->
<g id="edge28" class="edge">
<title>Node16&#45;&gt;Node24</title>
<path fill="none" stroke="midnightblue" d="M475.82,-224.44C499.83,-215.44 537.83,-201.19 564.87,-191.05"/>
<polygon fill="midnightblue" stroke="midnightblue" points="566.16,-194.3 574.29,-187.52 563.7,-187.75 566.16,-194.3"/>
</g>
<!-- Node25 -->
<g id="node23" class="node">
<title>Node25</title>
<g id="a_node23"><a xlink:href="indicator_8h.html" target="_top" xlink:title=" ">
<polygon fill="none" stroke="black" points="244,-112.5 244,-131.5 312,-131.5 312,-112.5 244,-112.5"/>
<text text-anchor="middle" x="278" y="-119.5" font-family="Helvetica,sans-Serif" font-size="10.00">indicator.h</text>
</a>
</g>
</g>
<!-- Node16&#45;&gt;Node25 -->
<g id="edge32" class="edge">
<title>Node16&#45;&gt;Node25</title>
<path fill="none" stroke="midnightblue" d="M428.26,-232.72C368.12,-231.45 216.96,-224.61 186,-188 166.52,-164.96 203.93,-146.09 236.73,-134.72"/>
<polygon fill="midnightblue" stroke="midnightblue" points="237.86,-138.04 246.26,-131.58 235.66,-131.39 237.86,-138.04"/>
</g>
<!-- Node26 -->
<g id="node24" class="node">
<title>Node26</title>
<g id="a_node24"><a xlink:href="mortality_8h.html" target="_top" xlink:title=" ">
<polygon fill="none" stroke="red" points="356.5,-168.5 356.5,-187.5 425.5,-187.5 425.5,-168.5 356.5,-168.5"/>
<text text-anchor="middle" x="391" y="-175.5" font-family="Helvetica,sans-Serif" font-size="10.00">mortality.h</text>
</a>
</g>
</g>
<!-- Node16&#45;&gt;Node26 -->
<g id="edge34" class="edge">
<title>Node16&#45;&gt;Node26</title>
<path fill="none" stroke="midnightblue" d="M443.04,-224.32C433.87,-216.34 420.06,-204.31 408.97,-194.65"/>
<polygon fill="midnightblue" stroke="midnightblue" points="410.98,-191.76 401.14,-187.83 406.38,-197.04 410.98,-191.76"/>
</g>
<!-- Node17&#45;&gt;Node5 -->
<g id="edge18" class="edge">
<title>Node17&#45;&gt;Node5</title>
<path fill="none" stroke="midnightblue" d="M374.34,-112.32C387.16,-103.98 406.78,-91.21 421.94,-81.35"/>
<polygon fill="midnightblue" stroke="midnightblue" points="424.22,-84.04 430.7,-75.65 420.41,-78.17 424.22,-84.04"/>
</g>
<!-- Node20&#45;&gt;Node5 -->
<g id="edge21" class="edge">
<title>Node20&#45;&gt;Node5</title>
<path fill="none" stroke="midnightblue" d="M511.45,-168.09C507.49,-155.07 499.02,-130.42 487,-112 480.02,-101.3 470.32,-90.89 461.89,-82.78"/>
<polygon fill="midnightblue" stroke="midnightblue" points="464.05,-80.01 454.34,-75.77 459.29,-85.14 464.05,-80.01"/>
</g>
<!-- Node20&#45;&gt;Node7 -->
<g id="edge22" class="edge">
<title>Node20&#45;&gt;Node7</title>
<path fill="none" stroke="midnightblue" d="M545.71,-169.63C548.84,-169.03 551.98,-168.47 555,-168 723.88,-141.77 928.26,-128.97 1007.91,-124.69"/>
<polygon fill="midnightblue" stroke="midnightblue" points="1008.5,-128.17 1018.31,-124.15 1008.14,-121.18 1008.5,-128.17"/>
</g>
<!-- Node20&#45;&gt;Node10 -->
<g id="edge23" class="edge">
<title>Node20&#45;&gt;Node10</title>
<path fill="none" stroke="midnightblue" d="M525.3,-168.37C549.8,-149.65 608.06,-105.15 638.58,-81.83"/>
<polygon fill="midnightblue" stroke="midnightblue" points="640.93,-84.44 646.75,-75.59 636.68,-78.88 640.93,-84.44"/>
</g>
<!-- Node20&#45;&gt;Node22 -->
<g id="edge24" class="edge">
<title>Node20&#45;&gt;Node22</title>
<path fill="none" stroke="midnightblue" d="M502.75,-168.32C492.2,-160.18 476.2,-147.84 463.56,-138.09"/>
<polygon fill="midnightblue" stroke="midnightblue" points="465.51,-135.17 455.45,-131.83 461.23,-140.71 465.51,-135.17"/>
</g>
<!-- Node22&#45;&gt;Node5 -->
<g id="edge25" class="edge">
<title>Node22&#45;&gt;Node5</title>
<path fill="none" stroke="midnightblue" d="M444,-112.08C444,-105.01 444,-94.86 444,-85.99"/>
<polygon fill="midnightblue" stroke="midnightblue" points="447.5,-85.75 444,-75.75 440.5,-85.75 447.5,-85.75"/>
</g>
<!-- Node22&#45;&gt;Node14 -->
<g id="edge27" class="edge">
<title>Node22&#45;&gt;Node14</title>
<path fill="none" stroke="midnightblue" d="M418.01,-112.44C390.3,-103.32 346.25,-88.81 315.38,-78.65"/>
<polygon fill="midnightblue" stroke="midnightblue" points="316.46,-75.32 305.86,-75.52 314.27,-81.97 316.46,-75.32"/>
</g>
<!-- Node23 -->
<g id="node21" class="node">
<title>Node23</title>
<g id="a_node21"><a xlink:title=" ">
<polygon fill="none" stroke="#bfbfbf" points="1141.5,-56.5 1141.5,-75.5 1198.5,-75.5 1198.5,-56.5 1141.5,-56.5"/>
<text text-anchor="middle" x="1170" y="-63.5" font-family="Helvetica,sans-Serif" font-size="10.00">ostream</text>
</a>
</g>
</g>
<!-- Node22&#45;&gt;Node23 -->
<g id="edge26" class="edge">
<title>Node22&#45;&gt;Node23</title>
<path fill="none" stroke="midnightblue" d="M478.04,-118.47C598.43,-109.51 1003.64,-79.37 1131.21,-69.89"/>
<polygon fill="midnightblue" stroke="midnightblue" points="1131.58,-73.37 1141.29,-69.14 1131.06,-66.39 1131.58,-73.37"/>
</g>
<!-- Node24&#45;&gt;Node5 -->
<g id="edge30" class="edge">
<title>Node24&#45;&gt;Node5</title>
<path fill="none" stroke="midnightblue" d="M584.99,-168.37C558.85,-149.57 496.53,-104.77 464.21,-81.53"/>
<polygon fill="midnightblue" stroke="midnightblue" points="466.11,-78.59 455.95,-75.59 462.03,-84.27 466.11,-78.59"/>
</g>
<!-- Node24&#45;&gt;Node7 -->
<g id="edge29" class="edge">
<title>Node24&#45;&gt;Node7</title>
<path fill="none" stroke="midnightblue" d="M630.08,-172.99C712.29,-163.01 925.16,-137.18 1008.16,-127.11"/>
<polygon fill="midnightblue" stroke="midnightblue" points="1008.8,-130.55 1018.3,-125.88 1007.95,-123.61 1008.8,-130.55"/>
</g>
<!-- Node24&#45;&gt;Node10 -->
<g id="edge31" class="edge">
<title>Node24&#45;&gt;Node10</title>
<path fill="none" stroke="midnightblue" d="M601.79,-168.37C611.76,-150.38 634.96,-108.55 648.23,-84.63"/>
<polygon fill="midnightblue" stroke="midnightblue" points="651.45,-86.03 653.24,-75.59 645.33,-82.64 651.45,-86.03"/>
</g>
<!-- Node25&#45;&gt;Node5 -->
<g id="edge33" class="edge">
<title>Node25&#45;&gt;Node5</title>
<path fill="none" stroke="midnightblue" d="M304.3,-112.44C333.59,-102.92 380.91,-87.52 412.24,-77.33"/>
<polygon fill="midnightblue" stroke="midnightblue" points="413.38,-80.64 421.8,-74.22 411.21,-73.99 413.38,-80.64"/>
</g>
<!-- Node27&#45;&gt;Node10 -->
<g id="edge36" class="edge">
<title>Node27&#45;&gt;Node10</title>
<path fill="none" stroke="midnightblue" d="M1699.83,-113.55C1696.86,-112.94 1693.88,-112.41 1691,-112 1499.56,-84.81 898.81,-71.52 713.19,-67.98"/>
<polygon fill="midnightblue" stroke="midnightblue" points="713.18,-64.48 703.11,-67.79 713.05,-71.48 713.18,-64.48"/>
</g>
<!-- Node28&#45;&gt;Node7 -->
<g id="edge40" class="edge">
<title>Node28&#45;&gt;Node7</title>
<path fill="none" stroke="midnightblue" d="M1450.27,-224.24C1450.17,-210.02 1447.72,-182.1 1431,-168 1377.47,-122.87 1187.54,-140.12 1118,-132 1104.15,-130.38 1088.88,-128.58 1075.69,-127.01"/>
<polygon fill="midnightblue" stroke="midnightblue" points="1075.96,-123.52 1065.62,-125.82 1075.14,-130.47 1075.96,-123.52"/>
</g>
<!-- Node28&#45;&gt;Node8 -->
<g id="edge43" class="edge">
<title>Node28&#45;&gt;Node8</title>
<path fill="none" stroke="midnightblue" d="M1413.89,-225.26C1366.73,-215.16 1284.5,-197.53 1236.28,-187.2"/>
<polygon fill="midnightblue" stroke="midnightblue" points="1236.75,-183.73 1226.24,-185.05 1235.29,-190.57 1236.75,-183.73"/>
</g>
<!-- Node28&#45;&gt;Node23 -->
<g id="edge44" class="edge">
<title>Node28&#45;&gt;Node23</title>
<path fill="none" stroke="midnightblue" d="M1486.02,-231.36C1584.99,-225.67 1848.35,-201.89 1765,-112 1727.23,-71.26 1335.03,-67.2 1208.86,-66.95"/>
<polygon fill="midnightblue" stroke="midnightblue" points="1208.53,-63.45 1198.53,-66.94 1208.52,-70.45 1208.53,-63.45"/>
</g>
<!-- Node29 -->
<g id="node27" class="node">
<title>Node29</title>
<g id="a_node27"><a xlink:title=" ">
<polygon fill="none" stroke="#bfbfbf" points="1364,-168.5 1364,-187.5 1422,-187.5 1422,-168.5 1364,-168.5"/>
<text text-anchor="middle" x="1393" y="-175.5" font-family="Helvetica,sans-Serif" font-size="10.00">memory</text>
</a>
</g>
</g>
<!-- Node28&#45;&gt;Node29 -->
<g id="edge38" class="edge">
<title>Node28&#45;&gt;Node29</title>
<path fill="none" stroke="midnightblue" d="M1440.84,-224.32C1432.5,-216.42 1419.97,-204.55 1409.82,-194.94"/>
<polygon fill="midnightblue" stroke="midnightblue" points="1411.99,-192.17 1402.32,-187.83 1407.18,-197.25 1411.99,-192.17"/>
</g>
<!-- Node30 -->
<g id="node28" class="node">
<title>Node30</title>
<g id="a_node28"><a xlink:title=" ">
<polygon fill="none" stroke="#bfbfbf" points="1478,-168.5 1478,-187.5 1526,-187.5 1526,-168.5 1478,-168.5"/>
<text text-anchor="middle" x="1502" y="-175.5" font-family="Helvetica,sans-Serif" font-size="10.00">mutex</text>
</a>
</g>
</g>
<!-- Node28&#45;&gt;Node30 -->
<g id="edge39" class="edge">
<title>Node28&#45;&gt;Node30</title>
<path fill="none" stroke="midnightblue" d="M1458.59,-224.08C1466.16,-216.22 1477.38,-204.57 1486.51,-195.08"/>
<polygon fill="midnightblue" stroke="midnightblue" points="1489.16,-197.38 1493.57,-187.75 1484.12,-192.53 1489.16,-197.38"/>
</g>
<!-- Node31 -->
<g id="node29" class="node">
<title>Node31</title>
<g id="a_node29"><a xlink:title=" ">
<polygon fill="none" stroke="#bfbfbf" points="1544.5,-168.5 1544.5,-187.5 1637.5,-187.5 1637.5,-168.5 1544.5,-168.5"/>
<text text-anchor="middle" x="1591" y="-175.5" font-family="Helvetica,sans-Serif" font-size="10.00">unordered_map</text>
</a>
</g>
</g>
<!-- Node28&#45;&gt;Node31 -->
<g id="edge41" class="edge">
<title>Node28&#45;&gt;Node31</title>
<path fill="none" stroke="midnightblue" d="M1472.34,-224.44C1495.75,-215.48 1532.74,-201.31 1559.19,-191.18"/>
<polygon fill="midnightblue" stroke="midnightblue" points="1560.68,-194.36 1568.76,-187.52 1558.17,-187.82 1560.68,-194.36"/>
</g>
<!-- Node32 -->
<g id="node30" class="node">
<title>Node32</title>
<g id="a_node30"><a xlink:title=" ">
<polygon fill="none" stroke="#bfbfbf" points="1282,-168.5 1282,-187.5 1346,-187.5 1346,-168.5 1282,-168.5"/>
<text text-anchor="middle" x="1314" y="-175.5" font-family="Helvetica,sans-Serif" font-size="10.00">algorithm</text>
</a>
</g>
</g>
<!-- Node28&#45;&gt;Node32 -->
<g id="edge42" class="edge">
<title>Node28&#45;&gt;Node32</title>
<path fill="none" stroke="midnightblue" d="M1428.45,-224.44C1405.97,-215.52 1370.51,-201.44 1345.02,-191.32"/>
<polygon fill="midnightblue" stroke="midnightblue" points="1346.03,-187.95 1335.45,-187.52 1343.45,-194.46 1346.03,-187.95"/>
</g>
<!-- Node33 -->
<g id="node31" class="node">
<title>Node33</title>
<g id="a_node31"><a xlink:href="column_8h.html" target="_top" xlink:title=" ">
<polygon fill="none" stroke="black" points="1656,-168.5 1656,-187.5 1718,-187.5 1718,-168.5 1656,-168.5"/>
<text text-anchor="middle" x="1687" y="-175.5" font-family="Helvetica,sans-Serif" font-size="10.00">column.h</text>
</a>
</g>
</g>
<!-- Node28&#45;&gt;Node33 -->
<g id="edge45" class="edge">
<title>Node28&#45;&gt;Node33</title>
<path fill="none" stroke="midnightblue" d="M1486.25,-224.74C1529.2,-214.95 1600.59,-198.69 1645.65,-188.42"/>
<polygon fill="midnightblue" stroke="midnightblue" points="1646.7,-191.77 1655.67,-186.14 1645.15,-184.95 1646.7,-191.77"/>
</g>
<!-- Node33&#45;&gt;Node5 -->
<g id="edge48" class="edge">
<title>Node33&#45;&gt;Node5</title>
<path fill="none" stroke="midnightblue" d="M1655.63,-169.57C1652.72,-169 1649.81,-168.46 1647,-168 1409.32,-129.05 1347.96,-132.59 1108,-112 865.52,-91.19 572.55,-74.16 476.32,-68.78"/>
<polygon fill="midnightblue" stroke="midnightblue" points="476.27,-65.27 466.09,-68.21 475.88,-72.26 476.27,-65.27"/>
</g>
<!-- Node33&#45;&gt;Node27 -->
<g id="edge49" class="edge">
<title>Node33&#45;&gt;Node27</title>
<path fill="none" stroke="midnightblue" d="M1693.77,-168.08C1699.56,-160.46 1708.06,-149.26 1715.14,-139.94"/>
<polygon fill="midnightblue" stroke="midnightblue" points="1718.1,-141.83 1721.36,-131.75 1712.52,-137.6 1718.1,-141.83"/>
</g>
<!-- Node34 -->
<g id="node32" class="node">
<title>Node34</title>
<g id="a_node32"><a xlink:title=" ">
<polygon fill="none" stroke="#bfbfbf" points="1571.5,-112.5 1571.5,-131.5 1606.5,-131.5 1606.5,-112.5 1571.5,-112.5"/>
<text text-anchor="middle" x="1589" y="-119.5" font-family="Helvetica,sans-Serif" font-size="10.00">any</text>
</a>
</g>
</g>
<!-- Node33&#45;&gt;Node34 -->
<g id="edge46" class="edge">
<title>Node33&#45;&gt;Node34</title>
<path fill="none" stroke="midnightblue" d="M1671.25,-168.32C1655.68,-159.74 1631.62,-146.49 1613.54,-136.52"/>
<polygon fill="midnightblue" stroke="midnightblue" points="1615.15,-133.42 1604.71,-131.65 1611.78,-139.55 1615.15,-133.42"/>
</g>
<!-- Node35 -->
<g id="node33" class="node">
<title>Node35</title>
<g id="a_node33"><a xlink:title=" ">
<polygon fill="none" stroke="#bfbfbf" points="1624.5,-112.5 1624.5,-131.5 1681.5,-131.5 1681.5,-112.5 1624.5,-112.5"/>
<text text-anchor="middle" x="1653" y="-119.5" font-family="Helvetica,sans-Serif" font-size="10.00">typeinfo</text>
</a>
</g>
</g>
<!-- Node33&#45;&gt;Node35 -->
<g id="edge47" class="edge">
<title>Node33&#45;&gt;Node35</title>
<path fill="none" stroke="midnightblue" d="M1681.39,-168.08C1676.63,-160.53 1669.68,-149.49 1663.85,-140.23"/>
<polygon fill="midnightblue" stroke="midnightblue" points="1666.8,-138.35 1658.51,-131.75 1660.88,-142.08 1666.8,-138.35"/>
</g>
<!-- Node37 -->
<g id="node35" class="node">
<title>Node37</title>
<g id="a_node35"><a xlink:href="column__primitive_8h.html" target="_top" xlink:title=" ">
<polygon fill="none" stroke="black" points="1241.5,-224.5 1241.5,-243.5 1352.5,-243.5 1352.5,-224.5 1241.5,-224.5"/>
<text text-anchor="middle" x="1297" y="-231.5" font-family="Helvetica,sans-Serif" font-size="10.00">column_primitive.h</text>
</a>
</g>
</g>
<!-- Node36&#45;&gt;Node37 -->
<g id="edge51" class="edge">
<title>Node36&#45;&gt;Node37</title>
<path fill="none" stroke="midnightblue" d="M1242.44,-280.32C1252.15,-272.26 1266.82,-260.08 1278.5,-250.37"/>
<polygon fill="midnightblue" stroke="midnightblue" points="1280.91,-252.92 1286.37,-243.83 1276.44,-247.53 1280.91,-252.92"/>
</g>
<!-- Node37&#45;&gt;Node7 -->
<g id="edge53" class="edge">
<title>Node37&#45;&gt;Node7</title>
<path fill="none" stroke="midnightblue" d="M1291.28,-224.31C1281.5,-210.18 1260.19,-182.39 1235,-168 1208.07,-152.62 1123.36,-136.58 1075.6,-128.45"/>
<polygon fill="midnightblue" stroke="midnightblue" points="1076.17,-124.99 1065.73,-126.78 1075.01,-131.89 1076.17,-124.99"/>
</g>
<!-- Node37&#45;&gt;Node8 -->
<g id="edge54" class="edge">
<title>Node37&#45;&gt;Node8</title>
<path fill="none" stroke="midnightblue" d="M1281.09,-224.32C1265.36,-215.74 1241.06,-202.49 1222.79,-192.52"/>
<polygon fill="midnightblue" stroke="midnightblue" points="1224.32,-189.37 1213.87,-187.65 1220.97,-195.52 1224.32,-189.37"/>
</g>
<!-- Node37&#45;&gt;Node32 -->
<g id="edge52" class="edge">
<title>Node37&#45;&gt;Node32</title>
<path fill="none" stroke="midnightblue" d="M1299.81,-224.08C1302.08,-216.85 1305.37,-206.41 1308.21,-197.4"/>
<polygon fill="midnightblue" stroke="midnightblue" points="1311.58,-198.34 1311.25,-187.75 1304.9,-196.24 1311.58,-198.34"/>
</g>
<!-- Node37&#45;&gt;Node33 -->
<g id="edge55" class="edge">
<title>Node37&#45;&gt;Node33</title>
<path fill="none" stroke="midnightblue" d="M1352.71,-227.46C1419.94,-220.42 1536.59,-207.04 1645.75,-188.08"/>
<polygon fill="midnightblue" stroke="midnightblue" points="1646.37,-191.53 1655.61,-186.35 1645.16,-184.64 1646.37,-191.53"/>
</g>
<!-- Node37&#45;&gt;Node38 -->
<g id="edge56" class="edge">
<title>Node37&#45;&gt;Node38</title>
<path fill="none" stroke="midnightblue" d="M1352.56,-227.7C1458.98,-217.55 1690.82,-195.43 1801.63,-184.86"/>
<polygon fill="midnightblue" stroke="midnightblue" points="1802.02,-188.33 1811.65,-183.9 1801.36,-181.37 1802.02,-188.33"/>
</g>
<!-- Node39 -->
<g id="node37" class="node">
<title>Node39</title>
<g id="a_node37"><a xlink:title=" ">
<polygon fill="none" stroke="#bfbfbf" points="1836.5,-112.5 1836.5,-131.5 1889.5,-131.5 1889.5,-112.5 1836.5,-112.5"/>
<text text-anchor="middle" x="1863" y="-119.5" font-family="Helvetica,sans-Serif" font-size="10.00">iterator</text>
</a>
</g>
</g>
<!-- Node38&#45;&gt;Node39 -->
<g id="edge57" class="edge">
<title>Node38&#45;&gt;Node39</title>
<path fill="none" stroke="midnightblue" d="M1863,-168.08C1863,-161.01 1863,-150.86 1863,-141.99"/>
<polygon fill="midnightblue" stroke="midnightblue" points="1866.5,-141.75 1863,-131.75 1859.5,-141.75 1866.5,-141.75"/>
</g>
<!-- Node40&#45;&gt;Node7 -->
<g id="edge61" class="edge">
<title>Node40&#45;&gt;Node7</title>
<path fill="none" stroke="midnightblue" d="M1924.61,-224.49C1929.85,-210.64 1937.47,-183.22 1923,-168 1893.29,-136.73 1233.37,-125.64 1075.64,-123.44"/>
<polygon fill="midnightblue" stroke="midnightblue" points="1075.62,-119.94 1065.58,-123.3 1075.53,-126.94 1075.62,-119.94"/>
</g>
<!-- Node40&#45;&gt;Node29 -->
<g id="edge59" class="edge">
<title>Node40&#45;&gt;Node29</title>
<path fill="none" stroke="midnightblue" d="M1870.8,-228.31C1787.35,-220.45 1614.82,-203.89 1469,-188 1457.05,-186.7 1444.05,-185.19 1432.24,-183.79"/>
<polygon fill="midnightblue" stroke="midnightblue" points="1432.56,-180.3 1422.22,-182.59 1431.73,-187.25 1432.56,-180.3"/>
</g>
<!-- Node40&#45;&gt;Node33 -->
<g id="edge63" class="edge">
<title>Node40&#45;&gt;Node33</title>
<path fill="none" stroke="midnightblue" d="M1883.92,-224.44C1841.48,-214.65 1772.16,-198.65 1728.1,-188.48"/>
<polygon fill="midnightblue" stroke="midnightblue" points="1728.82,-185.06 1718.29,-186.22 1727.24,-191.88 1728.82,-185.06"/>
</g>
<!-- Node41 -->
<g id="node39" class="node">
<title>Node41</title>
<g id="a_node39"><a xlink:title=" ">
<polygon fill="none" stroke="#bfbfbf" points="2054,-168.5 2054,-187.5 2098,-187.5 2098,-168.5 2054,-168.5"/>
<text text-anchor="middle" x="2076" y="-175.5" font-family="Helvetica,sans-Serif" font-size="10.00">limits</text>
</a>
</g>
</g>
<!-- Node40&#45;&gt;Node41 -->
<g id="edge60" class="edge">
<title>Node40&#45;&gt;Node41</title>
<path fill="none" stroke="midnightblue" d="M1945.56,-224.44C1972.13,-215.19 2014.61,-200.39 2043.83,-190.21"/>
<polygon fill="midnightblue" stroke="midnightblue" points="2045.28,-193.41 2053.57,-186.82 2042.97,-186.8 2045.28,-193.41"/>
</g>
<!-- Node42 -->
<g id="node40" class="node">
<title>Node42</title>
<g id="a_node40"><a xlink:title=" ">
<polygon fill="none" stroke="#bfbfbf" points="1970.5,-168.5 1970.5,-187.5 2035.5,-187.5 2035.5,-168.5 1970.5,-168.5"/>
<text text-anchor="middle" x="2003" y="-175.5" font-family="Helvetica,sans-Serif" font-size="10.00">exception</text>
</a>
</g>
</g>
<!-- Node40&#45;&gt;Node42 -->
<g id="edge62" class="edge">
<title>Node40&#45;&gt;Node42</title>
<path fill="none" stroke="midnightblue" d="M1934.17,-224.32C1946.85,-215.98 1966.23,-203.21 1981.21,-193.35"/>
<polygon fill="midnightblue" stroke="midnightblue" points="1983.43,-196.08 1989.86,-187.65 1979.58,-190.23 1983.43,-196.08"/>
</g>
<!-- Node43&#45;&gt;Node7 -->
<g id="edge69" class="edge">
<title>Node43&#45;&gt;Node7</title>
<path fill="none" stroke="midnightblue" d="M994.08,-224.37C1002.55,-206.46 1022.18,-164.92 1033.52,-140.95"/>
<polygon fill="midnightblue" stroke="midnightblue" points="1036.83,-142.13 1037.94,-131.59 1030.5,-139.14 1036.83,-142.13"/>
</g>
<!-- Node43&#45;&gt;Node10 -->
<g id="edge67" class="edge">
<title>Node43&#45;&gt;Node10</title>
<path fill="none" stroke="midnightblue" d="M989.92,-224.15C989.3,-210.3 986.08,-183.51 971,-168 902.08,-97.14 783.24,-75.93 713.51,-69.62"/>
<polygon fill="midnightblue" stroke="midnightblue" points="713.43,-66.1 703.18,-68.76 712.85,-73.08 713.43,-66.1"/>
</g>
<!-- Node43&#45;&gt;Node15 -->
<g id="edge73" class="edge">
<title>Node43&#45;&gt;Node15</title>
<path fill="none" stroke="midnightblue" d="M958.42,-226.54C913.16,-217.28 829.41,-200.15 775.77,-189.18"/>
<polygon fill="midnightblue" stroke="midnightblue" points="776.29,-185.71 765.79,-187.14 774.89,-192.57 776.29,-185.71"/>
</g>
<!-- Node43&#45;&gt;Node29 -->
<g id="edge68" class="edge">
<title>Node43&#45;&gt;Node29</title>
<path fill="none" stroke="midnightblue" d="M1021.87,-225.98C1025.61,-225.26 1029.39,-224.58 1033,-224 1172,-201.74 1211.36,-212.14 1353.64,-188.05"/>
<polygon fill="midnightblue" stroke="midnightblue" points="1354.35,-191.48 1363.61,-186.33 1353.17,-184.58 1354.35,-191.48"/>
</g>
<!-- Node43&#45;&gt;Node32 -->
<g id="edge70" class="edge">
<title>Node43&#45;&gt;Node32</title>
<path fill="none" stroke="midnightblue" d="M1021.9,-226.15C1025.64,-225.4 1029.4,-224.66 1033,-224 1117.44,-208.41 1216.74,-193.25 1271.81,-185.12"/>
<polygon fill="midnightblue" stroke="midnightblue" points="1272.5,-188.55 1281.89,-183.64 1271.48,-181.63 1272.5,-188.55"/>
</g>
<!-- Node44 -->
<g id="node42" class="node">
<title>Node44</title>
<g id="a_node42"><a xlink:title=" ">
<polygon fill="none" stroke="#bfbfbf" points="822.5,-168.5 822.5,-187.5 887.5,-187.5 887.5,-168.5 822.5,-168.5"/>
<text text-anchor="middle" x="855" y="-175.5" font-family="Helvetica,sans-Serif" font-size="10.00">stdexcept</text>
</a>
</g>
</g>
<!-- Node43&#45;&gt;Node44 -->
<g id="edge71" class="edge">
<title>Node43&#45;&gt;Node44</title>
<path fill="none" stroke="midnightblue" d="M968.61,-224.44C946.29,-215.52 911.1,-201.44 885.79,-191.32"/>
<polygon fill="midnightblue" stroke="midnightblue" points="886.88,-187.98 876.29,-187.52 884.28,-194.48 886.88,-187.98"/>
</g>
<!-- Node45 -->
<g id="node43" class="node">
<title>Node45</title>
<g id="a_node43"><a xlink:title=" ">
<polygon fill="none" stroke="#bfbfbf" points="906,-168.5 906,-187.5 962,-187.5 962,-168.5 906,-168.5"/>
<text text-anchor="middle" x="934" y="-175.5" font-family="Helvetica,sans-Serif" font-size="10.00">sstream</text>
</a>
</g>
</g>
<!-- Node43&#45;&gt;Node45 -->
<g id="edge72" class="edge">
<title>Node43&#45;&gt;Node45</title>
<path fill="none" stroke="midnightblue" d="M981,-224.32C972.81,-216.42 960.49,-204.55 950.53,-194.94"/>
<polygon fill="midnightblue" stroke="midnightblue" points="952.79,-192.26 943.16,-187.83 947.93,-197.29 952.79,-192.26"/>
</g>
<!-- Node46&#45;&gt;Node5 -->
<g id="edge75" class="edge">
<title>Node46&#45;&gt;Node5</title>
<path fill="none" stroke="midnightblue" d="M1105,-224.25C1107.04,-201.59 1108.94,-140.78 1075,-112 1063.45,-102.21 603.37,-75.88 476.25,-68.78"/>
<polygon fill="midnightblue" stroke="midnightblue" points="476.18,-65.28 466,-68.21 475.79,-72.26 476.18,-65.28"/>
</g>
<!-- Node46&#45;&gt;Node7 -->
<g id="edge76" class="edge">
<title>Node46&#45;&gt;Node7</title>
<path fill="none" stroke="midnightblue" d="M1099.13,-224.37C1088.95,-206.3 1065.21,-164.18 1051.76,-140.31"/>
<polygon fill="midnightblue" stroke="midnightblue" points="1054.8,-138.58 1046.84,-131.59 1048.7,-142.02 1054.8,-138.58"/>
</g>
<!-- Node46&#45;&gt;Node8 -->
<g id="edge78" class="edge">
<title>Node46&#45;&gt;Node8</title>
<path fill="none" stroke="midnightblue" d="M1119.1,-224.32C1133.9,-215.82 1156.69,-202.73 1173.98,-192.8"/>
<polygon fill="midnightblue" stroke="midnightblue" points="1176.01,-195.67 1182.93,-187.65 1172.52,-189.6 1176.01,-195.67"/>
</g>
<!-- Node46&#45;&gt;Node23 -->
<g id="edge77" class="edge">
<title>Node46&#45;&gt;Node23</title>
<path fill="none" stroke="midnightblue" d="M1107.55,-224.08C1117.98,-197.83 1148.71,-120.55 1162.8,-85.12"/>
<polygon fill="midnightblue" stroke="midnightblue" points="1166.15,-86.15 1166.59,-75.57 1159.65,-83.57 1166.15,-86.15"/>
</g>
</g>
</svg>
