<?xml version="1.0" encoding="UTF-8" standalone="no"?>
<!DOCTYPE svg PUBLIC "-//W3C//DTD SVG 1.1//EN"
 "http://www.w3.org/Graphics/SVG/1.1/DTD/svg11.dtd">
<!-- Generated by graphviz version 2.43.0 (0)
 -->
<!-- Title: HealthGPS/data_series.cpp Pages: 1 -->
<svg width="564pt" height="218pt"
 viewBox="0.00 0.00 563.50 218.00" xmlns="http://www.w3.org/2000/svg" xmlns:xlink="http://www.w3.org/1999/xlink">
<g id="graph0" class="graph" transform="scale(1 1) rotate(0) translate(4 214)">
<title>HealthGPS/data_series.cpp</title>
<!-- Node1 -->
<g id="node1" class="node">
<title>Node1</title>
<g id="a_node1"><a xlink:title=" ">
<polygon fill="#bfbfbf" stroke="black" points="308,-190.5 308,-209.5 456,-209.5 456,-190.5 308,-190.5"/>
<text text-anchor="middle" x="382" y="-197.5" font-family="Helvetica,sans-Serif" font-size="10.00">HealthGPS/data_series.cpp</text>
</a>
</g>
</g>
<!-- Node2 -->
<g id="node2" class="node">
<title>Node2</title>
<g id="a_node2"><a xlink:href="data__series_8h.html" target="_top" xlink:title=" ">
<polygon fill="none" stroke="black" points="162,-129 162,-148 244,-148 244,-129 162,-129"/>
<text text-anchor="middle" x="203" y="-136" font-family="Helvetica,sans-Serif" font-size="10.00">data_series.h</text>
</a>
</g>
</g>
<!-- Node1&#45;&gt;Node2 -->
<g id="edge1" class="edge">
<title>Node1&#45;&gt;Node2</title>
<path fill="none" stroke="midnightblue" d="M356.35,-190.48C325.38,-180.18 273.13,-162.81 238.35,-151.25"/>
<polygon fill="midnightblue" stroke="midnightblue" points="239.19,-147.84 228.6,-148.01 236.98,-154.48 239.19,-147.84"/>
</g>
<!-- Node9 -->
<g id="node9" class="node">
<title>Node9</title>
<g id="a_node9"><a xlink:href="string__util_8h.html" target="_top" xlink:title=" ">
<polygon fill="none" stroke="black" points="262.5,-123.5 262.5,-153.5 387.5,-153.5 387.5,-123.5 262.5,-123.5"/>
<text text-anchor="start" x="270.5" y="-141.5" font-family="Helvetica,sans-Serif" font-size="10.00">HealthGPS.Core/string</text>
<text text-anchor="middle" x="325" y="-130.5" font-family="Helvetica,sans-Serif" font-size="10.00">_util.h</text>
</a>
</g>
</g>
<!-- Node1&#45;&gt;Node9 -->
<g id="edge8" class="edge">
<title>Node1&#45;&gt;Node9</title>
<path fill="none" stroke="midnightblue" d="M373.83,-190.48C366.47,-182.79 355.34,-171.17 345.56,-160.96"/>
<polygon fill="midnightblue" stroke="midnightblue" points="347.88,-158.32 338.43,-153.52 342.82,-163.17 347.88,-158.32"/>
</g>
<!-- Node11 -->
<g id="node11" class="node">
<title>Node11</title>
<g id="a_node11"><a xlink:title=" ">
<polygon fill="none" stroke="#bfbfbf" points="405.5,-129 405.5,-148 472.5,-148 472.5,-129 405.5,-129"/>
<text text-anchor="middle" x="439" y="-136" font-family="Helvetica,sans-Serif" font-size="10.00">fmt/core.h</text>
</a>
</g>
</g>
<!-- Node1&#45;&gt;Node11 -->
<g id="edge11" class="edge">
<title>Node1&#45;&gt;Node11</title>
<path fill="none" stroke="midnightblue" d="M390.17,-190.48C398.89,-181.37 412.9,-166.74 423.69,-155.48"/>
<polygon fill="midnightblue" stroke="midnightblue" points="426.46,-157.65 430.85,-148.01 421.4,-152.81 426.46,-157.65"/>
</g>
<!-- Node12 -->
<g id="node12" class="node">
<title>Node12</title>
<g id="a_node12"><a xlink:title=" ">
<polygon fill="none" stroke="#bfbfbf" points="490.5,-129 490.5,-148 555.5,-148 555.5,-129 490.5,-129"/>
<text text-anchor="middle" x="523" y="-136" font-family="Helvetica,sans-Serif" font-size="10.00">stdexcept</text>
</a>
</g>
</g>
<!-- Node1&#45;&gt;Node12 -->
<g id="edge12" class="edge">
<title>Node1&#45;&gt;Node12</title>
<path fill="none" stroke="midnightblue" d="M402.2,-190.48C426.07,-180.4 466,-163.55 493.37,-152"/>
<polygon fill="midnightblue" stroke="midnightblue" points="494.98,-155.12 502.84,-148.01 492.26,-148.67 494.98,-155.12"/>
</g>
<!-- Node3 -->
<g id="node3" class="node">
<title>Node3</title>
<g id="a_node3"><a xlink:href="forward__type_8h.html" target="_top" xlink:title=" ">
<polygon fill="none" stroke="black" points="0,-56.5 0,-86.5 134,-86.5 134,-56.5 0,-56.5"/>
<text text-anchor="start" x="8" y="-74.5" font-family="Helvetica,sans-Serif" font-size="10.00">HealthGPS.Core/forward</text>
<text text-anchor="middle" x="67" y="-63.5" font-family="Helvetica,sans-Serif" font-size="10.00">_type.h</text>
</a>
</g>
</g>
<!-- Node2&#45;&gt;Node3 -->
<g id="edge2" class="edge">
<title>Node2&#45;&gt;Node3</title>
<path fill="none" stroke="midnightblue" d="M184.94,-128.87C164.8,-119.24 131.63,-103.39 105.59,-90.94"/>
<polygon fill="midnightblue" stroke="midnightblue" points="106.88,-87.68 96.35,-86.53 103.86,-94 106.88,-87.68"/>
</g>
<!-- Node6 -->
<g id="node6" class="node">
<title>Node6</title>
<g id="a_node6"><a xlink:title=" ">
<polygon fill="none" stroke="#bfbfbf" points="152,-62 152,-81 190,-81 190,-62 152,-62"/>
<text text-anchor="middle" x="171" y="-69" font-family="Helvetica,sans-Serif" font-size="10.00">map</text>
</a>
</g>
</g>
<!-- Node2&#45;&gt;Node6 -->
<g id="edge5" class="edge">
<title>Node2&#45;&gt;Node6</title>
<path fill="none" stroke="midnightblue" d="M198.68,-128.73C193.84,-118.89 185.85,-102.66 179.69,-90.16"/>
<polygon fill="midnightblue" stroke="midnightblue" points="182.8,-88.55 175.25,-81.13 176.52,-91.64 182.8,-88.55"/>
</g>
<!-- Node7 -->
<g id="node7" class="node">
<title>Node7</title>
<g id="a_node7"><a xlink:title=" ">
<polygon fill="none" stroke="#bfbfbf" points="274,-62 274,-81 318,-81 318,-62 274,-62"/>
<text text-anchor="middle" x="296" y="-69" font-family="Helvetica,sans-Serif" font-size="10.00">string</text>
</a>
</g>
</g>
<!-- Node2&#45;&gt;Node7 -->
<g id="edge6" class="edge">
<title>Node2&#45;&gt;Node7</title>
<path fill="none" stroke="midnightblue" d="M215.54,-128.73C230.88,-118.01 257.06,-99.72 275.38,-86.91"/>
<polygon fill="midnightblue" stroke="midnightblue" points="277.46,-89.72 283.66,-81.13 273.45,-83.99 277.46,-89.72"/>
</g>
<!-- Node8 -->
<g id="node8" class="node">
<title>Node8</title>
<g id="a_node8"><a xlink:title=" ">
<polygon fill="none" stroke="#bfbfbf" points="208.5,-62 208.5,-81 255.5,-81 255.5,-62 208.5,-62"/>
<text text-anchor="middle" x="232" y="-69" font-family="Helvetica,sans-Serif" font-size="10.00">vector</text>
</a>
</g>
</g>
<!-- Node2&#45;&gt;Node8 -->
<g id="edge7" class="edge">
<title>Node2&#45;&gt;Node8</title>
<path fill="none" stroke="midnightblue" d="M206.91,-128.73C211.26,-118.99 218.4,-102.98 223.96,-90.53"/>
<polygon fill="midnightblue" stroke="midnightblue" points="227.27,-91.69 228.15,-81.13 220.88,-88.83 227.27,-91.69"/>
</g>
<!-- Node4 -->
<g id="node4" class="node">
<title>Node4</title>
<g id="a_node4"><a xlink:title=" ">
<polygon fill="none" stroke="#bfbfbf" points="3,-0.5 3,-19.5 53,-19.5 53,-0.5 3,-0.5"/>
<text text-anchor="middle" x="28" y="-7.5" font-family="Helvetica,sans-Serif" font-size="10.00">cstdint</text>
</a>
</g>
</g>
<!-- Node3&#45;&gt;Node4 -->
<g id="edge3" class="edge">
<title>Node3&#45;&gt;Node4</title>
<path fill="none" stroke="midnightblue" d="M57.76,-56.4C52.21,-47.93 45.11,-37.1 39.23,-28.14"/>
<polygon fill="midnightblue" stroke="midnightblue" points="42.08,-26.1 33.67,-19.66 36.23,-29.94 42.08,-26.1"/>
</g>
<!-- Node5 -->
<g id="node5" class="node">
<title>Node5</title>
<g id="a_node5"><a xlink:title=" ">
<polygon fill="none" stroke="#bfbfbf" points="71.5,-0.5 71.5,-19.5 140.5,-19.5 140.5,-0.5 71.5,-0.5"/>
<text text-anchor="middle" x="106" y="-7.5" font-family="Helvetica,sans-Serif" font-size="10.00">type_traits</text>
</a>
</g>
</g>
<!-- Node3&#45;&gt;Node5 -->
<g id="edge4" class="edge">
<title>Node3&#45;&gt;Node5</title>
<path fill="none" stroke="midnightblue" d="M76.24,-56.4C81.79,-47.93 88.89,-37.1 94.77,-28.14"/>
<polygon fill="midnightblue" stroke="midnightblue" points="97.77,-29.94 100.33,-19.66 91.92,-26.1 97.77,-29.94"/>
</g>
<!-- Node9&#45;&gt;Node7 -->
<g id="edge10" class="edge">
<title>Node9&#45;&gt;Node7</title>
<path fill="none" stroke="midnightblue" d="M318.71,-123.4C314.41,-113.76 308.68,-100.91 304.05,-90.54"/>
<polygon fill="midnightblue" stroke="midnightblue" points="307.15,-88.9 299.88,-81.19 300.76,-91.75 307.15,-88.9"/>
</g>
<!-- Node10 -->
<g id="node10" class="node">
<title>Node10</title>
<g id="a_node10"><a xlink:title=" ">
<polygon fill="none" stroke="#bfbfbf" points="336.5,-62 336.5,-81 401.5,-81 401.5,-62 336.5,-62"/>
<text text-anchor="middle" x="369" y="-69" font-family="Helvetica,sans-Serif" font-size="10.00">functional</text>
</a>
</g>
</g>
<!-- Node9&#45;&gt;Node10 -->
<g id="edge9" class="edge">
<title>Node9&#45;&gt;Node10</title>
<path fill="none" stroke="midnightblue" d="M334.55,-123.4C341.27,-113.46 350.31,-100.11 357.44,-89.57"/>
<polygon fill="midnightblue" stroke="midnightblue" points="360.41,-91.44 363.11,-81.19 354.61,-87.51 360.41,-91.44"/>
</g>
</g>
</svg>
