<?xml version="1.0" encoding="UTF-8" standalone="no"?>
<!DOCTYPE svg PUBLIC "-//W3C//DTD SVG 1.1//EN"
 "http://www.w3.org/Graphics/SVG/1.1/DTD/svg11.dtd">
<!-- Generated by graphviz version 2.43.0 (0)
 -->
<!-- Title: HealthGPS.Datastore/datamanager.cpp Pages: 1 -->
<svg width="2093pt" height="498pt"
 viewBox="0.00 0.00 2093.00 498.00" xmlns="http://www.w3.org/2000/svg" xmlns:xlink="http://www.w3.org/1999/xlink">
<g id="graph0" class="graph" transform="scale(1 1) rotate(0) translate(4 494)">
<title>HealthGPS.Datastore/datamanager.cpp</title>
<!-- Node1 -->
<g id="node1" class="node">
<title>Node1</title>
<g id="a_node1"><a xlink:title=" ">
<polygon fill="#bfbfbf" stroke="black" points="535.5,-459.5 535.5,-489.5 654.5,-489.5 654.5,-459.5 535.5,-459.5"/>
<text text-anchor="start" x="543.5" y="-477.5" font-family="Helvetica,sans-Serif" font-size="10.00">HealthGPS.Datastore</text>
<text text-anchor="middle" x="595" y="-466.5" font-family="Helvetica,sans-Serif" font-size="10.00">/datamanager.cpp</text>
</a>
</g>
</g>
<!-- Node2 -->
<g id="node2" class="node">
<title>Node2</title>
<g id="a_node2"><a xlink:href="datamanager_8h.html" target="_top" xlink:title=" ">
<polygon fill="none" stroke="black" points="369,-398 369,-417 459,-417 459,-398 369,-398"/>
<text text-anchor="middle" x="414" y="-405" font-family="Helvetica,sans-Serif" font-size="10.00">datamanager.h</text>
</a>
</g>
</g>
<!-- Node1&#45;&gt;Node2 -->
<g id="edge1" class="edge">
<title>Node1&#45;&gt;Node2</title>
<path fill="none" stroke="midnightblue" d="M555.73,-459.4C523.41,-447.79 478.09,-431.51 447.47,-420.52"/>
<polygon fill="midnightblue" stroke="midnightblue" points="448.28,-417.09 437.69,-417.01 445.92,-423.68 448.28,-417.09"/>
</g>
<!-- Node29 -->
<g id="node29" class="node">
<title>Node29</title>
<g id="a_node29"><a xlink:href="string__util_8h.html" target="_top" xlink:title=" ">
<polygon fill="none" stroke="black" points="0,-112.5 0,-131.5 74,-131.5 74,-112.5 0,-112.5"/>
<text text-anchor="middle" x="37" y="-119.5" font-family="Helvetica,sans-Serif" font-size="10.00">string_util.h</text>
</a>
</g>
</g>
<!-- Node1&#45;&gt;Node29 -->
<g id="edge84" class="edge">
<title>Node1&#45;&gt;Node29</title>
<path fill="none" stroke="midnightblue" d="M535.28,-472.5C391.34,-468.49 37,-448.32 37,-347 37,-347 37,-347 37,-233 37,-200.95 37,-163.64 37,-141.75"/>
<polygon fill="midnightblue" stroke="midnightblue" points="40.5,-141.56 37,-131.56 33.5,-141.56 40.5,-141.56"/>
</g>
<!-- Node49 -->
<g id="node47" class="node">
<title>Node49</title>
<g id="a_node47"><a xlink:href="math__util_8h.html" target="_top" xlink:title=" ">
<polygon fill="none" stroke="black" points="477,-392.5 477,-422.5 599,-422.5 599,-392.5 477,-392.5"/>
<text text-anchor="start" x="485" y="-410.5" font-family="Helvetica,sans-Serif" font-size="10.00">HealthGPS.Core/math</text>
<text text-anchor="middle" x="538" y="-399.5" font-family="Helvetica,sans-Serif" font-size="10.00">_util.h</text>
</a>
</g>
</g>
<!-- Node1&#45;&gt;Node49 -->
<g id="edge83" class="edge">
<title>Node1&#45;&gt;Node49</title>
<path fill="none" stroke="midnightblue" d="M582.63,-459.4C575.16,-450.88 565.49,-439.85 557.06,-430.23"/>
<polygon fill="midnightblue" stroke="midnightblue" points="559.57,-427.79 550.34,-422.58 554.31,-432.4 559.57,-427.79"/>
</g>
<!-- Node50 -->
<g id="node48" class="node">
<title>Node50</title>
<g id="a_node48"><a xlink:title=" ">
<polygon fill="none" stroke="#bfbfbf" points="617.5,-398 617.5,-417 686.5,-417 686.5,-398 617.5,-398"/>
<text text-anchor="middle" x="652" y="-405" font-family="Helvetica,sans-Serif" font-size="10.00">fmt/color.h</text>
</a>
</g>
</g>
<!-- Node1&#45;&gt;Node50 -->
<g id="edge85" class="edge">
<title>Node1&#45;&gt;Node50</title>
<path fill="none" stroke="midnightblue" d="M607.37,-459.4C616.26,-449.26 628.26,-435.57 637.59,-424.94"/>
<polygon fill="midnightblue" stroke="midnightblue" points="640.41,-427.02 644.38,-417.19 635.15,-422.41 640.41,-427.02"/>
</g>
<!-- Node51 -->
<g id="node49" class="node">
<title>Node51</title>
<g id="a_node49"><a xlink:title=" ">
<polygon fill="none" stroke="#bfbfbf" points="704.5,-398 704.5,-417 759.5,-417 759.5,-398 704.5,-398"/>
<text text-anchor="middle" x="732" y="-405" font-family="Helvetica,sans-Serif" font-size="10.00">fstream</text>
</a>
</g>
</g>
<!-- Node1&#45;&gt;Node51 -->
<g id="edge86" class="edge">
<title>Node1&#45;&gt;Node51</title>
<path fill="none" stroke="midnightblue" d="M624.73,-459.4C648.55,-448.09 681.71,-432.36 704.83,-421.39"/>
<polygon fill="midnightblue" stroke="midnightblue" points="706.54,-424.46 714.07,-417.01 703.53,-418.13 706.54,-424.46"/>
</g>
<!-- Node52 -->
<g id="node50" class="node">
<title>Node52</title>
<g id="a_node50"><a xlink:title=" ">
<polygon fill="none" stroke="#bfbfbf" points="778,-398 778,-417 844,-417 844,-398 778,-398"/>
<text text-anchor="middle" x="811" y="-405" font-family="Helvetica,sans-Serif" font-size="10.00">rapidcsv.h</text>
</a>
</g>
</g>
<!-- Node1&#45;&gt;Node52 -->
<g id="edge87" class="edge">
<title>Node1&#45;&gt;Node52</title>
<path fill="none" stroke="midnightblue" d="M645.83,-459.47C680.64,-449.69 727.78,-436.09 769,-423 771.6,-422.17 774.28,-421.3 776.97,-420.41"/>
<polygon fill="midnightblue" stroke="midnightblue" points="778.29,-423.66 786.64,-417.14 776.04,-417.03 778.29,-423.66"/>
</g>
<!-- Node3 -->
<g id="node3" class="node">
<title>Node3</title>
<g id="a_node3"><a xlink:href="HealthGPS_8Core_2api_8h.html" target="_top" xlink:title=" ">
<polygon fill="none" stroke="black" points="898.5,-336.5 898.5,-355.5 1019.5,-355.5 1019.5,-336.5 898.5,-336.5"/>
<text text-anchor="middle" x="959" y="-343.5" font-family="Helvetica,sans-Serif" font-size="10.00">HealthGPS.Core/api.h</text>
</a>
</g>
</g>
<!-- Node2&#45;&gt;Node3 -->
<g id="edge2" class="edge">
<title>Node2&#45;&gt;Node3</title>
<path fill="none" stroke="midnightblue" d="M442.1,-397.98C450.38,-395.74 459.5,-393.52 468,-392 616.17,-365.52 792.45,-354.18 888.31,-349.68"/>
<polygon fill="midnightblue" stroke="midnightblue" points="888.64,-353.17 898.47,-349.22 888.32,-346.18 888.64,-353.17"/>
</g>
<!-- Node47 -->
<g id="node45" class="node">
<title>Node47</title>
<g id="a_node45"><a xlink:title=" ">
<polygon fill="none" stroke="#bfbfbf" points="327,-336.5 327,-355.5 395,-355.5 395,-336.5 327,-336.5"/>
<text text-anchor="middle" x="361" y="-343.5" font-family="Helvetica,sans-Serif" font-size="10.00">filesystem</text>
</a>
</g>
</g>
<!-- Node2&#45;&gt;Node47 -->
<g id="edge81" class="edge">
<title>Node2&#45;&gt;Node47</title>
<path fill="none" stroke="midnightblue" d="M406.41,-397.98C398.3,-388.87 385.27,-374.24 375.24,-362.98"/>
<polygon fill="midnightblue" stroke="midnightblue" points="377.84,-360.65 368.58,-355.51 372.62,-365.3 377.84,-360.65"/>
</g>
<!-- Node48 -->
<g id="node46" class="node">
<title>Node48</title>
<g id="a_node46"><a xlink:title=" ">
<polygon fill="none" stroke="#bfbfbf" points="413,-336.5 413,-355.5 523,-355.5 523,-336.5 413,-336.5"/>
<text text-anchor="middle" x="468" y="-343.5" font-family="Helvetica,sans-Serif" font-size="10.00">nlohmann/json.hpp</text>
</a>
</g>
</g>
<!-- Node2&#45;&gt;Node48 -->
<g id="edge82" class="edge">
<title>Node2&#45;&gt;Node48</title>
<path fill="none" stroke="midnightblue" d="M421.74,-397.98C430,-388.87 443.28,-374.24 453.49,-362.98"/>
<polygon fill="midnightblue" stroke="midnightblue" points="456.15,-365.27 460.28,-355.51 450.97,-360.56 456.15,-365.27"/>
</g>
<!-- Node4 -->
<g id="node4" class="node">
<title>Node4</title>
<g id="a_node4"><a xlink:href="array2d_8h.html" target="_top" xlink:title=" ">
<polygon fill="none" stroke="black" points="927.5,-224.5 927.5,-243.5 990.5,-243.5 990.5,-224.5 927.5,-224.5"/>
<text text-anchor="middle" x="959" y="-231.5" font-family="Helvetica,sans-Serif" font-size="10.00">array2d.h</text>
</a>
</g>
</g>
<!-- Node3&#45;&gt;Node4 -->
<g id="edge3" class="edge">
<title>Node3&#45;&gt;Node4</title>
<path fill="none" stroke="midnightblue" d="M959,-336.37C959,-318.62 959,-277.67 959,-253.6"/>
<polygon fill="midnightblue" stroke="midnightblue" points="962.5,-253.59 959,-243.59 955.5,-253.59 962.5,-253.59"/>
</g>
<!-- Node14 -->
<g id="node14" class="node">
<title>Node14</title>
<g id="a_node14"><a xlink:href="column__builder_8h.html" target="_top" xlink:title=" ">
<polygon fill="none" stroke="black" points="1128,-224.5 1128,-243.5 1228,-243.5 1228,-224.5 1128,-224.5"/>
<text text-anchor="middle" x="1178" y="-231.5" font-family="Helvetica,sans-Serif" font-size="10.00">column_builder.h</text>
</a>
</g>
</g>
<!-- Node3&#45;&gt;Node14 -->
<g id="edge13" class="edge">
<title>Node3&#45;&gt;Node14</title>
<path fill="none" stroke="midnightblue" d="M976.18,-336.37C1014.32,-317.21 1106.26,-271.04 1151.69,-248.22"/>
<polygon fill="midnightblue" stroke="midnightblue" points="1153.53,-251.21 1160.9,-243.59 1150.39,-244.95 1153.53,-251.21"/>
</g>
<!-- Node21 -->
<g id="node21" class="node">
<title>Node21</title>
<g id="a_node21"><a xlink:href="visitor_8h.html" target="_top" xlink:title=" ">
<polygon fill="none" stroke="black" points="1607,-112.5 1607,-131.5 1663,-131.5 1663,-112.5 1607,-112.5"/>
<text text-anchor="middle" x="1635" y="-119.5" font-family="Helvetica,sans-Serif" font-size="10.00">visitor.h</text>
</a>
</g>
</g>
<!-- Node3&#45;&gt;Node21 -->
<g id="edge80" class="edge">
<title>Node3&#45;&gt;Node21</title>
<path fill="none" stroke="midnightblue" d="M1019.52,-343.42C1220.52,-337.53 1856.4,-313.49 1913,-244 1980.79,-160.77 1764.17,-133.36 1673.24,-125.65"/>
<polygon fill="midnightblue" stroke="midnightblue" points="1673.31,-122.15 1663.06,-124.83 1672.74,-129.12 1673.31,-122.15"/>
</g>
<!-- Node22 -->
<g id="node22" class="node">
<title>Node22</title>
<g id="a_node22"><a xlink:href="column__iterator_8h.html" target="_top" xlink:title=" ">
<polygon fill="none" stroke="black" points="1983,-168.5 1983,-187.5 2085,-187.5 2085,-168.5 1983,-168.5"/>
<text text-anchor="middle" x="2034" y="-175.5" font-family="Helvetica,sans-Serif" font-size="10.00">column_iterator.h</text>
</a>
</g>
</g>
<!-- Node3&#45;&gt;Node22 -->
<g id="edge24" class="edge">
<title>Node3&#45;&gt;Node22</title>
<path fill="none" stroke="midnightblue" d="M1019.74,-343.94C1231.82,-340.04 1928.72,-325.32 1969,-300 2005.73,-276.91 2023.08,-225.53 2030.05,-197.73"/>
<polygon fill="midnightblue" stroke="midnightblue" points="2033.52,-198.25 2032.36,-187.71 2026.7,-196.67 2033.52,-198.25"/>
</g>
<!-- Node24 -->
<g id="node24" class="node">
<title>Node24</title>
<g id="a_node24"><a xlink:href="column__numeric_8h.html" target="_top" xlink:title=" ">
<polygon fill="none" stroke="black" points="1465.5,-280.5 1465.5,-299.5 1572.5,-299.5 1572.5,-280.5 1465.5,-280.5"/>
<text text-anchor="middle" x="1519" y="-287.5" font-family="Helvetica,sans-Serif" font-size="10.00">column_numeric.h</text>
</a>
</g>
</g>
<!-- Node3&#45;&gt;Node24 -->
<g id="edge26" class="edge">
<title>Node3&#45;&gt;Node24</title>
<path fill="none" stroke="midnightblue" d="M1019.73,-339.14C1126.43,-328.85 1346.53,-307.63 1455.3,-297.14"/>
<polygon fill="midnightblue" stroke="midnightblue" points="1455.85,-300.61 1465.47,-296.16 1455.18,-293.64 1455.85,-300.61"/>
</g>
<!-- Node27 -->
<g id="node27" class="node">
<title>Node27</title>
<g id="a_node27"><a xlink:href="datastore_8h.html" target="_top" xlink:title=" ">
<polygon fill="none" stroke="black" points="652,-280.5 652,-299.5 724,-299.5 724,-280.5 652,-280.5"/>
<text text-anchor="middle" x="688" y="-287.5" font-family="Helvetica,sans-Serif" font-size="10.00">datastore.h</text>
</a>
</g>
</g>
<!-- Node3&#45;&gt;Node27 -->
<g id="edge33" class="edge">
<title>Node3&#45;&gt;Node27</title>
<path fill="none" stroke="midnightblue" d="M916.06,-336.44C866.49,-326.57 785.27,-310.38 734.32,-300.23"/>
<polygon fill="midnightblue" stroke="midnightblue" points="734.73,-296.74 724.24,-298.22 733.36,-303.61 734.73,-296.74"/>
</g>
<!-- Node28 -->
<g id="node28" class="node">
<title>Node28</title>
<g id="a_node28"><a xlink:href="interval_8h.html" target="_top" xlink:title=" ">
<polygon fill="none" stroke="black" points="592.5,-224.5 592.5,-243.5 655.5,-243.5 655.5,-224.5 592.5,-224.5"/>
<text text-anchor="middle" x="624" y="-231.5" font-family="Helvetica,sans-Serif" font-size="10.00">interval.h</text>
</a>
</g>
</g>
<!-- Node3&#45;&gt;Node28 -->
<g id="edge71" class="edge">
<title>Node3&#45;&gt;Node28</title>
<path fill="none" stroke="midnightblue" d="M898.23,-343.97C817.32,-341.36 680.12,-332.16 643,-300 629.83,-288.59 625.54,-268.6 624.26,-253.8"/>
<polygon fill="midnightblue" stroke="midnightblue" points="627.76,-253.53 623.78,-243.71 620.76,-253.87 627.76,-253.53"/>
</g>
<!-- Node31 -->
<g id="node31" class="node">
<title>Node31</title>
<g id="a_node31"><a xlink:href="HealthGPS_8Core_2poco_8h.html" target="_top" xlink:title=" ">
<polygon fill="none" stroke="black" points="424.5,-224.5 424.5,-243.5 473.5,-243.5 473.5,-224.5 424.5,-224.5"/>
<text text-anchor="middle" x="449" y="-231.5" font-family="Helvetica,sans-Serif" font-size="10.00">poco.h</text>
</a>
</g>
</g>
<!-- Node3&#45;&gt;Node31 -->
<g id="edge72" class="edge">
<title>Node3&#45;&gt;Node31</title>
<path fill="none" stroke="midnightblue" d="M898.4,-340.79C831.09,-335.21 719.57,-323.21 626,-300 572.07,-286.62 511.84,-262.41 477.37,-247.61"/>
<polygon fill="midnightblue" stroke="midnightblue" points="478.52,-244.29 467.95,-243.52 475.73,-250.71 478.52,-244.29"/>
</g>
<!-- Node36 -->
<g id="node35" class="node">
<title>Node36</title>
<g id="a_node35"><a xlink:href="identifier_8h.html" target="_top" xlink:title=" ">
<polygon fill="none" stroke="black" points="289,-112.5 289,-131.5 357,-131.5 357,-112.5 289,-112.5"/>
<text text-anchor="middle" x="323" y="-119.5" font-family="Helvetica,sans-Serif" font-size="10.00">identifier.h</text>
</a>
</g>
</g>
<!-- Node3&#45;&gt;Node36 -->
<g id="edge70" class="edge">
<title>Node3&#45;&gt;Node36</title>
<path fill="none" stroke="midnightblue" d="M898.22,-342.81C729.48,-335.28 261.95,-304.11 175,-188 169.67,-180.89 169.71,-175.14 175,-168 187.48,-151.16 239.74,-138.13 278.64,-130.52"/>
<polygon fill="midnightblue" stroke="midnightblue" points="279.54,-133.92 288.72,-128.61 278.24,-127.04 279.54,-133.92"/>
</g>
<!-- Node42 -->
<g id="node40" class="node">
<title>Node42</title>
<g id="a_node40"><a xlink:href="datatable_8h.html" target="_top" xlink:title=" ">
<polygon fill="none" stroke="black" points="1411,-224.5 1411,-243.5 1483,-243.5 1483,-224.5 1411,-224.5"/>
<text text-anchor="middle" x="1447" y="-231.5" font-family="Helvetica,sans-Serif" font-size="10.00">datatable.h</text>
</a>
</g>
</g>
<!-- Node3&#45;&gt;Node42 -->
<g id="edge61" class="edge">
<title>Node3&#45;&gt;Node42</title>
<path fill="none" stroke="midnightblue" d="M996.89,-336.46C1085.26,-316.54 1304.79,-267.05 1400.81,-245.41"/>
<polygon fill="midnightblue" stroke="midnightblue" points="1401.82,-248.77 1410.8,-243.16 1400.28,-241.94 1401.82,-248.77"/>
</g>
<!-- Node45 -->
<g id="node43" class="node">
<title>Node45</title>
<g id="a_node43"><a xlink:href="univariate__summary_8h.html" target="_top" xlink:title=" ">
<polygon fill="none" stroke="black" points="1778.5,-224.5 1778.5,-243.5 1903.5,-243.5 1903.5,-224.5 1778.5,-224.5"/>
<text text-anchor="middle" x="1841" y="-231.5" font-family="Helvetica,sans-Serif" font-size="10.00">univariate_summary.h</text>
</a>
</g>
</g>
<!-- Node3&#45;&gt;Node45 -->
<g id="edge73" class="edge">
<title>Node3&#45;&gt;Node45</title>
<path fill="none" stroke="midnightblue" d="M1019.54,-344.11C1131.35,-341.7 1377.49,-332.79 1582,-300 1662.3,-287.12 1754.16,-261.38 1804.03,-246.44"/>
<polygon fill="midnightblue" stroke="midnightblue" points="1805.17,-249.75 1813.73,-243.51 1803.14,-243.05 1805.17,-249.75"/>
</g>
<!-- Node46 -->
<g id="node44" class="node">
<title>Node46</title>
<g id="a_node44"><a xlink:href="version_8h.html" target="_top" xlink:title=" ">
<polygon fill="none" stroke="black" points="65,-280.5 65,-299.5 127,-299.5 127,-280.5 65,-280.5"/>
<text text-anchor="middle" x="96" y="-287.5" font-family="Helvetica,sans-Serif" font-size="10.00">version.h</text>
</a>
</g>
</g>
<!-- Node3&#45;&gt;Node46 -->
<g id="edge78" class="edge">
<title>Node3&#45;&gt;Node46</title>
<path fill="none" stroke="midnightblue" d="M898.44,-344.61C762.45,-343.1 422.67,-335.73 141,-300 139.89,-299.86 138.77,-299.71 137.64,-299.55"/>
<polygon fill="midnightblue" stroke="midnightblue" points="137.81,-296.03 127.38,-297.87 136.68,-302.94 137.81,-296.03"/>
</g>
<!-- Node5 -->
<g id="node5" class="node">
<title>Node5</title>
<g id="a_node5"><a xlink:href="forward__type_8h.html" target="_top" xlink:title=" ">
<polygon fill="none" stroke="black" points="601,-56.5 601,-75.5 691,-75.5 691,-56.5 601,-56.5"/>
<text text-anchor="middle" x="646" y="-63.5" font-family="Helvetica,sans-Serif" font-size="10.00">forward_type.h</text>
</a>
</g>
</g>
<!-- Node4&#45;&gt;Node5 -->
<g id="edge4" class="edge">
<title>Node4&#45;&gt;Node5</title>
<path fill="none" stroke="midnightblue" d="M970.3,-224.37C985.78,-211.5 1010.13,-186.78 996,-168 960.49,-120.8 790.45,-88.7 701.11,-74.8"/>
<polygon fill="midnightblue" stroke="midnightblue" points="701.57,-71.33 691.15,-73.28 700.51,-78.25 701.57,-71.33"/>
</g>
<!-- Node8 -->
<g id="node8" class="node">
<title>Node8</title>
<g id="a_node8"><a xlink:title=" ">
<polygon fill="none" stroke="#bfbfbf" points="1303,-168.5 1303,-187.5 1367,-187.5 1367,-168.5 1303,-168.5"/>
<text text-anchor="middle" x="1335" y="-175.5" font-family="Helvetica,sans-Serif" font-size="10.00">algorithm</text>
</a>
</g>
</g>
<!-- Node4&#45;&gt;Node8 -->
<g id="edge7" class="edge">
<title>Node4&#45;&gt;Node8</title>
<path fill="none" stroke="midnightblue" d="M990.73,-228.44C1058.37,-218.73 1216.74,-195.98 1292.79,-185.06"/>
<polygon fill="midnightblue" stroke="midnightblue" points="1293.55,-188.49 1302.95,-183.6 1292.56,-181.56 1293.55,-188.49"/>
</g>
<!-- Node9 -->
<g id="node9" class="node">
<title>Node9</title>
<g id="a_node9"><a xlink:title=" ">
<polygon fill="none" stroke="#bfbfbf" points="712.5,-168.5 712.5,-187.5 791.5,-187.5 791.5,-168.5 712.5,-168.5"/>
<text text-anchor="middle" x="752" y="-175.5" font-family="Helvetica,sans-Serif" font-size="10.00">fmt/format.h</text>
</a>
</g>
</g>
<!-- Node4&#45;&gt;Node9 -->
<g id="edge8" class="edge">
<title>Node4&#45;&gt;Node9</title>
<path fill="none" stroke="midnightblue" d="M927.11,-224.68C891.53,-215.4 833.82,-200.34 794.45,-190.07"/>
<polygon fill="midnightblue" stroke="midnightblue" points="795.17,-186.64 784.61,-187.51 793.4,-193.42 795.17,-186.64"/>
</g>
<!-- Node10 -->
<g id="node10" class="node">
<title>Node10</title>
<g id="a_node10"><a xlink:title=" ">
<polygon fill="none" stroke="#bfbfbf" points="1189,-168.5 1189,-187.5 1247,-187.5 1247,-168.5 1189,-168.5"/>
<text text-anchor="middle" x="1218" y="-175.5" font-family="Helvetica,sans-Serif" font-size="10.00">memory</text>
</a>
</g>
</g>
<!-- Node4&#45;&gt;Node10 -->
<g id="edge9" class="edge">
<title>Node4&#45;&gt;Node10</title>
<path fill="none" stroke="midnightblue" d="M990.54,-226.9C1031.63,-218.89 1105.96,-204.15 1179.13,-188.14"/>
<polygon fill="midnightblue" stroke="midnightblue" points="1179.96,-191.54 1188.98,-185.97 1178.46,-184.7 1179.96,-191.54"/>
</g>
<!-- Node11 -->
<g id="node11" class="node">
<title>Node11</title>
<g id="a_node11"><a xlink:title=" ">
<polygon fill="none" stroke="#bfbfbf" points="931,-168.5 931,-187.5 987,-187.5 987,-168.5 931,-168.5"/>
<text text-anchor="middle" x="959" y="-175.5" font-family="Helvetica,sans-Serif" font-size="10.00">sstream</text>
</a>
</g>
</g>
<!-- Node4&#45;&gt;Node11 -->
<g id="edge10" class="edge">
<title>Node4&#45;&gt;Node11</title>
<path fill="none" stroke="midnightblue" d="M959,-224.08C959,-217.01 959,-206.86 959,-197.99"/>
<polygon fill="midnightblue" stroke="midnightblue" points="962.5,-197.75 959,-187.75 955.5,-197.75 962.5,-197.75"/>
</g>
<!-- Node12 -->
<g id="node12" class="node">
<title>Node12</title>
<g id="a_node12"><a xlink:title=" ">
<polygon fill="none" stroke="#bfbfbf" points="809.5,-168.5 809.5,-187.5 874.5,-187.5 874.5,-168.5 809.5,-168.5"/>
<text text-anchor="middle" x="842" y="-175.5" font-family="Helvetica,sans-Serif" font-size="10.00">stdexcept</text>
</a>
</g>
</g>
<!-- Node4&#45;&gt;Node12 -->
<g id="edge11" class="edge">
<title>Node4&#45;&gt;Node12</title>
<path fill="none" stroke="midnightblue" d="M940.46,-224.44C921.38,-215.64 891.43,-201.81 869.56,-191.72"/>
<polygon fill="midnightblue" stroke="midnightblue" points="871,-188.53 860.45,-187.52 868.07,-194.88 871,-188.53"/>
</g>
<!-- Node13 -->
<g id="node13" class="node">
<title>Node13</title>
<g id="a_node13"><a xlink:title=" ">
<polygon fill="none" stroke="#bfbfbf" points="1147.5,-112.5 1147.5,-131.5 1194.5,-131.5 1194.5,-112.5 1147.5,-112.5"/>
<text text-anchor="middle" x="1171" y="-119.5" font-family="Helvetica,sans-Serif" font-size="10.00">vector</text>
</a>
</g>
</g>
<!-- Node4&#45;&gt;Node13 -->
<g id="edge12" class="edge">
<title>Node4&#45;&gt;Node13</title>
<path fill="none" stroke="midnightblue" d="M947.71,-224.39C931.94,-211.34 906.85,-186.14 922,-168 949.04,-135.64 1075.55,-126.51 1137.14,-123.96"/>
<polygon fill="midnightblue" stroke="midnightblue" points="1137.63,-127.45 1147.49,-123.57 1137.37,-120.45 1137.63,-127.45"/>
</g>
<!-- Node6 -->
<g id="node6" class="node">
<title>Node6</title>
<g id="a_node6"><a xlink:title=" ">
<polygon fill="none" stroke="#bfbfbf" points="582,-0.5 582,-19.5 632,-19.5 632,-0.5 582,-0.5"/>
<text text-anchor="middle" x="607" y="-7.5" font-family="Helvetica,sans-Serif" font-size="10.00">cstdint</text>
</a>
</g>
</g>
<!-- Node5&#45;&gt;Node6 -->
<g id="edge5" class="edge">
<title>Node5&#45;&gt;Node6</title>
<path fill="none" stroke="midnightblue" d="M639.56,-56.08C634.05,-48.46 625.97,-37.26 619.24,-27.94"/>
<polygon fill="midnightblue" stroke="midnightblue" points="622.01,-25.81 613.32,-19.75 616.34,-29.91 622.01,-25.81"/>
</g>
<!-- Node7 -->
<g id="node7" class="node">
<title>Node7</title>
<g id="a_node7"><a xlink:title=" ">
<polygon fill="none" stroke="#bfbfbf" points="650.5,-0.5 650.5,-19.5 719.5,-19.5 719.5,-0.5 650.5,-0.5"/>
<text text-anchor="middle" x="685" y="-7.5" font-family="Helvetica,sans-Serif" font-size="10.00">type_traits</text>
</a>
</g>
</g>
<!-- Node5&#45;&gt;Node7 -->
<g id="edge6" class="edge">
<title>Node5&#45;&gt;Node7</title>
<path fill="none" stroke="midnightblue" d="M652.44,-56.08C657.95,-48.46 666.03,-37.26 672.76,-27.94"/>
<polygon fill="midnightblue" stroke="midnightblue" points="675.66,-29.91 678.68,-19.75 669.99,-25.81 675.66,-29.91"/>
</g>
<!-- Node14&#45;&gt;Node10 -->
<g id="edge16" class="edge">
<title>Node14&#45;&gt;Node10</title>
<path fill="none" stroke="midnightblue" d="M1184.61,-224.08C1190.26,-216.46 1198.54,-205.26 1205.45,-195.94"/>
<polygon fill="midnightblue" stroke="midnightblue" points="1208.38,-197.87 1211.52,-187.75 1202.75,-193.7 1208.38,-197.87"/>
</g>
<!-- Node14&#45;&gt;Node13 -->
<g id="edge17" class="edge">
<title>Node14&#45;&gt;Node13</title>
<path fill="none" stroke="midnightblue" d="M1204.23,-224.42C1232.45,-213.67 1271.37,-193.52 1256,-168 1244.83,-149.45 1223.16,-138.14 1204.5,-131.51"/>
<polygon fill="midnightblue" stroke="midnightblue" points="1205.4,-128.12 1194.81,-128.36 1203.24,-134.78 1205.4,-128.12"/>
</g>
<!-- Node15 -->
<g id="node15" class="node">
<title>Node15</title>
<g id="a_node15"><a xlink:title=" ">
<polygon fill="none" stroke="#bfbfbf" points="1105.5,-168.5 1105.5,-187.5 1170.5,-187.5 1170.5,-168.5 1105.5,-168.5"/>
<text text-anchor="middle" x="1138" y="-175.5" font-family="Helvetica,sans-Serif" font-size="10.00">exception</text>
</a>
</g>
</g>
<!-- Node14&#45;&gt;Node15 -->
<g id="edge14" class="edge">
<title>Node14&#45;&gt;Node15</title>
<path fill="none" stroke="midnightblue" d="M1171.39,-224.08C1165.74,-216.46 1157.46,-205.26 1150.55,-195.94"/>
<polygon fill="midnightblue" stroke="midnightblue" points="1153.25,-193.7 1144.48,-187.75 1147.62,-197.87 1153.25,-193.7"/>
</g>
<!-- Node16 -->
<g id="node16" class="node">
<title>Node16</title>
<g id="a_node16"><a xlink:title=" ">
<polygon fill="none" stroke="#bfbfbf" points="1043,-168.5 1043,-187.5 1087,-187.5 1087,-168.5 1043,-168.5"/>
<text text-anchor="middle" x="1065" y="-175.5" font-family="Helvetica,sans-Serif" font-size="10.00">limits</text>
</a>
</g>
</g>
<!-- Node14&#45;&gt;Node16 -->
<g id="edge15" class="edge">
<title>Node14&#45;&gt;Node16</title>
<path fill="none" stroke="midnightblue" d="M1160.09,-224.44C1141.75,-215.68 1112.99,-201.94 1091.91,-191.86"/>
<polygon fill="midnightblue" stroke="midnightblue" points="1093.35,-188.67 1082.82,-187.52 1090.33,-194.99 1093.35,-188.67"/>
</g>
<!-- Node17 -->
<g id="node17" class="node">
<title>Node17</title>
<g id="a_node17"><a xlink:href="column_8h.html" target="_top" xlink:title=" ">
<polygon fill="none" stroke="black" points="1489,-168.5 1489,-187.5 1551,-187.5 1551,-168.5 1489,-168.5"/>
<text text-anchor="middle" x="1520" y="-175.5" font-family="Helvetica,sans-Serif" font-size="10.00">column.h</text>
</a>
</g>
</g>
<!-- Node14&#45;&gt;Node17 -->
<g id="edge18" class="edge">
<title>Node14&#45;&gt;Node17</title>
<path fill="none" stroke="midnightblue" d="M1228.15,-226.67C1286.17,-219.1 1384.78,-205.44 1478.65,-188.14"/>
<polygon fill="midnightblue" stroke="midnightblue" points="1479.41,-191.56 1488.6,-186.29 1478.13,-184.68 1479.41,-191.56"/>
</g>
<!-- Node18 -->
<g id="node18" class="node">
<title>Node18</title>
<g id="a_node18"><a xlink:title=" ">
<polygon fill="none" stroke="#bfbfbf" points="1508.5,-112.5 1508.5,-131.5 1543.5,-131.5 1543.5,-112.5 1508.5,-112.5"/>
<text text-anchor="middle" x="1526" y="-119.5" font-family="Helvetica,sans-Serif" font-size="10.00">any</text>
</a>
</g>
</g>
<!-- Node17&#45;&gt;Node18 -->
<g id="edge19" class="edge">
<title>Node17&#45;&gt;Node18</title>
<path fill="none" stroke="midnightblue" d="M1520.99,-168.08C1521.79,-160.93 1522.93,-150.64 1523.92,-141.69"/>
<polygon fill="midnightblue" stroke="midnightblue" points="1527.4,-142.08 1525.03,-131.75 1520.44,-141.3 1527.4,-142.08"/>
</g>
<!-- Node19 -->
<g id="node19" class="node">
<title>Node19</title>
<g id="a_node19"><a xlink:title=" ">
<polygon fill="none" stroke="#bfbfbf" points="384,-56.5 384,-75.5 428,-75.5 428,-56.5 384,-56.5"/>
<text text-anchor="middle" x="406" y="-63.5" font-family="Helvetica,sans-Serif" font-size="10.00">string</text>
</a>
</g>
</g>
<!-- Node17&#45;&gt;Node19 -->
<g id="edge20" class="edge">
<title>Node17&#45;&gt;Node19</title>
<path fill="none" stroke="midnightblue" d="M1488.86,-168.98C1432.49,-154.82 1309.54,-125.61 1204,-112 1127.21,-102.1 577.78,-75.26 438.19,-68.54"/>
<polygon fill="midnightblue" stroke="midnightblue" points="438.28,-65.04 428.13,-68.06 437.95,-72.03 438.28,-65.04"/>
</g>
<!-- Node20 -->
<g id="node20" class="node">
<title>Node20</title>
<g id="a_node20"><a xlink:title=" ">
<polygon fill="none" stroke="#bfbfbf" points="1433.5,-112.5 1433.5,-131.5 1490.5,-131.5 1490.5,-112.5 1433.5,-112.5"/>
<text text-anchor="middle" x="1462" y="-119.5" font-family="Helvetica,sans-Serif" font-size="10.00">typeinfo</text>
</a>
</g>
</g>
<!-- Node17&#45;&gt;Node20 -->
<g id="edge21" class="edge">
<title>Node17&#45;&gt;Node20</title>
<path fill="none" stroke="midnightblue" d="M1510.68,-168.32C1502.11,-160.34 1489.19,-148.31 1478.81,-138.65"/>
<polygon fill="midnightblue" stroke="midnightblue" points="1481.19,-136.09 1471.49,-131.83 1476.42,-141.21 1481.19,-136.09"/>
</g>
<!-- Node17&#45;&gt;Node21 -->
<g id="edge22" class="edge">
<title>Node17&#45;&gt;Node21</title>
<path fill="none" stroke="midnightblue" d="M1538.22,-168.44C1556.9,-159.68 1586.16,-145.94 1607.62,-135.86"/>
<polygon fill="midnightblue" stroke="midnightblue" points="1609.3,-138.93 1616.86,-131.52 1606.32,-132.6 1609.3,-138.93"/>
</g>
<!-- Node21&#45;&gt;Node5 -->
<g id="edge23" class="edge">
<title>Node21&#45;&gt;Node5</title>
<path fill="none" stroke="midnightblue" d="M1606.64,-114.27C1602.1,-113.38 1597.44,-112.58 1593,-112 1256.28,-68.22 847.27,-65.78 701.15,-66.48"/>
<polygon fill="midnightblue" stroke="midnightblue" points="701.07,-62.98 691.09,-66.53 701.11,-69.98 701.07,-62.98"/>
</g>
<!-- Node23 -->
<g id="node23" class="node">
<title>Node23</title>
<g id="a_node23"><a xlink:title=" ">
<polygon fill="none" stroke="#bfbfbf" points="2007.5,-112.5 2007.5,-131.5 2060.5,-131.5 2060.5,-112.5 2007.5,-112.5"/>
<text text-anchor="middle" x="2034" y="-119.5" font-family="Helvetica,sans-Serif" font-size="10.00">iterator</text>
</a>
</g>
</g>
<!-- Node22&#45;&gt;Node23 -->
<g id="edge25" class="edge">
<title>Node22&#45;&gt;Node23</title>
<path fill="none" stroke="midnightblue" d="M2034,-168.08C2034,-161.01 2034,-150.86 2034,-141.99"/>
<polygon fill="midnightblue" stroke="midnightblue" points="2037.5,-141.75 2034,-131.75 2030.5,-141.75 2037.5,-141.75"/>
</g>
<!-- Node25 -->
<g id="node25" class="node">
<title>Node25</title>
<g id="a_node25"><a xlink:href="column__primitive_8h.html" target="_top" xlink:title=" ">
<polygon fill="none" stroke="black" points="1622.5,-224.5 1622.5,-243.5 1733.5,-243.5 1733.5,-224.5 1622.5,-224.5"/>
<text text-anchor="middle" x="1678" y="-231.5" font-family="Helvetica,sans-Serif" font-size="10.00">column_primitive.h</text>
</a>
</g>
</g>
<!-- Node24&#45;&gt;Node25 -->
<g id="edge27" class="edge">
<title>Node24&#45;&gt;Node25</title>
<path fill="none" stroke="midnightblue" d="M1544.19,-280.44C1570.94,-271.36 1613.4,-256.94 1643.31,-246.78"/>
<polygon fill="midnightblue" stroke="midnightblue" points="1644.58,-250.05 1652.92,-243.52 1642.33,-243.42 1644.58,-250.05"/>
</g>
<!-- Node25&#45;&gt;Node8 -->
<g id="edge28" class="edge">
<title>Node25&#45;&gt;Node8</title>
<path fill="none" stroke="midnightblue" d="M1623.65,-224.44C1555.44,-213.7 1439.86,-195.51 1377.66,-185.72"/>
<polygon fill="midnightblue" stroke="midnightblue" points="1377.84,-182.2 1367.42,-184.1 1376.75,-189.12 1377.84,-182.2"/>
</g>
<!-- Node25&#45;&gt;Node13 -->
<g id="edge30" class="edge">
<title>Node25&#45;&gt;Node13</title>
<path fill="none" stroke="midnightblue" d="M1716.43,-224.47C1755.95,-214.02 1808.54,-194.41 1784,-168 1764.13,-146.61 1330.15,-128.9 1204.69,-124.22"/>
<polygon fill="midnightblue" stroke="midnightblue" points="1204.65,-120.71 1194.52,-123.84 1204.39,-127.71 1204.65,-120.71"/>
</g>
<!-- Node25&#45;&gt;Node17 -->
<g id="edge31" class="edge">
<title>Node25&#45;&gt;Node17</title>
<path fill="none" stroke="midnightblue" d="M1652.96,-224.44C1626.38,-215.36 1584.19,-200.94 1554.48,-190.78"/>
<polygon fill="midnightblue" stroke="midnightblue" points="1555.51,-187.44 1544.92,-187.52 1553.25,-194.06 1555.51,-187.44"/>
</g>
<!-- Node25&#45;&gt;Node22 -->
<g id="edge32" class="edge">
<title>Node25&#45;&gt;Node22</title>
<path fill="none" stroke="midnightblue" d="M1733.62,-224.56C1798.54,-214.72 1905.55,-198.48 1972.78,-188.29"/>
<polygon fill="midnightblue" stroke="midnightblue" points="1973.44,-191.73 1982.8,-186.77 1972.39,-184.8 1973.44,-191.73"/>
</g>
<!-- Node26 -->
<g id="node26" class="node">
<title>Node26</title>
<g id="a_node26"><a xlink:title=" ">
<polygon fill="none" stroke="#bfbfbf" points="1719,-168.5 1719,-187.5 1775,-187.5 1775,-168.5 1719,-168.5"/>
<text text-anchor="middle" x="1747" y="-175.5" font-family="Helvetica,sans-Serif" font-size="10.00">optional</text>
</a>
</g>
</g>
<!-- Node25&#45;&gt;Node26 -->
<g id="edge29" class="edge">
<title>Node25&#45;&gt;Node26</title>
<path fill="none" stroke="midnightblue" d="M1689.09,-224.32C1699.49,-216.18 1715.26,-203.84 1727.72,-194.09"/>
<polygon fill="midnightblue" stroke="midnightblue" points="1729.99,-196.75 1735.71,-187.83 1725.68,-191.24 1729.99,-196.75"/>
</g>
<!-- Node27&#45;&gt;Node13 -->
<g id="edge60" class="edge">
<title>Node27&#45;&gt;Node13</title>
<path fill="none" stroke="midnightblue" d="M686,-280.42C681.37,-258.19 672.59,-198.31 704,-168 735.1,-137.99 1035.62,-126.81 1137.45,-123.86"/>
<polygon fill="midnightblue" stroke="midnightblue" points="1137.6,-127.36 1147.5,-123.58 1137.4,-120.36 1137.6,-127.36"/>
</g>
<!-- Node27&#45;&gt;Node26 -->
<g id="edge59" class="edge">
<title>Node27&#45;&gt;Node26</title>
<path fill="none" stroke="midnightblue" d="M724.32,-289.46C838.24,-290.37 1198.38,-289.2 1492,-244 1571.25,-231.8 1661.7,-205.77 1710.73,-190.62"/>
<polygon fill="midnightblue" stroke="midnightblue" points="1712.05,-193.87 1720.55,-187.56 1709.96,-187.19 1712.05,-193.87"/>
</g>
<!-- Node27&#45;&gt;Node28 -->
<g id="edge34" class="edge">
<title>Node27&#45;&gt;Node28</title>
<path fill="none" stroke="midnightblue" d="M677.72,-280.32C668.16,-272.26 653.72,-260.08 642.22,-250.37"/>
<polygon fill="midnightblue" stroke="midnightblue" points="644.37,-247.61 634.47,-243.83 639.86,-252.96 644.37,-247.61"/>
</g>
<!-- Node27&#45;&gt;Node31 -->
<g id="edge40" class="edge">
<title>Node27&#45;&gt;Node31</title>
<path fill="none" stroke="midnightblue" d="M651.96,-280.86C606.35,-270.55 528.34,-252.93 483.48,-242.79"/>
<polygon fill="midnightblue" stroke="midnightblue" points="484.16,-239.36 473.64,-240.57 482.62,-246.18 484.16,-239.36"/>
</g>
<!-- Node28&#45;&gt;Node5 -->
<g id="edge35" class="edge">
<title>Node28&#45;&gt;Node5</title>
<path fill="none" stroke="midnightblue" d="M625.18,-224.08C628.65,-197.95 638.82,-121.21 643.54,-85.58"/>
<polygon fill="midnightblue" stroke="midnightblue" points="647.02,-85.94 644.86,-75.57 640.08,-85.02 647.02,-85.94"/>
</g>
<!-- Node28&#45;&gt;Node9 -->
<g id="edge39" class="edge">
<title>Node28&#45;&gt;Node9</title>
<path fill="none" stroke="midnightblue" d="M644.28,-224.44C665.35,-215.56 698.52,-201.56 722.49,-191.45"/>
<polygon fill="midnightblue" stroke="midnightblue" points="723.96,-194.63 731.81,-187.52 721.24,-188.18 723.96,-194.63"/>
</g>
<!-- Node28&#45;&gt;Node29 -->
<g id="edge36" class="edge">
<title>Node28&#45;&gt;Node29</title>
<path fill="none" stroke="midnightblue" d="M593.26,-224.39C533.47,-207.67 405.56,-172.1 385,-168 278.53,-146.74 151.65,-133.27 84.37,-127.05"/>
<polygon fill="midnightblue" stroke="midnightblue" points="84.38,-123.54 74.1,-126.11 83.74,-130.51 84.38,-123.54"/>
</g>
<!-- Node29&#45;&gt;Node19 -->
<g id="edge38" class="edge">
<title>Node29&#45;&gt;Node19</title>
<path fill="none" stroke="midnightblue" d="M74.02,-114.31C78.72,-113.51 83.47,-112.72 88,-112 192.24,-95.43 316.2,-78.76 373.72,-71.2"/>
<polygon fill="midnightblue" stroke="midnightblue" points="374.53,-74.62 383.99,-69.85 373.62,-67.68 374.53,-74.62"/>
</g>
<!-- Node30 -->
<g id="node30" class="node">
<title>Node30</title>
<g id="a_node30"><a xlink:title=" ">
<polygon fill="none" stroke="#bfbfbf" points="148.5,-56.5 148.5,-75.5 213.5,-75.5 213.5,-56.5 148.5,-56.5"/>
<text text-anchor="middle" x="181" y="-63.5" font-family="Helvetica,sans-Serif" font-size="10.00">functional</text>
</a>
</g>
</g>
<!-- Node29&#45;&gt;Node30 -->
<g id="edge37" class="edge">
<title>Node29&#45;&gt;Node30</title>
<path fill="none" stroke="midnightblue" d="M59.82,-112.44C83.83,-103.44 121.83,-89.19 148.87,-79.05"/>
<polygon fill="midnightblue" stroke="midnightblue" points="150.16,-82.3 158.29,-75.52 147.7,-75.75 150.16,-82.3"/>
</g>
<!-- Node32 -->
<g id="node32" class="node">
<title>Node32</title>
<g id="a_node32"><a xlink:href="analysis_8h.html" target="_top" xlink:title=" ">
<polygon fill="none" stroke="red" points="552,-168.5 552,-187.5 618,-187.5 618,-168.5 552,-168.5"/>
<text text-anchor="middle" x="585" y="-175.5" font-family="Helvetica,sans-Serif" font-size="10.00">analysis.h</text>
</a>
</g>
</g>
<!-- Node31&#45;&gt;Node32 -->
<g id="edge41" class="edge">
<title>Node31&#45;&gt;Node32</title>
<path fill="none" stroke="midnightblue" d="M470.55,-224.44C493.03,-215.52 528.49,-201.44 553.98,-191.32"/>
<polygon fill="midnightblue" stroke="midnightblue" points="555.55,-194.46 563.55,-187.52 552.97,-187.95 555.55,-194.46"/>
</g>
<!-- Node34 -->
<g id="node33" class="node">
<title>Node34</title>
<g id="a_node33"><a xlink:href="country_8h.html" target="_top" xlink:title=" ">
<polygon fill="none" stroke="black" points="375.5,-112.5 375.5,-131.5 436.5,-131.5 436.5,-112.5 375.5,-112.5"/>
<text text-anchor="middle" x="406" y="-119.5" font-family="Helvetica,sans-Serif" font-size="10.00">country.h</text>
</a>
</g>
</g>
<!-- Node31&#45;&gt;Node34 -->
<g id="edge45" class="edge">
<title>Node31&#45;&gt;Node34</title>
<path fill="none" stroke="midnightblue" d="M445.63,-224.37C438.62,-206.46 422.39,-164.92 413.02,-140.95"/>
<polygon fill="midnightblue" stroke="midnightblue" points="416.26,-139.63 409.36,-131.59 409.74,-142.18 416.26,-139.63"/>
</g>
<!-- Node35 -->
<g id="node34" class="node">
<title>Node35</title>
<g id="a_node34"><a xlink:href="HealthGPS_8Core_2disease_8h.html" target="_top" xlink:title=" ">
<polygon fill="none" stroke="red" points="470.5,-168.5 470.5,-187.5 533.5,-187.5 533.5,-168.5 470.5,-168.5"/>
<text text-anchor="middle" x="502" y="-175.5" font-family="Helvetica,sans-Serif" font-size="10.00">disease.h</text>
</a>
</g>
</g>
<!-- Node31&#45;&gt;Node35 -->
<g id="edge47" class="edge">
<title>Node31&#45;&gt;Node35</title>
<path fill="none" stroke="midnightblue" d="M457.75,-224.08C465.47,-216.22 476.9,-204.57 486.22,-195.08"/>
<polygon fill="midnightblue" stroke="midnightblue" points="488.9,-197.34 493.41,-187.75 483.91,-192.44 488.9,-197.34"/>
</g>
<!-- Node38 -->
<g id="node37" class="node">
<title>Node38</title>
<g id="a_node37"><a xlink:href="indicator_8h.html" target="_top" xlink:title=" ">
<polygon fill="none" stroke="black" points="168,-112.5 168,-131.5 236,-131.5 236,-112.5 168,-112.5"/>
<text text-anchor="middle" x="202" y="-119.5" font-family="Helvetica,sans-Serif" font-size="10.00">indicator.h</text>
</a>
</g>
</g>
<!-- Node31&#45;&gt;Node38 -->
<g id="edge55" class="edge">
<title>Node31&#45;&gt;Node38</title>
<path fill="none" stroke="midnightblue" d="M424.07,-232.83C362.68,-231.83 206.91,-225.57 175,-188 163.08,-173.96 174.55,-153.92 186.01,-139.82"/>
<polygon fill="midnightblue" stroke="midnightblue" points="188.98,-141.74 192.93,-131.9 183.71,-137.13 188.98,-141.74"/>
</g>
<!-- Node39 -->
<g id="node38" class="node">
<title>Node39</title>
<g id="a_node38"><a xlink:href="mortality_8h.html" target="_top" xlink:title=" ">
<polygon fill="none" stroke="red" points="306.5,-168.5 306.5,-187.5 375.5,-187.5 375.5,-168.5 306.5,-168.5"/>
<text text-anchor="middle" x="341" y="-175.5" font-family="Helvetica,sans-Serif" font-size="10.00">mortality.h</text>
</a>
</g>
</g>
<!-- Node31&#45;&gt;Node39 -->
<g id="edge57" class="edge">
<title>Node31&#45;&gt;Node39</title>
<path fill="none" stroke="midnightblue" d="M431.65,-224.32C414.33,-215.66 387.48,-202.24 367.5,-192.25"/>
<polygon fill="midnightblue" stroke="midnightblue" points="368.82,-189 358.31,-187.65 365.69,-195.26 368.82,-189"/>
</g>
<!-- Node41 -->
<g id="node39" class="node">
<title>Node41</title>
<g id="a_node39"><a xlink:href="population__item_8h.html" target="_top" xlink:title=" ">
<polygon fill="none" stroke="red" points="183.5,-168.5 183.5,-187.5 288.5,-187.5 288.5,-168.5 183.5,-168.5"/>
<text text-anchor="middle" x="236" y="-175.5" font-family="Helvetica,sans-Serif" font-size="10.00">population_item.h</text>
</a>
</g>
</g>
<!-- Node31&#45;&gt;Node41 -->
<g id="edge58" class="edge">
<title>Node31&#45;&gt;Node41</title>
<path fill="none" stroke="midnightblue" d="M424.15,-226.7C388.72,-217.72 323.16,-201.1 279.56,-190.04"/>
<polygon fill="midnightblue" stroke="midnightblue" points="280.34,-186.63 269.79,-187.57 278.62,-193.42 280.34,-186.63"/>
</g>
<!-- Node32&#45;&gt;Node5 -->
<g id="edge42" class="edge">
<title>Node32&#45;&gt;Node5</title>
<path fill="none" stroke="midnightblue" d="M589.79,-168.37C599.76,-150.38 622.96,-108.55 636.23,-84.63"/>
<polygon fill="midnightblue" stroke="midnightblue" points="639.45,-86.03 641.24,-75.59 633.33,-82.64 639.45,-86.03"/>
</g>
<!-- Node32&#45;&gt;Node13 -->
<g id="edge44" class="edge">
<title>Node32&#45;&gt;Node13</title>
<path fill="none" stroke="midnightblue" d="M618.09,-173.37C633.81,-171.68 652.87,-169.68 670,-168 845.72,-150.81 1056.36,-132.7 1137.17,-125.85"/>
<polygon fill="midnightblue" stroke="midnightblue" points="1137.59,-129.33 1147.26,-125 1137,-122.35 1137.59,-129.33"/>
</g>
<!-- Node32&#45;&gt;Node19 -->
<g id="edge43" class="edge">
<title>Node32&#45;&gt;Node19</title>
<path fill="none" stroke="midnightblue" d="M570.95,-168.37C540.11,-149.41 466.21,-104 428.69,-80.94"/>
<polygon fill="midnightblue" stroke="midnightblue" points="430.33,-77.85 419.98,-75.59 426.67,-83.81 430.33,-77.85"/>
</g>
<!-- Node34&#45;&gt;Node19 -->
<g id="edge46" class="edge">
<title>Node34&#45;&gt;Node19</title>
<path fill="none" stroke="midnightblue" d="M406,-112.08C406,-105.01 406,-94.86 406,-85.99"/>
<polygon fill="midnightblue" stroke="midnightblue" points="409.5,-85.75 406,-75.75 402.5,-85.75 409.5,-85.75"/>
</g>
<!-- Node35&#45;&gt;Node5 -->
<g id="edge50" class="edge">
<title>Node35&#45;&gt;Node5</title>
<path fill="none" stroke="midnightblue" d="M513.3,-168.37C537.8,-149.65 596.06,-105.15 626.58,-81.83"/>
<polygon fill="midnightblue" stroke="midnightblue" points="628.93,-84.44 634.75,-75.59 624.68,-78.88 628.93,-84.44"/>
</g>
<!-- Node35&#45;&gt;Node13 -->
<g id="edge49" class="edge">
<title>Node35&#45;&gt;Node13</title>
<path fill="none" stroke="midnightblue" d="M533.7,-169.57C536.83,-168.98 539.97,-168.44 543,-168 768.52,-135.34 1043.18,-126.03 1137.41,-123.7"/>
<polygon fill="midnightblue" stroke="midnightblue" points="1137.57,-127.2 1147.49,-123.46 1137.41,-120.2 1137.57,-127.2"/>
</g>
<!-- Node35&#45;&gt;Node19 -->
<g id="edge48" class="edge">
<title>Node35&#45;&gt;Node19</title>
<path fill="none" stroke="midnightblue" d="M494.43,-168.13C483.71,-155.58 463.46,-131.95 446,-112 437.64,-102.44 428.2,-91.82 420.6,-83.3"/>
<polygon fill="midnightblue" stroke="midnightblue" points="422.98,-80.72 413.71,-75.59 417.76,-85.38 422.98,-80.72"/>
</g>
<!-- Node35&#45;&gt;Node36 -->
<g id="edge51" class="edge">
<title>Node35&#45;&gt;Node36</title>
<path fill="none" stroke="midnightblue" d="M473.64,-168.44C443.26,-159.28 394.89,-144.69 361.18,-134.52"/>
<polygon fill="midnightblue" stroke="midnightblue" points="361.82,-131.05 351.23,-131.52 359.79,-137.76 361.82,-131.05"/>
</g>
<!-- Node36&#45;&gt;Node19 -->
<g id="edge54" class="edge">
<title>Node36&#45;&gt;Node19</title>
<path fill="none" stroke="midnightblue" d="M336.34,-112.32C349.16,-103.98 368.78,-91.21 383.94,-81.35"/>
<polygon fill="midnightblue" stroke="midnightblue" points="386.22,-84.04 392.7,-75.65 382.41,-78.17 386.22,-84.04"/>
</g>
<!-- Node36&#45;&gt;Node30 -->
<g id="edge52" class="edge">
<title>Node36&#45;&gt;Node30</title>
<path fill="none" stroke="midnightblue" d="M300.5,-112.44C276.92,-103.48 239.68,-89.31 213.04,-79.18"/>
<polygon fill="midnightblue" stroke="midnightblue" points="213.99,-75.8 203.4,-75.52 211.5,-82.34 213.99,-75.8"/>
</g>
<!-- Node37 -->
<g id="node36" class="node">
<title>Node37</title>
<g id="a_node36"><a xlink:title=" ">
<polygon fill="none" stroke="#bfbfbf" points="1662.5,-56.5 1662.5,-75.5 1719.5,-75.5 1719.5,-56.5 1662.5,-56.5"/>
<text text-anchor="middle" x="1691" y="-63.5" font-family="Helvetica,sans-Serif" font-size="10.00">ostream</text>
</a>
</g>
</g>
<!-- Node36&#45;&gt;Node37 -->
<g id="edge53" class="edge">
<title>Node36&#45;&gt;Node37</title>
<path fill="none" stroke="midnightblue" d="M357.02,-113.45C360.38,-112.89 363.75,-112.39 367,-112 625.48,-81.39 1461.91,-69.73 1652.22,-67.44"/>
<polygon fill="midnightblue" stroke="midnightblue" points="1652.36,-70.94 1662.32,-67.32 1652.28,-63.94 1652.36,-70.94"/>
</g>
<!-- Node38&#45;&gt;Node19 -->
<g id="edge56" class="edge">
<title>Node38&#45;&gt;Node19</title>
<path fill="none" stroke="midnightblue" d="M234.32,-112.44C272.53,-102.33 335.71,-85.61 373.84,-75.51"/>
<polygon fill="midnightblue" stroke="midnightblue" points="375.12,-78.8 383.89,-72.85 373.32,-72.03 375.12,-78.8"/>
</g>
<!-- Node42&#45;&gt;Node8 -->
<g id="edge62" class="edge">
<title>Node42&#45;&gt;Node8</title>
<path fill="none" stroke="midnightblue" d="M1429.01,-224.32C1410.96,-215.62 1382.95,-202.12 1362.2,-192.11"/>
<polygon fill="midnightblue" stroke="midnightblue" points="1363.48,-188.84 1352.95,-187.65 1360.44,-195.15 1363.48,-188.84"/>
</g>
<!-- Node42&#45;&gt;Node10 -->
<g id="edge63" class="edge">
<title>Node42&#45;&gt;Node10</title>
<path fill="none" stroke="midnightblue" d="M1410.97,-224.5C1369.1,-214.63 1300.28,-198.4 1257.14,-188.23"/>
<polygon fill="midnightblue" stroke="midnightblue" points="1257.82,-184.79 1247.28,-185.91 1256.21,-191.61 1257.82,-184.79"/>
</g>
<!-- Node42&#45;&gt;Node13 -->
<g id="edge68" class="edge">
<title>Node42&#45;&gt;Node13</title>
<path fill="none" stroke="midnightblue" d="M1440.17,-224.29C1428.57,-210.14 1403.59,-182.32 1376,-168 1320.39,-139.14 1247.01,-128.75 1204.81,-125.04"/>
<polygon fill="midnightblue" stroke="midnightblue" points="1205.04,-121.54 1194.79,-124.23 1204.47,-128.52 1205.04,-121.54"/>
</g>
<!-- Node42&#45;&gt;Node17 -->
<g id="edge69" class="edge">
<title>Node42&#45;&gt;Node17</title>
<path fill="none" stroke="midnightblue" d="M1458.73,-224.32C1469.84,-216.11 1486.74,-203.6 1499.98,-193.81"/>
<polygon fill="midnightblue" stroke="midnightblue" points="1502.1,-196.59 1508.06,-187.83 1497.94,-190.97 1502.1,-196.59"/>
</g>
<!-- Node42&#45;&gt;Node26 -->
<g id="edge65" class="edge">
<title>Node42&#45;&gt;Node26</title>
<path fill="none" stroke="midnightblue" d="M1483.4,-227.1C1533.43,-218.9 1626.22,-203.3 1705,-188 1706.24,-187.76 1707.49,-187.51 1708.76,-187.26"/>
<polygon fill="midnightblue" stroke="midnightblue" points="1709.47,-190.69 1718.56,-185.25 1708.06,-183.83 1709.47,-190.69"/>
</g>
<!-- Node42&#45;&gt;Node37 -->
<g id="edge66" class="edge">
<title>Node42&#45;&gt;Node37</title>
<path fill="none" stroke="midnightblue" d="M1483.21,-225C1484.83,-224.66 1486.43,-224.33 1488,-224 1569.59,-207.07 1614.19,-248.02 1672,-188 1698.34,-160.65 1697.18,-112.58 1694.07,-86"/>
<polygon fill="midnightblue" stroke="midnightblue" points="1697.48,-85.18 1692.64,-75.76 1690.55,-86.14 1697.48,-85.18"/>
</g>
<!-- Node43 -->
<g id="node41" class="node">
<title>Node43</title>
<g id="a_node41"><a xlink:title=" ">
<polygon fill="none" stroke="#bfbfbf" points="1423,-168.5 1423,-187.5 1471,-187.5 1471,-168.5 1423,-168.5"/>
<text text-anchor="middle" x="1447" y="-175.5" font-family="Helvetica,sans-Serif" font-size="10.00">mutex</text>
</a>
</g>
</g>
<!-- Node42&#45;&gt;Node43 -->
<g id="edge64" class="edge">
<title>Node42&#45;&gt;Node43</title>
<path fill="none" stroke="midnightblue" d="M1447,-224.08C1447,-217.01 1447,-206.86 1447,-197.99"/>
<polygon fill="midnightblue" stroke="midnightblue" points="1450.5,-197.75 1447,-187.75 1443.5,-197.75 1450.5,-197.75"/>
</g>
<!-- Node44 -->
<g id="node42" class="node">
<title>Node44</title>
<g id="a_node42"><a xlink:title=" ">
<polygon fill="none" stroke="#bfbfbf" points="1569.5,-168.5 1569.5,-187.5 1662.5,-187.5 1662.5,-168.5 1569.5,-168.5"/>
<text text-anchor="middle" x="1616" y="-175.5" font-family="Helvetica,sans-Serif" font-size="10.00">unordered_map</text>
</a>
</g>
</g>
<!-- Node42&#45;&gt;Node44 -->
<g id="edge67" class="edge">
<title>Node42&#45;&gt;Node44</title>
<path fill="none" stroke="midnightblue" d="M1473.78,-224.44C1502.33,-215.32 1547.73,-200.81 1579.54,-190.65"/>
<polygon fill="midnightblue" stroke="midnightblue" points="1580.89,-193.89 1589.35,-187.52 1578.76,-187.23 1580.89,-193.89"/>
</g>
<!-- Node45&#45;&gt;Node13 -->
<g id="edge77" class="edge">
<title>Node45&#45;&gt;Node13</title>
<path fill="none" stroke="midnightblue" d="M1838.54,-224.41C1833.89,-209.92 1822.3,-180.92 1801,-168 1775.32,-152.42 1332.07,-130.55 1204.87,-124.56"/>
<polygon fill="midnightblue" stroke="midnightblue" points="1204.72,-121.05 1194.57,-124.08 1204.4,-128.05 1204.72,-121.05"/>
</g>
<!-- Node45&#45;&gt;Node19 -->
<g id="edge76" class="edge">
<title>Node45&#45;&gt;Node19</title>
<path fill="none" stroke="midnightblue" d="M1841.49,-224.35C1841.76,-210.28 1840.07,-182.57 1824,-168 1748.65,-99.68 1695.52,-160.9 1598,-132 1577.02,-125.78 1574.32,-116.94 1553,-112 1344.82,-63.73 805.51,-85.16 592,-76 538.06,-73.68 475.33,-70.56 438.24,-68.67"/>
<polygon fill="midnightblue" stroke="midnightblue" points="438.21,-65.16 428.04,-68.14 437.85,-72.15 438.21,-65.16"/>
</g>
<!-- Node45&#45;&gt;Node26 -->
<g id="edge74" class="edge">
<title>Node45&#45;&gt;Node26</title>
<path fill="none" stroke="midnightblue" d="M1825.9,-224.32C1811.1,-215.82 1788.31,-202.73 1771.02,-192.8"/>
<polygon fill="midnightblue" stroke="midnightblue" points="1772.48,-189.6 1762.07,-187.65 1768.99,-195.67 1772.48,-189.6"/>
</g>
<!-- Node45&#45;&gt;Node37 -->
<g id="edge75" class="edge">
<title>Node45&#45;&gt;Node37</title>
<path fill="none" stroke="midnightblue" d="M1856.64,-224.47C1876.44,-212.5 1906.45,-189.76 1893,-168 1857.38,-110.36 1777.79,-84.51 1729.84,-73.8"/>
<polygon fill="midnightblue" stroke="midnightblue" points="1730.33,-70.33 1719.82,-71.68 1728.88,-77.18 1730.33,-70.33"/>
</g>
<!-- Node46&#45;&gt;Node19 -->
<g id="edge79" class="edge">
<title>Node46&#45;&gt;Node19</title>
<path fill="none" stroke="midnightblue" d="M96.22,-280.33C97.45,-251.39 105.57,-157.42 159,-112 190.89,-84.89 313.94,-73.13 373.43,-68.95"/>
<polygon fill="midnightblue" stroke="midnightblue" points="374.02,-72.42 383.76,-68.25 373.55,-65.43 374.02,-72.42"/>
</g>
</g>
</svg>
