<?xml version="1.0" encoding="UTF-8" standalone="no"?>
<!DOCTYPE svg PUBLIC "-//W3C//DTD SVG 1.1//EN"
 "http://www.w3.org/Graphics/SVG/1.1/DTD/svg11.dtd">
<!-- Generated by graphviz version 2.43.0 (0)
 -->
<!-- Title: HealthGPS.Core/datatable.h Pages: 1 -->
<svg width="757pt" height="252pt"
 viewBox="0.00 0.00 757.00 252.00" xmlns="http://www.w3.org/2000/svg" xmlns:xlink="http://www.w3.org/1999/xlink">
<g id="graph0" class="graph" transform="scale(1 1) rotate(0) translate(4 248)">
<title>HealthGPS.Core/datatable.h</title>
<!-- Node1 -->
<g id="node1" class="node">
<title>Node1</title>
<g id="a_node1"><a xlink:title=" ">
<polygon fill="#bfbfbf" stroke="black" points="226,-224.5 226,-243.5 378,-243.5 378,-224.5 226,-224.5"/>
<text text-anchor="middle" x="302" y="-231.5" font-family="Helvetica,sans-Serif" font-size="10.00">HealthGPS.Core/datatable.h</text>
</a>
</g>
</g>
<!-- Node2 -->
<g id="node2" class="node">
<title>Node2</title>
<g id="a_node2"><a xlink:title=" ">
<polygon fill="none" stroke="#bfbfbf" points="0,-168.5 0,-187.5 58,-187.5 58,-168.5 0,-168.5"/>
<text text-anchor="middle" x="29" y="-175.5" font-family="Helvetica,sans-Serif" font-size="10.00">memory</text>
</a>
</g>
</g>
<!-- Node1&#45;&gt;Node2 -->
<g id="edge1" class="edge">
<title>Node1&#45;&gt;Node2</title>
<path fill="none" stroke="midnightblue" d="M254.17,-224.47C208.73,-216.22 138.27,-203.07 67.94,-188.13"/>
<polygon fill="midnightblue" stroke="midnightblue" points="68.53,-184.68 58.02,-186.01 67.06,-191.52 68.53,-184.68"/>
</g>
<!-- Node3 -->
<g id="node3" class="node">
<title>Node3</title>
<g id="a_node3"><a xlink:title=" ">
<polygon fill="none" stroke="#bfbfbf" points="76,-168.5 76,-187.5 124,-187.5 124,-168.5 76,-168.5"/>
<text text-anchor="middle" x="100" y="-175.5" font-family="Helvetica,sans-Serif" font-size="10.00">mutex</text>
</a>
</g>
</g>
<!-- Node1&#45;&gt;Node3 -->
<g id="edge2" class="edge">
<title>Node1&#45;&gt;Node3</title>
<path fill="none" stroke="midnightblue" d="M269.59,-224.43C237.55,-215.95 186.87,-202.49 134.03,-188.27"/>
<polygon fill="midnightblue" stroke="midnightblue" points="134.71,-184.83 124.15,-185.6 132.89,-191.58 134.71,-184.83"/>
</g>
<!-- Node4 -->
<g id="node4" class="node">
<title>Node4</title>
<g id="a_node4"><a xlink:title=" ">
<polygon fill="none" stroke="#bfbfbf" points="142.5,-168.5 142.5,-187.5 189.5,-187.5 189.5,-168.5 142.5,-168.5"/>
<text text-anchor="middle" x="166" y="-175.5" font-family="Helvetica,sans-Serif" font-size="10.00">vector</text>
</a>
</g>
</g>
<!-- Node1&#45;&gt;Node4 -->
<g id="edge3" class="edge">
<title>Node1&#45;&gt;Node4</title>
<path fill="none" stroke="midnightblue" d="M280.45,-224.44C257.97,-215.52 222.51,-201.44 197.02,-191.32"/>
<polygon fill="midnightblue" stroke="midnightblue" points="198.03,-187.95 187.45,-187.52 195.45,-194.46 198.03,-187.95"/>
</g>
<!-- Node5 -->
<g id="node5" class="node">
<title>Node5</title>
<g id="a_node5"><a xlink:title=" ">
<polygon fill="none" stroke="#bfbfbf" points="207.5,-168.5 207.5,-187.5 300.5,-187.5 300.5,-168.5 207.5,-168.5"/>
<text text-anchor="middle" x="254" y="-175.5" font-family="Helvetica,sans-Serif" font-size="10.00">unordered_map</text>
</a>
</g>
</g>
<!-- Node1&#45;&gt;Node5 -->
<g id="edge4" class="edge">
<title>Node1&#45;&gt;Node5</title>
<path fill="none" stroke="midnightblue" d="M294.07,-224.08C287.15,-216.3 276.93,-204.8 268.55,-195.37"/>
<polygon fill="midnightblue" stroke="midnightblue" points="271.04,-192.9 261.78,-187.75 265.81,-197.55 271.04,-192.9"/>
</g>
<!-- Node6 -->
<g id="node6" class="node">
<title>Node6</title>
<g id="a_node6"><a xlink:title=" ">
<polygon fill="none" stroke="#bfbfbf" points="319,-168.5 319,-187.5 383,-187.5 383,-168.5 319,-168.5"/>
<text text-anchor="middle" x="351" y="-175.5" font-family="Helvetica,sans-Serif" font-size="10.00">algorithm</text>
</a>
</g>
</g>
<!-- Node1&#45;&gt;Node6 -->
<g id="edge5" class="edge">
<title>Node1&#45;&gt;Node6</title>
<path fill="none" stroke="midnightblue" d="M310.09,-224.08C317.16,-216.3 327.59,-204.8 336.15,-195.37"/>
<polygon fill="midnightblue" stroke="midnightblue" points="338.93,-197.51 343.06,-187.75 333.75,-192.8 338.93,-197.51"/>
</g>
<!-- Node7 -->
<g id="node7" class="node">
<title>Node7</title>
<g id="a_node7"><a xlink:title=" ">
<polygon fill="none" stroke="#bfbfbf" points="401,-168.5 401,-187.5 457,-187.5 457,-168.5 401,-168.5"/>
<text text-anchor="middle" x="429" y="-175.5" font-family="Helvetica,sans-Serif" font-size="10.00">optional</text>
</a>
</g>
</g>
<!-- Node1&#45;&gt;Node7 -->
<g id="edge6" class="edge">
<title>Node1&#45;&gt;Node7</title>
<path fill="none" stroke="midnightblue" d="M322.12,-224.44C343.02,-215.56 375.93,-201.56 399.72,-191.45"/>
<polygon fill="midnightblue" stroke="midnightblue" points="401.14,-194.65 408.97,-187.52 398.4,-188.21 401.14,-194.65"/>
</g>
<!-- Node8 -->
<g id="node8" class="node">
<title>Node8</title>
<g id="a_node8"><a xlink:title=" ">
<polygon fill="none" stroke="#bfbfbf" points="475.5,-168.5 475.5,-187.5 532.5,-187.5 532.5,-168.5 475.5,-168.5"/>
<text text-anchor="middle" x="504" y="-175.5" font-family="Helvetica,sans-Serif" font-size="10.00">ostream</text>
</a>
</g>
</g>
<!-- Node1&#45;&gt;Node8 -->
<g id="edge7" class="edge">
<title>Node1&#45;&gt;Node8</title>
<path fill="none" stroke="midnightblue" d="M334.01,-224.44C369.75,-214.89 427.57,-199.43 465.69,-189.24"/>
<polygon fill="midnightblue" stroke="midnightblue" points="466.65,-192.61 475.41,-186.64 464.84,-185.84 466.65,-192.61"/>
</g>
<!-- Node9 -->
<g id="node9" class="node">
<title>Node9</title>
<g id="a_node9"><a xlink:href="column_8h.html" target="_top" xlink:title=" ">
<polygon fill="none" stroke="black" points="551,-168.5 551,-187.5 613,-187.5 613,-168.5 551,-168.5"/>
<text text-anchor="middle" x="582" y="-175.5" font-family="Helvetica,sans-Serif" font-size="10.00">column.h</text>
</a>
</g>
</g>
<!-- Node1&#45;&gt;Node9 -->
<g id="edge8" class="edge">
<title>Node1&#45;&gt;Node9</title>
<path fill="none" stroke="midnightblue" d="M350.37,-224.46C396.73,-216.15 468.93,-202.91 540.49,-188.26"/>
<polygon fill="midnightblue" stroke="midnightblue" points="541.49,-191.63 550.58,-186.18 540.08,-184.77 541.49,-191.63"/>
</g>
<!-- Node10 -->
<g id="node10" class="node">
<title>Node10</title>
<g id="a_node10"><a xlink:title=" ">
<polygon fill="none" stroke="#bfbfbf" points="466.5,-112.5 466.5,-131.5 501.5,-131.5 501.5,-112.5 466.5,-112.5"/>
<text text-anchor="middle" x="484" y="-119.5" font-family="Helvetica,sans-Serif" font-size="10.00">any</text>
</a>
</g>
</g>
<!-- Node9&#45;&gt;Node10 -->
<g id="edge9" class="edge">
<title>Node9&#45;&gt;Node10</title>
<path fill="none" stroke="midnightblue" d="M566.25,-168.32C550.68,-159.74 526.62,-146.49 508.54,-136.52"/>
<polygon fill="midnightblue" stroke="midnightblue" points="510.15,-133.42 499.71,-131.65 506.78,-139.55 510.15,-133.42"/>
</g>
<!-- Node11 -->
<g id="node11" class="node">
<title>Node11</title>
<g id="a_node11"><a xlink:title=" ">
<polygon fill="none" stroke="#bfbfbf" points="519.5,-112.5 519.5,-131.5 576.5,-131.5 576.5,-112.5 519.5,-112.5"/>
<text text-anchor="middle" x="548" y="-119.5" font-family="Helvetica,sans-Serif" font-size="10.00">typeinfo</text>
</a>
</g>
</g>
<!-- Node9&#45;&gt;Node11 -->
<g id="edge10" class="edge">
<title>Node9&#45;&gt;Node11</title>
<path fill="none" stroke="midnightblue" d="M576.39,-168.08C571.63,-160.53 564.68,-149.49 558.85,-140.23"/>
<polygon fill="midnightblue" stroke="midnightblue" points="561.8,-138.35 553.51,-131.75 555.88,-142.08 561.8,-138.35"/>
</g>
<!-- Node12 -->
<g id="node12" class="node">
<title>Node12</title>
<g id="a_node12"><a xlink:title=" ">
<polygon fill="none" stroke="#bfbfbf" points="595,-112.5 595,-131.5 639,-131.5 639,-112.5 595,-112.5"/>
<text text-anchor="middle" x="617" y="-119.5" font-family="Helvetica,sans-Serif" font-size="10.00">string</text>
</a>
</g>
</g>
<!-- Node9&#45;&gt;Node12 -->
<g id="edge11" class="edge">
<title>Node9&#45;&gt;Node12</title>
<path fill="none" stroke="midnightblue" d="M587.78,-168.08C592.67,-160.53 599.83,-149.49 605.83,-140.23"/>
<polygon fill="midnightblue" stroke="midnightblue" points="608.83,-142.05 611.33,-131.75 602.95,-138.24 608.83,-142.05"/>
</g>
<!-- Node13 -->
<g id="node13" class="node">
<title>Node13</title>
<g id="a_node13"><a xlink:href="visitor_8h.html" target="_top" xlink:title=" ">
<polygon fill="none" stroke="black" points="657,-112.5 657,-131.5 713,-131.5 713,-112.5 657,-112.5"/>
<text text-anchor="middle" x="685" y="-119.5" font-family="Helvetica,sans-Serif" font-size="10.00">visitor.h</text>
</a>
</g>
</g>
<!-- Node9&#45;&gt;Node13 -->
<g id="edge12" class="edge">
<title>Node9&#45;&gt;Node13</title>
<path fill="none" stroke="midnightblue" d="M598.55,-168.32C614.99,-159.7 640.43,-146.36 659.47,-136.39"/>
<polygon fill="midnightblue" stroke="midnightblue" points="661.26,-139.4 668.49,-131.65 658.01,-133.2 661.26,-139.4"/>
</g>
<!-- Node14 -->
<g id="node14" class="node">
<title>Node14</title>
<g id="a_node14"><a xlink:href="forward__type_8h.html" target="_top" xlink:title=" ">
<polygon fill="none" stroke="black" points="640,-56.5 640,-75.5 730,-75.5 730,-56.5 640,-56.5"/>
<text text-anchor="middle" x="685" y="-63.5" font-family="Helvetica,sans-Serif" font-size="10.00">forward_type.h</text>
</a>
</g>
</g>
<!-- Node13&#45;&gt;Node14 -->
<g id="edge13" class="edge">
<title>Node13&#45;&gt;Node14</title>
<path fill="none" stroke="midnightblue" d="M685,-112.08C685,-105.01 685,-94.86 685,-85.99"/>
<polygon fill="midnightblue" stroke="midnightblue" points="688.5,-85.75 685,-75.75 681.5,-85.75 688.5,-85.75"/>
</g>
<!-- Node15 -->
<g id="node15" class="node">
<title>Node15</title>
<g id="a_node15"><a xlink:title=" ">
<polygon fill="none" stroke="#bfbfbf" points="611.5,-0.5 611.5,-19.5 680.5,-19.5 680.5,-0.5 611.5,-0.5"/>
<text text-anchor="middle" x="646" y="-7.5" font-family="Helvetica,sans-Serif" font-size="10.00">type_traits</text>
</a>
</g>
</g>
<!-- Node14&#45;&gt;Node15 -->
<g id="edge14" class="edge">
<title>Node14&#45;&gt;Node15</title>
<path fill="none" stroke="midnightblue" d="M678.56,-56.08C673.05,-48.46 664.97,-37.26 658.24,-27.94"/>
<polygon fill="midnightblue" stroke="midnightblue" points="661.01,-25.81 652.32,-19.75 655.34,-29.91 661.01,-25.81"/>
</g>
<!-- Node16 -->
<g id="node16" class="node">
<title>Node16</title>
<g id="a_node16"><a xlink:title=" ">
<polygon fill="none" stroke="#bfbfbf" points="699,-0.5 699,-19.5 749,-19.5 749,-0.5 699,-0.5"/>
<text text-anchor="middle" x="724" y="-7.5" font-family="Helvetica,sans-Serif" font-size="10.00">cstdint</text>
</a>
</g>
</g>
<!-- Node14&#45;&gt;Node16 -->
<g id="edge15" class="edge">
<title>Node14&#45;&gt;Node16</title>
<path fill="none" stroke="midnightblue" d="M691.44,-56.08C696.95,-48.46 705.03,-37.26 711.76,-27.94"/>
<polygon fill="midnightblue" stroke="midnightblue" points="714.66,-29.91 717.68,-19.75 708.99,-25.81 714.66,-29.91"/>
</g>
</g>
</svg>
