<?xml version="1.0" encoding="UTF-8" standalone="no"?>
<!DOCTYPE svg PUBLIC "-//W3C//DTD SVG 1.1//EN"
 "http://www.w3.org/Graphics/SVG/1.1/DTD/svg11.dtd">
<!-- Generated by graphviz version 7.0.6 (20230106.0513)
 -->
<!-- Title: HealthGPS.Core/datastore.h Pages: 1 -->
<svg width="852pt" height="247pt"
 viewBox="0.00 0.00 851.50 247.00" xmlns="http://www.w3.org/2000/svg" xmlns:xlink="http://www.w3.org/1999/xlink">
<g id="graph0" class="graph" transform="scale(1 1) rotate(0) translate(4 243)">
<title>HealthGPS.Core/datastore.h</title>
<!-- Node1 -->
<g id="node1" class="node">
<title>Node1</title>
<g id="a_node1"><a xlink:title=" ">
<polygon fill="#999999" stroke="#666666" points="526.5,-239 386.5,-239 386.5,-220 526.5,-220 526.5,-239"/>
<text text-anchor="middle" x="456.5" y="-227" font-family="Helvetica,sans-Serif" font-size="10.00">HealthGPS.Core/datastore.h</text>
</a>
</g>
</g>
<!-- Node2 -->
<g id="node2" class="node">
<title>Node2</title>
<g id="a_node2"><a xlink:title=" ">
<polygon fill="#e0e0e0" stroke="#999999" points="456.5,-74 414.5,-74 414.5,-55 456.5,-55 456.5,-74"/>
<text text-anchor="middle" x="435.5" y="-62" font-family="Helvetica,sans-Serif" font-size="10.00">vector</text>
</a>
</g>
</g>
<!-- Node1&#45;&gt;Node2 -->
<g id="edge1" class="edge">
<title>Node1&#45;&gt;Node2</title>
<path fill="none" stroke="#63b8ff" d="M455.37,-219.74C452.12,-194.53 442.7,-121.36 438.09,-85.62"/>
<polygon fill="#63b8ff" stroke="#63b8ff" points="441.58,-85.28 436.83,-75.81 434.63,-86.17 441.58,-85.28"/>
</g>
<!-- Node3 -->
<g id="node3" class="node">
<title>Node3</title>
<g id="a_node3"><a xlink:title=" ">
<polygon fill="#e0e0e0" stroke="#999999" points="553.5,-184 503.5,-184 503.5,-165 553.5,-165 553.5,-184"/>
<text text-anchor="middle" x="528.5" y="-172" font-family="Helvetica,sans-Serif" font-size="10.00">optional</text>
</a>
</g>
</g>
<!-- Node1&#45;&gt;Node3 -->
<g id="edge2" class="edge">
<title>Node1&#45;&gt;Node3</title>
<path fill="none" stroke="#63b8ff" d="M468.71,-219.51C479.33,-211.7 494.94,-200.21 507.54,-190.93"/>
<polygon fill="#63b8ff" stroke="#63b8ff" points="509.27,-194 515.25,-185.26 505.12,-188.36 509.27,-194"/>
</g>
<!-- Node4 -->
<g id="node4" class="node">
<title>Node4</title>
<g id="a_node4"><a xlink:href="interval_8h.html" target="_top" xlink:title=" ">
<polygon fill="white" stroke="#666666" points="699,-129 644,-129 644,-110 699,-110 699,-129"/>
<text text-anchor="middle" x="671.5" y="-117" font-family="Helvetica,sans-Serif" font-size="10.00">interval.h</text>
</a>
</g>
</g>
<!-- Node1&#45;&gt;Node4 -->
<g id="edge3" class="edge">
<title>Node1&#45;&gt;Node4</title>
<path fill="none" stroke="#63b8ff" d="M459.32,-219.6C464.19,-205.73 475.52,-179.1 494.5,-165 535.07,-134.86 593.79,-125 632.3,-121.86"/>
<polygon fill="#63b8ff" stroke="#63b8ff" points="632.32,-125.36 642.05,-121.18 631.84,-118.38 632.32,-125.36"/>
</g>
<!-- Node12 -->
<g id="node12" class="node">
<title>Node12</title>
<g id="a_node12"><a xlink:href="poco_8h.html" target="_top" xlink:title=" ">
<polygon fill="white" stroke="#666666" points="321.5,-184 275.5,-184 275.5,-165 321.5,-165 321.5,-184"/>
<text text-anchor="middle" x="298.5" y="-172" font-family="Helvetica,sans-Serif" font-size="10.00">poco.h</text>
</a>
</g>
</g>
<!-- Node1&#45;&gt;Node12 -->
<g id="edge11" class="edge">
<title>Node1&#45;&gt;Node12</title>
<path fill="none" stroke="#63b8ff" d="M429.7,-219.51C402.96,-210.54 361.78,-196.73 332.7,-186.97"/>
<polygon fill="#63b8ff" stroke="#63b8ff" points="333.85,-183.67 323.26,-183.81 331.63,-190.3 333.85,-183.67"/>
</g>
<!-- Node5 -->
<g id="node5" class="node">
<title>Node5</title>
<g id="a_node5"><a xlink:href="forward__type_8h.html" target="_top" xlink:title=" ">
<polygon fill="white" stroke="#666666" points="757.5,-74 677.5,-74 677.5,-55 757.5,-55 757.5,-74"/>
<text text-anchor="middle" x="717.5" y="-62" font-family="Helvetica,sans-Serif" font-size="10.00">forward_type.h</text>
</a>
</g>
</g>
<!-- Node4&#45;&gt;Node5 -->
<g id="edge4" class="edge">
<title>Node4&#45;&gt;Node5</title>
<path fill="none" stroke="#63b8ff" d="M679.1,-109.75C685.38,-102.5 694.51,-91.98 702.3,-83.02"/>
<polygon fill="#63b8ff" stroke="#63b8ff" points="704.84,-85.43 708.75,-75.59 699.55,-80.84 704.84,-85.43"/>
</g>
<!-- Node8 -->
<g id="node8" class="node">
<title>Node8</title>
<g id="a_node8"><a xlink:href="string__util_8h.html" target="_top" xlink:title=" ">
<polygon fill="white" stroke="#666666" points="659,-74 592,-74 592,-55 659,-55 659,-74"/>
<text text-anchor="middle" x="625.5" y="-62" font-family="Helvetica,sans-Serif" font-size="10.00">string_util.h</text>
</a>
</g>
</g>
<!-- Node4&#45;&gt;Node8 -->
<g id="edge7" class="edge">
<title>Node4&#45;&gt;Node8</title>
<path fill="none" stroke="#63b8ff" d="M663.9,-109.75C657.62,-102.5 648.49,-91.98 640.7,-83.02"/>
<polygon fill="#63b8ff" stroke="#63b8ff" points="643.45,-80.84 634.25,-75.59 638.16,-85.43 643.45,-80.84"/>
</g>
<!-- Node11 -->
<g id="node11" class="node">
<title>Node11</title>
<g id="a_node11"><a xlink:title=" ">
<polygon fill="#e0e0e0" stroke="#999999" points="843.5,-74 775.5,-74 775.5,-55 843.5,-55 843.5,-74"/>
<text text-anchor="middle" x="809.5" y="-62" font-family="Helvetica,sans-Serif" font-size="10.00">fmt/format.h</text>
</a>
</g>
</g>
<!-- Node4&#45;&gt;Node11 -->
<g id="edge10" class="edge">
<title>Node4&#45;&gt;Node11</title>
<path fill="none" stroke="#63b8ff" d="M694.91,-109.51C717.15,-100.97 750.83,-88.03 775.92,-78.4"/>
<polygon fill="#63b8ff" stroke="#63b8ff" points="776.94,-81.75 785.02,-74.9 774.43,-75.22 776.94,-81.75"/>
</g>
<!-- Node6 -->
<g id="node6" class="node">
<title>Node6</title>
<g id="a_node6"><a xlink:title=" ">
<polygon fill="#e0e0e0" stroke="#999999" points="806.5,-19 744.5,-19 744.5,0 806.5,0 806.5,-19"/>
<text text-anchor="middle" x="775.5" y="-7" font-family="Helvetica,sans-Serif" font-size="10.00">type_traits</text>
</a>
</g>
</g>
<!-- Node5&#45;&gt;Node6 -->
<g id="edge5" class="edge">
<title>Node5&#45;&gt;Node6</title>
<path fill="none" stroke="#63b8ff" d="M727.34,-54.51C735.55,-47 747.48,-36.1 757.41,-27.03"/>
<polygon fill="#63b8ff" stroke="#63b8ff" points="759.67,-29.71 764.69,-20.38 754.95,-24.54 759.67,-29.71"/>
</g>
<!-- Node7 -->
<g id="node7" class="node">
<title>Node7</title>
<g id="a_node7"><a xlink:title=" ">
<polygon fill="#e0e0e0" stroke="#999999" points="726.5,-19 680.5,-19 680.5,0 726.5,0 726.5,-19"/>
<text text-anchor="middle" x="703.5" y="-7" font-family="Helvetica,sans-Serif" font-size="10.00">cstdint</text>
</a>
</g>
</g>
<!-- Node5&#45;&gt;Node7 -->
<g id="edge6" class="edge">
<title>Node5&#45;&gt;Node7</title>
<path fill="none" stroke="#63b8ff" d="M715.19,-54.75C713.44,-48.11 710.96,-38.73 708.73,-30.31"/>
<polygon fill="#63b8ff" stroke="#63b8ff" points="712.19,-29.68 706.25,-20.91 705.42,-31.47 712.19,-29.68"/>
</g>
<!-- Node9 -->
<g id="node9" class="node">
<title>Node9</title>
<g id="a_node9"><a xlink:title=" ">
<polygon fill="#e0e0e0" stroke="#999999" points="426,-19 385,-19 385,0 426,0 426,-19"/>
<text text-anchor="middle" x="405.5" y="-7" font-family="Helvetica,sans-Serif" font-size="10.00">string</text>
</a>
</g>
</g>
<!-- Node8&#45;&gt;Node9 -->
<g id="edge8" class="edge">
<title>Node8&#45;&gt;Node9</title>
<path fill="none" stroke="#63b8ff" d="M591.61,-55.33C549.61,-45.22 478.59,-28.11 437.49,-18.21"/>
<polygon fill="#63b8ff" stroke="#63b8ff" points="438.51,-14.85 427.97,-15.91 436.87,-21.66 438.51,-14.85"/>
</g>
<!-- Node10 -->
<g id="node10" class="node">
<title>Node10</title>
<g id="a_node10"><a xlink:title=" ">
<polygon fill="#e0e0e0" stroke="#999999" points="649.5,-19 591.5,-19 591.5,0 649.5,0 649.5,-19"/>
<text text-anchor="middle" x="620.5" y="-7" font-family="Helvetica,sans-Serif" font-size="10.00">functional</text>
</a>
</g>
</g>
<!-- Node8&#45;&gt;Node10 -->
<g id="edge9" class="edge">
<title>Node8&#45;&gt;Node10</title>
<path fill="none" stroke="#63b8ff" d="M624.67,-54.75C624.06,-48.27 623.2,-39.16 622.42,-30.9"/>
<polygon fill="#63b8ff" stroke="#63b8ff" points="625.91,-30.58 621.49,-20.95 618.94,-31.23 625.91,-30.58"/>
</g>
<!-- Node13 -->
<g id="node13" class="node">
<title>Node13</title>
<g id="a_node13"><a xlink:href="country_8h.html" target="_top" xlink:title=" ">
<polygon fill="white" stroke="#666666" points="57,-129 0,-129 0,-110 57,-110 57,-129"/>
<text text-anchor="middle" x="28.5" y="-117" font-family="Helvetica,sans-Serif" font-size="10.00">country.h</text>
</a>
</g>
</g>
<!-- Node12&#45;&gt;Node13 -->
<g id="edge12" class="edge">
<title>Node12&#45;&gt;Node13</title>
<path fill="none" stroke="#63b8ff" d="M275.07,-169.25C234.96,-161.92 150.29,-146.23 68.16,-129.29"/>
<polygon fill="#63b8ff" stroke="#63b8ff" points="69.1,-125.91 58.6,-127.31 67.68,-132.76 69.1,-125.91"/>
</g>
<!-- Node14 -->
<g id="node14" class="node">
<title>Node14</title>
<g id="a_node14"><a xlink:href="population__item_8h.html" target="_top" xlink:title=" ">
<polygon fill="white" stroke="#666666" points="249,-129 156,-129 156,-110 249,-110 249,-129"/>
<text text-anchor="middle" x="202.5" y="-117" font-family="Helvetica,sans-Serif" font-size="10.00">population_item.h</text>
</a>
</g>
</g>
<!-- Node12&#45;&gt;Node14 -->
<g id="edge14" class="edge">
<title>Node12&#45;&gt;Node14</title>
<path fill="none" stroke="#63b8ff" d="M282.21,-164.51C267.51,-156.39 245.61,-144.3 228.48,-134.85"/>
<polygon fill="#63b8ff" stroke="#63b8ff" points="230.32,-131.86 219.87,-130.09 226.93,-137.99 230.32,-131.86"/>
</g>
<!-- Node16 -->
<g id="node16" class="node">
<title>Node16</title>
<g id="a_node16"><a xlink:href="_health_g_p_s_8_core_2disease_8h.html" target="_top" xlink:title=" ">
<polygon fill="white" stroke="#666666" points="525,-129 466,-129 466,-110 525,-110 525,-129"/>
<text text-anchor="middle" x="495.5" y="-117" font-family="Helvetica,sans-Serif" font-size="10.00">disease.h</text>
</a>
</g>
</g>
<!-- Node12&#45;&gt;Node16 -->
<g id="edge16" class="edge">
<title>Node12&#45;&gt;Node16</title>
<path fill="none" stroke="#63b8ff" d="M321.87,-167.21C354.59,-158.41 414.55,-142.28 454.72,-131.47"/>
<polygon fill="#63b8ff" stroke="#63b8ff" points="455.53,-134.88 464.28,-128.9 453.71,-128.12 455.53,-134.88"/>
</g>
<!-- Node20 -->
<g id="node20" class="node">
<title>Node20</title>
<g id="a_node20"><a xlink:href="analysis_8h.html" target="_top" xlink:title=" ">
<polygon fill="white" stroke="#666666" points="409,-129 348,-129 348,-110 409,-110 409,-129"/>
<text text-anchor="middle" x="378.5" y="-117" font-family="Helvetica,sans-Serif" font-size="10.00">analysis.h</text>
</a>
</g>
</g>
<!-- Node12&#45;&gt;Node20 -->
<g id="edge25" class="edge">
<title>Node12&#45;&gt;Node20</title>
<path fill="none" stroke="#63b8ff" d="M312.07,-164.51C323.98,-156.62 341.55,-144.98 355.63,-135.65"/>
<polygon fill="#63b8ff" stroke="#63b8ff" points="357.46,-138.63 363.87,-130.19 353.6,-132.8 357.46,-138.63"/>
</g>
<!-- Node21 -->
<g id="node21" class="node">
<title>Node21</title>
<g id="a_node21"><a xlink:href="indicator_8h.html" target="_top" xlink:title=" ">
<polygon fill="white" stroke="#666666" points="329.5,-129 267.5,-129 267.5,-110 329.5,-110 329.5,-129"/>
<text text-anchor="middle" x="298.5" y="-117" font-family="Helvetica,sans-Serif" font-size="10.00">indicator.h</text>
</a>
</g>
</g>
<!-- Node12&#45;&gt;Node21 -->
<g id="edge30" class="edge">
<title>Node12&#45;&gt;Node21</title>
<path fill="none" stroke="#63b8ff" d="M298.5,-164.75C298.5,-158.27 298.5,-149.16 298.5,-140.9"/>
<polygon fill="#63b8ff" stroke="#63b8ff" points="302,-140.96 298.5,-130.96 295,-140.96 302,-140.96"/>
</g>
<!-- Node22 -->
<g id="node22" class="node">
<title>Node22</title>
<g id="a_node22"><a xlink:href="mortality_8h.html" target="_top" xlink:title=" ">
<polygon fill="white" stroke="#666666" points="137.5,-129 75.5,-129 75.5,-110 137.5,-110 137.5,-129"/>
<text text-anchor="middle" x="106.5" y="-117" font-family="Helvetica,sans-Serif" font-size="10.00">mortality.h</text>
</a>
</g>
</g>
<!-- Node12&#45;&gt;Node22 -->
<g id="edge32" class="edge">
<title>Node12&#45;&gt;Node22</title>
<path fill="none" stroke="#63b8ff" d="M275.34,-167.11C244.02,-158.46 187.61,-142.89 148.67,-132.14"/>
<polygon fill="#63b8ff" stroke="#63b8ff" points="149.72,-128.8 139.15,-129.51 147.85,-135.55 149.72,-128.8"/>
</g>
<!-- Node13&#45;&gt;Node9 -->
<g id="edge13" class="edge">
<title>Node13&#45;&gt;Node9</title>
<path fill="none" stroke="#63b8ff" d="M38.85,-109.66C55.9,-95.62 91.49,-68.44 126.5,-55 211.68,-22.3 320.37,-13.63 373.44,-11.33"/>
<polygon fill="#63b8ff" stroke="#63b8ff" points="373.42,-14.83 383.28,-10.96 373.15,-7.84 373.42,-14.83"/>
</g>
<!-- Node15 -->
<g id="node15" class="node">
<title>Node15</title>
<g id="a_node15"><a xlink:title=" ">
<polygon fill="#e0e0e0" stroke="#999999" points="173.5,-74 135.5,-74 135.5,-55 173.5,-55 173.5,-74"/>
<text text-anchor="middle" x="154.5" y="-62" font-family="Helvetica,sans-Serif" font-size="10.00">tuple</text>
</a>
</g>
</g>
<!-- Node14&#45;&gt;Node15 -->
<g id="edge15" class="edge">
<title>Node14&#45;&gt;Node15</title>
<path fill="none" stroke="#63b8ff" d="M194.57,-109.75C187.94,-102.43 178.28,-91.76 170.11,-82.74"/>
<polygon fill="#63b8ff" stroke="#63b8ff" points="172.92,-80.63 163.61,-75.56 167.73,-85.33 172.92,-80.63"/>
</g>
<!-- Node16&#45;&gt;Node2 -->
<g id="edge18" class="edge">
<title>Node16&#45;&gt;Node2</title>
<path fill="none" stroke="#63b8ff" d="M485.32,-109.51C476.74,-101.93 464.23,-90.88 453.9,-81.75"/>
<polygon fill="#63b8ff" stroke="#63b8ff" points="456.47,-79.36 446.66,-75.36 451.84,-84.6 456.47,-79.36"/>
</g>
<!-- Node16&#45;&gt;Node5 -->
<g id="edge20" class="edge">
<title>Node16&#45;&gt;Node5</title>
<path fill="none" stroke="#63b8ff" d="M525.44,-111.35C562.24,-102.57 625.18,-87.54 668.93,-77.1"/>
<polygon fill="#63b8ff" stroke="#63b8ff" points="669.51,-80.56 678.42,-74.83 667.88,-73.75 669.51,-80.56"/>
</g>
<!-- Node16&#45;&gt;Node9 -->
<g id="edge17" class="edge">
<title>Node16&#45;&gt;Node9</title>
<path fill="none" stroke="#63b8ff" d="M492.82,-109.52C488.6,-96.47 479.42,-71.97 465.5,-55 456.02,-43.44 442.92,-33.28 431.37,-25.59"/>
<polygon fill="#63b8ff" stroke="#63b8ff" points="433.36,-22.7 423.04,-20.3 429.61,-28.61 433.36,-22.7"/>
</g>
<!-- Node17 -->
<g id="node17" class="node">
<title>Node17</title>
<g id="a_node17"><a xlink:title=" ">
<polygon fill="#e0e0e0" stroke="#999999" points="396,-74 361,-74 361,-55 396,-55 396,-74"/>
<text text-anchor="middle" x="378.5" y="-62" font-family="Helvetica,sans-Serif" font-size="10.00">map</text>
</a>
</g>
</g>
<!-- Node16&#45;&gt;Node17 -->
<g id="edge19" class="edge">
<title>Node16&#45;&gt;Node17</title>
<path fill="none" stroke="#63b8ff" d="M475.65,-109.51C456.67,-100.91 427.84,-87.85 406.52,-78.19"/>
<polygon fill="#63b8ff" stroke="#63b8ff" points="408.08,-75.06 397.52,-74.12 405.19,-81.43 408.08,-75.06"/>
</g>
<!-- Node18 -->
<g id="node18" class="node">
<title>Node18</title>
<g id="a_node18"><a xlink:href="identifier_8h.html" target="_top" xlink:title=" ">
<polygon fill="white" stroke="#666666" points="574,-74 513,-74 513,-55 574,-55 574,-74"/>
<text text-anchor="middle" x="543.5" y="-62" font-family="Helvetica,sans-Serif" font-size="10.00">identifier.h</text>
</a>
</g>
</g>
<!-- Node16&#45;&gt;Node18 -->
<g id="edge21" class="edge">
<title>Node16&#45;&gt;Node18</title>
<path fill="none" stroke="#63b8ff" d="M503.43,-109.75C510.06,-102.43 519.72,-91.76 527.89,-82.74"/>
<polygon fill="#63b8ff" stroke="#63b8ff" points="530.27,-85.33 534.39,-75.56 525.08,-80.63 530.27,-85.33"/>
</g>
<!-- Node18&#45;&gt;Node9 -->
<g id="edge22" class="edge">
<title>Node18&#45;&gt;Node9</title>
<path fill="none" stroke="#63b8ff" d="M520.09,-54.51C497.18,-45.71 462.14,-32.25 436.83,-22.53"/>
<polygon fill="#63b8ff" stroke="#63b8ff" points="438.31,-19.35 427.72,-19.04 435.81,-25.89 438.31,-19.35"/>
</g>
<!-- Node18&#45;&gt;Node10 -->
<g id="edge24" class="edge">
<title>Node18&#45;&gt;Node10</title>
<path fill="none" stroke="#63b8ff" d="M556.56,-54.51C568.02,-46.62 584.93,-34.98 598.48,-25.65"/>
<polygon fill="#63b8ff" stroke="#63b8ff" points="600.13,-28.77 606.38,-20.22 596.16,-23 600.13,-28.77"/>
</g>
<!-- Node19 -->
<g id="node19" class="node">
<title>Node19</title>
<g id="a_node19"><a xlink:title=" ">
<polygon fill="#e0e0e0" stroke="#999999" points="569.5,-19 517.5,-19 517.5,0 569.5,0 569.5,-19"/>
<text text-anchor="middle" x="543.5" y="-7" font-family="Helvetica,sans-Serif" font-size="10.00">ostream</text>
</a>
</g>
</g>
<!-- Node18&#45;&gt;Node19 -->
<g id="edge23" class="edge">
<title>Node18&#45;&gt;Node19</title>
<path fill="none" stroke="#63b8ff" d="M543.5,-54.75C543.5,-48.27 543.5,-39.16 543.5,-30.9"/>
<polygon fill="#63b8ff" stroke="#63b8ff" points="547,-30.96 543.5,-20.96 540,-30.96 547,-30.96"/>
</g>
<!-- Node20&#45;&gt;Node2 -->
<g id="edge27" class="edge">
<title>Node20&#45;&gt;Node2</title>
<path fill="none" stroke="#63b8ff" d="M388.17,-109.51C396.24,-102 407.97,-91.1 417.72,-82.03"/>
<polygon fill="#63b8ff" stroke="#63b8ff" points="419.93,-84.76 424.87,-75.39 415.16,-79.63 419.93,-84.76"/>
</g>
<!-- Node20&#45;&gt;Node5 -->
<g id="edge29" class="edge">
<title>Node20&#45;&gt;Node5</title>
<path fill="none" stroke="#63b8ff" d="M409.43,-113.96C460.57,-106.4 566.25,-90.6 665.95,-74.39"/>
<polygon fill="#63b8ff" stroke="#63b8ff" points="666.33,-77.87 675.64,-72.81 665.21,-70.97 666.33,-77.87"/>
</g>
<!-- Node20&#45;&gt;Node9 -->
<g id="edge28" class="edge">
<title>Node20&#45;&gt;Node9</title>
<path fill="none" stroke="#63b8ff" d="M369.97,-109.78C359.01,-97.45 342.4,-74.29 351.5,-55 357.25,-42.8 368.17,-32.82 378.69,-25.42"/>
<polygon fill="#63b8ff" stroke="#63b8ff" points="380.31,-28.54 386.81,-20.18 376.51,-22.66 380.31,-28.54"/>
</g>
<!-- Node20&#45;&gt;Node17 -->
<g id="edge26" class="edge">
<title>Node20&#45;&gt;Node17</title>
<path fill="none" stroke="#63b8ff" d="M378.5,-109.75C378.5,-103.27 378.5,-94.16 378.5,-85.9"/>
<polygon fill="#63b8ff" stroke="#63b8ff" points="382,-85.96 378.5,-75.96 375,-85.96 382,-85.96"/>
</g>
<!-- Node21&#45;&gt;Node9 -->
<g id="edge31" class="edge">
<title>Node21&#45;&gt;Node9</title>
<path fill="none" stroke="#63b8ff" d="M303.85,-109.65C311.9,-96.76 328.05,-72.47 345.5,-55 356.42,-44.07 370.16,-33.68 381.74,-25.69"/>
<polygon fill="#63b8ff" stroke="#63b8ff" points="383.62,-28.65 389.98,-20.18 379.72,-22.83 383.62,-28.65"/>
</g>
<!-- Node22&#45;&gt;Node15 -->
<g id="edge33" class="edge">
<title>Node22&#45;&gt;Node15</title>
<path fill="none" stroke="#63b8ff" d="M114.43,-109.75C121.06,-102.43 130.72,-91.76 138.89,-82.74"/>
<polygon fill="#63b8ff" stroke="#63b8ff" points="141.27,-85.33 145.39,-75.56 136.08,-80.63 141.27,-85.33"/>
</g>
</g>
</svg>
