<?xml version="1.0" encoding="UTF-8" standalone="no"?>
<!DOCTYPE svg PUBLIC "-//W3C//DTD SVG 1.1//EN"
 "http://www.w3.org/Graphics/SVG/1.1/DTD/svg11.dtd">
<!-- Generated by graphviz version 2.43.0 (0)
 -->
<!-- Title: HealthGPS.Datastore/datamanager.cpp Pages: 1 -->
<svg width="1981pt" height="498pt"
 viewBox="0.00 0.00 1981.10 498.00" xmlns="http://www.w3.org/2000/svg" xmlns:xlink="http://www.w3.org/1999/xlink">
<g id="graph0" class="graph" transform="scale(1 1) rotate(0) translate(4 494)">
<title>HealthGPS.Datastore/datamanager.cpp</title>
<!-- Node1 -->
<g id="node1" class="node">
<title>Node1</title>
<g id="a_node1"><a xlink:title=" ">
<polygon fill="#bfbfbf" stroke="black" points="451.6,-459.5 451.6,-489.5 570.6,-489.5 570.6,-459.5 451.6,-459.5"/>
<text text-anchor="start" x="459.6" y="-477.5" font-family="Helvetica,sans-Serif" font-size="10.00">HealthGPS.Datastore</text>
<text text-anchor="middle" x="511.1" y="-466.5" font-family="Helvetica,sans-Serif" font-size="10.00">/datamanager.cpp</text>
</a>
</g>
</g>
<!-- Node2 -->
<g id="node2" class="node">
<title>Node2</title>
<g id="a_node2"><a xlink:href="datamanager_8h.html" target="_top" xlink:title=" ">
<polygon fill="none" stroke="black" points="289.1,-398 289.1,-417 379.1,-417 379.1,-398 289.1,-398"/>
<text text-anchor="middle" x="334.1" y="-405" font-family="Helvetica,sans-Serif" font-size="10.00">datamanager.h</text>
</a>
</g>
</g>
<!-- Node1&#45;&gt;Node2 -->
<g id="edge1" class="edge">
<title>Node1&#45;&gt;Node2</title>
<path fill="none" stroke="midnightblue" d="M472.69,-459.4C441.08,-447.79 396.77,-431.51 366.83,-420.52"/>
<polygon fill="midnightblue" stroke="midnightblue" points="367.86,-417.17 357.26,-417.01 365.44,-423.74 367.86,-417.17"/>
</g>
<!-- Node13 -->
<g id="node13" class="node">
<title>Node13</title>
<g id="a_node13"><a xlink:href="string__util_8h.html" target="_top" xlink:title=" ">
<polygon fill="none" stroke="black" points="225.1,-112.5 225.1,-131.5 299.1,-131.5 299.1,-112.5 225.1,-112.5"/>
<text text-anchor="middle" x="262.1" y="-119.5" font-family="Helvetica,sans-Serif" font-size="10.00">string_util.h</text>
</a>
</g>
</g>
<!-- Node1&#45;&gt;Node13 -->
<g id="edge82" class="edge">
<title>Node1&#45;&gt;Node13</title>
<path fill="none" stroke="midnightblue" d="M451.57,-469.98C325.1,-460.88 41.1,-431.08 41.1,-347 41.1,-347 41.1,-347 41.1,-233 41.1,-202.77 38.9,-188.52 61.1,-168 66.79,-162.73 157.17,-143.92 214.78,-132.35"/>
<polygon fill="midnightblue" stroke="midnightblue" points="215.66,-135.75 224.77,-130.35 214.28,-128.88 215.66,-135.75"/>
</g>
<!-- Node49 -->
<g id="node47" class="node">
<title>Node49</title>
<g id="a_node47"><a xlink:href="math__util_8h.html" target="_top" xlink:title=" ">
<polygon fill="none" stroke="black" points="397.1,-392.5 397.1,-422.5 519.1,-422.5 519.1,-392.5 397.1,-392.5"/>
<text text-anchor="start" x="405.1" y="-410.5" font-family="Helvetica,sans-Serif" font-size="10.00">HealthGPS.Core/math</text>
<text text-anchor="middle" x="458.1" y="-399.5" font-family="Helvetica,sans-Serif" font-size="10.00">_util.h</text>
</a>
</g>
</g>
<!-- Node1&#45;&gt;Node49 -->
<g id="edge83" class="edge">
<title>Node1&#45;&gt;Node49</title>
<path fill="none" stroke="midnightblue" d="M499.6,-459.4C492.72,-450.96 483.84,-440.07 476.05,-430.52"/>
<polygon fill="midnightblue" stroke="midnightblue" points="478.61,-428.11 469.57,-422.58 473.18,-432.54 478.61,-428.11"/>
</g>
<!-- Node50 -->
<g id="node48" class="node">
<title>Node50</title>
<g id="a_node48"><a xlink:title=" ">
<polygon fill="none" stroke="#bfbfbf" points="537.6,-398 537.6,-417 592.6,-417 592.6,-398 537.6,-398"/>
<text text-anchor="middle" x="565.1" y="-405" font-family="Helvetica,sans-Serif" font-size="10.00">fstream</text>
</a>
</g>
</g>
<!-- Node1&#45;&gt;Node50 -->
<g id="edge84" class="edge">
<title>Node1&#45;&gt;Node50</title>
<path fill="none" stroke="midnightblue" d="M522.81,-459.4C531.23,-449.26 542.61,-435.57 551.44,-424.94"/>
<polygon fill="midnightblue" stroke="midnightblue" points="554.18,-427.12 557.87,-417.19 548.79,-422.65 554.18,-427.12"/>
</g>
<!-- Node51 -->
<g id="node49" class="node">
<title>Node51</title>
<g id="a_node49"><a xlink:title=" ">
<polygon fill="none" stroke="#bfbfbf" points="611.1,-398 611.1,-417 677.1,-417 677.1,-398 611.1,-398"/>
<text text-anchor="middle" x="644.1" y="-405" font-family="Helvetica,sans-Serif" font-size="10.00">rapidcsv.h</text>
</a>
</g>
</g>
<!-- Node1&#45;&gt;Node51 -->
<g id="edge85" class="edge">
<title>Node1&#45;&gt;Node51</title>
<path fill="none" stroke="midnightblue" d="M539.96,-459.4C562.98,-448.14 594.99,-432.5 617.42,-421.54"/>
<polygon fill="midnightblue" stroke="midnightblue" points="619.24,-424.54 626.69,-417.01 616.17,-418.25 619.24,-424.54"/>
</g>
<!-- Node52 -->
<g id="node50" class="node">
<title>Node52</title>
<g id="a_node50"><a xlink:title=" ">
<polygon fill="none" stroke="#bfbfbf" points="695.6,-398 695.6,-417 764.6,-417 764.6,-398 695.6,-398"/>
<text text-anchor="middle" x="730.1" y="-405" font-family="Helvetica,sans-Serif" font-size="10.00">fmt/color.h</text>
</a>
</g>
</g>
<!-- Node1&#45;&gt;Node52 -->
<g id="edge86" class="edge">
<title>Node1&#45;&gt;Node52</title>
<path fill="none" stroke="midnightblue" d="M561.79,-459.41C596.81,-449.55 644.4,-435.88 686.1,-423 689,-422.1 692,-421.16 695.02,-420.19"/>
<polygon fill="midnightblue" stroke="midnightblue" points="696.12,-423.51 704.56,-417.1 693.96,-416.85 696.12,-423.51"/>
</g>
<!-- Node3 -->
<g id="node3" class="node">
<title>Node3</title>
<g id="a_node3"><a xlink:href="HealthGPS_8Core_2api_8h.html" target="_top" xlink:title=" ">
<polygon fill="none" stroke="black" points="639.6,-336.5 639.6,-355.5 760.6,-355.5 760.6,-336.5 639.6,-336.5"/>
<text text-anchor="middle" x="700.1" y="-343.5" font-family="Helvetica,sans-Serif" font-size="10.00">HealthGPS.Core/api.h</text>
</a>
</g>
</g>
<!-- Node2&#45;&gt;Node3 -->
<g id="edge2" class="edge">
<title>Node2&#45;&gt;Node3</title>
<path fill="none" stroke="midnightblue" d="M363.37,-397.96C371.35,-395.82 380.01,-393.66 388.1,-392 470.1,-375.14 565.52,-362.36 629.03,-354.8"/>
<polygon fill="midnightblue" stroke="midnightblue" points="629.81,-358.24 639.33,-353.59 628.99,-351.29 629.81,-358.24"/>
</g>
<!-- Node47 -->
<g id="node45" class="node">
<title>Node47</title>
<g id="a_node45"><a xlink:title=" ">
<polygon fill="none" stroke="#bfbfbf" points="247.1,-336.5 247.1,-355.5 315.1,-355.5 315.1,-336.5 247.1,-336.5"/>
<text text-anchor="middle" x="281.1" y="-343.5" font-family="Helvetica,sans-Serif" font-size="10.00">filesystem</text>
</a>
</g>
</g>
<!-- Node2&#45;&gt;Node47 -->
<g id="edge80" class="edge">
<title>Node2&#45;&gt;Node47</title>
<path fill="none" stroke="midnightblue" d="M326.5,-397.98C318.4,-388.87 305.36,-374.24 295.33,-362.98"/>
<polygon fill="midnightblue" stroke="midnightblue" points="297.94,-360.65 288.68,-355.51 292.71,-365.3 297.94,-360.65"/>
</g>
<!-- Node48 -->
<g id="node46" class="node">
<title>Node48</title>
<g id="a_node46"><a xlink:title=" ">
<polygon fill="none" stroke="#bfbfbf" points="333.1,-336.5 333.1,-355.5 443.1,-355.5 443.1,-336.5 333.1,-336.5"/>
<text text-anchor="middle" x="388.1" y="-343.5" font-family="Helvetica,sans-Serif" font-size="10.00">nlohmann/json.hpp</text>
</a>
</g>
</g>
<!-- Node2&#45;&gt;Node48 -->
<g id="edge81" class="edge">
<title>Node2&#45;&gt;Node48</title>
<path fill="none" stroke="midnightblue" d="M341.83,-397.98C350.09,-388.87 363.37,-374.24 373.59,-362.98"/>
<polygon fill="midnightblue" stroke="midnightblue" points="376.25,-365.27 380.37,-355.51 371.06,-360.56 376.25,-365.27"/>
</g>
<!-- Node4 -->
<g id="node4" class="node">
<title>Node4</title>
<g id="a_node4"><a xlink:href="version_8h.html" target="_top" xlink:title=" ">
<polygon fill="none" stroke="black" points="114.1,-280.5 114.1,-299.5 176.1,-299.5 176.1,-280.5 114.1,-280.5"/>
<text text-anchor="middle" x="145.1" y="-287.5" font-family="Helvetica,sans-Serif" font-size="10.00">version.h</text>
</a>
</g>
</g>
<!-- Node3&#45;&gt;Node4 -->
<g id="edge3" class="edge">
<title>Node3&#45;&gt;Node4</title>
<path fill="none" stroke="midnightblue" d="M639.38,-339.09C525.54,-328.02 282.79,-304.4 186.09,-294.99"/>
<polygon fill="midnightblue" stroke="midnightblue" points="186.4,-291.5 176.11,-294.02 185.73,-298.47 186.4,-291.5"/>
</g>
<!-- Node6 -->
<g id="node6" class="node">
<title>Node6</title>
<g id="a_node6"><a xlink:href="datastore_8h.html" target="_top" xlink:title=" ">
<polygon fill="none" stroke="black" points="577.1,-280.5 577.1,-299.5 649.1,-299.5 649.1,-280.5 577.1,-280.5"/>
<text text-anchor="middle" x="613.1" y="-287.5" font-family="Helvetica,sans-Serif" font-size="10.00">datastore.h</text>
</a>
</g>
</g>
<!-- Node3&#45;&gt;Node6 -->
<g id="edge5" class="edge">
<title>Node3&#45;&gt;Node6</title>
<path fill="none" stroke="midnightblue" d="M686.12,-336.32C672.55,-327.9 651.72,-314.97 635.77,-305.07"/>
<polygon fill="midnightblue" stroke="midnightblue" points="637.38,-301.95 627.04,-299.65 633.69,-307.9 637.38,-301.95"/>
</g>
<!-- Node9 -->
<g id="node9" class="node">
<title>Node9</title>
<g id="a_node9"><a xlink:href="interval_8h.html" target="_top" xlink:title=" ">
<polygon fill="none" stroke="black" points="517.6,-224.5 517.6,-243.5 580.6,-243.5 580.6,-224.5 517.6,-224.5"/>
<text text-anchor="middle" x="549.1" y="-231.5" font-family="Helvetica,sans-Serif" font-size="10.00">interval.h</text>
</a>
</g>
</g>
<!-- Node3&#45;&gt;Node9 -->
<g id="edge65" class="edge">
<title>Node3&#45;&gt;Node9</title>
<path fill="none" stroke="midnightblue" d="M639.58,-336.9C614.45,-330.66 586.84,-319.59 568.1,-300 556.3,-287.67 551.77,-268.42 550.06,-254.06"/>
<polygon fill="midnightblue" stroke="midnightblue" points="553.53,-253.5 549.21,-243.82 546.55,-254.08 553.53,-253.5"/>
</g>
<!-- Node16 -->
<g id="node16" class="node">
<title>Node16</title>
<g id="a_node16"><a xlink:href="poco_8h.html" target="_top" xlink:title=" ">
<polygon fill="none" stroke="black" points="234.6,-224.5 234.6,-243.5 283.6,-243.5 283.6,-224.5 234.6,-224.5"/>
<text text-anchor="middle" x="259.1" y="-231.5" font-family="Helvetica,sans-Serif" font-size="10.00">poco.h</text>
</a>
</g>
</g>
<!-- Node3&#45;&gt;Node16 -->
<g id="edge79" class="edge">
<title>Node3&#45;&gt;Node16</title>
<path fill="none" stroke="midnightblue" d="M639.22,-343.23C545.22,-339.6 369.86,-329.07 315.1,-300 294.81,-289.23 278.64,-267.85 268.99,-252.55"/>
<polygon fill="midnightblue" stroke="midnightblue" points="271.75,-250.33 263.62,-243.54 265.74,-253.92 271.75,-250.33"/>
</g>
<!-- Node22 -->
<g id="node20" class="node">
<title>Node22</title>
<g id="a_node20"><a xlink:href="identifier_8h.html" target="_top" xlink:title=" ">
<polygon fill="none" stroke="black" points="393.1,-112.5 393.1,-131.5 461.1,-131.5 461.1,-112.5 393.1,-112.5"/>
<text text-anchor="middle" x="427.1" y="-119.5" font-family="Helvetica,sans-Serif" font-size="10.00">identifier.h</text>
</a>
</g>
</g>
<!-- Node3&#45;&gt;Node22 -->
<g id="edge78" class="edge">
<title>Node3&#45;&gt;Node22</title>
<path fill="none" stroke="midnightblue" d="M643.14,-336.48C567.45,-321.63 437.4,-282.95 387.1,-188 377.78,-170.42 393.16,-151.09 407.47,-138.12"/>
<polygon fill="midnightblue" stroke="midnightblue" points="409.78,-140.76 415.14,-131.62 405.25,-135.41 409.78,-140.76"/>
</g>
<!-- Node27 -->
<g id="node25" class="node">
<title>Node27</title>
<g id="a_node25"><a xlink:href="visitor_8h.html" target="_top" xlink:title=" ">
<polygon fill="none" stroke="black" points="1631.1,-112.5 1631.1,-131.5 1687.1,-131.5 1687.1,-112.5 1631.1,-112.5"/>
<text text-anchor="middle" x="1659.1" y="-119.5" font-family="Helvetica,sans-Serif" font-size="10.00">visitor.h</text>
</a>
</g>
</g>
<!-- Node3&#45;&gt;Node27 -->
<g id="edge35" class="edge">
<title>Node3&#45;&gt;Node27</title>
<path fill="none" stroke="midnightblue" d="M760.9,-345.89C877.52,-346.5 1140.2,-342.47 1356.1,-300 1489.23,-273.81 1552.58,-291.69 1640.1,-188 1651.11,-174.96 1655.74,-155.8 1657.69,-141.66"/>
<polygon fill="midnightblue" stroke="midnightblue" points="1661.18,-141.92 1658.74,-131.61 1654.22,-141.19 1661.18,-141.92"/>
</g>
<!-- Node28 -->
<g id="node26" class="node">
<title>Node28</title>
<g id="a_node26"><a xlink:href="datatable_8h.html" target="_top" xlink:title=" ">
<polygon fill="none" stroke="black" points="1271.1,-224.5 1271.1,-243.5 1343.1,-243.5 1343.1,-224.5 1271.1,-224.5"/>
<text text-anchor="middle" x="1307.1" y="-231.5" font-family="Helvetica,sans-Serif" font-size="10.00">datatable.h</text>
</a>
</g>
</g>
<!-- Node3&#45;&gt;Node28 -->
<g id="edge37" class="edge">
<title>Node3&#45;&gt;Node28</title>
<path fill="none" stroke="midnightblue" d="M747.22,-336.46C860.81,-315.88 1148.59,-263.72 1261.06,-243.34"/>
<polygon fill="midnightblue" stroke="midnightblue" points="1261.85,-246.76 1271.07,-241.53 1260.6,-239.87 1261.85,-246.76"/>
</g>
<!-- Node36 -->
<g id="node34" class="node">
<title>Node36</title>
<g id="a_node34"><a xlink:href="column__numeric_8h.html" target="_top" xlink:title=" ">
<polygon fill="none" stroke="black" points="1239.6,-280.5 1239.6,-299.5 1346.6,-299.5 1346.6,-280.5 1239.6,-280.5"/>
<text text-anchor="middle" x="1293.1" y="-287.5" font-family="Helvetica,sans-Serif" font-size="10.00">column_numeric.h</text>
</a>
</g>
</g>
<!-- Node3&#45;&gt;Node36 -->
<g id="edge50" class="edge">
<title>Node3&#45;&gt;Node36</title>
<path fill="none" stroke="midnightblue" d="M760.77,-339.47C873.52,-329.21 1114.32,-307.28 1229.35,-296.8"/>
<polygon fill="midnightblue" stroke="midnightblue" points="1229.78,-300.28 1239.42,-295.89 1229.14,-293.31 1229.78,-300.28"/>
</g>
<!-- Node38 -->
<g id="node36" class="node">
<title>Node38</title>
<g id="a_node36"><a xlink:href="column__iterator_8h.html" target="_top" xlink:title=" ">
<polygon fill="none" stroke="black" points="1687.1,-168.5 1687.1,-187.5 1789.1,-187.5 1789.1,-168.5 1687.1,-168.5"/>
<text text-anchor="middle" x="1738.1" y="-175.5" font-family="Helvetica,sans-Serif" font-size="10.00">column_iterator.h</text>
</a>
</g>
</g>
<!-- Node3&#45;&gt;Node38 -->
<g id="edge64" class="edge">
<title>Node3&#45;&gt;Node38</title>
<path fill="none" stroke="midnightblue" d="M760.75,-343.84C967.56,-339.66 1634.44,-324.35 1673.1,-300 1709.81,-276.88 1727.17,-225.51 1734.14,-197.72"/>
<polygon fill="midnightblue" stroke="midnightblue" points="1737.61,-198.24 1736.45,-187.71 1730.79,-196.67 1737.61,-198.24"/>
</g>
<!-- Node40 -->
<g id="node38" class="node">
<title>Node40</title>
<g id="a_node38"><a xlink:href="column__builder_8h.html" target="_top" xlink:title=" ">
<polygon fill="none" stroke="black" points="1756.1,-224.5 1756.1,-243.5 1856.1,-243.5 1856.1,-224.5 1756.1,-224.5"/>
<text text-anchor="middle" x="1806.1" y="-231.5" font-family="Helvetica,sans-Serif" font-size="10.00">column_builder.h</text>
</a>
</g>
</g>
<!-- Node3&#45;&gt;Node40 -->
<g id="edge58" class="edge">
<title>Node3&#45;&gt;Node40</title>
<path fill="none" stroke="midnightblue" d="M760.8,-344.67C968.24,-343.23 1641.16,-335.8 1731.1,-300 1756.49,-289.89 1779.21,-267.35 1792.82,-251.67"/>
<polygon fill="midnightblue" stroke="midnightblue" points="1795.68,-253.71 1799.4,-243.79 1790.31,-249.22 1795.68,-253.71"/>
</g>
<!-- Node43 -->
<g id="node41" class="node">
<title>Node43</title>
<g id="a_node41"><a xlink:href="array2d_8h.html" target="_top" xlink:title=" ">
<polygon fill="none" stroke="black" points="858.6,-224.5 858.6,-243.5 921.6,-243.5 921.6,-224.5 858.6,-224.5"/>
<text text-anchor="middle" x="890.1" y="-231.5" font-family="Helvetica,sans-Serif" font-size="10.00">array2d.h</text>
</a>
</g>
</g>
<!-- Node3&#45;&gt;Node43 -->
<g id="edge66" class="edge">
<title>Node3&#45;&gt;Node43</title>
<path fill="none" stroke="midnightblue" d="M715.01,-336.37C747.89,-317.33 826.85,-271.62 866.52,-248.65"/>
<polygon fill="midnightblue" stroke="midnightblue" points="868.36,-251.63 875.26,-243.59 864.85,-245.57 868.36,-251.63"/>
</g>
<!-- Node46 -->
<g id="node44" class="node">
<title>Node46</title>
<g id="a_node44"><a xlink:href="univariate__summary_8h.html" target="_top" xlink:title=" ">
<polygon fill="none" stroke="black" points="637.6,-224.5 637.6,-243.5 762.6,-243.5 762.6,-224.5 637.6,-224.5"/>
<text text-anchor="middle" x="700.1" y="-231.5" font-family="Helvetica,sans-Serif" font-size="10.00">univariate_summary.h</text>
</a>
</g>
</g>
<!-- Node3&#45;&gt;Node46 -->
<g id="edge74" class="edge">
<title>Node3&#45;&gt;Node46</title>
<path fill="none" stroke="midnightblue" d="M700.1,-336.37C700.1,-318.62 700.1,-277.67 700.1,-253.6"/>
<polygon fill="midnightblue" stroke="midnightblue" points="703.6,-253.59 700.1,-243.59 696.6,-253.59 703.6,-253.59"/>
</g>
<!-- Node5 -->
<g id="node5" class="node">
<title>Node5</title>
<g id="a_node5"><a xlink:title=" ">
<polygon fill="none" stroke="#bfbfbf" points="305.1,-56.5 305.1,-75.5 349.1,-75.5 349.1,-56.5 305.1,-56.5"/>
<text text-anchor="middle" x="327.1" y="-63.5" font-family="Helvetica,sans-Serif" font-size="10.00">string</text>
</a>
</g>
</g>
<!-- Node4&#45;&gt;Node5 -->
<g id="edge4" class="edge">
<title>Node4&#45;&gt;Node5</title>
<path fill="none" stroke="midnightblue" d="M129.7,-280.37C84.73,-254.11 -40.01,-173.26 13.1,-112 49.3,-70.24 221.73,-66.3 294.53,-66.55"/>
<polygon fill="midnightblue" stroke="midnightblue" points="294.91,-70.05 304.93,-66.61 294.95,-63.05 294.91,-70.05"/>
</g>
<!-- Node7 -->
<g id="node7" class="node">
<title>Node7</title>
<g id="a_node7"><a xlink:title=" ">
<polygon fill="none" stroke="#bfbfbf" points="683.6,-112.5 683.6,-131.5 730.6,-131.5 730.6,-112.5 683.6,-112.5"/>
<text text-anchor="middle" x="707.1" y="-119.5" font-family="Helvetica,sans-Serif" font-size="10.00">vector</text>
</a>
</g>
</g>
<!-- Node6&#45;&gt;Node7 -->
<g id="edge6" class="edge">
<title>Node6&#45;&gt;Node7</title>
<path fill="none" stroke="midnightblue" d="M614.09,-280.2C615.79,-267.32 620.01,-242.84 629.1,-224 645.2,-190.63 673.55,-157.75 691.28,-138.97"/>
<polygon fill="midnightblue" stroke="midnightblue" points="693.96,-141.23 698.37,-131.6 688.92,-136.37 693.96,-141.23"/>
</g>
<!-- Node8 -->
<g id="node8" class="node">
<title>Node8</title>
<g id="a_node8"><a xlink:title=" ">
<polygon fill="none" stroke="#bfbfbf" points="1045.1,-168.5 1045.1,-187.5 1101.1,-187.5 1101.1,-168.5 1045.1,-168.5"/>
<text text-anchor="middle" x="1073.1" y="-175.5" font-family="Helvetica,sans-Serif" font-size="10.00">optional</text>
</a>
</g>
</g>
<!-- Node6&#45;&gt;Node8 -->
<g id="edge7" class="edge">
<title>Node6&#45;&gt;Node8</title>
<path fill="none" stroke="midnightblue" d="M649.1,-287.29C708.8,-283.7 831.57,-273.15 931.1,-244 974.62,-231.25 1021.89,-207.41 1049.43,-192.42"/>
<polygon fill="midnightblue" stroke="midnightblue" points="1051.25,-195.41 1058.31,-187.51 1047.87,-189.28 1051.25,-195.41"/>
</g>
<!-- Node6&#45;&gt;Node9 -->
<g id="edge8" class="edge">
<title>Node6&#45;&gt;Node9</title>
<path fill="none" stroke="midnightblue" d="M602.81,-280.32C593.26,-272.26 578.82,-260.08 567.31,-250.37"/>
<polygon fill="midnightblue" stroke="midnightblue" points="569.47,-247.61 559.57,-243.83 564.95,-252.96 569.47,-247.61"/>
</g>
<!-- Node6&#45;&gt;Node16 -->
<g id="edge16" class="edge">
<title>Node6&#45;&gt;Node16</title>
<path fill="none" stroke="midnightblue" d="M576.88,-283.47C508.46,-273.04 361.09,-250.56 293.84,-240.3"/>
<polygon fill="midnightblue" stroke="midnightblue" points="294.17,-236.81 283.75,-238.76 293.11,-243.73 294.17,-236.81"/>
</g>
<!-- Node10 -->
<g id="node10" class="node">
<title>Node10</title>
<g id="a_node10"><a xlink:href="forward__type_8h.html" target="_top" xlink:title=" ">
<polygon fill="none" stroke="black" points="526.1,-56.5 526.1,-75.5 616.1,-75.5 616.1,-56.5 526.1,-56.5"/>
<text text-anchor="middle" x="571.1" y="-63.5" font-family="Helvetica,sans-Serif" font-size="10.00">forward_type.h</text>
</a>
</g>
</g>
<!-- Node9&#45;&gt;Node10 -->
<g id="edge9" class="edge">
<title>Node9&#45;&gt;Node10</title>
<path fill="none" stroke="midnightblue" d="M550.28,-224.08C553.74,-197.95 563.91,-121.21 568.63,-85.58"/>
<polygon fill="midnightblue" stroke="midnightblue" points="572.12,-85.94 569.96,-75.57 565.18,-85.02 572.12,-85.94"/>
</g>
<!-- Node9&#45;&gt;Node13 -->
<g id="edge12" class="edge">
<title>Node9&#45;&gt;Node13</title>
<path fill="none" stroke="midnightblue" d="M517.41,-226.26C484.28,-218.75 431.09,-205.33 387.1,-188 350.13,-173.44 309.75,-151.19 285.17,-136.87"/>
<polygon fill="midnightblue" stroke="midnightblue" points="286.65,-133.68 276.26,-131.62 283.1,-139.71 286.65,-133.68"/>
</g>
<!-- Node15 -->
<g id="node15" class="node">
<title>Node15</title>
<g id="a_node15"><a xlink:title=" ">
<polygon fill="none" stroke="#bfbfbf" points="713.6,-168.5 713.6,-187.5 792.6,-187.5 792.6,-168.5 713.6,-168.5"/>
<text text-anchor="middle" x="753.1" y="-175.5" font-family="Helvetica,sans-Serif" font-size="10.00">fmt/format.h</text>
</a>
</g>
</g>
<!-- Node9&#45;&gt;Node15 -->
<g id="edge15" class="edge">
<title>Node9&#45;&gt;Node15</title>
<path fill="none" stroke="midnightblue" d="M580.97,-224.56C615.95,-215.3 672.24,-200.4 710.87,-190.18"/>
<polygon fill="midnightblue" stroke="midnightblue" points="712,-193.5 720.77,-187.56 710.21,-186.73 712,-193.5"/>
</g>
<!-- Node11 -->
<g id="node11" class="node">
<title>Node11</title>
<g id="a_node11"><a xlink:title=" ">
<polygon fill="none" stroke="#bfbfbf" points="497.6,-0.5 497.6,-19.5 566.6,-19.5 566.6,-0.5 497.6,-0.5"/>
<text text-anchor="middle" x="532.1" y="-7.5" font-family="Helvetica,sans-Serif" font-size="10.00">type_traits</text>
</a>
</g>
</g>
<!-- Node10&#45;&gt;Node11 -->
<g id="edge10" class="edge">
<title>Node10&#45;&gt;Node11</title>
<path fill="none" stroke="midnightblue" d="M564.66,-56.08C559.15,-48.46 551.07,-37.26 544.33,-27.94"/>
<polygon fill="midnightblue" stroke="midnightblue" points="547.11,-25.81 538.42,-19.75 541.43,-29.91 547.11,-25.81"/>
</g>
<!-- Node12 -->
<g id="node12" class="node">
<title>Node12</title>
<g id="a_node12"><a xlink:title=" ">
<polygon fill="none" stroke="#bfbfbf" points="585.1,-0.5 585.1,-19.5 635.1,-19.5 635.1,-0.5 585.1,-0.5"/>
<text text-anchor="middle" x="610.1" y="-7.5" font-family="Helvetica,sans-Serif" font-size="10.00">cstdint</text>
</a>
</g>
</g>
<!-- Node10&#45;&gt;Node12 -->
<g id="edge11" class="edge">
<title>Node10&#45;&gt;Node12</title>
<path fill="none" stroke="midnightblue" d="M577.54,-56.08C583.05,-48.46 591.13,-37.26 597.86,-27.94"/>
<polygon fill="midnightblue" stroke="midnightblue" points="600.76,-29.91 603.78,-19.75 595.08,-25.81 600.76,-29.91"/>
</g>
<!-- Node13&#45;&gt;Node5 -->
<g id="edge13" class="edge">
<title>Node13&#45;&gt;Node5</title>
<path fill="none" stroke="midnightblue" d="M272.54,-112.32C282.24,-104.26 296.91,-92.08 308.6,-82.37"/>
<polygon fill="midnightblue" stroke="midnightblue" points="311.01,-84.92 316.46,-75.83 306.53,-79.53 311.01,-84.92"/>
</g>
<!-- Node14 -->
<g id="node14" class="node">
<title>Node14</title>
<g id="a_node14"><a xlink:title=" ">
<polygon fill="none" stroke="#bfbfbf" points="367.6,-56.5 367.6,-75.5 432.6,-75.5 432.6,-56.5 367.6,-56.5"/>
<text text-anchor="middle" x="400.1" y="-63.5" font-family="Helvetica,sans-Serif" font-size="10.00">functional</text>
</a>
</g>
</g>
<!-- Node13&#45;&gt;Node14 -->
<g id="edge14" class="edge">
<title>Node13&#45;&gt;Node14</title>
<path fill="none" stroke="midnightblue" d="M283.96,-112.44C306.88,-103.48 343.07,-89.31 368.96,-79.18"/>
<polygon fill="midnightblue" stroke="midnightblue" points="370.3,-82.42 378.33,-75.52 367.74,-75.9 370.3,-82.42"/>
</g>
<!-- Node17 -->
<g id="node17" class="node">
<title>Node17</title>
<g id="a_node17"><a xlink:href="country_8h.html" target="_top" xlink:title=" ">
<polygon fill="none" stroke="black" points="141.6,-112.5 141.6,-131.5 202.6,-131.5 202.6,-112.5 141.6,-112.5"/>
<text text-anchor="middle" x="172.1" y="-119.5" font-family="Helvetica,sans-Serif" font-size="10.00">country.h</text>
</a>
</g>
</g>
<!-- Node16&#45;&gt;Node17 -->
<g id="edge17" class="edge">
<title>Node16&#45;&gt;Node17</title>
<path fill="none" stroke="midnightblue" d="M236.55,-224.47C220.37,-217.19 199.34,-205.16 187.1,-188 177.54,-174.59 173.97,-156.03 172.69,-142.17"/>
<polygon fill="midnightblue" stroke="midnightblue" points="176.16,-141.62 172.06,-131.85 169.17,-142.04 176.16,-141.62"/>
</g>
<!-- Node18 -->
<g id="node18" class="node">
<title>Node18</title>
<g id="a_node18"><a xlink:href="population__item_8h.html" target="_top" xlink:title=" ">
<polygon fill="none" stroke="red" points="195.6,-168.5 195.6,-187.5 300.6,-187.5 300.6,-168.5 195.6,-168.5"/>
<text text-anchor="middle" x="248.1" y="-175.5" font-family="Helvetica,sans-Serif" font-size="10.00">population_item.h</text>
</a>
</g>
</g>
<!-- Node16&#45;&gt;Node18 -->
<g id="edge19" class="edge">
<title>Node16&#45;&gt;Node18</title>
<path fill="none" stroke="midnightblue" d="M257.28,-224.08C255.82,-216.93 253.73,-206.64 251.9,-197.69"/>
<polygon fill="midnightblue" stroke="midnightblue" points="255.3,-196.85 249.88,-187.75 248.45,-198.25 255.3,-196.85"/>
</g>
<!-- Node20 -->
<g id="node19" class="node">
<title>Node20</title>
<g id="a_node19"><a xlink:href="HealthGPS_8Core_2disease_8h.html" target="_top" xlink:title=" ">
<polygon fill="none" stroke="red" points="395.6,-168.5 395.6,-187.5 458.6,-187.5 458.6,-168.5 395.6,-168.5"/>
<text text-anchor="middle" x="427.1" y="-175.5" font-family="Helvetica,sans-Serif" font-size="10.00">disease.h</text>
</a>
</g>
</g>
<!-- Node16&#45;&gt;Node20 -->
<g id="edge20" class="edge">
<title>Node16&#45;&gt;Node20</title>
<path fill="none" stroke="midnightblue" d="M283.89,-225.03C312.17,-215.94 358.69,-200.99 391,-190.6"/>
<polygon fill="midnightblue" stroke="midnightblue" points="392.09,-193.93 400.54,-187.54 389.95,-187.26 392.09,-193.93"/>
</g>
<!-- Node24 -->
<g id="node22" class="node">
<title>Node24</title>
<g id="a_node22"><a xlink:href="analysis_8h.html" target="_top" xlink:title=" ">
<polygon fill="none" stroke="red" points="477.1,-168.5 477.1,-187.5 543.1,-187.5 543.1,-168.5 477.1,-168.5"/>
<text text-anchor="middle" x="510.1" y="-175.5" font-family="Helvetica,sans-Serif" font-size="10.00">analysis.h</text>
</a>
</g>
</g>
<!-- Node16&#45;&gt;Node24 -->
<g id="edge28" class="edge">
<title>Node16&#45;&gt;Node24</title>
<path fill="none" stroke="midnightblue" d="M283.62,-227.72C326.06,-218.59 413.73,-199.73 466.68,-188.34"/>
<polygon fill="midnightblue" stroke="midnightblue" points="467.74,-191.69 476.78,-186.17 466.27,-184.85 467.74,-191.69"/>
</g>
<!-- Node25 -->
<g id="node23" class="node">
<title>Node25</title>
<g id="a_node23"><a xlink:href="indicator_8h.html" target="_top" xlink:title=" ">
<polygon fill="none" stroke="black" points="22.1,-112.5 22.1,-131.5 90.1,-131.5 90.1,-112.5 22.1,-112.5"/>
<text text-anchor="middle" x="56.1" y="-119.5" font-family="Helvetica,sans-Serif" font-size="10.00">indicator.h</text>
</a>
</g>
</g>
<!-- Node16&#45;&gt;Node25 -->
<g id="edge32" class="edge">
<title>Node16&#45;&gt;Node25</title>
<path fill="none" stroke="midnightblue" d="M234.55,-230.98C186.68,-226.51 83.55,-214.02 61.1,-188 50.36,-175.56 50.19,-156.32 52.06,-142"/>
<polygon fill="midnightblue" stroke="midnightblue" points="55.57,-142.24 53.83,-131.79 48.67,-141.05 55.57,-142.24"/>
</g>
<!-- Node26 -->
<g id="node24" class="node">
<title>Node26</title>
<g id="a_node24"><a xlink:href="mortality_8h.html" target="_top" xlink:title=" ">
<polygon fill="none" stroke="red" points="69.6,-168.5 69.6,-187.5 138.6,-187.5 138.6,-168.5 69.6,-168.5"/>
<text text-anchor="middle" x="104.1" y="-175.5" font-family="Helvetica,sans-Serif" font-size="10.00">mortality.h</text>
</a>
</g>
</g>
<!-- Node16&#45;&gt;Node26 -->
<g id="edge34" class="edge">
<title>Node16&#45;&gt;Node26</title>
<path fill="none" stroke="midnightblue" d="M234.54,-224.44C208.57,-215.4 167.43,-201.06 138.3,-190.92"/>
<polygon fill="midnightblue" stroke="midnightblue" points="139.14,-187.5 128.54,-187.52 136.83,-194.11 139.14,-187.5"/>
</g>
<!-- Node17&#45;&gt;Node5 -->
<g id="edge18" class="edge">
<title>Node17&#45;&gt;Node5</title>
<path fill="none" stroke="midnightblue" d="M196.66,-112.44C223.23,-103.19 265.71,-88.39 294.93,-78.21"/>
<polygon fill="midnightblue" stroke="midnightblue" points="296.37,-81.41 304.66,-74.82 294.07,-74.8 296.37,-81.41"/>
</g>
<!-- Node20&#45;&gt;Node5 -->
<g id="edge21" class="edge">
<title>Node20&#45;&gt;Node5</title>
<path fill="none" stroke="midnightblue" d="M404.3,-168.44C387.52,-161.08 365.24,-148.96 351.1,-132 340.03,-118.73 333.83,-99.89 330.52,-85.91"/>
<polygon fill="midnightblue" stroke="midnightblue" points="333.9,-85.01 328.44,-75.94 327.05,-86.44 333.9,-85.01"/>
</g>
<!-- Node20&#45;&gt;Node7 -->
<g id="edge22" class="edge">
<title>Node20&#45;&gt;Node7</title>
<path fill="none" stroke="midnightblue" d="M458.86,-169.93C461.98,-169.26 465.1,-168.61 468.1,-168 541.02,-153.13 626.83,-137.41 673.21,-129.05"/>
<polygon fill="midnightblue" stroke="midnightblue" points="674.08,-132.45 683.3,-127.24 672.84,-125.56 674.08,-132.45"/>
</g>
<!-- Node20&#45;&gt;Node10 -->
<g id="edge23" class="edge">
<title>Node20&#45;&gt;Node10</title>
<path fill="none" stroke="midnightblue" d="M438.4,-168.37C462.9,-149.65 521.15,-105.15 551.68,-81.83"/>
<polygon fill="midnightblue" stroke="midnightblue" points="554.03,-84.44 559.85,-75.59 549.78,-78.88 554.03,-84.44"/>
</g>
<!-- Node20&#45;&gt;Node22 -->
<g id="edge24" class="edge">
<title>Node20&#45;&gt;Node22</title>
<path fill="none" stroke="midnightblue" d="M427.1,-168.08C427.1,-161.01 427.1,-150.86 427.1,-141.99"/>
<polygon fill="midnightblue" stroke="midnightblue" points="430.6,-141.75 427.1,-131.75 423.6,-141.75 430.6,-141.75"/>
</g>
<!-- Node22&#45;&gt;Node5 -->
<g id="edge25" class="edge">
<title>Node22&#45;&gt;Node5</title>
<path fill="none" stroke="midnightblue" d="M411.03,-112.32C395.14,-103.74 370.59,-90.49 352.14,-80.52"/>
<polygon fill="midnightblue" stroke="midnightblue" points="353.59,-77.33 343.12,-75.65 350.26,-83.49 353.59,-77.33"/>
</g>
<!-- Node22&#45;&gt;Node14 -->
<g id="edge27" class="edge">
<title>Node22&#45;&gt;Node14</title>
<path fill="none" stroke="midnightblue" d="M422.64,-112.08C418.94,-104.69 413.57,-93.95 409,-84.81"/>
<polygon fill="midnightblue" stroke="midnightblue" points="412.07,-83.13 404.47,-75.75 405.81,-86.26 412.07,-83.13"/>
</g>
<!-- Node23 -->
<g id="node21" class="node">
<title>Node23</title>
<g id="a_node21"><a xlink:title=" ">
<polygon fill="none" stroke="#bfbfbf" points="450.6,-56.5 450.6,-75.5 507.6,-75.5 507.6,-56.5 450.6,-56.5"/>
<text text-anchor="middle" x="479.1" y="-63.5" font-family="Helvetica,sans-Serif" font-size="10.00">ostream</text>
</a>
</g>
</g>
<!-- Node22&#45;&gt;Node23 -->
<g id="edge26" class="edge">
<title>Node22&#45;&gt;Node23</title>
<path fill="none" stroke="midnightblue" d="M435.68,-112.08C443.26,-104.22 454.47,-92.57 463.61,-83.08"/>
<polygon fill="midnightblue" stroke="midnightblue" points="466.25,-85.38 470.67,-75.75 461.21,-80.53 466.25,-85.38"/>
</g>
<!-- Node24&#45;&gt;Node5 -->
<g id="edge30" class="edge">
<title>Node24&#45;&gt;Node5</title>
<path fill="none" stroke="midnightblue" d="M476.92,-170.05C450.2,-163.35 412.53,-151.32 384.1,-132 365.36,-119.27 348.9,-98.95 338.55,-84.42"/>
<polygon fill="midnightblue" stroke="midnightblue" points="341.21,-82.11 332.67,-75.85 335.44,-86.07 341.21,-82.11"/>
</g>
<!-- Node24&#45;&gt;Node7 -->
<g id="edge29" class="edge">
<title>Node24&#45;&gt;Node7</title>
<path fill="none" stroke="midnightblue" d="M541.31,-168.44C577.41,-158.55 636.6,-142.32 673.63,-132.17"/>
<polygon fill="midnightblue" stroke="midnightblue" points="674.73,-135.5 683.45,-129.48 672.88,-128.75 674.73,-135.5"/>
</g>
<!-- Node24&#45;&gt;Node10 -->
<g id="edge31" class="edge">
<title>Node24&#45;&gt;Node10</title>
<path fill="none" stroke="midnightblue" d="M514.88,-168.37C524.86,-150.38 548.05,-108.55 561.32,-84.63"/>
<polygon fill="midnightblue" stroke="midnightblue" points="564.54,-86.03 566.33,-75.59 558.42,-82.64 564.54,-86.03"/>
</g>
<!-- Node25&#45;&gt;Node5 -->
<g id="edge33" class="edge">
<title>Node25&#45;&gt;Node5</title>
<path fill="none" stroke="midnightblue" d="M90.14,-114.22C142.81,-103.72 243.32,-83.69 294.86,-73.42"/>
<polygon fill="midnightblue" stroke="midnightblue" points="295.66,-76.83 304.79,-71.45 294.3,-69.97 295.66,-76.83"/>
</g>
<!-- Node27&#45;&gt;Node10 -->
<g id="edge36" class="edge">
<title>Node27&#45;&gt;Node10</title>
<path fill="none" stroke="midnightblue" d="M1630.93,-113.55C1627.96,-112.94 1624.98,-112.41 1622.1,-112 1426.99,-84.37 814.01,-71.34 626.28,-67.94"/>
<polygon fill="midnightblue" stroke="midnightblue" points="626.16,-64.43 616.1,-67.75 626.03,-71.43 626.16,-64.43"/>
</g>
<!-- Node28&#45;&gt;Node7 -->
<g id="edge40" class="edge">
<title>Node28&#45;&gt;Node7</title>
<path fill="none" stroke="midnightblue" d="M1307.43,-224.15C1307.45,-209.81 1305.14,-181.7 1288.1,-168 1242.36,-131.22 819.39,-138.83 761.1,-132 754.53,-131.23 747.54,-130.21 740.85,-129.14"/>
<polygon fill="midnightblue" stroke="midnightblue" points="741.12,-125.64 730.68,-127.44 739.97,-132.54 741.12,-125.64"/>
</g>
<!-- Node28&#45;&gt;Node8 -->
<g id="edge43" class="edge">
<title>Node28&#45;&gt;Node8</title>
<path fill="none" stroke="midnightblue" d="M1270.95,-224.78C1231.61,-215.81 1166.86,-201 1111.1,-188 1111,-187.98 1110.9,-187.95 1110.8,-187.93"/>
<polygon fill="midnightblue" stroke="midnightblue" points="1111.85,-184.58 1101.31,-185.71 1110.25,-191.4 1111.85,-184.58"/>
</g>
<!-- Node28&#45;&gt;Node23 -->
<g id="edge44" class="edge">
<title>Node28&#45;&gt;Node23</title>
<path fill="none" stroke="midnightblue" d="M1343.13,-229.02C1389.73,-223.04 1466.97,-210.03 1484.1,-188 1489.55,-180.98 1490.08,-174.58 1484.1,-168 1413.33,-90.18 663.13,-93.37 517.75,-75.64"/>
<polygon fill="midnightblue" stroke="midnightblue" points="518.04,-72.14 507.64,-74.21 517.06,-79.07 518.04,-72.14"/>
</g>
<!-- Node29 -->
<g id="node27" class="node">
<title>Node29</title>
<g id="a_node27"><a xlink:title=" ">
<polygon fill="none" stroke="#bfbfbf" points="1417.1,-168.5 1417.1,-187.5 1475.1,-187.5 1475.1,-168.5 1417.1,-168.5"/>
<text text-anchor="middle" x="1446.1" y="-175.5" font-family="Helvetica,sans-Serif" font-size="10.00">memory</text>
</a>
</g>
</g>
<!-- Node28&#45;&gt;Node29 -->
<g id="edge38" class="edge">
<title>Node28&#45;&gt;Node29</title>
<path fill="none" stroke="midnightblue" d="M1329.12,-224.44C1352.2,-215.48 1388.66,-201.31 1414.74,-191.18"/>
<polygon fill="midnightblue" stroke="midnightblue" points="1416.12,-194.4 1424.17,-187.52 1413.59,-187.88 1416.12,-194.4"/>
</g>
<!-- Node30 -->
<g id="node28" class="node">
<title>Node30</title>
<g id="a_node28"><a xlink:title=" ">
<polygon fill="none" stroke="#bfbfbf" points="1231.1,-168.5 1231.1,-187.5 1279.1,-187.5 1279.1,-168.5 1231.1,-168.5"/>
<text text-anchor="middle" x="1255.1" y="-175.5" font-family="Helvetica,sans-Serif" font-size="10.00">mutex</text>
</a>
</g>
</g>
<!-- Node28&#45;&gt;Node30 -->
<g id="edge39" class="edge">
<title>Node28&#45;&gt;Node30</title>
<path fill="none" stroke="midnightblue" d="M1298.51,-224.08C1290.94,-216.22 1279.72,-204.57 1270.58,-195.08"/>
<polygon fill="midnightblue" stroke="midnightblue" points="1272.98,-192.53 1263.52,-187.75 1267.94,-197.38 1272.98,-192.53"/>
</g>
<!-- Node31 -->
<g id="node29" class="node">
<title>Node31</title>
<g id="a_node29"><a xlink:title=" ">
<polygon fill="none" stroke="#bfbfbf" points="1119.6,-168.5 1119.6,-187.5 1212.6,-187.5 1212.6,-168.5 1119.6,-168.5"/>
<text text-anchor="middle" x="1166.1" y="-175.5" font-family="Helvetica,sans-Serif" font-size="10.00">unordered_map</text>
</a>
</g>
</g>
<!-- Node28&#45;&gt;Node31 -->
<g id="edge41" class="edge">
<title>Node28&#45;&gt;Node31</title>
<path fill="none" stroke="midnightblue" d="M1284.75,-224.44C1261.34,-215.48 1224.36,-201.31 1197.91,-191.18"/>
<polygon fill="midnightblue" stroke="midnightblue" points="1198.92,-187.82 1188.33,-187.52 1196.42,-194.36 1198.92,-187.82"/>
</g>
<!-- Node32 -->
<g id="node30" class="node">
<title>Node32</title>
<g id="a_node30"><a xlink:title=" ">
<polygon fill="none" stroke="#bfbfbf" points="1335.1,-168.5 1335.1,-187.5 1399.1,-187.5 1399.1,-168.5 1335.1,-168.5"/>
<text text-anchor="middle" x="1367.1" y="-175.5" font-family="Helvetica,sans-Serif" font-size="10.00">algorithm</text>
</a>
</g>
</g>
<!-- Node28&#45;&gt;Node32 -->
<g id="edge42" class="edge">
<title>Node28&#45;&gt;Node32</title>
<path fill="none" stroke="midnightblue" d="M1316.74,-224.32C1325.61,-216.34 1338.97,-204.31 1349.7,-194.65"/>
<polygon fill="midnightblue" stroke="midnightblue" points="1352.19,-197.13 1357.28,-187.83 1347.51,-191.92 1352.19,-197.13"/>
</g>
<!-- Node33 -->
<g id="node31" class="node">
<title>Node33</title>
<g id="a_node31"><a xlink:href="column_8h.html" target="_top" xlink:title=" ">
<polygon fill="none" stroke="black" points="1569.1,-168.5 1569.1,-187.5 1631.1,-187.5 1631.1,-168.5 1569.1,-168.5"/>
<text text-anchor="middle" x="1600.1" y="-175.5" font-family="Helvetica,sans-Serif" font-size="10.00">column.h</text>
</a>
</g>
</g>
<!-- Node28&#45;&gt;Node33 -->
<g id="edge45" class="edge">
<title>Node28&#45;&gt;Node33</title>
<path fill="none" stroke="midnightblue" d="M1343.28,-226.64C1391.6,-218.11 1479.87,-202.35 1555.1,-188 1556.19,-187.79 1557.3,-187.58 1558.42,-187.36"/>
<polygon fill="midnightblue" stroke="midnightblue" points="1559.5,-190.72 1568.64,-185.37 1558.15,-183.85 1559.5,-190.72"/>
</g>
<!-- Node33&#45;&gt;Node5 -->
<g id="edge48" class="edge">
<title>Node33&#45;&gt;Node5</title>
<path fill="none" stroke="midnightblue" d="M1569.02,-174.13C1549.29,-172.32 1523.2,-169.97 1500.1,-168 1376.21,-157.43 523.85,-101.05 359.56,-75.56"/>
<polygon fill="midnightblue" stroke="midnightblue" points="359.79,-72.05 349.35,-73.85 358.63,-78.95 359.79,-72.05"/>
</g>
<!-- Node33&#45;&gt;Node27 -->
<g id="edge49" class="edge">
<title>Node33&#45;&gt;Node27</title>
<path fill="none" stroke="midnightblue" d="M1609.58,-168.32C1618.3,-160.34 1631.44,-148.31 1641.99,-138.65"/>
<polygon fill="midnightblue" stroke="midnightblue" points="1644.43,-141.17 1649.44,-131.83 1639.7,-136 1644.43,-141.17"/>
</g>
<!-- Node34 -->
<g id="node32" class="node">
<title>Node34</title>
<g id="a_node32"><a xlink:title=" ">
<polygon fill="none" stroke="#bfbfbf" points="1502.6,-112.5 1502.6,-131.5 1537.6,-131.5 1537.6,-112.5 1502.6,-112.5"/>
<text text-anchor="middle" x="1520.1" y="-119.5" font-family="Helvetica,sans-Serif" font-size="10.00">any</text>
</a>
</g>
</g>
<!-- Node33&#45;&gt;Node34 -->
<g id="edge46" class="edge">
<title>Node33&#45;&gt;Node34</title>
<path fill="none" stroke="midnightblue" d="M1587.24,-168.32C1574.88,-159.98 1555.97,-147.21 1541.36,-137.35"/>
<polygon fill="midnightblue" stroke="midnightblue" points="1543.16,-134.35 1532.92,-131.65 1539.25,-140.15 1543.16,-134.35"/>
</g>
<!-- Node35 -->
<g id="node33" class="node">
<title>Node35</title>
<g id="a_node33"><a xlink:title=" ">
<polygon fill="none" stroke="#bfbfbf" points="1555.6,-112.5 1555.6,-131.5 1612.6,-131.5 1612.6,-112.5 1555.6,-112.5"/>
<text text-anchor="middle" x="1584.1" y="-119.5" font-family="Helvetica,sans-Serif" font-size="10.00">typeinfo</text>
</a>
</g>
</g>
<!-- Node33&#45;&gt;Node35 -->
<g id="edge47" class="edge">
<title>Node33&#45;&gt;Node35</title>
<path fill="none" stroke="midnightblue" d="M1597.45,-168.08C1595.31,-160.85 1592.22,-150.41 1589.55,-141.4"/>
<polygon fill="midnightblue" stroke="midnightblue" points="1592.89,-140.34 1586.69,-131.75 1586.17,-142.33 1592.89,-140.34"/>
</g>
<!-- Node37 -->
<g id="node35" class="node">
<title>Node37</title>
<g id="a_node35"><a xlink:href="column__primitive_8h.html" target="_top" xlink:title=" ">
<polygon fill="none" stroke="black" points="1404.6,-224.5 1404.6,-243.5 1515.6,-243.5 1515.6,-224.5 1404.6,-224.5"/>
<text text-anchor="middle" x="1460.1" y="-231.5" font-family="Helvetica,sans-Serif" font-size="10.00">column_primitive.h</text>
</a>
</g>
</g>
<!-- Node36&#45;&gt;Node37 -->
<g id="edge51" class="edge">
<title>Node36&#45;&gt;Node37</title>
<path fill="none" stroke="midnightblue" d="M1319.56,-280.44C1347.77,-271.32 1392.64,-256.81 1424.06,-246.65"/>
<polygon fill="midnightblue" stroke="midnightblue" points="1425.32,-249.92 1433.76,-243.52 1423.17,-243.26 1425.32,-249.92"/>
</g>
<!-- Node37&#45;&gt;Node7 -->
<g id="edge53" class="edge">
<title>Node37&#45;&gt;Node7</title>
<path fill="none" stroke="midnightblue" d="M1468.34,-224.27C1480.28,-210.6 1499.35,-184.04 1484.1,-168 1456.38,-138.86 801.08,-136.31 761.1,-132 754.52,-131.29 747.53,-130.3 740.84,-129.24"/>
<polygon fill="midnightblue" stroke="midnightblue" points="741.11,-125.74 730.67,-127.54 739.96,-132.64 741.11,-125.74"/>
</g>
<!-- Node37&#45;&gt;Node8 -->
<g id="edge54" class="edge">
<title>Node37&#45;&gt;Node8</title>
<path fill="none" stroke="midnightblue" d="M1404.51,-227.64C1335.42,-220.57 1214.02,-206.77 1111.1,-188 1111,-187.98 1110.9,-187.96 1110.8,-187.94"/>
<polygon fill="midnightblue" stroke="midnightblue" points="1111.74,-184.57 1101.25,-186.01 1110.36,-191.43 1111.74,-184.57"/>
</g>
<!-- Node37&#45;&gt;Node32 -->
<g id="edge52" class="edge">
<title>Node37&#45;&gt;Node32</title>
<path fill="none" stroke="midnightblue" d="M1445.15,-224.32C1430.51,-215.82 1407.96,-202.73 1390.86,-192.8"/>
<polygon fill="midnightblue" stroke="midnightblue" points="1392.41,-189.65 1382,-187.65 1388.89,-195.7 1392.41,-189.65"/>
</g>
<!-- Node37&#45;&gt;Node33 -->
<g id="edge55" class="edge">
<title>Node37&#45;&gt;Node33</title>
<path fill="none" stroke="midnightblue" d="M1482.28,-224.44C1505.52,-215.48 1542.25,-201.31 1568.51,-191.18"/>
<polygon fill="midnightblue" stroke="midnightblue" points="1569.95,-194.38 1578.02,-187.52 1567.43,-187.85 1569.95,-194.38"/>
</g>
<!-- Node37&#45;&gt;Node38 -->
<g id="edge56" class="edge">
<title>Node37&#45;&gt;Node38</title>
<path fill="none" stroke="midnightblue" d="M1504.15,-224.44C1552.95,-214.96 1631.66,-199.67 1684.13,-189.48"/>
<polygon fill="midnightblue" stroke="midnightblue" points="1685.1,-192.86 1694.25,-187.52 1683.77,-185.99 1685.1,-192.86"/>
</g>
<!-- Node39 -->
<g id="node37" class="node">
<title>Node39</title>
<g id="a_node37"><a xlink:title=" ">
<polygon fill="none" stroke="#bfbfbf" points="1711.6,-112.5 1711.6,-131.5 1764.6,-131.5 1764.6,-112.5 1711.6,-112.5"/>
<text text-anchor="middle" x="1738.1" y="-119.5" font-family="Helvetica,sans-Serif" font-size="10.00">iterator</text>
</a>
</g>
</g>
<!-- Node38&#45;&gt;Node39 -->
<g id="edge57" class="edge">
<title>Node38&#45;&gt;Node39</title>
<path fill="none" stroke="midnightblue" d="M1738.1,-168.08C1738.1,-161.01 1738.1,-150.86 1738.1,-141.99"/>
<polygon fill="midnightblue" stroke="midnightblue" points="1741.6,-141.75 1738.1,-131.75 1734.6,-141.75 1741.6,-141.75"/>
</g>
<!-- Node40&#45;&gt;Node7 -->
<g id="edge61" class="edge">
<title>Node40&#45;&gt;Node7</title>
<path fill="none" stroke="midnightblue" d="M1808.12,-224.29C1810.82,-210.15 1813.65,-182.33 1798.1,-168 1758.31,-131.33 921.55,-124.27 741.17,-123.18"/>
<polygon fill="midnightblue" stroke="midnightblue" points="740.97,-119.68 730.95,-123.12 740.93,-126.68 740.97,-119.68"/>
</g>
<!-- Node40&#45;&gt;Node29 -->
<g id="edge59" class="edge">
<title>Node40&#45;&gt;Node29</title>
<path fill="none" stroke="midnightblue" d="M1756.04,-225.49C1683.6,-214.63 1551.04,-194.74 1485.26,-184.88"/>
<polygon fill="midnightblue" stroke="midnightblue" points="1485.71,-181.4 1475.3,-183.38 1484.67,-188.33 1485.71,-181.4"/>
</g>
<!-- Node40&#45;&gt;Node33 -->
<g id="edge63" class="edge">
<title>Node40&#45;&gt;Node33</title>
<path fill="none" stroke="midnightblue" d="M1773.46,-224.44C1737.63,-215.05 1680.05,-199.96 1641.18,-189.77"/>
<polygon fill="midnightblue" stroke="midnightblue" points="1641.8,-186.31 1631.24,-187.16 1640.02,-193.08 1641.8,-186.31"/>
</g>
<!-- Node41 -->
<g id="node39" class="node">
<title>Node41</title>
<g id="a_node39"><a xlink:title=" ">
<polygon fill="none" stroke="#bfbfbf" points="1929.1,-168.5 1929.1,-187.5 1973.1,-187.5 1973.1,-168.5 1929.1,-168.5"/>
<text text-anchor="middle" x="1951.1" y="-175.5" font-family="Helvetica,sans-Serif" font-size="10.00">limits</text>
</a>
</g>
</g>
<!-- Node40&#45;&gt;Node41 -->
<g id="edge60" class="edge">
<title>Node40&#45;&gt;Node41</title>
<path fill="none" stroke="midnightblue" d="M1829.07,-224.44C1853.4,-215.39 1891.97,-201.02 1919.22,-190.87"/>
<polygon fill="midnightblue" stroke="midnightblue" points="1920.55,-194.11 1928.7,-187.34 1918.11,-187.55 1920.55,-194.11"/>
</g>
<!-- Node42 -->
<g id="node40" class="node">
<title>Node42</title>
<g id="a_node40"><a xlink:title=" ">
<polygon fill="none" stroke="#bfbfbf" points="1845.6,-168.5 1845.6,-187.5 1910.6,-187.5 1910.6,-168.5 1845.6,-168.5"/>
<text text-anchor="middle" x="1878.1" y="-175.5" font-family="Helvetica,sans-Serif" font-size="10.00">exception</text>
</a>
</g>
</g>
<!-- Node40&#45;&gt;Node42 -->
<g id="edge62" class="edge">
<title>Node40&#45;&gt;Node42</title>
<path fill="none" stroke="midnightblue" d="M1817.66,-224.32C1828.52,-216.18 1844.98,-203.84 1857.98,-194.09"/>
<polygon fill="midnightblue" stroke="midnightblue" points="1860.42,-196.63 1866.32,-187.83 1856.22,-191.03 1860.42,-196.63"/>
</g>
<!-- Node43&#45;&gt;Node7 -->
<g id="edge69" class="edge">
<title>Node43&#45;&gt;Node7</title>
<path fill="none" stroke="midnightblue" d="M879.72,-224.3C863.72,-211.12 831.76,-185.75 802.1,-168 781.29,-155.55 756.5,-143.9 737.46,-135.58"/>
<polygon fill="midnightblue" stroke="midnightblue" points="738.65,-132.28 728.08,-131.54 735.88,-138.71 738.65,-132.28"/>
</g>
<!-- Node43&#45;&gt;Node10 -->
<g id="edge67" class="edge">
<title>Node43&#45;&gt;Node10</title>
<path fill="none" stroke="midnightblue" d="M883.51,-224.29C873.26,-211.09 852.44,-185.71 831.1,-168 794.55,-137.67 783.73,-130.75 740.1,-112 703.57,-96.3 660.19,-84.89 626.53,-77.48"/>
<polygon fill="midnightblue" stroke="midnightblue" points="626.92,-73.99 616.41,-75.31 625.45,-80.83 626.92,-73.99"/>
</g>
<!-- Node43&#45;&gt;Node15 -->
<g id="edge73" class="edge">
<title>Node43&#45;&gt;Node15</title>
<path fill="none" stroke="midnightblue" d="M868.39,-224.44C845.74,-215.52 810.02,-201.44 784.34,-191.32"/>
<polygon fill="midnightblue" stroke="midnightblue" points="785.29,-187.93 774.7,-187.52 782.72,-194.44 785.29,-187.93"/>
</g>
<!-- Node43&#45;&gt;Node29 -->
<g id="edge68" class="edge">
<title>Node43&#45;&gt;Node29</title>
<path fill="none" stroke="midnightblue" d="M921.83,-231.86C1001.7,-228.63 1217.63,-217.8 1406.61,-188.02"/>
<polygon fill="midnightblue" stroke="midnightblue" points="1407.4,-191.44 1416.72,-186.4 1406.3,-184.53 1407.4,-191.44"/>
</g>
<!-- Node43&#45;&gt;Node32 -->
<g id="edge70" class="edge">
<title>Node43&#45;&gt;Node32</title>
<path fill="none" stroke="midnightblue" d="M921.83,-229.42C989.26,-221.82 1151.81,-203.47 1288.1,-188 1299.98,-186.65 1312.86,-185.19 1324.71,-183.84"/>
<polygon fill="midnightblue" stroke="midnightblue" points="1325.27,-187.29 1334.81,-182.68 1324.48,-180.34 1325.27,-187.29"/>
</g>
<!-- Node44 -->
<g id="node42" class="node">
<title>Node44</title>
<g id="a_node42"><a xlink:title=" ">
<polygon fill="none" stroke="#bfbfbf" points="887.6,-168.5 887.6,-187.5 952.6,-187.5 952.6,-168.5 887.6,-168.5"/>
<text text-anchor="middle" x="920.1" y="-175.5" font-family="Helvetica,sans-Serif" font-size="10.00">stdexcept</text>
</a>
</g>
</g>
<!-- Node43&#45;&gt;Node44 -->
<g id="edge71" class="edge">
<title>Node43&#45;&gt;Node44</title>
<path fill="none" stroke="midnightblue" d="M895.05,-224.08C899.2,-216.61 905.25,-205.72 910.36,-196.52"/>
<polygon fill="midnightblue" stroke="midnightblue" points="913.44,-198.19 915.23,-187.75 907.32,-194.79 913.44,-198.19"/>
</g>
<!-- Node45 -->
<g id="node43" class="node">
<title>Node45</title>
<g id="a_node43"><a xlink:title=" ">
<polygon fill="none" stroke="#bfbfbf" points="971.1,-168.5 971.1,-187.5 1027.1,-187.5 1027.1,-168.5 971.1,-168.5"/>
<text text-anchor="middle" x="999.1" y="-175.5" font-family="Helvetica,sans-Serif" font-size="10.00">sstream</text>
</a>
</g>
</g>
<!-- Node43&#45;&gt;Node45 -->
<g id="edge72" class="edge">
<title>Node43&#45;&gt;Node45</title>
<path fill="none" stroke="midnightblue" d="M907.61,-224.32C925.17,-215.62 952.43,-202.12 972.63,-192.11"/>
<polygon fill="midnightblue" stroke="midnightblue" points="974.22,-195.23 981.63,-187.65 971.11,-188.96 974.22,-195.23"/>
</g>
<!-- Node46&#45;&gt;Node5 -->
<g id="edge75" class="edge">
<title>Node46&#45;&gt;Node5</title>
<path fill="none" stroke="midnightblue" d="M686,-224.43C650.67,-203.21 555.07,-147.38 470.1,-112 449.92,-103.6 394.69,-86.86 359.07,-76.33"/>
<polygon fill="midnightblue" stroke="midnightblue" points="359.72,-72.88 349.14,-73.41 357.75,-79.59 359.72,-72.88"/>
</g>
<!-- Node46&#45;&gt;Node7 -->
<g id="edge76" class="edge">
<title>Node46&#45;&gt;Node7</title>
<path fill="none" stroke="midnightblue" d="M700.65,-224.37C701.78,-206.62 704.38,-165.67 705.91,-141.6"/>
<polygon fill="midnightblue" stroke="midnightblue" points="709.41,-141.79 706.55,-131.59 702.42,-141.35 709.41,-141.79"/>
</g>
<!-- Node46&#45;&gt;Node8 -->
<g id="edge77" class="edge">
<title>Node46&#45;&gt;Node8</title>
<path fill="none" stroke="midnightblue" d="M762.65,-226.62C828.18,-219.49 934.27,-206.67 1034.85,-188.07"/>
<polygon fill="midnightblue" stroke="midnightblue" points="1035.7,-191.47 1044.88,-186.19 1034.41,-184.59 1035.7,-191.47"/>
</g>
</g>
</svg>
