<?xml version="1.0" encoding="UTF-8" standalone="no"?>
<!DOCTYPE svg PUBLIC "-//W3C//DTD SVG 1.1//EN"
 "http://www.w3.org/Graphics/SVG/1.1/DTD/svg11.dtd">
<!-- Generated by graphviz version 7.0.6 (20230106.0513)
 -->
<!-- Title: HealthGPS/default_disease_model.h Pages: 1 -->
<svg width="310pt" height="159pt"
 viewBox="0.00 0.00 310.00 159.00" xmlns="http://www.w3.org/2000/svg" xmlns:xlink="http://www.w3.org/1999/xlink">
<g id="graph0" class="graph" transform="scale(1 1) rotate(0) translate(4 155)">
<title>HealthGPS/default_disease_model.h</title>
<!-- Node1 -->
<g id="node1" class="node">
<title>Node1</title>
<g id="a_node1"><a xlink:title=" ">
<polygon fill="#999999" stroke="#666666" points="216,-151 80,-151 80,-121 216,-121 216,-151"/>
<text text-anchor="start" x="88" y="-139" font-family="Helvetica,sans-Serif" font-size="10.00">HealthGPS/default_disease</text>
<text text-anchor="middle" x="148" y="-128" font-family="Helvetica,sans-Serif" font-size="10.00">_model.h</text>
</a>
</g>
</g>
<!-- Node2 -->
<g id="node2" class="node">
<title>Node2</title>
<g id="a_node2"><a xlink:href="default__disease__model_8cpp.html" target="_top" xlink:title=" ">
<polygon fill="white" stroke="#666666" points="136,-85 0,-85 0,-55 136,-55 136,-85"/>
<text text-anchor="start" x="8" y="-73" font-family="Helvetica,sans-Serif" font-size="10.00">HealthGPS/default_disease</text>
<text text-anchor="middle" x="68" y="-62" font-family="Helvetica,sans-Serif" font-size="10.00">_model.cpp</text>
</a>
</g>
</g>
<!-- Node1&#45;&gt;Node2 -->
<g id="edge1" class="edge">
<title>Node1&#45;&gt;Node2</title>
<path fill="none" stroke="#63b8ff" d="M121.37,-113.7C109.74,-104.4 96.41,-93.73 85.98,-85.39"/>
<polygon fill="#63b8ff" stroke="#63b8ff" points="119.07,-116.34 129.06,-119.85 123.44,-110.87 119.07,-116.34"/>
</g>
<!-- Node3 -->
<g id="node3" class="node">
<title>Node3</title>
<g id="a_node3"><a xlink:href="disease__registry_8h.html" target="_top" xlink:title=" ">
<polygon fill="white" stroke="#666666" points="302,-79.5 154,-79.5 154,-60.5 302,-60.5 302,-79.5"/>
<text text-anchor="middle" x="228" y="-67.5" font-family="Helvetica,sans-Serif" font-size="10.00">HealthGPS/disease_registry.h</text>
</a>
</g>
</g>
<!-- Node1&#45;&gt;Node3 -->
<g id="edge2" class="edge">
<title>Node1&#45;&gt;Node3</title>
<path fill="none" stroke="#63b8ff" d="M174.34,-113.93C188.81,-102.35 205.99,-88.61 216.94,-79.84"/>
<polygon fill="#63b8ff" stroke="#63b8ff" points="172.56,-110.87 166.94,-119.85 176.93,-116.34 172.56,-110.87"/>
</g>
<!-- Node4 -->
<g id="node4" class="node">
<title>Node4</title>
<g id="a_node4"><a xlink:href="disease_8cpp.html" target="_top" xlink:title=" ">
<polygon fill="white" stroke="#666666" points="288.5,-19 167.5,-19 167.5,0 288.5,0 288.5,-19"/>
<text text-anchor="middle" x="228" y="-7" font-family="Helvetica,sans-Serif" font-size="10.00">HealthGPS/disease.cpp</text>
</a>
</g>
</g>
<!-- Node3&#45;&gt;Node4 -->
<g id="edge3" class="edge">
<title>Node3&#45;&gt;Node4</title>
<path fill="none" stroke="#63b8ff" d="M228,-49.16C228,-38.95 228,-27.04 228,-19.17"/>
<polygon fill="#63b8ff" stroke="#63b8ff" points="224.5,-48.85 228,-58.85 231.5,-48.85 224.5,-48.85"/>
</g>
</g>
</svg>
