<?xml version="1.0" encoding="UTF-8" standalone="no"?>
<!DOCTYPE svg PUBLIC "-//W3C//DTD SVG 1.1//EN"
 "http://www.w3.org/Graphics/SVG/1.1/DTD/svg11.dtd">
<!-- Generated by graphviz version 2.43.0 (0)
 -->
<!-- Title: HealthGPS/demographic.h Pages: 1 -->
<svg width="533pt" height="274pt"
 viewBox="0.00 0.00 533.00 274.00" xmlns="http://www.w3.org/2000/svg" xmlns:xlink="http://www.w3.org/1999/xlink">
<g id="graph0" class="graph" transform="scale(1 1) rotate(0) translate(4 270)">
<title>HealthGPS/demographic.h</title>
<!-- Node1 -->
<g id="node1" class="node">
<title>Node1</title>
<g id="a_node1"><a xlink:title=" ">
<polygon fill="#bfbfbf" stroke="black" points="83.5,-246.5 83.5,-265.5 227.5,-265.5 227.5,-246.5 83.5,-246.5"/>
<text text-anchor="middle" x="155.5" y="-253.5" font-family="Helvetica,sans-Serif" font-size="10.00">HealthGPS/demographic.h</text>
</a>
</g>
</g>
<!-- Node2 -->
<g id="node2" class="node">
<title>Node2</title>
<g id="a_node2"><a xlink:href="demographic_8cpp.html" target="_top" xlink:title=" ">
<polygon fill="none" stroke="black" points="0,-185 0,-204 155,-204 155,-185 0,-185"/>
<text text-anchor="middle" x="77.5" y="-192" font-family="Helvetica,sans-Serif" font-size="10.00">HealthGPS/demographic.cpp</text>
</a>
</g>
</g>
<!-- Node1&#45;&gt;Node2 -->
<g id="edge1" class="edge">
<title>Node1&#45;&gt;Node2</title>
<path fill="none" stroke="midnightblue" d="M136.22,-240.29C121.26,-228.88 101.04,-213.46 88.65,-204.01"/>
<polygon fill="midnightblue" stroke="midnightblue" points="134.25,-243.19 144.32,-246.48 138.5,-237.63 134.25,-243.19"/>
</g>
<!-- Node3 -->
<g id="node3" class="node">
<title>Node3</title>
<g id="a_node3"><a xlink:href="simulation__module_8h.html" target="_top" xlink:title=" ">
<polygon fill="none" stroke="black" points="173,-179.5 173,-209.5 296,-209.5 296,-179.5 173,-179.5"/>
<text text-anchor="start" x="181" y="-197.5" font-family="Helvetica,sans-Serif" font-size="10.00">HealthGPS/simulation</text>
<text text-anchor="middle" x="234.5" y="-186.5" font-family="Helvetica,sans-Serif" font-size="10.00">_module.h</text>
</a>
</g>
</g>
<!-- Node1&#45;&gt;Node3 -->
<g id="edge2" class="edge">
<title>Node1&#45;&gt;Node3</title>
<path fill="none" stroke="midnightblue" d="M175.16,-240.2C187.61,-230.81 203.63,-218.75 215.88,-209.52"/>
<polygon fill="midnightblue" stroke="midnightblue" points="172.7,-237.66 166.82,-246.48 176.91,-243.25 172.7,-237.66"/>
</g>
<!-- Node4 -->
<g id="node4" class="node">
<title>Node4</title>
<g id="a_node4"><a xlink:href="HealthGPS_2api_8h.html" target="_top" xlink:title=" ">
<polygon fill="none" stroke="black" points="62,-56.5 62,-75.5 157,-75.5 157,-56.5 62,-56.5"/>
<text text-anchor="middle" x="109.5" y="-63.5" font-family="Helvetica,sans-Serif" font-size="10.00">HealthGPS/api.h</text>
</a>
</g>
</g>
<!-- Node3&#45;&gt;Node4 -->
<g id="edge3" class="edge">
<title>Node3&#45;&gt;Node4</title>
<path fill="none" stroke="midnightblue" d="M200.71,-173.84C187.64,-165.32 173.07,-154.63 161.5,-143 140.3,-121.69 122.19,-90.69 114.07,-75.73"/>
<polygon fill="midnightblue" stroke="midnightblue" points="199.14,-176.99 209.47,-179.37 202.89,-171.07 199.14,-176.99"/>
</g>
<!-- Node6 -->
<g id="node6" class="node">
<title>Node6</title>
<g id="a_node6"><a xlink:href="healthgps_8h.html" target="_top" xlink:title=" ">
<polygon fill="none" stroke="black" points="170.5,-118 170.5,-137 298.5,-137 298.5,-118 170.5,-118"/>
<text text-anchor="middle" x="234.5" y="-125" font-family="Helvetica,sans-Serif" font-size="10.00">HealthGPS/healthgps.h</text>
</a>
</g>
</g>
<!-- Node3&#45;&gt;Node6 -->
<g id="edge5" class="edge">
<title>Node3&#45;&gt;Node6</title>
<path fill="none" stroke="midnightblue" d="M234.5,-169.25C234.5,-158.02 234.5,-145.38 234.5,-137.19"/>
<polygon fill="midnightblue" stroke="midnightblue" points="231,-169.4 234.5,-179.4 238,-169.4 231,-169.4"/>
</g>
<!-- Node10 -->
<g id="node10" class="node">
<title>Node10</title>
<g id="a_node10"><a xlink:href="simulation__module_8cpp.html" target="_top" xlink:title=" ">
<polygon fill="none" stroke="black" points="317,-112.5 317,-142.5 440,-142.5 440,-112.5 317,-112.5"/>
<text text-anchor="start" x="325" y="-130.5" font-family="Helvetica,sans-Serif" font-size="10.00">HealthGPS/simulation</text>
<text text-anchor="middle" x="378.5" y="-119.5" font-family="Helvetica,sans-Serif" font-size="10.00">_module.cpp</text>
</a>
</g>
</g>
<!-- Node3&#45;&gt;Node10 -->
<g id="edge11" class="edge">
<title>Node3&#45;&gt;Node10</title>
<path fill="none" stroke="midnightblue" d="M274.89,-175.27C297.82,-164.92 326.1,-152.15 347.32,-142.58"/>
<polygon fill="midnightblue" stroke="midnightblue" points="273.42,-172.09 265.75,-179.4 276.3,-178.47 273.42,-172.09"/>
</g>
<!-- Node5 -->
<g id="node5" class="node">
<title>Node5</title>
<g id="a_node5"><a xlink:href="program_8cpp.html" target="_top" xlink:title=" ">
<polygon fill="none" stroke="black" points="79,-0.5 79,-19.5 254,-19.5 254,-0.5 79,-0.5"/>
<text text-anchor="middle" x="166.5" y="-7.5" font-family="Helvetica,sans-Serif" font-size="10.00">HealthGPS.Console/program.cpp</text>
</a>
</g>
</g>
<!-- Node4&#45;&gt;Node5 -->
<g id="edge4" class="edge">
<title>Node4&#45;&gt;Node5</title>
<path fill="none" stroke="midnightblue" d="M126.12,-49.25C136.23,-39.67 148.78,-27.79 157.18,-19.83"/>
<polygon fill="midnightblue" stroke="midnightblue" points="123.51,-46.91 118.66,-56.32 128.32,-51.99 123.51,-46.91"/>
</g>
<!-- Node6&#45;&gt;Node4 -->
<g id="edge6" class="edge">
<title>Node6&#45;&gt;Node4</title>
<path fill="none" stroke="midnightblue" d="M207.56,-113.67C183.3,-102.13 148.34,-85.49 127.38,-75.51"/>
<polygon fill="midnightblue" stroke="midnightblue" points="206.06,-116.84 216.59,-117.98 209.07,-110.52 206.06,-116.84"/>
</g>
<!-- Node7 -->
<g id="node7" class="node">
<title>Node7</title>
<g id="a_node7"><a xlink:href="healthgps_8cpp.html" target="_top" xlink:title=" ">
<polygon fill="none" stroke="black" points="175.5,-56.5 175.5,-75.5 315.5,-75.5 315.5,-56.5 175.5,-56.5"/>
<text text-anchor="middle" x="245.5" y="-63.5" font-family="Helvetica,sans-Serif" font-size="10.00">HealthGPS/healthgps.cpp</text>
</a>
</g>
</g>
<!-- Node6&#45;&gt;Node7 -->
<g id="edge7" class="edge">
<title>Node6&#45;&gt;Node7</title>
<path fill="none" stroke="midnightblue" d="M237.95,-107.82C239.95,-97 242.38,-83.9 243.93,-75.51"/>
<polygon fill="midnightblue" stroke="midnightblue" points="234.45,-107.51 236.08,-117.98 241.34,-108.78 234.45,-107.51"/>
</g>
<!-- Node8 -->
<g id="node8" class="node">
<title>Node8</title>
<g id="a_node8"><a xlink:href="configuration_8h.html" target="_top" xlink:title=" ">
<polygon fill="none" stroke="black" points="333.5,-56.5 333.5,-75.5 519.5,-75.5 519.5,-56.5 333.5,-56.5"/>
<text text-anchor="middle" x="426.5" y="-63.5" font-family="Helvetica,sans-Serif" font-size="10.00">HealthGPS.Console/configuration.h</text>
</a>
</g>
</g>
<!-- Node6&#45;&gt;Node8 -->
<g id="edge8" class="edge">
<title>Node6&#45;&gt;Node8</title>
<path fill="none" stroke="midnightblue" d="M271.99,-114.88C309.31,-103.32 365.7,-85.84 399.04,-75.51"/>
<polygon fill="midnightblue" stroke="midnightblue" points="270.52,-111.67 262.01,-117.98 272.6,-118.36 270.52,-111.67"/>
</g>
<!-- Node8&#45;&gt;Node5 -->
<g id="edge10" class="edge">
<title>Node8&#45;&gt;Node5</title>
<path fill="none" stroke="midnightblue" d="M375.51,-54.41C326.37,-44.2 252.97,-28.96 207.51,-19.52"/>
<polygon fill="midnightblue" stroke="midnightblue" points="374.8,-57.84 385.3,-56.44 376.22,-50.98 374.8,-57.84"/>
</g>
<!-- Node9 -->
<g id="node9" class="node">
<title>Node9</title>
<g id="a_node9"><a xlink:href="configuration_8cpp.html" target="_top" xlink:title=" ">
<polygon fill="none" stroke="black" points="328,-0.5 328,-19.5 525,-19.5 525,-0.5 328,-0.5"/>
<text text-anchor="middle" x="426.5" y="-7.5" font-family="Helvetica,sans-Serif" font-size="10.00">HealthGPS.Console/configuration.cpp</text>
</a>
</g>
</g>
<!-- Node8&#45;&gt;Node9 -->
<g id="edge9" class="edge">
<title>Node8&#45;&gt;Node9</title>
<path fill="none" stroke="midnightblue" d="M426.5,-45.8C426.5,-36.91 426.5,-26.78 426.5,-19.75"/>
<polygon fill="midnightblue" stroke="midnightblue" points="423,-46.08 426.5,-56.08 430,-46.08 423,-46.08"/>
</g>
</g>
</svg>
