<?xml version="1.0" encoding="UTF-8" standalone="no"?>
<!DOCTYPE svg PUBLIC "-//W3C//DTD SVG 1.1//EN"
 "http://www.w3.org/Graphics/SVG/1.1/DTD/svg11.dtd">
<!-- Generated by graphviz version 7.0.6 (20230106.0513)
 -->
<!-- Title: HealthGPS/demographic.h Pages: 1 -->
<svg width="473pt" height="269pt"
 viewBox="0.00 0.00 473.00 269.00" xmlns="http://www.w3.org/2000/svg" xmlns:xlink="http://www.w3.org/1999/xlink">
<g id="graph0" class="graph" transform="scale(1 1) rotate(0) translate(4 265)">
<title>HealthGPS/demographic.h</title>
<!-- Node1 -->
<g id="node1" class="node">
<title>Node1</title>
<g id="a_node1"><a xlink:title=" ">
<polygon fill="#999999" stroke="#666666" points="210.5,-261 78.5,-261 78.5,-242 210.5,-242 210.5,-261"/>
<text text-anchor="middle" x="144.5" y="-249" font-family="Helvetica,sans-Serif" font-size="10.00">HealthGPS/demographic.h</text>
</a>
</g>
</g>
<!-- Node2 -->
<g id="node2" class="node">
<title>Node2</title>
<g id="a_node2"><a xlink:href="demographic_8cpp.html" target="_top" xlink:title=" ">
<polygon fill="white" stroke="#666666" points="143,-200.5 0,-200.5 0,-181.5 143,-181.5 143,-200.5"/>
<text text-anchor="middle" x="71.5" y="-188.5" font-family="Helvetica,sans-Serif" font-size="10.00">HealthGPS/demographic.cpp</text>
</a>
</g>
</g>
<!-- Node1&#45;&gt;Node2 -->
<g id="edge1" class="edge">
<title>Node1&#45;&gt;Node2</title>
<path fill="none" stroke="#63b8ff" d="M124.82,-234.73C111.31,-223.9 93.88,-209.93 82.69,-200.97"/>
<polygon fill="#63b8ff" stroke="#63b8ff" points="122.24,-237.15 132.23,-240.67 126.62,-231.68 122.24,-237.15"/>
</g>
<!-- Node3 -->
<g id="node3" class="node">
<title>Node3</title>
<g id="a_node3"><a xlink:href="simulation__module_8h.html" target="_top" xlink:title=" ">
<polygon fill="white" stroke="#666666" points="274,-206 161,-206 161,-176 274,-176 274,-206"/>
<text text-anchor="start" x="169" y="-194" font-family="Helvetica,sans-Serif" font-size="10.00">HealthGPS/simulation</text>
<text text-anchor="middle" x="217.5" y="-183" font-family="Helvetica,sans-Serif" font-size="10.00">_module.h</text>
</a>
</g>
</g>
<!-- Node1&#45;&gt;Node3 -->
<g id="edge2" class="edge">
<title>Node1&#45;&gt;Node3</title>
<path fill="none" stroke="#63b8ff" d="M164.42,-234.53C175.37,-225.76 188.85,-214.96 199.48,-206.44"/>
<polygon fill="#63b8ff" stroke="#63b8ff" points="162.38,-231.68 156.77,-240.67 166.76,-237.15 162.38,-231.68"/>
</g>
<!-- Node4 -->
<g id="node4" class="node">
<title>Node4</title>
<g id="a_node4"><a xlink:href="_health_g_p_s_2api_8h.html" target="_top" xlink:title=" ">
<polygon fill="white" stroke="#666666" points="129,-74 40,-74 40,-55 129,-55 129,-74"/>
<text text-anchor="middle" x="84.5" y="-62" font-family="Helvetica,sans-Serif" font-size="10.00">HealthGPS/api.h</text>
</a>
</g>
</g>
<!-- Node3&#45;&gt;Node4 -->
<g id="edge3" class="edge">
<title>Node3&#45;&gt;Node4</title>
<path fill="none" stroke="#63b8ff" d="M185.71,-169.3C173.58,-160.81 159.92,-150.52 148.5,-140 125.17,-118.52 101.95,-88.92 91,-74.35"/>
<polygon fill="#63b8ff" stroke="#63b8ff" points="183.57,-172.08 193.8,-174.84 187.52,-166.3 183.57,-172.08"/>
</g>
<!-- Node6 -->
<g id="node6" class="node">
<title>Node6</title>
<g id="a_node6"><a xlink:href="healthgps_8h.html" target="_top" xlink:title=" ">
<polygon fill="white" stroke="#666666" points="277,-134.5 158,-134.5 158,-115.5 277,-115.5 277,-134.5"/>
<text text-anchor="middle" x="217.5" y="-122.5" font-family="Helvetica,sans-Serif" font-size="10.00">HealthGPS/healthgps.h</text>
</a>
</g>
</g>
<!-- Node3&#45;&gt;Node6 -->
<g id="edge5" class="edge">
<title>Node3&#45;&gt;Node6</title>
<path fill="none" stroke="#63b8ff" d="M217.5,-164.59C217.5,-154.06 217.5,-142.53 217.5,-134.84"/>
<polygon fill="#63b8ff" stroke="#63b8ff" points="214,-164.28 217.5,-174.28 221,-164.28 214,-164.28"/>
</g>
<!-- Node10 -->
<g id="node10" class="node">
<title>Node10</title>
<g id="a_node10"><a xlink:href="simulation__module_8cpp.html" target="_top" xlink:title=" ">
<polygon fill="white" stroke="#666666" points="408,-140 295,-140 295,-110 408,-110 408,-140"/>
<text text-anchor="start" x="303" y="-128" font-family="Helvetica,sans-Serif" font-size="10.00">HealthGPS/simulation</text>
<text text-anchor="middle" x="351.5" y="-117" font-family="Helvetica,sans-Serif" font-size="10.00">_module.cpp</text>
</a>
</g>
</g>
<!-- Node3&#45;&gt;Node10 -->
<g id="edge11" class="edge">
<title>Node3&#45;&gt;Node10</title>
<path fill="none" stroke="#63b8ff" d="M257.86,-170.72C278.33,-160.95 302.76,-149.28 321.53,-140.31"/>
<polygon fill="#63b8ff" stroke="#63b8ff" points="256.45,-167.52 248.94,-174.98 259.47,-173.83 256.45,-167.52"/>
</g>
<!-- Node5 -->
<g id="node5" class="node">
<title>Node5</title>
<g id="a_node5"><a xlink:href="program_8cpp.html" target="_top" xlink:title=" ">
<polygon fill="white" stroke="#666666" points="165,-19 4,-19 4,0 165,0 165,-19"/>
<text text-anchor="middle" x="84.5" y="-7" font-family="Helvetica,sans-Serif" font-size="10.00">HealthGPS.Console/program.cpp</text>
</a>
</g>
</g>
<!-- Node4&#45;&gt;Node5 -->
<g id="edge4" class="edge">
<title>Node4&#45;&gt;Node5</title>
<path fill="none" stroke="#63b8ff" d="M84.5,-43.35C84.5,-35.1 84.5,-25.97 84.5,-19.44"/>
<polygon fill="#63b8ff" stroke="#63b8ff" points="81,-43.23 84.5,-53.23 88,-43.23 81,-43.23"/>
</g>
<!-- Node6&#45;&gt;Node4 -->
<g id="edge9" class="edge">
<title>Node6&#45;&gt;Node4</title>
<path fill="none" stroke="#63b8ff" d="M186.84,-110.52C161.68,-99.45 126.74,-84.08 104.89,-74.47"/>
<polygon fill="#63b8ff" stroke="#63b8ff" points="185.35,-113.68 195.91,-114.51 188.17,-107.28 185.35,-113.68"/>
</g>
<!-- Node7 -->
<g id="node7" class="node">
<title>Node7</title>
<g id="a_node7"><a xlink:href="configuration_8h.html" target="_top" xlink:title=" ">
<polygon fill="white" stroke="#666666" points="317.5,-74 147.5,-74 147.5,-55 317.5,-55 317.5,-74"/>
<text text-anchor="middle" x="232.5" y="-62" font-family="Helvetica,sans-Serif" font-size="10.00">HealthGPS.Console/configuration.h</text>
</a>
</g>
</g>
<!-- Node6&#45;&gt;Node7 -->
<g id="edge6" class="edge">
<title>Node6&#45;&gt;Node7</title>
<path fill="none" stroke="#63b8ff" d="M222.5,-104.49C225.14,-94.22 228.24,-82.13 230.28,-74.17"/>
<polygon fill="#63b8ff" stroke="#63b8ff" points="219.18,-103.35 220.09,-113.9 225.96,-105.08 219.18,-103.35"/>
</g>
<!-- Node9 -->
<g id="node9" class="node">
<title>Node9</title>
<g id="a_node9"><a xlink:href="healthgps_8cpp.html" target="_top" xlink:title=" ">
<polygon fill="white" stroke="#666666" points="465,-74 336,-74 336,-55 465,-55 465,-74"/>
<text text-anchor="middle" x="400.5" y="-62" font-family="Helvetica,sans-Serif" font-size="10.00">HealthGPS/healthgps.cpp</text>
</a>
</g>
</g>
<!-- Node6&#45;&gt;Node9 -->
<g id="edge10" class="edge">
<title>Node6&#45;&gt;Node9</title>
<path fill="none" stroke="#63b8ff" d="M256.01,-111.69C290.84,-100.56 341.3,-84.42 372.44,-74.47"/>
<polygon fill="#63b8ff" stroke="#63b8ff" points="255.19,-108.28 246.74,-114.65 257.33,-114.94 255.19,-108.28"/>
</g>
<!-- Node7&#45;&gt;Node5 -->
<g id="edge8" class="edge">
<title>Node7&#45;&gt;Node5</title>
<path fill="none" stroke="#63b8ff" d="M196.79,-50.71C169.71,-41.01 133.17,-27.93 109.24,-19.36"/>
<polygon fill="#63b8ff" stroke="#63b8ff" points="195.37,-53.92 205.97,-54 197.73,-47.33 195.37,-53.92"/>
</g>
<!-- Node8 -->
<g id="node8" class="node">
<title>Node8</title>
<g id="a_node8"><a xlink:href="configuration_8cpp.html" target="_top" xlink:title=" ">
<polygon fill="white" stroke="#666666" points="363.5,-19 183.5,-19 183.5,0 363.5,0 363.5,-19"/>
<text text-anchor="middle" x="273.5" y="-7" font-family="Helvetica,sans-Serif" font-size="10.00">HealthGPS.Console/configuration.cpp</text>
</a>
</g>
</g>
<!-- Node7&#45;&gt;Node8 -->
<g id="edge7" class="edge">
<title>Node7&#45;&gt;Node8</title>
<path fill="none" stroke="#63b8ff" d="M246.31,-45.65C253.13,-36.84 261.05,-26.59 266.58,-19.44"/>
<polygon fill="#63b8ff" stroke="#63b8ff" points="243.55,-43.5 240.2,-53.55 249.08,-47.78 243.55,-43.5"/>
</g>
</g>
</svg>
