<?xml version="1.0" encoding="UTF-8" standalone="no"?>
<!DOCTYPE svg PUBLIC "-//W3C//DTD SVG 1.1//EN"
 "http://www.w3.org/Graphics/SVG/1.1/DTD/svg11.dtd">
<!-- Generated by graphviz version 2.43.0 (0)
 -->
<!-- Title: HealthGPS.Console Pages: 1 -->
<svg width="252pt" height="188pt"
 viewBox="0.00 0.00 251.50 188.00" xmlns="http://www.w3.org/2000/svg" xmlns:xlink="http://www.w3.org/1999/xlink">
<g id="graph0" class="graph" transform="scale(1 1) rotate(0) translate(4 184)">
<title>HealthGPS.Console</title>
<!-- dir_aabdfeaa932d822e45e68ea9ba99cfe4 -->
<g id="node1" class="node">
<title>dir_aabdfeaa932d822e45e68ea9ba99cfe4</title>
<g id="a_node1"><a xlink:href="dir_aabdfeaa932d822e45e68ea9ba99cfe4.html" target="_top" xlink:title="HealthGPS.Console">
<polygon fill="#eeeeff" stroke="black" points="202.5,-180 92.5,-180 92.5,-144 202.5,-144 202.5,-180"/>
<text text-anchor="middle" x="147.5" y="-159.5" font-family="Helvetica,sans-Serif" font-size="10.00">HealthGPS.Console</text>
</a>
</g>
</g>
<!-- dir_88bbf9e9d68a194eda33b5dbc105b17c -->
<g id="node2" class="node">
<title>dir_88bbf9e9d68a194eda33b5dbc105b17c</title>
<g id="a_node2"><a xlink:href="dir_88bbf9e9d68a194eda33b5dbc105b17c.html" target="_top" xlink:title="HealthGPS.Datastore">
<polygon fill="none" stroke="black" points="119,-108 0,-108 0,-72 119,-72 119,-108"/>
<text text-anchor="middle" x="59.5" y="-87.5" font-family="Helvetica,sans-Serif" font-size="10.00">HealthGPS.Datastore</text>
</a>
</g>
</g>
<!-- dir_aabdfeaa932d822e45e68ea9ba99cfe4&#45;&gt;dir_88bbf9e9d68a194eda33b5dbc105b17c -->
<g id="edge2" class="edge">
<title>dir_aabdfeaa932d822e45e68ea9ba99cfe4&#45;&gt;dir_88bbf9e9d68a194eda33b5dbc105b17c</title>
<path fill="none" stroke="black" d="M125.75,-143.7C114.66,-134.88 101.03,-124.03 89.01,-114.47"/>
<polygon fill="black" stroke="black" points="91.01,-111.59 81,-108.1 86.65,-117.07 91.01,-111.59"/>
<g id="a_edge2&#45;headlabel"><a xlink:href="dir_000000_000002.html" target="_top" xlink:title="1">
<text text-anchor="middle" x="95.59" y="-109.11" font-family="Helvetica,sans-Serif" font-size="10.00">1</text>
</a>
</g>
</g>
<!-- dir_d2cb4d7268994d5bb552b9ff4076d9cb -->
<g id="node3" class="node">
<title>dir_d2cb4d7268994d5bb552b9ff4076d9cb</title>
<g id="a_node3"><a xlink:href="dir_d2cb4d7268994d5bb552b9ff4076d9cb.html" target="_top" xlink:title="HealthGPS.Core">
<polygon fill="none" stroke="black" points="194.5,-36 100.5,-36 100.5,0 194.5,0 194.5,-36"/>
<text text-anchor="middle" x="147.5" y="-15.5" font-family="Helvetica,sans-Serif" font-size="10.00">HealthGPS.Core</text>
</a>
</g>
</g>
<!-- dir_aabdfeaa932d822e45e68ea9ba99cfe4&#45;&gt;dir_d2cb4d7268994d5bb552b9ff4076d9cb -->
<g id="edge3" class="edge">
<title>dir_aabdfeaa932d822e45e68ea9ba99cfe4&#45;&gt;dir_d2cb4d7268994d5bb552b9ff4076d9cb</title>
<path fill="none" stroke="black" d="M147.5,-143.87C147.5,-119.67 147.5,-75.21 147.5,-46.39"/>
<polygon fill="black" stroke="black" points="151,-46.19 147.5,-36.19 144,-46.19 151,-46.19"/>
<g id="a_edge3&#45;headlabel"><a xlink:href="dir_000000_000001.html" target="_top" xlink:title="10">
<text text-anchor="middle" x="153.84" y="-47.28" font-family="Helvetica,sans-Serif" font-size="10.00">10</text>
</a>
</g>
</g>
<!-- dir_dab824df37ba02169fac86e6f23b00e7 -->
<g id="node4" class="node">
<title>dir_dab824df37ba02169fac86e6f23b00e7</title>
<g id="a_node4"><a xlink:href="dir_dab824df37ba02169fac86e6f23b00e7.html" target="_top" xlink:title="HealthGPS">
<polygon fill="none" stroke="black" points="243.5,-108 175.5,-108 175.5,-72 243.5,-72 243.5,-108"/>
<text text-anchor="middle" x="209.5" y="-87.5" font-family="Helvetica,sans-Serif" font-size="10.00">HealthGPS</text>
</a>
</g>
</g>
<!-- dir_aabdfeaa932d822e45e68ea9ba99cfe4&#45;&gt;dir_dab824df37ba02169fac86e6f23b00e7 -->
<g id="edge4" class="edge">
<title>dir_aabdfeaa932d822e45e68ea9ba99cfe4&#45;&gt;dir_dab824df37ba02169fac86e6f23b00e7</title>
<path fill="none" stroke="black" d="M162.83,-143.7C170.26,-135.3 179.32,-125.07 187.48,-115.86"/>
<polygon fill="black" stroke="black" points="190.34,-117.91 194.35,-108.1 185.1,-113.27 190.34,-117.91"/>
<g id="a_edge4&#45;headlabel"><a xlink:href="dir_000000_000003.html" target="_top" xlink:title="26">
<text text-anchor="middle" x="190.08" y="-119.98" font-family="Helvetica,sans-Serif" font-size="10.00">26</text>
</a>
</g>
</g>
<!-- dir_88bbf9e9d68a194eda33b5dbc105b17c&#45;&gt;dir_d2cb4d7268994d5bb552b9ff4076d9cb -->
<g id="edge5" class="edge">
<title>dir_88bbf9e9d68a194eda33b5dbc105b17c&#45;&gt;dir_d2cb4d7268994d5bb552b9ff4076d9cb</title>
<path fill="none" stroke="black" d="M81.25,-71.7C92.34,-62.88 105.97,-52.03 117.99,-42.47"/>
<polygon fill="black" stroke="black" points="120.35,-45.07 126,-36.1 115.99,-39.59 120.35,-45.07"/>
<g id="a_edge5&#45;headlabel"><a xlink:href="dir_000002_000001.html" target="_top" xlink:title="3">
<text text-anchor="middle" x="119.3" y="-47.03" font-family="Helvetica,sans-Serif" font-size="10.00">3</text>
</a>
</g>
</g>
<!-- dir_dab824df37ba02169fac86e6f23b00e7&#45;&gt;dir_d2cb4d7268994d5bb552b9ff4076d9cb -->
<g id="edge1" class="edge">
<title>dir_dab824df37ba02169fac86e6f23b00e7&#45;&gt;dir_d2cb4d7268994d5bb552b9ff4076d9cb</title>
<path fill="none" stroke="black" d="M194.17,-71.7C186.74,-63.3 177.68,-53.07 169.52,-43.86"/>
<polygon fill="black" stroke="black" points="171.9,-41.27 162.65,-36.1 166.66,-45.91 171.9,-41.27"/>
<g id="a_edge1&#45;headlabel"><a xlink:href="dir_000003_000001.html" target="_top" xlink:title="46">
<text text-anchor="middle" x="176.41" y="-39.58" font-family="Helvetica,sans-Serif" font-size="10.00">46</text>
</a>
</g>
</g>
</g>
</svg>
