<?xml version="1.0" encoding="UTF-8" standalone="no"?>
<!DOCTYPE svg PUBLIC "-//W3C//DTD SVG 1.1//EN"
 "http://www.w3.org/Graphics/SVG/1.1/DTD/svg11.dtd">
<!-- Generated by graphviz version 7.0.6 (20230106.0513)
 -->
<!-- Title: HealthGPS/disease_definition.h Pages: 1 -->
<svg width="1870pt" height="401pt"
 viewBox="0.00 0.00 1870.40 401.00" xmlns="http://www.w3.org/2000/svg" xmlns:xlink="http://www.w3.org/1999/xlink">
<g id="graph0" class="graph" transform="scale(1 1) rotate(0) translate(4 397)">
<title>HealthGPS/disease_definition.h</title>
<!-- Node1 -->
<g id="node1" class="node">
<title>Node1</title>
<g id="a_node1"><a xlink:title=" ">
<polygon fill="#999999" stroke="#666666" points="1367.4,-393 1213.4,-393 1213.4,-374 1367.4,-374 1367.4,-393"/>
<text text-anchor="middle" x="1290.4" y="-381" font-family="Helvetica,sans-Serif" font-size="10.00">HealthGPS/disease_definition.h</text>
</a>
</g>
</g>
<!-- Node2 -->
<g id="node2" class="node">
<title>Node2</title>
<g id="a_node2"><a xlink:href="converter_8h.html" target="_top" xlink:title=" ">
<polygon fill="white" stroke="#666666" points="1277.4,-332.5 1161.4,-332.5 1161.4,-313.5 1277.4,-313.5 1277.4,-332.5"/>
<text text-anchor="middle" x="1219.4" y="-320.5" font-family="Helvetica,sans-Serif" font-size="10.00">HealthGPS/converter.h</text>
</a>
</g>
</g>
<!-- Node1&#45;&gt;Node2 -->
<g id="edge1" class="edge">
<title>Node1&#45;&gt;Node2</title>
<path fill="none" stroke="#63b8ff" d="M1270.88,-366.41C1257.8,-355.64 1241.06,-341.85 1230.28,-332.97"/>
<polygon fill="#63b8ff" stroke="#63b8ff" points="1268.5,-368.99 1278.45,-372.65 1272.96,-363.59 1268.5,-368.99"/>
</g>
<!-- Node8 -->
<g id="node8" class="node">
<title>Node8</title>
<g id="a_node8"><a xlink:href="default__cancer__model_8h.html" target="_top" xlink:title=" ">
<polygon fill="white" stroke="#666666" points="1493.9,-338 1362.9,-338 1362.9,-308 1493.9,-308 1493.9,-338"/>
<text text-anchor="start" x="1370.9" y="-326" font-family="Helvetica,sans-Serif" font-size="10.00">HealthGPS/default_cancer</text>
<text text-anchor="middle" x="1428.4" y="-315" font-family="Helvetica,sans-Serif" font-size="10.00">_model.h</text>
</a>
</g>
</g>
<!-- Node1&#45;&gt;Node8 -->
<g id="edge7" class="edge">
<title>Node1&#45;&gt;Node8</title>
<path fill="none" stroke="#63b8ff" d="M1321.95,-369.13C1343.56,-359.96 1372.21,-347.82 1394.34,-338.44"/>
<polygon fill="#63b8ff" stroke="#63b8ff" points="1320.59,-365.9 1312.75,-373.02 1323.33,-372.34 1320.59,-365.9"/>
</g>
<!-- Node12 -->
<g id="node12" class="node">
<title>Node12</title>
<g id="a_node12"><a xlink:href="default__disease__model_8h.html" target="_top" xlink:title=" ">
<polygon fill="white" stroke="#666666" points="1702.4,-338 1566.4,-338 1566.4,-308 1702.4,-308 1702.4,-338"/>
<text text-anchor="start" x="1574.4" y="-326" font-family="Helvetica,sans-Serif" font-size="10.00">HealthGPS/default_disease</text>
<text text-anchor="middle" x="1634.4" y="-315" font-family="Helvetica,sans-Serif" font-size="10.00">_model.h</text>
</a>
</g>
</g>
<!-- Node1&#45;&gt;Node12 -->
<g id="edge12" class="edge">
<title>Node1&#45;&gt;Node12</title>
<path fill="none" stroke="#63b8ff" d="M1354.28,-371.64C1414.49,-361.4 1504.44,-346.1 1566.07,-335.62"/>
<polygon fill="#63b8ff" stroke="#63b8ff" points="1353.78,-368.17 1344.51,-373.3 1354.96,-375.07 1353.78,-368.17"/>
</g>
<!-- Node14 -->
<g id="node14" class="node">
<title>Node14</title>
<g id="a_node14"><a xlink:href="repository_8h.html" target="_top" xlink:title=" ">
<polygon fill="white" stroke="#666666" points="715.9,-332.5 596.9,-332.5 596.9,-313.5 715.9,-313.5 715.9,-332.5"/>
<text text-anchor="middle" x="656.4" y="-320.5" font-family="Helvetica,sans-Serif" font-size="10.00">HealthGPS/repository.h</text>
</a>
</g>
</g>
<!-- Node1&#45;&gt;Node14 -->
<g id="edge15" class="edge">
<title>Node1&#45;&gt;Node14</title>
<path fill="none" stroke="#63b8ff" d="M1201.79,-374.32C1070.56,-362.21 828,-339.83 715.97,-329.5"/>
<polygon fill="#63b8ff" stroke="#63b8ff" points="1201.19,-377.78 1211.47,-375.22 1201.83,-370.81 1201.19,-377.78"/>
</g>
<!-- Node3 -->
<g id="node3" class="node">
<title>Node3</title>
<g id="a_node3"><a xlink:href="analysis__module_8cpp.html" target="_top" xlink:title=" ">
<polygon fill="white" stroke="#666666" points="853.4,-206 749.4,-206 749.4,-176 853.4,-176 853.4,-206"/>
<text text-anchor="start" x="757.4" y="-194" font-family="Helvetica,sans-Serif" font-size="10.00">HealthGPS/analysis</text>
<text text-anchor="middle" x="801.4" y="-183" font-family="Helvetica,sans-Serif" font-size="10.00">_module.cpp</text>
</a>
</g>
</g>
<!-- Node2&#45;&gt;Node3 -->
<g id="edge2" class="edge">
<title>Node2&#45;&gt;Node3</title>
<path fill="none" stroke="#63b8ff" d="M1203.92,-304.53C1183.95,-282.18 1150.88,-245.87 1143.4,-242 1044.48,-190.81 1005.59,-222.2 895.4,-206 881.85,-204.01 867.21,-201.84 853.6,-199.81"/>
<polygon fill="#63b8ff" stroke="#63b8ff" points="1201.3,-306.85 1210.56,-311.99 1206.53,-302.19 1201.3,-306.85"/>
</g>
<!-- Node4 -->
<g id="node4" class="node">
<title>Node4</title>
<g id="a_node4"><a xlink:href="converter_8cpp.html" target="_top" xlink:title=" ">
<polygon fill="white" stroke="#666666" points="1392.4,-266.5 1266.4,-266.5 1266.4,-247.5 1392.4,-247.5 1392.4,-266.5"/>
<text text-anchor="middle" x="1329.4" y="-254.5" font-family="Helvetica,sans-Serif" font-size="10.00">HealthGPS/converter.cpp</text>
</a>
</g>
</g>
<!-- Node2&#45;&gt;Node4 -->
<g id="edge3" class="edge">
<title>Node2&#45;&gt;Node4</title>
<path fill="none" stroke="#63b8ff" d="M1244.45,-307.42C1265.95,-294.92 1296.23,-277.3 1314.23,-266.82"/>
<polygon fill="#63b8ff" stroke="#63b8ff" points="1242.89,-304.29 1236,-312.34 1246.41,-310.34 1242.89,-304.29"/>
</g>
<!-- Node5 -->
<g id="node5" class="node">
<title>Node5</title>
<g id="a_node5"><a xlink:href="demographic_8cpp.html" target="_top" xlink:title=" ">
<polygon fill="white" stroke="#666666" points="1046.9,-200.5 903.9,-200.5 903.9,-181.5 1046.9,-181.5 1046.9,-200.5"/>
<text text-anchor="middle" x="975.4" y="-188.5" font-family="Helvetica,sans-Serif" font-size="10.00">HealthGPS/demographic.cpp</text>
</a>
</g>
</g>
<!-- Node2&#45;&gt;Node5 -->
<g id="edge4" class="edge">
<title>Node2&#45;&gt;Node5</title>
<path fill="none" stroke="#63b8ff" d="M1213.92,-302.38C1207.77,-284.03 1196.02,-257.25 1176.4,-242 1154.18,-224.73 1084.01,-209.89 1032.82,-200.96"/>
<polygon fill="#63b8ff" stroke="#63b8ff" points="1210.53,-303.25 1216.79,-311.8 1217.22,-301.21 1210.53,-303.25"/>
</g>
<!-- Node6 -->
<g id="node6" class="node">
<title>Node6</title>
<g id="a_node6"><a xlink:href="healthgps_8cpp.html" target="_top" xlink:title=" ">
<polygon fill="white" stroke="#666666" points="1163.9,-74 1034.9,-74 1034.9,-55 1163.9,-55 1163.9,-74"/>
<text text-anchor="middle" x="1099.4" y="-62" font-family="Helvetica,sans-Serif" font-size="10.00">HealthGPS/healthgps.cpp</text>
</a>
</g>
</g>
<!-- Node2&#45;&gt;Node6 -->
<g id="edge5" class="edge">
<title>Node2&#45;&gt;Node6</title>
<path fill="none" stroke="#63b8ff" d="M1222.65,-302.21C1226.49,-273.11 1230.21,-217.73 1211.4,-176 1190.07,-128.68 1138.71,-90.74 1113.64,-74.31"/>
<polygon fill="#63b8ff" stroke="#63b8ff" points="1219.23,-301.36 1221.23,-311.77 1226.16,-302.39 1219.23,-301.36"/>
</g>
<!-- Node7 -->
<g id="node7" class="node">
<title>Node7</title>
<g id="a_node7"><a xlink:href="repository_8cpp.html" target="_top" xlink:title=" ">
<polygon fill="white" stroke="#666666" points="1134.4,-266.5 1004.4,-266.5 1004.4,-247.5 1134.4,-247.5 1134.4,-266.5"/>
<text text-anchor="middle" x="1069.4" y="-254.5" font-family="Helvetica,sans-Serif" font-size="10.00">HealthGPS/repository.cpp</text>
</a>
</g>
</g>
<!-- Node2&#45;&gt;Node7 -->
<g id="edge6" class="edge">
<title>Node2&#45;&gt;Node7</title>
<path fill="none" stroke="#63b8ff" d="M1188,-308.6C1158.57,-296.04 1115.41,-277.63 1090.08,-266.82"/>
<polygon fill="#63b8ff" stroke="#63b8ff" points="1186.58,-311.8 1197.15,-312.51 1189.33,-305.36 1186.58,-311.8"/>
</g>
<!-- Node8&#45;&gt;Node4 -->
<g id="edge8" class="edge">
<title>Node8&#45;&gt;Node4</title>
<path fill="none" stroke="#63b8ff" d="M1396.82,-301.58C1378.71,-289.87 1356.89,-275.77 1343.08,-266.84"/>
<polygon fill="#63b8ff" stroke="#63b8ff" points="1394.86,-304.48 1405.16,-306.97 1398.66,-298.61 1394.86,-304.48"/>
</g>
<!-- Node9 -->
<g id="node9" class="node">
<title>Node9</title>
<g id="a_node9"><a xlink:href="default__cancer__model_8cpp.html" target="_top" xlink:title=" ">
<polygon fill="white" stroke="#666666" points="1541.9,-272 1410.9,-272 1410.9,-242 1541.9,-242 1541.9,-272"/>
<text text-anchor="start" x="1418.9" y="-260" font-family="Helvetica,sans-Serif" font-size="10.00">HealthGPS/default_cancer</text>
<text text-anchor="middle" x="1476.4" y="-249" font-family="Helvetica,sans-Serif" font-size="10.00">_model.cpp</text>
</a>
</g>
</g>
<!-- Node8&#45;&gt;Node9 -->
<g id="edge9" class="edge">
<title>Node8&#45;&gt;Node9</title>
<path fill="none" stroke="#63b8ff" d="M1445.89,-298.68C1452.55,-289.79 1459.94,-279.95 1465.78,-272.16"/>
<polygon fill="#63b8ff" stroke="#63b8ff" points="1443.16,-296.49 1439.96,-306.59 1448.76,-300.69 1443.16,-296.49"/>
</g>
<!-- Node10 -->
<g id="node10" class="node">
<title>Node10</title>
<g id="a_node10"><a xlink:href="disease__registry_8h.html" target="_top" xlink:title=" ">
<polygon fill="white" stroke="#666666" points="1708.4,-266.5 1560.4,-266.5 1560.4,-247.5 1708.4,-247.5 1708.4,-266.5"/>
<text text-anchor="middle" x="1634.4" y="-254.5" font-family="Helvetica,sans-Serif" font-size="10.00">HealthGPS/disease_registry.h</text>
</a>
</g>
</g>
<!-- Node8&#45;&gt;Node10 -->
<g id="edge10" class="edge">
<title>Node8&#45;&gt;Node10</title>
<path fill="none" stroke="#63b8ff" d="M1485.82,-304.16C1524.78,-292.06 1574.64,-276.56 1605.55,-266.96"/>
<polygon fill="#63b8ff" stroke="#63b8ff" points="1484.84,-300.8 1476.33,-307.11 1486.92,-307.48 1484.84,-300.8"/>
</g>
<!-- Node11 -->
<g id="node11" class="node">
<title>Node11</title>
<g id="a_node11"><a xlink:href="disease_8cpp.html" target="_top" xlink:title=" ">
<polygon fill="white" stroke="#666666" points="1201.9,-200.5 1080.9,-200.5 1080.9,-181.5 1201.9,-181.5 1201.9,-200.5"/>
<text text-anchor="middle" x="1141.4" y="-188.5" font-family="Helvetica,sans-Serif" font-size="10.00">HealthGPS/disease.cpp</text>
</a>
</g>
</g>
<!-- Node10&#45;&gt;Node11 -->
<g id="edge11" class="edge">
<title>Node10&#45;&gt;Node11</title>
<path fill="none" stroke="#63b8ff" d="M1572.22,-245.19C1565.2,-244.07 1558.15,-242.98 1551.4,-242 1427.75,-224.04 1282.47,-207.36 1202.3,-198.55"/>
<polygon fill="#63b8ff" stroke="#63b8ff" points="1571.61,-248.64 1582.05,-246.8 1572.74,-241.73 1571.61,-248.64"/>
</g>
<!-- Node12&#45;&gt;Node10 -->
<g id="edge14" class="edge">
<title>Node12&#45;&gt;Node10</title>
<path fill="none" stroke="#63b8ff" d="M1634.4,-296.59C1634.4,-286.06 1634.4,-274.53 1634.4,-266.84"/>
<polygon fill="#63b8ff" stroke="#63b8ff" points="1630.9,-296.28 1634.4,-306.28 1637.9,-296.28 1630.9,-296.28"/>
</g>
<!-- Node13 -->
<g id="node13" class="node">
<title>Node13</title>
<g id="a_node13"><a xlink:href="default__disease__model_8cpp.html" target="_top" xlink:title=" ">
<polygon fill="white" stroke="#666666" points="1862.4,-272 1726.4,-272 1726.4,-242 1862.4,-242 1862.4,-272"/>
<text text-anchor="start" x="1734.4" y="-260" font-family="Helvetica,sans-Serif" font-size="10.00">HealthGPS/default_disease</text>
<text text-anchor="middle" x="1794.4" y="-249" font-family="Helvetica,sans-Serif" font-size="10.00">_model.cpp</text>
</a>
</g>
</g>
<!-- Node12&#45;&gt;Node13 -->
<g id="edge13" class="edge">
<title>Node12&#45;&gt;Node13</title>
<path fill="none" stroke="#63b8ff" d="M1680.88,-303.41C1705.56,-293.54 1735.43,-281.59 1758.34,-272.43"/>
<polygon fill="#63b8ff" stroke="#63b8ff" points="1679.7,-300.11 1671.71,-307.08 1682.3,-306.61 1679.7,-300.11"/>
</g>
<!-- Node14&#45;&gt;Node7 -->
<g id="edge40" class="edge">
<title>Node14&#45;&gt;Node7</title>
<path fill="none" stroke="#63b8ff" d="M727.33,-312.39C796,-302.89 903.01,-287.55 995.4,-272 1004.55,-270.46 1014.32,-268.7 1023.66,-266.95"/>
<polygon fill="#63b8ff" stroke="#63b8ff" points="727.15,-308.88 717.72,-313.72 728.1,-315.82 727.15,-308.88"/>
</g>
<!-- Node15 -->
<g id="node15" class="node">
<title>Node15</title>
<g id="a_node15"><a xlink:href="model__parser_8h.html" target="_top" xlink:title=" ">
<polygon fill="white" stroke="#666666" points="147.9,-272 14.9,-272 14.9,-242 147.9,-242 147.9,-272"/>
<text text-anchor="start" x="22.9" y="-260" font-family="Helvetica,sans-Serif" font-size="10.00">HealthGPS.Console/model</text>
<text text-anchor="middle" x="81.4" y="-249" font-family="Helvetica,sans-Serif" font-size="10.00">_parser.h</text>
</a>
</g>
</g>
<!-- Node14&#45;&gt;Node15 -->
<g id="edge16" class="edge">
<title>Node14&#45;&gt;Node15</title>
<path fill="none" stroke="#63b8ff" d="M585.03,-315.69C490.68,-307.1 319.3,-290.64 173.4,-272 165.23,-270.96 156.66,-269.77 148.18,-268.55"/>
<polygon fill="#63b8ff" stroke="#63b8ff" points="584.65,-319.17 594.92,-316.59 585.28,-312.2 584.65,-319.17"/>
</g>
<!-- Node18 -->
<g id="node18" class="node">
<title>Node18</title>
<g id="a_node18"><a xlink:href="analysis__module_8h.html" target="_top" xlink:title=" ">
<polygon fill="white" stroke="#666666" points="708.4,-272 604.4,-272 604.4,-242 708.4,-242 708.4,-272"/>
<text text-anchor="start" x="612.4" y="-260" font-family="Helvetica,sans-Serif" font-size="10.00">HealthGPS/analysis</text>
<text text-anchor="middle" x="656.4" y="-249" font-family="Helvetica,sans-Serif" font-size="10.00">_module.h</text>
</a>
</g>
</g>
<!-- Node14&#45;&gt;Node18 -->
<g id="edge19" class="edge">
<title>Node14&#45;&gt;Node18</title>
<path fill="none" stroke="#63b8ff" d="M656.4,-301.78C656.4,-292.17 656.4,-280.92 656.4,-272.23"/>
<polygon fill="#63b8ff" stroke="#63b8ff" points="652.9,-301.59 656.4,-311.59 659.9,-301.59 652.9,-301.59"/>
</g>
<!-- Node25 -->
<g id="node25" class="node">
<title>Node25</title>
<g id="a_node25"><a xlink:href="demographic_8h.html" target="_top" xlink:title=" ">
<polygon fill="white" stroke="#666666" points="858.4,-266.5 726.4,-266.5 726.4,-247.5 858.4,-247.5 858.4,-266.5"/>
<text text-anchor="middle" x="792.4" y="-254.5" font-family="Helvetica,sans-Serif" font-size="10.00">HealthGPS/demographic.h</text>
</a>
</g>
</g>
<!-- Node14&#45;&gt;Node25 -->
<g id="edge31" class="edge">
<title>Node14&#45;&gt;Node25</title>
<path fill="none" stroke="#63b8ff" d="M685.58,-308.27C712.24,-295.72 750.89,-277.54 773.65,-266.82"/>
<polygon fill="#63b8ff" stroke="#63b8ff" points="684.24,-305.03 676.68,-312.46 687.22,-311.37 684.24,-305.03"/>
</g>
<!-- Node26 -->
<g id="node26" class="node">
<title>Node26</title>
<g id="a_node26"><a xlink:href="_health_g_p_s_2disease_8h.html" target="_top" xlink:title=" ">
<polygon fill="white" stroke="#666666" points="986.4,-266.5 876.4,-266.5 876.4,-247.5 986.4,-247.5 986.4,-266.5"/>
<text text-anchor="middle" x="931.4" y="-254.5" font-family="Helvetica,sans-Serif" font-size="10.00">HealthGPS/disease.h</text>
</a>
</g>
</g>
<!-- Node14&#45;&gt;Node26 -->
<g id="edge34" class="edge">
<title>Node14&#45;&gt;Node26</title>
<path fill="none" stroke="#63b8ff" d="M705.9,-310.48C759.63,-297.98 844.27,-278.28 893.13,-266.91"/>
<polygon fill="#63b8ff" stroke="#63b8ff" points="705.35,-307.01 696.4,-312.69 706.93,-313.83 705.35,-307.01"/>
</g>
<!-- Node27 -->
<g id="node27" class="node">
<title>Node27</title>
<g id="a_node27"><a xlink:href="modulefactory_8h.html" target="_top" xlink:title=" ">
<polygon fill="white" stroke="#666666" points="319.9,-266.5 182.9,-266.5 182.9,-247.5 319.9,-247.5 319.9,-266.5"/>
<text text-anchor="middle" x="251.4" y="-254.5" font-family="Helvetica,sans-Serif" font-size="10.00">HealthGPS/modulefactory.h</text>
</a>
</g>
</g>
<!-- Node14&#45;&gt;Node27 -->
<g id="edge37" class="edge">
<title>Node14&#45;&gt;Node27</title>
<path fill="none" stroke="#63b8ff" d="M585.52,-311.7C519.22,-301.94 417.5,-286.64 329.4,-272 319.9,-270.42 309.76,-268.66 300.05,-266.93"/>
<polygon fill="#63b8ff" stroke="#63b8ff" points="584.76,-315.13 595.16,-313.12 585.77,-308.2 584.76,-315.13"/>
</g>
<!-- Node29 -->
<g id="node29" class="node">
<title>Node29</title>
<g id="a_node29"><a xlink:href="riskfactor_8h.html" target="_top" xlink:title=" ">
<polygon fill="white" stroke="#666666" points="454.4,-266.5 338.4,-266.5 338.4,-247.5 454.4,-247.5 454.4,-266.5"/>
<text text-anchor="middle" x="396.4" y="-254.5" font-family="Helvetica,sans-Serif" font-size="10.00">HealthGPS/riskfactor.h</text>
</a>
</g>
</g>
<!-- Node14&#45;&gt;Node29 -->
<g id="edge41" class="edge">
<title>Node14&#45;&gt;Node29</title>
<path fill="none" stroke="#63b8ff" d="M608.96,-310.32C558.14,-297.81 478.58,-278.23 432.58,-266.91"/>
<polygon fill="#63b8ff" stroke="#63b8ff" points="607.96,-313.68 618.5,-312.67 609.63,-306.88 607.96,-313.68"/>
</g>
<!-- Node31 -->
<g id="node31" class="node">
<title>Node31</title>
<g id="a_node31"><a xlink:href="ses__noise__module_8h.html" target="_top" xlink:title=" ">
<polygon fill="white" stroke="#666666" points="585.9,-272 472.9,-272 472.9,-242 585.9,-242 585.9,-272"/>
<text text-anchor="start" x="480.9" y="-260" font-family="Helvetica,sans-Serif" font-size="10.00">HealthGPS/ses_noise</text>
<text text-anchor="middle" x="529.4" y="-249" font-family="Helvetica,sans-Serif" font-size="10.00">_module.h</text>
</a>
</g>
</g>
<!-- Node14&#45;&gt;Node31 -->
<g id="edge44" class="edge">
<title>Node14&#45;&gt;Node31</title>
<path fill="none" stroke="#63b8ff" d="M628.6,-307.99C607.72,-297.47 579.23,-283.11 558.13,-272.48"/>
<polygon fill="#63b8ff" stroke="#63b8ff" points="626.88,-311.05 637.39,-312.42 630.03,-304.79 626.88,-311.05"/>
</g>
<!-- Node16 -->
<g id="node16" class="node">
<title>Node16</title>
<g id="a_node16"><a xlink:href="model__parser_8cpp.html" target="_top" xlink:title=" ">
<polygon fill="white" stroke="#666666" points="147.9,-206 14.9,-206 14.9,-176 147.9,-176 147.9,-206"/>
<text text-anchor="start" x="22.9" y="-194" font-family="Helvetica,sans-Serif" font-size="10.00">HealthGPS.Console/model</text>
<text text-anchor="middle" x="81.4" y="-183" font-family="Helvetica,sans-Serif" font-size="10.00">_parser.cpp</text>
</a>
</g>
</g>
<!-- Node15&#45;&gt;Node16 -->
<g id="edge17" class="edge">
<title>Node15&#45;&gt;Node16</title>
<path fill="none" stroke="#63b8ff" d="M81.4,-230.39C81.4,-222.13 81.4,-213.28 81.4,-206.16"/>
<polygon fill="#63b8ff" stroke="#63b8ff" points="77.9,-230.28 81.4,-240.28 84.9,-230.28 77.9,-230.28"/>
</g>
<!-- Node17 -->
<g id="node17" class="node">
<title>Node17</title>
<g id="a_node17"><a xlink:href="program_8cpp.html" target="_top" xlink:title=" ">
<polygon fill="white" stroke="#666666" points="675.9,-19 514.9,-19 514.9,0 675.9,0 675.9,-19"/>
<text text-anchor="middle" x="595.4" y="-7" font-family="Helvetica,sans-Serif" font-size="10.00">HealthGPS.Console/program.cpp</text>
</a>
</g>
</g>
<!-- Node15&#45;&gt;Node17 -->
<g id="edge18" class="edge">
<title>Node15&#45;&gt;Node17</title>
<path fill="none" stroke="#63b8ff" d="M40.73,-235.97C14.74,-220.44 -11.23,-197.93 5.4,-176 68.74,-92.44 384.36,-39.44 526.19,-19.48"/>
<polygon fill="#63b8ff" stroke="#63b8ff" points="38.86,-238.93 49.28,-240.82 42.31,-232.84 38.86,-238.93"/>
</g>
<!-- Node18&#45;&gt;Node3 -->
<g id="edge20" class="edge">
<title>Node18&#45;&gt;Node3</title>
<path fill="none" stroke="#63b8ff" d="M699.43,-237.01C721.61,-227.22 748.24,-215.46 768.72,-206.43"/>
<polygon fill="#63b8ff" stroke="#63b8ff" points="698.06,-233.79 690.33,-241.03 700.89,-240.19 698.06,-233.79"/>
</g>
<!-- Node19 -->
<g id="node19" class="node">
<title>Node19</title>
<g id="a_node19"><a xlink:href="simulation__module_8h.html" target="_top" xlink:title=" ">
<polygon fill="white" stroke="#666666" points="721.9,-206 608.9,-206 608.9,-176 721.9,-176 721.9,-206"/>
<text text-anchor="start" x="616.9" y="-194" font-family="Helvetica,sans-Serif" font-size="10.00">HealthGPS/simulation</text>
<text text-anchor="middle" x="665.4" y="-183" font-family="Helvetica,sans-Serif" font-size="10.00">_module.h</text>
</a>
</g>
</g>
<!-- Node18&#45;&gt;Node19 -->
<g id="edge21" class="edge">
<title>Node18&#45;&gt;Node19</title>
<path fill="none" stroke="#63b8ff" d="M659.96,-230.68C661.13,-222.34 662.39,-213.37 663.41,-206.16"/>
<polygon fill="#63b8ff" stroke="#63b8ff" points="656.53,-229.91 658.61,-240.3 663.47,-230.88 656.53,-229.91"/>
</g>
<!-- Node20 -->
<g id="node20" class="node">
<title>Node20</title>
<g id="a_node20"><a xlink:href="_health_g_p_s_2api_8h.html" target="_top" xlink:title=" ">
<polygon fill="white" stroke="#666666" points="639.9,-74 550.9,-74 550.9,-55 639.9,-55 639.9,-74"/>
<text text-anchor="middle" x="595.4" y="-62" font-family="Helvetica,sans-Serif" font-size="10.00">HealthGPS/api.h</text>
</a>
</g>
</g>
<!-- Node19&#45;&gt;Node20 -->
<g id="edge22" class="edge">
<title>Node19&#45;&gt;Node20</title>
<path fill="none" stroke="#63b8ff" d="M627.7,-169.35C617.06,-161.59 606.68,-151.75 600.4,-140 589.03,-118.74 591.54,-89.04 593.77,-74.4"/>
<polygon fill="#63b8ff" stroke="#63b8ff" points="625.51,-172.1 635.76,-174.78 629.42,-166.29 625.51,-172.1"/>
</g>
<!-- Node21 -->
<g id="node21" class="node">
<title>Node21</title>
<g id="a_node21"><a xlink:href="healthgps_8h.html" target="_top" xlink:title=" ">
<polygon fill="white" stroke="#666666" points="858.9,-134.5 739.9,-134.5 739.9,-115.5 858.9,-115.5 858.9,-134.5"/>
<text text-anchor="middle" x="799.4" y="-122.5" font-family="Helvetica,sans-Serif" font-size="10.00">HealthGPS/healthgps.h</text>
</a>
</g>
</g>
<!-- Node19&#45;&gt;Node21 -->
<g id="edge24" class="edge">
<title>Node19&#45;&gt;Node21</title>
<path fill="none" stroke="#63b8ff" d="M705.71,-170.75C730.56,-158.88 761.25,-144.22 780.59,-134.99"/>
<polygon fill="#63b8ff" stroke="#63b8ff" points="704.35,-167.52 696.84,-174.98 707.37,-173.83 704.35,-167.52"/>
</g>
<!-- Node24 -->
<g id="node24" class="node">
<title>Node24</title>
<g id="a_node24"><a xlink:href="simulation__module_8cpp.html" target="_top" xlink:title=" ">
<polygon fill="white" stroke="#666666" points="721.9,-140 608.9,-140 608.9,-110 721.9,-110 721.9,-140"/>
<text text-anchor="start" x="616.9" y="-128" font-family="Helvetica,sans-Serif" font-size="10.00">HealthGPS/simulation</text>
<text text-anchor="middle" x="665.4" y="-117" font-family="Helvetica,sans-Serif" font-size="10.00">_module.cpp</text>
</a>
</g>
</g>
<!-- Node19&#45;&gt;Node24 -->
<g id="edge30" class="edge">
<title>Node19&#45;&gt;Node24</title>
<path fill="none" stroke="#63b8ff" d="M665.4,-164.39C665.4,-156.13 665.4,-147.28 665.4,-140.16"/>
<polygon fill="#63b8ff" stroke="#63b8ff" points="661.9,-164.28 665.4,-174.28 668.9,-164.28 661.9,-164.28"/>
</g>
<!-- Node20&#45;&gt;Node17 -->
<g id="edge23" class="edge">
<title>Node20&#45;&gt;Node17</title>
<path fill="none" stroke="#63b8ff" d="M595.4,-43.35C595.4,-35.1 595.4,-25.97 595.4,-19.44"/>
<polygon fill="#63b8ff" stroke="#63b8ff" points="591.9,-43.23 595.4,-53.23 598.9,-43.23 591.9,-43.23"/>
</g>
<!-- Node21&#45;&gt;Node6 -->
<g id="edge29" class="edge">
<title>Node21&#45;&gt;Node6</title>
<path fill="none" stroke="#63b8ff" d="M856.31,-112.9C913.51,-101.75 1000.58,-84.77 1053.51,-74.45"/>
<polygon fill="#63b8ff" stroke="#63b8ff" points="855.92,-109.41 846.78,-114.76 857.26,-116.28 855.92,-109.41"/>
</g>
<!-- Node21&#45;&gt;Node20 -->
<g id="edge28" class="edge">
<title>Node21&#45;&gt;Node20</title>
<path fill="none" stroke="#63b8ff" d="M757.48,-111.98C718.62,-100.84 661.69,-84.51 626.67,-74.47"/>
<polygon fill="#63b8ff" stroke="#63b8ff" points="756.38,-115.31 766.96,-114.7 758.31,-108.58 756.38,-115.31"/>
</g>
<!-- Node22 -->
<g id="node22" class="node">
<title>Node22</title>
<g id="a_node22"><a xlink:href="configuration_8h.html" target="_top" xlink:title=" ">
<polygon fill="white" stroke="#666666" points="876.4,-74 706.4,-74 706.4,-55 876.4,-55 876.4,-74"/>
<text text-anchor="middle" x="791.4" y="-62" font-family="Helvetica,sans-Serif" font-size="10.00">HealthGPS.Console/configuration.h</text>
</a>
</g>
</g>
<!-- Node21&#45;&gt;Node22 -->
<g id="edge25" class="edge">
<title>Node21&#45;&gt;Node22</title>
<path fill="none" stroke="#63b8ff" d="M796.69,-104.16C795.29,-93.95 793.66,-82.04 792.58,-74.17"/>
<polygon fill="#63b8ff" stroke="#63b8ff" points="793.19,-104.43 798.01,-113.87 800.13,-103.49 793.19,-104.43"/>
</g>
<!-- Node22&#45;&gt;Node17 -->
<g id="edge27" class="edge">
<title>Node22&#45;&gt;Node17</title>
<path fill="none" stroke="#63b8ff" d="M747.46,-51.62C711.42,-41.87 661.19,-28.29 628.48,-19.45"/>
<polygon fill="#63b8ff" stroke="#63b8ff" points="746.12,-54.88 756.69,-54.11 747.95,-48.13 746.12,-54.88"/>
</g>
<!-- Node23 -->
<g id="node23" class="node">
<title>Node23</title>
<g id="a_node23"><a xlink:href="configuration_8cpp.html" target="_top" xlink:title=" ">
<polygon fill="white" stroke="#666666" points="881.4,-19 701.4,-19 701.4,0 881.4,0 881.4,-19"/>
<text text-anchor="middle" x="791.4" y="-7" font-family="Helvetica,sans-Serif" font-size="10.00">HealthGPS.Console/configuration.cpp</text>
</a>
</g>
</g>
<!-- Node22&#45;&gt;Node23 -->
<g id="edge26" class="edge">
<title>Node22&#45;&gt;Node23</title>
<path fill="none" stroke="#63b8ff" d="M791.4,-43.35C791.4,-35.1 791.4,-25.97 791.4,-19.44"/>
<polygon fill="#63b8ff" stroke="#63b8ff" points="787.9,-43.23 791.4,-53.23 794.9,-43.23 787.9,-43.23"/>
</g>
<!-- Node25&#45;&gt;Node5 -->
<g id="edge32" class="edge">
<title>Node25&#45;&gt;Node5</title>
<path fill="none" stroke="#63b8ff" d="M828.33,-243.43C864.14,-230.91 918.24,-211.99 949.88,-200.93"/>
<polygon fill="#63b8ff" stroke="#63b8ff" points="827.56,-240 819.27,-246.6 829.87,-246.6 827.56,-240"/>
</g>
<!-- Node25&#45;&gt;Node19 -->
<g id="edge33" class="edge">
<title>Node25&#45;&gt;Node19</title>
<path fill="none" stroke="#63b8ff" d="M764.6,-241.99C743.72,-231.47 715.23,-217.11 694.13,-206.48"/>
<polygon fill="#63b8ff" stroke="#63b8ff" points="762.88,-245.05 773.39,-246.42 766.03,-238.79 762.88,-245.05"/>
</g>
<!-- Node26&#45;&gt;Node11 -->
<g id="edge35" class="edge">
<title>Node26&#45;&gt;Node11</title>
<path fill="none" stroke="#63b8ff" d="M971.57,-243.76C1012.66,-231.24 1075.5,-212.08 1112.11,-200.93"/>
<polygon fill="#63b8ff" stroke="#63b8ff" points="970.59,-240.4 962.05,-246.66 972.63,-247.09 970.59,-240.4"/>
</g>
<!-- Node26&#45;&gt;Node19 -->
<g id="edge36" class="edge">
<title>Node26&#45;&gt;Node19</title>
<path fill="none" stroke="#63b8ff" d="M883.11,-244.38C837.72,-233.46 769.8,-217.12 721.92,-205.6"/>
<polygon fill="#63b8ff" stroke="#63b8ff" points="882.12,-247.74 892.66,-246.68 883.76,-240.94 882.12,-247.74"/>
</g>
<!-- Node27&#45;&gt;Node19 -->
<g id="edge39" class="edge">
<title>Node27&#45;&gt;Node19</title>
<path fill="none" stroke="#63b8ff" d="M310.07,-245.17C316.59,-244.06 323.13,-242.98 329.4,-242 449.45,-223.26 480.69,-226.81 600.4,-206 603.13,-205.53 605.92,-205.02 608.73,-204.48"/>
<polygon fill="#63b8ff" stroke="#63b8ff" points="309.93,-241.64 300.68,-246.81 311.14,-248.54 309.93,-241.64"/>
</g>
<!-- Node28 -->
<g id="node28" class="node">
<title>Node28</title>
<g id="a_node28"><a xlink:href="modulefactory_8cpp.html" target="_top" xlink:title=" ">
<polygon fill="white" stroke="#666666" points="314.4,-200.5 166.4,-200.5 166.4,-181.5 314.4,-181.5 314.4,-200.5"/>
<text text-anchor="middle" x="240.4" y="-188.5" font-family="Helvetica,sans-Serif" font-size="10.00">HealthGPS/modulefactory.cpp</text>
</a>
</g>
</g>
<!-- Node27&#45;&gt;Node28 -->
<g id="edge38" class="edge">
<title>Node27&#45;&gt;Node28</title>
<path fill="none" stroke="#63b8ff" d="M247.97,-236.05C245.94,-224.24 243.47,-209.87 241.92,-200.82"/>
<polygon fill="#63b8ff" stroke="#63b8ff" points="244.47,-236.35 249.61,-245.61 251.37,-235.16 244.47,-236.35"/>
</g>
<!-- Node29&#45;&gt;Node19 -->
<g id="edge43" class="edge">
<title>Node29&#45;&gt;Node19</title>
<path fill="none" stroke="#63b8ff" d="M445.26,-244.38C491.23,-233.44 560.06,-217.06 608.49,-205.54"/>
<polygon fill="#63b8ff" stroke="#63b8ff" points="444.48,-240.96 435.56,-246.68 446.1,-247.77 444.48,-240.96"/>
</g>
<!-- Node30 -->
<g id="node30" class="node">
<title>Node30</title>
<g id="a_node30"><a xlink:href="riskfactor_8cpp.html" target="_top" xlink:title=" ">
<polygon fill="white" stroke="#666666" points="459.9,-200.5 332.9,-200.5 332.9,-181.5 459.9,-181.5 459.9,-200.5"/>
<text text-anchor="middle" x="396.4" y="-188.5" font-family="Helvetica,sans-Serif" font-size="10.00">HealthGPS/riskfactor.cpp</text>
</a>
</g>
</g>
<!-- Node29&#45;&gt;Node30 -->
<g id="edge42" class="edge">
<title>Node29&#45;&gt;Node30</title>
<path fill="none" stroke="#63b8ff" d="M396.4,-235.68C396.4,-223.94 396.4,-209.77 396.4,-200.82"/>
<polygon fill="#63b8ff" stroke="#63b8ff" points="392.9,-235.59 396.4,-245.59 399.9,-235.59 392.9,-235.59"/>
</g>
<!-- Node31&#45;&gt;Node19 -->
<g id="edge46" class="edge">
<title>Node31&#45;&gt;Node19</title>
<path fill="none" stroke="#63b8ff" d="M570.08,-236.86C590.91,-227.05 615.84,-215.32 634.98,-206.31"/>
<polygon fill="#63b8ff" stroke="#63b8ff" points="568.85,-233.57 561.29,-240.99 571.83,-239.9 568.85,-233.57"/>
</g>
<!-- Node32 -->
<g id="node32" class="node">
<title>Node32</title>
<g id="a_node32"><a xlink:href="ses__noise__module_8cpp.html" target="_top" xlink:title=" ">
<polygon fill="white" stroke="#666666" points="590.9,-206 477.9,-206 477.9,-176 590.9,-176 590.9,-206"/>
<text text-anchor="start" x="485.9" y="-194" font-family="Helvetica,sans-Serif" font-size="10.00">HealthGPS/ses_noise</text>
<text text-anchor="middle" x="534.4" y="-183" font-family="Helvetica,sans-Serif" font-size="10.00">_module.cpp</text>
</a>
</g>
</g>
<!-- Node31&#45;&gt;Node32 -->
<g id="edge45" class="edge">
<title>Node31&#45;&gt;Node32</title>
<path fill="none" stroke="#63b8ff" d="M531.4,-230.39C532.05,-222.13 532.74,-213.28 533.29,-206.16"/>
<polygon fill="#63b8ff" stroke="#63b8ff" points="527.92,-230.05 530.63,-240.29 534.9,-230.59 527.92,-230.05"/>
</g>
</g>
</svg>
