<?xml version="1.0" encoding="UTF-8" standalone="no"?>
<!DOCTYPE svg PUBLIC "-//W3C//DTD SVG 1.1//EN"
 "http://www.w3.org/Graphics/SVG/1.1/DTD/svg11.dtd">
<!-- Generated by graphviz version 7.0.6 (20230106.0513)
 -->
<!-- Title: HealthGPS/disease_table.h Pages: 1 -->
<svg width="682pt" height="247pt"
 viewBox="0.00 0.00 681.85 247.00" xmlns="http://www.w3.org/2000/svg" xmlns:xlink="http://www.w3.org/1999/xlink">
<g id="graph0" class="graph" transform="scale(1 1) rotate(0) translate(4 243)">
<title>HealthGPS/disease_table.h</title>
<!-- Node1 -->
<g id="node1" class="node">
<title>Node1</title>
<g id="a_node1"><a xlink:title=" ">
<polygon fill="#999999" stroke="#666666" points="345.35,-239 208.35,-239 208.35,-220 345.35,-220 345.35,-239"/>
<text text-anchor="middle" x="276.85" y="-227" font-family="Helvetica,sans-Serif" font-size="10.00">HealthGPS/disease_table.h</text>
</a>
</g>
</g>
<!-- Node2 -->
<g id="node2" class="node">
<title>Node2</title>
<g id="a_node2"><a xlink:title=" ">
<polygon fill="#e0e0e0" stroke="#999999" points="340.35,-74 305.35,-74 305.35,-55 340.35,-55 340.35,-74"/>
<text text-anchor="middle" x="322.85" y="-62" font-family="Helvetica,sans-Serif" font-size="10.00">map</text>
</a>
</g>
</g>
<!-- Node1&#45;&gt;Node2 -->
<g id="edge1" class="edge">
<title>Node1&#45;&gt;Node2</title>
<path fill="none" stroke="#63b8ff" d="M282.97,-219.72C288.72,-211.04 297.14,-197.18 301.85,-184 313.73,-150.8 319.08,-109.88 321.34,-85.84"/>
<polygon fill="#63b8ff" stroke="#63b8ff" points="324.83,-86.15 322.17,-75.89 317.85,-85.56 324.83,-86.15"/>
</g>
<!-- Node3 -->
<g id="node3" class="node">
<title>Node3</title>
<g id="a_node3"><a xlink:title=" ">
<polygon fill="#e0e0e0" stroke="#999999" points="278.35,-19 237.35,-19 237.35,0 278.35,0 278.35,-19"/>
<text text-anchor="middle" x="257.85" y="-7" font-family="Helvetica,sans-Serif" font-size="10.00">string</text>
</a>
</g>
</g>
<!-- Node1&#45;&gt;Node3 -->
<g id="edge2" class="edge">
<title>Node1&#45;&gt;Node3</title>
<path fill="none" stroke="#63b8ff" d="M236.05,-219.58C146.2,-198.15 -55.35,-139.23 14.85,-55 41.32,-23.25 165.65,-14.09 225.5,-11.49"/>
<polygon fill="#63b8ff" stroke="#63b8ff" points="225.54,-15 235.39,-11.11 225.26,-8 225.54,-15"/>
</g>
<!-- Node4 -->
<g id="node4" class="node">
<title>Node4</title>
<g id="a_node4"><a xlink:href="poco_8h.html" target="_top" xlink:title=" ">
<polygon fill="white" stroke="#666666" points="293.35,-184 172.35,-184 172.35,-165 293.35,-165 293.35,-184"/>
<text text-anchor="middle" x="232.85" y="-172" font-family="Helvetica,sans-Serif" font-size="10.00">HealthGPS.Core/poco.h</text>
</a>
</g>
</g>
<!-- Node1&#45;&gt;Node4 -->
<g id="edge3" class="edge">
<title>Node1&#45;&gt;Node4</title>
<path fill="none" stroke="#63b8ff" d="M269.59,-219.75C263.57,-212.5 254.84,-201.98 247.4,-193.02"/>
<polygon fill="#63b8ff" stroke="#63b8ff" points="250.33,-191.07 241.24,-185.61 244.94,-195.54 250.33,-191.07"/>
</g>
<!-- Node10 -->
<g id="node10" class="node">
<title>Node10</title>
<g id="a_node10"><a xlink:href="forward__type_8h.html" target="_top" xlink:title=" ">
<polygon fill="white" stroke="#666666" points="616.85,-74 536.85,-74 536.85,-55 616.85,-55 616.85,-74"/>
<text text-anchor="middle" x="576.85" y="-62" font-family="Helvetica,sans-Serif" font-size="10.00">forward_type.h</text>
</a>
</g>
</g>
<!-- Node1&#45;&gt;Node10 -->
<g id="edge28" class="edge">
<title>Node1&#45;&gt;Node10</title>
<path fill="none" stroke="#63b8ff" d="M302.08,-219.55C344.24,-204.08 430.96,-170.02 497.85,-129 520.46,-115.14 543.83,-95.59 559.23,-81.85"/>
<polygon fill="#63b8ff" stroke="#63b8ff" points="561.54,-84.48 566.59,-75.17 556.83,-79.3 561.54,-84.48"/>
</g>
<!-- Node5 -->
<g id="node5" class="node">
<title>Node5</title>
<g id="a_node5"><a xlink:href="country_8h.html" target="_top" xlink:title=" ">
<polygon fill="white" stroke="#666666" points="81.35,-74 24.35,-74 24.35,-55 81.35,-55 81.35,-74"/>
<text text-anchor="middle" x="52.85" y="-62" font-family="Helvetica,sans-Serif" font-size="10.00">country.h</text>
</a>
</g>
</g>
<!-- Node4&#45;&gt;Node5 -->
<g id="edge4" class="edge">
<title>Node4&#45;&gt;Node5</title>
<path fill="none" stroke="#63b8ff" d="M171.99,-168.37C119.12,-162.51 48.34,-150.76 30.85,-129 20.15,-115.68 28.89,-96.82 38.34,-83.12"/>
<polygon fill="#63b8ff" stroke="#63b8ff" points="40.92,-85.5 44.16,-75.41 35.34,-81.28 40.92,-85.5"/>
</g>
<!-- Node6 -->
<g id="node6" class="node">
<title>Node6</title>
<g id="a_node6"><a xlink:href="population__item_8h.html" target="_top" xlink:title=" ">
<polygon fill="white" stroke="#666666" points="133.35,-129 40.35,-129 40.35,-110 133.35,-110 133.35,-129"/>
<text text-anchor="middle" x="86.85" y="-117" font-family="Helvetica,sans-Serif" font-size="10.00">population_item.h</text>
</a>
</g>
</g>
<!-- Node4&#45;&gt;Node6 -->
<g id="edge6" class="edge">
<title>Node4&#45;&gt;Node6</title>
<path fill="none" stroke="#63b8ff" d="M208.09,-164.51C184.45,-155.93 148.61,-142.92 122.02,-133.27"/>
<polygon fill="#63b8ff" stroke="#63b8ff" points="123.27,-130 112.68,-129.87 120.88,-136.58 123.27,-130"/>
</g>
<!-- Node8 -->
<g id="node8" class="node">
<title>Node8</title>
<g id="a_node8"><a xlink:href="_health_g_p_s_8_core_2disease_8h.html" target="_top" xlink:title=" ">
<polygon fill="white" stroke="#666666" points="488.35,-129 429.35,-129 429.35,-110 488.35,-110 488.35,-129"/>
<text text-anchor="middle" x="458.85" y="-117" font-family="Helvetica,sans-Serif" font-size="10.00">disease.h</text>
</a>
</g>
</g>
<!-- Node4&#45;&gt;Node8 -->
<g id="edge8" class="edge">
<title>Node4&#45;&gt;Node8</title>
<path fill="none" stroke="#63b8ff" d="M271.19,-164.51C311.94,-154.95 376.14,-139.9 417.87,-130.11"/>
<polygon fill="#63b8ff" stroke="#63b8ff" points="418.6,-133.54 427.53,-127.85 417,-126.72 418.6,-133.54"/>
</g>
<!-- Node16 -->
<g id="node16" class="node">
<title>Node16</title>
<g id="a_node16"><a xlink:href="analysis_8h.html" target="_top" xlink:title=" ">
<polygon fill="white" stroke="#666666" points="411.35,-129 350.35,-129 350.35,-110 411.35,-110 411.35,-129"/>
<text text-anchor="middle" x="380.85" y="-117" font-family="Helvetica,sans-Serif" font-size="10.00">analysis.h</text>
</a>
</g>
</g>
<!-- Node4&#45;&gt;Node16 -->
<g id="edge19" class="edge">
<title>Node4&#45;&gt;Node16</title>
<path fill="none" stroke="#63b8ff" d="M257.96,-164.51C282.03,-155.89 318.58,-142.8 345.57,-133.14"/>
<polygon fill="#63b8ff" stroke="#63b8ff" points="346.46,-136.53 354.69,-129.87 344.1,-129.94 346.46,-136.53"/>
</g>
<!-- Node17 -->
<g id="node17" class="node">
<title>Node17</title>
<g id="a_node17"><a xlink:href="indicator_8h.html" target="_top" xlink:title=" ">
<polygon fill="white" stroke="#666666" points="293.85,-129 231.85,-129 231.85,-110 293.85,-110 293.85,-129"/>
<text text-anchor="middle" x="262.85" y="-117" font-family="Helvetica,sans-Serif" font-size="10.00">indicator.h</text>
</a>
</g>
</g>
<!-- Node4&#45;&gt;Node17 -->
<g id="edge24" class="edge">
<title>Node4&#45;&gt;Node17</title>
<path fill="none" stroke="#63b8ff" d="M237.81,-164.75C241.69,-157.88 247.24,-148.08 252.13,-139.45"/>
<polygon fill="#63b8ff" stroke="#63b8ff" points="255.17,-141.19 257.05,-130.76 249.08,-137.74 255.17,-141.19"/>
</g>
<!-- Node18 -->
<g id="node18" class="node">
<title>Node18</title>
<g id="a_node18"><a xlink:href="mortality_8h.html" target="_top" xlink:title=" ">
<polygon fill="white" stroke="#666666" points="213.85,-129 151.85,-129 151.85,-110 213.85,-110 213.85,-129"/>
<text text-anchor="middle" x="182.85" y="-117" font-family="Helvetica,sans-Serif" font-size="10.00">mortality.h</text>
</a>
</g>
</g>
<!-- Node4&#45;&gt;Node18 -->
<g id="edge26" class="edge">
<title>Node4&#45;&gt;Node18</title>
<path fill="none" stroke="#63b8ff" d="M224.6,-164.75C217.69,-157.43 207.63,-146.76 199.12,-137.74"/>
<polygon fill="#63b8ff" stroke="#63b8ff" points="201.74,-135.42 192.33,-130.54 196.65,-140.22 201.74,-135.42"/>
</g>
<!-- Node5&#45;&gt;Node3 -->
<g id="edge5" class="edge">
<title>Node5&#45;&gt;Node3</title>
<path fill="none" stroke="#63b8ff" d="M81.79,-56.02C119.88,-46.17 186.62,-28.92 226.07,-18.72"/>
<polygon fill="#63b8ff" stroke="#63b8ff" points="226.87,-22.12 235.68,-16.23 225.12,-15.35 226.87,-22.12"/>
</g>
<!-- Node7 -->
<g id="node7" class="node">
<title>Node7</title>
<g id="a_node7"><a xlink:title=" ">
<polygon fill="#e0e0e0" stroke="#999999" points="180.85,-74 142.85,-74 142.85,-55 180.85,-55 180.85,-74"/>
<text text-anchor="middle" x="161.85" y="-62" font-family="Helvetica,sans-Serif" font-size="10.00">tuple</text>
</a>
</g>
</g>
<!-- Node6&#45;&gt;Node7 -->
<g id="edge7" class="edge">
<title>Node6&#45;&gt;Node7</title>
<path fill="none" stroke="#63b8ff" d="M99.58,-109.51C110.63,-101.7 126.89,-90.21 140.02,-80.93"/>
<polygon fill="#63b8ff" stroke="#63b8ff" points="141.94,-83.86 148.08,-75.23 137.9,-78.14 141.94,-83.86"/>
</g>
<!-- Node8&#45;&gt;Node2 -->
<g id="edge11" class="edge">
<title>Node8&#45;&gt;Node2</title>
<path fill="none" stroke="#63b8ff" d="M435.78,-109.51C412.52,-100.44 376.56,-86.43 351.48,-76.66"/>
<polygon fill="#63b8ff" stroke="#63b8ff" points="352.81,-73.42 342.23,-73.05 350.27,-79.94 352.81,-73.42"/>
</g>
<!-- Node8&#45;&gt;Node3 -->
<g id="edge9" class="edge">
<title>Node8&#45;&gt;Node3</title>
<path fill="none" stroke="#63b8ff" d="M454.43,-109.69C447.07,-95.93 431.01,-69.45 409.85,-55 373.25,-30 322.47,-18.84 289.89,-14"/>
<polygon fill="#63b8ff" stroke="#63b8ff" points="290.65,-10.57 280.27,-12.7 289.7,-17.51 290.65,-10.57"/>
</g>
<!-- Node9 -->
<g id="node9" class="node">
<title>Node9</title>
<g id="a_node9"><a xlink:title=" ">
<polygon fill="#e0e0e0" stroke="#999999" points="400.85,-74 358.85,-74 358.85,-55 400.85,-55 400.85,-74"/>
<text text-anchor="middle" x="379.85" y="-62" font-family="Helvetica,sans-Serif" font-size="10.00">vector</text>
</a>
</g>
</g>
<!-- Node8&#45;&gt;Node9 -->
<g id="edge10" class="edge">
<title>Node8&#45;&gt;Node9</title>
<path fill="none" stroke="#63b8ff" d="M445.45,-109.51C433.69,-101.62 416.34,-89.98 402.44,-80.65"/>
<polygon fill="#63b8ff" stroke="#63b8ff" points="404.57,-77.87 394.31,-75.2 400.67,-83.68 404.57,-77.87"/>
</g>
<!-- Node8&#45;&gt;Node10 -->
<g id="edge12" class="edge">
<title>Node8&#45;&gt;Node10</title>
<path fill="none" stroke="#63b8ff" d="M478.87,-109.51C497.46,-101.16 525.4,-88.61 546.69,-79.05"/>
<polygon fill="#63b8ff" stroke="#63b8ff" points="548.06,-82.27 555.75,-74.98 545.2,-75.88 548.06,-82.27"/>
</g>
<!-- Node13 -->
<g id="node13" class="node">
<title>Node13</title>
<g id="a_node13"><a xlink:href="identifier_8h.html" target="_top" xlink:title=" ">
<polygon fill="white" stroke="#666666" points="518.35,-74 457.35,-74 457.35,-55 518.35,-55 518.35,-74"/>
<text text-anchor="middle" x="487.85" y="-62" font-family="Helvetica,sans-Serif" font-size="10.00">identifier.h</text>
</a>
</g>
</g>
<!-- Node8&#45;&gt;Node13 -->
<g id="edge15" class="edge">
<title>Node8&#45;&gt;Node13</title>
<path fill="none" stroke="#63b8ff" d="M463.64,-109.75C467.4,-102.88 472.76,-93.08 477.49,-84.45"/>
<polygon fill="#63b8ff" stroke="#63b8ff" points="480.51,-86.22 482.24,-75.77 474.36,-82.86 480.51,-86.22"/>
</g>
<!-- Node11 -->
<g id="node11" class="node">
<title>Node11</title>
<g id="a_node11"><a xlink:title=" ">
<polygon fill="#e0e0e0" stroke="#999999" points="673.85,-19 611.85,-19 611.85,0 673.85,0 673.85,-19"/>
<text text-anchor="middle" x="642.85" y="-7" font-family="Helvetica,sans-Serif" font-size="10.00">type_traits</text>
</a>
</g>
</g>
<!-- Node10&#45;&gt;Node11 -->
<g id="edge13" class="edge">
<title>Node10&#45;&gt;Node11</title>
<path fill="none" stroke="#63b8ff" d="M588.05,-54.51C597.59,-46.85 611.53,-35.66 622.96,-26.47"/>
<polygon fill="#63b8ff" stroke="#63b8ff" points="625.04,-29.3 630.64,-20.31 620.66,-23.84 625.04,-29.3"/>
</g>
<!-- Node12 -->
<g id="node12" class="node">
<title>Node12</title>
<g id="a_node12"><a xlink:title=" ">
<polygon fill="#e0e0e0" stroke="#999999" points="593.85,-19 547.85,-19 547.85,0 593.85,0 593.85,-19"/>
<text text-anchor="middle" x="570.85" y="-7" font-family="Helvetica,sans-Serif" font-size="10.00">cstdint</text>
</a>
</g>
</g>
<!-- Node10&#45;&gt;Node12 -->
<g id="edge14" class="edge">
<title>Node10&#45;&gt;Node12</title>
<path fill="none" stroke="#63b8ff" d="M575.86,-54.75C575.12,-48.19 574.07,-38.95 573.13,-30.6"/>
<polygon fill="#63b8ff" stroke="#63b8ff" points="576.64,-30.49 572.04,-20.95 569.68,-31.28 576.64,-30.49"/>
</g>
<!-- Node13&#45;&gt;Node3 -->
<g id="edge16" class="edge">
<title>Node13&#45;&gt;Node3</title>
<path fill="none" stroke="#63b8ff" d="M457.31,-56.46C413.68,-46.41 333.89,-28.02 289.6,-17.81"/>
<polygon fill="#63b8ff" stroke="#63b8ff" points="290.63,-14.46 280.1,-15.63 289.06,-21.28 290.63,-14.46"/>
</g>
<!-- Node14 -->
<g id="node14" class="node">
<title>Node14</title>
<g id="a_node14"><a xlink:title=" ">
<polygon fill="#e0e0e0" stroke="#999999" points="518.85,-19 466.85,-19 466.85,0 518.85,0 518.85,-19"/>
<text text-anchor="middle" x="492.85" y="-7" font-family="Helvetica,sans-Serif" font-size="10.00">ostream</text>
</a>
</g>
</g>
<!-- Node13&#45;&gt;Node14 -->
<g id="edge17" class="edge">
<title>Node13&#45;&gt;Node14</title>
<path fill="none" stroke="#63b8ff" d="M488.68,-54.75C489.29,-48.27 490.15,-39.16 490.93,-30.9"/>
<polygon fill="#63b8ff" stroke="#63b8ff" points="494.41,-31.23 491.87,-20.95 487.44,-30.58 494.41,-31.23"/>
</g>
<!-- Node15 -->
<g id="node15" class="node">
<title>Node15</title>
<g id="a_node15"><a xlink:title=" ">
<polygon fill="#e0e0e0" stroke="#999999" points="448.85,-19 390.85,-19 390.85,0 448.85,0 448.85,-19"/>
<text text-anchor="middle" x="419.85" y="-7" font-family="Helvetica,sans-Serif" font-size="10.00">functional</text>
</a>
</g>
</g>
<!-- Node13&#45;&gt;Node15 -->
<g id="edge18" class="edge">
<title>Node13&#45;&gt;Node15</title>
<path fill="none" stroke="#63b8ff" d="M476.32,-54.51C466.39,-46.77 451.84,-35.43 440,-26.2"/>
<polygon fill="#63b8ff" stroke="#63b8ff" points="442.45,-23.68 432.41,-20.29 438.15,-29.2 442.45,-23.68"/>
</g>
<!-- Node16&#45;&gt;Node2 -->
<g id="edge20" class="edge">
<title>Node16&#45;&gt;Node2</title>
<path fill="none" stroke="#63b8ff" d="M371.02,-109.51C362.8,-102 350.87,-91.1 340.94,-82.03"/>
<polygon fill="#63b8ff" stroke="#63b8ff" points="343.41,-79.54 333.67,-75.38 338.69,-84.71 343.41,-79.54"/>
</g>
<!-- Node16&#45;&gt;Node3 -->
<g id="edge22" class="edge">
<title>Node16&#45;&gt;Node3</title>
<path fill="none" stroke="#63b8ff" d="M355.53,-109.55C337.32,-102.16 313.05,-90.24 295.85,-74 282.57,-61.46 272.32,-43.26 265.83,-29.55"/>
<polygon fill="#63b8ff" stroke="#63b8ff" points="269.16,-28.42 261.9,-20.71 262.77,-31.27 269.16,-28.42"/>
</g>
<!-- Node16&#45;&gt;Node9 -->
<g id="edge21" class="edge">
<title>Node16&#45;&gt;Node9</title>
<path fill="none" stroke="#63b8ff" d="M380.69,-109.75C380.57,-103.27 380.4,-94.16 380.24,-85.9"/>
<polygon fill="#63b8ff" stroke="#63b8ff" points="383.74,-85.89 380.05,-75.96 376.74,-86.02 383.74,-85.89"/>
</g>
<!-- Node16&#45;&gt;Node10 -->
<g id="edge23" class="edge">
<title>Node16&#45;&gt;Node10</title>
<path fill="none" stroke="#63b8ff" d="M411.48,-110.22C444.07,-101.41 495.92,-87.38 532.88,-77.39"/>
<polygon fill="#63b8ff" stroke="#63b8ff" points="533.63,-80.81 542.37,-74.83 531.8,-74.06 533.63,-80.81"/>
</g>
<!-- Node17&#45;&gt;Node3 -->
<g id="edge25" class="edge">
<title>Node17&#45;&gt;Node3</title>
<path fill="none" stroke="#63b8ff" d="M262.45,-109.66C261.65,-92.57 259.9,-54.61 258.8,-30.92"/>
<polygon fill="#63b8ff" stroke="#63b8ff" points="262.3,-30.8 258.34,-20.97 255.31,-31.12 262.3,-30.8"/>
</g>
<!-- Node18&#45;&gt;Node7 -->
<g id="edge27" class="edge">
<title>Node18&#45;&gt;Node7</title>
<path fill="none" stroke="#63b8ff" d="M179.39,-109.75C176.73,-103.04 172.96,-93.52 169.59,-85.02"/>
<polygon fill="#63b8ff" stroke="#63b8ff" points="172.89,-83.86 165.96,-75.85 166.38,-86.44 172.89,-83.86"/>
</g>
</g>
</svg>
