<?xml version="1.0" encoding="UTF-8" standalone="no"?>
<!DOCTYPE svg PUBLIC "-//W3C//DTD SVG 1.1//EN"
 "http://www.w3.org/Graphics/SVG/1.1/DTD/svg11.dtd">
<!-- Generated by graphviz version 2.43.0 (0)
 -->
<!-- Title: HealthGPS/disease_table.cpp Pages: 1 -->
<svg width="780pt" height="319pt"
 viewBox="0.00 0.00 779.93 319.00" xmlns="http://www.w3.org/2000/svg" xmlns:xlink="http://www.w3.org/1999/xlink">
<g id="graph0" class="graph" transform="scale(1 1) rotate(0) translate(4 315)">
<title>HealthGPS/disease_table.cpp</title>
<!-- Node1 -->
<g id="node1" class="node">
<title>Node1</title>
<g id="a_node1"><a xlink:title=" ">
<polygon fill="#bfbfbf" stroke="black" points="493,-291.5 493,-310.5 652,-310.5 652,-291.5 493,-291.5"/>
<text text-anchor="middle" x="572.5" y="-298.5" font-family="Helvetica,sans-Serif" font-size="10.00">HealthGPS/disease_table.cpp</text>
</a>
</g>
</g>
<!-- Node2 -->
<g id="node2" class="node">
<title>Node2</title>
<g id="a_node2"><a xlink:href="disease__table_8h.html" target="_top" xlink:title=" ">
<polygon fill="none" stroke="black" points="422,-235.5 422,-254.5 515,-254.5 515,-235.5 422,-235.5"/>
<text text-anchor="middle" x="468.5" y="-242.5" font-family="Helvetica,sans-Serif" font-size="10.00">disease_table.h</text>
</a>
</g>
</g>
<!-- Node1&#45;&gt;Node2 -->
<g id="edge1" class="edge">
<title>Node1&#45;&gt;Node2</title>
<path fill="none" stroke="midnightblue" d="M555.79,-291.32C539.19,-282.7 513.5,-269.36 494.28,-259.39"/>
<polygon fill="midnightblue" stroke="midnightblue" points="495.66,-256.16 485.17,-254.65 492.43,-262.37 495.66,-256.16"/>
</g>
<!-- Node20 -->
<g id="node20" class="node">
<title>Node20</title>
<g id="a_node20"><a xlink:title=" ">
<polygon fill="none" stroke="#bfbfbf" points="533,-235.5 533,-254.5 612,-254.5 612,-235.5 533,-235.5"/>
<text text-anchor="middle" x="572.5" y="-242.5" font-family="Helvetica,sans-Serif" font-size="10.00">fmt/format.h</text>
</a>
</g>
</g>
<!-- Node1&#45;&gt;Node20 -->
<g id="edge30" class="edge">
<title>Node1&#45;&gt;Node20</title>
<path fill="none" stroke="midnightblue" d="M572.5,-291.08C572.5,-284.01 572.5,-273.86 572.5,-264.99"/>
<polygon fill="midnightblue" stroke="midnightblue" points="576,-264.75 572.5,-254.75 569,-264.75 576,-264.75"/>
</g>
<!-- Node21 -->
<g id="node21" class="node">
<title>Node21</title>
<g id="a_node21"><a xlink:title=" ">
<polygon fill="none" stroke="#bfbfbf" points="630,-235.5 630,-254.5 695,-254.5 695,-235.5 630,-235.5"/>
<text text-anchor="middle" x="662.5" y="-242.5" font-family="Helvetica,sans-Serif" font-size="10.00">stdexcept</text>
</a>
</g>
</g>
<!-- Node1&#45;&gt;Node21 -->
<g id="edge31" class="edge">
<title>Node1&#45;&gt;Node21</title>
<path fill="none" stroke="midnightblue" d="M586.96,-291.32C601,-282.9 622.55,-269.97 639.04,-260.07"/>
<polygon fill="midnightblue" stroke="midnightblue" points="641.3,-262.8 648.08,-254.65 637.7,-256.8 641.3,-262.8"/>
</g>
<!-- Node3 -->
<g id="node3" class="node">
<title>Node3</title>
<g id="a_node3"><a xlink:title=" ">
<polygon fill="none" stroke="#bfbfbf" points="442.5,-62 442.5,-81 480.5,-81 480.5,-62 442.5,-62"/>
<text text-anchor="middle" x="461.5" y="-69" font-family="Helvetica,sans-Serif" font-size="10.00">map</text>
</a>
</g>
</g>
<!-- Node2&#45;&gt;Node3 -->
<g id="edge2" class="edge">
<title>Node2&#45;&gt;Node3</title>
<path fill="none" stroke="midnightblue" d="M461.35,-235.36C454.73,-226.76 445.34,-212.87 441.5,-199 432.48,-166.45 435.17,-156.18 441.5,-123 443.65,-111.71 448.29,-99.72 452.56,-90.26"/>
<polygon fill="midnightblue" stroke="midnightblue" points="455.76,-91.67 456.91,-81.13 449.45,-88.65 455.76,-91.67"/>
</g>
<!-- Node4 -->
<g id="node4" class="node">
<title>Node4</title>
<g id="a_node4"><a xlink:title=" ">
<polygon fill="none" stroke="#bfbfbf" points="509.5,-0.5 509.5,-19.5 553.5,-19.5 553.5,-0.5 509.5,-0.5"/>
<text text-anchor="middle" x="531.5" y="-7.5" font-family="Helvetica,sans-Serif" font-size="10.00">string</text>
</a>
</g>
</g>
<!-- Node2&#45;&gt;Node4 -->
<g id="edge3" class="edge">
<title>Node2&#45;&gt;Node4</title>
<path fill="none" stroke="midnightblue" d="M506.51,-235.48C576.56,-219.04 721.91,-181.16 755.5,-143 772.32,-123.89 764.82,-112.31 767.5,-87 768.95,-73.3 776.28,-66.62 767.5,-56 742.03,-25.22 622.52,-15.31 563.98,-12.27"/>
<polygon fill="midnightblue" stroke="midnightblue" points="563.95,-8.76 553.79,-11.78 563.61,-15.75 563.95,-8.76"/>
</g>
<!-- Node5 -->
<g id="node5" class="node">
<title>Node5</title>
<g id="a_node5"><a xlink:href="forward__type_8h.html" target="_top" xlink:title=" ">
<polygon fill="none" stroke="black" points="148.5,-56.5 148.5,-86.5 282.5,-86.5 282.5,-56.5 148.5,-56.5"/>
<text text-anchor="start" x="156.5" y="-74.5" font-family="Helvetica,sans-Serif" font-size="10.00">HealthGPS.Core/forward</text>
<text text-anchor="middle" x="215.5" y="-63.5" font-family="Helvetica,sans-Serif" font-size="10.00">_type.h</text>
</a>
</g>
</g>
<!-- Node2&#45;&gt;Node5 -->
<g id="edge4" class="edge">
<title>Node2&#45;&gt;Node5</title>
<path fill="none" stroke="midnightblue" d="M421.84,-235.61C369.72,-223.84 286.28,-197.44 237.5,-143 226.07,-130.24 220.58,-111.6 217.94,-96.7"/>
<polygon fill="midnightblue" stroke="midnightblue" points="221.38,-96.03 216.48,-86.64 214.45,-97.04 221.38,-96.03"/>
</g>
<!-- Node8 -->
<g id="node8" class="node">
<title>Node8</title>
<g id="a_node8"><a xlink:href="HealthGPS_8Core_2poco_8h.html" target="_top" xlink:title=" ">
<polygon fill="none" stroke="black" points="451,-179.5 451,-198.5 580,-198.5 580,-179.5 451,-179.5"/>
<text text-anchor="middle" x="515.5" y="-186.5" font-family="Helvetica,sans-Serif" font-size="10.00">HealthGPS.Core/poco.h</text>
</a>
</g>
</g>
<!-- Node2&#45;&gt;Node8 -->
<g id="edge7" class="edge">
<title>Node2&#45;&gt;Node8</title>
<path fill="none" stroke="midnightblue" d="M476.26,-235.08C483.04,-227.3 493.04,-215.8 501.26,-206.37"/>
<polygon fill="midnightblue" stroke="midnightblue" points="503.96,-208.59 507.88,-198.75 498.68,-204 503.96,-208.59"/>
</g>
<!-- Node6 -->
<g id="node6" class="node">
<title>Node6</title>
<g id="a_node6"><a xlink:title=" ">
<polygon fill="none" stroke="#bfbfbf" points="179.5,-0.5 179.5,-19.5 229.5,-19.5 229.5,-0.5 179.5,-0.5"/>
<text text-anchor="middle" x="204.5" y="-7.5" font-family="Helvetica,sans-Serif" font-size="10.00">cstdint</text>
</a>
</g>
</g>
<!-- Node5&#45;&gt;Node6 -->
<g id="edge5" class="edge">
<title>Node5&#45;&gt;Node6</title>
<path fill="none" stroke="midnightblue" d="M212.89,-56.4C211.41,-48.38 209.53,-38.23 207.93,-29.57"/>
<polygon fill="midnightblue" stroke="midnightblue" points="211.36,-28.85 206.1,-19.66 204.48,-30.13 211.36,-28.85"/>
</g>
<!-- Node7 -->
<g id="node7" class="node">
<title>Node7</title>
<g id="a_node7"><a xlink:title=" ">
<polygon fill="none" stroke="#bfbfbf" points="248,-0.5 248,-19.5 317,-19.5 317,-0.5 248,-0.5"/>
<text text-anchor="middle" x="282.5" y="-7.5" font-family="Helvetica,sans-Serif" font-size="10.00">type_traits</text>
</a>
</g>
</g>
<!-- Node5&#45;&gt;Node7 -->
<g id="edge6" class="edge">
<title>Node5&#45;&gt;Node7</title>
<path fill="none" stroke="midnightblue" d="M231.38,-56.4C241.52,-47.4 254.66,-35.72 265.09,-26.47"/>
<polygon fill="midnightblue" stroke="midnightblue" points="267.6,-28.92 272.75,-19.66 262.95,-23.68 267.6,-28.92"/>
</g>
<!-- Node9 -->
<g id="node9" class="node">
<title>Node9</title>
<g id="a_node9"><a xlink:href="analysis_8h.html" target="_top" xlink:title=" ">
<polygon fill="none" stroke="black" points="328.5,-123.5 328.5,-142.5 394.5,-142.5 394.5,-123.5 328.5,-123.5"/>
<text text-anchor="middle" x="361.5" y="-130.5" font-family="Helvetica,sans-Serif" font-size="10.00">analysis.h</text>
</a>
</g>
</g>
<!-- Node8&#45;&gt;Node9 -->
<g id="edge8" class="edge">
<title>Node8&#45;&gt;Node9</title>
<path fill="none" stroke="midnightblue" d="M491.1,-179.44C465.3,-170.4 424.42,-156.06 395.48,-145.92"/>
<polygon fill="midnightblue" stroke="midnightblue" points="396.38,-142.52 385.79,-142.52 394.07,-149.13 396.38,-142.52"/>
</g>
<!-- Node11 -->
<g id="node11" class="node">
<title>Node11</title>
<g id="a_node11"><a xlink:href="country_8h.html" target="_top" xlink:title=" ">
<polygon fill="none" stroke="black" points="697,-62 697,-81 758,-81 758,-62 697,-62"/>
<text text-anchor="middle" x="727.5" y="-69" font-family="Helvetica,sans-Serif" font-size="10.00">country.h</text>
</a>
</g>
</g>
<!-- Node8&#45;&gt;Node11 -->
<g id="edge13" class="edge">
<title>Node8&#45;&gt;Node11</title>
<path fill="none" stroke="midnightblue" d="M580.11,-183.86C638.68,-178.59 718.77,-167.11 738.5,-143 750.47,-128.37 744.26,-106.14 737.3,-90.56"/>
<polygon fill="midnightblue" stroke="midnightblue" points="740.36,-88.85 732.79,-81.43 734.08,-91.95 740.36,-88.85"/>
</g>
<!-- Node12 -->
<g id="node12" class="node">
<title>Node12</title>
<g id="a_node12"><a xlink:href="HealthGPS_8Core_2disease_8h.html" target="_top" xlink:title=" ">
<polygon fill="none" stroke="black" points="247,-123.5 247,-142.5 310,-142.5 310,-123.5 247,-123.5"/>
<text text-anchor="middle" x="278.5" y="-130.5" font-family="Helvetica,sans-Serif" font-size="10.00">disease.h</text>
</a>
</g>
</g>
<!-- Node8&#45;&gt;Node12 -->
<g id="edge15" class="edge">
<title>Node8&#45;&gt;Node12</title>
<path fill="none" stroke="midnightblue" d="M477.95,-179.44C434.96,-169.65 364.75,-153.65 320.13,-143.48"/>
<polygon fill="midnightblue" stroke="midnightblue" points="320.72,-140.03 310.19,-141.22 319.16,-146.85 320.72,-140.03"/>
</g>
<!-- Node16 -->
<g id="node16" class="node">
<title>Node16</title>
<g id="a_node16"><a xlink:href="indicator_8h.html" target="_top" xlink:title=" ">
<polygon fill="none" stroke="black" points="661.5,-123.5 661.5,-142.5 729.5,-142.5 729.5,-123.5 661.5,-123.5"/>
<text text-anchor="middle" x="695.5" y="-130.5" font-family="Helvetica,sans-Serif" font-size="10.00">indicator.h</text>
</a>
</g>
</g>
<!-- Node8&#45;&gt;Node16 -->
<g id="edge24" class="edge">
<title>Node8&#45;&gt;Node16</title>
<path fill="none" stroke="midnightblue" d="M544.02,-179.44C574.57,-170.28 623.21,-155.69 657.1,-145.52"/>
<polygon fill="midnightblue" stroke="midnightblue" points="658.54,-148.74 667.11,-142.52 656.53,-142.04 658.54,-148.74"/>
</g>
<!-- Node17 -->
<g id="node17" class="node">
<title>Node17</title>
<g id="a_node17"><a xlink:href="mortality_8h.html" target="_top" xlink:title=" ">
<polygon fill="none" stroke="black" points="451,-123.5 451,-142.5 520,-142.5 520,-123.5 451,-123.5"/>
<text text-anchor="middle" x="485.5" y="-130.5" font-family="Helvetica,sans-Serif" font-size="10.00">mortality.h</text>
</a>
</g>
</g>
<!-- Node8&#45;&gt;Node17 -->
<g id="edge26" class="edge">
<title>Node8&#45;&gt;Node17</title>
<path fill="none" stroke="midnightblue" d="M510.55,-179.08C506.4,-171.61 500.35,-160.72 495.23,-151.52"/>
<polygon fill="midnightblue" stroke="midnightblue" points="498.28,-149.79 490.36,-142.75 492.16,-153.19 498.28,-149.79"/>
</g>
<!-- Node19 -->
<g id="node19" class="node">
<title>Node19</title>
<g id="a_node19"><a xlink:href="population__item_8h.html" target="_top" xlink:title=" ">
<polygon fill="none" stroke="black" points="538,-123.5 538,-142.5 643,-142.5 643,-123.5 538,-123.5"/>
<text text-anchor="middle" x="590.5" y="-130.5" font-family="Helvetica,sans-Serif" font-size="10.00">population_item.h</text>
</a>
</g>
</g>
<!-- Node8&#45;&gt;Node19 -->
<g id="edge28" class="edge">
<title>Node8&#45;&gt;Node19</title>
<path fill="none" stroke="midnightblue" d="M527.55,-179.32C538.96,-171.11 556.33,-158.6 569.93,-148.81"/>
<polygon fill="midnightblue" stroke="midnightblue" points="572.16,-151.52 578.23,-142.83 568.07,-145.84 572.16,-151.52"/>
</g>
<!-- Node9&#45;&gt;Node3 -->
<g id="edge10" class="edge">
<title>Node9&#45;&gt;Node3</title>
<path fill="none" stroke="midnightblue" d="M375.83,-123.48C392.16,-113.75 419.1,-97.73 438.41,-86.24"/>
<polygon fill="midnightblue" stroke="midnightblue" points="440.39,-89.13 447.2,-81.01 436.82,-83.11 440.39,-89.13"/>
</g>
<!-- Node9&#45;&gt;Node4 -->
<g id="edge11" class="edge">
<title>Node9&#45;&gt;Node4</title>
<path fill="none" stroke="midnightblue" d="M367.79,-123.46C379.36,-108.23 405.42,-76.11 433.5,-56 453.81,-41.45 479.58,-29.84 499.59,-22.06"/>
<polygon fill="midnightblue" stroke="midnightblue" points="501.07,-25.25 509.19,-18.45 498.6,-18.7 501.07,-25.25"/>
</g>
<!-- Node9&#45;&gt;Node5 -->
<g id="edge9" class="edge">
<title>Node9&#45;&gt;Node5</title>
<path fill="none" stroke="midnightblue" d="M340.58,-123.48C319.51,-114.89 286.37,-101.38 259.49,-90.43"/>
<polygon fill="midnightblue" stroke="midnightblue" points="260.49,-87.06 249.91,-86.52 257.85,-93.54 260.49,-87.06"/>
</g>
<!-- Node10 -->
<g id="node10" class="node">
<title>Node10</title>
<g id="a_node10"><a xlink:title=" ">
<polygon fill="none" stroke="#bfbfbf" points="339,-62 339,-81 386,-81 386,-62 339,-62"/>
<text text-anchor="middle" x="362.5" y="-69" font-family="Helvetica,sans-Serif" font-size="10.00">vector</text>
</a>
</g>
</g>
<!-- Node9&#45;&gt;Node10 -->
<g id="edge12" class="edge">
<title>Node9&#45;&gt;Node10</title>
<path fill="none" stroke="midnightblue" d="M361.64,-123.48C361.78,-115.08 362,-101.98 362.19,-91.16"/>
<polygon fill="midnightblue" stroke="midnightblue" points="365.69,-91.07 362.36,-81.01 358.69,-90.95 365.69,-91.07"/>
</g>
<!-- Node11&#45;&gt;Node4 -->
<g id="edge14" class="edge">
<title>Node11&#45;&gt;Node4</title>
<path fill="none" stroke="midnightblue" d="M699.42,-61.98C663.52,-51.08 601.51,-32.25 563.73,-20.78"/>
<polygon fill="midnightblue" stroke="midnightblue" points="564.34,-17.31 553.76,-17.76 562.31,-24.01 564.34,-17.31"/>
</g>
<!-- Node12&#45;&gt;Node3 -->
<g id="edge16" class="edge">
<title>Node12&#45;&gt;Node3</title>
<path fill="none" stroke="midnightblue" d="M304.72,-123.48C338.63,-112.45 397.5,-93.31 432.65,-81.88"/>
<polygon fill="midnightblue" stroke="midnightblue" points="433.89,-85.16 442.32,-78.74 431.73,-78.5 433.89,-85.16"/>
</g>
<!-- Node12&#45;&gt;Node4 -->
<g id="edge17" class="edge">
<title>Node12&#45;&gt;Node4</title>
<path fill="none" stroke="midnightblue" d="M281.75,-123.35C288.22,-107.36 304.31,-73.21 329.5,-56 381.46,-20.49 456.88,-12.51 499.33,-11.01"/>
<polygon fill="midnightblue" stroke="midnightblue" points="499.47,-14.5 509.38,-10.75 499.3,-7.51 499.47,-14.5"/>
</g>
<!-- Node12&#45;&gt;Node5 -->
<g id="edge19" class="edge">
<title>Node12&#45;&gt;Node5</title>
<path fill="none" stroke="midnightblue" d="M269.47,-123.48C261.26,-115.72 248.79,-103.94 237.91,-93.66"/>
<polygon fill="midnightblue" stroke="midnightblue" points="240.02,-90.84 230.35,-86.52 235.21,-95.93 240.02,-90.84"/>
</g>
<!-- Node12&#45;&gt;Node10 -->
<g id="edge18" class="edge">
<title>Node12&#45;&gt;Node10</title>
<path fill="none" stroke="midnightblue" d="M290.54,-123.48C304.01,-113.93 326.07,-98.31 342.22,-86.87"/>
<polygon fill="midnightblue" stroke="midnightblue" points="344.35,-89.65 350.49,-81.01 340.3,-83.93 344.35,-89.65"/>
</g>
<!-- Node13 -->
<g id="node13" class="node">
<title>Node13</title>
<g id="a_node13"><a xlink:href="identifier_8h.html" target="_top" xlink:title=" ">
<polygon fill="none" stroke="black" points="62.5,-62 62.5,-81 130.5,-81 130.5,-62 62.5,-62"/>
<text text-anchor="middle" x="96.5" y="-69" font-family="Helvetica,sans-Serif" font-size="10.00">identifier.h</text>
</a>
</g>
</g>
<!-- Node12&#45;&gt;Node13 -->
<g id="edge20" class="edge">
<title>Node12&#45;&gt;Node13</title>
<path fill="none" stroke="midnightblue" d="M251.82,-123.47C223.82,-114.49 178.52,-99.89 139.5,-87 136.92,-86.15 134.26,-85.26 131.59,-84.37"/>
<polygon fill="midnightblue" stroke="midnightblue" points="132.54,-81 121.95,-81.14 130.32,-87.64 132.54,-81"/>
</g>
<!-- Node13&#45;&gt;Node4 -->
<g id="edge23" class="edge">
<title>Node13&#45;&gt;Node4</title>
<path fill="none" stroke="midnightblue" d="M119.01,-61.91C125.54,-59.7 132.73,-57.51 139.5,-56 270.86,-26.66 431.5,-15.85 499.09,-12.41"/>
<polygon fill="midnightblue" stroke="midnightblue" points="499.31,-15.9 509.12,-11.92 498.96,-8.91 499.31,-15.9"/>
</g>
<!-- Node14 -->
<g id="node14" class="node">
<title>Node14</title>
<g id="a_node14"><a xlink:title=" ">
<polygon fill="none" stroke="#bfbfbf" points="75,-0.5 75,-19.5 140,-19.5 140,-0.5 75,-0.5"/>
<text text-anchor="middle" x="107.5" y="-7.5" font-family="Helvetica,sans-Serif" font-size="10.00">functional</text>
</a>
</g>
</g>
<!-- Node13&#45;&gt;Node14 -->
<g id="edge21" class="edge">
<title>Node13&#45;&gt;Node14</title>
<path fill="none" stroke="midnightblue" d="M98.08,-61.98C99.63,-53.58 102.05,-40.48 104.05,-29.66"/>
<polygon fill="midnightblue" stroke="midnightblue" points="107.55,-29.98 105.93,-19.51 100.67,-28.71 107.55,-29.98"/>
</g>
<!-- Node15 -->
<g id="node15" class="node">
<title>Node15</title>
<g id="a_node15"><a xlink:title=" ">
<polygon fill="none" stroke="#bfbfbf" points="0,-0.5 0,-19.5 57,-19.5 57,-0.5 0,-0.5"/>
<text text-anchor="middle" x="28.5" y="-7.5" font-family="Helvetica,sans-Serif" font-size="10.00">ostream</text>
</a>
</g>
</g>
<!-- Node13&#45;&gt;Node15 -->
<g id="edge22" class="edge">
<title>Node13&#45;&gt;Node15</title>
<path fill="none" stroke="midnightblue" d="M86.76,-61.98C76.15,-52.7 58.98,-37.67 46.02,-26.33"/>
<polygon fill="midnightblue" stroke="midnightblue" points="48.06,-23.46 38.22,-19.51 43.45,-28.73 48.06,-23.46"/>
</g>
<!-- Node16&#45;&gt;Node4 -->
<g id="edge25" class="edge">
<title>Node16&#45;&gt;Node4</title>
<path fill="none" stroke="midnightblue" d="M683.97,-123.49C656.39,-103.15 586.36,-51.48 551.64,-25.86"/>
<polygon fill="midnightblue" stroke="midnightblue" points="553.36,-22.78 543.24,-19.66 549.21,-28.41 553.36,-22.78"/>
</g>
<!-- Node18 -->
<g id="node18" class="node">
<title>Node18</title>
<g id="a_node18"><a xlink:title=" ">
<polygon fill="none" stroke="#bfbfbf" points="535,-62 535,-81 576,-81 576,-62 535,-62"/>
<text text-anchor="middle" x="555.5" y="-69" font-family="Helvetica,sans-Serif" font-size="10.00">tuple</text>
</a>
</g>
</g>
<!-- Node17&#45;&gt;Node18 -->
<g id="edge27" class="edge">
<title>Node17&#45;&gt;Node18</title>
<path fill="none" stroke="midnightblue" d="M495.53,-123.48C506.55,-114.11 524.46,-98.88 537.84,-87.51"/>
<polygon fill="midnightblue" stroke="midnightblue" points="540.14,-90.15 545.49,-81.01 535.6,-84.82 540.14,-90.15"/>
</g>
<!-- Node19&#45;&gt;Node18 -->
<g id="edge29" class="edge">
<title>Node19&#45;&gt;Node18</title>
<path fill="none" stroke="midnightblue" d="M585.49,-123.48C580.34,-114.73 572.19,-100.87 565.68,-89.81"/>
<polygon fill="midnightblue" stroke="midnightblue" points="568.59,-87.85 560.51,-81.01 562.56,-91.4 568.59,-87.85"/>
</g>
</g>
</svg>
