<?xml version="1.0" encoding="UTF-8" standalone="no"?>
<!DOCTYPE svg PUBLIC "-//W3C//DTD SVG 1.1//EN"
 "http://www.w3.org/Graphics/SVG/1.1/DTD/svg11.dtd">
<!-- Generated by graphviz version 7.0.6 (20230106.0513)
 -->
<!-- Title: HealthGPS/disease_definition.h Pages: 1 -->
<svg width="1264pt" height="302pt"
 viewBox="0.00 0.00 1263.94 302.00" xmlns="http://www.w3.org/2000/svg" xmlns:xlink="http://www.w3.org/1999/xlink">
<g id="graph0" class="graph" transform="scale(1 1) rotate(0) translate(4 298)">
<title>HealthGPS/disease_definition.h</title>
<!-- Node1 -->
<g id="node1" class="node">
<title>Node1</title>
<g id="a_node1"><a xlink:title=" ">
<polygon fill="#999999" stroke="#666666" points="600.78,-294 446.78,-294 446.78,-275 600.78,-275 600.78,-294"/>
<text text-anchor="middle" x="523.78" y="-282" font-family="Helvetica,sans-Serif" font-size="10.00">HealthGPS/disease_definition.h</text>
</a>
</g>
</g>
<!-- Node2 -->
<g id="node2" class="node">
<title>Node2</title>
<g id="a_node2"><a xlink:href="disease__table_8h.html" target="_top" xlink:title=" ">
<polygon fill="white" stroke="#666666" points="412.28,-239 327.28,-239 327.28,-220 412.28,-220 412.28,-239"/>
<text text-anchor="middle" x="369.78" y="-227" font-family="Helvetica,sans-Serif" font-size="10.00">disease_table.h</text>
</a>
</g>
</g>
<!-- Node1&#45;&gt;Node2 -->
<g id="edge1" class="edge">
<title>Node1&#45;&gt;Node2</title>
<path fill="none" stroke="#63b8ff" d="M497.66,-274.51C472.58,-265.88 434.48,-252.76 406.38,-243.1"/>
<polygon fill="#63b8ff" stroke="#63b8ff" points="407.8,-239.88 397.21,-239.94 405.52,-246.5 407.8,-239.88"/>
</g>
<!-- Node5 -->
<g id="node5" class="node">
<title>Node5</title>
<g id="a_node5"><a xlink:href="poco_8h.html" target="_top" xlink:title=" ">
<polygon fill="white" stroke="#666666" points="341.28,-184 220.28,-184 220.28,-165 341.28,-165 341.28,-184"/>
<text text-anchor="middle" x="280.78" y="-172" font-family="Helvetica,sans-Serif" font-size="10.00">HealthGPS.Core/poco.h</text>
</a>
</g>
</g>
<!-- Node1&#45;&gt;Node5 -->
<g id="edge59" class="edge">
<title>Node1&#45;&gt;Node5</title>
<path fill="none" stroke="#63b8ff" d="M446.73,-281.32C405.5,-276.78 355.76,-265.55 318.78,-239 303.78,-228.23 293.64,-209.53 287.64,-195.21"/>
<polygon fill="#63b8ff" stroke="#63b8ff" points="290.92,-193.99 284.09,-185.89 284.38,-196.48 290.92,-193.99"/>
</g>
<!-- Node20 -->
<g id="node20" class="node">
<title>Node20</title>
<g id="a_node20"><a xlink:href="relative__risk_8h.html" target="_top" xlink:title=" ">
<polygon fill="white" stroke="#666666" points="745.78,-239 669.78,-239 669.78,-220 745.78,-220 745.78,-239"/>
<text text-anchor="middle" x="707.78" y="-227" font-family="Helvetica,sans-Serif" font-size="10.00">relative_risk.h</text>
</a>
</g>
</g>
<!-- Node1&#45;&gt;Node20 -->
<g id="edge30" class="edge">
<title>Node1&#45;&gt;Node20</title>
<path fill="none" stroke="#63b8ff" d="M554.99,-274.51C585.49,-265.73 632.1,-252.3 665.82,-242.59"/>
<polygon fill="#63b8ff" stroke="#63b8ff" points="666.63,-246 675.27,-239.87 664.69,-239.27 666.63,-246"/>
</g>
<!-- Node32 -->
<g id="node32" class="node">
<title>Node32</title>
<g id="a_node32"><a xlink:href="gender__value_8h.html" target="_top" xlink:title=" ">
<polygon fill="white" stroke="#666666" points="1220.28,-184 1139.28,-184 1139.28,-165 1220.28,-165 1220.28,-184"/>
<text text-anchor="middle" x="1179.78" y="-172" font-family="Helvetica,sans-Serif" font-size="10.00">gender_value.h</text>
</a>
</g>
</g>
<!-- Node1&#45;&gt;Node32 -->
<g id="edge57" class="edge">
<title>Node1&#45;&gt;Node32</title>
<path fill="none" stroke="#63b8ff" d="M578.3,-274.52C702.65,-254.05 1005.88,-204.13 1127.77,-184.06"/>
<polygon fill="#63b8ff" stroke="#63b8ff" points="1128.2,-187.54 1137.5,-182.46 1127.06,-180.63 1128.2,-187.54"/>
</g>
<!-- Node3 -->
<g id="node3" class="node">
<title>Node3</title>
<g id="a_node3"><a xlink:title=" ">
<polygon fill="#e0e0e0" stroke="#999999" points="460.28,-74 425.28,-74 425.28,-55 460.28,-55 460.28,-74"/>
<text text-anchor="middle" x="442.78" y="-62" font-family="Helvetica,sans-Serif" font-size="10.00">map</text>
</a>
</g>
</g>
<!-- Node2&#45;&gt;Node3 -->
<g id="edge2" class="edge">
<title>Node2&#45;&gt;Node3</title>
<path fill="none" stroke="#63b8ff" d="M369.74,-219.52C370.03,-198.81 372.94,-146.68 393.78,-110 400.17,-98.76 410.4,-88.8 419.87,-81.18"/>
<polygon fill="#63b8ff" stroke="#63b8ff" points="421.83,-84.09 427.71,-75.27 417.61,-78.5 421.83,-84.09"/>
</g>
<!-- Node4 -->
<g id="node4" class="node">
<title>Node4</title>
<g id="a_node4"><a xlink:title=" ">
<polygon fill="#e0e0e0" stroke="#999999" points="509.28,-19 468.28,-19 468.28,0 509.28,0 509.28,-19"/>
<text text-anchor="middle" x="488.78" y="-7" font-family="Helvetica,sans-Serif" font-size="10.00">string</text>
</a>
</g>
</g>
<!-- Node2&#45;&gt;Node4 -->
<g id="edge3" class="edge">
<title>Node2&#45;&gt;Node4</title>
<path fill="none" stroke="#63b8ff" d="M327.04,-223.4C223.83,-210.05 -28.32,-170.9 2.78,-110 21.74,-72.87 39.87,-69.97 78.78,-55 147.81,-28.44 372.43,-15.77 456.57,-11.87"/>
<polygon fill="#63b8ff" stroke="#63b8ff" points="456.59,-15.37 466.42,-11.42 456.27,-8.38 456.59,-15.37"/>
</g>
<!-- Node2&#45;&gt;Node5 -->
<g id="edge4" class="edge">
<title>Node2&#45;&gt;Node5</title>
<path fill="none" stroke="#63b8ff" d="M354.68,-219.51C341.18,-211.47 321.13,-199.53 305.32,-190.11"/>
<polygon fill="#63b8ff" stroke="#63b8ff" points="307.34,-187.24 296.96,-185.13 303.76,-193.26 307.34,-187.24"/>
</g>
<!-- Node11 -->
<g id="node11" class="node">
<title>Node11</title>
<g id="a_node11"><a xlink:href="forward__type_8h.html" target="_top" xlink:title=" ">
<polygon fill="white" stroke="#666666" points="860.78,-74 780.78,-74 780.78,-55 860.78,-55 860.78,-74"/>
<text text-anchor="middle" x="820.78" y="-62" font-family="Helvetica,sans-Serif" font-size="10.00">forward_type.h</text>
</a>
</g>
</g>
<!-- Node2&#45;&gt;Node11 -->
<g id="edge29" class="edge">
<title>Node2&#45;&gt;Node11</title>
<path fill="none" stroke="#63b8ff" d="M394.67,-219.5C470.21,-192.2 697.05,-110.22 785.2,-78.36"/>
<polygon fill="#63b8ff" stroke="#63b8ff" points="786.33,-81.67 794.54,-74.98 783.95,-75.09 786.33,-81.67"/>
</g>
<!-- Node6 -->
<g id="node6" class="node">
<title>Node6</title>
<g id="a_node6"><a xlink:href="country_8h.html" target="_top" xlink:title=" ">
<polygon fill="white" stroke="#666666" points="341.28,-129 284.28,-129 284.28,-110 341.28,-110 341.28,-129"/>
<text text-anchor="middle" x="312.78" y="-117" font-family="Helvetica,sans-Serif" font-size="10.00">country.h</text>
</a>
</g>
</g>
<!-- Node5&#45;&gt;Node6 -->
<g id="edge5" class="edge">
<title>Node5&#45;&gt;Node6</title>
<path fill="none" stroke="#63b8ff" d="M286.07,-164.75C290.26,-157.81 296.26,-147.86 301.52,-139.16"/>
<polygon fill="#63b8ff" stroke="#63b8ff" points="304.43,-141.11 306.6,-130.74 298.43,-137.49 304.43,-141.11"/>
</g>
<!-- Node7 -->
<g id="node7" class="node">
<title>Node7</title>
<g id="a_node7"><a xlink:href="population__item_8h.html" target="_top" xlink:title=" ">
<polygon fill="white" stroke="#666666" points="105.28,-129 12.28,-129 12.28,-110 105.28,-110 105.28,-129"/>
<text text-anchor="middle" x="58.78" y="-117" font-family="Helvetica,sans-Serif" font-size="10.00">population_item.h</text>
</a>
</g>
</g>
<!-- Node5&#45;&gt;Node7 -->
<g id="edge7" class="edge">
<title>Node5&#45;&gt;Node7</title>
<path fill="none" stroke="#63b8ff" d="M243.12,-164.51C205.69,-155.57 148.13,-141.83 107.3,-132.08"/>
<polygon fill="#63b8ff" stroke="#63b8ff" points="108.27,-128.72 97.73,-129.8 106.64,-135.52 108.27,-128.72"/>
</g>
<!-- Node9 -->
<g id="node9" class="node">
<title>Node9</title>
<g id="a_node9"><a xlink:href="_health_g_p_s_8_core_2disease_8h.html" target="_top" xlink:title=" ">
<polygon fill="white" stroke="#666666" points="612.28,-129 553.28,-129 553.28,-110 612.28,-110 612.28,-129"/>
<text text-anchor="middle" x="582.78" y="-117" font-family="Helvetica,sans-Serif" font-size="10.00">disease.h</text>
</a>
</g>
</g>
<!-- Node5&#45;&gt;Node9 -->
<g id="edge9" class="edge">
<title>Node5&#45;&gt;Node9</title>
<path fill="none" stroke="#63b8ff" d="M339.4,-164.53C390.49,-156.51 466.85,-144.03 541.88,-129.49"/>
<polygon fill="#63b8ff" stroke="#63b8ff" points="542.31,-132.97 551.46,-127.62 540.97,-126.1 542.31,-132.97"/>
</g>
<!-- Node17 -->
<g id="node17" class="node">
<title>Node17</title>
<g id="a_node17"><a xlink:href="analysis_8h.html" target="_top" xlink:title=" ">
<polygon fill="white" stroke="#666666" points="535.28,-129 474.28,-129 474.28,-110 535.28,-110 535.28,-129"/>
<text text-anchor="middle" x="504.78" y="-117" font-family="Helvetica,sans-Serif" font-size="10.00">analysis.h</text>
</a>
</g>
</g>
<!-- Node5&#45;&gt;Node17 -->
<g id="edge20" class="edge">
<title>Node5&#45;&gt;Node17</title>
<path fill="none" stroke="#63b8ff" d="M318.78,-164.51C358.71,-155.06 421.36,-140.24 462.75,-130.44"/>
<polygon fill="#63b8ff" stroke="#63b8ff" points="463.42,-133.88 472.35,-128.17 461.81,-127.07 463.42,-133.88"/>
</g>
<!-- Node18 -->
<g id="node18" class="node">
<title>Node18</title>
<g id="a_node18"><a xlink:href="indicator_8h.html" target="_top" xlink:title=" ">
<polygon fill="white" stroke="#666666" points="265.78,-129 203.78,-129 203.78,-110 265.78,-110 265.78,-129"/>
<text text-anchor="middle" x="234.78" y="-117" font-family="Helvetica,sans-Serif" font-size="10.00">indicator.h</text>
</a>
</g>
</g>
<!-- Node5&#45;&gt;Node18 -->
<g id="edge25" class="edge">
<title>Node5&#45;&gt;Node18</title>
<path fill="none" stroke="#63b8ff" d="M273.19,-164.75C266.9,-157.5 257.77,-146.98 249.99,-138.02"/>
<polygon fill="#63b8ff" stroke="#63b8ff" points="252.73,-135.84 243.53,-130.59 247.45,-140.43 252.73,-135.84"/>
</g>
<!-- Node19 -->
<g id="node19" class="node">
<title>Node19</title>
<g id="a_node19"><a xlink:href="mortality_8h.html" target="_top" xlink:title=" ">
<polygon fill="white" stroke="#666666" points="185.78,-129 123.78,-129 123.78,-110 185.78,-110 185.78,-129"/>
<text text-anchor="middle" x="154.78" y="-117" font-family="Helvetica,sans-Serif" font-size="10.00">mortality.h</text>
</a>
</g>
</g>
<!-- Node5&#45;&gt;Node19 -->
<g id="edge27" class="edge">
<title>Node5&#45;&gt;Node19</title>
<path fill="none" stroke="#63b8ff" d="M259.41,-164.51C239.37,-156.08 209.18,-143.38 186.37,-133.79"/>
<polygon fill="#63b8ff" stroke="#63b8ff" points="187.81,-130.6 177.23,-129.94 185.1,-137.05 187.81,-130.6"/>
</g>
<!-- Node6&#45;&gt;Node4 -->
<g id="edge6" class="edge">
<title>Node6&#45;&gt;Node4</title>
<path fill="none" stroke="#63b8ff" d="M327.18,-109.66C357.35,-91.15 427.45,-48.13 464.63,-25.32"/>
<polygon fill="#63b8ff" stroke="#63b8ff" points="466.2,-28.47 472.89,-20.25 462.54,-22.5 466.2,-28.47"/>
</g>
<!-- Node8 -->
<g id="node8" class="node">
<title>Node8</title>
<g id="a_node8"><a xlink:title=" ">
<polygon fill="#e0e0e0" stroke="#999999" points="125.78,-74 87.78,-74 87.78,-55 125.78,-55 125.78,-74"/>
<text text-anchor="middle" x="106.78" y="-62" font-family="Helvetica,sans-Serif" font-size="10.00">tuple</text>
</a>
</g>
</g>
<!-- Node7&#45;&gt;Node8 -->
<g id="edge8" class="edge">
<title>Node7&#45;&gt;Node8</title>
<path fill="none" stroke="#63b8ff" d="M66.71,-109.75C73.34,-102.43 83,-91.76 91.17,-82.74"/>
<polygon fill="#63b8ff" stroke="#63b8ff" points="93.55,-85.33 97.67,-75.56 88.36,-80.63 93.55,-85.33"/>
</g>
<!-- Node9&#45;&gt;Node3 -->
<g id="edge12" class="edge">
<title>Node9&#45;&gt;Node3</title>
<path fill="none" stroke="#63b8ff" d="M559.03,-109.51C534.7,-100.3 496.88,-85.98 471.03,-76.2"/>
<polygon fill="#63b8ff" stroke="#63b8ff" points="472.43,-72.98 461.84,-72.72 469.95,-79.53 472.43,-72.98"/>
</g>
<!-- Node9&#45;&gt;Node4 -->
<g id="edge10" class="edge">
<title>Node9&#45;&gt;Node4</title>
<path fill="none" stroke="#63b8ff" d="M575.09,-109.66C559.6,-91.86 524.39,-51.41 504.05,-28.04"/>
<polygon fill="#63b8ff" stroke="#63b8ff" points="506.78,-25.85 497.57,-20.6 501.5,-30.44 506.78,-25.85"/>
</g>
<!-- Node10 -->
<g id="node10" class="node">
<title>Node10</title>
<g id="a_node10"><a xlink:title=" ">
<polygon fill="#e0e0e0" stroke="#999999" points="676.78,-74 634.78,-74 634.78,-55 676.78,-55 676.78,-74"/>
<text text-anchor="middle" x="655.78" y="-62" font-family="Helvetica,sans-Serif" font-size="10.00">vector</text>
</a>
</g>
</g>
<!-- Node9&#45;&gt;Node10 -->
<g id="edge11" class="edge">
<title>Node9&#45;&gt;Node10</title>
<path fill="none" stroke="#63b8ff" d="M595.16,-109.51C605.93,-101.7 621.75,-90.21 634.53,-80.93"/>
<polygon fill="#63b8ff" stroke="#63b8ff" points="636.32,-83.95 642.36,-75.25 632.21,-78.29 636.32,-83.95"/>
</g>
<!-- Node9&#45;&gt;Node11 -->
<g id="edge13" class="edge">
<title>Node9&#45;&gt;Node11</title>
<path fill="none" stroke="#63b8ff" d="M612.44,-111.89C651.67,-103.16 721.4,-87.63 769.31,-76.96"/>
<polygon fill="#63b8ff" stroke="#63b8ff" points="769.91,-80.41 778.91,-74.82 768.39,-73.58 769.91,-80.41"/>
</g>
<!-- Node14 -->
<g id="node14" class="node">
<title>Node14</title>
<g id="a_node14"><a xlink:href="identifier_8h.html" target="_top" xlink:title=" ">
<polygon fill="white" stroke="#666666" points="616.28,-74 555.28,-74 555.28,-55 616.28,-55 616.28,-74"/>
<text text-anchor="middle" x="585.78" y="-62" font-family="Helvetica,sans-Serif" font-size="10.00">identifier.h</text>
</a>
</g>
</g>
<!-- Node9&#45;&gt;Node14 -->
<g id="edge16" class="edge">
<title>Node9&#45;&gt;Node14</title>
<path fill="none" stroke="#63b8ff" d="M583.28,-109.75C583.64,-103.27 584.16,-94.16 584.63,-85.9"/>
<polygon fill="#63b8ff" stroke="#63b8ff" points="588.12,-86.13 585.19,-75.95 581.13,-85.74 588.12,-86.13"/>
</g>
<!-- Node12 -->
<g id="node12" class="node">
<title>Node12</title>
<g id="a_node12"><a xlink:title=" ">
<polygon fill="#e0e0e0" stroke="#999999" points="1110.78,-19 1048.78,-19 1048.78,0 1110.78,0 1110.78,-19"/>
<text text-anchor="middle" x="1079.78" y="-7" font-family="Helvetica,sans-Serif" font-size="10.00">type_traits</text>
</a>
</g>
</g>
<!-- Node11&#45;&gt;Node12 -->
<g id="edge14" class="edge">
<title>Node11&#45;&gt;Node12</title>
<path fill="none" stroke="#63b8ff" d="M861.25,-55.22C909.19,-45.41 988.69,-29.14 1037.44,-19.16"/>
<polygon fill="#63b8ff" stroke="#63b8ff" points="1037.96,-22.63 1047.06,-17.2 1036.56,-15.77 1037.96,-22.63"/>
</g>
<!-- Node13 -->
<g id="node13" class="node">
<title>Node13</title>
<g id="a_node13"><a xlink:title=" ">
<polygon fill="#e0e0e0" stroke="#999999" points="843.78,-19 797.78,-19 797.78,0 843.78,0 843.78,-19"/>
<text text-anchor="middle" x="820.78" y="-7" font-family="Helvetica,sans-Serif" font-size="10.00">cstdint</text>
</a>
</g>
</g>
<!-- Node11&#45;&gt;Node13 -->
<g id="edge15" class="edge">
<title>Node11&#45;&gt;Node13</title>
<path fill="none" stroke="#63b8ff" d="M820.78,-54.75C820.78,-48.27 820.78,-39.16 820.78,-30.9"/>
<polygon fill="#63b8ff" stroke="#63b8ff" points="824.28,-30.96 820.78,-20.96 817.28,-30.96 824.28,-30.96"/>
</g>
<!-- Node14&#45;&gt;Node4 -->
<g id="edge17" class="edge">
<title>Node14&#45;&gt;Node4</title>
<path fill="none" stroke="#63b8ff" d="M569.33,-54.51C554.47,-46.39 532.34,-34.3 515.04,-24.85"/>
<polygon fill="#63b8ff" stroke="#63b8ff" points="516.77,-21.81 506.32,-20.08 513.42,-27.95 516.77,-21.81"/>
</g>
<!-- Node15 -->
<g id="node15" class="node">
<title>Node15</title>
<g id="a_node15"><a xlink:title=" ">
<polygon fill="#e0e0e0" stroke="#999999" points="611.78,-19 559.78,-19 559.78,0 611.78,0 611.78,-19"/>
<text text-anchor="middle" x="585.78" y="-7" font-family="Helvetica,sans-Serif" font-size="10.00">ostream</text>
</a>
</g>
</g>
<!-- Node14&#45;&gt;Node15 -->
<g id="edge18" class="edge">
<title>Node14&#45;&gt;Node15</title>
<path fill="none" stroke="#63b8ff" d="M585.78,-54.75C585.78,-48.27 585.78,-39.16 585.78,-30.9"/>
<polygon fill="#63b8ff" stroke="#63b8ff" points="589.28,-30.96 585.78,-20.96 582.28,-30.96 589.28,-30.96"/>
</g>
<!-- Node16 -->
<g id="node16" class="node">
<title>Node16</title>
<g id="a_node16"><a xlink:title=" ">
<polygon fill="#e0e0e0" stroke="#999999" points="722.78,-19 664.78,-19 664.78,0 722.78,0 722.78,-19"/>
<text text-anchor="middle" x="693.78" y="-7" font-family="Helvetica,sans-Serif" font-size="10.00">functional</text>
</a>
</g>
</g>
<!-- Node14&#45;&gt;Node16 -->
<g id="edge19" class="edge">
<title>Node14&#45;&gt;Node16</title>
<path fill="none" stroke="#63b8ff" d="M604.1,-54.51C620.96,-46.24 646.22,-33.84 665.63,-24.31"/>
<polygon fill="#63b8ff" stroke="#63b8ff" points="666.94,-27.57 674.37,-20.02 663.85,-21.29 666.94,-27.57"/>
</g>
<!-- Node17&#45;&gt;Node3 -->
<g id="edge21" class="edge">
<title>Node17&#45;&gt;Node3</title>
<path fill="none" stroke="#63b8ff" d="M494.26,-109.51C485.39,-101.93 472.47,-90.88 461.79,-81.75"/>
<polygon fill="#63b8ff" stroke="#63b8ff" points="464.17,-79.18 454.29,-75.34 459.62,-84.5 464.17,-79.18"/>
</g>
<!-- Node17&#45;&gt;Node4 -->
<g id="edge23" class="edge">
<title>Node17&#45;&gt;Node4</title>
<path fill="none" stroke="#63b8ff" d="M503.47,-109.66C500.93,-92.5 495.26,-54.26 491.76,-30.6"/>
<polygon fill="#63b8ff" stroke="#63b8ff" points="495.26,-30.34 490.33,-20.96 488.33,-31.36 495.26,-30.34"/>
</g>
<!-- Node17&#45;&gt;Node10 -->
<g id="edge22" class="edge">
<title>Node17&#45;&gt;Node10</title>
<path fill="none" stroke="#63b8ff" d="M530.4,-109.51C556.13,-100.48 595.86,-86.53 623.69,-76.76"/>
<polygon fill="#63b8ff" stroke="#63b8ff" points="624.74,-80.11 633.01,-73.49 622.42,-73.5 624.74,-80.11"/>
</g>
<!-- Node17&#45;&gt;Node11 -->
<g id="edge24" class="edge">
<title>Node17&#45;&gt;Node11</title>
<path fill="none" stroke="#63b8ff" d="M535.76,-111.75C538.8,-111.14 541.85,-110.54 544.78,-110 641.69,-92.03 669.1,-90.8 769.18,-74.4"/>
<polygon fill="#63b8ff" stroke="#63b8ff" points="769.62,-77.88 778.92,-72.8 768.48,-70.97 769.62,-77.88"/>
</g>
<!-- Node18&#45;&gt;Node4 -->
<g id="edge26" class="edge">
<title>Node18&#45;&gt;Node4</title>
<path fill="none" stroke="#63b8ff" d="M255.57,-109.66C300.14,-90.71 405.14,-46.06 457.69,-23.72"/>
<polygon fill="#63b8ff" stroke="#63b8ff" points="458.84,-27.03 466.67,-19.9 456.1,-20.59 458.84,-27.03"/>
</g>
<!-- Node19&#45;&gt;Node8 -->
<g id="edge28" class="edge">
<title>Node19&#45;&gt;Node8</title>
<path fill="none" stroke="#63b8ff" d="M146.85,-109.75C140.22,-102.43 130.57,-91.76 122.39,-82.74"/>
<polygon fill="#63b8ff" stroke="#63b8ff" points="125.2,-80.63 115.9,-75.56 120.01,-85.33 125.2,-80.63"/>
</g>
<!-- Node20&#45;&gt;Node3 -->
<g id="edge56" class="edge">
<title>Node20&#45;&gt;Node3</title>
<path fill="none" stroke="#63b8ff" d="M669.33,-226.12C610.84,-220.25 500.74,-199.84 447.78,-129 438.55,-116.66 437.89,-98.94 439.2,-85.35"/>
<polygon fill="#63b8ff" stroke="#63b8ff" points="442.62,-86.2 440.56,-75.81 435.69,-85.22 442.62,-86.2"/>
</g>
<!-- Node20&#45;&gt;Node14 -->
<g id="edge55" class="edge">
<title>Node20&#45;&gt;Node14</title>
<path fill="none" stroke="#63b8ff" d="M701.68,-219.76C687.8,-199.98 652.71,-150.35 621.78,-110 614.9,-101.03 607.03,-91.24 600.4,-83.14"/>
<polygon fill="#63b8ff" stroke="#63b8ff" points="603.11,-80.92 594.05,-75.42 597.71,-85.37 603.11,-80.92"/>
</g>
<!-- Node21 -->
<g id="node21" class="node">
<title>Node21</title>
<g id="a_node21"><a xlink:href="gender__table_8h.html" target="_top" xlink:title=" ">
<polygon fill="white" stroke="#666666" points="876.78,-184 796.78,-184 796.78,-165 876.78,-165 876.78,-184"/>
<text text-anchor="middle" x="836.78" y="-172" font-family="Helvetica,sans-Serif" font-size="10.00">gender_table.h</text>
</a>
</g>
</g>
<!-- Node20&#45;&gt;Node21 -->
<g id="edge31" class="edge">
<title>Node20&#45;&gt;Node21</title>
<path fill="none" stroke="#63b8ff" d="M729.66,-219.51C750.27,-211.04 781.37,-198.27 804.76,-188.66"/>
<polygon fill="#63b8ff" stroke="#63b8ff" points="805.9,-191.97 813.82,-184.93 803.24,-185.5 805.9,-191.97"/>
</g>
<!-- Node23 -->
<g id="node23" class="node">
<title>Node23</title>
<g id="a_node23"><a xlink:href="monotonic__vector_8h.html" target="_top" xlink:title=" ">
<polygon fill="white" stroke="#666666" points="808.28,-129 707.28,-129 707.28,-110 808.28,-110 808.28,-129"/>
<text text-anchor="middle" x="757.78" y="-117" font-family="Helvetica,sans-Serif" font-size="10.00">monotonic_vector.h</text>
</a>
</g>
</g>
<!-- Node20&#45;&gt;Node23 -->
<g id="edge53" class="edge">
<title>Node20&#45;&gt;Node23</title>
<path fill="none" stroke="#63b8ff" d="M711.87,-219.66C719.93,-202.26 738.02,-163.19 748.93,-139.62"/>
<polygon fill="#63b8ff" stroke="#63b8ff" points="751.97,-141.38 753,-130.83 745.62,-138.44 751.97,-141.38"/>
</g>
<!-- Node25 -->
<g id="node25" class="node">
<title>Node25</title>
<g id="a_node25"><a xlink:href="array2d_8h.html" target="_top" xlink:title=" ">
<polygon fill="white" stroke="#666666" points="1214.78,-129 1082.78,-129 1082.78,-110 1214.78,-110 1214.78,-129"/>
<text text-anchor="middle" x="1148.78" y="-117" font-family="Helvetica,sans-Serif" font-size="10.00">HealthGPS.Core/array2d.h</text>
</a>
</g>
</g>
<!-- Node20&#45;&gt;Node25 -->
<g id="edge54" class="edge">
<title>Node20&#45;&gt;Node25</title>
<path fill="none" stroke="#63b8ff" d="M744.25,-219.57C823.72,-200.11 1012.51,-153.87 1101.21,-132.15"/>
<polygon fill="#63b8ff" stroke="#63b8ff" points="1101.92,-135.58 1110.8,-129.8 1100.26,-128.78 1101.92,-135.58"/>
</g>
<!-- Node21&#45;&gt;Node3 -->
<g id="edge32" class="edge">
<title>Node21&#45;&gt;Node3</title>
<path fill="none" stroke="#63b8ff" d="M796.35,-173.83C710.99,-173.73 516.13,-169 465.78,-129 452.57,-118.51 446.95,-99.76 444.55,-85.34"/>
<polygon fill="#63b8ff" stroke="#63b8ff" points="448.05,-85.1 443.35,-75.61 441.1,-85.96 448.05,-85.1"/>
</g>
<!-- Node21&#45;&gt;Node11 -->
<g id="edge38" class="edge">
<title>Node21&#45;&gt;Node11</title>
<path fill="none" stroke="#63b8ff" d="M835.47,-164.66C832.93,-147.5 827.26,-109.26 823.76,-85.6"/>
<polygon fill="#63b8ff" stroke="#63b8ff" points="827.26,-85.34 822.33,-75.96 820.33,-86.36 827.26,-85.34"/>
</g>
<!-- Node22 -->
<g id="node22" class="node">
<title>Node22</title>
<g id="a_node22"><a xlink:title=" ">
<polygon fill="#e0e0e0" stroke="#999999" points="1064.28,-129 1013.28,-129 1013.28,-110 1064.28,-110 1064.28,-129"/>
<text text-anchor="middle" x="1038.78" y="-117" font-family="Helvetica,sans-Serif" font-size="10.00">numeric</text>
</a>
</g>
</g>
<!-- Node21&#45;&gt;Node22 -->
<g id="edge33" class="edge">
<title>Node21&#45;&gt;Node22</title>
<path fill="none" stroke="#63b8ff" d="M871.05,-164.51C907.46,-154.95 964.83,-139.9 1002.13,-130.12"/>
<polygon fill="#63b8ff" stroke="#63b8ff" points="1002.77,-133.57 1011.56,-127.64 1000.99,-126.8 1002.77,-133.57"/>
</g>
<!-- Node21&#45;&gt;Node23 -->
<g id="edge34" class="edge">
<title>Node21&#45;&gt;Node23</title>
<path fill="none" stroke="#63b8ff" d="M823.38,-164.51C811.62,-156.62 794.27,-144.98 780.37,-135.65"/>
<polygon fill="#63b8ff" stroke="#63b8ff" points="782.5,-132.87 772.24,-130.2 778.6,-138.68 782.5,-132.87"/>
</g>
<!-- Node21&#45;&gt;Node25 -->
<g id="edge39" class="edge">
<title>Node21&#45;&gt;Node25</title>
<path fill="none" stroke="#63b8ff" d="M877.25,-166.63C929.87,-157.69 1022.39,-141.97 1084.62,-131.4"/>
<polygon fill="#63b8ff" stroke="#63b8ff" points="1085.11,-134.87 1094.38,-129.74 1083.94,-127.97 1085.11,-134.87"/>
</g>
<!-- Node30 -->
<g id="node30" class="node">
<title>Node30</title>
<g id="a_node30"><a xlink:href="interval_8h.html" target="_top" xlink:title=" ">
<polygon fill="white" stroke="#666666" points="994.78,-129 864.78,-129 864.78,-110 994.78,-110 994.78,-129"/>
<text text-anchor="middle" x="929.78" y="-117" font-family="Helvetica,sans-Serif" font-size="10.00">HealthGPS.Core/interval.h</text>
</a>
</g>
</g>
<!-- Node21&#45;&gt;Node30 -->
<g id="edge47" class="edge">
<title>Node21&#45;&gt;Node30</title>
<path fill="none" stroke="#63b8ff" d="M852.56,-164.51C866.81,-156.39 888.02,-144.3 904.61,-134.85"/>
<polygon fill="#63b8ff" stroke="#63b8ff" points="905.97,-138.1 912.92,-130.11 902.5,-132.02 905.97,-138.1"/>
</g>
<!-- Node23&#45;&gt;Node10 -->
<g id="edge35" class="edge">
<title>Node23&#45;&gt;Node10</title>
<path fill="none" stroke="#63b8ff" d="M740.48,-109.51C724.7,-101.31 701.14,-89.07 682.88,-79.58"/>
<polygon fill="#63b8ff" stroke="#63b8ff" points="684.66,-76.56 674.17,-75.06 681.43,-82.77 684.66,-76.56"/>
</g>
<!-- Node23&#45;&gt;Node11 -->
<g id="edge37" class="edge">
<title>Node23&#45;&gt;Node11</title>
<path fill="none" stroke="#63b8ff" d="M768.47,-109.51C777.48,-101.93 790.61,-90.88 801.46,-81.75"/>
<polygon fill="#63b8ff" stroke="#63b8ff" points="803.69,-84.45 809.09,-75.33 799.19,-79.09 803.69,-84.45"/>
</g>
<!-- Node24 -->
<g id="node24" class="node">
<title>Node24</title>
<g id="a_node24"><a xlink:title=" ">
<polygon fill="#e0e0e0" stroke="#999999" points="938.28,-74 879.28,-74 879.28,-55 938.28,-55 938.28,-74"/>
<text text-anchor="middle" x="908.78" y="-62" font-family="Helvetica,sans-Serif" font-size="10.00">stdexcept</text>
</a>
</g>
</g>
<!-- Node23&#45;&gt;Node24 -->
<g id="edge36" class="edge">
<title>Node23&#45;&gt;Node24</title>
<path fill="none" stroke="#63b8ff" d="M783.4,-109.51C807.87,-100.92 845.02,-87.88 872.53,-78.22"/>
<polygon fill="#63b8ff" stroke="#63b8ff" points="873.59,-81.56 881.86,-74.95 871.27,-74.96 873.59,-81.56"/>
</g>
<!-- Node25&#45;&gt;Node10 -->
<g id="edge42" class="edge">
<title>Node25&#45;&gt;Node10</title>
<path fill="none" stroke="#63b8ff" d="M1082.54,-110.92C1079.58,-110.6 1076.65,-110.3 1073.78,-110 905.56,-92.64 858.68,-104.44 688.16,-73.87"/>
<polygon fill="#63b8ff" stroke="#63b8ff" points="688.97,-70.46 678.5,-72.12 687.72,-77.35 688.97,-70.46"/>
</g>
<!-- Node25&#45;&gt;Node11 -->
<g id="edge40" class="edge">
<title>Node25&#45;&gt;Node11</title>
<path fill="none" stroke="#63b8ff" d="M1091.79,-109.54C1038.04,-101.06 954.92,-87.84 872.52,-74.27"/>
<polygon fill="#63b8ff" stroke="#63b8ff" points="873.09,-70.82 862.66,-72.65 871.95,-77.73 873.09,-70.82"/>
</g>
<!-- Node25&#45;&gt;Node24 -->
<g id="edge44" class="edge">
<title>Node25&#45;&gt;Node24</title>
<path fill="none" stroke="#63b8ff" d="M1108.07,-109.51C1064,-99.78 994.1,-84.34 949.87,-74.57"/>
<polygon fill="#63b8ff" stroke="#63b8ff" points="950.67,-71.17 940.15,-72.43 949.16,-78 950.67,-71.17"/>
</g>
<!-- Node26 -->
<g id="node26" class="node">
<title>Node26</title>
<g id="a_node26"><a xlink:title=" ">
<polygon fill="#e0e0e0" stroke="#999999" points="1238.78,-74 1186.78,-74 1186.78,-55 1238.78,-55 1238.78,-74"/>
<text text-anchor="middle" x="1212.78" y="-62" font-family="Helvetica,sans-Serif" font-size="10.00">memory</text>
</a>
</g>
</g>
<!-- Node25&#45;&gt;Node26 -->
<g id="edge41" class="edge">
<title>Node25&#45;&gt;Node26</title>
<path fill="none" stroke="#63b8ff" d="M1159.64,-109.51C1168.89,-101.85 1182.4,-90.66 1193.49,-81.47"/>
<polygon fill="#63b8ff" stroke="#63b8ff" points="1195.45,-84.4 1200.92,-75.32 1190.98,-79.01 1195.45,-84.4"/>
</g>
<!-- Node27 -->
<g id="node27" class="node">
<title>Node27</title>
<g id="a_node27"><a xlink:title=" ">
<polygon fill="#e0e0e0" stroke="#999999" points="1098.78,-74 1042.78,-74 1042.78,-55 1098.78,-55 1098.78,-74"/>
<text text-anchor="middle" x="1070.78" y="-62" font-family="Helvetica,sans-Serif" font-size="10.00">algorithm</text>
</a>
</g>
</g>
<!-- Node25&#45;&gt;Node27 -->
<g id="edge43" class="edge">
<title>Node25&#45;&gt;Node27</title>
<path fill="none" stroke="#63b8ff" d="M1135.55,-109.51C1123.94,-101.62 1106.81,-89.98 1093.08,-80.65"/>
<polygon fill="#63b8ff" stroke="#63b8ff" points="1095.31,-77.93 1085.07,-75.21 1091.37,-83.72 1095.31,-77.93"/>
</g>
<!-- Node28 -->
<g id="node28" class="node">
<title>Node28</title>
<g id="a_node28"><a xlink:title=" ">
<polygon fill="#e0e0e0" stroke="#999999" points="1168.78,-74 1116.78,-74 1116.78,-55 1168.78,-55 1168.78,-74"/>
<text text-anchor="middle" x="1142.78" y="-62" font-family="Helvetica,sans-Serif" font-size="10.00">sstream</text>
</a>
</g>
</g>
<!-- Node25&#45;&gt;Node28 -->
<g id="edge45" class="edge">
<title>Node25&#45;&gt;Node28</title>
<path fill="none" stroke="#63b8ff" d="M1147.79,-109.75C1147.05,-103.19 1146,-93.95 1145.06,-85.6"/>
<polygon fill="#63b8ff" stroke="#63b8ff" points="1148.57,-85.49 1143.96,-75.95 1141.61,-86.28 1148.57,-85.49"/>
</g>
<!-- Node29 -->
<g id="node29" class="node">
<title>Node29</title>
<g id="a_node29"><a xlink:title=" ">
<polygon fill="#e0e0e0" stroke="#999999" points="1024.78,-74 956.78,-74 956.78,-55 1024.78,-55 1024.78,-74"/>
<text text-anchor="middle" x="990.78" y="-62" font-family="Helvetica,sans-Serif" font-size="10.00">fmt/format.h</text>
</a>
</g>
</g>
<!-- Node25&#45;&gt;Node29 -->
<g id="edge46" class="edge">
<title>Node25&#45;&gt;Node29</title>
<path fill="none" stroke="#63b8ff" d="M1121.98,-109.51C1096.25,-100.88 1057.16,-87.76 1028.33,-78.1"/>
<polygon fill="#63b8ff" stroke="#63b8ff" points="1029.48,-74.79 1018.89,-74.93 1027.25,-81.43 1029.48,-74.79"/>
</g>
<!-- Node30&#45;&gt;Node11 -->
<g id="edge48" class="edge">
<title>Node30&#45;&gt;Node11</title>
<path fill="none" stroke="#63b8ff" d="M911.29,-109.51C894.28,-101.24 868.79,-88.84 849.19,-79.31"/>
<polygon fill="#63b8ff" stroke="#63b8ff" points="850.88,-76.25 840.36,-75.02 847.82,-82.54 850.88,-76.25"/>
</g>
<!-- Node30&#45;&gt;Node29 -->
<g id="edge52" class="edge">
<title>Node30&#45;&gt;Node29</title>
<path fill="none" stroke="#63b8ff" d="M940.13,-109.51C948.86,-101.93 961.57,-90.88 972.08,-81.75"/>
<polygon fill="#63b8ff" stroke="#63b8ff" points="974.19,-84.55 979.44,-75.35 969.6,-79.27 974.19,-84.55"/>
</g>
<!-- Node31 -->
<g id="node31" class="node">
<title>Node31</title>
<g id="a_node31"><a xlink:href="string__util_8h.html" target="_top" xlink:title=" ">
<polygon fill="white" stroke="#666666" points="762.28,-74 695.28,-74 695.28,-55 762.28,-55 762.28,-74"/>
<text text-anchor="middle" x="728.78" y="-62" font-family="Helvetica,sans-Serif" font-size="10.00">string_util.h</text>
</a>
</g>
</g>
<!-- Node30&#45;&gt;Node31 -->
<g id="edge49" class="edge">
<title>Node30&#45;&gt;Node31</title>
<path fill="none" stroke="#63b8ff" d="M895.68,-109.51C862.09,-100.65 810.57,-87.07 773.66,-77.33"/>
<polygon fill="#63b8ff" stroke="#63b8ff" points="774.73,-74 764.17,-74.83 772.95,-80.77 774.73,-74"/>
</g>
<!-- Node31&#45;&gt;Node4 -->
<g id="edge50" class="edge">
<title>Node31&#45;&gt;Node4</title>
<path fill="none" stroke="#63b8ff" d="M694.9,-56.02C648.65,-45.8 566.3,-27.62 520.95,-17.6"/>
<polygon fill="#63b8ff" stroke="#63b8ff" points="521.73,-14.19 511.21,-15.45 520.22,-21.03 521.73,-14.19"/>
</g>
<!-- Node31&#45;&gt;Node16 -->
<g id="edge51" class="edge">
<title>Node31&#45;&gt;Node16</title>
<path fill="none" stroke="#63b8ff" d="M723,-54.75C718.37,-47.73 711.71,-37.64 705.91,-28.87"/>
<polygon fill="#63b8ff" stroke="#63b8ff" points="708.95,-27.12 700.52,-20.71 703.11,-30.98 708.95,-27.12"/>
</g>
<!-- Node32&#45;&gt;Node12 -->
<g id="edge58" class="edge">
<title>Node32&#45;&gt;Node12</title>
<path fill="none" stroke="#63b8ff" d="M1191.88,-164.67C1218.36,-144.29 1276.86,-92.78 1247.78,-55 1232.58,-35.25 1167.01,-22.45 1122.43,-15.87"/>
<polygon fill="#63b8ff" stroke="#63b8ff" points="1122.92,-12.4 1112.53,-14.46 1121.94,-19.33 1122.92,-12.4"/>
</g>
</g>
</svg>
