<?xml version="1.0" encoding="UTF-8" standalone="no"?>
<!DOCTYPE svg PUBLIC "-//W3C//DTD SVG 1.1//EN"
 "http://www.w3.org/Graphics/SVG/1.1/DTD/svg11.dtd">
<!-- Generated by graphviz version 7.0.6 (20230106.0513)
 -->
<!-- Title: HealthGPS/disease_table.h Pages: 1 -->
<svg width="1856pt" height="456pt"
 viewBox="0.00 0.00 1855.55 456.00" xmlns="http://www.w3.org/2000/svg" xmlns:xlink="http://www.w3.org/1999/xlink">
<g id="graph0" class="graph" transform="scale(1 1) rotate(0) translate(4 452)">
<title>HealthGPS/disease_table.h</title>
<!-- Node1 -->
<g id="node1" class="node">
<title>Node1</title>
<g id="a_node1"><a xlink:title=" ">
<polygon fill="#999999" stroke="#666666" points="1043.55,-448 906.55,-448 906.55,-429 1043.55,-429 1043.55,-448"/>
<text text-anchor="middle" x="975.05" y="-436" font-family="Helvetica,sans-Serif" font-size="10.00">HealthGPS/disease_table.h</text>
</a>
</g>
</g>
<!-- Node2 -->
<g id="node2" class="node">
<title>Node2</title>
<g id="a_node2"><a xlink:href="converter_8h.html" target="_top" xlink:title=" ">
<polygon fill="white" stroke="#666666" points="181.05,-332.5 65.05,-332.5 65.05,-313.5 181.05,-313.5 181.05,-332.5"/>
<text text-anchor="middle" x="123.05" y="-320.5" font-family="Helvetica,sans-Serif" font-size="10.00">HealthGPS/converter.h</text>
</a>
</g>
</g>
<!-- Node1&#45;&gt;Node2 -->
<g id="edge1" class="edge">
<title>Node1&#45;&gt;Node2</title>
<path fill="none" stroke="#63b8ff" d="M894.7,-434.73C786.69,-430.16 588.97,-418.83 422.05,-393 323.34,-377.72 208.83,-347.81 154.62,-332.9"/>
<polygon fill="#63b8ff" stroke="#63b8ff" points="894.49,-438.22 904.63,-435.14 894.78,-431.23 894.49,-438.22"/>
</g>
<!-- Node8 -->
<g id="node8" class="node">
<title>Node8</title>
<g id="a_node8"><a xlink:href="disease__definition_8h.html" target="_top" xlink:title=" ">
<polygon fill="white" stroke="#666666" points="585.05,-393 431.05,-393 431.05,-374 585.05,-374 585.05,-393"/>
<text text-anchor="middle" x="508.05" y="-381" font-family="Helvetica,sans-Serif" font-size="10.00">HealthGPS/disease_definition.h</text>
</a>
</g>
</g>
<!-- Node1&#45;&gt;Node8 -->
<g id="edge7" class="edge">
<title>Node1&#45;&gt;Node8</title>
<path fill="none" stroke="#63b8ff" d="M894.79,-428.39C808.1,-418.55 670.96,-402.99 585.42,-393.28"/>
<polygon fill="#63b8ff" stroke="#63b8ff" points="894.31,-431.86 904.64,-429.51 895.1,-424.9 894.31,-431.86"/>
</g>
<!-- Node20 -->
<g id="node20" class="node">
<title>Node20</title>
<g id="a_node20"><a xlink:href="simulation__module_8h.html" target="_top" xlink:title=" ">
<polygon fill="white" stroke="#666666" points="1335.55,-206 1222.55,-206 1222.55,-176 1335.55,-176 1335.55,-206"/>
<text text-anchor="start" x="1230.55" y="-194" font-family="Helvetica,sans-Serif" font-size="10.00">HealthGPS/simulation</text>
<text text-anchor="middle" x="1279.05" y="-183" font-family="Helvetica,sans-Serif" font-size="10.00">_module.h</text>
</a>
</g>
</g>
<!-- Node1&#45;&gt;Node20 -->
<g id="edge50" class="edge">
<title>Node1&#45;&gt;Node20</title>
<path fill="none" stroke="#63b8ff" d="M1040.55,-426.61C1168.5,-403.85 1444.04,-347.07 1499.05,-272 1506.94,-261.25 1507.37,-252.42 1499.05,-242 1497.75,-240.37 1400.6,-218.73 1335.85,-204.46"/>
<polygon fill="#63b8ff" stroke="#63b8ff" points="1040.11,-423.13 1030.86,-428.31 1041.32,-430.02 1040.11,-423.13"/>
</g>
<!-- Node34 -->
<g id="node34" class="node">
<title>Node34</title>
<g id="a_node34"><a xlink:href="disease__table_8cpp.html" target="_top" xlink:title=" ">
<polygon fill="white" stroke="#666666" points="1694.55,-393 1547.55,-393 1547.55,-374 1694.55,-374 1694.55,-393"/>
<text text-anchor="middle" x="1621.05" y="-381" font-family="Helvetica,sans-Serif" font-size="10.00">HealthGPS/disease_table.cpp</text>
</a>
</g>
</g>
<!-- Node1&#45;&gt;Node34 -->
<g id="edge49" class="edge">
<title>Node1&#45;&gt;Node34</title>
<path fill="none" stroke="#63b8ff" d="M1054.97,-431.55C1163.33,-423.38 1362.89,-408 1533.05,-393 1537.64,-392.6 1542.36,-392.17 1547.12,-391.73"/>
<polygon fill="#63b8ff" stroke="#63b8ff" points="1055.03,-428.03 1045.32,-432.27 1055.55,-435.01 1055.03,-428.03"/>
</g>
<!-- Node3 -->
<g id="node3" class="node">
<title>Node3</title>
<g id="a_node3"><a xlink:href="analysis__module_8cpp.html" target="_top" xlink:title=" ">
<polygon fill="white" stroke="#666666" points="678.05,-206 574.05,-206 574.05,-176 678.05,-176 678.05,-206"/>
<text text-anchor="start" x="582.05" y="-194" font-family="Helvetica,sans-Serif" font-size="10.00">HealthGPS/analysis</text>
<text text-anchor="middle" x="626.05" y="-183" font-family="Helvetica,sans-Serif" font-size="10.00">_module.cpp</text>
</a>
</g>
</g>
<!-- Node2&#45;&gt;Node3 -->
<g id="edge2" class="edge">
<title>Node2&#45;&gt;Node3</title>
<path fill="none" stroke="#63b8ff" d="M94.67,-307.67C66.44,-291.6 30.14,-264.82 51.05,-242 86.01,-203.87 438.71,-194.72 573.8,-192.61"/>
<polygon fill="#63b8ff" stroke="#63b8ff" points="92.8,-310.63 103.25,-312.35 96.15,-304.49 92.8,-310.63"/>
</g>
<!-- Node4 -->
<g id="node4" class="node">
<title>Node4</title>
<g id="a_node4"><a xlink:href="converter_8cpp.html" target="_top" xlink:title=" ">
<polygon fill="white" stroke="#666666" points="186.05,-266.5 60.05,-266.5 60.05,-247.5 186.05,-247.5 186.05,-266.5"/>
<text text-anchor="middle" x="123.05" y="-254.5" font-family="Helvetica,sans-Serif" font-size="10.00">HealthGPS/converter.cpp</text>
</a>
</g>
</g>
<!-- Node2&#45;&gt;Node4 -->
<g id="edge3" class="edge">
<title>Node2&#45;&gt;Node4</title>
<path fill="none" stroke="#63b8ff" d="M123.05,-301.68C123.05,-289.94 123.05,-275.77 123.05,-266.82"/>
<polygon fill="#63b8ff" stroke="#63b8ff" points="119.55,-301.59 123.05,-311.59 126.55,-301.59 119.55,-301.59"/>
</g>
<!-- Node5 -->
<g id="node5" class="node">
<title>Node5</title>
<g id="a_node5"><a xlink:href="demographic_8cpp.html" target="_top" xlink:title=" ">
<polygon fill="white" stroke="#666666" points="213.55,-200.5 70.55,-200.5 70.55,-181.5 213.55,-181.5 213.55,-200.5"/>
<text text-anchor="middle" x="142.05" y="-188.5" font-family="Helvetica,sans-Serif" font-size="10.00">HealthGPS/demographic.cpp</text>
</a>
</g>
</g>
<!-- Node2&#45;&gt;Node5 -->
<g id="edge4" class="edge">
<title>Node2&#45;&gt;Node5</title>
<path fill="none" stroke="#63b8ff" d="M69.09,-309.32C49.56,-301.85 29.51,-290.15 18.05,-272 10.94,-260.73 10.59,-253.05 18.05,-242 32.79,-220.16 58.84,-207.86 83.27,-200.93"/>
<polygon fill="#63b8ff" stroke="#63b8ff" points="67.81,-312.58 78.4,-312.56 70.11,-305.97 67.81,-312.58"/>
</g>
<!-- Node6 -->
<g id="node6" class="node">
<title>Node6</title>
<g id="a_node6"><a xlink:href="healthgps_8cpp.html" target="_top" xlink:title=" ">
<polygon fill="white" stroke="#666666" points="613.55,-74 484.55,-74 484.55,-55 613.55,-55 613.55,-74"/>
<text text-anchor="middle" x="549.05" y="-62" font-family="Helvetica,sans-Serif" font-size="10.00">HealthGPS/healthgps.cpp</text>
</a>
</g>
</g>
<!-- Node2&#45;&gt;Node6 -->
<g id="edge5" class="edge">
<title>Node2&#45;&gt;Node6</title>
<path fill="none" stroke="#63b8ff" d="M61.85,-309.46C41.55,-302.08 21.08,-290.4 9.05,-272 -17.49,-231.38 20.02,-201.9 61.05,-176 194.93,-91.49 385.52,-71.3 484.22,-66.69"/>
<polygon fill="#63b8ff" stroke="#63b8ff" points="60.7,-312.77 71.29,-312.57 62.89,-306.12 60.7,-312.77"/>
</g>
<!-- Node7 -->
<g id="node7" class="node">
<title>Node7</title>
<g id="a_node7"><a xlink:href="repository_8cpp.html" target="_top" xlink:title=" ">
<polygon fill="white" stroke="#666666" points="804.05,-266.5 674.05,-266.5 674.05,-247.5 804.05,-247.5 804.05,-266.5"/>
<text text-anchor="middle" x="739.05" y="-254.5" font-family="Helvetica,sans-Serif" font-size="10.00">HealthGPS/repository.cpp</text>
</a>
</g>
</g>
<!-- Node2&#45;&gt;Node7 -->
<g id="edge6" class="edge">
<title>Node2&#45;&gt;Node7</title>
<path fill="none" stroke="#63b8ff" d="M192.53,-315.75C333.34,-303.06 641.06,-275.2 664.05,-272 674.03,-270.61 684.69,-268.81 694.75,-266.97"/>
<polygon fill="#63b8ff" stroke="#63b8ff" points="192.62,-312.23 182.97,-316.61 193.25,-319.2 192.62,-312.23"/>
</g>
<!-- Node8&#45;&gt;Node2 -->
<g id="edge8" class="edge">
<title>Node8&#45;&gt;Node2</title>
<path fill="none" stroke="#63b8ff" d="M438.17,-371.88C364.62,-360.71 250.15,-343.31 181.31,-332.85"/>
<polygon fill="#63b8ff" stroke="#63b8ff" points="437.25,-375.28 447.67,-373.32 438.31,-368.36 437.25,-375.28"/>
</g>
<!-- Node9 -->
<g id="node9" class="node">
<title>Node9</title>
<g id="a_node9"><a xlink:href="default__cancer__model_8h.html" target="_top" xlink:title=" ">
<polygon fill="white" stroke="#666666" points="573.55,-338 442.55,-338 442.55,-308 573.55,-308 573.55,-338"/>
<text text-anchor="start" x="450.55" y="-326" font-family="Helvetica,sans-Serif" font-size="10.00">HealthGPS/default_cancer</text>
<text text-anchor="middle" x="508.05" y="-315" font-family="Helvetica,sans-Serif" font-size="10.00">_model.h</text>
</a>
</g>
</g>
<!-- Node8&#45;&gt;Node9 -->
<g id="edge9" class="edge">
<title>Node8&#45;&gt;Node9</title>
<path fill="none" stroke="#63b8ff" d="M508.05,-362.51C508.05,-354.49 508.05,-345.43 508.05,-338.11"/>
<polygon fill="#63b8ff" stroke="#63b8ff" points="504.55,-362.35 508.05,-372.35 511.55,-362.35 504.55,-362.35"/>
</g>
<!-- Node13 -->
<g id="node13" class="node">
<title>Node13</title>
<g id="a_node13"><a xlink:href="default__disease__model_8h.html" target="_top" xlink:title=" ">
<polygon fill="white" stroke="#666666" points="424.05,-338 288.05,-338 288.05,-308 424.05,-308 424.05,-338"/>
<text text-anchor="start" x="296.05" y="-326" font-family="Helvetica,sans-Serif" font-size="10.00">HealthGPS/default_disease</text>
<text text-anchor="middle" x="356.05" y="-315" font-family="Helvetica,sans-Serif" font-size="10.00">_model.h</text>
</a>
</g>
</g>
<!-- Node8&#45;&gt;Node13 -->
<g id="edge14" class="edge">
<title>Node8&#45;&gt;Node13</title>
<path fill="none" stroke="#63b8ff" d="M474.28,-369.5C450.37,-360.3 418.28,-347.95 393.57,-338.44"/>
<polygon fill="#63b8ff" stroke="#63b8ff" points="472.97,-372.75 483.56,-373.07 475.48,-366.21 472.97,-372.75"/>
</g>
<!-- Node15 -->
<g id="node15" class="node">
<title>Node15</title>
<g id="a_node15"><a xlink:href="repository_8h.html" target="_top" xlink:title=" ">
<polygon fill="white" stroke="#666666" points="1208.55,-332.5 1089.55,-332.5 1089.55,-313.5 1208.55,-313.5 1208.55,-332.5"/>
<text text-anchor="middle" x="1149.05" y="-320.5" font-family="Helvetica,sans-Serif" font-size="10.00">HealthGPS/repository.h</text>
</a>
</g>
</g>
<!-- Node8&#45;&gt;Node15 -->
<g id="edge17" class="edge">
<title>Node8&#45;&gt;Node15</title>
<path fill="none" stroke="#63b8ff" d="M596.67,-374.41C729.21,-362.32 975.63,-339.83 1089.07,-329.47"/>
<polygon fill="#63b8ff" stroke="#63b8ff" points="596.52,-370.91 586.88,-375.31 597.16,-377.88 596.52,-370.91"/>
</g>
<!-- Node9&#45;&gt;Node4 -->
<g id="edge10" class="edge">
<title>Node9&#45;&gt;Node4</title>
<path fill="none" stroke="#63b8ff" d="M431.09,-307.71C325.68,-290.16 296.97,-289.61 195.05,-272 186.15,-270.46 176.64,-268.7 167.55,-266.96"/>
<polygon fill="#63b8ff" stroke="#63b8ff" points="430.29,-311.13 440.73,-309.33 431.45,-304.22 430.29,-311.13"/>
</g>
<!-- Node10 -->
<g id="node10" class="node">
<title>Node10</title>
<g id="a_node10"><a xlink:href="default__cancer__model_8cpp.html" target="_top" xlink:title=" ">
<polygon fill="white" stroke="#666666" points="655.55,-272 524.55,-272 524.55,-242 655.55,-242 655.55,-272"/>
<text text-anchor="start" x="532.55" y="-260" font-family="Helvetica,sans-Serif" font-size="10.00">HealthGPS/default_cancer</text>
<text text-anchor="middle" x="590.05" y="-249" font-family="Helvetica,sans-Serif" font-size="10.00">_model.cpp</text>
</a>
</g>
</g>
<!-- Node9&#45;&gt;Node10 -->
<g id="edge11" class="edge">
<title>Node9&#45;&gt;Node10</title>
<path fill="none" stroke="#63b8ff" d="M534.99,-300.97C547,-291.61 560.83,-280.81 571.62,-272.39"/>
<polygon fill="#63b8ff" stroke="#63b8ff" points="533.18,-297.95 527.45,-306.87 537.48,-303.47 533.18,-297.95"/>
</g>
<!-- Node11 -->
<g id="node11" class="node">
<title>Node11</title>
<g id="a_node11"><a xlink:href="disease__registry_8h.html" target="_top" xlink:title=" ">
<polygon fill="white" stroke="#666666" points="506.05,-266.5 358.05,-266.5 358.05,-247.5 506.05,-247.5 506.05,-266.5"/>
<text text-anchor="middle" x="432.05" y="-254.5" font-family="Helvetica,sans-Serif" font-size="10.00">HealthGPS/disease_registry.h</text>
</a>
</g>
</g>
<!-- Node9&#45;&gt;Node11 -->
<g id="edge12" class="edge">
<title>Node9&#45;&gt;Node11</title>
<path fill="none" stroke="#63b8ff" d="M482.65,-300.6C468.98,-289.1 452.86,-275.52 442.56,-266.84"/>
<polygon fill="#63b8ff" stroke="#63b8ff" points="480.13,-303.06 490.03,-306.82 484.64,-297.7 480.13,-303.06"/>
</g>
<!-- Node12 -->
<g id="node12" class="node">
<title>Node12</title>
<g id="a_node12"><a xlink:href="disease_8cpp.html" target="_top" xlink:title=" ">
<polygon fill="white" stroke="#666666" points="988.55,-200.5 867.55,-200.5 867.55,-181.5 988.55,-181.5 988.55,-200.5"/>
<text text-anchor="middle" x="928.05" y="-188.5" font-family="Helvetica,sans-Serif" font-size="10.00">HealthGPS/disease.cpp</text>
</a>
</g>
</g>
<!-- Node11&#45;&gt;Node12 -->
<g id="edge13" class="edge">
<title>Node11&#45;&gt;Node12</title>
<path fill="none" stroke="#63b8ff" d="M494.24,-245.19C501.25,-244.06 508.3,-242.98 515.05,-242 639.79,-223.94 786.37,-207.27 867.06,-198.48"/>
<polygon fill="#63b8ff" stroke="#63b8ff" points="493.71,-241.73 484.41,-246.79 494.84,-248.64 493.71,-241.73"/>
</g>
<!-- Node13&#45;&gt;Node11 -->
<g id="edge16" class="edge">
<title>Node13&#45;&gt;Node11</title>
<path fill="none" stroke="#63b8ff" d="M381.46,-300.6C395.13,-289.1 411.25,-275.52 421.55,-266.84"/>
<polygon fill="#63b8ff" stroke="#63b8ff" points="379.47,-297.7 374.08,-306.82 383.98,-303.06 379.47,-297.7"/>
</g>
<!-- Node14 -->
<g id="node14" class="node">
<title>Node14</title>
<g id="a_node14"><a xlink:href="default__disease__model_8cpp.html" target="_top" xlink:title=" ">
<polygon fill="white" stroke="#666666" points="340.05,-272 204.05,-272 204.05,-242 340.05,-242 340.05,-272"/>
<text text-anchor="start" x="212.05" y="-260" font-family="Helvetica,sans-Serif" font-size="10.00">HealthGPS/default_disease</text>
<text text-anchor="middle" x="272.05" y="-249" font-family="Helvetica,sans-Serif" font-size="10.00">_model.cpp</text>
</a>
</g>
</g>
<!-- Node13&#45;&gt;Node14 -->
<g id="edge15" class="edge">
<title>Node13&#45;&gt;Node14</title>
<path fill="none" stroke="#63b8ff" d="M328.46,-300.97C316.16,-291.61 302,-280.81 290.94,-272.39"/>
<polygon fill="#63b8ff" stroke="#63b8ff" points="326.13,-303.6 336.21,-306.88 330.38,-298.03 326.13,-303.6"/>
</g>
<!-- Node15&#45;&gt;Node7 -->
<g id="edge42" class="edge">
<title>Node15&#45;&gt;Node7</title>
<path fill="none" stroke="#63b8ff" d="M1078.14,-312.27C1010.05,-302.74 904.36,-287.42 813.05,-272 803.9,-270.45 794.13,-268.69 784.79,-266.94"/>
<polygon fill="#63b8ff" stroke="#63b8ff" points="1077.27,-315.68 1087.66,-313.6 1078.24,-308.75 1077.27,-315.68"/>
</g>
<!-- Node16 -->
<g id="node16" class="node">
<title>Node16</title>
<g id="a_node16"><a xlink:href="model__parser_8h.html" target="_top" xlink:title=" ">
<polygon fill="white" stroke="#666666" points="1814.55,-272 1681.55,-272 1681.55,-242 1814.55,-242 1814.55,-272"/>
<text text-anchor="start" x="1689.55" y="-260" font-family="Helvetica,sans-Serif" font-size="10.00">HealthGPS.Console/model</text>
<text text-anchor="middle" x="1748.05" y="-249" font-family="Helvetica,sans-Serif" font-size="10.00">_parser.h</text>
</a>
</g>
</g>
<!-- Node15&#45;&gt;Node16 -->
<g id="edge18" class="edge">
<title>Node15&#45;&gt;Node16</title>
<path fill="none" stroke="#63b8ff" d="M1220.11,-317.17C1320.93,-309.88 1511.13,-294.47 1672.05,-272 1675.11,-271.57 1678.23,-271.11 1681.38,-270.62"/>
<polygon fill="#63b8ff" stroke="#63b8ff" points="1220.1,-313.67 1210.37,-317.87 1220.6,-320.65 1220.1,-313.67"/>
</g>
<!-- Node19 -->
<g id="node19" class="node">
<title>Node19</title>
<g id="a_node19"><a xlink:href="analysis__module_8h.html" target="_top" xlink:title=" ">
<polygon fill="white" stroke="#666666" points="1076.05,-272 972.05,-272 972.05,-242 1076.05,-242 1076.05,-272"/>
<text text-anchor="start" x="980.05" y="-260" font-family="Helvetica,sans-Serif" font-size="10.00">HealthGPS/analysis</text>
<text text-anchor="middle" x="1024.05" y="-249" font-family="Helvetica,sans-Serif" font-size="10.00">_module.h</text>
</a>
</g>
</g>
<!-- Node15&#45;&gt;Node19 -->
<g id="edge21" class="edge">
<title>Node15&#45;&gt;Node19</title>
<path fill="none" stroke="#63b8ff" d="M1121.69,-307.99C1101.15,-297.47 1073.1,-283.11 1052.33,-272.48"/>
<polygon fill="#63b8ff" stroke="#63b8ff" points="1119.83,-310.97 1130.33,-312.41 1123.02,-304.74 1119.83,-310.97"/>
</g>
<!-- Node26 -->
<g id="node26" class="node">
<title>Node26</title>
<g id="a_node26"><a xlink:href="demographic_8h.html" target="_top" xlink:title=" ">
<polygon fill="white" stroke="#666666" points="954.05,-266.5 822.05,-266.5 822.05,-247.5 954.05,-247.5 954.05,-266.5"/>
<text text-anchor="middle" x="888.05" y="-254.5" font-family="Helvetica,sans-Serif" font-size="10.00">HealthGPS/demographic.h</text>
</a>
</g>
</g>
<!-- Node15&#45;&gt;Node26 -->
<g id="edge33" class="edge">
<title>Node15&#45;&gt;Node26</title>
<path fill="none" stroke="#63b8ff" d="M1101.43,-310.32C1050.41,-297.81 970.56,-278.23 924.37,-266.91"/>
<polygon fill="#63b8ff" stroke="#63b8ff" points="1100.47,-313.69 1111.02,-312.67 1102.14,-306.89 1100.47,-313.69"/>
</g>
<!-- Node27 -->
<g id="node27" class="node">
<title>Node27</title>
<g id="a_node27"><a xlink:href="_health_g_p_s_2disease_8h.html" target="_top" xlink:title=" ">
<polygon fill="white" stroke="#666666" points="1204.05,-266.5 1094.05,-266.5 1094.05,-247.5 1204.05,-247.5 1204.05,-266.5"/>
<text text-anchor="middle" x="1149.05" y="-254.5" font-family="Helvetica,sans-Serif" font-size="10.00">HealthGPS/disease.h</text>
</a>
</g>
</g>
<!-- Node15&#45;&gt;Node27 -->
<g id="edge36" class="edge">
<title>Node15&#45;&gt;Node27</title>
<path fill="none" stroke="#63b8ff" d="M1149.05,-301.68C1149.05,-289.94 1149.05,-275.77 1149.05,-266.82"/>
<polygon fill="#63b8ff" stroke="#63b8ff" points="1145.55,-301.59 1149.05,-311.59 1152.55,-301.59 1145.55,-301.59"/>
</g>
<!-- Node28 -->
<g id="node28" class="node">
<title>Node28</title>
<g id="a_node28"><a xlink:href="modulefactory_8h.html" target="_top" xlink:title=" ">
<polygon fill="white" stroke="#666666" points="1490.55,-266.5 1353.55,-266.5 1353.55,-247.5 1490.55,-247.5 1490.55,-266.5"/>
<text text-anchor="middle" x="1422.05" y="-254.5" font-family="Helvetica,sans-Serif" font-size="10.00">HealthGPS/modulefactory.h</text>
</a>
</g>
</g>
<!-- Node15&#45;&gt;Node28 -->
<g id="edge39" class="edge">
<title>Node15&#45;&gt;Node28</title>
<path fill="none" stroke="#63b8ff" d="M1198.19,-310.48C1251.53,-297.98 1335.56,-278.28 1384.07,-266.91"/>
<polygon fill="#63b8ff" stroke="#63b8ff" points="1197.71,-307 1188.78,-312.69 1199.31,-313.81 1197.71,-307"/>
</g>
<!-- Node30 -->
<g id="node30" class="node">
<title>Node30</title>
<g id="a_node30"><a xlink:href="riskfactor_8h.html" target="_top" xlink:title=" ">
<polygon fill="white" stroke="#666666" points="1663.05,-266.5 1547.05,-266.5 1547.05,-247.5 1663.05,-247.5 1663.05,-266.5"/>
<text text-anchor="middle" x="1605.05" y="-254.5" font-family="Helvetica,sans-Serif" font-size="10.00">HealthGPS/riskfactor.h</text>
</a>
</g>
</g>
<!-- Node15&#45;&gt;Node30 -->
<g id="edge43" class="edge">
<title>Node15&#45;&gt;Node30</title>
<path fill="none" stroke="#63b8ff" d="M1219.85,-312.06C1309.81,-299.44 1463.39,-277.88 1546.87,-266.17"/>
<polygon fill="#63b8ff" stroke="#63b8ff" points="1219.58,-308.57 1210.17,-313.42 1220.56,-315.5 1219.58,-308.57"/>
</g>
<!-- Node32 -->
<g id="node32" class="node">
<title>Node32</title>
<g id="a_node32"><a xlink:href="ses__noise__module_8h.html" target="_top" xlink:title=" ">
<polygon fill="white" stroke="#666666" points="1335.55,-272 1222.55,-272 1222.55,-242 1335.55,-242 1335.55,-272"/>
<text text-anchor="start" x="1230.55" y="-260" font-family="Helvetica,sans-Serif" font-size="10.00">HealthGPS/ses_noise</text>
<text text-anchor="middle" x="1279.05" y="-249" font-family="Helvetica,sans-Serif" font-size="10.00">_module.h</text>
</a>
</g>
</g>
<!-- Node15&#45;&gt;Node32 -->
<g id="edge46" class="edge">
<title>Node15&#45;&gt;Node32</title>
<path fill="none" stroke="#63b8ff" d="M1177.22,-308.13C1198.61,-297.6 1227.95,-283.16 1249.65,-272.48"/>
<polygon fill="#63b8ff" stroke="#63b8ff" points="1175.91,-304.88 1168.49,-312.43 1179.01,-311.16 1175.91,-304.88"/>
</g>
<!-- Node17 -->
<g id="node17" class="node">
<title>Node17</title>
<g id="a_node17"><a xlink:href="model__parser_8cpp.html" target="_top" xlink:title=" ">
<polygon fill="white" stroke="#666666" points="1847.55,-206 1714.55,-206 1714.55,-176 1847.55,-176 1847.55,-206"/>
<text text-anchor="start" x="1722.55" y="-194" font-family="Helvetica,sans-Serif" font-size="10.00">HealthGPS.Console/model</text>
<text text-anchor="middle" x="1781.05" y="-183" font-family="Helvetica,sans-Serif" font-size="10.00">_parser.cpp</text>
</a>
</g>
</g>
<!-- Node16&#45;&gt;Node17 -->
<g id="edge19" class="edge">
<title>Node16&#45;&gt;Node17</title>
<path fill="none" stroke="#63b8ff" d="M1760.52,-231.83C1764.98,-223.17 1769.87,-213.7 1773.75,-206.16"/>
<polygon fill="#63b8ff" stroke="#63b8ff" points="1757.54,-229.96 1756.07,-240.45 1763.77,-233.17 1757.54,-229.96"/>
</g>
<!-- Node18 -->
<g id="node18" class="node">
<title>Node18</title>
<g id="a_node18"><a xlink:href="program_8cpp.html" target="_top" xlink:title=" ">
<polygon fill="white" stroke="#666666" points="1512.55,-19 1351.55,-19 1351.55,0 1512.55,0 1512.55,-19"/>
<text text-anchor="middle" x="1432.05" y="-7" font-family="Helvetica,sans-Serif" font-size="10.00">HealthGPS.Console/program.cpp</text>
</a>
</g>
</g>
<!-- Node16&#45;&gt;Node18 -->
<g id="edge20" class="edge">
<title>Node16&#45;&gt;Node18</title>
<path fill="none" stroke="#63b8ff" d="M1727.03,-233.66C1710.96,-217.05 1687.92,-194.21 1666.05,-176 1587.28,-110.41 1483.76,-43.21 1446.33,-19.47"/>
<polygon fill="#63b8ff" stroke="#63b8ff" points="1724.26,-235.83 1733.7,-240.63 1729.31,-230.98 1724.26,-235.83"/>
</g>
<!-- Node19&#45;&gt;Node3 -->
<g id="edge22" class="edge">
<title>Node19&#45;&gt;Node3</title>
<path fill="none" stroke="#63b8ff" d="M960.67,-241.64C854.94,-222.02 742.71,-206.72 678.51,-198.49"/>
<polygon fill="#63b8ff" stroke="#63b8ff" points="959.91,-245.06 970.38,-243.46 961.2,-238.18 959.91,-245.06"/>
</g>
<!-- Node19&#45;&gt;Node20 -->
<g id="edge23" class="edge">
<title>Node19&#45;&gt;Node20</title>
<path fill="none" stroke="#63b8ff" d="M1087.34,-240.12C1128.78,-229.72 1182.46,-216.24 1222.48,-206.2"/>
<polygon fill="#63b8ff" stroke="#63b8ff" points="1086.59,-236.7 1077.74,-242.53 1088.29,-243.49 1086.59,-236.7"/>
</g>
<!-- Node21 -->
<g id="node21" class="node">
<title>Node21</title>
<g id="a_node21"><a xlink:href="_health_g_p_s_2api_8h.html" target="_top" xlink:title=" ">
<polygon fill="white" stroke="#666666" points="1456.55,-74 1367.55,-74 1367.55,-55 1456.55,-55 1456.55,-74"/>
<text text-anchor="middle" x="1412.05" y="-62" font-family="Helvetica,sans-Serif" font-size="10.00">HealthGPS/api.h</text>
</a>
</g>
</g>
<!-- Node20&#45;&gt;Node21 -->
<g id="edge24" class="edge">
<title>Node20&#45;&gt;Node21</title>
<path fill="none" stroke="#63b8ff" d="M1310.32,-169.19C1322.27,-160.69 1335.74,-150.41 1347.05,-140 1370.55,-118.38 1394.22,-88.85 1405.4,-74.32"/>
<polygon fill="#63b8ff" stroke="#63b8ff" points="1308.57,-166.15 1302.37,-174.74 1312.58,-171.89 1308.57,-166.15"/>
</g>
<!-- Node22 -->
<g id="node22" class="node">
<title>Node22</title>
<g id="a_node22"><a xlink:href="healthgps_8h.html" target="_top" xlink:title=" ">
<polygon fill="white" stroke="#666666" points="1338.55,-134.5 1219.55,-134.5 1219.55,-115.5 1338.55,-115.5 1338.55,-134.5"/>
<text text-anchor="middle" x="1279.05" y="-122.5" font-family="Helvetica,sans-Serif" font-size="10.00">HealthGPS/healthgps.h</text>
</a>
</g>
</g>
<!-- Node20&#45;&gt;Node22 -->
<g id="edge26" class="edge">
<title>Node20&#45;&gt;Node22</title>
<path fill="none" stroke="#63b8ff" d="M1279.05,-164.59C1279.05,-154.06 1279.05,-142.53 1279.05,-134.84"/>
<polygon fill="#63b8ff" stroke="#63b8ff" points="1275.55,-164.28 1279.05,-174.28 1282.55,-164.28 1275.55,-164.28"/>
</g>
<!-- Node25 -->
<g id="node25" class="node">
<title>Node25</title>
<g id="a_node25"><a xlink:href="simulation__module_8cpp.html" target="_top" xlink:title=" ">
<polygon fill="white" stroke="#666666" points="1201.55,-140 1088.55,-140 1088.55,-110 1201.55,-110 1201.55,-140"/>
<text text-anchor="start" x="1096.55" y="-128" font-family="Helvetica,sans-Serif" font-size="10.00">HealthGPS/simulation</text>
<text text-anchor="middle" x="1145.05" y="-117" font-family="Helvetica,sans-Serif" font-size="10.00">_module.cpp</text>
</a>
</g>
</g>
<!-- Node20&#45;&gt;Node25 -->
<g id="edge32" class="edge">
<title>Node20&#45;&gt;Node25</title>
<path fill="none" stroke="#63b8ff" d="M1238.69,-170.72C1218.23,-160.95 1193.8,-149.28 1175.03,-140.31"/>
<polygon fill="#63b8ff" stroke="#63b8ff" points="1237.08,-173.83 1247.62,-174.98 1240.1,-167.52 1237.08,-173.83"/>
</g>
<!-- Node21&#45;&gt;Node18 -->
<g id="edge25" class="edge">
<title>Node21&#45;&gt;Node18</title>
<path fill="none" stroke="#63b8ff" d="M1419.33,-44.22C1422.53,-35.74 1426.13,-26.21 1428.68,-19.44"/>
<polygon fill="#63b8ff" stroke="#63b8ff" points="1416.15,-42.74 1415.89,-53.33 1422.7,-45.21 1416.15,-42.74"/>
</g>
<!-- Node22&#45;&gt;Node6 -->
<g id="edge31" class="edge">
<title>Node22&#45;&gt;Node6</title>
<path fill="none" stroke="#63b8ff" d="M1228.45,-112.93C1222.28,-111.82 1216.04,-110.8 1210.05,-110 992.62,-80.75 732.23,-70.39 613.61,-67"/>
<polygon fill="#63b8ff" stroke="#63b8ff" points="1227.47,-116.31 1237.95,-114.74 1228.78,-109.43 1227.47,-116.31"/>
</g>
<!-- Node22&#45;&gt;Node21 -->
<g id="edge30" class="edge">
<title>Node22&#45;&gt;Node21</title>
<path fill="none" stroke="#63b8ff" d="M1309.71,-110.52C1334.88,-99.45 1369.81,-84.08 1391.66,-74.47"/>
<polygon fill="#63b8ff" stroke="#63b8ff" points="1308.38,-107.28 1300.64,-114.51 1311.2,-113.68 1308.38,-107.28"/>
</g>
<!-- Node23 -->
<g id="node23" class="node">
<title>Node23</title>
<g id="a_node23"><a xlink:href="configuration_8h.html" target="_top" xlink:title=" ">
<polygon fill="white" stroke="#666666" points="1349.05,-74 1179.05,-74 1179.05,-55 1349.05,-55 1349.05,-74"/>
<text text-anchor="middle" x="1264.05" y="-62" font-family="Helvetica,sans-Serif" font-size="10.00">HealthGPS.Console/configuration.h</text>
</a>
</g>
</g>
<!-- Node22&#45;&gt;Node23 -->
<g id="edge27" class="edge">
<title>Node22&#45;&gt;Node23</title>
<path fill="none" stroke="#63b8ff" d="M1274.05,-104.49C1271.42,-94.22 1268.32,-82.13 1266.28,-74.17"/>
<polygon fill="#63b8ff" stroke="#63b8ff" points="1270.59,-105.08 1276.47,-113.9 1277.37,-103.35 1270.59,-105.08"/>
</g>
<!-- Node23&#45;&gt;Node18 -->
<g id="edge29" class="edge">
<title>Node23&#45;&gt;Node18</title>
<path fill="none" stroke="#63b8ff" d="M1303.33,-51.11C1334.09,-41.41 1376.15,-28.14 1403.7,-19.45"/>
<polygon fill="#63b8ff" stroke="#63b8ff" points="1302.48,-47.71 1294,-54.05 1304.59,-54.38 1302.48,-47.71"/>
</g>
<!-- Node24 -->
<g id="node24" class="node">
<title>Node24</title>
<g id="a_node24"><a xlink:href="configuration_8cpp.html" target="_top" xlink:title=" ">
<polygon fill="white" stroke="#666666" points="1333.05,-19 1153.05,-19 1153.05,0 1333.05,0 1333.05,-19"/>
<text text-anchor="middle" x="1243.05" y="-7" font-family="Helvetica,sans-Serif" font-size="10.00">HealthGPS.Console/configuration.cpp</text>
</a>
</g>
</g>
<!-- Node23&#45;&gt;Node24 -->
<g id="edge28" class="edge">
<title>Node23&#45;&gt;Node24</title>
<path fill="none" stroke="#63b8ff" d="M1256.41,-44.22C1253.06,-35.74 1249.28,-26.21 1246.6,-19.44"/>
<polygon fill="#63b8ff" stroke="#63b8ff" points="1253.09,-45.33 1260.03,-53.34 1259.6,-42.75 1253.09,-45.33"/>
</g>
<!-- Node26&#45;&gt;Node5 -->
<g id="edge34" class="edge">
<title>Node26&#45;&gt;Node5</title>
<path fill="none" stroke="#63b8ff" d="M833.27,-245.05C826.48,-243.91 819.62,-242.85 813.05,-242 595.86,-213.72 336.87,-200.05 213.82,-194.75"/>
<polygon fill="#63b8ff" stroke="#63b8ff" points="832.61,-248.49 843.07,-246.78 833.83,-241.6 832.61,-248.49"/>
</g>
<!-- Node26&#45;&gt;Node20 -->
<g id="edge35" class="edge">
<title>Node26&#45;&gt;Node20</title>
<path fill="none" stroke="#63b8ff" d="M945.64,-245C951.52,-243.95 957.4,-242.93 963.05,-242 1073.81,-223.7 1102.53,-225.66 1213.05,-206 1216.05,-205.47 1219.12,-204.9 1222.22,-204.3"/>
<polygon fill="#63b8ff" stroke="#63b8ff" points="945.12,-241.54 935.9,-246.77 946.36,-248.43 945.12,-241.54"/>
</g>
<!-- Node27&#45;&gt;Node12 -->
<g id="edge37" class="edge">
<title>Node27&#45;&gt;Node12</title>
<path fill="none" stroke="#63b8ff" d="M1107.33,-243.92C1064.11,-231.4 997.57,-212.13 958.88,-200.93"/>
<polygon fill="#63b8ff" stroke="#63b8ff" points="1106.29,-247.26 1116.87,-246.68 1108.24,-240.54 1106.29,-247.26"/>
</g>
<!-- Node27&#45;&gt;Node20 -->
<g id="edge38" class="edge">
<title>Node27&#45;&gt;Node20</title>
<path fill="none" stroke="#63b8ff" d="M1177.22,-242.13C1198.61,-231.6 1227.95,-217.16 1249.65,-206.48"/>
<polygon fill="#63b8ff" stroke="#63b8ff" points="1175.91,-238.88 1168.49,-246.43 1179.01,-245.16 1175.91,-238.88"/>
</g>
<!-- Node28&#45;&gt;Node20 -->
<g id="edge41" class="edge">
<title>Node28&#45;&gt;Node20</title>
<path fill="none" stroke="#63b8ff" d="M1391.72,-242.42C1368.13,-231.87 1335.48,-217.26 1311.4,-206.48"/>
<polygon fill="#63b8ff" stroke="#63b8ff" points="1390.23,-245.59 1400.79,-246.48 1393.09,-239.2 1390.23,-245.59"/>
</g>
<!-- Node29 -->
<g id="node29" class="node">
<title>Node29</title>
<g id="a_node29"><a xlink:href="modulefactory_8cpp.html" target="_top" xlink:title=" ">
<polygon fill="white" stroke="#666666" points="1502.05,-200.5 1354.05,-200.5 1354.05,-181.5 1502.05,-181.5 1502.05,-200.5"/>
<text text-anchor="middle" x="1428.05" y="-188.5" font-family="Helvetica,sans-Serif" font-size="10.00">HealthGPS/modulefactory.cpp</text>
</a>
</g>
</g>
<!-- Node28&#45;&gt;Node29 -->
<g id="edge40" class="edge">
<title>Node28&#45;&gt;Node29</title>
<path fill="none" stroke="#63b8ff" d="M1423.96,-235.68C1425.06,-223.94 1426.39,-209.77 1427.23,-200.82"/>
<polygon fill="#63b8ff" stroke="#63b8ff" points="1420.48,-235.31 1423.03,-245.59 1427.45,-235.96 1420.48,-235.31"/>
</g>
<!-- Node30&#45;&gt;Node20 -->
<g id="edge45" class="edge">
<title>Node30&#45;&gt;Node20</title>
<path fill="none" stroke="#63b8ff" d="M1547.97,-244.88C1542.92,-243.91 1537.9,-242.93 1533.05,-242 1449.52,-225.88 1428.45,-222.83 1345.05,-206 1342.07,-205.4 1339.01,-204.77 1335.92,-204.14"/>
<polygon fill="#63b8ff" stroke="#63b8ff" points="1547,-248.26 1557.48,-246.73 1548.33,-241.39 1547,-248.26"/>
</g>
<!-- Node31 -->
<g id="node31" class="node">
<title>Node31</title>
<g id="a_node31"><a xlink:href="riskfactor_8cpp.html" target="_top" xlink:title=" ">
<polygon fill="white" stroke="#666666" points="1657.55,-200.5 1530.55,-200.5 1530.55,-181.5 1657.55,-181.5 1657.55,-200.5"/>
<text text-anchor="middle" x="1594.05" y="-188.5" font-family="Helvetica,sans-Serif" font-size="10.00">HealthGPS/riskfactor.cpp</text>
</a>
</g>
</g>
<!-- Node30&#45;&gt;Node31 -->
<g id="edge44" class="edge">
<title>Node30&#45;&gt;Node31</title>
<path fill="none" stroke="#63b8ff" d="M1601.63,-236.05C1599.6,-224.24 1597.13,-209.87 1595.57,-200.82"/>
<polygon fill="#63b8ff" stroke="#63b8ff" points="1598.13,-236.35 1603.27,-245.61 1605.02,-235.16 1598.13,-236.35"/>
</g>
<!-- Node32&#45;&gt;Node20 -->
<g id="edge48" class="edge">
<title>Node32&#45;&gt;Node20</title>
<path fill="none" stroke="#63b8ff" d="M1279.05,-230.39C1279.05,-222.13 1279.05,-213.28 1279.05,-206.16"/>
<polygon fill="#63b8ff" stroke="#63b8ff" points="1275.55,-230.28 1279.05,-240.28 1282.55,-230.28 1275.55,-230.28"/>
</g>
<!-- Node33 -->
<g id="node33" class="node">
<title>Node33</title>
<g id="a_node33"><a xlink:href="ses__noise__module_8cpp.html" target="_top" xlink:title=" ">
<polygon fill="white" stroke="#666666" points="1204.55,-206 1091.55,-206 1091.55,-176 1204.55,-176 1204.55,-206"/>
<text text-anchor="start" x="1099.55" y="-194" font-family="Helvetica,sans-Serif" font-size="10.00">HealthGPS/ses_noise</text>
<text text-anchor="middle" x="1148.05" y="-183" font-family="Helvetica,sans-Serif" font-size="10.00">_module.cpp</text>
</a>
</g>
</g>
<!-- Node32&#45;&gt;Node33 -->
<g id="edge47" class="edge">
<title>Node32&#45;&gt;Node33</title>
<path fill="none" stroke="#63b8ff" d="M1239.32,-236.59C1219.37,-226.84 1195.62,-215.24 1177.36,-206.31"/>
<polygon fill="#63b8ff" stroke="#63b8ff" points="1237.77,-239.73 1248.3,-240.97 1240.85,-233.44 1237.77,-239.73"/>
</g>
</g>
</svg>
