<?xml version="1.0" encoding="UTF-8" standalone="no"?>
<!DOCTYPE svg PUBLIC "-//W3C//DTD SVG 1.1//EN"
 "http://www.w3.org/Graphics/SVG/1.1/DTD/svg11.dtd">
<!-- Generated by graphviz version 2.43.0 (0)
 -->
<!-- Title: HealthGPS/disease_definition.h Pages: 1 -->
<svg width="1994pt" height="408pt"
 viewBox="0.00 0.00 1994.25 408.00" xmlns="http://www.w3.org/2000/svg" xmlns:xlink="http://www.w3.org/1999/xlink">
<g id="graph0" class="graph" transform="scale(1 1) rotate(0) translate(4 404)">
<title>HealthGPS/disease_definition.h</title>
<!-- Node1 -->
<g id="node1" class="node">
<title>Node1</title>
<g id="a_node1"><a xlink:title=" ">
<polygon fill="#bfbfbf" stroke="black" points="1288.25,-380.5 1288.25,-399.5 1457.25,-399.5 1457.25,-380.5 1288.25,-380.5"/>
<text text-anchor="middle" x="1372.75" y="-387.5" font-family="Helvetica,sans-Serif" font-size="10.00">HealthGPS/disease_definition.h</text>
</a>
</g>
</g>
<!-- Node2 -->
<g id="node2" class="node">
<title>Node2</title>
<g id="a_node2"><a xlink:href="converter_8h.html" target="_top" xlink:title=" ">
<polygon fill="none" stroke="black" points="1233.75,-319 1233.75,-338 1359.75,-338 1359.75,-319 1233.75,-319"/>
<text text-anchor="middle" x="1296.75" y="-326" font-family="Helvetica,sans-Serif" font-size="10.00">HealthGPS/converter.h</text>
</a>
</g>
</g>
<!-- Node1&#45;&gt;Node2 -->
<g id="edge1" class="edge">
<title>Node1&#45;&gt;Node2</title>
<path fill="none" stroke="midnightblue" d="M1353.97,-374.29C1339.39,-362.88 1319.69,-347.46 1307.62,-338.01"/>
<polygon fill="midnightblue" stroke="midnightblue" points="1351.83,-377.07 1361.86,-380.48 1356.15,-371.55 1351.83,-377.07"/>
</g>
<!-- Node8 -->
<g id="node8" class="node">
<title>Node8</title>
<g id="a_node8"><a xlink:href="default__cancer__model_8h.html" target="_top" xlink:title=" ">
<polygon fill="none" stroke="black" points="1448.25,-313.5 1448.25,-343.5 1591.25,-343.5 1591.25,-313.5 1448.25,-313.5"/>
<text text-anchor="start" x="1456.25" y="-331.5" font-family="Helvetica,sans-Serif" font-size="10.00">HealthGPS/default_cancer</text>
<text text-anchor="middle" x="1519.75" y="-320.5" font-family="Helvetica,sans-Serif" font-size="10.00">_model.h</text>
</a>
</g>
</g>
<!-- Node1&#45;&gt;Node8 -->
<g id="edge7" class="edge">
<title>Node1&#45;&gt;Node8</title>
<path fill="none" stroke="midnightblue" d="M1403.09,-376.72C1426.95,-367.06 1460.21,-353.6 1485.11,-343.52"/>
<polygon fill="midnightblue" stroke="midnightblue" points="1401.77,-373.48 1393.81,-380.48 1404.4,-379.97 1401.77,-373.48"/>
</g>
<!-- Node12 -->
<g id="node12" class="node">
<title>Node12</title>
<g id="a_node12"><a xlink:href="default__disease__model_8h.html" target="_top" xlink:title=" ">
<polygon fill="none" stroke="black" points="1665.25,-313.5 1665.25,-343.5 1814.25,-343.5 1814.25,-313.5 1665.25,-313.5"/>
<text text-anchor="start" x="1673.25" y="-331.5" font-family="Helvetica,sans-Serif" font-size="10.00">HealthGPS/default_disease</text>
<text text-anchor="middle" x="1739.75" y="-320.5" font-family="Helvetica,sans-Serif" font-size="10.00">_model.h</text>
</a>
</g>
</g>
<!-- Node1&#45;&gt;Node12 -->
<g id="edge12" class="edge">
<title>Node1&#45;&gt;Node12</title>
<path fill="none" stroke="midnightblue" d="M1435.23,-378.87C1498.8,-368.57 1597.34,-352.59 1665.01,-341.62"/>
<polygon fill="midnightblue" stroke="midnightblue" points="1434.65,-375.42 1425.34,-380.48 1435.77,-382.33 1434.65,-375.42"/>
</g>
<!-- Node14 -->
<g id="node14" class="node">
<title>Node14</title>
<g id="a_node14"><a xlink:href="repository_8h.html" target="_top" xlink:title=" ">
<polygon fill="none" stroke="black" points="635.75,-319 635.75,-338 763.75,-338 763.75,-319 635.75,-319"/>
<text text-anchor="middle" x="699.75" y="-326" font-family="Helvetica,sans-Serif" font-size="10.00">HealthGPS/repository.h</text>
</a>
</g>
</g>
<!-- Node1&#45;&gt;Node14 -->
<g id="edge15" class="edge">
<title>Node1&#45;&gt;Node14</title>
<path fill="none" stroke="midnightblue" d="M1277.98,-380.62C1138.86,-368.32 883,-345.7 763.89,-335.17"/>
<polygon fill="midnightblue" stroke="midnightblue" points="1277.93,-384.13 1288.2,-381.52 1278.55,-377.16 1277.93,-384.13"/>
</g>
<!-- Node3 -->
<g id="node3" class="node">
<title>Node3</title>
<g id="a_node3"><a xlink:href="analysis__module_8cpp.html" target="_top" xlink:title=" ">
<polygon fill="none" stroke="black" points="842.75,-179.5 842.75,-209.5 954.75,-209.5 954.75,-179.5 842.75,-179.5"/>
<text text-anchor="start" x="850.75" y="-197.5" font-family="Helvetica,sans-Serif" font-size="10.00">HealthGPS/analysis</text>
<text text-anchor="middle" x="898.75" y="-186.5" font-family="Helvetica,sans-Serif" font-size="10.00">_module.cpp</text>
</a>
</g>
</g>
<!-- Node2&#45;&gt;Node3 -->
<g id="edge2" class="edge">
<title>Node2&#45;&gt;Node3</title>
<path fill="none" stroke="midnightblue" d="M1282.38,-310.96C1262.55,-288.34 1228.41,-250.06 1220.75,-246 1175.71,-222.09 1034.46,-206.82 954.82,-199.87"/>
<polygon fill="midnightblue" stroke="midnightblue" points="1279.97,-313.53 1289.19,-318.76 1285.25,-308.93 1279.97,-313.53"/>
</g>
<!-- Node4 -->
<g id="node4" class="node">
<title>Node4</title>
<g id="a_node4"><a xlink:href="converter_8cpp.html" target="_top" xlink:title=" ">
<polygon fill="none" stroke="black" points="1344.25,-252 1344.25,-271 1481.25,-271 1481.25,-252 1344.25,-252"/>
<text text-anchor="middle" x="1412.75" y="-259" font-family="Helvetica,sans-Serif" font-size="10.00">HealthGPS/converter.cpp</text>
</a>
</g>
</g>
<!-- Node2&#45;&gt;Node4 -->
<g id="edge3" class="edge">
<title>Node2&#45;&gt;Node4</title>
<path fill="none" stroke="midnightblue" d="M1321.23,-313.79C1344.22,-300.9 1377.91,-282.02 1397.36,-271.13"/>
<polygon fill="midnightblue" stroke="midnightblue" points="1319.41,-310.79 1312.4,-318.73 1322.83,-316.9 1319.41,-310.79"/>
</g>
<!-- Node5 -->
<g id="node5" class="node">
<title>Node5</title>
<g id="a_node5"><a xlink:href="demographic_8cpp.html" target="_top" xlink:title=" ">
<polygon fill="none" stroke="black" points="1079.25,-185 1079.25,-204 1234.25,-204 1234.25,-185 1079.25,-185"/>
<text text-anchor="middle" x="1156.75" y="-192" font-family="Helvetica,sans-Serif" font-size="10.00">HealthGPS/demographic.cpp</text>
</a>
</g>
</g>
<!-- Node2&#45;&gt;Node5 -->
<g id="edge4" class="edge">
<title>Node2&#45;&gt;Node5</title>
<path fill="none" stroke="midnightblue" d="M1290.77,-309.24C1284.12,-291.29 1271.87,-264.02 1253.75,-246 1233.69,-226.05 1204.13,-212.22 1182.91,-204.14"/>
<polygon fill="midnightblue" stroke="midnightblue" points="1287.52,-310.54 1294.12,-318.83 1294.13,-308.23 1287.52,-310.54"/>
</g>
<!-- Node6 -->
<g id="node6" class="node">
<title>Node6</title>
<g id="a_node6"><a xlink:href="healthgps_8cpp.html" target="_top" xlink:title=" ">
<polygon fill="none" stroke="black" points="1101.75,-56.5 1101.75,-75.5 1241.75,-75.5 1241.75,-56.5 1101.75,-56.5"/>
<text text-anchor="middle" x="1171.75" y="-63.5" font-family="Helvetica,sans-Serif" font-size="10.00">HealthGPS/healthgps.cpp</text>
</a>
</g>
</g>
<!-- Node2&#45;&gt;Node6 -->
<g id="edge5" class="edge">
<title>Node2&#45;&gt;Node6</title>
<path fill="none" stroke="midnightblue" d="M1294.03,-308.57C1291.27,-291.79 1286.33,-266.8 1278.75,-246 1252.85,-174.9 1197.92,-100.59 1178.63,-75.7"/>
<polygon fill="midnightblue" stroke="midnightblue" points="1290.61,-309.37 1295.59,-318.72 1297.53,-308.31 1290.61,-309.37"/>
</g>
<!-- Node7 -->
<g id="node7" class="node">
<title>Node7</title>
<g id="a_node7"><a xlink:href="repository_8cpp.html" target="_top" xlink:title=" ">
<polygon fill="none" stroke="black" points="1071.75,-252 1071.75,-271 1211.75,-271 1211.75,-252 1071.75,-252"/>
<text text-anchor="middle" x="1141.75" y="-259" font-family="Helvetica,sans-Serif" font-size="10.00">HealthGPS/repository.cpp</text>
</a>
</g>
</g>
<!-- Node2&#45;&gt;Node7 -->
<g id="edge6" class="edge">
<title>Node2&#45;&gt;Node7</title>
<path fill="none" stroke="midnightblue" d="M1266.82,-314.95C1236.13,-302.08 1189.21,-282.4 1162.42,-271.17"/>
<polygon fill="midnightblue" stroke="midnightblue" points="1265.59,-318.23 1276.17,-318.87 1268.3,-311.77 1265.59,-318.23"/>
</g>
<!-- Node8&#45;&gt;Node4 -->
<g id="edge8" class="edge">
<title>Node8&#45;&gt;Node4</title>
<path fill="none" stroke="midnightblue" d="M1487.89,-308.14C1467.55,-295.79 1442.2,-280.39 1426.76,-271.01"/>
<polygon fill="midnightblue" stroke="midnightblue" points="1486.17,-311.2 1496.54,-313.4 1489.81,-305.21 1486.17,-311.2"/>
</g>
<!-- Node9 -->
<g id="node9" class="node">
<title>Node9</title>
<g id="a_node9"><a xlink:href="default__cancer__model_8cpp.html" target="_top" xlink:title=" ">
<polygon fill="none" stroke="black" points="1499.25,-246.5 1499.25,-276.5 1642.25,-276.5 1642.25,-246.5 1499.25,-246.5"/>
<text text-anchor="start" x="1507.25" y="-264.5" font-family="Helvetica,sans-Serif" font-size="10.00">HealthGPS/default_cancer</text>
<text text-anchor="middle" x="1570.75" y="-253.5" font-family="Helvetica,sans-Serif" font-size="10.00">_model.cpp</text>
</a>
</g>
</g>
<!-- Node8&#45;&gt;Node9 -->
<g id="edge9" class="edge">
<title>Node8&#45;&gt;Node9</title>
<path fill="none" stroke="midnightblue" d="M1537.06,-305.45C1544.55,-295.9 1553.1,-285 1559.71,-276.58"/>
<polygon fill="midnightblue" stroke="midnightblue" points="1534.24,-303.37 1530.82,-313.4 1539.75,-307.69 1534.24,-303.37"/>
</g>
<!-- Node10 -->
<g id="node10" class="node">
<title>Node10</title>
<g id="a_node10"><a xlink:href="disease__registry_8h.html" target="_top" xlink:title=" ">
<polygon fill="none" stroke="black" points="1660.25,-252 1660.25,-271 1819.25,-271 1819.25,-252 1660.25,-252"/>
<text text-anchor="middle" x="1739.75" y="-259" font-family="Helvetica,sans-Serif" font-size="10.00">HealthGPS/disease_registry.h</text>
</a>
</g>
</g>
<!-- Node8&#45;&gt;Node10 -->
<g id="edge10" class="edge">
<title>Node8&#45;&gt;Node10</title>
<path fill="none" stroke="midnightblue" d="M1576.99,-310.59C1619.95,-297.9 1676.99,-281.04 1710.89,-271.03"/>
<polygon fill="midnightblue" stroke="midnightblue" points="1575.82,-307.29 1567.22,-313.48 1577.8,-314 1575.82,-307.29"/>
</g>
<!-- Node11 -->
<g id="node11" class="node">
<title>Node11</title>
<g id="a_node11"><a xlink:href="disease_8cpp.html" target="_top" xlink:title=" ">
<polygon fill="none" stroke="black" points="1509.25,-185 1509.25,-204 1638.25,-204 1638.25,-185 1509.25,-185"/>
<text text-anchor="middle" x="1573.75" y="-192" font-family="Helvetica,sans-Serif" font-size="10.00">HealthGPS/disease.cpp</text>
</a>
</g>
</g>
<!-- Node10&#45;&gt;Node11 -->
<g id="edge11" class="edge">
<title>Node10&#45;&gt;Node11</title>
<path fill="none" stroke="midnightblue" d="M1708.1,-248.1C1675.14,-235.2 1624.39,-215.33 1595.62,-204.06"/>
<polygon fill="midnightblue" stroke="midnightblue" points="1707.12,-251.48 1717.71,-251.87 1709.67,-244.96 1707.12,-251.48"/>
</g>
<!-- Node12&#45;&gt;Node10 -->
<g id="edge14" class="edge">
<title>Node12&#45;&gt;Node10</title>
<path fill="none" stroke="midnightblue" d="M1739.75,-303.25C1739.75,-292.02 1739.75,-279.38 1739.75,-271.19"/>
<polygon fill="midnightblue" stroke="midnightblue" points="1736.25,-303.4 1739.75,-313.4 1743.25,-303.4 1736.25,-303.4"/>
</g>
<!-- Node13 -->
<g id="node13" class="node">
<title>Node13</title>
<g id="a_node13"><a xlink:href="default__disease__model_8cpp.html" target="_top" xlink:title=" ">
<polygon fill="none" stroke="black" points="1837.25,-246.5 1837.25,-276.5 1986.25,-276.5 1986.25,-246.5 1837.25,-246.5"/>
<text text-anchor="start" x="1845.25" y="-264.5" font-family="Helvetica,sans-Serif" font-size="10.00">HealthGPS/default_disease</text>
<text text-anchor="middle" x="1911.75" y="-253.5" font-family="Helvetica,sans-Serif" font-size="10.00">_model.cpp</text>
</a>
</g>
</g>
<!-- Node12&#45;&gt;Node13 -->
<g id="edge13" class="edge">
<title>Node12&#45;&gt;Node13</title>
<path fill="none" stroke="midnightblue" d="M1786.54,-309.82C1814.19,-299.37 1848.71,-286.32 1874.5,-276.58"/>
<polygon fill="midnightblue" stroke="midnightblue" points="1785.19,-306.59 1777.07,-313.4 1787.67,-313.13 1785.19,-306.59"/>
</g>
<!-- Node14&#45;&gt;Node7 -->
<g id="edge37" class="edge">
<title>Node14&#45;&gt;Node7</title>
<path fill="none" stroke="midnightblue" d="M773.89,-318.14C847.35,-308.64 963.01,-293.08 1062.75,-277 1073.9,-275.2 1085.91,-273.09 1097.11,-271.04"/>
<polygon fill="midnightblue" stroke="midnightblue" points="773.28,-314.69 763.81,-319.44 774.18,-321.63 773.28,-314.69"/>
</g>
<!-- Node15 -->
<g id="node15" class="node">
<title>Node15</title>
<g id="a_node15"><a xlink:href="analysis__module_8h.html" target="_top" xlink:title=" ">
<polygon fill="none" stroke="black" points="643.75,-246.5 643.75,-276.5 755.75,-276.5 755.75,-246.5 643.75,-246.5"/>
<text text-anchor="start" x="651.75" y="-264.5" font-family="Helvetica,sans-Serif" font-size="10.00">HealthGPS/analysis</text>
<text text-anchor="middle" x="699.75" y="-253.5" font-family="Helvetica,sans-Serif" font-size="10.00">_module.h</text>
</a>
</g>
</g>
<!-- Node14&#45;&gt;Node15 -->
<g id="edge16" class="edge">
<title>Node14&#45;&gt;Node15</title>
<path fill="none" stroke="midnightblue" d="M699.75,-308.41C699.75,-298.22 699.75,-285.9 699.75,-276.59"/>
<polygon fill="midnightblue" stroke="midnightblue" points="696.25,-308.73 699.75,-318.73 703.25,-308.73 696.25,-308.73"/>
</g>
<!-- Node23 -->
<g id="node23" class="node">
<title>Node23</title>
<g id="a_node23"><a xlink:href="demographic_8h.html" target="_top" xlink:title=" ">
<polygon fill="none" stroke="black" points="773.75,-252 773.75,-271 917.75,-271 917.75,-252 773.75,-252"/>
<text text-anchor="middle" x="845.75" y="-259" font-family="Helvetica,sans-Serif" font-size="10.00">HealthGPS/demographic.h</text>
</a>
</g>
</g>
<!-- Node14&#45;&gt;Node23 -->
<g id="edge28" class="edge">
<title>Node14&#45;&gt;Node23</title>
<path fill="none" stroke="midnightblue" d="M728.32,-314.78C757.24,-301.91 801.16,-282.35 826.29,-271.17"/>
<polygon fill="midnightblue" stroke="midnightblue" points="726.85,-311.6 719.14,-318.87 729.7,-318 726.85,-311.6"/>
</g>
<!-- Node24 -->
<g id="node24" class="node">
<title>Node24</title>
<g id="a_node24"><a xlink:href="HealthGPS_2disease_8h.html" target="_top" xlink:title=" ">
<polygon fill="none" stroke="black" points="935.75,-252 935.75,-271 1053.75,-271 1053.75,-252 935.75,-252"/>
<text text-anchor="middle" x="994.75" y="-259" font-family="Helvetica,sans-Serif" font-size="10.00">HealthGPS/disease.h</text>
</a>
</g>
</g>
<!-- Node14&#45;&gt;Node24 -->
<g id="edge31" class="edge">
<title>Node14&#45;&gt;Node24</title>
<path fill="none" stroke="midnightblue" d="M748.66,-316.72C806.75,-303.92 902.47,-282.83 955.8,-271.08"/>
<polygon fill="midnightblue" stroke="midnightblue" points="747.64,-313.37 738.62,-318.94 749.14,-320.2 747.64,-313.37"/>
</g>
<!-- Node25 -->
<g id="node25" class="node">
<title>Node25</title>
<g id="a_node25"><a xlink:href="modulefactory_8h.html" target="_top" xlink:title=" ">
<polygon fill="none" stroke="black" points="193.75,-252 193.75,-271 343.75,-271 343.75,-252 193.75,-252"/>
<text text-anchor="middle" x="268.75" y="-259" font-family="Helvetica,sans-Serif" font-size="10.00">HealthGPS/modulefactory.h</text>
</a>
</g>
</g>
<!-- Node14&#45;&gt;Node25 -->
<g id="edge34" class="edge">
<title>Node14&#45;&gt;Node25</title>
<path fill="none" stroke="midnightblue" d="M627.55,-317.56C557.3,-307.75 447.59,-292.08 352.75,-277 341.06,-275.14 328.47,-273.03 316.69,-271"/>
<polygon fill="midnightblue" stroke="midnightblue" points="627.23,-321.05 637.62,-318.96 628.2,-314.12 627.23,-321.05"/>
</g>
<!-- Node27 -->
<g id="node27" class="node">
<title>Node27</title>
<g id="a_node27"><a xlink:href="riskfactor_8h.html" target="_top" xlink:title=" ">
<polygon fill="none" stroke="black" points="361.75,-252 361.75,-271 487.75,-271 487.75,-252 361.75,-252"/>
<text text-anchor="middle" x="424.75" y="-259" font-family="Helvetica,sans-Serif" font-size="10.00">HealthGPS/riskfactor.h</text>
</a>
</g>
</g>
<!-- Node14&#45;&gt;Node27 -->
<g id="edge38" class="edge">
<title>Node14&#45;&gt;Node27</title>
<path fill="none" stroke="midnightblue" d="M653.49,-316.56C599.27,-303.75 510.57,-282.78 461.07,-271.08"/>
<polygon fill="midnightblue" stroke="midnightblue" points="652.98,-320.04 663.52,-318.94 654.59,-313.23 652.98,-320.04"/>
</g>
<!-- Node29 -->
<g id="node29" class="node">
<title>Node29</title>
<g id="a_node29"><a xlink:href="ses__noise__module_8h.html" target="_top" xlink:title=" ">
<polygon fill="none" stroke="black" points="506.25,-246.5 506.25,-276.5 625.25,-276.5 625.25,-246.5 506.25,-246.5"/>
<text text-anchor="start" x="514.25" y="-264.5" font-family="Helvetica,sans-Serif" font-size="10.00">HealthGPS/ses_noise</text>
<text text-anchor="middle" x="565.75" y="-253.5" font-family="Helvetica,sans-Serif" font-size="10.00">_module.h</text>
</a>
</g>
</g>
<!-- Node14&#45;&gt;Node29 -->
<g id="edge41" class="edge">
<title>Node14&#45;&gt;Node29</title>
<path fill="none" stroke="midnightblue" d="M672.9,-314.47C650.25,-303.49 617.89,-287.79 594.67,-276.53"/>
<polygon fill="midnightblue" stroke="midnightblue" points="671.43,-317.65 681.96,-318.87 674.49,-311.35 671.43,-317.65"/>
</g>
<!-- Node31 -->
<g id="node31" class="node">
<title>Node31</title>
<g id="a_node31"><a xlink:href="model__parser_8h.html" target="_top" xlink:title=" ">
<polygon fill="none" stroke="black" points="14.75,-246.5 14.75,-276.5 158.75,-276.5 158.75,-246.5 14.75,-246.5"/>
<text text-anchor="start" x="22.75" y="-264.5" font-family="Helvetica,sans-Serif" font-size="10.00">HealthGPS.Console/model</text>
<text text-anchor="middle" x="86.75" y="-253.5" font-family="Helvetica,sans-Serif" font-size="10.00">_parser.h</text>
</a>
</g>
</g>
<!-- Node14&#45;&gt;Node31 -->
<g id="edge44" class="edge">
<title>Node14&#45;&gt;Node31</title>
<path fill="none" stroke="midnightblue" d="M625.38,-321.36C525.15,-312.83 341.22,-296.23 184.75,-277 176.39,-275.97 167.64,-274.81 158.95,-273.59"/>
<polygon fill="midnightblue" stroke="midnightblue" points="625.15,-324.86 635.41,-322.21 625.74,-317.88 625.15,-324.86"/>
</g>
<!-- Node15&#45;&gt;Node3 -->
<g id="edge17" class="edge">
<title>Node15&#45;&gt;Node3</title>
<path fill="none" stroke="midnightblue" d="M752.63,-243.23C784.82,-232.71 825.43,-219.45 855.66,-209.58"/>
<polygon fill="midnightblue" stroke="midnightblue" points="751.35,-239.96 742.93,-246.4 753.53,-246.62 751.35,-239.96"/>
</g>
<!-- Node16 -->
<g id="node16" class="node">
<title>Node16</title>
<g id="a_node16"><a xlink:href="simulation__module_8h.html" target="_top" xlink:title=" ">
<polygon fill="none" stroke="black" points="648.25,-179.5 648.25,-209.5 771.25,-209.5 771.25,-179.5 648.25,-179.5"/>
<text text-anchor="start" x="656.25" y="-197.5" font-family="Helvetica,sans-Serif" font-size="10.00">HealthGPS/simulation</text>
<text text-anchor="middle" x="709.75" y="-186.5" font-family="Helvetica,sans-Serif" font-size="10.00">_module.h</text>
</a>
</g>
</g>
<!-- Node15&#45;&gt;Node16 -->
<g id="edge18" class="edge">
<title>Node15&#45;&gt;Node16</title>
<path fill="none" stroke="midnightblue" d="M703.46,-236.4C704.85,-227.37 706.38,-217.41 707.59,-209.58"/>
<polygon fill="midnightblue" stroke="midnightblue" points="699.98,-235.98 701.92,-246.4 706.9,-237.04 699.98,-235.98"/>
</g>
<!-- Node17 -->
<g id="node17" class="node">
<title>Node17</title>
<g id="a_node17"><a xlink:href="HealthGPS_2api_8h.html" target="_top" xlink:title=" ">
<polygon fill="none" stroke="black" points="579.25,-56.5 579.25,-75.5 674.25,-75.5 674.25,-56.5 579.25,-56.5"/>
<text text-anchor="middle" x="626.75" y="-63.5" font-family="Helvetica,sans-Serif" font-size="10.00">HealthGPS/api.h</text>
</a>
</g>
</g>
<!-- Node16&#45;&gt;Node17 -->
<g id="edge19" class="edge">
<title>Node16&#45;&gt;Node17</title>
<path fill="none" stroke="midnightblue" d="M671.91,-174.01C659.84,-165.99 647.6,-155.59 639.75,-143 626.44,-121.65 625.67,-90.67 626.2,-75.72"/>
<polygon fill="midnightblue" stroke="midnightblue" points="670.26,-177.11 680.6,-179.44 673.97,-171.17 670.26,-177.11"/>
</g>
<!-- Node19 -->
<g id="node19" class="node">
<title>Node19</title>
<g id="a_node19"><a xlink:href="healthgps_8h.html" target="_top" xlink:title=" ">
<polygon fill="none" stroke="black" points="789.75,-118 789.75,-137 917.75,-137 917.75,-118 789.75,-118"/>
<text text-anchor="middle" x="853.75" y="-125" font-family="Helvetica,sans-Serif" font-size="10.00">HealthGPS/healthgps.h</text>
</a>
</g>
</g>
<!-- Node16&#45;&gt;Node19 -->
<g id="edge21" class="edge">
<title>Node16&#45;&gt;Node19</title>
<path fill="none" stroke="midnightblue" d="M750.45,-175.13C778.16,-162.62 813.57,-146.64 834.91,-137.01"/>
<polygon fill="midnightblue" stroke="midnightblue" points="748.67,-172.09 741,-179.4 751.55,-178.47 748.67,-172.09"/>
</g>
<!-- Node22 -->
<g id="node22" class="node">
<title>Node22</title>
<g id="a_node22"><a xlink:href="simulation__module_8cpp.html" target="_top" xlink:title=" ">
<polygon fill="none" stroke="black" points="648.25,-112.5 648.25,-142.5 771.25,-142.5 771.25,-112.5 648.25,-112.5"/>
<text text-anchor="start" x="656.25" y="-130.5" font-family="Helvetica,sans-Serif" font-size="10.00">HealthGPS/simulation</text>
<text text-anchor="middle" x="709.75" y="-119.5" font-family="Helvetica,sans-Serif" font-size="10.00">_module.cpp</text>
</a>
</g>
</g>
<!-- Node16&#45;&gt;Node22 -->
<g id="edge27" class="edge">
<title>Node16&#45;&gt;Node22</title>
<path fill="none" stroke="midnightblue" d="M709.75,-169.11C709.75,-160.15 709.75,-150.32 709.75,-142.58"/>
<polygon fill="midnightblue" stroke="midnightblue" points="706.25,-169.4 709.75,-179.4 713.25,-169.4 706.25,-169.4"/>
</g>
<!-- Node18 -->
<g id="node18" class="node">
<title>Node18</title>
<g id="a_node18"><a xlink:href="program_8cpp.html" target="_top" xlink:title=" ">
<polygon fill="none" stroke="black" points="539.25,-0.5 539.25,-19.5 714.25,-19.5 714.25,-0.5 539.25,-0.5"/>
<text text-anchor="middle" x="626.75" y="-7.5" font-family="Helvetica,sans-Serif" font-size="10.00">HealthGPS.Console/program.cpp</text>
</a>
</g>
</g>
<!-- Node17&#45;&gt;Node18 -->
<g id="edge20" class="edge">
<title>Node17&#45;&gt;Node18</title>
<path fill="none" stroke="midnightblue" d="M626.75,-45.8C626.75,-36.91 626.75,-26.78 626.75,-19.75"/>
<polygon fill="midnightblue" stroke="midnightblue" points="623.25,-46.08 626.75,-56.08 630.25,-46.08 623.25,-46.08"/>
</g>
<!-- Node19&#45;&gt;Node6 -->
<g id="edge23" class="edge">
<title>Node19&#45;&gt;Node6</title>
<path fill="none" stroke="midnightblue" d="M909.25,-116.12C970.83,-104.59 1069.05,-86.22 1126.28,-75.51"/>
<polygon fill="midnightblue" stroke="midnightblue" points="908.5,-112.7 899.31,-117.98 909.79,-119.58 908.5,-112.7"/>
</g>
<!-- Node19&#45;&gt;Node17 -->
<g id="edge22" class="edge">
<title>Node19&#45;&gt;Node17</title>
<path fill="none" stroke="midnightblue" d="M811.39,-115.4C767.3,-103.84 699.22,-86 659.22,-75.51"/>
<polygon fill="midnightblue" stroke="midnightblue" points="810.67,-118.83 821.23,-117.98 812.44,-112.05 810.67,-118.83"/>
</g>
<!-- Node20 -->
<g id="node20" class="node">
<title>Node20</title>
<g id="a_node20"><a xlink:href="configuration_8h.html" target="_top" xlink:title=" ">
<polygon fill="none" stroke="black" points="752.75,-56.5 752.75,-75.5 938.75,-75.5 938.75,-56.5 752.75,-56.5"/>
<text text-anchor="middle" x="845.75" y="-63.5" font-family="Helvetica,sans-Serif" font-size="10.00">HealthGPS.Console/configuration.h</text>
</a>
</g>
</g>
<!-- Node19&#45;&gt;Node20 -->
<g id="edge24" class="edge">
<title>Node19&#45;&gt;Node20</title>
<path fill="none" stroke="midnightblue" d="M851.24,-107.82C849.79,-97 848.03,-83.9 846.9,-75.51"/>
<polygon fill="midnightblue" stroke="midnightblue" points="847.81,-108.53 852.61,-117.98 854.74,-107.6 847.81,-108.53"/>
</g>
<!-- Node20&#45;&gt;Node18 -->
<g id="edge26" class="edge">
<title>Node20&#45;&gt;Node18</title>
<path fill="none" stroke="midnightblue" d="M801.24,-54.02C759.87,-43.82 699.11,-28.84 661.29,-19.52"/>
<polygon fill="midnightblue" stroke="midnightblue" points="800.5,-57.45 811.05,-56.44 802.18,-50.65 800.5,-57.45"/>
</g>
<!-- Node21 -->
<g id="node21" class="node">
<title>Node21</title>
<g id="a_node21"><a xlink:href="configuration_8cpp.html" target="_top" xlink:title=" ">
<polygon fill="none" stroke="black" points="747.25,-0.5 747.25,-19.5 944.25,-19.5 944.25,-0.5 747.25,-0.5"/>
<text text-anchor="middle" x="845.75" y="-7.5" font-family="Helvetica,sans-Serif" font-size="10.00">HealthGPS.Console/configuration.cpp</text>
</a>
</g>
</g>
<!-- Node20&#45;&gt;Node21 -->
<g id="edge25" class="edge">
<title>Node20&#45;&gt;Node21</title>
<path fill="none" stroke="midnightblue" d="M845.75,-45.8C845.75,-36.91 845.75,-26.78 845.75,-19.75"/>
<polygon fill="midnightblue" stroke="midnightblue" points="842.25,-46.08 845.75,-56.08 849.25,-46.08 842.25,-46.08"/>
</g>
<!-- Node23&#45;&gt;Node5 -->
<g id="edge29" class="edge">
<title>Node23&#45;&gt;Node5</title>
<path fill="none" stroke="midnightblue" d="M896.56,-249.88C957.72,-237.1 1059.23,-215.88 1115.68,-204.08"/>
<polygon fill="midnightblue" stroke="midnightblue" points="895.8,-246.46 886.73,-251.94 897.24,-253.32 895.8,-246.46"/>
</g>
<!-- Node23&#45;&gt;Node16 -->
<g id="edge30" class="edge">
<title>Node23&#45;&gt;Node16</title>
<path fill="none" stroke="midnightblue" d="M818.5,-247.47C795.51,-236.49 762.67,-220.79 739.1,-209.53"/>
<polygon fill="midnightblue" stroke="midnightblue" points="817.16,-250.71 827.69,-251.87 820.18,-244.4 817.16,-250.71"/>
</g>
<!-- Node24&#45;&gt;Node11 -->
<g id="edge32" class="edge">
<title>Node24&#45;&gt;Node11</title>
<path fill="none" stroke="midnightblue" d="M1040.78,-249.96C1048.11,-248.49 1055.62,-247.11 1062.75,-246 1222.19,-221.2 1411.62,-206.23 1508.93,-199.58"/>
<polygon fill="midnightblue" stroke="midnightblue" points="1040.04,-246.54 1030.96,-252 1041.47,-253.39 1040.04,-246.54"/>
</g>
<!-- Node24&#45;&gt;Node16 -->
<g id="edge33" class="edge">
<title>Node24&#45;&gt;Node16</title>
<path fill="none" stroke="midnightblue" d="M947.34,-249.69C899.12,-238.69 824.19,-221.6 771.4,-209.56"/>
<polygon fill="midnightblue" stroke="midnightblue" points="946.67,-253.12 957.2,-251.94 948.23,-246.3 946.67,-253.12"/>
</g>
<!-- Node25&#45;&gt;Node16 -->
<g id="edge36" class="edge">
<title>Node25&#45;&gt;Node16</title>
<path fill="none" stroke="midnightblue" d="M325.82,-250.28C334.82,-248.78 344.03,-247.3 352.75,-246 479.91,-227.06 512.93,-231.05 639.75,-210 642.45,-209.55 645.19,-209.08 647.97,-208.58"/>
<polygon fill="midnightblue" stroke="midnightblue" points="325.06,-246.86 315.78,-251.99 326.23,-253.77 325.06,-246.86"/>
</g>
<!-- Node26 -->
<g id="node26" class="node">
<title>Node26</title>
<g id="a_node26"><a xlink:href="modulefactory_8cpp.html" target="_top" xlink:title=" ">
<polygon fill="none" stroke="black" points="177.25,-185 177.25,-204 338.25,-204 338.25,-185 177.25,-185"/>
<text text-anchor="middle" x="257.75" y="-192" font-family="Helvetica,sans-Serif" font-size="10.00">HealthGPS/modulefactory.cpp</text>
</a>
</g>
</g>
<!-- Node25&#45;&gt;Node26 -->
<g id="edge35" class="edge">
<title>Node25&#45;&gt;Node26</title>
<path fill="none" stroke="midnightblue" d="M265.54,-241.54C263.45,-229.17 260.82,-213.62 259.21,-204.13"/>
<polygon fill="midnightblue" stroke="midnightblue" points="262.15,-242.46 267.27,-251.73 269.05,-241.29 262.15,-242.46"/>
</g>
<!-- Node27&#45;&gt;Node16 -->
<g id="edge40" class="edge">
<title>Node27&#45;&gt;Node16</title>
<path fill="none" stroke="midnightblue" d="M472.17,-249.69C520.39,-238.69 595.31,-221.6 648.11,-209.56"/>
<polygon fill="midnightblue" stroke="midnightblue" points="471.28,-246.3 462.3,-251.94 472.83,-253.12 471.28,-246.3"/>
</g>
<!-- Node28 -->
<g id="node28" class="node">
<title>Node28</title>
<g id="a_node28"><a xlink:href="riskfactor_8cpp.html" target="_top" xlink:title=" ">
<polygon fill="none" stroke="black" points="356.25,-185 356.25,-204 493.25,-204 493.25,-185 356.25,-185"/>
<text text-anchor="middle" x="424.75" y="-192" font-family="Helvetica,sans-Serif" font-size="10.00">HealthGPS/riskfactor.cpp</text>
</a>
</g>
</g>
<!-- Node27&#45;&gt;Node28 -->
<g id="edge39" class="edge">
<title>Node27&#45;&gt;Node28</title>
<path fill="none" stroke="midnightblue" d="M424.75,-241.54C424.75,-229.17 424.75,-213.62 424.75,-204.13"/>
<polygon fill="midnightblue" stroke="midnightblue" points="421.25,-241.73 424.75,-251.73 428.25,-241.73 421.25,-241.73"/>
</g>
<!-- Node29&#45;&gt;Node16 -->
<g id="edge43" class="edge">
<title>Node29&#45;&gt;Node16</title>
<path fill="none" stroke="midnightblue" d="M606.14,-242.27C629.08,-231.92 657.35,-219.15 678.57,-209.58"/>
<polygon fill="midnightblue" stroke="midnightblue" points="604.67,-239.09 597,-246.4 607.55,-245.47 604.67,-239.09"/>
</g>
<!-- Node30 -->
<g id="node30" class="node">
<title>Node30</title>
<g id="a_node30"><a xlink:href="ses__noise__module_8cpp.html" target="_top" xlink:title=" ">
<polygon fill="none" stroke="black" points="511.25,-179.5 511.25,-209.5 630.25,-209.5 630.25,-179.5 511.25,-179.5"/>
<text text-anchor="start" x="519.25" y="-197.5" font-family="Helvetica,sans-Serif" font-size="10.00">HealthGPS/ses_noise</text>
<text text-anchor="middle" x="570.75" y="-186.5" font-family="Helvetica,sans-Serif" font-size="10.00">_module.cpp</text>
</a>
</g>
</g>
<!-- Node29&#45;&gt;Node30 -->
<g id="edge42" class="edge">
<title>Node29&#45;&gt;Node30</title>
<path fill="none" stroke="midnightblue" d="M567.61,-236.4C568.3,-227.37 569.07,-217.41 569.67,-209.58"/>
<polygon fill="midnightblue" stroke="midnightblue" points="564.12,-236.16 566.84,-246.4 571.09,-236.69 564.12,-236.16"/>
</g>
<!-- Node31&#45;&gt;Node18 -->
<g id="edge46" class="edge">
<title>Node31&#45;&gt;Node18</title>
<path fill="none" stroke="midnightblue" d="M38.99,-241.45C25.86,-233.74 13.2,-223.42 5.75,-210 -0.93,-197.95 -2.62,-189.94 5.75,-179 72.87,-91.31 406.85,-38.85 555.35,-19.52"/>
<polygon fill="midnightblue" stroke="midnightblue" points="37.64,-244.69 48.1,-246.37 40.97,-238.54 37.64,-244.69"/>
</g>
<!-- Node32 -->
<g id="node32" class="node">
<title>Node32</title>
<g id="a_node32"><a xlink:href="model__parser_8cpp.html" target="_top" xlink:title=" ">
<polygon fill="none" stroke="black" points="14.75,-179.5 14.75,-209.5 158.75,-209.5 158.75,-179.5 14.75,-179.5"/>
<text text-anchor="start" x="22.75" y="-197.5" font-family="Helvetica,sans-Serif" font-size="10.00">HealthGPS.Console/model</text>
<text text-anchor="middle" x="86.75" y="-186.5" font-family="Helvetica,sans-Serif" font-size="10.00">_parser.cpp</text>
</a>
</g>
</g>
<!-- Node31&#45;&gt;Node32 -->
<g id="edge45" class="edge">
<title>Node31&#45;&gt;Node32</title>
<path fill="none" stroke="midnightblue" d="M86.75,-236.11C86.75,-227.15 86.75,-217.32 86.75,-209.58"/>
<polygon fill="midnightblue" stroke="midnightblue" points="83.25,-236.4 86.75,-246.4 90.25,-236.4 83.25,-236.4"/>
</g>
</g>
</svg>
