<?xml version="1.0" encoding="UTF-8" standalone="no"?>
<!DOCTYPE svg PUBLIC "-//W3C//DTD SVG 1.1//EN"
 "http://www.w3.org/Graphics/SVG/1.1/DTD/svg11.dtd">
<!-- Generated by graphviz version 2.43.0 (0)
 -->
<!-- Title: HealthGPS/energy_balance_model.h Pages: 1 -->
<svg width="572pt" height="419pt"
 viewBox="0.00 0.00 572.00 419.00" xmlns="http://www.w3.org/2000/svg" xmlns:xlink="http://www.w3.org/1999/xlink">
<g id="graph0" class="graph" transform="scale(1 1) rotate(0) translate(4 415)">
<title>HealthGPS/energy_balance_model.h</title>
<!-- Node1 -->
<g id="node1" class="node">
<title>Node1</title>
<g id="a_node1"><a xlink:title=" ">
<polygon fill="#bfbfbf" stroke="black" points="78,-380.5 78,-410.5 227,-410.5 227,-380.5 78,-380.5"/>
<text text-anchor="start" x="86" y="-398.5" font-family="Helvetica,sans-Serif" font-size="10.00">HealthGPS/energy_balance</text>
<text text-anchor="middle" x="152.5" y="-387.5" font-family="Helvetica,sans-Serif" font-size="10.00">_model.h</text>
</a>
</g>
</g>
<!-- Node2 -->
<g id="node2" class="node">
<title>Node2</title>
<g id="a_node2"><a xlink:href="energy__balance__model_8cpp.html" target="_top" xlink:title=" ">
<polygon fill="none" stroke="black" points="0,-313.5 0,-343.5 149,-343.5 149,-313.5 0,-313.5"/>
<text text-anchor="start" x="8" y="-331.5" font-family="Helvetica,sans-Serif" font-size="10.00">HealthGPS/energy_balance</text>
<text text-anchor="middle" x="74.5" y="-320.5" font-family="Helvetica,sans-Serif" font-size="10.00">_model.cpp</text>
</a>
</g>
</g>
<!-- Node1&#45;&gt;Node2 -->
<g id="edge1" class="edge">
<title>Node1&#45;&gt;Node2</title>
<path fill="none" stroke="midnightblue" d="M127.76,-373.88C115.91,-364.01 102.02,-352.43 91.39,-343.58"/>
<polygon fill="midnightblue" stroke="midnightblue" points="125.65,-376.68 135.58,-380.4 130.13,-371.31 125.65,-376.68"/>
</g>
<!-- Node3 -->
<g id="node3" class="node">
<title>Node3</title>
<g id="a_node3"><a xlink:href="hierarchical__model_8h.html" target="_top" xlink:title=" ">
<polygon fill="none" stroke="black" points="167.5,-313.5 167.5,-343.5 295.5,-343.5 295.5,-313.5 167.5,-313.5"/>
<text text-anchor="start" x="175.5" y="-331.5" font-family="Helvetica,sans-Serif" font-size="10.00">HealthGPS/hierarchical</text>
<text text-anchor="middle" x="231.5" y="-320.5" font-family="Helvetica,sans-Serif" font-size="10.00">_model.h</text>
</a>
</g>
</g>
<!-- Node1&#45;&gt;Node3 -->
<g id="edge2" class="edge">
<title>Node1&#45;&gt;Node3</title>
<path fill="none" stroke="midnightblue" d="M177.56,-373.88C189.56,-364.01 203.63,-352.43 214.39,-343.58"/>
<polygon fill="midnightblue" stroke="midnightblue" points="175.14,-371.34 169.64,-380.4 179.59,-376.75 175.14,-371.34"/>
</g>
<!-- Node4 -->
<g id="node4" class="node">
<title>Node4</title>
<g id="a_node4"><a xlink:href="healthgps_8cpp.html" target="_top" xlink:title=" ">
<polygon fill="none" stroke="black" points="66.5,-56.5 66.5,-75.5 206.5,-75.5 206.5,-56.5 66.5,-56.5"/>
<text text-anchor="middle" x="136.5" y="-63.5" font-family="Helvetica,sans-Serif" font-size="10.00">HealthGPS/healthgps.cpp</text>
</a>
</g>
</g>
<!-- Node3&#45;&gt;Node4 -->
<g id="edge3" class="edge">
<title>Node3&#45;&gt;Node4</title>
<path fill="none" stroke="midnightblue" d="M190.65,-308.03C178.34,-300.13 166.09,-289.8 158.5,-277 118.13,-208.88 130.22,-106.21 134.99,-75.79"/>
<polygon fill="midnightblue" stroke="midnightblue" points="189.19,-311.23 199.57,-313.36 192.78,-305.22 189.19,-311.23"/>
</g>
<!-- Node5 -->
<g id="node5" class="node">
<title>Node5</title>
<g id="a_node5"><a xlink:href="hierarchical__model__registry_8h.html" target="_top" xlink:title=" ">
<polygon fill="none" stroke="black" points="167.5,-246.5 167.5,-276.5 295.5,-276.5 295.5,-246.5 167.5,-246.5"/>
<text text-anchor="start" x="175.5" y="-264.5" font-family="Helvetica,sans-Serif" font-size="10.00">HealthGPS/hierarchical</text>
<text text-anchor="middle" x="231.5" y="-253.5" font-family="Helvetica,sans-Serif" font-size="10.00">_model_registry.h</text>
</a>
</g>
</g>
<!-- Node3&#45;&gt;Node5 -->
<g id="edge4" class="edge">
<title>Node3&#45;&gt;Node5</title>
<path fill="none" stroke="midnightblue" d="M231.5,-303.11C231.5,-294.15 231.5,-284.32 231.5,-276.58"/>
<polygon fill="midnightblue" stroke="midnightblue" points="228,-303.4 231.5,-313.4 235,-303.4 228,-303.4"/>
</g>
<!-- Node7 -->
<g id="node7" class="node">
<title>Node7</title>
<g id="a_node7"><a xlink:href="riskfactor_8h.html" target="_top" xlink:title=" ">
<polygon fill="none" stroke="black" points="313.5,-252 313.5,-271 439.5,-271 439.5,-252 313.5,-252"/>
<text text-anchor="middle" x="376.5" y="-259" font-family="Helvetica,sans-Serif" font-size="10.00">HealthGPS/riskfactor.h</text>
</a>
</g>
</g>
<!-- Node3&#45;&gt;Node7 -->
<g id="edge6" class="edge">
<title>Node3&#45;&gt;Node7</title>
<path fill="none" stroke="midnightblue" d="M272.11,-309.3C300.07,-296.76 335.94,-280.68 357.52,-271.01"/>
<polygon fill="midnightblue" stroke="midnightblue" points="270.66,-306.11 262.96,-313.4 273.52,-312.5 270.66,-306.11"/>
</g>
<!-- Node6 -->
<g id="node6" class="node">
<title>Node6</title>
<g id="a_node6"><a xlink:href="riskfactor_8cpp.html" target="_top" xlink:title=" ">
<polygon fill="none" stroke="black" points="168,-185 168,-204 305,-204 305,-185 168,-185"/>
<text text-anchor="middle" x="236.5" y="-192" font-family="Helvetica,sans-Serif" font-size="10.00">HealthGPS/riskfactor.cpp</text>
</a>
</g>
</g>
<!-- Node5&#45;&gt;Node6 -->
<g id="edge5" class="edge">
<title>Node5&#45;&gt;Node6</title>
<path fill="none" stroke="midnightblue" d="M233.37,-236.25C234.23,-225.02 235.2,-212.38 235.83,-204.19"/>
<polygon fill="midnightblue" stroke="midnightblue" points="229.86,-236.16 232.58,-246.4 236.84,-236.69 229.86,-236.16"/>
</g>
<!-- Node7&#45;&gt;Node6 -->
<g id="edge7" class="edge">
<title>Node7&#45;&gt;Node6</title>
<path fill="none" stroke="midnightblue" d="M348.74,-247.61C321.01,-234.74 279.16,-215.31 255.17,-204.17"/>
<polygon fill="midnightblue" stroke="midnightblue" points="347.37,-250.83 357.91,-251.87 350.31,-244.48 347.37,-250.83"/>
</g>
<!-- Node8 -->
<g id="node8" class="node">
<title>Node8</title>
<g id="a_node8"><a xlink:href="simulation__module_8h.html" target="_top" xlink:title=" ">
<polygon fill="none" stroke="black" points="324,-179.5 324,-209.5 447,-209.5 447,-179.5 324,-179.5"/>
<text text-anchor="start" x="332" y="-197.5" font-family="Helvetica,sans-Serif" font-size="10.00">HealthGPS/simulation</text>
<text text-anchor="middle" x="385.5" y="-186.5" font-family="Helvetica,sans-Serif" font-size="10.00">_module.h</text>
</a>
</g>
</g>
<!-- Node7&#45;&gt;Node8 -->
<g id="edge8" class="edge">
<title>Node7&#45;&gt;Node8</title>
<path fill="none" stroke="midnightblue" d="M379.1,-241.74C380.52,-231.49 382.25,-219 383.55,-209.59"/>
<polygon fill="midnightblue" stroke="midnightblue" points="375.62,-241.35 377.71,-251.73 382.55,-242.31 375.62,-241.35"/>
</g>
<!-- Node9 -->
<g id="node9" class="node">
<title>Node9</title>
<g id="a_node9"><a xlink:href="HealthGPS_2api_8h.html" target="_top" xlink:title=" ">
<polygon fill="none" stroke="black" points="429,-56.5 429,-75.5 524,-75.5 524,-56.5 429,-56.5"/>
<text text-anchor="middle" x="476.5" y="-63.5" font-family="Helvetica,sans-Serif" font-size="10.00">HealthGPS/api.h</text>
</a>
</g>
</g>
<!-- Node8&#45;&gt;Node9 -->
<g id="edge9" class="edge">
<title>Node8&#45;&gt;Node9</title>
<path fill="none" stroke="midnightblue" d="M423.87,-173.87C436.24,-165.83 448.94,-155.45 457.5,-143 471.98,-121.93 475.44,-90.82 476.26,-75.78"/>
<polygon fill="midnightblue" stroke="midnightblue" points="421.7,-171.1 415,-179.3 425.35,-177.07 421.7,-171.1"/>
</g>
<!-- Node11 -->
<g id="node11" class="node">
<title>Node11</title>
<g id="a_node11"><a xlink:href="healthgps_8h.html" target="_top" xlink:title=" ">
<polygon fill="none" stroke="black" points="178.5,-118 178.5,-137 306.5,-137 306.5,-118 178.5,-118"/>
<text text-anchor="middle" x="242.5" y="-125" font-family="Helvetica,sans-Serif" font-size="10.00">HealthGPS/healthgps.h</text>
</a>
</g>
</g>
<!-- Node8&#45;&gt;Node11 -->
<g id="edge11" class="edge">
<title>Node8&#45;&gt;Node11</title>
<path fill="none" stroke="midnightblue" d="M345.09,-175.13C317.57,-162.62 282.41,-146.64 261.22,-137.01"/>
<polygon fill="midnightblue" stroke="midnightblue" points="343.92,-178.44 354.47,-179.4 346.82,-172.07 343.92,-178.44"/>
</g>
<!-- Node14 -->
<g id="node14" class="node">
<title>Node14</title>
<g id="a_node14"><a xlink:href="simulation__module_8cpp.html" target="_top" xlink:title=" ">
<polygon fill="none" stroke="black" points="325,-112.5 325,-142.5 448,-142.5 448,-112.5 325,-112.5"/>
<text text-anchor="start" x="333" y="-130.5" font-family="Helvetica,sans-Serif" font-size="10.00">HealthGPS/simulation</text>
<text text-anchor="middle" x="386.5" y="-119.5" font-family="Helvetica,sans-Serif" font-size="10.00">_module.cpp</text>
</a>
</g>
</g>
<!-- Node8&#45;&gt;Node14 -->
<g id="edge17" class="edge">
<title>Node8&#45;&gt;Node14</title>
<path fill="none" stroke="midnightblue" d="M385.88,-169.11C386.01,-160.15 386.16,-150.32 386.28,-142.58"/>
<polygon fill="midnightblue" stroke="midnightblue" points="382.37,-169.34 385.72,-179.4 389.37,-169.45 382.37,-169.34"/>
</g>
<!-- Node10 -->
<g id="node10" class="node">
<title>Node10</title>
<g id="a_node10"><a xlink:href="program_8cpp.html" target="_top" xlink:title=" ">
<polygon fill="none" stroke="black" points="389,-0.5 389,-19.5 564,-19.5 564,-0.5 389,-0.5"/>
<text text-anchor="middle" x="476.5" y="-7.5" font-family="Helvetica,sans-Serif" font-size="10.00">HealthGPS.Console/program.cpp</text>
</a>
</g>
</g>
<!-- Node9&#45;&gt;Node10 -->
<g id="edge10" class="edge">
<title>Node9&#45;&gt;Node10</title>
<path fill="none" stroke="midnightblue" d="M476.5,-45.8C476.5,-36.91 476.5,-26.78 476.5,-19.75"/>
<polygon fill="midnightblue" stroke="midnightblue" points="473,-46.08 476.5,-56.08 480,-46.08 473,-46.08"/>
</g>
<!-- Node11&#45;&gt;Node4 -->
<g id="edge13" class="edge">
<title>Node11&#45;&gt;Node4</title>
<path fill="none" stroke="midnightblue" d="M218.55,-113.06C198.04,-101.54 169.12,-85.31 151.66,-75.51"/>
<polygon fill="midnightblue" stroke="midnightblue" points="216.88,-116.13 227.31,-117.98 220.31,-110.03 216.88,-116.13"/>
</g>
<!-- Node11&#45;&gt;Node9 -->
<g id="edge12" class="edge">
<title>Node11&#45;&gt;Node9</title>
<path fill="none" stroke="midnightblue" d="M285.88,-115.47C331.32,-103.91 401.71,-86.02 443.04,-75.51"/>
<polygon fill="midnightblue" stroke="midnightblue" points="284.86,-112.12 276.03,-117.98 286.58,-118.9 284.86,-112.12"/>
</g>
<!-- Node12 -->
<g id="node12" class="node">
<title>Node12</title>
<g id="a_node12"><a xlink:href="configuration_8h.html" target="_top" xlink:title=" ">
<polygon fill="none" stroke="black" points="224.5,-56.5 224.5,-75.5 410.5,-75.5 410.5,-56.5 224.5,-56.5"/>
<text text-anchor="middle" x="317.5" y="-63.5" font-family="Helvetica,sans-Serif" font-size="10.00">HealthGPS.Console/configuration.h</text>
</a>
</g>
</g>
<!-- Node11&#45;&gt;Node12 -->
<g id="edge14" class="edge">
<title>Node11&#45;&gt;Node12</title>
<path fill="none" stroke="midnightblue" d="M261.44,-111.47C275.79,-100.09 294.98,-84.87 306.77,-75.51"/>
<polygon fill="midnightblue" stroke="midnightblue" points="258.9,-109.02 253.25,-117.98 263.26,-114.5 258.9,-109.02"/>
</g>
<!-- Node12&#45;&gt;Node10 -->
<g id="edge16" class="edge">
<title>Node12&#45;&gt;Node10</title>
<path fill="none" stroke="midnightblue" d="M352.33,-53.17C382.27,-43 424.72,-28.59 451.42,-19.52"/>
<polygon fill="midnightblue" stroke="midnightblue" points="351.04,-49.91 342.69,-56.44 353.29,-56.54 351.04,-49.91"/>
</g>
<!-- Node13 -->
<g id="node13" class="node">
<title>Node13</title>
<g id="a_node13"><a xlink:href="configuration_8cpp.html" target="_top" xlink:title=" ">
<polygon fill="none" stroke="black" points="174,-0.5 174,-19.5 371,-19.5 371,-0.5 174,-0.5"/>
<text text-anchor="middle" x="272.5" y="-7.5" font-family="Helvetica,sans-Serif" font-size="10.00">HealthGPS.Console/configuration.cpp</text>
</a>
</g>
</g>
<!-- Node12&#45;&gt;Node13 -->
<g id="edge15" class="edge">
<title>Node12&#45;&gt;Node13</title>
<path fill="none" stroke="midnightblue" d="M303.45,-48.14C295.61,-38.74 286.17,-27.4 279.79,-19.75"/>
<polygon fill="midnightblue" stroke="midnightblue" points="300.98,-50.64 310.07,-56.08 306.36,-46.16 300.98,-50.64"/>
</g>
</g>
</svg>
