<?xml version="1.0" encoding="UTF-8" standalone="no"?>
<!DOCTYPE svg PUBLIC "-//W3C//DTD SVG 1.1//EN"
 "http://www.w3.org/Graphics/SVG/1.1/DTD/svg11.dtd">
<!-- Generated by graphviz version 7.0.6 (20230106.0513)
 -->
<!-- Title: HealthGPS.Console/event_monitor.cpp Pages: 1 -->
<svg width="945pt" height="445pt"
 viewBox="0.00 0.00 945.00 445.00" xmlns="http://www.w3.org/2000/svg" xmlns:xlink="http://www.w3.org/1999/xlink">
<g id="graph0" class="graph" transform="scale(1 1) rotate(0) translate(4 441)">
<title>HealthGPS.Console/event_monitor.cpp</title>
<!-- Node1 -->
<g id="node1" class="node">
<title>Node1</title>
<g id="a_node1"><a xlink:title=" ">
<polygon fill="#999999" stroke="#666666" points="781.5,-437 652.5,-437 652.5,-407 781.5,-407 781.5,-437"/>
<text text-anchor="start" x="660.5" y="-425" font-family="Helvetica,sans-Serif" font-size="10.00">HealthGPS.Console/event</text>
<text text-anchor="middle" x="717" y="-414" font-family="Helvetica,sans-Serif" font-size="10.00">_monitor.cpp</text>
</a>
</g>
</g>
<!-- Node2 -->
<g id="node2" class="node">
<title>Node2</title>
<g id="a_node2"><a xlink:href="event__monitor_8h.html" target="_top" xlink:title=" ">
<polygon fill="white" stroke="#666666" points="418.5,-371 333.5,-371 333.5,-352 418.5,-352 418.5,-371"/>
<text text-anchor="middle" x="376" y="-359" font-family="Helvetica,sans-Serif" font-size="10.00">event_monitor.h</text>
</a>
</g>
</g>
<!-- Node1&#45;&gt;Node2 -->
<g id="edge1" class="edge">
<title>Node1&#45;&gt;Node2</title>
<path fill="none" stroke="#63b8ff" d="M652.06,-409.86C587.61,-398.8 489.99,-382.06 429.76,-371.72"/>
<polygon fill="#63b8ff" stroke="#63b8ff" points="430.54,-368.31 420.09,-370.06 429.36,-375.2 430.54,-368.31"/>
</g>
<!-- Node25 -->
<g id="node25" class="node">
<title>Node25</title>
<g id="a_node25"><a xlink:href="info__message_8h.html" target="_top" xlink:title=" ">
<polygon fill="white" stroke="#666666" points="573.5,-371 436.5,-371 436.5,-352 573.5,-352 573.5,-371"/>
<text text-anchor="middle" x="505" y="-359" font-family="Helvetica,sans-Serif" font-size="10.00">HealthGPS/info_message.h</text>
</a>
</g>
</g>
<!-- Node1&#45;&gt;Node25 -->
<g id="edge31" class="edge">
<title>Node1&#45;&gt;Node25</title>
<path fill="none" stroke="#63b8ff" d="M664.6,-406.54C628.79,-396.66 581.92,-383.73 548.25,-374.43"/>
<polygon fill="#63b8ff" stroke="#63b8ff" points="549.4,-371.12 538.83,-371.83 547.54,-377.87 549.4,-371.12"/>
</g>
<!-- Node26 -->
<g id="node26" class="node">
<title>Node26</title>
<g id="a_node26"><a xlink:href="runner__message_8h.html" target="_top" xlink:title=" ">
<polygon fill="white" stroke="#666666" points="740.5,-371 591.5,-371 591.5,-352 740.5,-352 740.5,-371"/>
<text text-anchor="middle" x="666" y="-359" font-family="Helvetica,sans-Serif" font-size="10.00">HealthGPS/runner_message.h</text>
</a>
</g>
</g>
<!-- Node1&#45;&gt;Node26 -->
<g id="edge33" class="edge">
<title>Node1&#45;&gt;Node26</title>
<path fill="none" stroke="#63b8ff" d="M704.39,-406.54C697.29,-398.39 688.37,-388.16 680.92,-379.61"/>
<polygon fill="#63b8ff" stroke="#63b8ff" points="683.77,-377.55 674.56,-372.32 678.49,-382.15 683.77,-377.55"/>
</g>
<!-- Node27 -->
<g id="node27" class="node">
<title>Node27</title>
<g id="a_node27"><a xlink:href="error__message_8h.html" target="_top" xlink:title=" ">
<polygon fill="white" stroke="#666666" points="837.5,-310.5 696.5,-310.5 696.5,-291.5 837.5,-291.5 837.5,-310.5"/>
<text text-anchor="middle" x="767" y="-298.5" font-family="Helvetica,sans-Serif" font-size="10.00">HealthGPS/error_message.h</text>
</a>
</g>
</g>
<!-- Node1&#45;&gt;Node27 -->
<g id="edge35" class="edge">
<title>Node1&#45;&gt;Node27</title>
<path fill="none" stroke="#63b8ff" d="M728.22,-406.88C735.37,-397.26 744.33,-383.96 750,-371 756.89,-355.25 761.32,-336.2 763.92,-322.11"/>
<polygon fill="#63b8ff" stroke="#63b8ff" points="767.36,-322.74 765.57,-312.3 760.46,-321.58 767.36,-322.74"/>
</g>
<!-- Node28 -->
<g id="node28" class="node">
<title>Node28</title>
<g id="a_node28"><a xlink:title=" ">
<polygon fill="#e0e0e0" stroke="#999999" points="857,-371 797,-371 797,-352 857,-352 857,-371"/>
<text text-anchor="middle" x="827" y="-359" font-family="Helvetica,sans-Serif" font-size="10.00">fmt/core.h</text>
</a>
</g>
</g>
<!-- Node1&#45;&gt;Node28 -->
<g id="edge37" class="edge">
<title>Node1&#45;&gt;Node28</title>
<path fill="none" stroke="#63b8ff" d="M744.19,-406.54C761.37,-397.4 783.45,-385.66 800.5,-376.6"/>
<polygon fill="#63b8ff" stroke="#63b8ff" points="801.84,-379.84 809.03,-372.06 798.56,-373.66 801.84,-379.84"/>
</g>
<!-- Node29 -->
<g id="node29" class="node">
<title>Node29</title>
<g id="a_node29"><a xlink:title=" ">
<polygon fill="#e0e0e0" stroke="#999999" points="937,-371 875,-371 875,-352 937,-352 937,-371"/>
<text text-anchor="middle" x="906" y="-359" font-family="Helvetica,sans-Serif" font-size="10.00">fmt/color.h</text>
</a>
</g>
</g>
<!-- Node1&#45;&gt;Node29 -->
<g id="edge38" class="edge">
<title>Node1&#45;&gt;Node29</title>
<path fill="none" stroke="#63b8ff" d="M763.72,-406.54C795.22,-396.79 836.34,-384.06 866.26,-374.8"/>
<polygon fill="#63b8ff" stroke="#63b8ff" points="867.18,-378.18 875.7,-371.88 865.11,-371.49 867.18,-378.18"/>
</g>
<!-- Node3 -->
<g id="node3" class="node">
<title>Node3</title>
<g id="a_node3"><a xlink:title=" ">
<polygon fill="#e0e0e0" stroke="#999999" points="584,-310.5 540,-310.5 540,-291.5 584,-291.5 584,-310.5"/>
<text text-anchor="middle" x="562" y="-298.5" font-family="Helvetica,sans-Serif" font-size="10.00">thread</text>
</a>
</g>
</g>
<!-- Node2&#45;&gt;Node3 -->
<g id="edge2" class="edge">
<title>Node2&#45;&gt;Node3</title>
<path fill="none" stroke="#63b8ff" d="M412.81,-351.54C444.52,-343.43 491.32,-330.57 531,-316 531.64,-315.76 532.29,-315.52 532.94,-315.27"/>
<polygon fill="#63b8ff" stroke="#63b8ff" points="534.21,-318.54 542.1,-311.46 531.52,-312.07 534.21,-318.54"/>
</g>
<!-- Node4 -->
<g id="node4" class="node">
<title>Node4</title>
<g id="a_node4"><a xlink:href="event__aggregator_8h.html" target="_top" xlink:title=" ">
<polygon fill="white" stroke="#666666" points="390,-310.5 240,-310.5 240,-291.5 390,-291.5 390,-310.5"/>
<text text-anchor="middle" x="315" y="-298.5" font-family="Helvetica,sans-Serif" font-size="10.00">HealthGPS/event_aggregator.h</text>
</a>
</g>
</g>
<!-- Node2&#45;&gt;Node4 -->
<g id="edge3" class="edge">
<title>Node2&#45;&gt;Node4</title>
<path fill="none" stroke="#63b8ff" d="M366.74,-351.62C357.69,-342.94 343.69,-329.52 332.54,-318.82"/>
<polygon fill="#63b8ff" stroke="#63b8ff" points="335.08,-316.41 325.44,-312.02 330.24,-321.46 335.08,-316.41"/>
</g>
<!-- Node12 -->
<g id="node12" class="node">
<title>Node12</title>
<g id="a_node12"><a xlink:href="threadsafe__queue_8h.html" target="_top" xlink:title=" ">
<polygon fill="white" stroke="#666666" points="521.5,-316 408.5,-316 408.5,-286 521.5,-286 521.5,-316"/>
<text text-anchor="start" x="416.5" y="-304" font-family="Helvetica,sans-Serif" font-size="10.00">HealthGPS/threadsafe</text>
<text text-anchor="middle" x="465" y="-293" font-family="Helvetica,sans-Serif" font-size="10.00">_queue.h</text>
</a>
</g>
</g>
<!-- Node2&#45;&gt;Node12 -->
<g id="edge11" class="edge">
<title>Node2&#45;&gt;Node12</title>
<path fill="none" stroke="#63b8ff" d="M389.52,-351.62C401.17,-343.96 418.44,-332.61 433.52,-322.69"/>
<polygon fill="#63b8ff" stroke="#63b8ff" points="435.33,-325.69 441.77,-317.27 431.49,-319.84 435.33,-325.69"/>
</g>
<!-- Node16 -->
<g id="node16" class="node">
<title>Node16</title>
<g id="a_node16"><a xlink:href="result__writer_8h.html" target="_top" xlink:title=" ">
<polygon fill="white" stroke="#666666" points="158.5,-310.5 81.5,-310.5 81.5,-291.5 158.5,-291.5 158.5,-310.5"/>
<text text-anchor="middle" x="120" y="-298.5" font-family="Helvetica,sans-Serif" font-size="10.00">result_writer.h</text>
</a>
</g>
</g>
<!-- Node2&#45;&gt;Node16 -->
<g id="edge15" class="edge">
<title>Node2&#45;&gt;Node16</title>
<path fill="none" stroke="#63b8ff" d="M336.84,-351.55C292.01,-341.31 218.49,-324.51 169.67,-313.35"/>
<polygon fill="#63b8ff" stroke="#63b8ff" points="170.74,-310 160.21,-311.19 169.18,-316.83 170.74,-310"/>
</g>
<!-- Node5 -->
<g id="node5" class="node">
<title>Node5</title>
<g id="a_node5"><a xlink:title=" ">
<polygon fill="#e0e0e0" stroke="#999999" points="293.5,-250 234.5,-250 234.5,-231 293.5,-231 293.5,-250"/>
<text text-anchor="middle" x="264" y="-238" font-family="Helvetica,sans-Serif" font-size="10.00">stdexcept</text>
</a>
</g>
</g>
<!-- Node4&#45;&gt;Node5 -->
<g id="edge4" class="edge">
<title>Node4&#45;&gt;Node5</title>
<path fill="none" stroke="#63b8ff" d="M307.47,-291.37C300.02,-282.81 288.39,-269.47 279.03,-258.74"/>
<polygon fill="#63b8ff" stroke="#63b8ff" points="281.76,-256.55 272.55,-251.31 276.48,-261.15 281.76,-256.55"/>
</g>
<!-- Node6 -->
<g id="node6" class="node">
<title>Node6</title>
<g id="a_node6"><a xlink:title=" ">
<polygon fill="#e0e0e0" stroke="#999999" points="370,-250 312,-250 312,-231 370,-231 370,-250"/>
<text text-anchor="middle" x="341" y="-238" font-family="Helvetica,sans-Serif" font-size="10.00">functional</text>
</a>
</g>
</g>
<!-- Node4&#45;&gt;Node6 -->
<g id="edge5" class="edge">
<title>Node4&#45;&gt;Node6</title>
<path fill="none" stroke="#63b8ff" d="M318.84,-291.37C322.45,-283.25 327.97,-270.81 332.61,-260.39"/>
<polygon fill="#63b8ff" stroke="#63b8ff" points="335.67,-262.11 336.53,-251.55 329.27,-259.27 335.67,-262.11"/>
</g>
<!-- Node7 -->
<g id="node7" class="node">
<title>Node7</title>
<g id="a_node7"><a xlink:href="event__message_8h.html" target="_top" xlink:title=" ">
<polygon fill="white" stroke="#666666" points="559,-195 467,-195 467,-176 559,-176 559,-195"/>
<text text-anchor="middle" x="513" y="-183" font-family="Helvetica,sans-Serif" font-size="10.00">event_message.h</text>
</a>
</g>
</g>
<!-- Node4&#45;&gt;Node7 -->
<g id="edge6" class="edge">
<title>Node4&#45;&gt;Node7</title>
<path fill="none" stroke="#63b8ff" d="M326.84,-291.06C345.45,-277.24 382.94,-250.25 417,-231 437.59,-219.36 461.75,-208.18 480.68,-199.93"/>
<polygon fill="#63b8ff" stroke="#63b8ff" points="481.95,-203.19 489.76,-196.03 479.19,-196.76 481.95,-203.19"/>
</g>
<!-- Node11 -->
<g id="node11" class="node">
<title>Node11</title>
<g id="a_node11"><a xlink:title=" ">
<polygon fill="#e0e0e0" stroke="#999999" points="216,-250 164,-250 164,-231 216,-231 216,-250"/>
<text text-anchor="middle" x="190" y="-238" font-family="Helvetica,sans-Serif" font-size="10.00">memory</text>
</a>
</g>
</g>
<!-- Node4&#45;&gt;Node11 -->
<g id="edge10" class="edge">
<title>Node4&#45;&gt;Node11</title>
<path fill="none" stroke="#63b8ff" d="M296.02,-291.12C275.64,-281.58 243.02,-266.31 219.34,-255.23"/>
<polygon fill="#63b8ff" stroke="#63b8ff" points="221.08,-252.18 210.53,-251.11 218.11,-258.52 221.08,-252.18"/>
</g>
<!-- Node8 -->
<g id="node8" class="node">
<title>Node8</title>
<g id="a_node8"><a xlink:title=" ">
<polygon fill="#e0e0e0" stroke="#999999" points="433.5,-79.5 392.5,-79.5 392.5,-60.5 433.5,-60.5 433.5,-79.5"/>
<text text-anchor="middle" x="413" y="-67.5" font-family="Helvetica,sans-Serif" font-size="10.00">string</text>
</a>
</g>
</g>
<!-- Node7&#45;&gt;Node8 -->
<g id="edge7" class="edge">
<title>Node7&#45;&gt;Node8</title>
<path fill="none" stroke="#63b8ff" d="M485.21,-175.62C467.54,-168.61 445.53,-157.12 432,-140 420.92,-125.97 416.29,-105.92 414.37,-91.05"/>
<polygon fill="#63b8ff" stroke="#63b8ff" points="417.85,-90.72 413.42,-81.09 410.88,-91.38 417.85,-90.72"/>
</g>
<!-- Node9 -->
<g id="node9" class="node">
<title>Node9</title>
<g id="a_node9"><a xlink:title=" ">
<polygon fill="#e0e0e0" stroke="#999999" points="329,-19 283,-19 283,0 329,0 329,-19"/>
<text text-anchor="middle" x="306" y="-7" font-family="Helvetica,sans-Serif" font-size="10.00">cstdint</text>
</a>
</g>
</g>
<!-- Node7&#45;&gt;Node9 -->
<g id="edge8" class="edge">
<title>Node7&#45;&gt;Node9</title>
<path fill="none" stroke="#63b8ff" d="M518.57,-175.87C525.94,-163.25 537.02,-139.29 528,-121 492.95,-49.92 393.52,-23.93 340.42,-14.93"/>
<polygon fill="#63b8ff" stroke="#63b8ff" points="341.13,-11.5 330.71,-13.41 340.05,-18.42 341.13,-11.5"/>
</g>
<!-- Node10 -->
<g id="node10" class="node">
<title>Node10</title>
<g id="a_node10"><a xlink:href="event__visitor_8h.html" target="_top" xlink:title=" ">
<polygon fill="white" stroke="#666666" points="518.5,-140 441.5,-140 441.5,-121 518.5,-121 518.5,-140"/>
<text text-anchor="middle" x="480" y="-128" font-family="Helvetica,sans-Serif" font-size="10.00">event_visitor.h</text>
</a>
</g>
</g>
<!-- Node7&#45;&gt;Node10 -->
<g id="edge9" class="edge">
<title>Node7&#45;&gt;Node10</title>
<path fill="none" stroke="#63b8ff" d="M507.55,-175.75C503.23,-168.81 497.04,-158.86 491.62,-150.16"/>
<polygon fill="#63b8ff" stroke="#63b8ff" points="494.62,-148.37 486.37,-141.73 488.68,-152.07 494.62,-148.37"/>
</g>
<!-- Node13 -->
<g id="node13" class="node">
<title>Node13</title>
<g id="a_node13"><a xlink:title=" ">
<polygon fill="#e0e0e0" stroke="#999999" points="599.5,-250 556.5,-250 556.5,-231 599.5,-231 599.5,-250"/>
<text text-anchor="middle" x="578" y="-238" font-family="Helvetica,sans-Serif" font-size="10.00">queue</text>
</a>
</g>
</g>
<!-- Node12&#45;&gt;Node13 -->
<g id="edge12" class="edge">
<title>Node12&#45;&gt;Node13</title>
<path fill="none" stroke="#63b8ff" d="M492.93,-285.54C510.58,-276.4 533.27,-264.66 550.77,-255.6"/>
<polygon fill="#63b8ff" stroke="#63b8ff" points="552.3,-258.75 559.57,-251.04 549.08,-252.53 552.3,-258.75"/>
</g>
<!-- Node14 -->
<g id="node14" class="node">
<title>Node14</title>
<g id="a_node14"><a xlink:title=" ">
<polygon fill="#e0e0e0" stroke="#999999" points="470,-250 426,-250 426,-231 470,-231 470,-250"/>
<text text-anchor="middle" x="448" y="-238" font-family="Helvetica,sans-Serif" font-size="10.00">mutex</text>
</a>
</g>
</g>
<!-- Node12&#45;&gt;Node14 -->
<g id="edge13" class="edge">
<title>Node12&#45;&gt;Node14</title>
<path fill="none" stroke="#63b8ff" d="M460.8,-285.54C458.66,-278.17 456.02,-269.1 453.7,-261.11"/>
<polygon fill="#63b8ff" stroke="#63b8ff" points="457.09,-260.25 450.94,-251.63 450.37,-262.21 457.09,-260.25"/>
</g>
<!-- Node15 -->
<g id="node15" class="node">
<title>Node15</title>
<g id="a_node15"><a xlink:title=" ">
<polygon fill="#e0e0e0" stroke="#999999" points="538,-250 488,-250 488,-231 538,-231 538,-250"/>
<text text-anchor="middle" x="513" y="-238" font-family="Helvetica,sans-Serif" font-size="10.00">optional</text>
</a>
</g>
</g>
<!-- Node12&#45;&gt;Node15 -->
<g id="edge14" class="edge">
<title>Node12&#45;&gt;Node15</title>
<path fill="none" stroke="#63b8ff" d="M476.87,-285.54C483.48,-277.48 491.77,-267.38 498.73,-258.89"/>
<polygon fill="#63b8ff" stroke="#63b8ff" points="501.28,-261.3 504.92,-251.35 495.87,-256.86 501.28,-261.3"/>
</g>
<!-- Node17 -->
<g id="node17" class="node">
<title>Node17</title>
<g id="a_node17"><a xlink:href="result__message_8h.html" target="_top" xlink:title=" ">
<polygon fill="white" stroke="#666666" points="146,-250 0,-250 0,-231 146,-231 146,-250"/>
<text text-anchor="middle" x="73" y="-238" font-family="Helvetica,sans-Serif" font-size="10.00">HealthGPS/result_message.h</text>
</a>
</g>
</g>
<!-- Node16&#45;&gt;Node17 -->
<g id="edge16" class="edge">
<title>Node16&#45;&gt;Node17</title>
<path fill="none" stroke="#63b8ff" d="M113.06,-291.37C106.26,-282.9 95.69,-269.74 87.11,-259.07"/>
<polygon fill="#63b8ff" stroke="#63b8ff" points="89.9,-256.95 80.91,-251.35 84.45,-261.34 89.9,-256.95"/>
</g>
<!-- Node17&#45;&gt;Node7 -->
<g id="edge17" class="edge">
<title>Node17&#45;&gt;Node7</title>
<path fill="none" stroke="#63b8ff" d="M146.15,-230.69C233.03,-220.22 376.13,-202.99 455.49,-193.43"/>
<polygon fill="#63b8ff" stroke="#63b8ff" points="455.71,-196.93 465.22,-192.26 454.87,-189.98 455.71,-196.93"/>
</g>
<!-- Node18 -->
<g id="node18" class="node">
<title>Node18</title>
<g id="a_node18"><a xlink:href="model__result_8h.html" target="_top" xlink:title=" ">
<polygon fill="white" stroke="#666666" points="262,-195 182,-195 182,-176 262,-176 262,-195"/>
<text text-anchor="middle" x="222" y="-183" font-family="Helvetica,sans-Serif" font-size="10.00">model_result.h</text>
</a>
</g>
</g>
<!-- Node17&#45;&gt;Node18 -->
<g id="edge18" class="edge">
<title>Node17&#45;&gt;Node18</title>
<path fill="none" stroke="#63b8ff" d="M98.28,-230.51C122.5,-221.89 159.3,-208.8 186.47,-199.14"/>
<polygon fill="#63b8ff" stroke="#63b8ff" points="187.42,-202.51 195.67,-195.87 185.08,-195.92 187.42,-202.51"/>
</g>
<!-- Node18&#45;&gt;Node8 -->
<g id="edge28" class="edge">
<title>Node18&#45;&gt;Node8</title>
<path fill="none" stroke="#63b8ff" d="M246.47,-175.62C267.44,-167.57 298.1,-154.74 323,-140 349.3,-124.43 376.8,-102.37 394.37,-87.41"/>
<polygon fill="#63b8ff" stroke="#63b8ff" points="396.62,-90.1 401.9,-80.91 392.04,-84.8 396.62,-90.1"/>
</g>
<!-- Node19 -->
<g id="node19" class="node">
<title>Node19</title>
<g id="a_node19"><a xlink:href="data__series_8h.html" target="_top" xlink:title=" ">
<polygon fill="white" stroke="#666666" points="290.5,-140 215.5,-140 215.5,-121 290.5,-121 290.5,-140"/>
<text text-anchor="middle" x="253" y="-128" font-family="Helvetica,sans-Serif" font-size="10.00">data_series.h</text>
</a>
</g>
</g>
<!-- Node18&#45;&gt;Node19 -->
<g id="edge19" class="edge">
<title>Node18&#45;&gt;Node19</title>
<path fill="none" stroke="#63b8ff" d="M227.12,-175.75C231.18,-168.81 236.99,-158.86 242.09,-150.16"/>
<polygon fill="#63b8ff" stroke="#63b8ff" points="244.98,-152.15 247.01,-141.75 238.94,-148.61 244.98,-152.15"/>
</g>
<!-- Node22 -->
<g id="node22" class="node">
<title>Node22</title>
<g id="a_node22"><a xlink:title=" ">
<polygon fill="#e0e0e0" stroke="#999999" points="374,-79.5 332,-79.5 332,-60.5 374,-60.5 374,-79.5"/>
<text text-anchor="middle" x="353" y="-67.5" font-family="Helvetica,sans-Serif" font-size="10.00">vector</text>
</a>
</g>
</g>
<!-- Node18&#45;&gt;Node22 -->
<g id="edge30" class="edge">
<title>Node18&#45;&gt;Node22</title>
<path fill="none" stroke="#63b8ff" d="M242.01,-175.58C258.4,-167.69 281.63,-155.09 299,-140 316,-125.23 331.4,-104.46 341.36,-89.58"/>
<polygon fill="#63b8ff" stroke="#63b8ff" points="344.28,-91.51 346.78,-81.22 338.4,-87.71 344.28,-91.51"/>
</g>
<!-- Node23 -->
<g id="node23" class="node">
<title>Node23</title>
<g id="a_node23"><a xlink:title=" ">
<polygon fill="#e0e0e0" stroke="#999999" points="173.5,-79.5 138.5,-79.5 138.5,-60.5 173.5,-60.5 173.5,-79.5"/>
<text text-anchor="middle" x="156" y="-67.5" font-family="Helvetica,sans-Serif" font-size="10.00">map</text>
</a>
</g>
</g>
<!-- Node18&#45;&gt;Node23 -->
<g id="edge29" class="edge">
<title>Node18&#45;&gt;Node23</title>
<path fill="none" stroke="#63b8ff" d="M216.82,-175.59C206.07,-157.11 181.15,-114.26 166.77,-89.52"/>
<polygon fill="#63b8ff" stroke="#63b8ff" points="169.97,-88.06 161.92,-81.17 163.92,-91.58 169.97,-88.06"/>
</g>
<!-- Node24 -->
<g id="node24" class="node">
<title>Node24</title>
<g id="a_node24"><a xlink:href="gender__value_8h.html" target="_top" xlink:title=" ">
<polygon fill="white" stroke="#666666" points="154.5,-140 73.5,-140 73.5,-121 154.5,-121 154.5,-140"/>
<text text-anchor="middle" x="114" y="-128" font-family="Helvetica,sans-Serif" font-size="10.00">gender_value.h</text>
</a>
</g>
</g>
<!-- Node18&#45;&gt;Node24 -->
<g id="edge26" class="edge">
<title>Node18&#45;&gt;Node24</title>
<path fill="none" stroke="#63b8ff" d="M203.68,-175.51C186.82,-167.24 161.57,-154.84 142.15,-145.31"/>
<polygon fill="#63b8ff" stroke="#63b8ff" points="143.93,-142.29 133.41,-141.02 140.84,-148.57 143.93,-142.29"/>
</g>
<!-- Node19&#45;&gt;Node8 -->
<g id="edge23" class="edge">
<title>Node19&#45;&gt;Node8</title>
<path fill="none" stroke="#63b8ff" d="M281.98,-120.56C308.54,-112.14 348.82,-98.78 383,-85 383.48,-84.81 383.96,-84.61 384.45,-84.41"/>
<polygon fill="#63b8ff" stroke="#63b8ff" points="385.59,-87.73 393.35,-80.51 382.78,-81.32 385.59,-87.73"/>
</g>
<!-- Node20 -->
<g id="node20" class="node">
<title>Node20</title>
<g id="a_node20"><a xlink:href="forward__type_8h.html" target="_top" xlink:title=" ">
<polygon fill="white" stroke="#666666" points="314,-85 192,-85 192,-55 314,-55 314,-85"/>
<text text-anchor="start" x="200" y="-73" font-family="Helvetica,sans-Serif" font-size="10.00">HealthGPS.Core/forward</text>
<text text-anchor="middle" x="253" y="-62" font-family="Helvetica,sans-Serif" font-size="10.00">_type.h</text>
</a>
</g>
</g>
<!-- Node19&#45;&gt;Node20 -->
<g id="edge20" class="edge">
<title>Node19&#45;&gt;Node20</title>
<path fill="none" stroke="#63b8ff" d="M253,-120.87C253,-114.4 253,-105.2 253,-96.45"/>
<polygon fill="#63b8ff" stroke="#63b8ff" points="256.5,-96.63 253,-86.63 249.5,-96.63 256.5,-96.63"/>
</g>
<!-- Node19&#45;&gt;Node22 -->
<g id="edge24" class="edge">
<title>Node19&#45;&gt;Node22</title>
<path fill="none" stroke="#63b8ff" d="M268.19,-120.62C284.05,-111.34 309.18,-96.63 327.98,-85.64"/>
<polygon fill="#63b8ff" stroke="#63b8ff" points="329.5,-88.8 336.36,-80.73 325.96,-82.76 329.5,-88.8"/>
</g>
<!-- Node19&#45;&gt;Node23 -->
<g id="edge25" class="edge">
<title>Node19&#45;&gt;Node23</title>
<path fill="none" stroke="#63b8ff" d="M238.27,-120.62C222.96,-111.38 198.73,-96.77 180.53,-85.79"/>
<polygon fill="#63b8ff" stroke="#63b8ff" points="182.54,-82.92 172.17,-80.75 178.92,-88.91 182.54,-82.92"/>
</g>
<!-- Node20&#45;&gt;Node9 -->
<g id="edge22" class="edge">
<title>Node20&#45;&gt;Node9</title>
<path fill="none" stroke="#63b8ff" d="M266.1,-54.54C273.48,-46.39 282.75,-36.16 290.5,-27.61"/>
<polygon fill="#63b8ff" stroke="#63b8ff" points="293,-30.06 297.12,-20.3 287.82,-25.36 293,-30.06"/>
</g>
<!-- Node21 -->
<g id="node21" class="node">
<title>Node21</title>
<g id="a_node21"><a xlink:title=" ">
<polygon fill="#e0e0e0" stroke="#999999" points="230,-19 168,-19 168,0 230,0 230,-19"/>
<text text-anchor="middle" x="199" y="-7" font-family="Helvetica,sans-Serif" font-size="10.00">type_traits</text>
</a>
</g>
</g>
<!-- Node20&#45;&gt;Node21 -->
<g id="edge21" class="edge">
<title>Node20&#45;&gt;Node21</title>
<path fill="none" stroke="#63b8ff" d="M239.65,-54.54C232.13,-46.39 222.69,-36.16 214.8,-27.61"/>
<polygon fill="#63b8ff" stroke="#63b8ff" points="217.39,-25.26 208.03,-20.29 212.25,-30.01 217.39,-25.26"/>
</g>
<!-- Node24&#45;&gt;Node21 -->
<g id="edge27" class="edge">
<title>Node24&#45;&gt;Node21</title>
<path fill="none" stroke="#63b8ff" d="M113.64,-120.85C113.45,-106.04 114.96,-75.45 129,-55 138.09,-41.76 152.55,-31.6 165.98,-24.36"/>
<polygon fill="#63b8ff" stroke="#63b8ff" points="167.2,-27.67 174.58,-20.07 164.07,-21.4 167.2,-27.67"/>
</g>
<!-- Node25&#45;&gt;Node7 -->
<g id="edge32" class="edge">
<title>Node25&#45;&gt;Node7</title>
<path fill="none" stroke="#63b8ff" d="M537.49,-351.6C556.35,-344.82 579.07,-333.58 593,-316 611.75,-292.35 605.42,-279.97 609,-250 610,-241.62 613.55,-238.12 609,-231 599.43,-216.01 583.37,-206 567.1,-199.34"/>
<polygon fill="#63b8ff" stroke="#63b8ff" points="568.46,-196.11 557.86,-195.95 566.04,-202.68 568.46,-196.11"/>
</g>
<!-- Node26&#45;&gt;Node7 -->
<g id="edge34" class="edge">
<title>Node26&#45;&gt;Node7</title>
<path fill="none" stroke="#63b8ff" d="M665.62,-351.68C664.18,-328.75 657.24,-266.57 624,-231 609.71,-215.71 589.47,-205.57 570.18,-198.88"/>
<polygon fill="#63b8ff" stroke="#63b8ff" points="571.33,-195.57 560.74,-195.88 569.21,-202.24 571.33,-195.57"/>
</g>
<!-- Node27&#45;&gt;Node7 -->
<g id="edge36" class="edge">
<title>Node27&#45;&gt;Node7</title>
<path fill="none" stroke="#63b8ff" d="M758.7,-291.42C744.13,-276.85 712.39,-247.27 680,-231 645.55,-213.7 603.62,-202.55 570.39,-195.75"/>
<polygon fill="#63b8ff" stroke="#63b8ff" points="571.45,-192.39 560.96,-193.89 570.1,-199.26 571.45,-192.39"/>
</g>
</g>
</svg>
