<?xml version="1.0" encoding="UTF-8" standalone="no"?>
<!DOCTYPE svg PUBLIC "-//W3C//DTD SVG 1.1//EN"
 "http://www.w3.org/Graphics/SVG/1.1/DTD/svg11.dtd">
<!-- Generated by graphviz version 2.43.0 (0)
 -->
<!-- Title: HealthGPS/event_bus.h Pages: 1 -->
<svg width="595pt" height="252pt"
 viewBox="0.00 0.00 595.00 252.00" xmlns="http://www.w3.org/2000/svg" xmlns:xlink="http://www.w3.org/1999/xlink">
<g id="graph0" class="graph" transform="scale(1 1) rotate(0) translate(4 248)">
<title>HealthGPS/event_bus.h</title>
<!-- Node1 -->
<g id="node1" class="node">
<title>Node1</title>
<g id="a_node1"><a xlink:title=" ">
<polygon fill="#bfbfbf" stroke="black" points="256,-224.5 256,-243.5 387,-243.5 387,-224.5 256,-224.5"/>
<text text-anchor="middle" x="321.5" y="-231.5" font-family="Helvetica,sans-Serif" font-size="10.00">HealthGPS/event_bus.h</text>
</a>
</g>
</g>
<!-- Node2 -->
<g id="node2" class="node">
<title>Node2</title>
<g id="a_node2"><a xlink:href="event__subscriber_8h.html" target="_top" xlink:title=" ">
<polygon fill="none" stroke="black" points="120.5,-168.5 120.5,-187.5 228.5,-187.5 228.5,-168.5 120.5,-168.5"/>
<text text-anchor="middle" x="174.5" y="-175.5" font-family="Helvetica,sans-Serif" font-size="10.00">event_subscriber.h</text>
</a>
</g>
</g>
<!-- Node1&#45;&gt;Node2 -->
<g id="edge1" class="edge">
<title>Node1&#45;&gt;Node2</title>
<path fill="none" stroke="midnightblue" d="M298.21,-224.44C273.69,-215.44 234.9,-201.19 207.3,-191.05"/>
<polygon fill="midnightblue" stroke="midnightblue" points="208.28,-187.68 197.68,-187.52 205.86,-194.25 208.28,-187.68"/>
</g>
<!-- Node5 -->
<g id="node5" class="node">
<title>Node5</title>
<g id="a_node5"><a xlink:title=" ">
<polygon fill="none" stroke="#bfbfbf" points="204,-56.5 204,-75.5 269,-75.5 269,-56.5 204,-56.5"/>
<text text-anchor="middle" x="236.5" y="-63.5" font-family="Helvetica,sans-Serif" font-size="10.00">functional</text>
</a>
</g>
</g>
<!-- Node1&#45;&gt;Node5 -->
<g id="edge13" class="edge">
<title>Node1&#45;&gt;Node5</title>
<path fill="none" stroke="midnightblue" d="M316.93,-224.08C303.43,-197.72 263.58,-119.88 245.54,-84.66"/>
<polygon fill="midnightblue" stroke="midnightblue" points="248.56,-82.87 240.89,-75.57 242.33,-86.06 248.56,-82.87"/>
</g>
<!-- Node10 -->
<g id="node10" class="node">
<title>Node10</title>
<g id="a_node10"><a xlink:title=" ">
<polygon fill="none" stroke="#bfbfbf" points="287.5,-56.5 287.5,-75.5 345.5,-75.5 345.5,-56.5 287.5,-56.5"/>
<text text-anchor="middle" x="316.5" y="-63.5" font-family="Helvetica,sans-Serif" font-size="10.00">memory</text>
</a>
</g>
</g>
<!-- Node1&#45;&gt;Node10 -->
<g id="edge14" class="edge">
<title>Node1&#45;&gt;Node10</title>
<path fill="none" stroke="midnightblue" d="M319.76,-224.42C318.03,-215.4 315.49,-200.77 314.5,-188 311.7,-151.82 313.59,-109.37 315.12,-85.59"/>
<polygon fill="midnightblue" stroke="midnightblue" points="318.61,-85.74 315.81,-75.53 311.63,-85.26 318.61,-85.74"/>
</g>
<!-- Node11 -->
<g id="node11" class="node">
<title>Node11</title>
<g id="a_node11"><a xlink:title=" ">
<polygon fill="none" stroke="#bfbfbf" points="323.5,-168.5 323.5,-187.5 371.5,-187.5 371.5,-168.5 323.5,-168.5"/>
<text text-anchor="middle" x="347.5" y="-175.5" font-family="Helvetica,sans-Serif" font-size="10.00">mutex</text>
</a>
</g>
</g>
<!-- Node1&#45;&gt;Node11 -->
<g id="edge10" class="edge">
<title>Node1&#45;&gt;Node11</title>
<path fill="none" stroke="midnightblue" d="M325.79,-224.08C329.35,-216.69 334.52,-205.95 338.92,-196.81"/>
<polygon fill="midnightblue" stroke="midnightblue" points="342.1,-198.28 343.29,-187.75 335.79,-195.24 342.1,-198.28"/>
</g>
<!-- Node12 -->
<g id="node12" class="node">
<title>Node12</title>
<g id="a_node12"><a xlink:title=" ">
<polygon fill="none" stroke="#bfbfbf" points="389.5,-168.5 389.5,-187.5 475.5,-187.5 475.5,-168.5 389.5,-168.5"/>
<text text-anchor="middle" x="432.5" y="-175.5" font-family="Helvetica,sans-Serif" font-size="10.00">shared_mutex</text>
</a>
</g>
</g>
<!-- Node1&#45;&gt;Node12 -->
<g id="edge11" class="edge">
<title>Node1&#45;&gt;Node12</title>
<path fill="none" stroke="midnightblue" d="M339.33,-224.32C357.22,-215.62 384.98,-202.12 405.55,-192.11"/>
<polygon fill="midnightblue" stroke="midnightblue" points="407.25,-195.18 414.71,-187.65 404.19,-188.88 407.25,-195.18"/>
</g>
<!-- Node13 -->
<g id="node13" class="node">
<title>Node13</title>
<g id="a_node13"><a xlink:title=" ">
<polygon fill="none" stroke="#bfbfbf" points="494,-168.5 494,-187.5 587,-187.5 587,-168.5 494,-168.5"/>
<text text-anchor="middle" x="540.5" y="-175.5" font-family="Helvetica,sans-Serif" font-size="10.00">unordered_map</text>
</a>
</g>
</g>
<!-- Node1&#45;&gt;Node13 -->
<g id="edge12" class="edge">
<title>Node1&#45;&gt;Node13</title>
<path fill="none" stroke="midnightblue" d="M356.2,-224.44C394.08,-215.1 454.85,-200.12 496.16,-189.93"/>
<polygon fill="midnightblue" stroke="midnightblue" points="497.09,-193.31 505.96,-187.52 495.41,-186.51 497.09,-193.31"/>
</g>
<!-- Node3 -->
<g id="node3" class="node">
<title>Node3</title>
<g id="a_node3"><a xlink:href="event__aggregator_8h.html" target="_top" xlink:title=" ">
<polygon fill="none" stroke="black" points="118,-112.5 118,-131.5 229,-131.5 229,-112.5 118,-112.5"/>
<text text-anchor="middle" x="173.5" y="-119.5" font-family="Helvetica,sans-Serif" font-size="10.00">event_aggregator.h</text>
</a>
</g>
</g>
<!-- Node2&#45;&gt;Node3 -->
<g id="edge2" class="edge">
<title>Node2&#45;&gt;Node3</title>
<path fill="none" stroke="midnightblue" d="M174.33,-168.08C174.2,-161.01 174.02,-150.86 173.85,-141.99"/>
<polygon fill="midnightblue" stroke="midnightblue" points="177.35,-141.68 173.66,-131.75 170.35,-141.81 177.35,-141.68"/>
</g>
<!-- Node4 -->
<g id="node4" class="node">
<title>Node4</title>
<g id="a_node4"><a xlink:title=" ">
<polygon fill="none" stroke="#bfbfbf" points="0,-56.5 0,-75.5 65,-75.5 65,-56.5 0,-56.5"/>
<text text-anchor="middle" x="32.5" y="-63.5" font-family="Helvetica,sans-Serif" font-size="10.00">stdexcept</text>
</a>
</g>
</g>
<!-- Node3&#45;&gt;Node4 -->
<g id="edge3" class="edge">
<title>Node3&#45;&gt;Node4</title>
<path fill="none" stroke="midnightblue" d="M151.16,-112.44C127.75,-103.48 90.76,-89.31 64.31,-79.18"/>
<polygon fill="midnightblue" stroke="midnightblue" points="65.33,-75.82 54.74,-75.52 62.82,-82.36 65.33,-75.82"/>
</g>
<!-- Node3&#45;&gt;Node5 -->
<g id="edge4" class="edge">
<title>Node3&#45;&gt;Node5</title>
<path fill="none" stroke="midnightblue" d="M183.62,-112.32C193.03,-104.26 207.24,-92.08 218.57,-82.37"/>
<polygon fill="midnightblue" stroke="midnightblue" points="220.88,-85 226.19,-75.83 216.32,-79.68 220.88,-85"/>
</g>
<!-- Node6 -->
<g id="node6" class="node">
<title>Node6</title>
<g id="a_node6"><a xlink:href="event__message_8h.html" target="_top" xlink:title=" ">
<polygon fill="none" stroke="black" points="83,-56.5 83,-75.5 186,-75.5 186,-56.5 83,-56.5"/>
<text text-anchor="middle" x="134.5" y="-63.5" font-family="Helvetica,sans-Serif" font-size="10.00">event_message.h</text>
</a>
</g>
</g>
<!-- Node3&#45;&gt;Node6 -->
<g id="edge5" class="edge">
<title>Node3&#45;&gt;Node6</title>
<path fill="none" stroke="midnightblue" d="M167.06,-112.08C161.55,-104.46 153.47,-93.26 146.74,-83.94"/>
<polygon fill="midnightblue" stroke="midnightblue" points="149.51,-81.81 140.82,-75.75 143.84,-85.91 149.51,-81.81"/>
</g>
<!-- Node3&#45;&gt;Node10 -->
<g id="edge9" class="edge">
<title>Node3&#45;&gt;Node10</title>
<path fill="none" stroke="midnightblue" d="M196.16,-112.44C219.9,-103.48 257.41,-89.31 284.24,-79.18"/>
<polygon fill="midnightblue" stroke="midnightblue" points="285.83,-82.32 293.95,-75.52 283.36,-75.77 285.83,-82.32"/>
</g>
<!-- Node7 -->
<g id="node7" class="node">
<title>Node7</title>
<g id="a_node7"><a xlink:title=" ">
<polygon fill="none" stroke="#bfbfbf" points="47.5,-0.5 47.5,-19.5 91.5,-19.5 91.5,-0.5 47.5,-0.5"/>
<text text-anchor="middle" x="69.5" y="-7.5" font-family="Helvetica,sans-Serif" font-size="10.00">string</text>
</a>
</g>
</g>
<!-- Node6&#45;&gt;Node7 -->
<g id="edge6" class="edge">
<title>Node6&#45;&gt;Node7</title>
<path fill="none" stroke="midnightblue" d="M124.06,-56.32C114.35,-48.26 99.68,-36.08 88,-26.37"/>
<polygon fill="midnightblue" stroke="midnightblue" points="90.06,-23.53 80.13,-19.83 85.59,-28.92 90.06,-23.53"/>
</g>
<!-- Node8 -->
<g id="node8" class="node">
<title>Node8</title>
<g id="a_node8"><a xlink:title=" ">
<polygon fill="none" stroke="#bfbfbf" points="109.5,-0.5 109.5,-19.5 159.5,-19.5 159.5,-0.5 109.5,-0.5"/>
<text text-anchor="middle" x="134.5" y="-7.5" font-family="Helvetica,sans-Serif" font-size="10.00">cstdint</text>
</a>
</g>
</g>
<!-- Node6&#45;&gt;Node8 -->
<g id="edge7" class="edge">
<title>Node6&#45;&gt;Node8</title>
<path fill="none" stroke="midnightblue" d="M134.5,-56.08C134.5,-49.01 134.5,-38.86 134.5,-29.99"/>
<polygon fill="midnightblue" stroke="midnightblue" points="138,-29.75 134.5,-19.75 131,-29.75 138,-29.75"/>
</g>
<!-- Node9 -->
<g id="node9" class="node">
<title>Node9</title>
<g id="a_node9"><a xlink:href="event__visitor_8h.html" target="_top" xlink:title=" ">
<polygon fill="none" stroke="black" points="178,-0.5 178,-19.5 267,-19.5 267,-0.5 178,-0.5"/>
<text text-anchor="middle" x="222.5" y="-7.5" font-family="Helvetica,sans-Serif" font-size="10.00">event_visitor.h</text>
</a>
</g>
</g>
<!-- Node6&#45;&gt;Node9 -->
<g id="edge8" class="edge">
<title>Node6&#45;&gt;Node9</title>
<path fill="none" stroke="midnightblue" d="M148.64,-56.32C162.37,-47.9 183.44,-34.97 199.56,-25.07"/>
<polygon fill="midnightblue" stroke="midnightblue" points="201.7,-27.87 208.4,-19.65 198.04,-21.9 201.7,-27.87"/>
</g>
</g>
</svg>
