<?xml version="1.0" encoding="UTF-8" standalone="no"?>
<!DOCTYPE svg PUBLIC "-//W3C//DTD SVG 1.1//EN"
 "http://www.w3.org/Graphics/SVG/1.1/DTD/svg11.dtd">
<!-- Generated by graphviz version 7.0.6 (20230106.0513)
 -->
<!-- Title: HealthGPS/event_bus.h Pages: 1 -->
<svg width="549pt" height="247pt"
 viewBox="0.00 0.00 549.00 247.00" xmlns="http://www.w3.org/2000/svg" xmlns:xlink="http://www.w3.org/1999/xlink">
<g id="graph0" class="graph" transform="scale(1 1) rotate(0) translate(4 243)">
<title>HealthGPS/event_bus.h</title>
<!-- Node1 -->
<g id="node1" class="node">
<title>Node1</title>
<g id="a_node1"><a xlink:title=" ">
<polygon fill="#999999" stroke="#666666" points="356.5,-239 236.5,-239 236.5,-220 356.5,-220 356.5,-239"/>
<text text-anchor="middle" x="296.5" y="-227" font-family="Helvetica,sans-Serif" font-size="10.00">HealthGPS/event_bus.h</text>
</a>
</g>
</g>
<!-- Node2 -->
<g id="node2" class="node">
<title>Node2</title>
<g id="a_node2"><a xlink:href="event__subscriber_8h.html" target="_top" xlink:title=" ">
<polygon fill="white" stroke="#666666" points="205.5,-184 107.5,-184 107.5,-165 205.5,-165 205.5,-184"/>
<text text-anchor="middle" x="156.5" y="-172" font-family="Helvetica,sans-Serif" font-size="10.00">event_subscriber.h</text>
</a>
</g>
</g>
<!-- Node1&#45;&gt;Node2 -->
<g id="edge1" class="edge">
<title>Node1&#45;&gt;Node2</title>
<path fill="none" stroke="#63b8ff" d="M272.75,-219.51C250.19,-210.97 216.03,-198.03 190.56,-188.4"/>
<polygon fill="#63b8ff" stroke="#63b8ff" points="191.91,-185.16 181.31,-184.89 189.43,-191.71 191.91,-185.16"/>
</g>
<!-- Node5 -->
<g id="node5" class="node">
<title>Node5</title>
<g id="a_node5"><a xlink:title=" ">
<polygon fill="#e0e0e0" stroke="#999999" points="245.5,-74 187.5,-74 187.5,-55 245.5,-55 245.5,-74"/>
<text text-anchor="middle" x="216.5" y="-62" font-family="Helvetica,sans-Serif" font-size="10.00">functional</text>
</a>
</g>
</g>
<!-- Node1&#45;&gt;Node5 -->
<g id="edge13" class="edge">
<title>Node1&#45;&gt;Node5</title>
<path fill="none" stroke="#63b8ff" d="M292.2,-219.74C279.66,-194.2 242.97,-119.43 225.69,-84.23"/>
<polygon fill="#63b8ff" stroke="#63b8ff" points="229.04,-83.1 221.49,-75.67 222.75,-86.18 229.04,-83.1"/>
</g>
<!-- Node10 -->
<g id="node10" class="node">
<title>Node10</title>
<g id="a_node10"><a xlink:title=" ">
<polygon fill="#e0e0e0" stroke="#999999" points="315.5,-74 263.5,-74 263.5,-55 315.5,-55 315.5,-74"/>
<text text-anchor="middle" x="289.5" y="-62" font-family="Helvetica,sans-Serif" font-size="10.00">memory</text>
</a>
</g>
</g>
<!-- Node1&#45;&gt;Node10 -->
<g id="edge14" class="edge">
<title>Node1&#45;&gt;Node10</title>
<path fill="none" stroke="#63b8ff" d="M294.98,-219.67C293.51,-210.71 291.39,-196.44 290.5,-184 288.04,-149.54 288.38,-109.31 288.9,-85.7"/>
<polygon fill="#63b8ff" stroke="#63b8ff" points="292.39,-86.04 289.15,-75.95 285.4,-85.85 292.39,-86.04"/>
</g>
<!-- Node11 -->
<g id="node11" class="node">
<title>Node11</title>
<g id="a_node11"><a xlink:title=" ">
<polygon fill="#e0e0e0" stroke="#999999" points="343.5,-184 299.5,-184 299.5,-165 343.5,-165 343.5,-184"/>
<text text-anchor="middle" x="321.5" y="-172" font-family="Helvetica,sans-Serif" font-size="10.00">mutex</text>
</a>
</g>
</g>
<!-- Node1&#45;&gt;Node11 -->
<g id="edge10" class="edge">
<title>Node1&#45;&gt;Node11</title>
<path fill="none" stroke="#63b8ff" d="M300.63,-219.75C303.83,-212.96 308.39,-203.3 312.43,-194.73"/>
<polygon fill="#63b8ff" stroke="#63b8ff" points="315.54,-196.35 316.64,-185.81 309.2,-193.36 315.54,-196.35"/>
</g>
<!-- Node12 -->
<g id="node12" class="node">
<title>Node12</title>
<g id="a_node12"><a xlink:title=" ">
<polygon fill="#e0e0e0" stroke="#999999" points="439.5,-184 361.5,-184 361.5,-165 439.5,-165 439.5,-184"/>
<text text-anchor="middle" x="400.5" y="-172" font-family="Helvetica,sans-Serif" font-size="10.00">shared_mutex</text>
</a>
</g>
</g>
<!-- Node1&#45;&gt;Node12 -->
<g id="edge11" class="edge">
<title>Node1&#45;&gt;Node12</title>
<path fill="none" stroke="#63b8ff" d="M314.14,-219.51C330.23,-211.31 354.25,-199.07 372.87,-189.58"/>
<polygon fill="#63b8ff" stroke="#63b8ff" points="374.45,-192.7 381.77,-185.05 371.27,-186.47 374.45,-192.7"/>
</g>
<!-- Node13 -->
<g id="node13" class="node">
<title>Node13</title>
<g id="a_node13"><a xlink:title=" ">
<polygon fill="#e0e0e0" stroke="#999999" points="541,-184 458,-184 458,-165 541,-165 541,-184"/>
<text text-anchor="middle" x="499.5" y="-172" font-family="Helvetica,sans-Serif" font-size="10.00">unordered_map</text>
</a>
</g>
</g>
<!-- Node1&#45;&gt;Node13 -->
<g id="edge12" class="edge">
<title>Node1&#45;&gt;Node13</title>
<path fill="none" stroke="#63b8ff" d="M330.94,-219.51C364.87,-210.65 416.9,-197.07 454.18,-187.33"/>
<polygon fill="#63b8ff" stroke="#63b8ff" points="454.98,-190.74 463.77,-184.83 453.21,-183.97 454.98,-190.74"/>
</g>
<!-- Node3 -->
<g id="node3" class="node">
<title>Node3</title>
<g id="a_node3"><a xlink:href="event__aggregator_8h.html" target="_top" xlink:title=" ">
<polygon fill="white" stroke="#666666" points="205.5,-129 107.5,-129 107.5,-110 205.5,-110 205.5,-129"/>
<text text-anchor="middle" x="156.5" y="-117" font-family="Helvetica,sans-Serif" font-size="10.00">event_aggregator.h</text>
</a>
</g>
</g>
<!-- Node2&#45;&gt;Node3 -->
<g id="edge2" class="edge">
<title>Node2&#45;&gt;Node3</title>
<path fill="none" stroke="#63b8ff" d="M156.5,-164.75C156.5,-158.27 156.5,-149.16 156.5,-140.9"/>
<polygon fill="#63b8ff" stroke="#63b8ff" points="160,-140.96 156.5,-130.96 153,-140.96 160,-140.96"/>
</g>
<!-- Node4 -->
<g id="node4" class="node">
<title>Node4</title>
<g id="a_node4"><a xlink:title=" ">
<polygon fill="#e0e0e0" stroke="#999999" points="59,-74 0,-74 0,-55 59,-55 59,-74"/>
<text text-anchor="middle" x="29.5" y="-62" font-family="Helvetica,sans-Serif" font-size="10.00">stdexcept</text>
</a>
</g>
</g>
<!-- Node3&#45;&gt;Node4 -->
<g id="edge3" class="edge">
<title>Node3&#45;&gt;Node4</title>
<path fill="none" stroke="#63b8ff" d="M134.96,-109.51C114.76,-101.08 84.33,-88.38 61.34,-78.79"/>
<polygon fill="#63b8ff" stroke="#63b8ff" points="62.7,-75.56 52.12,-74.94 60,-82.02 62.7,-75.56"/>
</g>
<!-- Node3&#45;&gt;Node5 -->
<g id="edge4" class="edge">
<title>Node3&#45;&gt;Node5</title>
<path fill="none" stroke="#63b8ff" d="M166.68,-109.51C175.26,-101.93 187.77,-90.88 198.1,-81.75"/>
<polygon fill="#63b8ff" stroke="#63b8ff" points="200.16,-84.6 205.34,-75.36 195.53,-79.36 200.16,-84.6"/>
</g>
<!-- Node6 -->
<g id="node6" class="node">
<title>Node6</title>
<g id="a_node6"><a xlink:href="event__message_8h.html" target="_top" xlink:title=" ">
<polygon fill="white" stroke="#666666" points="169.5,-74 77.5,-74 77.5,-55 169.5,-55 169.5,-74"/>
<text text-anchor="middle" x="123.5" y="-62" font-family="Helvetica,sans-Serif" font-size="10.00">event_message.h</text>
</a>
</g>
</g>
<!-- Node3&#45;&gt;Node6 -->
<g id="edge5" class="edge">
<title>Node3&#45;&gt;Node6</title>
<path fill="none" stroke="#63b8ff" d="M151.05,-109.75C146.73,-102.81 140.54,-92.86 135.12,-84.16"/>
<polygon fill="#63b8ff" stroke="#63b8ff" points="138.12,-82.37 129.87,-75.73 132.18,-86.07 138.12,-82.37"/>
</g>
<!-- Node3&#45;&gt;Node10 -->
<g id="edge9" class="edge">
<title>Node3&#45;&gt;Node10</title>
<path fill="none" stroke="#63b8ff" d="M179.06,-109.51C200.4,-101.01 232.66,-88.15 256.81,-78.53"/>
<polygon fill="#63b8ff" stroke="#63b8ff" points="257.87,-81.87 265.87,-74.92 255.28,-75.37 257.87,-81.87"/>
</g>
<!-- Node7 -->
<g id="node7" class="node">
<title>Node7</title>
<g id="a_node7"><a xlink:title=" ">
<polygon fill="#e0e0e0" stroke="#999999" points="82,-19 41,-19 41,0 82,0 82,-19"/>
<text text-anchor="middle" x="61.5" y="-7" font-family="Helvetica,sans-Serif" font-size="10.00">string</text>
</a>
</g>
</g>
<!-- Node6&#45;&gt;Node7 -->
<g id="edge6" class="edge">
<title>Node6&#45;&gt;Node7</title>
<path fill="none" stroke="#63b8ff" d="M112.98,-54.51C104.11,-46.93 91.19,-35.88 80.51,-26.75"/>
<polygon fill="#63b8ff" stroke="#63b8ff" points="82.89,-24.18 73.01,-20.34 78.34,-29.5 82.89,-24.18"/>
</g>
<!-- Node8 -->
<g id="node8" class="node">
<title>Node8</title>
<g id="a_node8"><a xlink:title=" ">
<polygon fill="#e0e0e0" stroke="#999999" points="146.5,-19 100.5,-19 100.5,0 146.5,0 146.5,-19"/>
<text text-anchor="middle" x="123.5" y="-7" font-family="Helvetica,sans-Serif" font-size="10.00">cstdint</text>
</a>
</g>
</g>
<!-- Node6&#45;&gt;Node8 -->
<g id="edge7" class="edge">
<title>Node6&#45;&gt;Node8</title>
<path fill="none" stroke="#63b8ff" d="M123.5,-54.75C123.5,-48.27 123.5,-39.16 123.5,-30.9"/>
<polygon fill="#63b8ff" stroke="#63b8ff" points="127,-30.96 123.5,-20.96 120,-30.96 127,-30.96"/>
</g>
<!-- Node9 -->
<g id="node9" class="node">
<title>Node9</title>
<g id="a_node9"><a xlink:href="event__visitor_8h.html" target="_top" xlink:title=" ">
<polygon fill="white" stroke="#666666" points="242,-19 165,-19 165,0 242,0 242,-19"/>
<text text-anchor="middle" x="203.5" y="-7" font-family="Helvetica,sans-Serif" font-size="10.00">event_visitor.h</text>
</a>
</g>
</g>
<!-- Node6&#45;&gt;Node9 -->
<g id="edge8" class="edge">
<title>Node6&#45;&gt;Node9</title>
<path fill="none" stroke="#63b8ff" d="M137.07,-54.51C148.98,-46.62 166.55,-34.98 180.63,-25.65"/>
<polygon fill="#63b8ff" stroke="#63b8ff" points="182.46,-28.63 188.87,-20.19 178.6,-22.8 182.46,-28.63"/>
</g>
</g>
</svg>
