<?xml version="1.0" encoding="UTF-8" standalone="no"?>
<!DOCTYPE svg PUBLIC "-//W3C//DTD SVG 1.1//EN"
 "http://www.w3.org/Graphics/SVG/1.1/DTD/svg11.dtd">
<!-- Generated by graphviz version 2.43.0 (0)
 -->
<!-- Title: HealthGPS/event_bus.cpp Pages: 1 -->
<svg width="882pt" height="319pt"
 viewBox="0.00 0.00 881.50 319.00" xmlns="http://www.w3.org/2000/svg" xmlns:xlink="http://www.w3.org/1999/xlink">
<g id="graph0" class="graph" transform="scale(1 1) rotate(0) translate(4 315)">
<title>HealthGPS/event_bus.cpp</title>
<!-- Node1 -->
<g id="node1" class="node">
<title>Node1</title>
<g id="a_node1"><a xlink:title=" ">
<polygon fill="#bfbfbf" stroke="black" points="605.5,-291.5 605.5,-310.5 747.5,-310.5 747.5,-291.5 605.5,-291.5"/>
<text text-anchor="middle" x="676.5" y="-298.5" font-family="Helvetica,sans-Serif" font-size="10.00">HealthGPS/event_bus.cpp</text>
</a>
</g>
</g>
<!-- Node2 -->
<g id="node2" class="node">
<title>Node2</title>
<g id="a_node2"><a xlink:href="event__bus_8h.html" target="_top" xlink:title=" ">
<polygon fill="none" stroke="black" points="328.5,-230 328.5,-249 404.5,-249 404.5,-230 328.5,-230"/>
<text text-anchor="middle" x="366.5" y="-237" font-family="Helvetica,sans-Serif" font-size="10.00">event_bus.h</text>
</a>
</g>
</g>
<!-- Node1&#45;&gt;Node2 -->
<g id="edge1" class="edge">
<title>Node1&#45;&gt;Node2</title>
<path fill="none" stroke="midnightblue" d="M632.08,-291.48C574.48,-280.42 474.35,-261.2 414.87,-249.78"/>
<polygon fill="midnightblue" stroke="midnightblue" points="415.45,-246.33 404.97,-247.88 414.13,-253.21 415.45,-246.33"/>
</g>
<!-- Node15 -->
<g id="node15" class="node">
<title>Node15</title>
<g id="a_node15"><a xlink:href="thread__util_8h.html" target="_top" xlink:title=" ">
<polygon fill="none" stroke="black" points="612.5,-224.5 612.5,-254.5 740.5,-254.5 740.5,-224.5 612.5,-224.5"/>
<text text-anchor="start" x="620.5" y="-242.5" font-family="Helvetica,sans-Serif" font-size="10.00">HealthGPS.Core/thread</text>
<text text-anchor="middle" x="676.5" y="-231.5" font-family="Helvetica,sans-Serif" font-size="10.00">_util.h</text>
</a>
</g>
</g>
<!-- Node1&#45;&gt;Node15 -->
<g id="edge16" class="edge">
<title>Node1&#45;&gt;Node15</title>
<path fill="none" stroke="midnightblue" d="M676.5,-291.48C676.5,-284.47 676.5,-274.19 676.5,-264.7"/>
<polygon fill="midnightblue" stroke="midnightblue" points="680,-264.52 676.5,-254.52 673,-264.52 680,-264.52"/>
</g>
<!-- Node20 -->
<g id="node20" class="node">
<title>Node20</title>
<g id="a_node20"><a xlink:title=" ">
<polygon fill="none" stroke="#bfbfbf" points="758.5,-230 758.5,-249 866.5,-249 866.5,-230 758.5,-230"/>
<text text-anchor="middle" x="812.5" y="-237" font-family="Helvetica,sans-Serif" font-size="10.00">crossguid/guid.hpp</text>
</a>
</g>
</g>
<!-- Node1&#45;&gt;Node20 -->
<g id="edge22" class="edge">
<title>Node1&#45;&gt;Node20</title>
<path fill="none" stroke="midnightblue" d="M695.99,-291.48C718.91,-281.45 757.19,-264.7 783.58,-253.15"/>
<polygon fill="midnightblue" stroke="midnightblue" points="785.29,-256.22 793.05,-249.01 782.49,-249.81 785.29,-256.22"/>
</g>
<!-- Node3 -->
<g id="node3" class="node">
<title>Node3</title>
<g id="a_node3"><a xlink:href="event__subscriber_8h.html" target="_top" xlink:title=" ">
<polygon fill="none" stroke="black" points="120.5,-168.5 120.5,-187.5 228.5,-187.5 228.5,-168.5 120.5,-168.5"/>
<text text-anchor="middle" x="174.5" y="-175.5" font-family="Helvetica,sans-Serif" font-size="10.00">event_subscriber.h</text>
</a>
</g>
</g>
<!-- Node2&#45;&gt;Node3 -->
<g id="edge2" class="edge">
<title>Node2&#45;&gt;Node3</title>
<path fill="none" stroke="midnightblue" d="M338.99,-229.98C305.63,-219.64 249.24,-202.16 211.94,-190.6"/>
<polygon fill="midnightblue" stroke="midnightblue" points="212.55,-187.13 201.96,-187.51 210.47,-193.81 212.55,-187.13"/>
</g>
<!-- Node6 -->
<g id="node6" class="node">
<title>Node6</title>
<g id="a_node6"><a xlink:title=" ">
<polygon fill="none" stroke="#bfbfbf" points="204,-56.5 204,-75.5 269,-75.5 269,-56.5 204,-56.5"/>
<text text-anchor="middle" x="236.5" y="-63.5" font-family="Helvetica,sans-Serif" font-size="10.00">functional</text>
</a>
</g>
</g>
<!-- Node2&#45;&gt;Node6 -->
<g id="edge14" class="edge">
<title>Node2&#45;&gt;Node6</title>
<path fill="none" stroke="midnightblue" d="M352.92,-229.69C339.45,-220.47 318.8,-204.99 304.5,-188 276.94,-155.25 254.89,-109.7 243.97,-84.87"/>
<polygon fill="midnightblue" stroke="midnightblue" points="247.15,-83.41 239.99,-75.6 240.72,-86.17 247.15,-83.41"/>
</g>
<!-- Node11 -->
<g id="node11" class="node">
<title>Node11</title>
<g id="a_node11"><a xlink:title=" ">
<polygon fill="none" stroke="#bfbfbf" points="287.5,-56.5 287.5,-75.5 345.5,-75.5 345.5,-56.5 287.5,-56.5"/>
<text text-anchor="middle" x="316.5" y="-63.5" font-family="Helvetica,sans-Serif" font-size="10.00">memory</text>
</a>
</g>
</g>
<!-- Node2&#45;&gt;Node11 -->
<g id="edge15" class="edge">
<title>Node2&#45;&gt;Node11</title>
<path fill="none" stroke="midnightblue" d="M352.39,-229.68C339.78,-220.88 322.15,-206.08 314.5,-188 300.17,-154.1 306.39,-109.94 311.74,-85.43"/>
<polygon fill="midnightblue" stroke="midnightblue" points="315.16,-86.2 314.06,-75.66 308.35,-84.58 315.16,-86.2"/>
</g>
<!-- Node12 -->
<g id="node12" class="node">
<title>Node12</title>
<g id="a_node12"><a xlink:title=" ">
<polygon fill="none" stroke="#bfbfbf" points="539.5,-168.5 539.5,-187.5 587.5,-187.5 587.5,-168.5 539.5,-168.5"/>
<text text-anchor="middle" x="563.5" y="-175.5" font-family="Helvetica,sans-Serif" font-size="10.00">mutex</text>
</a>
</g>
</g>
<!-- Node2&#45;&gt;Node12 -->
<g id="edge11" class="edge">
<title>Node2&#45;&gt;Node12</title>
<path fill="none" stroke="midnightblue" d="M394.73,-229.98C430.37,-219.21 491.64,-200.7 529.73,-189.2"/>
<polygon fill="midnightblue" stroke="midnightblue" points="530.79,-192.53 539.35,-186.29 528.77,-185.83 530.79,-192.53"/>
</g>
<!-- Node13 -->
<g id="node13" class="node">
<title>Node13</title>
<g id="a_node13"><a xlink:title=" ">
<polygon fill="none" stroke="#bfbfbf" points="323.5,-168.5 323.5,-187.5 409.5,-187.5 409.5,-168.5 323.5,-168.5"/>
<text text-anchor="middle" x="366.5" y="-175.5" font-family="Helvetica,sans-Serif" font-size="10.00">shared_mutex</text>
</a>
</g>
</g>
<!-- Node2&#45;&gt;Node13 -->
<g id="edge12" class="edge">
<title>Node2&#45;&gt;Node13</title>
<path fill="none" stroke="midnightblue" d="M366.5,-229.98C366.5,-221.58 366.5,-208.48 366.5,-197.66"/>
<polygon fill="midnightblue" stroke="midnightblue" points="370,-197.51 366.5,-187.51 363,-197.51 370,-197.51"/>
</g>
<!-- Node14 -->
<g id="node14" class="node">
<title>Node14</title>
<g id="a_node14"><a xlink:title=" ">
<polygon fill="none" stroke="#bfbfbf" points="428,-168.5 428,-187.5 521,-187.5 521,-168.5 428,-168.5"/>
<text text-anchor="middle" x="474.5" y="-175.5" font-family="Helvetica,sans-Serif" font-size="10.00">unordered_map</text>
</a>
</g>
</g>
<!-- Node2&#45;&gt;Node14 -->
<g id="edge13" class="edge">
<title>Node2&#45;&gt;Node14</title>
<path fill="none" stroke="midnightblue" d="M381.97,-229.98C399.78,-220.17 429.24,-203.93 450.13,-192.42"/>
<polygon fill="midnightblue" stroke="midnightblue" points="451.99,-195.4 459.05,-187.51 448.61,-189.27 451.99,-195.4"/>
</g>
<!-- Node4 -->
<g id="node4" class="node">
<title>Node4</title>
<g id="a_node4"><a xlink:href="event__aggregator_8h.html" target="_top" xlink:title=" ">
<polygon fill="none" stroke="black" points="118,-112.5 118,-131.5 229,-131.5 229,-112.5 118,-112.5"/>
<text text-anchor="middle" x="173.5" y="-119.5" font-family="Helvetica,sans-Serif" font-size="10.00">event_aggregator.h</text>
</a>
</g>
</g>
<!-- Node3&#45;&gt;Node4 -->
<g id="edge3" class="edge">
<title>Node3&#45;&gt;Node4</title>
<path fill="none" stroke="midnightblue" d="M174.33,-168.08C174.2,-161.01 174.02,-150.86 173.85,-141.99"/>
<polygon fill="midnightblue" stroke="midnightblue" points="177.35,-141.68 173.66,-131.75 170.35,-141.81 177.35,-141.68"/>
</g>
<!-- Node5 -->
<g id="node5" class="node">
<title>Node5</title>
<g id="a_node5"><a xlink:title=" ">
<polygon fill="none" stroke="#bfbfbf" points="0,-56.5 0,-75.5 65,-75.5 65,-56.5 0,-56.5"/>
<text text-anchor="middle" x="32.5" y="-63.5" font-family="Helvetica,sans-Serif" font-size="10.00">stdexcept</text>
</a>
</g>
</g>
<!-- Node4&#45;&gt;Node5 -->
<g id="edge4" class="edge">
<title>Node4&#45;&gt;Node5</title>
<path fill="none" stroke="midnightblue" d="M151.16,-112.44C127.75,-103.48 90.76,-89.31 64.31,-79.18"/>
<polygon fill="midnightblue" stroke="midnightblue" points="65.33,-75.82 54.74,-75.52 62.82,-82.36 65.33,-75.82"/>
</g>
<!-- Node4&#45;&gt;Node6 -->
<g id="edge5" class="edge">
<title>Node4&#45;&gt;Node6</title>
<path fill="none" stroke="midnightblue" d="M183.62,-112.32C193.03,-104.26 207.24,-92.08 218.57,-82.37"/>
<polygon fill="midnightblue" stroke="midnightblue" points="220.88,-85 226.19,-75.83 216.32,-79.68 220.88,-85"/>
</g>
<!-- Node7 -->
<g id="node7" class="node">
<title>Node7</title>
<g id="a_node7"><a xlink:href="event__message_8h.html" target="_top" xlink:title=" ">
<polygon fill="none" stroke="black" points="83,-56.5 83,-75.5 186,-75.5 186,-56.5 83,-56.5"/>
<text text-anchor="middle" x="134.5" y="-63.5" font-family="Helvetica,sans-Serif" font-size="10.00">event_message.h</text>
</a>
</g>
</g>
<!-- Node4&#45;&gt;Node7 -->
<g id="edge6" class="edge">
<title>Node4&#45;&gt;Node7</title>
<path fill="none" stroke="midnightblue" d="M167.06,-112.08C161.55,-104.46 153.47,-93.26 146.74,-83.94"/>
<polygon fill="midnightblue" stroke="midnightblue" points="149.51,-81.81 140.82,-75.75 143.84,-85.91 149.51,-81.81"/>
</g>
<!-- Node4&#45;&gt;Node11 -->
<g id="edge10" class="edge">
<title>Node4&#45;&gt;Node11</title>
<path fill="none" stroke="midnightblue" d="M196.16,-112.44C219.9,-103.48 257.41,-89.31 284.24,-79.18"/>
<polygon fill="midnightblue" stroke="midnightblue" points="285.83,-82.32 293.95,-75.52 283.36,-75.77 285.83,-82.32"/>
</g>
<!-- Node8 -->
<g id="node8" class="node">
<title>Node8</title>
<g id="a_node8"><a xlink:title=" ">
<polygon fill="none" stroke="#bfbfbf" points="47.5,-0.5 47.5,-19.5 91.5,-19.5 91.5,-0.5 47.5,-0.5"/>
<text text-anchor="middle" x="69.5" y="-7.5" font-family="Helvetica,sans-Serif" font-size="10.00">string</text>
</a>
</g>
</g>
<!-- Node7&#45;&gt;Node8 -->
<g id="edge7" class="edge">
<title>Node7&#45;&gt;Node8</title>
<path fill="none" stroke="midnightblue" d="M124.06,-56.32C114.35,-48.26 99.68,-36.08 88,-26.37"/>
<polygon fill="midnightblue" stroke="midnightblue" points="90.06,-23.53 80.13,-19.83 85.59,-28.92 90.06,-23.53"/>
</g>
<!-- Node9 -->
<g id="node9" class="node">
<title>Node9</title>
<g id="a_node9"><a xlink:title=" ">
<polygon fill="none" stroke="#bfbfbf" points="109.5,-0.5 109.5,-19.5 159.5,-19.5 159.5,-0.5 109.5,-0.5"/>
<text text-anchor="middle" x="134.5" y="-7.5" font-family="Helvetica,sans-Serif" font-size="10.00">cstdint</text>
</a>
</g>
</g>
<!-- Node7&#45;&gt;Node9 -->
<g id="edge8" class="edge">
<title>Node7&#45;&gt;Node9</title>
<path fill="none" stroke="midnightblue" d="M134.5,-56.08C134.5,-49.01 134.5,-38.86 134.5,-29.99"/>
<polygon fill="midnightblue" stroke="midnightblue" points="138,-29.75 134.5,-19.75 131,-29.75 138,-29.75"/>
</g>
<!-- Node10 -->
<g id="node10" class="node">
<title>Node10</title>
<g id="a_node10"><a xlink:href="event__visitor_8h.html" target="_top" xlink:title=" ">
<polygon fill="none" stroke="black" points="178,-0.5 178,-19.5 267,-19.5 267,-0.5 178,-0.5"/>
<text text-anchor="middle" x="222.5" y="-7.5" font-family="Helvetica,sans-Serif" font-size="10.00">event_visitor.h</text>
</a>
</g>
</g>
<!-- Node7&#45;&gt;Node10 -->
<g id="edge9" class="edge">
<title>Node7&#45;&gt;Node10</title>
<path fill="none" stroke="midnightblue" d="M148.64,-56.32C162.37,-47.9 183.44,-34.97 199.56,-25.07"/>
<polygon fill="midnightblue" stroke="midnightblue" points="201.7,-27.87 208.4,-19.65 198.04,-21.9 201.7,-27.87"/>
</g>
<!-- Node15&#45;&gt;Node12 -->
<g id="edge19" class="edge">
<title>Node15&#45;&gt;Node12</title>
<path fill="none" stroke="midnightblue" d="M649.72,-224.4C631.44,-214.77 607.35,-202.09 589.29,-192.58"/>
<polygon fill="midnightblue" stroke="midnightblue" points="590.42,-189.22 579.94,-187.66 587.16,-195.41 590.42,-189.22"/>
</g>
<!-- Node16 -->
<g id="node16" class="node">
<title>Node16</title>
<g id="a_node16"><a xlink:title=" ">
<polygon fill="none" stroke="#bfbfbf" points="761.5,-168.5 761.5,-187.5 809.5,-187.5 809.5,-168.5 761.5,-168.5"/>
<text text-anchor="middle" x="785.5" y="-175.5" font-family="Helvetica,sans-Serif" font-size="10.00">thread</text>
</a>
</g>
</g>
<!-- Node15&#45;&gt;Node16 -->
<g id="edge17" class="edge">
<title>Node15&#45;&gt;Node16</title>
<path fill="none" stroke="midnightblue" d="M702.33,-224.4C719.97,-214.77 743.2,-202.09 760.63,-192.58"/>
<polygon fill="midnightblue" stroke="midnightblue" points="762.54,-195.52 769.64,-187.66 759.19,-189.38 762.54,-195.52"/>
</g>
<!-- Node17 -->
<g id="node17" class="node">
<title>Node17</title>
<g id="a_node17"><a xlink:title=" ">
<polygon fill="none" stroke="#bfbfbf" points="827.5,-168.5 827.5,-187.5 873.5,-187.5 873.5,-168.5 827.5,-168.5"/>
<text text-anchor="middle" x="850.5" y="-175.5" font-family="Helvetica,sans-Serif" font-size="10.00">future</text>
</a>
</g>
</g>
<!-- Node15&#45;&gt;Node17 -->
<g id="edge18" class="edge">
<title>Node15&#45;&gt;Node17</title>
<path fill="none" stroke="midnightblue" d="M717.74,-224.4C748.17,-213.99 789.04,-200.02 817.36,-190.33"/>
<polygon fill="midnightblue" stroke="midnightblue" points="818.86,-193.52 827.19,-186.97 816.59,-186.9 818.86,-193.52"/>
</g>
<!-- Node18 -->
<g id="node18" class="node">
<title>Node18</title>
<g id="a_node18"><a xlink:title=" ">
<polygon fill="none" stroke="#bfbfbf" points="605.5,-168.5 605.5,-187.5 669.5,-187.5 669.5,-168.5 605.5,-168.5"/>
<text text-anchor="middle" x="637.5" y="-175.5" font-family="Helvetica,sans-Serif" font-size="10.00">execution</text>
</a>
</g>
</g>
<!-- Node15&#45;&gt;Node18 -->
<g id="edge20" class="edge">
<title>Node15&#45;&gt;Node18</title>
<path fill="none" stroke="midnightblue" d="M667.26,-224.4C661.71,-215.93 654.61,-205.1 648.73,-196.14"/>
<polygon fill="midnightblue" stroke="midnightblue" points="651.58,-194.1 643.17,-187.66 645.73,-197.94 651.58,-194.1"/>
</g>
<!-- Node19 -->
<g id="node19" class="node">
<title>Node19</title>
<g id="a_node19"><a xlink:title=" ">
<polygon fill="none" stroke="#bfbfbf" points="687.5,-168.5 687.5,-187.5 743.5,-187.5 743.5,-168.5 687.5,-168.5"/>
<text text-anchor="middle" x="715.5" y="-175.5" font-family="Helvetica,sans-Serif" font-size="10.00">numeric</text>
</a>
</g>
</g>
<!-- Node15&#45;&gt;Node19 -->
<g id="edge21" class="edge">
<title>Node15&#45;&gt;Node19</title>
<path fill="none" stroke="midnightblue" d="M685.74,-224.4C691.29,-215.93 698.39,-205.1 704.27,-196.14"/>
<polygon fill="midnightblue" stroke="midnightblue" points="707.27,-197.94 709.83,-187.66 701.42,-194.1 707.27,-197.94"/>
</g>
</g>
</svg>
