<?xml version="1.0" encoding="UTF-8" standalone="no"?>
<!DOCTYPE svg PUBLIC "-//W3C//DTD SVG 1.1//EN"
 "http://www.w3.org/Graphics/SVG/1.1/DTD/svg11.dtd">
<!-- Generated by graphviz version 7.0.6 (20230106.0513)
 -->
<!-- Title: HealthGPS/event_bus.cpp Pages: 1 -->
<svg width="818pt" height="313pt"
 viewBox="0.00 0.00 818.00 313.00" xmlns="http://www.w3.org/2000/svg" xmlns:xlink="http://www.w3.org/1999/xlink">
<g id="graph0" class="graph" transform="scale(1 1) rotate(0) translate(4 309)">
<title>HealthGPS/event_bus.cpp</title>
<!-- Node1 -->
<g id="node1" class="node">
<title>Node1</title>
<g id="a_node1"><a xlink:title=" ">
<polygon fill="#999999" stroke="#666666" points="691,-305 560,-305 560,-286 691,-286 691,-305"/>
<text text-anchor="middle" x="625.5" y="-293" font-family="Helvetica,sans-Serif" font-size="10.00">HealthGPS/event_bus.cpp</text>
</a>
</g>
</g>
<!-- Node2 -->
<g id="node2" class="node">
<title>Node2</title>
<g id="a_node2"><a xlink:href="event__bus_8h.html" target="_top" xlink:title=" ">
<polygon fill="white" stroke="#666666" points="372.5,-244.5 304.5,-244.5 304.5,-225.5 372.5,-225.5 372.5,-244.5"/>
<text text-anchor="middle" x="338.5" y="-232.5" font-family="Helvetica,sans-Serif" font-size="10.00">event_bus.h</text>
</a>
</g>
</g>
<!-- Node1&#45;&gt;Node2 -->
<g id="edge1" class="edge">
<title>Node1&#45;&gt;Node2</title>
<path fill="none" stroke="#63b8ff" d="M581.6,-285.55C528.09,-274.64 438.12,-256.31 383.93,-245.26"/>
<polygon fill="#63b8ff" stroke="#63b8ff" points="384.92,-241.89 374.42,-243.32 383.52,-248.75 384.92,-241.89"/>
</g>
<!-- Node15 -->
<g id="node15" class="node">
<title>Node15</title>
<g id="a_node15"><a xlink:href="thread__util_8h.html" target="_top" xlink:title=" ">
<polygon fill="white" stroke="#666666" points="685,-250 566,-250 566,-220 685,-220 685,-250"/>
<text text-anchor="start" x="574" y="-238" font-family="Helvetica,sans-Serif" font-size="10.00">HealthGPS.Core/thread</text>
<text text-anchor="middle" x="625.5" y="-227" font-family="Helvetica,sans-Serif" font-size="10.00">_util.h</text>
</a>
</g>
</g>
<!-- Node1&#45;&gt;Node15 -->
<g id="edge16" class="edge">
<title>Node1&#45;&gt;Node15</title>
<path fill="none" stroke="#63b8ff" d="M625.5,-285.87C625.5,-279.4 625.5,-270.2 625.5,-261.45"/>
<polygon fill="#63b8ff" stroke="#63b8ff" points="629,-261.63 625.5,-251.63 622,-261.63 629,-261.63"/>
</g>
<!-- Node20 -->
<g id="node20" class="node">
<title>Node20</title>
<g id="a_node20"><a xlink:title=" ">
<polygon fill="#e0e0e0" stroke="#999999" points="801.5,-244.5 703.5,-244.5 703.5,-225.5 801.5,-225.5 801.5,-244.5"/>
<text text-anchor="middle" x="752.5" y="-232.5" font-family="Helvetica,sans-Serif" font-size="10.00">crossguid/guid.hpp</text>
</a>
</g>
</g>
<!-- Node1&#45;&gt;Node20 -->
<g id="edge22" class="edge">
<title>Node1&#45;&gt;Node20</title>
<path fill="none" stroke="#63b8ff" d="M644.79,-285.62C665.49,-276.08 698.63,-260.81 722.69,-249.73"/>
<polygon fill="#63b8ff" stroke="#63b8ff" points="724.04,-252.96 731.66,-245.6 721.11,-246.61 724.04,-252.96"/>
</g>
<!-- Node3 -->
<g id="node3" class="node">
<title>Node3</title>
<g id="a_node3"><a xlink:href="event__subscriber_8h.html" target="_top" xlink:title=" ">
<polygon fill="white" stroke="#666666" points="205.5,-184 107.5,-184 107.5,-165 205.5,-165 205.5,-184"/>
<text text-anchor="middle" x="156.5" y="-172" font-family="Helvetica,sans-Serif" font-size="10.00">event_subscriber.h</text>
</a>
</g>
</g>
<!-- Node2&#45;&gt;Node3 -->
<g id="edge2" class="edge">
<title>Node2&#45;&gt;Node3</title>
<path fill="none" stroke="#63b8ff" d="M310.86,-225.12C279.99,-215.19 229.82,-199.07 195.09,-187.9"/>
<polygon fill="#63b8ff" stroke="#63b8ff" points="196.43,-184.66 185.84,-184.93 194.29,-191.32 196.43,-184.66"/>
</g>
<!-- Node6 -->
<g id="node6" class="node">
<title>Node6</title>
<g id="a_node6"><a xlink:title=" ">
<polygon fill="#e0e0e0" stroke="#999999" points="245.5,-74 187.5,-74 187.5,-55 245.5,-55 245.5,-74"/>
<text text-anchor="middle" x="216.5" y="-62" font-family="Helvetica,sans-Serif" font-size="10.00">functional</text>
</a>
</g>
</g>
<!-- Node2&#45;&gt;Node6 -->
<g id="edge14" class="edge">
<title>Node2&#45;&gt;Node6</title>
<path fill="none" stroke="#63b8ff" d="M326.03,-225.11C313.65,-215.85 294.68,-200.43 281.5,-184 256.13,-152.39 235.41,-109.49 224.61,-84.92"/>
<polygon fill="#63b8ff" stroke="#63b8ff" points="227.88,-83.67 220.72,-75.86 221.44,-86.43 227.88,-83.67"/>
</g>
<!-- Node11 -->
<g id="node11" class="node">
<title>Node11</title>
<g id="a_node11"><a xlink:title=" ">
<polygon fill="#e0e0e0" stroke="#999999" points="315.5,-74 263.5,-74 263.5,-55 315.5,-55 315.5,-74"/>
<text text-anchor="middle" x="289.5" y="-62" font-family="Helvetica,sans-Serif" font-size="10.00">memory</text>
</a>
</g>
</g>
<!-- Node2&#45;&gt;Node11 -->
<g id="edge15" class="edge">
<title>Node2&#45;&gt;Node11</title>
<path fill="none" stroke="#63b8ff" d="M325.49,-225.03C313.86,-216.15 297.58,-201.39 290.5,-184 277.28,-151.54 281.21,-109.79 285.32,-85.51"/>
<polygon fill="#63b8ff" stroke="#63b8ff" points="288.75,-86.22 287.18,-75.74 281.87,-84.91 288.75,-86.22"/>
</g>
<!-- Node12 -->
<g id="node12" class="node">
<title>Node12</title>
<g id="a_node12"><a xlink:title=" ">
<polygon fill="#e0e0e0" stroke="#999999" points="541.5,-184 497.5,-184 497.5,-165 541.5,-165 541.5,-184"/>
<text text-anchor="middle" x="519.5" y="-172" font-family="Helvetica,sans-Serif" font-size="10.00">mutex</text>
</a>
</g>
</g>
<!-- Node2&#45;&gt;Node12 -->
<g id="edge11" class="edge">
<title>Node2&#45;&gt;Node12</title>
<path fill="none" stroke="#63b8ff" d="M365.99,-225.12C398.24,-214.69 451.69,-197.42 486.25,-186.25"/>
<polygon fill="#63b8ff" stroke="#63b8ff" points="487.31,-189.58 495.75,-183.18 485.15,-182.92 487.31,-189.58"/>
</g>
<!-- Node13 -->
<g id="node13" class="node">
<title>Node13</title>
<g id="a_node13"><a xlink:title=" ">
<polygon fill="#e0e0e0" stroke="#999999" points="377.5,-184 299.5,-184 299.5,-165 377.5,-165 377.5,-184"/>
<text text-anchor="middle" x="338.5" y="-172" font-family="Helvetica,sans-Serif" font-size="10.00">shared_mutex</text>
</a>
</g>
</g>
<!-- Node2&#45;&gt;Node13 -->
<g id="edge12" class="edge">
<title>Node2&#45;&gt;Node13</title>
<path fill="none" stroke="#63b8ff" d="M338.5,-225.37C338.5,-217.5 338.5,-205.6 338.5,-195.39"/>
<polygon fill="#63b8ff" stroke="#63b8ff" points="342,-195.68 338.5,-185.68 335,-195.68 342,-195.68"/>
</g>
<!-- Node14 -->
<g id="node14" class="node">
<title>Node14</title>
<g id="a_node14"><a xlink:title=" ">
<polygon fill="#e0e0e0" stroke="#999999" points="479,-184 396,-184 396,-165 479,-165 479,-184"/>
<text text-anchor="middle" x="437.5" y="-172" font-family="Helvetica,sans-Serif" font-size="10.00">unordered_map</text>
</a>
</g>
</g>
<!-- Node2&#45;&gt;Node14 -->
<g id="edge13" class="edge">
<title>Node2&#45;&gt;Node14</title>
<path fill="none" stroke="#63b8ff" d="M353.54,-225.12C369.16,-215.88 393.89,-201.27 412.47,-190.29"/>
<polygon fill="#63b8ff" stroke="#63b8ff" points="414.19,-193.34 421.02,-185.24 410.63,-187.31 414.19,-193.34"/>
</g>
<!-- Node4 -->
<g id="node4" class="node">
<title>Node4</title>
<g id="a_node4"><a xlink:href="event__aggregator_8h.html" target="_top" xlink:title=" ">
<polygon fill="white" stroke="#666666" points="205.5,-129 107.5,-129 107.5,-110 205.5,-110 205.5,-129"/>
<text text-anchor="middle" x="156.5" y="-117" font-family="Helvetica,sans-Serif" font-size="10.00">event_aggregator.h</text>
</a>
</g>
</g>
<!-- Node3&#45;&gt;Node4 -->
<g id="edge3" class="edge">
<title>Node3&#45;&gt;Node4</title>
<path fill="none" stroke="#63b8ff" d="M156.5,-164.75C156.5,-158.27 156.5,-149.16 156.5,-140.9"/>
<polygon fill="#63b8ff" stroke="#63b8ff" points="160,-140.96 156.5,-130.96 153,-140.96 160,-140.96"/>
</g>
<!-- Node5 -->
<g id="node5" class="node">
<title>Node5</title>
<g id="a_node5"><a xlink:title=" ">
<polygon fill="#e0e0e0" stroke="#999999" points="59,-74 0,-74 0,-55 59,-55 59,-74"/>
<text text-anchor="middle" x="29.5" y="-62" font-family="Helvetica,sans-Serif" font-size="10.00">stdexcept</text>
</a>
</g>
</g>
<!-- Node4&#45;&gt;Node5 -->
<g id="edge4" class="edge">
<title>Node4&#45;&gt;Node5</title>
<path fill="none" stroke="#63b8ff" d="M134.96,-109.51C114.76,-101.08 84.33,-88.38 61.34,-78.79"/>
<polygon fill="#63b8ff" stroke="#63b8ff" points="62.7,-75.56 52.12,-74.94 60,-82.02 62.7,-75.56"/>
</g>
<!-- Node4&#45;&gt;Node6 -->
<g id="edge5" class="edge">
<title>Node4&#45;&gt;Node6</title>
<path fill="none" stroke="#63b8ff" d="M166.68,-109.51C175.26,-101.93 187.77,-90.88 198.1,-81.75"/>
<polygon fill="#63b8ff" stroke="#63b8ff" points="200.16,-84.6 205.34,-75.36 195.53,-79.36 200.16,-84.6"/>
</g>
<!-- Node7 -->
<g id="node7" class="node">
<title>Node7</title>
<g id="a_node7"><a xlink:href="event__message_8h.html" target="_top" xlink:title=" ">
<polygon fill="white" stroke="#666666" points="169.5,-74 77.5,-74 77.5,-55 169.5,-55 169.5,-74"/>
<text text-anchor="middle" x="123.5" y="-62" font-family="Helvetica,sans-Serif" font-size="10.00">event_message.h</text>
</a>
</g>
</g>
<!-- Node4&#45;&gt;Node7 -->
<g id="edge6" class="edge">
<title>Node4&#45;&gt;Node7</title>
<path fill="none" stroke="#63b8ff" d="M151.05,-109.75C146.73,-102.81 140.54,-92.86 135.12,-84.16"/>
<polygon fill="#63b8ff" stroke="#63b8ff" points="138.12,-82.37 129.87,-75.73 132.18,-86.07 138.12,-82.37"/>
</g>
<!-- Node4&#45;&gt;Node11 -->
<g id="edge10" class="edge">
<title>Node4&#45;&gt;Node11</title>
<path fill="none" stroke="#63b8ff" d="M179.06,-109.51C200.4,-101.01 232.66,-88.15 256.81,-78.53"/>
<polygon fill="#63b8ff" stroke="#63b8ff" points="257.87,-81.87 265.87,-74.92 255.28,-75.37 257.87,-81.87"/>
</g>
<!-- Node8 -->
<g id="node8" class="node">
<title>Node8</title>
<g id="a_node8"><a xlink:title=" ">
<polygon fill="#e0e0e0" stroke="#999999" points="82,-19 41,-19 41,0 82,0 82,-19"/>
<text text-anchor="middle" x="61.5" y="-7" font-family="Helvetica,sans-Serif" font-size="10.00">string</text>
</a>
</g>
</g>
<!-- Node7&#45;&gt;Node8 -->
<g id="edge7" class="edge">
<title>Node7&#45;&gt;Node8</title>
<path fill="none" stroke="#63b8ff" d="M112.98,-54.51C104.11,-46.93 91.19,-35.88 80.51,-26.75"/>
<polygon fill="#63b8ff" stroke="#63b8ff" points="82.89,-24.18 73.01,-20.34 78.34,-29.5 82.89,-24.18"/>
</g>
<!-- Node9 -->
<g id="node9" class="node">
<title>Node9</title>
<g id="a_node9"><a xlink:title=" ">
<polygon fill="#e0e0e0" stroke="#999999" points="146.5,-19 100.5,-19 100.5,0 146.5,0 146.5,-19"/>
<text text-anchor="middle" x="123.5" y="-7" font-family="Helvetica,sans-Serif" font-size="10.00">cstdint</text>
</a>
</g>
</g>
<!-- Node7&#45;&gt;Node9 -->
<g id="edge8" class="edge">
<title>Node7&#45;&gt;Node9</title>
<path fill="none" stroke="#63b8ff" d="M123.5,-54.75C123.5,-48.27 123.5,-39.16 123.5,-30.9"/>
<polygon fill="#63b8ff" stroke="#63b8ff" points="127,-30.96 123.5,-20.96 120,-30.96 127,-30.96"/>
</g>
<!-- Node10 -->
<g id="node10" class="node">
<title>Node10</title>
<g id="a_node10"><a xlink:href="event__visitor_8h.html" target="_top" xlink:title=" ">
<polygon fill="white" stroke="#666666" points="242,-19 165,-19 165,0 242,0 242,-19"/>
<text text-anchor="middle" x="203.5" y="-7" font-family="Helvetica,sans-Serif" font-size="10.00">event_visitor.h</text>
</a>
</g>
</g>
<!-- Node7&#45;&gt;Node10 -->
<g id="edge9" class="edge">
<title>Node7&#45;&gt;Node10</title>
<path fill="none" stroke="#63b8ff" d="M137.07,-54.51C148.98,-46.62 166.55,-34.98 180.63,-25.65"/>
<polygon fill="#63b8ff" stroke="#63b8ff" points="182.46,-28.63 188.87,-20.19 178.6,-22.8 182.46,-28.63"/>
</g>
<!-- Node15&#45;&gt;Node12 -->
<g id="edge19" class="edge">
<title>Node15&#45;&gt;Node12</title>
<path fill="none" stroke="#63b8ff" d="M599.3,-219.54C582.9,-210.49 561.86,-198.88 545.51,-189.85"/>
<polygon fill="#63b8ff" stroke="#63b8ff" points="547.3,-186.85 536.85,-185.08 543.92,-192.97 547.3,-186.85"/>
</g>
<!-- Node16 -->
<g id="node16" class="node">
<title>Node16</title>
<g id="a_node16"><a xlink:title=" ">
<polygon fill="#e0e0e0" stroke="#999999" points="750.5,-184 706.5,-184 706.5,-165 750.5,-165 750.5,-184"/>
<text text-anchor="middle" x="728.5" y="-172" font-family="Helvetica,sans-Serif" font-size="10.00">thread</text>
</a>
</g>
</g>
<!-- Node15&#45;&gt;Node16 -->
<g id="edge17" class="edge">
<title>Node15&#45;&gt;Node16</title>
<path fill="none" stroke="#63b8ff" d="M650.96,-219.54C666.89,-210.49 687.33,-198.88 703.23,-189.85"/>
<polygon fill="#63b8ff" stroke="#63b8ff" points="704.64,-193.08 711.61,-185.09 701.18,-186.99 704.64,-193.08"/>
</g>
<!-- Node17 -->
<g id="node17" class="node">
<title>Node17</title>
<g id="a_node17"><a xlink:title=" ">
<polygon fill="#e0e0e0" stroke="#999999" points="810,-184 769,-184 769,-165 810,-165 810,-184"/>
<text text-anchor="middle" x="789.5" y="-172" font-family="Helvetica,sans-Serif" font-size="10.00">future</text>
</a>
</g>
</g>
<!-- Node15&#45;&gt;Node17 -->
<g id="edge18" class="edge">
<title>Node15&#45;&gt;Node17</title>
<path fill="none" stroke="#63b8ff" d="M666.04,-219.54C694.46,-209.4 731.91,-196.04 758.07,-186.71"/>
<polygon fill="#63b8ff" stroke="#63b8ff" points="759.22,-190.02 767.46,-183.36 756.86,-183.43 759.22,-190.02"/>
</g>
<!-- Node18 -->
<g id="node18" class="node">
<title>Node18</title>
<g id="a_node18"><a xlink:title=" ">
<polygon fill="#e0e0e0" stroke="#999999" points="619,-184 560,-184 560,-165 619,-165 619,-184"/>
<text text-anchor="middle" x="589.5" y="-172" font-family="Helvetica,sans-Serif" font-size="10.00">execution</text>
</a>
</g>
</g>
<!-- Node15&#45;&gt;Node18 -->
<g id="edge20" class="edge">
<title>Node15&#45;&gt;Node18</title>
<path fill="none" stroke="#63b8ff" d="M616.6,-219.54C611.8,-211.74 605.82,-202.03 600.71,-193.71"/>
<polygon fill="#63b8ff" stroke="#63b8ff" points="603.85,-192.15 595.63,-185.46 597.89,-195.82 603.85,-192.15"/>
</g>
<!-- Node19 -->
<g id="node19" class="node">
<title>Node19</title>
<g id="a_node19"><a xlink:title=" ">
<polygon fill="#e0e0e0" stroke="#999999" points="688,-184 637,-184 637,-165 688,-165 688,-184"/>
<text text-anchor="middle" x="662.5" y="-172" font-family="Helvetica,sans-Serif" font-size="10.00">numeric</text>
</a>
</g>
</g>
<!-- Node15&#45;&gt;Node19 -->
<g id="edge21" class="edge">
<title>Node15&#45;&gt;Node19</title>
<path fill="none" stroke="#63b8ff" d="M634.65,-219.54C639.58,-211.74 645.72,-202.03 650.98,-193.71"/>
<polygon fill="#63b8ff" stroke="#63b8ff" points="653.82,-195.78 656.2,-185.45 647.9,-192.03 653.82,-195.78"/>
</g>
</g>
</svg>
