<?xml version="1.0" encoding="UTF-8" standalone="no"?>
<!DOCTYPE svg PUBLIC "-//W3C//DTD SVG 1.1//EN"
 "http://www.w3.org/Graphics/SVG/1.1/DTD/svg11.dtd">
<!-- Generated by graphviz version 7.0.6 (20230106.0513)
 -->
<!-- Title: HealthGPS.Console/event_monitor.h Pages: 1 -->
<svg width="608pt" height="390pt"
 viewBox="0.00 0.00 607.50 390.00" xmlns="http://www.w3.org/2000/svg" xmlns:xlink="http://www.w3.org/1999/xlink">
<g id="graph0" class="graph" transform="scale(1 1) rotate(0) translate(4 386)">
<title>HealthGPS.Console/event_monitor.h</title>
<!-- Node1 -->
<g id="node1" class="node">
<title>Node1</title>
<g id="a_node1"><a xlink:title=" ">
<polygon fill="#999999" stroke="#666666" points="314,-382 185,-382 185,-352 314,-352 314,-382"/>
<text text-anchor="start" x="193" y="-370" font-family="Helvetica,sans-Serif" font-size="10.00">HealthGPS.Console/event</text>
<text text-anchor="middle" x="249.5" y="-359" font-family="Helvetica,sans-Serif" font-size="10.00">_monitor.h</text>
</a>
</g>
</g>
<!-- Node2 -->
<g id="node2" class="node">
<title>Node2</title>
<g id="a_node2"><a xlink:title=" ">
<polygon fill="#e0e0e0" stroke="#999999" points="80.5,-310.5 36.5,-310.5 36.5,-291.5 80.5,-291.5 80.5,-310.5"/>
<text text-anchor="middle" x="58.5" y="-298.5" font-family="Helvetica,sans-Serif" font-size="10.00">thread</text>
</a>
</g>
</g>
<!-- Node1&#45;&gt;Node2 -->
<g id="edge1" class="edge">
<title>Node1&#45;&gt;Node2</title>
<path fill="none" stroke="#63b8ff" d="M197.8,-351.58C166.19,-342.33 125.13,-329.56 89.5,-316 88.88,-315.76 88.25,-315.52 87.62,-315.27"/>
<polygon fill="#63b8ff" stroke="#63b8ff" points="89.33,-312.2 78.76,-311.54 86.62,-318.65 89.33,-312.2"/>
</g>
<!-- Node3 -->
<g id="node3" class="node">
<title>Node3</title>
<g id="a_node3"><a xlink:href="event__aggregator_8h.html" target="_top" xlink:title=" ">
<polygon fill="white" stroke="#666666" points="248.5,-310.5 98.5,-310.5 98.5,-291.5 248.5,-291.5 248.5,-310.5"/>
<text text-anchor="middle" x="173.5" y="-298.5" font-family="Helvetica,sans-Serif" font-size="10.00">HealthGPS/event_aggregator.h</text>
</a>
</g>
</g>
<!-- Node1&#45;&gt;Node3 -->
<g id="edge2" class="edge">
<title>Node1&#45;&gt;Node3</title>
<path fill="none" stroke="#63b8ff" d="M232.63,-351.8C220.78,-341.82 204.92,-328.46 192.6,-318.09"/>
<polygon fill="#63b8ff" stroke="#63b8ff" points="195.06,-315.58 185.16,-311.82 190.55,-320.94 195.06,-315.58"/>
</g>
<!-- Node11 -->
<g id="node11" class="node">
<title>Node11</title>
<g id="a_node11"><a xlink:href="threadsafe__queue_8h.html" target="_top" xlink:title=" ">
<polygon fill="white" stroke="#666666" points="535,-316 422,-316 422,-286 535,-286 535,-316"/>
<text text-anchor="start" x="430" y="-304" font-family="Helvetica,sans-Serif" font-size="10.00">HealthGPS/threadsafe</text>
<text text-anchor="middle" x="478.5" y="-293" font-family="Helvetica,sans-Serif" font-size="10.00">_queue.h</text>
</a>
</g>
</g>
<!-- Node1&#45;&gt;Node11 -->
<g id="edge10" class="edge">
<title>Node1&#45;&gt;Node11</title>
<path fill="none" stroke="#63b8ff" d="M301.18,-351.56C335.25,-342.04 380.07,-329.51 416.12,-319.43"/>
<polygon fill="#63b8ff" stroke="#63b8ff" points="416.86,-322.86 425.55,-316.8 414.98,-316.12 416.86,-322.86"/>
</g>
<!-- Node15 -->
<g id="node15" class="node">
<title>Node15</title>
<g id="a_node15"><a xlink:href="result__writer_8h.html" target="_top" xlink:title=" ">
<polygon fill="white" stroke="#666666" points="354,-310.5 277,-310.5 277,-291.5 354,-291.5 354,-310.5"/>
<text text-anchor="middle" x="315.5" y="-298.5" font-family="Helvetica,sans-Serif" font-size="10.00">result_writer.h</text>
</a>
</g>
</g>
<!-- Node1&#45;&gt;Node15 -->
<g id="edge14" class="edge">
<title>Node1&#45;&gt;Node15</title>
<path fill="none" stroke="#63b8ff" d="M264.15,-351.8C274.24,-342.01 287.68,-328.98 298.28,-318.7"/>
<polygon fill="#63b8ff" stroke="#63b8ff" points="300.55,-321.37 305.29,-311.9 295.68,-316.35 300.55,-321.37"/>
</g>
<!-- Node4 -->
<g id="node4" class="node">
<title>Node4</title>
<g id="a_node4"><a xlink:title=" ">
<polygon fill="#e0e0e0" stroke="#999999" points="59,-250 0,-250 0,-231 59,-231 59,-250"/>
<text text-anchor="middle" x="29.5" y="-238" font-family="Helvetica,sans-Serif" font-size="10.00">stdexcept</text>
</a>
</g>
</g>
<!-- Node3&#45;&gt;Node4 -->
<g id="edge3" class="edge">
<title>Node3&#45;&gt;Node4</title>
<path fill="none" stroke="#63b8ff" d="M151.63,-291.12C127.84,-281.45 89.56,-265.9 62.2,-254.78"/>
<polygon fill="#63b8ff" stroke="#63b8ff" points="63.56,-251.56 52.98,-251.04 60.93,-258.04 63.56,-251.56"/>
</g>
<!-- Node5 -->
<g id="node5" class="node">
<title>Node5</title>
<g id="a_node5"><a xlink:title=" ">
<polygon fill="#e0e0e0" stroke="#999999" points="135.5,-250 77.5,-250 77.5,-231 135.5,-231 135.5,-250"/>
<text text-anchor="middle" x="106.5" y="-238" font-family="Helvetica,sans-Serif" font-size="10.00">functional</text>
</a>
</g>
</g>
<!-- Node3&#45;&gt;Node5 -->
<g id="edge4" class="edge">
<title>Node3&#45;&gt;Node5</title>
<path fill="none" stroke="#63b8ff" d="M163.32,-291.12C153.29,-282.35 137.71,-268.75 125.4,-258"/>
<polygon fill="#63b8ff" stroke="#63b8ff" points="127.75,-255.4 117.91,-251.46 123.14,-260.68 127.75,-255.4"/>
</g>
<!-- Node6 -->
<g id="node6" class="node">
<title>Node6</title>
<g id="a_node6"><a xlink:href="event__message_8h.html" target="_top" xlink:title=" ">
<polygon fill="white" stroke="#666666" points="209.5,-195 117.5,-195 117.5,-176 209.5,-176 209.5,-195"/>
<text text-anchor="middle" x="163.5" y="-183" font-family="Helvetica,sans-Serif" font-size="10.00">event_message.h</text>
</a>
</g>
</g>
<!-- Node3&#45;&gt;Node6 -->
<g id="edge5" class="edge">
<title>Node3&#45;&gt;Node6</title>
<path fill="none" stroke="#63b8ff" d="M172.72,-291.09C171.12,-273.03 167.48,-231.67 165.28,-206.71"/>
<polygon fill="#63b8ff" stroke="#63b8ff" points="168.78,-206.53 164.41,-196.87 161.81,-207.14 168.78,-206.53"/>
</g>
<!-- Node10 -->
<g id="node10" class="node">
<title>Node10</title>
<g id="a_node10"><a xlink:title=" ">
<polygon fill="#e0e0e0" stroke="#999999" points="243.5,-250 191.5,-250 191.5,-231 243.5,-231 243.5,-250"/>
<text text-anchor="middle" x="217.5" y="-238" font-family="Helvetica,sans-Serif" font-size="10.00">memory</text>
</a>
</g>
</g>
<!-- Node3&#45;&gt;Node10 -->
<g id="edge9" class="edge">
<title>Node3&#45;&gt;Node10</title>
<path fill="none" stroke="#63b8ff" d="M179.99,-291.37C186.36,-282.9 196.26,-269.74 204.29,-259.07"/>
<polygon fill="#63b8ff" stroke="#63b8ff" points="206.86,-261.47 210.07,-251.38 201.26,-257.26 206.86,-261.47"/>
</g>
<!-- Node7 -->
<g id="node7" class="node">
<title>Node7</title>
<g id="a_node7"><a xlink:title=" ">
<polygon fill="#e0e0e0" stroke="#999999" points="205,-79.5 164,-79.5 164,-60.5 205,-60.5 205,-79.5"/>
<text text-anchor="middle" x="184.5" y="-67.5" font-family="Helvetica,sans-Serif" font-size="10.00">string</text>
</a>
</g>
</g>
<!-- Node6&#45;&gt;Node7 -->
<g id="edge6" class="edge">
<title>Node6&#45;&gt;Node7</title>
<path fill="none" stroke="#63b8ff" d="M171.71,-175.8C179.04,-167.38 189.25,-153.9 193.5,-140 198.47,-123.74 195.25,-104.5 191.35,-90.47"/>
<polygon fill="#63b8ff" stroke="#63b8ff" points="194.75,-89.61 188.39,-81.14 188.08,-91.73 194.75,-89.61"/>
</g>
<!-- Node8 -->
<g id="node8" class="node">
<title>Node8</title>
<g id="a_node8"><a xlink:title=" ">
<polygon fill="#e0e0e0" stroke="#999999" points="238.5,-19 192.5,-19 192.5,0 238.5,0 238.5,-19"/>
<text text-anchor="middle" x="215.5" y="-7" font-family="Helvetica,sans-Serif" font-size="10.00">cstdint</text>
</a>
</g>
</g>
<!-- Node6&#45;&gt;Node8 -->
<g id="edge7" class="edge">
<title>Node6&#45;&gt;Node8</title>
<path fill="none" stroke="#63b8ff" d="M140.74,-175.65C125.77,-168.49 107.37,-156.82 98.5,-140 94.56,-132.53 95.59,-128.93 98.5,-121 114.69,-76.89 160.1,-43.05 189.35,-25.02"/>
<polygon fill="#63b8ff" stroke="#63b8ff" points="190.84,-28.2 197.65,-20.08 187.27,-22.19 190.84,-28.2"/>
</g>
<!-- Node9 -->
<g id="node9" class="node">
<title>Node9</title>
<g id="a_node9"><a xlink:href="event__visitor_8h.html" target="_top" xlink:title=" ">
<polygon fill="white" stroke="#666666" points="185,-140 108,-140 108,-121 185,-121 185,-140"/>
<text text-anchor="middle" x="146.5" y="-128" font-family="Helvetica,sans-Serif" font-size="10.00">event_visitor.h</text>
</a>
</g>
</g>
<!-- Node6&#45;&gt;Node9 -->
<g id="edge8" class="edge">
<title>Node6&#45;&gt;Node9</title>
<path fill="none" stroke="#63b8ff" d="M160.69,-175.75C158.56,-169.11 155.56,-159.73 152.86,-151.31"/>
<polygon fill="#63b8ff" stroke="#63b8ff" points="156.22,-150.34 149.83,-141.88 149.55,-152.47 156.22,-150.34"/>
</g>
<!-- Node12 -->
<g id="node12" class="node">
<title>Node12</title>
<g id="a_node12"><a xlink:title=" ">
<polygon fill="#e0e0e0" stroke="#999999" points="469,-250 426,-250 426,-231 469,-231 469,-250"/>
<text text-anchor="middle" x="447.5" y="-238" font-family="Helvetica,sans-Serif" font-size="10.00">queue</text>
</a>
</g>
</g>
<!-- Node11&#45;&gt;Node12 -->
<g id="edge11" class="edge">
<title>Node11&#45;&gt;Node12</title>
<path fill="none" stroke="#63b8ff" d="M470.84,-285.54C466.79,-277.91 461.79,-268.46 457.45,-260.27"/>
<polygon fill="#63b8ff" stroke="#63b8ff" points="460.58,-258.71 452.81,-251.51 454.4,-261.99 460.58,-258.71"/>
</g>
<!-- Node13 -->
<g id="node13" class="node">
<title>Node13</title>
<g id="a_node13"><a xlink:title=" ">
<polygon fill="#e0e0e0" stroke="#999999" points="531.5,-250 487.5,-250 487.5,-231 531.5,-231 531.5,-250"/>
<text text-anchor="middle" x="509.5" y="-238" font-family="Helvetica,sans-Serif" font-size="10.00">mutex</text>
</a>
</g>
</g>
<!-- Node11&#45;&gt;Node13 -->
<g id="edge12" class="edge">
<title>Node11&#45;&gt;Node13</title>
<path fill="none" stroke="#63b8ff" d="M486.16,-285.54C490.21,-277.91 495.21,-268.46 499.55,-260.27"/>
<polygon fill="#63b8ff" stroke="#63b8ff" points="502.6,-261.99 504.19,-251.51 496.42,-258.71 502.6,-261.99"/>
</g>
<!-- Node14 -->
<g id="node14" class="node">
<title>Node14</title>
<g id="a_node14"><a xlink:title=" ">
<polygon fill="#e0e0e0" stroke="#999999" points="599.5,-250 549.5,-250 549.5,-231 599.5,-231 599.5,-250"/>
<text text-anchor="middle" x="574.5" y="-238" font-family="Helvetica,sans-Serif" font-size="10.00">optional</text>
</a>
</g>
</g>
<!-- Node11&#45;&gt;Node14 -->
<g id="edge13" class="edge">
<title>Node11&#45;&gt;Node14</title>
<path fill="none" stroke="#63b8ff" d="M502.23,-285.54C516.94,-276.58 535.77,-265.1 550.52,-256.11"/>
<polygon fill="#63b8ff" stroke="#63b8ff" points="551.97,-259.33 558.69,-251.13 548.33,-253.35 551.97,-259.33"/>
</g>
<!-- Node16 -->
<g id="node16" class="node">
<title>Node16</title>
<g id="a_node16"><a xlink:href="result__message_8h.html" target="_top" xlink:title=" ">
<polygon fill="white" stroke="#666666" points="407.5,-250 261.5,-250 261.5,-231 407.5,-231 407.5,-250"/>
<text text-anchor="middle" x="334.5" y="-238" font-family="Helvetica,sans-Serif" font-size="10.00">HealthGPS/result_message.h</text>
</a>
</g>
</g>
<!-- Node15&#45;&gt;Node16 -->
<g id="edge15" class="edge">
<title>Node15&#45;&gt;Node16</title>
<path fill="none" stroke="#63b8ff" d="M318.3,-291.37C320.89,-283.42 324.81,-271.33 328.15,-261.05"/>
<polygon fill="#63b8ff" stroke="#63b8ff" points="331.46,-262.2 331.22,-251.61 324.8,-260.04 331.46,-262.2"/>
</g>
<!-- Node16&#45;&gt;Node6 -->
<g id="edge16" class="edge">
<title>Node16&#45;&gt;Node6</title>
<path fill="none" stroke="#63b8ff" d="M305.49,-230.51C277.4,-221.8 234.59,-208.53 203.31,-198.84"/>
<polygon fill="#63b8ff" stroke="#63b8ff" points="204.4,-195.51 193.81,-195.89 202.33,-202.2 204.4,-195.51"/>
</g>
<!-- Node17 -->
<g id="node17" class="node">
<title>Node17</title>
<g id="a_node17"><a xlink:href="model__result_8h.html" target="_top" xlink:title=" ">
<polygon fill="white" stroke="#666666" points="390.5,-195 310.5,-195 310.5,-176 390.5,-176 390.5,-195"/>
<text text-anchor="middle" x="350.5" y="-183" font-family="Helvetica,sans-Serif" font-size="10.00">model_result.h</text>
</a>
</g>
</g>
<!-- Node16&#45;&gt;Node17 -->
<g id="edge17" class="edge">
<title>Node16&#45;&gt;Node17</title>
<path fill="none" stroke="#63b8ff" d="M337.14,-230.75C339.14,-224.11 341.98,-214.73 344.52,-206.31"/>
<polygon fill="#63b8ff" stroke="#63b8ff" points="347.82,-207.48 347.36,-196.89 341.12,-205.45 347.82,-207.48"/>
</g>
<!-- Node17&#45;&gt;Node7 -->
<g id="edge27" class="edge">
<title>Node17&#45;&gt;Node7</title>
<path fill="none" stroke="#63b8ff" d="M332.51,-175.6C315.96,-167.16 290.94,-153.74 270.5,-140 245.97,-123.51 219.75,-101.81 202.79,-87.18"/>
<polygon fill="#63b8ff" stroke="#63b8ff" points="205.38,-84.79 195.54,-80.86 200.78,-90.07 205.38,-84.79"/>
</g>
<!-- Node18 -->
<g id="node18" class="node">
<title>Node18</title>
<g id="a_node18"><a xlink:href="data__series_8h.html" target="_top" xlink:title=" ">
<polygon fill="white" stroke="#666666" points="355,-140 280,-140 280,-121 355,-121 355,-140"/>
<text text-anchor="middle" x="317.5" y="-128" font-family="Helvetica,sans-Serif" font-size="10.00">data_series.h</text>
</a>
</g>
</g>
<!-- Node17&#45;&gt;Node18 -->
<g id="edge18" class="edge">
<title>Node17&#45;&gt;Node18</title>
<path fill="none" stroke="#63b8ff" d="M345.05,-175.75C340.73,-168.81 334.54,-158.86 329.12,-150.16"/>
<polygon fill="#63b8ff" stroke="#63b8ff" points="332.12,-148.37 323.87,-141.73 326.18,-152.07 332.12,-148.37"/>
</g>
<!-- Node21 -->
<g id="node21" class="node">
<title>Node21</title>
<g id="a_node21"><a xlink:title=" ">
<polygon fill="#e0e0e0" stroke="#999999" points="405.5,-79.5 363.5,-79.5 363.5,-60.5 405.5,-60.5 405.5,-79.5"/>
<text text-anchor="middle" x="384.5" y="-67.5" font-family="Helvetica,sans-Serif" font-size="10.00">vector</text>
</a>
</g>
</g>
<!-- Node17&#45;&gt;Node21 -->
<g id="edge29" class="edge">
<title>Node17&#45;&gt;Node21</title>
<path fill="none" stroke="#63b8ff" d="M353.17,-175.59C358.61,-157.44 371.08,-115.79 378.55,-90.87"/>
<polygon fill="#63b8ff" stroke="#63b8ff" points="381.89,-91.9 381.41,-81.31 375.19,-89.89 381.89,-91.9"/>
</g>
<!-- Node22 -->
<g id="node22" class="node">
<title>Node22</title>
<g id="a_node22"><a xlink:title=" ">
<polygon fill="#e0e0e0" stroke="#999999" points="459,-79.5 424,-79.5 424,-60.5 459,-60.5 459,-79.5"/>
<text text-anchor="middle" x="441.5" y="-67.5" font-family="Helvetica,sans-Serif" font-size="10.00">map</text>
</a>
</g>
</g>
<!-- Node17&#45;&gt;Node22 -->
<g id="edge28" class="edge">
<title>Node17&#45;&gt;Node22</title>
<path fill="none" stroke="#63b8ff" d="M357.64,-175.59C372.66,-156.86 407.75,-113.1 427.44,-88.53"/>
<polygon fill="#63b8ff" stroke="#63b8ff" points="429.92,-91.04 433.45,-81.05 424.46,-86.66 429.92,-91.04"/>
</g>
<!-- Node23 -->
<g id="node23" class="node">
<title>Node23</title>
<g id="a_node23"><a xlink:href="gender__value_8h.html" target="_top" xlink:title=" ">
<polygon fill="white" stroke="#666666" points="531,-140 450,-140 450,-121 531,-121 531,-140"/>
<text text-anchor="middle" x="490.5" y="-128" font-family="Helvetica,sans-Serif" font-size="10.00">gender_value.h</text>
</a>
</g>
</g>
<!-- Node17&#45;&gt;Node23 -->
<g id="edge25" class="edge">
<title>Node17&#45;&gt;Node23</title>
<path fill="none" stroke="#63b8ff" d="M374.25,-175.51C396.81,-166.97 430.97,-154.03 456.44,-144.4"/>
<polygon fill="#63b8ff" stroke="#63b8ff" points="457.57,-147.71 465.69,-140.89 455.09,-141.16 457.57,-147.71"/>
</g>
<!-- Node18&#45;&gt;Node7 -->
<g id="edge22" class="edge">
<title>Node18&#45;&gt;Node7</title>
<path fill="none" stroke="#63b8ff" d="M296.51,-120.64C275.64,-111.78 242.75,-97.69 214.5,-85 214.28,-84.9 214.05,-84.8 213.83,-84.7"/>
<polygon fill="#63b8ff" stroke="#63b8ff" points="215.43,-81.58 204.88,-80.6 212.52,-87.95 215.43,-81.58"/>
</g>
<!-- Node19 -->
<g id="node19" class="node">
<title>Node19</title>
<g id="a_node19"><a xlink:href="forward__type_8h.html" target="_top" xlink:title=" ">
<polygon fill="white" stroke="#666666" points="345.5,-85 223.5,-85 223.5,-55 345.5,-55 345.5,-85"/>
<text text-anchor="start" x="231.5" y="-73" font-family="Helvetica,sans-Serif" font-size="10.00">HealthGPS.Core/forward</text>
<text text-anchor="middle" x="284.5" y="-62" font-family="Helvetica,sans-Serif" font-size="10.00">_type.h</text>
</a>
</g>
</g>
<!-- Node18&#45;&gt;Node19 -->
<g id="edge19" class="edge">
<title>Node18&#45;&gt;Node19</title>
<path fill="none" stroke="#63b8ff" d="M312.63,-120.87C308.77,-114.03 303.2,-104.14 298.02,-94.97"/>
<polygon fill="#63b8ff" stroke="#63b8ff" points="301.17,-93.42 293.21,-86.43 295.07,-96.86 301.17,-93.42"/>
</g>
<!-- Node18&#45;&gt;Node21 -->
<g id="edge23" class="edge">
<title>Node18&#45;&gt;Node21</title>
<path fill="none" stroke="#63b8ff" d="M327.68,-120.62C337.71,-111.85 353.29,-98.25 365.6,-87.5"/>
<polygon fill="#63b8ff" stroke="#63b8ff" points="367.86,-90.18 373.09,-80.96 363.25,-84.9 367.86,-90.18"/>
</g>
<!-- Node18&#45;&gt;Node22 -->
<g id="edge24" class="edge">
<title>Node18&#45;&gt;Node22</title>
<path fill="none" stroke="#63b8ff" d="M337.7,-120.58C355.56,-112.61 382.52,-100.41 414.6,-84.81"/>
<polygon fill="#63b8ff" stroke="#63b8ff" points="415.91,-88.07 423.35,-80.53 412.83,-81.78 415.91,-88.07"/>
</g>
<!-- Node19&#45;&gt;Node8 -->
<g id="edge21" class="edge">
<title>Node19&#45;&gt;Node8</title>
<path fill="none" stroke="#63b8ff" d="M267.44,-54.54C257.42,-46.04 244.74,-35.29 234.41,-26.53"/>
<polygon fill="#63b8ff" stroke="#63b8ff" points="236.78,-23.95 226.89,-20.15 232.25,-29.29 236.78,-23.95"/>
</g>
<!-- Node20 -->
<g id="node20" class="node">
<title>Node20</title>
<g id="a_node20"><a xlink:title=" ">
<polygon fill="#e0e0e0" stroke="#999999" points="384.5,-19 322.5,-19 322.5,0 384.5,0 384.5,-19"/>
<text text-anchor="middle" x="353.5" y="-7" font-family="Helvetica,sans-Serif" font-size="10.00">type_traits</text>
</a>
</g>
</g>
<!-- Node19&#45;&gt;Node20 -->
<g id="edge20" class="edge">
<title>Node19&#45;&gt;Node20</title>
<path fill="none" stroke="#63b8ff" d="M301.56,-54.54C311.58,-46.04 324.26,-35.29 334.59,-26.53"/>
<polygon fill="#63b8ff" stroke="#63b8ff" points="336.75,-29.29 342.11,-20.15 332.22,-23.95 336.75,-29.29"/>
</g>
<!-- Node23&#45;&gt;Node20 -->
<g id="edge26" class="edge">
<title>Node23&#45;&gt;Node20</title>
<path fill="none" stroke="#63b8ff" d="M490.19,-120.95C489.2,-105.75 485.01,-73.84 467.5,-55 448.77,-34.85 419.82,-23.7 395.78,-17.6"/>
<polygon fill="#63b8ff" stroke="#63b8ff" points="396.79,-14.24 386.26,-15.41 395.22,-21.06 396.79,-14.24"/>
</g>
</g>
</svg>
