<?xml version="1.0" encoding="UTF-8" standalone="no"?>
<!DOCTYPE svg PUBLIC "-//W3C//DTD SVG 1.1//EN"
 "http://www.w3.org/Graphics/SVG/1.1/DTD/svg11.dtd">
<!-- Generated by graphviz version 2.43.0 (0)
 -->
<!-- Title: HealthGPS/event_message.h Pages: 1 -->
<svg width="2958pt" height="531pt"
 viewBox="0.00 0.00 2957.50 531.00" xmlns="http://www.w3.org/2000/svg" xmlns:xlink="http://www.w3.org/1999/xlink">
<g id="graph0" class="graph" transform="scale(1 1) rotate(0) translate(4 527)">
<title>HealthGPS/event_message.h</title>
<!-- Node1 -->
<g id="node1" class="node">
<title>Node1</title>
<g id="a_node1"><a xlink:title=" ">
<polygon fill="#bfbfbf" stroke="black" points="2199,-503.5 2199,-522.5 2357,-522.5 2357,-503.5 2199,-503.5"/>
<text text-anchor="middle" x="2278" y="-510.5" font-family="Helvetica,sans-Serif" font-size="10.00">HealthGPS/event_message.h</text>
</a>
</g>
</g>
<!-- Node2 -->
<g id="node2" class="node">
<title>Node2</title>
<g id="a_node2"><a xlink:href="error__message_8h.html" target="_top" xlink:title=" ">
<polygon fill="none" stroke="black" points="2201.5,-447.5 2201.5,-466.5 2354.5,-466.5 2354.5,-447.5 2201.5,-447.5"/>
<text text-anchor="middle" x="2278" y="-454.5" font-family="Helvetica,sans-Serif" font-size="10.00">HealthGPS/error_message.h</text>
</a>
</g>
</g>
<!-- Node1&#45;&gt;Node2 -->
<g id="edge1" class="edge">
<title>Node1&#45;&gt;Node2</title>
<path fill="none" stroke="midnightblue" d="M2278,-492.8C2278,-483.91 2278,-473.78 2278,-466.75"/>
<polygon fill="midnightblue" stroke="midnightblue" points="2274.5,-493.08 2278,-503.08 2281.5,-493.08 2274.5,-493.08"/>
</g>
<!-- Node5 -->
<g id="node5" class="node">
<title>Node5</title>
<g id="a_node5"><a xlink:href="event__aggregator_8h.html" target="_top" xlink:title=" ">
<polygon fill="none" stroke="black" points="1831,-447.5 1831,-466.5 1997,-466.5 1997,-447.5 1831,-447.5"/>
<text text-anchor="middle" x="1914" y="-454.5" font-family="Helvetica,sans-Serif" font-size="10.00">HealthGPS/event_aggregator.h</text>
</a>
</g>
</g>
<!-- Node1&#45;&gt;Node5 -->
<g id="edge4" class="edge">
<title>Node1&#45;&gt;Node5</title>
<path fill="none" stroke="midnightblue" d="M2210.03,-501.92C2141.26,-491.71 2036.13,-476.12 1971.41,-466.52"/>
<polygon fill="midnightblue" stroke="midnightblue" points="2209.92,-505.44 2220.32,-503.44 2210.95,-498.51 2209.92,-505.44"/>
</g>
<!-- Node38 -->
<g id="node38" class="node">
<title>Node38</title>
<g id="a_node38"><a xlink:href="info__message_8h.html" target="_top" xlink:title=" ">
<polygon fill="none" stroke="black" points="2033.5,-319 2033.5,-338 2182.5,-338 2182.5,-319 2033.5,-319"/>
<text text-anchor="middle" x="2108" y="-326" font-family="Helvetica,sans-Serif" font-size="10.00">HealthGPS/info_message.h</text>
</a>
</g>
</g>
<!-- Node1&#45;&gt;Node38 -->
<g id="edge49" class="edge">
<title>Node1&#45;&gt;Node38</title>
<path fill="none" stroke="midnightblue" d="M2244.76,-499.37C2227.89,-491.8 2207.88,-480.92 2193,-467 2150.57,-427.32 2121.18,-361.91 2111.49,-338.32"/>
<polygon fill="midnightblue" stroke="midnightblue" points="2243.7,-502.72 2254.27,-503.44 2246.45,-496.28 2243.7,-502.72"/>
</g>
<!-- Node40 -->
<g id="node40" class="node">
<title>Node40</title>
<g id="a_node40"><a xlink:href="result__message_8h.html" target="_top" xlink:title=" ">
<polygon fill="none" stroke="black" points="2409,-447.5 2409,-466.5 2567,-466.5 2567,-447.5 2409,-447.5"/>
<text text-anchor="middle" x="2488" y="-454.5" font-family="Helvetica,sans-Serif" font-size="10.00">HealthGPS/result_message.h</text>
</a>
</g>
</g>
<!-- Node1&#45;&gt;Node40 -->
<g id="edge53" class="edge">
<title>Node1&#45;&gt;Node40</title>
<path fill="none" stroke="midnightblue" d="M2321.19,-500.89C2360.85,-490.7 2418.77,-475.8 2454.88,-466.52"/>
<polygon fill="midnightblue" stroke="midnightblue" points="2320.09,-497.56 2311.28,-503.44 2321.83,-504.34 2320.09,-497.56"/>
</g>
<!-- Node45 -->
<g id="node45" class="node">
<title>Node45</title>
<g id="a_node45"><a xlink:href="runner__message_8h.html" target="_top" xlink:title=" ">
<polygon fill="none" stroke="black" points="2782.5,-386 2782.5,-405 2943.5,-405 2943.5,-386 2782.5,-386"/>
<text text-anchor="middle" x="2863" y="-393" font-family="Helvetica,sans-Serif" font-size="10.00">HealthGPS/runner_message.h</text>
</a>
</g>
</g>
<!-- Node1&#45;&gt;Node45 -->
<g id="edge61" class="edge">
<title>Node1&#45;&gt;Node45</title>
<path fill="none" stroke="midnightblue" d="M2356.57,-502.12C2416.85,-494.06 2502.01,-481.64 2576,-467 2670.12,-448.37 2779.88,-419.34 2832.2,-405.04"/>
<polygon fill="midnightblue" stroke="midnightblue" points="2355.81,-498.69 2346.36,-503.48 2356.73,-505.63 2355.81,-498.69"/>
</g>
<!-- Node3 -->
<g id="node3" class="node">
<title>Node3</title>
<g id="a_node3"><a xlink:href="error__message_8cpp.html" target="_top" xlink:title=" ">
<polygon fill="none" stroke="black" points="2178,-386 2178,-405 2342,-405 2342,-386 2178,-386"/>
<text text-anchor="middle" x="2260" y="-393" font-family="Helvetica,sans-Serif" font-size="10.00">HealthGPS/error_message.cpp</text>
</a>
</g>
</g>
<!-- Node2&#45;&gt;Node3 -->
<g id="edge2" class="edge">
<title>Node2&#45;&gt;Node3</title>
<path fill="none" stroke="midnightblue" d="M2272.45,-437.66C2269.16,-426.77 2265.14,-413.49 2262.57,-405.01"/>
<polygon fill="midnightblue" stroke="midnightblue" points="2269.18,-438.92 2275.42,-447.48 2275.88,-436.89 2269.18,-438.92"/>
</g>
<!-- Node4 -->
<g id="node4" class="node">
<title>Node4</title>
<g id="a_node4"><a xlink:href="event__monitor_8cpp.html" target="_top" xlink:title=" ">
<polygon fill="none" stroke="black" points="2275.5,-246.5 2275.5,-276.5 2416.5,-276.5 2416.5,-246.5 2275.5,-246.5"/>
<text text-anchor="start" x="2283.5" y="-264.5" font-family="Helvetica,sans-Serif" font-size="10.00">HealthGPS.Console/event</text>
<text text-anchor="middle" x="2346" y="-253.5" font-family="Helvetica,sans-Serif" font-size="10.00">_monitor.cpp</text>
</a>
</g>
</g>
<!-- Node2&#45;&gt;Node4 -->
<g id="edge3" class="edge">
<title>Node2&#45;&gt;Node4</title>
<path fill="none" stroke="midnightblue" d="M2313.45,-443.2C2327.78,-436.06 2342.84,-425.61 2351,-411 2375.39,-367.3 2359.94,-304.55 2351.03,-276.72"/>
<polygon fill="midnightblue" stroke="midnightblue" points="2311.85,-440.08 2304.21,-447.41 2314.76,-446.44 2311.85,-440.08"/>
</g>
<!-- Node6 -->
<g id="node6" class="node">
<title>Node6</title>
<g id="a_node6"><a xlink:href="HealthGPS_2api_8h.html" target="_top" xlink:title=" ">
<polygon fill="none" stroke="black" points="1920.5,-56.5 1920.5,-75.5 2015.5,-75.5 2015.5,-56.5 1920.5,-56.5"/>
<text text-anchor="middle" x="1968" y="-63.5" font-family="Helvetica,sans-Serif" font-size="10.00">HealthGPS/api.h</text>
</a>
</g>
</g>
<!-- Node5&#45;&gt;Node6 -->
<g id="edge5" class="edge">
<title>Node5&#45;&gt;Node6</title>
<path fill="none" stroke="midnightblue" d="M1917.68,-437.52C1921,-421.97 1926.37,-399.25 1933,-380 1938.7,-363.44 1943.43,-360.6 1949,-344 1960.83,-308.74 1968,-299.69 1968,-262.5 1968,-262.5 1968,-262.5 1968,-193.5 1968,-149.14 1968,-96.02 1968,-75.59"/>
<polygon fill="midnightblue" stroke="midnightblue" points="1914.23,-436.92 1915.64,-447.43 1921.09,-438.34 1914.23,-436.92"/>
</g>
<!-- Node8 -->
<g id="node8" class="node">
<title>Node8</title>
<g id="a_node8"><a xlink:href="event__subscriber_8h.html" target="_top" xlink:title=" ">
<polygon fill="none" stroke="black" points="160.5,-386 160.5,-405 323.5,-405 323.5,-386 160.5,-386"/>
<text text-anchor="middle" x="242" y="-393" font-family="Helvetica,sans-Serif" font-size="10.00">HealthGPS/event_subscriber.h</text>
</a>
</g>
</g>
<!-- Node5&#45;&gt;Node8 -->
<g id="edge7" class="edge">
<title>Node5&#45;&gt;Node8</title>
<path fill="none" stroke="midnightblue" d="M1820.83,-454.73C1528.65,-450.51 632.66,-435.86 343,-411 326.76,-409.61 309.15,-407.34 293.25,-405.01"/>
<polygon fill="midnightblue" stroke="midnightblue" points="1820.92,-458.23 1830.97,-454.87 1821.02,-451.23 1820.92,-458.23"/>
</g>
<!-- Node12 -->
<g id="node12" class="node">
<title>Node12</title>
<g id="a_node12"><a xlink:href="healthgps_8h.html" target="_top" xlink:title=" ">
<polygon fill="none" stroke="black" points="1340,-118 1340,-137 1468,-137 1468,-118 1340,-118"/>
<text text-anchor="middle" x="1404" y="-125" font-family="Helvetica,sans-Serif" font-size="10.00">HealthGPS/healthgps.h</text>
</a>
</g>
</g>
<!-- Node5&#45;&gt;Node12 -->
<g id="edge12" class="edge">
<title>Node5&#45;&gt;Node12</title>
<path fill="none" stroke="midnightblue" d="M1820.65,-453.33C1484.7,-443.12 357,-403.36 357,-329.5 357,-329.5 357,-329.5 357,-260.5 357,-184.24 434.62,-199.75 508,-179 664.48,-134.75 1161.54,-129.08 1339.69,-128.5"/>
<polygon fill="midnightblue" stroke="midnightblue" points="1820.74,-456.84 1830.84,-453.64 1820.95,-449.84 1820.74,-456.84"/>
</g>
<!-- Node16 -->
<g id="node16" class="node">
<title>Node16</title>
<g id="a_node16"><a xlink:href="modelrunner_8h.html" target="_top" xlink:title=" ">
<polygon fill="none" stroke="black" points="1942,-386 1942,-405 2084,-405 2084,-386 1942,-386"/>
<text text-anchor="middle" x="2013" y="-393" font-family="Helvetica,sans-Serif" font-size="10.00">HealthGPS/modelrunner.h</text>
</a>
</g>
</g>
<!-- Node5&#45;&gt;Node16 -->
<g id="edge18" class="edge">
<title>Node5&#45;&gt;Node16</title>
<path fill="none" stroke="midnightblue" d="M1936.89,-442.24C1956.01,-430.75 1982.68,-414.72 1998.84,-405.01"/>
<polygon fill="midnightblue" stroke="midnightblue" points="1934.95,-439.32 1928.18,-447.48 1938.56,-445.32 1934.95,-439.32"/>
</g>
<!-- Node18 -->
<g id="node18" class="node">
<title>Node18</title>
<g id="a_node18"><a xlink:href="runtime__context_8h.html" target="_top" xlink:title=" ">
<polygon fill="none" stroke="black" points="1104.5,-386 1104.5,-405 1265.5,-405 1265.5,-386 1104.5,-386"/>
<text text-anchor="middle" x="1185" y="-393" font-family="Helvetica,sans-Serif" font-size="10.00">HealthGPS/runtime_context.h</text>
</a>
</g>
</g>
<!-- Node5&#45;&gt;Node18 -->
<g id="edge21" class="edge">
<title>Node5&#45;&gt;Node18</title>
<path fill="none" stroke="midnightblue" d="M1820.57,-448.37C1676.25,-436.6 1401.58,-414.18 1265.52,-403.07"/>
<polygon fill="midnightblue" stroke="midnightblue" points="1820.48,-451.88 1830.73,-449.2 1821.05,-444.9 1820.48,-451.88"/>
</g>
<!-- Node37 -->
<g id="node37" class="node">
<title>Node37</title>
<g id="a_node37"><a xlink:href="event__monitor_8h.html" target="_top" xlink:title=" ">
<polygon fill="none" stroke="black" points="2200.5,-313.5 2200.5,-343.5 2341.5,-343.5 2341.5,-313.5 2200.5,-313.5"/>
<text text-anchor="start" x="2208.5" y="-331.5" font-family="Helvetica,sans-Serif" font-size="10.00">HealthGPS.Console/event</text>
<text text-anchor="middle" x="2271" y="-320.5" font-family="Helvetica,sans-Serif" font-size="10.00">_monitor.h</text>
</a>
</g>
</g>
<!-- Node5&#45;&gt;Node37 -->
<g id="edge46" class="edge">
<title>Node5&#45;&gt;Node37</title>
<path fill="none" stroke="midnightblue" d="M1967.14,-445.32C2003.15,-437.43 2051.55,-425.56 2093,-411 2122.1,-400.78 2199.41,-364.08 2241.94,-343.59"/>
<polygon fill="midnightblue" stroke="midnightblue" points="1966.37,-441.91 1957.33,-447.44 1967.84,-448.75 1966.37,-441.91"/>
</g>
<!-- Node7 -->
<g id="node7" class="node">
<title>Node7</title>
<g id="a_node7"><a xlink:href="program_8cpp.html" target="_top" xlink:title=" ">
<polygon fill="none" stroke="black" points="1966.5,-0.5 1966.5,-19.5 2141.5,-19.5 2141.5,-0.5 1966.5,-0.5"/>
<text text-anchor="middle" x="2054" y="-7.5" font-family="Helvetica,sans-Serif" font-size="10.00">HealthGPS.Console/program.cpp</text>
</a>
</g>
</g>
<!-- Node6&#45;&gt;Node7 -->
<g id="edge6" class="edge">
<title>Node6&#45;&gt;Node7</title>
<path fill="none" stroke="midnightblue" d="M1990.45,-50.9C2006.22,-41 2026.81,-28.07 2040.22,-19.65"/>
<polygon fill="midnightblue" stroke="midnightblue" points="1988.43,-48.04 1981.82,-56.32 1992.15,-53.97 1988.43,-48.04"/>
</g>
<!-- Node9 -->
<g id="node9" class="node">
<title>Node9</title>
<g id="a_node9"><a xlink:href="event__bus_8h.html" target="_top" xlink:title=" ">
<polygon fill="none" stroke="black" points="5.5,-319 5.5,-338 136.5,-338 136.5,-319 5.5,-319"/>
<text text-anchor="middle" x="71" y="-326" font-family="Helvetica,sans-Serif" font-size="10.00">HealthGPS/event_bus.h</text>
</a>
</g>
</g>
<!-- Node8&#45;&gt;Node9 -->
<g id="edge8" class="edge">
<title>Node8&#45;&gt;Node9</title>
<path fill="none" stroke="midnightblue" d="M209.83,-382.27C175.89,-369.37 123.29,-349.38 93.53,-338.06"/>
<polygon fill="midnightblue" stroke="midnightblue" points="208.7,-385.59 219.29,-385.87 211.19,-379.04 208.7,-385.59"/>
</g>
<!-- Node11 -->
<g id="node11" class="node">
<title>Node11</title>
<g id="a_node11"><a xlink:href="event__subscriber_8cpp.html" target="_top" xlink:title=" ">
<polygon fill="none" stroke="black" points="155,-319 155,-338 329,-338 329,-319 155,-319"/>
<text text-anchor="middle" x="242" y="-326" font-family="Helvetica,sans-Serif" font-size="10.00">HealthGPS/event_subscriber.cpp</text>
</a>
</g>
</g>
<!-- Node8&#45;&gt;Node11 -->
<g id="edge11" class="edge">
<title>Node8&#45;&gt;Node11</title>
<path fill="none" stroke="midnightblue" d="M242,-375.54C242,-363.17 242,-347.62 242,-338.13"/>
<polygon fill="midnightblue" stroke="midnightblue" points="238.5,-375.73 242,-385.73 245.5,-375.73 238.5,-375.73"/>
</g>
<!-- Node9&#45;&gt;Node7 -->
<g id="edge10" class="edge">
<title>Node9&#45;&gt;Node7</title>
<path fill="none" stroke="midnightblue" d="M112.88,-315.93C164.37,-298.86 245,-261.58 245,-195.5 245,-195.5 245,-195.5 245,-126.5 245,-39.19 1604.63,-16.46 1966.44,-11.95"/>
<polygon fill="midnightblue" stroke="midnightblue" points="111.78,-312.61 103.32,-318.98 113.91,-319.28 111.78,-312.61"/>
</g>
<!-- Node10 -->
<g id="node10" class="node">
<title>Node10</title>
<g id="a_node10"><a xlink:href="event__bus_8cpp.html" target="_top" xlink:title=" ">
<polygon fill="none" stroke="black" points="0,-252 0,-271 142,-271 142,-252 0,-252"/>
<text text-anchor="middle" x="71" y="-259" font-family="Helvetica,sans-Serif" font-size="10.00">HealthGPS/event_bus.cpp</text>
</a>
</g>
</g>
<!-- Node9&#45;&gt;Node10 -->
<g id="edge9" class="edge">
<title>Node9&#45;&gt;Node10</title>
<path fill="none" stroke="midnightblue" d="M71,-308.54C71,-296.17 71,-280.62 71,-271.13"/>
<polygon fill="midnightblue" stroke="midnightblue" points="67.5,-308.73 71,-318.73 74.5,-308.73 67.5,-308.73"/>
</g>
<!-- Node12&#45;&gt;Node6 -->
<g id="edge13" class="edge">
<title>Node12&#45;&gt;Node6</title>
<path fill="none" stroke="midnightblue" d="M1452.9,-116.06C1460.93,-114.55 1469.18,-113.13 1477,-112 1638.81,-88.58 1832.49,-75.06 1920.41,-69.7"/>
<polygon fill="midnightblue" stroke="midnightblue" points="1452.04,-112.65 1442.89,-117.99 1453.37,-119.53 1452.04,-112.65"/>
</g>
<!-- Node13 -->
<g id="node13" class="node">
<title>Node13</title>
<g id="a_node13"><a xlink:href="healthgps_8cpp.html" target="_top" xlink:title=" ">
<polygon fill="none" stroke="black" points="1450,-56.5 1450,-75.5 1590,-75.5 1590,-56.5 1450,-56.5"/>
<text text-anchor="middle" x="1520" y="-63.5" font-family="Helvetica,sans-Serif" font-size="10.00">HealthGPS/healthgps.cpp</text>
</a>
</g>
</g>
<!-- Node12&#45;&gt;Node13 -->
<g id="edge14" class="edge">
<title>Node12&#45;&gt;Node13</title>
<path fill="none" stroke="midnightblue" d="M1429.6,-113.37C1452.09,-101.83 1484.13,-85.4 1503.41,-75.51"/>
<polygon fill="midnightblue" stroke="midnightblue" points="1427.92,-110.3 1420.62,-117.98 1431.12,-116.53 1427.92,-110.3"/>
</g>
<!-- Node14 -->
<g id="node14" class="node">
<title>Node14</title>
<g id="a_node14"><a xlink:href="configuration_8h.html" target="_top" xlink:title=" ">
<polygon fill="none" stroke="black" points="2250,-56.5 2250,-75.5 2436,-75.5 2436,-56.5 2250,-56.5"/>
<text text-anchor="middle" x="2343" y="-63.5" font-family="Helvetica,sans-Serif" font-size="10.00">HealthGPS.Console/configuration.h</text>
</a>
</g>
</g>
<!-- Node12&#45;&gt;Node14 -->
<g id="edge15" class="edge">
<title>Node12&#45;&gt;Node14</title>
<path fill="none" stroke="midnightblue" d="M1451.75,-115.99C1460.13,-114.44 1468.8,-113.02 1477,-112 1624.15,-93.66 2057.65,-76.9 2249.66,-70.15"/>
<polygon fill="midnightblue" stroke="midnightblue" points="1450.87,-112.6 1441.72,-117.93 1452.2,-119.47 1450.87,-112.6"/>
</g>
<!-- Node14&#45;&gt;Node7 -->
<g id="edge17" class="edge">
<title>Node14&#45;&gt;Node7</title>
<path fill="none" stroke="midnightblue" d="M2287.34,-54.6C2232.73,-44.4 2150.43,-29.02 2099.58,-19.52"/>
<polygon fill="midnightblue" stroke="midnightblue" points="2286.73,-58.05 2297.21,-56.44 2288.02,-51.17 2286.73,-58.05"/>
</g>
<!-- Node15 -->
<g id="node15" class="node">
<title>Node15</title>
<g id="a_node15"><a xlink:href="configuration_8cpp.html" target="_top" xlink:title=" ">
<polygon fill="none" stroke="black" points="2244.5,-0.5 2244.5,-19.5 2441.5,-19.5 2441.5,-0.5 2244.5,-0.5"/>
<text text-anchor="middle" x="2343" y="-7.5" font-family="Helvetica,sans-Serif" font-size="10.00">HealthGPS.Console/configuration.cpp</text>
</a>
</g>
</g>
<!-- Node14&#45;&gt;Node15 -->
<g id="edge16" class="edge">
<title>Node14&#45;&gt;Node15</title>
<path fill="none" stroke="midnightblue" d="M2343,-45.8C2343,-36.91 2343,-26.78 2343,-19.75"/>
<polygon fill="midnightblue" stroke="midnightblue" points="2339.5,-46.08 2343,-56.08 2346.5,-46.08 2339.5,-46.08"/>
</g>
<!-- Node16&#45;&gt;Node6 -->
<g id="edge19" class="edge">
<title>Node16&#45;&gt;Node6</title>
<path fill="none" stroke="midnightblue" d="M2011.38,-375.73C2009.31,-350.16 2006,-302.9 2006,-262.5 2006,-262.5 2006,-262.5 2006,-193.5 2006,-147.41 1982.57,-95.71 1972.51,-75.63"/>
<polygon fill="midnightblue" stroke="midnightblue" points="2007.9,-376.19 2012.22,-385.86 2014.88,-375.6 2007.9,-376.19"/>
</g>
<!-- Node17 -->
<g id="node17" class="node">
<title>Node17</title>
<g id="a_node17"><a xlink:href="modelrunner_8cpp.html" target="_top" xlink:title=" ">
<polygon fill="none" stroke="black" points="2398.5,-319 2398.5,-338 2551.5,-338 2551.5,-319 2398.5,-319"/>
<text text-anchor="middle" x="2475" y="-326" font-family="Helvetica,sans-Serif" font-size="10.00">HealthGPS/modelrunner.cpp</text>
</a>
</g>
</g>
<!-- Node16&#45;&gt;Node17 -->
<g id="edge20" class="edge">
<title>Node16&#45;&gt;Node17</title>
<path fill="none" stroke="midnightblue" d="M2084.04,-384.51C2174.48,-371.78 2329.2,-350.01 2414.36,-338.03"/>
<polygon fill="midnightblue" stroke="midnightblue" points="2083.29,-381.08 2073.87,-385.94 2084.26,-388.01 2083.29,-381.08"/>
</g>
<!-- Node18&#45;&gt;Node12 -->
<g id="edge37" class="edge">
<title>Node18&#45;&gt;Node12</title>
<path fill="none" stroke="midnightblue" d="M1094.32,-395.35C900.48,-396.21 459.64,-392.72 414,-344 384.23,-312.21 386.09,-279.44 414,-246 473.55,-174.67 1129.85,-140.33 1339.81,-131.11"/>
<polygon fill="midnightblue" stroke="midnightblue" points="1094.5,-398.85 1104.49,-395.3 1094.47,-391.85 1094.5,-398.85"/>
</g>
<!-- Node19 -->
<g id="node19" class="node">
<title>Node19</title>
<g id="a_node19"><a xlink:href="analysis__module_8h.html" target="_top" xlink:title=" ">
<polygon fill="none" stroke="black" points="1828,-313.5 1828,-343.5 1940,-343.5 1940,-313.5 1828,-313.5"/>
<text text-anchor="start" x="1836" y="-331.5" font-family="Helvetica,sans-Serif" font-size="10.00">HealthGPS/analysis</text>
<text text-anchor="middle" x="1884" y="-320.5" font-family="Helvetica,sans-Serif" font-size="10.00">_module.h</text>
</a>
</g>
</g>
<!-- Node18&#45;&gt;Node19 -->
<g id="edge22" class="edge">
<title>Node18&#45;&gt;Node19</title>
<path fill="none" stroke="midnightblue" d="M1275.74,-391.16C1399.05,-385.73 1626.17,-372.59 1818,-344 1821.25,-343.52 1824.58,-342.96 1827.93,-342.37"/>
<polygon fill="midnightblue" stroke="midnightblue" points="1275.43,-387.67 1265.59,-391.6 1275.73,-394.66 1275.43,-387.67"/>
</g>
<!-- Node23 -->
<g id="node23" class="node">
<title>Node23</title>
<g id="a_node23"><a xlink:href="default__cancer__model_8cpp.html" target="_top" xlink:title=" ">
<polygon fill="none" stroke="black" points="585.5,-313.5 585.5,-343.5 728.5,-343.5 728.5,-313.5 585.5,-313.5"/>
<text text-anchor="start" x="593.5" y="-331.5" font-family="Helvetica,sans-Serif" font-size="10.00">HealthGPS/default_cancer</text>
<text text-anchor="middle" x="657" y="-320.5" font-family="Helvetica,sans-Serif" font-size="10.00">_model.cpp</text>
</a>
</g>
</g>
<!-- Node18&#45;&gt;Node23 -->
<g id="edge28" class="edge">
<title>Node18&#45;&gt;Node23</title>
<path fill="none" stroke="midnightblue" d="M1094.29,-386.08C1003.63,-377.23 860.35,-362.11 737,-344 734.35,-343.61 731.65,-343.2 728.92,-342.77"/>
<polygon fill="midnightblue" stroke="midnightblue" points="1093.97,-389.56 1104.26,-387.04 1094.65,-382.59 1093.97,-389.56"/>
</g>
<!-- Node24 -->
<g id="node24" class="node">
<title>Node24</title>
<g id="a_node24"><a xlink:href="default__disease__model_8cpp.html" target="_top" xlink:title=" ">
<polygon fill="none" stroke="black" points="746.5,-313.5 746.5,-343.5 895.5,-343.5 895.5,-313.5 746.5,-313.5"/>
<text text-anchor="start" x="754.5" y="-331.5" font-family="Helvetica,sans-Serif" font-size="10.00">HealthGPS/default_disease</text>
<text text-anchor="middle" x="821" y="-320.5" font-family="Helvetica,sans-Serif" font-size="10.00">_model.cpp</text>
</a>
</g>
</g>
<!-- Node18&#45;&gt;Node24 -->
<g id="edge29" class="edge">
<title>Node18&#45;&gt;Node24</title>
<path fill="none" stroke="midnightblue" d="M1126.93,-384.13C1064.21,-372.93 964.12,-355.06 895.61,-342.82"/>
<polygon fill="midnightblue" stroke="midnightblue" points="1126.58,-387.62 1137.04,-385.94 1127.81,-380.73 1126.58,-387.62"/>
</g>
<!-- Node25 -->
<g id="node25" class="node">
<title>Node25</title>
<g id="a_node25"><a xlink:href="demographic_8h.html" target="_top" xlink:title=" ">
<polygon fill="none" stroke="black" points="423,-319 423,-338 567,-338 567,-319 423,-319"/>
<text text-anchor="middle" x="495" y="-326" font-family="Helvetica,sans-Serif" font-size="10.00">HealthGPS/demographic.h</text>
</a>
</g>
</g>
<!-- Node18&#45;&gt;Node25 -->
<g id="edge30" class="edge">
<title>Node18&#45;&gt;Node25</title>
<path fill="none" stroke="midnightblue" d="M1094.28,-389.66C975.04,-382.68 759.23,-367.94 576,-344 563.68,-342.39 550.37,-340.2 538.18,-338.01"/>
<polygon fill="midnightblue" stroke="midnightblue" points="1094.27,-393.16 1104.45,-390.25 1094.67,-386.18 1094.27,-393.16"/>
</g>
<!-- Node27 -->
<g id="node27" class="node">
<title>Node27</title>
<g id="a_node27"><a xlink:href="HealthGPS_2disease_8h.html" target="_top" xlink:title=" ">
<polygon fill="none" stroke="black" points="1050,-319 1050,-338 1168,-338 1168,-319 1050,-319"/>
<text text-anchor="middle" x="1109" y="-326" font-family="Helvetica,sans-Serif" font-size="10.00">HealthGPS/disease.h</text>
</a>
</g>
</g>
<!-- Node18&#45;&gt;Node27 -->
<g id="edge33" class="edge">
<title>Node18&#45;&gt;Node27</title>
<path fill="none" stroke="midnightblue" d="M1167.13,-379.21C1152.15,-366.41 1131.32,-348.59 1119.09,-338.13"/>
<polygon fill="midnightblue" stroke="midnightblue" points="1164.88,-381.89 1174.75,-385.73 1169.43,-376.57 1164.88,-381.89"/>
</g>
<!-- Node29 -->
<g id="node29" class="node">
<title>Node29</title>
<g id="a_node29"><a xlink:href="energy__balance__model_8cpp.html" target="_top" xlink:title=" ">
<polygon fill="none" stroke="black" points="1186.5,-313.5 1186.5,-343.5 1335.5,-343.5 1335.5,-313.5 1186.5,-313.5"/>
<text text-anchor="start" x="1194.5" y="-331.5" font-family="Helvetica,sans-Serif" font-size="10.00">HealthGPS/energy_balance</text>
<text text-anchor="middle" x="1261" y="-320.5" font-family="Helvetica,sans-Serif" font-size="10.00">_model.cpp</text>
</a>
</g>
</g>
<!-- Node18&#45;&gt;Node29 -->
<g id="edge36" class="edge">
<title>Node18&#45;&gt;Node29</title>
<path fill="none" stroke="midnightblue" d="M1203.21,-378.93C1215.78,-368.18 1232.35,-354 1244.53,-343.59"/>
<polygon fill="midnightblue" stroke="midnightblue" points="1200.57,-376.57 1195.25,-385.73 1205.12,-381.89 1200.57,-376.57"/>
</g>
<!-- Node30 -->
<g id="node30" class="node">
<title>Node30</title>
<g id="a_node30"><a xlink:href="hierarchical__model__static_8cpp.html" target="_top" xlink:title=" ">
<polygon fill="none" stroke="black" points="1354,-313.5 1354,-343.5 1482,-343.5 1482,-313.5 1354,-313.5"/>
<text text-anchor="start" x="1362" y="-331.5" font-family="Helvetica,sans-Serif" font-size="10.00">HealthGPS/hierarchical</text>
<text text-anchor="middle" x="1418" y="-320.5" font-family="Helvetica,sans-Serif" font-size="10.00">_model_static.cpp</text>
</a>
</g>
</g>
<!-- Node18&#45;&gt;Node30 -->
<g id="edge38" class="edge">
<title>Node18&#45;&gt;Node30</title>
<path fill="none" stroke="midnightblue" d="M1225.77,-383.13C1265.27,-372.11 1325.27,-355.37 1367.71,-343.53"/>
<polygon fill="midnightblue" stroke="midnightblue" points="1224.63,-379.81 1215.94,-385.87 1226.51,-386.55 1224.63,-379.81"/>
</g>
<!-- Node31 -->
<g id="node31" class="node">
<title>Node31</title>
<g id="a_node31"><a xlink:href="riskfactor__adjustment_8h.html" target="_top" xlink:title=" ">
<polygon fill="none" stroke="black" points="914,-313.5 914,-343.5 1032,-343.5 1032,-313.5 914,-313.5"/>
<text text-anchor="start" x="922" y="-331.5" font-family="Helvetica,sans-Serif" font-size="10.00">HealthGPS/riskfactor</text>
<text text-anchor="middle" x="973" y="-320.5" font-family="Helvetica,sans-Serif" font-size="10.00">_adjustment.h</text>
</a>
</g>
</g>
<!-- Node18&#45;&gt;Node31 -->
<g id="edge39" class="edge">
<title>Node18&#45;&gt;Node31</title>
<path fill="none" stroke="midnightblue" d="M1147.22,-382.92C1111.27,-371.9 1057.13,-355.29 1018.75,-343.53"/>
<polygon fill="midnightblue" stroke="midnightblue" points="1146.26,-386.28 1156.85,-385.87 1148.31,-379.59 1146.26,-386.28"/>
</g>
<!-- Node35 -->
<g id="node35" class="node">
<title>Node35</title>
<g id="a_node35"><a xlink:href="runtime__context_8cpp.html" target="_top" xlink:title=" ">
<polygon fill="none" stroke="black" points="1500,-319 1500,-338 1672,-338 1672,-319 1500,-319"/>
<text text-anchor="middle" x="1586" y="-326" font-family="Helvetica,sans-Serif" font-size="10.00">HealthGPS/runtime_context.cpp</text>
</a>
</g>
</g>
<!-- Node18&#45;&gt;Node35 -->
<g id="edge44" class="edge">
<title>Node18&#45;&gt;Node35</title>
<path fill="none" stroke="midnightblue" d="M1248.1,-384.27C1326.79,-371.52 1459.9,-349.94 1533.37,-338.03"/>
<polygon fill="midnightblue" stroke="midnightblue" points="1247.15,-380.88 1237.84,-385.94 1248.27,-387.79 1247.15,-380.88"/>
</g>
<!-- Node36 -->
<g id="node36" class="node">
<title>Node36</title>
<g id="a_node36"><a xlink:href="ses__noise__module_8cpp.html" target="_top" xlink:title=" ">
<polygon fill="none" stroke="black" points="1690.5,-313.5 1690.5,-343.5 1809.5,-343.5 1809.5,-313.5 1690.5,-313.5"/>
<text text-anchor="start" x="1698.5" y="-331.5" font-family="Helvetica,sans-Serif" font-size="10.00">HealthGPS/ses_noise</text>
<text text-anchor="middle" x="1750" y="-320.5" font-family="Helvetica,sans-Serif" font-size="10.00">_module.cpp</text>
</a>
</g>
</g>
<!-- Node18&#45;&gt;Node36 -->
<g id="edge45" class="edge">
<title>Node18&#45;&gt;Node36</title>
<path fill="none" stroke="midnightblue" d="M1275.7,-388.16C1375.43,-380.51 1540.22,-365.9 1681,-344 1684.02,-343.53 1687.12,-343.01 1690.23,-342.46"/>
<polygon fill="midnightblue" stroke="midnightblue" points="1275.36,-384.67 1265.66,-388.92 1275.89,-391.65 1275.36,-384.67"/>
</g>
<!-- Node20 -->
<g id="node20" class="node">
<title>Node20</title>
<g id="a_node20"><a xlink:href="analysis__module_8cpp.html" target="_top" xlink:title=" ">
<polygon fill="none" stroke="black" points="1790,-246.5 1790,-276.5 1902,-276.5 1902,-246.5 1790,-246.5"/>
<text text-anchor="start" x="1798" y="-264.5" font-family="Helvetica,sans-Serif" font-size="10.00">HealthGPS/analysis</text>
<text text-anchor="middle" x="1846" y="-253.5" font-family="Helvetica,sans-Serif" font-size="10.00">_module.cpp</text>
</a>
</g>
</g>
<!-- Node19&#45;&gt;Node20 -->
<g id="edge23" class="edge">
<title>Node19&#45;&gt;Node20</title>
<path fill="none" stroke="midnightblue" d="M1870.6,-304.58C1865.14,-295.24 1859.01,-284.75 1854.23,-276.58"/>
<polygon fill="midnightblue" stroke="midnightblue" points="1867.69,-306.53 1875.75,-313.4 1873.73,-303 1867.69,-306.53"/>
</g>
<!-- Node21 -->
<g id="node21" class="node">
<title>Node21</title>
<g id="a_node21"><a xlink:href="simulation__module_8h.html" target="_top" xlink:title=" ">
<polygon fill="none" stroke="black" points="1342.5,-179.5 1342.5,-209.5 1465.5,-209.5 1465.5,-179.5 1342.5,-179.5"/>
<text text-anchor="start" x="1350.5" y="-197.5" font-family="Helvetica,sans-Serif" font-size="10.00">HealthGPS/simulation</text>
<text text-anchor="middle" x="1404" y="-186.5" font-family="Helvetica,sans-Serif" font-size="10.00">_module.h</text>
</a>
</g>
</g>
<!-- Node19&#45;&gt;Node21 -->
<g id="edge24" class="edge">
<title>Node19&#45;&gt;Node21</title>
<path fill="none" stroke="midnightblue" d="M1823.29,-310.8C1727.81,-284.55 1544.27,-234.08 1455.11,-209.56"/>
<polygon fill="midnightblue" stroke="midnightblue" points="1822.52,-314.22 1833.09,-313.5 1824.37,-307.47 1822.52,-314.22"/>
</g>
<!-- Node21&#45;&gt;Node6 -->
<g id="edge25" class="edge">
<title>Node21&#45;&gt;Node6</title>
<path fill="none" stroke="midnightblue" d="M1475.61,-177.44C1596.53,-150.32 1837.11,-96.36 1930.09,-75.5"/>
<polygon fill="midnightblue" stroke="midnightblue" points="1474.69,-174.06 1465.7,-179.66 1476.22,-180.89 1474.69,-174.06"/>
</g>
<!-- Node21&#45;&gt;Node12 -->
<g id="edge26" class="edge">
<title>Node21&#45;&gt;Node12</title>
<path fill="none" stroke="midnightblue" d="M1404,-169.25C1404,-158.02 1404,-145.38 1404,-137.19"/>
<polygon fill="midnightblue" stroke="midnightblue" points="1400.5,-169.4 1404,-179.4 1407.5,-169.4 1400.5,-169.4"/>
</g>
<!-- Node22 -->
<g id="node22" class="node">
<title>Node22</title>
<g id="a_node22"><a xlink:href="simulation__module_8cpp.html" target="_top" xlink:title=" ">
<polygon fill="none" stroke="black" points="1486.5,-112.5 1486.5,-142.5 1609.5,-142.5 1609.5,-112.5 1486.5,-112.5"/>
<text text-anchor="start" x="1494.5" y="-130.5" font-family="Helvetica,sans-Serif" font-size="10.00">HealthGPS/simulation</text>
<text text-anchor="middle" x="1548" y="-119.5" font-family="Helvetica,sans-Serif" font-size="10.00">_module.cpp</text>
</a>
</g>
</g>
<!-- Node21&#45;&gt;Node22 -->
<g id="edge27" class="edge">
<title>Node21&#45;&gt;Node22</title>
<path fill="none" stroke="midnightblue" d="M1444.39,-175.27C1467.32,-164.92 1495.6,-152.15 1516.82,-142.58"/>
<polygon fill="midnightblue" stroke="midnightblue" points="1442.92,-172.09 1435.25,-179.4 1445.8,-178.47 1442.92,-172.09"/>
</g>
<!-- Node25&#45;&gt;Node21 -->
<g id="edge32" class="edge">
<title>Node25&#45;&gt;Node21</title>
<path fill="none" stroke="midnightblue" d="M529.29,-315.71C583.66,-297.55 693.27,-263.04 789,-246 989.4,-210.33 1231.1,-199.79 1342.4,-196.73"/>
<polygon fill="midnightblue" stroke="midnightblue" points="528.16,-312.4 519.8,-318.91 530.4,-319.04 528.16,-312.4"/>
</g>
<!-- Node26 -->
<g id="node26" class="node">
<title>Node26</title>
<g id="a_node26"><a xlink:href="demographic_8cpp.html" target="_top" xlink:title=" ">
<polygon fill="none" stroke="black" points="423.5,-252 423.5,-271 578.5,-271 578.5,-252 423.5,-252"/>
<text text-anchor="middle" x="501" y="-259" font-family="Helvetica,sans-Serif" font-size="10.00">HealthGPS/demographic.cpp</text>
</a>
</g>
</g>
<!-- Node25&#45;&gt;Node26 -->
<g id="edge31" class="edge">
<title>Node25&#45;&gt;Node26</title>
<path fill="none" stroke="midnightblue" d="M496.75,-308.54C497.89,-296.17 499.33,-280.62 500.2,-271.13"/>
<polygon fill="midnightblue" stroke="midnightblue" points="493.24,-308.45 495.81,-318.73 500.21,-309.1 493.24,-308.45"/>
</g>
<!-- Node27&#45;&gt;Node21 -->
<g id="edge35" class="edge">
<title>Node27&#45;&gt;Node21</title>
<path fill="none" stroke="midnightblue" d="M1137.6,-314.7C1193.08,-289.88 1314.89,-235.37 1372.55,-209.57"/>
<polygon fill="midnightblue" stroke="midnightblue" points="1136.05,-311.56 1128.36,-318.84 1138.91,-317.95 1136.05,-311.56"/>
</g>
<!-- Node28 -->
<g id="node28" class="node">
<title>Node28</title>
<g id="a_node28"><a xlink:href="disease_8cpp.html" target="_top" xlink:title=" ">
<polygon fill="none" stroke="black" points="1078.5,-252 1078.5,-271 1207.5,-271 1207.5,-252 1078.5,-252"/>
<text text-anchor="middle" x="1143" y="-259" font-family="Helvetica,sans-Serif" font-size="10.00">HealthGPS/disease.cpp</text>
</a>
</g>
</g>
<!-- Node27&#45;&gt;Node28 -->
<g id="edge34" class="edge">
<title>Node27&#45;&gt;Node28</title>
<path fill="none" stroke="midnightblue" d="M1118.33,-309.66C1124.89,-297.13 1133.37,-280.91 1138.49,-271.13"/>
<polygon fill="midnightblue" stroke="midnightblue" points="1115.12,-308.25 1113.59,-318.73 1121.32,-311.5 1115.12,-308.25"/>
</g>
<!-- Node32 -->
<g id="node32" class="node">
<title>Node32</title>
<g id="a_node32"><a xlink:href="riskfactor_8h.html" target="_top" xlink:title=" ">
<polygon fill="none" stroke="black" points="798,-252 798,-271 924,-271 924,-252 798,-252"/>
<text text-anchor="middle" x="861" y="-259" font-family="Helvetica,sans-Serif" font-size="10.00">HealthGPS/riskfactor.h</text>
</a>
</g>
</g>
<!-- Node31&#45;&gt;Node32 -->
<g id="edge40" class="edge">
<title>Node31&#45;&gt;Node32</title>
<path fill="none" stroke="midnightblue" d="M939.93,-308.31C918.59,-295.93 891.89,-280.43 875.66,-271.01"/>
<polygon fill="midnightblue" stroke="midnightblue" points="938.29,-311.4 948.7,-313.4 941.81,-305.35 938.29,-311.4"/>
</g>
<!-- Node34 -->
<g id="node34" class="node">
<title>Node34</title>
<g id="a_node34"><a xlink:href="riskfactor__adjustment_8cpp.html" target="_top" xlink:title=" ">
<polygon fill="none" stroke="black" points="942,-246.5 942,-276.5 1060,-276.5 1060,-246.5 942,-246.5"/>
<text text-anchor="start" x="950" y="-264.5" font-family="Helvetica,sans-Serif" font-size="10.00">HealthGPS/riskfactor</text>
<text text-anchor="middle" x="1001" y="-253.5" font-family="Helvetica,sans-Serif" font-size="10.00">_adjustment.cpp</text>
</a>
</g>
</g>
<!-- Node31&#45;&gt;Node34 -->
<g id="edge43" class="edge">
<title>Node31&#45;&gt;Node34</title>
<path fill="none" stroke="midnightblue" d="M983.13,-303.99C987.08,-294.8 991.49,-284.58 994.94,-276.58"/>
<polygon fill="midnightblue" stroke="midnightblue" points="979.82,-302.83 979.08,-313.4 986.25,-305.6 979.82,-302.83"/>
</g>
<!-- Node32&#45;&gt;Node21 -->
<g id="edge42" class="edge">
<title>Node32&#45;&gt;Node21</title>
<path fill="none" stroke="midnightblue" d="M910.04,-250C917.71,-248.54 925.55,-247.15 933,-246 1079.1,-223.5 1252.24,-207.7 1342.42,-200.28"/>
<polygon fill="midnightblue" stroke="midnightblue" points="909.26,-246.58 900.12,-251.94 910.61,-253.45 909.26,-246.58"/>
</g>
<!-- Node33 -->
<g id="node33" class="node">
<title>Node33</title>
<g id="a_node33"><a xlink:href="riskfactor_8cpp.html" target="_top" xlink:title=" ">
<polygon fill="none" stroke="black" points="792.5,-185 792.5,-204 929.5,-204 929.5,-185 792.5,-185"/>
<text text-anchor="middle" x="861" y="-192" font-family="Helvetica,sans-Serif" font-size="10.00">HealthGPS/riskfactor.cpp</text>
</a>
</g>
</g>
<!-- Node32&#45;&gt;Node33 -->
<g id="edge41" class="edge">
<title>Node32&#45;&gt;Node33</title>
<path fill="none" stroke="midnightblue" d="M861,-241.54C861,-229.17 861,-213.62 861,-204.13"/>
<polygon fill="midnightblue" stroke="midnightblue" points="857.5,-241.73 861,-251.73 864.5,-241.73 857.5,-241.73"/>
</g>
<!-- Node37&#45;&gt;Node4 -->
<g id="edge47" class="edge">
<title>Node37&#45;&gt;Node4</title>
<path fill="none" stroke="midnightblue" d="M2295.12,-306.6C2306.44,-296.78 2319.64,-285.34 2329.76,-276.58"/>
<polygon fill="midnightblue" stroke="midnightblue" points="2292.54,-304.2 2287.27,-313.4 2297.12,-309.49 2292.54,-304.2"/>
</g>
<!-- Node37&#45;&gt;Node7 -->
<g id="edge48" class="edge">
<title>Node37&#45;&gt;Node7</title>
<path fill="none" stroke="midnightblue" d="M2256.81,-304.58C2242.34,-278.97 2222,-235.82 2222,-195.5 2222,-195.5 2222,-195.5 2222,-126.5 2222,-64.21 2142.59,-32.97 2092.96,-19.54"/>
<polygon fill="midnightblue" stroke="midnightblue" points="2253.95,-306.62 2262.01,-313.49 2259.99,-303.09 2253.95,-306.62"/>
</g>
<!-- Node38&#45;&gt;Node4 -->
<g id="edge52" class="edge">
<title>Node38&#45;&gt;Node4</title>
<path fill="none" stroke="midnightblue" d="M2149.38,-316.2C2189.73,-305.18 2251.19,-288.39 2294.64,-276.53"/>
<polygon fill="midnightblue" stroke="midnightblue" points="2148.33,-312.86 2139.6,-318.87 2150.17,-319.61 2148.33,-312.86"/>
</g>
<!-- Node38&#45;&gt;Node13 -->
<g id="edge50" class="edge">
<title>Node38&#45;&gt;Node13</title>
<path fill="none" stroke="midnightblue" d="M2079.62,-314.93C1976.88,-269.41 1625.87,-113.91 1539.38,-75.59"/>
<polygon fill="midnightblue" stroke="midnightblue" points="2078.21,-318.13 2088.77,-318.98 2081.05,-311.73 2078.21,-318.13"/>
</g>
<!-- Node39 -->
<g id="node39" class="node">
<title>Node39</title>
<g id="a_node39"><a xlink:href="info__message_8cpp.html" target="_top" xlink:title=" ">
<polygon fill="none" stroke="black" points="2034,-252 2034,-271 2194,-271 2194,-252 2034,-252"/>
<text text-anchor="middle" x="2114" y="-259" font-family="Helvetica,sans-Serif" font-size="10.00">HealthGPS/info_message.cpp</text>
</a>
</g>
</g>
<!-- Node38&#45;&gt;Node39 -->
<g id="edge51" class="edge">
<title>Node38&#45;&gt;Node39</title>
<path fill="none" stroke="midnightblue" d="M2109.75,-308.54C2110.89,-296.17 2112.33,-280.62 2113.2,-271.13"/>
<polygon fill="midnightblue" stroke="midnightblue" points="2106.24,-308.45 2108.81,-318.73 2113.21,-309.1 2106.24,-308.45"/>
</g>
<!-- Node40&#45;&gt;Node19 -->
<g id="edge54" class="edge">
<title>Node40&#45;&gt;Node19</title>
<path fill="none" stroke="midnightblue" d="M2467.78,-441.36C2442.05,-423.55 2395.57,-394.13 2351,-380 2341.3,-376.92 2062.41,-347.9 1940.33,-335.3"/>
<polygon fill="midnightblue" stroke="midnightblue" points="2466.09,-444.45 2476.28,-447.34 2470.12,-438.72 2466.09,-444.45"/>
</g>
<!-- Node41 -->
<g id="node41" class="node">
<title>Node41</title>
<g id="a_node41"><a xlink:href="result__message_8cpp.html" target="_top" xlink:title=" ">
<polygon fill="none" stroke="black" points="2595.5,-386 2595.5,-405 2764.5,-405 2764.5,-386 2595.5,-386"/>
<text text-anchor="middle" x="2680" y="-393" font-family="Helvetica,sans-Serif" font-size="10.00">HealthGPS/result_message.cpp</text>
</a>
</g>
</g>
<!-- Node40&#45;&gt;Node41 -->
<g id="edge55" class="edge">
<title>Node40&#45;&gt;Node41</title>
<path fill="none" stroke="midnightblue" d="M2525.49,-444.38C2562.81,-432.82 2619.2,-415.34 2652.54,-405.01"/>
<polygon fill="midnightblue" stroke="midnightblue" points="2524.02,-441.17 2515.51,-447.48 2526.1,-447.86 2524.02,-441.17"/>
</g>
<!-- Node42 -->
<g id="node42" class="node">
<title>Node42</title>
<g id="a_node42"><a xlink:href="result__writer_8h.html" target="_top" xlink:title=" ">
<polygon fill="none" stroke="black" points="2436.5,-380.5 2436.5,-410.5 2577.5,-410.5 2577.5,-380.5 2436.5,-380.5"/>
<text text-anchor="start" x="2444.5" y="-398.5" font-family="Helvetica,sans-Serif" font-size="10.00">HealthGPS.Console/result</text>
<text text-anchor="middle" x="2507" y="-387.5" font-family="Helvetica,sans-Serif" font-size="10.00">_writer.h</text>
</a>
</g>
</g>
<!-- Node40&#45;&gt;Node42 -->
<g id="edge56" class="edge">
<title>Node40&#45;&gt;Node42</title>
<path fill="none" stroke="midnightblue" d="M2493.81,-437.82C2496.61,-429.04 2499.92,-418.68 2502.52,-410.52"/>
<polygon fill="midnightblue" stroke="midnightblue" points="2490.43,-436.88 2490.72,-447.48 2497.1,-439.01 2490.43,-436.88"/>
</g>
<!-- Node42&#45;&gt;Node37 -->
<g id="edge57" class="edge">
<title>Node42&#45;&gt;Node37</title>
<path fill="none" stroke="midnightblue" d="M2446.06,-377.71C2407.65,-367.14 2358.63,-353.63 2322.23,-343.61"/>
<polygon fill="midnightblue" stroke="midnightblue" points="2445.51,-381.19 2456.08,-380.48 2447.37,-374.45 2445.51,-381.19"/>
</g>
<!-- Node43 -->
<g id="node43" class="node">
<title>Node43</title>
<g id="a_node43"><a xlink:href="result__file__writer_8h.html" target="_top" xlink:title=" ">
<polygon fill="none" stroke="black" points="2608.5,-313.5 2608.5,-343.5 2749.5,-343.5 2749.5,-313.5 2608.5,-313.5"/>
<text text-anchor="start" x="2616.5" y="-331.5" font-family="Helvetica,sans-Serif" font-size="10.00">HealthGPS.Console/result</text>
<text text-anchor="middle" x="2679" y="-320.5" font-family="Helvetica,sans-Serif" font-size="10.00">_file_writer.h</text>
</a>
</g>
</g>
<!-- Node42&#45;&gt;Node43 -->
<g id="edge58" class="edge">
<title>Node42&#45;&gt;Node43</title>
<path fill="none" stroke="midnightblue" d="M2553.79,-376.82C2581.43,-366.37 2615.96,-353.32 2641.75,-343.58"/>
<polygon fill="midnightblue" stroke="midnightblue" points="2552.44,-373.59 2544.32,-380.4 2554.91,-380.13 2552.44,-373.59"/>
</g>
<!-- Node43&#45;&gt;Node14 -->
<g id="edge59" class="edge">
<title>Node43&#45;&gt;Node14</title>
<path fill="none" stroke="midnightblue" d="M2646.71,-308.04C2632.17,-298.98 2614.96,-287.83 2600,-277 2499.68,-204.32 2386.59,-105.6 2352.94,-75.84"/>
<polygon fill="midnightblue" stroke="midnightblue" points="2645.02,-311.11 2655.37,-313.39 2648.7,-305.16 2645.02,-311.11"/>
</g>
<!-- Node44 -->
<g id="node44" class="node">
<title>Node44</title>
<g id="a_node44"><a xlink:href="result__file__writer_8cpp.html" target="_top" xlink:title=" ">
<polygon fill="none" stroke="black" points="2608.5,-246.5 2608.5,-276.5 2749.5,-276.5 2749.5,-246.5 2608.5,-246.5"/>
<text text-anchor="start" x="2616.5" y="-264.5" font-family="Helvetica,sans-Serif" font-size="10.00">HealthGPS.Console/result</text>
<text text-anchor="middle" x="2679" y="-253.5" font-family="Helvetica,sans-Serif" font-size="10.00">_file_writer.cpp</text>
</a>
</g>
</g>
<!-- Node43&#45;&gt;Node44 -->
<g id="edge60" class="edge">
<title>Node43&#45;&gt;Node44</title>
<path fill="none" stroke="midnightblue" d="M2679,-303.11C2679,-294.15 2679,-284.32 2679,-276.58"/>
<polygon fill="midnightblue" stroke="midnightblue" points="2675.5,-303.4 2679,-313.4 2682.5,-303.4 2675.5,-303.4"/>
</g>
<!-- Node45&#45;&gt;Node4 -->
<g id="edge64" class="edge">
<title>Node45&#45;&gt;Node4</title>
<path fill="none" stroke="midnightblue" d="M2801.79,-384.33C2729.91,-372.14 2618.11,-352.32 2600,-344 2579.88,-334.76 2580.93,-322.65 2561,-313 2515.62,-291.02 2460.14,-278.29 2416.9,-271.12"/>
<polygon fill="midnightblue" stroke="midnightblue" points="2801.22,-387.78 2811.66,-386 2802.38,-380.88 2801.22,-387.78"/>
</g>
<!-- Node45&#45;&gt;Node17 -->
<g id="edge62" class="edge">
<title>Node45&#45;&gt;Node17</title>
<path fill="none" stroke="midnightblue" d="M2801.95,-384.27C2725.81,-371.52 2597.01,-349.94 2525.93,-338.03"/>
<polygon fill="midnightblue" stroke="midnightblue" points="2801.44,-387.74 2811.88,-385.94 2802.59,-380.83 2801.44,-387.74"/>
</g>
<!-- Node46 -->
<g id="node46" class="node">
<title>Node46</title>
<g id="a_node46"><a xlink:href="runner__message_8cpp.html" target="_top" xlink:title=" ">
<polygon fill="none" stroke="black" points="2776.5,-319 2776.5,-338 2949.5,-338 2949.5,-319 2776.5,-319"/>
<text text-anchor="middle" x="2863" y="-326" font-family="Helvetica,sans-Serif" font-size="10.00">HealthGPS/runner_message.cpp</text>
</a>
</g>
</g>
<!-- Node45&#45;&gt;Node46 -->
<g id="edge63" class="edge">
<title>Node45&#45;&gt;Node46</title>
<path fill="none" stroke="midnightblue" d="M2863,-375.54C2863,-363.17 2863,-347.62 2863,-338.13"/>
<polygon fill="midnightblue" stroke="midnightblue" points="2859.5,-375.73 2863,-385.73 2866.5,-375.73 2859.5,-375.73"/>
</g>
</g>
</svg>
