<?xml version="1.0" encoding="UTF-8" standalone="no"?>
<!DOCTYPE svg PUBLIC "-//W3C//DTD SVG 1.1//EN"
 "http://www.w3.org/Graphics/SVG/1.1/DTD/svg11.dtd">
<!-- Generated by graphviz version 2.43.0 (0)
 -->
<!-- Title: HealthGPS/event_aggregator.h Pages: 1 -->
<svg width="2545pt" height="475pt"
 viewBox="0.00 0.00 2544.50 475.00" xmlns="http://www.w3.org/2000/svg" xmlns:xlink="http://www.w3.org/1999/xlink">
<g id="graph0" class="graph" transform="scale(1 1) rotate(0) translate(4 471)">
<title>HealthGPS/event_aggregator.h</title>
<!-- Node1 -->
<g id="node1" class="node">
<title>Node1</title>
<g id="a_node1"><a xlink:title=" ">
<polygon fill="#bfbfbf" stroke="black" points="626.5,-447.5 626.5,-466.5 792.5,-466.5 792.5,-447.5 626.5,-447.5"/>
<text text-anchor="middle" x="709.5" y="-454.5" font-family="Helvetica,sans-Serif" font-size="10.00">HealthGPS/event_aggregator.h</text>
</a>
</g>
</g>
<!-- Node2 -->
<g id="node2" class="node">
<title>Node2</title>
<g id="a_node2"><a xlink:href="HealthGPS_2api_8h.html" target="_top" xlink:title=" ">
<polygon fill="none" stroke="black" points="712,-56.5 712,-75.5 807,-75.5 807,-56.5 712,-56.5"/>
<text text-anchor="middle" x="759.5" y="-63.5" font-family="Helvetica,sans-Serif" font-size="10.00">HealthGPS/api.h</text>
</a>
</g>
</g>
<!-- Node1&#45;&gt;Node2 -->
<g id="edge1" class="edge">
<title>Node1&#45;&gt;Node2</title>
<path fill="none" stroke="midnightblue" d="M723.18,-439.38C729.27,-431.25 736.05,-421.07 740.5,-411 755.53,-376.98 759.5,-366.69 759.5,-329.5 759.5,-329.5 759.5,-329.5 759.5,-193.5 759.5,-149.14 759.5,-96.02 759.5,-75.59"/>
<polygon fill="midnightblue" stroke="midnightblue" points="720.39,-437.26 716.99,-447.29 725.91,-441.57 720.39,-437.26"/>
</g>
<!-- Node4 -->
<g id="node4" class="node">
<title>Node4</title>
<g id="a_node4"><a xlink:href="event__subscriber_8h.html" target="_top" xlink:title=" ">
<polygon fill="none" stroke="black" points="155,-386 155,-405 318,-405 318,-386 155,-386"/>
<text text-anchor="middle" x="236.5" y="-393" font-family="Helvetica,sans-Serif" font-size="10.00">HealthGPS/event_subscriber.h</text>
</a>
</g>
</g>
<!-- Node1&#45;&gt;Node4 -->
<g id="edge3" class="edge">
<title>Node1&#45;&gt;Node4</title>
<path fill="none" stroke="midnightblue" d="M631.72,-446.22C540.5,-434.74 390.75,-415.9 304.14,-405.01"/>
<polygon fill="midnightblue" stroke="midnightblue" points="631.37,-449.7 641.73,-447.48 632.25,-442.75 631.37,-449.7"/>
</g>
<!-- Node8 -->
<g id="node8" class="node">
<title>Node8</title>
<g id="a_node8"><a xlink:href="healthgps_8h.html" target="_top" xlink:title=" ">
<polygon fill="none" stroke="black" points="1339.5,-118 1339.5,-137 1467.5,-137 1467.5,-118 1339.5,-118"/>
<text text-anchor="middle" x="1403.5" y="-125" font-family="Helvetica,sans-Serif" font-size="10.00">HealthGPS/healthgps.h</text>
</a>
</g>
</g>
<!-- Node1&#45;&gt;Node8 -->
<g id="edge8" class="edge">
<title>Node1&#45;&gt;Node8</title>
<path fill="none" stroke="midnightblue" d="M802.96,-454.47C1175.77,-447.77 2536.5,-417.31 2536.5,-329.5 2536.5,-329.5 2536.5,-329.5 2536.5,-260.5 2536.5,-152.08 1707.34,-132.56 1467.66,-129.18"/>
<polygon fill="midnightblue" stroke="midnightblue" points="802.69,-450.98 792.75,-454.65 802.81,-457.98 802.69,-450.98"/>
</g>
<!-- Node12 -->
<g id="node12" class="node">
<title>Node12</title>
<g id="a_node12"><a xlink:href="modelrunner_8h.html" target="_top" xlink:title=" ">
<polygon fill="none" stroke="black" points="429.5,-386 429.5,-405 571.5,-405 571.5,-386 429.5,-386"/>
<text text-anchor="middle" x="500.5" y="-393" font-family="Helvetica,sans-Serif" font-size="10.00">HealthGPS/modelrunner.h</text>
</a>
</g>
</g>
<!-- Node1&#45;&gt;Node12 -->
<g id="edge14" class="edge">
<title>Node1&#45;&gt;Node12</title>
<path fill="none" stroke="midnightblue" d="M669.72,-444.68C629.11,-433.11 566.99,-415.43 530.39,-405.01"/>
<polygon fill="midnightblue" stroke="midnightblue" points="668.98,-448.1 679.56,-447.48 670.9,-441.37 668.98,-448.1"/>
</g>
<!-- Node14 -->
<g id="node14" class="node">
<title>Node14</title>
<g id="a_node14"><a xlink:href="runtime__context_8h.html" target="_top" xlink:title=" ">
<polygon fill="none" stroke="black" points="1535,-386 1535,-405 1696,-405 1696,-386 1535,-386"/>
<text text-anchor="middle" x="1615.5" y="-393" font-family="Helvetica,sans-Serif" font-size="10.00">HealthGPS/runtime_context.h</text>
</a>
</g>
</g>
<!-- Node1&#45;&gt;Node14 -->
<g id="edge17" class="edge">
<title>Node1&#45;&gt;Node14</title>
<path fill="none" stroke="midnightblue" d="M802.85,-449.87C981.12,-438.16 1367.16,-412.81 1534.93,-401.79"/>
<polygon fill="midnightblue" stroke="midnightblue" points="802.46,-446.39 792.71,-450.54 802.91,-453.37 802.46,-446.39"/>
</g>
<!-- Node34 -->
<g id="node34" class="node">
<title>Node34</title>
<g id="a_node34"><a xlink:href="event__monitor_8h.html" target="_top" xlink:title=" ">
<polygon fill="none" stroke="black" points="590,-380.5 590,-410.5 731,-410.5 731,-380.5 590,-380.5"/>
<text text-anchor="start" x="598" y="-398.5" font-family="Helvetica,sans-Serif" font-size="10.00">HealthGPS.Console/event</text>
<text text-anchor="middle" x="660.5" y="-387.5" font-family="Helvetica,sans-Serif" font-size="10.00">_monitor.h</text>
</a>
</g>
</g>
<!-- Node1&#45;&gt;Node34 -->
<g id="edge43" class="edge">
<title>Node1&#45;&gt;Node34</title>
<path fill="none" stroke="midnightblue" d="M695.94,-439.53C688.43,-430.42 679.21,-419.21 672.05,-410.52"/>
<polygon fill="midnightblue" stroke="midnightblue" points="693.42,-441.98 702.48,-447.48 698.82,-437.53 693.42,-441.98"/>
</g>
<!-- Node3 -->
<g id="node3" class="node">
<title>Node3</title>
<g id="a_node3"><a xlink:href="program_8cpp.html" target="_top" xlink:title=" ">
<polygon fill="none" stroke="black" points="573,-0.5 573,-19.5 748,-19.5 748,-0.5 573,-0.5"/>
<text text-anchor="middle" x="660.5" y="-7.5" font-family="Helvetica,sans-Serif" font-size="10.00">HealthGPS.Console/program.cpp</text>
</a>
</g>
</g>
<!-- Node2&#45;&gt;Node3 -->
<g id="edge2" class="edge">
<title>Node2&#45;&gt;Node3</title>
<path fill="none" stroke="midnightblue" d="M734.66,-51.45C716.39,-41.48 692.08,-28.23 676.37,-19.65"/>
<polygon fill="midnightblue" stroke="midnightblue" points="733.14,-54.61 743.59,-56.32 736.49,-48.46 733.14,-54.61"/>
</g>
<!-- Node5 -->
<g id="node5" class="node">
<title>Node5</title>
<g id="a_node5"><a xlink:href="event__bus_8h.html" target="_top" xlink:title=" ">
<polygon fill="none" stroke="black" points="0,-319 0,-338 131,-338 131,-319 0,-319"/>
<text text-anchor="middle" x="65.5" y="-326" font-family="Helvetica,sans-Serif" font-size="10.00">HealthGPS/event_bus.h</text>
</a>
</g>
</g>
<!-- Node4&#45;&gt;Node5 -->
<g id="edge4" class="edge">
<title>Node4&#45;&gt;Node5</title>
<path fill="none" stroke="midnightblue" d="M204.33,-382.27C170.39,-369.37 117.79,-349.38 88.03,-338.06"/>
<polygon fill="midnightblue" stroke="midnightblue" points="203.2,-385.59 213.79,-385.87 205.69,-379.04 203.2,-385.59"/>
</g>
<!-- Node7 -->
<g id="node7" class="node">
<title>Node7</title>
<g id="a_node7"><a xlink:href="event__subscriber_8cpp.html" target="_top" xlink:title=" ">
<polygon fill="none" stroke="black" points="149.5,-319 149.5,-338 323.5,-338 323.5,-319 149.5,-319"/>
<text text-anchor="middle" x="236.5" y="-326" font-family="Helvetica,sans-Serif" font-size="10.00">HealthGPS/event_subscriber.cpp</text>
</a>
</g>
</g>
<!-- Node4&#45;&gt;Node7 -->
<g id="edge7" class="edge">
<title>Node4&#45;&gt;Node7</title>
<path fill="none" stroke="midnightblue" d="M236.5,-375.54C236.5,-363.17 236.5,-347.62 236.5,-338.13"/>
<polygon fill="midnightblue" stroke="midnightblue" points="233,-375.73 236.5,-385.73 240,-375.73 233,-375.73"/>
</g>
<!-- Node5&#45;&gt;Node3 -->
<g id="edge6" class="edge">
<title>Node5&#45;&gt;Node3</title>
<path fill="none" stroke="midnightblue" d="M65.5,-308.72C65.5,-283.12 65.5,-235.84 65.5,-195.5 65.5,-195.5 65.5,-195.5 65.5,-126.5 65.5,-24.43 407.2,-10.73 572.71,-10.08"/>
<polygon fill="midnightblue" stroke="midnightblue" points="62,-308.85 65.5,-318.85 69,-308.85 62,-308.85"/>
</g>
<!-- Node6 -->
<g id="node6" class="node">
<title>Node6</title>
<g id="a_node6"><a xlink:href="event__bus_8cpp.html" target="_top" xlink:title=" ">
<polygon fill="none" stroke="black" points="93.5,-252 93.5,-271 235.5,-271 235.5,-252 93.5,-252"/>
<text text-anchor="middle" x="164.5" y="-259" font-family="Helvetica,sans-Serif" font-size="10.00">HealthGPS/event_bus.cpp</text>
</a>
</g>
</g>
<!-- Node5&#45;&gt;Node6 -->
<g id="edge5" class="edge">
<title>Node5&#45;&gt;Node6</title>
<path fill="none" stroke="midnightblue" d="M87.44,-313.09C107.03,-300.24 135.06,-281.83 151.36,-271.13"/>
<polygon fill="midnightblue" stroke="midnightblue" points="85.29,-310.32 78.85,-318.73 89.13,-316.17 85.29,-310.32"/>
</g>
<!-- Node8&#45;&gt;Node2 -->
<g id="edge9" class="edge">
<title>Node8&#45;&gt;Node2</title>
<path fill="none" stroke="midnightblue" d="M1351.82,-116.11C1343.06,-114.57 1334.04,-113.13 1325.5,-112 1134.21,-86.69 904.53,-73.77 807.01,-69.1"/>
<polygon fill="midnightblue" stroke="midnightblue" points="1351.47,-119.6 1361.93,-117.94 1352.72,-112.71 1351.47,-119.6"/>
</g>
<!-- Node9 -->
<g id="node9" class="node">
<title>Node9</title>
<g id="a_node9"><a xlink:href="healthgps_8cpp.html" target="_top" xlink:title=" ">
<polygon fill="none" stroke="black" points="1152.5,-56.5 1152.5,-75.5 1292.5,-75.5 1292.5,-56.5 1152.5,-56.5"/>
<text text-anchor="middle" x="1222.5" y="-63.5" font-family="Helvetica,sans-Serif" font-size="10.00">HealthGPS/healthgps.cpp</text>
</a>
</g>
</g>
<!-- Node8&#45;&gt;Node9 -->
<g id="edge10" class="edge">
<title>Node8&#45;&gt;Node9</title>
<path fill="none" stroke="midnightblue" d="M1367.7,-114.73C1332.52,-103.17 1279.68,-85.8 1248.38,-75.51"/>
<polygon fill="midnightblue" stroke="midnightblue" points="1366.97,-118.18 1377.57,-117.98 1369.16,-111.53 1366.97,-118.18"/>
</g>
<!-- Node10 -->
<g id="node10" class="node">
<title>Node10</title>
<g id="a_node10"><a xlink:href="configuration_8h.html" target="_top" xlink:title=" ">
<polygon fill="none" stroke="black" points="1310.5,-56.5 1310.5,-75.5 1496.5,-75.5 1496.5,-56.5 1310.5,-56.5"/>
<text text-anchor="middle" x="1403.5" y="-63.5" font-family="Helvetica,sans-Serif" font-size="10.00">HealthGPS.Console/configuration.h</text>
</a>
</g>
</g>
<!-- Node8&#45;&gt;Node10 -->
<g id="edge11" class="edge">
<title>Node8&#45;&gt;Node10</title>
<path fill="none" stroke="midnightblue" d="M1403.5,-107.82C1403.5,-97 1403.5,-83.9 1403.5,-75.51"/>
<polygon fill="midnightblue" stroke="midnightblue" points="1400,-107.98 1403.5,-117.98 1407,-107.98 1400,-107.98"/>
</g>
<!-- Node10&#45;&gt;Node3 -->
<g id="edge13" class="edge">
<title>Node10&#45;&gt;Node3</title>
<path fill="none" stroke="midnightblue" d="M1300.39,-55.92C1096.37,-39.84 869.64,-24.6 748.15,-16.65"/>
<polygon fill="midnightblue" stroke="midnightblue" points="1300.15,-59.42 1310.39,-56.72 1300.7,-52.44 1300.15,-59.42"/>
</g>
<!-- Node11 -->
<g id="node11" class="node">
<title>Node11</title>
<g id="a_node11"><a xlink:href="configuration_8cpp.html" target="_top" xlink:title=" ">
<polygon fill="none" stroke="black" points="1305,-0.5 1305,-19.5 1502,-19.5 1502,-0.5 1305,-0.5"/>
<text text-anchor="middle" x="1403.5" y="-7.5" font-family="Helvetica,sans-Serif" font-size="10.00">HealthGPS.Console/configuration.cpp</text>
</a>
</g>
</g>
<!-- Node10&#45;&gt;Node11 -->
<g id="edge12" class="edge">
<title>Node10&#45;&gt;Node11</title>
<path fill="none" stroke="midnightblue" d="M1403.5,-45.8C1403.5,-36.91 1403.5,-26.78 1403.5,-19.75"/>
<polygon fill="midnightblue" stroke="midnightblue" points="1400,-46.08 1403.5,-56.08 1407,-46.08 1400,-46.08"/>
</g>
<!-- Node12&#45;&gt;Node2 -->
<g id="edge15" class="edge">
<title>Node12&#45;&gt;Node2</title>
<path fill="none" stroke="midnightblue" d="M509.71,-376.32C518.58,-359.39 532.78,-333.74 547.5,-313 617.98,-213.69 720.45,-106.83 750.75,-75.87"/>
<polygon fill="midnightblue" stroke="midnightblue" points="506.4,-375.11 504.93,-385.6 512.62,-378.32 506.4,-375.11"/>
</g>
<!-- Node13 -->
<g id="node13" class="node">
<title>Node13</title>
<g id="a_node13"><a xlink:href="modelrunner_8cpp.html" target="_top" xlink:title=" ">
<polygon fill="none" stroke="black" points="342,-319 342,-338 495,-338 495,-319 342,-319"/>
<text text-anchor="middle" x="418.5" y="-326" font-family="Helvetica,sans-Serif" font-size="10.00">HealthGPS/modelrunner.cpp</text>
</a>
</g>
</g>
<!-- Node12&#45;&gt;Node13 -->
<g id="edge16" class="edge">
<title>Node12&#45;&gt;Node13</title>
<path fill="none" stroke="midnightblue" d="M481.22,-379.21C465.06,-366.41 442.58,-348.59 429.38,-338.13"/>
<polygon fill="midnightblue" stroke="midnightblue" points="479.43,-382.26 489.44,-385.73 483.78,-376.78 479.43,-382.26"/>
</g>
<!-- Node14&#45;&gt;Node8 -->
<g id="edge34" class="edge">
<title>Node14&#45;&gt;Node8</title>
<path fill="none" stroke="midnightblue" d="M1706.34,-392.51C1923.03,-387.33 2454.24,-371.84 2480.5,-344 2489.95,-333.98 2489.22,-323.67 2480.5,-313 2351.49,-155.07 1679.53,-132.28 1467.6,-129.03"/>
<polygon fill="midnightblue" stroke="midnightblue" points="1706.18,-389.02 1696.26,-392.75 1706.34,-396.01 1706.18,-389.02"/>
</g>
<!-- Node15 -->
<g id="node15" class="node">
<title>Node15</title>
<g id="a_node15"><a xlink:href="analysis__module_8h.html" target="_top" xlink:title=" ">
<polygon fill="none" stroke="black" points="1559.5,-313.5 1559.5,-343.5 1671.5,-343.5 1671.5,-313.5 1559.5,-313.5"/>
<text text-anchor="start" x="1567.5" y="-331.5" font-family="Helvetica,sans-Serif" font-size="10.00">HealthGPS/analysis</text>
<text text-anchor="middle" x="1615.5" y="-320.5" font-family="Helvetica,sans-Serif" font-size="10.00">_module.h</text>
</a>
</g>
</g>
<!-- Node14&#45;&gt;Node15 -->
<g id="edge18" class="edge">
<title>Node14&#45;&gt;Node15</title>
<path fill="none" stroke="midnightblue" d="M1615.5,-375.41C1615.5,-365.22 1615.5,-352.9 1615.5,-343.59"/>
<polygon fill="midnightblue" stroke="midnightblue" points="1612,-375.73 1615.5,-385.73 1619,-375.73 1612,-375.73"/>
</g>
<!-- Node19 -->
<g id="node19" class="node">
<title>Node19</title>
<g id="a_node19"><a xlink:href="default__cancer__model_8cpp.html" target="_top" xlink:title=" ">
<polygon fill="none" stroke="black" points="1690,-313.5 1690,-343.5 1833,-343.5 1833,-313.5 1690,-313.5"/>
<text text-anchor="start" x="1698" y="-331.5" font-family="Helvetica,sans-Serif" font-size="10.00">HealthGPS/default_cancer</text>
<text text-anchor="middle" x="1761.5" y="-320.5" font-family="Helvetica,sans-Serif" font-size="10.00">_model.cpp</text>
</a>
</g>
</g>
<!-- Node14&#45;&gt;Node19 -->
<g id="edge24" class="edge">
<title>Node14&#45;&gt;Node19</title>
<path fill="none" stroke="midnightblue" d="M1644.1,-381.77C1668.81,-370.77 1704.47,-354.89 1729.99,-343.53"/>
<polygon fill="midnightblue" stroke="midnightblue" points="1642.6,-378.6 1634.89,-385.87 1645.45,-385 1642.6,-378.6"/>
</g>
<!-- Node20 -->
<g id="node20" class="node">
<title>Node20</title>
<g id="a_node20"><a xlink:href="default__disease__model_8cpp.html" target="_top" xlink:title=" ">
<polygon fill="none" stroke="black" points="1851,-313.5 1851,-343.5 2000,-343.5 2000,-313.5 1851,-313.5"/>
<text text-anchor="start" x="1859" y="-331.5" font-family="Helvetica,sans-Serif" font-size="10.00">HealthGPS/default_disease</text>
<text text-anchor="middle" x="1925.5" y="-320.5" font-family="Helvetica,sans-Serif" font-size="10.00">_model.cpp</text>
</a>
</g>
</g>
<!-- Node14&#45;&gt;Node20 -->
<g id="edge25" class="edge">
<title>Node14&#45;&gt;Node20</title>
<path fill="none" stroke="midnightblue" d="M1666.42,-383.82C1718.84,-372.83 1800.78,-355.65 1858.45,-343.56"/>
<polygon fill="midnightblue" stroke="midnightblue" points="1665.41,-380.46 1656.35,-385.94 1666.85,-387.31 1665.41,-380.46"/>
</g>
<!-- Node21 -->
<g id="node21" class="node">
<title>Node21</title>
<g id="a_node21"><a xlink:href="demographic_8h.html" target="_top" xlink:title=" ">
<polygon fill="none" stroke="black" points="1397.5,-319 1397.5,-338 1541.5,-338 1541.5,-319 1397.5,-319"/>
<text text-anchor="middle" x="1469.5" y="-326" font-family="Helvetica,sans-Serif" font-size="10.00">HealthGPS/demographic.h</text>
</a>
</g>
</g>
<!-- Node14&#45;&gt;Node21 -->
<g id="edge26" class="edge">
<title>Node14&#45;&gt;Node21</title>
<path fill="none" stroke="midnightblue" d="M1586.93,-381.78C1558.02,-368.91 1514.1,-349.35 1488.97,-338.17"/>
<polygon fill="midnightblue" stroke="midnightblue" points="1585.55,-385 1596.11,-385.87 1588.4,-378.6 1585.55,-385"/>
</g>
<!-- Node23 -->
<g id="node23" class="node">
<title>Node23</title>
<g id="a_node23"><a xlink:href="HealthGPS_2disease_8h.html" target="_top" xlink:title=" ">
<polygon fill="none" stroke="black" points="2018.5,-319 2018.5,-338 2136.5,-338 2136.5,-319 2018.5,-319"/>
<text text-anchor="middle" x="2077.5" y="-326" font-family="Helvetica,sans-Serif" font-size="10.00">HealthGPS/disease.h</text>
</a>
</g>
</g>
<!-- Node14&#45;&gt;Node23 -->
<g id="edge29" class="edge">
<title>Node14&#45;&gt;Node23</title>
<path fill="none" stroke="midnightblue" d="M1706.2,-385.03C1786.27,-376.16 1906,-361.64 2009.5,-344 2019.5,-342.3 2030.25,-340.15 2040.2,-338.03"/>
<polygon fill="midnightblue" stroke="midnightblue" points="1705.71,-381.56 1696.15,-386.14 1706.48,-388.52 1705.71,-381.56"/>
</g>
<!-- Node25 -->
<g id="node25" class="node">
<title>Node25</title>
<g id="a_node25"><a xlink:href="energy__balance__hierarchical__model_8cpp.html" target="_top" xlink:title=" ">
<polygon fill="none" stroke="black" points="2155,-313.5 2155,-343.5 2304,-343.5 2304,-313.5 2155,-313.5"/>
<text text-anchor="start" x="2163" y="-331.5" font-family="Helvetica,sans-Serif" font-size="10.00">HealthGPS/energy_balance</text>
<text text-anchor="middle" x="2229.5" y="-320.5" font-family="Helvetica,sans-Serif" font-size="10.00">_hierarchical_model.cpp</text>
</a>
</g>
</g>
<!-- Node14&#45;&gt;Node25 -->
<g id="edge32" class="edge">
<title>Node14&#45;&gt;Node25</title>
<path fill="none" stroke="midnightblue" d="M1706.07,-387.97C1811.78,-379.87 1991.74,-364.57 2145.5,-344 2148.58,-343.59 2151.72,-343.15 2154.89,-342.68"/>
<polygon fill="midnightblue" stroke="midnightblue" points="1705.78,-384.49 1696.08,-388.74 1706.32,-391.47 1705.78,-384.49"/>
</g>
<!-- Node26 -->
<g id="node26" class="node">
<title>Node26</title>
<g id="a_node26"><a xlink:href="energy__balance__model_8cpp.html" target="_top" xlink:title=" ">
<polygon fill="none" stroke="black" points="2322,-313.5 2322,-343.5 2471,-343.5 2471,-313.5 2322,-313.5"/>
<text text-anchor="start" x="2330" y="-331.5" font-family="Helvetica,sans-Serif" font-size="10.00">HealthGPS/energy_balance</text>
<text text-anchor="middle" x="2396.5" y="-320.5" font-family="Helvetica,sans-Serif" font-size="10.00">_model.cpp</text>
</a>
</g>
</g>
<!-- Node14&#45;&gt;Node26 -->
<g id="edge33" class="edge">
<title>Node14&#45;&gt;Node26</title>
<path fill="none" stroke="midnightblue" d="M1706.28,-390.85C1839.72,-384.83 2096.52,-370.73 2313.5,-344 2316.26,-343.66 2319.06,-343.29 2321.9,-342.9"/>
<polygon fill="midnightblue" stroke="midnightblue" points="1705.94,-387.37 1696.1,-391.31 1706.25,-394.36 1705.94,-387.37"/>
</g>
<!-- Node27 -->
<g id="node27" class="node">
<title>Node27</title>
<g id="a_node27"><a xlink:href="hierarchical__model__static_8cpp.html" target="_top" xlink:title=" ">
<polygon fill="none" stroke="black" points="787.5,-313.5 787.5,-343.5 915.5,-343.5 915.5,-313.5 787.5,-313.5"/>
<text text-anchor="start" x="795.5" y="-331.5" font-family="Helvetica,sans-Serif" font-size="10.00">HealthGPS/hierarchical</text>
<text text-anchor="middle" x="851.5" y="-320.5" font-family="Helvetica,sans-Serif" font-size="10.00">_model_static.cpp</text>
</a>
</g>
</g>
<!-- Node14&#45;&gt;Node27 -->
<g id="edge35" class="edge">
<title>Node14&#45;&gt;Node27</title>
<path fill="none" stroke="midnightblue" d="M1524.74,-391.43C1392.3,-386.14 1138.55,-372.97 924.5,-344 921.55,-343.6 918.55,-343.16 915.52,-342.68"/>
<polygon fill="midnightblue" stroke="midnightblue" points="1524.71,-394.93 1534.84,-391.83 1524.99,-387.94 1524.71,-394.93"/>
</g>
<!-- Node28 -->
<g id="node28" class="node">
<title>Node28</title>
<g id="a_node28"><a xlink:href="riskfactor__adjustment_8h.html" target="_top" xlink:title=" ">
<polygon fill="none" stroke="black" points="933.5,-313.5 933.5,-343.5 1051.5,-343.5 1051.5,-313.5 933.5,-313.5"/>
<text text-anchor="start" x="941.5" y="-331.5" font-family="Helvetica,sans-Serif" font-size="10.00">HealthGPS/riskfactor</text>
<text text-anchor="middle" x="992.5" y="-320.5" font-family="Helvetica,sans-Serif" font-size="10.00">_adjustment.h</text>
</a>
</g>
</g>
<!-- Node14&#45;&gt;Node28 -->
<g id="edge36" class="edge">
<title>Node14&#45;&gt;Node28</title>
<path fill="none" stroke="midnightblue" d="M1524.63,-389.57C1414.38,-382.82 1223.07,-368.64 1060.5,-344 1057.64,-343.57 1054.71,-343.09 1051.76,-342.57"/>
<polygon fill="midnightblue" stroke="midnightblue" points="1524.52,-393.07 1534.72,-390.18 1524.94,-386.08 1524.52,-393.07"/>
</g>
<!-- Node32 -->
<g id="node32" class="node">
<title>Node32</title>
<g id="a_node32"><a xlink:href="runtime__context_8cpp.html" target="_top" xlink:title=" ">
<polygon fill="none" stroke="black" points="1069.5,-319 1069.5,-338 1241.5,-338 1241.5,-319 1069.5,-319"/>
<text text-anchor="middle" x="1155.5" y="-326" font-family="Helvetica,sans-Serif" font-size="10.00">HealthGPS/runtime_context.cpp</text>
</a>
</g>
</g>
<!-- Node14&#45;&gt;Node32 -->
<g id="edge41" class="edge">
<title>Node14&#45;&gt;Node32</title>
<path fill="none" stroke="midnightblue" d="M1542.25,-384.6C1468.72,-374.6 1352.21,-358.59 1251.5,-344 1238.4,-342.1 1224.31,-340.01 1211.07,-338.01"/>
<polygon fill="midnightblue" stroke="midnightblue" points="1541.96,-388.09 1552.34,-385.97 1542.9,-381.16 1541.96,-388.09"/>
</g>
<!-- Node33 -->
<g id="node33" class="node">
<title>Node33</title>
<g id="a_node33"><a xlink:href="ses__noise__module_8cpp.html" target="_top" xlink:title=" ">
<polygon fill="none" stroke="black" points="1260,-313.5 1260,-343.5 1379,-343.5 1379,-313.5 1260,-313.5"/>
<text text-anchor="start" x="1268" y="-331.5" font-family="Helvetica,sans-Serif" font-size="10.00">HealthGPS/ses_noise</text>
<text text-anchor="middle" x="1319.5" y="-320.5" font-family="Helvetica,sans-Serif" font-size="10.00">_module.cpp</text>
</a>
</g>
</g>
<!-- Node14&#45;&gt;Node33 -->
<g id="edge42" class="edge">
<title>Node14&#45;&gt;Node33</title>
<path fill="none" stroke="midnightblue" d="M1566.62,-383.77C1515.19,-372.47 1434.21,-354.69 1379.07,-342.58"/>
<polygon fill="midnightblue" stroke="midnightblue" points="1565.98,-387.21 1576.5,-385.94 1567.48,-380.37 1565.98,-387.21"/>
</g>
<!-- Node16 -->
<g id="node16" class="node">
<title>Node16</title>
<g id="a_node16"><a xlink:href="analysis__module_8cpp.html" target="_top" xlink:title=" ">
<polygon fill="none" stroke="black" points="1559.5,-246.5 1559.5,-276.5 1671.5,-276.5 1671.5,-246.5 1559.5,-246.5"/>
<text text-anchor="start" x="1567.5" y="-264.5" font-family="Helvetica,sans-Serif" font-size="10.00">HealthGPS/analysis</text>
<text text-anchor="middle" x="1615.5" y="-253.5" font-family="Helvetica,sans-Serif" font-size="10.00">_module.cpp</text>
</a>
</g>
</g>
<!-- Node15&#45;&gt;Node16 -->
<g id="edge19" class="edge">
<title>Node15&#45;&gt;Node16</title>
<path fill="none" stroke="midnightblue" d="M1615.5,-303.11C1615.5,-294.15 1615.5,-284.32 1615.5,-276.58"/>
<polygon fill="midnightblue" stroke="midnightblue" points="1612,-303.4 1615.5,-313.4 1619,-303.4 1612,-303.4"/>
</g>
<!-- Node17 -->
<g id="node17" class="node">
<title>Node17</title>
<g id="a_node17"><a xlink:href="simulation__module_8h.html" target="_top" xlink:title=" ">
<polygon fill="none" stroke="black" points="1296,-179.5 1296,-209.5 1419,-209.5 1419,-179.5 1296,-179.5"/>
<text text-anchor="start" x="1304" y="-197.5" font-family="Helvetica,sans-Serif" font-size="10.00">HealthGPS/simulation</text>
<text text-anchor="middle" x="1357.5" y="-186.5" font-family="Helvetica,sans-Serif" font-size="10.00">_module.h</text>
</a>
</g>
</g>
<!-- Node15&#45;&gt;Node17 -->
<g id="edge20" class="edge">
<title>Node15&#45;&gt;Node17</title>
<path fill="none" stroke="midnightblue" d="M1648.65,-307.85C1672.71,-291.15 1698.18,-266.66 1680.5,-246 1647.56,-207.51 1503.52,-198.15 1419.33,-196"/>
<polygon fill="midnightblue" stroke="midnightblue" points="1646.66,-304.97 1640.27,-313.42 1650.54,-310.8 1646.66,-304.97"/>
</g>
<!-- Node17&#45;&gt;Node2 -->
<g id="edge21" class="edge">
<title>Node17&#45;&gt;Node2</title>
<path fill="none" stroke="midnightblue" d="M1345.92,-170.28C1334.99,-151.07 1316.67,-124.92 1292.5,-112 1209.17,-67.46 921.52,-65.29 807.04,-66.28"/>
<polygon fill="midnightblue" stroke="midnightblue" points="1342.98,-172.2 1350.82,-179.32 1349.13,-168.86 1342.98,-172.2"/>
</g>
<!-- Node17&#45;&gt;Node8 -->
<g id="edge22" class="edge">
<title>Node17&#45;&gt;Node8</title>
<path fill="none" stroke="midnightblue" d="M1373.44,-170.97C1381.68,-159.33 1391.26,-145.8 1397.35,-137.19"/>
<polygon fill="midnightblue" stroke="midnightblue" points="1370.4,-169.21 1367.48,-179.4 1376.11,-173.26 1370.4,-169.21"/>
</g>
<!-- Node18 -->
<g id="node18" class="node">
<title>Node18</title>
<g id="a_node18"><a xlink:href="simulation__module_8cpp.html" target="_top" xlink:title=" ">
<polygon fill="none" stroke="black" points="1160,-112.5 1160,-142.5 1283,-142.5 1283,-112.5 1160,-112.5"/>
<text text-anchor="start" x="1168" y="-130.5" font-family="Helvetica,sans-Serif" font-size="10.00">HealthGPS/simulation</text>
<text text-anchor="middle" x="1221.5" y="-119.5" font-family="Helvetica,sans-Serif" font-size="10.00">_module.cpp</text>
</a>
</g>
</g>
<!-- Node17&#45;&gt;Node18 -->
<g id="edge23" class="edge">
<title>Node17&#45;&gt;Node18</title>
<path fill="none" stroke="midnightblue" d="M1318.78,-174.99C1297.22,-164.69 1270.81,-152.07 1250.95,-142.58"/>
<polygon fill="midnightblue" stroke="midnightblue" points="1317.46,-178.24 1327.99,-179.4 1320.48,-171.93 1317.46,-178.24"/>
</g>
<!-- Node21&#45;&gt;Node17 -->
<g id="edge28" class="edge">
<title>Node21&#45;&gt;Node17</title>
<path fill="none" stroke="midnightblue" d="M1431.94,-315.2C1412.98,-307.17 1391.17,-294.8 1377.5,-277 1362.24,-257.12 1358.46,-227.17 1357.62,-209.65"/>
<polygon fill="midnightblue" stroke="midnightblue" points="1430.67,-318.46 1441.25,-318.91 1433.26,-311.96 1430.67,-318.46"/>
</g>
<!-- Node22 -->
<g id="node22" class="node">
<title>Node22</title>
<g id="a_node22"><a xlink:href="demographic_8cpp.html" target="_top" xlink:title=" ">
<polygon fill="none" stroke="black" points="1386,-252 1386,-271 1541,-271 1541,-252 1386,-252"/>
<text text-anchor="middle" x="1463.5" y="-259" font-family="Helvetica,sans-Serif" font-size="10.00">HealthGPS/demographic.cpp</text>
</a>
</g>
</g>
<!-- Node21&#45;&gt;Node22 -->
<g id="edge27" class="edge">
<title>Node21&#45;&gt;Node22</title>
<path fill="none" stroke="midnightblue" d="M1467.75,-308.54C1466.61,-296.17 1465.17,-280.62 1464.3,-271.13"/>
<polygon fill="midnightblue" stroke="midnightblue" points="1464.29,-309.1 1468.69,-318.73 1471.26,-308.45 1464.29,-309.1"/>
</g>
<!-- Node23&#45;&gt;Node17 -->
<g id="edge31" class="edge">
<title>Node23&#45;&gt;Node17</title>
<path fill="none" stroke="midnightblue" d="M2031.38,-316.65C1959.91,-300.07 1817.98,-268.02 1696.5,-246 1600.04,-228.52 1487.33,-212.62 1419.24,-203.51"/>
<polygon fill="midnightblue" stroke="midnightblue" points="2030.87,-320.13 2041.4,-318.99 2032.46,-313.31 2030.87,-320.13"/>
</g>
<!-- Node24 -->
<g id="node24" class="node">
<title>Node24</title>
<g id="a_node24"><a xlink:href="disease_8cpp.html" target="_top" xlink:title=" ">
<polygon fill="none" stroke="black" points="2013,-252 2013,-271 2142,-271 2142,-252 2013,-252"/>
<text text-anchor="middle" x="2077.5" y="-259" font-family="Helvetica,sans-Serif" font-size="10.00">HealthGPS/disease.cpp</text>
</a>
</g>
</g>
<!-- Node23&#45;&gt;Node24 -->
<g id="edge30" class="edge">
<title>Node23&#45;&gt;Node24</title>
<path fill="none" stroke="midnightblue" d="M2077.5,-308.54C2077.5,-296.17 2077.5,-280.62 2077.5,-271.13"/>
<polygon fill="midnightblue" stroke="midnightblue" points="2074,-308.73 2077.5,-318.73 2081,-308.73 2074,-308.73"/>
</g>
<!-- Node29 -->
<g id="node29" class="node">
<title>Node29</title>
<g id="a_node29"><a xlink:href="riskfactor_8h.html" target="_top" xlink:title=" ">
<polygon fill="none" stroke="black" points="929.5,-252 929.5,-271 1055.5,-271 1055.5,-252 929.5,-252"/>
<text text-anchor="middle" x="992.5" y="-259" font-family="Helvetica,sans-Serif" font-size="10.00">HealthGPS/riskfactor.h</text>
</a>
</g>
</g>
<!-- Node28&#45;&gt;Node29 -->
<g id="edge37" class="edge">
<title>Node28&#45;&gt;Node29</title>
<path fill="none" stroke="midnightblue" d="M992.5,-303.25C992.5,-292.02 992.5,-279.38 992.5,-271.19"/>
<polygon fill="midnightblue" stroke="midnightblue" points="989,-303.4 992.5,-313.4 996,-303.4 989,-303.4"/>
</g>
<!-- Node31 -->
<g id="node31" class="node">
<title>Node31</title>
<g id="a_node31"><a xlink:href="riskfactor__adjustment_8cpp.html" target="_top" xlink:title=" ">
<polygon fill="none" stroke="black" points="1073.5,-246.5 1073.5,-276.5 1191.5,-276.5 1191.5,-246.5 1073.5,-246.5"/>
<text text-anchor="start" x="1081.5" y="-264.5" font-family="Helvetica,sans-Serif" font-size="10.00">HealthGPS/riskfactor</text>
<text text-anchor="middle" x="1132.5" y="-253.5" font-family="Helvetica,sans-Serif" font-size="10.00">_adjustment.cpp</text>
</a>
</g>
</g>
<!-- Node28&#45;&gt;Node31 -->
<g id="edge40" class="edge">
<title>Node28&#45;&gt;Node31</title>
<path fill="none" stroke="midnightblue" d="M1032.07,-309.13C1054.31,-298.8 1081.65,-286.11 1102.18,-276.58"/>
<polygon fill="midnightblue" stroke="midnightblue" points="1030.47,-306.01 1022.88,-313.4 1033.42,-312.36 1030.47,-306.01"/>
</g>
<!-- Node29&#45;&gt;Node17 -->
<g id="edge39" class="edge">
<title>Node29&#45;&gt;Node17</title>
<path fill="none" stroke="midnightblue" d="M1043.96,-249.95C1050.86,-248.59 1057.85,-247.24 1064.5,-246 1144.29,-231.09 1236.61,-215.45 1295.96,-205.59"/>
<polygon fill="midnightblue" stroke="midnightblue" points="1043.09,-246.56 1033.96,-251.94 1044.45,-253.42 1043.09,-246.56"/>
</g>
<!-- Node30 -->
<g id="node30" class="node">
<title>Node30</title>
<g id="a_node30"><a xlink:href="riskfactor_8cpp.html" target="_top" xlink:title=" ">
<polygon fill="none" stroke="black" points="924,-185 924,-204 1061,-204 1061,-185 924,-185"/>
<text text-anchor="middle" x="992.5" y="-192" font-family="Helvetica,sans-Serif" font-size="10.00">HealthGPS/riskfactor.cpp</text>
</a>
</g>
</g>
<!-- Node29&#45;&gt;Node30 -->
<g id="edge38" class="edge">
<title>Node29&#45;&gt;Node30</title>
<path fill="none" stroke="midnightblue" d="M992.5,-241.54C992.5,-229.17 992.5,-213.62 992.5,-204.13"/>
<polygon fill="midnightblue" stroke="midnightblue" points="989,-241.73 992.5,-251.73 996,-241.73 989,-241.73"/>
</g>
<!-- Node34&#45;&gt;Node3 -->
<g id="edge45" class="edge">
<title>Node34&#45;&gt;Node3</title>
<path fill="none" stroke="midnightblue" d="M618.16,-375.46C604.66,-367.5 590.83,-357.03 581.5,-344 559.79,-313.67 561.5,-299.8 561.5,-262.5 561.5,-262.5 561.5,-262.5 561.5,-126.5 561.5,-75.79 617.19,-36.18 645.03,-19.54"/>
<polygon fill="midnightblue" stroke="midnightblue" points="616.49,-378.54 626.93,-380.33 619.89,-372.42 616.49,-378.54"/>
</g>
<!-- Node35 -->
<g id="node35" class="node">
<title>Node35</title>
<g id="a_node35"><a xlink:href="event__monitor_8cpp.html" target="_top" xlink:title=" ">
<polygon fill="none" stroke="black" points="590,-313.5 590,-343.5 731,-343.5 731,-313.5 590,-313.5"/>
<text text-anchor="start" x="598" y="-331.5" font-family="Helvetica,sans-Serif" font-size="10.00">HealthGPS.Console/event</text>
<text text-anchor="middle" x="660.5" y="-320.5" font-family="Helvetica,sans-Serif" font-size="10.00">_monitor.cpp</text>
</a>
</g>
</g>
<!-- Node34&#45;&gt;Node35 -->
<g id="edge44" class="edge">
<title>Node34&#45;&gt;Node35</title>
<path fill="none" stroke="midnightblue" d="M660.5,-370.11C660.5,-361.15 660.5,-351.32 660.5,-343.58"/>
<polygon fill="midnightblue" stroke="midnightblue" points="657,-370.4 660.5,-380.4 664,-370.4 657,-370.4"/>
</g>
</g>
</svg>
