<?xml version="1.0" encoding="UTF-8" standalone="no"?>
<!DOCTYPE svg PUBLIC "-//W3C//DTD SVG 1.1//EN"
 "http://www.w3.org/Graphics/SVG/1.1/DTD/svg11.dtd">
<!-- Generated by graphviz version 2.43.0 (0)
 -->
<!-- Title: HealthGPS.Console/event_monitor.h Pages: 1 -->
<svg width="652pt" height="397pt"
 viewBox="0.00 0.00 652.00 397.00" xmlns="http://www.w3.org/2000/svg" xmlns:xlink="http://www.w3.org/1999/xlink">
<g id="graph0" class="graph" transform="scale(1 1) rotate(0) translate(4 393)">
<title>HealthGPS.Console/event_monitor.h</title>
<!-- Node1 -->
<g id="node1" class="node">
<title>Node1</title>
<g id="a_node1"><a xlink:title=" ">
<polygon fill="#bfbfbf" stroke="black" points="196,-358.5 196,-388.5 337,-388.5 337,-358.5 196,-358.5"/>
<text text-anchor="start" x="204" y="-376.5" font-family="Helvetica,sans-Serif" font-size="10.00">HealthGPS.Console/event</text>
<text text-anchor="middle" x="266.5" y="-365.5" font-family="Helvetica,sans-Serif" font-size="10.00">_monitor.h</text>
</a>
</g>
</g>
<!-- Node2 -->
<g id="node2" class="node">
<title>Node2</title>
<g id="a_node2"><a xlink:title=" ">
<polygon fill="none" stroke="#bfbfbf" points="36.5,-297 36.5,-316 84.5,-316 84.5,-297 36.5,-297"/>
<text text-anchor="middle" x="60.5" y="-304" font-family="Helvetica,sans-Serif" font-size="10.00">thread</text>
</a>
</g>
</g>
<!-- Node1&#45;&gt;Node2 -->
<g id="edge1" class="edge">
<title>Node1&#45;&gt;Node2</title>
<path fill="none" stroke="midnightblue" d="M211.76,-358.48C177.43,-349.21 132.46,-336.18 93.5,-322 91.84,-321.4 90.15,-320.75 88.45,-320.08"/>
<polygon fill="midnightblue" stroke="midnightblue" points="89.4,-316.68 78.83,-316.06 86.71,-323.14 89.4,-316.68"/>
</g>
<!-- Node3 -->
<g id="node3" class="node">
<title>Node3</title>
<g id="a_node3"><a xlink:href="event__aggregator_8h.html" target="_top" xlink:title=" ">
<polygon fill="none" stroke="black" points="102.5,-297 102.5,-316 268.5,-316 268.5,-297 102.5,-297"/>
<text text-anchor="middle" x="185.5" y="-304" font-family="Helvetica,sans-Serif" font-size="10.00">HealthGPS/event_aggregator.h</text>
</a>
</g>
</g>
<!-- Node1&#45;&gt;Node3 -->
<g id="edge2" class="edge">
<title>Node1&#45;&gt;Node3</title>
<path fill="none" stroke="midnightblue" d="M248.92,-358.4C235.79,-347.86 217.87,-333.48 204.43,-322.69"/>
<polygon fill="midnightblue" stroke="midnightblue" points="206.32,-319.72 196.33,-316.19 201.94,-325.18 206.32,-319.72"/>
</g>
<!-- Node11 -->
<g id="node11" class="node">
<title>Node11</title>
<g id="a_node11"><a xlink:href="threadsafe__queue_8h.html" target="_top" xlink:title=" ">
<polygon fill="none" stroke="black" points="428.5,-291.5 428.5,-321.5 552.5,-321.5 552.5,-291.5 428.5,-291.5"/>
<text text-anchor="start" x="436.5" y="-309.5" font-family="Helvetica,sans-Serif" font-size="10.00">HealthGPS/threadsafe</text>
<text text-anchor="middle" x="490.5" y="-298.5" font-family="Helvetica,sans-Serif" font-size="10.00">_queue.h</text>
</a>
</g>
</g>
<!-- Node1&#45;&gt;Node11 -->
<g id="edge10" class="edge">
<title>Node1&#45;&gt;Node11</title>
<path fill="none" stroke="midnightblue" d="M314.83,-358.48C349.16,-348.51 395.43,-335.09 431.87,-324.51"/>
<polygon fill="midnightblue" stroke="midnightblue" points="433.24,-327.76 441.87,-321.61 431.29,-321.04 433.24,-327.76"/>
</g>
<!-- Node15 -->
<g id="node15" class="node">
<title>Node15</title>
<g id="a_node15"><a xlink:href="result__writer_8h.html" target="_top" xlink:title=" ">
<polygon fill="none" stroke="black" points="306.5,-297 306.5,-316 392.5,-316 392.5,-297 306.5,-297"/>
<text text-anchor="middle" x="349.5" y="-304" font-family="Helvetica,sans-Serif" font-size="10.00">result_writer.h</text>
</a>
</g>
</g>
<!-- Node1&#45;&gt;Node15 -->
<g id="edge14" class="edge">
<title>Node1&#45;&gt;Node15</title>
<path fill="none" stroke="midnightblue" d="M284.51,-358.4C298.09,-347.76 316.68,-333.2 330.5,-322.38"/>
<polygon fill="midnightblue" stroke="midnightblue" points="332.68,-325.12 338.4,-316.19 328.37,-319.6 332.68,-325.12"/>
</g>
<!-- Node4 -->
<g id="node4" class="node">
<title>Node4</title>
<g id="a_node4"><a xlink:title=" ">
<polygon fill="none" stroke="#bfbfbf" points="0,-235.5 0,-254.5 65,-254.5 65,-235.5 0,-235.5"/>
<text text-anchor="middle" x="32.5" y="-242.5" font-family="Helvetica,sans-Serif" font-size="10.00">functional</text>
</a>
</g>
</g>
<!-- Node3&#45;&gt;Node4 -->
<g id="edge3" class="edge">
<title>Node3&#45;&gt;Node4</title>
<path fill="none" stroke="midnightblue" d="M163.58,-296.98C137.45,-286.81 93.59,-269.76 63.87,-258.2"/>
<polygon fill="midnightblue" stroke="midnightblue" points="64.97,-254.87 54.38,-254.51 62.43,-261.4 64.97,-254.87"/>
</g>
<!-- Node5 -->
<g id="node5" class="node">
<title>Node5</title>
<g id="a_node5"><a xlink:title=" ">
<polygon fill="none" stroke="#bfbfbf" points="83,-235.5 83,-254.5 148,-254.5 148,-235.5 83,-235.5"/>
<text text-anchor="middle" x="115.5" y="-242.5" font-family="Helvetica,sans-Serif" font-size="10.00">stdexcept</text>
</a>
</g>
</g>
<!-- Node3&#45;&gt;Node5 -->
<g id="edge4" class="edge">
<title>Node3&#45;&gt;Node5</title>
<path fill="none" stroke="midnightblue" d="M175.47,-296.98C164.45,-287.61 146.54,-272.38 133.16,-261.01"/>
<polygon fill="midnightblue" stroke="midnightblue" points="135.4,-258.32 125.51,-254.51 130.86,-263.65 135.4,-258.32"/>
</g>
<!-- Node6 -->
<g id="node6" class="node">
<title>Node6</title>
<g id="a_node6"><a xlink:href="event__message_8h.html" target="_top" xlink:title=" ">
<polygon fill="none" stroke="black" points="125,-179.5 125,-198.5 228,-198.5 228,-179.5 125,-179.5"/>
<text text-anchor="middle" x="176.5" y="-186.5" font-family="Helvetica,sans-Serif" font-size="10.00">event_message.h</text>
</a>
</g>
</g>
<!-- Node3&#45;&gt;Node6 -->
<g id="edge5" class="edge">
<title>Node3&#45;&gt;Node6</title>
<path fill="none" stroke="midnightblue" d="M184.82,-296.82C183.38,-278.26 179.95,-234.34 177.98,-208.97"/>
<polygon fill="midnightblue" stroke="midnightblue" points="181.45,-208.48 177.18,-198.78 174.47,-209.02 181.45,-208.48"/>
</g>
<!-- Node10 -->
<g id="node10" class="node">
<title>Node10</title>
<g id="a_node10"><a xlink:title=" ">
<polygon fill="none" stroke="#bfbfbf" points="204.5,-235.5 204.5,-254.5 262.5,-254.5 262.5,-235.5 204.5,-235.5"/>
<text text-anchor="middle" x="233.5" y="-242.5" font-family="Helvetica,sans-Serif" font-size="10.00">memory</text>
</a>
</g>
</g>
<!-- Node3&#45;&gt;Node10 -->
<g id="edge9" class="edge">
<title>Node3&#45;&gt;Node10</title>
<path fill="none" stroke="midnightblue" d="M192.38,-296.98C199.65,-287.96 211.3,-273.52 220.34,-262.31"/>
<polygon fill="midnightblue" stroke="midnightblue" points="223.08,-264.49 226.64,-254.51 217.63,-260.09 223.08,-264.49"/>
</g>
<!-- Node7 -->
<g id="node7" class="node">
<title>Node7</title>
<g id="a_node7"><a xlink:href="event__visitor_8h.html" target="_top" xlink:title=" ">
<polygon fill="none" stroke="black" points="99,-123.5 99,-142.5 188,-142.5 188,-123.5 99,-123.5"/>
<text text-anchor="middle" x="143.5" y="-130.5" font-family="Helvetica,sans-Serif" font-size="10.00">event_visitor.h</text>
</a>
</g>
</g>
<!-- Node6&#45;&gt;Node7 -->
<g id="edge6" class="edge">
<title>Node6&#45;&gt;Node7</title>
<path fill="none" stroke="midnightblue" d="M171.05,-179.08C166.49,-171.61 159.83,-160.72 154.21,-151.52"/>
<polygon fill="midnightblue" stroke="midnightblue" points="157.05,-149.46 148.85,-142.75 151.08,-153.11 157.05,-149.46"/>
</g>
<!-- Node8 -->
<g id="node8" class="node">
<title>Node8</title>
<g id="a_node8"><a xlink:title=" ">
<polygon fill="none" stroke="#bfbfbf" points="188.5,-0.5 188.5,-19.5 238.5,-19.5 238.5,-0.5 188.5,-0.5"/>
<text text-anchor="middle" x="213.5" y="-7.5" font-family="Helvetica,sans-Serif" font-size="10.00">cstdint</text>
</a>
</g>
</g>
<!-- Node6&#45;&gt;Node8 -->
<g id="edge7" class="edge">
<title>Node6&#45;&gt;Node8</title>
<path fill="none" stroke="midnightblue" d="M141.49,-179.45C122.57,-172.84 100.82,-161.59 89.5,-143 84.88,-135.41 86.33,-131.3 89.5,-123 107.15,-76.83 156.23,-42.51 187.09,-24.71"/>
<polygon fill="midnightblue" stroke="midnightblue" points="189,-27.66 196.02,-19.73 185.59,-21.54 189,-27.66"/>
</g>
<!-- Node9 -->
<g id="node9" class="node">
<title>Node9</title>
<g id="a_node9"><a xlink:title=" ">
<polygon fill="none" stroke="#bfbfbf" points="158.5,-62 158.5,-81 202.5,-81 202.5,-62 158.5,-62"/>
<text text-anchor="middle" x="180.5" y="-69" font-family="Helvetica,sans-Serif" font-size="10.00">string</text>
</a>
</g>
</g>
<!-- Node6&#45;&gt;Node9 -->
<g id="edge8" class="edge">
<title>Node6&#45;&gt;Node9</title>
<path fill="none" stroke="midnightblue" d="M181.63,-179.41C186.56,-170.61 193.66,-156.38 196.5,-143 200.28,-125.19 194.64,-104.94 189.04,-90.72"/>
<polygon fill="midnightblue" stroke="midnightblue" points="192.1,-88.96 184.93,-81.17 185.67,-91.73 192.1,-88.96"/>
</g>
<!-- Node12 -->
<g id="node12" class="node">
<title>Node12</title>
<g id="a_node12"><a xlink:title=" ">
<polygon fill="none" stroke="#bfbfbf" points="456.5,-235.5 456.5,-254.5 504.5,-254.5 504.5,-235.5 456.5,-235.5"/>
<text text-anchor="middle" x="480.5" y="-242.5" font-family="Helvetica,sans-Serif" font-size="10.00">mutex</text>
</a>
</g>
</g>
<!-- Node11&#45;&gt;Node12 -->
<g id="edge11" class="edge">
<title>Node11&#45;&gt;Node12</title>
<path fill="none" stroke="midnightblue" d="M488.13,-291.4C486.78,-283.38 485.08,-273.23 483.62,-264.57"/>
<polygon fill="midnightblue" stroke="midnightblue" points="487.06,-263.94 481.96,-254.66 480.16,-265.1 487.06,-263.94"/>
</g>
<!-- Node13 -->
<g id="node13" class="node">
<title>Node13</title>
<g id="a_node13"><a xlink:title=" ">
<polygon fill="none" stroke="#bfbfbf" points="522.5,-235.5 522.5,-254.5 578.5,-254.5 578.5,-235.5 522.5,-235.5"/>
<text text-anchor="middle" x="550.5" y="-242.5" font-family="Helvetica,sans-Serif" font-size="10.00">optional</text>
</a>
</g>
</g>
<!-- Node11&#45;&gt;Node13 -->
<g id="edge12" class="edge">
<title>Node11&#45;&gt;Node13</title>
<path fill="none" stroke="midnightblue" d="M504.72,-291.4C513.71,-282.49 525.34,-270.95 534.63,-261.74"/>
<polygon fill="midnightblue" stroke="midnightblue" points="537.13,-264.18 541.77,-254.66 532.2,-259.21 537.13,-264.18"/>
</g>
<!-- Node14 -->
<g id="node14" class="node">
<title>Node14</title>
<g id="a_node14"><a xlink:title=" ">
<polygon fill="none" stroke="#bfbfbf" points="597,-235.5 597,-254.5 644,-254.5 644,-235.5 597,-235.5"/>
<text text-anchor="middle" x="620.5" y="-242.5" font-family="Helvetica,sans-Serif" font-size="10.00">queue</text>
</a>
</g>
</g>
<!-- Node11&#45;&gt;Node14 -->
<g id="edge13" class="edge">
<title>Node11&#45;&gt;Node14</title>
<path fill="none" stroke="midnightblue" d="M521.31,-291.4C542.83,-281.55 571.34,-268.5 592.27,-258.92"/>
<polygon fill="midnightblue" stroke="midnightblue" points="593.95,-262 601.58,-254.66 591.03,-255.64 593.95,-262"/>
</g>
<!-- Node16 -->
<g id="node16" class="node">
<title>Node16</title>
<g id="a_node16"><a xlink:href="result__message_8h.html" target="_top" xlink:title=" ">
<polygon fill="none" stroke="black" points="280.5,-235.5 280.5,-254.5 438.5,-254.5 438.5,-235.5 280.5,-235.5"/>
<text text-anchor="middle" x="359.5" y="-242.5" font-family="Helvetica,sans-Serif" font-size="10.00">HealthGPS/result_message.h</text>
</a>
</g>
</g>
<!-- Node15&#45;&gt;Node16 -->
<g id="edge15" class="edge">
<title>Node15&#45;&gt;Node16</title>
<path fill="none" stroke="midnightblue" d="M350.93,-296.98C352.34,-288.58 354.55,-275.48 356.36,-264.66"/>
<polygon fill="midnightblue" stroke="midnightblue" points="359.86,-264.95 358.07,-254.51 352.96,-263.79 359.86,-264.95"/>
</g>
<!-- Node16&#45;&gt;Node6 -->
<g id="edge16" class="edge">
<title>Node16&#45;&gt;Node6</title>
<path fill="none" stroke="midnightblue" d="M330.5,-235.44C299.32,-226.24 249.57,-211.56 215.09,-201.39"/>
<polygon fill="midnightblue" stroke="midnightblue" points="215.94,-197.99 205.36,-198.52 213.96,-204.7 215.94,-197.99"/>
</g>
<!-- Node17 -->
<g id="node17" class="node">
<title>Node17</title>
<g id="a_node17"><a xlink:href="model__result_8h.html" target="_top" xlink:title=" ">
<polygon fill="none" stroke="black" points="331,-179.5 331,-198.5 420,-198.5 420,-179.5 331,-179.5"/>
<text text-anchor="middle" x="375.5" y="-186.5" font-family="Helvetica,sans-Serif" font-size="10.00">model_result.h</text>
</a>
</g>
</g>
<!-- Node16&#45;&gt;Node17 -->
<g id="edge17" class="edge">
<title>Node16&#45;&gt;Node17</title>
<path fill="none" stroke="midnightblue" d="M362.14,-235.08C364.29,-227.85 367.38,-217.41 370.05,-208.4"/>
<polygon fill="midnightblue" stroke="midnightblue" points="373.42,-209.33 372.91,-198.75 366.71,-207.34 373.42,-209.33"/>
</g>
<!-- Node17&#45;&gt;Node9 -->
<g id="edge28" class="edge">
<title>Node17&#45;&gt;Node9</title>
<path fill="none" stroke="midnightblue" d="M352.06,-179.46C330.88,-171.33 299.19,-158.12 273.5,-143 245.59,-126.57 216.28,-103.17 198.19,-87.91"/>
<polygon fill="midnightblue" stroke="midnightblue" points="200.15,-84.98 190.27,-81.14 195.6,-90.3 200.15,-84.98"/>
</g>
<!-- Node18 -->
<g id="node18" class="node">
<title>Node18</title>
<g id="a_node18"><a xlink:href="data__series_8h.html" target="_top" xlink:title=" ">
<polygon fill="none" stroke="black" points="282.5,-123.5 282.5,-142.5 364.5,-142.5 364.5,-123.5 282.5,-123.5"/>
<text text-anchor="middle" x="323.5" y="-130.5" font-family="Helvetica,sans-Serif" font-size="10.00">data_series.h</text>
</a>
</g>
</g>
<!-- Node17&#45;&gt;Node18 -->
<g id="edge18" class="edge">
<title>Node17&#45;&gt;Node18</title>
<path fill="none" stroke="midnightblue" d="M366.91,-179.08C359.34,-171.22 348.12,-159.57 338.99,-150.08"/>
<polygon fill="midnightblue" stroke="midnightblue" points="341.38,-147.53 331.93,-142.75 336.34,-152.38 341.38,-147.53"/>
</g>
<!-- Node21 -->
<g id="node21" class="node">
<title>Node21</title>
<g id="a_node21"><a xlink:title=" ">
<polygon fill="none" stroke="#bfbfbf" points="372.5,-62 372.5,-81 410.5,-81 410.5,-62 372.5,-62"/>
<text text-anchor="middle" x="391.5" y="-69" font-family="Helvetica,sans-Serif" font-size="10.00">map</text>
</a>
</g>
</g>
<!-- Node17&#45;&gt;Node21 -->
<g id="edge27" class="edge">
<title>Node17&#45;&gt;Node21</title>
<path fill="none" stroke="midnightblue" d="M376.7,-179.32C379.27,-160.76 385.36,-116.84 388.87,-91.47"/>
<polygon fill="midnightblue" stroke="midnightblue" points="392.38,-91.67 390.28,-81.28 385.44,-90.71 392.38,-91.67"/>
</g>
<!-- Node22 -->
<g id="node22" class="node">
<title>Node22</title>
<g id="a_node22"><a xlink:title=" ">
<polygon fill="none" stroke="#bfbfbf" points="429,-62 429,-81 476,-81 476,-62 429,-62"/>
<text text-anchor="middle" x="452.5" y="-69" font-family="Helvetica,sans-Serif" font-size="10.00">vector</text>
</a>
</g>
</g>
<!-- Node17&#45;&gt;Node22 -->
<g id="edge29" class="edge">
<title>Node17&#45;&gt;Node22</title>
<path fill="none" stroke="midnightblue" d="M381.29,-179.32C393.94,-160.34 424.27,-114.85 440.97,-89.79"/>
<polygon fill="midnightblue" stroke="midnightblue" points="444.01,-91.54 446.65,-81.28 438.19,-87.66 444.01,-91.54"/>
</g>
<!-- Node23 -->
<g id="node23" class="node">
<title>Node23</title>
<g id="a_node23"><a xlink:href="gender__value_8h.html" target="_top" xlink:title=" ">
<polygon fill="none" stroke="black" points="458.5,-123.5 458.5,-142.5 550.5,-142.5 550.5,-123.5 458.5,-123.5"/>
<text text-anchor="middle" x="504.5" y="-130.5" font-family="Helvetica,sans-Serif" font-size="10.00">gender_value.h</text>
</a>
</g>
</g>
<!-- Node17&#45;&gt;Node23 -->
<g id="edge25" class="edge">
<title>Node17&#45;&gt;Node23</title>
<path fill="none" stroke="midnightblue" d="M395.94,-179.44C417.17,-170.56 450.6,-156.56 474.75,-146.45"/>
<polygon fill="midnightblue" stroke="midnightblue" points="476.28,-149.61 484.16,-142.52 473.58,-143.15 476.28,-149.61"/>
</g>
<!-- Node18&#45;&gt;Node9 -->
<g id="edge23" class="edge">
<title>Node18&#45;&gt;Node9</title>
<path fill="none" stroke="midnightblue" d="M301.04,-123.4C278.31,-114.6 242.25,-100.36 211.5,-87 210.3,-86.48 209.09,-85.94 207.86,-85.4"/>
<polygon fill="midnightblue" stroke="midnightblue" points="209.01,-82.07 198.45,-81.1 206.1,-88.44 209.01,-82.07"/>
</g>
<!-- Node19 -->
<g id="node19" class="node">
<title>Node19</title>
<g id="a_node19"><a xlink:href="forward__type_8h.html" target="_top" xlink:title=" ">
<polygon fill="none" stroke="black" points="220.5,-56.5 220.5,-86.5 354.5,-86.5 354.5,-56.5 220.5,-56.5"/>
<text text-anchor="start" x="228.5" y="-74.5" font-family="Helvetica,sans-Serif" font-size="10.00">HealthGPS.Core/forward</text>
<text text-anchor="middle" x="287.5" y="-63.5" font-family="Helvetica,sans-Serif" font-size="10.00">_type.h</text>
</a>
</g>
</g>
<!-- Node18&#45;&gt;Node19 -->
<g id="edge19" class="edge">
<title>Node18&#45;&gt;Node19</title>
<path fill="none" stroke="midnightblue" d="M318.34,-123.48C313.88,-116.09 307.21,-105.08 301.22,-95.17"/>
<polygon fill="midnightblue" stroke="midnightblue" points="304.16,-93.27 295.98,-86.52 298.17,-96.89 304.16,-93.27"/>
</g>
<!-- Node18&#45;&gt;Node21 -->
<g id="edge22" class="edge">
<title>Node18&#45;&gt;Node21</title>
<path fill="none" stroke="midnightblue" d="M333.24,-123.48C343.85,-114.2 361.02,-99.17 373.98,-87.83"/>
<polygon fill="midnightblue" stroke="midnightblue" points="376.55,-90.23 381.78,-81.01 371.94,-84.96 376.55,-90.23"/>
</g>
<!-- Node18&#45;&gt;Node22 -->
<g id="edge24" class="edge">
<title>Node18&#45;&gt;Node22</title>
<path fill="none" stroke="midnightblue" d="M341.98,-123.48C363.63,-113.49 399.71,-96.85 424.73,-85.31"/>
<polygon fill="midnightblue" stroke="midnightblue" points="426.44,-88.38 434.05,-81.01 423.51,-82.02 426.44,-88.38"/>
</g>
<!-- Node19&#45;&gt;Node8 -->
<g id="edge20" class="edge">
<title>Node19&#45;&gt;Node8</title>
<path fill="none" stroke="midnightblue" d="M269.96,-56.4C258.66,-47.31 243.96,-35.49 232.39,-26.19"/>
<polygon fill="midnightblue" stroke="midnightblue" points="234.25,-23.2 224.27,-19.66 229.87,-28.65 234.25,-23.2"/>
</g>
<!-- Node20 -->
<g id="node20" class="node">
<title>Node20</title>
<g id="a_node20"><a xlink:title=" ">
<polygon fill="none" stroke="#bfbfbf" points="326,-0.5 326,-19.5 395,-19.5 395,-0.5 326,-0.5"/>
<text text-anchor="middle" x="360.5" y="-7.5" font-family="Helvetica,sans-Serif" font-size="10.00">type_traits</text>
</a>
</g>
</g>
<!-- Node19&#45;&gt;Node20 -->
<g id="edge21" class="edge">
<title>Node19&#45;&gt;Node20</title>
<path fill="none" stroke="midnightblue" d="M304.8,-56.4C315.95,-47.31 330.45,-35.49 341.86,-26.19"/>
<polygon fill="midnightblue" stroke="midnightblue" points="344.34,-28.69 349.88,-19.66 339.92,-23.26 344.34,-28.69"/>
</g>
<!-- Node23&#45;&gt;Node20 -->
<g id="edge26" class="edge">
<title>Node23&#45;&gt;Node20</title>
<path fill="none" stroke="midnightblue" d="M504.68,-123.27C504.53,-107.73 501.98,-75.14 484.5,-56 464.03,-33.58 431.51,-22.31 404.91,-16.66"/>
<polygon fill="midnightblue" stroke="midnightblue" points="405.52,-13.21 395.04,-14.76 404.2,-20.09 405.52,-13.21"/>
</g>
</g>
</svg>
