<?xml version="1.0" encoding="UTF-8" standalone="no"?>
<!DOCTYPE svg PUBLIC "-//W3C//DTD SVG 1.1//EN"
 "http://www.w3.org/Graphics/SVG/1.1/DTD/svg11.dtd">
<!-- Generated by graphviz version 2.43.0 (0)
 -->
<!-- Title: HealthGPS/event_visitor.h Pages: 1 -->
<svg width="3230pt" height="587pt"
 viewBox="0.00 0.00 3230.00 587.00" xmlns="http://www.w3.org/2000/svg" xmlns:xlink="http://www.w3.org/1999/xlink">
<g id="graph0" class="graph" transform="scale(1 1) rotate(0) translate(4 583)">
<title>HealthGPS/event_visitor.h</title>
<!-- Node1 -->
<g id="node1" class="node">
<title>Node1</title>
<g id="a_node1"><a xlink:title=" ">
<polygon fill="#bfbfbf" stroke="black" points="2585.5,-559.5 2585.5,-578.5 2728.5,-578.5 2728.5,-559.5 2585.5,-559.5"/>
<text text-anchor="middle" x="2657" y="-566.5" font-family="Helvetica,sans-Serif" font-size="10.00">HealthGPS/event_visitor.h</text>
</a>
</g>
</g>
<!-- Node2 -->
<g id="node2" class="node">
<title>Node2</title>
<g id="a_node2"><a xlink:href="event__message_8h.html" target="_top" xlink:title=" ">
<polygon fill="none" stroke="black" points="2578,-503.5 2578,-522.5 2736,-522.5 2736,-503.5 2578,-503.5"/>
<text text-anchor="middle" x="2657" y="-510.5" font-family="Helvetica,sans-Serif" font-size="10.00">HealthGPS/event_message.h</text>
</a>
</g>
</g>
<!-- Node1&#45;&gt;Node2 -->
<g id="edge1" class="edge">
<title>Node1&#45;&gt;Node2</title>
<path fill="none" stroke="midnightblue" d="M2657,-548.8C2657,-539.91 2657,-529.78 2657,-522.75"/>
<polygon fill="midnightblue" stroke="midnightblue" points="2653.5,-549.08 2657,-559.08 2660.5,-549.08 2653.5,-549.08"/>
</g>
<!-- Node3 -->
<g id="node3" class="node">
<title>Node3</title>
<g id="a_node3"><a xlink:href="error__message_8h.html" target="_top" xlink:title=" ">
<polygon fill="none" stroke="black" points="2580.5,-447.5 2580.5,-466.5 2733.5,-466.5 2733.5,-447.5 2580.5,-447.5"/>
<text text-anchor="middle" x="2657" y="-454.5" font-family="Helvetica,sans-Serif" font-size="10.00">HealthGPS/error_message.h</text>
</a>
</g>
</g>
<!-- Node2&#45;&gt;Node3 -->
<g id="edge2" class="edge">
<title>Node2&#45;&gt;Node3</title>
<path fill="none" stroke="midnightblue" d="M2657,-492.8C2657,-483.91 2657,-473.78 2657,-466.75"/>
<polygon fill="midnightblue" stroke="midnightblue" points="2653.5,-493.08 2657,-503.08 2660.5,-493.08 2653.5,-493.08"/>
</g>
<!-- Node6 -->
<g id="node6" class="node">
<title>Node6</title>
<g id="a_node6"><a xlink:href="event__aggregator_8h.html" target="_top" xlink:title=" ">
<polygon fill="none" stroke="black" points="1853,-447.5 1853,-466.5 2019,-466.5 2019,-447.5 1853,-447.5"/>
<text text-anchor="middle" x="1936" y="-454.5" font-family="Helvetica,sans-Serif" font-size="10.00">HealthGPS/event_aggregator.h</text>
</a>
</g>
</g>
<!-- Node2&#45;&gt;Node6 -->
<g id="edge5" class="edge">
<title>Node2&#45;&gt;Node6</title>
<path fill="none" stroke="midnightblue" d="M2567.46,-505.29C2426.77,-494.76 2155.92,-474.47 2019.23,-464.23"/>
<polygon fill="midnightblue" stroke="midnightblue" points="2567.54,-508.81 2577.78,-506.07 2568.07,-501.83 2567.54,-508.81"/>
</g>
<!-- Node40 -->
<g id="node40" class="node">
<title>Node40</title>
<g id="a_node40"><a xlink:href="info__message_8h.html" target="_top" xlink:title=" ">
<polygon fill="none" stroke="black" points="3067.5,-319 3067.5,-338 3216.5,-338 3216.5,-319 3067.5,-319"/>
<text text-anchor="middle" x="3142" y="-326" font-family="Helvetica,sans-Serif" font-size="10.00">HealthGPS/info_message.h</text>
</a>
</g>
</g>
<!-- Node2&#45;&gt;Node40 -->
<g id="edge51" class="edge">
<title>Node2&#45;&gt;Node40</title>
<path fill="none" stroke="midnightblue" d="M2691.53,-500.03C2744.68,-481.5 2849.66,-444.51 2938,-411 3005.4,-385.43 3084.47,-353.2 3121.24,-338.07"/>
<polygon fill="midnightblue" stroke="midnightblue" points="2690.21,-496.78 2681.92,-503.37 2692.51,-503.39 2690.21,-496.78"/>
</g>
<!-- Node42 -->
<g id="node42" class="node">
<title>Node42</title>
<g id="a_node42"><a xlink:href="result__message_8h.html" target="_top" xlink:title=" ">
<polygon fill="none" stroke="black" points="2278,-447.5 2278,-466.5 2436,-466.5 2436,-447.5 2278,-447.5"/>
<text text-anchor="middle" x="2357" y="-454.5" font-family="Helvetica,sans-Serif" font-size="10.00">HealthGPS/result_message.h</text>
</a>
</g>
</g>
<!-- Node2&#45;&gt;Node42 -->
<g id="edge55" class="edge">
<title>Node2&#45;&gt;Node42</title>
<path fill="none" stroke="midnightblue" d="M2599.58,-501.66C2542.88,-491.46 2457.21,-476.04 2404.31,-466.52"/>
<polygon fill="midnightblue" stroke="midnightblue" points="2599,-505.12 2609.46,-503.44 2600.24,-498.23 2599,-505.12"/>
</g>
<!-- Node47 -->
<g id="node47" class="node">
<title>Node47</title>
<g id="a_node47"><a xlink:href="runner__message_8h.html" target="_top" xlink:title=" ">
<polygon fill="none" stroke="black" points="2767.5,-386 2767.5,-405 2928.5,-405 2928.5,-386 2767.5,-386"/>
<text text-anchor="middle" x="2848" y="-393" font-family="Helvetica,sans-Serif" font-size="10.00">HealthGPS/runner_message.h</text>
</a>
</g>
</g>
<!-- Node2&#45;&gt;Node47 -->
<g id="edge63" class="edge">
<title>Node2&#45;&gt;Node47</title>
<path fill="none" stroke="midnightblue" d="M2684.18,-498.74C2701.31,-490.14 2723.75,-478.45 2743,-467 2777.72,-446.34 2816.77,-418.96 2835.99,-405.19"/>
<polygon fill="midnightblue" stroke="midnightblue" points="2682.16,-495.83 2674.77,-503.41 2685.28,-502.1 2682.16,-495.83"/>
</g>
<!-- Node4 -->
<g id="node4" class="node">
<title>Node4</title>
<g id="a_node4"><a xlink:href="error__message_8cpp.html" target="_top" xlink:title=" ">
<polygon fill="none" stroke="black" points="2547,-386 2547,-405 2711,-405 2711,-386 2547,-386"/>
<text text-anchor="middle" x="2629" y="-393" font-family="Helvetica,sans-Serif" font-size="10.00">HealthGPS/error_message.cpp</text>
</a>
</g>
</g>
<!-- Node3&#45;&gt;Node4 -->
<g id="edge3" class="edge">
<title>Node3&#45;&gt;Node4</title>
<path fill="none" stroke="midnightblue" d="M2648.69,-438.33C2643.51,-427.33 2637.08,-413.66 2633,-405.01"/>
<polygon fill="midnightblue" stroke="midnightblue" points="2645.56,-439.92 2652.99,-447.48 2651.9,-436.94 2645.56,-439.92"/>
</g>
<!-- Node5 -->
<g id="node5" class="node">
<title>Node5</title>
<g id="a_node5"><a xlink:href="event__monitor_8cpp.html" target="_top" xlink:title=" ">
<polygon fill="none" stroke="black" points="2675.5,-246.5 2675.5,-276.5 2816.5,-276.5 2816.5,-246.5 2675.5,-246.5"/>
<text text-anchor="start" x="2683.5" y="-264.5" font-family="Helvetica,sans-Serif" font-size="10.00">HealthGPS.Console/event</text>
<text text-anchor="middle" x="2746" y="-253.5" font-family="Helvetica,sans-Serif" font-size="10.00">_monitor.cpp</text>
</a>
</g>
</g>
<!-- Node3&#45;&gt;Node5 -->
<g id="edge4" class="edge">
<title>Node3&#45;&gt;Node5</title>
<path fill="none" stroke="midnightblue" d="M2686.82,-442.61C2699.48,-435.23 2712.92,-424.75 2720,-411 2726.3,-398.75 2726.87,-391.94 2720,-380 2704.1,-352.39 2673.9,-371.61 2658,-344 2651.13,-332.06 2651.1,-324.92 2658,-313 2667.71,-296.23 2685.32,-284.55 2702.25,-276.68"/>
<polygon fill="midnightblue" stroke="midnightblue" points="2685,-439.61 2677.85,-447.43 2688.31,-445.78 2685,-439.61"/>
</g>
<!-- Node7 -->
<g id="node7" class="node">
<title>Node7</title>
<g id="a_node7"><a xlink:href="HealthGPS_2api_8h.html" target="_top" xlink:title=" ">
<polygon fill="none" stroke="black" points="2035.5,-56.5 2035.5,-75.5 2130.5,-75.5 2130.5,-56.5 2035.5,-56.5"/>
<text text-anchor="middle" x="2083" y="-63.5" font-family="Helvetica,sans-Serif" font-size="10.00">HealthGPS/api.h</text>
</a>
</g>
</g>
<!-- Node6&#45;&gt;Node7 -->
<g id="edge6" class="edge">
<title>Node6&#45;&gt;Node7</title>
<path fill="none" stroke="midnightblue" d="M1842.62,-451C1713.69,-443.81 1473.97,-429.35 1270,-411 1002.63,-386.95 541.74,-546.6 674,-313 689.32,-285.94 707.72,-293.63 734,-277 800.35,-235.01 806.99,-205.22 881,-179 1099.79,-101.49 1839.83,-74.26 2035.31,-68.33"/>
<polygon fill="midnightblue" stroke="midnightblue" points="1842.66,-454.51 1852.84,-451.57 1843.05,-447.52 1842.66,-454.51"/>
</g>
<!-- Node9 -->
<g id="node9" class="node">
<title>Node9</title>
<g id="a_node9"><a xlink:href="event__subscriber_8h.html" target="_top" xlink:title=" ">
<polygon fill="none" stroke="black" points="160.5,-386 160.5,-405 323.5,-405 323.5,-386 160.5,-386"/>
<text text-anchor="middle" x="242" y="-393" font-family="Helvetica,sans-Serif" font-size="10.00">HealthGPS/event_subscriber.h</text>
</a>
</g>
</g>
<!-- Node6&#45;&gt;Node9 -->
<g id="edge8" class="edge">
<title>Node6&#45;&gt;Node9</title>
<path fill="none" stroke="midnightblue" d="M1842.46,-452.8C1629.31,-445.5 1091.14,-427 641,-411 531.2,-407.1 404.41,-402.47 323.76,-399.51"/>
<polygon fill="midnightblue" stroke="midnightblue" points="1842.56,-456.31 1852.67,-453.15 1842.8,-449.31 1842.56,-456.31"/>
</g>
<!-- Node13 -->
<g id="node13" class="node">
<title>Node13</title>
<g id="a_node13"><a xlink:href="healthgps_8h.html" target="_top" xlink:title=" ">
<polygon fill="none" stroke="black" points="2111,-118 2111,-137 2239,-137 2239,-118 2111,-118"/>
<text text-anchor="middle" x="2175" y="-125" font-family="Helvetica,sans-Serif" font-size="10.00">HealthGPS/healthgps.h</text>
</a>
</g>
</g>
<!-- Node6&#45;&gt;Node13 -->
<g id="edge13" class="edge">
<title>Node6&#45;&gt;Node13</title>
<path fill="none" stroke="midnightblue" d="M1942.08,-437.74C1948.74,-420.44 1961.08,-394.95 1980,-380 2023.69,-345.48 2057.28,-379.71 2100,-344 2166.56,-288.35 2174.13,-170.21 2174.92,-137.22"/>
<polygon fill="midnightblue" stroke="midnightblue" points="1938.73,-436.69 1938.65,-447.28 1945.32,-439.05 1938.73,-436.69"/>
</g>
<!-- Node17 -->
<g id="node17" class="node">
<title>Node17</title>
<g id="a_node17"><a xlink:href="modelrunner_8h.html" target="_top" xlink:title=" ">
<polygon fill="none" stroke="black" points="2040,-386 2040,-405 2182,-405 2182,-386 2040,-386"/>
<text text-anchor="middle" x="2111" y="-393" font-family="Helvetica,sans-Serif" font-size="10.00">HealthGPS/modelrunner.h</text>
</a>
</g>
</g>
<!-- Node6&#45;&gt;Node17 -->
<g id="edge19" class="edge">
<title>Node6&#45;&gt;Node17</title>
<path fill="none" stroke="midnightblue" d="M1970.61,-444.23C2004.63,-432.67 2055.72,-415.3 2085.97,-405.01"/>
<polygon fill="midnightblue" stroke="midnightblue" points="1969.41,-440.94 1961.07,-447.48 1971.67,-447.57 1969.41,-440.94"/>
</g>
<!-- Node19 -->
<g id="node19" class="node">
<title>Node19</title>
<g id="a_node19"><a xlink:href="runtime__context_8h.html" target="_top" xlink:title=" ">
<polygon fill="none" stroke="black" points="1279.5,-386 1279.5,-405 1440.5,-405 1440.5,-386 1279.5,-386"/>
<text text-anchor="middle" x="1360" y="-393" font-family="Helvetica,sans-Serif" font-size="10.00">HealthGPS/runtime_context.h</text>
</a>
</g>
</g>
<!-- Node6&#45;&gt;Node19 -->
<g id="edge22" class="edge">
<title>Node6&#45;&gt;Node19</title>
<path fill="none" stroke="midnightblue" d="M1843.25,-446.42C1731.7,-434.9 1546.3,-415.75 1440.52,-404.82"/>
<polygon fill="midnightblue" stroke="midnightblue" points="1843.17,-449.93 1853.47,-447.48 1843.89,-442.97 1843.17,-449.93"/>
</g>
<!-- Node39 -->
<g id="node39" class="node">
<title>Node39</title>
<g id="a_node39"><a xlink:href="event__monitor_8h.html" target="_top" xlink:title=" ">
<polygon fill="none" stroke="black" points="2200.5,-313.5 2200.5,-343.5 2341.5,-343.5 2341.5,-313.5 2200.5,-313.5"/>
<text text-anchor="start" x="2208.5" y="-331.5" font-family="Helvetica,sans-Serif" font-size="10.00">HealthGPS.Console/event</text>
<text text-anchor="middle" x="2271" y="-320.5" font-family="Helvetica,sans-Serif" font-size="10.00">_monitor.h</text>
</a>
</g>
</g>
<!-- Node6&#45;&gt;Node39 -->
<g id="edge48" class="edge">
<title>Node6&#45;&gt;Node39</title>
<path fill="none" stroke="midnightblue" d="M1951.05,-440.13C1968.58,-422.65 1999.2,-395.01 2031,-380 2046.31,-372.77 2135.18,-355.04 2200.33,-342.64"/>
<polygon fill="midnightblue" stroke="midnightblue" points="1948.46,-437.78 1943.97,-447.37 1953.46,-442.67 1948.46,-437.78"/>
</g>
<!-- Node8 -->
<g id="node8" class="node">
<title>Node8</title>
<g id="a_node8"><a xlink:href="program_8cpp.html" target="_top" xlink:title=" ">
<polygon fill="none" stroke="black" points="2046.5,-0.5 2046.5,-19.5 2221.5,-19.5 2221.5,-0.5 2046.5,-0.5"/>
<text text-anchor="middle" x="2134" y="-7.5" font-family="Helvetica,sans-Serif" font-size="10.00">HealthGPS.Console/program.cpp</text>
</a>
</g>
</g>
<!-- Node7&#45;&gt;Node8 -->
<g id="edge7" class="edge">
<title>Node7&#45;&gt;Node8</title>
<path fill="none" stroke="midnightblue" d="M2098.38,-48.72C2107.37,-39.2 2118.36,-27.56 2125.74,-19.75"/>
<polygon fill="midnightblue" stroke="midnightblue" points="2095.74,-46.41 2091.42,-56.08 2100.83,-51.22 2095.74,-46.41"/>
</g>
<!-- Node10 -->
<g id="node10" class="node">
<title>Node10</title>
<g id="a_node10"><a xlink:href="event__bus_8h.html" target="_top" xlink:title=" ">
<polygon fill="none" stroke="black" points="5.5,-319 5.5,-338 136.5,-338 136.5,-319 5.5,-319"/>
<text text-anchor="middle" x="71" y="-326" font-family="Helvetica,sans-Serif" font-size="10.00">HealthGPS/event_bus.h</text>
</a>
</g>
</g>
<!-- Node9&#45;&gt;Node10 -->
<g id="edge9" class="edge">
<title>Node9&#45;&gt;Node10</title>
<path fill="none" stroke="midnightblue" d="M209.83,-382.27C175.89,-369.37 123.29,-349.38 93.53,-338.06"/>
<polygon fill="midnightblue" stroke="midnightblue" points="208.7,-385.59 219.29,-385.87 211.19,-379.04 208.7,-385.59"/>
</g>
<!-- Node12 -->
<g id="node12" class="node">
<title>Node12</title>
<g id="a_node12"><a xlink:href="event__subscriber_8cpp.html" target="_top" xlink:title=" ">
<polygon fill="none" stroke="black" points="155,-319 155,-338 329,-338 329,-319 155,-319"/>
<text text-anchor="middle" x="242" y="-326" font-family="Helvetica,sans-Serif" font-size="10.00">HealthGPS/event_subscriber.cpp</text>
</a>
</g>
</g>
<!-- Node9&#45;&gt;Node12 -->
<g id="edge12" class="edge">
<title>Node9&#45;&gt;Node12</title>
<path fill="none" stroke="midnightblue" d="M242,-375.54C242,-363.17 242,-347.62 242,-338.13"/>
<polygon fill="midnightblue" stroke="midnightblue" points="238.5,-375.73 242,-385.73 245.5,-375.73 238.5,-375.73"/>
</g>
<!-- Node10&#45;&gt;Node8 -->
<g id="edge11" class="edge">
<title>Node10&#45;&gt;Node8</title>
<path fill="none" stroke="midnightblue" d="M112.96,-315.75C164.16,-298.55 244,-261.2 244,-195.5 244,-195.5 244,-195.5 244,-126.5 244,-34.99 1674.12,-15.29 2046.32,-11.71"/>
<polygon fill="midnightblue" stroke="midnightblue" points="111.57,-312.52 103.13,-318.93 113.73,-319.18 111.57,-312.52"/>
</g>
<!-- Node11 -->
<g id="node11" class="node">
<title>Node11</title>
<g id="a_node11"><a xlink:href="event__bus_8cpp.html" target="_top" xlink:title=" ">
<polygon fill="none" stroke="black" points="0,-252 0,-271 142,-271 142,-252 0,-252"/>
<text text-anchor="middle" x="71" y="-259" font-family="Helvetica,sans-Serif" font-size="10.00">HealthGPS/event_bus.cpp</text>
</a>
</g>
</g>
<!-- Node10&#45;&gt;Node11 -->
<g id="edge10" class="edge">
<title>Node10&#45;&gt;Node11</title>
<path fill="none" stroke="midnightblue" d="M71,-308.54C71,-296.17 71,-280.62 71,-271.13"/>
<polygon fill="midnightblue" stroke="midnightblue" points="67.5,-308.73 71,-318.73 74.5,-308.73 67.5,-308.73"/>
</g>
<!-- Node13&#45;&gt;Node7 -->
<g id="edge14" class="edge">
<title>Node13&#45;&gt;Node7</title>
<path fill="none" stroke="midnightblue" d="M2153.24,-112.43C2135.51,-100.96 2111.04,-85.13 2096.16,-75.51"/>
<polygon fill="midnightblue" stroke="midnightblue" points="2151.52,-115.48 2161.82,-117.98 2155.32,-109.61 2151.52,-115.48"/>
</g>
<!-- Node14 -->
<g id="node14" class="node">
<title>Node14</title>
<g id="a_node14"><a xlink:href="healthgps_8cpp.html" target="_top" xlink:title=" ">
<polygon fill="none" stroke="black" points="2733,-56.5 2733,-75.5 2873,-75.5 2873,-56.5 2733,-56.5"/>
<text text-anchor="middle" x="2803" y="-63.5" font-family="Helvetica,sans-Serif" font-size="10.00">HealthGPS/healthgps.cpp</text>
</a>
</g>
</g>
<!-- Node13&#45;&gt;Node14 -->
<g id="edge15" class="edge">
<title>Node13&#45;&gt;Node14</title>
<path fill="none" stroke="midnightblue" d="M2249.27,-119.46C2371.42,-107.89 2613.07,-84.99 2732.63,-73.67"/>
<polygon fill="midnightblue" stroke="midnightblue" points="2248.88,-115.98 2239.26,-120.41 2249.54,-122.95 2248.88,-115.98"/>
</g>
<!-- Node15 -->
<g id="node15" class="node">
<title>Node15</title>
<g id="a_node15"><a xlink:href="configuration_8h.html" target="_top" xlink:title=" ">
<polygon fill="none" stroke="black" points="2295,-56.5 2295,-75.5 2481,-75.5 2481,-56.5 2295,-56.5"/>
<text text-anchor="middle" x="2388" y="-63.5" font-family="Helvetica,sans-Serif" font-size="10.00">HealthGPS.Console/configuration.h</text>
</a>
</g>
</g>
<!-- Node13&#45;&gt;Node15 -->
<g id="edge16" class="edge">
<title>Node13&#45;&gt;Node15</title>
<path fill="none" stroke="midnightblue" d="M2215.28,-115.25C2256.66,-103.69 2320.16,-85.95 2357.54,-75.51"/>
<polygon fill="midnightblue" stroke="midnightblue" points="2214.21,-111.91 2205.52,-117.98 2216.09,-118.66 2214.21,-111.91"/>
</g>
<!-- Node15&#45;&gt;Node8 -->
<g id="edge18" class="edge">
<title>Node15&#45;&gt;Node8</title>
<path fill="none" stroke="midnightblue" d="M2337.88,-54.35C2289.88,-44.14 2218.38,-28.94 2174.06,-19.52"/>
<polygon fill="midnightblue" stroke="midnightblue" points="2337.24,-57.79 2347.75,-56.44 2338.7,-50.94 2337.24,-57.79"/>
</g>
<!-- Node16 -->
<g id="node16" class="node">
<title>Node16</title>
<g id="a_node16"><a xlink:href="configuration_8cpp.html" target="_top" xlink:title=" ">
<polygon fill="none" stroke="black" points="2289.5,-0.5 2289.5,-19.5 2486.5,-19.5 2486.5,-0.5 2289.5,-0.5"/>
<text text-anchor="middle" x="2388" y="-7.5" font-family="Helvetica,sans-Serif" font-size="10.00">HealthGPS.Console/configuration.cpp</text>
</a>
</g>
</g>
<!-- Node15&#45;&gt;Node16 -->
<g id="edge17" class="edge">
<title>Node15&#45;&gt;Node16</title>
<path fill="none" stroke="midnightblue" d="M2388,-45.8C2388,-36.91 2388,-26.78 2388,-19.75"/>
<polygon fill="midnightblue" stroke="midnightblue" points="2384.5,-46.08 2388,-56.08 2391.5,-46.08 2384.5,-46.08"/>
</g>
<!-- Node17&#45;&gt;Node7 -->
<g id="edge20" class="edge">
<title>Node17&#45;&gt;Node7</title>
<path fill="none" stroke="midnightblue" d="M2109.37,-375.49C2104.08,-313.55 2087.45,-119.02 2083.74,-75.63"/>
<polygon fill="midnightblue" stroke="midnightblue" points="2105.91,-376.07 2110.25,-385.74 2112.89,-375.48 2105.91,-376.07"/>
</g>
<!-- Node18 -->
<g id="node18" class="node">
<title>Node18</title>
<g id="a_node18"><a xlink:href="modelrunner_8cpp.html" target="_top" xlink:title=" ">
<polygon fill="none" stroke="black" points="2666.5,-319 2666.5,-338 2819.5,-338 2819.5,-319 2666.5,-319"/>
<text text-anchor="middle" x="2743" y="-326" font-family="Helvetica,sans-Serif" font-size="10.00">HealthGPS/modelrunner.cpp</text>
</a>
</g>
</g>
<!-- Node17&#45;&gt;Node18 -->
<g id="edge21" class="edge">
<title>Node17&#45;&gt;Node18</title>
<path fill="none" stroke="midnightblue" d="M2164.71,-384.22C2173.8,-382.67 2183.15,-381.19 2192,-380 2360.5,-357.24 2559.4,-341.81 2666.11,-334.46"/>
<polygon fill="midnightblue" stroke="midnightblue" points="2163.86,-380.81 2154.61,-385.99 2165.06,-387.71 2163.86,-380.81"/>
</g>
<!-- Node19&#45;&gt;Node13 -->
<g id="edge39" class="edge">
<title>Node19&#45;&gt;Node13</title>
<path fill="none" stroke="midnightblue" d="M1450.62,-393.24C1632.01,-389.99 2026.71,-378.94 2077,-344 2095.9,-330.87 2156.76,-175.72 2171.68,-137.14"/>
<polygon fill="midnightblue" stroke="midnightblue" points="1450.5,-389.74 1440.56,-393.42 1450.62,-396.74 1450.5,-389.74"/>
</g>
<!-- Node20 -->
<g id="node20" class="node">
<title>Node20</title>
<g id="a_node20"><a xlink:href="analysis__module_8h.html" target="_top" xlink:title=" ">
<polygon fill="none" stroke="black" points="1956,-313.5 1956,-343.5 2068,-343.5 2068,-313.5 1956,-313.5"/>
<text text-anchor="start" x="1964" y="-331.5" font-family="Helvetica,sans-Serif" font-size="10.00">HealthGPS/analysis</text>
<text text-anchor="middle" x="2012" y="-320.5" font-family="Helvetica,sans-Serif" font-size="10.00">_module.h</text>
</a>
</g>
</g>
<!-- Node19&#45;&gt;Node20 -->
<g id="edge23" class="edge">
<title>Node19&#45;&gt;Node20</title>
<path fill="none" stroke="midnightblue" d="M1450.87,-390.45C1566.61,-384.44 1772.57,-370.84 1947,-344 1949.86,-343.56 1952.78,-343.07 1955.72,-342.54"/>
<polygon fill="midnightblue" stroke="midnightblue" points="1450.44,-386.97 1440.64,-390.98 1450.8,-393.96 1450.44,-386.97"/>
</g>
<!-- Node24 -->
<g id="node24" class="node">
<title>Node24</title>
<g id="a_node24"><a xlink:href="default__cancer__model_8cpp.html" target="_top" xlink:title=" ">
<polygon fill="none" stroke="black" points="820.5,-313.5 820.5,-343.5 963.5,-343.5 963.5,-313.5 820.5,-313.5"/>
<text text-anchor="start" x="828.5" y="-331.5" font-family="Helvetica,sans-Serif" font-size="10.00">HealthGPS/default_cancer</text>
<text text-anchor="middle" x="892" y="-320.5" font-family="Helvetica,sans-Serif" font-size="10.00">_model.cpp</text>
</a>
</g>
</g>
<!-- Node19&#45;&gt;Node24 -->
<g id="edge29" class="edge">
<title>Node19&#45;&gt;Node24</title>
<path fill="none" stroke="midnightblue" d="M1275.48,-384.73C1196.76,-375.34 1076.23,-360.22 972,-344 969.35,-343.59 966.65,-343.16 963.93,-342.71"/>
<polygon fill="midnightblue" stroke="midnightblue" points="1275.48,-388.26 1285.82,-385.96 1276.31,-381.3 1275.48,-388.26"/>
</g>
<!-- Node25 -->
<g id="node25" class="node">
<title>Node25</title>
<g id="a_node25"><a xlink:href="default__disease__model_8cpp.html" target="_top" xlink:title=" ">
<polygon fill="none" stroke="black" points="981.5,-313.5 981.5,-343.5 1130.5,-343.5 1130.5,-313.5 981.5,-313.5"/>
<text text-anchor="start" x="989.5" y="-331.5" font-family="Helvetica,sans-Serif" font-size="10.00">HealthGPS/default_disease</text>
<text text-anchor="middle" x="1056" y="-320.5" font-family="Helvetica,sans-Serif" font-size="10.00">_model.cpp</text>
</a>
</g>
</g>
<!-- Node19&#45;&gt;Node25 -->
<g id="edge30" class="edge">
<title>Node19&#45;&gt;Node25</title>
<path fill="none" stroke="midnightblue" d="M1310.07,-383.82C1258.66,-372.83 1178.3,-355.65 1121.75,-343.56"/>
<polygon fill="midnightblue" stroke="midnightblue" points="1309.43,-387.27 1319.94,-385.94 1310.9,-380.42 1309.43,-387.27"/>
</g>
<!-- Node26 -->
<g id="node26" class="node">
<title>Node26</title>
<g id="a_node26"><a xlink:href="demographic_8h.html" target="_top" xlink:title=" ">
<polygon fill="none" stroke="black" points="347,-319 347,-338 491,-338 491,-319 347,-319"/>
<text text-anchor="middle" x="419" y="-326" font-family="Helvetica,sans-Serif" font-size="10.00">HealthGPS/demographic.h</text>
</a>
</g>
</g>
<!-- Node19&#45;&gt;Node26 -->
<g id="edge31" class="edge">
<title>Node19&#45;&gt;Node26</title>
<path fill="none" stroke="midnightblue" d="M1269.3,-392.7C1112.13,-388.8 779.22,-377.07 500,-344 487.37,-342.5 473.74,-340.3 461.32,-338.05"/>
<polygon fill="midnightblue" stroke="midnightblue" points="1269.31,-396.21 1279.39,-392.95 1269.48,-389.21 1269.31,-396.21"/>
</g>
<!-- Node28 -->
<g id="node28" class="node">
<title>Node28</title>
<g id="a_node28"><a xlink:href="HealthGPS_2disease_8h.html" target="_top" xlink:title=" ">
<polygon fill="none" stroke="black" points="509,-319 509,-338 627,-338 627,-319 509,-319"/>
<text text-anchor="middle" x="568" y="-326" font-family="Helvetica,sans-Serif" font-size="10.00">HealthGPS/disease.h</text>
</a>
</g>
</g>
<!-- Node19&#45;&gt;Node28 -->
<g id="edge34" class="edge">
<title>Node19&#45;&gt;Node28</title>
<path fill="none" stroke="midnightblue" d="M1269.3,-389.63C1137.85,-382.17 886.83,-366.37 674,-344 658.21,-342.34 641.14,-340.17 625.41,-338.02"/>
<polygon fill="midnightblue" stroke="midnightblue" points="1269.15,-393.13 1279.33,-390.2 1269.54,-386.14 1269.15,-393.13"/>
</g>
<!-- Node30 -->
<g id="node30" class="node">
<title>Node30</title>
<g id="a_node30"><a xlink:href="energy__balance__hierarchical__model_8cpp.html" target="_top" xlink:title=" ">
<polygon fill="none" stroke="black" points="1285.5,-313.5 1285.5,-343.5 1434.5,-343.5 1434.5,-313.5 1285.5,-313.5"/>
<text text-anchor="start" x="1293.5" y="-331.5" font-family="Helvetica,sans-Serif" font-size="10.00">HealthGPS/energy_balance</text>
<text text-anchor="middle" x="1360" y="-320.5" font-family="Helvetica,sans-Serif" font-size="10.00">_hierarchical_model.cpp</text>
</a>
</g>
</g>
<!-- Node19&#45;&gt;Node30 -->
<g id="edge37" class="edge">
<title>Node19&#45;&gt;Node30</title>
<path fill="none" stroke="midnightblue" d="M1360,-375.41C1360,-365.22 1360,-352.9 1360,-343.59"/>
<polygon fill="midnightblue" stroke="midnightblue" points="1356.5,-375.73 1360,-385.73 1363.5,-375.73 1356.5,-375.73"/>
</g>
<!-- Node31 -->
<g id="node31" class="node">
<title>Node31</title>
<g id="a_node31"><a xlink:href="energy__balance__model_8cpp.html" target="_top" xlink:title=" ">
<polygon fill="none" stroke="black" points="1452.5,-313.5 1452.5,-343.5 1601.5,-343.5 1601.5,-313.5 1452.5,-313.5"/>
<text text-anchor="start" x="1460.5" y="-331.5" font-family="Helvetica,sans-Serif" font-size="10.00">HealthGPS/energy_balance</text>
<text text-anchor="middle" x="1527" y="-320.5" font-family="Helvetica,sans-Serif" font-size="10.00">_model.cpp</text>
</a>
</g>
</g>
<!-- Node19&#45;&gt;Node31 -->
<g id="edge38" class="edge">
<title>Node19&#45;&gt;Node31</title>
<path fill="none" stroke="midnightblue" d="M1391.6,-382.2C1419.89,-371.19 1461.38,-355.04 1490.96,-343.53"/>
<polygon fill="midnightblue" stroke="midnightblue" points="1390.23,-378.98 1382.18,-385.87 1392.76,-385.5 1390.23,-378.98"/>
</g>
<!-- Node32 -->
<g id="node32" class="node">
<title>Node32</title>
<g id="a_node32"><a xlink:href="hierarchical__model__static_8cpp.html" target="_top" xlink:title=" ">
<polygon fill="none" stroke="black" points="1620,-313.5 1620,-343.5 1748,-343.5 1748,-313.5 1620,-313.5"/>
<text text-anchor="start" x="1628" y="-331.5" font-family="Helvetica,sans-Serif" font-size="10.00">HealthGPS/hierarchical</text>
<text text-anchor="middle" x="1684" y="-320.5" font-family="Helvetica,sans-Serif" font-size="10.00">_model_static.cpp</text>
</a>
</g>
</g>
<!-- Node19&#45;&gt;Node32 -->
<g id="edge40" class="edge">
<title>Node19&#45;&gt;Node32</title>
<path fill="none" stroke="midnightblue" d="M1412.51,-383.97C1469.12,-372.61 1559.27,-354.52 1619.99,-342.34"/>
<polygon fill="midnightblue" stroke="midnightblue" points="1411.81,-380.54 1402.69,-385.94 1413.18,-387.4 1411.81,-380.54"/>
</g>
<!-- Node33 -->
<g id="node33" class="node">
<title>Node33</title>
<g id="a_node33"><a xlink:href="riskfactor__adjustment_8h.html" target="_top" xlink:title=" ">
<polygon fill="none" stroke="black" points="1149,-313.5 1149,-343.5 1267,-343.5 1267,-313.5 1149,-313.5"/>
<text text-anchor="start" x="1157" y="-331.5" font-family="Helvetica,sans-Serif" font-size="10.00">HealthGPS/riskfactor</text>
<text text-anchor="middle" x="1208" y="-320.5" font-family="Helvetica,sans-Serif" font-size="10.00">_adjustment.h</text>
</a>
</g>
</g>
<!-- Node19&#45;&gt;Node33 -->
<g id="edge41" class="edge">
<title>Node19&#45;&gt;Node33</title>
<path fill="none" stroke="midnightblue" d="M1330.57,-381.91C1304.83,-370.91 1267.49,-354.94 1240.8,-343.53"/>
<polygon fill="midnightblue" stroke="midnightblue" points="1329.24,-385.15 1339.82,-385.87 1332,-378.72 1329.24,-385.15"/>
</g>
<!-- Node37 -->
<g id="node37" class="node">
<title>Node37</title>
<g id="a_node37"><a xlink:href="runtime__context_8cpp.html" target="_top" xlink:title=" ">
<polygon fill="none" stroke="black" points="1766,-319 1766,-338 1938,-338 1938,-319 1766,-319"/>
<text text-anchor="middle" x="1852" y="-326" font-family="Helvetica,sans-Serif" font-size="10.00">HealthGPS/runtime_context.cpp</text>
</a>
</g>
</g>
<!-- Node19&#45;&gt;Node37 -->
<g id="edge46" class="edge">
<title>Node19&#45;&gt;Node37</title>
<path fill="none" stroke="midnightblue" d="M1441.48,-384.74C1521.79,-374.97 1647.96,-359.25 1757,-344 1770.22,-342.15 1784.45,-340.04 1797.78,-338.01"/>
<polygon fill="midnightblue" stroke="midnightblue" points="1440.93,-381.28 1431.43,-385.96 1441.78,-388.23 1440.93,-381.28"/>
</g>
<!-- Node38 -->
<g id="node38" class="node">
<title>Node38</title>
<g id="a_node38"><a xlink:href="ses__noise__module_8cpp.html" target="_top" xlink:title=" ">
<polygon fill="none" stroke="black" points="683.5,-313.5 683.5,-343.5 802.5,-343.5 802.5,-313.5 683.5,-313.5"/>
<text text-anchor="start" x="691.5" y="-331.5" font-family="Helvetica,sans-Serif" font-size="10.00">HealthGPS/ses_noise</text>
<text text-anchor="middle" x="743" y="-320.5" font-family="Helvetica,sans-Serif" font-size="10.00">_module.cpp</text>
</a>
</g>
</g>
<!-- Node19&#45;&gt;Node38 -->
<g id="edge47" class="edge">
<title>Node19&#45;&gt;Node38</title>
<path fill="none" stroke="midnightblue" d="M1269.18,-389.45C1159.98,-382.61 971.35,-368.38 811,-344 808.26,-343.58 805.45,-343.12 802.63,-342.63"/>
<polygon fill="midnightblue" stroke="midnightblue" points="1268.97,-392.94 1279.17,-390.07 1269.41,-385.96 1268.97,-392.94"/>
</g>
<!-- Node21 -->
<g id="node21" class="node">
<title>Node21</title>
<g id="a_node21"><a xlink:href="analysis__module_8cpp.html" target="_top" xlink:title=" ">
<polygon fill="none" stroke="black" points="1956,-246.5 1956,-276.5 2068,-276.5 2068,-246.5 1956,-246.5"/>
<text text-anchor="start" x="1964" y="-264.5" font-family="Helvetica,sans-Serif" font-size="10.00">HealthGPS/analysis</text>
<text text-anchor="middle" x="2012" y="-253.5" font-family="Helvetica,sans-Serif" font-size="10.00">_module.cpp</text>
</a>
</g>
</g>
<!-- Node20&#45;&gt;Node21 -->
<g id="edge24" class="edge">
<title>Node20&#45;&gt;Node21</title>
<path fill="none" stroke="midnightblue" d="M2012,-303.11C2012,-294.15 2012,-284.32 2012,-276.58"/>
<polygon fill="midnightblue" stroke="midnightblue" points="2008.5,-303.4 2012,-313.4 2015.5,-303.4 2008.5,-303.4"/>
</g>
<!-- Node22 -->
<g id="node22" class="node">
<title>Node22</title>
<g id="a_node22"><a xlink:href="simulation__module_8h.html" target="_top" xlink:title=" ">
<polygon fill="none" stroke="black" points="602.5,-179.5 602.5,-209.5 725.5,-209.5 725.5,-179.5 602.5,-179.5"/>
<text text-anchor="start" x="610.5" y="-197.5" font-family="Helvetica,sans-Serif" font-size="10.00">HealthGPS/simulation</text>
<text text-anchor="middle" x="664" y="-186.5" font-family="Helvetica,sans-Serif" font-size="10.00">_module.h</text>
</a>
</g>
</g>
<!-- Node20&#45;&gt;Node22 -->
<g id="edge25" class="edge">
<title>Node20&#45;&gt;Node22</title>
<path fill="none" stroke="midnightblue" d="M1945.6,-312.91C1686.79,-272.83 944.85,-216.28 725.65,-200.02"/>
<polygon fill="midnightblue" stroke="midnightblue" points="1945.29,-316.41 1955.71,-314.51 1946.38,-309.49 1945.29,-316.41"/>
</g>
<!-- Node22&#45;&gt;Node7 -->
<g id="edge26" class="edge">
<title>Node22&#45;&gt;Node7</title>
<path fill="none" stroke="midnightblue" d="M628.21,-174.01C601.66,-157.16 573.22,-132.39 593,-112 618.71,-85.5 1783.05,-70.48 2035.18,-67.54"/>
<polygon fill="midnightblue" stroke="midnightblue" points="626.71,-177.19 637.07,-179.4 630.35,-171.21 626.71,-177.19"/>
</g>
<!-- Node22&#45;&gt;Node13 -->
<g id="edge27" class="edge">
<title>Node22&#45;&gt;Node13</title>
<path fill="none" stroke="midnightblue" d="M735.9,-188.19C778.14,-185.2 832.58,-181.56 881,-179 1352.75,-154.04 1921.86,-136.03 2110.68,-130.38"/>
<polygon fill="midnightblue" stroke="midnightblue" points="735.43,-184.72 725.71,-188.92 735.93,-191.7 735.43,-184.72"/>
</g>
<!-- Node23 -->
<g id="node23" class="node">
<title>Node23</title>
<g id="a_node23"><a xlink:href="simulation__module_8cpp.html" target="_top" xlink:title=" ">
<polygon fill="none" stroke="black" points="602.5,-112.5 602.5,-142.5 725.5,-142.5 725.5,-112.5 602.5,-112.5"/>
<text text-anchor="start" x="610.5" y="-130.5" font-family="Helvetica,sans-Serif" font-size="10.00">HealthGPS/simulation</text>
<text text-anchor="middle" x="664" y="-119.5" font-family="Helvetica,sans-Serif" font-size="10.00">_module.cpp</text>
</a>
</g>
</g>
<!-- Node22&#45;&gt;Node23 -->
<g id="edge28" class="edge">
<title>Node22&#45;&gt;Node23</title>
<path fill="none" stroke="midnightblue" d="M664,-169.11C664,-160.15 664,-150.32 664,-142.58"/>
<polygon fill="midnightblue" stroke="midnightblue" points="660.5,-169.4 664,-179.4 667.5,-169.4 660.5,-169.4"/>
</g>
<!-- Node26&#45;&gt;Node22 -->
<g id="edge33" class="edge">
<title>Node26&#45;&gt;Node22</title>
<path fill="none" stroke="midnightblue" d="M400.52,-312.29C381.75,-295.02 357.71,-266.57 375,-246 403.47,-212.13 526.42,-200.97 602.49,-197.3"/>
<polygon fill="midnightblue" stroke="midnightblue" points="398.29,-314.98 408.11,-318.95 402.9,-309.72 398.29,-314.98"/>
</g>
<!-- Node27 -->
<g id="node27" class="node">
<title>Node27</title>
<g id="a_node27"><a xlink:href="demographic_8cpp.html" target="_top" xlink:title=" ">
<polygon fill="none" stroke="black" points="384.5,-252 384.5,-271 539.5,-271 539.5,-252 384.5,-252"/>
<text text-anchor="middle" x="462" y="-259" font-family="Helvetica,sans-Serif" font-size="10.00">HealthGPS/demographic.cpp</text>
</a>
</g>
</g>
<!-- Node26&#45;&gt;Node27 -->
<g id="edge32" class="edge">
<title>Node26&#45;&gt;Node27</title>
<path fill="none" stroke="midnightblue" d="M430.55,-310.03C438.88,-297.45 449.76,-281.01 456.29,-271.13"/>
<polygon fill="midnightblue" stroke="midnightblue" points="427.4,-308.46 424.8,-318.73 433.24,-312.32 427.4,-308.46"/>
</g>
<!-- Node28&#45;&gt;Node22 -->
<g id="edge36" class="edge">
<title>Node28&#45;&gt;Node22</title>
<path fill="none" stroke="midnightblue" d="M568.47,-308.64C569.77,-291.01 573.97,-264.66 587,-246 598.08,-230.14 615.88,-217.99 631.59,-209.59"/>
<polygon fill="midnightblue" stroke="midnightblue" points="564.97,-308.65 567.98,-318.81 571.96,-308.99 564.97,-308.65"/>
</g>
<!-- Node29 -->
<g id="node29" class="node">
<title>Node29</title>
<g id="a_node29"><a xlink:href="disease_8cpp.html" target="_top" xlink:title=" ">
<polygon fill="none" stroke="black" points="596.5,-252 596.5,-271 725.5,-271 725.5,-252 596.5,-252"/>
<text text-anchor="middle" x="661" y="-259" font-family="Helvetica,sans-Serif" font-size="10.00">HealthGPS/disease.cpp</text>
</a>
</g>
</g>
<!-- Node28&#45;&gt;Node29 -->
<g id="edge35" class="edge">
<title>Node28&#45;&gt;Node29</title>
<path fill="none" stroke="midnightblue" d="M588.86,-312.92C607.25,-300.07 633.41,-281.78 648.66,-271.13"/>
<polygon fill="midnightblue" stroke="midnightblue" points="586.73,-310.14 580.54,-318.73 590.74,-315.87 586.73,-310.14"/>
</g>
<!-- Node34 -->
<g id="node34" class="node">
<title>Node34</title>
<g id="a_node34"><a xlink:href="riskfactor_8h.html" target="_top" xlink:title=" ">
<polygon fill="none" stroke="black" points="896,-252 896,-271 1022,-271 1022,-252 896,-252"/>
<text text-anchor="middle" x="959" y="-259" font-family="Helvetica,sans-Serif" font-size="10.00">HealthGPS/riskfactor.h</text>
</a>
</g>
</g>
<!-- Node33&#45;&gt;Node34 -->
<g id="edge42" class="edge">
<title>Node33&#45;&gt;Node34</title>
<path fill="none" stroke="midnightblue" d="M1144.45,-310.91C1095.68,-298.18 1030.36,-281.13 991.67,-271.03"/>
<polygon fill="midnightblue" stroke="midnightblue" points="1143.72,-314.34 1154.28,-313.48 1145.49,-307.56 1143.72,-314.34"/>
</g>
<!-- Node36 -->
<g id="node36" class="node">
<title>Node36</title>
<g id="a_node36"><a xlink:href="riskfactor__adjustment_8cpp.html" target="_top" xlink:title=" ">
<polygon fill="none" stroke="black" points="1149,-246.5 1149,-276.5 1267,-276.5 1267,-246.5 1149,-246.5"/>
<text text-anchor="start" x="1157" y="-264.5" font-family="Helvetica,sans-Serif" font-size="10.00">HealthGPS/riskfactor</text>
<text text-anchor="middle" x="1208" y="-253.5" font-family="Helvetica,sans-Serif" font-size="10.00">_adjustment.cpp</text>
</a>
</g>
</g>
<!-- Node33&#45;&gt;Node36 -->
<g id="edge45" class="edge">
<title>Node33&#45;&gt;Node36</title>
<path fill="none" stroke="midnightblue" d="M1208,-303.11C1208,-294.15 1208,-284.32 1208,-276.58"/>
<polygon fill="midnightblue" stroke="midnightblue" points="1204.5,-303.4 1208,-313.4 1211.5,-303.4 1204.5,-303.4"/>
</g>
<!-- Node34&#45;&gt;Node22 -->
<g id="edge44" class="edge">
<title>Node34&#45;&gt;Node22</title>
<path fill="none" stroke="midnightblue" d="M910.1,-249.73C859.52,-238.58 780.39,-221.15 725.58,-209.07"/>
<polygon fill="midnightblue" stroke="midnightblue" points="909.61,-253.2 920.13,-251.94 911.12,-246.37 909.61,-253.2"/>
</g>
<!-- Node35 -->
<g id="node35" class="node">
<title>Node35</title>
<g id="a_node35"><a xlink:href="riskfactor_8cpp.html" target="_top" xlink:title=" ">
<polygon fill="none" stroke="black" points="890.5,-185 890.5,-204 1027.5,-204 1027.5,-185 890.5,-185"/>
<text text-anchor="middle" x="959" y="-192" font-family="Helvetica,sans-Serif" font-size="10.00">HealthGPS/riskfactor.cpp</text>
</a>
</g>
</g>
<!-- Node34&#45;&gt;Node35 -->
<g id="edge43" class="edge">
<title>Node34&#45;&gt;Node35</title>
<path fill="none" stroke="midnightblue" d="M959,-241.54C959,-229.17 959,-213.62 959,-204.13"/>
<polygon fill="midnightblue" stroke="midnightblue" points="955.5,-241.73 959,-251.73 962.5,-241.73 955.5,-241.73"/>
</g>
<!-- Node39&#45;&gt;Node5 -->
<g id="edge49" class="edge">
<title>Node39&#45;&gt;Node5</title>
<path fill="none" stroke="midnightblue" d="M2351.7,-312.94C2471.25,-294.67 2598.2,-279.3 2675.2,-270.42"/>
<polygon fill="midnightblue" stroke="midnightblue" points="2350.99,-309.51 2341.64,-314.49 2352.05,-316.43 2350.99,-309.51"/>
</g>
<!-- Node39&#45;&gt;Node8 -->
<g id="edge50" class="edge">
<title>Node39&#45;&gt;Node8</title>
<path fill="none" stroke="midnightblue" d="M2269.81,-303C2268.63,-276.5 2267,-233.01 2267,-195.5 2267,-195.5 2267,-195.5 2267,-126.5 2267,-69.77 2197.17,-34.61 2158.7,-19.55"/>
<polygon fill="midnightblue" stroke="midnightblue" points="2266.33,-303.42 2270.28,-313.25 2273.32,-303.09 2266.33,-303.42"/>
</g>
<!-- Node40&#45;&gt;Node5 -->
<g id="edge54" class="edge">
<title>Node40&#45;&gt;Node5</title>
<path fill="none" stroke="midnightblue" d="M3083.72,-317.22C3075.43,-315.79 3067,-314.34 3059,-313 2975.81,-299.02 2880.06,-283.68 2816.59,-273.62"/>
<polygon fill="midnightblue" stroke="midnightblue" points="3083.29,-320.7 3093.74,-318.96 3084.49,-313.8 3083.29,-320.7"/>
</g>
<!-- Node40&#45;&gt;Node14 -->
<g id="edge52" class="edge">
<title>Node40&#45;&gt;Node14</title>
<path fill="none" stroke="midnightblue" d="M3115.35,-314.02C3097.26,-304.48 3073.06,-290.94 3053,-277 2952.46,-207.12 2843.6,-105.66 2812.04,-75.66"/>
<polygon fill="midnightblue" stroke="midnightblue" points="3114.22,-317.38 3124.71,-318.89 3117.45,-311.17 3114.22,-317.38"/>
</g>
<!-- Node41 -->
<g id="node41" class="node">
<title>Node41</title>
<g id="a_node41"><a xlink:href="info__message_8cpp.html" target="_top" xlink:title=" ">
<polygon fill="none" stroke="black" points="3062,-252 3062,-271 3222,-271 3222,-252 3062,-252"/>
<text text-anchor="middle" x="3142" y="-259" font-family="Helvetica,sans-Serif" font-size="10.00">HealthGPS/info_message.cpp</text>
</a>
</g>
</g>
<!-- Node40&#45;&gt;Node41 -->
<g id="edge53" class="edge">
<title>Node40&#45;&gt;Node41</title>
<path fill="none" stroke="midnightblue" d="M3142,-308.54C3142,-296.17 3142,-280.62 3142,-271.13"/>
<polygon fill="midnightblue" stroke="midnightblue" points="3138.5,-308.73 3142,-318.73 3145.5,-308.73 3138.5,-308.73"/>
</g>
<!-- Node42&#45;&gt;Node20 -->
<g id="edge56" class="edge">
<title>Node42&#45;&gt;Node20</title>
<path fill="none" stroke="midnightblue" d="M2267.71,-454.74C2183.31,-451.65 2064.72,-441.75 2031,-411 2012.22,-393.87 2010.23,-362.07 2010.86,-343.67"/>
<polygon fill="midnightblue" stroke="midnightblue" points="2267.71,-458.24 2277.83,-455.09 2267.95,-451.25 2267.71,-458.24"/>
</g>
<!-- Node43 -->
<g id="node43" class="node">
<title>Node43</title>
<g id="a_node43"><a xlink:href="result__message_8cpp.html" target="_top" xlink:title=" ">
<polygon fill="none" stroke="black" points="2359.5,-386 2359.5,-405 2528.5,-405 2528.5,-386 2359.5,-386"/>
<text text-anchor="middle" x="2444" y="-393" font-family="Helvetica,sans-Serif" font-size="10.00">HealthGPS/result_message.cpp</text>
</a>
</g>
</g>
<!-- Node42&#45;&gt;Node43 -->
<g id="edge57" class="edge">
<title>Node42&#45;&gt;Node43</title>
<path fill="none" stroke="midnightblue" d="M2378.04,-441.61C2394.77,-430.17 2417.61,-414.55 2431.56,-405.01"/>
<polygon fill="midnightblue" stroke="midnightblue" points="2375.74,-438.94 2369.46,-447.48 2379.7,-444.72 2375.74,-438.94"/>
</g>
<!-- Node44 -->
<g id="node44" class="node">
<title>Node44</title>
<g id="a_node44"><a xlink:href="result__writer_8h.html" target="_top" xlink:title=" ">
<polygon fill="none" stroke="black" points="2200.5,-380.5 2200.5,-410.5 2341.5,-410.5 2341.5,-380.5 2200.5,-380.5"/>
<text text-anchor="start" x="2208.5" y="-398.5" font-family="Helvetica,sans-Serif" font-size="10.00">HealthGPS.Console/result</text>
<text text-anchor="middle" x="2271" y="-387.5" font-family="Helvetica,sans-Serif" font-size="10.00">_writer.h</text>
</a>
</g>
</g>
<!-- Node42&#45;&gt;Node44 -->
<g id="edge58" class="edge">
<title>Node42&#45;&gt;Node44</title>
<path fill="none" stroke="midnightblue" d="M2336.39,-441.74C2322.72,-432.28 2304.87,-419.93 2291.27,-410.52"/>
<polygon fill="midnightblue" stroke="midnightblue" points="2334.46,-444.66 2344.68,-447.48 2338.45,-438.91 2334.46,-444.66"/>
</g>
<!-- Node44&#45;&gt;Node39 -->
<g id="edge59" class="edge">
<title>Node44&#45;&gt;Node39</title>
<path fill="none" stroke="midnightblue" d="M2271,-370.11C2271,-361.15 2271,-351.32 2271,-343.58"/>
<polygon fill="midnightblue" stroke="midnightblue" points="2267.5,-370.4 2271,-380.4 2274.5,-370.4 2267.5,-370.4"/>
</g>
<!-- Node45 -->
<g id="node45" class="node">
<title>Node45</title>
<g id="a_node45"><a xlink:href="result__file__writer_8h.html" target="_top" xlink:title=" ">
<polygon fill="none" stroke="black" points="2359.5,-313.5 2359.5,-343.5 2500.5,-343.5 2500.5,-313.5 2359.5,-313.5"/>
<text text-anchor="start" x="2367.5" y="-331.5" font-family="Helvetica,sans-Serif" font-size="10.00">HealthGPS.Console/result</text>
<text text-anchor="middle" x="2430" y="-320.5" font-family="Helvetica,sans-Serif" font-size="10.00">_file_writer.h</text>
</a>
</g>
</g>
<!-- Node44&#45;&gt;Node45 -->
<g id="edge60" class="edge">
<title>Node44&#45;&gt;Node45</title>
<path fill="none" stroke="midnightblue" d="M2314.92,-376.54C2340.37,-366.14 2371.93,-353.24 2395.57,-343.58"/>
<polygon fill="midnightblue" stroke="midnightblue" points="2313.43,-373.37 2305.5,-380.4 2316.08,-379.85 2313.43,-373.37"/>
</g>
<!-- Node45&#45;&gt;Node15 -->
<g id="edge61" class="edge">
<title>Node45&#45;&gt;Node15</title>
<path fill="none" stroke="midnightblue" d="M2418.02,-304.21C2414.21,-295.83 2410.37,-286.18 2408,-277 2388.3,-200.76 2387.58,-104.46 2387.86,-75.57"/>
<polygon fill="midnightblue" stroke="midnightblue" points="2414.92,-305.84 2422.39,-313.35 2421.23,-302.82 2414.92,-305.84"/>
</g>
<!-- Node46 -->
<g id="node46" class="node">
<title>Node46</title>
<g id="a_node46"><a xlink:href="result__file__writer_8cpp.html" target="_top" xlink:title=" ">
<polygon fill="none" stroke="black" points="2416.5,-246.5 2416.5,-276.5 2557.5,-276.5 2557.5,-246.5 2416.5,-246.5"/>
<text text-anchor="start" x="2424.5" y="-264.5" font-family="Helvetica,sans-Serif" font-size="10.00">HealthGPS.Console/result</text>
<text text-anchor="middle" x="2487" y="-253.5" font-family="Helvetica,sans-Serif" font-size="10.00">_file_writer.cpp</text>
</a>
</g>
</g>
<!-- Node45&#45;&gt;Node46 -->
<g id="edge62" class="edge">
<title>Node45&#45;&gt;Node46</title>
<path fill="none" stroke="midnightblue" d="M2449.09,-305.74C2457.52,-296.12 2467.19,-285.09 2474.66,-276.58"/>
<polygon fill="midnightblue" stroke="midnightblue" points="2446.33,-303.57 2442.37,-313.4 2451.59,-308.18 2446.33,-303.57"/>
</g>
<!-- Node47&#45;&gt;Node5 -->
<g id="edge66" class="edge">
<title>Node47&#45;&gt;Node5</title>
<path fill="none" stroke="midnightblue" d="M2847.67,-375.54C2846.47,-357.84 2842.35,-331.44 2829,-313 2817.33,-296.88 2798.78,-284.89 2782.18,-276.65"/>
<polygon fill="midnightblue" stroke="midnightblue" points="2844.18,-375.91 2848.09,-385.75 2851.17,-375.62 2844.18,-375.91"/>
</g>
<!-- Node47&#45;&gt;Node18 -->
<g id="edge64" class="edge">
<title>Node47&#45;&gt;Node18</title>
<path fill="none" stroke="midnightblue" d="M2825.29,-380.44C2804.5,-367.57 2774.38,-348.93 2756.94,-338.13"/>
<polygon fill="midnightblue" stroke="midnightblue" points="2823.49,-383.45 2833.84,-385.73 2827.18,-377.49 2823.49,-383.45"/>
</g>
<!-- Node48 -->
<g id="node48" class="node">
<title>Node48</title>
<g id="a_node48"><a xlink:href="runner__message_8cpp.html" target="_top" xlink:title=" ">
<polygon fill="none" stroke="black" points="2876.5,-319 2876.5,-338 3049.5,-338 3049.5,-319 2876.5,-319"/>
<text text-anchor="middle" x="2963" y="-326" font-family="Helvetica,sans-Serif" font-size="10.00">HealthGPS/runner_message.cpp</text>
</a>
</g>
</g>
<!-- Node47&#45;&gt;Node48 -->
<g id="edge65" class="edge">
<title>Node47&#45;&gt;Node48</title>
<path fill="none" stroke="midnightblue" d="M2872.26,-380.79C2895.05,-367.9 2928.46,-349.02 2947.74,-338.13"/>
<polygon fill="midnightblue" stroke="midnightblue" points="2870.49,-377.77 2863.51,-385.73 2873.94,-383.86 2870.49,-377.77"/>
</g>
</g>
</svg>
