<?xml version="1.0" encoding="UTF-8" standalone="no"?>
<!DOCTYPE svg PUBLIC "-//W3C//DTD SVG 1.1//EN"
 "http://www.w3.org/Graphics/SVG/1.1/DTD/svg11.dtd">
<!-- Generated by graphviz version 7.0.6 (20230106.0513)
 -->
<!-- Title: HealthGPS/event_aggregator.h Pages: 1 -->
<svg width="2211pt" height="467pt"
 viewBox="0.00 0.00 2211.45 467.00" xmlns="http://www.w3.org/2000/svg" xmlns:xlink="http://www.w3.org/1999/xlink">
<g id="graph0" class="graph" transform="scale(1 1) rotate(0) translate(4 463)">
<title>HealthGPS/event_aggregator.h</title>
<!-- Node1 -->
<g id="node1" class="node">
<title>Node1</title>
<g id="a_node1"><a xlink:title=" ">
<polygon fill="#999999" stroke="#666666" points="623.45,-459 473.45,-459 473.45,-440 623.45,-440 623.45,-459"/>
<text text-anchor="middle" x="548.45" y="-447" font-family="Helvetica,sans-Serif" font-size="10.00">HealthGPS/event_aggregator.h</text>
</a>
</g>
</g>
<!-- Node2 -->
<g id="node2" class="node">
<title>Node2</title>
<g id="a_node2"><a xlink:href="event__monitor_8h.html" target="_top" xlink:title=" ">
<polygon fill="white" stroke="#666666" points="157.95,-404 28.95,-404 28.95,-374 157.95,-374 157.95,-404"/>
<text text-anchor="start" x="36.95" y="-392" font-family="Helvetica,sans-Serif" font-size="10.00">HealthGPS.Console/event</text>
<text text-anchor="middle" x="93.45" y="-381" font-family="Helvetica,sans-Serif" font-size="10.00">_monitor.h</text>
</a>
</g>
</g>
<!-- Node1&#45;&gt;Node2 -->
<g id="edge1" class="edge">
<title>Node1&#45;&gt;Node2</title>
<path fill="none" stroke="#63b8ff" d="M467.54,-438.1C379.24,-426.74 239.62,-408.79 158.25,-398.33"/>
<polygon fill="#63b8ff" stroke="#63b8ff" points="466.98,-441.55 477.34,-439.36 467.87,-434.61 466.98,-441.55"/>
</g>
<!-- Node5 -->
<g id="node5" class="node">
<title>Node5</title>
<g id="a_node5"><a xlink:href="_health_g_p_s_2api_8h.html" target="_top" xlink:title=" ">
<polygon fill="white" stroke="#666666" points="584.95,-74 495.95,-74 495.95,-55 584.95,-55 584.95,-74"/>
<text text-anchor="middle" x="540.45" y="-62" font-family="Helvetica,sans-Serif" font-size="10.00">HealthGPS/api.h</text>
</a>
</g>
</g>
<!-- Node1&#45;&gt;Node5 -->
<g id="edge4" class="edge">
<title>Node1&#45;&gt;Node5</title>
<path fill="none" stroke="#63b8ff" d="M535.61,-430.27C530.6,-422.47 525.17,-413.08 521.45,-404 507.58,-370.19 502.45,-360.54 502.45,-324 502.45,-324 502.45,-324 502.45,-190 502.45,-144.8 525.64,-94.24 535.79,-74.28"/>
<polygon fill="#63b8ff" stroke="#63b8ff" points="532.65,-432.14 541.14,-438.48 538.46,-428.23 532.65,-432.14"/>
</g>
<!-- Node6 -->
<g id="node6" class="node">
<title>Node6</title>
<g id="a_node6"><a xlink:href="event__subscriber_8h.html" target="_top" xlink:title=" ">
<polygon fill="white" stroke="#666666" points="468.95,-398.5 319.95,-398.5 319.95,-379.5 468.95,-379.5 468.95,-398.5"/>
<text text-anchor="middle" x="394.45" y="-386.5" font-family="Helvetica,sans-Serif" font-size="10.00">HealthGPS/event_subscriber.h</text>
</a>
</g>
</g>
<!-- Node1&#45;&gt;Node6 -->
<g id="edge6" class="edge">
<title>Node1&#45;&gt;Node6</title>
<path fill="none" stroke="#63b8ff" d="M514.51,-435.61C485.26,-424.5 443.81,-408.75 418.05,-398.97"/>
<polygon fill="#63b8ff" stroke="#63b8ff" points="513.05,-438.8 523.64,-439.08 515.54,-432.25 513.05,-438.8"/>
</g>
<!-- Node10 -->
<g id="node10" class="node">
<title>Node10</title>
<g id="a_node10"><a xlink:href="healthgps_8h.html" target="_top" xlink:title=" ">
<polygon fill="white" stroke="#666666" points="1110.95,-134.5 991.95,-134.5 991.95,-115.5 1110.95,-115.5 1110.95,-134.5"/>
<text text-anchor="middle" x="1051.45" y="-122.5" font-family="Helvetica,sans-Serif" font-size="10.00">HealthGPS/healthgps.h</text>
</a>
</g>
</g>
<!-- Node1&#45;&gt;Node10 -->
<g id="edge11" class="edge">
<title>Node1&#45;&gt;Node10</title>
<path fill="none" stroke="#63b8ff" d="M635.37,-446.56C976.28,-438.37 2203.45,-403.4 2203.45,-324 2203.45,-324 2203.45,-324 2203.45,-256 2203.45,-144.99 1347.82,-128.77 1111.36,-126.4"/>
<polygon fill="#63b8ff" stroke="#63b8ff" points="635.28,-443.06 625.37,-446.79 635.45,-450.06 635.28,-443.06"/>
</g>
<!-- Node14 -->
<g id="node14" class="node">
<title>Node14</title>
<g id="a_node14"><a xlink:href="modelrunner_8h.html" target="_top" xlink:title=" ">
<polygon fill="white" stroke="#666666" points="660.45,-398.5 530.45,-398.5 530.45,-379.5 660.45,-379.5 660.45,-398.5"/>
<text text-anchor="middle" x="595.45" y="-386.5" font-family="Helvetica,sans-Serif" font-size="10.00">HealthGPS/modelrunner.h</text>
</a>
</g>
</g>
<!-- Node1&#45;&gt;Node14 -->
<g id="edge17" class="edge">
<title>Node1&#45;&gt;Node14</title>
<path fill="none" stroke="#63b8ff" d="M562.52,-430.98C571.09,-420.31 581.67,-407.15 588.48,-398.67"/>
<polygon fill="#63b8ff" stroke="#63b8ff" points="559.86,-428.7 556.33,-438.69 565.32,-433.08 559.86,-428.7"/>
</g>
<!-- Node16 -->
<g id="node16" class="node">
<title>Node16</title>
<g id="a_node16"><a xlink:href="runtime__context_8h.html" target="_top" xlink:title=" ">
<polygon fill="white" stroke="#666666" points="1489.45,-398.5 1343.45,-398.5 1343.45,-379.5 1489.45,-379.5 1489.45,-398.5"/>
<text text-anchor="middle" x="1416.45" y="-386.5" font-family="Helvetica,sans-Serif" font-size="10.00">HealthGPS/runtime_context.h</text>
</a>
</g>
</g>
<!-- Node1&#45;&gt;Node16 -->
<g id="edge20" class="edge">
<title>Node1&#45;&gt;Node16</title>
<path fill="none" stroke="#63b8ff" d="M635.02,-442.66C805.9,-431.15 1183.73,-405.68 1343.18,-394.94"/>
<polygon fill="#63b8ff" stroke="#63b8ff" points="634.83,-439.17 625.09,-443.33 635.3,-446.15 634.83,-439.17"/>
</g>
<!-- Node3 -->
<g id="node3" class="node">
<title>Node3</title>
<g id="a_node3"><a xlink:href="event__monitor_8cpp.html" target="_top" xlink:title=" ">
<polygon fill="white" stroke="#666666" points="157.95,-338 28.95,-338 28.95,-308 157.95,-308 157.95,-338"/>
<text text-anchor="start" x="36.95" y="-326" font-family="Helvetica,sans-Serif" font-size="10.00">HealthGPS.Console/event</text>
<text text-anchor="middle" x="93.45" y="-315" font-family="Helvetica,sans-Serif" font-size="10.00">_monitor.cpp</text>
</a>
</g>
</g>
<!-- Node2&#45;&gt;Node3 -->
<g id="edge2" class="edge">
<title>Node2&#45;&gt;Node3</title>
<path fill="none" stroke="#63b8ff" d="M93.45,-362.39C93.45,-354.13 93.45,-345.28 93.45,-338.16"/>
<polygon fill="#63b8ff" stroke="#63b8ff" points="89.95,-362.28 93.45,-372.28 96.95,-362.28 89.95,-362.28"/>
</g>
<!-- Node4 -->
<g id="node4" class="node">
<title>Node4</title>
<g id="a_node4"><a xlink:href="program_8cpp.html" target="_top" xlink:title=" ">
<polygon fill="white" stroke="#666666" points="468.95,-19 307.95,-19 307.95,0 468.95,0 468.95,-19"/>
<text text-anchor="middle" x="388.45" y="-7" font-family="Helvetica,sans-Serif" font-size="10.00">HealthGPS.Console/program.cpp</text>
</a>
</g>
</g>
<!-- Node2&#45;&gt;Node4 -->
<g id="edge3" class="edge">
<title>Node2&#45;&gt;Node4</title>
<path fill="none" stroke="#63b8ff" d="M52.27,-367.85C40.09,-360.06 27.79,-350.08 19.45,-338 -1.34,-307.94 0.45,-294.54 0.45,-258 0.45,-258 0.45,-258 0.45,-124 0.45,-60.57 193.87,-30.13 307.58,-17.71"/>
<polygon fill="#63b8ff" stroke="#63b8ff" points="50.26,-370.72 60.64,-372.84 53.85,-364.71 50.26,-370.72"/>
</g>
<!-- Node5&#45;&gt;Node4 -->
<g id="edge5" class="edge">
<title>Node5&#45;&gt;Node4</title>
<path fill="none" stroke="#63b8ff" d="M503.81,-50.73C476.08,-41.06 438.7,-28.02 414.1,-19.45"/>
<polygon fill="#63b8ff" stroke="#63b8ff" points="502.64,-54.02 513.23,-54.01 504.94,-47.41 502.64,-54.02"/>
</g>
<!-- Node7 -->
<g id="node7" class="node">
<title>Node7</title>
<g id="a_node7"><a xlink:href="event__bus_8h.html" target="_top" xlink:title=" ">
<polygon fill="white" stroke="#666666" points="296.45,-332.5 176.45,-332.5 176.45,-313.5 296.45,-313.5 296.45,-332.5"/>
<text text-anchor="middle" x="236.45" y="-320.5" font-family="Helvetica,sans-Serif" font-size="10.00">HealthGPS/event_bus.h</text>
</a>
</g>
</g>
<!-- Node6&#45;&gt;Node7 -->
<g id="edge7" class="edge">
<title>Node6&#45;&gt;Node7</title>
<path fill="none" stroke="#63b8ff" d="M361.81,-374.78C330.9,-362.26 285.32,-343.8 258.48,-332.93"/>
<polygon fill="#63b8ff" stroke="#63b8ff" points="360.49,-378.02 371.07,-378.53 363.12,-371.53 360.49,-378.02"/>
</g>
<!-- Node9 -->
<g id="node9" class="node">
<title>Node9</title>
<g id="a_node9"><a xlink:href="event__subscriber_8cpp.html" target="_top" xlink:title=" ">
<polygon fill="white" stroke="#666666" points="474.45,-332.5 314.45,-332.5 314.45,-313.5 474.45,-313.5 474.45,-332.5"/>
<text text-anchor="middle" x="394.45" y="-320.5" font-family="Helvetica,sans-Serif" font-size="10.00">HealthGPS/event_subscriber.cpp</text>
</a>
</g>
</g>
<!-- Node6&#45;&gt;Node9 -->
<g id="edge10" class="edge">
<title>Node6&#45;&gt;Node9</title>
<path fill="none" stroke="#63b8ff" d="M394.45,-367.68C394.45,-355.94 394.45,-341.77 394.45,-332.82"/>
<polygon fill="#63b8ff" stroke="#63b8ff" points="390.95,-367.59 394.45,-377.59 397.95,-367.59 390.95,-367.59"/>
</g>
<!-- Node7&#45;&gt;Node4 -->
<g id="edge8" class="edge">
<title>Node7&#45;&gt;Node4</title>
<path fill="none" stroke="#63b8ff" d="M236.45,-301.74C236.45,-276.17 236.45,-230.82 236.45,-192 236.45,-192 236.45,-192 236.45,-124 236.45,-65.54 309.52,-33.58 354.33,-19.48"/>
<polygon fill="#63b8ff" stroke="#63b8ff" points="232.95,-301.66 236.45,-311.66 239.95,-301.66 232.95,-301.66"/>
</g>
<!-- Node8 -->
<g id="node8" class="node">
<title>Node8</title>
<g id="a_node8"><a xlink:href="event__bus_8cpp.html" target="_top" xlink:title=" ">
<polygon fill="white" stroke="#666666" points="395.95,-266.5 264.95,-266.5 264.95,-247.5 395.95,-247.5 395.95,-266.5"/>
<text text-anchor="middle" x="330.45" y="-254.5" font-family="Helvetica,sans-Serif" font-size="10.00">HealthGPS/event_bus.cpp</text>
</a>
</g>
</g>
<!-- Node7&#45;&gt;Node8 -->
<g id="edge9" class="edge">
<title>Node7&#45;&gt;Node8</title>
<path fill="none" stroke="#63b8ff" d="M258.86,-306.74C277.16,-294.28 302.38,-277.11 317.49,-266.82"/>
<polygon fill="#63b8ff" stroke="#63b8ff" points="257.06,-303.73 250.77,-312.25 261,-309.51 257.06,-303.73"/>
</g>
<!-- Node10&#45;&gt;Node5 -->
<g id="edge15" class="edge">
<title>Node10&#45;&gt;Node5</title>
<path fill="none" stroke="#63b8ff" d="M1000.42,-112.91C994.71,-111.84 988.96,-110.84 983.45,-110 838.65,-87.88 665.48,-74.13 585.28,-68.47"/>
<polygon fill="#63b8ff" stroke="#63b8ff" points="999.33,-116.26 1009.81,-114.73 1000.66,-109.39 999.33,-116.26"/>
</g>
<!-- Node11 -->
<g id="node11" class="node">
<title>Node11</title>
<g id="a_node11"><a xlink:href="configuration_8h.html" target="_top" xlink:title=" ">
<polygon fill="white" stroke="#666666" points="1136.45,-74 966.45,-74 966.45,-55 1136.45,-55 1136.45,-74"/>
<text text-anchor="middle" x="1051.45" y="-62" font-family="Helvetica,sans-Serif" font-size="10.00">HealthGPS.Console/configuration.h</text>
</a>
</g>
</g>
<!-- Node10&#45;&gt;Node11 -->
<g id="edge12" class="edge">
<title>Node10&#45;&gt;Node11</title>
<path fill="none" stroke="#63b8ff" d="M1051.45,-104.16C1051.45,-93.95 1051.45,-82.04 1051.45,-74.17"/>
<polygon fill="#63b8ff" stroke="#63b8ff" points="1047.95,-103.85 1051.45,-113.85 1054.95,-103.85 1047.95,-103.85"/>
</g>
<!-- Node13 -->
<g id="node13" class="node">
<title>Node13</title>
<g id="a_node13"><a xlink:href="healthgps_8cpp.html" target="_top" xlink:title=" ">
<polygon fill="white" stroke="#666666" points="947.95,-74 818.95,-74 818.95,-55 947.95,-55 947.95,-74"/>
<text text-anchor="middle" x="883.45" y="-62" font-family="Helvetica,sans-Serif" font-size="10.00">HealthGPS/healthgps.cpp</text>
</a>
</g>
</g>
<!-- Node10&#45;&gt;Node13 -->
<g id="edge16" class="edge">
<title>Node10&#45;&gt;Node13</title>
<path fill="none" stroke="#63b8ff" d="M1015.26,-111.4C983.32,-100.28 937.55,-84.34 909.2,-74.47"/>
<polygon fill="#63b8ff" stroke="#63b8ff" points="1013.91,-114.63 1024.5,-114.62 1016.21,-108.02 1013.91,-114.63"/>
</g>
<!-- Node11&#45;&gt;Node4 -->
<g id="edge14" class="edge">
<title>Node11&#45;&gt;Node4</title>
<path fill="none" stroke="#63b8ff" d="M954.88,-54.79C775.09,-39.69 577.05,-24.6 469.03,-16.49"/>
<polygon fill="#63b8ff" stroke="#63b8ff" points="954.38,-58.26 964.64,-55.61 954.96,-51.29 954.38,-58.26"/>
</g>
<!-- Node12 -->
<g id="node12" class="node">
<title>Node12</title>
<g id="a_node12"><a xlink:href="configuration_8cpp.html" target="_top" xlink:title=" ">
<polygon fill="white" stroke="#666666" points="1141.45,-19 961.45,-19 961.45,0 1141.45,0 1141.45,-19"/>
<text text-anchor="middle" x="1051.45" y="-7" font-family="Helvetica,sans-Serif" font-size="10.00">HealthGPS.Console/configuration.cpp</text>
</a>
</g>
</g>
<!-- Node11&#45;&gt;Node12 -->
<g id="edge13" class="edge">
<title>Node11&#45;&gt;Node12</title>
<path fill="none" stroke="#63b8ff" d="M1051.45,-43.35C1051.45,-35.1 1051.45,-25.97 1051.45,-19.44"/>
<polygon fill="#63b8ff" stroke="#63b8ff" points="1047.95,-43.23 1051.45,-53.23 1054.95,-43.23 1047.95,-43.23"/>
</g>
<!-- Node14&#45;&gt;Node5 -->
<g id="edge18" class="edge">
<title>Node14&#45;&gt;Node5</title>
<path fill="none" stroke="#63b8ff" d="M580.09,-370.31C572.88,-361.19 564.73,-349.57 559.45,-338 544.26,-304.76 540.45,-294.54 540.45,-258 540.45,-258 540.45,-258 540.45,-190 540.45,-146.55 540.45,-94.58 540.45,-74.25"/>
<polygon fill="#63b8ff" stroke="#63b8ff" points="577.33,-372.46 586.4,-377.94 582.72,-368 577.33,-372.46"/>
</g>
<!-- Node15 -->
<g id="node15" class="node">
<title>Node15</title>
<g id="a_node15"><a xlink:href="modelrunner_8cpp.html" target="_top" xlink:title=" ">
<polygon fill="white" stroke="#666666" points="708.45,-332.5 568.45,-332.5 568.45,-313.5 708.45,-313.5 708.45,-332.5"/>
<text text-anchor="middle" x="638.45" y="-320.5" font-family="Helvetica,sans-Serif" font-size="10.00">HealthGPS/modelrunner.cpp</text>
</a>
</g>
</g>
<!-- Node14&#45;&gt;Node15 -->
<g id="edge19" class="edge">
<title>Node14&#45;&gt;Node15</title>
<path fill="none" stroke="#63b8ff" d="M607.61,-369.9C615.76,-357.77 626.12,-342.34 632.52,-332.82"/>
<polygon fill="#63b8ff" stroke="#63b8ff" points="604.94,-367.59 602.27,-377.84 610.75,-371.5 604.94,-367.59"/>
</g>
<!-- Node16&#45;&gt;Node10 -->
<g id="edge36" class="edge">
<title>Node16&#45;&gt;Node10</title>
<path fill="none" stroke="#63b8ff" d="M1500.95,-384.31C1621.62,-378.16 1831.37,-363.86 1854.45,-338 1863.32,-328.05 1862.69,-318.48 1854.45,-308 1761.67,-190.13 1281.31,-143.2 1111.22,-130.12"/>
<polygon fill="#63b8ff" stroke="#63b8ff" points="1500.88,-380.81 1491.07,-384.8 1501.23,-387.8 1500.88,-380.81"/>
</g>
<!-- Node17 -->
<g id="node17" class="node">
<title>Node17</title>
<g id="a_node17"><a xlink:href="analysis__module_8h.html" target="_top" xlink:title=" ">
<polygon fill="white" stroke="#666666" points="956.45,-338 852.45,-338 852.45,-308 956.45,-308 956.45,-338"/>
<text text-anchor="start" x="860.45" y="-326" font-family="Helvetica,sans-Serif" font-size="10.00">HealthGPS/analysis</text>
<text text-anchor="middle" x="904.45" y="-315" font-family="Helvetica,sans-Serif" font-size="10.00">_module.h</text>
</a>
</g>
</g>
<!-- Node16&#45;&gt;Node17 -->
<g id="edge21" class="edge">
<title>Node16&#45;&gt;Node17</title>
<path fill="none" stroke="#63b8ff" d="M1331.9,-381.44C1241.17,-373.73 1093.01,-359.25 966.45,-338 963.29,-337.47 960.05,-336.88 956.79,-336.25"/>
<polygon fill="#63b8ff" stroke="#63b8ff" points="1331.46,-384.91 1341.72,-382.26 1332.04,-377.94 1331.46,-384.91"/>
</g>
<!-- Node21 -->
<g id="node21" class="node">
<title>Node21</title>
<g id="a_node21"><a xlink:href="default__cancer__model_8cpp.html" target="_top" xlink:title=" ">
<polygon fill="white" stroke="#666666" points="1690.95,-338 1559.95,-338 1559.95,-308 1690.95,-308 1690.95,-338"/>
<text text-anchor="start" x="1567.95" y="-326" font-family="Helvetica,sans-Serif" font-size="10.00">HealthGPS/default_cancer</text>
<text text-anchor="middle" x="1625.45" y="-315" font-family="Helvetica,sans-Serif" font-size="10.00">_model.cpp</text>
</a>
</g>
</g>
<!-- Node16&#45;&gt;Node21 -->
<g id="edge27" class="edge">
<title>Node16&#45;&gt;Node21</title>
<path fill="none" stroke="#63b8ff" d="M1456.19,-375.83C1490.91,-365.2 1541.38,-349.74 1578.17,-338.48"/>
<polygon fill="#63b8ff" stroke="#63b8ff" points="1455.49,-372.38 1446.95,-378.66 1457.54,-379.08 1455.49,-372.38"/>
</g>
<!-- Node22 -->
<g id="node22" class="node">
<title>Node22</title>
<g id="a_node22"><a xlink:href="default__disease__model_8cpp.html" target="_top" xlink:title=" ">
<polygon fill="white" stroke="#666666" points="1845.45,-338 1709.45,-338 1709.45,-308 1845.45,-308 1845.45,-338"/>
<text text-anchor="start" x="1717.45" y="-326" font-family="Helvetica,sans-Serif" font-size="10.00">HealthGPS/default_disease</text>
<text text-anchor="middle" x="1777.45" y="-315" font-family="Helvetica,sans-Serif" font-size="10.00">_model.cpp</text>
</a>
</g>
</g>
<!-- Node16&#45;&gt;Node22 -->
<g id="edge28" class="edge">
<title>Node16&#45;&gt;Node22</title>
<path fill="none" stroke="#63b8ff" d="M1479.12,-377.07C1536.68,-367.01 1624.33,-351.62 1700.45,-338 1703.25,-337.5 1706.12,-336.98 1709.02,-336.46"/>
<polygon fill="#63b8ff" stroke="#63b8ff" points="1478.76,-373.58 1469.52,-378.75 1479.97,-380.47 1478.76,-373.58"/>
</g>
<!-- Node23 -->
<g id="node23" class="node">
<title>Node23</title>
<g id="a_node23"><a xlink:href="demographic_8h.html" target="_top" xlink:title=" ">
<polygon fill="white" stroke="#666666" points="1413.45,-332.5 1281.45,-332.5 1281.45,-313.5 1413.45,-313.5 1413.45,-332.5"/>
<text text-anchor="middle" x="1347.45" y="-320.5" font-family="Helvetica,sans-Serif" font-size="10.00">HealthGPS/demographic.h</text>
</a>
</g>
</g>
<!-- Node16&#45;&gt;Node23 -->
<g id="edge29" class="edge">
<title>Node16&#45;&gt;Node23</title>
<path fill="none" stroke="#63b8ff" d="M1398.48,-371.33C1385.2,-359.02 1367.63,-342.73 1356.96,-332.82"/>
<polygon fill="#63b8ff" stroke="#63b8ff" points="1396.03,-373.84 1405.74,-378.07 1400.79,-368.71 1396.03,-373.84"/>
</g>
<!-- Node25 -->
<g id="node25" class="node">
<title>Node25</title>
<g id="a_node25"><a xlink:href="_health_g_p_s_2disease_8h.html" target="_top" xlink:title=" ">
<polygon fill="white" stroke="#666666" points="1541.45,-332.5 1431.45,-332.5 1431.45,-313.5 1541.45,-313.5 1541.45,-332.5"/>
<text text-anchor="middle" x="1486.45" y="-320.5" font-family="Helvetica,sans-Serif" font-size="10.00">HealthGPS/disease.h</text>
</a>
</g>
</g>
<!-- Node16&#45;&gt;Node25 -->
<g id="edge32" class="edge">
<title>Node16&#45;&gt;Node25</title>
<path fill="none" stroke="#63b8ff" d="M1434.67,-371.33C1448.15,-359.02 1465.96,-342.73 1476.79,-332.82"/>
<polygon fill="#63b8ff" stroke="#63b8ff" points="1432.31,-368.75 1427.3,-378.08 1437.04,-373.92 1432.31,-368.75"/>
</g>
<!-- Node27 -->
<g id="node27" class="node">
<title>Node27</title>
<g id="a_node27"><a xlink:href="energy__balance__model_8cpp.html" target="_top" xlink:title=" ">
<polygon fill="white" stroke="#666666" points="2038.95,-338 1901.95,-338 1901.95,-308 2038.95,-308 2038.95,-338"/>
<text text-anchor="start" x="1909.95" y="-326" font-family="Helvetica,sans-Serif" font-size="10.00">HealthGPS/energy_balance</text>
<text text-anchor="middle" x="1970.45" y="-315" font-family="Helvetica,sans-Serif" font-size="10.00">_model.cpp</text>
</a>
</g>
</g>
<!-- Node16&#45;&gt;Node27 -->
<g id="edge35" class="edge">
<title>Node16&#45;&gt;Node27</title>
<path fill="none" stroke="#63b8ff" d="M1500.83,-380.61C1595.23,-371.99 1752.6,-356.51 1887.45,-338 1892.08,-337.36 1896.85,-336.67 1901.65,-335.94"/>
<polygon fill="#63b8ff" stroke="#63b8ff" points="1500.78,-377.1 1491.14,-381.5 1501.42,-384.08 1500.78,-377.1"/>
</g>
<!-- Node28 -->
<g id="node28" class="node">
<title>Node28</title>
<g id="a_node28"><a xlink:href="hierarchical__model__static_8cpp.html" target="_top" xlink:title=" ">
<polygon fill="white" stroke="#666666" points="2175.45,-338 2057.45,-338 2057.45,-308 2175.45,-308 2175.45,-338"/>
<text text-anchor="start" x="2065.45" y="-326" font-family="Helvetica,sans-Serif" font-size="10.00">HealthGPS/hierarchical</text>
<text text-anchor="middle" x="2116.45" y="-315" font-family="Helvetica,sans-Serif" font-size="10.00">_model_static.cpp</text>
</a>
</g>
</g>
<!-- Node16&#45;&gt;Node28 -->
<g id="edge37" class="edge">
<title>Node16&#45;&gt;Node28</title>
<path fill="none" stroke="#63b8ff" d="M1501.18,-384.64C1622.8,-379.06 1853.67,-365.65 2048.45,-338 2051.31,-337.59 2054.23,-337.14 2057.18,-336.65"/>
<polygon fill="#63b8ff" stroke="#63b8ff" points="1501.1,-381.14 1491.27,-385.09 1501.42,-388.13 1501.1,-381.14"/>
</g>
<!-- Node29 -->
<g id="node29" class="node">
<title>Node29</title>
<g id="a_node29"><a xlink:href="riskfactor__adjustment_8h.html" target="_top" xlink:title=" ">
<polygon fill="white" stroke="#666666" points="834.45,-338 726.45,-338 726.45,-308 834.45,-308 834.45,-338"/>
<text text-anchor="start" x="734.45" y="-326" font-family="Helvetica,sans-Serif" font-size="10.00">HealthGPS/riskfactor</text>
<text text-anchor="middle" x="780.45" y="-315" font-family="Helvetica,sans-Serif" font-size="10.00">_adjustment.h</text>
</a>
</g>
</g>
<!-- Node16&#45;&gt;Node29 -->
<g id="edge38" class="edge">
<title>Node16&#45;&gt;Node29</title>
<path fill="none" stroke="#63b8ff" d="M1332.04,-384.12C1219.92,-378.16 1015.91,-364.57 843.45,-338 840.57,-337.56 837.62,-337.06 834.66,-336.52"/>
<polygon fill="#63b8ff" stroke="#63b8ff" points="1331.58,-387.6 1341.75,-384.62 1331.95,-380.61 1331.58,-387.6"/>
</g>
<!-- Node33 -->
<g id="node33" class="node">
<title>Node33</title>
<g id="a_node33"><a xlink:href="runtime__context_8cpp.html" target="_top" xlink:title=" ">
<polygon fill="white" stroke="#666666" points="1131.95,-332.5 974.95,-332.5 974.95,-313.5 1131.95,-313.5 1131.95,-332.5"/>
<text text-anchor="middle" x="1053.45" y="-320.5" font-family="Helvetica,sans-Serif" font-size="10.00">HealthGPS/runtime_context.cpp</text>
</a>
</g>
</g>
<!-- Node16&#45;&gt;Node33 -->
<g id="edge43" class="edge">
<title>Node16&#45;&gt;Node33</title>
<path fill="none" stroke="#63b8ff" d="M1354.65,-377.1C1284.06,-364.66 1169.88,-344.53 1104.25,-332.96"/>
<polygon fill="#63b8ff" stroke="#63b8ff" points="1353.64,-380.48 1364.1,-378.77 1354.86,-373.59 1353.64,-380.48"/>
</g>
<!-- Node34 -->
<g id="node34" class="node">
<title>Node34</title>
<g id="a_node34"><a xlink:href="ses__noise__module_8cpp.html" target="_top" xlink:title=" ">
<polygon fill="white" stroke="#666666" points="1262.95,-338 1149.95,-338 1149.95,-308 1262.95,-308 1262.95,-338"/>
<text text-anchor="start" x="1157.95" y="-326" font-family="Helvetica,sans-Serif" font-size="10.00">HealthGPS/ses_noise</text>
<text text-anchor="middle" x="1206.45" y="-315" font-family="Helvetica,sans-Serif" font-size="10.00">_module.cpp</text>
</a>
</g>
</g>
<!-- Node16&#45;&gt;Node34 -->
<g id="edge44" class="edge">
<title>Node16&#45;&gt;Node34</title>
<path fill="none" stroke="#63b8ff" d="M1376.51,-375.83C1341.62,-365.2 1290.91,-349.74 1253.95,-338.48"/>
<polygon fill="#63b8ff" stroke="#63b8ff" points="1375.21,-379.09 1385.8,-378.66 1377.25,-372.4 1375.21,-379.09"/>
</g>
<!-- Node18 -->
<g id="node18" class="node">
<title>Node18</title>
<g id="a_node18"><a xlink:href="analysis__module_8cpp.html" target="_top" xlink:title=" ">
<polygon fill="white" stroke="#666666" points="956.45,-272 852.45,-272 852.45,-242 956.45,-242 956.45,-272"/>
<text text-anchor="start" x="860.45" y="-260" font-family="Helvetica,sans-Serif" font-size="10.00">HealthGPS/analysis</text>
<text text-anchor="middle" x="904.45" y="-249" font-family="Helvetica,sans-Serif" font-size="10.00">_module.cpp</text>
</a>
</g>
</g>
<!-- Node17&#45;&gt;Node18 -->
<g id="edge22" class="edge">
<title>Node17&#45;&gt;Node18</title>
<path fill="none" stroke="#63b8ff" d="M904.45,-296.39C904.45,-288.13 904.45,-279.28 904.45,-272.16"/>
<polygon fill="#63b8ff" stroke="#63b8ff" points="900.95,-296.28 904.45,-306.28 907.95,-296.28 900.95,-296.28"/>
</g>
<!-- Node19 -->
<g id="node19" class="node">
<title>Node19</title>
<g id="a_node19"><a xlink:href="simulation__module_8h.html" target="_top" xlink:title=" ">
<polygon fill="white" stroke="#666666" points="1040.95,-206 927.95,-206 927.95,-176 1040.95,-176 1040.95,-206"/>
<text text-anchor="start" x="935.95" y="-194" font-family="Helvetica,sans-Serif" font-size="10.00">HealthGPS/simulation</text>
<text text-anchor="middle" x="984.45" y="-183" font-family="Helvetica,sans-Serif" font-size="10.00">_module.h</text>
</a>
</g>
</g>
<!-- Node17&#45;&gt;Node19 -->
<g id="edge23" class="edge">
<title>Node17&#45;&gt;Node19</title>
<path fill="none" stroke="#63b8ff" d="M938.07,-300.81C948.22,-292.9 958.5,-283.11 965.45,-272 978.23,-251.54 982.42,-223.23 983.78,-206.35"/>
<polygon fill="#63b8ff" stroke="#63b8ff" points="936.12,-297.9 930.11,-306.63 940.25,-303.55 936.12,-297.9"/>
</g>
<!-- Node19&#45;&gt;Node5 -->
<g id="edge24" class="edge">
<title>Node19&#45;&gt;Node5</title>
<path fill="none" stroke="#63b8ff" d="M922.08,-172.51C826.04,-145.58 645.4,-94.93 572.33,-74.44"/>
<polygon fill="#63b8ff" stroke="#63b8ff" points="921.05,-175.86 931.62,-175.19 922.94,-169.12 921.05,-175.86"/>
</g>
<!-- Node19&#45;&gt;Node10 -->
<g id="edge25" class="edge">
<title>Node19&#45;&gt;Node10</title>
<path fill="none" stroke="#63b8ff" d="M1007.54,-167.94C1019.43,-156.58 1033.27,-143.36 1042.19,-134.84"/>
<polygon fill="#63b8ff" stroke="#63b8ff" points="1005.22,-165.31 1000.41,-174.75 1010.06,-170.37 1005.22,-165.31"/>
</g>
<!-- Node20 -->
<g id="node20" class="node">
<title>Node20</title>
<g id="a_node20"><a xlink:href="simulation__module_8cpp.html" target="_top" xlink:title=" ">
<polygon fill="white" stroke="#666666" points="973.95,-140 860.95,-140 860.95,-110 973.95,-110 973.95,-140"/>
<text text-anchor="start" x="868.95" y="-128" font-family="Helvetica,sans-Serif" font-size="10.00">HealthGPS/simulation</text>
<text text-anchor="middle" x="917.45" y="-117" font-family="Helvetica,sans-Serif" font-size="10.00">_module.cpp</text>
</a>
</g>
</g>
<!-- Node19&#45;&gt;Node20 -->
<g id="edge26" class="edge">
<title>Node19&#45;&gt;Node20</title>
<path fill="none" stroke="#63b8ff" d="M961.51,-168.09C951.83,-158.85 940.85,-148.36 932.27,-140.16"/>
<polygon fill="#63b8ff" stroke="#63b8ff" points="958.83,-170.37 968.48,-174.75 963.67,-165.31 958.83,-170.37"/>
</g>
<!-- Node23&#45;&gt;Node19 -->
<g id="edge31" class="edge">
<title>Node23&#45;&gt;Node19</title>
<path fill="none" stroke="#63b8ff" d="M1311.93,-309.28C1244.06,-284.98 1096.36,-232.08 1024.85,-206.47"/>
<polygon fill="#63b8ff" stroke="#63b8ff" points="1310.48,-312.48 1321.07,-312.55 1312.84,-305.89 1310.48,-312.48"/>
</g>
<!-- Node24 -->
<g id="node24" class="node">
<title>Node24</title>
<g id="a_node24"><a xlink:href="demographic_8cpp.html" target="_top" xlink:title=" ">
<polygon fill="white" stroke="#666666" points="1393.95,-266.5 1250.95,-266.5 1250.95,-247.5 1393.95,-247.5 1393.95,-266.5"/>
<text text-anchor="middle" x="1322.45" y="-254.5" font-family="Helvetica,sans-Serif" font-size="10.00">HealthGPS/demographic.cpp</text>
</a>
</g>
</g>
<!-- Node23&#45;&gt;Node24 -->
<g id="edge30" class="edge">
<title>Node23&#45;&gt;Node24</title>
<path fill="none" stroke="#63b8ff" d="M1339.8,-302.43C1335.16,-290.55 1329.46,-275.96 1325.89,-266.82"/>
<polygon fill="#63b8ff" stroke="#63b8ff" points="1336.52,-303.65 1343.42,-311.69 1343.04,-301.1 1336.52,-303.65"/>
</g>
<!-- Node25&#45;&gt;Node19 -->
<g id="edge34" class="edge">
<title>Node25&#45;&gt;Node19</title>
<path fill="none" stroke="#63b8ff" d="M1470.98,-304.69C1451.62,-283.48 1419.12,-249.43 1403.45,-242 1340.56,-212.17 1140.22,-199.08 1041.1,-194.31"/>
<polygon fill="#63b8ff" stroke="#63b8ff" points="1468.29,-306.94 1477.59,-312.01 1473.49,-302.25 1468.29,-306.94"/>
</g>
<!-- Node26 -->
<g id="node26" class="node">
<title>Node26</title>
<g id="a_node26"><a xlink:href="disease_8cpp.html" target="_top" xlink:title=" ">
<polygon fill="white" stroke="#666666" points="1571.95,-266.5 1450.95,-266.5 1450.95,-247.5 1571.95,-247.5 1571.95,-266.5"/>
<text text-anchor="middle" x="1511.45" y="-254.5" font-family="Helvetica,sans-Serif" font-size="10.00">HealthGPS/disease.cpp</text>
</a>
</g>
</g>
<!-- Node25&#45;&gt;Node26 -->
<g id="edge33" class="edge">
<title>Node25&#45;&gt;Node26</title>
<path fill="none" stroke="#63b8ff" d="M1494.09,-302.43C1498.73,-290.55 1504.43,-275.96 1508,-266.82"/>
<polygon fill="#63b8ff" stroke="#63b8ff" points="1490.85,-301.1 1490.47,-311.69 1497.37,-303.65 1490.85,-301.1"/>
</g>
<!-- Node30 -->
<g id="node30" class="node">
<title>Node30</title>
<g id="a_node30"><a xlink:href="riskfactor_8h.html" target="_top" xlink:title=" ">
<polygon fill="white" stroke="#666666" points="708.45,-266.5 592.45,-266.5 592.45,-247.5 708.45,-247.5 708.45,-266.5"/>
<text text-anchor="middle" x="650.45" y="-254.5" font-family="Helvetica,sans-Serif" font-size="10.00">HealthGPS/riskfactor.h</text>
</a>
</g>
</g>
<!-- Node29&#45;&gt;Node30 -->
<g id="edge39" class="edge">
<title>Node29&#45;&gt;Node30</title>
<path fill="none" stroke="#63b8ff" d="M741.01,-302.59C716.97,-290.75 687.37,-276.18 668.7,-266.99"/>
<polygon fill="#63b8ff" stroke="#63b8ff" points="739.4,-305.69 749.91,-306.97 742.49,-299.41 739.4,-305.69"/>
</g>
<!-- Node32 -->
<g id="node32" class="node">
<title>Node32</title>
<g id="a_node32"><a xlink:href="riskfactor__adjustment_8cpp.html" target="_top" xlink:title=" ">
<polygon fill="white" stroke="#666666" points="834.45,-272 726.45,-272 726.45,-242 834.45,-242 834.45,-272"/>
<text text-anchor="start" x="734.45" y="-260" font-family="Helvetica,sans-Serif" font-size="10.00">HealthGPS/riskfactor</text>
<text text-anchor="middle" x="780.45" y="-249" font-family="Helvetica,sans-Serif" font-size="10.00">_adjustment.cpp</text>
</a>
</g>
</g>
<!-- Node29&#45;&gt;Node32 -->
<g id="edge42" class="edge">
<title>Node29&#45;&gt;Node32</title>
<path fill="none" stroke="#63b8ff" d="M780.45,-296.39C780.45,-288.13 780.45,-279.28 780.45,-272.16"/>
<polygon fill="#63b8ff" stroke="#63b8ff" points="776.95,-296.28 780.45,-306.28 783.95,-296.28 776.95,-296.28"/>
</g>
<!-- Node30&#45;&gt;Node19 -->
<g id="edge41" class="edge">
<title>Node30&#45;&gt;Node19</title>
<path fill="none" stroke="#63b8ff" d="M703.52,-244.8C708.23,-243.84 712.92,-242.9 717.45,-242 789.84,-227.66 873.51,-212.17 927.61,-202.29"/>
<polygon fill="#63b8ff" stroke="#63b8ff" points="703.16,-241.3 694.07,-246.75 704.57,-248.16 703.16,-241.3"/>
</g>
<!-- Node31 -->
<g id="node31" class="node">
<title>Node31</title>
<g id="a_node31"><a xlink:href="riskfactor_8cpp.html" target="_top" xlink:title=" ">
<polygon fill="white" stroke="#666666" points="713.95,-200.5 586.95,-200.5 586.95,-181.5 713.95,-181.5 713.95,-200.5"/>
<text text-anchor="middle" x="650.45" y="-188.5" font-family="Helvetica,sans-Serif" font-size="10.00">HealthGPS/riskfactor.cpp</text>
</a>
</g>
</g>
<!-- Node30&#45;&gt;Node31 -->
<g id="edge40" class="edge">
<title>Node30&#45;&gt;Node31</title>
<path fill="none" stroke="#63b8ff" d="M650.45,-235.68C650.45,-223.94 650.45,-209.77 650.45,-200.82"/>
<polygon fill="#63b8ff" stroke="#63b8ff" points="646.95,-235.59 650.45,-245.59 653.95,-235.59 646.95,-235.59"/>
</g>
</g>
</svg>
