<?xml version="1.0" encoding="UTF-8" standalone="no"?>
<!DOCTYPE svg PUBLIC "-//W3C//DTD SVG 1.1//EN"
 "http://www.w3.org/Graphics/SVG/1.1/DTD/svg11.dtd">
<!-- Generated by graphviz version 2.43.0 (0)
 -->
<!-- Title: HealthGPS/event_subscriber.h Pages: 1 -->
<svg width="354pt" height="196pt"
 viewBox="0.00 0.00 353.50 196.00" xmlns="http://www.w3.org/2000/svg" xmlns:xlink="http://www.w3.org/1999/xlink">
<g id="graph0" class="graph" transform="scale(1 1) rotate(0) translate(4 192)">
<title>HealthGPS/event_subscriber.h</title>
<!-- Node1 -->
<g id="node1" class="node">
<title>Node1</title>
<g id="a_node1"><a xlink:title=" ">
<polygon fill="#bfbfbf" stroke="black" points="85,-168.5 85,-187.5 248,-187.5 248,-168.5 85,-168.5"/>
<text text-anchor="middle" x="166.5" y="-175.5" font-family="Helvetica,sans-Serif" font-size="10.00">HealthGPS/event_subscriber.h</text>
</a>
</g>
</g>
<!-- Node2 -->
<g id="node2" class="node">
<title>Node2</title>
<g id="a_node2"><a xlink:href="event__aggregator_8h.html" target="_top" xlink:title=" ">
<polygon fill="none" stroke="black" points="111,-112.5 111,-131.5 222,-131.5 222,-112.5 111,-112.5"/>
<text text-anchor="middle" x="166.5" y="-119.5" font-family="Helvetica,sans-Serif" font-size="10.00">event_aggregator.h</text>
</a>
</g>
</g>
<!-- Node1&#45;&gt;Node2 -->
<g id="edge1" class="edge">
<title>Node1&#45;&gt;Node2</title>
<path fill="none" stroke="midnightblue" d="M166.5,-168.08C166.5,-161.01 166.5,-150.86 166.5,-141.99"/>
<polygon fill="midnightblue" stroke="midnightblue" points="170,-141.75 166.5,-131.75 163,-141.75 170,-141.75"/>
</g>
<!-- Node3 -->
<g id="node3" class="node">
<title>Node3</title>
<g id="a_node3"><a xlink:title=" ">
<polygon fill="none" stroke="#bfbfbf" points="0,-56.5 0,-75.5 65,-75.5 65,-56.5 0,-56.5"/>
<text text-anchor="middle" x="32.5" y="-63.5" font-family="Helvetica,sans-Serif" font-size="10.00">functional</text>
</a>
</g>
</g>
<!-- Node2&#45;&gt;Node3 -->
<g id="edge2" class="edge">
<title>Node2&#45;&gt;Node3</title>
<path fill="none" stroke="midnightblue" d="M145.27,-112.44C123.12,-103.52 88.18,-89.44 63.06,-79.32"/>
<polygon fill="midnightblue" stroke="midnightblue" points="64.22,-76.01 53.63,-75.52 61.6,-82.5 64.22,-76.01"/>
</g>
<!-- Node4 -->
<g id="node4" class="node">
<title>Node4</title>
<g id="a_node4"><a xlink:title=" ">
<polygon fill="none" stroke="#bfbfbf" points="83,-56.5 83,-75.5 148,-75.5 148,-56.5 83,-56.5"/>
<text text-anchor="middle" x="115.5" y="-63.5" font-family="Helvetica,sans-Serif" font-size="10.00">stdexcept</text>
</a>
</g>
</g>
<!-- Node2&#45;&gt;Node4 -->
<g id="edge3" class="edge">
<title>Node2&#45;&gt;Node4</title>
<path fill="none" stroke="midnightblue" d="M158.08,-112.08C150.65,-104.22 139.65,-92.57 130.69,-83.08"/>
<polygon fill="midnightblue" stroke="midnightblue" points="133.18,-80.62 123.76,-75.75 128.09,-85.42 133.18,-80.62"/>
</g>
<!-- Node5 -->
<g id="node5" class="node">
<title>Node5</title>
<g id="a_node5"><a xlink:href="event__message_8h.html" target="_top" xlink:title=" ">
<polygon fill="none" stroke="black" points="166,-56.5 166,-75.5 269,-75.5 269,-56.5 166,-56.5"/>
<text text-anchor="middle" x="217.5" y="-63.5" font-family="Helvetica,sans-Serif" font-size="10.00">event_message.h</text>
</a>
</g>
</g>
<!-- Node2&#45;&gt;Node5 -->
<g id="edge4" class="edge">
<title>Node2&#45;&gt;Node5</title>
<path fill="none" stroke="midnightblue" d="M174.92,-112.08C182.35,-104.22 193.35,-92.57 202.31,-83.08"/>
<polygon fill="midnightblue" stroke="midnightblue" points="204.91,-85.42 209.24,-75.75 199.82,-80.62 204.91,-85.42"/>
</g>
<!-- Node9 -->
<g id="node9" class="node">
<title>Node9</title>
<g id="a_node9"><a xlink:title=" ">
<polygon fill="none" stroke="#bfbfbf" points="287.5,-56.5 287.5,-75.5 345.5,-75.5 345.5,-56.5 287.5,-56.5"/>
<text text-anchor="middle" x="316.5" y="-63.5" font-family="Helvetica,sans-Serif" font-size="10.00">memory</text>
</a>
</g>
</g>
<!-- Node2&#45;&gt;Node9 -->
<g id="edge8" class="edge">
<title>Node2&#45;&gt;Node9</title>
<path fill="none" stroke="midnightblue" d="M190.27,-112.44C215.39,-103.4 255.21,-89.06 283.4,-78.92"/>
<polygon fill="midnightblue" stroke="midnightblue" points="284.62,-82.2 292.84,-75.52 282.25,-75.61 284.62,-82.2"/>
</g>
<!-- Node6 -->
<g id="node6" class="node">
<title>Node6</title>
<g id="a_node6"><a xlink:href="event__visitor_8h.html" target="_top" xlink:title=" ">
<polygon fill="none" stroke="black" points="85,-0.5 85,-19.5 174,-19.5 174,-0.5 85,-0.5"/>
<text text-anchor="middle" x="129.5" y="-7.5" font-family="Helvetica,sans-Serif" font-size="10.00">event_visitor.h</text>
</a>
</g>
</g>
<!-- Node5&#45;&gt;Node6 -->
<g id="edge5" class="edge">
<title>Node5&#45;&gt;Node6</title>
<path fill="none" stroke="midnightblue" d="M203.36,-56.32C189.63,-47.9 168.56,-34.97 152.44,-25.07"/>
<polygon fill="midnightblue" stroke="midnightblue" points="153.96,-21.9 143.6,-19.65 150.3,-27.87 153.96,-21.9"/>
</g>
<!-- Node7 -->
<g id="node7" class="node">
<title>Node7</title>
<g id="a_node7"><a xlink:title=" ">
<polygon fill="none" stroke="#bfbfbf" points="192.5,-0.5 192.5,-19.5 242.5,-19.5 242.5,-0.5 192.5,-0.5"/>
<text text-anchor="middle" x="217.5" y="-7.5" font-family="Helvetica,sans-Serif" font-size="10.00">cstdint</text>
</a>
</g>
</g>
<!-- Node5&#45;&gt;Node7 -->
<g id="edge6" class="edge">
<title>Node5&#45;&gt;Node7</title>
<path fill="none" stroke="midnightblue" d="M217.5,-56.08C217.5,-49.01 217.5,-38.86 217.5,-29.99"/>
<polygon fill="midnightblue" stroke="midnightblue" points="221,-29.75 217.5,-19.75 214,-29.75 221,-29.75"/>
</g>
<!-- Node8 -->
<g id="node8" class="node">
<title>Node8</title>
<g id="a_node8"><a xlink:title=" ">
<polygon fill="none" stroke="#bfbfbf" points="260.5,-0.5 260.5,-19.5 304.5,-19.5 304.5,-0.5 260.5,-0.5"/>
<text text-anchor="middle" x="282.5" y="-7.5" font-family="Helvetica,sans-Serif" font-size="10.00">string</text>
</a>
</g>
</g>
<!-- Node5&#45;&gt;Node8 -->
<g id="edge7" class="edge">
<title>Node5&#45;&gt;Node8</title>
<path fill="none" stroke="midnightblue" d="M227.94,-56.32C237.65,-48.26 252.32,-36.08 264,-26.37"/>
<polygon fill="midnightblue" stroke="midnightblue" points="266.41,-28.92 271.87,-19.83 261.94,-23.53 266.41,-28.92"/>
</g>
</g>
</svg>
