<?xml version="1.0" encoding="UTF-8" standalone="no"?>
<!DOCTYPE svg PUBLIC "-//W3C//DTD SVG 1.1//EN"
 "http://www.w3.org/Graphics/SVG/1.1/DTD/svg11.dtd">
<!-- Generated by graphviz version 2.43.0 (0)
 -->
<!-- Title: HealthGPS/event_bus.h Pages: 1 -->
<svg width="575pt" height="252pt"
 viewBox="0.00 0.00 575.00 252.00" xmlns="http://www.w3.org/2000/svg" xmlns:xlink="http://www.w3.org/1999/xlink">
<g id="graph0" class="graph" transform="scale(1 1) rotate(0) translate(4 248)">
<title>HealthGPS/event_bus.h</title>
<!-- Node1 -->
<g id="node1" class="node">
<title>Node1</title>
<g id="a_node1"><a xlink:title=" ">
<polygon fill="#bfbfbf" stroke="black" points="236,-224.5 236,-243.5 367,-243.5 367,-224.5 236,-224.5"/>
<text text-anchor="middle" x="301.5" y="-231.5" font-family="Helvetica,sans-Serif" font-size="10.00">HealthGPS/event_bus.h</text>
</a>
</g>
</g>
<!-- Node2 -->
<g id="node2" class="node">
<title>Node2</title>
<g id="a_node2"><a xlink:href="event__subscriber_8h.html" target="_top" xlink:title=" ">
<polygon fill="none" stroke="black" points="138.5,-168.5 138.5,-187.5 246.5,-187.5 246.5,-168.5 138.5,-168.5"/>
<text text-anchor="middle" x="192.5" y="-175.5" font-family="Helvetica,sans-Serif" font-size="10.00">event_subscriber.h</text>
</a>
</g>
</g>
<!-- Node1&#45;&gt;Node2 -->
<g id="edge1" class="edge">
<title>Node1&#45;&gt;Node2</title>
<path fill="none" stroke="midnightblue" d="M283.99,-224.32C266.43,-215.62 239.17,-202.12 218.97,-192.11"/>
<polygon fill="midnightblue" stroke="midnightblue" points="220.48,-188.96 209.97,-187.65 217.38,-195.23 220.48,-188.96"/>
</g>
<!-- Node4 -->
<g id="node4" class="node">
<title>Node4</title>
<g id="a_node4"><a xlink:title=" ">
<polygon fill="none" stroke="#bfbfbf" points="0,-56.5 0,-75.5 65,-75.5 65,-56.5 0,-56.5"/>
<text text-anchor="middle" x="32.5" y="-63.5" font-family="Helvetica,sans-Serif" font-size="10.00">functional</text>
</a>
</g>
</g>
<!-- Node1&#45;&gt;Node4 -->
<g id="edge10" class="edge">
<title>Node1&#45;&gt;Node4</title>
<path fill="none" stroke="midnightblue" d="M235.84,-225.84C201.97,-219.77 161.22,-208.58 129.5,-188 88.24,-161.23 56.48,-111.06 41.66,-84.51"/>
<polygon fill="midnightblue" stroke="midnightblue" points="44.67,-82.72 36.83,-75.59 38.52,-86.05 44.67,-82.72"/>
</g>
<!-- Node10 -->
<g id="node10" class="node">
<title>Node10</title>
<g id="a_node10"><a xlink:title=" ">
<polygon fill="none" stroke="#bfbfbf" points="287.5,-56.5 287.5,-75.5 345.5,-75.5 345.5,-56.5 287.5,-56.5"/>
<text text-anchor="middle" x="316.5" y="-63.5" font-family="Helvetica,sans-Serif" font-size="10.00">memory</text>
</a>
</g>
</g>
<!-- Node1&#45;&gt;Node10 -->
<g id="edge11" class="edge">
<title>Node1&#45;&gt;Node10</title>
<path fill="none" stroke="midnightblue" d="M299.76,-224.42C298.03,-215.4 295.49,-200.77 294.5,-188 291.66,-151.25 302.66,-109.03 310.12,-85.44"/>
<polygon fill="midnightblue" stroke="midnightblue" points="313.51,-86.32 313.33,-75.73 306.87,-84.12 313.51,-86.32"/>
</g>
<!-- Node11 -->
<g id="node11" class="node">
<title>Node11</title>
<g id="a_node11"><a xlink:title=" ">
<polygon fill="none" stroke="#bfbfbf" points="303.5,-168.5 303.5,-187.5 351.5,-187.5 351.5,-168.5 303.5,-168.5"/>
<text text-anchor="middle" x="327.5" y="-175.5" font-family="Helvetica,sans-Serif" font-size="10.00">mutex</text>
</a>
</g>
</g>
<!-- Node1&#45;&gt;Node11 -->
<g id="edge12" class="edge">
<title>Node1&#45;&gt;Node11</title>
<path fill="none" stroke="midnightblue" d="M305.79,-224.08C309.35,-216.69 314.52,-205.95 318.92,-196.81"/>
<polygon fill="midnightblue" stroke="midnightblue" points="322.1,-198.28 323.29,-187.75 315.79,-195.24 322.1,-198.28"/>
</g>
<!-- Node12 -->
<g id="node12" class="node">
<title>Node12</title>
<g id="a_node12"><a xlink:title=" ">
<polygon fill="none" stroke="#bfbfbf" points="369.5,-168.5 369.5,-187.5 455.5,-187.5 455.5,-168.5 369.5,-168.5"/>
<text text-anchor="middle" x="412.5" y="-175.5" font-family="Helvetica,sans-Serif" font-size="10.00">shared_mutex</text>
</a>
</g>
</g>
<!-- Node1&#45;&gt;Node12 -->
<g id="edge13" class="edge">
<title>Node1&#45;&gt;Node12</title>
<path fill="none" stroke="midnightblue" d="M319.33,-224.32C337.22,-215.62 364.98,-202.12 385.55,-192.11"/>
<polygon fill="midnightblue" stroke="midnightblue" points="387.25,-195.18 394.71,-187.65 384.19,-188.88 387.25,-195.18"/>
</g>
<!-- Node13 -->
<g id="node13" class="node">
<title>Node13</title>
<g id="a_node13"><a xlink:title=" ">
<polygon fill="none" stroke="#bfbfbf" points="474,-168.5 474,-187.5 567,-187.5 567,-168.5 474,-168.5"/>
<text text-anchor="middle" x="520.5" y="-175.5" font-family="Helvetica,sans-Serif" font-size="10.00">unordered_map</text>
</a>
</g>
</g>
<!-- Node1&#45;&gt;Node13 -->
<g id="edge14" class="edge">
<title>Node1&#45;&gt;Node13</title>
<path fill="none" stroke="midnightblue" d="M336.2,-224.44C374.08,-215.1 434.85,-200.12 476.16,-189.93"/>
<polygon fill="midnightblue" stroke="midnightblue" points="477.09,-193.31 485.96,-187.52 475.41,-186.51 477.09,-193.31"/>
</g>
<!-- Node3 -->
<g id="node3" class="node">
<title>Node3</title>
<g id="a_node3"><a xlink:href="event__aggregator_8h.html" target="_top" xlink:title=" ">
<polygon fill="none" stroke="black" points="136,-112.5 136,-131.5 247,-131.5 247,-112.5 136,-112.5"/>
<text text-anchor="middle" x="191.5" y="-119.5" font-family="Helvetica,sans-Serif" font-size="10.00">event_aggregator.h</text>
</a>
</g>
</g>
<!-- Node2&#45;&gt;Node3 -->
<g id="edge2" class="edge">
<title>Node2&#45;&gt;Node3</title>
<path fill="none" stroke="midnightblue" d="M192.33,-168.08C192.2,-161.01 192.02,-150.86 191.85,-141.99"/>
<polygon fill="midnightblue" stroke="midnightblue" points="195.35,-141.68 191.66,-131.75 188.35,-141.81 195.35,-141.68"/>
</g>
<!-- Node3&#45;&gt;Node4 -->
<g id="edge3" class="edge">
<title>Node3&#45;&gt;Node4</title>
<path fill="none" stroke="midnightblue" d="M166.31,-112.44C139.56,-103.36 97.1,-88.94 67.19,-78.78"/>
<polygon fill="midnightblue" stroke="midnightblue" points="68.17,-75.42 57.58,-75.52 65.92,-82.05 68.17,-75.42"/>
</g>
<!-- Node5 -->
<g id="node5" class="node">
<title>Node5</title>
<g id="a_node5"><a xlink:title=" ">
<polygon fill="none" stroke="#bfbfbf" points="83,-56.5 83,-75.5 148,-75.5 148,-56.5 83,-56.5"/>
<text text-anchor="middle" x="115.5" y="-63.5" font-family="Helvetica,sans-Serif" font-size="10.00">stdexcept</text>
</a>
</g>
</g>
<!-- Node3&#45;&gt;Node5 -->
<g id="edge4" class="edge">
<title>Node3&#45;&gt;Node5</title>
<path fill="none" stroke="midnightblue" d="M179.29,-112.32C167.72,-104.11 150.12,-91.6 136.34,-81.81"/>
<polygon fill="midnightblue" stroke="midnightblue" points="138.11,-78.77 127.93,-75.83 134.06,-84.48 138.11,-78.77"/>
</g>
<!-- Node6 -->
<g id="node6" class="node">
<title>Node6</title>
<g id="a_node6"><a xlink:href="event__message_8h.html" target="_top" xlink:title=" ">
<polygon fill="none" stroke="black" points="166,-56.5 166,-75.5 269,-75.5 269,-56.5 166,-56.5"/>
<text text-anchor="middle" x="217.5" y="-63.5" font-family="Helvetica,sans-Serif" font-size="10.00">event_message.h</text>
</a>
</g>
</g>
<!-- Node3&#45;&gt;Node6 -->
<g id="edge5" class="edge">
<title>Node3&#45;&gt;Node6</title>
<path fill="none" stroke="midnightblue" d="M195.79,-112.08C199.35,-104.69 204.52,-93.95 208.92,-84.81"/>
<polygon fill="midnightblue" stroke="midnightblue" points="212.1,-86.28 213.29,-75.75 205.79,-83.24 212.1,-86.28"/>
</g>
<!-- Node3&#45;&gt;Node10 -->
<g id="edge9" class="edge">
<title>Node3&#45;&gt;Node10</title>
<path fill="none" stroke="midnightblue" d="M211.31,-112.44C231.79,-103.6 263.98,-89.69 287.36,-79.59"/>
<polygon fill="midnightblue" stroke="midnightblue" points="288.99,-82.7 296.79,-75.52 286.22,-76.27 288.99,-82.7"/>
</g>
<!-- Node7 -->
<g id="node7" class="node">
<title>Node7</title>
<g id="a_node7"><a xlink:href="event__visitor_8h.html" target="_top" xlink:title=" ">
<polygon fill="none" stroke="black" points="85,-0.5 85,-19.5 174,-19.5 174,-0.5 85,-0.5"/>
<text text-anchor="middle" x="129.5" y="-7.5" font-family="Helvetica,sans-Serif" font-size="10.00">event_visitor.h</text>
</a>
</g>
</g>
<!-- Node6&#45;&gt;Node7 -->
<g id="edge6" class="edge">
<title>Node6&#45;&gt;Node7</title>
<path fill="none" stroke="midnightblue" d="M203.36,-56.32C189.63,-47.9 168.56,-34.97 152.44,-25.07"/>
<polygon fill="midnightblue" stroke="midnightblue" points="153.96,-21.9 143.6,-19.65 150.3,-27.87 153.96,-21.9"/>
</g>
<!-- Node8 -->
<g id="node8" class="node">
<title>Node8</title>
<g id="a_node8"><a xlink:title=" ">
<polygon fill="none" stroke="#bfbfbf" points="192.5,-0.5 192.5,-19.5 242.5,-19.5 242.5,-0.5 192.5,-0.5"/>
<text text-anchor="middle" x="217.5" y="-7.5" font-family="Helvetica,sans-Serif" font-size="10.00">cstdint</text>
</a>
</g>
</g>
<!-- Node6&#45;&gt;Node8 -->
<g id="edge7" class="edge">
<title>Node6&#45;&gt;Node8</title>
<path fill="none" stroke="midnightblue" d="M217.5,-56.08C217.5,-49.01 217.5,-38.86 217.5,-29.99"/>
<polygon fill="midnightblue" stroke="midnightblue" points="221,-29.75 217.5,-19.75 214,-29.75 221,-29.75"/>
</g>
<!-- Node9 -->
<g id="node9" class="node">
<title>Node9</title>
<g id="a_node9"><a xlink:title=" ">
<polygon fill="none" stroke="#bfbfbf" points="260.5,-0.5 260.5,-19.5 304.5,-19.5 304.5,-0.5 260.5,-0.5"/>
<text text-anchor="middle" x="282.5" y="-7.5" font-family="Helvetica,sans-Serif" font-size="10.00">string</text>
</a>
</g>
</g>
<!-- Node6&#45;&gt;Node9 -->
<g id="edge8" class="edge">
<title>Node6&#45;&gt;Node9</title>
<path fill="none" stroke="midnightblue" d="M227.94,-56.32C237.65,-48.26 252.32,-36.08 264,-26.37"/>
<polygon fill="midnightblue" stroke="midnightblue" points="266.41,-28.92 271.87,-19.83 261.94,-23.53 266.41,-28.92"/>
</g>
</g>
</svg>
