<?xml version="1.0" encoding="UTF-8" standalone="no"?>
<!DOCTYPE svg PUBLIC "-//W3C//DTD SVG 1.1//EN"
 "http://www.w3.org/Graphics/SVG/1.1/DTD/svg11.dtd">
<!-- Generated by graphviz version 7.0.6 (20230106.0513)
 -->
<!-- Title: HealthGPS/gender_table.h Pages: 1 -->
<svg width="1988pt" height="533pt"
 viewBox="0.00 0.00 1988.45 533.00" xmlns="http://www.w3.org/2000/svg" xmlns:xlink="http://www.w3.org/1999/xlink">
<g id="graph0" class="graph" transform="scale(1 1) rotate(0) translate(4 529)">
<title>HealthGPS/gender_table.h</title>
<!-- Node1 -->
<g id="node1" class="node">
<title>Node1</title>
<g id="a_node1"><a xlink:title=" ">
<polygon fill="#999999" stroke="#666666" points="810,-525 678,-525 678,-506 810,-506 810,-525"/>
<text text-anchor="middle" x="744" y="-513" font-family="Helvetica,sans-Serif" font-size="10.00">HealthGPS/gender_table.h</text>
</a>
</g>
</g>
<!-- Node2 -->
<g id="node2" class="node">
<title>Node2</title>
<g id="a_node2"><a xlink:href="analysis__definition_8h.html" target="_top" xlink:title=" ">
<polygon fill="white" stroke="#666666" points="1064,-404 960,-404 960,-374 1064,-374 1064,-404"/>
<text text-anchor="start" x="968" y="-392" font-family="Helvetica,sans-Serif" font-size="10.00">HealthGPS/analysis</text>
<text text-anchor="middle" x="1012" y="-381" font-family="Helvetica,sans-Serif" font-size="10.00">_definition.h</text>
</a>
</g>
</g>
<!-- Node1&#45;&gt;Node2 -->
<g id="edge1" class="edge">
<title>Node1&#45;&gt;Node2</title>
<path fill="none" stroke="#63b8ff" d="M821.44,-509.82C885.12,-504.37 968.69,-492.98 993,-470 1010.95,-453.04 1013.31,-422.47 1012.96,-404.43"/>
<polygon fill="#63b8ff" stroke="#63b8ff" points="821.39,-506.32 811.71,-510.62 821.97,-513.29 821.39,-506.32"/>
</g>
<!-- Node13 -->
<g id="node13" class="node">
<title>Node13</title>
<g id="a_node13"><a xlink:href="converter_8h.html" target="_top" xlink:title=" ">
<polygon fill="white" stroke="#666666" points="549,-332.5 433,-332.5 433,-313.5 549,-313.5 549,-332.5"/>
<text text-anchor="middle" x="491" y="-320.5" font-family="Helvetica,sans-Serif" font-size="10.00">HealthGPS/converter.h</text>
</a>
</g>
</g>
<!-- Node1&#45;&gt;Node13 -->
<g id="edge24" class="edge">
<title>Node1&#45;&gt;Node13</title>
<path fill="none" stroke="#63b8ff" d="M666.72,-507.9C601.98,-497.6 514.59,-471.26 479,-404 466.65,-380.66 478.91,-348.46 486.3,-333"/>
<polygon fill="#63b8ff" stroke="#63b8ff" points="665.82,-511.3 676.22,-509.31 666.84,-504.38 665.82,-511.3"/>
</g>
<!-- Node17 -->
<g id="node17" class="node">
<title>Node17</title>
<g id="a_node17"><a xlink:href="baseline__sync__message_8h.html" target="_top" xlink:title=" ">
<polygon fill="white" stroke="#666666" points="106,-272 2,-272 2,-242 106,-242 106,-272"/>
<text text-anchor="start" x="10" y="-260" font-family="Helvetica,sans-Serif" font-size="10.00">HealthGPS/baseline</text>
<text text-anchor="middle" x="54" y="-249" font-family="Helvetica,sans-Serif" font-size="10.00">_sync_message.h</text>
</a>
</g>
</g>
<!-- Node1&#45;&gt;Node17 -->
<g id="edge20" class="edge">
<title>Node1&#45;&gt;Node17</title>
<path fill="none" stroke="#63b8ff" d="M666.57,-509.69C607.19,-504.33 523.84,-493.13 454,-470 299.18,-418.73 132.54,-311.29 74.96,-272.42"/>
<polygon fill="#63b8ff" stroke="#63b8ff" points="665.97,-513.15 676.24,-510.53 666.58,-506.18 665.97,-513.15"/>
</g>
<!-- Node19 -->
<g id="node19" class="node">
<title>Node19</title>
<g id="a_node19"><a xlink:href="default__cancer__model_8h.html" target="_top" xlink:title=" ">
<polygon fill="white" stroke="#666666" points="414.5,-338 283.5,-338 283.5,-308 414.5,-308 414.5,-338"/>
<text text-anchor="start" x="291.5" y="-326" font-family="Helvetica,sans-Serif" font-size="10.00">HealthGPS/default_cancer</text>
<text text-anchor="middle" x="349" y="-315" font-family="Helvetica,sans-Serif" font-size="10.00">_model.h</text>
</a>
</g>
</g>
<!-- Node1&#45;&gt;Node19 -->
<g id="edge25" class="edge">
<title>Node1&#45;&gt;Node19</title>
<path fill="none" stroke="#63b8ff" d="M666.18,-511.24C617.38,-506.56 554.38,-495.56 504,-470 439.05,-437.06 382.27,-368.36 359.55,-338.44"/>
<polygon fill="#63b8ff" stroke="#63b8ff" points="665.86,-514.73 676.13,-512.12 666.47,-507.76 665.86,-514.73"/>
</g>
<!-- Node23 -->
<g id="node23" class="node">
<title>Node23</title>
<g id="a_node23"><a xlink:href="default__disease__model_8h.html" target="_top" xlink:title=" ">
<polygon fill="white" stroke="#666666" points="781,-338 645,-338 645,-308 781,-308 781,-338"/>
<text text-anchor="start" x="653" y="-326" font-family="Helvetica,sans-Serif" font-size="10.00">HealthGPS/default_disease</text>
<text text-anchor="middle" x="713" y="-315" font-family="Helvetica,sans-Serif" font-size="10.00">_model.h</text>
</a>
</g>
</g>
<!-- Node1&#45;&gt;Node23 -->
<g id="edge30" class="edge">
<title>Node1&#45;&gt;Node23</title>
<path fill="none" stroke="#63b8ff" d="M756.72,-496.27C774.32,-468.61 801.71,-414.93 781,-374 773.19,-358.57 758.14,-346.74 744.17,-338.47"/>
<polygon fill="#63b8ff" stroke="#63b8ff" points="753.83,-494.3 751.21,-504.56 759.66,-498.18 753.83,-494.3"/>
</g>
<!-- Node25 -->
<g id="node25" class="node">
<title>Node25</title>
<g id="a_node25"><a xlink:href="demographic_8h.html" target="_top" xlink:title=" ">
<polygon fill="white" stroke="#666666" points="1132,-266.5 1000,-266.5 1000,-247.5 1132,-247.5 1132,-266.5"/>
<text text-anchor="middle" x="1066" y="-254.5" font-family="Helvetica,sans-Serif" font-size="10.00">HealthGPS/demographic.h</text>
</a>
</g>
</g>
<!-- Node1&#45;&gt;Node25 -->
<g id="edge33" class="edge">
<title>Node1&#45;&gt;Node25</title>
<path fill="none" stroke="#63b8ff" d="M763.76,-498.76C824.64,-450.26 1008.03,-304.18 1054.96,-266.79"/>
<polygon fill="#63b8ff" stroke="#63b8ff" points="761.91,-495.76 756.27,-504.73 766.27,-501.23 761.91,-495.76"/>
</g>
<!-- Node26 -->
<g id="node26" class="node">
<title>Node26</title>
<g id="a_node26"><a xlink:href="hierarchical__model__static_8cpp.html" target="_top" xlink:title=" ">
<polygon fill="white" stroke="#666666" points="984,-470 866,-470 866,-440 984,-440 984,-470"/>
<text text-anchor="start" x="874" y="-458" font-family="Helvetica,sans-Serif" font-size="10.00">HealthGPS/hierarchical</text>
<text text-anchor="middle" x="925" y="-447" font-family="Helvetica,sans-Serif" font-size="10.00">_model_static.cpp</text>
</a>
</g>
</g>
<!-- Node1&#45;&gt;Node26 -->
<g id="edge36" class="edge">
<title>Node1&#45;&gt;Node26</title>
<path fill="none" stroke="#63b8ff" d="M782.3,-502.12C810.96,-492.86 850.23,-480.17 880.32,-470.44"/>
<polygon fill="#63b8ff" stroke="#63b8ff" points="781.37,-498.74 772.93,-505.15 783.52,-505.4 781.37,-498.74"/>
</g>
<!-- Node27 -->
<g id="node27" class="node">
<title>Node27</title>
<g id="a_node27"><a xlink:href="relative__risk_8h.html" target="_top" xlink:title=" ">
<polygon fill="white" stroke="#666666" points="683,-470 585,-470 585,-440 683,-440 683,-470"/>
<text text-anchor="start" x="593" y="-458" font-family="Helvetica,sans-Serif" font-size="10.00">HealthGPS/relative</text>
<text text-anchor="middle" x="634" y="-447" font-family="Helvetica,sans-Serif" font-size="10.00">_risk.h</text>
</a>
</g>
</g>
<!-- Node1&#45;&gt;Node27 -->
<g id="edge37" class="edge">
<title>Node1&#45;&gt;Node27</title>
<path fill="none" stroke="#63b8ff" d="M717.42,-500.36C700.37,-491.3 678.31,-479.56 661.15,-470.44"/>
<polygon fill="#63b8ff" stroke="#63b8ff" points="715.48,-503.3 725.96,-504.9 718.77,-497.12 715.48,-503.3"/>
</g>
<!-- Node3 -->
<g id="node3" class="node">
<title>Node3</title>
<g id="a_node3"><a xlink:href="analysis__module_8h.html" target="_top" xlink:title=" ">
<polygon fill="white" stroke="#666666" points="1254,-272 1150,-272 1150,-242 1254,-242 1254,-272"/>
<text text-anchor="start" x="1158" y="-260" font-family="Helvetica,sans-Serif" font-size="10.00">HealthGPS/analysis</text>
<text text-anchor="middle" x="1202" y="-249" font-family="Helvetica,sans-Serif" font-size="10.00">_module.h</text>
</a>
</g>
</g>
<!-- Node2&#45;&gt;Node3 -->
<g id="edge2" class="edge">
<title>Node2&#45;&gt;Node3</title>
<path fill="none" stroke="#63b8ff" d="M1042.28,-367.28C1081.02,-340.78 1147.12,-295.55 1180.85,-272.47"/>
<polygon fill="#63b8ff" stroke="#63b8ff" points="1040.59,-364.2 1034.31,-372.74 1044.54,-369.98 1040.59,-364.2"/>
</g>
<!-- Node2&#45;&gt;Node13 -->
<g id="edge14" class="edge">
<title>Node2&#45;&gt;Node13</title>
<path fill="none" stroke="#63b8ff" d="M948.3,-380.18C846.28,-367.64 647.7,-343.25 549.24,-331.15"/>
<polygon fill="#63b8ff" stroke="#63b8ff" points="947.8,-383.64 958.16,-381.39 948.66,-376.69 947.8,-383.64"/>
</g>
<!-- Node4 -->
<g id="node4" class="node">
<title>Node4</title>
<g id="a_node4"><a xlink:href="analysis__module_8cpp.html" target="_top" xlink:title=" ">
<polygon fill="white" stroke="#666666" points="724,-206 620,-206 620,-176 724,-176 724,-206"/>
<text text-anchor="start" x="628" y="-194" font-family="Helvetica,sans-Serif" font-size="10.00">HealthGPS/analysis</text>
<text text-anchor="middle" x="672" y="-183" font-family="Helvetica,sans-Serif" font-size="10.00">_module.cpp</text>
</a>
</g>
</g>
<!-- Node3&#45;&gt;Node4 -->
<g id="edge3" class="edge">
<title>Node3&#45;&gt;Node4</title>
<path fill="none" stroke="#63b8ff" d="M1138.31,-241.68C982.42,-216.15 809.23,-201.7 724.33,-195.53"/>
<polygon fill="#63b8ff" stroke="#63b8ff" points="1137.58,-245.1 1148.01,-243.29 1138.72,-238.2 1137.58,-245.1"/>
</g>
<!-- Node5 -->
<g id="node5" class="node">
<title>Node5</title>
<g id="a_node5"><a xlink:href="simulation__module_8h.html" target="_top" xlink:title=" ">
<polygon fill="white" stroke="#666666" points="1371.5,-206 1258.5,-206 1258.5,-176 1371.5,-176 1371.5,-206"/>
<text text-anchor="start" x="1266.5" y="-194" font-family="Helvetica,sans-Serif" font-size="10.00">HealthGPS/simulation</text>
<text text-anchor="middle" x="1315" y="-183" font-family="Helvetica,sans-Serif" font-size="10.00">_module.h</text>
</a>
</g>
</g>
<!-- Node3&#45;&gt;Node5 -->
<g id="edge4" class="edge">
<title>Node3&#45;&gt;Node5</title>
<path fill="none" stroke="#63b8ff" d="M1236.99,-236.18C1254.05,-226.52 1274.18,-215.12 1289.73,-206.31"/>
<polygon fill="#63b8ff" stroke="#63b8ff" points="1235.65,-232.92 1228.68,-240.89 1239.1,-239.01 1235.65,-232.92"/>
</g>
<!-- Node6 -->
<g id="node6" class="node">
<title>Node6</title>
<g id="a_node6"><a xlink:href="_health_g_p_s_2api_8h.html" target="_top" xlink:title=" ">
<polygon fill="white" stroke="#666666" points="1389.5,-74 1300.5,-74 1300.5,-55 1389.5,-55 1389.5,-74"/>
<text text-anchor="middle" x="1345" y="-62" font-family="Helvetica,sans-Serif" font-size="10.00">HealthGPS/api.h</text>
</a>
</g>
</g>
<!-- Node5&#45;&gt;Node6 -->
<g id="edge5" class="edge">
<title>Node5&#45;&gt;Node6</title>
<path fill="none" stroke="#63b8ff" d="M1321.07,-164.79C1327.83,-136.77 1338.37,-93.01 1342.86,-74.38"/>
<polygon fill="#63b8ff" stroke="#63b8ff" points="1317.74,-163.71 1318.8,-174.25 1324.54,-165.35 1317.74,-163.71"/>
</g>
<!-- Node8 -->
<g id="node8" class="node">
<title>Node8</title>
<g id="a_node8"><a xlink:href="healthgps_8h.html" target="_top" xlink:title=" ">
<polygon fill="white" stroke="#666666" points="1271.5,-134.5 1152.5,-134.5 1152.5,-115.5 1271.5,-115.5 1271.5,-134.5"/>
<text text-anchor="middle" x="1212" y="-122.5" font-family="Helvetica,sans-Serif" font-size="10.00">HealthGPS/healthgps.h</text>
</a>
</g>
</g>
<!-- Node5&#45;&gt;Node8 -->
<g id="edge7" class="edge">
<title>Node5&#45;&gt;Node8</title>
<path fill="none" stroke="#63b8ff" d="M1282.21,-169.63C1263.45,-157.97 1240.86,-143.93 1226.46,-134.99"/>
<polygon fill="#63b8ff" stroke="#63b8ff" points="1280.26,-172.53 1290.6,-174.84 1283.95,-166.59 1280.26,-172.53"/>
</g>
<!-- Node12 -->
<g id="node12" class="node">
<title>Node12</title>
<g id="a_node12"><a xlink:href="simulation__module_8cpp.html" target="_top" xlink:title=" ">
<polygon fill="white" stroke="#666666" points="1456.5,-140 1343.5,-140 1343.5,-110 1456.5,-110 1456.5,-140"/>
<text text-anchor="start" x="1351.5" y="-128" font-family="Helvetica,sans-Serif" font-size="10.00">HealthGPS/simulation</text>
<text text-anchor="middle" x="1400" y="-117" font-family="Helvetica,sans-Serif" font-size="10.00">_module.cpp</text>
</a>
</g>
</g>
<!-- Node5&#45;&gt;Node12 -->
<g id="edge13" class="edge">
<title>Node5&#45;&gt;Node12</title>
<path fill="none" stroke="#63b8ff" d="M1342.92,-168.97C1355.37,-159.61 1369.7,-148.81 1380.89,-140.39"/>
<polygon fill="#63b8ff" stroke="#63b8ff" points="1340.96,-166.07 1335.07,-174.89 1345.17,-171.67 1340.96,-166.07"/>
</g>
<!-- Node7 -->
<g id="node7" class="node">
<title>Node7</title>
<g id="a_node7"><a xlink:href="program_8cpp.html" target="_top" xlink:title=" ">
<polygon fill="white" stroke="#666666" points="1445.5,-19 1284.5,-19 1284.5,0 1445.5,0 1445.5,-19"/>
<text text-anchor="middle" x="1365" y="-7" font-family="Helvetica,sans-Serif" font-size="10.00">HealthGPS.Console/program.cpp</text>
</a>
</g>
</g>
<!-- Node6&#45;&gt;Node7 -->
<g id="edge6" class="edge">
<title>Node6&#45;&gt;Node7</title>
<path fill="none" stroke="#63b8ff" d="M1352.28,-44.22C1355.47,-35.74 1359.07,-26.21 1361.63,-19.44"/>
<polygon fill="#63b8ff" stroke="#63b8ff" points="1349.09,-42.74 1348.84,-53.33 1355.64,-45.21 1349.09,-42.74"/>
</g>
<!-- Node8&#45;&gt;Node6 -->
<g id="edge11" class="edge">
<title>Node8&#45;&gt;Node6</title>
<path fill="none" stroke="#63b8ff" d="M1242.66,-110.52C1267.82,-99.45 1302.76,-84.08 1324.61,-74.47"/>
<polygon fill="#63b8ff" stroke="#63b8ff" points="1241.33,-107.28 1233.59,-114.51 1244.15,-113.68 1241.33,-107.28"/>
</g>
<!-- Node9 -->
<g id="node9" class="node">
<title>Node9</title>
<g id="a_node9"><a xlink:href="configuration_8h.html" target="_top" xlink:title=" ">
<polygon fill="white" stroke="#666666" points="1282,-74 1112,-74 1112,-55 1282,-55 1282,-74"/>
<text text-anchor="middle" x="1197" y="-62" font-family="Helvetica,sans-Serif" font-size="10.00">HealthGPS.Console/configuration.h</text>
</a>
</g>
</g>
<!-- Node8&#45;&gt;Node9 -->
<g id="edge8" class="edge">
<title>Node8&#45;&gt;Node9</title>
<path fill="none" stroke="#63b8ff" d="M1207,-104.49C1204.36,-94.22 1201.26,-82.13 1199.22,-74.17"/>
<polygon fill="#63b8ff" stroke="#63b8ff" points="1203.54,-105.08 1209.41,-113.9 1210.32,-103.35 1203.54,-105.08"/>
</g>
<!-- Node11 -->
<g id="node11" class="node">
<title>Node11</title>
<g id="a_node11"><a xlink:href="healthgps_8cpp.html" target="_top" xlink:title=" ">
<polygon fill="white" stroke="#666666" points="530.5,-74 401.5,-74 401.5,-55 530.5,-55 530.5,-74"/>
<text text-anchor="middle" x="466" y="-62" font-family="Helvetica,sans-Serif" font-size="10.00">HealthGPS/healthgps.cpp</text>
</a>
</g>
</g>
<!-- Node8&#45;&gt;Node11 -->
<g id="edge12" class="edge">
<title>Node8&#45;&gt;Node11</title>
<path fill="none" stroke="#63b8ff" d="M1140.87,-118.42C996.28,-107.08 669.96,-81.49 530.83,-70.58"/>
<polygon fill="#63b8ff" stroke="#63b8ff" points="1140.46,-121.9 1150.7,-119.19 1141.01,-114.92 1140.46,-121.9"/>
</g>
<!-- Node9&#45;&gt;Node7 -->
<g id="edge10" class="edge">
<title>Node9&#45;&gt;Node7</title>
<path fill="none" stroke="#63b8ff" d="M1236.27,-51.11C1267.03,-41.41 1309.09,-28.14 1336.64,-19.45"/>
<polygon fill="#63b8ff" stroke="#63b8ff" points="1235.43,-47.71 1226.94,-54.05 1237.53,-54.38 1235.43,-47.71"/>
</g>
<!-- Node10 -->
<g id="node10" class="node">
<title>Node10</title>
<g id="a_node10"><a xlink:href="configuration_8cpp.html" target="_top" xlink:title=" ">
<polygon fill="white" stroke="#666666" points="1266,-19 1086,-19 1086,0 1266,0 1266,-19"/>
<text text-anchor="middle" x="1176" y="-7" font-family="Helvetica,sans-Serif" font-size="10.00">HealthGPS.Console/configuration.cpp</text>
</a>
</g>
</g>
<!-- Node9&#45;&gt;Node10 -->
<g id="edge9" class="edge">
<title>Node9&#45;&gt;Node10</title>
<path fill="none" stroke="#63b8ff" d="M1189.36,-44.22C1186,-35.74 1182.22,-26.21 1179.54,-19.44"/>
<polygon fill="#63b8ff" stroke="#63b8ff" points="1186.04,-45.33 1192.97,-53.34 1192.54,-42.75 1186.04,-45.33"/>
</g>
<!-- Node13&#45;&gt;Node4 -->
<g id="edge15" class="edge">
<title>Node13&#45;&gt;Node4</title>
<path fill="none" stroke="#63b8ff" d="M494.12,-301.99C497.94,-283.98 506.12,-257.95 523,-242 549.28,-217.17 588.27,-204.65 619.78,-198.35"/>
<polygon fill="#63b8ff" stroke="#63b8ff" points="490.7,-301.24 492.36,-311.71 497.59,-302.5 490.7,-301.24"/>
</g>
<!-- Node13&#45;&gt;Node11 -->
<g id="edge18" class="edge">
<title>Node13&#45;&gt;Node11</title>
<path fill="none" stroke="#63b8ff" d="M489.03,-301.83C483.93,-249.44 470.4,-110.6 466.86,-74.29"/>
<polygon fill="#63b8ff" stroke="#63b8ff" points="485.54,-302.05 489.99,-311.66 492.51,-301.37 485.54,-302.05"/>
</g>
<!-- Node14 -->
<g id="node14" class="node">
<title>Node14</title>
<g id="a_node14"><a xlink:href="converter_8cpp.html" target="_top" xlink:title=" ">
<polygon fill="white" stroke="#666666" points="400,-266.5 274,-266.5 274,-247.5 400,-247.5 400,-266.5"/>
<text text-anchor="middle" x="337" y="-254.5" font-family="Helvetica,sans-Serif" font-size="10.00">HealthGPS/converter.cpp</text>
</a>
</g>
</g>
<!-- Node13&#45;&gt;Node14 -->
<g id="edge16" class="edge">
<title>Node13&#45;&gt;Node14</title>
<path fill="none" stroke="#63b8ff" d="M459.16,-308.77C428.94,-296.21 384.35,-277.68 358.23,-266.82"/>
<polygon fill="#63b8ff" stroke="#63b8ff" points="457.61,-311.91 468.19,-312.52 460.3,-305.45 457.61,-311.91"/>
</g>
<!-- Node15 -->
<g id="node15" class="node">
<title>Node15</title>
<g id="a_node15"><a xlink:href="demographic_8cpp.html" target="_top" xlink:title=" ">
<polygon fill="white" stroke="#666666" points="437.5,-200.5 294.5,-200.5 294.5,-181.5 437.5,-181.5 437.5,-200.5"/>
<text text-anchor="middle" x="366" y="-188.5" font-family="Helvetica,sans-Serif" font-size="10.00">HealthGPS/demographic.cpp</text>
</a>
</g>
</g>
<!-- Node13&#45;&gt;Node15 -->
<g id="edge17" class="edge">
<title>Node13&#45;&gt;Node15</title>
<path fill="none" stroke="#63b8ff" d="M474.67,-305.02C447.83,-277.11 395.32,-222.49 374.65,-201"/>
<polygon fill="#63b8ff" stroke="#63b8ff" points="471.91,-307.19 481.36,-311.97 476.95,-302.34 471.91,-307.19"/>
</g>
<!-- Node16 -->
<g id="node16" class="node">
<title>Node16</title>
<g id="a_node16"><a xlink:href="repository_8cpp.html" target="_top" xlink:title=" ">
<polygon fill="white" stroke="#666666" points="828,-266.5 698,-266.5 698,-247.5 828,-247.5 828,-266.5"/>
<text text-anchor="middle" x="763" y="-254.5" font-family="Helvetica,sans-Serif" font-size="10.00">HealthGPS/repository.cpp</text>
</a>
</g>
</g>
<!-- Node13&#45;&gt;Node16 -->
<g id="edge19" class="edge">
<title>Node13&#45;&gt;Node16</title>
<path fill="none" stroke="#63b8ff" d="M540.29,-310.4C593.45,-297.89 676.92,-278.25 725.15,-266.91"/>
<polygon fill="#63b8ff" stroke="#63b8ff" points="539.51,-306.99 530.58,-312.69 541.12,-313.8 539.51,-306.99"/>
</g>
<!-- Node17&#45;&gt;Node11 -->
<g id="edge22" class="edge">
<title>Node17&#45;&gt;Node11</title>
<path fill="none" stroke="#63b8ff" d="M95.68,-236.73C183.42,-196.16 384.29,-103.28 446.96,-74.3"/>
<polygon fill="#63b8ff" stroke="#63b8ff" points="94.29,-233.52 86.68,-240.89 97.22,-239.87 94.29,-233.52"/>
</g>
<!-- Node17&#45;&gt;Node15 -->
<g id="edge21" class="edge">
<title>Node17&#45;&gt;Node15</title>
<path fill="none" stroke="#63b8ff" d="M117.43,-241.51C193.47,-225.33 270.58,-210.25 318.73,-200.99"/>
<polygon fill="#63b8ff" stroke="#63b8ff" points="116.75,-238.08 107.7,-243.59 118.21,-244.93 116.75,-238.08"/>
</g>
<!-- Node18 -->
<g id="node18" class="node">
<title>Node18</title>
<g id="a_node18"><a xlink:href="riskfactor__adjustment_8cpp.html" target="_top" xlink:title=" ">
<polygon fill="white" stroke="#666666" points="108,-206 0,-206 0,-176 108,-176 108,-206"/>
<text text-anchor="start" x="8" y="-194" font-family="Helvetica,sans-Serif" font-size="10.00">HealthGPS/riskfactor</text>
<text text-anchor="middle" x="54" y="-183" font-family="Helvetica,sans-Serif" font-size="10.00">_adjustment.cpp</text>
</a>
</g>
</g>
<!-- Node17&#45;&gt;Node18 -->
<g id="edge23" class="edge">
<title>Node17&#45;&gt;Node18</title>
<path fill="none" stroke="#63b8ff" d="M54,-230.39C54,-222.13 54,-213.28 54,-206.16"/>
<polygon fill="#63b8ff" stroke="#63b8ff" points="50.5,-230.28 54,-240.28 57.5,-230.28 50.5,-230.28"/>
</g>
<!-- Node19&#45;&gt;Node14 -->
<g id="edge26" class="edge">
<title>Node19&#45;&gt;Node14</title>
<path fill="none" stroke="#63b8ff" d="M344.24,-296.59C342.26,-286.06 340.1,-274.53 338.66,-266.84"/>
<polygon fill="#63b8ff" stroke="#63b8ff" points="340.77,-297.13 346.06,-306.31 347.65,-295.83 340.77,-297.13"/>
</g>
<!-- Node20 -->
<g id="node20" class="node">
<title>Node20</title>
<g id="a_node20"><a xlink:href="default__cancer__model_8cpp.html" target="_top" xlink:title=" ">
<polygon fill="white" stroke="#666666" points="255.5,-272 124.5,-272 124.5,-242 255.5,-242 255.5,-272"/>
<text text-anchor="start" x="132.5" y="-260" font-family="Helvetica,sans-Serif" font-size="10.00">HealthGPS/default_cancer</text>
<text text-anchor="middle" x="190" y="-249" font-family="Helvetica,sans-Serif" font-size="10.00">_model.cpp</text>
</a>
</g>
</g>
<!-- Node19&#45;&gt;Node20 -->
<g id="edge27" class="edge">
<title>Node19&#45;&gt;Node20</title>
<path fill="none" stroke="#63b8ff" d="M302.81,-303.41C278.29,-293.54 248.6,-281.59 225.84,-272.43"/>
<polygon fill="#63b8ff" stroke="#63b8ff" points="301.33,-306.58 311.91,-307.07 303.94,-300.09 301.33,-306.58"/>
</g>
<!-- Node21 -->
<g id="node21" class="node">
<title>Node21</title>
<g id="a_node21"><a xlink:href="disease__registry_8h.html" target="_top" xlink:title=" ">
<polygon fill="white" stroke="#666666" points="680,-266.5 532,-266.5 532,-247.5 680,-247.5 680,-266.5"/>
<text text-anchor="middle" x="606" y="-254.5" font-family="Helvetica,sans-Serif" font-size="10.00">HealthGPS/disease_registry.h</text>
</a>
</g>
</g>
<!-- Node19&#45;&gt;Node21 -->
<g id="edge28" class="edge">
<title>Node19&#45;&gt;Node21</title>
<path fill="none" stroke="#63b8ff" d="M418.15,-304.78C467.11,-292.59 530.79,-276.73 570.01,-266.96"/>
<polygon fill="#63b8ff" stroke="#63b8ff" points="417.32,-301.38 408.46,-307.19 419.01,-308.17 417.32,-301.38"/>
</g>
<!-- Node22 -->
<g id="node22" class="node">
<title>Node22</title>
<g id="a_node22"><a xlink:href="disease_8cpp.html" target="_top" xlink:title=" ">
<polygon fill="white" stroke="#666666" points="1114.5,-200.5 993.5,-200.5 993.5,-181.5 1114.5,-181.5 1114.5,-200.5"/>
<text text-anchor="middle" x="1054" y="-188.5" font-family="Helvetica,sans-Serif" font-size="10.00">HealthGPS/disease.cpp</text>
</a>
</g>
</g>
<!-- Node21&#45;&gt;Node22 -->
<g id="edge29" class="edge">
<title>Node21&#45;&gt;Node22</title>
<path fill="none" stroke="#63b8ff" d="M669.03,-245.16C675.77,-244.06 682.52,-242.99 689,-242 795.85,-225.67 920.7,-209.11 993.21,-199.74"/>
<polygon fill="#63b8ff" stroke="#63b8ff" points="668.55,-241.69 659.26,-246.77 669.69,-248.6 668.55,-241.69"/>
</g>
<!-- Node23&#45;&gt;Node21 -->
<g id="edge32" class="edge">
<title>Node23&#45;&gt;Node21</title>
<path fill="none" stroke="#63b8ff" d="M679.21,-301.79C659.67,-290.1 636.05,-275.97 621.02,-266.99"/>
<polygon fill="#63b8ff" stroke="#63b8ff" points="677.31,-304.73 687.69,-306.86 680.9,-298.72 677.31,-304.73"/>
</g>
<!-- Node24 -->
<g id="node24" class="node">
<title>Node24</title>
<g id="a_node24"><a xlink:href="default__disease__model_8cpp.html" target="_top" xlink:title=" ">
<polygon fill="white" stroke="#666666" points="982,-272 846,-272 846,-242 982,-242 982,-272"/>
<text text-anchor="start" x="854" y="-260" font-family="Helvetica,sans-Serif" font-size="10.00">HealthGPS/default_disease</text>
<text text-anchor="middle" x="914" y="-249" font-family="Helvetica,sans-Serif" font-size="10.00">_model.cpp</text>
</a>
</g>
</g>
<!-- Node23&#45;&gt;Node24 -->
<g id="edge31" class="edge">
<title>Node23&#45;&gt;Node24</title>
<path fill="none" stroke="#63b8ff" d="M769.16,-304.12C800.61,-294.1 839.32,-281.78 868.81,-272.39"/>
<polygon fill="#63b8ff" stroke="#63b8ff" points="768.27,-300.73 759.8,-307.1 770.39,-307.4 768.27,-300.73"/>
</g>
<!-- Node25&#45;&gt;Node5 -->
<g id="edge35" class="edge">
<title>Node25&#45;&gt;Node5</title>
<path fill="none" stroke="#63b8ff" d="M1112.02,-244.17C1153.46,-233.52 1214.49,-217.83 1258.8,-206.45"/>
<polygon fill="#63b8ff" stroke="#63b8ff" points="1111.16,-240.78 1102.35,-246.66 1112.91,-247.56 1111.16,-240.78"/>
</g>
<!-- Node25&#45;&gt;Node15 -->
<g id="edge34" class="edge">
<title>Node25&#45;&gt;Node15</title>
<path fill="none" stroke="#63b8ff" d="M1010.94,-245.04C1004.24,-243.91 997.48,-242.86 991,-242 885.86,-228.02 578.62,-206.35 437.9,-196.8"/>
<polygon fill="#63b8ff" stroke="#63b8ff" points="1010.16,-248.46 1020.61,-246.75 1011.37,-241.56 1010.16,-248.46"/>
</g>
<!-- Node27&#45;&gt;Node13 -->
<g id="edge38" class="edge">
<title>Node27&#45;&gt;Node13</title>
<path fill="none" stroke="#63b8ff" d="M573.78,-448.32C544.46,-442.19 511.59,-429.63 493,-404 477.5,-382.63 483.91,-348.91 488.24,-332.95"/>
<polygon fill="#63b8ff" stroke="#63b8ff" points="572.85,-451.7 583.32,-450.08 574.13,-444.82 572.85,-451.7"/>
</g>
<!-- Node28 -->
<g id="node28" class="node">
<title>Node28</title>
<g id="a_node28"><a xlink:href="disease__definition_8h.html" target="_top" xlink:title=" ">
<polygon fill="white" stroke="#666666" points="656,-398.5 502,-398.5 502,-379.5 656,-379.5 656,-398.5"/>
<text text-anchor="middle" x="579" y="-386.5" font-family="Helvetica,sans-Serif" font-size="10.00">HealthGPS/disease_definition.h</text>
</a>
</g>
</g>
<!-- Node27&#45;&gt;Node28 -->
<g id="edge39" class="edge">
<title>Node27&#45;&gt;Node28</title>
<path fill="none" stroke="#63b8ff" d="M614.47,-431.28C604.84,-420.07 593.78,-407.19 586.6,-398.84"/>
<polygon fill="#63b8ff" stroke="#63b8ff" points="611.64,-433.35 620.81,-438.65 616.94,-428.78 611.64,-433.35"/>
</g>
<!-- Node39 -->
<g id="node39" class="node">
<title>Node39</title>
<g id="a_node39"><a xlink:href="relative__risk_8cpp.html" target="_top" xlink:title=" ">
<polygon fill="white" stroke="#666666" points="772,-404 674,-404 674,-374 772,-374 772,-404"/>
<text text-anchor="start" x="682" y="-392" font-family="Helvetica,sans-Serif" font-size="10.00">HealthGPS/relative</text>
<text text-anchor="middle" x="723" y="-381" font-family="Helvetica,sans-Serif" font-size="10.00">_risk.cpp</text>
</a>
</g>
</g>
<!-- Node27&#45;&gt;Node39 -->
<g id="edge62" class="edge">
<title>Node27&#45;&gt;Node39</title>
<path fill="none" stroke="#63b8ff" d="M662.86,-433.25C675.97,-423.82 691.16,-412.9 703,-404.39"/>
<polygon fill="#63b8ff" stroke="#63b8ff" points="661.06,-430.23 654.98,-438.91 665.14,-435.92 661.06,-430.23"/>
</g>
<!-- Node28&#45;&gt;Node13 -->
<g id="edge40" class="edge">
<title>Node28&#45;&gt;Node13</title>
<path fill="none" stroke="#63b8ff" d="M557.54,-372.39C540.45,-359.96 517.14,-343.01 503.13,-332.82"/>
<polygon fill="#63b8ff" stroke="#63b8ff" points="555.39,-375.16 565.54,-378.21 559.51,-369.5 555.39,-375.16"/>
</g>
<!-- Node28&#45;&gt;Node19 -->
<g id="edge41" class="edge">
<title>Node28&#45;&gt;Node19</title>
<path fill="none" stroke="#63b8ff" d="M536.25,-376.1C498.01,-365.46 441.86,-349.84 401.03,-338.48"/>
<polygon fill="#63b8ff" stroke="#63b8ff" points="534.99,-379.39 545.56,-378.7 536.87,-372.64 534.99,-379.39"/>
</g>
<!-- Node28&#45;&gt;Node23 -->
<g id="edge42" class="edge">
<title>Node28&#45;&gt;Node23</title>
<path fill="none" stroke="#63b8ff" d="M607.73,-374.28C629.81,-363.73 660.22,-349.21 682.69,-338.48"/>
<polygon fill="#63b8ff" stroke="#63b8ff" points="606.51,-370.98 599,-378.45 609.53,-377.3 606.51,-370.98"/>
</g>
<!-- Node29 -->
<g id="node29" class="node">
<title>Node29</title>
<g id="a_node29"><a xlink:href="repository_8h.html" target="_top" xlink:title=" ">
<polygon fill="white" stroke="#666666" points="1386.5,-332.5 1267.5,-332.5 1267.5,-313.5 1386.5,-313.5 1386.5,-332.5"/>
<text text-anchor="middle" x="1327" y="-320.5" font-family="Helvetica,sans-Serif" font-size="10.00">HealthGPS/repository.h</text>
</a>
</g>
</g>
<!-- Node28&#45;&gt;Node29 -->
<g id="edge43" class="edge">
<title>Node28&#45;&gt;Node29</title>
<path fill="none" stroke="#63b8ff" d="M640.48,-377.33C648.71,-376.1 657.05,-374.95 665,-374 886.18,-347.69 1150.67,-332.61 1267.04,-326.8"/>
<polygon fill="#63b8ff" stroke="#63b8ff" points="640.22,-373.83 630.87,-378.82 641.29,-380.75 640.22,-373.83"/>
</g>
<!-- Node29&#45;&gt;Node3 -->
<g id="edge47" class="edge">
<title>Node29&#45;&gt;Node3</title>
<path fill="none" stroke="#63b8ff" d="M1299.64,-307.99C1279.09,-297.47 1251.04,-283.11 1230.28,-272.48"/>
<polygon fill="#63b8ff" stroke="#63b8ff" points="1297.78,-310.97 1308.27,-312.41 1300.97,-304.74 1297.78,-310.97"/>
</g>
<!-- Node29&#45;&gt;Node16 -->
<g id="edge55" class="edge">
<title>Node29&#45;&gt;Node16</title>
<path fill="none" stroke="#63b8ff" d="M1255.96,-316.66C1160.43,-309.05 985.4,-293.57 837,-272 827.3,-270.59 816.93,-268.8 807.11,-266.98"/>
<polygon fill="#63b8ff" stroke="#63b8ff" points="1255.46,-320.13 1265.7,-317.43 1256.01,-313.16 1255.46,-320.13"/>
</g>
<!-- Node29&#45;&gt;Node25 -->
<g id="edge48" class="edge">
<title>Node29&#45;&gt;Node25</title>
<path fill="none" stroke="#63b8ff" d="M1279.38,-310.32C1228.36,-297.81 1148.5,-278.23 1102.32,-266.91"/>
<polygon fill="#63b8ff" stroke="#63b8ff" points="1278.42,-313.69 1288.96,-312.67 1280.09,-306.89 1278.42,-313.69"/>
</g>
<!-- Node30 -->
<g id="node30" class="node">
<title>Node30</title>
<g id="a_node30"><a xlink:href="model__parser_8h.html" target="_top" xlink:title=" ">
<polygon fill="white" stroke="#666666" points="1965.5,-272 1832.5,-272 1832.5,-242 1965.5,-242 1965.5,-272"/>
<text text-anchor="start" x="1840.5" y="-260" font-family="Helvetica,sans-Serif" font-size="10.00">HealthGPS.Console/model</text>
<text text-anchor="middle" x="1899" y="-249" font-family="Helvetica,sans-Serif" font-size="10.00">_parser.h</text>
</a>
</g>
</g>
<!-- Node29&#45;&gt;Node30 -->
<g id="edge44" class="edge">
<title>Node29&#45;&gt;Node30</title>
<path fill="none" stroke="#63b8ff" d="M1398.3,-315.93C1492.99,-307.57 1665.38,-291.34 1812,-272 1818.52,-271.14 1825.31,-270.17 1832.08,-269.16"/>
<polygon fill="#63b8ff" stroke="#63b8ff" points="1398.02,-312.44 1388.37,-316.8 1398.64,-319.41 1398.02,-312.44"/>
</g>
<!-- Node32 -->
<g id="node32" class="node">
<title>Node32</title>
<g id="a_node32"><a xlink:href="_health_g_p_s_2disease_8h.html" target="_top" xlink:title=" ">
<polygon fill="white" stroke="#666666" points="1382,-266.5 1272,-266.5 1272,-247.5 1382,-247.5 1382,-266.5"/>
<text text-anchor="middle" x="1327" y="-254.5" font-family="Helvetica,sans-Serif" font-size="10.00">HealthGPS/disease.h</text>
</a>
</g>
</g>
<!-- Node29&#45;&gt;Node32 -->
<g id="edge49" class="edge">
<title>Node29&#45;&gt;Node32</title>
<path fill="none" stroke="#63b8ff" d="M1327,-301.68C1327,-289.94 1327,-275.77 1327,-266.82"/>
<polygon fill="#63b8ff" stroke="#63b8ff" points="1323.5,-301.59 1327,-311.59 1330.5,-301.59 1323.5,-301.59"/>
</g>
<!-- Node33 -->
<g id="node33" class="node">
<title>Node33</title>
<g id="a_node33"><a xlink:href="modulefactory_8h.html" target="_top" xlink:title=" ">
<polygon fill="white" stroke="#666666" points="1802.5,-266.5 1665.5,-266.5 1665.5,-247.5 1802.5,-247.5 1802.5,-266.5"/>
<text text-anchor="middle" x="1734" y="-254.5" font-family="Helvetica,sans-Serif" font-size="10.00">HealthGPS/modulefactory.h</text>
</a>
</g>
</g>
<!-- Node29&#45;&gt;Node33 -->
<g id="edge52" class="edge">
<title>Node29&#45;&gt;Node33</title>
<path fill="none" stroke="#63b8ff" d="M1397.94,-311.87C1464.83,-302.17 1567.85,-286.86 1657,-272 1666.38,-270.44 1676.39,-268.68 1685.98,-266.96"/>
<polygon fill="#63b8ff" stroke="#63b8ff" points="1397.59,-308.38 1388.2,-313.28 1398.6,-315.31 1397.59,-308.38"/>
</g>
<!-- Node35 -->
<g id="node35" class="node">
<title>Node35</title>
<g id="a_node35"><a xlink:href="riskfactor_8h.html" target="_top" xlink:title=" ">
<polygon fill="white" stroke="#666666" points="1516,-266.5 1400,-266.5 1400,-247.5 1516,-247.5 1516,-266.5"/>
<text text-anchor="middle" x="1458" y="-254.5" font-family="Helvetica,sans-Serif" font-size="10.00">HealthGPS/riskfactor.h</text>
</a>
</g>
</g>
<!-- Node29&#45;&gt;Node35 -->
<g id="edge56" class="edge">
<title>Node29&#45;&gt;Node35</title>
<path fill="none" stroke="#63b8ff" d="M1355.45,-308.1C1381.12,-295.56 1418.11,-277.49 1439.94,-266.82"/>
<polygon fill="#63b8ff" stroke="#63b8ff" points="1354.02,-304.9 1346.57,-312.44 1357.1,-311.19 1354.02,-304.9"/>
</g>
<!-- Node37 -->
<g id="node37" class="node">
<title>Node37</title>
<g id="a_node37"><a xlink:href="ses__noise__module_8h.html" target="_top" xlink:title=" ">
<polygon fill="white" stroke="#666666" points="1647.5,-272 1534.5,-272 1534.5,-242 1647.5,-242 1647.5,-272"/>
<text text-anchor="start" x="1542.5" y="-260" font-family="Helvetica,sans-Serif" font-size="10.00">HealthGPS/ses_noise</text>
<text text-anchor="middle" x="1591" y="-249" font-family="Helvetica,sans-Serif" font-size="10.00">_module.h</text>
</a>
</g>
</g>
<!-- Node29&#45;&gt;Node37 -->
<g id="edge59" class="edge">
<title>Node29&#45;&gt;Node37</title>
<path fill="none" stroke="#63b8ff" d="M1374.89,-310.39C1419.78,-299.51 1486.9,-283.24 1534.41,-271.72"/>
<polygon fill="#63b8ff" stroke="#63b8ff" points="1374.35,-306.92 1365.46,-312.68 1376,-313.72 1374.35,-306.92"/>
</g>
<!-- Node30&#45;&gt;Node7 -->
<g id="edge46" class="edge">
<title>Node30&#45;&gt;Node7</title>
<path fill="none" stroke="#63b8ff" d="M1939.73,-235.93C1965.74,-220.38 1991.72,-197.86 1975,-176 1909.71,-90.64 1587.22,-39.01 1439.33,-19.47"/>
<polygon fill="#63b8ff" stroke="#63b8ff" points="1938.13,-232.81 1931.16,-240.79 1941.58,-238.9 1938.13,-232.81"/>
</g>
<!-- Node31 -->
<g id="node31" class="node">
<title>Node31</title>
<g id="a_node31"><a xlink:href="model__parser_8cpp.html" target="_top" xlink:title=" ">
<polygon fill="white" stroke="#666666" points="1965.5,-206 1832.5,-206 1832.5,-176 1965.5,-176 1965.5,-206"/>
<text text-anchor="start" x="1840.5" y="-194" font-family="Helvetica,sans-Serif" font-size="10.00">HealthGPS.Console/model</text>
<text text-anchor="middle" x="1899" y="-183" font-family="Helvetica,sans-Serif" font-size="10.00">_parser.cpp</text>
</a>
</g>
</g>
<!-- Node30&#45;&gt;Node31 -->
<g id="edge45" class="edge">
<title>Node30&#45;&gt;Node31</title>
<path fill="none" stroke="#63b8ff" d="M1899,-230.39C1899,-222.13 1899,-213.28 1899,-206.16"/>
<polygon fill="#63b8ff" stroke="#63b8ff" points="1895.5,-230.28 1899,-240.28 1902.5,-230.28 1895.5,-230.28"/>
</g>
<!-- Node32&#45;&gt;Node5 -->
<g id="edge51" class="edge">
<title>Node32&#45;&gt;Node5</title>
<path fill="none" stroke="#63b8ff" d="M1323.27,-236.1C1321.45,-226.43 1319.32,-215.02 1317.67,-206.23"/>
<polygon fill="#63b8ff" stroke="#63b8ff" points="1319.77,-236.43 1325.05,-245.61 1326.65,-235.14 1319.77,-236.43"/>
</g>
<!-- Node32&#45;&gt;Node22 -->
<g id="edge50" class="edge">
<title>Node32&#45;&gt;Node22</title>
<path fill="none" stroke="#63b8ff" d="M1277.86,-244.48C1224.53,-231.98 1140.5,-212.28 1091.99,-200.91"/>
<polygon fill="#63b8ff" stroke="#63b8ff" points="1276.74,-247.81 1287.28,-246.69 1278.34,-241 1276.74,-247.81"/>
</g>
<!-- Node33&#45;&gt;Node5 -->
<g id="edge54" class="edge">
<title>Node33&#45;&gt;Node5</title>
<path fill="none" stroke="#63b8ff" d="M1675.61,-245.07C1669.34,-243.99 1663.04,-242.94 1657,-242 1534.77,-222.93 1502.94,-226.85 1381,-206 1378,-205.49 1374.93,-204.93 1371.83,-204.35"/>
<polygon fill="#63b8ff" stroke="#63b8ff" points="1674.88,-248.49 1685.34,-246.77 1676.09,-241.6 1674.88,-248.49"/>
</g>
<!-- Node34 -->
<g id="node34" class="node">
<title>Node34</title>
<g id="a_node34"><a xlink:href="modulefactory_8cpp.html" target="_top" xlink:title=" ">
<polygon fill="white" stroke="#666666" points="1814,-200.5 1666,-200.5 1666,-181.5 1814,-181.5 1814,-200.5"/>
<text text-anchor="middle" x="1740" y="-188.5" font-family="Helvetica,sans-Serif" font-size="10.00">HealthGPS/modulefactory.cpp</text>
</a>
</g>
</g>
<!-- Node33&#45;&gt;Node34 -->
<g id="edge53" class="edge">
<title>Node33&#45;&gt;Node34</title>
<path fill="none" stroke="#63b8ff" d="M1735.91,-235.68C1737.01,-223.94 1738.33,-209.77 1739.17,-200.82"/>
<polygon fill="#63b8ff" stroke="#63b8ff" points="1732.42,-235.31 1734.98,-245.59 1739.39,-235.96 1732.42,-235.31"/>
</g>
<!-- Node35&#45;&gt;Node5 -->
<g id="edge58" class="edge">
<title>Node35&#45;&gt;Node5</title>
<path fill="none" stroke="#63b8ff" d="M1427.66,-242.42C1404.08,-231.87 1371.43,-217.26 1347.35,-206.48"/>
<polygon fill="#63b8ff" stroke="#63b8ff" points="1426.18,-245.59 1436.73,-246.48 1429.04,-239.2 1426.18,-245.59"/>
</g>
<!-- Node36 -->
<g id="node36" class="node">
<title>Node36</title>
<g id="a_node36"><a xlink:href="riskfactor_8cpp.html" target="_top" xlink:title=" ">
<polygon fill="white" stroke="#666666" points="1516.5,-200.5 1389.5,-200.5 1389.5,-181.5 1516.5,-181.5 1516.5,-200.5"/>
<text text-anchor="middle" x="1453" y="-188.5" font-family="Helvetica,sans-Serif" font-size="10.00">HealthGPS/riskfactor.cpp</text>
</a>
</g>
</g>
<!-- Node35&#45;&gt;Node36 -->
<g id="edge57" class="edge">
<title>Node35&#45;&gt;Node36</title>
<path fill="none" stroke="#63b8ff" d="M1456.41,-235.68C1455.5,-223.94 1454.39,-209.77 1453.69,-200.82"/>
<polygon fill="#63b8ff" stroke="#63b8ff" points="1452.92,-235.9 1457.19,-245.59 1459.9,-235.35 1452.92,-235.9"/>
</g>
<!-- Node37&#45;&gt;Node5 -->
<g id="edge61" class="edge">
<title>Node37&#45;&gt;Node5</title>
<path fill="none" stroke="#63b8ff" d="M1522.96,-240.22C1476.5,-229.45 1415.64,-215.34 1371.78,-205.17"/>
<polygon fill="#63b8ff" stroke="#63b8ff" points="1522.14,-243.63 1532.67,-242.47 1523.72,-236.81 1522.14,-243.63"/>
</g>
<!-- Node38 -->
<g id="node38" class="node">
<title>Node38</title>
<g id="a_node38"><a xlink:href="ses__noise__module_8cpp.html" target="_top" xlink:title=" ">
<polygon fill="white" stroke="#666666" points="1647.5,-206 1534.5,-206 1534.5,-176 1647.5,-176 1647.5,-206"/>
<text text-anchor="start" x="1542.5" y="-194" font-family="Helvetica,sans-Serif" font-size="10.00">HealthGPS/ses_noise</text>
<text text-anchor="middle" x="1591" y="-183" font-family="Helvetica,sans-Serif" font-size="10.00">_module.cpp</text>
</a>
</g>
</g>
<!-- Node37&#45;&gt;Node38 -->
<g id="edge60" class="edge">
<title>Node37&#45;&gt;Node38</title>
<path fill="none" stroke="#63b8ff" d="M1591,-230.39C1591,-222.13 1591,-213.28 1591,-206.16"/>
<polygon fill="#63b8ff" stroke="#63b8ff" points="1587.5,-230.28 1591,-240.28 1594.5,-230.28 1587.5,-230.28"/>
</g>
</g>
</svg>
