<?xml version="1.0" encoding="UTF-8" standalone="no"?>
<!DOCTYPE svg PUBLIC "-//W3C//DTD SVG 1.1//EN"
 "http://www.w3.org/Graphics/SVG/1.1/DTD/svg11.dtd">
<!-- Generated by graphviz version 7.0.6 (20230106.0513)
 -->
<!-- Title: HealthGPS/gender_table.h Pages: 1 -->
<svg width="733pt" height="203pt"
 viewBox="0.00 0.00 732.50 203.00" xmlns="http://www.w3.org/2000/svg" xmlns:xlink="http://www.w3.org/1999/xlink">
<g id="graph0" class="graph" transform="scale(1 1) rotate(0) translate(4 199)">
<title>HealthGPS/gender_table.h</title>
<!-- Node1 -->
<g id="node1" class="node">
<title>Node1</title>
<g id="a_node1"><a xlink:title=" ">
<polygon fill="#999999" stroke="#666666" points="277.5,-195 145.5,-195 145.5,-176 277.5,-176 277.5,-195"/>
<text text-anchor="middle" x="211.5" y="-183" font-family="Helvetica,sans-Serif" font-size="10.00">HealthGPS/gender_table.h</text>
</a>
</g>
</g>
<!-- Node2 -->
<g id="node2" class="node">
<title>Node2</title>
<g id="a_node2"><a xlink:title=" ">
<polygon fill="#e0e0e0" stroke="#999999" points="35,-140 0,-140 0,-121 35,-121 35,-140"/>
<text text-anchor="middle" x="17.5" y="-128" font-family="Helvetica,sans-Serif" font-size="10.00">map</text>
</a>
</g>
</g>
<!-- Node1&#45;&gt;Node2 -->
<g id="edge1" class="edge">
<title>Node1&#45;&gt;Node2</title>
<path fill="none" stroke="#63b8ff" d="M175.29,-175.54C143.48,-167.54 95.73,-155.18 46.27,-140.71"/>
<polygon fill="#63b8ff" stroke="#63b8ff" points="47.39,-137.39 36.81,-137.92 45.41,-144.1 47.39,-137.39"/>
</g>
<!-- Node3 -->
<g id="node3" class="node">
<title>Node3</title>
<g id="a_node3"><a xlink:title=" ">
<polygon fill="#e0e0e0" stroke="#999999" points="104,-140 53,-140 53,-121 104,-121 104,-140"/>
<text text-anchor="middle" x="78.5" y="-128" font-family="Helvetica,sans-Serif" font-size="10.00">numeric</text>
</a>
</g>
</g>
<!-- Node1&#45;&gt;Node3 -->
<g id="edge2" class="edge">
<title>Node1&#45;&gt;Node3</title>
<path fill="none" stroke="#63b8ff" d="M188.94,-175.51C167.6,-167.01 135.34,-154.15 111.19,-144.53"/>
<polygon fill="#63b8ff" stroke="#63b8ff" points="112.72,-141.37 102.13,-140.92 110.13,-147.87 112.72,-141.37"/>
</g>
<!-- Node4 -->
<g id="node4" class="node">
<title>Node4</title>
<g id="a_node4"><a xlink:href="monotonic__vector_8h.html" target="_top" xlink:title=" ">
<polygon fill="white" stroke="#666666" points="223,-140 122,-140 122,-121 223,-121 223,-140"/>
<text text-anchor="middle" x="172.5" y="-128" font-family="Helvetica,sans-Serif" font-size="10.00">monotonic_vector.h</text>
</a>
</g>
</g>
<!-- Node1&#45;&gt;Node4 -->
<g id="edge3" class="edge">
<title>Node1&#45;&gt;Node4</title>
<path fill="none" stroke="#63b8ff" d="M205.06,-175.75C199.84,-168.66 192.31,-158.42 185.81,-149.59"/>
<polygon fill="#63b8ff" stroke="#63b8ff" points="188.72,-147.64 179.98,-141.66 183.08,-151.79 188.72,-147.64"/>
</g>
<!-- Node7 -->
<g id="node7" class="node">
<title>Node7</title>
<g id="a_node7"><a xlink:href="forward__type_8h.html" target="_top" xlink:title=" ">
<polygon fill="white" stroke="#666666" points="309.5,-85 187.5,-85 187.5,-55 309.5,-55 309.5,-85"/>
<text text-anchor="start" x="195.5" y="-73" font-family="Helvetica,sans-Serif" font-size="10.00">HealthGPS.Core/forward</text>
<text text-anchor="middle" x="248.5" y="-62" font-family="Helvetica,sans-Serif" font-size="10.00">_type.h</text>
</a>
</g>
</g>
<!-- Node1&#45;&gt;Node7 -->
<g id="edge9" class="edge">
<title>Node1&#45;&gt;Node7</title>
<path fill="none" stroke="#63b8ff" d="M215.96,-175.83C220.37,-166.99 227.08,-152.81 231.5,-140 236.36,-125.89 240.43,-109.71 243.36,-96.56"/>
<polygon fill="#63b8ff" stroke="#63b8ff" points="246.74,-97.48 245.41,-86.97 239.9,-96.02 246.74,-97.48"/>
</g>
<!-- Node10 -->
<g id="node10" class="node">
<title>Node10</title>
<g id="a_node10"><a xlink:href="array2d_8h.html" target="_top" xlink:title=" ">
<polygon fill="white" stroke="#666666" points="416.5,-140 284.5,-140 284.5,-121 416.5,-121 416.5,-140"/>
<text text-anchor="middle" x="350.5" y="-128" font-family="Helvetica,sans-Serif" font-size="10.00">HealthGPS.Core/array2d.h</text>
</a>
</g>
</g>
<!-- Node1&#45;&gt;Node10 -->
<g id="edge10" class="edge">
<title>Node1&#45;&gt;Node10</title>
<path fill="none" stroke="#63b8ff" d="M235.08,-175.51C257.48,-166.97 291.4,-154.03 316.68,-144.4"/>
<polygon fill="#63b8ff" stroke="#63b8ff" points="317.76,-147.73 325.85,-140.9 315.26,-141.19 317.76,-147.73"/>
</g>
<!-- Node15 -->
<g id="node15" class="node">
<title>Node15</title>
<g id="a_node15"><a xlink:href="interval_8h.html" target="_top" xlink:title=" ">
<polygon fill="white" stroke="#666666" points="603.5,-140 473.5,-140 473.5,-121 603.5,-121 603.5,-140"/>
<text text-anchor="middle" x="538.5" y="-128" font-family="Helvetica,sans-Serif" font-size="10.00">HealthGPS.Core/interval.h</text>
</a>
</g>
</g>
<!-- Node1&#45;&gt;Node15 -->
<g id="edge18" class="edge">
<title>Node1&#45;&gt;Node15</title>
<path fill="none" stroke="#63b8ff" d="M266.97,-175.51C323.55,-166.34 411.36,-152.11 471.72,-142.32"/>
<polygon fill="#63b8ff" stroke="#63b8ff" points="472.23,-145.79 481.54,-140.73 471.11,-138.88 472.23,-145.79"/>
</g>
<!-- Node5 -->
<g id="node5" class="node">
<title>Node5</title>
<g id="a_node5"><a xlink:title=" ">
<polygon fill="#e0e0e0" stroke="#999999" points="91.5,-79.5 49.5,-79.5 49.5,-60.5 91.5,-60.5 91.5,-79.5"/>
<text text-anchor="middle" x="70.5" y="-67.5" font-family="Helvetica,sans-Serif" font-size="10.00">vector</text>
</a>
</g>
</g>
<!-- Node4&#45;&gt;Node5 -->
<g id="edge4" class="edge">
<title>Node4&#45;&gt;Node5</title>
<path fill="none" stroke="#63b8ff" d="M157.01,-120.62C140.83,-111.34 115.2,-96.63 96.02,-85.64"/>
<polygon fill="#63b8ff" stroke="#63b8ff" points="97.87,-82.66 87.45,-80.72 94.38,-88.73 97.87,-82.66"/>
</g>
<!-- Node6 -->
<g id="node6" class="node">
<title>Node6</title>
<g id="a_node6"><a xlink:title=" ">
<polygon fill="#e0e0e0" stroke="#999999" points="169,-79.5 110,-79.5 110,-60.5 169,-60.5 169,-79.5"/>
<text text-anchor="middle" x="139.5" y="-67.5" font-family="Helvetica,sans-Serif" font-size="10.00">stdexcept</text>
</a>
</g>
</g>
<!-- Node4&#45;&gt;Node6 -->
<g id="edge5" class="edge">
<title>Node4&#45;&gt;Node6</title>
<path fill="none" stroke="#63b8ff" d="M167.63,-120.87C163,-112.66 155.88,-100.04 149.97,-89.55"/>
<polygon fill="#63b8ff" stroke="#63b8ff" points="153.09,-87.98 145.13,-80.99 147,-91.41 153.09,-87.98"/>
</g>
<!-- Node4&#45;&gt;Node7 -->
<g id="edge6" class="edge">
<title>Node4&#45;&gt;Node7</title>
<path fill="none" stroke="#63b8ff" d="M184.04,-120.62C193.8,-113.1 208.18,-102.04 220.88,-92.26"/>
<polygon fill="#63b8ff" stroke="#63b8ff" points="222.75,-95.24 228.54,-86.36 218.48,-89.69 222.75,-95.24"/>
</g>
<!-- Node8 -->
<g id="node8" class="node">
<title>Node8</title>
<g id="a_node8"><a xlink:title=" ">
<polygon fill="#e0e0e0" stroke="#999999" points="243.5,-19 181.5,-19 181.5,0 243.5,0 243.5,-19"/>
<text text-anchor="middle" x="212.5" y="-7" font-family="Helvetica,sans-Serif" font-size="10.00">type_traits</text>
</a>
</g>
</g>
<!-- Node7&#45;&gt;Node8 -->
<g id="edge7" class="edge">
<title>Node7&#45;&gt;Node8</title>
<path fill="none" stroke="#63b8ff" d="M239.6,-54.54C234.8,-46.74 228.82,-37.03 223.71,-28.71"/>
<polygon fill="#63b8ff" stroke="#63b8ff" points="226.85,-27.15 218.63,-20.46 220.89,-30.82 226.85,-27.15"/>
</g>
<!-- Node9 -->
<g id="node9" class="node">
<title>Node9</title>
<g id="a_node9"><a xlink:title=" ">
<polygon fill="#e0e0e0" stroke="#999999" points="307.5,-19 261.5,-19 261.5,0 307.5,0 307.5,-19"/>
<text text-anchor="middle" x="284.5" y="-7" font-family="Helvetica,sans-Serif" font-size="10.00">cstdint</text>
</a>
</g>
</g>
<!-- Node7&#45;&gt;Node9 -->
<g id="edge8" class="edge">
<title>Node7&#45;&gt;Node9</title>
<path fill="none" stroke="#63b8ff" d="M257.4,-54.54C262.2,-46.74 268.18,-37.03 273.29,-28.71"/>
<polygon fill="#63b8ff" stroke="#63b8ff" points="276.11,-30.82 278.37,-20.46 270.15,-27.15 276.11,-30.82"/>
</g>
<!-- Node10&#45;&gt;Node5 -->
<g id="edge13" class="edge">
<title>Node10&#45;&gt;Node5</title>
<path fill="none" stroke="#63b8ff" d="M284.1,-122.46C233.06,-115.92 161.24,-104.21 100.5,-85 99.7,-84.75 98.89,-84.48 98.08,-84.19"/>
<polygon fill="#63b8ff" stroke="#63b8ff" points="99.63,-81.04 89.04,-80.5 96.98,-87.52 99.63,-81.04"/>
</g>
<!-- Node10&#45;&gt;Node6 -->
<g id="edge15" class="edge">
<title>Node10&#45;&gt;Node6</title>
<path fill="none" stroke="#63b8ff" d="M311.62,-120.52C276.57,-112.16 223.75,-98.94 178.5,-85 176.95,-84.52 175.38,-84.02 173.79,-83.5"/>
<polygon fill="#63b8ff" stroke="#63b8ff" points="175.34,-80.33 164.74,-80.42 173.08,-86.96 175.34,-80.33"/>
</g>
<!-- Node10&#45;&gt;Node7 -->
<g id="edge11" class="edge">
<title>Node10&#45;&gt;Node7</title>
<path fill="none" stroke="#63b8ff" d="M335.01,-120.62C321.4,-112.81 301.11,-101.17 283.6,-91.13"/>
<polygon fill="#63b8ff" stroke="#63b8ff" points="285.41,-88.13 274.99,-86.19 281.92,-94.2 285.41,-88.13"/>
</g>
<!-- Node11 -->
<g id="node11" class="node">
<title>Node11</title>
<g id="a_node11"><a xlink:title=" ">
<polygon fill="#e0e0e0" stroke="#999999" points="379.5,-79.5 327.5,-79.5 327.5,-60.5 379.5,-60.5 379.5,-79.5"/>
<text text-anchor="middle" x="353.5" y="-67.5" font-family="Helvetica,sans-Serif" font-size="10.00">memory</text>
</a>
</g>
</g>
<!-- Node10&#45;&gt;Node11 -->
<g id="edge12" class="edge">
<title>Node10&#45;&gt;Node11</title>
<path fill="none" stroke="#63b8ff" d="M350.94,-120.87C351.35,-113 351.96,-101.1 352.48,-90.89"/>
<polygon fill="#63b8ff" stroke="#63b8ff" points="355.96,-91.35 352.98,-81.18 348.97,-90.99 355.96,-91.35"/>
</g>
<!-- Node12 -->
<g id="node12" class="node">
<title>Node12</title>
<g id="a_node12"><a xlink:title=" ">
<polygon fill="#e0e0e0" stroke="#999999" points="453.5,-79.5 397.5,-79.5 397.5,-60.5 453.5,-60.5 453.5,-79.5"/>
<text text-anchor="middle" x="425.5" y="-67.5" font-family="Helvetica,sans-Serif" font-size="10.00">algorithm</text>
</a>
</g>
</g>
<!-- Node10&#45;&gt;Node12 -->
<g id="edge14" class="edge">
<title>Node10&#45;&gt;Node12</title>
<path fill="none" stroke="#63b8ff" d="M361.89,-120.62C373.34,-111.68 391.25,-97.72 405.15,-86.87"/>
<polygon fill="#63b8ff" stroke="#63b8ff" points="407.08,-89.81 412.81,-80.9 402.77,-84.29 407.08,-89.81"/>
</g>
<!-- Node13 -->
<g id="node13" class="node">
<title>Node13</title>
<g id="a_node13"><a xlink:title=" ">
<polygon fill="#e0e0e0" stroke="#999999" points="523.5,-79.5 471.5,-79.5 471.5,-60.5 523.5,-60.5 523.5,-79.5"/>
<text text-anchor="middle" x="497.5" y="-67.5" font-family="Helvetica,sans-Serif" font-size="10.00">sstream</text>
</a>
</g>
</g>
<!-- Node10&#45;&gt;Node13 -->
<g id="edge16" class="edge">
<title>Node10&#45;&gt;Node13</title>
<path fill="none" stroke="#63b8ff" d="M372.82,-120.65C395.43,-111.68 431.4,-97.4 462.5,-85 463.28,-84.69 464.06,-84.38 464.85,-84.06"/>
<polygon fill="#63b8ff" stroke="#63b8ff" points="465.89,-87.42 473.88,-80.46 463.29,-80.92 465.89,-87.42"/>
</g>
<!-- Node14 -->
<g id="node14" class="node">
<title>Node14</title>
<g id="a_node14"><a xlink:title=" ">
<polygon fill="#e0e0e0" stroke="#999999" points="609.5,-79.5 541.5,-79.5 541.5,-60.5 609.5,-60.5 609.5,-79.5"/>
<text text-anchor="middle" x="575.5" y="-67.5" font-family="Helvetica,sans-Serif" font-size="10.00">fmt/format.h</text>
</a>
</g>
</g>
<!-- Node10&#45;&gt;Node14 -->
<g id="edge17" class="edge">
<title>Node10&#45;&gt;Node14</title>
<path fill="none" stroke="#63b8ff" d="M390.85,-120.55C427.88,-112.12 484.16,-98.76 532.5,-85 534.45,-84.44 536.45,-83.86 538.47,-83.25"/>
<polygon fill="#63b8ff" stroke="#63b8ff" points="539.27,-86.67 547.77,-80.35 537.18,-79.99 539.27,-86.67"/>
</g>
<!-- Node15&#45;&gt;Node7 -->
<g id="edge19" class="edge">
<title>Node15&#45;&gt;Node7</title>
<path fill="none" stroke="#63b8ff" d="M494.14,-120.55C448.05,-111.25 375.19,-96.56 320.77,-85.58"/>
<polygon fill="#63b8ff" stroke="#63b8ff" points="321.78,-82.21 311.28,-83.66 320.39,-89.07 321.78,-82.21"/>
</g>
<!-- Node15&#45;&gt;Node14 -->
<g id="edge23" class="edge">
<title>Node15&#45;&gt;Node14</title>
<path fill="none" stroke="#63b8ff" d="M543.96,-120.87C549.21,-112.57 557.3,-99.78 563.97,-89.22"/>
<polygon fill="#63b8ff" stroke="#63b8ff" points="566.82,-91.27 569.21,-80.95 560.91,-87.53 566.82,-91.27"/>
</g>
<!-- Node16 -->
<g id="node16" class="node">
<title>Node16</title>
<g id="a_node16"><a xlink:href="string__util_8h.html" target="_top" xlink:title=" ">
<polygon fill="white" stroke="#666666" points="695,-79.5 628,-79.5 628,-60.5 695,-60.5 695,-79.5"/>
<text text-anchor="middle" x="661.5" y="-67.5" font-family="Helvetica,sans-Serif" font-size="10.00">string_util.h</text>
</a>
</g>
</g>
<!-- Node15&#45;&gt;Node16 -->
<g id="edge20" class="edge">
<title>Node15&#45;&gt;Node16</title>
<path fill="none" stroke="#63b8ff" d="M557.18,-120.62C577.14,-111.12 609.04,-95.95 632.32,-84.88"/>
<polygon fill="#63b8ff" stroke="#63b8ff" points="633.75,-88.07 641.28,-80.62 630.74,-81.75 633.75,-88.07"/>
</g>
<!-- Node17 -->
<g id="node17" class="node">
<title>Node17</title>
<g id="a_node17"><a xlink:title=" ">
<polygon fill="#e0e0e0" stroke="#999999" points="648,-19 607,-19 607,0 648,0 648,-19"/>
<text text-anchor="middle" x="627.5" y="-7" font-family="Helvetica,sans-Serif" font-size="10.00">string</text>
</a>
</g>
</g>
<!-- Node16&#45;&gt;Node17 -->
<g id="edge21" class="edge">
<title>Node16&#45;&gt;Node17</title>
<path fill="none" stroke="#63b8ff" d="M656.48,-60.37C651.71,-52.16 644.38,-39.54 638.28,-29.05"/>
<polygon fill="#63b8ff" stroke="#63b8ff" points="641.35,-27.36 633.3,-20.48 635.3,-30.88 641.35,-27.36"/>
</g>
<!-- Node18 -->
<g id="node18" class="node">
<title>Node18</title>
<g id="a_node18"><a xlink:title=" ">
<polygon fill="#e0e0e0" stroke="#999999" points="724.5,-19 666.5,-19 666.5,0 724.5,0 724.5,-19"/>
<text text-anchor="middle" x="695.5" y="-7" font-family="Helvetica,sans-Serif" font-size="10.00">functional</text>
</a>
</g>
</g>
<!-- Node16&#45;&gt;Node18 -->
<g id="edge22" class="edge">
<title>Node16&#45;&gt;Node18</title>
<path fill="none" stroke="#63b8ff" d="M666.52,-60.37C671.29,-52.16 678.62,-39.54 684.72,-29.05"/>
<polygon fill="#63b8ff" stroke="#63b8ff" points="687.7,-30.88 689.7,-20.48 681.65,-27.36 687.7,-30.88"/>
</g>
</g>
</svg>
