<?xml version="1.0" encoding="UTF-8" standalone="no"?>
<!DOCTYPE svg PUBLIC "-//W3C//DTD SVG 1.1//EN"
 "http://www.w3.org/Graphics/SVG/1.1/DTD/svg11.dtd">
<!-- Generated by graphviz version 2.43.0 (0)
 -->
<!-- Title: HealthGPS/gender_value.h Pages: 1 -->
<svg width="2477pt" height="486pt"
 viewBox="0.00 0.00 2477.00 486.00" xmlns="http://www.w3.org/2000/svg" xmlns:xlink="http://www.w3.org/1999/xlink">
<g id="graph0" class="graph" transform="scale(1 1) rotate(0) translate(4 482)">
<title>HealthGPS/gender_value.h</title>
<!-- Node1 -->
<g id="node1" class="node">
<title>Node1</title>
<g id="a_node1"><a xlink:title=" ">
<polygon fill="#bfbfbf" stroke="black" points="1705.5,-458.5 1705.5,-477.5 1851.5,-477.5 1851.5,-458.5 1705.5,-458.5"/>
<text text-anchor="middle" x="1778.5" y="-465.5" font-family="Helvetica,sans-Serif" font-size="10.00">HealthGPS/gender_value.h</text>
</a>
</g>
</g>
<!-- Node2 -->
<g id="node2" class="node">
<title>Node2</title>
<g id="a_node2"><a xlink:href="demographic_8h.html" target="_top" xlink:title=" ">
<polygon fill="none" stroke="black" points="1408.5,-263 1408.5,-282 1552.5,-282 1552.5,-263 1408.5,-263"/>
<text text-anchor="middle" x="1480.5" y="-270" font-family="Helvetica,sans-Serif" font-size="10.00">HealthGPS/demographic.h</text>
</a>
</g>
</g>
<!-- Node1&#45;&gt;Node2 -->
<g id="edge1" class="edge">
<title>Node1&#45;&gt;Node2</title>
<path fill="none" stroke="midnightblue" d="M1715.52,-456.32C1655.67,-442.9 1567.35,-414.05 1515.5,-355 1495.99,-332.78 1486.06,-298.05 1482.31,-282.07"/>
<polygon fill="midnightblue" stroke="midnightblue" points="1715.09,-459.8 1725.6,-458.49 1716.57,-452.96 1715.09,-459.8"/>
</g>
<!-- Node12 -->
<g id="node12" class="node">
<title>Node12</title>
<g id="a_node12"><a xlink:href="disease__definition_8h.html" target="_top" xlink:title=" ">
<polygon fill="none" stroke="black" points="1082,-397 1082,-416 1251,-416 1251,-397 1082,-397"/>
<text text-anchor="middle" x="1166.5" y="-404" font-family="Helvetica,sans-Serif" font-size="10.00">HealthGPS/disease_definition.h</text>
</a>
</g>
</g>
<!-- Node1&#45;&gt;Node12 -->
<g id="edge13" class="edge">
<title>Node1&#45;&gt;Node12</title>
<path fill="none" stroke="midnightblue" d="M1695,-458.88C1578.45,-447.55 1368.18,-427.11 1251.07,-415.72"/>
<polygon fill="midnightblue" stroke="midnightblue" points="1694.99,-462.4 1705.29,-459.88 1695.67,-455.43 1694.99,-462.4"/>
</g>
<!-- Node34 -->
<g id="node34" class="node">
<title>Node34</title>
<g id="a_node34"><a xlink:href="food__labelling__scenario_8h.html" target="_top" xlink:title=" ">
<polygon fill="none" stroke="black" points="1862.5,-391.5 1862.5,-421.5 2002.5,-421.5 2002.5,-391.5 1862.5,-391.5"/>
<text text-anchor="start" x="1870.5" y="-409.5" font-family="Helvetica,sans-Serif" font-size="10.00">HealthGPS/food_labelling</text>
<text text-anchor="middle" x="1932.5" y="-398.5" font-family="Helvetica,sans-Serif" font-size="10.00">_scenario.h</text>
</a>
</g>
</g>
<!-- Node1&#45;&gt;Node34 -->
<g id="edge49" class="edge">
<title>Node1&#45;&gt;Node34</title>
<path fill="none" stroke="midnightblue" d="M1809.95,-454.85C1834.97,-445.18 1870,-431.65 1896.21,-421.52"/>
<polygon fill="midnightblue" stroke="midnightblue" points="1808.63,-451.61 1800.56,-458.48 1811.15,-458.14 1808.63,-451.61"/>
</g>
<!-- Node36 -->
<g id="node36" class="node">
<title>Node36</title>
<g id="a_node36"><a xlink:href="life__table_8h.html" target="_top" xlink:title=" ">
<polygon fill="none" stroke="black" points="1637.5,-397 1637.5,-416 1763.5,-416 1763.5,-397 1637.5,-397"/>
<text text-anchor="middle" x="1700.5" y="-404" font-family="Helvetica,sans-Serif" font-size="10.00">HealthGPS/life_table.h</text>
</a>
</g>
</g>
<!-- Node1&#45;&gt;Node36 -->
<g id="edge52" class="edge">
<title>Node1&#45;&gt;Node36</title>
<path fill="none" stroke="midnightblue" d="M1759.22,-452.29C1744.26,-440.88 1724.04,-425.46 1711.65,-416.01"/>
<polygon fill="midnightblue" stroke="midnightblue" points="1757.25,-455.19 1767.32,-458.48 1761.5,-449.63 1757.25,-455.19"/>
</g>
<!-- Node38 -->
<g id="node38" class="node">
<title>Node38</title>
<g id="a_node38"><a xlink:href="model__result_8h.html" target="_top" xlink:title=" ">
<polygon fill="none" stroke="black" points="2023.5,-397 2023.5,-416 2167.5,-416 2167.5,-397 2023.5,-397"/>
<text text-anchor="middle" x="2095.5" y="-404" font-family="Helvetica,sans-Serif" font-size="10.00">HealthGPS/model_result.h</text>
</a>
</g>
</g>
<!-- Node1&#45;&gt;Node38 -->
<g id="edge56" class="edge">
<title>Node1&#45;&gt;Node38</title>
<path fill="none" stroke="midnightblue" d="M1833.82,-456.62C1895.21,-445.09 1993.12,-426.72 2050.17,-416.01"/>
<polygon fill="midnightblue" stroke="midnightblue" points="1833.1,-453.19 1823.92,-458.48 1834.39,-460.07 1833.1,-453.19"/>
</g>
<!-- Node47 -->
<g id="node47" class="node">
<title>Node47</title>
<g id="a_node47"><a xlink:href="csvparser_8cpp.html" target="_top" xlink:title=" ">
<polygon fill="none" stroke="black" points="2185.5,-397 2185.5,-416 2365.5,-416 2365.5,-397 2185.5,-397"/>
<text text-anchor="middle" x="2275.5" y="-404" font-family="Helvetica,sans-Serif" font-size="10.00">HealthGPS.Console/csvparser.cpp</text>
</a>
</g>
</g>
<!-- Node1&#45;&gt;Node47 -->
<g id="edge68" class="edge">
<title>Node1&#45;&gt;Node47</title>
<path fill="none" stroke="midnightblue" d="M1861.66,-458.4C1942.25,-449.88 2067.88,-436.09 2176.5,-422 2190.45,-420.19 2205.49,-418.07 2219.52,-416.03"/>
<polygon fill="midnightblue" stroke="midnightblue" points="1861.15,-454.93 1851.58,-459.46 1861.89,-461.9 1861.15,-454.93"/>
</g>
<!-- Node3 -->
<g id="node3" class="node">
<title>Node3</title>
<g id="a_node3"><a xlink:href="demographic_8cpp.html" target="_top" xlink:title=" ">
<polygon fill="none" stroke="black" points="1517,-196 1517,-215 1672,-215 1672,-196 1517,-196"/>
<text text-anchor="middle" x="1594.5" y="-203" font-family="Helvetica,sans-Serif" font-size="10.00">HealthGPS/demographic.cpp</text>
</a>
</g>
</g>
<!-- Node2&#45;&gt;Node3 -->
<g id="edge2" class="edge">
<title>Node2&#45;&gt;Node3</title>
<path fill="none" stroke="midnightblue" d="M1504.85,-257.62C1527.44,-244.74 1560.34,-225.98 1579.37,-215.13"/>
<polygon fill="midnightblue" stroke="midnightblue" points="1502.83,-254.74 1495.87,-262.73 1506.3,-260.82 1502.83,-254.74"/>
</g>
<!-- Node4 -->
<g id="node4" class="node">
<title>Node4</title>
<g id="a_node4"><a xlink:href="simulation__module_8h.html" target="_top" xlink:title=" ">
<polygon fill="none" stroke="black" points="959,-190.5 959,-220.5 1082,-220.5 1082,-190.5 959,-190.5"/>
<text text-anchor="start" x="967" y="-208.5" font-family="Helvetica,sans-Serif" font-size="10.00">HealthGPS/simulation</text>
<text text-anchor="middle" x="1020.5" y="-197.5" font-family="Helvetica,sans-Serif" font-size="10.00">_module.h</text>
</a>
</g>
</g>
<!-- Node2&#45;&gt;Node4 -->
<g id="edge3" class="edge">
<title>Node2&#45;&gt;Node4</title>
<path fill="none" stroke="midnightblue" d="M1425.52,-261.19C1416.83,-259.7 1407.93,-258.24 1399.5,-257 1262.72,-236.81 1226.99,-243.04 1090.5,-221 1087.8,-220.56 1085.06,-220.1 1082.28,-219.61"/>
<polygon fill="midnightblue" stroke="midnightblue" points="1425.14,-264.68 1435.59,-262.96 1426.35,-257.78 1425.14,-264.68"/>
</g>
<!-- Node5 -->
<g id="node5" class="node">
<title>Node5</title>
<g id="a_node5"><a xlink:href="HealthGPS_2api_8h.html" target="_top" xlink:title=" ">
<polygon fill="none" stroke="black" points="1442,-62 1442,-81 1537,-81 1537,-62 1442,-62"/>
<text text-anchor="middle" x="1489.5" y="-69" font-family="Helvetica,sans-Serif" font-size="10.00">HealthGPS/api.h</text>
</a>
</g>
</g>
<!-- Node4&#45;&gt;Node5 -->
<g id="edge4" class="edge">
<title>Node4&#45;&gt;Node5</title>
<path fill="none" stroke="midnightblue" d="M1019.23,-180.21C1019.68,-161.72 1023.62,-137.12 1039.5,-123 1069.17,-96.62 1332.2,-80.43 1441.84,-74.77"/>
<polygon fill="midnightblue" stroke="midnightblue" points="1015.73,-180.28 1019.3,-190.26 1022.73,-180.24 1015.73,-180.28"/>
</g>
<!-- Node7 -->
<g id="node7" class="node">
<title>Node7</title>
<g id="a_node7"><a xlink:href="healthgps_8h.html" target="_top" xlink:title=" ">
<polygon fill="none" stroke="black" points="1501.5,-129 1501.5,-148 1629.5,-148 1629.5,-129 1501.5,-129"/>
<text text-anchor="middle" x="1565.5" y="-136" font-family="Helvetica,sans-Serif" font-size="10.00">HealthGPS/healthgps.h</text>
</a>
</g>
</g>
<!-- Node4&#45;&gt;Node7 -->
<g id="edge6" class="edge">
<title>Node4&#45;&gt;Node7</title>
<path fill="none" stroke="midnightblue" d="M1092.26,-189.81C1244.16,-166.47 1411.95,-151.45 1501.47,-144.3"/>
<polygon fill="midnightblue" stroke="midnightblue" points="1091.62,-186.37 1082.28,-191.36 1092.69,-193.28 1091.62,-186.37"/>
</g>
<!-- Node11 -->
<g id="node11" class="node">
<title>Node11</title>
<g id="a_node11"><a xlink:href="simulation__module_8cpp.html" target="_top" xlink:title=" ">
<polygon fill="none" stroke="black" points="1049,-123.5 1049,-153.5 1172,-153.5 1172,-123.5 1049,-123.5"/>
<text text-anchor="start" x="1057" y="-141.5" font-family="Helvetica,sans-Serif" font-size="10.00">HealthGPS/simulation</text>
<text text-anchor="middle" x="1110.5" y="-130.5" font-family="Helvetica,sans-Serif" font-size="10.00">_module.cpp</text>
</a>
</g>
</g>
<!-- Node4&#45;&gt;Node11 -->
<g id="edge12" class="edge">
<title>Node4&#45;&gt;Node11</title>
<path fill="none" stroke="midnightblue" d="M1048.26,-184.45C1062.11,-174.45 1078.52,-162.6 1091.01,-153.58"/>
<polygon fill="midnightblue" stroke="midnightblue" points="1046.09,-181.7 1040.03,-190.4 1050.18,-187.38 1046.09,-181.7"/>
</g>
<!-- Node6 -->
<g id="node6" class="node">
<title>Node6</title>
<g id="a_node6"><a xlink:href="program_8cpp.html" target="_top" xlink:title=" ">
<polygon fill="none" stroke="black" points="1589,-0.5 1589,-19.5 1764,-19.5 1764,-0.5 1589,-0.5"/>
<text text-anchor="middle" x="1676.5" y="-7.5" font-family="Helvetica,sans-Serif" font-size="10.00">HealthGPS.Console/program.cpp</text>
</a>
</g>
</g>
<!-- Node5&#45;&gt;Node6 -->
<g id="edge5" class="edge">
<title>Node5&#45;&gt;Node6</title>
<path fill="none" stroke="midnightblue" d="M1526.02,-58.88C1562.37,-47.32 1617.29,-29.84 1649.76,-19.51"/>
<polygon fill="midnightblue" stroke="midnightblue" points="1524.76,-55.61 1516.29,-61.98 1526.88,-62.28 1524.76,-55.61"/>
</g>
<!-- Node7&#45;&gt;Node5 -->
<g id="edge7" class="edge">
<title>Node7&#45;&gt;Node5</title>
<path fill="none" stroke="midnightblue" d="M1547.63,-122.21C1532.65,-109.41 1511.82,-91.59 1499.59,-81.13"/>
<polygon fill="midnightblue" stroke="midnightblue" points="1545.38,-124.89 1555.25,-128.73 1549.93,-119.57 1545.38,-124.89"/>
</g>
<!-- Node8 -->
<g id="node8" class="node">
<title>Node8</title>
<g id="a_node8"><a xlink:href="healthgps_8cpp.html" target="_top" xlink:title=" ">
<polygon fill="none" stroke="black" points="1555.5,-62 1555.5,-81 1695.5,-81 1695.5,-62 1555.5,-62"/>
<text text-anchor="middle" x="1625.5" y="-69" font-family="Helvetica,sans-Serif" font-size="10.00">HealthGPS/healthgps.cpp</text>
</a>
</g>
</g>
<!-- Node7&#45;&gt;Node8 -->
<g id="edge8" class="edge">
<title>Node7&#45;&gt;Node8</title>
<path fill="none" stroke="midnightblue" d="M1580.61,-121.13C1592.34,-108.42 1608.15,-91.3 1617.54,-81.13"/>
<polygon fill="midnightblue" stroke="midnightblue" points="1577.8,-119.01 1573.59,-128.73 1582.95,-123.76 1577.8,-119.01"/>
</g>
<!-- Node9 -->
<g id="node9" class="node">
<title>Node9</title>
<g id="a_node9"><a xlink:href="configuration_8h.html" target="_top" xlink:title=" ">
<polygon fill="none" stroke="black" points="1713.5,-62 1713.5,-81 1899.5,-81 1899.5,-62 1713.5,-62"/>
<text text-anchor="middle" x="1806.5" y="-69" font-family="Helvetica,sans-Serif" font-size="10.00">HealthGPS.Console/configuration.h</text>
</a>
</g>
</g>
<!-- Node7&#45;&gt;Node9 -->
<g id="edge9" class="edge">
<title>Node7&#45;&gt;Node9</title>
<path fill="none" stroke="midnightblue" d="M1607.2,-126.25C1654.84,-113.41 1731.73,-92.67 1774.75,-81.06"/>
<polygon fill="midnightblue" stroke="midnightblue" points="1606.25,-122.89 1597.5,-128.87 1608.07,-129.64 1606.25,-122.89"/>
</g>
<!-- Node9&#45;&gt;Node6 -->
<g id="edge11" class="edge">
<title>Node9&#45;&gt;Node6</title>
<path fill="none" stroke="midnightblue" d="M1778.48,-57.67C1753.25,-46.13 1716.89,-29.49 1695.09,-19.51"/>
<polygon fill="midnightblue" stroke="midnightblue" points="1777.32,-61 1787.87,-61.98 1780.24,-54.63 1777.32,-61"/>
</g>
<!-- Node10 -->
<g id="node10" class="node">
<title>Node10</title>
<g id="a_node10"><a xlink:href="configuration_8cpp.html" target="_top" xlink:title=" ">
<polygon fill="none" stroke="black" points="1838,-0.5 1838,-19.5 2035,-19.5 2035,-0.5 1838,-0.5"/>
<text text-anchor="middle" x="1936.5" y="-7.5" font-family="Helvetica,sans-Serif" font-size="10.00">HealthGPS.Console/configuration.cpp</text>
</a>
</g>
</g>
<!-- Node9&#45;&gt;Node10 -->
<g id="edge10" class="edge">
<title>Node9&#45;&gt;Node10</title>
<path fill="none" stroke="midnightblue" d="M1834.52,-57.67C1859.75,-46.13 1896.11,-29.49 1917.91,-19.51"/>
<polygon fill="midnightblue" stroke="midnightblue" points="1832.76,-54.63 1825.13,-61.98 1835.68,-61 1832.76,-54.63"/>
</g>
<!-- Node13 -->
<g id="node13" class="node">
<title>Node13</title>
<g id="a_node13"><a xlink:href="converter_8h.html" target="_top" xlink:title=" ">
<polygon fill="none" stroke="black" points="1562.5,-330 1562.5,-349 1688.5,-349 1688.5,-330 1562.5,-330"/>
<text text-anchor="middle" x="1625.5" y="-337" font-family="Helvetica,sans-Serif" font-size="10.00">HealthGPS/converter.h</text>
</a>
</g>
</g>
<!-- Node12&#45;&gt;Node13 -->
<g id="edge14" class="edge">
<title>Node12&#45;&gt;Node13</title>
<path fill="none" stroke="midnightblue" d="M1237.08,-395.51C1326.93,-382.78 1480.64,-361.01 1565.25,-349.03"/>
<polygon fill="midnightblue" stroke="midnightblue" points="1236.39,-392.07 1226.98,-396.94 1237.37,-399 1236.39,-392.07"/>
</g>
<!-- Node17 -->
<g id="node17" class="node">
<title>Node17</title>
<g id="a_node17"><a xlink:href="default__cancer__model_8h.html" target="_top" xlink:title=" ">
<polygon fill="none" stroke="black" points="642,-324.5 642,-354.5 785,-354.5 785,-324.5 642,-324.5"/>
<text text-anchor="start" x="650" y="-342.5" font-family="Helvetica,sans-Serif" font-size="10.00">HealthGPS/default_cancer</text>
<text text-anchor="middle" x="713.5" y="-331.5" font-family="Helvetica,sans-Serif" font-size="10.00">_model.h</text>
</a>
</g>
</g>
<!-- Node12&#45;&gt;Node17 -->
<g id="edge20" class="edge">
<title>Node12&#45;&gt;Node17</title>
<path fill="none" stroke="midnightblue" d="M1096.8,-395.5C1012.32,-383.38 870.69,-363.05 785.28,-350.8"/>
<polygon fill="midnightblue" stroke="midnightblue" points="1096.42,-398.98 1106.81,-396.94 1097.41,-392.05 1096.42,-398.98"/>
</g>
<!-- Node21 -->
<g id="node21" class="node">
<title>Node21</title>
<g id="a_node21"><a xlink:href="default__disease__model_8h.html" target="_top" xlink:title=" ">
<polygon fill="none" stroke="black" points="172,-324.5 172,-354.5 321,-354.5 321,-324.5 172,-324.5"/>
<text text-anchor="start" x="180" y="-342.5" font-family="Helvetica,sans-Serif" font-size="10.00">HealthGPS/default_disease</text>
<text text-anchor="middle" x="246.5" y="-331.5" font-family="Helvetica,sans-Serif" font-size="10.00">_model.h</text>
</a>
</g>
</g>
<!-- Node12&#45;&gt;Node21 -->
<g id="edge25" class="edge">
<title>Node12&#45;&gt;Node21</title>
<path fill="none" stroke="midnightblue" d="M1071.41,-398.78C887.67,-385.8 487.32,-357.51 321.13,-345.77"/>
<polygon fill="midnightblue" stroke="midnightblue" points="1071.38,-402.29 1081.6,-399.5 1071.87,-395.31 1071.38,-402.29"/>
</g>
<!-- Node23 -->
<g id="node23" class="node">
<title>Node23</title>
<g id="a_node23"><a xlink:href="repository_8h.html" target="_top" xlink:title=" ">
<polygon fill="none" stroke="black" points="1102.5,-330 1102.5,-349 1230.5,-349 1230.5,-330 1102.5,-330"/>
<text text-anchor="middle" x="1166.5" y="-337" font-family="Helvetica,sans-Serif" font-size="10.00">HealthGPS/repository.h</text>
</a>
</g>
</g>
<!-- Node12&#45;&gt;Node23 -->
<g id="edge28" class="edge">
<title>Node12&#45;&gt;Node23</title>
<path fill="none" stroke="midnightblue" d="M1166.5,-386.54C1166.5,-374.17 1166.5,-358.62 1166.5,-349.13"/>
<polygon fill="midnightblue" stroke="midnightblue" points="1163,-386.73 1166.5,-396.73 1170,-386.73 1163,-386.73"/>
</g>
<!-- Node13&#45;&gt;Node3 -->
<g id="edge17" class="edge">
<title>Node13&#45;&gt;Node3</title>
<path fill="none" stroke="midnightblue" d="M1669.03,-326.33C1688.02,-318.61 1708.44,-306.5 1719.5,-288 1726.57,-276.17 1727.2,-268.42 1719.5,-257 1704.25,-234.39 1677,-221.91 1651.82,-215.01"/>
<polygon fill="midnightblue" stroke="midnightblue" points="1667.71,-323.08 1659.58,-329.87 1670.17,-329.64 1667.71,-323.08"/>
</g>
<!-- Node13&#45;&gt;Node8 -->
<g id="edge18" class="edge">
<title>Node13&#45;&gt;Node8</title>
<path fill="none" stroke="midnightblue" d="M1677.68,-327.99C1684.67,-326.62 1691.76,-325.26 1698.5,-324 1743.96,-315.49 1873.76,-323.42 1903.5,-288 1912.64,-277.11 1920.72,-217.08 1902.5,-190 1873.56,-146.98 1722.96,-100.03 1656.77,-81.11"/>
<polygon fill="midnightblue" stroke="midnightblue" points="1676.68,-324.62 1667.55,-329.98 1678.03,-331.49 1676.68,-324.62"/>
</g>
<!-- Node14 -->
<g id="node14" class="node">
<title>Node14</title>
<g id="a_node14"><a xlink:href="analysis__module_8cpp.html" target="_top" xlink:title=" ">
<polygon fill="none" stroke="black" points="1781.5,-190.5 1781.5,-220.5 1893.5,-220.5 1893.5,-190.5 1781.5,-190.5"/>
<text text-anchor="start" x="1789.5" y="-208.5" font-family="Helvetica,sans-Serif" font-size="10.00">HealthGPS/analysis</text>
<text text-anchor="middle" x="1837.5" y="-197.5" font-family="Helvetica,sans-Serif" font-size="10.00">_module.cpp</text>
</a>
</g>
</g>
<!-- Node13&#45;&gt;Node14 -->
<g id="edge15" class="edge">
<title>Node13&#45;&gt;Node14</title>
<path fill="none" stroke="midnightblue" d="M1678.23,-327.98C1685.05,-326.63 1691.94,-325.28 1698.5,-324 1740.47,-315.84 1860.24,-320.94 1887.5,-288 1905.49,-266.26 1877.54,-237.45 1856.73,-220.55"/>
<polygon fill="midnightblue" stroke="midnightblue" points="1677.47,-324.56 1668.34,-329.93 1678.83,-331.43 1677.47,-324.56"/>
</g>
<!-- Node15 -->
<g id="node15" class="node">
<title>Node15</title>
<g id="a_node15"><a xlink:href="converter_8cpp.html" target="_top" xlink:title=" ">
<polygon fill="none" stroke="black" points="1091,-263 1091,-282 1228,-282 1228,-263 1091,-263"/>
<text text-anchor="middle" x="1159.5" y="-270" font-family="Helvetica,sans-Serif" font-size="10.00">HealthGPS/converter.cpp</text>
</a>
</g>
</g>
<!-- Node13&#45;&gt;Node15 -->
<g id="edge16" class="edge">
<title>Node13&#45;&gt;Node15</title>
<path fill="none" stroke="midnightblue" d="M1551.95,-330.13C1473.79,-320.96 1346.67,-305.24 1237.5,-288 1226.34,-286.24 1214.33,-284.12 1203.16,-282.05"/>
<polygon fill="midnightblue" stroke="midnightblue" points="1551.84,-333.65 1562.18,-331.33 1552.65,-326.69 1551.84,-333.65"/>
</g>
<!-- Node16 -->
<g id="node16" class="node">
<title>Node16</title>
<g id="a_node16"><a xlink:href="repository_8cpp.html" target="_top" xlink:title=" ">
<polygon fill="none" stroke="black" points="1570.5,-263 1570.5,-282 1710.5,-282 1710.5,-263 1570.5,-263"/>
<text text-anchor="middle" x="1640.5" y="-270" font-family="Helvetica,sans-Serif" font-size="10.00">HealthGPS/repository.cpp</text>
</a>
</g>
</g>
<!-- Node13&#45;&gt;Node16 -->
<g id="edge19" class="edge">
<title>Node13&#45;&gt;Node16</title>
<path fill="none" stroke="midnightblue" d="M1629.79,-319.91C1632.66,-307.49 1636.3,-291.72 1638.51,-282.13"/>
<polygon fill="midnightblue" stroke="midnightblue" points="1626.36,-319.2 1627.52,-329.73 1633.18,-320.78 1626.36,-319.2"/>
</g>
<!-- Node17&#45;&gt;Node15 -->
<g id="edge21" class="edge">
<title>Node17&#45;&gt;Node15</title>
<path fill="none" stroke="midnightblue" d="M795.51,-328.38C870.19,-318.89 983.45,-303.83 1081.5,-288 1092.51,-286.22 1104.37,-284.12 1115.43,-282.07"/>
<polygon fill="midnightblue" stroke="midnightblue" points="794.71,-324.95 785.23,-329.68 795.59,-331.9 794.71,-324.95"/>
</g>
<!-- Node18 -->
<g id="node18" class="node">
<title>Node18</title>
<g id="a_node18"><a xlink:href="default__cancer__model_8cpp.html" target="_top" xlink:title=" ">
<polygon fill="none" stroke="black" points="344,-257.5 344,-287.5 487,-287.5 487,-257.5 344,-257.5"/>
<text text-anchor="start" x="352" y="-275.5" font-family="Helvetica,sans-Serif" font-size="10.00">HealthGPS/default_cancer</text>
<text text-anchor="middle" x="415.5" y="-264.5" font-family="Helvetica,sans-Serif" font-size="10.00">_model.cpp</text>
</a>
</g>
</g>
<!-- Node17&#45;&gt;Node18 -->
<g id="edge22" class="edge">
<title>Node17&#45;&gt;Node18</title>
<path fill="none" stroke="midnightblue" d="M639.3,-322.32C590.32,-311.63 526.79,-297.77 479.94,-287.55"/>
<polygon fill="midnightblue" stroke="midnightblue" points="638.69,-325.76 649.21,-324.48 640.18,-318.93 638.69,-325.76"/>
</g>
<!-- Node19 -->
<g id="node19" class="node">
<title>Node19</title>
<g id="a_node19"><a xlink:href="disease__registry_8h.html" target="_top" xlink:title=" ">
<polygon fill="none" stroke="black" points="167,-263 167,-282 326,-282 326,-263 167,-263"/>
<text text-anchor="middle" x="246.5" y="-270" font-family="Helvetica,sans-Serif" font-size="10.00">HealthGPS/disease_registry.h</text>
</a>
</g>
</g>
<!-- Node17&#45;&gt;Node19 -->
<g id="edge23" class="edge">
<title>Node17&#45;&gt;Node19</title>
<path fill="none" stroke="midnightblue" d="M631.71,-328.34C554.89,-318.62 436.76,-303.23 334.5,-288 322.25,-286.17 309.06,-284.07 296.72,-282.05"/>
<polygon fill="midnightblue" stroke="midnightblue" points="631.45,-331.84 641.81,-329.62 632.32,-324.89 631.45,-331.84"/>
</g>
<!-- Node20 -->
<g id="node20" class="node">
<title>Node20</title>
<g id="a_node20"><a xlink:href="disease_8cpp.html" target="_top" xlink:title=" ">
<polygon fill="none" stroke="black" points="330,-196 330,-215 459,-215 459,-196 330,-196"/>
<text text-anchor="middle" x="394.5" y="-203" font-family="Helvetica,sans-Serif" font-size="10.00">HealthGPS/disease.cpp</text>
</a>
</g>
</g>
<!-- Node19&#45;&gt;Node20 -->
<g id="edge24" class="edge">
<title>Node19&#45;&gt;Node20</title>
<path fill="none" stroke="midnightblue" d="M275.46,-258.78C304.77,-245.91 349.29,-226.35 374.77,-215.17"/>
<polygon fill="midnightblue" stroke="midnightblue" points="273.9,-255.64 266.15,-262.87 276.72,-262.05 273.9,-255.64"/>
</g>
<!-- Node21&#45;&gt;Node19 -->
<g id="edge27" class="edge">
<title>Node21&#45;&gt;Node19</title>
<path fill="none" stroke="midnightblue" d="M246.5,-314.25C246.5,-303.02 246.5,-290.38 246.5,-282.19"/>
<polygon fill="midnightblue" stroke="midnightblue" points="243,-314.4 246.5,-324.4 250,-314.4 243,-314.4"/>
</g>
<!-- Node22 -->
<g id="node22" class="node">
<title>Node22</title>
<g id="a_node22"><a xlink:href="default__disease__model_8cpp.html" target="_top" xlink:title=" ">
<polygon fill="none" stroke="black" points="0,-257.5 0,-287.5 149,-287.5 149,-257.5 0,-257.5"/>
<text text-anchor="start" x="8" y="-275.5" font-family="Helvetica,sans-Serif" font-size="10.00">HealthGPS/default_disease</text>
<text text-anchor="middle" x="74.5" y="-264.5" font-family="Helvetica,sans-Serif" font-size="10.00">_model.cpp</text>
</a>
</g>
</g>
<!-- Node21&#45;&gt;Node22 -->
<g id="edge26" class="edge">
<title>Node21&#45;&gt;Node22</title>
<path fill="none" stroke="midnightblue" d="M199.71,-320.82C172.07,-310.37 137.54,-297.32 111.75,-287.58"/>
<polygon fill="midnightblue" stroke="midnightblue" points="198.59,-324.13 209.18,-324.4 201.06,-317.59 198.59,-324.13"/>
</g>
<!-- Node23&#45;&gt;Node2 -->
<g id="edge32" class="edge">
<title>Node23&#45;&gt;Node2</title>
<path fill="none" stroke="midnightblue" d="M1217.79,-327.88C1279.54,-315.1 1382.04,-293.88 1439.04,-282.08"/>
<polygon fill="midnightblue" stroke="midnightblue" points="1216.96,-324.48 1207.87,-329.94 1218.37,-331.34 1216.96,-324.48"/>
</g>
<!-- Node23&#45;&gt;Node16 -->
<g id="edge39" class="edge">
<title>Node23&#45;&gt;Node16</title>
<path fill="none" stroke="midnightblue" d="M1241.02,-330.2C1320.56,-321.05 1450.19,-305.32 1561.5,-288 1572.8,-286.24 1584.96,-284.12 1596.28,-282.05"/>
<polygon fill="midnightblue" stroke="midnightblue" points="1240.16,-326.77 1230.62,-331.39 1240.95,-333.73 1240.16,-326.77"/>
</g>
<!-- Node24 -->
<g id="node24" class="node">
<title>Node24</title>
<g id="a_node24"><a xlink:href="analysis__module_8h.html" target="_top" xlink:title=" ">
<polygon fill="none" stroke="black" points="1766.5,-257.5 1766.5,-287.5 1878.5,-287.5 1878.5,-257.5 1766.5,-257.5"/>
<text text-anchor="start" x="1774.5" y="-275.5" font-family="Helvetica,sans-Serif" font-size="10.00">HealthGPS/analysis</text>
<text text-anchor="middle" x="1822.5" y="-264.5" font-family="Helvetica,sans-Serif" font-size="10.00">_module.h</text>
</a>
</g>
</g>
<!-- Node23&#45;&gt;Node24 -->
<g id="edge29" class="edge">
<title>Node23&#45;&gt;Node24</title>
<path fill="none" stroke="midnightblue" d="M1240.87,-332.87C1347.16,-324.55 1548.57,-307.82 1719.5,-288 1734.75,-286.23 1751.22,-284.04 1766.43,-281.9"/>
<polygon fill="midnightblue" stroke="midnightblue" points="1240.59,-329.38 1230.89,-333.65 1241.13,-336.36 1240.59,-329.38"/>
</g>
<!-- Node25 -->
<g id="node25" class="node">
<title>Node25</title>
<g id="a_node25"><a xlink:href="HealthGPS_2disease_8h.html" target="_top" xlink:title=" ">
<polygon fill="none" stroke="black" points="505.5,-263 505.5,-282 623.5,-282 623.5,-263 505.5,-263"/>
<text text-anchor="middle" x="564.5" y="-270" font-family="Helvetica,sans-Serif" font-size="10.00">HealthGPS/disease.h</text>
</a>
</g>
</g>
<!-- Node23&#45;&gt;Node25 -->
<g id="edge33" class="edge">
<title>Node23&#45;&gt;Node25</title>
<path fill="none" stroke="midnightblue" d="M1092.05,-334.19C988.55,-327.58 795.52,-313 632.5,-288 622.12,-286.41 610.94,-284.22 600.71,-282.03"/>
<polygon fill="midnightblue" stroke="midnightblue" points="1091.89,-337.69 1102.09,-334.83 1092.33,-330.7 1091.89,-337.69"/>
</g>
<!-- Node26 -->
<g id="node26" class="node">
<title>Node26</title>
<g id="a_node26"><a xlink:href="modulefactory_8h.html" target="_top" xlink:title=" ">
<polygon fill="none" stroke="black" points="641.5,-263 641.5,-282 791.5,-282 791.5,-263 641.5,-263"/>
<text text-anchor="middle" x="716.5" y="-270" font-family="Helvetica,sans-Serif" font-size="10.00">HealthGPS/modulefactory.h</text>
</a>
</g>
</g>
<!-- Node23&#45;&gt;Node26 -->
<g id="edge36" class="edge">
<title>Node23&#45;&gt;Node26</title>
<path fill="none" stroke="midnightblue" d="M1092.12,-328.99C1018.09,-319.34 901.29,-303.65 800.5,-288 788.8,-286.18 776.21,-284.09 764.43,-282.06"/>
<polygon fill="midnightblue" stroke="midnightblue" points="1091.9,-332.49 1102.27,-330.31 1092.81,-325.55 1091.9,-332.49"/>
</g>
<!-- Node28 -->
<g id="node28" class="node">
<title>Node28</title>
<g id="a_node28"><a xlink:href="riskfactor_8h.html" target="_top" xlink:title=" ">
<polygon fill="none" stroke="black" points="809.5,-263 809.5,-282 935.5,-282 935.5,-263 809.5,-263"/>
<text text-anchor="middle" x="872.5" y="-270" font-family="Helvetica,sans-Serif" font-size="10.00">HealthGPS/riskfactor.h</text>
</a>
</g>
</g>
<!-- Node23&#45;&gt;Node28 -->
<g id="edge40" class="edge">
<title>Node23&#45;&gt;Node28</title>
<path fill="none" stroke="midnightblue" d="M1117.76,-327.72C1059.87,-314.92 964.47,-293.83 911.32,-282.08"/>
<polygon fill="midnightblue" stroke="midnightblue" points="1117.24,-331.19 1127.76,-329.94 1118.75,-324.36 1117.24,-331.19"/>
</g>
<!-- Node30 -->
<g id="node30" class="node">
<title>Node30</title>
<g id="a_node30"><a xlink:href="ses__noise__module_8h.html" target="_top" xlink:title=" ">
<polygon fill="none" stroke="black" points="954,-257.5 954,-287.5 1073,-287.5 1073,-257.5 954,-257.5"/>
<text text-anchor="start" x="962" y="-275.5" font-family="Helvetica,sans-Serif" font-size="10.00">HealthGPS/ses_noise</text>
<text text-anchor="middle" x="1013.5" y="-264.5" font-family="Helvetica,sans-Serif" font-size="10.00">_module.h</text>
</a>
</g>
</g>
<!-- Node23&#45;&gt;Node30 -->
<g id="edge43" class="edge">
<title>Node23&#45;&gt;Node30</title>
<path fill="none" stroke="midnightblue" d="M1136.87,-325.91C1110.96,-314.91 1073.39,-298.94 1046.52,-287.53"/>
<polygon fill="midnightblue" stroke="midnightblue" points="1135.61,-329.18 1146.18,-329.87 1138.35,-322.74 1135.61,-329.18"/>
</g>
<!-- Node32 -->
<g id="node32" class="node">
<title>Node32</title>
<g id="a_node32"><a xlink:href="model__parser_8h.html" target="_top" xlink:title=" ">
<polygon fill="none" stroke="black" points="1246.5,-257.5 1246.5,-287.5 1390.5,-287.5 1390.5,-257.5 1246.5,-257.5"/>
<text text-anchor="start" x="1254.5" y="-275.5" font-family="Helvetica,sans-Serif" font-size="10.00">HealthGPS.Console/model</text>
<text text-anchor="middle" x="1318.5" y="-264.5" font-family="Helvetica,sans-Serif" font-size="10.00">_parser.h</text>
</a>
</g>
</g>
<!-- Node23&#45;&gt;Node32 -->
<g id="edge46" class="edge">
<title>Node23&#45;&gt;Node32</title>
<path fill="none" stroke="midnightblue" d="M1195.93,-325.91C1221.67,-314.91 1259.01,-298.94 1285.7,-287.53"/>
<polygon fill="midnightblue" stroke="midnightblue" points="1194.5,-322.72 1186.68,-329.87 1197.26,-329.15 1194.5,-322.72"/>
</g>
<!-- Node24&#45;&gt;Node4 -->
<g id="edge31" class="edge">
<title>Node24&#45;&gt;Node4</title>
<path fill="none" stroke="midnightblue" d="M1756.33,-261.36C1744.11,-259.72 1731.43,-258.18 1719.5,-257 1440.84,-229.46 1368.12,-257.5 1090.5,-221 1087.79,-220.64 1085.03,-220.24 1082.25,-219.81"/>
<polygon fill="midnightblue" stroke="midnightblue" points="1756.09,-264.86 1766.47,-262.75 1757.04,-257.93 1756.09,-264.86"/>
</g>
<!-- Node24&#45;&gt;Node14 -->
<g id="edge30" class="edge">
<title>Node24&#45;&gt;Node14</title>
<path fill="none" stroke="midnightblue" d="M1828.06,-247.4C1830.15,-238.37 1832.44,-228.41 1834.25,-220.58"/>
<polygon fill="midnightblue" stroke="midnightblue" points="1824.59,-246.87 1825.75,-257.4 1831.41,-248.44 1824.59,-246.87"/>
</g>
<!-- Node25&#45;&gt;Node4 -->
<g id="edge35" class="edge">
<title>Node25&#45;&gt;Node4</title>
<path fill="none" stroke="midnightblue" d="M611.54,-260.85C618.54,-259.44 625.7,-258.11 632.5,-257 772.45,-234.19 809.46,-243.21 949.5,-221 952.61,-220.51 955.78,-219.97 958.99,-219.41"/>
<polygon fill="midnightblue" stroke="midnightblue" points="610.52,-257.49 601.43,-262.94 611.94,-264.34 610.52,-257.49"/>
</g>
<!-- Node25&#45;&gt;Node20 -->
<g id="edge34" class="edge">
<title>Node25&#45;&gt;Node20</title>
<path fill="none" stroke="midnightblue" d="M532.52,-259.27C498.78,-246.37 446.48,-226.38 416.9,-215.06"/>
<polygon fill="midnightblue" stroke="midnightblue" points="531.33,-262.57 541.93,-262.87 533.83,-256.03 531.33,-262.57"/>
</g>
<!-- Node26&#45;&gt;Node4 -->
<g id="edge38" class="edge">
<title>Node26&#45;&gt;Node4</title>
<path fill="none" stroke="midnightblue" d="M766.34,-260.84C818.96,-249.59 902.01,-231.83 958.75,-219.7"/>
<polygon fill="midnightblue" stroke="midnightblue" points="765.6,-257.42 756.56,-262.94 767.07,-264.27 765.6,-257.42"/>
</g>
<!-- Node27 -->
<g id="node27" class="node">
<title>Node27</title>
<g id="a_node27"><a xlink:href="modulefactory_8cpp.html" target="_top" xlink:title=" ">
<polygon fill="none" stroke="black" points="625,-196 625,-215 786,-215 786,-196 625,-196"/>
<text text-anchor="middle" x="705.5" y="-203" font-family="Helvetica,sans-Serif" font-size="10.00">HealthGPS/modulefactory.cpp</text>
</a>
</g>
</g>
<!-- Node26&#45;&gt;Node27 -->
<g id="edge37" class="edge">
<title>Node26&#45;&gt;Node27</title>
<path fill="none" stroke="midnightblue" d="M713.29,-252.54C711.2,-240.17 708.57,-224.62 706.96,-215.13"/>
<polygon fill="midnightblue" stroke="midnightblue" points="709.9,-253.46 715.02,-262.73 716.8,-252.29 709.9,-253.46"/>
</g>
<!-- Node28&#45;&gt;Node4 -->
<g id="edge42" class="edge">
<title>Node28&#45;&gt;Node4</title>
<path fill="none" stroke="midnightblue" d="M901.49,-258.77C926.54,-247.77 962.69,-231.89 988.56,-220.53"/>
<polygon fill="midnightblue" stroke="midnightblue" points="899.9,-255.64 892.15,-262.87 902.72,-262.05 899.9,-255.64"/>
</g>
<!-- Node29 -->
<g id="node29" class="node">
<title>Node29</title>
<g id="a_node29"><a xlink:href="riskfactor_8cpp.html" target="_top" xlink:title=" ">
<polygon fill="none" stroke="black" points="804,-196 804,-215 941,-215 941,-196 804,-196"/>
<text text-anchor="middle" x="872.5" y="-203" font-family="Helvetica,sans-Serif" font-size="10.00">HealthGPS/riskfactor.cpp</text>
</a>
</g>
</g>
<!-- Node28&#45;&gt;Node29 -->
<g id="edge41" class="edge">
<title>Node28&#45;&gt;Node29</title>
<path fill="none" stroke="midnightblue" d="M872.5,-252.54C872.5,-240.17 872.5,-224.62 872.5,-215.13"/>
<polygon fill="midnightblue" stroke="midnightblue" points="869,-252.73 872.5,-262.73 876,-252.73 869,-252.73"/>
</g>
<!-- Node30&#45;&gt;Node4 -->
<g id="edge45" class="edge">
<title>Node30&#45;&gt;Node4</title>
<path fill="none" stroke="midnightblue" d="M1016.1,-247.4C1017.07,-238.37 1018.14,-228.41 1018.98,-220.58"/>
<polygon fill="midnightblue" stroke="midnightblue" points="1012.61,-247.08 1015.02,-257.4 1019.57,-247.83 1012.61,-247.08"/>
</g>
<!-- Node31 -->
<g id="node31" class="node">
<title>Node31</title>
<g id="a_node31"><a xlink:href="ses__noise__module_8cpp.html" target="_top" xlink:title=" ">
<polygon fill="none" stroke="black" points="1100,-190.5 1100,-220.5 1219,-220.5 1219,-190.5 1100,-190.5"/>
<text text-anchor="start" x="1108" y="-208.5" font-family="Helvetica,sans-Serif" font-size="10.00">HealthGPS/ses_noise</text>
<text text-anchor="middle" x="1159.5" y="-197.5" font-family="Helvetica,sans-Serif" font-size="10.00">_module.cpp</text>
</a>
</g>
</g>
<!-- Node30&#45;&gt;Node31 -->
<g id="edge44" class="edge">
<title>Node30&#45;&gt;Node31</title>
<path fill="none" stroke="midnightblue" d="M1054.45,-253.27C1077.7,-242.92 1106.37,-230.15 1127.88,-220.58"/>
<polygon fill="midnightblue" stroke="midnightblue" points="1052.89,-250.13 1045.18,-257.4 1055.74,-256.53 1052.89,-250.13"/>
</g>
<!-- Node32&#45;&gt;Node6 -->
<g id="edge48" class="edge">
<title>Node32&#45;&gt;Node6</title>
<path fill="none" stroke="midnightblue" d="M1359.35,-252.17C1372.33,-244.19 1385.6,-233.78 1394.5,-221 1437.56,-159.16 1378.93,-107.96 1433.5,-56 1455.68,-34.88 1528.68,-23.32 1588.93,-17.23"/>
<polygon fill="midnightblue" stroke="midnightblue" points="1357.38,-249.27 1350.48,-257.3 1360.89,-255.33 1357.38,-249.27"/>
</g>
<!-- Node33 -->
<g id="node33" class="node">
<title>Node33</title>
<g id="a_node33"><a xlink:href="model__parser_8cpp.html" target="_top" xlink:title=" ">
<polygon fill="none" stroke="black" points="1241.5,-190.5 1241.5,-220.5 1385.5,-220.5 1385.5,-190.5 1241.5,-190.5"/>
<text text-anchor="start" x="1249.5" y="-208.5" font-family="Helvetica,sans-Serif" font-size="10.00">HealthGPS.Console/model</text>
<text text-anchor="middle" x="1313.5" y="-197.5" font-family="Helvetica,sans-Serif" font-size="10.00">_parser.cpp</text>
</a>
</g>
</g>
<!-- Node32&#45;&gt;Node33 -->
<g id="edge47" class="edge">
<title>Node32&#45;&gt;Node33</title>
<path fill="none" stroke="midnightblue" d="M1316.65,-247.4C1315.95,-238.37 1315.19,-228.41 1314.58,-220.58"/>
<polygon fill="midnightblue" stroke="midnightblue" points="1313.16,-247.69 1317.42,-257.4 1320.14,-247.16 1313.16,-247.69"/>
</g>
<!-- Node34&#45;&gt;Node10 -->
<g id="edge51" class="edge">
<title>Node34&#45;&gt;Node10</title>
<path fill="none" stroke="midnightblue" d="M2012.7,-390.61C2084.41,-377.13 2179.46,-358.83 2187.5,-355 2238.64,-330.63 2285.5,-330.15 2285.5,-273.5 2285.5,-273.5 2285.5,-273.5 2285.5,-137.5 2285.5,-100.31 2294,-81.04 2266.5,-56 2233.42,-25.88 2119.75,-15.73 2035.01,-12.41"/>
<polygon fill="midnightblue" stroke="midnightblue" points="2011.92,-387.19 2002.74,-392.47 2013.22,-394.07 2011.92,-387.19"/>
</g>
<!-- Node35 -->
<g id="node35" class="node">
<title>Node35</title>
<g id="a_node35"><a xlink:href="food__labelling__scenario_8cpp.html" target="_top" xlink:title=" ">
<polygon fill="none" stroke="black" points="1862.5,-324.5 1862.5,-354.5 2002.5,-354.5 2002.5,-324.5 1862.5,-324.5"/>
<text text-anchor="start" x="1870.5" y="-342.5" font-family="Helvetica,sans-Serif" font-size="10.00">HealthGPS/food_labelling</text>
<text text-anchor="middle" x="1932.5" y="-331.5" font-family="Helvetica,sans-Serif" font-size="10.00">_scenario.cpp</text>
</a>
</g>
</g>
<!-- Node34&#45;&gt;Node35 -->
<g id="edge50" class="edge">
<title>Node34&#45;&gt;Node35</title>
<path fill="none" stroke="midnightblue" d="M1932.5,-381.11C1932.5,-372.15 1932.5,-362.32 1932.5,-354.58"/>
<polygon fill="midnightblue" stroke="midnightblue" points="1929,-381.4 1932.5,-391.4 1936,-381.4 1929,-381.4"/>
</g>
<!-- Node36&#45;&gt;Node2 -->
<g id="edge54" class="edge">
<title>Node36&#45;&gt;Node2</title>
<path fill="none" stroke="midnightblue" d="M1648.3,-394.49C1618.79,-386.63 1582.19,-374.03 1553.5,-355 1522.95,-334.74 1496.97,-298.7 1486.04,-282.2"/>
<polygon fill="midnightblue" stroke="midnightblue" points="1647.45,-397.89 1658.01,-396.98 1649.19,-391.11 1647.45,-397.89"/>
</g>
<!-- Node36&#45;&gt;Node13 -->
<g id="edge53" class="edge">
<title>Node36&#45;&gt;Node13</title>
<path fill="none" stroke="midnightblue" d="M1682.45,-389.86C1667.71,-377.08 1647.41,-359.49 1635.45,-349.13"/>
<polygon fill="midnightblue" stroke="midnightblue" points="1680.54,-392.83 1690.39,-396.73 1685.12,-387.54 1680.54,-392.83"/>
</g>
<!-- Node37 -->
<g id="node37" class="node">
<title>Node37</title>
<g id="a_node37"><a xlink:href="life__table_8cpp.html" target="_top" xlink:title=" ">
<polygon fill="none" stroke="black" points="1707,-330 1707,-349 1844,-349 1844,-330 1707,-330"/>
<text text-anchor="middle" x="1775.5" y="-337" font-family="Helvetica,sans-Serif" font-size="10.00">HealthGPS/life_table.cpp</text>
</a>
</g>
</g>
<!-- Node36&#45;&gt;Node37 -->
<g id="edge55" class="edge">
<title>Node36&#45;&gt;Node37</title>
<path fill="none" stroke="midnightblue" d="M1718.55,-389.86C1733.29,-377.08 1753.59,-359.49 1765.55,-349.13"/>
<polygon fill="midnightblue" stroke="midnightblue" points="1715.88,-387.54 1710.61,-396.73 1720.46,-392.83 1715.88,-387.54"/>
</g>
<!-- Node39 -->
<g id="node39" class="node">
<title>Node39</title>
<g id="a_node39"><a xlink:href="model__result_8cpp.html" target="_top" xlink:title=" ">
<polygon fill="none" stroke="black" points="2314,-330 2314,-349 2469,-349 2469,-330 2314,-330"/>
<text text-anchor="middle" x="2391.5" y="-337" font-family="Helvetica,sans-Serif" font-size="10.00">HealthGPS/model_result.cpp</text>
</a>
</g>
</g>
<!-- Node38&#45;&gt;Node39 -->
<g id="edge57" class="edge">
<title>Node38&#45;&gt;Node39</title>
<path fill="none" stroke="midnightblue" d="M2144.57,-394.72C2202.86,-381.92 2298.9,-360.83 2352.41,-349.08"/>
<polygon fill="midnightblue" stroke="midnightblue" points="2143.52,-391.37 2134.5,-396.94 2145.02,-398.21 2143.52,-391.37"/>
</g>
<!-- Node40 -->
<g id="node40" class="node">
<title>Node40</title>
<g id="a_node40"><a xlink:href="result__message_8h.html" target="_top" xlink:title=" ">
<polygon fill="none" stroke="black" points="2020.5,-330 2020.5,-349 2178.5,-349 2178.5,-330 2020.5,-330"/>
<text text-anchor="middle" x="2099.5" y="-337" font-family="Helvetica,sans-Serif" font-size="10.00">HealthGPS/result_message.h</text>
</a>
</g>
</g>
<!-- Node38&#45;&gt;Node40 -->
<g id="edge58" class="edge">
<title>Node38&#45;&gt;Node40</title>
<path fill="none" stroke="midnightblue" d="M2096.67,-386.54C2097.43,-374.17 2098.38,-358.62 2098.97,-349.13"/>
<polygon fill="midnightblue" stroke="midnightblue" points="2093.16,-386.54 2096.04,-396.73 2100.15,-386.97 2093.16,-386.54"/>
</g>
<!-- Node40&#45;&gt;Node24 -->
<g id="edge59" class="edge">
<title>Node40&#45;&gt;Node24</title>
<path fill="none" stroke="midnightblue" d="M2053.17,-327.63C2005.1,-316.35 1929.89,-298.7 1878.51,-286.64"/>
<polygon fill="midnightblue" stroke="midnightblue" points="2052.47,-331.06 2063,-329.94 2054.07,-324.24 2052.47,-331.06"/>
</g>
<!-- Node41 -->
<g id="node41" class="node">
<title>Node41</title>
<g id="a_node41"><a xlink:href="result__message_8cpp.html" target="_top" xlink:title=" ">
<polygon fill="none" stroke="black" points="2082,-263 2082,-282 2251,-282 2251,-263 2082,-263"/>
<text text-anchor="middle" x="2166.5" y="-270" font-family="Helvetica,sans-Serif" font-size="10.00">HealthGPS/result_message.cpp</text>
</a>
</g>
</g>
<!-- Node40&#45;&gt;Node41 -->
<g id="edge60" class="edge">
<title>Node40&#45;&gt;Node41</title>
<path fill="none" stroke="midnightblue" d="M2116,-322.5C2129.14,-309.75 2147.02,-292.39 2157.61,-282.13"/>
<polygon fill="midnightblue" stroke="midnightblue" points="2113.28,-320.26 2108.54,-329.73 2118.15,-325.28 2113.28,-320.26"/>
</g>
<!-- Node42 -->
<g id="node42" class="node">
<title>Node42</title>
<g id="a_node42"><a xlink:href="result__writer_8h.html" target="_top" xlink:title=" ">
<polygon fill="none" stroke="black" points="1984,-190.5 1984,-220.5 2125,-220.5 2125,-190.5 1984,-190.5"/>
<text text-anchor="start" x="1992" y="-208.5" font-family="Helvetica,sans-Serif" font-size="10.00">HealthGPS.Console/result</text>
<text text-anchor="middle" x="2054.5" y="-197.5" font-family="Helvetica,sans-Serif" font-size="10.00">_writer.h</text>
</a>
</g>
</g>
<!-- Node40&#45;&gt;Node42 -->
<g id="edge61" class="edge">
<title>Node40&#45;&gt;Node42</title>
<path fill="none" stroke="midnightblue" d="M2089.15,-321.04C2083.87,-311.53 2077.69,-299.4 2073.5,-288 2065.08,-265.09 2059.53,-237.15 2056.71,-220.65"/>
<polygon fill="midnightblue" stroke="midnightblue" points="2086.2,-322.93 2094.21,-329.86 2092.27,-319.44 2086.2,-322.93"/>
</g>
<!-- Node43 -->
<g id="node43" class="node">
<title>Node43</title>
<g id="a_node43"><a xlink:href="event__monitor_8h.html" target="_top" xlink:title=" ">
<polygon fill="none" stroke="black" points="2116,-123.5 2116,-153.5 2257,-153.5 2257,-123.5 2116,-123.5"/>
<text text-anchor="start" x="2124" y="-141.5" font-family="Helvetica,sans-Serif" font-size="10.00">HealthGPS.Console/event</text>
<text text-anchor="middle" x="2186.5" y="-130.5" font-family="Helvetica,sans-Serif" font-size="10.00">_monitor.h</text>
</a>
</g>
</g>
<!-- Node42&#45;&gt;Node43 -->
<g id="edge62" class="edge">
<title>Node42&#45;&gt;Node43</title>
<path fill="none" stroke="midnightblue" d="M2092.37,-185.85C2113.24,-175.58 2138.73,-163.03 2157.91,-153.58"/>
<polygon fill="midnightblue" stroke="midnightblue" points="2090.57,-182.84 2083.14,-190.4 2093.66,-189.12 2090.57,-182.84"/>
</g>
<!-- Node45 -->
<g id="node45" class="node">
<title>Node45</title>
<g id="a_node45"><a xlink:href="result__file__writer_8h.html" target="_top" xlink:title=" ">
<polygon fill="none" stroke="black" points="1957,-123.5 1957,-153.5 2098,-153.5 2098,-123.5 1957,-123.5"/>
<text text-anchor="start" x="1965" y="-141.5" font-family="Helvetica,sans-Serif" font-size="10.00">HealthGPS.Console/result</text>
<text text-anchor="middle" x="2027.5" y="-130.5" font-family="Helvetica,sans-Serif" font-size="10.00">_file_writer.h</text>
</a>
</g>
</g>
<!-- Node42&#45;&gt;Node45 -->
<g id="edge65" class="edge">
<title>Node42&#45;&gt;Node45</title>
<path fill="none" stroke="midnightblue" d="M2044.73,-180.99C2040.92,-171.8 2036.67,-161.58 2033.35,-153.58"/>
<polygon fill="midnightblue" stroke="midnightblue" points="2041.57,-182.5 2048.64,-190.4 2048.04,-179.82 2041.57,-182.5"/>
</g>
<!-- Node43&#45;&gt;Node6 -->
<g id="edge64" class="edge">
<title>Node43&#45;&gt;Node6</title>
<path fill="none" stroke="midnightblue" d="M2154.27,-117.95C2139.75,-108.87 2122.53,-97.73 2107.5,-87 2089.48,-74.13 2088.95,-64.48 2068.5,-56 2041.09,-44.64 1871.24,-28.05 1764.3,-18.5"/>
<polygon fill="midnightblue" stroke="midnightblue" points="2152.58,-121.02 2162.92,-123.31 2156.27,-115.07 2152.58,-121.02"/>
</g>
<!-- Node44 -->
<g id="node44" class="node">
<title>Node44</title>
<g id="a_node44"><a xlink:href="event__monitor_8cpp.html" target="_top" xlink:title=" ">
<polygon fill="none" stroke="black" points="2116,-56.5 2116,-86.5 2257,-86.5 2257,-56.5 2116,-56.5"/>
<text text-anchor="start" x="2124" y="-74.5" font-family="Helvetica,sans-Serif" font-size="10.00">HealthGPS.Console/event</text>
<text text-anchor="middle" x="2186.5" y="-63.5" font-family="Helvetica,sans-Serif" font-size="10.00">_monitor.cpp</text>
</a>
</g>
</g>
<!-- Node43&#45;&gt;Node44 -->
<g id="edge63" class="edge">
<title>Node43&#45;&gt;Node44</title>
<path fill="none" stroke="midnightblue" d="M2186.5,-113.11C2186.5,-104.15 2186.5,-94.32 2186.5,-86.58"/>
<polygon fill="midnightblue" stroke="midnightblue" points="2183,-113.4 2186.5,-123.4 2190,-113.4 2183,-113.4"/>
</g>
<!-- Node45&#45;&gt;Node9 -->
<g id="edge66" class="edge">
<title>Node45&#45;&gt;Node9</title>
<path fill="none" stroke="midnightblue" d="M1970.01,-120.59C1926.85,-107.9 1869.55,-91.04 1835.5,-81.03"/>
<polygon fill="midnightblue" stroke="midnightblue" points="1969.24,-124.01 1979.82,-123.48 1971.21,-117.3 1969.24,-124.01"/>
</g>
<!-- Node46 -->
<g id="node46" class="node">
<title>Node46</title>
<g id="a_node46"><a xlink:href="result__file__writer_8cpp.html" target="_top" xlink:title=" ">
<polygon fill="none" stroke="black" points="1918,-56.5 1918,-86.5 2059,-86.5 2059,-56.5 1918,-56.5"/>
<text text-anchor="start" x="1926" y="-74.5" font-family="Helvetica,sans-Serif" font-size="10.00">HealthGPS.Console/result</text>
<text text-anchor="middle" x="1988.5" y="-63.5" font-family="Helvetica,sans-Serif" font-size="10.00">_file_writer.cpp</text>
</a>
</g>
</g>
<!-- Node45&#45;&gt;Node46 -->
<g id="edge67" class="edge">
<title>Node45&#45;&gt;Node46</title>
<path fill="none" stroke="midnightblue" d="M2013.75,-114.58C2008.14,-105.24 2001.85,-94.75 1996.95,-86.58"/>
<polygon fill="midnightblue" stroke="midnightblue" points="2010.89,-116.62 2019.04,-123.4 2016.89,-113.02 2010.89,-116.62"/>
</g>
</g>
</svg>
