<?xml version="1.0" encoding="UTF-8" standalone="no"?>
<!DOCTYPE svg PUBLIC "-//W3C//DTD SVG 1.1//EN"
 "http://www.w3.org/Graphics/SVG/1.1/DTD/svg11.dtd">
<!-- Generated by graphviz version 2.43.0 (0)
 -->
<!-- Title: HealthGPS/gender_table.h Pages: 1 -->
<svg width="747pt" height="196pt"
 viewBox="0.00 0.00 747.00 196.00" xmlns="http://www.w3.org/2000/svg" xmlns:xlink="http://www.w3.org/1999/xlink">
<g id="graph0" class="graph" transform="scale(1 1) rotate(0) translate(4 192)">
<title>HealthGPS/gender_table.h</title>
<!-- Node1 -->
<g id="node1" class="node">
<title>Node1</title>
<g id="a_node1"><a xlink:title=" ">
<polygon fill="#bfbfbf" stroke="black" points="118,-168.5 118,-187.5 262,-187.5 262,-168.5 118,-168.5"/>
<text text-anchor="middle" x="190" y="-175.5" font-family="Helvetica,sans-Serif" font-size="10.00">HealthGPS/gender_table.h</text>
</a>
</g>
</g>
<!-- Node2 -->
<g id="node2" class="node">
<title>Node2</title>
<g id="a_node2"><a xlink:title=" ">
<polygon fill="none" stroke="#bfbfbf" points="0,-112.5 0,-131.5 38,-131.5 38,-112.5 0,-112.5"/>
<text text-anchor="middle" x="19" y="-119.5" font-family="Helvetica,sans-Serif" font-size="10.00">map</text>
</a>
</g>
</g>
<!-- Node1&#45;&gt;Node2 -->
<g id="edge1" class="edge">
<title>Node1&#45;&gt;Node2</title>
<path fill="none" stroke="midnightblue" d="M162.57,-168.42C135.68,-160 93.29,-146.7 47.98,-132.3"/>
<polygon fill="midnightblue" stroke="midnightblue" points="48.87,-128.91 38.27,-129.21 46.74,-135.58 48.87,-128.91"/>
</g>
<!-- Node3 -->
<g id="node3" class="node">
<title>Node3</title>
<g id="a_node3"><a xlink:title=" ">
<polygon fill="none" stroke="#bfbfbf" points="56,-112.5 56,-131.5 112,-131.5 112,-112.5 56,-112.5"/>
<text text-anchor="middle" x="84" y="-119.5" font-family="Helvetica,sans-Serif" font-size="10.00">numeric</text>
</a>
</g>
</g>
<!-- Node1&#45;&gt;Node3 -->
<g id="edge2" class="edge">
<title>Node1&#45;&gt;Node3</title>
<path fill="none" stroke="midnightblue" d="M172.97,-168.32C155.97,-159.66 129.62,-146.24 110.01,-136.25"/>
<polygon fill="midnightblue" stroke="midnightblue" points="111.49,-133.08 100.99,-131.65 108.31,-139.31 111.49,-133.08"/>
</g>
<!-- Node4 -->
<g id="node4" class="node">
<title>Node4</title>
<g id="a_node4"><a xlink:href="array2d_8h.html" target="_top" xlink:title=" ">
<polygon fill="none" stroke="black" points="460.5,-112.5 460.5,-131.5 603.5,-131.5 603.5,-112.5 460.5,-112.5"/>
<text text-anchor="middle" x="532" y="-119.5" font-family="Helvetica,sans-Serif" font-size="10.00">HealthGPS.Core/array2d.h</text>
</a>
</g>
</g>
<!-- Node1&#45;&gt;Node4 -->
<g id="edge3" class="edge">
<title>Node1&#45;&gt;Node4</title>
<path fill="none" stroke="midnightblue" d="M244.19,-168.44C304.98,-158.85 403.49,-143.29 468.01,-133.1"/>
<polygon fill="midnightblue" stroke="midnightblue" points="468.73,-136.53 478.06,-131.52 467.64,-129.62 468.73,-136.53"/>
</g>
<!-- Node5 -->
<g id="node5" class="node">
<title>Node5</title>
<g id="a_node5"><a xlink:href="forward__type_8h.html" target="_top" xlink:title=" ">
<polygon fill="none" stroke="black" points="171,-56.5 171,-75.5 261,-75.5 261,-56.5 171,-56.5"/>
<text text-anchor="middle" x="216" y="-63.5" font-family="Helvetica,sans-Serif" font-size="10.00">forward_type.h</text>
</a>
</g>
</g>
<!-- Node1&#45;&gt;Node5 -->
<g id="edge13" class="edge">
<title>Node1&#45;&gt;Node5</title>
<path fill="none" stroke="midnightblue" d="M180.42,-168.15C168.07,-155.63 149.3,-132.03 159,-112 165.4,-98.8 177.75,-88.3 189.33,-80.78"/>
<polygon fill="midnightblue" stroke="midnightblue" points="191.16,-83.77 197.92,-75.61 187.55,-77.77 191.16,-83.77"/>
</g>
<!-- Node14 -->
<g id="node14" class="node">
<title>Node14</title>
<g id="a_node14"><a xlink:href="interval_8h.html" target="_top" xlink:title=" ">
<polygon fill="none" stroke="black" points="168.5,-112.5 168.5,-131.5 311.5,-131.5 311.5,-112.5 168.5,-112.5"/>
<text text-anchor="middle" x="240" y="-119.5" font-family="Helvetica,sans-Serif" font-size="10.00">HealthGPS.Core/interval.h</text>
</a>
</g>
</g>
<!-- Node1&#45;&gt;Node14 -->
<g id="edge14" class="edge">
<title>Node1&#45;&gt;Node14</title>
<path fill="none" stroke="midnightblue" d="M198.26,-168.08C205.46,-160.3 216.11,-148.8 224.85,-139.37"/>
<polygon fill="midnightblue" stroke="midnightblue" points="227.67,-141.47 231.9,-131.75 222.53,-136.71 227.67,-141.47"/>
</g>
<!-- Node18 -->
<g id="node18" class="node">
<title>Node18</title>
<g id="a_node18"><a xlink:href="monotonic__vector_8h.html" target="_top" xlink:title=" ">
<polygon fill="none" stroke="black" points="329.5,-112.5 329.5,-131.5 442.5,-131.5 442.5,-112.5 329.5,-112.5"/>
<text text-anchor="middle" x="386" y="-119.5" font-family="Helvetica,sans-Serif" font-size="10.00">monotonic_vector.h</text>
</a>
</g>
</g>
<!-- Node1&#45;&gt;Node18 -->
<g id="edge20" class="edge">
<title>Node1&#45;&gt;Node18</title>
<path fill="none" stroke="midnightblue" d="M221.06,-168.44C254.6,-159.2 308.2,-144.44 345.14,-134.26"/>
<polygon fill="midnightblue" stroke="midnightblue" points="346.38,-137.55 355.09,-131.52 344.52,-130.8 346.38,-137.55"/>
</g>
<!-- Node4&#45;&gt;Node5 -->
<g id="edge4" class="edge">
<title>Node4&#45;&gt;Node5</title>
<path fill="none" stroke="midnightblue" d="M481.93,-112.44C424.51,-102.63 330.68,-86.6 271.19,-76.43"/>
<polygon fill="midnightblue" stroke="midnightblue" points="271.68,-72.96 261.23,-74.73 270.5,-79.86 271.68,-72.96"/>
</g>
<!-- Node8 -->
<g id="node8" class="node">
<title>Node8</title>
<g id="a_node8"><a xlink:title=" ">
<polygon fill="none" stroke="#bfbfbf" points="525,-56.5 525,-75.5 589,-75.5 589,-56.5 525,-56.5"/>
<text text-anchor="middle" x="557" y="-63.5" font-family="Helvetica,sans-Serif" font-size="10.00">algorithm</text>
</a>
</g>
</g>
<!-- Node4&#45;&gt;Node8 -->
<g id="edge7" class="edge">
<title>Node4&#45;&gt;Node8</title>
<path fill="none" stroke="midnightblue" d="M536.13,-112.08C539.51,-104.77 544.42,-94.18 548.62,-85.1"/>
<polygon fill="midnightblue" stroke="midnightblue" points="551.92,-86.3 552.95,-75.75 545.57,-83.36 551.92,-86.3"/>
</g>
<!-- Node9 -->
<g id="node9" class="node">
<title>Node9</title>
<g id="a_node9"><a xlink:title=" ">
<polygon fill="none" stroke="#bfbfbf" points="279.5,-56.5 279.5,-75.5 358.5,-75.5 358.5,-56.5 279.5,-56.5"/>
<text text-anchor="middle" x="319" y="-63.5" font-family="Helvetica,sans-Serif" font-size="10.00">fmt/format.h</text>
</a>
</g>
</g>
<!-- Node4&#45;&gt;Node9 -->
<g id="edge8" class="edge">
<title>Node4&#45;&gt;Node9</title>
<path fill="none" stroke="midnightblue" d="M498.25,-112.44C461.48,-103.12 402.55,-88.18 362.38,-78"/>
<polygon fill="midnightblue" stroke="midnightblue" points="363.15,-74.58 352.59,-75.52 361.43,-81.37 363.15,-74.58"/>
</g>
<!-- Node10 -->
<g id="node10" class="node">
<title>Node10</title>
<g id="a_node10"><a xlink:title=" ">
<polygon fill="none" stroke="#bfbfbf" points="607,-56.5 607,-75.5 665,-75.5 665,-56.5 607,-56.5"/>
<text text-anchor="middle" x="636" y="-63.5" font-family="Helvetica,sans-Serif" font-size="10.00">memory</text>
</a>
</g>
</g>
<!-- Node4&#45;&gt;Node10 -->
<g id="edge9" class="edge">
<title>Node4&#45;&gt;Node10</title>
<path fill="none" stroke="midnightblue" d="M548.71,-112.32C565.31,-103.7 591,-90.36 610.22,-80.39"/>
<polygon fill="midnightblue" stroke="midnightblue" points="612.07,-83.37 619.33,-75.65 608.84,-77.16 612.07,-83.37"/>
</g>
<!-- Node11 -->
<g id="node11" class="node">
<title>Node11</title>
<g id="a_node11"><a xlink:title=" ">
<polygon fill="none" stroke="#bfbfbf" points="683,-56.5 683,-75.5 739,-75.5 739,-56.5 683,-56.5"/>
<text text-anchor="middle" x="711" y="-63.5" font-family="Helvetica,sans-Serif" font-size="10.00">sstream</text>
</a>
</g>
</g>
<!-- Node4&#45;&gt;Node11 -->
<g id="edge10" class="edge">
<title>Node4&#45;&gt;Node11</title>
<path fill="none" stroke="midnightblue" d="M560.36,-112.44C590.74,-103.28 639.11,-88.69 672.82,-78.52"/>
<polygon fill="midnightblue" stroke="midnightblue" points="674.21,-81.76 682.77,-75.52 672.18,-75.05 674.21,-81.76"/>
</g>
<!-- Node12 -->
<g id="node12" class="node">
<title>Node12</title>
<g id="a_node12"><a xlink:title=" ">
<polygon fill="none" stroke="#bfbfbf" points="376.5,-56.5 376.5,-75.5 441.5,-75.5 441.5,-56.5 376.5,-56.5"/>
<text text-anchor="middle" x="409" y="-63.5" font-family="Helvetica,sans-Serif" font-size="10.00">stdexcept</text>
</a>
</g>
</g>
<!-- Node4&#45;&gt;Node12 -->
<g id="edge11" class="edge">
<title>Node4&#45;&gt;Node12</title>
<path fill="none" stroke="midnightblue" d="M512.51,-112.44C492.36,-103.6 460.68,-89.69 437.67,-79.59"/>
<polygon fill="midnightblue" stroke="midnightblue" points="438.96,-76.33 428.4,-75.52 436.15,-82.74 438.96,-76.33"/>
</g>
<!-- Node13 -->
<g id="node13" class="node">
<title>Node13</title>
<g id="a_node13"><a xlink:title=" ">
<polygon fill="none" stroke="#bfbfbf" points="459.5,-56.5 459.5,-75.5 506.5,-75.5 506.5,-56.5 459.5,-56.5"/>
<text text-anchor="middle" x="483" y="-63.5" font-family="Helvetica,sans-Serif" font-size="10.00">vector</text>
</a>
</g>
</g>
<!-- Node4&#45;&gt;Node13 -->
<g id="edge12" class="edge">
<title>Node4&#45;&gt;Node13</title>
<path fill="none" stroke="midnightblue" d="M523.91,-112.08C516.84,-104.3 506.41,-92.8 497.85,-83.37"/>
<polygon fill="midnightblue" stroke="midnightblue" points="500.25,-80.8 490.94,-75.75 495.07,-85.51 500.25,-80.8"/>
</g>
<!-- Node6 -->
<g id="node6" class="node">
<title>Node6</title>
<g id="a_node6"><a xlink:title=" ">
<polygon fill="none" stroke="#bfbfbf" points="182,-0.5 182,-19.5 232,-19.5 232,-0.5 182,-0.5"/>
<text text-anchor="middle" x="207" y="-7.5" font-family="Helvetica,sans-Serif" font-size="10.00">cstdint</text>
</a>
</g>
</g>
<!-- Node5&#45;&gt;Node6 -->
<g id="edge5" class="edge">
<title>Node5&#45;&gt;Node6</title>
<path fill="none" stroke="midnightblue" d="M214.51,-56.08C213.32,-48.93 211.61,-38.64 210.12,-29.69"/>
<polygon fill="midnightblue" stroke="midnightblue" points="213.55,-29.04 208.46,-19.75 206.65,-30.19 213.55,-29.04"/>
</g>
<!-- Node7 -->
<g id="node7" class="node">
<title>Node7</title>
<g id="a_node7"><a xlink:title=" ">
<polygon fill="none" stroke="#bfbfbf" points="250.5,-0.5 250.5,-19.5 319.5,-19.5 319.5,-0.5 250.5,-0.5"/>
<text text-anchor="middle" x="285" y="-7.5" font-family="Helvetica,sans-Serif" font-size="10.00">type_traits</text>
</a>
</g>
</g>
<!-- Node5&#45;&gt;Node7 -->
<g id="edge6" class="edge">
<title>Node5&#45;&gt;Node7</title>
<path fill="none" stroke="midnightblue" d="M227.09,-56.32C237.49,-48.18 253.26,-35.84 265.72,-26.09"/>
<polygon fill="midnightblue" stroke="midnightblue" points="267.99,-28.75 273.71,-19.83 263.68,-23.24 267.99,-28.75"/>
</g>
<!-- Node14&#45;&gt;Node5 -->
<g id="edge15" class="edge">
<title>Node14&#45;&gt;Node5</title>
<path fill="none" stroke="midnightblue" d="M236.04,-112.08C232.79,-104.77 228.08,-94.18 224.05,-85.1"/>
<polygon fill="midnightblue" stroke="midnightblue" points="227.15,-83.47 219.89,-75.75 220.75,-86.31 227.15,-83.47"/>
</g>
<!-- Node14&#45;&gt;Node9 -->
<g id="edge19" class="edge">
<title>Node14&#45;&gt;Node9</title>
<path fill="none" stroke="midnightblue" d="M252.69,-112.32C264.9,-103.98 283.58,-91.21 298,-81.35"/>
<polygon fill="midnightblue" stroke="midnightblue" points="300.06,-84.19 306.34,-75.65 296.11,-78.41 300.06,-84.19"/>
</g>
<!-- Node15 -->
<g id="node15" class="node">
<title>Node15</title>
<g id="a_node15"><a xlink:href="string__util_8h.html" target="_top" xlink:title=" ">
<polygon fill="none" stroke="black" points="79,-56.5 79,-75.5 153,-75.5 153,-56.5 79,-56.5"/>
<text text-anchor="middle" x="116" y="-63.5" font-family="Helvetica,sans-Serif" font-size="10.00">string_util.h</text>
</a>
</g>
</g>
<!-- Node14&#45;&gt;Node15 -->
<g id="edge16" class="edge">
<title>Node14&#45;&gt;Node15</title>
<path fill="none" stroke="midnightblue" d="M220.35,-112.44C200.04,-103.6 168.1,-89.69 144.9,-79.59"/>
<polygon fill="midnightblue" stroke="midnightblue" points="146.12,-76.3 135.56,-75.52 143.33,-82.72 146.12,-76.3"/>
</g>
<!-- Node16 -->
<g id="node16" class="node">
<title>Node16</title>
<g id="a_node16"><a xlink:title=" ">
<polygon fill="none" stroke="#bfbfbf" points="19.5,-0.5 19.5,-19.5 84.5,-19.5 84.5,-0.5 19.5,-0.5"/>
<text text-anchor="middle" x="52" y="-7.5" font-family="Helvetica,sans-Serif" font-size="10.00">functional</text>
</a>
</g>
</g>
<!-- Node15&#45;&gt;Node16 -->
<g id="edge17" class="edge">
<title>Node15&#45;&gt;Node16</title>
<path fill="none" stroke="midnightblue" d="M105.72,-56.32C96.16,-48.26 81.72,-36.08 70.22,-26.37"/>
<polygon fill="midnightblue" stroke="midnightblue" points="72.37,-23.61 62.47,-19.83 67.86,-28.96 72.37,-23.61"/>
</g>
<!-- Node17 -->
<g id="node17" class="node">
<title>Node17</title>
<g id="a_node17"><a xlink:title=" ">
<polygon fill="none" stroke="#bfbfbf" points="103,-0.5 103,-19.5 147,-19.5 147,-0.5 103,-0.5"/>
<text text-anchor="middle" x="125" y="-7.5" font-family="Helvetica,sans-Serif" font-size="10.00">string</text>
</a>
</g>
</g>
<!-- Node15&#45;&gt;Node17 -->
<g id="edge18" class="edge">
<title>Node15&#45;&gt;Node17</title>
<path fill="none" stroke="midnightblue" d="M117.49,-56.08C118.68,-48.93 120.39,-38.64 121.88,-29.69"/>
<polygon fill="midnightblue" stroke="midnightblue" points="125.35,-30.19 123.54,-19.75 118.45,-29.04 125.35,-30.19"/>
</g>
<!-- Node18&#45;&gt;Node5 -->
<g id="edge23" class="edge">
<title>Node18&#45;&gt;Node5</title>
<path fill="none" stroke="midnightblue" d="M359.06,-112.44C330.34,-103.32 284.67,-88.81 252.68,-78.65"/>
<polygon fill="midnightblue" stroke="midnightblue" points="253.4,-75.21 242.81,-75.52 251.28,-81.88 253.4,-75.21"/>
</g>
<!-- Node18&#45;&gt;Node12 -->
<g id="edge21" class="edge">
<title>Node18&#45;&gt;Node12</title>
<path fill="none" stroke="midnightblue" d="M389.8,-112.08C392.91,-104.77 397.42,-94.18 401.29,-85.1"/>
<polygon fill="midnightblue" stroke="midnightblue" points="404.57,-86.32 405.27,-75.75 398.13,-83.58 404.57,-86.32"/>
</g>
<!-- Node18&#45;&gt;Node13 -->
<g id="edge22" class="edge">
<title>Node18&#45;&gt;Node13</title>
<path fill="none" stroke="midnightblue" d="M401.58,-112.32C417,-103.74 440.81,-90.49 458.71,-80.52"/>
<polygon fill="midnightblue" stroke="midnightblue" points="460.42,-83.58 467.45,-75.65 457.01,-77.46 460.42,-83.58"/>
</g>
</g>
</svg>
