<?xml version="1.0" encoding="UTF-8" standalone="no"?>
<!DOCTYPE svg PUBLIC "-//W3C//DTD SVG 1.1//EN"
 "http://www.w3.org/Graphics/SVG/1.1/DTD/svg11.dtd">
<!-- Generated by graphviz version 2.43.0 (0)
 -->
<!-- Title: HealthGPS.Core/poco.h Pages: 1 -->
<svg width="725pt" height="196pt"
 viewBox="0.00 0.00 724.50 196.00" xmlns="http://www.w3.org/2000/svg" xmlns:xlink="http://www.w3.org/1999/xlink">
<g id="graph0" class="graph" transform="scale(1 1) rotate(0) translate(4 192)">
<title>HealthGPS.Core/poco.h</title>
<!-- Node1 -->
<g id="node1" class="node">
<title>Node1</title>
<g id="a_node1"><a xlink:title=" ">
<polygon fill="#bfbfbf" stroke="black" points="201.5,-168.5 201.5,-187.5 330.5,-187.5 330.5,-168.5 201.5,-168.5"/>
<text text-anchor="middle" x="266" y="-175.5" font-family="Helvetica,sans-Serif" font-size="10.00">HealthGPS.Core/poco.h</text>
</a>
</g>
</g>
<!-- Node2 -->
<g id="node2" class="node">
<title>Node2</title>
<g id="a_node2"><a xlink:href="country_8h.html" target="_top" xlink:title=" ">
<polygon fill="none" stroke="black" points="201.5,-56.5 201.5,-75.5 262.5,-75.5 262.5,-56.5 201.5,-56.5"/>
<text text-anchor="middle" x="232" y="-63.5" font-family="Helvetica,sans-Serif" font-size="10.00">country.h</text>
</a>
</g>
</g>
<!-- Node1&#45;&gt;Node2 -->
<g id="edge1" class="edge">
<title>Node1&#45;&gt;Node2</title>
<path fill="none" stroke="midnightblue" d="M273.12,-168.33C282.63,-155.62 297.27,-131.34 288,-112 281.75,-98.95 269.66,-88.49 258.32,-80.95"/>
<polygon fill="midnightblue" stroke="midnightblue" points="259.85,-77.79 249.5,-75.54 256.19,-83.75 259.85,-77.79"/>
</g>
<!-- Node4 -->
<g id="node4" class="node">
<title>Node4</title>
<g id="a_node4"><a xlink:href="population__item_8h.html" target="_top" xlink:title=" ">
<polygon fill="none" stroke="black" points="173.5,-112.5 173.5,-131.5 278.5,-131.5 278.5,-112.5 173.5,-112.5"/>
<text text-anchor="middle" x="226" y="-119.5" font-family="Helvetica,sans-Serif" font-size="10.00">population_item.h</text>
</a>
</g>
</g>
<!-- Node1&#45;&gt;Node4 -->
<g id="edge3" class="edge">
<title>Node1&#45;&gt;Node4</title>
<path fill="none" stroke="midnightblue" d="M259.39,-168.08C253.74,-160.46 245.46,-149.26 238.55,-139.94"/>
<polygon fill="midnightblue" stroke="midnightblue" points="241.25,-137.7 232.48,-131.75 235.62,-141.87 241.25,-137.7"/>
</g>
<!-- Node6 -->
<g id="node6" class="node">
<title>Node6</title>
<g id="a_node6"><a xlink:href="HealthGPS_8Core_2disease_8h.html" target="_top" xlink:title=" ">
<polygon fill="none" stroke="black" points="419.5,-112.5 419.5,-131.5 482.5,-131.5 482.5,-112.5 419.5,-112.5"/>
<text text-anchor="middle" x="451" y="-119.5" font-family="Helvetica,sans-Serif" font-size="10.00">disease.h</text>
</a>
</g>
</g>
<!-- Node1&#45;&gt;Node6 -->
<g id="edge5" class="edge">
<title>Node1&#45;&gt;Node6</title>
<path fill="none" stroke="midnightblue" d="M295.31,-168.44C326.84,-159.24 377.13,-144.56 411.99,-134.39"/>
<polygon fill="midnightblue" stroke="midnightblue" points="413.2,-137.68 421.82,-131.52 411.24,-130.96 413.2,-137.68"/>
</g>
<!-- Node15 -->
<g id="node15" class="node">
<title>Node15</title>
<g id="a_node15"><a xlink:href="analysis_8h.html" target="_top" xlink:title=" ">
<polygon fill="none" stroke="black" points="335,-112.5 335,-131.5 401,-131.5 401,-112.5 335,-112.5"/>
<text text-anchor="middle" x="368" y="-119.5" font-family="Helvetica,sans-Serif" font-size="10.00">analysis.h</text>
</a>
</g>
</g>
<!-- Node1&#45;&gt;Node15 -->
<g id="edge16" class="edge">
<title>Node1&#45;&gt;Node15</title>
<path fill="none" stroke="midnightblue" d="M282.39,-168.32C298.67,-159.7 323.87,-146.36 342.72,-136.39"/>
<polygon fill="midnightblue" stroke="midnightblue" points="344.45,-139.43 351.65,-131.65 341.18,-133.24 344.45,-139.43"/>
</g>
<!-- Node16 -->
<g id="node16" class="node">
<title>Node16</title>
<g id="a_node16"><a xlink:href="indicator_8h.html" target="_top" xlink:title=" ">
<polygon fill="none" stroke="black" points="0,-112.5 0,-131.5 68,-131.5 68,-112.5 0,-112.5"/>
<text text-anchor="middle" x="34" y="-119.5" font-family="Helvetica,sans-Serif" font-size="10.00">indicator.h</text>
</a>
</g>
</g>
<!-- Node1&#45;&gt;Node16 -->
<g id="edge21" class="edge">
<title>Node1&#45;&gt;Node16</title>
<path fill="none" stroke="midnightblue" d="M229.24,-168.44C188.23,-158.9 121.9,-143.46 78.12,-133.27"/>
<polygon fill="midnightblue" stroke="midnightblue" points="78.85,-129.85 68.32,-130.99 77.27,-136.66 78.85,-129.85"/>
</g>
<!-- Node17 -->
<g id="node17" class="node">
<title>Node17</title>
<g id="a_node17"><a xlink:href="mortality_8h.html" target="_top" xlink:title=" ">
<polygon fill="none" stroke="black" points="86.5,-112.5 86.5,-131.5 155.5,-131.5 155.5,-112.5 86.5,-112.5"/>
<text text-anchor="middle" x="121" y="-119.5" font-family="Helvetica,sans-Serif" font-size="10.00">mortality.h</text>
</a>
</g>
</g>
<!-- Node1&#45;&gt;Node17 -->
<g id="edge23" class="edge">
<title>Node1&#45;&gt;Node17</title>
<path fill="none" stroke="midnightblue" d="M243.02,-168.44C218.84,-159.44 180.58,-145.19 153.35,-135.05"/>
<polygon fill="midnightblue" stroke="midnightblue" points="154.46,-131.73 143.87,-131.52 152.02,-138.29 154.46,-131.73"/>
</g>
<!-- Node3 -->
<g id="node3" class="node">
<title>Node3</title>
<g id="a_node3"><a xlink:title=" ">
<polygon fill="none" stroke="#bfbfbf" points="269,-0.5 269,-19.5 313,-19.5 313,-0.5 269,-0.5"/>
<text text-anchor="middle" x="291" y="-7.5" font-family="Helvetica,sans-Serif" font-size="10.00">string</text>
</a>
</g>
</g>
<!-- Node2&#45;&gt;Node3 -->
<g id="edge2" class="edge">
<title>Node2&#45;&gt;Node3</title>
<path fill="none" stroke="midnightblue" d="M241.48,-56.32C250.2,-48.34 263.34,-36.31 273.9,-26.65"/>
<polygon fill="midnightblue" stroke="midnightblue" points="276.33,-29.17 281.35,-19.83 271.61,-24 276.33,-29.17"/>
</g>
<!-- Node5 -->
<g id="node5" class="node">
<title>Node5</title>
<g id="a_node5"><a xlink:title=" ">
<polygon fill="none" stroke="#bfbfbf" points="121.5,-56.5 121.5,-75.5 162.5,-75.5 162.5,-56.5 121.5,-56.5"/>
<text text-anchor="middle" x="142" y="-63.5" font-family="Helvetica,sans-Serif" font-size="10.00">tuple</text>
</a>
</g>
</g>
<!-- Node4&#45;&gt;Node5 -->
<g id="edge4" class="edge">
<title>Node4&#45;&gt;Node5</title>
<path fill="none" stroke="midnightblue" d="M212.5,-112.32C199.4,-103.9 179.29,-90.97 163.89,-81.07"/>
<polygon fill="midnightblue" stroke="midnightblue" points="165.77,-78.12 155.46,-75.65 161.98,-84.01 165.77,-78.12"/>
</g>
<!-- Node6&#45;&gt;Node3 -->
<g id="edge6" class="edge">
<title>Node6&#45;&gt;Node3</title>
<path fill="none" stroke="midnightblue" d="M450.92,-112.14C450.31,-98.29 447.11,-71.48 432,-56 403.22,-26.51 355.17,-16.31 323.28,-12.8"/>
<polygon fill="midnightblue" stroke="midnightblue" points="323.42,-9.3 313.14,-11.85 322.77,-16.27 323.42,-9.3"/>
</g>
<!-- Node7 -->
<g id="node7" class="node">
<title>Node7</title>
<g id="a_node7"><a xlink:title=" ">
<polygon fill="none" stroke="#bfbfbf" points="319.5,-56.5 319.5,-75.5 366.5,-75.5 366.5,-56.5 319.5,-56.5"/>
<text text-anchor="middle" x="343" y="-63.5" font-family="Helvetica,sans-Serif" font-size="10.00">vector</text>
</a>
</g>
</g>
<!-- Node6&#45;&gt;Node7 -->
<g id="edge7" class="edge">
<title>Node6&#45;&gt;Node7</title>
<path fill="none" stroke="midnightblue" d="M433.65,-112.32C416.33,-103.66 389.48,-90.24 369.5,-80.25"/>
<polygon fill="midnightblue" stroke="midnightblue" points="370.82,-77 360.31,-75.65 367.69,-83.26 370.82,-77"/>
</g>
<!-- Node8 -->
<g id="node8" class="node">
<title>Node8</title>
<g id="a_node8"><a xlink:title=" ">
<polygon fill="none" stroke="#bfbfbf" points="385,-56.5 385,-75.5 423,-75.5 423,-56.5 385,-56.5"/>
<text text-anchor="middle" x="404" y="-63.5" font-family="Helvetica,sans-Serif" font-size="10.00">map</text>
</a>
</g>
</g>
<!-- Node6&#45;&gt;Node8 -->
<g id="edge8" class="edge">
<title>Node6&#45;&gt;Node8</title>
<path fill="none" stroke="midnightblue" d="M443.24,-112.08C436.46,-104.3 426.46,-92.8 418.24,-83.37"/>
<polygon fill="midnightblue" stroke="midnightblue" points="420.82,-81 411.62,-75.75 415.54,-85.59 420.82,-81"/>
</g>
<!-- Node9 -->
<g id="node9" class="node">
<title>Node9</title>
<g id="a_node9"><a xlink:href="forward__type_8h.html" target="_top" xlink:title=" ">
<polygon fill="none" stroke="black" points="565,-56.5 565,-75.5 655,-75.5 655,-56.5 565,-56.5"/>
<text text-anchor="middle" x="610" y="-63.5" font-family="Helvetica,sans-Serif" font-size="10.00">forward_type.h</text>
</a>
</g>
</g>
<!-- Node6&#45;&gt;Node9 -->
<g id="edge9" class="edge">
<title>Node6&#45;&gt;Node9</title>
<path fill="none" stroke="midnightblue" d="M476.19,-112.44C502.94,-103.36 545.4,-88.94 575.31,-78.78"/>
<polygon fill="midnightblue" stroke="midnightblue" points="576.58,-82.05 584.92,-75.52 574.33,-75.42 576.58,-82.05"/>
</g>
<!-- Node12 -->
<g id="node12" class="node">
<title>Node12</title>
<g id="a_node12"><a xlink:href="identifier_8h.html" target="_top" xlink:title=" ">
<polygon fill="none" stroke="black" points="479,-56.5 479,-75.5 547,-75.5 547,-56.5 479,-56.5"/>
<text text-anchor="middle" x="513" y="-63.5" font-family="Helvetica,sans-Serif" font-size="10.00">identifier.h</text>
</a>
</g>
</g>
<!-- Node6&#45;&gt;Node12 -->
<g id="edge12" class="edge">
<title>Node6&#45;&gt;Node12</title>
<path fill="none" stroke="midnightblue" d="M460.96,-112.32C470.13,-104.34 483.94,-92.31 495.03,-82.65"/>
<polygon fill="midnightblue" stroke="midnightblue" points="497.62,-85.04 502.86,-75.83 493.02,-79.76 497.62,-85.04"/>
</g>
<!-- Node10 -->
<g id="node10" class="node">
<title>Node10</title>
<g id="a_node10"><a xlink:title=" ">
<polygon fill="none" stroke="#bfbfbf" points="647.5,-0.5 647.5,-19.5 716.5,-19.5 716.5,-0.5 647.5,-0.5"/>
<text text-anchor="middle" x="682" y="-7.5" font-family="Helvetica,sans-Serif" font-size="10.00">type_traits</text>
</a>
</g>
</g>
<!-- Node9&#45;&gt;Node10 -->
<g id="edge10" class="edge">
<title>Node9&#45;&gt;Node10</title>
<path fill="none" stroke="midnightblue" d="M621.57,-56.32C632.42,-48.18 648.88,-35.84 661.88,-26.09"/>
<polygon fill="midnightblue" stroke="midnightblue" points="664.32,-28.63 670.22,-19.83 660.12,-23.03 664.32,-28.63"/>
</g>
<!-- Node11 -->
<g id="node11" class="node">
<title>Node11</title>
<g id="a_node11"><a xlink:title=" ">
<polygon fill="none" stroke="#bfbfbf" points="579,-0.5 579,-19.5 629,-19.5 629,-0.5 579,-0.5"/>
<text text-anchor="middle" x="604" y="-7.5" font-family="Helvetica,sans-Serif" font-size="10.00">cstdint</text>
</a>
</g>
</g>
<!-- Node9&#45;&gt;Node11 -->
<g id="edge11" class="edge">
<title>Node9&#45;&gt;Node11</title>
<path fill="none" stroke="midnightblue" d="M609.01,-56.08C608.21,-48.93 607.07,-38.64 606.08,-29.69"/>
<polygon fill="midnightblue" stroke="midnightblue" points="609.56,-29.3 604.97,-19.75 602.6,-30.08 609.56,-29.3"/>
</g>
<!-- Node12&#45;&gt;Node3 -->
<g id="edge13" class="edge">
<title>Node12&#45;&gt;Node3</title>
<path fill="none" stroke="midnightblue" d="M478.8,-56.68C436.3,-46.34 364.35,-28.84 322.94,-18.77"/>
<polygon fill="midnightblue" stroke="midnightblue" points="323.65,-15.34 313.1,-16.38 321.99,-22.14 323.65,-15.34"/>
</g>
<!-- Node13 -->
<g id="node13" class="node">
<title>Node13</title>
<g id="a_node13"><a xlink:title=" ">
<polygon fill="none" stroke="#bfbfbf" points="410.5,-0.5 410.5,-19.5 467.5,-19.5 467.5,-0.5 410.5,-0.5"/>
<text text-anchor="middle" x="439" y="-7.5" font-family="Helvetica,sans-Serif" font-size="10.00">ostream</text>
</a>
</g>
</g>
<!-- Node12&#45;&gt;Node13 -->
<g id="edge14" class="edge">
<title>Node12&#45;&gt;Node13</title>
<path fill="none" stroke="midnightblue" d="M501.11,-56.32C489.85,-48.11 472.71,-35.6 459.29,-25.81"/>
<polygon fill="midnightblue" stroke="midnightblue" points="461.25,-22.9 451.11,-19.83 457.12,-28.56 461.25,-22.9"/>
</g>
<!-- Node14 -->
<g id="node14" class="node">
<title>Node14</title>
<g id="a_node14"><a xlink:title=" ">
<polygon fill="none" stroke="#bfbfbf" points="485.5,-0.5 485.5,-19.5 550.5,-19.5 550.5,-0.5 485.5,-0.5"/>
<text text-anchor="middle" x="518" y="-7.5" font-family="Helvetica,sans-Serif" font-size="10.00">functional</text>
</a>
</g>
</g>
<!-- Node12&#45;&gt;Node14 -->
<g id="edge15" class="edge">
<title>Node12&#45;&gt;Node14</title>
<path fill="none" stroke="midnightblue" d="M513.83,-56.08C514.48,-49.01 515.42,-38.86 516.24,-29.99"/>
<polygon fill="midnightblue" stroke="midnightblue" points="519.75,-30.03 517.19,-19.75 512.78,-29.39 519.75,-30.03"/>
</g>
<!-- Node15&#45;&gt;Node3 -->
<g id="edge19" class="edge">
<title>Node15&#45;&gt;Node3</title>
<path fill="none" stroke="midnightblue" d="M352.53,-112.43C339.66,-104.54 321.76,-91.71 311,-76 301.51,-62.15 296.4,-43.63 293.72,-29.91"/>
<polygon fill="midnightblue" stroke="midnightblue" points="297.11,-28.99 292,-19.71 290.21,-30.15 297.11,-28.99"/>
</g>
<!-- Node15&#45;&gt;Node7 -->
<g id="edge18" class="edge">
<title>Node15&#45;&gt;Node7</title>
<path fill="none" stroke="midnightblue" d="M363.87,-112.08C360.49,-104.77 355.58,-94.18 351.38,-85.1"/>
<polygon fill="midnightblue" stroke="midnightblue" points="354.43,-83.36 347.05,-75.75 348.08,-86.3 354.43,-83.36"/>
</g>
<!-- Node15&#45;&gt;Node8 -->
<g id="edge17" class="edge">
<title>Node15&#45;&gt;Node8</title>
<path fill="none" stroke="midnightblue" d="M373.94,-112.08C378.98,-104.53 386.34,-93.49 392.51,-84.23"/>
<polygon fill="midnightblue" stroke="midnightblue" points="395.53,-86.01 398.17,-75.75 389.71,-82.13 395.53,-86.01"/>
</g>
<!-- Node15&#45;&gt;Node9 -->
<g id="edge20" class="edge">
<title>Node15&#45;&gt;Node9</title>
<path fill="none" stroke="midnightblue" d="M401.14,-113.6C442.71,-104.33 514.31,-88.35 561.91,-77.73"/>
<polygon fill="midnightblue" stroke="midnightblue" points="562.68,-81.14 571.68,-75.55 561.16,-74.31 562.68,-81.14"/>
</g>
<!-- Node16&#45;&gt;Node3 -->
<g id="edge22" class="edge">
<title>Node16&#45;&gt;Node3</title>
<path fill="none" stroke="midnightblue" d="M41.75,-112.41C54.84,-98.44 82.78,-70.86 112,-56 159.83,-31.67 221.68,-19.92 258.75,-14.69"/>
<polygon fill="midnightblue" stroke="midnightblue" points="259.51,-18.12 268.96,-13.33 258.58,-11.19 259.51,-18.12"/>
</g>
<!-- Node17&#45;&gt;Node5 -->
<g id="edge24" class="edge">
<title>Node17&#45;&gt;Node5</title>
<path fill="none" stroke="midnightblue" d="M124.47,-112.08C127.31,-104.77 131.43,-94.18 134.96,-85.1"/>
<polygon fill="midnightblue" stroke="midnightblue" points="138.23,-86.34 138.6,-75.75 131.71,-83.8 138.23,-86.34"/>
</g>
</g>
</svg>
