<?xml version="1.0" encoding="UTF-8" standalone="no"?>
<!DOCTYPE svg PUBLIC "-//W3C//DTD SVG 1.1//EN"
 "http://www.w3.org/Graphics/SVG/1.1/DTD/svg11.dtd">
<!-- Generated by graphviz version 2.43.0 (0)
 -->
<!-- Title: HealthGPS/healthgps.cpp Pages: 1 -->
<svg width="2330pt" height="341pt"
 viewBox="0.00 0.00 2329.50 341.00" xmlns="http://www.w3.org/2000/svg" xmlns:xlink="http://www.w3.org/1999/xlink">
<g id="graph0" class="graph" transform="scale(1 1) rotate(0) translate(4 337)">
<title>HealthGPS/healthgps.cpp</title>
<!-- Node1 -->
<g id="node1" class="node">
<title>Node1</title>
<g id="a_node1"><a xlink:title=" ">
<polygon fill="#bfbfbf" stroke="black" points="1293.5,-313.5 1293.5,-332.5 1433.5,-332.5 1433.5,-313.5 1293.5,-313.5"/>
<text text-anchor="middle" x="1363.5" y="-320.5" font-family="Helvetica,sans-Serif" font-size="10.00">HealthGPS/healthgps.cpp</text>
</a>
</g>
</g>
<!-- Node2 -->
<g id="node2" class="node">
<title>Node2</title>
<g id="a_node2"><a xlink:href="healthgps_8h.html" target="_top" xlink:title=" ">
<polygon fill="none" stroke="black" points="1047.5,-252 1047.5,-271 1121.5,-271 1121.5,-252 1047.5,-252"/>
<text text-anchor="middle" x="1084.5" y="-259" font-family="Helvetica,sans-Serif" font-size="10.00">healthgps.h</text>
</a>
</g>
</g>
<!-- Node1&#45;&gt;Node2 -->
<g id="edge1" class="edge">
<title>Node1&#45;&gt;Node2</title>
<path fill="none" stroke="midnightblue" d="M1319.78,-313.48C1275.5,-304.74 1205.11,-290.55 1144.5,-277 1139.47,-275.87 1134.2,-274.66 1128.97,-273.43"/>
<polygon fill="midnightblue" stroke="midnightblue" points="1129.57,-269.97 1119.04,-271.06 1127.95,-276.78 1129.57,-269.97"/>
</g>
<!-- Node11 -->
<g id="node8" class="node">
<title>Node11</title>
<g id="a_node8"><a xlink:title=" ">
<polygon fill="none" stroke="#bfbfbf" points="1219.5,-62 1219.5,-81 1277.5,-81 1277.5,-62 1219.5,-62"/>
<text text-anchor="middle" x="1248.5" y="-69" font-family="Helvetica,sans-Serif" font-size="10.00">memory</text>
</a>
</g>
</g>
<!-- Node1&#45;&gt;Node11 -->
<g id="edge80" class="edge">
<title>Node1&#45;&gt;Node11</title>
<path fill="none" stroke="midnightblue" d="M1357.23,-313.39C1344.15,-295.11 1313.56,-250.75 1294.5,-210 1275.37,-169.1 1260.46,-118.01 1253.25,-91.09"/>
<polygon fill="midnightblue" stroke="midnightblue" points="1256.57,-89.92 1250.65,-81.13 1249.79,-91.69 1256.57,-89.92"/>
</g>
<!-- Node99 -->
<g id="node19" class="node">
<title>Node99</title>
<g id="a_node19"><a xlink:href="thread__util_8h.html" target="_top" xlink:title=" ">
<polygon fill="none" stroke="black" points="1936.5,-246.5 1936.5,-276.5 2064.5,-276.5 2064.5,-246.5 1936.5,-246.5"/>
<text text-anchor="start" x="1944.5" y="-264.5" font-family="Helvetica,sans-Serif" font-size="10.00">HealthGPS.Core/thread</text>
<text text-anchor="middle" x="2000.5" y="-253.5" font-family="Helvetica,sans-Serif" font-size="10.00">_util.h</text>
</a>
</g>
</g>
<!-- Node1&#45;&gt;Node99 -->
<g id="edge26" class="edge">
<title>Node1&#45;&gt;Node99</title>
<path fill="none" stroke="midnightblue" d="M1433.8,-315.43C1554.96,-304.12 1802.04,-281.04 1926.03,-269.46"/>
<polygon fill="midnightblue" stroke="midnightblue" points="1926.56,-272.92 1936.19,-268.51 1925.91,-265.95 1926.56,-272.92"/>
</g>
<!-- Node103 -->
<g id="node25" class="node">
<title>Node103</title>
<g id="a_node25"><a xlink:href="baseline__sync__message_8h.html" target="_top" xlink:title=" ">
<polygon fill="none" stroke="black" points="1309.5,-123.5 1309.5,-142.5 1453.5,-142.5 1453.5,-123.5 1309.5,-123.5"/>
<text text-anchor="middle" x="1381.5" y="-130.5" font-family="Helvetica,sans-Serif" font-size="10.00">baseline_sync_message.h</text>
</a>
</g>
</g>
<!-- Node1&#45;&gt;Node103 -->
<g id="edge32" class="edge">
<title>Node1&#45;&gt;Node103</title>
<path fill="none" stroke="midnightblue" d="M1371.21,-313.23C1386.35,-295.34 1419.55,-252.72 1431.5,-210 1435.21,-196.73 1437.11,-191.59 1431.5,-179 1425.93,-166.5 1414.98,-156.01 1404.75,-148.32"/>
<polygon fill="midnightblue" stroke="midnightblue" points="1406.66,-145.38 1396.45,-142.53 1402.65,-151.12 1406.66,-145.38"/>
</g>
<!-- Node104 -->
<g id="node29" class="node">
<title>Node104</title>
<g id="a_node29"><a xlink:href="converter_8h.html" target="_top" xlink:title=" ">
<polygon fill="none" stroke="black" points="1556,-252 1556,-271 1627,-271 1627,-252 1556,-252"/>
<text text-anchor="middle" x="1591.5" y="-259" font-family="Helvetica,sans-Serif" font-size="10.00">converter.h</text>
</a>
</g>
</g>
<!-- Node1&#45;&gt;Node104 -->
<g id="edge38" class="edge">
<title>Node1&#45;&gt;Node104</title>
<path fill="none" stroke="midnightblue" d="M1396.17,-313.48C1436.38,-302.98 1504.76,-285.14 1549.02,-273.59"/>
<polygon fill="midnightblue" stroke="midnightblue" points="1550.1,-276.92 1558.89,-271.01 1548.33,-270.15 1550.1,-276.92"/>
</g>
<!-- Node96 -->
<g id="node37" class="node">
<title>Node96</title>
<g id="a_node37"><a xlink:href="hierarchical__model_8h.html" target="_top" xlink:title=" ">
<polygon fill="none" stroke="black" points="514,-252 514,-271 633,-271 633,-252 514,-252"/>
<text text-anchor="middle" x="573.5" y="-259" font-family="Helvetica,sans-Serif" font-size="10.00">hierarchical_model.h</text>
</a>
</g>
</g>
<!-- Node1&#45;&gt;Node96 -->
<g id="edge58" class="edge">
<title>Node1&#45;&gt;Node96</title>
<path fill="none" stroke="midnightblue" d="M1293.39,-316.72C1143.34,-305.42 792.57,-279 643.03,-267.74"/>
<polygon fill="midnightblue" stroke="midnightblue" points="643.28,-264.25 633.05,-266.98 642.76,-271.23 643.28,-264.25"/>
</g>
<!-- Node105 -->
<g id="node41" class="node">
<title>Node105</title>
<g id="a_node41"><a xlink:href="info__message_8h.html" target="_top" xlink:title=" ">
<polygon fill="none" stroke="black" points="1153.5,-252 1153.5,-271 1247.5,-271 1247.5,-252 1153.5,-252"/>
<text text-anchor="middle" x="1200.5" y="-259" font-family="Helvetica,sans-Serif" font-size="10.00">info_message.h</text>
</a>
</g>
</g>
<!-- Node1&#45;&gt;Node105 -->
<g id="edge66" class="edge">
<title>Node1&#45;&gt;Node105</title>
<path fill="none" stroke="midnightblue" d="M1340.15,-313.48C1312.19,-303.27 1265.17,-286.11 1233.51,-274.55"/>
<polygon fill="midnightblue" stroke="midnightblue" points="1234.4,-271.15 1223.81,-271.01 1232,-277.73 1234.4,-271.15"/>
</g>
<!-- Node106 -->
<g id="node42" class="node">
<title>Node106</title>
<g id="a_node42"><a xlink:href="mtrandom_8h.html" target="_top" xlink:title=" ">
<polygon fill="none" stroke="black" points="219,-252 219,-271 296,-271 296,-252 219,-252"/>
<text text-anchor="middle" x="257.5" y="-259" font-family="Helvetica,sans-Serif" font-size="10.00">mtrandom.h</text>
</a>
</g>
</g>
<!-- Node1&#45;&gt;Node106 -->
<g id="edge68" class="edge">
<title>Node1&#45;&gt;Node106</title>
<path fill="none" stroke="midnightblue" d="M1293.34,-318.47C1146.8,-311.08 797.49,-293.27 504.5,-277 435.63,-273.17 355.97,-268.44 306.16,-265.45"/>
<polygon fill="midnightblue" stroke="midnightblue" points="306.19,-261.94 296,-264.84 305.77,-268.93 306.19,-261.94"/>
</g>
<!-- Node108 -->
<g id="node44" class="node">
<title>Node108</title>
<g id="a_node44"><a xlink:href="univariate__visitor_8h.html" target="_top" xlink:title=" ">
<polygon fill="none" stroke="black" points="119.5,-123.5 119.5,-142.5 229.5,-142.5 229.5,-123.5 119.5,-123.5"/>
<text text-anchor="middle" x="174.5" y="-130.5" font-family="Helvetica,sans-Serif" font-size="10.00">univariate_visitor.h</text>
</a>
</g>
</g>
<!-- Node1&#45;&gt;Node108 -->
<g id="edge71" class="edge">
<title>Node1&#45;&gt;Node108</title>
<path fill="none" stroke="midnightblue" d="M1293.34,-321.05C1050.31,-317.51 256.63,-303.96 209.5,-277 178.79,-259.43 176.46,-243.95 166.5,-210 160.91,-190.95 164.59,-168.19 168.61,-152.58"/>
<polygon fill="midnightblue" stroke="midnightblue" points="172.08,-153.21 171.47,-142.63 165.35,-151.27 172.08,-153.21"/>
</g>
<!-- Node26 -->
<g id="node48" class="node">
<title>Node26</title>
<g id="a_node48"><a xlink:title=" ">
<polygon fill="none" stroke="#bfbfbf" points="2082.5,-252 2082.5,-271 2146.5,-271 2146.5,-252 2082.5,-252"/>
<text text-anchor="middle" x="2114.5" y="-259" font-family="Helvetica,sans-Serif" font-size="10.00">algorithm</text>
</a>
</g>
</g>
<!-- Node1&#45;&gt;Node26 -->
<g id="edge77" class="edge">
<title>Node1&#45;&gt;Node26</title>
<path fill="none" stroke="midnightblue" d="M1433.77,-320.01C1588.12,-315.25 1952.64,-301.7 2073.5,-277 2077.01,-276.28 2080.63,-275.33 2084.19,-274.26"/>
<polygon fill="midnightblue" stroke="midnightblue" points="2085.57,-277.49 2093.96,-271.02 2083.36,-270.85 2085.57,-277.49"/>
</g>
<!-- Node27 -->
<g id="node49" class="node">
<title>Node27</title>
<g id="a_node49"><a xlink:title=" ">
<polygon fill="none" stroke="#bfbfbf" points="2165,-252 2165,-271 2244,-271 2244,-252 2165,-252"/>
<text text-anchor="middle" x="2204.5" y="-259" font-family="Helvetica,sans-Serif" font-size="10.00">fmt/format.h</text>
</a>
</g>
</g>
<!-- Node1&#45;&gt;Node27 -->
<g id="edge78" class="edge">
<title>Node1&#45;&gt;Node27</title>
<path fill="none" stroke="midnightblue" d="M1433.58,-320.09C1600.47,-315.22 2017.78,-300.96 2155.5,-277 2160.27,-276.17 2165.24,-275.03 2170.1,-273.76"/>
<polygon fill="midnightblue" stroke="midnightblue" points="2171.17,-277.1 2179.84,-271.01 2169.26,-270.36 2171.17,-277.1"/>
</g>
<!-- Node109 -->
<g id="node50" class="node">
<title>Node109</title>
<g id="a_node50"><a xlink:title=" ">
<polygon fill="none" stroke="#bfbfbf" points="2261.5,-252 2261.5,-271 2321.5,-271 2321.5,-252 2261.5,-252"/>
<text text-anchor="middle" x="2291.5" y="-259" font-family="Helvetica,sans-Serif" font-size="10.00">iostream</text>
</a>
</g>
</g>
<!-- Node1&#45;&gt;Node109 -->
<g id="edge79" class="edge">
<title>Node1&#45;&gt;Node109</title>
<path fill="none" stroke="midnightblue" d="M1433.58,-321.29C1615.13,-318.99 2097.38,-309.87 2253.5,-277 2256.58,-276.35 2259.74,-275.49 2262.85,-274.51"/>
<polygon fill="midnightblue" stroke="midnightblue" points="2264.27,-277.72 2272.52,-271.08 2261.93,-271.12 2264.27,-277.72"/>
</g>
<!-- Node3 -->
<g id="node3" class="node">
<title>Node3</title>
<g id="a_node3"><a xlink:title=" ">
<polygon fill="none" stroke="#bfbfbf" points="799,-0.5 799,-19.5 846,-19.5 846,-0.5 799,-0.5"/>
<text text-anchor="middle" x="822.5" y="-7.5" font-family="Helvetica,sans-Serif" font-size="10.00">vector</text>
</a>
</g>
</g>
<!-- Node2&#45;&gt;Node3 -->
<g id="edge2" class="edge">
<title>Node2&#45;&gt;Node3</title>
<path fill="none" stroke="midnightblue" d="M1047.26,-256.72C1003.21,-251.15 928.54,-238.16 870.5,-210 850.58,-200.34 851.53,-188.45 831.5,-179 762.04,-146.24 710.82,-202.69 662.5,-143 619.02,-89.29 730.63,-41.93 789.25,-21.58"/>
<polygon fill="midnightblue" stroke="midnightblue" points="790.51,-24.85 798.85,-18.32 788.26,-18.22 790.51,-24.85"/>
</g>
<!-- Node4 -->
<g id="node4" class="node">
<title>Node4</title>
<g id="a_node4"><a xlink:href="event__aggregator_8h.html" target="_top" xlink:title=" ">
<polygon fill="none" stroke="black" points="1098,-123.5 1098,-142.5 1209,-142.5 1209,-123.5 1098,-123.5"/>
<text text-anchor="middle" x="1153.5" y="-130.5" font-family="Helvetica,sans-Serif" font-size="10.00">event_aggregator.h</text>
</a>
</g>
</g>
<!-- Node2&#45;&gt;Node4 -->
<g id="edge3" class="edge">
<title>Node2&#45;&gt;Node4</title>
<path fill="none" stroke="midnightblue" d="M1095.26,-251.97C1106.19,-242.75 1122.85,-227.06 1132.5,-210 1142.59,-192.17 1148.06,-169.21 1150.86,-153.21"/>
<polygon fill="midnightblue" stroke="midnightblue" points="1154.38,-153.39 1152.46,-142.97 1147.46,-152.31 1154.38,-153.39"/>
</g>
<!-- Node12 -->
<g id="node9" class="node">
<title>Node12</title>
<g id="a_node9"><a xlink:href="runtime__context_8h.html" target="_top" xlink:title=" ">
<polygon fill="none" stroke="red" points="1017.5,-185 1017.5,-204 1123.5,-204 1123.5,-185 1017.5,-185"/>
<text text-anchor="middle" x="1070.5" y="-192" font-family="Helvetica,sans-Serif" font-size="10.00">runtime_context.h</text>
</a>
</g>
</g>
<!-- Node2&#45;&gt;Node12 -->
<g id="edge8" class="edge">
<title>Node2&#45;&gt;Node12</title>
<path fill="none" stroke="midnightblue" d="M1082.61,-251.73C1080.53,-242.09 1077.13,-226.3 1074.46,-213.91"/>
<polygon fill="midnightblue" stroke="midnightblue" points="1077.89,-213.17 1072.36,-204.13 1071.04,-214.64 1077.89,-213.17"/>
</g>
<!-- Node67 -->
<g id="node15" class="node">
<title>Node67</title>
<g id="a_node15"><a xlink:href="simulation_8h.html" target="_top" xlink:title=" ">
<polygon fill="none" stroke="red" points="746,-185 746,-204 823,-204 823,-185 746,-185"/>
<text text-anchor="middle" x="784.5" y="-192" font-family="Helvetica,sans-Serif" font-size="10.00">simulation.h</text>
</a>
</g>
</g>
<!-- Node2&#45;&gt;Node67 -->
<g id="edge22" class="edge">
<title>Node2&#45;&gt;Node67</title>
<path fill="none" stroke="midnightblue" d="M1047.09,-253.64C998.56,-244.56 911.36,-227.63 837.5,-210 833.15,-208.96 828.63,-207.82 824.13,-206.64"/>
<polygon fill="midnightblue" stroke="midnightblue" points="824.97,-203.25 814.4,-204.05 823.16,-210.01 824.97,-203.25"/>
</g>
<!-- Node69 -->
<g id="node16" class="node">
<title>Node69</title>
<g id="a_node16"><a xlink:href="simulation__module_8h.html" target="_top" xlink:title=" ">
<polygon fill="none" stroke="red" points="1304,-185 1304,-204 1423,-204 1423,-185 1304,-185"/>
<text text-anchor="middle" x="1363.5" y="-192" font-family="Helvetica,sans-Serif" font-size="10.00">simulation_module.h</text>
</a>
</g>
</g>
<!-- Node2&#45;&gt;Node69 -->
<g id="edge23" class="edge">
<title>Node2&#45;&gt;Node69</title>
<path fill="none" stroke="midnightblue" d="M1119.7,-251.93C1127.84,-249.96 1136.47,-247.9 1144.5,-246 1203.51,-232.07 1271.57,-216.44 1315.96,-206.31"/>
<polygon fill="midnightblue" stroke="midnightblue" points="1316.91,-209.68 1325.88,-204.05 1315.35,-202.86 1316.91,-209.68"/>
</g>
<!-- Node5 -->
<g id="node5" class="node">
<title>Node5</title>
<g id="a_node5"><a xlink:title=" ">
<polygon fill="none" stroke="#bfbfbf" points="903,-62 903,-81 968,-81 968,-62 903,-62"/>
<text text-anchor="middle" x="935.5" y="-69" font-family="Helvetica,sans-Serif" font-size="10.00">functional</text>
</a>
</g>
</g>
<!-- Node4&#45;&gt;Node5 -->
<g id="edge4" class="edge">
<title>Node4&#45;&gt;Node5</title>
<path fill="none" stroke="midnightblue" d="M1122.27,-123.48C1083.9,-113 1018.71,-95.21 976.39,-83.66"/>
<polygon fill="midnightblue" stroke="midnightblue" points="977.24,-80.27 966.68,-81.01 975.4,-87.02 977.24,-80.27"/>
</g>
<!-- Node6 -->
<g id="node6" class="node">
<title>Node6</title>
<g id="a_node6"><a xlink:title=" ">
<polygon fill="none" stroke="#bfbfbf" points="550,-62 550,-81 615,-81 615,-62 550,-62"/>
<text text-anchor="middle" x="582.5" y="-69" font-family="Helvetica,sans-Serif" font-size="10.00">stdexcept</text>
</a>
</g>
</g>
<!-- Node4&#45;&gt;Node6 -->
<g id="edge5" class="edge">
<title>Node4&#45;&gt;Node6</title>
<path fill="none" stroke="midnightblue" d="M1097.97,-126.21C984.29,-114.37 727.18,-87.58 625.27,-76.96"/>
<polygon fill="midnightblue" stroke="midnightblue" points="625.36,-73.45 615.05,-75.89 624.63,-80.41 625.36,-73.45"/>
</g>
<!-- Node7 -->
<g id="node7" class="node">
<title>Node7</title>
<g id="a_node7"><a xlink:href="event__message_8h.html" target="_top" xlink:title=" ">
<polygon fill="none" stroke="red" points="1098,-62 1098,-81 1201,-81 1201,-62 1098,-62"/>
<text text-anchor="middle" x="1149.5" y="-69" font-family="Helvetica,sans-Serif" font-size="10.00">event_message.h</text>
</a>
</g>
</g>
<!-- Node4&#45;&gt;Node7 -->
<g id="edge6" class="edge">
<title>Node4&#45;&gt;Node7</title>
<path fill="none" stroke="midnightblue" d="M1152.93,-123.48C1152.36,-115.08 1151.48,-101.98 1150.75,-91.16"/>
<polygon fill="midnightblue" stroke="midnightblue" points="1154.24,-90.75 1150.07,-81.01 1147.25,-91.22 1154.24,-90.75"/>
</g>
<!-- Node4&#45;&gt;Node11 -->
<g id="edge7" class="edge">
<title>Node4&#45;&gt;Node11</title>
<path fill="none" stroke="midnightblue" d="M1167.11,-123.48C1182.56,-113.8 1207.99,-97.87 1226.32,-86.39"/>
<polygon fill="midnightblue" stroke="midnightblue" points="1228.3,-89.28 1234.91,-81.01 1224.58,-83.35 1228.3,-89.28"/>
</g>
<!-- Node12&#45;&gt;Node3 -->
<g id="edge21" class="edge">
<title>Node12&#45;&gt;Node3</title>
<path fill="none" stroke="midnightblue" d="M1068.99,-184.81C1064.13,-159.79 1046.4,-87.36 999.5,-56 955.65,-26.68 894.05,-16.47 856.28,-12.9"/>
<polygon fill="midnightblue" stroke="midnightblue" points="856.55,-9.42 846.29,-12.07 855.97,-16.39 856.55,-9.42"/>
</g>
<!-- Node12&#45;&gt;Node4 -->
<g id="edge9" class="edge">
<title>Node12&#45;&gt;Node4</title>
<path fill="none" stroke="midnightblue" d="M1082.39,-184.98C1095.7,-175.43 1117.5,-159.81 1133.46,-148.37"/>
<polygon fill="midnightblue" stroke="midnightblue" points="1135.54,-151.18 1141.63,-142.51 1131.46,-145.49 1135.54,-151.18"/>
</g>
<!-- Node12&#45;&gt;Node5 -->
<g id="edge20" class="edge">
<title>Node12&#45;&gt;Node5</title>
<path fill="none" stroke="midnightblue" d="M1028.83,-184.97C1003.91,-177.79 973.51,-165.04 954.5,-143 942.11,-128.63 937.71,-106.97 936.2,-91.45"/>
<polygon fill="midnightblue" stroke="midnightblue" points="939.69,-91.17 935.53,-81.43 932.7,-91.64 939.69,-91.17"/>
</g>
<!-- Node13 -->
<g id="node10" class="node">
<title>Node13</title>
<g id="a_node10"><a xlink:href="mapping_8h.html" target="_top" xlink:title=" ">
<polygon fill="none" stroke="red" points="433.5,-123.5 433.5,-142.5 501.5,-142.5 501.5,-123.5 433.5,-123.5"/>
<text text-anchor="middle" x="467.5" y="-130.5" font-family="Helvetica,sans-Serif" font-size="10.00">mapping.h</text>
</a>
</g>
</g>
<!-- Node12&#45;&gt;Node13 -->
<g id="edge10" class="edge">
<title>Node12&#45;&gt;Node13</title>
<path fill="none" stroke="midnightblue" d="M1017.38,-185.22C1001.96,-182.99 985.08,-180.73 969.5,-179 769.4,-156.81 714.81,-171.53 511.79,-143.01"/>
<polygon fill="midnightblue" stroke="midnightblue" points="512.09,-139.51 501.7,-141.57 511.1,-146.44 512.09,-139.51"/>
</g>
<!-- Node17 -->
<g id="node11" class="node">
<title>Node17</title>
<g id="a_node11"><a xlink:href="population_8h.html" target="_top" xlink:title=" ">
<polygon fill="none" stroke="red" points="964,-123.5 964,-142.5 1041,-142.5 1041,-123.5 964,-123.5"/>
<text text-anchor="middle" x="1002.5" y="-130.5" font-family="Helvetica,sans-Serif" font-size="10.00">population.h</text>
</a>
</g>
</g>
<!-- Node12&#45;&gt;Node17 -->
<g id="edge13" class="edge">
<title>Node12&#45;&gt;Node17</title>
<path fill="none" stroke="midnightblue" d="M1060.76,-184.98C1050.15,-175.7 1032.98,-160.67 1020.02,-149.33"/>
<polygon fill="midnightblue" stroke="midnightblue" points="1022.06,-146.46 1012.22,-142.51 1017.45,-151.73 1022.06,-146.46"/>
</g>
<!-- Node57 -->
<g id="node12" class="node">
<title>Node57</title>
<g id="a_node12"><a xlink:href="random__algorithm_8h.html" target="_top" xlink:title=" ">
<polygon fill="none" stroke="black" points="671.5,-123.5 671.5,-142.5 787.5,-142.5 787.5,-123.5 671.5,-123.5"/>
<text text-anchor="middle" x="729.5" y="-130.5" font-family="Helvetica,sans-Serif" font-size="10.00">random_algorithm.h</text>
</a>
</g>
</g>
<!-- Node12&#45;&gt;Node57 -->
<g id="edge15" class="edge">
<title>Node12&#45;&gt;Node57</title>
<path fill="none" stroke="midnightblue" d="M1032.65,-184.96C1023.16,-182.91 1012.97,-180.8 1003.5,-179 933.17,-165.62 852.23,-152.62 796.66,-144.06"/>
<polygon fill="midnightblue" stroke="midnightblue" points="797,-140.58 786.59,-142.52 795.94,-147.49 797,-140.58"/>
</g>
<!-- Node58 -->
<g id="node14" class="node">
<title>Node58</title>
<g id="a_node14"><a xlink:href="runtime__metric_8h.html" target="_top" xlink:title=" ">
<polygon fill="none" stroke="red" points="806,-123.5 806,-142.5 907,-142.5 907,-123.5 806,-123.5"/>
<text text-anchor="middle" x="856.5" y="-130.5" font-family="Helvetica,sans-Serif" font-size="10.00">runtime_metric.h</text>
</a>
</g>
</g>
<!-- Node12&#45;&gt;Node58 -->
<g id="edge19" class="edge">
<title>Node12&#45;&gt;Node58</title>
<path fill="none" stroke="midnightblue" d="M1039.84,-184.98C1002.26,-174.53 938.46,-156.79 896.9,-145.23"/>
<polygon fill="midnightblue" stroke="midnightblue" points="897.68,-141.82 887.1,-142.51 895.8,-148.56 897.68,-141.82"/>
</g>
<!-- Node13&#45;&gt;Node3 -->
<g id="edge12" class="edge">
<title>Node13&#45;&gt;Node3</title>
<path fill="none" stroke="midnightblue" d="M441.29,-123.41C424.65,-116.44 404.44,-104.81 394.5,-87 387.78,-74.97 385.28,-66.24 394.5,-56 420.76,-26.83 692.26,-15.23 788.72,-12.01"/>
<polygon fill="midnightblue" stroke="midnightblue" points="788.93,-15.5 798.81,-11.68 788.7,-8.51 788.93,-15.5"/>
</g>
<!-- Node13&#45;&gt;Node6 -->
<g id="edge11" class="edge">
<title>Node13&#45;&gt;Node6</title>
<path fill="none" stroke="midnightblue" d="M483.98,-123.48C503.11,-113.58 534.87,-97.14 557.15,-85.62"/>
<polygon fill="midnightblue" stroke="midnightblue" points="558.78,-88.71 566.05,-81.01 555.56,-82.5 558.78,-88.71"/>
</g>
<!-- Node17&#45;&gt;Node3 -->
<g id="edge14" class="edge">
<title>Node17&#45;&gt;Node3</title>
<path fill="none" stroke="midnightblue" d="M1002.05,-123.35C1000.75,-107.65 995.76,-74.4 976.5,-56 943.83,-24.78 890.73,-15.06 856.21,-12.12"/>
<polygon fill="midnightblue" stroke="midnightblue" points="856.35,-8.63 846.13,-11.41 855.86,-15.61 856.35,-8.63"/>
</g>
<!-- Node57&#45;&gt;Node5 -->
<g id="edge18" class="edge">
<title>Node57&#45;&gt;Node5</title>
<path fill="none" stroke="midnightblue" d="M759.01,-123.48C795.12,-113.05 856.35,-95.36 896.35,-83.81"/>
<polygon fill="midnightblue" stroke="midnightblue" points="897.4,-87.15 906.04,-81.01 895.46,-80.42 897.4,-87.15"/>
</g>
<!-- Node56 -->
<g id="node13" class="node">
<title>Node56</title>
<g id="a_node13"><a xlink:href="randombit__generator_8h.html" target="_top" xlink:title=" ">
<polygon fill="none" stroke="red" points="403.5,-62 403.5,-81 531.5,-81 531.5,-62 403.5,-62"/>
<text text-anchor="middle" x="467.5" y="-69" font-family="Helvetica,sans-Serif" font-size="10.00">randombit_generator.h</text>
</a>
</g>
</g>
<!-- Node57&#45;&gt;Node56 -->
<g id="edge16" class="edge">
<title>Node57&#45;&gt;Node56</title>
<path fill="none" stroke="midnightblue" d="M691.96,-123.48C645.27,-112.87 565.52,-94.76 514.72,-83.22"/>
<polygon fill="midnightblue" stroke="midnightblue" points="515.5,-79.81 504.97,-81.01 513.95,-86.64 515.5,-79.81"/>
</g>
<!-- Node56&#45;&gt;Node3 -->
<g id="edge17" class="edge">
<title>Node56&#45;&gt;Node3</title>
<path fill="none" stroke="midnightblue" d="M509.14,-61.95C519.38,-59.92 530.32,-57.82 540.5,-56 629.76,-40.02 735.42,-23.9 788.48,-16"/>
<polygon fill="midnightblue" stroke="midnightblue" points="789.3,-19.42 798.68,-14.49 788.27,-12.5 789.3,-19.42"/>
</g>
<!-- Node77 -->
<g id="node17" class="node">
<title>Node77</title>
<g id="a_node17"><a xlink:href="disease__table_8h.html" target="_top" xlink:title=" ">
<polygon fill="none" stroke="red" points="1562,-123.5 1562,-142.5 1655,-142.5 1655,-123.5 1562,-123.5"/>
<text text-anchor="middle" x="1608.5" y="-130.5" font-family="Helvetica,sans-Serif" font-size="10.00">disease_table.h</text>
</a>
</g>
</g>
<!-- Node69&#45;&gt;Node77 -->
<g id="edge24" class="edge">
<title>Node69&#45;&gt;Node77</title>
<path fill="none" stroke="midnightblue" d="M1398.6,-184.98C1441.99,-174.44 1515.91,-156.49 1563.45,-144.94"/>
<polygon fill="midnightblue" stroke="midnightblue" points="1564.57,-148.27 1573.46,-142.51 1562.92,-141.47 1564.57,-148.27"/>
</g>
<!-- Node44 -->
<g id="node18" class="node">
<title>Node44</title>
<g id="a_node18"><a xlink:href="HealthGPS_8Core_2poco_8h.html" target="_top" xlink:title=" ">
<polygon fill="none" stroke="red" points="1626,-62 1626,-81 1675,-81 1675,-62 1626,-62"/>
<text text-anchor="middle" x="1650.5" y="-69" font-family="Helvetica,sans-Serif" font-size="10.00">poco.h</text>
</a>
</g>
</g>
<!-- Node77&#45;&gt;Node44 -->
<g id="edge25" class="edge">
<title>Node77&#45;&gt;Node44</title>
<path fill="none" stroke="midnightblue" d="M1614.52,-123.48C1620.76,-114.64 1630.67,-100.59 1638.52,-89.48"/>
<polygon fill="midnightblue" stroke="midnightblue" points="1641.59,-91.2 1644.49,-81.01 1635.87,-87.16 1641.59,-91.2"/>
</g>
<!-- Node100 -->
<g id="node20" class="node">
<title>Node100</title>
<g id="a_node20"><a xlink:title=" ">
<polygon fill="none" stroke="#bfbfbf" points="2094.5,-185 2094.5,-204 2158.5,-204 2158.5,-185 2094.5,-185"/>
<text text-anchor="middle" x="2126.5" y="-192" font-family="Helvetica,sans-Serif" font-size="10.00">execution</text>
</a>
</g>
</g>
<!-- Node99&#45;&gt;Node100 -->
<g id="edge27" class="edge">
<title>Node99&#45;&gt;Node100</title>
<path fill="none" stroke="midnightblue" d="M2027.84,-246.4C2049.56,-235.19 2079.7,-219.64 2100.94,-208.69"/>
<polygon fill="midnightblue" stroke="midnightblue" points="2102.73,-211.7 2110.01,-204.01 2099.52,-205.48 2102.73,-211.7"/>
</g>
<!-- Node101 -->
<g id="node21" class="node">
<title>Node101</title>
<g id="a_node21"><a xlink:title=" ">
<polygon fill="none" stroke="#bfbfbf" points="2176.5,-185 2176.5,-204 2222.5,-204 2222.5,-185 2176.5,-185"/>
<text text-anchor="middle" x="2199.5" y="-192" font-family="Helvetica,sans-Serif" font-size="10.00">future</text>
</a>
</g>
</g>
<!-- Node99&#45;&gt;Node101 -->
<g id="edge28" class="edge">
<title>Node99&#45;&gt;Node101</title>
<path fill="none" stroke="midnightblue" d="M2053.37,-246.44C2086.52,-237.15 2129.93,-224.12 2167.5,-210 2169.11,-209.4 2170.75,-208.75 2172.4,-208.07"/>
<polygon fill="midnightblue" stroke="midnightblue" points="2173.94,-211.22 2181.73,-204.05 2171.17,-204.8 2173.94,-211.22"/>
</g>
<!-- Node53 -->
<g id="node22" class="node">
<title>Node53</title>
<g id="a_node22"><a xlink:title=" ">
<polygon fill="none" stroke="#bfbfbf" points="2240.5,-185 2240.5,-204 2288.5,-204 2288.5,-185 2240.5,-185"/>
<text text-anchor="middle" x="2264.5" y="-192" font-family="Helvetica,sans-Serif" font-size="10.00">mutex</text>
</a>
</g>
</g>
<!-- Node99&#45;&gt;Node53 -->
<g id="edge29" class="edge">
<title>Node99&#45;&gt;Node53</title>
<path fill="none" stroke="midnightblue" d="M2064.67,-247.15C2127.39,-234 2215.69,-215.14 2231.5,-210 2233.37,-209.39 2235.29,-208.71 2237.2,-207.99"/>
<polygon fill="midnightblue" stroke="midnightblue" points="2238.67,-211.17 2246.6,-204.14 2236.02,-204.69 2238.67,-211.17"/>
</g>
<!-- Node73 -->
<g id="node23" class="node">
<title>Node73</title>
<g id="a_node23"><a xlink:title=" ">
<polygon fill="none" stroke="#bfbfbf" points="1922.5,-0.5 1922.5,-19.5 1978.5,-19.5 1978.5,-0.5 1922.5,-0.5"/>
<text text-anchor="middle" x="1950.5" y="-7.5" font-family="Helvetica,sans-Serif" font-size="10.00">numeric</text>
</a>
</g>
</g>
<!-- Node99&#45;&gt;Node73 -->
<g id="edge30" class="edge">
<title>Node99&#45;&gt;Node73</title>
<path fill="none" stroke="midnightblue" d="M2003.84,-246.06C2010.64,-215.65 2024.92,-145.95 2018.5,-123 2008.04,-85.62 1981.32,-48.32 1964.65,-27.59"/>
<polygon fill="midnightblue" stroke="midnightblue" points="1967.27,-25.26 1958.21,-19.77 1961.87,-29.71 1967.27,-25.26"/>
</g>
<!-- Node102 -->
<g id="node24" class="node">
<title>Node102</title>
<g id="a_node24"><a xlink:title=" ">
<polygon fill="none" stroke="#bfbfbf" points="2028.5,-185 2028.5,-204 2076.5,-204 2076.5,-185 2028.5,-185"/>
<text text-anchor="middle" x="2052.5" y="-192" font-family="Helvetica,sans-Serif" font-size="10.00">thread</text>
</a>
</g>
</g>
<!-- Node99&#45;&gt;Node102 -->
<g id="edge31" class="edge">
<title>Node99&#45;&gt;Node102</title>
<path fill="none" stroke="midnightblue" d="M2011.78,-246.4C2019.81,-236.36 2030.63,-222.84 2039.1,-212.25"/>
<polygon fill="midnightblue" stroke="midnightblue" points="2042.03,-214.19 2045.54,-204.19 2036.56,-209.82 2042.03,-214.19"/>
</g>
<!-- Node72 -->
<g id="node26" class="node">
<title>Node72</title>
<g id="a_node26"><a xlink:href="gender__table_8h.html" target="_top" xlink:title=" ">
<polygon fill="none" stroke="red" points="1819,-62 1819,-81 1908,-81 1908,-62 1819,-62"/>
<text text-anchor="middle" x="1863.5" y="-69" font-family="Helvetica,sans-Serif" font-size="10.00">gender_table.h</text>
</a>
</g>
</g>
<!-- Node103&#45;&gt;Node72 -->
<g id="edge33" class="edge">
<title>Node103&#45;&gt;Node72</title>
<path fill="none" stroke="midnightblue" d="M1450.56,-123.48C1547.09,-111.56 1720.4,-90.17 1808.64,-79.27"/>
<polygon fill="midnightblue" stroke="midnightblue" points="1809.21,-82.73 1818.71,-78.03 1808.36,-75.78 1809.21,-82.73"/>
</g>
<!-- Node85 -->
<g id="node27" class="node">
<title>Node85</title>
<g id="a_node27"><a xlink:href="riskfactor__adjustment__types_8h.html" target="_top" xlink:title=" ">
<polygon fill="none" stroke="red" points="1295.5,-56.5 1295.5,-86.5 1419.5,-86.5 1419.5,-56.5 1295.5,-56.5"/>
<text text-anchor="start" x="1303.5" y="-74.5" font-family="Helvetica,sans-Serif" font-size="10.00">riskfactor_adjustment</text>
<text text-anchor="middle" x="1357.5" y="-63.5" font-family="Helvetica,sans-Serif" font-size="10.00">_types.h</text>
</a>
</g>
</g>
<!-- Node103&#45;&gt;Node85 -->
<g id="edge35" class="edge">
<title>Node103&#45;&gt;Node85</title>
<path fill="none" stroke="midnightblue" d="M1378.06,-123.48C1375.18,-116.32 1370.91,-105.75 1367.01,-96.08"/>
<polygon fill="midnightblue" stroke="midnightblue" points="1370.14,-94.49 1363.16,-86.52 1363.65,-97.11 1370.14,-94.49"/>
</g>
<!-- Node66 -->
<g id="node28" class="node">
<title>Node66</title>
<g id="a_node28"><a xlink:href="sync__message_8h.html" target="_top" xlink:title=" ">
<polygon fill="none" stroke="black" points="1437.5,-62 1437.5,-81 1535.5,-81 1535.5,-62 1437.5,-62"/>
<text text-anchor="middle" x="1486.5" y="-69" font-family="Helvetica,sans-Serif" font-size="10.00">sync_message.h</text>
</a>
</g>
</g>
<!-- Node103&#45;&gt;Node66 -->
<g id="edge37" class="edge">
<title>Node103&#45;&gt;Node66</title>
<path fill="none" stroke="midnightblue" d="M1396.54,-123.48C1413.78,-113.71 1442.24,-97.58 1462.53,-86.08"/>
<polygon fill="midnightblue" stroke="midnightblue" points="1464.51,-88.98 1471.48,-81.01 1461.06,-82.89 1464.51,-88.98"/>
</g>
<!-- Node72&#45;&gt;Node73 -->
<g id="edge34" class="edge">
<title>Node72&#45;&gt;Node73</title>
<path fill="none" stroke="midnightblue" d="M1875.96,-61.98C1889.92,-52.43 1912.76,-36.81 1929.49,-25.37"/>
<polygon fill="midnightblue" stroke="midnightblue" points="1931.78,-28.04 1938.06,-19.51 1927.83,-22.27 1931.78,-28.04"/>
</g>
<!-- Node85&#45;&gt;Node3 -->
<g id="edge36" class="edge">
<title>Node85&#45;&gt;Node3</title>
<path fill="none" stroke="midnightblue" d="M1295.23,-57.4C1292.28,-56.9 1289.36,-56.43 1286.5,-56 1126.36,-31.95 933.09,-18 856.31,-13.06"/>
<polygon fill="midnightblue" stroke="midnightblue" points="856.47,-9.56 846.27,-12.42 856.03,-16.55 856.47,-9.56"/>
</g>
<!-- Node104&#45;&gt;Node77 -->
<g id="edge46" class="edge">
<title>Node104&#45;&gt;Node77</title>
<path fill="none" stroke="midnightblue" d="M1580.33,-251.87C1569.58,-242.79 1554.03,-227.42 1547.5,-210 1542.67,-197.1 1541.29,-191.3 1547.5,-179 1554.31,-165.52 1567.27,-155.08 1579.5,-147.67"/>
<polygon fill="midnightblue" stroke="midnightblue" points="1581.57,-150.52 1588.59,-142.59 1578.16,-144.41 1581.57,-150.52"/>
</g>
<!-- Node104&#45;&gt;Node44 -->
<g id="edge57" class="edge">
<title>Node104&#45;&gt;Node44</title>
<path fill="none" stroke="midnightblue" d="M1627.19,-255.43C1673.81,-247.99 1751.51,-232.51 1768.5,-210 1776.8,-199 1774.1,-191.59 1768.5,-179 1758.14,-155.7 1701.27,-110.56 1670.42,-87.24"/>
<polygon fill="midnightblue" stroke="midnightblue" points="1672.22,-84.21 1662.12,-81.01 1668.02,-89.81 1672.22,-84.21"/>
</g>
<!-- Node104&#45;&gt;Node72 -->
<g id="edge47" class="edge">
<title>Node104&#45;&gt;Node72</title>
<path fill="none" stroke="midnightblue" d="M1627.2,-256.67C1683.67,-249.96 1790.1,-234.4 1818.5,-210 1853.65,-179.8 1861.51,-121.71 1863.16,-91.62"/>
<polygon fill="midnightblue" stroke="midnightblue" points="1866.67,-91.36 1863.53,-81.24 1859.67,-91.11 1866.67,-91.36"/>
</g>
<!-- Node71 -->
<g id="node30" class="node">
<title>Node71</title>
<g id="a_node30"><a xlink:href="analysis__definition_8h.html" target="_top" xlink:title=" ">
<polygon fill="none" stroke="red" points="1892,-123.5 1892,-142.5 2009,-142.5 2009,-123.5 1892,-123.5"/>
<text text-anchor="middle" x="1950.5" y="-130.5" font-family="Helvetica,sans-Serif" font-size="10.00">analysis_definition.h</text>
</a>
</g>
</g>
<!-- Node104&#45;&gt;Node71 -->
<g id="edge39" class="edge">
<title>Node104&#45;&gt;Node71</title>
<path fill="none" stroke="midnightblue" d="M1627.22,-261.13C1683.71,-260.66 1795.65,-253.67 1877.5,-210 1903.89,-195.92 1926.35,-168.82 1939.13,-151.08"/>
<polygon fill="midnightblue" stroke="midnightblue" points="1942.07,-152.98 1944.9,-142.77 1936.32,-148.99 1942.07,-152.98"/>
</g>
<!-- Node76 -->
<g id="node31" class="node">
<title>Node76</title>
<g id="a_node31"><a xlink:href="disease__definition_8h.html" target="_top" xlink:title=" ">
<polygon fill="none" stroke="red" points="1645.5,-185 1645.5,-204 1759.5,-204 1759.5,-185 1645.5,-185"/>
<text text-anchor="middle" x="1702.5" y="-192" font-family="Helvetica,sans-Serif" font-size="10.00">disease_definition.h</text>
</a>
</g>
</g>
<!-- Node104&#45;&gt;Node76 -->
<g id="edge41" class="edge">
<title>Node104&#45;&gt;Node76</title>
<path fill="none" stroke="midnightblue" d="M1606.47,-251.73C1625.11,-240.82 1657.16,-222.05 1679.07,-209.22"/>
<polygon fill="midnightblue" stroke="midnightblue" points="1680.91,-212.2 1687.77,-204.13 1677.37,-206.16 1680.91,-212.2"/>
</g>
<!-- Node79 -->
<g id="node32" class="node">
<title>Node79</title>
<g id="a_node32"><a xlink:href="relative__risk_8h.html" target="_top" xlink:title=" ">
<polygon fill="none" stroke="red" points="1749.5,-123.5 1749.5,-142.5 1835.5,-142.5 1835.5,-123.5 1749.5,-123.5"/>
<text text-anchor="middle" x="1792.5" y="-130.5" font-family="Helvetica,sans-Serif" font-size="10.00">relative_risk.h</text>
</a>
</g>
</g>
<!-- Node104&#45;&gt;Node79 -->
<g id="edge53" class="edge">
<title>Node104&#45;&gt;Node79</title>
<path fill="none" stroke="midnightblue" d="M1627.36,-257.15C1681.54,-251.25 1780.21,-237.02 1801.5,-210 1814.44,-193.58 1808.07,-168.63 1801.24,-151.85"/>
<polygon fill="midnightblue" stroke="midnightblue" points="1804.38,-150.29 1797.1,-142.6 1798,-153.15 1804.38,-150.29"/>
</g>
<!-- Node92 -->
<g id="node33" class="node">
<title>Node92</title>
<g id="a_node33"><a xlink:href="life__table_8h.html" target="_top" xlink:title=" ">
<polygon fill="none" stroke="red" points="1556,-185 1556,-204 1627,-204 1627,-185 1556,-185"/>
<text text-anchor="middle" x="1591.5" y="-192" font-family="Helvetica,sans-Serif" font-size="10.00">life_table.h</text>
</a>
</g>
</g>
<!-- Node104&#45;&gt;Node92 -->
<g id="edge48" class="edge">
<title>Node104&#45;&gt;Node92</title>
<path fill="none" stroke="midnightblue" d="M1591.5,-251.73C1591.5,-242.18 1591.5,-226.62 1591.5,-214.28"/>
<polygon fill="midnightblue" stroke="midnightblue" points="1595,-214.13 1591.5,-204.13 1588,-214.13 1595,-214.13"/>
</g>
<!-- Node83 -->
<g id="node34" class="node">
<title>Node83</title>
<g id="a_node34"><a xlink:href="lms__definition_8h.html" target="_top" xlink:title=" ">
<polygon fill="none" stroke="red" points="520,-123.5 520,-142.5 615,-142.5 615,-123.5 520,-123.5"/>
<text text-anchor="middle" x="567.5" y="-130.5" font-family="Helvetica,sans-Serif" font-size="10.00">lms_definition.h</text>
</a>
</g>
</g>
<!-- Node104&#45;&gt;Node83 -->
<g id="edge49" class="edge">
<title>Node104&#45;&gt;Node83</title>
<path fill="none" stroke="midnightblue" d="M1555.75,-258.61C1436.84,-252.14 1059.29,-230.23 1008.5,-210 987.93,-201.81 989.97,-187.45 969.5,-179 953.82,-172.53 732.7,-150.18 625.27,-139.62"/>
<polygon fill="midnightblue" stroke="midnightblue" points="625.53,-136.13 615.24,-138.63 624.85,-143.09 625.53,-136.13"/>
</g>
<!-- Node60 -->
<g id="node35" class="node">
<title>Node60</title>
<g id="a_node35"><a xlink:href="modelinput_8h.html" target="_top" xlink:title=" ">
<polygon fill="none" stroke="red" points="880,-185 880,-204 961,-204 961,-185 880,-185"/>
<text text-anchor="middle" x="920.5" y="-192" font-family="Helvetica,sans-Serif" font-size="10.00">modelinput.h</text>
</a>
</g>
</g>
<!-- Node104&#45;&gt;Node60 -->
<g id="edge51" class="edge">
<title>Node104&#45;&gt;Node60</title>
<path fill="none" stroke="midnightblue" d="M1555.81,-259.77C1460.77,-257.34 1193.9,-247.44 975.5,-210 970.09,-209.07 964.43,-207.86 958.89,-206.54"/>
<polygon fill="midnightblue" stroke="midnightblue" points="959.67,-203.13 949.12,-204.07 957.96,-209.91 959.67,-203.13"/>
</g>
<!-- Node41 -->
<g id="node36" class="node">
<title>Node41</title>
<g id="a_node36"><a xlink:href="datastore_8h.html" target="_top" xlink:title=" ">
<polygon fill="none" stroke="red" points="1471.5,-123.5 1471.5,-142.5 1543.5,-142.5 1543.5,-123.5 1471.5,-123.5"/>
<text text-anchor="middle" x="1507.5" y="-130.5" font-family="Helvetica,sans-Serif" font-size="10.00">datastore.h</text>
</a>
</g>
</g>
<!-- Node104&#45;&gt;Node41 -->
<g id="edge54" class="edge">
<title>Node104&#45;&gt;Node41</title>
<path fill="none" stroke="midnightblue" d="M1580,-251.95C1568.24,-242.72 1550.1,-227.01 1538.5,-210 1526.24,-192.02 1517.57,-168.44 1512.58,-152.34"/>
<polygon fill="midnightblue" stroke="midnightblue" points="1515.88,-151.16 1509.71,-142.55 1509.16,-153.13 1515.88,-151.16"/>
</g>
<!-- Node71&#45;&gt;Node72 -->
<g id="edge40" class="edge">
<title>Node71&#45;&gt;Node72</title>
<path fill="none" stroke="midnightblue" d="M1938.04,-123.48C1924.08,-113.93 1901.24,-98.31 1884.51,-86.87"/>
<polygon fill="midnightblue" stroke="midnightblue" points="1886.17,-83.77 1875.94,-81.01 1882.22,-89.54 1886.17,-83.77"/>
</g>
<!-- Node76&#45;&gt;Node77 -->
<g id="edge43" class="edge">
<title>Node76&#45;&gt;Node77</title>
<path fill="none" stroke="midnightblue" d="M1689.03,-184.98C1673.82,-175.34 1648.81,-159.52 1630.7,-148.05"/>
<polygon fill="midnightblue" stroke="midnightblue" points="1632.26,-144.9 1621.94,-142.51 1628.52,-150.81 1632.26,-144.9"/>
</g>
<!-- Node76&#45;&gt;Node44 -->
<g id="edge42" class="edge">
<title>Node76&#45;&gt;Node44</title>
<path fill="none" stroke="midnightblue" d="M1698.76,-184.8C1690.29,-165.09 1669.5,-116.71 1658.17,-90.34"/>
<polygon fill="midnightblue" stroke="midnightblue" points="1661.37,-88.93 1654.21,-81.12 1654.94,-91.69 1661.37,-88.93"/>
</g>
<!-- Node76&#45;&gt;Node79 -->
<g id="edge44" class="edge">
<title>Node76&#45;&gt;Node79</title>
<path fill="none" stroke="midnightblue" d="M1715.39,-184.98C1729.96,-175.34 1753.9,-159.52 1771.25,-148.05"/>
<polygon fill="midnightblue" stroke="midnightblue" points="1773.22,-150.94 1779.63,-142.51 1769.36,-145.1 1773.22,-150.94"/>
</g>
<!-- Node79&#45;&gt;Node72 -->
<g id="edge45" class="edge">
<title>Node79&#45;&gt;Node72</title>
<path fill="none" stroke="midnightblue" d="M1802.67,-123.48C1813.85,-114.11 1832.02,-98.88 1845.59,-87.51"/>
<polygon fill="midnightblue" stroke="midnightblue" points="1847.93,-90.11 1853.35,-81.01 1843.43,-84.75 1847.93,-90.11"/>
</g>
<!-- Node83&#45;&gt;Node6 -->
<g id="edge50" class="edge">
<title>Node83&#45;&gt;Node6</title>
<path fill="none" stroke="midnightblue" d="M569.65,-123.48C571.79,-114.99 575.14,-101.7 577.88,-90.82"/>
<polygon fill="midnightblue" stroke="midnightblue" points="581.3,-91.56 580.35,-81.01 574.52,-89.85 581.3,-91.56"/>
</g>
<!-- Node60&#45;&gt;Node13 -->
<g id="edge52" class="edge">
<title>Node60&#45;&gt;Node13</title>
<path fill="none" stroke="midnightblue" d="M879.8,-186.43C864.66,-183.92 847.32,-181.17 831.5,-179 692.47,-159.89 653.97,-165.46 511.69,-143.06"/>
<polygon fill="midnightblue" stroke="midnightblue" points="512.14,-139.58 501.71,-141.47 511.04,-146.5 512.14,-139.58"/>
</g>
<!-- Node41&#45;&gt;Node3 -->
<g id="edge56" class="edge">
<title>Node41&#45;&gt;Node3</title>
<path fill="none" stroke="midnightblue" d="M1517.68,-123.26C1534.27,-108 1563.49,-76.21 1544.5,-56 1520.64,-30.61 995.36,-15.42 856.12,-11.83"/>
<polygon fill="midnightblue" stroke="midnightblue" points="856.13,-8.33 846.04,-11.57 855.95,-15.32 856.13,-8.33"/>
</g>
<!-- Node41&#45;&gt;Node44 -->
<g id="edge55" class="edge">
<title>Node41&#45;&gt;Node44</title>
<path fill="none" stroke="midnightblue" d="M1527.99,-123.48C1552.31,-113.36 1593.05,-96.4 1620.82,-84.85"/>
<polygon fill="midnightblue" stroke="midnightblue" points="1622.16,-88.08 1630.05,-81.01 1619.47,-81.62 1622.16,-88.08"/>
</g>
<!-- Node80 -->
<g id="node38" class="node">
<title>Node80</title>
<g id="a_node38"><a xlink:href="energy__balance__hierarchical__model_8h.html" target="_top" xlink:title=" ">
<polygon fill="none" stroke="red" points="571.5,-179.5 571.5,-209.5 727.5,-209.5 727.5,-179.5 571.5,-179.5"/>
<text text-anchor="start" x="579.5" y="-197.5" font-family="Helvetica,sans-Serif" font-size="10.00">energy_balance_hierarchical</text>
<text text-anchor="middle" x="649.5" y="-186.5" font-family="Helvetica,sans-Serif" font-size="10.00">_model.h</text>
</a>
</g>
</g>
<!-- Node96&#45;&gt;Node80 -->
<g id="edge59" class="edge">
<title>Node96&#45;&gt;Node80</title>
<path fill="none" stroke="midnightblue" d="M583.75,-251.73C594.32,-242.7 611.18,-228.27 625.18,-216.3"/>
<polygon fill="midnightblue" stroke="midnightblue" points="627.7,-218.75 633.03,-209.59 623.15,-213.43 627.7,-218.75"/>
</g>
<!-- Node81 -->
<g id="node39" class="node">
<title>Node81</title>
<g id="a_node39"><a xlink:href="energy__balance__model_8h.html" target="_top" xlink:title=" ">
<polygon fill="none" stroke="red" points="286,-185 286,-204 425,-204 425,-185 286,-185"/>
<text text-anchor="middle" x="355.5" y="-192" font-family="Helvetica,sans-Serif" font-size="10.00">energy_balance_model.h</text>
</a>
</g>
</g>
<!-- Node96&#45;&gt;Node81 -->
<g id="edge62" class="edge">
<title>Node96&#45;&gt;Node81</title>
<path fill="none" stroke="midnightblue" d="M544.55,-251.87C505.84,-240.33 437.12,-219.84 394.05,-207"/>
<polygon fill="midnightblue" stroke="midnightblue" points="394.8,-203.57 384.22,-204.06 392.8,-210.28 394.8,-203.57"/>
</g>
<!-- Node82 -->
<g id="node40" class="node">
<title>Node82</title>
<g id="a_node40"><a xlink:href="hierarchical__model__static_8h.html" target="_top" xlink:title=" ">
<polygon fill="none" stroke="red" points="443.5,-179.5 443.5,-209.5 553.5,-209.5 553.5,-179.5 443.5,-179.5"/>
<text text-anchor="start" x="451.5" y="-197.5" font-family="Helvetica,sans-Serif" font-size="10.00">hierarchical_model</text>
<text text-anchor="middle" x="498.5" y="-186.5" font-family="Helvetica,sans-Serif" font-size="10.00">_static.h</text>
</a>
</g>
</g>
<!-- Node96&#45;&gt;Node82 -->
<g id="edge64" class="edge">
<title>Node96&#45;&gt;Node82</title>
<path fill="none" stroke="midnightblue" d="M563.39,-251.73C552.96,-242.7 536.32,-228.27 522.5,-216.3"/>
<polygon fill="midnightblue" stroke="midnightblue" points="524.61,-213.49 514.76,-209.59 520.02,-218.78 524.61,-213.49"/>
</g>
<!-- Node80&#45;&gt;Node13 -->
<g id="edge60" class="edge">
<title>Node80&#45;&gt;Node13</title>
<path fill="none" stroke="midnightblue" d="M606.37,-179.4C574.92,-169.12 532.81,-155.35 503.23,-145.68"/>
<polygon fill="midnightblue" stroke="midnightblue" points="504.31,-142.35 493.72,-142.57 502.13,-149.01 504.31,-142.35"/>
</g>
<!-- Node80&#45;&gt;Node57 -->
<g id="edge61" class="edge">
<title>Node80&#45;&gt;Node57</title>
<path fill="none" stroke="midnightblue" d="M668.46,-179.4C680.92,-170.13 697.2,-158.03 709.81,-148.65"/>
<polygon fill="midnightblue" stroke="midnightblue" points="711.92,-151.43 717.86,-142.66 707.75,-145.82 711.92,-151.43"/>
</g>
<!-- Node81&#45;&gt;Node13 -->
<g id="edge63" class="edge">
<title>Node81&#45;&gt;Node13</title>
<path fill="none" stroke="midnightblue" d="M371.55,-184.98C390.09,-175.12 420.84,-158.79 442.52,-147.27"/>
<polygon fill="midnightblue" stroke="midnightblue" points="444.29,-150.29 451.48,-142.51 441.01,-144.11 444.29,-150.29"/>
</g>
<!-- Node82&#45;&gt;Node13 -->
<g id="edge65" class="edge">
<title>Node82&#45;&gt;Node13</title>
<path fill="none" stroke="midnightblue" d="M491.15,-179.4C486.83,-171.11 481.33,-160.55 476.73,-151.71"/>
<polygon fill="midnightblue" stroke="midnightblue" points="479.74,-149.91 472.01,-142.66 473.53,-153.14 479.74,-149.91"/>
</g>
<!-- Node105&#45;&gt;Node7 -->
<g id="edge67" class="edge">
<title>Node105&#45;&gt;Node7</title>
<path fill="none" stroke="midnightblue" d="M1204.74,-251.88C1215.19,-229.33 1239.76,-167.27 1217.5,-123 1209.32,-106.73 1193.13,-94.38 1178.61,-85.97"/>
<polygon fill="midnightblue" stroke="midnightblue" points="1179.86,-82.67 1169.4,-81.01 1176.54,-88.83 1179.86,-82.67"/>
</g>
<!-- Node106&#45;&gt;Node56 -->
<g id="edge69" class="edge">
<title>Node106&#45;&gt;Node56</title>
<path fill="none" stroke="midnightblue" d="M257.32,-251.94C257.42,-235.98 259.72,-201.28 276.5,-179 314.3,-128.82 383.04,-99.01 426.93,-84.21"/>
<polygon fill="midnightblue" stroke="midnightblue" points="428.02,-87.53 436.44,-81.1 425.84,-80.88 428.02,-87.53"/>
</g>
<!-- Node107 -->
<g id="node43" class="node">
<title>Node107</title>
<g id="a_node43"><a xlink:title=" ">
<polygon fill="none" stroke="#bfbfbf" points="175.5,-185 175.5,-204 229.5,-204 229.5,-185 175.5,-185"/>
<text text-anchor="middle" x="202.5" y="-192" font-family="Helvetica,sans-Serif" font-size="10.00">random</text>
</a>
</g>
</g>
<!-- Node106&#45;&gt;Node107 -->
<g id="edge70" class="edge">
<title>Node106&#45;&gt;Node107</title>
<path fill="none" stroke="midnightblue" d="M250.08,-251.73C241.51,-241.6 227.2,-224.69 216.51,-212.06"/>
<polygon fill="midnightblue" stroke="midnightblue" points="218.93,-209.5 209.8,-204.13 213.59,-214.02 218.93,-209.5"/>
</g>
<!-- Node108&#45;&gt;Node6 -->
<g id="edge72" class="edge">
<title>Node108&#45;&gt;Node6</title>
<path fill="none" stroke="midnightblue" d="M229.69,-128.84C301.89,-123.88 431.97,-112.11 540.5,-87 543.91,-86.21 547.43,-85.25 550.92,-84.19"/>
<polygon fill="midnightblue" stroke="midnightblue" points="552.1,-87.49 560.52,-81.06 549.93,-80.83 552.1,-87.49"/>
</g>
<!-- Node38 -->
<g id="node45" class="node">
<title>Node38</title>
<g id="a_node45"><a xlink:href="column__numeric_8h.html" target="_top" xlink:title=" ">
<polygon fill="none" stroke="red" points="143,-62 143,-81 250,-81 250,-62 143,-62"/>
<text text-anchor="middle" x="196.5" y="-69" font-family="Helvetica,sans-Serif" font-size="10.00">column_numeric.h</text>
</a>
</g>
</g>
<!-- Node108&#45;&gt;Node38 -->
<g id="edge73" class="edge">
<title>Node108&#45;&gt;Node38</title>
<path fill="none" stroke="midnightblue" d="M177.65,-123.48C180.82,-114.9 185.8,-101.43 189.85,-90.48"/>
<polygon fill="midnightblue" stroke="midnightblue" points="193.17,-91.6 193.35,-81.01 186.6,-89.17 193.17,-91.6"/>
</g>
<!-- Node54 -->
<g id="node46" class="node">
<title>Node54</title>
<g id="a_node46"><a xlink:href="univariate__summary_8h.html" target="_top" xlink:title=" ">
<polygon fill="none" stroke="red" points="0,-62 0,-81 125,-81 125,-62 0,-62"/>
<text text-anchor="middle" x="62.5" y="-69" font-family="Helvetica,sans-Serif" font-size="10.00">univariate_summary.h</text>
</a>
</g>
</g>
<!-- Node108&#45;&gt;Node54 -->
<g id="edge74" class="edge">
<title>Node108&#45;&gt;Node54</title>
<path fill="none" stroke="midnightblue" d="M158.45,-123.48C139.91,-113.62 109.16,-97.29 87.48,-85.77"/>
<polygon fill="midnightblue" stroke="midnightblue" points="88.99,-82.61 78.52,-81.01 85.71,-88.79 88.99,-82.61"/>
</g>
<!-- Node35 -->
<g id="node47" class="node">
<title>Node35</title>
<g id="a_node47"><a xlink:href="visitor_8h.html" target="_top" xlink:title=" ">
<polygon fill="none" stroke="red" points="268.5,-62 268.5,-81 324.5,-81 324.5,-62 268.5,-62"/>
<text text-anchor="middle" x="296.5" y="-69" font-family="Helvetica,sans-Serif" font-size="10.00">visitor.h</text>
</a>
</g>
</g>
<!-- Node108&#45;&gt;Node35 -->
<g id="edge76" class="edge">
<title>Node108&#45;&gt;Node35</title>
<path fill="none" stroke="midnightblue" d="M191.98,-123.48C212.36,-113.53 246.28,-96.99 269.92,-85.46"/>
<polygon fill="midnightblue" stroke="midnightblue" points="271.6,-88.54 279.05,-81.01 268.53,-82.25 271.6,-88.54"/>
</g>
<!-- Node54&#45;&gt;Node3 -->
<g id="edge75" class="edge">
<title>Node54&#45;&gt;Node3</title>
<path fill="none" stroke="midnightblue" d="M99.55,-61.94C110.44,-59.69 122.4,-57.49 133.5,-56 383.68,-22.44 688.47,-13.64 788.75,-11.58"/>
<polygon fill="midnightblue" stroke="midnightblue" points="788.96,-15.07 798.89,-11.38 788.82,-8.08 788.96,-15.07"/>
</g>
</g>
</svg>
