<?xml version="1.0" encoding="UTF-8" standalone="no"?>
<!DOCTYPE svg PUBLIC "-//W3C//DTD SVG 1.1//EN"
 "http://www.w3.org/Graphics/SVG/1.1/DTD/svg11.dtd">
<!-- Generated by graphviz version 2.43.0 (0)
 -->
<!-- Title: HealthGPS/healthgps.cpp Pages: 1 -->
<svg width="2317pt" height="397pt"
 viewBox="0.00 0.00 2316.50 397.00" xmlns="http://www.w3.org/2000/svg" xmlns:xlink="http://www.w3.org/1999/xlink">
<g id="graph0" class="graph" transform="scale(1 1) rotate(0) translate(4 393)">
<title>HealthGPS/healthgps.cpp</title>
<!-- Node1 -->
<g id="node1" class="node">
<title>Node1</title>
<g id="a_node1"><a xlink:title=" ">
<polygon fill="#bfbfbf" stroke="black" points="1251,-369.5 1251,-388.5 1391,-388.5 1391,-369.5 1251,-369.5"/>
<text text-anchor="middle" x="1321" y="-376.5" font-family="Helvetica,sans-Serif" font-size="10.00">HealthGPS/healthgps.cpp</text>
</a>
</g>
</g>
<!-- Node2 -->
<g id="node2" class="node">
<title>Node2</title>
<g id="a_node2"><a xlink:href="healthgps_8h.html" target="_top" xlink:title=" ">
<polygon fill="none" stroke="black" points="560,-308 560,-327 634,-327 634,-308 560,-308"/>
<text text-anchor="middle" x="597" y="-315" font-family="Helvetica,sans-Serif" font-size="10.00">healthgps.h</text>
</a>
</g>
</g>
<!-- Node1&#45;&gt;Node2 -->
<g id="edge1" class="edge">
<title>Node1&#45;&gt;Node2</title>
<path fill="none" stroke="midnightblue" d="M1250.92,-372.24C1104.37,-360.2 768.82,-332.62 644.48,-322.4"/>
<polygon fill="midnightblue" stroke="midnightblue" points="644.42,-318.88 634.16,-321.55 643.84,-325.86 644.42,-318.88"/>
</g>
<!-- Node10 -->
<g id="node11" class="node">
<title>Node10</title>
<g id="a_node11"><a xlink:title=" ">
<polygon fill="none" stroke="#bfbfbf" points="339,-123.5 339,-142.5 397,-142.5 397,-123.5 339,-123.5"/>
<text text-anchor="middle" x="368" y="-130.5" font-family="Helvetica,sans-Serif" font-size="10.00">memory</text>
</a>
</g>
</g>
<!-- Node1&#45;&gt;Node10 -->
<g id="edge77" class="edge">
<title>Node1&#45;&gt;Node10</title>
<path fill="none" stroke="midnightblue" d="M1250.71,-376.21C1086.98,-371.65 683.97,-358.18 551,-333 362.64,-297.33 253.55,-354.19 141,-199 135.78,-191.8 135.36,-185.87 141,-179 164.33,-150.59 270.32,-139.8 328.85,-135.96"/>
<polygon fill="midnightblue" stroke="midnightblue" points="329.09,-139.45 338.86,-135.34 328.66,-132.46 329.09,-139.45"/>
</g>
<!-- Node99 -->
<g id="node21" class="node">
<title>Node99</title>
<g id="a_node21"><a xlink:href="mtrandom_8h.html" target="_top" xlink:title=" ">
<polygon fill="none" stroke="black" points="884.5,-308 884.5,-327 961.5,-327 961.5,-308 884.5,-308"/>
<text text-anchor="middle" x="923" y="-315" font-family="Helvetica,sans-Serif" font-size="10.00">mtrandom.h</text>
</a>
</g>
</g>
<!-- Node1&#45;&gt;Node99 -->
<g id="edge30" class="edge">
<title>Node1&#45;&gt;Node99</title>
<path fill="none" stroke="midnightblue" d="M1263.98,-369.48C1185.45,-357.74 1045.39,-336.8 971.59,-325.76"/>
<polygon fill="midnightblue" stroke="midnightblue" points="972.03,-322.29 961.63,-324.27 971,-329.21 972.03,-322.29"/>
</g>
<!-- Node101 -->
<g id="node23" class="node">
<title>Node101</title>
<g id="a_node23"><a xlink:href="univariate__visitor_8h.html" target="_top" xlink:title=" ">
<polygon fill="none" stroke="black" points="814,-123.5 814,-142.5 924,-142.5 924,-123.5 814,-123.5"/>
<text text-anchor="middle" x="869" y="-130.5" font-family="Helvetica,sans-Serif" font-size="10.00">univariate_visitor.h</text>
</a>
</g>
</g>
<!-- Node1&#45;&gt;Node101 -->
<g id="edge33" class="edge">
<title>Node1&#45;&gt;Node101</title>
<path fill="none" stroke="midnightblue" d="M1250.83,-378.22C1141.39,-377.37 936.27,-370.6 875,-333 834.46,-308.12 823.69,-281.83 832,-235 837.36,-204.76 851.1,-171.7 860.25,-151.91"/>
<polygon fill="midnightblue" stroke="midnightblue" points="863.53,-153.16 864.65,-142.63 857.2,-150.16 863.53,-153.16"/>
</g>
<!-- Node102 -->
<g id="node27" class="node">
<title>Node102</title>
<g id="a_node27"><a xlink:href="info__message_8h.html" target="_top" xlink:title=" ">
<polygon fill="none" stroke="black" points="0,-308 0,-327 94,-327 94,-308 0,-308"/>
<text text-anchor="middle" x="47" y="-315" font-family="Helvetica,sans-Serif" font-size="10.00">info_message.h</text>
</a>
</g>
</g>
<!-- Node1&#45;&gt;Node102 -->
<g id="edge39" class="edge">
<title>Node1&#45;&gt;Node102</title>
<path fill="none" stroke="midnightblue" d="M1250.63,-377.2C1026.5,-374.38 331.04,-363.35 108,-333 101.49,-332.11 94.65,-330.84 88.01,-329.41"/>
<polygon fill="midnightblue" stroke="midnightblue" points="88.34,-325.89 77.81,-327.07 86.77,-332.72 88.34,-325.89"/>
</g>
<!-- Node103 -->
<g id="node28" class="node">
<title>Node103</title>
<g id="a_node28"><a xlink:href="converter_8h.html" target="_top" xlink:title=" ">
<polygon fill="none" stroke="black" points="1457.5,-308 1457.5,-327 1528.5,-327 1528.5,-308 1457.5,-308"/>
<text text-anchor="middle" x="1493" y="-315" font-family="Helvetica,sans-Serif" font-size="10.00">converter.h</text>
</a>
</g>
</g>
<!-- Node1&#45;&gt;Node103 -->
<g id="edge41" class="edge">
<title>Node1&#45;&gt;Node103</title>
<path fill="none" stroke="midnightblue" d="M1345.64,-369.48C1375.28,-359.22 1425.18,-341.96 1458.6,-330.4"/>
<polygon fill="midnightblue" stroke="midnightblue" points="1460.1,-333.59 1468.4,-327.01 1457.81,-326.97 1460.1,-333.59"/>
</g>
<!-- Node88 -->
<g id="node37" class="node">
<title>Node88</title>
<g id="a_node37"><a xlink:href="hierarchical__model_8h.html" target="_top" xlink:title=" ">
<polygon fill="none" stroke="black" points="1089.5,-308 1089.5,-327 1208.5,-327 1208.5,-308 1089.5,-308"/>
<text text-anchor="middle" x="1149" y="-315" font-family="Helvetica,sans-Serif" font-size="10.00">hierarchical_model.h</text>
</a>
</g>
</g>
<!-- Node1&#45;&gt;Node88 -->
<g id="edge60" class="edge">
<title>Node1&#45;&gt;Node88</title>
<path fill="none" stroke="midnightblue" d="M1296.36,-369.48C1266.72,-359.22 1216.82,-341.96 1183.4,-330.4"/>
<polygon fill="midnightblue" stroke="midnightblue" points="1184.19,-326.97 1173.6,-327.01 1181.9,-333.59 1184.19,-326.97"/>
</g>
<!-- Node104 -->
<g id="node40" class="node">
<title>Node104</title>
<g id="a_node40"><a xlink:href="baseline__sync__message_8h.html" target="_top" xlink:title=" ">
<polygon fill="none" stroke="black" points="1831,-179.5 1831,-198.5 1975,-198.5 1975,-179.5 1831,-179.5"/>
<text text-anchor="middle" x="1903" y="-186.5" font-family="Helvetica,sans-Serif" font-size="10.00">baseline_sync_message.h</text>
</a>
</g>
</g>
<!-- Node1&#45;&gt;Node104 -->
<g id="edge64" class="edge">
<title>Node1&#45;&gt;Node104</title>
<path fill="none" stroke="midnightblue" d="M1383.22,-369.47C1473.01,-355.68 1642.87,-323.98 1777,-266 1816.51,-248.92 1858.59,-221.41 1882.74,-204.59"/>
<polygon fill="midnightblue" stroke="midnightblue" points="1884.92,-207.33 1891.08,-198.71 1880.89,-201.61 1884.92,-207.33"/>
</g>
<!-- Node105 -->
<g id="node43" class="node">
<title>Node105</title>
<g id="a_node43"><a xlink:href="thread__util_8h.html" target="_top" xlink:title=" ">
<polygon fill="none" stroke="black" points="1923,-302.5 1923,-332.5 2051,-332.5 2051,-302.5 1923,-302.5"/>
<text text-anchor="start" x="1931" y="-320.5" font-family="Helvetica,sans-Serif" font-size="10.00">HealthGPS.Core/thread</text>
<text text-anchor="middle" x="1987" y="-309.5" font-family="Helvetica,sans-Serif" font-size="10.00">_util.h</text>
</a>
</g>
</g>
<!-- Node1&#45;&gt;Node105 -->
<g id="edge69" class="edge">
<title>Node1&#45;&gt;Node105</title>
<path fill="none" stroke="midnightblue" d="M1391.01,-373.51C1496.68,-366.47 1703.15,-351.68 1878,-333 1889.23,-331.8 1901.09,-330.38 1912.7,-328.91"/>
<polygon fill="midnightblue" stroke="midnightblue" points="1913.33,-332.35 1922.8,-327.6 1912.44,-325.41 1913.33,-332.35"/>
</g>
<!-- Node109 -->
<g id="node48" class="node">
<title>Node109</title>
<g id="a_node48"><a xlink:title=" ">
<polygon fill="none" stroke="#bfbfbf" points="2069,-308 2069,-327 2129,-327 2129,-308 2069,-308"/>
<text text-anchor="middle" x="2099" y="-315" font-family="Helvetica,sans-Serif" font-size="10.00">iostream</text>
</a>
</g>
</g>
<!-- Node1&#45;&gt;Node109 -->
<g id="edge75" class="edge">
<title>Node1&#45;&gt;Node109</title>
<path fill="none" stroke="midnightblue" d="M1391.17,-376.36C1550.12,-372.22 1933.62,-359.72 2060,-333 2063.25,-332.31 2066.59,-331.4 2069.89,-330.38"/>
<polygon fill="midnightblue" stroke="midnightblue" points="2071.2,-333.63 2079.5,-327.04 2068.9,-327.01 2071.2,-333.63"/>
</g>
<!-- Node13 -->
<g id="node49" class="node">
<title>Node13</title>
<g id="a_node49"><a xlink:title=" ">
<polygon fill="none" stroke="#bfbfbf" points="2147,-308 2147,-327 2211,-327 2211,-308 2147,-308"/>
<text text-anchor="middle" x="2179" y="-315" font-family="Helvetica,sans-Serif" font-size="10.00">algorithm</text>
</a>
</g>
</g>
<!-- Node1&#45;&gt;Node13 -->
<g id="edge76" class="edge">
<title>Node1&#45;&gt;Node13</title>
<path fill="none" stroke="midnightblue" d="M1391.16,-376.7C1562.01,-373.11 1996.01,-361.41 2138,-333 2141.51,-332.3 2145.13,-331.36 2148.69,-330.29"/>
<polygon fill="midnightblue" stroke="midnightblue" points="2150.08,-333.52 2158.47,-327.05 2147.87,-326.88 2150.08,-333.52"/>
</g>
<!-- Node37 -->
<g id="node50" class="node">
<title>Node37</title>
<g id="a_node50"><a xlink:title=" ">
<polygon fill="none" stroke="#bfbfbf" points="2229.5,-308 2229.5,-327 2308.5,-327 2308.5,-308 2229.5,-308"/>
<text text-anchor="middle" x="2269" y="-315" font-family="Helvetica,sans-Serif" font-size="10.00">fmt/format.h</text>
</a>
</g>
</g>
<!-- Node1&#45;&gt;Node37 -->
<g id="edge78" class="edge">
<title>Node1&#45;&gt;Node37</title>
<path fill="none" stroke="midnightblue" d="M1391.33,-376.64C1574.13,-372.75 2061.04,-360.1 2220,-333 2224.78,-332.19 2229.75,-331.06 2234.61,-329.79"/>
<polygon fill="midnightblue" stroke="midnightblue" points="2235.67,-333.13 2244.34,-327.04 2233.77,-326.39 2235.67,-333.13"/>
</g>
<!-- Node3 -->
<g id="node3" class="node">
<title>Node3</title>
<g id="a_node3"><a xlink:title=" ">
<polygon fill="none" stroke="#bfbfbf" points="915.5,-0.5 915.5,-19.5 962.5,-19.5 962.5,-0.5 915.5,-0.5"/>
<text text-anchor="middle" x="939" y="-7.5" font-family="Helvetica,sans-Serif" font-size="10.00">vector</text>
</a>
</g>
</g>
<!-- Node2&#45;&gt;Node3 -->
<g id="edge2" class="edge">
<title>Node2&#45;&gt;Node3</title>
<path fill="none" stroke="midnightblue" d="M601.53,-307.95C610.3,-292.01 630.97,-257.32 656,-235 680.36,-213.28 695.24,-220.26 720,-199 781.25,-146.42 767.84,-105 832,-56 853.94,-39.24 883.05,-27.53 905.36,-20.27"/>
<polygon fill="midnightblue" stroke="midnightblue" points="906.58,-23.55 915.09,-17.24 904.5,-16.87 906.58,-23.55"/>
</g>
<!-- Node4 -->
<g id="node4" class="node">
<title>Node4</title>
<g id="a_node4"><a xlink:href="simulation_8h.html" target="_top" xlink:title=" ">
<polygon fill="none" stroke="black" points="369.5,-241 369.5,-260 446.5,-260 446.5,-241 369.5,-241"/>
<text text-anchor="middle" x="408" y="-248" font-family="Helvetica,sans-Serif" font-size="10.00">simulation.h</text>
</a>
</g>
</g>
<!-- Node2&#45;&gt;Node4 -->
<g id="edge3" class="edge">
<title>Node2&#45;&gt;Node4</title>
<path fill="none" stroke="midnightblue" d="M571.9,-307.87C538.63,-296.42 479.76,-276.18 442.38,-263.32"/>
<polygon fill="midnightblue" stroke="midnightblue" points="443.5,-260.01 432.9,-260.06 441.22,-266.63 443.5,-260.01"/>
</g>
<!-- Node63 -->
<g id="node12" class="node">
<title>Node63</title>
<g id="a_node12"><a xlink:href="runtime__context_8h.html" target="_top" xlink:title=" ">
<polygon fill="none" stroke="red" points="503,-241 503,-260 609,-260 609,-241 503,-241"/>
<text text-anchor="middle" x="556" y="-248" font-family="Helvetica,sans-Serif" font-size="10.00">runtime_context.h</text>
</a>
</g>
</g>
<!-- Node2&#45;&gt;Node63 -->
<g id="edge13" class="edge">
<title>Node2&#45;&gt;Node63</title>
<path fill="none" stroke="midnightblue" d="M591.47,-307.73C585.2,-297.79 574.82,-281.34 566.91,-268.79"/>
<polygon fill="midnightblue" stroke="midnightblue" points="569.74,-266.72 561.44,-260.13 563.82,-270.45 569.74,-266.72"/>
</g>
<!-- Node65 -->
<g id="node14" class="node">
<title>Node65</title>
<g id="a_node14"><a xlink:href="event__aggregator_8h.html" target="_top" xlink:title=" ">
<polygon fill="none" stroke="red" points="255.5,-179.5 255.5,-198.5 366.5,-198.5 366.5,-179.5 255.5,-179.5"/>
<text text-anchor="middle" x="311" y="-186.5" font-family="Helvetica,sans-Serif" font-size="10.00">event_aggregator.h</text>
</a>
</g>
</g>
<!-- Node2&#45;&gt;Node65 -->
<g id="edge29" class="edge">
<title>Node2&#45;&gt;Node65</title>
<path fill="none" stroke="midnightblue" d="M576.17,-307.88C554.85,-298.69 521.1,-283.13 494,-266 475.28,-254.17 474.57,-245.37 455,-235 425.7,-219.48 390.18,-208.3 361.74,-200.97"/>
<polygon fill="midnightblue" stroke="midnightblue" points="362.55,-197.57 352,-198.54 360.85,-204.36 362.55,-197.57"/>
</g>
<!-- Node69 -->
<g id="node18" class="node">
<title>Node69</title>
<g id="a_node18"><a xlink:href="simulation__module_8h.html" target="_top" xlink:title=" ">
<polygon fill="none" stroke="red" points="665.5,-241 665.5,-260 784.5,-260 784.5,-241 665.5,-241"/>
<text text-anchor="middle" x="725" y="-248" font-family="Helvetica,sans-Serif" font-size="10.00">simulation_module.h</text>
</a>
</g>
</g>
<!-- Node2&#45;&gt;Node69 -->
<g id="edge26" class="edge">
<title>Node2&#45;&gt;Node69</title>
<path fill="none" stroke="midnightblue" d="M614,-307.87C635.71,-296.84 673.49,-277.66 698.87,-264.77"/>
<polygon fill="midnightblue" stroke="midnightblue" points="700.6,-267.82 707.93,-260.17 697.43,-261.57 700.6,-267.82"/>
</g>
<!-- Node5 -->
<g id="node5" class="node">
<title>Node5</title>
<g id="a_node5"><a xlink:title=" ">
<polygon fill="none" stroke="#bfbfbf" points="150.5,-179.5 150.5,-198.5 237.5,-198.5 237.5,-179.5 150.5,-179.5"/>
<text text-anchor="middle" x="194" y="-186.5" font-family="Helvetica,sans-Serif" font-size="10.00">adevs/adevs.h</text>
</a>
</g>
</g>
<!-- Node4&#45;&gt;Node5 -->
<g id="edge4" class="edge">
<title>Node4&#45;&gt;Node5</title>
<path fill="none" stroke="midnightblue" d="M377.34,-240.98C339.76,-230.53 275.96,-212.79 234.4,-201.23"/>
<polygon fill="midnightblue" stroke="midnightblue" points="235.18,-197.82 224.6,-198.51 233.3,-204.56 235.18,-197.82"/>
</g>
<!-- Node6 -->
<g id="node6" class="node">
<title>Node6</title>
<g id="a_node6"><a xlink:href="simulation__definition_8h.html" target="_top" xlink:title=" ">
<polygon fill="none" stroke="red" points="385,-179.5 385,-198.5 513,-198.5 513,-179.5 385,-179.5"/>
<text text-anchor="middle" x="449" y="-186.5" font-family="Helvetica,sans-Serif" font-size="10.00">simulation_definition.h</text>
</a>
</g>
</g>
<!-- Node4&#45;&gt;Node6 -->
<g id="edge5" class="edge">
<title>Node4&#45;&gt;Node6</title>
<path fill="none" stroke="midnightblue" d="M413.87,-240.98C419.96,-232.14 429.64,-218.09 437.3,-206.98"/>
<polygon fill="midnightblue" stroke="midnightblue" points="440.34,-208.73 443.14,-198.51 434.58,-204.76 440.34,-208.73"/>
</g>
<!-- Node7 -->
<g id="node7" class="node">
<title>Node7</title>
<g id="a_node7"><a xlink:href="modelinput_8h.html" target="_top" xlink:title=" ">
<polygon fill="none" stroke="red" points="431.5,-123.5 431.5,-142.5 512.5,-142.5 512.5,-123.5 431.5,-123.5"/>
<text text-anchor="middle" x="472" y="-130.5" font-family="Helvetica,sans-Serif" font-size="10.00">modelinput.h</text>
</a>
</g>
</g>
<!-- Node6&#45;&gt;Node7 -->
<g id="edge6" class="edge">
<title>Node6&#45;&gt;Node7</title>
<path fill="none" stroke="midnightblue" d="M452.8,-179.08C455.91,-171.77 460.42,-161.18 464.29,-152.1"/>
<polygon fill="midnightblue" stroke="midnightblue" points="467.57,-153.32 468.27,-142.75 461.13,-150.58 467.57,-153.32"/>
</g>
<!-- Node48 -->
<g id="node10" class="node">
<title>Node48</title>
<g id="a_node10"><a xlink:href="randombit__generator_8h.html" target="_top" xlink:title=" ">
<polygon fill="none" stroke="red" points="943,-123.5 943,-142.5 1071,-142.5 1071,-123.5 943,-123.5"/>
<text text-anchor="middle" x="1007" y="-130.5" font-family="Helvetica,sans-Serif" font-size="10.00">randombit_generator.h</text>
</a>
</g>
</g>
<!-- Node6&#45;&gt;Node48 -->
<g id="edge10" class="edge">
<title>Node6&#45;&gt;Node48</title>
<path fill="none" stroke="midnightblue" d="M513.26,-182.61C604.02,-174.86 775.25,-159.78 932.5,-143.02"/>
<polygon fill="midnightblue" stroke="midnightblue" points="933.27,-146.46 942.84,-141.92 932.52,-139.5 933.27,-146.46"/>
</g>
<!-- Node6&#45;&gt;Node10 -->
<g id="edge12" class="edge">
<title>Node6&#45;&gt;Node10</title>
<path fill="none" stroke="midnightblue" d="M435.99,-179.32C423.47,-170.98 404.32,-158.21 389.53,-148.35"/>
<polygon fill="midnightblue" stroke="midnightblue" points="391.24,-145.29 380.98,-142.65 387.36,-151.11 391.24,-145.29"/>
</g>
<!-- Node38 -->
<g id="node8" class="node">
<title>Node38</title>
<g id="a_node8"><a xlink:href="mapping_8h.html" target="_top" xlink:title=" ">
<polygon fill="none" stroke="red" points="507,-62 507,-81 575,-81 575,-62 507,-62"/>
<text text-anchor="middle" x="541" y="-69" font-family="Helvetica,sans-Serif" font-size="10.00">mapping.h</text>
</a>
</g>
</g>
<!-- Node7&#45;&gt;Node38 -->
<g id="edge7" class="edge">
<title>Node7&#45;&gt;Node38</title>
<path fill="none" stroke="midnightblue" d="M481.89,-123.48C492.65,-114.2 510.07,-99.17 523.22,-87.83"/>
<polygon fill="midnightblue" stroke="midnightblue" points="525.84,-90.19 531.13,-81.01 521.27,-84.89 525.84,-90.19"/>
</g>
<!-- Node38&#45;&gt;Node3 -->
<g id="edge8" class="edge">
<title>Node38&#45;&gt;Node3</title>
<path fill="none" stroke="midnightblue" d="M575.24,-64.09C589.66,-61.46 606.62,-58.47 622,-56 725.08,-39.46 847.53,-22.97 905.45,-15.36"/>
<polygon fill="midnightblue" stroke="midnightblue" points="906.03,-18.81 915.49,-14.04 905.12,-11.87 906.03,-18.81"/>
</g>
<!-- Node39 -->
<g id="node9" class="node">
<title>Node39</title>
<g id="a_node9"><a xlink:title=" ">
<polygon fill="none" stroke="#bfbfbf" points="508.5,-0.5 508.5,-19.5 573.5,-19.5 573.5,-0.5 508.5,-0.5"/>
<text text-anchor="middle" x="541" y="-7.5" font-family="Helvetica,sans-Serif" font-size="10.00">stdexcept</text>
</a>
</g>
</g>
<!-- Node38&#45;&gt;Node39 -->
<g id="edge9" class="edge">
<title>Node38&#45;&gt;Node39</title>
<path fill="none" stroke="midnightblue" d="M541,-61.98C541,-53.58 541,-40.48 541,-29.66"/>
<polygon fill="midnightblue" stroke="midnightblue" points="544.5,-29.51 541,-19.51 537.5,-29.51 544.5,-29.51"/>
</g>
<!-- Node48&#45;&gt;Node3 -->
<g id="edge11" class="edge">
<title>Node48&#45;&gt;Node3</title>
<path fill="none" stroke="midnightblue" d="M1071.03,-124.91C1131.04,-115.7 1206.93,-95.83 1174,-56 1148.9,-25.63 1031.97,-15.56 973.08,-12.38"/>
<polygon fill="midnightblue" stroke="midnightblue" points="972.95,-8.87 962.79,-11.86 972.6,-15.86 972.95,-8.87"/>
</g>
<!-- Node63&#45;&gt;Node3 -->
<g id="edge25" class="edge">
<title>Node63&#45;&gt;Node3</title>
<path fill="none" stroke="midnightblue" d="M589.42,-240.92C626.11,-230.93 681.95,-213.92 698,-199 748.87,-151.72 707.96,-100.83 761,-56 801.94,-21.39 865.92,-12.84 904.99,-11.04"/>
<polygon fill="midnightblue" stroke="midnightblue" points="905.43,-14.52 915.31,-10.69 905.2,-7.53 905.43,-14.52"/>
</g>
<!-- Node63&#45;&gt;Node6 -->
<g id="edge22" class="edge">
<title>Node63&#45;&gt;Node6</title>
<path fill="none" stroke="midnightblue" d="M540.67,-240.98C523.03,-231.17 493.84,-214.93 473.14,-203.42"/>
<polygon fill="midnightblue" stroke="midnightblue" points="474.74,-200.31 464.3,-198.51 471.34,-206.43 474.74,-200.31"/>
</g>
<!-- Node63&#45;&gt;Node38 -->
<g id="edge16" class="edge">
<title>Node63&#45;&gt;Node38</title>
<path fill="none" stroke="midnightblue" d="M555.28,-240.96C552.99,-213.93 545.85,-129.74 542.62,-91.61"/>
<polygon fill="midnightblue" stroke="midnightblue" points="546.08,-91.04 541.75,-81.37 539.11,-91.63 546.08,-91.04"/>
</g>
<!-- Node64 -->
<g id="node13" class="node">
<title>Node64</title>
<g id="a_node13"><a xlink:href="population_8h.html" target="_top" xlink:title=" ">
<polygon fill="none" stroke="red" points="631.5,-62 631.5,-81 708.5,-81 708.5,-62 631.5,-62"/>
<text text-anchor="middle" x="670" y="-69" font-family="Helvetica,sans-Serif" font-size="10.00">population.h</text>
</a>
</g>
</g>
<!-- Node63&#45;&gt;Node64 -->
<g id="edge14" class="edge">
<title>Node63&#45;&gt;Node64</title>
<path fill="none" stroke="midnightblue" d="M587.26,-240.98C620.07,-231.32 668.36,-214.87 679,-199 701.09,-166.05 687.63,-116.82 677.71,-90.55"/>
<polygon fill="midnightblue" stroke="midnightblue" points="680.9,-89.07 673.92,-81.1 674.4,-91.68 680.9,-89.07"/>
</g>
<!-- Node63&#45;&gt;Node65 -->
<g id="edge17" class="edge">
<title>Node63&#45;&gt;Node65</title>
<path fill="none" stroke="midnightblue" d="M520.9,-240.98C477.51,-230.44 403.59,-212.49 356.05,-200.94"/>
<polygon fill="midnightblue" stroke="midnightblue" points="356.58,-197.47 346.04,-198.51 354.93,-204.27 356.58,-197.47"/>
</g>
<!-- Node68 -->
<g id="node16" class="node">
<title>Node68</title>
<g id="a_node16"><a xlink:href="runtime__metric_8h.html" target="_top" xlink:title=" ">
<polygon fill="none" stroke="red" points="569.5,-179.5 569.5,-198.5 670.5,-198.5 670.5,-179.5 569.5,-179.5"/>
<text text-anchor="middle" x="620" y="-186.5" font-family="Helvetica,sans-Serif" font-size="10.00">runtime_metric.h</text>
</a>
</g>
</g>
<!-- Node63&#45;&gt;Node68 -->
<g id="edge21" class="edge">
<title>Node63&#45;&gt;Node68</title>
<path fill="none" stroke="midnightblue" d="M565.17,-240.98C575.15,-231.7 591.31,-216.67 603.51,-205.33"/>
<polygon fill="midnightblue" stroke="midnightblue" points="605.91,-207.88 610.85,-198.51 601.14,-202.75 605.91,-207.88"/>
</g>
<!-- Node62 -->
<g id="node17" class="node">
<title>Node62</title>
<g id="a_node17"><a xlink:href="random__algorithm_8h.html" target="_top" xlink:title=" ">
<polygon fill="none" stroke="red" points="951,-179.5 951,-198.5 1067,-198.5 1067,-179.5 951,-179.5"/>
<text text-anchor="middle" x="1009" y="-186.5" font-family="Helvetica,sans-Serif" font-size="10.00">random_algorithm.h</text>
</a>
</g>
</g>
<!-- Node63&#45;&gt;Node62 -->
<g id="edge23" class="edge">
<title>Node63&#45;&gt;Node62</title>
<path fill="none" stroke="midnightblue" d="M609.17,-241.62C624.3,-239.42 640.79,-237.07 656,-235 754.9,-221.53 869.55,-207.14 940.69,-198.35"/>
<polygon fill="midnightblue" stroke="midnightblue" points="941.37,-201.8 950.87,-197.1 940.51,-194.85 941.37,-201.8"/>
</g>
<!-- Node64&#45;&gt;Node3 -->
<g id="edge15" class="edge">
<title>Node64&#45;&gt;Node3</title>
<path fill="none" stroke="midnightblue" d="M699.91,-61.97C707.42,-59.92 715.49,-57.81 723,-56 787.16,-40.55 862.8,-25.52 905.4,-17.33"/>
<polygon fill="midnightblue" stroke="midnightblue" points="906.08,-20.77 915.24,-15.45 904.76,-13.89 906.08,-20.77"/>
</g>
<!-- Node65&#45;&gt;Node39 -->
<g id="edge18" class="edge">
<title>Node65&#45;&gt;Node39</title>
<path fill="none" stroke="midnightblue" d="M311.42,-179.45C312.5,-166.01 316.34,-139.77 330,-123 373.9,-69.12 450.74,-37.78 498.58,-22.57"/>
<polygon fill="midnightblue" stroke="midnightblue" points="499.81,-25.86 508.33,-19.56 497.74,-19.17 499.81,-25.86"/>
</g>
<!-- Node65&#45;&gt;Node10 -->
<g id="edge20" class="edge">
<title>Node65&#45;&gt;Node10</title>
<path fill="none" stroke="midnightblue" d="M320.16,-179.32C328.5,-171.42 341.03,-159.55 351.18,-149.94"/>
<polygon fill="midnightblue" stroke="midnightblue" points="353.82,-152.25 358.68,-142.83 349.01,-147.17 353.82,-152.25"/>
</g>
<!-- Node66 -->
<g id="node15" class="node">
<title>Node66</title>
<g id="a_node15"><a xlink:href="event__message_8h.html" target="_top" xlink:title=" ">
<polygon fill="none" stroke="red" points="106.5,-123.5 106.5,-142.5 209.5,-142.5 209.5,-123.5 106.5,-123.5"/>
<text text-anchor="middle" x="158" y="-130.5" font-family="Helvetica,sans-Serif" font-size="10.00">event_message.h</text>
</a>
</g>
</g>
<!-- Node65&#45;&gt;Node66 -->
<g id="edge19" class="edge">
<title>Node65&#45;&gt;Node66</title>
<path fill="none" stroke="midnightblue" d="M286.76,-179.44C261.13,-170.4 220.51,-156.06 191.76,-145.92"/>
<polygon fill="midnightblue" stroke="midnightblue" points="192.72,-142.54 182.13,-142.52 190.39,-149.15 192.72,-142.54"/>
</g>
<!-- Node62&#45;&gt;Node48 -->
<g id="edge24" class="edge">
<title>Node62&#45;&gt;Node48</title>
<path fill="none" stroke="midnightblue" d="M1008.67,-179.08C1008.41,-172.01 1008.03,-161.86 1007.7,-152.99"/>
<polygon fill="midnightblue" stroke="midnightblue" points="1011.19,-152.61 1007.32,-142.75 1004.2,-152.87 1011.19,-152.61"/>
</g>
<!-- Node77 -->
<g id="node19" class="node">
<title>Node77</title>
<g id="a_node19"><a xlink:href="disease__table_8h.html" target="_top" xlink:title=" ">
<polygon fill="none" stroke="red" points="1313.5,-179.5 1313.5,-198.5 1406.5,-198.5 1406.5,-179.5 1313.5,-179.5"/>
<text text-anchor="middle" x="1360" y="-186.5" font-family="Helvetica,sans-Serif" font-size="10.00">disease_table.h</text>
</a>
</g>
</g>
<!-- Node69&#45;&gt;Node77 -->
<g id="edge27" class="edge">
<title>Node69&#45;&gt;Node77</title>
<path fill="none" stroke="midnightblue" d="M783.8,-241C799.45,-238.88 816.35,-236.73 832,-235 1003.17,-216.12 1206.3,-200.79 1303.15,-193.91"/>
<polygon fill="midnightblue" stroke="midnightblue" points="1303.58,-197.39 1313.31,-193.2 1303.09,-190.41 1303.58,-197.39"/>
</g>
<!-- Node27 -->
<g id="node20" class="node">
<title>Node27</title>
<g id="a_node20"><a xlink:href="HealthGPS_8Core_2poco_8h.html" target="_top" xlink:title=" ">
<polygon fill="none" stroke="red" points="1306.5,-123.5 1306.5,-142.5 1435.5,-142.5 1435.5,-123.5 1306.5,-123.5"/>
<text text-anchor="middle" x="1371" y="-130.5" font-family="Helvetica,sans-Serif" font-size="10.00">HealthGPS.Core/poco.h</text>
</a>
</g>
</g>
<!-- Node77&#45;&gt;Node27 -->
<g id="edge28" class="edge">
<title>Node77&#45;&gt;Node27</title>
<path fill="none" stroke="midnightblue" d="M1361.82,-179.08C1363.27,-171.93 1365.37,-161.64 1367.19,-152.69"/>
<polygon fill="midnightblue" stroke="midnightblue" points="1370.65,-153.25 1369.22,-142.75 1363.79,-151.85 1370.65,-153.25"/>
</g>
<!-- Node99&#45;&gt;Node48 -->
<g id="edge32" class="edge">
<title>Node99&#45;&gt;Node48</title>
<path fill="none" stroke="midnightblue" d="M921.95,-307.99C919.58,-285.17 915.87,-221.49 942,-179 950.33,-165.45 964.44,-154.95 977.38,-147.51"/>
<polygon fill="midnightblue" stroke="midnightblue" points="979.34,-150.44 986.51,-142.64 976.04,-144.26 979.34,-150.44"/>
</g>
<!-- Node100 -->
<g id="node22" class="node">
<title>Node100</title>
<g id="a_node22"><a xlink:title=" ">
<polygon fill="none" stroke="#bfbfbf" points="841,-241 841,-260 895,-260 895,-241 841,-241"/>
<text text-anchor="middle" x="868" y="-248" font-family="Helvetica,sans-Serif" font-size="10.00">random</text>
</a>
</g>
</g>
<!-- Node99&#45;&gt;Node100 -->
<g id="edge31" class="edge">
<title>Node99&#45;&gt;Node100</title>
<path fill="none" stroke="midnightblue" d="M915.58,-307.73C907.01,-297.6 892.7,-280.69 882.01,-268.06"/>
<polygon fill="midnightblue" stroke="midnightblue" points="884.43,-265.5 875.3,-260.13 879.09,-270.02 884.43,-265.5"/>
</g>
<!-- Node101&#45;&gt;Node39 -->
<g id="edge34" class="edge">
<title>Node101&#45;&gt;Node39</title>
<path fill="none" stroke="midnightblue" d="M854.37,-123.36C827.81,-107.96 769.52,-75.59 717,-56 672.76,-39.5 620.06,-26.91 583.94,-19.3"/>
<polygon fill="midnightblue" stroke="midnightblue" points="584.25,-15.79 573.75,-17.19 582.83,-22.64 584.25,-15.79"/>
</g>
<!-- Node20 -->
<g id="node24" class="node">
<title>Node20</title>
<g id="a_node24"><a xlink:href="visitor_8h.html" target="_top" xlink:title=" ">
<polygon fill="none" stroke="red" points="841,-62 841,-81 897,-81 897,-62 841,-62"/>
<text text-anchor="middle" x="869" y="-69" font-family="Helvetica,sans-Serif" font-size="10.00">visitor.h</text>
</a>
</g>
</g>
<!-- Node101&#45;&gt;Node20 -->
<g id="edge35" class="edge">
<title>Node101&#45;&gt;Node20</title>
<path fill="none" stroke="midnightblue" d="M869,-123.48C869,-115.08 869,-101.98 869,-91.16"/>
<polygon fill="midnightblue" stroke="midnightblue" points="872.5,-91.01 869,-81.01 865.5,-91.01 872.5,-91.01"/>
</g>
<!-- Node53 -->
<g id="node25" class="node">
<title>Node53</title>
<g id="a_node25"><a xlink:href="column__numeric_8h.html" target="_top" xlink:title=" ">
<polygon fill="none" stroke="red" points="915.5,-62 915.5,-81 1022.5,-81 1022.5,-62 915.5,-62"/>
<text text-anchor="middle" x="969" y="-69" font-family="Helvetica,sans-Serif" font-size="10.00">column_numeric.h</text>
</a>
</g>
</g>
<!-- Node101&#45;&gt;Node53 -->
<g id="edge36" class="edge">
<title>Node101&#45;&gt;Node53</title>
<path fill="none" stroke="midnightblue" d="M883.33,-123.48C899.66,-113.75 926.6,-97.73 945.91,-86.24"/>
<polygon fill="midnightblue" stroke="midnightblue" points="947.89,-89.13 954.7,-81.01 944.32,-83.11 947.89,-89.13"/>
</g>
<!-- Node61 -->
<g id="node26" class="node">
<title>Node61</title>
<g id="a_node26"><a xlink:href="univariate__summary_8h.html" target="_top" xlink:title=" ">
<polygon fill="none" stroke="red" points="1040.5,-62 1040.5,-81 1165.5,-81 1165.5,-62 1040.5,-62"/>
<text text-anchor="middle" x="1103" y="-69" font-family="Helvetica,sans-Serif" font-size="10.00">univariate_summary.h</text>
</a>
</g>
</g>
<!-- Node101&#45;&gt;Node61 -->
<g id="edge37" class="edge">
<title>Node101&#45;&gt;Node61</title>
<path fill="none" stroke="midnightblue" d="M902.53,-123.48C943.88,-112.96 1014.27,-95.06 1059.68,-83.51"/>
<polygon fill="midnightblue" stroke="midnightblue" points="1060.71,-86.87 1069.54,-81.01 1058.98,-80.08 1060.71,-86.87"/>
</g>
<!-- Node61&#45;&gt;Node3 -->
<g id="edge38" class="edge">
<title>Node61&#45;&gt;Node3</title>
<path fill="none" stroke="midnightblue" d="M1079.5,-61.98C1051.37,-51.77 1004.07,-34.61 972.21,-23.05"/>
<polygon fill="midnightblue" stroke="midnightblue" points="973.05,-19.63 962.45,-19.51 970.66,-26.21 973.05,-19.63"/>
</g>
<!-- Node102&#45;&gt;Node66 -->
<g id="edge40" class="edge">
<title>Node102&#45;&gt;Node66</title>
<path fill="none" stroke="midnightblue" d="M49.46,-307.8C56.16,-285.04 76.4,-222.54 108,-179 116.17,-167.74 127.56,-157.22 137.41,-149.18"/>
<polygon fill="midnightblue" stroke="midnightblue" points="139.83,-151.73 145.54,-142.81 135.51,-146.22 139.83,-151.73"/>
</g>
<!-- Node103&#45;&gt;Node7 -->
<g id="edge42" class="edge">
<title>Node103&#45;&gt;Node7</title>
<path fill="none" stroke="midnightblue" d="M1457.16,-308.71C1418.24,-299.87 1354.49,-284.28 1301,-266 1267.65,-254.6 1260.77,-247.99 1228,-235 1161.07,-208.48 1146.36,-194.27 1076,-179 970.93,-156.2 648.29,-141.11 522.74,-135.96"/>
<polygon fill="midnightblue" stroke="midnightblue" points="522.76,-132.46 512.63,-135.55 522.48,-139.45 522.76,-132.46"/>
</g>
<!-- Node103&#45;&gt;Node77 -->
<g id="edge43" class="edge">
<title>Node103&#45;&gt;Node77</title>
<path fill="none" stroke="midnightblue" d="M1457.46,-315.77C1421.68,-312.91 1368.17,-302.34 1342,-266 1329.55,-248.71 1339.17,-224 1348.45,-207.51"/>
<polygon fill="midnightblue" stroke="midnightblue" points="1351.51,-209.22 1353.71,-198.86 1345.53,-205.58 1351.51,-209.22"/>
</g>
<!-- Node103&#45;&gt;Node27 -->
<g id="edge56" class="edge">
<title>Node103&#45;&gt;Node27</title>
<path fill="none" stroke="midnightblue" d="M1457.25,-314.02C1421.39,-309.73 1366.64,-298 1332,-266 1302.26,-238.53 1286.08,-214.79 1305,-179 1312.42,-164.95 1326.42,-154.47 1339.62,-147.17"/>
<polygon fill="midnightblue" stroke="midnightblue" points="1341.22,-150.28 1348.54,-142.62 1338.04,-144.04 1341.22,-150.28"/>
</g>
<!-- Node78 -->
<g id="node29" class="node">
<title>Node78</title>
<g id="a_node29"><a xlink:href="relative__risk_8h.html" target="_top" xlink:title=" ">
<polygon fill="none" stroke="red" points="1553,-179.5 1553,-198.5 1639,-198.5 1639,-179.5 1553,-179.5"/>
<text text-anchor="middle" x="1596" y="-186.5" font-family="Helvetica,sans-Serif" font-size="10.00">relative_risk.h</text>
</a>
</g>
</g>
<!-- Node103&#45;&gt;Node78 -->
<g id="edge44" class="edge">
<title>Node103&#45;&gt;Node78</title>
<path fill="none" stroke="midnightblue" d="M1528.58,-313.68C1585.27,-308.37 1692.07,-294.73 1715,-266 1723.59,-255.23 1722.83,-246.34 1715,-235 1706.12,-222.14 1670.7,-209.75 1640.79,-201.24"/>
<polygon fill="midnightblue" stroke="midnightblue" points="1641.47,-197.8 1630.9,-198.5 1639.61,-204.54 1641.47,-197.8"/>
</g>
<!-- Node79 -->
<g id="node30" class="node">
<title>Node79</title>
<g id="a_node30"><a xlink:href="gender__table_8h.html" target="_top" xlink:title=" ">
<polygon fill="none" stroke="red" points="1719.5,-123.5 1719.5,-142.5 1808.5,-142.5 1808.5,-123.5 1719.5,-123.5"/>
<text text-anchor="middle" x="1764" y="-130.5" font-family="Helvetica,sans-Serif" font-size="10.00">gender_table.h</text>
</a>
</g>
</g>
<!-- Node103&#45;&gt;Node79 -->
<g id="edge47" class="edge">
<title>Node103&#45;&gt;Node79</title>
<path fill="none" stroke="midnightblue" d="M1528.89,-313.25C1590.87,-307.03 1714.63,-291.7 1749,-266 1782.38,-241.04 1792.65,-219.77 1784,-179 1782,-169.59 1777.9,-159.76 1773.93,-151.7"/>
<polygon fill="midnightblue" stroke="midnightblue" points="1776.89,-149.81 1769.13,-142.59 1770.69,-153.07 1776.89,-149.81"/>
</g>
<!-- Node94 -->
<g id="node32" class="node">
<title>Node94</title>
<g id="a_node32"><a xlink:href="analysis__definition_8h.html" target="_top" xlink:title=" ">
<polygon fill="none" stroke="red" points="1657.5,-179.5 1657.5,-198.5 1774.5,-198.5 1774.5,-179.5 1657.5,-179.5"/>
<text text-anchor="middle" x="1716" y="-186.5" font-family="Helvetica,sans-Serif" font-size="10.00">analysis_definition.h</text>
</a>
</g>
</g>
<!-- Node103&#45;&gt;Node94 -->
<g id="edge48" class="edge">
<title>Node103&#45;&gt;Node94</title>
<path fill="none" stroke="midnightblue" d="M1528.84,-314.29C1589.14,-309.75 1706.83,-297.05 1732,-266 1745.49,-249.36 1736.08,-224.12 1727,-207.35"/>
<polygon fill="midnightblue" stroke="midnightblue" points="1729.93,-205.44 1721.86,-198.58 1723.9,-208.98 1729.93,-205.44"/>
</g>
<!-- Node76 -->
<g id="node33" class="node">
<title>Node76</title>
<g id="a_node33"><a xlink:href="disease__definition_8h.html" target="_top" xlink:title=" ">
<polygon fill="none" stroke="red" points="1351,-241 1351,-260 1465,-260 1465,-241 1351,-241"/>
<text text-anchor="middle" x="1408" y="-248" font-family="Helvetica,sans-Serif" font-size="10.00">disease_definition.h</text>
</a>
</g>
</g>
<!-- Node103&#45;&gt;Node76 -->
<g id="edge50" class="edge">
<title>Node103&#45;&gt;Node76</title>
<path fill="none" stroke="midnightblue" d="M1481.54,-307.73C1467.64,-297.11 1444.02,-279.05 1427.31,-266.26"/>
<polygon fill="midnightblue" stroke="midnightblue" points="1429.35,-263.42 1419.28,-260.13 1425.1,-268.98 1429.35,-263.42"/>
</g>
<!-- Node86 -->
<g id="node34" class="node">
<title>Node86</title>
<g id="a_node34"><a xlink:href="life__table_8h.html" target="_top" xlink:title=" ">
<polygon fill="none" stroke="red" points="1634.5,-241 1634.5,-260 1705.5,-260 1705.5,-241 1634.5,-241"/>
<text text-anchor="middle" x="1670" y="-248" font-family="Helvetica,sans-Serif" font-size="10.00">life_table.h</text>
</a>
</g>
</g>
<!-- Node103&#45;&gt;Node86 -->
<g id="edge54" class="edge">
<title>Node103&#45;&gt;Node86</title>
<path fill="none" stroke="midnightblue" d="M1516.5,-307.87C1547.4,-296.52 1601.86,-276.52 1636.91,-263.65"/>
<polygon fill="midnightblue" stroke="midnightblue" points="1638.5,-266.8 1646.68,-260.06 1636.09,-260.23 1638.5,-266.8"/>
</g>
<!-- Node82 -->
<g id="node35" class="node">
<title>Node82</title>
<g id="a_node35"><a xlink:href="lms__definition_8h.html" target="_top" xlink:title=" ">
<polygon fill="none" stroke="red" points="1521.5,-241 1521.5,-260 1616.5,-260 1616.5,-241 1521.5,-241"/>
<text text-anchor="middle" x="1569" y="-248" font-family="Helvetica,sans-Serif" font-size="10.00">lms_definition.h</text>
</a>
</g>
</g>
<!-- Node103&#45;&gt;Node82 -->
<g id="edge55" class="edge">
<title>Node103&#45;&gt;Node82</title>
<path fill="none" stroke="midnightblue" d="M1503.25,-307.73C1515.44,-297.31 1536.02,-279.71 1550.91,-266.97"/>
<polygon fill="midnightblue" stroke="midnightblue" points="1553.59,-269.29 1558.91,-260.13 1549.04,-263.97 1553.59,-269.29"/>
</g>
<!-- Node52 -->
<g id="node36" class="node">
<title>Node52</title>
<g id="a_node36"><a xlink:href="datastore_8h.html" target="_top" xlink:title=" ">
<polygon fill="none" stroke="red" points="1463,-179.5 1463,-198.5 1535,-198.5 1535,-179.5 1463,-179.5"/>
<text text-anchor="middle" x="1499" y="-186.5" font-family="Helvetica,sans-Serif" font-size="10.00">datastore.h</text>
</a>
</g>
</g>
<!-- Node103&#45;&gt;Node52 -->
<g id="edge57" class="edge">
<title>Node103&#45;&gt;Node52</title>
<path fill="none" stroke="midnightblue" d="M1493.41,-307.81C1494.38,-287.49 1496.79,-236.55 1498.11,-208.78"/>
<polygon fill="midnightblue" stroke="midnightblue" points="1501.61,-208.91 1498.58,-198.76 1494.61,-208.58 1501.61,-208.91"/>
</g>
<!-- Node78&#45;&gt;Node79 -->
<g id="edge45" class="edge">
<title>Node78&#45;&gt;Node79</title>
<path fill="none" stroke="midnightblue" d="M1622.62,-179.44C1651.01,-170.32 1696.14,-155.81 1727.75,-145.65"/>
<polygon fill="midnightblue" stroke="midnightblue" points="1729.06,-148.91 1737.5,-142.52 1726.91,-142.24 1729.06,-148.91"/>
</g>
<!-- Node80 -->
<g id="node31" class="node">
<title>Node80</title>
<g id="a_node31"><a xlink:title=" ">
<polygon fill="none" stroke="#bfbfbf" points="1852,-62 1852,-81 1908,-81 1908,-62 1852,-62"/>
<text text-anchor="middle" x="1880" y="-69" font-family="Helvetica,sans-Serif" font-size="10.00">numeric</text>
</a>
</g>
</g>
<!-- Node79&#45;&gt;Node80 -->
<g id="edge46" class="edge">
<title>Node79&#45;&gt;Node80</title>
<path fill="none" stroke="midnightblue" d="M1780.62,-123.48C1799.92,-113.58 1831.96,-97.14 1854.43,-85.62"/>
<polygon fill="midnightblue" stroke="midnightblue" points="1856.11,-88.69 1863.41,-81.01 1852.92,-82.46 1856.11,-88.69"/>
</g>
<!-- Node94&#45;&gt;Node79 -->
<g id="edge49" class="edge">
<title>Node94&#45;&gt;Node79</title>
<path fill="none" stroke="midnightblue" d="M1723.93,-179.08C1730.85,-171.3 1741.07,-159.8 1749.45,-150.37"/>
<polygon fill="midnightblue" stroke="midnightblue" points="1752.19,-152.55 1756.22,-142.75 1746.96,-147.9 1752.19,-152.55"/>
</g>
<!-- Node76&#45;&gt;Node77 -->
<g id="edge51" class="edge">
<title>Node76&#45;&gt;Node77</title>
<path fill="none" stroke="midnightblue" d="M1401.12,-240.98C1393.85,-231.96 1382.2,-217.52 1373.16,-206.31"/>
<polygon fill="midnightblue" stroke="midnightblue" points="1375.87,-204.09 1366.86,-198.51 1370.42,-208.49 1375.87,-204.09"/>
</g>
<!-- Node76&#45;&gt;Node27 -->
<g id="edge53" class="edge">
<title>Node76&#45;&gt;Node27</title>
<path fill="none" stroke="midnightblue" d="M1411.6,-240.88C1416.75,-227.2 1424.67,-199.94 1416,-179 1411.08,-167.12 1401.33,-156.74 1392.17,-148.96"/>
<polygon fill="midnightblue" stroke="midnightblue" points="1394.08,-146.01 1384.06,-142.56 1389.75,-151.51 1394.08,-146.01"/>
</g>
<!-- Node76&#45;&gt;Node78 -->
<g id="edge52" class="edge">
<title>Node76&#45;&gt;Node78</title>
<path fill="none" stroke="midnightblue" d="M1434.94,-240.98C1467.6,-230.64 1522.82,-213.16 1559.34,-201.6"/>
<polygon fill="midnightblue" stroke="midnightblue" points="1560.64,-204.86 1569.11,-198.51 1558.52,-198.19 1560.64,-204.86"/>
</g>
<!-- Node52&#45;&gt;Node3 -->
<g id="edge58" class="edge">
<title>Node52&#45;&gt;Node3</title>
<path fill="none" stroke="midnightblue" d="M1494.26,-179.37C1486.09,-165.34 1468.01,-137.67 1445,-123 1289.5,-23.83 1058.6,-11.66 972.75,-10.76"/>
<polygon fill="midnightblue" stroke="midnightblue" points="972.57,-7.25 962.55,-10.69 972.53,-14.25 972.57,-7.25"/>
</g>
<!-- Node52&#45;&gt;Node27 -->
<g id="edge59" class="edge">
<title>Node52&#45;&gt;Node27</title>
<path fill="none" stroke="midnightblue" d="M1478.72,-179.44C1457.65,-170.56 1424.48,-156.56 1400.51,-146.45"/>
<polygon fill="midnightblue" stroke="midnightblue" points="1401.76,-143.18 1391.19,-142.52 1399.04,-149.63 1401.76,-143.18"/>
</g>
<!-- Node89 -->
<g id="node38" class="node">
<title>Node89</title>
<g id="a_node38"><a xlink:href="hierarchical__model__static_8h.html" target="_top" xlink:title=" ">
<polygon fill="none" stroke="red" points="951,-235.5 951,-265.5 1061,-265.5 1061,-235.5 951,-235.5"/>
<text text-anchor="start" x="959" y="-253.5" font-family="Helvetica,sans-Serif" font-size="10.00">hierarchical_model</text>
<text text-anchor="middle" x="1006" y="-242.5" font-family="Helvetica,sans-Serif" font-size="10.00">_static.h</text>
</a>
</g>
</g>
<!-- Node88&#45;&gt;Node89 -->
<g id="edge61" class="edge">
<title>Node88&#45;&gt;Node89</title>
<path fill="none" stroke="midnightblue" d="M1130.01,-307.87C1108.74,-298.2 1073.65,-282.25 1046.21,-269.78"/>
<polygon fill="midnightblue" stroke="midnightblue" points="1047.41,-266.48 1036.86,-265.53 1044.52,-272.85 1047.41,-266.48"/>
</g>
<!-- Node90 -->
<g id="node39" class="node">
<title>Node90</title>
<g id="a_node39"><a xlink:href="energy__balance__model_8h.html" target="_top" xlink:title=" ">
<polygon fill="none" stroke="red" points="1079.5,-241 1079.5,-260 1218.5,-260 1218.5,-241 1079.5,-241"/>
<text text-anchor="middle" x="1149" y="-248" font-family="Helvetica,sans-Serif" font-size="10.00">energy_balance_model.h</text>
</a>
</g>
</g>
<!-- Node88&#45;&gt;Node90 -->
<g id="edge62" class="edge">
<title>Node88&#45;&gt;Node90</title>
<path fill="none" stroke="midnightblue" d="M1149,-307.73C1149,-298.18 1149,-282.62 1149,-270.28"/>
<polygon fill="midnightblue" stroke="midnightblue" points="1152.5,-270.13 1149,-260.13 1145.5,-270.13 1152.5,-270.13"/>
</g>
<!-- Node90&#45;&gt;Node62 -->
<g id="edge63" class="edge">
<title>Node90&#45;&gt;Node62</title>
<path fill="none" stroke="midnightblue" d="M1128.94,-240.98C1105.24,-230.9 1065.59,-214.05 1038.42,-202.5"/>
<polygon fill="midnightblue" stroke="midnightblue" points="1039.59,-199.2 1029.02,-198.51 1036.86,-205.64 1039.59,-199.2"/>
</g>
<!-- Node104&#45;&gt;Node79 -->
<g id="edge66" class="edge">
<title>Node104&#45;&gt;Node79</title>
<path fill="none" stroke="midnightblue" d="M1880.98,-179.44C1857.9,-170.48 1821.44,-156.31 1795.36,-146.18"/>
<polygon fill="midnightblue" stroke="midnightblue" points="1796.51,-142.88 1785.92,-142.52 1793.98,-149.4 1796.51,-142.88"/>
</g>
<!-- Node45 -->
<g id="node41" class="node">
<title>Node45</title>
<g id="a_node41"><a xlink:href="sync__message_8h.html" target="_top" xlink:title=" ">
<polygon fill="none" stroke="black" points="1865,-123.5 1865,-142.5 1963,-142.5 1963,-123.5 1865,-123.5"/>
<text text-anchor="middle" x="1914" y="-130.5" font-family="Helvetica,sans-Serif" font-size="10.00">sync_message.h</text>
</a>
</g>
</g>
<!-- Node104&#45;&gt;Node45 -->
<g id="edge65" class="edge">
<title>Node104&#45;&gt;Node45</title>
<path fill="none" stroke="midnightblue" d="M1904.82,-179.08C1906.27,-171.93 1908.37,-161.64 1910.19,-152.69"/>
<polygon fill="midnightblue" stroke="midnightblue" points="1913.65,-153.25 1912.22,-142.75 1906.79,-151.85 1913.65,-153.25"/>
</g>
<!-- Node74 -->
<g id="node42" class="node">
<title>Node74</title>
<g id="a_node42"><a xlink:href="riskfactor__adjustment__types_8h.html" target="_top" xlink:title=" ">
<polygon fill="none" stroke="red" points="1659,-56.5 1659,-86.5 1783,-86.5 1783,-56.5 1659,-56.5"/>
<text text-anchor="start" x="1667" y="-74.5" font-family="Helvetica,sans-Serif" font-size="10.00">riskfactor_adjustment</text>
<text text-anchor="middle" x="1721" y="-63.5" font-family="Helvetica,sans-Serif" font-size="10.00">_types.h</text>
</a>
</g>
</g>
<!-- Node104&#45;&gt;Node74 -->
<g id="edge67" class="edge">
<title>Node104&#45;&gt;Node74</title>
<path fill="none" stroke="midnightblue" d="M1892.95,-179.39C1877.46,-166.34 1846.53,-141.14 1818,-123 1799.72,-111.37 1778.46,-100.08 1760.52,-91.13"/>
<polygon fill="midnightblue" stroke="midnightblue" points="1761.98,-87.95 1751.47,-86.67 1758.89,-94.23 1761.98,-87.95"/>
</g>
<!-- Node74&#45;&gt;Node3 -->
<g id="edge68" class="edge">
<title>Node74&#45;&gt;Node3</title>
<path fill="none" stroke="midnightblue" d="M1658.98,-65.78C1502.06,-53.84 1093.16,-22.73 972.8,-13.57"/>
<polygon fill="midnightblue" stroke="midnightblue" points="972.94,-10.07 962.7,-12.8 972.41,-17.05 972.94,-10.07"/>
</g>
<!-- Node105&#45;&gt;Node80 -->
<g id="edge74" class="edge">
<title>Node105&#45;&gt;Node80</title>
<path fill="none" stroke="midnightblue" d="M1990.53,-302.36C1998.27,-267.83 2012.95,-178 1972,-123 1958.6,-105 1936.79,-92.63 1917.77,-84.64"/>
<polygon fill="midnightblue" stroke="midnightblue" points="1919.01,-81.36 1908.42,-80.96 1916.45,-87.88 1919.01,-81.36"/>
</g>
<!-- Node106 -->
<g id="node44" class="node">
<title>Node106</title>
<g id="a_node44"><a xlink:title=" ">
<polygon fill="none" stroke="#bfbfbf" points="2163,-241 2163,-260 2211,-260 2211,-241 2163,-241"/>
<text text-anchor="middle" x="2187" y="-248" font-family="Helvetica,sans-Serif" font-size="10.00">thread</text>
</a>
</g>
</g>
<!-- Node105&#45;&gt;Node106 -->
<g id="edge70" class="edge">
<title>Node105&#45;&gt;Node106</title>
<path fill="none" stroke="midnightblue" d="M2039.44,-302.4C2072.61,-293.04 2116.21,-279.96 2154,-266 2155.65,-265.39 2157.35,-264.74 2159.04,-264.06"/>
<polygon fill="midnightblue" stroke="midnightblue" points="2160.79,-267.12 2168.66,-260.03 2158.08,-260.67 2160.79,-267.12"/>
</g>
<!-- Node107 -->
<g id="node45" class="node">
<title>Node107</title>
<g id="a_node45"><a xlink:title=" ">
<polygon fill="none" stroke="#bfbfbf" points="2229,-241 2229,-260 2275,-260 2275,-241 2229,-241"/>
<text text-anchor="middle" x="2252" y="-248" font-family="Helvetica,sans-Serif" font-size="10.00">future</text>
</a>
</g>
</g>
<!-- Node105&#45;&gt;Node107 -->
<g id="edge71" class="edge">
<title>Node105&#45;&gt;Node107</title>
<path fill="none" stroke="midnightblue" d="M2051.15,-303.32C2114.46,-290.21 2204.04,-271.28 2220,-266 2221.87,-265.38 2223.77,-264.69 2225.68,-263.95"/>
<polygon fill="midnightblue" stroke="midnightblue" points="2227.15,-267.13 2235,-260.01 2224.42,-260.68 2227.15,-267.13"/>
</g>
<!-- Node11 -->
<g id="node46" class="node">
<title>Node11</title>
<g id="a_node46"><a xlink:title=" ">
<polygon fill="none" stroke="#bfbfbf" points="2015,-241 2015,-260 2063,-260 2063,-241 2015,-241"/>
<text text-anchor="middle" x="2039" y="-248" font-family="Helvetica,sans-Serif" font-size="10.00">mutex</text>
</a>
</g>
</g>
<!-- Node105&#45;&gt;Node11 -->
<g id="edge72" class="edge">
<title>Node105&#45;&gt;Node11</title>
<path fill="none" stroke="midnightblue" d="M1998.28,-302.4C2006.31,-292.36 2017.13,-278.84 2025.6,-268.25"/>
<polygon fill="midnightblue" stroke="midnightblue" points="2028.53,-270.19 2032.04,-260.19 2023.06,-265.82 2028.53,-270.19"/>
</g>
<!-- Node108 -->
<g id="node47" class="node">
<title>Node108</title>
<g id="a_node47"><a xlink:title=" ">
<polygon fill="none" stroke="#bfbfbf" points="2081,-241 2081,-260 2145,-260 2145,-241 2081,-241"/>
<text text-anchor="middle" x="2113" y="-248" font-family="Helvetica,sans-Serif" font-size="10.00">execution</text>
</a>
</g>
</g>
<!-- Node105&#45;&gt;Node108 -->
<g id="edge73" class="edge">
<title>Node105&#45;&gt;Node108</title>
<path fill="none" stroke="midnightblue" d="M2014.34,-302.4C2036.06,-291.19 2066.2,-275.64 2087.44,-264.69"/>
<polygon fill="midnightblue" stroke="midnightblue" points="2089.23,-267.7 2096.51,-260.01 2086.02,-261.48 2089.23,-267.7"/>
</g>
</g>
</svg>
