<?xml version="1.0" encoding="UTF-8" standalone="no"?>
<!DOCTYPE svg PUBLIC "-//W3C//DTD SVG 1.1//EN"
 "http://www.w3.org/Graphics/SVG/1.1/DTD/svg11.dtd">
<!-- Generated by graphviz version 2.43.0 (0)
 -->
<!-- Title: HealthGPS.Core/api.h Pages: 1 -->
<svg width="2006pt" height="364pt"
 viewBox="0.00 0.00 2005.68 364.00" xmlns="http://www.w3.org/2000/svg" xmlns:xlink="http://www.w3.org/1999/xlink">
<g id="graph0" class="graph" transform="scale(1 1) rotate(0) translate(4 360)">
<title>HealthGPS.Core/api.h</title>
<!-- Node1 -->
<g id="node1" class="node">
<title>Node1</title>
<g id="a_node1"><a xlink:title=" ">
<polygon fill="#bfbfbf" stroke="black" points="1011.5,-336.5 1011.5,-355.5 1132.5,-355.5 1132.5,-336.5 1011.5,-336.5"/>
<text text-anchor="middle" x="1072" y="-343.5" font-family="Helvetica,sans-Serif" font-size="10.00">HealthGPS.Core/api.h</text>
</a>
</g>
</g>
<!-- Node2 -->
<g id="node2" class="node">
<title>Node2</title>
<g id="a_node2"><a xlink:href="array2d_8h.html" target="_top" xlink:title=" ">
<polygon fill="none" stroke="black" points="585.5,-224.5 585.5,-243.5 648.5,-243.5 648.5,-224.5 585.5,-224.5"/>
<text text-anchor="middle" x="617" y="-231.5" font-family="Helvetica,sans-Serif" font-size="10.00">array2d.h</text>
</a>
</g>
</g>
<!-- Node1&#45;&gt;Node2 -->
<g id="edge1" class="edge">
<title>Node1&#45;&gt;Node2</title>
<path fill="none" stroke="midnightblue" d="M1011.46,-339.87C951.41,-333.82 857.17,-321.72 778,-300 729.21,-286.61 675.19,-262.84 643.77,-248.05"/>
<polygon fill="midnightblue" stroke="midnightblue" points="644.94,-244.73 634.4,-243.59 641.93,-251.05 644.94,-244.73"/>
</g>
<!-- Node12 -->
<g id="node12" class="node">
<title>Node12</title>
<g id="a_node12"><a xlink:href="column__builder_8h.html" target="_top" xlink:title=" ">
<polygon fill="none" stroke="black" points="312,-224.5 312,-243.5 412,-243.5 412,-224.5 312,-224.5"/>
<text text-anchor="middle" x="362" y="-231.5" font-family="Helvetica,sans-Serif" font-size="10.00">column_builder.h</text>
</a>
</g>
</g>
<!-- Node1&#45;&gt;Node12 -->
<g id="edge11" class="edge">
<title>Node1&#45;&gt;Node12</title>
<path fill="none" stroke="midnightblue" d="M1011.39,-338.38C940.42,-330.39 819.43,-316.02 716,-300 608.37,-283.33 483.2,-259.23 414.26,-245.54"/>
<polygon fill="midnightblue" stroke="midnightblue" points="414.59,-242.04 404.1,-243.52 413.23,-248.9 414.59,-242.04"/>
</g>
<!-- Node19 -->
<g id="node19" class="node">
<title>Node19</title>
<g id="a_node19"><a xlink:href="visitor_8h.html" target="_top" xlink:title=" ">
<polygon fill="none" stroke="black" points="542,-112.5 542,-131.5 598,-131.5 598,-112.5 542,-112.5"/>
<text text-anchor="middle" x="570" y="-119.5" font-family="Helvetica,sans-Serif" font-size="10.00">visitor.h</text>
</a>
</g>
</g>
<!-- Node1&#45;&gt;Node19 -->
<g id="edge82" class="edge">
<title>Node1&#45;&gt;Node19</title>
<path fill="none" stroke="midnightblue" d="M1011.36,-345.2C822.01,-344.34 248.37,-329.87 149,-188 104.2,-124.04 419.82,-121.37 531.7,-122.4"/>
<polygon fill="midnightblue" stroke="midnightblue" points="531.83,-125.9 541.87,-122.51 531.91,-118.9 531.83,-125.9"/>
</g>
<!-- Node20 -->
<g id="node20" class="node">
<title>Node20</title>
<g id="a_node20"><a xlink:href="column__iterator_8h.html" target="_top" xlink:title=" ">
<polygon fill="none" stroke="black" points="0,-168.5 0,-187.5 102,-187.5 102,-168.5 0,-168.5"/>
<text text-anchor="middle" x="51" y="-175.5" font-family="Helvetica,sans-Serif" font-size="10.00">column_iterator.h</text>
</a>
</g>
</g>
<!-- Node1&#45;&gt;Node20 -->
<g id="edge22" class="edge">
<title>Node1&#45;&gt;Node20</title>
<path fill="none" stroke="midnightblue" d="M1011.41,-345.58C813.05,-347 191.46,-347.57 116,-300 79.3,-276.87 61.93,-225.5 54.96,-197.72"/>
<polygon fill="midnightblue" stroke="midnightblue" points="58.31,-196.66 52.64,-187.71 51.49,-198.24 58.31,-196.66"/>
</g>
<!-- Node22 -->
<g id="node22" class="node">
<title>Node22</title>
<g id="a_node22"><a xlink:href="column__numeric_8h.html" target="_top" xlink:title=" ">
<polygon fill="none" stroke="black" points="787.5,-280.5 787.5,-299.5 894.5,-299.5 894.5,-280.5 787.5,-280.5"/>
<text text-anchor="middle" x="841" y="-287.5" font-family="Helvetica,sans-Serif" font-size="10.00">column_numeric.h</text>
</a>
</g>
</g>
<!-- Node1&#45;&gt;Node22 -->
<g id="edge24" class="edge">
<title>Node1&#45;&gt;Node22</title>
<path fill="none" stroke="midnightblue" d="M1035.4,-336.44C995.27,-327.06 930.8,-311.99 887.22,-301.8"/>
<polygon fill="midnightblue" stroke="midnightblue" points="887.97,-298.38 877.43,-299.52 886.37,-305.2 887.97,-298.38"/>
</g>
<!-- Node25 -->
<g id="node25" class="node">
<title>Node25</title>
<g id="a_node25"><a xlink:href="datastore_8h.html" target="_top" xlink:title=" ">
<polygon fill="none" stroke="black" points="1195,-280.5 1195,-299.5 1267,-299.5 1267,-280.5 1195,-280.5"/>
<text text-anchor="middle" x="1231" y="-287.5" font-family="Helvetica,sans-Serif" font-size="10.00">datastore.h</text>
</a>
</g>
</g>
<!-- Node1&#45;&gt;Node25 -->
<g id="edge31" class="edge">
<title>Node1&#45;&gt;Node25</title>
<path fill="none" stroke="midnightblue" d="M1097.19,-336.44C1123.94,-327.36 1166.4,-312.94 1196.31,-302.78"/>
<polygon fill="midnightblue" stroke="midnightblue" points="1197.58,-306.05 1205.92,-299.52 1195.33,-299.42 1197.58,-306.05"/>
</g>
<!-- Node26 -->
<g id="node26" class="node">
<title>Node26</title>
<g id="a_node26"><a xlink:href="interval_8h.html" target="_top" xlink:title=" ">
<polygon fill="none" stroke="black" points="1139.5,-224.5 1139.5,-243.5 1202.5,-243.5 1202.5,-224.5 1139.5,-224.5"/>
<text text-anchor="middle" x="1171" y="-231.5" font-family="Helvetica,sans-Serif" font-size="10.00">interval.h</text>
</a>
</g>
</g>
<!-- Node1&#45;&gt;Node26 -->
<g id="edge73" class="edge">
<title>Node1&#45;&gt;Node26</title>
<path fill="none" stroke="midnightblue" d="M1079.77,-336.37C1096.32,-317.97 1135.3,-274.67 1156.55,-251.05"/>
<polygon fill="midnightblue" stroke="midnightblue" points="1159.18,-253.37 1163.27,-243.59 1153.98,-248.68 1159.18,-253.37"/>
</g>
<!-- Node29 -->
<g id="node29" class="node">
<title>Node29</title>
<g id="a_node29"><a xlink:href="HealthGPS_8Core_2poco_8h.html" target="_top" xlink:title=" ">
<polygon fill="none" stroke="black" points="1638.5,-224.5 1638.5,-243.5 1687.5,-243.5 1687.5,-224.5 1638.5,-224.5"/>
<text text-anchor="middle" x="1663" y="-231.5" font-family="Helvetica,sans-Serif" font-size="10.00">poco.h</text>
</a>
</g>
</g>
<!-- Node1&#45;&gt;Node29 -->
<g id="edge74" class="edge">
<title>Node1&#45;&gt;Node29</title>
<path fill="none" stroke="midnightblue" d="M1132.55,-341.89C1210.27,-337.03 1348.94,-325.42 1465,-300 1525.51,-286.75 1593.64,-262.15 1632.13,-247.31"/>
<polygon fill="midnightblue" stroke="midnightblue" points="1633.67,-250.47 1641.72,-243.58 1631.13,-243.94 1633.67,-250.47"/>
</g>
<!-- Node34 -->
<g id="node34" class="node">
<title>Node34</title>
<g id="a_node34"><a xlink:href="identifier_8h.html" target="_top" xlink:title=" ">
<polygon fill="none" stroke="black" points="1405,-112.5 1405,-131.5 1473,-131.5 1473,-112.5 1405,-112.5"/>
<text text-anchor="middle" x="1439" y="-119.5" font-family="Helvetica,sans-Serif" font-size="10.00">identifier.h</text>
</a>
</g>
</g>
<!-- Node1&#45;&gt;Node34 -->
<g id="edge72" class="edge">
<title>Node1&#45;&gt;Node34</title>
<path fill="none" stroke="midnightblue" d="M1132.78,-337.2C1225.98,-323.79 1397.01,-293.02 1431,-244 1452.32,-213.26 1447.9,-166.89 1443.2,-141.41"/>
<polygon fill="midnightblue" stroke="midnightblue" points="1446.62,-140.67 1441.17,-131.58 1439.76,-142.08 1446.62,-140.67"/>
</g>
<!-- Node40 -->
<g id="node40" class="node">
<title>Node40</title>
<g id="a_node40"><a xlink:href="datatable_8h.html" target="_top" xlink:title=" ">
<polygon fill="none" stroke="black" points="878,-224.5 878,-243.5 950,-243.5 950,-224.5 878,-224.5"/>
<text text-anchor="middle" x="914" y="-231.5" font-family="Helvetica,sans-Serif" font-size="10.00">datatable.h</text>
</a>
</g>
</g>
<!-- Node1&#45;&gt;Node40 -->
<g id="edge63" class="edge">
<title>Node1&#45;&gt;Node40</title>
<path fill="none" stroke="midnightblue" d="M1059.6,-336.37C1032.6,-317.57 968.25,-272.77 934.88,-249.53"/>
<polygon fill="midnightblue" stroke="midnightblue" points="936.55,-246.43 926.34,-243.59 932.55,-252.18 936.55,-246.43"/>
</g>
<!-- Node43 -->
<g id="node43" class="node">
<title>Node43</title>
<g id="a_node43"><a xlink:href="univariate__summary_8h.html" target="_top" xlink:title=" ">
<polygon fill="none" stroke="black" points="1297.5,-224.5 1297.5,-243.5 1422.5,-243.5 1422.5,-224.5 1297.5,-224.5"/>
<text text-anchor="middle" x="1360" y="-231.5" font-family="Helvetica,sans-Serif" font-size="10.00">univariate_summary.h</text>
</a>
</g>
</g>
<!-- Node1&#45;&gt;Node43 -->
<g id="edge75" class="edge">
<title>Node1&#45;&gt;Node43</title>
<path fill="none" stroke="midnightblue" d="M1132.73,-338.72C1174.53,-332.72 1230.51,-321.3 1276,-300 1302.45,-287.62 1328.33,-265.67 1344.21,-250.74"/>
<polygon fill="midnightblue" stroke="midnightblue" points="1346.79,-253.12 1351.56,-243.66 1341.93,-248.08 1346.79,-253.12"/>
</g>
<!-- Node44 -->
<g id="node44" class="node">
<title>Node44</title>
<g id="a_node44"><a xlink:href="version_8h.html" target="_top" xlink:title=" ">
<polygon fill="none" stroke="black" points="1769,-280.5 1769,-299.5 1831,-299.5 1831,-280.5 1769,-280.5"/>
<text text-anchor="middle" x="1800" y="-287.5" font-family="Helvetica,sans-Serif" font-size="10.00">version.h</text>
</a>
</g>
</g>
<!-- Node1&#45;&gt;Node44 -->
<g id="edge80" class="edge">
<title>Node1&#45;&gt;Node44</title>
<path fill="none" stroke="midnightblue" d="M1132.51,-340.51C1276.56,-329.83 1636.91,-303.1 1758.89,-294.05"/>
<polygon fill="midnightblue" stroke="midnightblue" points="1759.23,-297.53 1768.94,-293.3 1758.71,-290.55 1759.23,-297.53"/>
</g>
<!-- Node3 -->
<g id="node3" class="node">
<title>Node3</title>
<g id="a_node3"><a xlink:href="forward__type_8h.html" target="_top" xlink:title=" ">
<polygon fill="none" stroke="black" points="1142,-56.5 1142,-75.5 1232,-75.5 1232,-56.5 1142,-56.5"/>
<text text-anchor="middle" x="1187" y="-63.5" font-family="Helvetica,sans-Serif" font-size="10.00">forward_type.h</text>
</a>
</g>
</g>
<!-- Node2&#45;&gt;Node3 -->
<g id="edge2" class="edge">
<title>Node2&#45;&gt;Node3</title>
<path fill="none" stroke="midnightblue" d="M585.45,-232.05C525.34,-229.51 397.97,-220.35 371,-188 365.31,-181.17 365.84,-175.24 371,-168 415.2,-105.95 458.35,-127.19 533,-112 646.86,-88.83 995.13,-73.99 1131.45,-68.94"/>
<polygon fill="midnightblue" stroke="midnightblue" points="1131.8,-72.43 1141.67,-68.56 1131.55,-65.43 1131.8,-72.43"/>
</g>
<!-- Node6 -->
<g id="node6" class="node">
<title>Node6</title>
<g id="a_node6"><a xlink:title=" ">
<polygon fill="none" stroke="#bfbfbf" points="732,-168.5 732,-187.5 796,-187.5 796,-168.5 732,-168.5"/>
<text text-anchor="middle" x="764" y="-175.5" font-family="Helvetica,sans-Serif" font-size="10.00">algorithm</text>
</a>
</g>
</g>
<!-- Node2&#45;&gt;Node6 -->
<g id="edge5" class="edge">
<title>Node2&#45;&gt;Node6</title>
<path fill="none" stroke="midnightblue" d="M640.29,-224.44C664.81,-215.44 703.6,-201.19 731.2,-191.05"/>
<polygon fill="midnightblue" stroke="midnightblue" points="732.64,-194.25 740.82,-187.52 730.22,-187.68 732.64,-194.25"/>
</g>
<!-- Node7 -->
<g id="node7" class="node">
<title>Node7</title>
<g id="a_node7"><a xlink:title=" ">
<polygon fill="none" stroke="#bfbfbf" points="1106.5,-168.5 1106.5,-187.5 1185.5,-187.5 1185.5,-168.5 1106.5,-168.5"/>
<text text-anchor="middle" x="1146" y="-175.5" font-family="Helvetica,sans-Serif" font-size="10.00">fmt/format.h</text>
</a>
</g>
</g>
<!-- Node2&#45;&gt;Node7 -->
<g id="edge6" class="edge">
<title>Node2&#45;&gt;Node7</title>
<path fill="none" stroke="midnightblue" d="M648.55,-229.78C720.93,-222.4 904.49,-203.68 1058,-188 1070.29,-186.74 1083.55,-185.39 1095.96,-184.12"/>
<polygon fill="midnightblue" stroke="midnightblue" points="1096.54,-187.58 1106.14,-183.08 1095.83,-180.61 1096.54,-187.58"/>
</g>
<!-- Node8 -->
<g id="node8" class="node">
<title>Node8</title>
<g id="a_node8"><a xlink:title=" ">
<polygon fill="none" stroke="#bfbfbf" points="380,-168.5 380,-187.5 438,-187.5 438,-168.5 380,-168.5"/>
<text text-anchor="middle" x="409" y="-175.5" font-family="Helvetica,sans-Serif" font-size="10.00">memory</text>
</a>
</g>
</g>
<!-- Node2&#45;&gt;Node8 -->
<g id="edge7" class="edge">
<title>Node2&#45;&gt;Node8</title>
<path fill="none" stroke="midnightblue" d="M585.41,-224.8C548.61,-215.24 487.8,-199.46 448.06,-189.14"/>
<polygon fill="midnightblue" stroke="midnightblue" points="448.75,-185.7 438.2,-186.58 446.99,-192.48 448.75,-185.7"/>
</g>
<!-- Node9 -->
<g id="node9" class="node">
<title>Node9</title>
<g id="a_node9"><a xlink:title=" ">
<polygon fill="none" stroke="#bfbfbf" points="456,-168.5 456,-187.5 512,-187.5 512,-168.5 456,-168.5"/>
<text text-anchor="middle" x="484" y="-175.5" font-family="Helvetica,sans-Serif" font-size="10.00">sstream</text>
</a>
</g>
</g>
<!-- Node2&#45;&gt;Node9 -->
<g id="edge8" class="edge">
<title>Node2&#45;&gt;Node9</title>
<path fill="none" stroke="midnightblue" d="M595.93,-224.44C573.94,-215.52 539.27,-201.44 514.34,-191.32"/>
<polygon fill="midnightblue" stroke="midnightblue" points="515.56,-188.04 504.98,-187.52 512.92,-194.52 515.56,-188.04"/>
</g>
<!-- Node10 -->
<g id="node10" class="node">
<title>Node10</title>
<g id="a_node10"><a xlink:title=" ">
<polygon fill="none" stroke="#bfbfbf" points="530.5,-168.5 530.5,-187.5 595.5,-187.5 595.5,-168.5 530.5,-168.5"/>
<text text-anchor="middle" x="563" y="-175.5" font-family="Helvetica,sans-Serif" font-size="10.00">stdexcept</text>
</a>
</g>
</g>
<!-- Node2&#45;&gt;Node10 -->
<g id="edge9" class="edge">
<title>Node2&#45;&gt;Node10</title>
<path fill="none" stroke="midnightblue" d="M608.08,-224.08C600.22,-216.22 588.57,-204.57 579.08,-195.08"/>
<polygon fill="midnightblue" stroke="midnightblue" points="581.3,-192.35 571.75,-187.75 576.35,-197.3 581.3,-192.35"/>
</g>
<!-- Node11 -->
<g id="node11" class="node">
<title>Node11</title>
<g id="a_node11"><a xlink:title=" ">
<polygon fill="none" stroke="#bfbfbf" points="974.5,-112.5 974.5,-131.5 1021.5,-131.5 1021.5,-112.5 974.5,-112.5"/>
<text text-anchor="middle" x="998" y="-119.5" font-family="Helvetica,sans-Serif" font-size="10.00">vector</text>
</a>
</g>
</g>
<!-- Node2&#45;&gt;Node11 -->
<g id="edge10" class="edge">
<title>Node2&#45;&gt;Node11</title>
<path fill="none" stroke="midnightblue" d="M629.55,-224.45C653.14,-208.52 703.48,-175.26 723,-168 806.14,-137.07 911.27,-127.36 964.23,-124.34"/>
<polygon fill="midnightblue" stroke="midnightblue" points="964.6,-127.83 974.41,-123.81 964.24,-120.84 964.6,-127.83"/>
</g>
<!-- Node4 -->
<g id="node4" class="node">
<title>Node4</title>
<g id="a_node4"><a xlink:title=" ">
<polygon fill="none" stroke="#bfbfbf" points="1123,-0.5 1123,-19.5 1173,-19.5 1173,-0.5 1123,-0.5"/>
<text text-anchor="middle" x="1148" y="-7.5" font-family="Helvetica,sans-Serif" font-size="10.00">cstdint</text>
</a>
</g>
</g>
<!-- Node3&#45;&gt;Node4 -->
<g id="edge3" class="edge">
<title>Node3&#45;&gt;Node4</title>
<path fill="none" stroke="midnightblue" d="M1180.56,-56.08C1175.05,-48.46 1166.97,-37.26 1160.24,-27.94"/>
<polygon fill="midnightblue" stroke="midnightblue" points="1163.01,-25.81 1154.32,-19.75 1157.34,-29.91 1163.01,-25.81"/>
</g>
<!-- Node5 -->
<g id="node5" class="node">
<title>Node5</title>
<g id="a_node5"><a xlink:title=" ">
<polygon fill="none" stroke="#bfbfbf" points="1191.5,-0.5 1191.5,-19.5 1260.5,-19.5 1260.5,-0.5 1191.5,-0.5"/>
<text text-anchor="middle" x="1226" y="-7.5" font-family="Helvetica,sans-Serif" font-size="10.00">type_traits</text>
</a>
</g>
</g>
<!-- Node3&#45;&gt;Node5 -->
<g id="edge4" class="edge">
<title>Node3&#45;&gt;Node5</title>
<path fill="none" stroke="midnightblue" d="M1193.44,-56.08C1198.95,-48.46 1207.03,-37.26 1213.76,-27.94"/>
<polygon fill="midnightblue" stroke="midnightblue" points="1216.66,-29.91 1219.68,-19.75 1210.99,-25.81 1216.66,-29.91"/>
</g>
<!-- Node12&#45;&gt;Node8 -->
<g id="edge14" class="edge">
<title>Node12&#45;&gt;Node8</title>
<path fill="none" stroke="midnightblue" d="M369.76,-224.08C376.54,-216.3 386.54,-204.8 394.76,-195.37"/>
<polygon fill="midnightblue" stroke="midnightblue" points="397.46,-197.59 401.38,-187.75 392.18,-193 397.46,-197.59"/>
</g>
<!-- Node12&#45;&gt;Node11 -->
<g id="edge15" class="edge">
<title>Node12&#45;&gt;Node11</title>
<path fill="none" stroke="midnightblue" d="M360.18,-224.33C357.79,-210.23 355.53,-182.48 371,-168 392.82,-147.57 836.62,-129.15 964.06,-124.26"/>
<polygon fill="midnightblue" stroke="midnightblue" points="964.52,-127.75 974.38,-123.87 964.25,-120.75 964.52,-127.75"/>
</g>
<!-- Node13 -->
<g id="node13" class="node">
<title>Node13</title>
<g id="a_node13"><a xlink:title=" ">
<polygon fill="none" stroke="#bfbfbf" points="220.5,-168.5 220.5,-187.5 285.5,-187.5 285.5,-168.5 220.5,-168.5"/>
<text text-anchor="middle" x="253" y="-175.5" font-family="Helvetica,sans-Serif" font-size="10.00">exception</text>
</a>
</g>
</g>
<!-- Node12&#45;&gt;Node13 -->
<g id="edge12" class="edge">
<title>Node12&#45;&gt;Node13</title>
<path fill="none" stroke="midnightblue" d="M344.49,-224.32C326.93,-215.62 299.67,-202.12 279.47,-192.11"/>
<polygon fill="midnightblue" stroke="midnightblue" points="280.98,-188.96 270.47,-187.65 277.88,-195.23 280.98,-188.96"/>
</g>
<!-- Node14 -->
<g id="node14" class="node">
<title>Node14</title>
<g id="a_node14"><a xlink:title=" ">
<polygon fill="none" stroke="#bfbfbf" points="158,-168.5 158,-187.5 202,-187.5 202,-168.5 158,-168.5"/>
<text text-anchor="middle" x="180" y="-175.5" font-family="Helvetica,sans-Serif" font-size="10.00">limits</text>
</a>
</g>
</g>
<!-- Node12&#45;&gt;Node14 -->
<g id="edge13" class="edge">
<title>Node12&#45;&gt;Node14</title>
<path fill="none" stroke="midnightblue" d="M333.16,-224.44C300.19,-214.66 246.36,-198.69 212.08,-188.52"/>
<polygon fill="midnightblue" stroke="midnightblue" points="212.7,-185.05 202.12,-185.56 210.71,-191.76 212.7,-185.05"/>
</g>
<!-- Node15 -->
<g id="node15" class="node">
<title>Node15</title>
<g id="a_node15"><a xlink:href="column_8h.html" target="_top" xlink:title=" ">
<polygon fill="none" stroke="black" points="614,-168.5 614,-187.5 676,-187.5 676,-168.5 614,-168.5"/>
<text text-anchor="middle" x="645" y="-175.5" font-family="Helvetica,sans-Serif" font-size="10.00">column.h</text>
</a>
</g>
</g>
<!-- Node12&#45;&gt;Node15 -->
<g id="edge16" class="edge">
<title>Node12&#45;&gt;Node15</title>
<path fill="none" stroke="midnightblue" d="M410.3,-224.49C457.11,-216.14 530.36,-202.79 603.79,-187.99"/>
<polygon fill="midnightblue" stroke="midnightblue" points="604.58,-191.4 613.68,-185.98 603.19,-184.54 604.58,-191.4"/>
</g>
<!-- Node16 -->
<g id="node16" class="node">
<title>Node16</title>
<g id="a_node16"><a xlink:title=" ">
<polygon fill="none" stroke="#bfbfbf" points="691.5,-112.5 691.5,-131.5 726.5,-131.5 726.5,-112.5 691.5,-112.5"/>
<text text-anchor="middle" x="709" y="-119.5" font-family="Helvetica,sans-Serif" font-size="10.00">any</text>
</a>
</g>
</g>
<!-- Node15&#45;&gt;Node16 -->
<g id="edge17" class="edge">
<title>Node15&#45;&gt;Node16</title>
<path fill="none" stroke="midnightblue" d="M655.28,-168.32C664.84,-160.26 679.28,-148.08 690.78,-138.37"/>
<polygon fill="midnightblue" stroke="midnightblue" points="693.14,-140.96 698.53,-131.83 688.63,-135.61 693.14,-140.96"/>
</g>
<!-- Node17 -->
<g id="node17" class="node">
<title>Node17</title>
<g id="a_node17"><a xlink:title=" ">
<polygon fill="none" stroke="#bfbfbf" points="1638,-56.5 1638,-75.5 1682,-75.5 1682,-56.5 1638,-56.5"/>
<text text-anchor="middle" x="1660" y="-63.5" font-family="Helvetica,sans-Serif" font-size="10.00">string</text>
</a>
</g>
</g>
<!-- Node15&#45;&gt;Node17 -->
<g id="edge18" class="edge">
<title>Node15&#45;&gt;Node17</title>
<path fill="none" stroke="midnightblue" d="M676.12,-173.36C690.4,-171.7 707.56,-169.72 723,-168 1077.75,-128.41 1508.36,-82.95 1627.9,-70.37"/>
<polygon fill="midnightblue" stroke="midnightblue" points="1628.28,-73.85 1637.86,-69.32 1627.55,-66.89 1628.28,-73.85"/>
</g>
<!-- Node18 -->
<g id="node18" class="node">
<title>Node18</title>
<g id="a_node18"><a xlink:title=" ">
<polygon fill="none" stroke="#bfbfbf" points="616.5,-112.5 616.5,-131.5 673.5,-131.5 673.5,-112.5 616.5,-112.5"/>
<text text-anchor="middle" x="645" y="-119.5" font-family="Helvetica,sans-Serif" font-size="10.00">typeinfo</text>
</a>
</g>
</g>
<!-- Node15&#45;&gt;Node18 -->
<g id="edge19" class="edge">
<title>Node15&#45;&gt;Node18</title>
<path fill="none" stroke="midnightblue" d="M645,-168.08C645,-161.01 645,-150.86 645,-141.99"/>
<polygon fill="midnightblue" stroke="midnightblue" points="648.5,-141.75 645,-131.75 641.5,-141.75 648.5,-141.75"/>
</g>
<!-- Node15&#45;&gt;Node19 -->
<g id="edge20" class="edge">
<title>Node15&#45;&gt;Node19</title>
<path fill="none" stroke="midnightblue" d="M632.95,-168.32C621.54,-160.11 604.17,-147.6 590.57,-137.81"/>
<polygon fill="midnightblue" stroke="midnightblue" points="592.43,-134.84 582.27,-131.83 588.34,-140.52 592.43,-134.84"/>
</g>
<!-- Node19&#45;&gt;Node3 -->
<g id="edge21" class="edge">
<title>Node19&#45;&gt;Node3</title>
<path fill="none" stroke="midnightblue" d="M598.19,-113.65C601.15,-113.02 604.13,-112.46 607,-112 798.17,-81.54 1028.2,-71.46 1131.74,-68.33"/>
<polygon fill="midnightblue" stroke="midnightblue" points="1132.06,-71.82 1141.96,-68.03 1131.86,-64.82 1132.06,-71.82"/>
</g>
<!-- Node21 -->
<g id="node21" class="node">
<title>Node21</title>
<g id="a_node21"><a xlink:title=" ">
<polygon fill="none" stroke="#bfbfbf" points="24.5,-112.5 24.5,-131.5 77.5,-131.5 77.5,-112.5 24.5,-112.5"/>
<text text-anchor="middle" x="51" y="-119.5" font-family="Helvetica,sans-Serif" font-size="10.00">iterator</text>
</a>
</g>
</g>
<!-- Node20&#45;&gt;Node21 -->
<g id="edge23" class="edge">
<title>Node20&#45;&gt;Node21</title>
<path fill="none" stroke="midnightblue" d="M51,-168.08C51,-161.01 51,-150.86 51,-141.99"/>
<polygon fill="midnightblue" stroke="midnightblue" points="54.5,-141.75 51,-131.75 47.5,-141.75 54.5,-141.75"/>
</g>
<!-- Node23 -->
<g id="node23" class="node">
<title>Node23</title>
<g id="a_node23"><a xlink:href="column__primitive_8h.html" target="_top" xlink:title=" ">
<polygon fill="none" stroke="black" points="719.5,-224.5 719.5,-243.5 830.5,-243.5 830.5,-224.5 719.5,-224.5"/>
<text text-anchor="middle" x="775" y="-231.5" font-family="Helvetica,sans-Serif" font-size="10.00">column_primitive.h</text>
</a>
</g>
</g>
<!-- Node22&#45;&gt;Node23 -->
<g id="edge25" class="edge">
<title>Node22&#45;&gt;Node23</title>
<path fill="none" stroke="midnightblue" d="M830.4,-280.32C820.54,-272.26 805.65,-260.08 793.78,-250.37"/>
<polygon fill="midnightblue" stroke="midnightblue" points="795.75,-247.46 785.8,-243.83 791.32,-252.88 795.75,-247.46"/>
</g>
<!-- Node23&#45;&gt;Node6 -->
<g id="edge26" class="edge">
<title>Node23&#45;&gt;Node6</title>
<path fill="none" stroke="midnightblue" d="M773.18,-224.08C771.73,-216.93 769.63,-206.64 767.81,-197.69"/>
<polygon fill="midnightblue" stroke="midnightblue" points="771.21,-196.85 765.78,-187.75 764.35,-198.25 771.21,-196.85"/>
</g>
<!-- Node23&#45;&gt;Node11 -->
<g id="edge28" class="edge">
<title>Node23&#45;&gt;Node11</title>
<path fill="none" stroke="midnightblue" d="M786.06,-224.49C803.83,-211.11 840.18,-184.95 874,-168 903.64,-153.14 939.42,-140.7 964.91,-132.69"/>
<polygon fill="midnightblue" stroke="midnightblue" points="965.95,-136.03 974.48,-129.74 963.89,-129.34 965.95,-136.03"/>
</g>
<!-- Node23&#45;&gt;Node15 -->
<g id="edge29" class="edge">
<title>Node23&#45;&gt;Node15</title>
<path fill="none" stroke="midnightblue" d="M754.4,-224.44C733.01,-215.56 699.32,-201.56 674.98,-191.45"/>
<polygon fill="midnightblue" stroke="midnightblue" points="676.08,-188.12 665.5,-187.52 673.39,-194.58 676.08,-188.12"/>
</g>
<!-- Node23&#45;&gt;Node20 -->
<g id="edge30" class="edge">
<title>Node23&#45;&gt;Node20</title>
<path fill="none" stroke="midnightblue" d="M719.48,-228.7C699.75,-227.19 677.39,-225.5 657,-224 431.27,-207.39 374.6,-206.35 149,-188 137.09,-187.03 124.38,-185.92 112.19,-184.82"/>
<polygon fill="midnightblue" stroke="midnightblue" points="112.38,-181.32 102.1,-183.9 111.74,-188.29 112.38,-181.32"/>
</g>
<!-- Node24 -->
<g id="node24" class="node">
<title>Node24</title>
<g id="a_node24"><a xlink:title=" ">
<polygon fill="none" stroke="#bfbfbf" points="1203,-168.5 1203,-187.5 1259,-187.5 1259,-168.5 1203,-168.5"/>
<text text-anchor="middle" x="1231" y="-175.5" font-family="Helvetica,sans-Serif" font-size="10.00">optional</text>
</a>
</g>
</g>
<!-- Node23&#45;&gt;Node24 -->
<g id="edge27" class="edge">
<title>Node23&#45;&gt;Node24</title>
<path fill="none" stroke="midnightblue" d="M830.67,-227.43C929.83,-217.46 1131.68,-196.89 1192.57,-187.9"/>
<polygon fill="midnightblue" stroke="midnightblue" points="1193.48,-191.3 1202.8,-186.26 1192.37,-184.39 1193.48,-191.3"/>
</g>
<!-- Node25&#45;&gt;Node11 -->
<g id="edge62" class="edge">
<title>Node25&#45;&gt;Node11</title>
<path fill="none" stroke="midnightblue" d="M1238.55,-280.28C1256.27,-258.73 1296.97,-202.19 1268,-168 1238.1,-132.71 1097.56,-125.07 1031.92,-123.43"/>
<polygon fill="midnightblue" stroke="midnightblue" points="1031.76,-119.93 1021.69,-123.21 1031.61,-126.93 1031.76,-119.93"/>
</g>
<!-- Node25&#45;&gt;Node24 -->
<g id="edge61" class="edge">
<title>Node25&#45;&gt;Node24</title>
<path fill="none" stroke="midnightblue" d="M1231,-280.37C1231,-262.62 1231,-221.67 1231,-197.6"/>
<polygon fill="midnightblue" stroke="midnightblue" points="1234.5,-197.59 1231,-187.59 1227.5,-197.59 1234.5,-197.59"/>
</g>
<!-- Node25&#45;&gt;Node26 -->
<g id="edge32" class="edge">
<title>Node25&#45;&gt;Node26</title>
<path fill="none" stroke="midnightblue" d="M1221.36,-280.32C1212.49,-272.34 1199.13,-260.31 1188.39,-250.65"/>
<polygon fill="midnightblue" stroke="midnightblue" points="1190.59,-247.92 1180.82,-243.83 1185.91,-253.13 1190.59,-247.92"/>
</g>
<!-- Node25&#45;&gt;Node29 -->
<g id="edge38" class="edge">
<title>Node25&#45;&gt;Node29</title>
<path fill="none" stroke="midnightblue" d="M1267.09,-284.49C1348.89,-274.26 1547.55,-249.43 1628.15,-239.36"/>
<polygon fill="midnightblue" stroke="midnightblue" points="1628.79,-242.8 1638.28,-238.09 1627.92,-235.86 1628.79,-242.8"/>
</g>
<!-- Node26&#45;&gt;Node3 -->
<g id="edge33" class="edge">
<title>Node26&#45;&gt;Node3</title>
<path fill="none" stroke="midnightblue" d="M1202.66,-227.52C1225.12,-221.79 1253.71,-210.38 1268,-188 1292.87,-149.05 1240.91,-104.02 1209.17,-81.46"/>
<polygon fill="midnightblue" stroke="midnightblue" points="1211.06,-78.51 1200.84,-75.72 1207.09,-84.28 1211.06,-78.51"/>
</g>
<!-- Node26&#45;&gt;Node7 -->
<g id="edge37" class="edge">
<title>Node26&#45;&gt;Node7</title>
<path fill="none" stroke="midnightblue" d="M1166.87,-224.08C1163.49,-216.77 1158.58,-206.18 1154.38,-197.1"/>
<polygon fill="midnightblue" stroke="midnightblue" points="1157.43,-195.36 1150.05,-187.75 1151.08,-198.3 1157.43,-195.36"/>
</g>
<!-- Node27 -->
<g id="node27" class="node">
<title>Node27</title>
<g id="a_node27"><a xlink:href="string__util_8h.html" target="_top" xlink:title=" ">
<polygon fill="none" stroke="black" points="1623,-112.5 1623,-131.5 1697,-131.5 1697,-112.5 1623,-112.5"/>
<text text-anchor="middle" x="1660" y="-119.5" font-family="Helvetica,sans-Serif" font-size="10.00">string_util.h</text>
</a>
</g>
</g>
<!-- Node26&#45;&gt;Node27 -->
<g id="edge34" class="edge">
<title>Node26&#45;&gt;Node27</title>
<path fill="none" stroke="midnightblue" d="M1202.51,-230.26C1303.82,-221.42 1615.16,-193.82 1624,-188 1640.3,-177.27 1649.91,-156.52 1655.04,-141.35"/>
<polygon fill="midnightblue" stroke="midnightblue" points="1658.47,-142.09 1658.02,-131.5 1651.77,-140.06 1658.47,-142.09"/>
</g>
<!-- Node27&#45;&gt;Node17 -->
<g id="edge36" class="edge">
<title>Node27&#45;&gt;Node17</title>
<path fill="none" stroke="midnightblue" d="M1660,-112.08C1660,-105.01 1660,-94.86 1660,-85.99"/>
<polygon fill="midnightblue" stroke="midnightblue" points="1663.5,-85.75 1660,-75.75 1656.5,-85.75 1663.5,-85.75"/>
</g>
<!-- Node28 -->
<g id="node28" class="node">
<title>Node28</title>
<g id="a_node28"><a xlink:title=" ">
<polygon fill="none" stroke="#bfbfbf" points="1480.5,-56.5 1480.5,-75.5 1545.5,-75.5 1545.5,-56.5 1480.5,-56.5"/>
<text text-anchor="middle" x="1513" y="-63.5" font-family="Helvetica,sans-Serif" font-size="10.00">functional</text>
</a>
</g>
</g>
<!-- Node27&#45;&gt;Node28 -->
<g id="edge35" class="edge">
<title>Node27&#45;&gt;Node28</title>
<path fill="none" stroke="midnightblue" d="M1636.71,-112.44C1612.19,-103.44 1573.4,-89.19 1545.8,-79.05"/>
<polygon fill="midnightblue" stroke="midnightblue" points="1546.78,-75.68 1536.18,-75.52 1544.36,-82.25 1546.78,-75.68"/>
</g>
<!-- Node30 -->
<g id="node30" class="node">
<title>Node30</title>
<g id="a_node30"><a xlink:href="analysis_8h.html" target="_top" xlink:title=" ">
<polygon fill="none" stroke="black" points="1549,-168.5 1549,-187.5 1615,-187.5 1615,-168.5 1549,-168.5"/>
<text text-anchor="middle" x="1582" y="-175.5" font-family="Helvetica,sans-Serif" font-size="10.00">analysis.h</text>
</a>
</g>
</g>
<!-- Node29&#45;&gt;Node30 -->
<g id="edge39" class="edge">
<title>Node29&#45;&gt;Node30</title>
<path fill="none" stroke="midnightblue" d="M1649.99,-224.32C1637.47,-215.98 1618.32,-203.21 1603.53,-193.35"/>
<polygon fill="midnightblue" stroke="midnightblue" points="1605.24,-190.29 1594.98,-187.65 1601.36,-196.11 1605.24,-190.29"/>
</g>
<!-- Node32 -->
<g id="node32" class="node">
<title>Node32</title>
<g id="a_node32"><a xlink:href="country_8h.html" target="_top" xlink:title=" ">
<polygon fill="none" stroke="black" points="1914.5,-112.5 1914.5,-131.5 1975.5,-131.5 1975.5,-112.5 1914.5,-112.5"/>
<text text-anchor="middle" x="1945" y="-119.5" font-family="Helvetica,sans-Serif" font-size="10.00">country.h</text>
</a>
</g>
</g>
<!-- Node29&#45;&gt;Node32 -->
<g id="edge44" class="edge">
<title>Node29&#45;&gt;Node32</title>
<path fill="none" stroke="midnightblue" d="M1687.76,-232.08C1746.5,-229.4 1891.98,-219.64 1927,-188 1939.88,-176.36 1943.88,-156.41 1944.96,-141.68"/>
<polygon fill="midnightblue" stroke="midnightblue" points="1948.46,-141.77 1945.32,-131.65 1941.47,-141.51 1948.46,-141.77"/>
</g>
<!-- Node33 -->
<g id="node33" class="node">
<title>Node33</title>
<g id="a_node33"><a xlink:href="HealthGPS_8Core_2disease_8h.html" target="_top" xlink:title=" ">
<polygon fill="none" stroke="black" points="1467.5,-168.5 1467.5,-187.5 1530.5,-187.5 1530.5,-168.5 1467.5,-168.5"/>
<text text-anchor="middle" x="1499" y="-175.5" font-family="Helvetica,sans-Serif" font-size="10.00">disease.h</text>
</a>
</g>
</g>
<!-- Node29&#45;&gt;Node33 -->
<g id="edge46" class="edge">
<title>Node29&#45;&gt;Node33</title>
<path fill="none" stroke="midnightblue" d="M1638.45,-224.92C1610.95,-215.86 1566.14,-201.11 1534.76,-190.77"/>
<polygon fill="midnightblue" stroke="midnightblue" points="1535.67,-187.39 1525.08,-187.59 1533.48,-194.04 1535.67,-187.39"/>
</g>
<!-- Node36 -->
<g id="node36" class="node">
<title>Node36</title>
<g id="a_node36"><a xlink:href="indicator_8h.html" target="_top" xlink:title=" ">
<polygon fill="none" stroke="black" points="1824,-112.5 1824,-131.5 1892,-131.5 1892,-112.5 1824,-112.5"/>
<text text-anchor="middle" x="1858" y="-119.5" font-family="Helvetica,sans-Serif" font-size="10.00">indicator.h</text>
</a>
</g>
</g>
<!-- Node29&#45;&gt;Node36 -->
<g id="edge55" class="edge">
<title>Node29&#45;&gt;Node36</title>
<path fill="none" stroke="midnightblue" d="M1687.57,-232.35C1744.32,-230.28 1881.8,-221.8 1910,-188 1924.52,-170.6 1901.74,-150.13 1881.91,-136.88"/>
<polygon fill="midnightblue" stroke="midnightblue" points="1883.75,-133.9 1873.43,-131.5 1880.01,-139.81 1883.75,-133.9"/>
</g>
<!-- Node37 -->
<g id="node37" class="node">
<title>Node37</title>
<g id="a_node37"><a xlink:href="mortality_8h.html" target="_top" xlink:title=" ">
<polygon fill="none" stroke="black" points="1709.5,-168.5 1709.5,-187.5 1778.5,-187.5 1778.5,-168.5 1709.5,-168.5"/>
<text text-anchor="middle" x="1744" y="-175.5" font-family="Helvetica,sans-Serif" font-size="10.00">mortality.h</text>
</a>
</g>
</g>
<!-- Node29&#45;&gt;Node37 -->
<g id="edge57" class="edge">
<title>Node29&#45;&gt;Node37</title>
<path fill="none" stroke="midnightblue" d="M1676.01,-224.32C1688.53,-215.98 1707.68,-203.21 1722.47,-193.35"/>
<polygon fill="midnightblue" stroke="midnightblue" points="1724.64,-196.11 1731.02,-187.65 1720.76,-190.29 1724.64,-196.11"/>
</g>
<!-- Node39 -->
<g id="node39" class="node">
<title>Node39</title>
<g id="a_node39"><a xlink:href="population__item_8h.html" target="_top" xlink:title=" ">
<polygon fill="none" stroke="black" points="1796.5,-168.5 1796.5,-187.5 1901.5,-187.5 1901.5,-168.5 1796.5,-168.5"/>
<text text-anchor="middle" x="1849" y="-175.5" font-family="Helvetica,sans-Serif" font-size="10.00">population_item.h</text>
</a>
</g>
</g>
<!-- Node29&#45;&gt;Node39 -->
<g id="edge59" class="edge">
<title>Node29&#45;&gt;Node39</title>
<path fill="none" stroke="midnightblue" d="M1687.7,-225.83C1718.86,-216.78 1772.83,-201.11 1809.69,-190.41"/>
<polygon fill="midnightblue" stroke="midnightblue" points="1810.97,-193.69 1819.59,-187.54 1809.01,-186.96 1810.97,-193.69"/>
</g>
<!-- Node30&#45;&gt;Node3 -->
<g id="edge40" class="edge">
<title>Node30&#45;&gt;Node3</title>
<path fill="none" stroke="midnightblue" d="M1548.9,-169.75C1503.43,-159.66 1424.07,-141.55 1396,-132 1375.28,-124.95 1371.61,-119.36 1351,-112 1312.32,-98.19 1267.25,-86.1 1234.16,-77.94"/>
<polygon fill="midnightblue" stroke="midnightblue" points="1234.84,-74.5 1224.29,-75.53 1233.18,-81.3 1234.84,-74.5"/>
</g>
<!-- Node30&#45;&gt;Node11 -->
<g id="edge43" class="edge">
<title>Node30&#45;&gt;Node11</title>
<path fill="none" stroke="midnightblue" d="M1548.74,-169.62C1545.46,-169.01 1542.17,-168.46 1539,-168 1348.27,-140.22 1117.03,-128.11 1031.71,-124.36"/>
<polygon fill="midnightblue" stroke="midnightblue" points="1031.72,-120.85 1021.58,-123.92 1031.42,-127.85 1031.72,-120.85"/>
</g>
<!-- Node30&#45;&gt;Node17 -->
<g id="edge42" class="edge">
<title>Node30&#45;&gt;Node17</title>
<path fill="none" stroke="midnightblue" d="M1585.11,-168.49C1590.06,-155.57 1600.57,-130.54 1614,-112 1621.83,-101.19 1632.36,-90.68 1641.38,-82.53"/>
<polygon fill="midnightblue" stroke="midnightblue" points="1643.88,-84.99 1649.11,-75.77 1639.27,-79.72 1643.88,-84.99"/>
</g>
<!-- Node31 -->
<g id="node31" class="node">
<title>Node31</title>
<g id="a_node31"><a xlink:title=" ">
<polygon fill="none" stroke="#bfbfbf" points="1529,-112.5 1529,-131.5 1567,-131.5 1567,-112.5 1529,-112.5"/>
<text text-anchor="middle" x="1548" y="-119.5" font-family="Helvetica,sans-Serif" font-size="10.00">map</text>
</a>
</g>
</g>
<!-- Node30&#45;&gt;Node31 -->
<g id="edge41" class="edge">
<title>Node30&#45;&gt;Node31</title>
<path fill="none" stroke="midnightblue" d="M1576.39,-168.08C1571.63,-160.53 1564.68,-149.49 1558.85,-140.23"/>
<polygon fill="midnightblue" stroke="midnightblue" points="1561.8,-138.35 1553.51,-131.75 1555.88,-142.08 1561.8,-138.35"/>
</g>
<!-- Node32&#45;&gt;Node17 -->
<g id="edge45" class="edge">
<title>Node32&#45;&gt;Node17</title>
<path fill="none" stroke="midnightblue" d="M1914.24,-114.64C1909.8,-113.74 1905.29,-112.84 1901,-112 1826.4,-97.41 1738.6,-81.27 1692.32,-72.85"/>
<polygon fill="midnightblue" stroke="midnightblue" points="1692.75,-69.37 1682.29,-71.03 1691.5,-76.26 1692.75,-69.37"/>
</g>
<!-- Node33&#45;&gt;Node3 -->
<g id="edge50" class="edge">
<title>Node33&#45;&gt;Node3</title>
<path fill="none" stroke="midnightblue" d="M1472.33,-168.47C1444.84,-159.62 1400.79,-145.23 1363,-132 1312.49,-114.32 1254.33,-92.57 1219.14,-79.24"/>
<polygon fill="midnightblue" stroke="midnightblue" points="1220.01,-75.83 1209.42,-75.56 1217.52,-82.38 1220.01,-75.83"/>
</g>
<!-- Node33&#45;&gt;Node11 -->
<g id="edge49" class="edge">
<title>Node33&#45;&gt;Node11</title>
<path fill="none" stroke="midnightblue" d="M1467.28,-173.58C1377.79,-163.94 1123.89,-136.57 1031.85,-126.65"/>
<polygon fill="midnightblue" stroke="midnightblue" points="1032.02,-123.15 1021.7,-125.55 1031.27,-130.11 1032.02,-123.15"/>
</g>
<!-- Node33&#45;&gt;Node17 -->
<g id="edge48" class="edge">
<title>Node33&#45;&gt;Node17</title>
<path fill="none" stroke="midnightblue" d="M1499.38,-168.13C1500.47,-154.25 1504.56,-127.42 1520,-112 1548.89,-83.15 1596.32,-72.79 1627.85,-69.07"/>
<polygon fill="midnightblue" stroke="midnightblue" points="1628.29,-72.54 1637.89,-68.04 1627.58,-65.58 1628.29,-72.54"/>
</g>
<!-- Node33&#45;&gt;Node31 -->
<g id="edge47" class="edge">
<title>Node33&#45;&gt;Node31</title>
<path fill="none" stroke="midnightblue" d="M1507.09,-168.08C1514.16,-160.3 1524.59,-148.8 1533.15,-139.37"/>
<polygon fill="midnightblue" stroke="midnightblue" points="1535.93,-141.51 1540.06,-131.75 1530.75,-136.8 1535.93,-141.51"/>
</g>
<!-- Node33&#45;&gt;Node34 -->
<g id="edge51" class="edge">
<title>Node33&#45;&gt;Node34</title>
<path fill="none" stroke="midnightblue" d="M1489.36,-168.32C1480.49,-160.34 1467.13,-148.31 1456.39,-138.65"/>
<polygon fill="midnightblue" stroke="midnightblue" points="1458.59,-135.92 1448.82,-131.83 1453.91,-141.13 1458.59,-135.92"/>
</g>
<!-- Node34&#45;&gt;Node17 -->
<g id="edge54" class="edge">
<title>Node34&#45;&gt;Node17</title>
<path fill="none" stroke="midnightblue" d="M1473.05,-112.68C1515.35,-102.34 1586.98,-84.84 1628.21,-74.77"/>
<polygon fill="midnightblue" stroke="midnightblue" points="1629.11,-78.15 1638,-72.38 1627.45,-71.35 1629.11,-78.15"/>
</g>
<!-- Node34&#45;&gt;Node28 -->
<g id="edge52" class="edge">
<title>Node34&#45;&gt;Node28</title>
<path fill="none" stroke="midnightblue" d="M1450.89,-112.32C1462.15,-104.11 1479.29,-91.6 1492.71,-81.81"/>
<polygon fill="midnightblue" stroke="midnightblue" points="1494.88,-84.56 1500.89,-75.83 1490.75,-78.9 1494.88,-84.56"/>
</g>
<!-- Node35 -->
<g id="node35" class="node">
<title>Node35</title>
<g id="a_node35"><a xlink:title=" ">
<polygon fill="none" stroke="#bfbfbf" points="1310.5,-56.5 1310.5,-75.5 1367.5,-75.5 1367.5,-56.5 1310.5,-56.5"/>
<text text-anchor="middle" x="1339" y="-63.5" font-family="Helvetica,sans-Serif" font-size="10.00">ostream</text>
</a>
</g>
</g>
<!-- Node34&#45;&gt;Node35 -->
<g id="edge53" class="edge">
<title>Node34&#45;&gt;Node35</title>
<path fill="none" stroke="midnightblue" d="M1422.93,-112.32C1407.04,-103.74 1382.49,-90.49 1364.04,-80.52"/>
<polygon fill="midnightblue" stroke="midnightblue" points="1365.49,-77.33 1355.03,-75.65 1362.16,-83.49 1365.49,-77.33"/>
</g>
<!-- Node36&#45;&gt;Node17 -->
<g id="edge56" class="edge">
<title>Node36&#45;&gt;Node17</title>
<path fill="none" stroke="midnightblue" d="M1826.63,-112.44C1789.75,-102.39 1728.89,-85.79 1691.82,-75.68"/>
<polygon fill="midnightblue" stroke="midnightblue" points="1692.6,-72.26 1682.03,-73.01 1690.76,-79.02 1692.6,-72.26"/>
</g>
<!-- Node38 -->
<g id="node38" class="node">
<title>Node38</title>
<g id="a_node38"><a xlink:title=" ">
<polygon fill="none" stroke="#bfbfbf" points="1756.5,-112.5 1756.5,-131.5 1797.5,-131.5 1797.5,-112.5 1756.5,-112.5"/>
<text text-anchor="middle" x="1777" y="-119.5" font-family="Helvetica,sans-Serif" font-size="10.00">tuple</text>
</a>
</g>
</g>
<!-- Node37&#45;&gt;Node38 -->
<g id="edge58" class="edge">
<title>Node37&#45;&gt;Node38</title>
<path fill="none" stroke="midnightblue" d="M1749.45,-168.08C1754.01,-160.61 1760.67,-149.72 1766.29,-140.52"/>
<polygon fill="midnightblue" stroke="midnightblue" points="1769.42,-142.11 1771.65,-131.75 1763.45,-138.46 1769.42,-142.11"/>
</g>
<!-- Node39&#45;&gt;Node38 -->
<g id="edge60" class="edge">
<title>Node39&#45;&gt;Node38</title>
<path fill="none" stroke="midnightblue" d="M1837.43,-168.32C1826.58,-160.18 1810.12,-147.84 1797.12,-138.09"/>
<polygon fill="midnightblue" stroke="midnightblue" points="1798.88,-135.03 1788.78,-131.83 1794.68,-140.63 1798.88,-135.03"/>
</g>
<!-- Node40&#45;&gt;Node6 -->
<g id="edge64" class="edge">
<title>Node40&#45;&gt;Node6</title>
<path fill="none" stroke="midnightblue" d="M890.23,-224.44C865.11,-215.4 825.29,-201.06 797.1,-190.92"/>
<polygon fill="midnightblue" stroke="midnightblue" points="798.25,-187.61 787.66,-187.52 795.88,-194.2 798.25,-187.61"/>
</g>
<!-- Node40&#45;&gt;Node8 -->
<g id="edge65" class="edge">
<title>Node40&#45;&gt;Node8</title>
<path fill="none" stroke="midnightblue" d="M877.78,-228.45C865.48,-226.96 851.65,-225.34 839,-224 668.25,-205.92 621.39,-215.85 448.33,-188.01"/>
<polygon fill="midnightblue" stroke="midnightblue" points="448.81,-184.54 438.38,-186.39 447.68,-191.45 448.81,-184.54"/>
</g>
<!-- Node40&#45;&gt;Node11 -->
<g id="edge70" class="edge">
<title>Node40&#45;&gt;Node11</title>
<path fill="none" stroke="midnightblue" d="M903.59,-224.18C889.66,-211.28 868.1,-186.78 881,-168 899.57,-140.96 936.84,-130.16 964.35,-125.85"/>
<polygon fill="midnightblue" stroke="midnightblue" points="964.91,-129.31 974.35,-124.5 963.97,-122.37 964.91,-129.31"/>
</g>
<!-- Node40&#45;&gt;Node15 -->
<g id="edge71" class="edge">
<title>Node40&#45;&gt;Node15</title>
<path fill="none" stroke="midnightblue" d="M877.72,-225.72C827.84,-215.7 738.34,-197.74 686.06,-187.24"/>
<polygon fill="midnightblue" stroke="midnightblue" points="686.62,-183.78 676.12,-185.25 685.24,-190.65 686.62,-183.78"/>
</g>
<!-- Node40&#45;&gt;Node24 -->
<g id="edge67" class="edge">
<title>Node40&#45;&gt;Node24</title>
<path fill="none" stroke="midnightblue" d="M950.41,-228.09C1002.16,-220.9 1100.13,-206.54 1192.94,-188.09"/>
<polygon fill="midnightblue" stroke="midnightblue" points="1193.65,-191.51 1202.77,-186.11 1192.28,-184.65 1193.65,-191.51"/>
</g>
<!-- Node40&#45;&gt;Node35 -->
<g id="edge68" class="edge">
<title>Node40&#45;&gt;Node35</title>
<path fill="none" stroke="midnightblue" d="M946.87,-224.46C976.43,-216.37 1020.79,-203.22 1058,-188 1076.03,-180.62 1079.33,-176.2 1097,-168 1171.25,-133.53 1260.58,-97.66 1307.18,-79.36"/>
<polygon fill="midnightblue" stroke="midnightblue" points="1308.69,-82.52 1316.73,-75.62 1306.14,-76.01 1308.69,-82.52"/>
</g>
<!-- Node41 -->
<g id="node41" class="node">
<title>Node41</title>
<g id="a_node41"><a xlink:title=" ">
<polygon fill="none" stroke="#bfbfbf" points="890,-168.5 890,-187.5 938,-187.5 938,-168.5 890,-168.5"/>
<text text-anchor="middle" x="914" y="-175.5" font-family="Helvetica,sans-Serif" font-size="10.00">mutex</text>
</a>
</g>
</g>
<!-- Node40&#45;&gt;Node41 -->
<g id="edge66" class="edge">
<title>Node40&#45;&gt;Node41</title>
<path fill="none" stroke="midnightblue" d="M914,-224.08C914,-217.01 914,-206.86 914,-197.99"/>
<polygon fill="midnightblue" stroke="midnightblue" points="917.5,-197.75 914,-187.75 910.5,-197.75 917.5,-197.75"/>
</g>
<!-- Node42 -->
<g id="node42" class="node">
<title>Node42</title>
<g id="a_node42"><a xlink:title=" ">
<polygon fill="none" stroke="#bfbfbf" points="956.5,-168.5 956.5,-187.5 1049.5,-187.5 1049.5,-168.5 956.5,-168.5"/>
<text text-anchor="middle" x="1003" y="-175.5" font-family="Helvetica,sans-Serif" font-size="10.00">unordered_map</text>
</a>
</g>
</g>
<!-- Node40&#45;&gt;Node42 -->
<g id="edge69" class="edge">
<title>Node40&#45;&gt;Node42</title>
<path fill="none" stroke="midnightblue" d="M928.3,-224.32C942.18,-215.9 963.49,-202.97 979.8,-193.07"/>
<polygon fill="midnightblue" stroke="midnightblue" points="982,-195.83 988.74,-187.65 978.37,-189.85 982,-195.83"/>
</g>
<!-- Node43&#45;&gt;Node11 -->
<g id="edge79" class="edge">
<title>Node43&#45;&gt;Node11</title>
<path fill="none" stroke="midnightblue" d="M1354.79,-224.07C1345.82,-209.62 1326,-181.36 1301,-168 1254.92,-143.38 1101.07,-130.05 1032.04,-125.17"/>
<polygon fill="midnightblue" stroke="midnightblue" points="1031.93,-121.66 1021.72,-124.46 1031.45,-128.64 1031.93,-121.66"/>
</g>
<!-- Node43&#45;&gt;Node17 -->
<g id="edge78" class="edge">
<title>Node43&#45;&gt;Node17</title>
<path fill="none" stroke="midnightblue" d="M1422.7,-227.56C1494.93,-220.52 1608.59,-206.91 1647,-188 1679.44,-172.03 1691.73,-165.22 1706,-132 1714.1,-113.14 1697.33,-94.29 1681.81,-81.78"/>
<polygon fill="midnightblue" stroke="midnightblue" points="1683.58,-78.73 1673.48,-75.53 1679.38,-84.33 1683.58,-78.73"/>
</g>
<!-- Node43&#45;&gt;Node24 -->
<g id="edge76" class="edge">
<title>Node43&#45;&gt;Node24</title>
<path fill="none" stroke="midnightblue" d="M1339.56,-224.44C1318.33,-215.56 1284.9,-201.56 1260.75,-191.45"/>
<polygon fill="midnightblue" stroke="midnightblue" points="1261.92,-188.15 1251.34,-187.52 1259.22,-194.61 1261.92,-188.15"/>
</g>
<!-- Node43&#45;&gt;Node35 -->
<g id="edge77" class="edge">
<title>Node43&#45;&gt;Node35</title>
<path fill="none" stroke="midnightblue" d="M1358.87,-224.08C1355.57,-197.95 1345.86,-121.21 1341.35,-85.58"/>
<polygon fill="midnightblue" stroke="midnightblue" points="1344.81,-85.05 1340.08,-75.57 1337.87,-85.93 1344.81,-85.05"/>
</g>
<!-- Node44&#45;&gt;Node17 -->
<g id="edge81" class="edge">
<title>Node44&#45;&gt;Node17</title>
<path fill="none" stroke="midnightblue" d="M1822.48,-280.36C1883.7,-255.63 2044.83,-181.87 1984,-112 1946.41,-68.83 1767.12,-65.75 1692.6,-66.38"/>
<polygon fill="midnightblue" stroke="midnightblue" points="1692.35,-62.89 1682.39,-66.5 1692.43,-69.89 1692.35,-62.89"/>
</g>
</g>
</svg>
