<?xml version="1.0" encoding="UTF-8" standalone="no"?>
<!DOCTYPE svg PUBLIC "-//W3C//DTD SVG 1.1//EN"
 "http://www.w3.org/Graphics/SVG/1.1/DTD/svg11.dtd">
<!-- Generated by graphviz version 2.43.0 (0)
 -->
<!-- Title: HealthGPS.Datastore/api.h Pages: 1 -->
<svg width="1973pt" height="487pt"
 viewBox="0.00 0.00 1972.97 487.00" xmlns="http://www.w3.org/2000/svg" xmlns:xlink="http://www.w3.org/1999/xlink">
<g id="graph0" class="graph" transform="scale(1 1) rotate(0) translate(4 483)">
<title>HealthGPS.Datastore/api.h</title>
<!-- Node1 -->
<g id="node1" class="node">
<title>Node1</title>
<g id="a_node1"><a xlink:title=" ">
<polygon fill="#bfbfbf" stroke="black" points="1033.15,-448.5 1033.15,-478.5 1152.15,-478.5 1152.15,-448.5 1033.15,-448.5"/>
<text text-anchor="start" x="1041.15" y="-466.5" font-family="Helvetica,sans-Serif" font-size="10.00">HealthGPS.Datastore</text>
<text text-anchor="middle" x="1092.65" y="-455.5" font-family="Helvetica,sans-Serif" font-size="10.00">/api.h</text>
</a>
</g>
</g>
<!-- Node2 -->
<g id="node2" class="node">
<title>Node2</title>
<g id="a_node2"><a xlink:href="datamanager_8h.html" target="_top" xlink:title=" ">
<polygon fill="none" stroke="black" points="1047.65,-392.5 1047.65,-411.5 1137.65,-411.5 1137.65,-392.5 1047.65,-392.5"/>
<text text-anchor="middle" x="1092.65" y="-399.5" font-family="Helvetica,sans-Serif" font-size="10.00">datamanager.h</text>
</a>
</g>
</g>
<!-- Node1&#45;&gt;Node2 -->
<g id="edge1" class="edge">
<title>Node1&#45;&gt;Node2</title>
<path fill="none" stroke="midnightblue" d="M1092.65,-448.4C1092.65,-440.47 1092.65,-430.46 1092.65,-421.86"/>
<polygon fill="midnightblue" stroke="midnightblue" points="1096.15,-421.66 1092.65,-411.66 1089.15,-421.66 1096.15,-421.66"/>
</g>
<!-- Node3 -->
<g id="node3" class="node">
<title>Node3</title>
<g id="a_node3"><a xlink:href="HealthGPS_8Core_2api_8h.html" target="_top" xlink:title=" ">
<polygon fill="none" stroke="black" points="919.15,-336.5 919.15,-355.5 1040.15,-355.5 1040.15,-336.5 919.15,-336.5"/>
<text text-anchor="middle" x="979.65" y="-343.5" font-family="Helvetica,sans-Serif" font-size="10.00">HealthGPS.Core/api.h</text>
</a>
</g>
</g>
<!-- Node2&#45;&gt;Node3 -->
<g id="edge2" class="edge">
<title>Node2&#45;&gt;Node3</title>
<path fill="none" stroke="midnightblue" d="M1074.74,-392.44C1056.39,-383.68 1027.64,-369.94 1006.55,-359.86"/>
<polygon fill="midnightblue" stroke="midnightblue" points="1008,-356.67 997.47,-355.52 1004.98,-362.99 1008,-356.67"/>
</g>
<!-- Node47 -->
<g id="node47" class="node">
<title>Node47</title>
<g id="a_node47"><a xlink:title=" ">
<polygon fill="none" stroke="#bfbfbf" points="1058.65,-336.5 1058.65,-355.5 1126.65,-355.5 1126.65,-336.5 1058.65,-336.5"/>
<text text-anchor="middle" x="1092.65" y="-343.5" font-family="Helvetica,sans-Serif" font-size="10.00">filesystem</text>
</a>
</g>
</g>
<!-- Node2&#45;&gt;Node47 -->
<g id="edge85" class="edge">
<title>Node2&#45;&gt;Node47</title>
<path fill="none" stroke="midnightblue" d="M1092.65,-392.08C1092.65,-385.01 1092.65,-374.86 1092.65,-365.99"/>
<polygon fill="midnightblue" stroke="midnightblue" points="1096.15,-365.75 1092.65,-355.75 1089.15,-365.75 1096.15,-365.75"/>
</g>
<!-- Node48 -->
<g id="node48" class="node">
<title>Node48</title>
<g id="a_node48"><a xlink:title=" ">
<polygon fill="none" stroke="#bfbfbf" points="1144.65,-336.5 1144.65,-355.5 1254.65,-355.5 1254.65,-336.5 1144.65,-336.5"/>
<text text-anchor="middle" x="1199.65" y="-343.5" font-family="Helvetica,sans-Serif" font-size="10.00">nlohmann/json.hpp</text>
</a>
</g>
</g>
<!-- Node2&#45;&gt;Node48 -->
<g id="edge86" class="edge">
<title>Node2&#45;&gt;Node48</title>
<path fill="none" stroke="midnightblue" d="M1109.84,-392.32C1127,-383.66 1153.59,-370.24 1173.39,-360.25"/>
<polygon fill="midnightblue" stroke="midnightblue" points="1175.15,-363.28 1182.5,-355.65 1171.99,-357.04 1175.15,-363.28"/>
</g>
<!-- Node4 -->
<g id="node4" class="node">
<title>Node4</title>
<g id="a_node4"><a xlink:href="version_8h.html" target="_top" xlink:title=" ">
<polygon fill="none" stroke="black" points="51.65,-280.5 51.65,-299.5 113.65,-299.5 113.65,-280.5 51.65,-280.5"/>
<text text-anchor="middle" x="82.65" y="-287.5" font-family="Helvetica,sans-Serif" font-size="10.00">version.h</text>
</a>
</g>
</g>
<!-- Node3&#45;&gt;Node4 -->
<g id="edge3" class="edge">
<title>Node3&#45;&gt;Node4</title>
<path fill="none" stroke="midnightblue" d="M919.05,-341.35C748.57,-331.09 267.9,-302.15 123.91,-293.48"/>
<polygon fill="midnightblue" stroke="midnightblue" points="123.93,-289.98 113.74,-292.87 123.51,-296.97 123.93,-289.98"/>
</g>
<!-- Node6 -->
<g id="node6" class="node">
<title>Node6</title>
<g id="a_node6"><a xlink:href="datastore_8h.html" target="_top" xlink:title=" ">
<polygon fill="none" stroke="black" points="687.65,-280.5 687.65,-299.5 759.65,-299.5 759.65,-280.5 687.65,-280.5"/>
<text text-anchor="middle" x="723.65" y="-287.5" font-family="Helvetica,sans-Serif" font-size="10.00">datastore.h</text>
</a>
</g>
</g>
<!-- Node3&#45;&gt;Node6 -->
<g id="edge5" class="edge">
<title>Node3&#45;&gt;Node6</title>
<path fill="none" stroke="midnightblue" d="M939.08,-336.44C893.01,-326.73 818,-310.9 769.75,-300.73"/>
<polygon fill="midnightblue" stroke="midnightblue" points="770.39,-297.28 759.88,-298.64 768.94,-304.13 770.39,-297.28"/>
</g>
<!-- Node9 -->
<g id="node9" class="node">
<title>Node9</title>
<g id="a_node9"><a xlink:href="interval_8h.html" target="_top" xlink:title=" ">
<polygon fill="none" stroke="black" points="980.15,-224.5 980.15,-243.5 1043.15,-243.5 1043.15,-224.5 980.15,-224.5"/>
<text text-anchor="middle" x="1011.65" y="-231.5" font-family="Helvetica,sans-Serif" font-size="10.00">interval.h</text>
</a>
</g>
</g>
<!-- Node3&#45;&gt;Node9 -->
<g id="edge69" class="edge">
<title>Node3&#45;&gt;Node9</title>
<path fill="none" stroke="midnightblue" d="M982.16,-336.37C987.34,-318.54 999.34,-277.3 1006.33,-253.27"/>
<polygon fill="midnightblue" stroke="midnightblue" points="1009.71,-254.17 1009.15,-243.59 1002.99,-252.22 1009.71,-254.17"/>
</g>
<!-- Node16 -->
<g id="node16" class="node">
<title>Node16</title>
<g id="a_node16"><a xlink:href="HealthGPS_8Core_2poco_8h.html" target="_top" xlink:title=" ">
<polygon fill="none" stroke="black" points="270.15,-224.5 270.15,-243.5 319.15,-243.5 319.15,-224.5 270.15,-224.5"/>
<text text-anchor="middle" x="294.65" y="-231.5" font-family="Helvetica,sans-Serif" font-size="10.00">poco.h</text>
</a>
</g>
</g>
<!-- Node3&#45;&gt;Node16 -->
<g id="edge84" class="edge">
<title>Node3&#45;&gt;Node16</title>
<path fill="none" stroke="midnightblue" d="M919.02,-343.9C825.78,-341.21 642.02,-331.95 489.65,-300 429.53,-287.4 362.1,-262.36 324.37,-247.3"/>
<polygon fill="midnightblue" stroke="midnightblue" points="325.58,-244.02 314.99,-243.52 322.96,-250.51 325.58,-244.02"/>
</g>
<!-- Node22 -->
<g id="node22" class="node">
<title>Node22</title>
<g id="a_node22"><a xlink:href="identifier_8h.html" target="_top" xlink:title=" ">
<polygon fill="none" stroke="black" points="454.65,-112.5 454.65,-131.5 522.65,-131.5 522.65,-112.5 454.65,-112.5"/>
<text text-anchor="middle" x="488.65" y="-119.5" font-family="Helvetica,sans-Serif" font-size="10.00">identifier.h</text>
</a>
</g>
</g>
<!-- Node3&#45;&gt;Node22 -->
<g id="edge83" class="edge">
<title>Node3&#45;&gt;Node22</title>
<path fill="none" stroke="midnightblue" d="M918.94,-342.58C850.36,-338.56 736.02,-327.93 641.65,-300 585.98,-283.53 561.25,-288.23 523.65,-244 498.59,-214.53 491.45,-168.01 489.43,-142.07"/>
<polygon fill="midnightblue" stroke="midnightblue" points="492.9,-141.52 488.81,-131.74 485.91,-141.93 492.9,-141.52"/>
</g>
<!-- Node27 -->
<g id="node27" class="node">
<title>Node27</title>
<g id="a_node27"><a xlink:href="visitor_8h.html" target="_top" xlink:title=" ">
<polygon fill="none" stroke="black" points="1815.65,-112.5 1815.65,-131.5 1871.65,-131.5 1871.65,-112.5 1815.65,-112.5"/>
<text text-anchor="middle" x="1843.65" y="-119.5" font-family="Helvetica,sans-Serif" font-size="10.00">visitor.h</text>
</a>
</g>
</g>
<!-- Node3&#45;&gt;Node27 -->
<g id="edge39" class="edge">
<title>Node3&#45;&gt;Node27</title>
<path fill="none" stroke="midnightblue" d="M1040.35,-337.17C1043.49,-336.77 1046.61,-336.38 1049.65,-336 1182.47,-319.47 1216.31,-320.1 1348.65,-300 1621.16,-258.62 1782.21,-399.78 1958.65,-188 1983.72,-157.9 1924.14,-139.03 1881.71,-129.81"/>
<polygon fill="midnightblue" stroke="midnightblue" points="1882.39,-126.37 1871.88,-127.77 1880.97,-133.23 1882.39,-126.37"/>
</g>
<!-- Node28 -->
<g id="node28" class="node">
<title>Node28</title>
<g id="a_node28"><a xlink:href="datatable_8h.html" target="_top" xlink:title=" ">
<polygon fill="none" stroke="black" points="889.65,-224.5 889.65,-243.5 961.65,-243.5 961.65,-224.5 889.65,-224.5"/>
<text text-anchor="middle" x="925.65" y="-231.5" font-family="Helvetica,sans-Serif" font-size="10.00">datatable.h</text>
</a>
</g>
</g>
<!-- Node3&#45;&gt;Node28 -->
<g id="edge41" class="edge">
<title>Node3&#45;&gt;Node28</title>
<path fill="none" stroke="midnightblue" d="M975.41,-336.37C966.58,-318.38 946.04,-276.55 934.3,-252.63"/>
<polygon fill="midnightblue" stroke="midnightblue" points="937.41,-251.03 929.86,-243.59 931.13,-254.11 937.41,-251.03"/>
</g>
<!-- Node36 -->
<g id="node36" class="node">
<title>Node36</title>
<g id="a_node36"><a xlink:href="column__numeric_8h.html" target="_top" xlink:title=" ">
<polygon fill="none" stroke="black" points="1056.15,-280.5 1056.15,-299.5 1163.15,-299.5 1163.15,-280.5 1056.15,-280.5"/>
<text text-anchor="middle" x="1109.65" y="-287.5" font-family="Helvetica,sans-Serif" font-size="10.00">column_numeric.h</text>
</a>
</g>
</g>
<!-- Node3&#45;&gt;Node36 -->
<g id="edge54" class="edge">
<title>Node3&#45;&gt;Node36</title>
<path fill="none" stroke="midnightblue" d="M1000.24,-336.44C1021.64,-327.56 1055.33,-313.56 1079.67,-303.45"/>
<polygon fill="midnightblue" stroke="midnightblue" points="1081.25,-306.58 1089.14,-299.52 1078.57,-300.12 1081.25,-306.58"/>
</g>
<!-- Node38 -->
<g id="node38" class="node">
<title>Node38</title>
<g id="a_node38"><a xlink:href="column__iterator_8h.html" target="_top" xlink:title=" ">
<polygon fill="none" stroke="black" points="1773.65,-168.5 1773.65,-187.5 1875.65,-187.5 1875.65,-168.5 1773.65,-168.5"/>
<text text-anchor="middle" x="1824.65" y="-175.5" font-family="Helvetica,sans-Serif" font-size="10.00">column_iterator.h</text>
</a>
</g>
</g>
<!-- Node3&#45;&gt;Node38 -->
<g id="edge68" class="edge">
<title>Node3&#45;&gt;Node38</title>
<path fill="none" stroke="midnightblue" d="M1040.53,-336.59C1148.24,-321.27 1379.21,-286.45 1571.65,-244 1647.26,-227.32 1734.55,-203.98 1784.31,-190.28"/>
<polygon fill="midnightblue" stroke="midnightblue" points="1785.33,-193.62 1794.04,-187.59 1783.47,-186.88 1785.33,-193.62"/>
</g>
<!-- Node40 -->
<g id="node40" class="node">
<title>Node40</title>
<g id="a_node40"><a xlink:href="column__builder_8h.html" target="_top" xlink:title=" ">
<polygon fill="none" stroke="black" points="1212.65,-224.5 1212.65,-243.5 1312.65,-243.5 1312.65,-224.5 1212.65,-224.5"/>
<text text-anchor="middle" x="1262.65" y="-231.5" font-family="Helvetica,sans-Serif" font-size="10.00">column_builder.h</text>
</a>
</g>
</g>
<!-- Node3&#45;&gt;Node40 -->
<g id="edge62" class="edge">
<title>Node3&#45;&gt;Node40</title>
<path fill="none" stroke="midnightblue" d="M1040.34,-337.17C1079.39,-330.62 1130.53,-319.18 1172.65,-300 1200.68,-287.23 1228.8,-265.07 1245.96,-250.22"/>
<polygon fill="midnightblue" stroke="midnightblue" points="1248.28,-252.84 1253.46,-243.59 1243.65,-247.59 1248.28,-252.84"/>
</g>
<!-- Node43 -->
<g id="node43" class="node">
<title>Node43</title>
<g id="a_node43"><a xlink:href="array2d_8h.html" target="_top" xlink:title=" ">
<polygon fill="none" stroke="black" points="1499.15,-224.5 1499.15,-243.5 1562.15,-243.5 1562.15,-224.5 1499.15,-224.5"/>
<text text-anchor="middle" x="1530.65" y="-231.5" font-family="Helvetica,sans-Serif" font-size="10.00">array2d.h</text>
</a>
</g>
</g>
<!-- Node3&#45;&gt;Node43 -->
<g id="edge70" class="edge">
<title>Node3&#45;&gt;Node43</title>
<path fill="none" stroke="midnightblue" d="M1022.42,-336.46C1125.58,-315.87 1387.04,-263.67 1489.02,-243.31"/>
<polygon fill="midnightblue" stroke="midnightblue" points="1489.83,-246.72 1498.95,-241.33 1488.45,-239.85 1489.83,-246.72"/>
</g>
<!-- Node46 -->
<g id="node46" class="node">
<title>Node46</title>
<g id="a_node46"><a xlink:href="univariate__summary_8h.html" target="_top" xlink:title=" ">
<polygon fill="none" stroke="black" points="532.15,-224.5 532.15,-243.5 657.15,-243.5 657.15,-224.5 532.15,-224.5"/>
<text text-anchor="middle" x="594.65" y="-231.5" font-family="Helvetica,sans-Serif" font-size="10.00">univariate_summary.h</text>
</a>
</g>
</g>
<!-- Node3&#45;&gt;Node46 -->
<g id="edge78" class="edge">
<title>Node3&#45;&gt;Node46</title>
<path fill="none" stroke="midnightblue" d="M918.96,-344.83C856.38,-342.64 757.13,-333.5 678.65,-300 651.78,-288.53 626.01,-266.37 610.25,-251.14"/>
<polygon fill="midnightblue" stroke="midnightblue" points="612.53,-248.47 602.98,-243.9 607.6,-253.44 612.53,-248.47"/>
</g>
<!-- Node5 -->
<g id="node5" class="node">
<title>Node5</title>
<g id="a_node5"><a xlink:title=" ">
<polygon fill="none" stroke="#bfbfbf" points="310.65,-56.5 310.65,-75.5 354.65,-75.5 354.65,-56.5 310.65,-56.5"/>
<text text-anchor="middle" x="332.65" y="-63.5" font-family="Helvetica,sans-Serif" font-size="10.00">string</text>
</a>
</g>
</g>
<!-- Node4&#45;&gt;Node5 -->
<g id="edge4" class="edge">
<title>Node4&#45;&gt;Node5</title>
<path fill="none" stroke="midnightblue" d="M73.64,-280.18C46.27,-252.32 -31.33,-164.94 14.65,-112 51.41,-69.67 226.66,-66.08 300.13,-66.48"/>
<polygon fill="midnightblue" stroke="midnightblue" points="300.17,-69.98 310.2,-66.57 300.23,-62.98 300.17,-69.98"/>
</g>
<!-- Node7 -->
<g id="node7" class="node">
<title>Node7</title>
<g id="a_node7"><a xlink:title=" ">
<polygon fill="none" stroke="#bfbfbf" points="747.15,-112.5 747.15,-131.5 794.15,-131.5 794.15,-112.5 747.15,-112.5"/>
<text text-anchor="middle" x="770.65" y="-119.5" font-family="Helvetica,sans-Serif" font-size="10.00">vector</text>
</a>
</g>
</g>
<!-- Node6&#45;&gt;Node7 -->
<g id="edge6" class="edge">
<title>Node6&#45;&gt;Node7</title>
<path fill="none" stroke="midnightblue" d="M715.46,-280.26C696.59,-259.89 651.07,-209.34 643.65,-188 640.72,-179.61 638.52,-175.26 643.65,-168 649.27,-160.05 701.33,-143.39 737.03,-132.73"/>
<polygon fill="midnightblue" stroke="midnightblue" points="738.47,-135.95 747.06,-129.76 736.48,-129.24 738.47,-135.95"/>
</g>
<!-- Node8 -->
<g id="node8" class="node">
<title>Node8</title>
<g id="a_node8"><a xlink:title=" ">
<polygon fill="none" stroke="#bfbfbf" points="652.65,-168.5 652.65,-187.5 708.65,-187.5 708.65,-168.5 652.65,-168.5"/>
<text text-anchor="middle" x="680.65" y="-175.5" font-family="Helvetica,sans-Serif" font-size="10.00">optional</text>
</a>
</g>
</g>
<!-- Node6&#45;&gt;Node8 -->
<g id="edge7" class="edge">
<title>Node6&#45;&gt;Node8</title>
<path fill="none" stroke="midnightblue" d="M720.51,-280.12C716.05,-267.56 707.52,-243.91 699.65,-224 696.09,-215.02 691.94,-205.12 688.42,-196.9"/>
<polygon fill="midnightblue" stroke="midnightblue" points="691.58,-195.38 684.41,-187.58 685.15,-198.15 691.58,-195.38"/>
</g>
<!-- Node6&#45;&gt;Node9 -->
<g id="edge8" class="edge">
<title>Node6&#45;&gt;Node9</title>
<path fill="none" stroke="midnightblue" d="M759.72,-282.85C806.01,-274.86 889.05,-260.22 970.02,-244.07"/>
<polygon fill="midnightblue" stroke="midnightblue" points="970.77,-247.49 979.88,-242.09 969.39,-240.62 970.77,-247.49"/>
</g>
<!-- Node6&#45;&gt;Node16 -->
<g id="edge16" class="edge">
<title>Node6&#45;&gt;Node16</title>
<path fill="none" stroke="midnightblue" d="M687.44,-284.44C606.05,-274.2 409.51,-249.46 329.46,-239.38"/>
<polygon fill="midnightblue" stroke="midnightblue" points="329.76,-235.89 319.4,-238.12 328.88,-242.84 329.76,-235.89"/>
</g>
<!-- Node10 -->
<g id="node10" class="node">
<title>Node10</title>
<g id="a_node10"><a xlink:href="forward__type_8h.html" target="_top" xlink:title=" ">
<polygon fill="none" stroke="black" points="983.65,-56.5 983.65,-75.5 1073.65,-75.5 1073.65,-56.5 983.65,-56.5"/>
<text text-anchor="middle" x="1028.65" y="-63.5" font-family="Helvetica,sans-Serif" font-size="10.00">forward_type.h</text>
</a>
</g>
</g>
<!-- Node9&#45;&gt;Node10 -->
<g id="edge9" class="edge">
<title>Node9&#45;&gt;Node10</title>
<path fill="none" stroke="midnightblue" d="M1012.56,-224.08C1015.24,-197.95 1023.09,-121.21 1026.74,-85.58"/>
<polygon fill="midnightblue" stroke="midnightblue" points="1030.23,-85.87 1027.77,-75.57 1023.27,-85.16 1030.23,-85.87"/>
</g>
<!-- Node13 -->
<g id="node13" class="node">
<title>Node13</title>
<g id="a_node13"><a xlink:href="string__util_8h.html" target="_top" xlink:title=" ">
<polygon fill="none" stroke="black" points="540.65,-112.5 540.65,-131.5 614.65,-131.5 614.65,-112.5 540.65,-112.5"/>
<text text-anchor="middle" x="577.65" y="-119.5" font-family="Helvetica,sans-Serif" font-size="10.00">string_util.h</text>
</a>
</g>
</g>
<!-- Node9&#45;&gt;Node13 -->
<g id="edge12" class="edge">
<title>Node9&#45;&gt;Node13</title>
<path fill="none" stroke="midnightblue" d="M1004.49,-224.48C991.86,-210.08 964.03,-181.22 933.65,-168 879.22,-144.33 708.57,-130.96 624.88,-125.68"/>
<polygon fill="midnightblue" stroke="midnightblue" points="625.07,-122.18 614.88,-125.06 624.64,-129.17 625.07,-122.18"/>
</g>
<!-- Node15 -->
<g id="node15" class="node">
<title>Node15</title>
<g id="a_node15"><a xlink:title=" ">
<polygon fill="none" stroke="#bfbfbf" points="1371.15,-168.5 1371.15,-187.5 1450.15,-187.5 1450.15,-168.5 1371.15,-168.5"/>
<text text-anchor="middle" x="1410.65" y="-175.5" font-family="Helvetica,sans-Serif" font-size="10.00">fmt/format.h</text>
</a>
</g>
</g>
<!-- Node9&#45;&gt;Node15 -->
<g id="edge15" class="edge">
<title>Node9&#45;&gt;Node15</title>
<path fill="none" stroke="midnightblue" d="M1043.3,-227.7C1051.24,-226.43 1059.75,-225.12 1067.65,-224 1194.81,-206 1229.82,-207.8 1361.06,-188"/>
<polygon fill="midnightblue" stroke="midnightblue" points="1361.74,-191.44 1371.1,-186.47 1360.69,-184.52 1361.74,-191.44"/>
</g>
<!-- Node11 -->
<g id="node11" class="node">
<title>Node11</title>
<g id="a_node11"><a xlink:title=" ">
<polygon fill="none" stroke="#bfbfbf" points="955.15,-0.5 955.15,-19.5 1024.15,-19.5 1024.15,-0.5 955.15,-0.5"/>
<text text-anchor="middle" x="989.65" y="-7.5" font-family="Helvetica,sans-Serif" font-size="10.00">type_traits</text>
</a>
</g>
</g>
<!-- Node10&#45;&gt;Node11 -->
<g id="edge10" class="edge">
<title>Node10&#45;&gt;Node11</title>
<path fill="none" stroke="midnightblue" d="M1022.21,-56.08C1016.7,-48.46 1008.61,-37.26 1001.88,-27.94"/>
<polygon fill="midnightblue" stroke="midnightblue" points="1004.66,-25.81 995.97,-19.75 998.98,-29.91 1004.66,-25.81"/>
</g>
<!-- Node12 -->
<g id="node12" class="node">
<title>Node12</title>
<g id="a_node12"><a xlink:title=" ">
<polygon fill="none" stroke="#bfbfbf" points="1042.65,-0.5 1042.65,-19.5 1092.65,-19.5 1092.65,-0.5 1042.65,-0.5"/>
<text text-anchor="middle" x="1067.65" y="-7.5" font-family="Helvetica,sans-Serif" font-size="10.00">cstdint</text>
</a>
</g>
</g>
<!-- Node10&#45;&gt;Node12 -->
<g id="edge11" class="edge">
<title>Node10&#45;&gt;Node12</title>
<path fill="none" stroke="midnightblue" d="M1035.09,-56.08C1040.59,-48.46 1048.68,-37.26 1055.41,-27.94"/>
<polygon fill="midnightblue" stroke="midnightblue" points="1058.31,-29.91 1061.32,-19.75 1052.63,-25.81 1058.31,-29.91"/>
</g>
<!-- Node13&#45;&gt;Node5 -->
<g id="edge13" class="edge">
<title>Node13&#45;&gt;Node5</title>
<path fill="none" stroke="midnightblue" d="M540.43,-112.8C492.5,-102.23 409.97,-84.04 364.69,-74.06"/>
<polygon fill="midnightblue" stroke="midnightblue" points="365.34,-70.62 354.82,-71.89 363.83,-77.46 365.34,-70.62"/>
</g>
<!-- Node14 -->
<g id="node14" class="node">
<title>Node14</title>
<g id="a_node14"><a xlink:title=" ">
<polygon fill="none" stroke="#bfbfbf" points="493.15,-56.5 493.15,-75.5 558.15,-75.5 558.15,-56.5 493.15,-56.5"/>
<text text-anchor="middle" x="525.65" y="-63.5" font-family="Helvetica,sans-Serif" font-size="10.00">functional</text>
</a>
</g>
</g>
<!-- Node13&#45;&gt;Node14 -->
<g id="edge14" class="edge">
<title>Node13&#45;&gt;Node14</title>
<path fill="none" stroke="midnightblue" d="M569.06,-112.08C561.49,-104.22 550.27,-92.57 541.13,-83.08"/>
<polygon fill="midnightblue" stroke="midnightblue" points="543.53,-80.53 534.07,-75.75 538.49,-85.38 543.53,-80.53"/>
</g>
<!-- Node17 -->
<g id="node17" class="node">
<title>Node17</title>
<g id="a_node17"><a xlink:href="country_8h.html" target="_top" xlink:title=" ">
<polygon fill="none" stroke="black" points="24.15,-112.5 24.15,-131.5 85.15,-131.5 85.15,-112.5 24.15,-112.5"/>
<text text-anchor="middle" x="54.65" y="-119.5" font-family="Helvetica,sans-Serif" font-size="10.00">country.h</text>
</a>
</g>
</g>
<!-- Node16&#45;&gt;Node17 -->
<g id="edge17" class="edge">
<title>Node16&#45;&gt;Node17</title>
<path fill="none" stroke="midnightblue" d="M269.84,-231.43C217.23,-227.57 96.94,-215.86 68.65,-188 56.57,-176.11 53.74,-156.49 53.52,-141.91"/>
<polygon fill="midnightblue" stroke="midnightblue" points="57.03,-141.63 53.78,-131.54 50.03,-141.45 57.03,-141.63"/>
</g>
<!-- Node18 -->
<g id="node18" class="node">
<title>Node18</title>
<g id="a_node18"><a xlink:href="population__item_8h.html" target="_top" xlink:title=" ">
<polygon fill="none" stroke="black" points="173.15,-168.5 173.15,-187.5 278.15,-187.5 278.15,-168.5 173.15,-168.5"/>
<text text-anchor="middle" x="225.65" y="-175.5" font-family="Helvetica,sans-Serif" font-size="10.00">population_item.h</text>
</a>
</g>
</g>
<!-- Node16&#45;&gt;Node18 -->
<g id="edge19" class="edge">
<title>Node16&#45;&gt;Node18</title>
<path fill="none" stroke="midnightblue" d="M283.56,-224.32C273.16,-216.18 257.38,-203.84 244.92,-194.09"/>
<polygon fill="midnightblue" stroke="midnightblue" points="246.97,-191.24 236.93,-187.83 242.65,-196.75 246.97,-191.24"/>
</g>
<!-- Node20 -->
<g id="node20" class="node">
<title>Node20</title>
<g id="a_node20"><a xlink:href="HealthGPS_8Core_2disease_8h.html" target="_top" xlink:title=" ">
<polygon fill="none" stroke="black" points="419.15,-168.5 419.15,-187.5 482.15,-187.5 482.15,-168.5 419.15,-168.5"/>
<text text-anchor="middle" x="450.65" y="-175.5" font-family="Helvetica,sans-Serif" font-size="10.00">disease.h</text>
</a>
</g>
</g>
<!-- Node16&#45;&gt;Node20 -->
<g id="edge21" class="edge">
<title>Node16&#45;&gt;Node20</title>
<path fill="none" stroke="midnightblue" d="M319.36,-224.44C345.49,-215.4 386.9,-201.06 416.22,-190.92"/>
<polygon fill="midnightblue" stroke="midnightblue" points="417.74,-194.1 426.04,-187.52 415.45,-187.48 417.74,-194.1"/>
</g>
<!-- Node24 -->
<g id="node24" class="node">
<title>Node24</title>
<g id="a_node24"><a xlink:href="analysis_8h.html" target="_top" xlink:title=" ">
<polygon fill="none" stroke="black" points="334.65,-168.5 334.65,-187.5 400.65,-187.5 400.65,-168.5 334.65,-168.5"/>
<text text-anchor="middle" x="367.65" y="-175.5" font-family="Helvetica,sans-Serif" font-size="10.00">analysis.h</text>
</a>
</g>
</g>
<!-- Node16&#45;&gt;Node24 -->
<g id="edge30" class="edge">
<title>Node16&#45;&gt;Node24</title>
<path fill="none" stroke="midnightblue" d="M306.37,-224.32C317.48,-216.11 334.39,-203.6 347.63,-193.81"/>
<polygon fill="midnightblue" stroke="midnightblue" points="349.75,-196.59 355.7,-187.83 345.58,-190.97 349.75,-196.59"/>
</g>
<!-- Node25 -->
<g id="node25" class="node">
<title>Node25</title>
<g id="a_node25"><a xlink:href="indicator_8h.html" target="_top" xlink:title=" ">
<polygon fill="none" stroke="black" points="110.65,-112.5 110.65,-131.5 178.65,-131.5 178.65,-112.5 110.65,-112.5"/>
<text text-anchor="middle" x="144.65" y="-119.5" font-family="Helvetica,sans-Serif" font-size="10.00">indicator.h</text>
</a>
</g>
</g>
<!-- Node16&#45;&gt;Node25 -->
<g id="edge35" class="edge">
<title>Node16&#45;&gt;Node25</title>
<path fill="none" stroke="midnightblue" d="M269.87,-231.68C218,-228.36 100.81,-217.66 76.65,-188 60.55,-168.24 89.35,-148.42 114.29,-135.95"/>
<polygon fill="midnightblue" stroke="midnightblue" points="116.02,-139 123.56,-131.55 113.02,-132.68 116.02,-139"/>
</g>
<!-- Node26 -->
<g id="node26" class="node">
<title>Node26</title>
<g id="a_node26"><a xlink:href="mortality_8h.html" target="_top" xlink:title=" ">
<polygon fill="none" stroke="black" points="86.15,-168.5 86.15,-187.5 155.15,-187.5 155.15,-168.5 86.15,-168.5"/>
<text text-anchor="middle" x="120.65" y="-175.5" font-family="Helvetica,sans-Serif" font-size="10.00">mortality.h</text>
</a>
</g>
</g>
<!-- Node16&#45;&gt;Node26 -->
<g id="edge37" class="edge">
<title>Node16&#45;&gt;Node26</title>
<path fill="none" stroke="midnightblue" d="M270.08,-225.38C240.84,-216.3 191.7,-201.05 157.8,-190.53"/>
<polygon fill="midnightblue" stroke="midnightblue" points="158.83,-187.19 148.24,-187.56 156.75,-193.87 158.83,-187.19"/>
</g>
<!-- Node17&#45;&gt;Node5 -->
<g id="edge18" class="edge">
<title>Node17&#45;&gt;Node5</title>
<path fill="none" stroke="midnightblue" d="M85.19,-115.07C138.08,-104.79 246.24,-83.78 300.34,-73.28"/>
<polygon fill="midnightblue" stroke="midnightblue" points="301.25,-76.66 310.4,-71.32 299.92,-69.79 301.25,-76.66"/>
</g>
<!-- Node19 -->
<g id="node19" class="node">
<title>Node19</title>
<g id="a_node19"><a xlink:title=" ">
<polygon fill="none" stroke="#bfbfbf" points="201.15,-112.5 201.15,-131.5 242.15,-131.5 242.15,-112.5 201.15,-112.5"/>
<text text-anchor="middle" x="221.65" y="-119.5" font-family="Helvetica,sans-Serif" font-size="10.00">tuple</text>
</a>
</g>
</g>
<!-- Node18&#45;&gt;Node19 -->
<g id="edge20" class="edge">
<title>Node18&#45;&gt;Node19</title>
<path fill="none" stroke="midnightblue" d="M224.98,-168.08C224.46,-161.01 223.71,-150.86 223.05,-141.99"/>
<polygon fill="midnightblue" stroke="midnightblue" points="226.52,-141.47 222.29,-131.75 219.54,-141.98 226.52,-141.47"/>
</g>
<!-- Node20&#45;&gt;Node5 -->
<g id="edge22" class="edge">
<title>Node20&#45;&gt;Node5</title>
<path fill="none" stroke="midnightblue" d="M446.4,-168.11C439.66,-154.7 425.44,-129.03 407.65,-112 394.06,-99 376.06,-88.04 361.1,-80.2"/>
<polygon fill="midnightblue" stroke="midnightblue" points="362.29,-76.88 351.79,-75.5 359.14,-83.13 362.29,-76.88"/>
</g>
<!-- Node20&#45;&gt;Node7 -->
<g id="edge23" class="edge">
<title>Node20&#45;&gt;Node7</title>
<path fill="none" stroke="midnightblue" d="M482.5,-172.7C534.89,-165.46 642.43,-149.86 732.65,-132 734.1,-131.71 735.58,-131.41 737.08,-131.09"/>
<polygon fill="midnightblue" stroke="midnightblue" points="737.99,-134.48 746.99,-128.89 736.47,-127.64 737.99,-134.48"/>
</g>
<!-- Node20&#45;&gt;Node10 -->
<g id="edge25" class="edge">
<title>Node20&#45;&gt;Node10</title>
<path fill="none" stroke="midnightblue" d="M482.44,-173.65C529.59,-168.12 620.47,-155.31 694.65,-132 715.14,-125.56 718.06,-118.15 738.65,-112 818.32,-88.2 914.27,-76.46 973.36,-71.07"/>
<polygon fill="midnightblue" stroke="midnightblue" points="973.94,-74.53 983.59,-70.17 973.32,-67.56 973.94,-74.53"/>
</g>
<!-- Node21 -->
<g id="node21" class="node">
<title>Node21</title>
<g id="a_node21"><a xlink:title=" ">
<polygon fill="none" stroke="#bfbfbf" points="360.65,-112.5 360.65,-131.5 398.65,-131.5 398.65,-112.5 360.65,-112.5"/>
<text text-anchor="middle" x="379.65" y="-119.5" font-family="Helvetica,sans-Serif" font-size="10.00">map</text>
</a>
</g>
</g>
<!-- Node20&#45;&gt;Node21 -->
<g id="edge24" class="edge">
<title>Node20&#45;&gt;Node21</title>
<path fill="none" stroke="midnightblue" d="M439.24,-168.32C428.54,-160.18 412.3,-147.84 399.48,-138.09"/>
<polygon fill="midnightblue" stroke="midnightblue" points="401.34,-135.1 391.26,-131.83 397.1,-140.67 401.34,-135.1"/>
</g>
<!-- Node20&#45;&gt;Node22 -->
<g id="edge26" class="edge">
<title>Node20&#45;&gt;Node22</title>
<path fill="none" stroke="midnightblue" d="M456.92,-168.08C462.29,-160.46 470.16,-149.26 476.72,-139.94"/>
<polygon fill="midnightblue" stroke="midnightblue" points="479.59,-141.94 482.49,-131.75 473.87,-137.91 479.59,-141.94"/>
</g>
<!-- Node22&#45;&gt;Node5 -->
<g id="edge27" class="edge">
<title>Node22&#45;&gt;Node5</title>
<path fill="none" stroke="midnightblue" d="M463.93,-112.44C437.03,-103.13 393.94,-88.22 364.51,-78.03"/>
<polygon fill="midnightblue" stroke="midnightblue" points="365.32,-74.61 354.73,-74.64 363.03,-81.22 365.32,-74.61"/>
</g>
<!-- Node22&#45;&gt;Node14 -->
<g id="edge29" class="edge">
<title>Node22&#45;&gt;Node14</title>
<path fill="none" stroke="midnightblue" d="M494.76,-112.08C499.93,-104.53 507.49,-93.49 513.84,-84.23"/>
<polygon fill="midnightblue" stroke="midnightblue" points="516.88,-85.98 519.65,-75.75 511.11,-82.02 516.88,-85.98"/>
</g>
<!-- Node23 -->
<g id="node23" class="node">
<title>Node23</title>
<g id="a_node23"><a xlink:title=" ">
<polygon fill="none" stroke="#bfbfbf" points="614.15,-56.5 614.15,-75.5 671.15,-75.5 671.15,-56.5 614.15,-56.5"/>
<text text-anchor="middle" x="642.65" y="-63.5" font-family="Helvetica,sans-Serif" font-size="10.00">ostream</text>
</a>
</g>
</g>
<!-- Node22&#45;&gt;Node23 -->
<g id="edge28" class="edge">
<title>Node22&#45;&gt;Node23</title>
<path fill="none" stroke="midnightblue" d="M513.05,-112.44C538.84,-103.4 579.72,-89.06 608.66,-78.92"/>
<polygon fill="midnightblue" stroke="midnightblue" points="610.08,-82.13 618.36,-75.52 607.76,-75.52 610.08,-82.13"/>
</g>
<!-- Node24&#45;&gt;Node5 -->
<g id="edge33" class="edge">
<title>Node24&#45;&gt;Node5</title>
<path fill="none" stroke="midnightblue" d="M364.43,-168.42C361.09,-159.41 355.78,-144.78 351.65,-132 346.61,-116.44 341.44,-98.61 337.77,-85.56"/>
<polygon fill="midnightblue" stroke="midnightblue" points="341.12,-84.57 335.07,-75.88 334.38,-86.45 341.12,-84.57"/>
</g>
<!-- Node24&#45;&gt;Node7 -->
<g id="edge32" class="edge">
<title>Node24&#45;&gt;Node7</title>
<path fill="none" stroke="midnightblue" d="M401.07,-169.56C403.96,-169 406.85,-168.47 409.65,-168 441.56,-162.6 653.82,-137 737.15,-127.01"/>
<polygon fill="midnightblue" stroke="midnightblue" points="737.6,-130.48 747.11,-125.81 736.77,-123.53 737.6,-130.48"/>
</g>
<!-- Node24&#45;&gt;Node10 -->
<g id="edge34" class="edge">
<title>Node24&#45;&gt;Node10</title>
<path fill="none" stroke="midnightblue" d="M401.09,-169.69C403.98,-169.1 406.86,-168.53 409.65,-168 504.38,-149.89 529.54,-153.11 623.65,-132 655.63,-124.83 662.54,-118.65 694.65,-112 791.72,-91.89 906.61,-78.69 973.2,-72.06"/>
<polygon fill="midnightblue" stroke="midnightblue" points="973.86,-75.51 983.47,-71.05 973.17,-68.54 973.86,-75.51"/>
</g>
<!-- Node24&#45;&gt;Node21 -->
<g id="edge31" class="edge">
<title>Node24&#45;&gt;Node21</title>
<path fill="none" stroke="midnightblue" d="M369.63,-168.08C371.22,-160.93 373.5,-150.64 375.49,-141.69"/>
<polygon fill="midnightblue" stroke="midnightblue" points="378.95,-142.27 377.7,-131.75 372.11,-140.75 378.95,-142.27"/>
</g>
<!-- Node25&#45;&gt;Node5 -->
<g id="edge36" class="edge">
<title>Node25&#45;&gt;Node5</title>
<path fill="none" stroke="midnightblue" d="M174.43,-112.44C208.92,-102.54 265.51,-86.28 300.83,-76.14"/>
<polygon fill="midnightblue" stroke="midnightblue" points="301.99,-79.45 310.63,-73.32 300.05,-72.72 301.99,-79.45"/>
</g>
<!-- Node26&#45;&gt;Node19 -->
<g id="edge38" class="edge">
<title>Node26&#45;&gt;Node19</title>
<path fill="none" stroke="midnightblue" d="M136.87,-168.32C153,-159.7 177.95,-146.36 196.61,-136.39"/>
<polygon fill="midnightblue" stroke="midnightblue" points="198.29,-139.46 205.46,-131.65 194.99,-133.28 198.29,-139.46"/>
</g>
<!-- Node27&#45;&gt;Node10 -->
<g id="edge40" class="edge">
<title>Node27&#45;&gt;Node10</title>
<path fill="none" stroke="midnightblue" d="M1815.47,-113.59C1812.5,-112.98 1809.52,-112.43 1806.65,-112 1537.88,-71.88 1211.94,-67.01 1083.98,-66.78"/>
<polygon fill="midnightblue" stroke="midnightblue" points="1083.67,-63.28 1073.67,-66.77 1083.66,-70.28 1083.67,-63.28"/>
</g>
<!-- Node28&#45;&gt;Node7 -->
<g id="edge44" class="edge">
<title>Node28&#45;&gt;Node7</title>
<path fill="none" stroke="midnightblue" d="M889.3,-228.5C844.62,-222.13 772.7,-208.88 756.65,-188 746.13,-174.32 752.67,-154.45 759.93,-140.28"/>
<polygon fill="midnightblue" stroke="midnightblue" points="763,-141.96 764.87,-131.54 756.91,-138.52 763,-141.96"/>
</g>
<!-- Node28&#45;&gt;Node8 -->
<g id="edge47" class="edge">
<title>Node28&#45;&gt;Node8</title>
<path fill="none" stroke="midnightblue" d="M889.49,-225.03C843.83,-214.97 765.6,-197.72 718.94,-187.44"/>
<polygon fill="midnightblue" stroke="midnightblue" points="719.44,-183.97 708.93,-185.23 717.94,-190.8 719.44,-183.97"/>
</g>
<!-- Node28&#45;&gt;Node23 -->
<g id="edge48" class="edge">
<title>Node28&#45;&gt;Node23</title>
<path fill="none" stroke="midnightblue" d="M930.12,-224.18C936.18,-210.85 945.02,-185.29 933.65,-168 878.37,-84 747.3,-68.91 681.6,-66.81"/>
<polygon fill="midnightblue" stroke="midnightblue" points="681.34,-63.31 671.26,-66.58 681.18,-70.31 681.34,-63.31"/>
</g>
<!-- Node29 -->
<g id="node29" class="node">
<title>Node29</title>
<g id="a_node29"><a xlink:title=" ">
<polygon fill="none" stroke="#bfbfbf" points="1294.65,-168.5 1294.65,-187.5 1352.65,-187.5 1352.65,-168.5 1294.65,-168.5"/>
<text text-anchor="middle" x="1323.65" y="-175.5" font-family="Helvetica,sans-Serif" font-size="10.00">memory</text>
</a>
</g>
</g>
<!-- Node28&#45;&gt;Node29 -->
<g id="edge42" class="edge">
<title>Node28&#45;&gt;Node29</title>
<path fill="none" stroke="midnightblue" d="M961.76,-225.65C965.09,-225.06 968.43,-224.5 971.65,-224 1107.21,-203 1145.5,-211.79 1284.1,-188.09"/>
<polygon fill="midnightblue" stroke="midnightblue" points="1285,-191.48 1294.26,-186.32 1283.81,-184.59 1285,-191.48"/>
</g>
<!-- Node30 -->
<g id="node30" class="node">
<title>Node30</title>
<g id="a_node30"><a xlink:title=" ">
<polygon fill="none" stroke="#bfbfbf" points="876.65,-168.5 876.65,-187.5 924.65,-187.5 924.65,-168.5 876.65,-168.5"/>
<text text-anchor="middle" x="900.65" y="-175.5" font-family="Helvetica,sans-Serif" font-size="10.00">mutex</text>
</a>
</g>
</g>
<!-- Node28&#45;&gt;Node30 -->
<g id="edge43" class="edge">
<title>Node28&#45;&gt;Node30</title>
<path fill="none" stroke="midnightblue" d="M921.52,-224.08C918.13,-216.77 913.23,-206.18 909.03,-197.1"/>
<polygon fill="midnightblue" stroke="midnightblue" points="912.07,-195.36 904.7,-187.75 905.72,-198.3 912.07,-195.36"/>
</g>
<!-- Node31 -->
<g id="node31" class="node">
<title>Node31</title>
<g id="a_node31"><a xlink:title=" ">
<polygon fill="none" stroke="#bfbfbf" points="765.15,-168.5 765.15,-187.5 858.15,-187.5 858.15,-168.5 765.15,-168.5"/>
<text text-anchor="middle" x="811.65" y="-175.5" font-family="Helvetica,sans-Serif" font-size="10.00">unordered_map</text>
</a>
</g>
</g>
<!-- Node28&#45;&gt;Node31 -->
<g id="edge45" class="edge">
<title>Node28&#45;&gt;Node31</title>
<path fill="none" stroke="midnightblue" d="M907.58,-224.44C889.07,-215.68 860.06,-201.94 838.79,-191.86"/>
<polygon fill="midnightblue" stroke="midnightblue" points="840.16,-188.63 829.62,-187.52 837.16,-194.96 840.16,-188.63"/>
</g>
<!-- Node32 -->
<g id="node32" class="node">
<title>Node32</title>
<g id="a_node32"><a xlink:title=" ">
<polygon fill="none" stroke="#bfbfbf" points="1056.65,-168.5 1056.65,-187.5 1120.65,-187.5 1120.65,-168.5 1056.65,-168.5"/>
<text text-anchor="middle" x="1088.65" y="-175.5" font-family="Helvetica,sans-Serif" font-size="10.00">algorithm</text>
</a>
</g>
</g>
<!-- Node28&#45;&gt;Node32 -->
<g id="edge46" class="edge">
<title>Node28&#45;&gt;Node32</title>
<path fill="none" stroke="midnightblue" d="M951.47,-224.44C978.89,-215.36 1022.42,-200.94 1053.08,-190.78"/>
<polygon fill="midnightblue" stroke="midnightblue" points="1054.55,-193.98 1062.94,-187.52 1052.34,-187.34 1054.55,-193.98"/>
</g>
<!-- Node33 -->
<g id="node33" class="node">
<title>Node33</title>
<g id="a_node33"><a xlink:href="column_8h.html" target="_top" xlink:title=" ">
<polygon fill="none" stroke="black" points="1214.65,-168.5 1214.65,-187.5 1276.65,-187.5 1276.65,-168.5 1214.65,-168.5"/>
<text text-anchor="middle" x="1245.65" y="-175.5" font-family="Helvetica,sans-Serif" font-size="10.00">column.h</text>
</a>
</g>
</g>
<!-- Node28&#45;&gt;Node33 -->
<g id="edge49" class="edge">
<title>Node28&#45;&gt;Node33</title>
<path fill="none" stroke="midnightblue" d="M961.78,-225.82C965.12,-225.19 968.44,-224.58 971.65,-224 1053.93,-209.2 1150.49,-193.8 1204.21,-185.4"/>
<polygon fill="midnightblue" stroke="midnightblue" points="1205.02,-188.82 1214.36,-183.82 1203.94,-181.9 1205.02,-188.82"/>
</g>
<!-- Node33&#45;&gt;Node5 -->
<g id="edge52" class="edge">
<title>Node33&#45;&gt;Node5</title>
<path fill="none" stroke="midnightblue" d="M1214.64,-171.89C1142.63,-160.13 958.41,-130.76 803.65,-112 639.26,-92.07 441.71,-75.63 365.16,-69.53"/>
<polygon fill="midnightblue" stroke="midnightblue" points="365,-66.01 354.76,-68.71 364.45,-72.99 365,-66.01"/>
</g>
<!-- Node33&#45;&gt;Node27 -->
<g id="edge53" class="edge">
<title>Node33&#45;&gt;Node27</title>
<path fill="none" stroke="midnightblue" d="M1277,-169.47C1279.91,-168.91 1282.83,-168.41 1285.65,-168 1512.06,-134.9 1575.49,-166.63 1805.45,-131.91"/>
<polygon fill="midnightblue" stroke="midnightblue" points="1806.11,-135.35 1815.46,-130.38 1805.05,-128.44 1806.11,-135.35"/>
</g>
<!-- Node34 -->
<g id="node34" class="node">
<title>Node34</title>
<g id="a_node34"><a xlink:title=" ">
<polygon fill="none" stroke="#bfbfbf" points="1196.15,-112.5 1196.15,-131.5 1231.15,-131.5 1231.15,-112.5 1196.15,-112.5"/>
<text text-anchor="middle" x="1213.65" y="-119.5" font-family="Helvetica,sans-Serif" font-size="10.00">any</text>
</a>
</g>
</g>
<!-- Node33&#45;&gt;Node34 -->
<g id="edge50" class="edge">
<title>Node33&#45;&gt;Node34</title>
<path fill="none" stroke="midnightblue" d="M1240.36,-168.08C1235.93,-160.61 1229.48,-149.72 1224.03,-140.52"/>
<polygon fill="midnightblue" stroke="midnightblue" points="1226.94,-138.57 1218.83,-131.75 1220.92,-142.14 1226.94,-138.57"/>
</g>
<!-- Node35 -->
<g id="node35" class="node">
<title>Node35</title>
<g id="a_node35"><a xlink:title=" ">
<polygon fill="none" stroke="#bfbfbf" points="1249.15,-112.5 1249.15,-131.5 1306.15,-131.5 1306.15,-112.5 1249.15,-112.5"/>
<text text-anchor="middle" x="1277.65" y="-119.5" font-family="Helvetica,sans-Serif" font-size="10.00">typeinfo</text>
</a>
</g>
</g>
<!-- Node33&#45;&gt;Node35 -->
<g id="edge51" class="edge">
<title>Node33&#45;&gt;Node35</title>
<path fill="none" stroke="midnightblue" d="M1250.93,-168.08C1255.36,-160.61 1261.81,-149.72 1267.26,-140.52"/>
<polygon fill="midnightblue" stroke="midnightblue" points="1270.37,-142.14 1272.46,-131.75 1264.35,-138.57 1270.37,-142.14"/>
</g>
<!-- Node37 -->
<g id="node37" class="node">
<title>Node37</title>
<g id="a_node37"><a xlink:href="column__primitive_8h.html" target="_top" xlink:title=" ">
<polygon fill="none" stroke="black" points="1076.15,-224.5 1076.15,-243.5 1187.15,-243.5 1187.15,-224.5 1076.15,-224.5"/>
<text text-anchor="middle" x="1131.65" y="-231.5" font-family="Helvetica,sans-Serif" font-size="10.00">column_primitive.h</text>
</a>
</g>
</g>
<!-- Node36&#45;&gt;Node37 -->
<g id="edge55" class="edge">
<title>Node36&#45;&gt;Node37</title>
<path fill="none" stroke="midnightblue" d="M1113.28,-280.08C1116.26,-272.77 1120.57,-262.18 1124.27,-253.1"/>
<polygon fill="midnightblue" stroke="midnightblue" points="1127.55,-254.33 1128.08,-243.75 1121.07,-251.69 1127.55,-254.33"/>
</g>
<!-- Node37&#45;&gt;Node7 -->
<g id="edge57" class="edge">
<title>Node37&#45;&gt;Node7</title>
<path fill="none" stroke="midnightblue" d="M1134.58,-224.11C1138.54,-210.22 1143.63,-183.36 1129.65,-168 1118.72,-156 891.55,-134.05 804.33,-126.04"/>
<polygon fill="midnightblue" stroke="midnightblue" points="804.45,-122.53 794.17,-125.11 803.81,-129.5 804.45,-122.53"/>
</g>
<!-- Node37&#45;&gt;Node8 -->
<g id="edge58" class="edge">
<title>Node37&#45;&gt;Node8</title>
<path fill="none" stroke="midnightblue" d="M1075.89,-226.32C982.97,-215.2 798.76,-193.14 718.97,-183.59"/>
<polygon fill="midnightblue" stroke="midnightblue" points="719.22,-180.09 708.88,-182.38 718.39,-187.04 719.22,-180.09"/>
</g>
<!-- Node37&#45;&gt;Node32 -->
<g id="edge56" class="edge">
<title>Node37&#45;&gt;Node32</title>
<path fill="none" stroke="midnightblue" d="M1124.54,-224.08C1118.41,-216.38 1109.38,-205.03 1101.91,-195.65"/>
<polygon fill="midnightblue" stroke="midnightblue" points="1104.58,-193.39 1095.61,-187.75 1099.1,-197.75 1104.58,-193.39"/>
</g>
<!-- Node37&#45;&gt;Node33 -->
<g id="edge59" class="edge">
<title>Node37&#45;&gt;Node33</title>
<path fill="none" stroke="midnightblue" d="M1149.71,-224.44C1168.22,-215.68 1197.23,-201.94 1218.5,-191.86"/>
<polygon fill="midnightblue" stroke="midnightblue" points="1220.13,-194.96 1227.67,-187.52 1217.13,-188.63 1220.13,-194.96"/>
</g>
<!-- Node37&#45;&gt;Node38 -->
<g id="edge60" class="edge">
<title>Node37&#45;&gt;Node38</title>
<path fill="none" stroke="midnightblue" d="M1187.42,-225.69C1192.9,-225.07 1198.38,-224.5 1203.65,-224 1449.1,-200.8 1514.5,-214.19 1763.54,-188.02"/>
<polygon fill="midnightblue" stroke="midnightblue" points="1764.05,-191.49 1773.62,-186.95 1763.31,-184.53 1764.05,-191.49"/>
</g>
<!-- Node39 -->
<g id="node39" class="node">
<title>Node39</title>
<g id="a_node39"><a xlink:title=" ">
<polygon fill="none" stroke="#bfbfbf" points="1744.15,-112.5 1744.15,-131.5 1797.15,-131.5 1797.15,-112.5 1744.15,-112.5"/>
<text text-anchor="middle" x="1770.65" y="-119.5" font-family="Helvetica,sans-Serif" font-size="10.00">iterator</text>
</a>
</g>
</g>
<!-- Node38&#45;&gt;Node39 -->
<g id="edge61" class="edge">
<title>Node38&#45;&gt;Node39</title>
<path fill="none" stroke="midnightblue" d="M1815.73,-168.08C1807.86,-160.22 1796.21,-148.57 1786.73,-139.08"/>
<polygon fill="midnightblue" stroke="midnightblue" points="1788.94,-136.35 1779.4,-131.75 1783.99,-141.3 1788.94,-136.35"/>
</g>
<!-- Node40&#45;&gt;Node7 -->
<g id="edge65" class="edge">
<title>Node40&#45;&gt;Node7</title>
<path fill="none" stroke="midnightblue" d="M1250.97,-224.29C1230.98,-209.88 1188.4,-181.35 1147.65,-168 1115.36,-157.42 890.6,-134.7 804.29,-126.25"/>
<polygon fill="midnightblue" stroke="midnightblue" points="804.53,-122.76 794.24,-125.27 803.85,-129.72 804.53,-122.76"/>
</g>
<!-- Node40&#45;&gt;Node29 -->
<g id="edge63" class="edge">
<title>Node40&#45;&gt;Node29</title>
<path fill="none" stroke="midnightblue" d="M1272.45,-224.32C1281.46,-216.34 1295.05,-204.31 1305.96,-194.65"/>
<polygon fill="midnightblue" stroke="midnightblue" points="1308.5,-197.08 1313.67,-187.83 1303.86,-191.84 1308.5,-197.08"/>
</g>
<!-- Node40&#45;&gt;Node33 -->
<g id="edge67" class="edge">
<title>Node40&#45;&gt;Node33</title>
<path fill="none" stroke="midnightblue" d="M1259.84,-224.08C1257.56,-216.85 1254.27,-206.41 1251.44,-197.4"/>
<polygon fill="midnightblue" stroke="midnightblue" points="1254.74,-196.24 1248.4,-187.75 1248.06,-198.34 1254.74,-196.24"/>
</g>
<!-- Node41 -->
<g id="node41" class="node">
<title>Node41</title>
<g id="a_node41"><a xlink:title=" ">
<polygon fill="none" stroke="#bfbfbf" points="1467.65,-168.5 1467.65,-187.5 1511.65,-187.5 1511.65,-168.5 1467.65,-168.5"/>
<text text-anchor="middle" x="1489.65" y="-175.5" font-family="Helvetica,sans-Serif" font-size="10.00">limits</text>
</a>
</g>
</g>
<!-- Node40&#45;&gt;Node41 -->
<g id="edge64" class="edge">
<title>Node40&#45;&gt;Node41</title>
<path fill="none" stroke="midnightblue" d="M1303.59,-224.48C1341.46,-216.42 1399.52,-203.59 1457.7,-188.41"/>
<polygon fill="midnightblue" stroke="midnightblue" points="1458.63,-191.78 1467.41,-185.85 1456.85,-185.01 1458.63,-191.78"/>
</g>
<!-- Node42 -->
<g id="node42" class="node">
<title>Node42</title>
<g id="a_node42"><a xlink:title=" ">
<polygon fill="none" stroke="#bfbfbf" points="1530.15,-168.5 1530.15,-187.5 1595.15,-187.5 1595.15,-168.5 1530.15,-168.5"/>
<text text-anchor="middle" x="1562.65" y="-175.5" font-family="Helvetica,sans-Serif" font-size="10.00">exception</text>
</a>
</g>
</g>
<!-- Node40&#45;&gt;Node42 -->
<g id="edge66" class="edge">
<title>Node40&#45;&gt;Node42</title>
<path fill="none" stroke="midnightblue" d="M1312.69,-224.86C1362.61,-216.6 1441.74,-203.16 1520.07,-188.05"/>
<polygon fill="midnightblue" stroke="midnightblue" points="1520.96,-191.44 1530.11,-186.1 1519.63,-184.57 1520.96,-191.44"/>
</g>
<!-- Node43&#45;&gt;Node7 -->
<g id="edge73" class="edge">
<title>Node43&#45;&gt;Node7</title>
<path fill="none" stroke="midnightblue" d="M1553.87,-224.32C1582.61,-212.38 1625.34,-189.85 1604.65,-168 1576.67,-138.48 957.12,-126.14 804.42,-123.54"/>
<polygon fill="midnightblue" stroke="midnightblue" points="804.31,-120.04 794.25,-123.37 804.19,-127.04 804.31,-120.04"/>
</g>
<!-- Node43&#45;&gt;Node10 -->
<g id="edge71" class="edge">
<title>Node43&#45;&gt;Node10</title>
<path fill="none" stroke="midnightblue" d="M1561.39,-224.45C1595.05,-213.58 1641.62,-193.17 1620.65,-168 1552.59,-86.32 1217.27,-70.68 1083.7,-67.7"/>
<polygon fill="midnightblue" stroke="midnightblue" points="1083.75,-64.2 1073.68,-67.49 1083.6,-71.2 1083.75,-64.2"/>
</g>
<!-- Node43&#45;&gt;Node15 -->
<g id="edge77" class="edge">
<title>Node43&#45;&gt;Node15</title>
<path fill="none" stroke="midnightblue" d="M1511.63,-224.44C1492.06,-215.64 1461.34,-201.81 1438.92,-191.72"/>
<polygon fill="midnightblue" stroke="midnightblue" points="1440.13,-188.43 1429.57,-187.52 1437.25,-194.81 1440.13,-188.43"/>
</g>
<!-- Node43&#45;&gt;Node29 -->
<g id="edge72" class="edge">
<title>Node43&#45;&gt;Node29</title>
<path fill="none" stroke="midnightblue" d="M1498.76,-224.68C1462.14,-215.13 1402.06,-199.46 1362.68,-189.18"/>
<polygon fill="midnightblue" stroke="midnightblue" points="1363.45,-185.77 1352.89,-186.63 1361.69,-192.54 1363.45,-185.77"/>
</g>
<!-- Node43&#45;&gt;Node32 -->
<g id="edge74" class="edge">
<title>Node43&#45;&gt;Node32</title>
<path fill="none" stroke="midnightblue" d="M1498.86,-229.12C1420.68,-219.57 1219.03,-194.93 1130.91,-184.16"/>
<polygon fill="midnightblue" stroke="midnightblue" points="1131.09,-180.66 1120.74,-182.92 1130.24,-187.61 1131.09,-180.66"/>
</g>
<!-- Node44 -->
<g id="node44" class="node">
<title>Node44</title>
<g id="a_node44"><a xlink:title=" ">
<polygon fill="none" stroke="#bfbfbf" points="1690.15,-168.5 1690.15,-187.5 1755.15,-187.5 1755.15,-168.5 1690.15,-168.5"/>
<text text-anchor="middle" x="1722.65" y="-175.5" font-family="Helvetica,sans-Serif" font-size="10.00">stdexcept</text>
</a>
</g>
</g>
<!-- Node43&#45;&gt;Node44 -->
<g id="edge75" class="edge">
<title>Node43&#45;&gt;Node44</title>
<path fill="none" stroke="midnightblue" d="M1561.07,-224.44C1593.93,-215.2 1646.43,-200.44 1682.62,-190.26"/>
<polygon fill="midnightblue" stroke="midnightblue" points="1683.69,-193.59 1692.36,-187.52 1681.79,-186.85 1683.69,-193.59"/>
</g>
<!-- Node45 -->
<g id="node45" class="node">
<title>Node45</title>
<g id="a_node45"><a xlink:title=" ">
<polygon fill="none" stroke="#bfbfbf" points="1893.65,-168.5 1893.65,-187.5 1949.65,-187.5 1949.65,-168.5 1893.65,-168.5"/>
<text text-anchor="middle" x="1921.65" y="-175.5" font-family="Helvetica,sans-Serif" font-size="10.00">sstream</text>
</a>
</g>
</g>
<!-- Node43&#45;&gt;Node45 -->
<g id="edge76" class="edge">
<title>Node43&#45;&gt;Node45</title>
<path fill="none" stroke="midnightblue" d="M1562.56,-230.15C1623.19,-224.49 1759.33,-210.52 1883.38,-188.05"/>
<polygon fill="midnightblue" stroke="midnightblue" points="1884.23,-191.46 1893.43,-186.21 1882.97,-184.57 1884.23,-191.46"/>
</g>
<!-- Node46&#45;&gt;Node5 -->
<g id="edge79" class="edge">
<title>Node46&#45;&gt;Node5</title>
<path fill="none" stroke="midnightblue" d="M531.83,-231.54C460.77,-228.4 351.54,-218.58 325.65,-188 301.15,-159.06 314.6,-110.92 324.72,-84.94"/>
<polygon fill="midnightblue" stroke="midnightblue" points="328.01,-86.15 328.6,-75.57 321.54,-83.47 328.01,-86.15"/>
</g>
<!-- Node46&#45;&gt;Node7 -->
<g id="edge80" class="edge">
<title>Node46&#45;&gt;Node7</title>
<path fill="none" stroke="midnightblue" d="M594.2,-224.11C594.01,-210.22 595.77,-183.37 610.65,-168 615.13,-163.36 691.54,-143.22 737.12,-131.51"/>
<polygon fill="midnightblue" stroke="midnightblue" points="738.07,-134.88 746.89,-129.01 736.33,-128.1 738.07,-134.88"/>
</g>
<!-- Node46&#45;&gt;Node8 -->
<g id="edge82" class="edge">
<title>Node46&#45;&gt;Node8</title>
<path fill="none" stroke="midnightblue" d="M608.46,-224.32C621.88,-215.9 642.47,-202.97 658.23,-193.07"/>
<polygon fill="midnightblue" stroke="midnightblue" points="660.25,-195.94 666.86,-187.65 656.53,-190.01 660.25,-195.94"/>
</g>
<!-- Node46&#45;&gt;Node23 -->
<g id="edge81" class="edge">
<title>Node46&#45;&gt;Node23</title>
<path fill="none" stroke="midnightblue" d="M593.08,-224.28C591.15,-211.51 588.9,-187.16 595.65,-168 602.37,-148.88 614.42,-150.05 623.65,-132 631.17,-117.28 636.16,-99.12 639.13,-85.74"/>
<polygon fill="midnightblue" stroke="midnightblue" points="642.59,-86.3 641.16,-75.8 635.73,-84.9 642.59,-86.3"/>
</g>
</g>
</svg>
