<?xml version="1.0" encoding="UTF-8" standalone="no"?>
<!DOCTYPE svg PUBLIC "-//W3C//DTD SVG 1.1//EN"
 "http://www.w3.org/Graphics/SVG/1.1/DTD/svg11.dtd">
<!-- Generated by graphviz version 2.43.0 (0)
 -->
<!-- Title: HealthGPS.Console/poco.h Pages: 1 -->
<svg width="764pt" height="218pt"
 viewBox="0.00 0.00 763.50 218.00" xmlns="http://www.w3.org/2000/svg" xmlns:xlink="http://www.w3.org/1999/xlink">
<g id="graph0" class="graph" transform="scale(1 1) rotate(0) translate(4 214)">
<title>HealthGPS.Console/poco.h</title>
<!-- Node1 -->
<g id="node1" class="node">
<title>Node1</title>
<g id="a_node1"><a xlink:title=" ">
<polygon fill="#bfbfbf" stroke="black" points="412,-190.5 412,-209.5 558,-209.5 558,-190.5 412,-190.5"/>
<text text-anchor="middle" x="485" y="-197.5" font-family="Helvetica,sans-Serif" font-size="10.00">HealthGPS.Console/poco.h</text>
</a>
</g>
</g>
<!-- Node2 -->
<g id="node2" class="node">
<title>Node2</title>
<g id="a_node2"><a xlink:href="options_8h.html" target="_top" xlink:title=" ">
<polygon fill="none" stroke="black" points="406,-134.5 406,-153.5 564,-153.5 564,-134.5 406,-134.5"/>
<text text-anchor="middle" x="485" y="-141.5" font-family="Helvetica,sans-Serif" font-size="10.00">HealthGPS.Console/options.h</text>
</a>
</g>
</g>
<!-- Node1&#45;&gt;Node2 -->
<g id="edge1" class="edge">
<title>Node1&#45;&gt;Node2</title>
<path fill="none" stroke="midnightblue" d="M485,-179.8C485,-170.91 485,-160.78 485,-153.75"/>
<polygon fill="midnightblue" stroke="midnightblue" points="481.5,-180.08 485,-190.08 488.5,-180.08 481.5,-180.08"/>
</g>
<!-- Node3 -->
<g id="node3" class="node">
<title>Node3</title>
<g id="a_node3"><a xlink:href="configuration_8h.html" target="_top" xlink:title=" ">
<polygon fill="none" stroke="black" points="392,-73 392,-92 578,-92 578,-73 392,-73"/>
<text text-anchor="middle" x="485" y="-80" font-family="Helvetica,sans-Serif" font-size="10.00">HealthGPS.Console/configuration.h</text>
</a>
</g>
</g>
<!-- Node2&#45;&gt;Node3 -->
<g id="edge2" class="edge">
<title>Node2&#45;&gt;Node3</title>
<path fill="none" stroke="midnightblue" d="M485,-124.32C485,-113.5 485,-100.4 485,-92.01"/>
<polygon fill="midnightblue" stroke="midnightblue" points="481.5,-124.48 485,-134.48 488.5,-124.48 481.5,-124.48"/>
</g>
<!-- Node6 -->
<g id="node6" class="node">
<title>Node6</title>
<g id="a_node6"><a xlink:href="jsonparser_8h.html" target="_top" xlink:title=" ">
<polygon fill="none" stroke="black" points="200.5,-73 200.5,-92 373.5,-92 373.5,-73 200.5,-73"/>
<text text-anchor="middle" x="287" y="-80" font-family="Helvetica,sans-Serif" font-size="10.00">HealthGPS.Console/jsonparser.h</text>
</a>
</g>
</g>
<!-- Node2&#45;&gt;Node6 -->
<g id="edge5" class="edge">
<title>Node2&#45;&gt;Node6</title>
<path fill="none" stroke="midnightblue" d="M446.83,-131.53C408.34,-119.96 349.84,-102.38 315.32,-92.01"/>
<polygon fill="midnightblue" stroke="midnightblue" points="446.05,-134.95 456.63,-134.48 448.06,-128.25 446.05,-134.95"/>
</g>
<!-- Node9 -->
<g id="node9" class="node">
<title>Node9</title>
<g id="a_node9"><a xlink:href="model__parser_8h.html" target="_top" xlink:title=" ">
<polygon fill="none" stroke="black" points="596,-67.5 596,-97.5 740,-97.5 740,-67.5 596,-67.5"/>
<text text-anchor="start" x="604" y="-85.5" font-family="Helvetica,sans-Serif" font-size="10.00">HealthGPS.Console/model</text>
<text text-anchor="middle" x="668" y="-74.5" font-family="Helvetica,sans-Serif" font-size="10.00">_parser.h</text>
</a>
</g>
</g>
<!-- Node2&#45;&gt;Node9 -->
<g id="edge9" class="edge">
<title>Node2&#45;&gt;Node9</title>
<path fill="none" stroke="midnightblue" d="M520.81,-131.36C550.63,-121.66 593.18,-107.83 624.87,-97.52"/>
<polygon fill="midnightblue" stroke="midnightblue" points="519.65,-128.05 511.22,-134.48 521.81,-134.71 519.65,-128.05"/>
</g>
<!-- Node4 -->
<g id="node4" class="node">
<title>Node4</title>
<g id="a_node4"><a xlink:href="configuration_8cpp.html" target="_top" xlink:title=" ">
<polygon fill="none" stroke="black" points="202.5,-6 202.5,-25 399.5,-25 399.5,-6 202.5,-6"/>
<text text-anchor="middle" x="301" y="-13" font-family="Helvetica,sans-Serif" font-size="10.00">HealthGPS.Console/configuration.cpp</text>
</a>
</g>
</g>
<!-- Node3&#45;&gt;Node4 -->
<g id="edge3" class="edge">
<title>Node3&#45;&gt;Node4</title>
<path fill="none" stroke="midnightblue" d="M450.85,-69.44C414.35,-56.54 357.4,-36.42 325.24,-25.06"/>
<polygon fill="midnightblue" stroke="midnightblue" points="449.97,-72.84 460.57,-72.87 452.3,-66.24 449.97,-72.84"/>
</g>
<!-- Node5 -->
<g id="node5" class="node">
<title>Node5</title>
<g id="a_node5"><a xlink:href="program_8cpp.html" target="_top" xlink:title=" ">
<polygon fill="none" stroke="black" points="580.5,-6 580.5,-25 755.5,-25 755.5,-6 580.5,-6"/>
<text text-anchor="middle" x="668" y="-13" font-family="Helvetica,sans-Serif" font-size="10.00">HealthGPS.Console/program.cpp</text>
</a>
</g>
</g>
<!-- Node3&#45;&gt;Node5 -->
<g id="edge4" class="edge">
<title>Node3&#45;&gt;Node5</title>
<path fill="none" stroke="midnightblue" d="M518.96,-69.44C555.27,-56.54 611.91,-36.42 643.89,-25.06"/>
<polygon fill="midnightblue" stroke="midnightblue" points="517.55,-66.22 509.3,-72.87 519.9,-72.82 517.55,-66.22"/>
</g>
<!-- Node6&#45;&gt;Node4 -->
<g id="edge6" class="edge">
<title>Node6&#45;&gt;Node4</title>
<path fill="none" stroke="midnightblue" d="M291,-62.91C293.68,-50.49 297.08,-34.72 299.14,-25.13"/>
<polygon fill="midnightblue" stroke="midnightblue" points="287.57,-62.22 288.89,-72.73 294.42,-63.69 287.57,-62.22"/>
</g>
<!-- Node7 -->
<g id="node7" class="node">
<title>Node7</title>
<g id="a_node7"><a xlink:href="jsonparser_8cpp.html" target="_top" xlink:title=" ">
<polygon fill="none" stroke="black" points="0,-6 0,-25 184,-25 184,-6 0,-6"/>
<text text-anchor="middle" x="92" y="-13" font-family="Helvetica,sans-Serif" font-size="10.00">HealthGPS.Console/jsonparser.cpp</text>
</a>
</g>
</g>
<!-- Node6&#45;&gt;Node7 -->
<g id="edge7" class="edge">
<title>Node6&#45;&gt;Node7</title>
<path fill="none" stroke="midnightblue" d="M251.3,-69.6C212.64,-56.71 151.92,-36.47 117.69,-25.06"/>
<polygon fill="midnightblue" stroke="midnightblue" points="250.51,-73.03 261.11,-72.87 252.73,-66.39 250.51,-73.03"/>
</g>
<!-- Node8 -->
<g id="node8" class="node">
<title>Node8</title>
<g id="a_node8"><a xlink:href="model__parser_8cpp.html" target="_top" xlink:title=" ">
<polygon fill="none" stroke="black" points="418,-0.5 418,-30.5 562,-30.5 562,-0.5 418,-0.5"/>
<text text-anchor="start" x="426" y="-18.5" font-family="Helvetica,sans-Serif" font-size="10.00">HealthGPS.Console/model</text>
<text text-anchor="middle" x="490" y="-7.5" font-family="Helvetica,sans-Serif" font-size="10.00">_parser.cpp</text>
</a>
</g>
</g>
<!-- Node6&#45;&gt;Node8 -->
<g id="edge8" class="edge">
<title>Node6&#45;&gt;Node8</title>
<path fill="none" stroke="midnightblue" d="M323.62,-69.77C358.04,-58.75 409.6,-42.24 446.19,-30.53"/>
<polygon fill="midnightblue" stroke="midnightblue" points="322.41,-66.49 313.96,-72.87 324.55,-73.15 322.41,-66.49"/>
</g>
<!-- Node9&#45;&gt;Node5 -->
<g id="edge11" class="edge">
<title>Node9&#45;&gt;Node5</title>
<path fill="none" stroke="midnightblue" d="M668,-57.25C668,-46.02 668,-33.38 668,-25.19"/>
<polygon fill="midnightblue" stroke="midnightblue" points="664.5,-57.4 668,-67.4 671.5,-57.4 664.5,-57.4"/>
</g>
<!-- Node9&#45;&gt;Node8 -->
<g id="edge10" class="edge">
<title>Node9&#45;&gt;Node8</title>
<path fill="none" stroke="midnightblue" d="M619.95,-63.96C591.28,-53.48 555.36,-40.37 528.55,-30.58"/>
<polygon fill="midnightblue" stroke="midnightblue" points="618.78,-67.25 629.38,-67.4 621.18,-60.68 618.78,-67.25"/>
</g>
</g>
</svg>
