<?xml version="1.0" encoding="UTF-8" standalone="no"?>
<!DOCTYPE svg PUBLIC "-//W3C//DTD SVG 1.1//EN"
 "http://www.w3.org/Graphics/SVG/1.1/DTD/svg11.dtd">
<!-- Generated by graphviz version 7.0.6 (20230106.0513)
 -->
<!-- Title: HealthGPS/hierarchical_model_types.h Pages: 1 -->
<svg width="1273pt" height="478pt"
 viewBox="0.00 0.00 1272.95 478.00" xmlns="http://www.w3.org/2000/svg" xmlns:xlink="http://www.w3.org/1999/xlink">
<g id="graph0" class="graph" transform="scale(1 1) rotate(0) translate(4 474)">
<title>HealthGPS/hierarchical_model_types.h</title>
<!-- Node1 -->
<g id="node1" class="node">
<title>Node1</title>
<g id="a_node1"><a xlink:title=" ">
<polygon fill="#999999" stroke="#666666" points="685.5,-470 567.5,-470 567.5,-440 685.5,-440 685.5,-470"/>
<text text-anchor="start" x="575.5" y="-458" font-family="Helvetica,sans-Serif" font-size="10.00">HealthGPS/hierarchical</text>
<text text-anchor="middle" x="626.5" y="-447" font-family="Helvetica,sans-Serif" font-size="10.00">_model_types.h</text>
</a>
</g>
</g>
<!-- Node2 -->
<g id="node2" class="node">
<title>Node2</title>
<g id="a_node2"><a xlink:href="csvparser_8cpp.html" target="_top" xlink:title=" ">
<polygon fill="white" stroke="#666666" points="510,-398.5 343,-398.5 343,-379.5 510,-379.5 510,-398.5"/>
<text text-anchor="middle" x="426.5" y="-386.5" font-family="Helvetica,sans-Serif" font-size="10.00">HealthGPS.Console/csvparser.cpp</text>
</a>
</g>
</g>
<!-- Node1&#45;&gt;Node2 -->
<g id="edge1" class="edge">
<title>Node1&#45;&gt;Node2</title>
<path fill="none" stroke="#63b8ff" d="M570.76,-436.16C532.96,-424.07 484.59,-408.59 454.58,-398.99"/>
<polygon fill="#63b8ff" stroke="#63b8ff" points="569.58,-439.46 580.17,-439.18 571.72,-432.79 569.58,-439.46"/>
</g>
<!-- Node3 -->
<g id="node3" class="node">
<title>Node3</title>
<g id="a_node3"><a xlink:href="model__parser_8h.html" target="_top" xlink:title=" ">
<polygon fill="white" stroke="#666666" points="133,-272 0,-272 0,-242 133,-242 133,-272"/>
<text text-anchor="start" x="8" y="-260" font-family="Helvetica,sans-Serif" font-size="10.00">HealthGPS.Console/model</text>
<text text-anchor="middle" x="66.5" y="-249" font-family="Helvetica,sans-Serif" font-size="10.00">_parser.h</text>
</a>
</g>
</g>
<!-- Node1&#45;&gt;Node3 -->
<g id="edge2" class="edge">
<title>Node1&#45;&gt;Node3</title>
<path fill="none" stroke="#63b8ff" d="M602.83,-432.2C582.04,-414.16 550.25,-389.12 518.5,-374 450.29,-341.52 241.57,-294.8 133.27,-271.83"/>
<polygon fill="#63b8ff" stroke="#63b8ff" points="600.36,-434.69 610.16,-438.69 605,-429.45 600.36,-434.69"/>
</g>
<!-- Node6 -->
<g id="node6" class="node">
<title>Node6</title>
<g id="a_node6"><a xlink:href="energy__balance__model_8h.html" target="_top" xlink:title=" ">
<polygon fill="white" stroke="#666666" points="904,-404 767,-404 767,-374 904,-374 904,-404"/>
<text text-anchor="start" x="775" y="-392" font-family="Helvetica,sans-Serif" font-size="10.00">HealthGPS/energy_balance</text>
<text text-anchor="middle" x="835.5" y="-381" font-family="Helvetica,sans-Serif" font-size="10.00">_model.h</text>
</a>
</g>
</g>
<!-- Node1&#45;&gt;Node6 -->
<g id="edge5" class="edge">
<title>Node1&#45;&gt;Node6</title>
<path fill="none" stroke="#63b8ff" d="M684.46,-436.25C717.25,-426.21 757.72,-413.82 788.51,-404.39"/>
<polygon fill="#63b8ff" stroke="#63b8ff" points="683.65,-432.84 675.11,-439.11 685.7,-439.53 683.65,-432.84"/>
</g>
<!-- Node19 -->
<g id="node19" class="node">
<title>Node19</title>
<g id="a_node19"><a xlink:href="hierarchical__model__static_8h.html" target="_top" xlink:title=" ">
<polygon fill="white" stroke="#666666" points="1103.5,-404 985.5,-404 985.5,-374 1103.5,-374 1103.5,-404"/>
<text text-anchor="start" x="993.5" y="-392" font-family="Helvetica,sans-Serif" font-size="10.00">HealthGPS/hierarchical</text>
<text text-anchor="middle" x="1044.5" y="-381" font-family="Helvetica,sans-Serif" font-size="10.00">_model_static.h</text>
</a>
</g>
</g>
<!-- Node1&#45;&gt;Node19 -->
<g id="edge23" class="edge">
<title>Node1&#45;&gt;Node19</title>
<path fill="none" stroke="#63b8ff" d="M697.02,-443.2C777.99,-430.81 909.37,-410.69 985.26,-399.07"/>
<polygon fill="#63b8ff" stroke="#63b8ff" points="696.8,-439.7 687.44,-444.67 697.86,-446.62 696.8,-439.7"/>
</g>
<!-- Node21 -->
<g id="node21" class="node">
<title>Node21</title>
<g id="a_node21"><a xlink:href="repository_8h.html" target="_top" xlink:title=" ">
<polygon fill="white" stroke="#666666" points="686,-332.5 567,-332.5 567,-313.5 686,-313.5 686,-332.5"/>
<text text-anchor="middle" x="626.5" y="-320.5" font-family="Helvetica,sans-Serif" font-size="10.00">HealthGPS/repository.h</text>
</a>
</g>
</g>
<!-- Node1&#45;&gt;Node21 -->
<g id="edge26" class="edge">
<title>Node1&#45;&gt;Node21</title>
<path fill="none" stroke="#63b8ff" d="M626.5,-428.12C626.5,-398.59 626.5,-351.92 626.5,-332.71"/>
<polygon fill="#63b8ff" stroke="#63b8ff" points="623,-428.08 626.5,-438.08 630,-428.08 623,-428.08"/>
</g>
<!-- Node4 -->
<g id="node4" class="node">
<title>Node4</title>
<g id="a_node4"><a xlink:href="model__parser_8cpp.html" target="_top" xlink:title=" ">
<polygon fill="white" stroke="#666666" points="133,-206 0,-206 0,-176 133,-176 133,-206"/>
<text text-anchor="start" x="8" y="-194" font-family="Helvetica,sans-Serif" font-size="10.00">HealthGPS.Console/model</text>
<text text-anchor="middle" x="66.5" y="-183" font-family="Helvetica,sans-Serif" font-size="10.00">_parser.cpp</text>
</a>
</g>
</g>
<!-- Node3&#45;&gt;Node4 -->
<g id="edge3" class="edge">
<title>Node3&#45;&gt;Node4</title>
<path fill="none" stroke="#63b8ff" d="M66.5,-230.39C66.5,-222.13 66.5,-213.28 66.5,-206.16"/>
<polygon fill="#63b8ff" stroke="#63b8ff" points="63,-230.28 66.5,-240.28 70,-230.28 63,-230.28"/>
</g>
<!-- Node5 -->
<g id="node5" class="node">
<title>Node5</title>
<g id="a_node5"><a xlink:href="program_8cpp.html" target="_top" xlink:title=" ">
<polygon fill="white" stroke="#666666" points="680,-19 519,-19 519,0 680,0 680,-19"/>
<text text-anchor="middle" x="599.5" y="-7" font-family="Helvetica,sans-Serif" font-size="10.00">HealthGPS.Console/program.cpp</text>
</a>
</g>
</g>
<!-- Node3&#45;&gt;Node5 -->
<g id="edge4" class="edge">
<title>Node3&#45;&gt;Node5</title>
<path fill="none" stroke="#63b8ff" d="M108.03,-236.87C216.03,-187.13 502.62,-55.12 580.01,-19.48"/>
<polygon fill="#63b8ff" stroke="#63b8ff" points="106.84,-233.56 99.23,-240.93 109.77,-239.92 106.84,-233.56"/>
</g>
<!-- Node7 -->
<g id="node7" class="node">
<title>Node7</title>
<g id="a_node7"><a xlink:href="energy__balance__model_8cpp.html" target="_top" xlink:title=" ">
<polygon fill="white" stroke="#666666" points="904,-338 767,-338 767,-308 904,-308 904,-338"/>
<text text-anchor="start" x="775" y="-326" font-family="Helvetica,sans-Serif" font-size="10.00">HealthGPS/energy_balance</text>
<text text-anchor="middle" x="835.5" y="-315" font-family="Helvetica,sans-Serif" font-size="10.00">_model.cpp</text>
</a>
</g>
</g>
<!-- Node6&#45;&gt;Node7 -->
<g id="edge6" class="edge">
<title>Node6&#45;&gt;Node7</title>
<path fill="none" stroke="#63b8ff" d="M835.5,-362.39C835.5,-354.13 835.5,-345.28 835.5,-338.16"/>
<polygon fill="#63b8ff" stroke="#63b8ff" points="832,-362.28 835.5,-372.28 839,-362.28 832,-362.28"/>
</g>
<!-- Node8 -->
<g id="node8" class="node">
<title>Node8</title>
<g id="a_node8"><a xlink:href="hierarchical__model_8h.html" target="_top" xlink:title=" ">
<polygon fill="white" stroke="#666666" points="1103.5,-338 985.5,-338 985.5,-308 1103.5,-308 1103.5,-338"/>
<text text-anchor="start" x="993.5" y="-326" font-family="Helvetica,sans-Serif" font-size="10.00">HealthGPS/hierarchical</text>
<text text-anchor="middle" x="1044.5" y="-315" font-family="Helvetica,sans-Serif" font-size="10.00">_model.h</text>
</a>
</g>
</g>
<!-- Node6&#45;&gt;Node8 -->
<g id="edge7" class="edge">
<title>Node6&#45;&gt;Node8</title>
<path fill="none" stroke="#63b8ff" d="M893.46,-370.25C926.25,-360.21 966.72,-347.82 997.51,-338.39"/>
<polygon fill="#63b8ff" stroke="#63b8ff" points="892.65,-366.84 884.11,-373.11 894.7,-373.53 892.65,-366.84"/>
</g>
<!-- Node9 -->
<g id="node9" class="node">
<title>Node9</title>
<g id="a_node9"><a xlink:href="healthgps_8cpp.html" target="_top" xlink:title=" ">
<polygon fill="white" stroke="#666666" points="1166,-74 1037,-74 1037,-55 1166,-55 1166,-74"/>
<text text-anchor="middle" x="1101.5" y="-62" font-family="Helvetica,sans-Serif" font-size="10.00">HealthGPS/healthgps.cpp</text>
</a>
</g>
</g>
<!-- Node8&#45;&gt;Node9 -->
<g id="edge8" class="edge">
<title>Node8&#45;&gt;Node9</title>
<path fill="none" stroke="#63b8ff" d="M1115.03,-306.78C1171.94,-294.16 1243.23,-277.45 1247.5,-272 1273.82,-238.42 1266.5,-214.2 1247.5,-176 1221.46,-123.63 1157.43,-89.46 1123.47,-74.38"/>
<polygon fill="#63b8ff" stroke="#63b8ff" points="1114.36,-303.35 1105.35,-308.92 1115.87,-310.18 1114.36,-303.35"/>
</g>
<!-- Node10 -->
<g id="node10" class="node">
<title>Node10</title>
<g id="a_node10"><a xlink:href="hierarchical__model__registry_8h.html" target="_top" xlink:title=" ">
<polygon fill="white" stroke="#666666" points="1238.5,-272 1120.5,-272 1120.5,-242 1238.5,-242 1238.5,-272"/>
<text text-anchor="start" x="1128.5" y="-260" font-family="Helvetica,sans-Serif" font-size="10.00">HealthGPS/hierarchical</text>
<text text-anchor="middle" x="1179.5" y="-249" font-family="Helvetica,sans-Serif" font-size="10.00">_model_registry.h</text>
</a>
</g>
</g>
<!-- Node8&#45;&gt;Node10 -->
<g id="edge9" class="edge">
<title>Node8&#45;&gt;Node10</title>
<path fill="none" stroke="#63b8ff" d="M1085.16,-302.72C1105.78,-292.95 1130.39,-281.28 1149.3,-272.31"/>
<polygon fill="#63b8ff" stroke="#63b8ff" points="1083.7,-299.54 1076.16,-306.99 1086.7,-305.87 1083.7,-299.54"/>
</g>
<!-- Node12 -->
<g id="node12" class="node">
<title>Node12</title>
<g id="a_node12"><a xlink:href="riskfactor_8h.html" target="_top" xlink:title=" ">
<polygon fill="white" stroke="#666666" points="1102.5,-266.5 986.5,-266.5 986.5,-247.5 1102.5,-247.5 1102.5,-266.5"/>
<text text-anchor="middle" x="1044.5" y="-254.5" font-family="Helvetica,sans-Serif" font-size="10.00">HealthGPS/riskfactor.h</text>
</a>
</g>
</g>
<!-- Node8&#45;&gt;Node12 -->
<g id="edge11" class="edge">
<title>Node8&#45;&gt;Node12</title>
<path fill="none" stroke="#63b8ff" d="M1044.5,-296.59C1044.5,-286.06 1044.5,-274.53 1044.5,-266.84"/>
<polygon fill="#63b8ff" stroke="#63b8ff" points="1041,-296.28 1044.5,-306.28 1048,-296.28 1041,-296.28"/>
</g>
<!-- Node11 -->
<g id="node11" class="node">
<title>Node11</title>
<g id="a_node11"><a xlink:href="riskfactor_8cpp.html" target="_top" xlink:title=" ">
<polygon fill="white" stroke="#666666" points="1238,-200.5 1111,-200.5 1111,-181.5 1238,-181.5 1238,-200.5"/>
<text text-anchor="middle" x="1174.5" y="-188.5" font-family="Helvetica,sans-Serif" font-size="10.00">HealthGPS/riskfactor.cpp</text>
</a>
</g>
</g>
<!-- Node10&#45;&gt;Node11 -->
<g id="edge10" class="edge">
<title>Node10&#45;&gt;Node11</title>
<path fill="none" stroke="#63b8ff" d="M1177.51,-230.59C1176.69,-220.06 1175.79,-208.53 1175.19,-200.84"/>
<polygon fill="#63b8ff" stroke="#63b8ff" points="1174,-230.59 1178.27,-240.29 1180.98,-230.05 1174,-230.59"/>
</g>
<!-- Node12&#45;&gt;Node11 -->
<g id="edge12" class="edge">
<title>Node12&#45;&gt;Node11</title>
<path fill="none" stroke="#63b8ff" d="M1072.73,-242.1C1098.21,-229.56 1134.92,-211.49 1156.58,-200.82"/>
<polygon fill="#63b8ff" stroke="#63b8ff" points="1071.36,-238.88 1063.93,-246.43 1074.45,-245.16 1071.36,-238.88"/>
</g>
<!-- Node13 -->
<g id="node13" class="node">
<title>Node13</title>
<g id="a_node13"><a xlink:href="simulation__module_8h.html" target="_top" xlink:title=" ">
<polygon fill="white" stroke="#666666" points="795,-206 682,-206 682,-176 795,-176 795,-206"/>
<text text-anchor="start" x="690" y="-194" font-family="Helvetica,sans-Serif" font-size="10.00">HealthGPS/simulation</text>
<text text-anchor="middle" x="738.5" y="-183" font-family="Helvetica,sans-Serif" font-size="10.00">_module.h</text>
</a>
</g>
</g>
<!-- Node12&#45;&gt;Node13 -->
<g id="edge13" class="edge">
<title>Node12&#45;&gt;Node13</title>
<path fill="none" stroke="#63b8ff" d="M990.61,-244.74C986.18,-243.81 981.76,-242.89 977.5,-242 900.62,-225.97 881.36,-222.15 804.5,-206 801.52,-205.37 798.46,-204.73 795.38,-204.08"/>
<polygon fill="#63b8ff" stroke="#63b8ff" points="989.62,-248.1 1000.13,-246.72 991.06,-241.25 989.62,-248.1"/>
</g>
<!-- Node14 -->
<g id="node14" class="node">
<title>Node14</title>
<g id="a_node14"><a xlink:href="_health_g_p_s_2api_8h.html" target="_top" xlink:title=" ">
<polygon fill="white" stroke="#666666" points="665,-74 576,-74 576,-55 665,-55 665,-74"/>
<text text-anchor="middle" x="620.5" y="-62" font-family="Helvetica,sans-Serif" font-size="10.00">HealthGPS/api.h</text>
</a>
</g>
</g>
<!-- Node13&#45;&gt;Node14 -->
<g id="edge14" class="edge">
<title>Node13&#45;&gt;Node14</title>
<path fill="none" stroke="#63b8ff" d="M705.71,-169.35C693.88,-161.04 680.9,-150.85 670.5,-140 650.46,-119.08 633.14,-89.23 625.18,-74.47"/>
<polygon fill="#63b8ff" stroke="#63b8ff" points="703.39,-172 713.62,-174.73 707.32,-166.21 703.39,-172"/>
</g>
<!-- Node15 -->
<g id="node15" class="node">
<title>Node15</title>
<g id="a_node15"><a xlink:href="healthgps_8h.html" target="_top" xlink:title=" ">
<polygon fill="white" stroke="#666666" points="798,-134.5 679,-134.5 679,-115.5 798,-115.5 798,-134.5"/>
<text text-anchor="middle" x="738.5" y="-122.5" font-family="Helvetica,sans-Serif" font-size="10.00">HealthGPS/healthgps.h</text>
</a>
</g>
</g>
<!-- Node13&#45;&gt;Node15 -->
<g id="edge16" class="edge">
<title>Node13&#45;&gt;Node15</title>
<path fill="none" stroke="#63b8ff" d="M738.5,-164.59C738.5,-154.06 738.5,-142.53 738.5,-134.84"/>
<polygon fill="#63b8ff" stroke="#63b8ff" points="735,-164.28 738.5,-174.28 742,-164.28 735,-164.28"/>
</g>
<!-- Node18 -->
<g id="node18" class="node">
<title>Node18</title>
<g id="a_node18"><a xlink:href="simulation__module_8cpp.html" target="_top" xlink:title=" ">
<polygon fill="white" stroke="#666666" points="929,-140 816,-140 816,-110 929,-110 929,-140"/>
<text text-anchor="start" x="824" y="-128" font-family="Helvetica,sans-Serif" font-size="10.00">HealthGPS/simulation</text>
<text text-anchor="middle" x="872.5" y="-117" font-family="Helvetica,sans-Serif" font-size="10.00">_module.cpp</text>
</a>
</g>
</g>
<!-- Node13&#45;&gt;Node18 -->
<g id="edge22" class="edge">
<title>Node13&#45;&gt;Node18</title>
<path fill="none" stroke="#63b8ff" d="M778.86,-170.72C799.33,-160.95 823.76,-149.28 842.53,-140.31"/>
<polygon fill="#63b8ff" stroke="#63b8ff" points="777.45,-167.52 769.94,-174.98 780.47,-173.83 777.45,-167.52"/>
</g>
<!-- Node14&#45;&gt;Node5 -->
<g id="edge15" class="edge">
<title>Node14&#45;&gt;Node5</title>
<path fill="none" stroke="#63b8ff" d="M612.86,-44.22C609.5,-35.74 605.72,-26.21 603.04,-19.44"/>
<polygon fill="#63b8ff" stroke="#63b8ff" points="609.54,-45.33 616.47,-53.34 616.04,-42.75 609.54,-45.33"/>
</g>
<!-- Node15&#45;&gt;Node9 -->
<g id="edge21" class="edge">
<title>Node15&#45;&gt;Node9</title>
<path fill="none" stroke="#63b8ff" d="M792.3,-112.81C797.43,-111.83 802.56,-110.87 807.5,-110 886.04,-96.1 976.86,-82.77 1036.54,-74.38"/>
<polygon fill="#63b8ff" stroke="#63b8ff" points="791.76,-109.35 782.62,-114.71 793.11,-116.22 791.76,-109.35"/>
</g>
<!-- Node15&#45;&gt;Node14 -->
<g id="edge20" class="edge">
<title>Node15&#45;&gt;Node14</title>
<path fill="none" stroke="#63b8ff" d="M710.39,-110.07C688.14,-99.03 657.72,-83.95 638.59,-74.47"/>
<polygon fill="#63b8ff" stroke="#63b8ff" points="708.71,-113.14 719.22,-114.44 711.82,-106.87 708.71,-113.14"/>
</g>
<!-- Node16 -->
<g id="node16" class="node">
<title>Node16</title>
<g id="a_node16"><a xlink:href="configuration_8h.html" target="_top" xlink:title=" ">
<polygon fill="white" stroke="#666666" points="853.5,-74 683.5,-74 683.5,-55 853.5,-55 853.5,-74"/>
<text text-anchor="middle" x="768.5" y="-62" font-family="Helvetica,sans-Serif" font-size="10.00">HealthGPS.Console/configuration.h</text>
</a>
</g>
</g>
<!-- Node15&#45;&gt;Node16 -->
<g id="edge17" class="edge">
<title>Node15&#45;&gt;Node16</title>
<path fill="none" stroke="#63b8ff" d="M748.16,-105.16C753.5,-94.74 759.88,-82.3 764.06,-74.17"/>
<polygon fill="#63b8ff" stroke="#63b8ff" points="745.07,-103.53 743.62,-114.02 751.29,-106.72 745.07,-103.53"/>
</g>
<!-- Node16&#45;&gt;Node5 -->
<g id="edge19" class="edge">
<title>Node16&#45;&gt;Node5</title>
<path fill="none" stroke="#63b8ff" d="M728.99,-51.11C698.05,-41.41 655.74,-28.14 628.03,-19.45"/>
<polygon fill="#63b8ff" stroke="#63b8ff" points="727.8,-54.4 738.39,-54.06 729.89,-47.72 727.8,-54.4"/>
</g>
<!-- Node17 -->
<g id="node17" class="node">
<title>Node17</title>
<g id="a_node17"><a xlink:href="configuration_8cpp.html" target="_top" xlink:title=" ">
<polygon fill="white" stroke="#666666" points="878.5,-19 698.5,-19 698.5,0 878.5,0 878.5,-19"/>
<text text-anchor="middle" x="788.5" y="-7" font-family="Helvetica,sans-Serif" font-size="10.00">HealthGPS.Console/configuration.cpp</text>
</a>
</g>
</g>
<!-- Node16&#45;&gt;Node17 -->
<g id="edge18" class="edge">
<title>Node16&#45;&gt;Node17</title>
<path fill="none" stroke="#63b8ff" d="M775.78,-44.22C778.97,-35.74 782.57,-26.21 785.13,-19.44"/>
<polygon fill="#63b8ff" stroke="#63b8ff" points="772.59,-42.74 772.34,-53.33 779.14,-45.21 772.59,-42.74"/>
</g>
<!-- Node19&#45;&gt;Node8 -->
<g id="edge24" class="edge">
<title>Node19&#45;&gt;Node8</title>
<path fill="none" stroke="#63b8ff" d="M1044.5,-362.39C1044.5,-354.13 1044.5,-345.28 1044.5,-338.16"/>
<polygon fill="#63b8ff" stroke="#63b8ff" points="1041,-362.28 1044.5,-372.28 1048,-362.28 1041,-362.28"/>
</g>
<!-- Node20 -->
<g id="node20" class="node">
<title>Node20</title>
<g id="a_node20"><a xlink:href="hierarchical__model__static_8cpp.html" target="_top" xlink:title=" ">
<polygon fill="white" stroke="#666666" points="1239.5,-338 1121.5,-338 1121.5,-308 1239.5,-308 1239.5,-338"/>
<text text-anchor="start" x="1129.5" y="-326" font-family="Helvetica,sans-Serif" font-size="10.00">HealthGPS/hierarchical</text>
<text text-anchor="middle" x="1180.5" y="-315" font-family="Helvetica,sans-Serif" font-size="10.00">_model_static.cpp</text>
</a>
</g>
</g>
<!-- Node19&#45;&gt;Node20 -->
<g id="edge25" class="edge">
<title>Node19&#45;&gt;Node20</title>
<path fill="none" stroke="#63b8ff" d="M1085.18,-368.86C1106.01,-359.05 1130.94,-347.32 1150.08,-338.31"/>
<polygon fill="#63b8ff" stroke="#63b8ff" points="1083.95,-365.57 1076.39,-372.99 1086.93,-371.9 1083.95,-365.57"/>
</g>
<!-- Node21&#45;&gt;Node3 -->
<g id="edge27" class="edge">
<title>Node21&#45;&gt;Node3</title>
<path fill="none" stroke="#63b8ff" d="M572.18,-311.08C565.56,-309.94 558.89,-308.88 552.5,-308 371.3,-282.97 323.76,-296.6 142.5,-272 139.44,-271.59 136.32,-271.13 133.17,-270.65"/>
<polygon fill="#63b8ff" stroke="#63b8ff" points="571.23,-314.47 581.69,-312.79 572.47,-307.58 571.23,-314.47"/>
</g>
<!-- Node21&#45;&gt;Node12 -->
<g id="edge41" class="edge">
<title>Node21&#45;&gt;Node12</title>
<path fill="none" stroke="#63b8ff" d="M697.34,-313.27C768.39,-304.2 880.82,-288.97 977.5,-272 986.04,-270.5 995.16,-268.72 1003.84,-266.94"/>
<polygon fill="#63b8ff" stroke="#63b8ff" points="697.29,-309.75 687.81,-314.48 698.17,-316.69 697.29,-309.75"/>
</g>
<!-- Node22 -->
<g id="node22" class="node">
<title>Node22</title>
<g id="a_node22"><a xlink:href="analysis__module_8h.html" target="_top" xlink:title=" ">
<polygon fill="white" stroke="#666666" points="403.5,-272 299.5,-272 299.5,-242 403.5,-242 403.5,-272"/>
<text text-anchor="start" x="307.5" y="-260" font-family="Helvetica,sans-Serif" font-size="10.00">HealthGPS/analysis</text>
<text text-anchor="middle" x="351.5" y="-249" font-family="Helvetica,sans-Serif" font-size="10.00">_module.h</text>
</a>
</g>
</g>
<!-- Node21&#45;&gt;Node22 -->
<g id="edge28" class="edge">
<title>Node21&#45;&gt;Node22</title>
<path fill="none" stroke="#63b8ff" d="M577.04,-310.49C528.18,-299.12 453.72,-281.79 403.87,-270.19"/>
<polygon fill="#63b8ff" stroke="#63b8ff" points="575.97,-313.83 586.5,-312.69 577.55,-307.01 575.97,-313.83"/>
</g>
<!-- Node24 -->
<g id="node24" class="node">
<title>Node24</title>
<g id="a_node24"><a xlink:href="demographic_8h.html" target="_top" xlink:title=" ">
<polygon fill="white" stroke="#666666" points="553.5,-266.5 421.5,-266.5 421.5,-247.5 553.5,-247.5 553.5,-266.5"/>
<text text-anchor="middle" x="487.5" y="-254.5" font-family="Helvetica,sans-Serif" font-size="10.00">HealthGPS/demographic.h</text>
</a>
</g>
</g>
<!-- Node21&#45;&gt;Node24 -->
<g id="edge31" class="edge">
<title>Node21&#45;&gt;Node24</title>
<path fill="none" stroke="#63b8ff" d="M597.04,-308.44C569.78,-295.88 530.03,-277.58 506.66,-266.82"/>
<polygon fill="#63b8ff" stroke="#63b8ff" points="595.25,-311.46 605.8,-312.47 598.18,-305.11 595.25,-311.46"/>
</g>
<!-- Node26 -->
<g id="node26" class="node">
<title>Node26</title>
<g id="a_node26"><a xlink:href="_health_g_p_s_2disease_8h.html" target="_top" xlink:title=" ">
<polygon fill="white" stroke="#666666" points="681.5,-266.5 571.5,-266.5 571.5,-247.5 681.5,-247.5 681.5,-266.5"/>
<text text-anchor="middle" x="626.5" y="-254.5" font-family="Helvetica,sans-Serif" font-size="10.00">HealthGPS/disease.h</text>
</a>
</g>
</g>
<!-- Node21&#45;&gt;Node26 -->
<g id="edge34" class="edge">
<title>Node21&#45;&gt;Node26</title>
<path fill="none" stroke="#63b8ff" d="M626.5,-301.68C626.5,-289.94 626.5,-275.77 626.5,-266.82"/>
<polygon fill="#63b8ff" stroke="#63b8ff" points="623,-301.59 626.5,-311.59 630,-301.59 623,-301.59"/>
</g>
<!-- Node28 -->
<g id="node28" class="node">
<title>Node28</title>
<g id="a_node28"><a xlink:href="modulefactory_8h.html" target="_top" xlink:title=" ">
<polygon fill="white" stroke="#666666" points="837,-266.5 700,-266.5 700,-247.5 837,-247.5 837,-266.5"/>
<text text-anchor="middle" x="768.5" y="-254.5" font-family="Helvetica,sans-Serif" font-size="10.00">HealthGPS/modulefactory.h</text>
</a>
</g>
</g>
<!-- Node21&#45;&gt;Node28 -->
<g id="edge37" class="edge">
<title>Node21&#45;&gt;Node28</title>
<path fill="none" stroke="#63b8ff" d="M656.59,-308.44C684.45,-295.88 725.05,-277.58 748.92,-266.82"/>
<polygon fill="#63b8ff" stroke="#63b8ff" points="655.3,-305.18 647.62,-312.48 658.18,-311.56 655.3,-305.18"/>
</g>
<!-- Node30 -->
<g id="node30" class="node">
<title>Node30</title>
<g id="a_node30"><a xlink:href="repository_8cpp.html" target="_top" xlink:title=" ">
<polygon fill="white" stroke="#666666" points="281.5,-266.5 151.5,-266.5 151.5,-247.5 281.5,-247.5 281.5,-266.5"/>
<text text-anchor="middle" x="216.5" y="-254.5" font-family="Helvetica,sans-Serif" font-size="10.00">HealthGPS/repository.cpp</text>
</a>
</g>
</g>
<!-- Node21&#45;&gt;Node30 -->
<g id="edge40" class="edge">
<title>Node21&#45;&gt;Node30</title>
<path fill="none" stroke="#63b8ff" d="M569.94,-311C564.06,-309.94 558.16,-308.92 552.5,-308 436.5,-289.07 406.5,-290.93 290.5,-272 281.21,-270.48 271.29,-268.71 261.83,-266.95"/>
<polygon fill="#63b8ff" stroke="#63b8ff" points="569.21,-314.42 579.68,-312.78 570.47,-307.54 569.21,-314.42"/>
</g>
<!-- Node31 -->
<g id="node31" class="node">
<title>Node31</title>
<g id="a_node31"><a xlink:href="ses__noise__module_8h.html" target="_top" xlink:title=" ">
<polygon fill="white" stroke="#666666" points="968,-272 855,-272 855,-242 968,-242 968,-272"/>
<text text-anchor="start" x="863" y="-260" font-family="Helvetica,sans-Serif" font-size="10.00">HealthGPS/ses_noise</text>
<text text-anchor="middle" x="911.5" y="-249" font-family="Helvetica,sans-Serif" font-size="10.00">_module.h</text>
</a>
</g>
</g>
<!-- Node21&#45;&gt;Node31 -->
<g id="edge42" class="edge">
<title>Node21&#45;&gt;Node31</title>
<path fill="none" stroke="#63b8ff" d="M677.57,-310.53C727.37,-299.35 802.95,-282.38 854.64,-270.77"/>
<polygon fill="#63b8ff" stroke="#63b8ff" points="676.9,-307.1 667.9,-312.7 678.43,-313.93 676.9,-307.1"/>
</g>
<!-- Node22&#45;&gt;Node13 -->
<g id="edge30" class="edge">
<title>Node22&#45;&gt;Node13</title>
<path fill="none" stroke="#63b8ff" d="M414.69,-241.71C529.6,-221.19 561.67,-225.73 673.5,-206 676.23,-205.52 679.02,-205 681.83,-204.47"/>
<polygon fill="#63b8ff" stroke="#63b8ff" points="414.38,-238.21 405.17,-243.43 415.63,-245.09 414.38,-238.21"/>
</g>
<!-- Node23 -->
<g id="node23" class="node">
<title>Node23</title>
<g id="a_node23"><a xlink:href="analysis__module_8cpp.html" target="_top" xlink:title=" ">
<polygon fill="white" stroke="#666666" points="363.5,-206 259.5,-206 259.5,-176 363.5,-176 363.5,-206"/>
<text text-anchor="start" x="267.5" y="-194" font-family="Helvetica,sans-Serif" font-size="10.00">HealthGPS/analysis</text>
<text text-anchor="middle" x="311.5" y="-183" font-family="Helvetica,sans-Serif" font-size="10.00">_module.cpp</text>
</a>
</g>
</g>
<!-- Node22&#45;&gt;Node23 -->
<g id="edge29" class="edge">
<title>Node22&#45;&gt;Node23</title>
<path fill="none" stroke="#63b8ff" d="M336.57,-232.11C331.11,-223.38 325.11,-213.78 320.35,-206.16"/>
<polygon fill="#63b8ff" stroke="#63b8ff" points="333.55,-233.89 341.82,-240.51 339.49,-230.18 333.55,-233.89"/>
</g>
<!-- Node24&#45;&gt;Node13 -->
<g id="edge33" class="edge">
<title>Node24&#45;&gt;Node13</title>
<path fill="none" stroke="#63b8ff" d="M533.63,-244.24C575.4,-233.59 637.09,-217.86 681.85,-206.45"/>
<polygon fill="#63b8ff" stroke="#63b8ff" points="532.96,-240.8 524.13,-246.66 534.69,-247.58 532.96,-240.8"/>
</g>
<!-- Node25 -->
<g id="node25" class="node">
<title>Node25</title>
<g id="a_node25"><a xlink:href="demographic_8cpp.html" target="_top" xlink:title=" ">
<polygon fill="white" stroke="#666666" points="525,-200.5 382,-200.5 382,-181.5 525,-181.5 525,-200.5"/>
<text text-anchor="middle" x="453.5" y="-188.5" font-family="Helvetica,sans-Serif" font-size="10.00">HealthGPS/demographic.cpp</text>
</a>
</g>
</g>
<!-- Node24&#45;&gt;Node25 -->
<g id="edge32" class="edge">
<title>Node24&#45;&gt;Node25</title>
<path fill="none" stroke="#63b8ff" d="M477.49,-237.16C471.11,-225.16 463.14,-210.15 458.19,-200.82"/>
<polygon fill="#63b8ff" stroke="#63b8ff" points="474.28,-238.58 482.06,-245.76 480.46,-235.29 474.28,-238.58"/>
</g>
<!-- Node26&#45;&gt;Node13 -->
<g id="edge36" class="edge">
<title>Node26&#45;&gt;Node13</title>
<path fill="none" stroke="#63b8ff" d="M652.04,-241.41C670.35,-230.94 694.9,-216.91 713.16,-206.48"/>
<polygon fill="#63b8ff" stroke="#63b8ff" points="650.33,-238.35 643.39,-246.35 653.81,-244.43 650.33,-238.35"/>
</g>
<!-- Node27 -->
<g id="node27" class="node">
<title>Node27</title>
<g id="a_node27"><a xlink:href="disease_8cpp.html" target="_top" xlink:title=" ">
<polygon fill="white" stroke="#666666" points="664,-200.5 543,-200.5 543,-181.5 664,-181.5 664,-200.5"/>
<text text-anchor="middle" x="603.5" y="-188.5" font-family="Helvetica,sans-Serif" font-size="10.00">HealthGPS/disease.cpp</text>
</a>
</g>
</g>
<!-- Node26&#45;&gt;Node27 -->
<g id="edge35" class="edge">
<title>Node26&#45;&gt;Node27</title>
<path fill="none" stroke="#63b8ff" d="M619.47,-236.43C615.2,-224.55 609.96,-209.96 606.67,-200.82"/>
<polygon fill="#63b8ff" stroke="#63b8ff" points="616.11,-237.45 622.79,-245.68 622.7,-235.08 616.11,-237.45"/>
</g>
<!-- Node28&#45;&gt;Node13 -->
<g id="edge39" class="edge">
<title>Node28&#45;&gt;Node13</title>
<path fill="none" stroke="#63b8ff" d="M759.47,-236.74C754.88,-226.93 749.38,-215.22 745.17,-206.23"/>
<polygon fill="#63b8ff" stroke="#63b8ff" points="756.27,-238.16 763.69,-245.73 762.61,-235.19 756.27,-238.16"/>
</g>
<!-- Node29 -->
<g id="node29" class="node">
<title>Node29</title>
<g id="a_node29"><a xlink:href="modulefactory_8cpp.html" target="_top" xlink:title=" ">
<polygon fill="white" stroke="#666666" points="961.5,-200.5 813.5,-200.5 813.5,-181.5 961.5,-181.5 961.5,-200.5"/>
<text text-anchor="middle" x="887.5" y="-188.5" font-family="Helvetica,sans-Serif" font-size="10.00">HealthGPS/modulefactory.cpp</text>
</a>
</g>
</g>
<!-- Node28&#45;&gt;Node29 -->
<g id="edge38" class="edge">
<title>Node28&#45;&gt;Node29</title>
<path fill="none" stroke="#63b8ff" d="M794.97,-241.76C818.26,-229.24 851.44,-211.39 871.09,-200.82"/>
<polygon fill="#63b8ff" stroke="#63b8ff" points="793.53,-238.57 786.38,-246.38 796.84,-244.73 793.53,-238.57"/>
</g>
<!-- Node31&#45;&gt;Node13 -->
<g id="edge44" class="edge">
<title>Node31&#45;&gt;Node13</title>
<path fill="none" stroke="#63b8ff" d="M861.96,-237.67C835.14,-227.75 802.48,-215.67 777.49,-206.43"/>
<polygon fill="#63b8ff" stroke="#63b8ff" points="860.66,-240.92 871.26,-241.11 863.09,-234.36 860.66,-240.92"/>
</g>
<!-- Node32 -->
<g id="node32" class="node">
<title>Node32</title>
<g id="a_node32"><a xlink:href="ses__noise__module_8cpp.html" target="_top" xlink:title=" ">
<polygon fill="white" stroke="#666666" points="1093,-206 980,-206 980,-176 1093,-176 1093,-206"/>
<text text-anchor="start" x="988" y="-194" font-family="Helvetica,sans-Serif" font-size="10.00">HealthGPS/ses_noise</text>
<text text-anchor="middle" x="1036.5" y="-183" font-family="Helvetica,sans-Serif" font-size="10.00">_module.cpp</text>
</a>
</g>
</g>
<!-- Node31&#45;&gt;Node32 -->
<g id="edge43" class="edge">
<title>Node31&#45;&gt;Node32</title>
<path fill="none" stroke="#63b8ff" d="M949.68,-236.45C968.66,-226.73 991.19,-215.2 1008.54,-206.31"/>
<polygon fill="#63b8ff" stroke="#63b8ff" points="948.21,-233.27 940.9,-240.95 951.4,-239.51 948.21,-233.27"/>
</g>
</g>
</svg>
