<?xml version="1.0" encoding="UTF-8" standalone="no"?>
<!DOCTYPE svg PUBLIC "-//W3C//DTD SVG 1.1//EN"
 "http://www.w3.org/Graphics/SVG/1.1/DTD/svg11.dtd">
<!-- Generated by graphviz version 2.43.0 (0)
 -->
<!-- Title: HealthGPS/hierarchical_model_static.h Pages: 1 -->
<svg width="1273pt" height="419pt"
 viewBox="0.00 0.00 1273.11 419.00" xmlns="http://www.w3.org/2000/svg" xmlns:xlink="http://www.w3.org/1999/xlink">
<g id="graph0" class="graph" transform="scale(1 1) rotate(0) translate(4 415)">
<title>HealthGPS/hierarchical_model_static.h</title>
<!-- Node1 -->
<g id="node1" class="node">
<title>Node1</title>
<g id="a_node1"><a xlink:title=" ">
<polygon fill="#bfbfbf" stroke="black" points="485.11,-380.5 485.11,-410.5 613.11,-410.5 613.11,-380.5 485.11,-380.5"/>
<text text-anchor="start" x="493.11" y="-398.5" font-family="Helvetica,sans-Serif" font-size="10.00">HealthGPS/hierarchical</text>
<text text-anchor="middle" x="549.11" y="-387.5" font-family="Helvetica,sans-Serif" font-size="10.00">_model_static.h</text>
</a>
</g>
</g>
<!-- Node2 -->
<g id="node2" class="node">
<title>Node2</title>
<g id="a_node2"><a xlink:href="hierarchical__model_8h.html" target="_top" xlink:title=" ">
<polygon fill="none" stroke="black" points="25.11,-313.5 25.11,-343.5 153.11,-343.5 153.11,-313.5 25.11,-313.5"/>
<text text-anchor="start" x="33.11" y="-331.5" font-family="Helvetica,sans-Serif" font-size="10.00">HealthGPS/hierarchical</text>
<text text-anchor="middle" x="89.11" y="-320.5" font-family="Helvetica,sans-Serif" font-size="10.00">_model.h</text>
</a>
</g>
</g>
<!-- Node1&#45;&gt;Node2 -->
<g id="edge1" class="edge">
<title>Node1&#45;&gt;Node2</title>
<path fill="none" stroke="midnightblue" d="M474.61,-383.97C385.38,-371.37 237.42,-350.46 153.12,-338.54"/>
<polygon fill="midnightblue" stroke="midnightblue" points="474.27,-387.46 484.66,-385.39 475.25,-380.53 474.27,-387.46"/>
</g>
<!-- Node13 -->
<g id="node13" class="node">
<title>Node13</title>
<g id="a_node13"><a xlink:href="hierarchical__model__static_8cpp.html" target="_top" xlink:title=" ">
<polygon fill="none" stroke="black" points="631.11,-313.5 631.11,-343.5 759.11,-343.5 759.11,-313.5 631.11,-313.5"/>
<text text-anchor="start" x="639.11" y="-331.5" font-family="Helvetica,sans-Serif" font-size="10.00">HealthGPS/hierarchical</text>
<text text-anchor="middle" x="695.11" y="-320.5" font-family="Helvetica,sans-Serif" font-size="10.00">_model_static.cpp</text>
</a>
</g>
</g>
<!-- Node1&#45;&gt;Node13 -->
<g id="edge15" class="edge">
<title>Node1&#45;&gt;Node13</title>
<path fill="none" stroke="midnightblue" d="M590.06,-376.27C613.31,-365.92 641.98,-353.15 663.49,-343.58"/>
<polygon fill="midnightblue" stroke="midnightblue" points="588.5,-373.13 580.79,-380.4 591.35,-379.53 588.5,-373.13"/>
</g>
<!-- Node14 -->
<g id="node14" class="node">
<title>Node14</title>
<g id="a_node14"><a xlink:href="repository_8h.html" target="_top" xlink:title=" ">
<polygon fill="none" stroke="black" points="485.11,-319 485.11,-338 613.11,-338 613.11,-319 485.11,-319"/>
<text text-anchor="middle" x="549.11" y="-326" font-family="Helvetica,sans-Serif" font-size="10.00">HealthGPS/repository.h</text>
</a>
</g>
</g>
<!-- Node1&#45;&gt;Node14 -->
<g id="edge16" class="edge">
<title>Node1&#45;&gt;Node14</title>
<path fill="none" stroke="midnightblue" d="M549.11,-370.25C549.11,-359.02 549.11,-346.38 549.11,-338.19"/>
<polygon fill="midnightblue" stroke="midnightblue" points="545.61,-370.4 549.11,-380.4 552.61,-370.4 545.61,-370.4"/>
</g>
<!-- Node3 -->
<g id="node3" class="node">
<title>Node3</title>
<g id="a_node3"><a xlink:href="healthgps_8cpp.html" target="_top" xlink:title=" ">
<polygon fill="none" stroke="black" points="35.11,-56.5 35.11,-75.5 175.11,-75.5 175.11,-56.5 35.11,-56.5"/>
<text text-anchor="middle" x="105.11" y="-63.5" font-family="Helvetica,sans-Serif" font-size="10.00">HealthGPS/healthgps.cpp</text>
</a>
</g>
</g>
<!-- Node2&#45;&gt;Node3 -->
<g id="edge2" class="edge">
<title>Node2&#45;&gt;Node3</title>
<path fill="none" stroke="midnightblue" d="M48.7,-307.99C36.54,-300.08 24.49,-289.76 17.11,-277 -4.74,-239.22 -3.82,-220 11.11,-179 27.87,-132.96 72.78,-92.68 93.87,-75.65"/>
<polygon fill="midnightblue" stroke="midnightblue" points="47.13,-311.13 57.5,-313.32 50.76,-305.14 47.13,-311.13"/>
</g>
<!-- Node4 -->
<g id="node4" class="node">
<title>Node4</title>
<g id="a_node4"><a xlink:href="riskfactor_8h.html" target="_top" xlink:title=" ">
<polygon fill="none" stroke="black" points="26.11,-252 26.11,-271 152.11,-271 152.11,-252 26.11,-252"/>
<text text-anchor="middle" x="89.11" y="-259" font-family="Helvetica,sans-Serif" font-size="10.00">HealthGPS/riskfactor.h</text>
</a>
</g>
</g>
<!-- Node2&#45;&gt;Node4 -->
<g id="edge3" class="edge">
<title>Node2&#45;&gt;Node4</title>
<path fill="none" stroke="midnightblue" d="M89.11,-303.25C89.11,-292.02 89.11,-279.38 89.11,-271.19"/>
<polygon fill="midnightblue" stroke="midnightblue" points="85.61,-303.4 89.11,-313.4 92.61,-303.4 85.61,-303.4"/>
</g>
<!-- Node5 -->
<g id="node5" class="node">
<title>Node5</title>
<g id="a_node5"><a xlink:href="riskfactor_8cpp.html" target="_top" xlink:title=" ">
<polygon fill="none" stroke="black" points="20.61,-185 20.61,-204 157.61,-204 157.61,-185 20.61,-185"/>
<text text-anchor="middle" x="89.11" y="-192" font-family="Helvetica,sans-Serif" font-size="10.00">HealthGPS/riskfactor.cpp</text>
</a>
</g>
</g>
<!-- Node4&#45;&gt;Node5 -->
<g id="edge4" class="edge">
<title>Node4&#45;&gt;Node5</title>
<path fill="none" stroke="midnightblue" d="M89.11,-241.54C89.11,-229.17 89.11,-213.62 89.11,-204.13"/>
<polygon fill="midnightblue" stroke="midnightblue" points="85.61,-241.73 89.11,-251.73 92.61,-241.73 85.61,-241.73"/>
</g>
<!-- Node6 -->
<g id="node6" class="node">
<title>Node6</title>
<g id="a_node6"><a xlink:href="simulation__module_8h.html" target="_top" xlink:title=" ">
<polygon fill="none" stroke="black" points="495.61,-179.5 495.61,-209.5 618.61,-209.5 618.61,-179.5 495.61,-179.5"/>
<text text-anchor="start" x="503.61" y="-197.5" font-family="Helvetica,sans-Serif" font-size="10.00">HealthGPS/simulation</text>
<text text-anchor="middle" x="557.11" y="-186.5" font-family="Helvetica,sans-Serif" font-size="10.00">_module.h</text>
</a>
</g>
</g>
<!-- Node4&#45;&gt;Node6 -->
<g id="edge5" class="edge">
<title>Node4&#45;&gt;Node6</title>
<path fill="none" stroke="midnightblue" d="M138.15,-250.02C145.81,-248.56 153.66,-247.16 161.11,-246 304.7,-223.63 342.54,-232.56 486.11,-210 489.21,-209.51 492.39,-208.98 495.59,-208.42"/>
<polygon fill="midnightblue" stroke="midnightblue" points="137.37,-246.61 128.23,-251.97 138.72,-253.48 137.37,-246.61"/>
</g>
<!-- Node7 -->
<g id="node7" class="node">
<title>Node7</title>
<g id="a_node7"><a xlink:href="HealthGPS_2api_8h.html" target="_top" xlink:title=" ">
<polygon fill="none" stroke="black" points="526.61,-56.5 526.61,-75.5 621.61,-75.5 621.61,-56.5 526.61,-56.5"/>
<text text-anchor="middle" x="574.11" y="-63.5" font-family="Helvetica,sans-Serif" font-size="10.00">HealthGPS/api.h</text>
</a>
</g>
</g>
<!-- Node6&#45;&gt;Node7 -->
<g id="edge6" class="edge">
<title>Node6&#45;&gt;Node7</title>
<path fill="none" stroke="midnightblue" d="M560.33,-169.51C564.16,-141.02 570.35,-94.94 572.93,-75.79"/>
<polygon fill="midnightblue" stroke="midnightblue" points="556.85,-169.1 558.99,-179.48 563.79,-170.03 556.85,-169.1"/>
</g>
<!-- Node9 -->
<g id="node9" class="node">
<title>Node9</title>
<g id="a_node9"><a xlink:href="healthgps_8h.html" target="_top" xlink:title=" ">
<polygon fill="none" stroke="black" points="368.11,-118 368.11,-137 496.11,-137 496.11,-118 368.11,-118"/>
<text text-anchor="middle" x="432.11" y="-125" font-family="Helvetica,sans-Serif" font-size="10.00">HealthGPS/healthgps.h</text>
</a>
</g>
</g>
<!-- Node6&#45;&gt;Node9 -->
<g id="edge8" class="edge">
<title>Node6&#45;&gt;Node9</title>
<path fill="none" stroke="midnightblue" d="M520.83,-174.64C496.92,-162.2 466.75,-146.51 448.47,-137.01"/>
<polygon fill="midnightblue" stroke="midnightblue" points="519.5,-177.89 529.98,-179.4 522.73,-171.68 519.5,-177.89"/>
</g>
<!-- Node12 -->
<g id="node12" class="node">
<title>Node12</title>
<g id="a_node12"><a xlink:href="simulation__module_8cpp.html" target="_top" xlink:title=" ">
<polygon fill="none" stroke="black" points="585.61,-112.5 585.61,-142.5 708.61,-142.5 708.61,-112.5 585.61,-112.5"/>
<text text-anchor="start" x="593.61" y="-130.5" font-family="Helvetica,sans-Serif" font-size="10.00">HealthGPS/simulation</text>
<text text-anchor="middle" x="647.11" y="-119.5" font-family="Helvetica,sans-Serif" font-size="10.00">_module.cpp</text>
</a>
</g>
</g>
<!-- Node6&#45;&gt;Node12 -->
<g id="edge14" class="edge">
<title>Node6&#45;&gt;Node12</title>
<path fill="none" stroke="midnightblue" d="M584.87,-173.45C598.71,-163.45 615.12,-151.6 627.62,-142.58"/>
<polygon fill="midnightblue" stroke="midnightblue" points="582.69,-170.7 576.63,-179.4 586.79,-176.38 582.69,-170.7"/>
</g>
<!-- Node8 -->
<g id="node8" class="node">
<title>Node8</title>
<g id="a_node8"><a xlink:href="program_8cpp.html" target="_top" xlink:title=" ">
<polygon fill="none" stroke="black" points="508.61,-0.5 508.61,-19.5 683.61,-19.5 683.61,-0.5 508.61,-0.5"/>
<text text-anchor="middle" x="596.11" y="-7.5" font-family="Helvetica,sans-Serif" font-size="10.00">HealthGPS.Console/program.cpp</text>
</a>
</g>
</g>
<!-- Node7&#45;&gt;Node8 -->
<g id="edge7" class="edge">
<title>Node7&#45;&gt;Node8</title>
<path fill="none" stroke="midnightblue" d="M581.57,-46.69C585.27,-37.59 589.58,-27.01 592.54,-19.75"/>
<polygon fill="midnightblue" stroke="midnightblue" points="578.27,-45.5 577.74,-56.08 584.75,-48.14 578.27,-45.5"/>
</g>
<!-- Node9&#45;&gt;Node3 -->
<g id="edge10" class="edge">
<title>Node9&#45;&gt;Node3</title>
<path fill="none" stroke="midnightblue" d="M375.04,-116.12C311.72,-104.59 210.71,-86.22 151.87,-75.51"/>
<polygon fill="midnightblue" stroke="midnightblue" points="374.79,-119.63 385.26,-117.98 376.04,-112.74 374.79,-119.63"/>
</g>
<!-- Node9&#45;&gt;Node7 -->
<g id="edge9" class="edge">
<title>Node9&#45;&gt;Node7</title>
<path fill="none" stroke="midnightblue" d="M461.99,-113.98C489.57,-102.42 529.77,-85.58 553.8,-75.51"/>
<polygon fill="midnightblue" stroke="midnightblue" points="460.32,-110.88 452.45,-117.98 463.03,-117.34 460.32,-110.88"/>
</g>
<!-- Node10 -->
<g id="node10" class="node">
<title>Node10</title>
<g id="a_node10"><a xlink:href="configuration_8h.html" target="_top" xlink:title=" ">
<polygon fill="none" stroke="black" points="322.11,-56.5 322.11,-75.5 508.11,-75.5 508.11,-56.5 322.11,-56.5"/>
<text text-anchor="middle" x="415.11" y="-63.5" font-family="Helvetica,sans-Serif" font-size="10.00">HealthGPS.Console/configuration.h</text>
</a>
</g>
</g>
<!-- Node9&#45;&gt;Node10 -->
<g id="edge11" class="edge">
<title>Node9&#45;&gt;Node10</title>
<path fill="none" stroke="midnightblue" d="M426.87,-108.16C423.76,-97.27 419.96,-83.99 417.54,-75.51"/>
<polygon fill="midnightblue" stroke="midnightblue" points="423.56,-109.32 429.67,-117.98 430.29,-107.4 423.56,-109.32"/>
</g>
<!-- Node10&#45;&gt;Node8 -->
<g id="edge13" class="edge">
<title>Node10&#45;&gt;Node8</title>
<path fill="none" stroke="midnightblue" d="M453.43,-53.57C487.57,-43.38 536.77,-28.7 567.56,-19.52"/>
<polygon fill="midnightblue" stroke="midnightblue" points="452.37,-50.23 443.79,-56.44 454.37,-56.94 452.37,-50.23"/>
</g>
<!-- Node11 -->
<g id="node11" class="node">
<title>Node11</title>
<g id="a_node11"><a xlink:href="configuration_8cpp.html" target="_top" xlink:title=" ">
<polygon fill="none" stroke="black" points="293.61,-0.5 293.61,-19.5 490.61,-19.5 490.61,-0.5 293.61,-0.5"/>
<text text-anchor="middle" x="392.11" y="-7.5" font-family="Helvetica,sans-Serif" font-size="10.00">HealthGPS.Console/configuration.cpp</text>
</a>
</g>
</g>
<!-- Node10&#45;&gt;Node11 -->
<g id="edge12" class="edge">
<title>Node10&#45;&gt;Node11</title>
<path fill="none" stroke="midnightblue" d="M407.31,-46.69C403.43,-37.59 398.93,-27.01 395.83,-19.75"/>
<polygon fill="midnightblue" stroke="midnightblue" points="404.17,-48.25 411.31,-56.08 410.61,-45.51 404.17,-48.25"/>
</g>
<!-- Node14&#45;&gt;Node4 -->
<g id="edge30" class="edge">
<title>Node14&#45;&gt;Node4</title>
<path fill="none" stroke="midnightblue" d="M474.81,-319.38C396.55,-310.46 269.82,-295 161.11,-277 150.67,-275.27 139.43,-273.14 129,-271.05"/>
<polygon fill="midnightblue" stroke="midnightblue" points="474.72,-322.89 485.06,-320.54 475.51,-315.94 474.72,-322.89"/>
</g>
<!-- Node15 -->
<g id="node15" class="node">
<title>Node15</title>
<g id="a_node15"><a xlink:href="analysis__module_8h.html" target="_top" xlink:title=" ">
<polygon fill="none" stroke="black" points="932.11,-246.5 932.11,-276.5 1044.11,-276.5 1044.11,-246.5 932.11,-246.5"/>
<text text-anchor="start" x="940.11" y="-264.5" font-family="Helvetica,sans-Serif" font-size="10.00">HealthGPS/analysis</text>
<text text-anchor="middle" x="988.11" y="-253.5" font-family="Helvetica,sans-Serif" font-size="10.00">_module.h</text>
</a>
</g>
</g>
<!-- Node14&#45;&gt;Node15 -->
<g id="edge17" class="edge">
<title>Node14&#45;&gt;Node15</title>
<path fill="none" stroke="midnightblue" d="M599.12,-317.04C606.8,-315.58 614.65,-314.18 622.11,-313 755.17,-291.86 790.3,-299.7 923.11,-277 925.96,-276.51 928.87,-275.98 931.8,-275.42"/>
<polygon fill="midnightblue" stroke="midnightblue" points="598.32,-313.63 589.17,-318.97 599.65,-320.5 598.32,-313.63"/>
</g>
<!-- Node17 -->
<g id="node17" class="node">
<title>Node17</title>
<g id="a_node17"><a xlink:href="demographic_8h.html" target="_top" xlink:title=" ">
<polygon fill="none" stroke="black" points="328.11,-252 328.11,-271 472.11,-271 472.11,-252 328.11,-252"/>
<text text-anchor="middle" x="400.11" y="-259" font-family="Helvetica,sans-Serif" font-size="10.00">HealthGPS/demographic.h</text>
</a>
</g>
</g>
<!-- Node14&#45;&gt;Node17 -->
<g id="edge20" class="edge">
<title>Node14&#45;&gt;Node17</title>
<path fill="none" stroke="midnightblue" d="M519.95,-314.78C490.44,-301.91 445.62,-282.35 419.97,-271.17"/>
<polygon fill="midnightblue" stroke="midnightblue" points="518.75,-318.08 529.32,-318.87 521.55,-311.66 518.75,-318.08"/>
</g>
<!-- Node19 -->
<g id="node19" class="node">
<title>Node19</title>
<g id="a_node19"><a xlink:href="HealthGPS_2disease_8h.html" target="_top" xlink:title=" ">
<polygon fill="none" stroke="black" points="490.11,-252 490.11,-271 608.11,-271 608.11,-252 490.11,-252"/>
<text text-anchor="middle" x="549.11" y="-259" font-family="Helvetica,sans-Serif" font-size="10.00">HealthGPS/disease.h</text>
</a>
</g>
</g>
<!-- Node14&#45;&gt;Node19 -->
<g id="edge23" class="edge">
<title>Node14&#45;&gt;Node19</title>
<path fill="none" stroke="midnightblue" d="M549.11,-308.54C549.11,-296.17 549.11,-280.62 549.11,-271.13"/>
<polygon fill="midnightblue" stroke="midnightblue" points="545.61,-308.73 549.11,-318.73 552.61,-308.73 545.61,-308.73"/>
</g>
<!-- Node21 -->
<g id="node21" class="node">
<title>Node21</title>
<g id="a_node21"><a xlink:href="modulefactory_8h.html" target="_top" xlink:title=" ">
<polygon fill="none" stroke="black" points="626.11,-252 626.11,-271 776.11,-271 776.11,-252 626.11,-252"/>
<text text-anchor="middle" x="701.11" y="-259" font-family="Helvetica,sans-Serif" font-size="10.00">HealthGPS/modulefactory.h</text>
</a>
</g>
</g>
<!-- Node14&#45;&gt;Node21 -->
<g id="edge26" class="edge">
<title>Node14&#45;&gt;Node21</title>
<path fill="none" stroke="midnightblue" d="M578.85,-314.78C608.95,-301.91 654.68,-282.35 680.84,-271.17"/>
<polygon fill="midnightblue" stroke="midnightblue" points="577.11,-311.72 569.29,-318.87 579.86,-318.15 577.11,-311.72"/>
</g>
<!-- Node23 -->
<g id="node23" class="node">
<title>Node23</title>
<g id="a_node23"><a xlink:href="repository_8cpp.html" target="_top" xlink:title=" ">
<polygon fill="none" stroke="black" points="170.11,-252 170.11,-271 310.11,-271 310.11,-252 170.11,-252"/>
<text text-anchor="middle" x="240.11" y="-259" font-family="Helvetica,sans-Serif" font-size="10.00">HealthGPS/repository.cpp</text>
</a>
</g>
</g>
<!-- Node14&#45;&gt;Node23 -->
<g id="edge29" class="edge">
<title>Node14&#45;&gt;Node23</title>
<path fill="none" stroke="midnightblue" d="M498.25,-316.8C437.45,-304.01 336.88,-282.86 280.91,-271.08"/>
<polygon fill="midnightblue" stroke="midnightblue" points="497.89,-320.3 508.39,-318.94 499.33,-313.45 497.89,-320.3"/>
</g>
<!-- Node24 -->
<g id="node24" class="node">
<title>Node24</title>
<g id="a_node24"><a xlink:href="ses__noise__module_8h.html" target="_top" xlink:title=" ">
<polygon fill="none" stroke="black" points="794.61,-246.5 794.61,-276.5 913.61,-276.5 913.61,-246.5 794.61,-246.5"/>
<text text-anchor="start" x="802.61" y="-264.5" font-family="Helvetica,sans-Serif" font-size="10.00">HealthGPS/ses_noise</text>
<text text-anchor="middle" x="854.11" y="-253.5" font-family="Helvetica,sans-Serif" font-size="10.00">_module.h</text>
</a>
</g>
</g>
<!-- Node14&#45;&gt;Node24 -->
<g id="edge31" class="edge">
<title>Node14&#45;&gt;Node24</title>
<path fill="none" stroke="midnightblue" d="M599.23,-316.82C652.74,-305.41 737.5,-287.35 794.41,-275.22"/>
<polygon fill="midnightblue" stroke="midnightblue" points="598.34,-313.43 589.29,-318.94 599.8,-320.27 598.34,-313.43"/>
</g>
<!-- Node26 -->
<g id="node26" class="node">
<title>Node26</title>
<g id="a_node26"><a xlink:href="model__parser_8h.html" target="_top" xlink:title=" ">
<polygon fill="none" stroke="black" points="1062.11,-246.5 1062.11,-276.5 1206.11,-276.5 1206.11,-246.5 1062.11,-246.5"/>
<text text-anchor="start" x="1070.11" y="-264.5" font-family="Helvetica,sans-Serif" font-size="10.00">HealthGPS.Console/model</text>
<text text-anchor="middle" x="1134.11" y="-253.5" font-family="Helvetica,sans-Serif" font-size="10.00">_parser.h</text>
</a>
</g>
</g>
<!-- Node14&#45;&gt;Node26 -->
<g id="edge34" class="edge">
<title>Node14&#45;&gt;Node26</title>
<path fill="none" stroke="midnightblue" d="M597.99,-317C606.02,-315.5 614.28,-314.1 622.11,-313 812.46,-286.23 862.51,-301.96 1053.11,-277 1055.94,-276.63 1058.82,-276.23 1061.74,-275.8"/>
<polygon fill="midnightblue" stroke="midnightblue" points="597.14,-313.6 587.99,-318.93 598.47,-320.47 597.14,-313.6"/>
</g>
<!-- Node15&#45;&gt;Node6 -->
<g id="edge19" class="edge">
<title>Node15&#45;&gt;Node6</title>
<path fill="none" stroke="midnightblue" d="M921.82,-245.88C791.2,-223.95 755.29,-230.71 628.11,-210 625,-209.49 621.83,-208.95 618.62,-208.38"/>
<polygon fill="midnightblue" stroke="midnightblue" points="921.36,-249.36 931.8,-247.59 922.53,-242.46 921.36,-249.36"/>
</g>
<!-- Node16 -->
<g id="node16" class="node">
<title>Node16</title>
<g id="a_node16"><a xlink:href="analysis__module_8cpp.html" target="_top" xlink:title=" ">
<polygon fill="none" stroke="black" points="953.11,-179.5 953.11,-209.5 1065.11,-209.5 1065.11,-179.5 953.11,-179.5"/>
<text text-anchor="start" x="961.11" y="-197.5" font-family="Helvetica,sans-Serif" font-size="10.00">HealthGPS/analysis</text>
<text text-anchor="middle" x="1009.11" y="-186.5" font-family="Helvetica,sans-Serif" font-size="10.00">_module.cpp</text>
</a>
</g>
</g>
<!-- Node15&#45;&gt;Node16 -->
<g id="edge18" class="edge">
<title>Node15&#45;&gt;Node16</title>
<path fill="none" stroke="midnightblue" d="M995.8,-236.7C998.74,-227.59 1002,-217.49 1004.56,-209.58"/>
<polygon fill="midnightblue" stroke="midnightblue" points="992.41,-235.8 992.66,-246.4 999.07,-237.96 992.41,-235.8"/>
</g>
<!-- Node17&#45;&gt;Node6 -->
<g id="edge22" class="edge">
<title>Node17&#45;&gt;Node6</title>
<path fill="none" stroke="midnightblue" d="M430.51,-247.91C457.09,-236.91 495.65,-220.94 523.22,-209.53"/>
<polygon fill="midnightblue" stroke="midnightblue" points="428.86,-244.81 420.95,-251.87 431.53,-251.28 428.86,-244.81"/>
</g>
<!-- Node18 -->
<g id="node18" class="node">
<title>Node18</title>
<g id="a_node18"><a xlink:href="demographic_8cpp.html" target="_top" xlink:title=" ">
<polygon fill="none" stroke="black" points="175.61,-185 175.61,-204 330.61,-204 330.61,-185 175.61,-185"/>
<text text-anchor="middle" x="253.11" y="-192" font-family="Helvetica,sans-Serif" font-size="10.00">HealthGPS/demographic.cpp</text>
</a>
</g>
</g>
<!-- Node17&#45;&gt;Node18 -->
<g id="edge21" class="edge">
<title>Node17&#45;&gt;Node18</title>
<path fill="none" stroke="midnightblue" d="M371.34,-247.78C342.23,-234.91 298.01,-215.35 272.71,-204.17"/>
<polygon fill="midnightblue" stroke="midnightblue" points="370.02,-251.03 380.59,-251.87 372.86,-244.62 370.02,-251.03"/>
</g>
<!-- Node19&#45;&gt;Node6 -->
<g id="edge25" class="edge">
<title>Node19&#45;&gt;Node6</title>
<path fill="none" stroke="midnightblue" d="M551.42,-241.74C552.68,-231.49 554.21,-219 555.37,-209.59"/>
<polygon fill="midnightblue" stroke="midnightblue" points="547.93,-241.38 550.19,-251.73 554.88,-242.24 547.93,-241.38"/>
</g>
<!-- Node20 -->
<g id="node20" class="node">
<title>Node20</title>
<g id="a_node20"><a xlink:href="disease_8cpp.html" target="_top" xlink:title=" ">
<polygon fill="none" stroke="black" points="348.61,-185 348.61,-204 477.61,-204 477.61,-185 348.61,-185"/>
<text text-anchor="middle" x="413.11" y="-192" font-family="Helvetica,sans-Serif" font-size="10.00">HealthGPS/disease.cpp</text>
</a>
</g>
</g>
<!-- Node19&#45;&gt;Node20 -->
<g id="edge24" class="edge">
<title>Node19&#45;&gt;Node20</title>
<path fill="none" stroke="midnightblue" d="M521.79,-247.44C494.85,-234.57 454.44,-215.26 431.24,-204.17"/>
<polygon fill="midnightblue" stroke="midnightblue" points="520.51,-250.71 531.05,-251.87 523.53,-244.4 520.51,-250.71"/>
</g>
<!-- Node21&#45;&gt;Node6 -->
<g id="edge28" class="edge">
<title>Node21&#45;&gt;Node6</title>
<path fill="none" stroke="midnightblue" d="M672.57,-247.62C648.21,-236.63 613.25,-220.84 588.18,-209.53"/>
<polygon fill="midnightblue" stroke="midnightblue" points="671.43,-250.94 681.98,-251.87 674.31,-244.56 671.43,-250.94"/>
</g>
<!-- Node22 -->
<g id="node22" class="node">
<title>Node22</title>
<g id="a_node22"><a xlink:href="modulefactory_8cpp.html" target="_top" xlink:title=" ">
<polygon fill="none" stroke="black" points="636.61,-185 636.61,-204 797.61,-204 797.61,-185 636.61,-185"/>
<text text-anchor="middle" x="717.11" y="-192" font-family="Helvetica,sans-Serif" font-size="10.00">HealthGPS/modulefactory.cpp</text>
</a>
</g>
</g>
<!-- Node21&#45;&gt;Node22 -->
<g id="edge27" class="edge">
<title>Node21&#45;&gt;Node22</title>
<path fill="none" stroke="midnightblue" d="M705.68,-241.91C708.74,-229.49 712.62,-213.72 714.98,-204.13"/>
<polygon fill="midnightblue" stroke="midnightblue" points="702.26,-241.19 703.26,-251.73 709.05,-242.86 702.26,-241.19"/>
</g>
<!-- Node24&#45;&gt;Node6 -->
<g id="edge33" class="edge">
<title>Node24&#45;&gt;Node6</title>
<path fill="none" stroke="midnightblue" d="M784.55,-245.28C734.33,-234.29 667.12,-219.58 618.8,-209"/>
<polygon fill="midnightblue" stroke="midnightblue" points="783.84,-248.71 794.36,-247.42 785.34,-241.87 783.84,-248.71"/>
</g>
<!-- Node25 -->
<g id="node25" class="node">
<title>Node25</title>
<g id="a_node25"><a xlink:href="ses__noise__module_8cpp.html" target="_top" xlink:title=" ">
<polygon fill="none" stroke="black" points="815.61,-179.5 815.61,-209.5 934.61,-209.5 934.61,-179.5 815.61,-179.5"/>
<text text-anchor="start" x="823.61" y="-197.5" font-family="Helvetica,sans-Serif" font-size="10.00">HealthGPS/ses_noise</text>
<text text-anchor="middle" x="875.11" y="-186.5" font-family="Helvetica,sans-Serif" font-size="10.00">_module.cpp</text>
</a>
</g>
</g>
<!-- Node24&#45;&gt;Node25 -->
<g id="edge32" class="edge">
<title>Node24&#45;&gt;Node25</title>
<path fill="none" stroke="midnightblue" d="M861.8,-236.7C864.74,-227.59 868,-217.49 870.56,-209.58"/>
<polygon fill="midnightblue" stroke="midnightblue" points="858.41,-235.8 858.66,-246.4 865.07,-237.96 858.41,-235.8"/>
</g>
<!-- Node26&#45;&gt;Node8 -->
<g id="edge36" class="edge">
<title>Node26&#45;&gt;Node8</title>
<path fill="none" stroke="midnightblue" d="M1122.28,-237.55C1111.84,-219.35 1095.03,-194.49 1074.11,-179 941.35,-80.76 746.22,-36.26 651.61,-19.51"/>
<polygon fill="midnightblue" stroke="midnightblue" points="1119.25,-239.3 1127.15,-246.37 1125.38,-235.92 1119.25,-239.3"/>
</g>
<!-- Node27 -->
<g id="node27" class="node">
<title>Node27</title>
<g id="a_node27"><a xlink:href="model__parser_8cpp.html" target="_top" xlink:title=" ">
<polygon fill="none" stroke="black" points="1121.11,-179.5 1121.11,-209.5 1265.11,-209.5 1265.11,-179.5 1121.11,-179.5"/>
<text text-anchor="start" x="1129.11" y="-197.5" font-family="Helvetica,sans-Serif" font-size="10.00">HealthGPS.Console/model</text>
<text text-anchor="middle" x="1193.11" y="-186.5" font-family="Helvetica,sans-Serif" font-size="10.00">_parser.cpp</text>
</a>
</g>
</g>
<!-- Node26&#45;&gt;Node27 -->
<g id="edge35" class="edge">
<title>Node26&#45;&gt;Node27</title>
<path fill="none" stroke="midnightblue" d="M1153.86,-238.74C1162.59,-229.12 1172.6,-218.09 1180.33,-209.58"/>
<polygon fill="midnightblue" stroke="midnightblue" points="1151.04,-236.64 1146.91,-246.4 1156.22,-241.34 1151.04,-236.64"/>
</g>
</g>
</svg>
