<?xml version="1.0" encoding="UTF-8" standalone="no"?>
<!DOCTYPE svg PUBLIC "-//W3C//DTD SVG 1.1//EN"
 "http://www.w3.org/Graphics/SVG/1.1/DTD/svg11.dtd">
<!-- Generated by graphviz version 2.43.0 (0)
 -->
<!-- Title: HealthGPS/hierarchical_model_static.h Pages: 1 -->
<svg width="506pt" height="419pt"
 viewBox="0.00 0.00 505.50 419.00" xmlns="http://www.w3.org/2000/svg" xmlns:xlink="http://www.w3.org/1999/xlink">
<g id="graph0" class="graph" transform="scale(1 1) rotate(0) translate(4 415)">
<title>HealthGPS/hierarchical_model_static.h</title>
<!-- Node1 -->
<g id="node1" class="node">
<title>Node1</title>
<g id="a_node1"><a xlink:title=" ">
<polygon fill="#bfbfbf" stroke="black" points="174,-380.5 174,-410.5 302,-410.5 302,-380.5 174,-380.5"/>
<text text-anchor="start" x="182" y="-398.5" font-family="Helvetica,sans-Serif" font-size="10.00">HealthGPS/hierarchical</text>
<text text-anchor="middle" x="238" y="-387.5" font-family="Helvetica,sans-Serif" font-size="10.00">_model_static.h</text>
</a>
</g>
</g>
<!-- Node2 -->
<g id="node2" class="node">
<title>Node2</title>
<g id="a_node2"><a xlink:href="hierarchical__model_8h.html" target="_top" xlink:title=" ">
<polygon fill="none" stroke="black" points="101,-313.5 101,-343.5 229,-343.5 229,-313.5 101,-313.5"/>
<text text-anchor="start" x="109" y="-331.5" font-family="Helvetica,sans-Serif" font-size="10.00">HealthGPS/hierarchical</text>
<text text-anchor="middle" x="165" y="-320.5" font-family="Helvetica,sans-Serif" font-size="10.00">_model.h</text>
</a>
</g>
</g>
<!-- Node1&#45;&gt;Node2 -->
<g id="edge1" class="edge">
<title>Node1&#45;&gt;Node2</title>
<path fill="none" stroke="midnightblue" d="M214.53,-373.6C203.5,-363.78 190.66,-352.34 180.81,-343.58"/>
<polygon fill="midnightblue" stroke="midnightblue" points="212.36,-376.36 222.16,-380.4 217.02,-371.13 212.36,-376.36"/>
</g>
<!-- Node14 -->
<g id="node14" class="node">
<title>Node14</title>
<g id="a_node14"><a xlink:href="hierarchical__model__static_8cpp.html" target="_top" xlink:title=" ">
<polygon fill="none" stroke="black" points="247,-313.5 247,-343.5 375,-343.5 375,-313.5 247,-313.5"/>
<text text-anchor="start" x="255" y="-331.5" font-family="Helvetica,sans-Serif" font-size="10.00">HealthGPS/hierarchical</text>
<text text-anchor="middle" x="311" y="-320.5" font-family="Helvetica,sans-Serif" font-size="10.00">_model_static.cpp</text>
</a>
</g>
</g>
<!-- Node1&#45;&gt;Node14 -->
<g id="edge17" class="edge">
<title>Node1&#45;&gt;Node14</title>
<path fill="none" stroke="midnightblue" d="M261.47,-373.6C272.5,-363.78 285.34,-352.34 295.19,-343.58"/>
<polygon fill="midnightblue" stroke="midnightblue" points="258.98,-371.13 253.84,-380.4 263.64,-376.36 258.98,-371.13"/>
</g>
<!-- Node3 -->
<g id="node3" class="node">
<title>Node3</title>
<g id="a_node3"><a xlink:href="healthgps_8cpp.html" target="_top" xlink:title=" ">
<polygon fill="none" stroke="black" points="0,-56.5 0,-75.5 140,-75.5 140,-56.5 0,-56.5"/>
<text text-anchor="middle" x="70" y="-63.5" font-family="Helvetica,sans-Serif" font-size="10.00">HealthGPS/healthgps.cpp</text>
</a>
</g>
</g>
<!-- Node2&#45;&gt;Node3 -->
<g id="edge2" class="edge">
<title>Node2&#45;&gt;Node3</title>
<path fill="none" stroke="midnightblue" d="M124.15,-308.03C111.84,-300.13 99.59,-289.8 92,-277 51.63,-208.88 63.72,-106.21 68.49,-75.79"/>
<polygon fill="midnightblue" stroke="midnightblue" points="122.69,-311.23 133.07,-313.36 126.28,-305.22 122.69,-311.23"/>
</g>
<!-- Node4 -->
<g id="node4" class="node">
<title>Node4</title>
<g id="a_node4"><a xlink:href="hierarchical__model__registry_8h.html" target="_top" xlink:title=" ">
<polygon fill="none" stroke="black" points="101,-246.5 101,-276.5 229,-276.5 229,-246.5 101,-246.5"/>
<text text-anchor="start" x="109" y="-264.5" font-family="Helvetica,sans-Serif" font-size="10.00">HealthGPS/hierarchical</text>
<text text-anchor="middle" x="165" y="-253.5" font-family="Helvetica,sans-Serif" font-size="10.00">_model_registry.h</text>
</a>
</g>
</g>
<!-- Node2&#45;&gt;Node4 -->
<g id="edge3" class="edge">
<title>Node2&#45;&gt;Node4</title>
<path fill="none" stroke="midnightblue" d="M165,-303.11C165,-294.15 165,-284.32 165,-276.58"/>
<polygon fill="midnightblue" stroke="midnightblue" points="161.5,-303.4 165,-313.4 168.5,-303.4 161.5,-303.4"/>
</g>
<!-- Node6 -->
<g id="node6" class="node">
<title>Node6</title>
<g id="a_node6"><a xlink:href="riskfactor_8h.html" target="_top" xlink:title=" ">
<polygon fill="none" stroke="black" points="247,-252 247,-271 373,-271 373,-252 247,-252"/>
<text text-anchor="middle" x="310" y="-259" font-family="Helvetica,sans-Serif" font-size="10.00">HealthGPS/riskfactor.h</text>
</a>
</g>
</g>
<!-- Node2&#45;&gt;Node6 -->
<g id="edge5" class="edge">
<title>Node2&#45;&gt;Node6</title>
<path fill="none" stroke="midnightblue" d="M205.61,-309.3C233.57,-296.76 269.44,-280.68 291.02,-271.01"/>
<polygon fill="midnightblue" stroke="midnightblue" points="204.16,-306.11 196.46,-313.4 207.02,-312.5 204.16,-306.11"/>
</g>
<!-- Node5 -->
<g id="node5" class="node">
<title>Node5</title>
<g id="a_node5"><a xlink:href="riskfactor_8cpp.html" target="_top" xlink:title=" ">
<polygon fill="none" stroke="black" points="101.5,-185 101.5,-204 238.5,-204 238.5,-185 101.5,-185"/>
<text text-anchor="middle" x="170" y="-192" font-family="Helvetica,sans-Serif" font-size="10.00">HealthGPS/riskfactor.cpp</text>
</a>
</g>
</g>
<!-- Node4&#45;&gt;Node5 -->
<g id="edge4" class="edge">
<title>Node4&#45;&gt;Node5</title>
<path fill="none" stroke="midnightblue" d="M166.87,-236.25C167.73,-225.02 168.7,-212.38 169.33,-204.19"/>
<polygon fill="midnightblue" stroke="midnightblue" points="163.36,-236.16 166.08,-246.4 170.34,-236.69 163.36,-236.16"/>
</g>
<!-- Node6&#45;&gt;Node5 -->
<g id="edge6" class="edge">
<title>Node6&#45;&gt;Node5</title>
<path fill="none" stroke="midnightblue" d="M282.24,-247.61C254.51,-234.74 212.66,-215.31 188.67,-204.17"/>
<polygon fill="midnightblue" stroke="midnightblue" points="280.87,-250.83 291.41,-251.87 283.81,-244.48 280.87,-250.83"/>
</g>
<!-- Node7 -->
<g id="node7" class="node">
<title>Node7</title>
<g id="a_node7"><a xlink:href="simulation__module_8h.html" target="_top" xlink:title=" ">
<polygon fill="none" stroke="black" points="257.5,-179.5 257.5,-209.5 380.5,-209.5 380.5,-179.5 257.5,-179.5"/>
<text text-anchor="start" x="265.5" y="-197.5" font-family="Helvetica,sans-Serif" font-size="10.00">HealthGPS/simulation</text>
<text text-anchor="middle" x="319" y="-186.5" font-family="Helvetica,sans-Serif" font-size="10.00">_module.h</text>
</a>
</g>
</g>
<!-- Node6&#45;&gt;Node7 -->
<g id="edge7" class="edge">
<title>Node6&#45;&gt;Node7</title>
<path fill="none" stroke="midnightblue" d="M312.6,-241.74C314.02,-231.49 315.75,-219 317.05,-209.59"/>
<polygon fill="midnightblue" stroke="midnightblue" points="309.12,-241.35 311.21,-251.73 316.05,-242.31 309.12,-241.35"/>
</g>
<!-- Node8 -->
<g id="node8" class="node">
<title>Node8</title>
<g id="a_node8"><a xlink:href="HealthGPS_2api_8h.html" target="_top" xlink:title=" ">
<polygon fill="none" stroke="black" points="362.5,-56.5 362.5,-75.5 457.5,-75.5 457.5,-56.5 362.5,-56.5"/>
<text text-anchor="middle" x="410" y="-63.5" font-family="Helvetica,sans-Serif" font-size="10.00">HealthGPS/api.h</text>
</a>
</g>
</g>
<!-- Node7&#45;&gt;Node8 -->
<g id="edge8" class="edge">
<title>Node7&#45;&gt;Node8</title>
<path fill="none" stroke="midnightblue" d="M357.37,-173.87C369.74,-165.83 382.44,-155.45 391,-143 405.48,-121.93 408.94,-90.82 409.76,-75.78"/>
<polygon fill="midnightblue" stroke="midnightblue" points="355.2,-171.1 348.5,-179.3 358.85,-177.07 355.2,-171.1"/>
</g>
<!-- Node10 -->
<g id="node10" class="node">
<title>Node10</title>
<g id="a_node10"><a xlink:href="healthgps_8h.html" target="_top" xlink:title=" ">
<polygon fill="none" stroke="black" points="112,-118 112,-137 240,-137 240,-118 112,-118"/>
<text text-anchor="middle" x="176" y="-125" font-family="Helvetica,sans-Serif" font-size="10.00">HealthGPS/healthgps.h</text>
</a>
</g>
</g>
<!-- Node7&#45;&gt;Node10 -->
<g id="edge10" class="edge">
<title>Node7&#45;&gt;Node10</title>
<path fill="none" stroke="midnightblue" d="M278.59,-175.13C251.07,-162.62 215.91,-146.64 194.72,-137.01"/>
<polygon fill="midnightblue" stroke="midnightblue" points="277.42,-178.44 287.97,-179.4 280.32,-172.07 277.42,-178.44"/>
</g>
<!-- Node13 -->
<g id="node13" class="node">
<title>Node13</title>
<g id="a_node13"><a xlink:href="simulation__module_8cpp.html" target="_top" xlink:title=" ">
<polygon fill="none" stroke="black" points="258.5,-112.5 258.5,-142.5 381.5,-142.5 381.5,-112.5 258.5,-112.5"/>
<text text-anchor="start" x="266.5" y="-130.5" font-family="Helvetica,sans-Serif" font-size="10.00">HealthGPS/simulation</text>
<text text-anchor="middle" x="320" y="-119.5" font-family="Helvetica,sans-Serif" font-size="10.00">_module.cpp</text>
</a>
</g>
</g>
<!-- Node7&#45;&gt;Node13 -->
<g id="edge16" class="edge">
<title>Node7&#45;&gt;Node13</title>
<path fill="none" stroke="midnightblue" d="M319.38,-169.11C319.51,-160.15 319.66,-150.32 319.78,-142.58"/>
<polygon fill="midnightblue" stroke="midnightblue" points="315.87,-169.34 319.22,-179.4 322.87,-169.45 315.87,-169.34"/>
</g>
<!-- Node9 -->
<g id="node9" class="node">
<title>Node9</title>
<g id="a_node9"><a xlink:href="program_8cpp.html" target="_top" xlink:title=" ">
<polygon fill="none" stroke="black" points="322.5,-0.5 322.5,-19.5 497.5,-19.5 497.5,-0.5 322.5,-0.5"/>
<text text-anchor="middle" x="410" y="-7.5" font-family="Helvetica,sans-Serif" font-size="10.00">HealthGPS.Console/program.cpp</text>
</a>
</g>
</g>
<!-- Node8&#45;&gt;Node9 -->
<g id="edge9" class="edge">
<title>Node8&#45;&gt;Node9</title>
<path fill="none" stroke="midnightblue" d="M410,-45.8C410,-36.91 410,-26.78 410,-19.75"/>
<polygon fill="midnightblue" stroke="midnightblue" points="406.5,-46.08 410,-56.08 413.5,-46.08 406.5,-46.08"/>
</g>
<!-- Node10&#45;&gt;Node3 -->
<g id="edge12" class="edge">
<title>Node10&#45;&gt;Node3</title>
<path fill="none" stroke="midnightblue" d="M152.05,-113.06C131.54,-101.54 102.62,-85.31 85.16,-75.51"/>
<polygon fill="midnightblue" stroke="midnightblue" points="150.38,-116.13 160.81,-117.98 153.81,-110.03 150.38,-116.13"/>
</g>
<!-- Node10&#45;&gt;Node8 -->
<g id="edge11" class="edge">
<title>Node10&#45;&gt;Node8</title>
<path fill="none" stroke="midnightblue" d="M219.38,-115.47C264.82,-103.91 335.21,-86.02 376.54,-75.51"/>
<polygon fill="midnightblue" stroke="midnightblue" points="218.36,-112.12 209.53,-117.98 220.08,-118.9 218.36,-112.12"/>
</g>
<!-- Node11 -->
<g id="node11" class="node">
<title>Node11</title>
<g id="a_node11"><a xlink:href="configuration_8h.html" target="_top" xlink:title=" ">
<polygon fill="none" stroke="black" points="158,-56.5 158,-75.5 344,-75.5 344,-56.5 158,-56.5"/>
<text text-anchor="middle" x="251" y="-63.5" font-family="Helvetica,sans-Serif" font-size="10.00">HealthGPS.Console/configuration.h</text>
</a>
</g>
</g>
<!-- Node10&#45;&gt;Node11 -->
<g id="edge13" class="edge">
<title>Node10&#45;&gt;Node11</title>
<path fill="none" stroke="midnightblue" d="M194.94,-111.47C209.29,-100.09 228.48,-84.87 240.27,-75.51"/>
<polygon fill="midnightblue" stroke="midnightblue" points="192.4,-109.02 186.75,-117.98 196.76,-114.5 192.4,-109.02"/>
</g>
<!-- Node11&#45;&gt;Node9 -->
<g id="edge15" class="edge">
<title>Node11&#45;&gt;Node9</title>
<path fill="none" stroke="midnightblue" d="M285.83,-53.17C315.77,-43 358.22,-28.59 384.92,-19.52"/>
<polygon fill="midnightblue" stroke="midnightblue" points="284.54,-49.91 276.19,-56.44 286.79,-56.54 284.54,-49.91"/>
</g>
<!-- Node12 -->
<g id="node12" class="node">
<title>Node12</title>
<g id="a_node12"><a xlink:href="configuration_8cpp.html" target="_top" xlink:title=" ">
<polygon fill="none" stroke="black" points="107.5,-0.5 107.5,-19.5 304.5,-19.5 304.5,-0.5 107.5,-0.5"/>
<text text-anchor="middle" x="206" y="-7.5" font-family="Helvetica,sans-Serif" font-size="10.00">HealthGPS.Console/configuration.cpp</text>
</a>
</g>
</g>
<!-- Node11&#45;&gt;Node12 -->
<g id="edge14" class="edge">
<title>Node11&#45;&gt;Node12</title>
<path fill="none" stroke="midnightblue" d="M236.95,-48.14C229.11,-38.74 219.67,-27.4 213.29,-19.75"/>
<polygon fill="midnightblue" stroke="midnightblue" points="234.48,-50.64 243.57,-56.08 239.86,-46.16 234.48,-50.64"/>
</g>
</g>
</svg>
