<?xml version="1.0" encoding="UTF-8" standalone="no"?>
<!DOCTYPE svg PUBLIC "-//W3C//DTD SVG 1.1//EN"
 "http://www.w3.org/Graphics/SVG/1.1/DTD/svg11.dtd">
<!-- Generated by graphviz version 7.0.6 (20230106.0513)
 -->
<!-- Title: Graphical Class Hierarchy Pages: 1 -->
<svg width="289pt" height="138pt"
 viewBox="0.00 0.00 289.00 138.00" xmlns="http://www.w3.org/2000/svg" xmlns:xlink="http://www.w3.org/1999/xlink">
<g id="graph0" class="graph" transform="scale(1 1) rotate(0) translate(4 134)">
<title>Graphical Class Hierarchy</title>
<!-- Node0 -->
<g id="node1" class="node">
<title>Node0</title>
<g id="a_node1"><a xlink:href="structhgps_1_1_event_message.html" target="_top" xlink:title="Event message interface.">
<polygon fill="white" stroke="#666666" points="107,-74 0,-74 0,-55 107,-55 107,-74"/>
<text text-anchor="middle" x="53.5" y="-62" font-family="Helvetica,sans-Serif" font-size="10.00">hgps::EventMessage</text>
</a>
</g>
</g>
<!-- Node1 -->
<g id="node2" class="node">
<title>Node1</title>
<g id="a_node2"><a xlink:href="structhgps_1_1_error_event_message.html" target="_top" xlink:title=" ">
<polygon fill="white" stroke="#666666" points="276,-130 148,-130 148,-111 276,-111 276,-130"/>
<text text-anchor="middle" x="212" y="-118" font-family="Helvetica,sans-Serif" font-size="10.00">hgps::ErrorEventMessage</text>
</a>
</g>
</g>
<!-- Node0&#45;&gt;Node1 -->
<g id="edge1" class="edge">
<title>Node0&#45;&gt;Node1</title>
<path fill="none" stroke="#63b8ff" d="M85.58,-79.17C102.35,-86.75 123.55,-95.79 143,-102.5 151.43,-105.41 160.58,-108.12 169.35,-110.51"/>
<polygon fill="#63b8ff" stroke="#63b8ff" points="87.18,-76.06 76.63,-75.07 84.27,-82.42 87.18,-76.06"/>
</g>
<!-- Node2 -->
<g id="node3" class="node">
<title>Node2</title>
<g id="a_node3"><a xlink:href="structhgps_1_1_info_event_message.html" target="_top" xlink:title=" ">
<polygon fill="white" stroke="#666666" points="273,-93 151,-93 151,-74 273,-74 273,-93"/>
<text text-anchor="middle" x="212" y="-81" font-family="Helvetica,sans-Serif" font-size="10.00">hgps::InfoEventMessage</text>
</a>
</g>
</g>
<!-- Node0&#45;&gt;Node2 -->
<g id="edge2" class="edge">
<title>Node0&#45;&gt;Node2</title>
<path fill="none" stroke="#63b8ff" d="M118.72,-72.3C129.23,-73.57 140.1,-74.89 150.52,-76.16"/>
<polygon fill="#63b8ff" stroke="#63b8ff" points="119.34,-68.85 108.99,-71.11 118.49,-75.79 119.34,-68.85"/>
</g>
<!-- Node3 -->
<g id="node4" class="node">
<title>Node3</title>
<g id="a_node4"><a xlink:href="structhgps_1_1_result_event_message.html" target="_top" xlink:title=" ">
<polygon fill="white" stroke="#666666" points="279.5,-56 144.5,-56 144.5,-37 279.5,-37 279.5,-56"/>
<text text-anchor="middle" x="212" y="-44" font-family="Helvetica,sans-Serif" font-size="10.00">hgps::ResultEventMessage</text>
</a>
</g>
</g>
<!-- Node0&#45;&gt;Node3 -->
<g id="edge3" class="edge">
<title>Node0&#45;&gt;Node3</title>
<path fill="none" stroke="#63b8ff" d="M118.75,-57.11C127.15,-56.14 135.76,-55.15 144.2,-54.18"/>
<polygon fill="#63b8ff" stroke="#63b8ff" points="118.52,-53.61 108.99,-58.23 119.32,-60.57 118.52,-53.61"/>
</g>
<!-- Node4 -->
<g id="node5" class="node">
<title>Node4</title>
<g id="a_node5"><a xlink:href="structhgps_1_1_runner_event_message.html" target="_top" xlink:title=" ">
<polygon fill="white" stroke="#666666" points="281,-19 143,-19 143,0 281,0 281,-19"/>
<text text-anchor="middle" x="212" y="-7" font-family="Helvetica,sans-Serif" font-size="10.00">hgps::RunnerEventMessage</text>
</a>
</g>
</g>
<!-- Node0&#45;&gt;Node4 -->
<g id="edge4" class="edge">
<title>Node0&#45;&gt;Node4</title>
<path fill="none" stroke="#63b8ff" d="M87.04,-50.23C103.62,-43.22 124.2,-34.93 143,-28.5 152.39,-25.29 162.65,-22.21 172.29,-19.49"/>
<polygon fill="#63b8ff" stroke="#63b8ff" points="86,-46.87 78.18,-54.02 88.75,-53.3 86,-46.87"/>
</g>
</g>
</svg>
