<?xml version="1.0" encoding="UTF-8" standalone="no"?>
<!DOCTYPE svg PUBLIC "-//W3C//DTD SVG 1.1//EN"
 "http://www.w3.org/Graphics/SVG/1.1/DTD/svg11.dtd">
<!-- Generated by graphviz version 7.0.6 (20230106.0513)
 -->
<!-- Title: Graphical Class Hierarchy Pages: 1 -->
<svg width="634pt" height="175pt"
 viewBox="0.00 0.00 634.00 175.00" xmlns="http://www.w3.org/2000/svg" xmlns:xlink="http://www.w3.org/1999/xlink">
<g id="graph0" class="graph" transform="scale(1 1) rotate(0) translate(4 171)">
<title>Graphical Class Hierarchy</title>
<!-- Node0 -->
<g id="node1" class="node">
<title>Node0</title>
<g id="a_node1"><a xlink:href="classhgps_1_1_simulation_module.html" target="_top" xlink:title="Simulation modules interface.">
<polygon fill="white" stroke="#666666" points="121,-111 0,-111 0,-92 121,-92 121,-111"/>
<text text-anchor="middle" x="60.5" y="-99" font-family="Helvetica,sans-Serif" font-size="10.00">hgps::SimulationModule</text>
</a>
</g>
</g>
<!-- Node1 -->
<g id="node2" class="node">
<title>Node1</title>
<g id="a_node2"><a xlink:href="classhgps_1_1_demographic_module.html" target="_top" xlink:title="Population prospects module interface.">
<polygon fill="white" stroke="#666666" points="289,-148 157,-148 157,-129 289,-129 289,-148"/>
<text text-anchor="middle" x="223" y="-136" font-family="Helvetica,sans-Serif" font-size="10.00">hgps::DemographicModule</text>
</a>
</g>
</g>
<!-- Node0&#45;&gt;Node1 -->
<g id="edge1" class="edge">
<title>Node0&#45;&gt;Node1</title>
<path fill="none" stroke="#63b8ff" d="M115.65,-113.98C136.25,-118.73 159.42,-124.07 178.87,-128.56"/>
<polygon fill="#63b8ff" stroke="#63b8ff" points="116.52,-110.59 105.99,-111.76 114.94,-117.41 116.52,-110.59"/>
</g>
<!-- Node3 -->
<g id="node4" class="node">
<title>Node3</title>
<g id="a_node4"><a xlink:href="classhgps_1_1_updatable_module.html" target="_top" xlink:title="Generic disease module interface to host multiple diseases model.">
<polygon fill="white" stroke="#666666" points="282.5,-93 163.5,-93 163.5,-74 282.5,-74 282.5,-93"/>
<text text-anchor="middle" x="223" y="-81" font-family="Helvetica,sans-Serif" font-size="10.00">hgps::UpdatableModule</text>
</a>
</g>
</g>
<!-- Node0&#45;&gt;Node3 -->
<g id="edge3" class="edge">
<title>Node0&#45;&gt;Node3</title>
<path fill="none" stroke="#63b8ff" d="M132.68,-93.52C142.9,-92.37 153.31,-91.2 163.25,-90.09"/>
<polygon fill="#63b8ff" stroke="#63b8ff" points="132.32,-90.04 122.77,-94.63 133.1,-96.99 132.32,-90.04"/>
</g>
<!-- Node2 -->
<g id="node3" class="node">
<title>Node2</title>
<g id="a_node3"><a xlink:href="classhgps_1_1_population_module.html" target="_top" xlink:title=" ">
<polygon fill="white" stroke="#666666" points="457,-167 336,-167 336,-148 457,-148 457,-167"/>
<text text-anchor="middle" x="396.5" y="-155" font-family="Helvetica,sans-Serif" font-size="10.00">hgps::PopulationModule</text>
</a>
</g>
</g>
<!-- Node1&#45;&gt;Node2 -->
<g id="edge2" class="edge">
<title>Node1&#45;&gt;Node2</title>
<path fill="none" stroke="#63b8ff" d="M300.53,-146.98C312.32,-148.28 324.35,-149.62 335.71,-150.88"/>
<polygon fill="#63b8ff" stroke="#63b8ff" points="301.15,-143.53 290.83,-145.9 300.38,-150.48 301.15,-143.53"/>
</g>
<!-- Node4 -->
<g id="node5" class="node">
<title>Node4</title>
<g id="a_node5"><a xlink:href="classhgps_1_1_analysis_module.html" target="_top" xlink:title=" ">
<polygon fill="white" stroke="#666666" points="453,-130 340,-130 340,-111 453,-111 453,-130"/>
<text text-anchor="middle" x="396.5" y="-118" font-family="Helvetica,sans-Serif" font-size="10.00">hgps::AnalysisModule</text>
</a>
</g>
</g>
<!-- Node3&#45;&gt;Node4 -->
<g id="edge4" class="edge">
<title>Node3&#45;&gt;Node4</title>
<path fill="none" stroke="#63b8ff" d="M280.95,-95.79C303.18,-100.58 328.35,-106.01 349.41,-110.56"/>
<polygon fill="#63b8ff" stroke="#63b8ff" points="281.95,-92.42 271.44,-93.73 280.48,-99.26 281.95,-92.42"/>
</g>
<!-- Node5 -->
<g id="node6" class="node">
<title>Node5</title>
<g id="a_node6"><a xlink:href="classhgps_1_1_disease_host_module.html" target="_top" xlink:title="Generic disease module interface to host multiple disease models.">
<polygon fill="white" stroke="#666666" points="462,-93 331,-93 331,-74 462,-74 462,-93"/>
<text text-anchor="middle" x="396.5" y="-81" font-family="Helvetica,sans-Serif" font-size="10.00">hgps::DiseaseHostModule</text>
</a>
</g>
</g>
<!-- Node3&#45;&gt;Node5 -->
<g id="edge5" class="edge">
<title>Node3&#45;&gt;Node5</title>
<path fill="none" stroke="#63b8ff" d="M294.02,-83.5C306.17,-83.5 318.75,-83.5 330.75,-83.5"/>
<polygon fill="#63b8ff" stroke="#63b8ff" points="294.05,-80 284.05,-83.5 294.05,-87 294.05,-80"/>
</g>
<!-- Node7 -->
<g id="node8" class="node">
<title>Node7</title>
<g id="a_node8"><a xlink:href="classhgps_1_1_risk_factor_host_module.html" target="_top" xlink:title="Generic risk factors module interface to host hierarchical models.">
<polygon fill="white" stroke="#666666" points="468,-56 325,-56 325,-37 468,-37 468,-56"/>
<text text-anchor="middle" x="396.5" y="-44" font-family="Helvetica,sans-Serif" font-size="10.00">hgps::RiskFactorHostModule</text>
</a>
</g>
</g>
<!-- Node3&#45;&gt;Node7 -->
<g id="edge7" class="edge">
<title>Node3&#45;&gt;Node7</title>
<path fill="none" stroke="#63b8ff" d="M280.95,-71.21C303.18,-66.42 328.35,-60.99 349.41,-56.44"/>
<polygon fill="#63b8ff" stroke="#63b8ff" points="280.48,-67.74 271.44,-73.27 281.95,-74.58 280.48,-67.74"/>
</g>
<!-- Node9 -->
<g id="node10" class="node">
<title>Node9</title>
<g id="a_node10"><a xlink:href="classhgps_1_1_s_e_s_noise_module.html" target="_top" xlink:title=" ">
<polygon fill="white" stroke="#666666" points="456.5,-19 336.5,-19 336.5,0 456.5,0 456.5,-19"/>
<text text-anchor="middle" x="396.5" y="-7" font-family="Helvetica,sans-Serif" font-size="10.00">hgps::SESNoiseModule</text>
</a>
</g>
</g>
<!-- Node3&#45;&gt;Node9 -->
<g id="edge9" class="edge">
<title>Node3&#45;&gt;Node9</title>
<path fill="none" stroke="#63b8ff" d="M249.09,-67.67C269.05,-55.62 298.01,-39.31 325,-28.5 333.59,-25.06 343.01,-22.04 352.1,-19.47"/>
<polygon fill="#63b8ff" stroke="#63b8ff" points="247.51,-64.53 240.82,-72.74 251.17,-70.5 247.51,-64.53"/>
</g>
<!-- Node6 -->
<g id="node7" class="node">
<title>Node6</title>
<g id="a_node7"><a xlink:href="classhgps_1_1_disease_module.html" target="_top" xlink:title=" ">
<polygon fill="white" stroke="#666666" points="620,-93 510,-93 510,-74 620,-74 620,-93"/>
<text text-anchor="middle" x="565" y="-81" font-family="Helvetica,sans-Serif" font-size="10.00">hgps::DiseaseModule</text>
</a>
</g>
</g>
<!-- Node5&#45;&gt;Node6 -->
<g id="edge6" class="edge">
<title>Node5&#45;&gt;Node6</title>
<path fill="none" stroke="#63b8ff" d="M473.82,-83.5C485.88,-83.5 498.14,-83.5 509.57,-83.5"/>
<polygon fill="#63b8ff" stroke="#63b8ff" points="473.86,-80 463.86,-83.5 473.86,-87 473.86,-80"/>
</g>
<!-- Node8 -->
<g id="node9" class="node">
<title>Node8</title>
<g id="a_node9"><a xlink:href="classhgps_1_1_risk_factor_module.html" target="_top" xlink:title=" ">
<polygon fill="white" stroke="#666666" points="626,-56 504,-56 504,-37 626,-37 626,-56"/>
<text text-anchor="middle" x="565" y="-44" font-family="Helvetica,sans-Serif" font-size="10.00">hgps::RiskFactorModule</text>
</a>
</g>
</g>
<!-- Node7&#45;&gt;Node8 -->
<g id="edge8" class="edge">
<title>Node7&#45;&gt;Node8</title>
<path fill="none" stroke="#63b8ff" d="M479.51,-46.5C487.61,-46.5 495.72,-46.5 503.54,-46.5"/>
<polygon fill="#63b8ff" stroke="#63b8ff" points="479.62,-43 469.62,-46.5 479.62,-50 479.62,-43"/>
</g>
</g>
</svg>
