<?xml version="1.0" encoding="UTF-8" standalone="no"?>
<!DOCTYPE svg PUBLIC "-//W3C//DTD SVG 1.1//EN"
 "http://www.w3.org/Graphics/SVG/1.1/DTD/svg11.dtd">
<!-- Generated by graphviz version 7.0.6 (20230106.0513)
 -->
<!-- Title: Graphical Class Hierarchy Pages: 1 -->
<svg width="284pt" height="64pt"
 viewBox="0.00 0.00 284.00 64.00" xmlns="http://www.w3.org/2000/svg" xmlns:xlink="http://www.w3.org/1999/xlink">
<g id="graph0" class="graph" transform="scale(1 1) rotate(0) translate(4 60)">
<title>Graphical Class Hierarchy</title>
<!-- Node0 -->
<g id="node1" class="node">
<title>Node0</title>
<g id="a_node1"><a xlink:href="classhgps_1_1_disease_model.html" target="_top" xlink:title="Diseases model interface.">
<polygon fill="white" stroke="#666666" points="105,-37 0,-37 0,-18 105,-18 105,-37"/>
<text text-anchor="middle" x="52.5" y="-25" font-family="Helvetica,sans-Serif" font-size="10.00">hgps::DiseaseModel</text>
</a>
</g>
</g>
<!-- Node1 -->
<g id="node2" class="node">
<title>Node1</title>
<g id="a_node2"><a xlink:href="classhgps_1_1_default_cancer_model.html" target="_top" xlink:title=" ">
<polygon fill="white" stroke="#666666" points="274,-56 143,-56 143,-37 274,-37 274,-56"/>
<text text-anchor="middle" x="208.5" y="-44" font-family="Helvetica,sans-Serif" font-size="10.00">hgps::DefaultCancerModel</text>
</a>
</g>
</g>
<!-- Node0&#45;&gt;Node1 -->
<g id="edge1" class="edge">
<title>Node0&#45;&gt;Node1</title>
<path fill="none" stroke="#63b8ff" d="M116.37,-35.26C124.99,-36.32 133.86,-37.41 142.53,-38.48"/>
<polygon fill="#63b8ff" stroke="#63b8ff" points="117.06,-31.82 106.71,-34.06 116.21,-38.76 117.06,-31.82"/>
</g>
<!-- Node2 -->
<g id="node3" class="node">
<title>Node2</title>
<g id="a_node3"><a xlink:href="classhgps_1_1_default_disease_model.html" target="_top" xlink:title=" ">
<polygon fill="white" stroke="#666666" points="276,-19 141,-19 141,0 276,0 276,-19"/>
<text text-anchor="middle" x="208.5" y="-7" font-family="Helvetica,sans-Serif" font-size="10.00">hgps::DefaultDiseaseModel</text>
</a>
</g>
</g>
<!-- Node0&#45;&gt;Node2 -->
<g id="edge2" class="edge">
<title>Node0&#45;&gt;Node2</title>
<path fill="none" stroke="#63b8ff" d="M116.62,-20.12C124.53,-19.2 132.64,-18.25 140.61,-17.32"/>
<polygon fill="#63b8ff" stroke="#63b8ff" points="116.24,-16.64 106.71,-21.28 117.05,-23.6 116.24,-16.64"/>
</g>
</g>
</svg>
