<?xml version="1.0" encoding="UTF-8" standalone="no"?>
<!DOCTYPE svg PUBLIC "-//W3C//DTD SVG 1.1//EN"
 "http://www.w3.org/Graphics/SVG/1.1/DTD/svg11.dtd">
<!-- Generated by graphviz version 2.43.0 (0)
 -->
<!-- Title: Graphical Class Hierarchy Pages: 1 -->
<svg width="313pt" height="142pt"
 viewBox="0.00 0.00 313.00 142.00" xmlns="http://www.w3.org/2000/svg" xmlns:xlink="http://www.w3.org/1999/xlink">
<g id="graph0" class="graph" transform="scale(1 1) rotate(0) translate(4 138)">
<title>Graphical Class Hierarchy</title>
<!-- Node0 -->
<g id="node1" class="node">
<title>Node0</title>
<g id="a_node1"><a xlink:href="structhgps_1_1EventMessage.html" target="_top" xlink:title="Simulation event messages interface.">
<polygon fill="none" stroke="black" points="0,-57.5 0,-76.5 117,-76.5 117,-57.5 0,-57.5"/>
<text text-anchor="middle" x="58.5" y="-64.5" font-family="Helvetica,sans-Serif" font-size="10.00">hgps::EventMessage</text>
</a>
</g>
</g>
<!-- Node1 -->
<g id="node2" class="node">
<title>Node1</title>
<g id="a_node2"><a xlink:href="structhgps_1_1ErrorEventMessage.html" target="_top" xlink:title="Implements the simulation error event message data type.">
<polygon fill="none" stroke="black" points="159,-114.5 159,-133.5 299,-133.5 299,-114.5 159,-114.5"/>
<text text-anchor="middle" x="229" y="-121.5" font-family="Helvetica,sans-Serif" font-size="10.00">hgps::ErrorEventMessage</text>
</a>
</g>
</g>
<!-- Node0&#45;&gt;Node1 -->
<g id="edge1" class="edge">
<title>Node0&#45;&gt;Node1</title>
<path fill="none" stroke="midnightblue" d="M90.16,-80.71C108.22,-88.47 131.65,-97.99 153,-105 163.59,-108.48 175.2,-111.7 186.05,-114.46"/>
<polygon fill="midnightblue" stroke="midnightblue" points="91.29,-77.39 80.73,-76.61 88.5,-83.8 91.29,-77.39"/>
</g>
<!-- Node2 -->
<g id="node3" class="node">
<title>Node2</title>
<g id="a_node3"><a xlink:href="structhgps_1_1InfoEventMessage.html" target="_top" xlink:title="Implements the simulation information event message data type.">
<polygon fill="none" stroke="black" points="161,-76.5 161,-95.5 297,-95.5 297,-76.5 161,-76.5"/>
<text text-anchor="middle" x="229" y="-83.5" font-family="Helvetica,sans-Serif" font-size="10.00">hgps::InfoEventMessage</text>
</a>
</g>
</g>
<!-- Node0&#45;&gt;Node2 -->
<g id="edge2" class="edge">
<title>Node0&#45;&gt;Node2</title>
<path fill="none" stroke="midnightblue" d="M127.1,-74.62C138.23,-75.88 149.76,-77.18 160.87,-78.43"/>
<polygon fill="midnightblue" stroke="midnightblue" points="127.35,-71.13 117.02,-73.49 126.56,-78.08 127.35,-71.13"/>
</g>
<!-- Node3 -->
<g id="node4" class="node">
<title>Node3</title>
<g id="a_node4"><a xlink:href="structhgps_1_1ResultEventMessage.html" target="_top" xlink:title="Implements the simulation results event message data type.">
<polygon fill="none" stroke="black" points="155,-38.5 155,-57.5 303,-57.5 303,-38.5 155,-38.5"/>
<text text-anchor="middle" x="229" y="-45.5" font-family="Helvetica,sans-Serif" font-size="10.00">hgps::ResultEventMessage</text>
</a>
</g>
</g>
<!-- Node0&#45;&gt;Node3 -->
<g id="edge3" class="edge">
<title>Node0&#45;&gt;Node3</title>
<path fill="none" stroke="midnightblue" d="M127.19,-59.37C136.32,-58.34 145.73,-57.28 154.95,-56.24"/>
<polygon fill="midnightblue" stroke="midnightblue" points="126.56,-55.92 117.02,-60.51 127.35,-62.87 126.56,-55.92"/>
</g>
<!-- Node4 -->
<g id="node5" class="node">
<title>Node4</title>
<g id="a_node5"><a xlink:href="structhgps_1_1RunnerEventMessage.html" target="_top" xlink:title="Implements the simulation executive event message data type.">
<polygon fill="none" stroke="black" points="153,-0.5 153,-19.5 305,-19.5 305,-0.5 153,-0.5"/>
<text text-anchor="middle" x="229" y="-7.5" font-family="Helvetica,sans-Serif" font-size="10.00">hgps::RunnerEventMessage</text>
</a>
</g>
</g>
<!-- Node0&#45;&gt;Node4 -->
<g id="edge4" class="edge">
<title>Node0&#45;&gt;Node4</title>
<path fill="none" stroke="midnightblue" d="M90.16,-53.29C108.22,-45.53 131.65,-36.01 153,-29 163.59,-25.52 175.2,-22.3 186.05,-19.54"/>
<polygon fill="midnightblue" stroke="midnightblue" points="88.5,-50.2 80.73,-57.39 91.29,-56.61 88.5,-50.2"/>
</g>
</g>
</svg>
