<?xml version="1.0" encoding="UTF-8" standalone="no"?>
<!DOCTYPE svg PUBLIC "-//W3C//DTD SVG 1.1//EN"
 "http://www.w3.org/Graphics/SVG/1.1/DTD/svg11.dtd">
<!-- Generated by graphviz version 7.0.6 (20230106.0513)
 -->
<!-- Title: Graphical Class Hierarchy Pages: 1 -->
<svg width="326pt" height="86pt"
 viewBox="0.00 0.00 326.00 86.00" xmlns="http://www.w3.org/2000/svg" xmlns:xlink="http://www.w3.org/1999/xlink">
<g id="graph0" class="graph" transform="scale(1 1) rotate(0) translate(4 82)">
<title>Graphical Class Hierarchy</title>
<!-- Node0 -->
<g id="node1" class="node">
<title>Node0</title>
<g id="a_node1"><a xlink:href="classhgps_1_1_hierarchical_linear_model.html" target="_top" xlink:title="Hierarchical linear model interface.">
<polygon fill="white" stroke="#666666" points="121,-54 0,-54 0,-24 121,-24 121,-54"/>
<text text-anchor="start" x="8" y="-42" font-family="Helvetica,sans-Serif" font-size="10.00">hgps::HierarchicalLinear</text>
<text text-anchor="middle" x="60.5" y="-31" font-family="Helvetica,sans-Serif" font-size="10.00">Model</text>
</a>
</g>
</g>
<!-- Node1 -->
<g id="node2" class="node">
<title>Node1</title>
<g id="a_node2"><a xlink:href="classhgps_1_1_energy_balance_hierarchical_model.html" target="_top" xlink:title=" ">
<polygon fill="white" stroke="#666666" points="318,-78 157,-78 157,-48 318,-48 318,-78"/>
<text text-anchor="start" x="165" y="-66" font-family="Helvetica,sans-Serif" font-size="10.00">hgps::EnergyBalanceHierarchical</text>
<text text-anchor="middle" x="237.5" y="-55" font-family="Helvetica,sans-Serif" font-size="10.00">Model</text>
</a>
</g>
</g>
<!-- Node0&#45;&gt;Node1 -->
<g id="edge1" class="edge">
<title>Node0&#45;&gt;Node1</title>
<path fill="none" stroke="#63b8ff" d="M132.64,-48.76C140.53,-49.84 148.61,-50.95 156.61,-52.04"/>
<polygon fill="#63b8ff" stroke="#63b8ff" points="133.12,-45.29 122.74,-47.4 132.17,-52.22 133.12,-45.29"/>
</g>
<!-- Node2 -->
<g id="node3" class="node">
<title>Node2</title>
<g id="a_node3"><a xlink:href="classhgps_1_1_static_hierarchical_linear_model.html" target="_top" xlink:title=" ">
<polygon fill="white" stroke="#666666" points="297.5,-30 177.5,-30 177.5,0 297.5,0 297.5,-30"/>
<text text-anchor="start" x="185.5" y="-18" font-family="Helvetica,sans-Serif" font-size="10.00">hgps::StaticHierarchical</text>
<text text-anchor="middle" x="237.5" y="-7" font-family="Helvetica,sans-Serif" font-size="10.00">LinearModel</text>
</a>
</g>
</g>
<!-- Node0&#45;&gt;Node2 -->
<g id="edge2" class="edge">
<title>Node0&#45;&gt;Node2</title>
<path fill="none" stroke="#63b8ff" d="M132.4,-29.28C147.22,-27.24 162.69,-25.12 177.03,-23.16"/>
<polygon fill="#63b8ff" stroke="#63b8ff" points="132.17,-25.78 122.74,-30.6 133.12,-32.71 132.17,-25.78"/>
</g>
</g>
</svg>
