<?xml version="1.0" encoding="UTF-8" standalone="no"?>
<!DOCTYPE svg PUBLIC "-//W3C//DTD SVG 1.1//EN"
 "http://www.w3.org/Graphics/SVG/1.1/DTD/svg11.dtd">
<!-- Generated by graphviz version 7.0.6 (20230106.0513)
 -->
<!-- Title: HealthGPS/intervention_scenario.h Pages: 1 -->
<svg width="1228pt" height="170pt"
 viewBox="0.00 0.00 1227.50 170.00" xmlns="http://www.w3.org/2000/svg" xmlns:xlink="http://www.w3.org/1999/xlink">
<g id="graph0" class="graph" transform="scale(1 1) rotate(0) translate(4 166)">
<title>HealthGPS/intervention_scenario.h</title>
<!-- Node1 -->
<g id="node1" class="node">
<title>Node1</title>
<g id="a_node1"><a xlink:title=" ">
<polygon fill="#999999" stroke="#666666" points="685.5,-162 568.5,-162 568.5,-132 685.5,-132 685.5,-162"/>
<text text-anchor="start" x="576.5" y="-150" font-family="Helvetica,sans-Serif" font-size="10.00">HealthGPS/intervention</text>
<text text-anchor="middle" x="627" y="-139" font-family="Helvetica,sans-Serif" font-size="10.00">_scenario.h</text>
</a>
</g>
</g>
<!-- Node2 -->
<g id="node2" class="node">
<title>Node2</title>
<g id="a_node2"><a xlink:href="configuration_8h.html" target="_top" xlink:title=" ">
<polygon fill="white" stroke="#666666" points="1076,-90.5 906,-90.5 906,-71.5 1076,-71.5 1076,-90.5"/>
<text text-anchor="middle" x="991" y="-78.5" font-family="Helvetica,sans-Serif" font-size="10.00">HealthGPS.Console/configuration.h</text>
</a>
</g>
</g>
<!-- Node1&#45;&gt;Node2 -->
<g id="edge1" class="edge">
<title>Node1&#45;&gt;Node2</title>
<path fill="none" stroke="#63b8ff" d="M696.96,-133.7C768.04,-121.2 876.42,-102.15 939.84,-90.99"/>
<polygon fill="#63b8ff" stroke="#63b8ff" points="696.62,-130.21 687.38,-135.38 697.83,-137.1 696.62,-130.21"/>
</g>
<!-- Node5 -->
<g id="node5" class="node">
<title>Node5</title>
<g id="a_node5"><a xlink:href="_health_g_p_s_2api_8h.html" target="_top" xlink:title=" ">
<polygon fill="white" stroke="#666666" points="1183.5,-90.5 1094.5,-90.5 1094.5,-71.5 1183.5,-71.5 1183.5,-90.5"/>
<text text-anchor="middle" x="1139" y="-78.5" font-family="Helvetica,sans-Serif" font-size="10.00">HealthGPS/api.h</text>
</a>
</g>
</g>
<!-- Node1&#45;&gt;Node5 -->
<g id="edge4" class="edge">
<title>Node1&#45;&gt;Node5</title>
<path fill="none" stroke="#63b8ff" d="M697.42,-141.5C787.73,-134.99 948.95,-120.93 1085,-96 1092.34,-94.66 1100.14,-92.85 1107.48,-90.99"/>
<polygon fill="#63b8ff" stroke="#63b8ff" points="697.19,-138 687.47,-142.2 697.69,-144.99 697.19,-138"/>
</g>
<!-- Node6 -->
<g id="node6" class="node">
<title>Node6</title>
<g id="a_node6"><a xlink:href="fiscal__scenario_8h.html" target="_top" xlink:title=" ">
<polygon fill="white" stroke="#666666" points="216.5,-90.5 75.5,-90.5 75.5,-71.5 216.5,-71.5 216.5,-90.5"/>
<text text-anchor="middle" x="146" y="-78.5" font-family="Helvetica,sans-Serif" font-size="10.00">HealthGPS/fiscal_scenario.h</text>
</a>
</g>
</g>
<!-- Node1&#45;&gt;Node6 -->
<g id="edge6" class="edge">
<title>Node1&#45;&gt;Node6</title>
<path fill="none" stroke="#63b8ff" d="M557.33,-138.44C477.05,-129.47 341.24,-113.52 225,-96 215.08,-94.51 204.5,-92.74 194.4,-90.98"/>
<polygon fill="#63b8ff" stroke="#63b8ff" points="556.45,-141.86 566.78,-139.49 557.23,-134.91 556.45,-141.86"/>
</g>
<!-- Node8 -->
<g id="node8" class="node">
<title>Node8</title>
<g id="a_node8"><a xlink:href="food__labelling__scenario_8h.html" target="_top" xlink:title=" ">
<polygon fill="white" stroke="#666666" points="361.5,-96 234.5,-96 234.5,-66 361.5,-66 361.5,-96"/>
<text text-anchor="start" x="242.5" y="-84" font-family="Helvetica,sans-Serif" font-size="10.00">HealthGPS/food_labelling</text>
<text text-anchor="middle" x="298" y="-73" font-family="Helvetica,sans-Serif" font-size="10.00">_scenario.h</text>
</a>
</g>
</g>
<!-- Node1&#45;&gt;Node8 -->
<g id="edge9" class="edge">
<title>Node1&#45;&gt;Node8</title>
<path fill="none" stroke="#63b8ff" d="M556.96,-132.37C499.2,-121.14 417.94,-105.33 361.93,-94.44"/>
<polygon fill="#63b8ff" stroke="#63b8ff" points="556.21,-135.8 566.7,-134.27 557.55,-128.92 556.21,-135.8"/>
</g>
<!-- Node10 -->
<g id="node10" class="node">
<title>Node10</title>
<g id="a_node10"><a xlink:href="marketing__dynamic__scenario_8h.html" target="_top" xlink:title=" ">
<polygon fill="white" stroke="#666666" points="490.5,-96 379.5,-96 379.5,-66 490.5,-66 490.5,-96"/>
<text text-anchor="start" x="387.5" y="-84" font-family="Helvetica,sans-Serif" font-size="10.00">HealthGPS/marketing</text>
<text text-anchor="middle" x="435" y="-73" font-family="Helvetica,sans-Serif" font-size="10.00">_dynamic_scenario.h</text>
</a>
</g>
</g>
<!-- Node1&#45;&gt;Node10 -->
<g id="edge12" class="edge">
<title>Node1&#45;&gt;Node10</title>
<path fill="none" stroke="#63b8ff" d="M573.2,-128.07C543.22,-118.07 506.38,-105.79 478.28,-96.43"/>
<polygon fill="#63b8ff" stroke="#63b8ff" points="571.88,-131.32 582.48,-131.16 574.1,-124.68 571.88,-131.32"/>
</g>
<!-- Node12 -->
<g id="node12" class="node">
<title>Node12</title>
<g id="a_node12"><a xlink:href="marketing__scenario_8h.html" target="_top" xlink:title=" ">
<polygon fill="white" stroke="#666666" points="619.5,-96 508.5,-96 508.5,-66 619.5,-66 619.5,-96"/>
<text text-anchor="start" x="516.5" y="-84" font-family="Helvetica,sans-Serif" font-size="10.00">HealthGPS/marketing</text>
<text text-anchor="middle" x="564" y="-73" font-family="Helvetica,sans-Serif" font-size="10.00">_scenario.h</text>
</a>
</g>
</g>
<!-- Node1&#45;&gt;Node12 -->
<g id="edge15" class="edge">
<title>Node1&#45;&gt;Node12</title>
<path fill="none" stroke="#63b8ff" d="M605.15,-123.81C596.13,-114.64 585.93,-104.28 577.94,-96.16"/>
<polygon fill="#63b8ff" stroke="#63b8ff" points="602.45,-126.05 611.96,-130.72 607.44,-121.14 602.45,-126.05"/>
</g>
<!-- Node14 -->
<g id="node14" class="node">
<title>Node14</title>
<g id="a_node14"><a xlink:href="physical__activity__scenario_8h.html" target="_top" xlink:title=" ">
<polygon fill="white" stroke="#666666" points="742,-96 638,-96 638,-66 742,-66 742,-96"/>
<text text-anchor="start" x="646" y="-84" font-family="Helvetica,sans-Serif" font-size="10.00">HealthGPS/physical</text>
<text text-anchor="middle" x="690" y="-73" font-family="Helvetica,sans-Serif" font-size="10.00">_activity_scenario.h</text>
</a>
</g>
</g>
<!-- Node1&#45;&gt;Node14 -->
<g id="edge18" class="edge">
<title>Node1&#45;&gt;Node14</title>
<path fill="none" stroke="#63b8ff" d="M648.85,-123.81C657.87,-114.64 668.07,-104.28 676.06,-96.16"/>
<polygon fill="#63b8ff" stroke="#63b8ff" points="646.56,-121.14 642.04,-130.72 651.55,-126.05 646.56,-121.14"/>
</g>
<!-- Node16 -->
<g id="node16" class="node">
<title>Node16</title>
<g id="a_node16"><a xlink:href="simple__policy__scenario_8h.html" target="_top" xlink:title=" ">
<polygon fill="white" stroke="#666666" points="888,-96 760,-96 760,-66 888,-66 888,-96"/>
<text text-anchor="start" x="768" y="-84" font-family="Helvetica,sans-Serif" font-size="10.00">HealthGPS/simple_policy</text>
<text text-anchor="middle" x="824" y="-73" font-family="Helvetica,sans-Serif" font-size="10.00">_scenario.h</text>
</a>
</g>
</g>
<!-- Node1&#45;&gt;Node16 -->
<g id="edge21" class="edge">
<title>Node1&#45;&gt;Node16</title>
<path fill="none" stroke="#63b8ff" d="M681.79,-128.2C712.63,-118.18 750.64,-105.83 779.6,-96.43"/>
<polygon fill="#63b8ff" stroke="#63b8ff" points="681.08,-124.75 672.65,-131.17 683.24,-131.41 681.08,-124.75"/>
</g>
<!-- Node3 -->
<g id="node3" class="node">
<title>Node3</title>
<g id="a_node3"><a xlink:href="configuration_8cpp.html" target="_top" xlink:title=" ">
<polygon fill="white" stroke="#666666" points="633,-24.5 453,-24.5 453,-5.5 633,-5.5 633,-24.5"/>
<text text-anchor="middle" x="543" y="-12.5" font-family="Helvetica,sans-Serif" font-size="10.00">HealthGPS.Console/configuration.cpp</text>
</a>
</g>
</g>
<!-- Node2&#45;&gt;Node3 -->
<g id="edge2" class="edge">
<title>Node2&#45;&gt;Node3</title>
<path fill="none" stroke="#63b8ff" d="M919.85,-69.34C912.14,-68.21 904.41,-67.07 897,-66 783.73,-49.57 755.33,-46.01 642,-30 630.48,-28.37 618.22,-26.64 606.38,-24.96"/>
<polygon fill="#63b8ff" stroke="#63b8ff" points="919.18,-72.78 929.59,-70.79 920.21,-65.86 919.18,-72.78"/>
</g>
<!-- Node4 -->
<g id="node4" class="node">
<title>Node4</title>
<g id="a_node4"><a xlink:href="program_8cpp.html" target="_top" xlink:title=" ">
<polygon fill="white" stroke="#666666" points="1219.5,-24.5 1058.5,-24.5 1058.5,-5.5 1219.5,-5.5 1219.5,-24.5"/>
<text text-anchor="middle" x="1139" y="-12.5" font-family="Helvetica,sans-Serif" font-size="10.00">HealthGPS.Console/program.cpp</text>
</a>
</g>
</g>
<!-- Node2&#45;&gt;Node4 -->
<g id="edge3" class="edge">
<title>Node2&#45;&gt;Node4</title>
<path fill="none" stroke="#63b8ff" d="M1021.98,-66.6C1051.02,-54.04 1093.61,-35.63 1118.6,-24.82"/>
<polygon fill="#63b8ff" stroke="#63b8ff" points="1020.76,-63.32 1012.97,-70.5 1023.54,-69.74 1020.76,-63.32"/>
</g>
<!-- Node5&#45;&gt;Node4 -->
<g id="edge5" class="edge">
<title>Node5&#45;&gt;Node4</title>
<path fill="none" stroke="#63b8ff" d="M1139,-59.68C1139,-47.94 1139,-33.77 1139,-24.82"/>
<polygon fill="#63b8ff" stroke="#63b8ff" points="1135.5,-59.59 1139,-69.59 1142.5,-59.59 1135.5,-59.59"/>
</g>
<!-- Node6&#45;&gt;Node3 -->
<g id="edge7" class="edge">
<title>Node6&#45;&gt;Node3</title>
<path fill="none" stroke="#63b8ff" d="M206.74,-69.11C212.91,-68.04 219.08,-66.99 225,-66 315.12,-50.93 419.84,-34.71 483.75,-24.96"/>
<polygon fill="#63b8ff" stroke="#63b8ff" points="206.44,-65.61 197.19,-70.78 207.65,-72.51 206.44,-65.61"/>
</g>
<!-- Node7 -->
<g id="node7" class="node">
<title>Node7</title>
<g id="a_node7"><a xlink:href="fiscal__scenario_8cpp.html" target="_top" xlink:title=" ">
<polygon fill="white" stroke="#666666" points="152,-24.5 0,-24.5 0,-5.5 152,-5.5 152,-24.5"/>
<text text-anchor="middle" x="76" y="-12.5" font-family="Helvetica,sans-Serif" font-size="10.00">HealthGPS/fiscal_scenario.cpp</text>
</a>
</g>
</g>
<!-- Node6&#45;&gt;Node7 -->
<g id="edge8" class="edge">
<title>Node6&#45;&gt;Node7</title>
<path fill="none" stroke="#63b8ff" d="M127.77,-63.33C114.3,-51.02 96.48,-34.73 85.65,-24.82"/>
<polygon fill="#63b8ff" stroke="#63b8ff" points="125.41,-65.92 135.15,-70.08 130.13,-60.75 125.41,-65.92"/>
</g>
<!-- Node8&#45;&gt;Node3 -->
<g id="edge10" class="edge">
<title>Node8&#45;&gt;Node3</title>
<path fill="none" stroke="#63b8ff" d="M364.22,-62.7C410.85,-50.52 471.38,-34.71 508.69,-24.96"/>
<polygon fill="#63b8ff" stroke="#63b8ff" points="363.54,-59.26 354.75,-65.17 365.31,-66.03 363.54,-59.26"/>
</g>
<!-- Node9 -->
<g id="node9" class="node">
<title>Node9</title>
<g id="a_node9"><a xlink:href="food__labelling__scenario_8cpp.html" target="_top" xlink:title=" ">
<polygon fill="white" stroke="#666666" points="297.5,-30 170.5,-30 170.5,0 297.5,0 297.5,-30"/>
<text text-anchor="start" x="178.5" y="-18" font-family="Helvetica,sans-Serif" font-size="10.00">HealthGPS/food_labelling</text>
<text text-anchor="middle" x="234" y="-7" font-family="Helvetica,sans-Serif" font-size="10.00">_scenario.cpp</text>
</a>
</g>
</g>
<!-- Node8&#45;&gt;Node9 -->
<g id="edge11" class="edge">
<title>Node8&#45;&gt;Node9</title>
<path fill="none" stroke="#63b8ff" d="M275.81,-57.81C266.64,-48.64 256.28,-38.28 248.16,-30.16"/>
<polygon fill="#63b8ff" stroke="#63b8ff" points="273.18,-60.13 282.73,-64.73 278.13,-55.18 273.18,-60.13"/>
</g>
<!-- Node10&#45;&gt;Node3 -->
<g id="edge13" class="edge">
<title>Node10&#45;&gt;Node3</title>
<path fill="none" stroke="#63b8ff" d="M469.11,-59.79C488.83,-48.1 512.67,-33.97 527.84,-24.99"/>
<polygon fill="#63b8ff" stroke="#63b8ff" points="467.36,-56.76 460.54,-64.87 470.93,-62.78 467.36,-56.76"/>
</g>
<!-- Node11 -->
<g id="node11" class="node">
<title>Node11</title>
<g id="a_node11"><a xlink:href="marketing__dynamic__scenario_8cpp.html" target="_top" xlink:title=" ">
<polygon fill="white" stroke="#666666" points="434.5,-30 315.5,-30 315.5,0 434.5,0 434.5,-30"/>
<text text-anchor="start" x="323.5" y="-18" font-family="Helvetica,sans-Serif" font-size="10.00">HealthGPS/marketing</text>
<text text-anchor="middle" x="375" y="-7" font-family="Helvetica,sans-Serif" font-size="10.00">_dynamic_scenario.cpp</text>
</a>
</g>
</g>
<!-- Node10&#45;&gt;Node11 -->
<g id="edge14" class="edge">
<title>Node10&#45;&gt;Node11</title>
<path fill="none" stroke="#63b8ff" d="M413.93,-57.53C405.4,-48.43 395.81,-38.19 388.28,-30.16"/>
<polygon fill="#63b8ff" stroke="#63b8ff" points="411.26,-59.79 420.65,-64.69 416.36,-55 411.26,-59.79"/>
</g>
<!-- Node12&#45;&gt;Node3 -->
<g id="edge16" class="edge">
<title>Node12&#45;&gt;Node3</title>
<path fill="none" stroke="#63b8ff" d="M555.77,-54.93C552.29,-44.31 548.45,-32.61 545.9,-24.84"/>
<polygon fill="#63b8ff" stroke="#63b8ff" points="552.42,-55.95 558.87,-64.36 559.08,-53.77 552.42,-55.95"/>
</g>
<!-- Node13 -->
<g id="node13" class="node">
<title>Node13</title>
<g id="a_node13"><a xlink:href="marketing__scenario_8cpp.html" target="_top" xlink:title=" ">
<polygon fill="white" stroke="#666666" points="762.5,-30 651.5,-30 651.5,0 762.5,0 762.5,-30"/>
<text text-anchor="start" x="659.5" y="-18" font-family="Helvetica,sans-Serif" font-size="10.00">HealthGPS/marketing</text>
<text text-anchor="middle" x="707" y="-7" font-family="Helvetica,sans-Serif" font-size="10.00">_scenario.cpp</text>
</a>
</g>
</g>
<!-- Node12&#45;&gt;Node13 -->
<g id="edge17" class="edge">
<title>Node12&#45;&gt;Node13</title>
<path fill="none" stroke="#63b8ff" d="M606.47,-60.99C628.44,-51.16 654.8,-39.36 675.02,-30.31"/>
<polygon fill="#63b8ff" stroke="#63b8ff" points="605.17,-57.74 597.47,-65.02 608.03,-64.13 605.17,-57.74"/>
</g>
<!-- Node14&#45;&gt;Node3 -->
<g id="edge19" class="edge">
<title>Node14&#45;&gt;Node3</title>
<path fill="none" stroke="#63b8ff" d="M646.51,-61.06C619.13,-49.14 585.04,-34.3 563.64,-24.99"/>
<polygon fill="#63b8ff" stroke="#63b8ff" points="645.06,-64.25 655.62,-65.03 647.85,-57.83 645.06,-64.25"/>
</g>
<!-- Node15 -->
<g id="node15" class="node">
<title>Node15</title>
<g id="a_node15"><a xlink:href="physical__activity__scenario_8cpp.html" target="_top" xlink:title=" ">
<polygon fill="white" stroke="#666666" points="893.5,-30 780.5,-30 780.5,0 893.5,0 893.5,-30"/>
<text text-anchor="start" x="788.5" y="-18" font-family="Helvetica,sans-Serif" font-size="10.00">HealthGPS/physical</text>
<text text-anchor="middle" x="837" y="-7" font-family="Helvetica,sans-Serif" font-size="10.00">_activity_scenario.cpp</text>
</a>
</g>
</g>
<!-- Node14&#45;&gt;Node15 -->
<g id="edge20" class="edge">
<title>Node14&#45;&gt;Node15</title>
<path fill="none" stroke="#63b8ff" d="M733.32,-61.14C755.87,-51.32 783.01,-39.51 803.87,-30.43"/>
<polygon fill="#63b8ff" stroke="#63b8ff" points="732.15,-57.83 724.38,-65.03 734.94,-64.25 732.15,-57.83"/>
</g>
<!-- Node16&#45;&gt;Node3 -->
<g id="edge22" class="edge">
<title>Node16&#45;&gt;Node3</title>
<path fill="none" stroke="#63b8ff" d="M749.4,-63.01C695.75,-50.79 625.5,-34.79 582.35,-24.96"/>
<polygon fill="#63b8ff" stroke="#63b8ff" points="748.58,-66.41 759.11,-65.22 750.14,-59.59 748.58,-66.41"/>
</g>
<!-- Node17 -->
<g id="node17" class="node">
<title>Node17</title>
<g id="a_node17"><a xlink:href="simple__policy__scenario_8cpp.html" target="_top" xlink:title=" ">
<polygon fill="white" stroke="#666666" points="1040,-30 912,-30 912,0 1040,0 1040,-30"/>
<text text-anchor="start" x="920" y="-18" font-family="Helvetica,sans-Serif" font-size="10.00">HealthGPS/simple_policy</text>
<text text-anchor="middle" x="976" y="-7" font-family="Helvetica,sans-Serif" font-size="10.00">_scenario.cpp</text>
</a>
</g>
</g>
<!-- Node16&#45;&gt;Node17 -->
<g id="edge23" class="edge">
<title>Node16&#45;&gt;Node17</title>
<path fill="none" stroke="#63b8ff" d="M868.47,-61.27C891.86,-51.43 920.08,-39.55 941.74,-30.43"/>
<polygon fill="#63b8ff" stroke="#63b8ff" points="867.36,-57.94 859.51,-65.05 870.08,-64.39 867.36,-57.94"/>
</g>
</g>
</svg>
