<?xml version="1.0" encoding="UTF-8" standalone="no"?>
<!DOCTYPE svg PUBLIC "-//W3C//DTD SVG 1.1//EN"
 "http://www.w3.org/Graphics/SVG/1.1/DTD/svg11.dtd">
<!-- Generated by graphviz version 2.43.0 (0)
 -->
<!-- Title: HealthGPS/interfaces.h Pages: 1 -->
<svg width="2010pt" height="420pt"
 viewBox="0.00 0.00 2010.17 420.00" xmlns="http://www.w3.org/2000/svg" xmlns:xlink="http://www.w3.org/1999/xlink">
<g id="graph0" class="graph" transform="scale(1 1) rotate(0) translate(4 416)">
<title>HealthGPS/interfaces.h</title>
<!-- Node1 -->
<g id="node1" class="node">
<title>Node1</title>
<g id="a_node1"><a xlink:title=" ">
<polygon fill="#bfbfbf" stroke="black" points="1191.14,-392.5 1191.14,-411.5 1320.14,-411.5 1320.14,-392.5 1191.14,-392.5"/>
<text text-anchor="middle" x="1255.64" y="-399.5" font-family="Helvetica,sans-Serif" font-size="10.00">HealthGPS/interfaces.h</text>
</a>
</g>
</g>
<!-- Node2 -->
<g id="node2" class="node">
<title>Node2</title>
<g id="a_node2"><a xlink:href="randombit__generator_8h.html" target="_top" xlink:title=" ">
<polygon fill="none" stroke="black" points="592.64,-224.5 592.64,-243.5 720.64,-243.5 720.64,-224.5 592.64,-224.5"/>
<text text-anchor="middle" x="656.64" y="-231.5" font-family="Helvetica,sans-Serif" font-size="10.00">randombit_generator.h</text>
</a>
</g>
</g>
<!-- Node1&#45;&gt;Node2 -->
<g id="edge1" class="edge">
<title>Node1&#45;&gt;Node2</title>
<path fill="none" stroke="midnightblue" d="M1210.52,-392.49C1168.01,-384.18 1102.65,-370.69 1046.64,-356 913.91,-321.19 758.93,-269.85 691.23,-246.87"/>
<polygon fill="midnightblue" stroke="midnightblue" points="692.11,-243.47 681.51,-243.56 689.85,-250.1 692.11,-243.47"/>
</g>
<!-- Node5 -->
<g id="node5" class="node">
<title>Node5</title>
<g id="a_node5"><a xlink:href="HealthGPS_8Core_2api_8h.html" target="_top" xlink:title=" ">
<polygon fill="none" stroke="black" points="1055.14,-336.5 1055.14,-355.5 1176.14,-355.5 1176.14,-336.5 1055.14,-336.5"/>
<text text-anchor="middle" x="1115.64" y="-343.5" font-family="Helvetica,sans-Serif" font-size="10.00">HealthGPS.Core/api.h</text>
</a>
</g>
</g>
<!-- Node1&#45;&gt;Node5 -->
<g id="edge4" class="edge">
<title>Node1&#45;&gt;Node5</title>
<path fill="none" stroke="midnightblue" d="M1233.46,-392.44C1210.21,-383.48 1173.49,-369.31 1147.23,-359.18"/>
<polygon fill="midnightblue" stroke="midnightblue" points="1148.31,-355.85 1137.72,-355.52 1145.79,-362.38 1148.31,-355.85"/>
</g>
<!-- Node22 -->
<g id="node22" class="node">
<title>Node22</title>
<g id="a_node22"><a xlink:title=" ">
<polygon fill="none" stroke="#bfbfbf" points="514.64,-112.5 514.64,-131.5 552.64,-131.5 552.64,-112.5 514.64,-112.5"/>
<text text-anchor="middle" x="533.64" y="-119.5" font-family="Helvetica,sans-Serif" font-size="10.00">map</text>
</a>
</g>
</g>
<!-- Node1&#45;&gt;Node22 -->
<g id="edge86" class="edge">
<title>Node1&#45;&gt;Node22</title>
<path fill="none" stroke="midnightblue" d="M1320.25,-397.99C1498.41,-388.84 1983.64,-357.79 1983.64,-291 1983.64,-291 1983.64,-291 1983.64,-233 1983.64,-181.84 1937.26,-183.93 1888.64,-168 1856.02,-157.31 757.14,-128.72 562.85,-123.74"/>
<polygon fill="midnightblue" stroke="midnightblue" points="562.9,-120.24 552.81,-123.49 562.72,-127.24 562.9,-120.24"/>
</g>
<!-- Node30 -->
<g id="node30" class="node">
<title>Node30</title>
<g id="a_node30"><a xlink:title=" ">
<polygon fill="none" stroke="#bfbfbf" points="1370.64,-168.5 1370.64,-187.5 1428.64,-187.5 1428.64,-168.5 1370.64,-168.5"/>
<text text-anchor="middle" x="1399.64" y="-175.5" font-family="Helvetica,sans-Serif" font-size="10.00">memory</text>
</a>
</g>
</g>
<!-- Node1&#45;&gt;Node30 -->
<g id="edge87" class="edge">
<title>Node1&#45;&gt;Node30</title>
<path fill="none" stroke="midnightblue" d="M1261.29,-392.3C1282.7,-359.29 1359.16,-241.4 1388.28,-196.52"/>
<polygon fill="midnightblue" stroke="midnightblue" points="1391.37,-198.18 1393.88,-187.88 1385.5,-194.37 1391.37,-198.18"/>
</g>
<!-- Node3 -->
<g id="node3" class="node">
<title>Node3</title>
<g id="a_node3"><a xlink:title=" ">
<polygon fill="none" stroke="#bfbfbf" points="658.64,-168.5 658.64,-187.5 702.64,-187.5 702.64,-168.5 658.64,-168.5"/>
<text text-anchor="middle" x="680.64" y="-175.5" font-family="Helvetica,sans-Serif" font-size="10.00">limits</text>
</a>
</g>
</g>
<!-- Node2&#45;&gt;Node3 -->
<g id="edge2" class="edge">
<title>Node2&#45;&gt;Node3</title>
<path fill="none" stroke="midnightblue" d="M660.6,-224.08C663.85,-216.77 668.56,-206.18 672.59,-197.1"/>
<polygon fill="midnightblue" stroke="midnightblue" points="675.89,-198.31 676.75,-187.75 669.49,-195.47 675.89,-198.31"/>
</g>
<!-- Node4 -->
<g id="node4" class="node">
<title>Node4</title>
<g id="a_node4"><a xlink:title=" ">
<polygon fill="none" stroke="#bfbfbf" points="885.14,-112.5 885.14,-131.5 932.14,-131.5 932.14,-112.5 885.14,-112.5"/>
<text text-anchor="middle" x="908.64" y="-119.5" font-family="Helvetica,sans-Serif" font-size="10.00">vector</text>
</a>
</g>
</g>
<!-- Node2&#45;&gt;Node4 -->
<g id="edge3" class="edge">
<title>Node2&#45;&gt;Node4</title>
<path fill="none" stroke="midnightblue" d="M650.48,-224.33C641.65,-210.73 627.88,-184.27 641.64,-168 671.11,-133.15 809.5,-125.28 874.62,-123.51"/>
<polygon fill="midnightblue" stroke="midnightblue" points="874.86,-127 884.78,-123.27 874.7,-120.01 874.86,-127"/>
</g>
<!-- Node6 -->
<g id="node6" class="node">
<title>Node6</title>
<g id="a_node6"><a xlink:href="version_8h.html" target="_top" xlink:title=" ">
<polygon fill="none" stroke="black" points="196.64,-280.5 196.64,-299.5 258.64,-299.5 258.64,-280.5 196.64,-280.5"/>
<text text-anchor="middle" x="227.64" y="-287.5" font-family="Helvetica,sans-Serif" font-size="10.00">version.h</text>
</a>
</g>
</g>
<!-- Node5&#45;&gt;Node6 -->
<g id="edge5" class="edge">
<title>Node5&#45;&gt;Node6</title>
<path fill="none" stroke="midnightblue" d="M1054.95,-341.31C885.73,-331.02 411.71,-302.19 268.88,-293.51"/>
<polygon fill="midnightblue" stroke="midnightblue" points="268.98,-290.01 258.79,-292.89 268.56,-296.99 268.98,-290.01"/>
</g>
<!-- Node8 -->
<g id="node8" class="node">
<title>Node8</title>
<g id="a_node8"><a xlink:href="datastore_8h.html" target="_top" xlink:title=" ">
<polygon fill="none" stroke="black" points="984.64,-280.5 984.64,-299.5 1056.64,-299.5 1056.64,-280.5 984.64,-280.5"/>
<text text-anchor="middle" x="1020.64" y="-287.5" font-family="Helvetica,sans-Serif" font-size="10.00">datastore.h</text>
</a>
</g>
</g>
<!-- Node5&#45;&gt;Node8 -->
<g id="edge7" class="edge">
<title>Node5&#45;&gt;Node8</title>
<path fill="none" stroke="midnightblue" d="M1100.38,-336.32C1085.42,-327.82 1062.39,-314.73 1044.91,-304.8"/>
<polygon fill="midnightblue" stroke="midnightblue" points="1046.29,-301.55 1035.87,-299.65 1042.83,-307.64 1046.29,-301.55"/>
</g>
<!-- Node10 -->
<g id="node10" class="node">
<title>Node10</title>
<g id="a_node10"><a xlink:href="interval_8h.html" target="_top" xlink:title=" ">
<polygon fill="none" stroke="black" points="1425.14,-224.5 1425.14,-243.5 1488.14,-243.5 1488.14,-224.5 1425.14,-224.5"/>
<text text-anchor="middle" x="1456.64" y="-231.5" font-family="Helvetica,sans-Serif" font-size="10.00">interval.h</text>
</a>
</g>
</g>
<!-- Node5&#45;&gt;Node10 -->
<g id="edge71" class="edge">
<title>Node5&#45;&gt;Node10</title>
<path fill="none" stroke="midnightblue" d="M1147.05,-336.49C1176.86,-328.14 1222.77,-314.57 1261.64,-300 1282.14,-292.32 1286.12,-287.6 1306.64,-280 1342.72,-266.63 1384.74,-254.29 1415.11,-245.93"/>
<polygon fill="midnightblue" stroke="midnightblue" points="1416.22,-249.26 1424.94,-243.25 1414.37,-242.51 1416.22,-249.26"/>
</g>
<!-- Node17 -->
<g id="node17" class="node">
<title>Node17</title>
<g id="a_node17"><a xlink:href="poco_8h.html" target="_top" xlink:title=" ">
<polygon fill="none" stroke="black" points="337.14,-224.5 337.14,-243.5 386.14,-243.5 386.14,-224.5 337.14,-224.5"/>
<text text-anchor="middle" x="361.64" y="-231.5" font-family="Helvetica,sans-Serif" font-size="10.00">poco.h</text>
</a>
</g>
</g>
<!-- Node5&#45;&gt;Node17 -->
<g id="edge85" class="edge">
<title>Node5&#45;&gt;Node17</title>
<path fill="none" stroke="midnightblue" d="M1057.1,-336.46C907.64,-314.66 515.35,-257.42 396.35,-240.06"/>
<polygon fill="midnightblue" stroke="midnightblue" points="396.74,-236.58 386.34,-238.6 395.73,-243.51 396.74,-236.58"/>
</g>
<!-- Node23 -->
<g id="node23" class="node">
<title>Node23</title>
<g id="a_node23"><a xlink:href="identifier_8h.html" target="_top" xlink:title=" ">
<polygon fill="none" stroke="black" points="234.64,-112.5 234.64,-131.5 302.64,-131.5 302.64,-112.5 234.64,-112.5"/>
<text text-anchor="middle" x="268.64" y="-119.5" font-family="Helvetica,sans-Serif" font-size="10.00">identifier.h</text>
</a>
</g>
</g>
<!-- Node5&#45;&gt;Node23 -->
<g id="edge84" class="edge">
<title>Node5&#45;&gt;Node23</title>
<path fill="none" stroke="midnightblue" d="M1055.04,-344.14C854.01,-341.03 219.98,-328.94 187.64,-300 143.52,-260.52 137.59,-217.78 169.64,-168 181.85,-149.04 204.22,-137.97 224.61,-131.57"/>
<polygon fill="midnightblue" stroke="midnightblue" points="225.75,-134.88 234.41,-128.78 223.83,-128.15 225.75,-134.88"/>
</g>
<!-- Node28 -->
<g id="node28" class="node">
<title>Node28</title>
<g id="a_node28"><a xlink:href="visitor_8h.html" target="_top" xlink:title=" ">
<polygon fill="none" stroke="black" points="1606.64,-112.5 1606.64,-131.5 1662.64,-131.5 1662.64,-112.5 1606.64,-112.5"/>
<text text-anchor="middle" x="1634.64" y="-119.5" font-family="Helvetica,sans-Serif" font-size="10.00">visitor.h</text>
</a>
</g>
</g>
<!-- Node5&#45;&gt;Node28 -->
<g id="edge41" class="edge">
<title>Node5&#45;&gt;Node28</title>
<path fill="none" stroke="midnightblue" d="M1176.15,-344.17C1358.42,-340.22 1895.91,-317.61 1997.64,-188 2038.68,-135.71 1774.31,-125.48 1672.99,-123.48"/>
<polygon fill="midnightblue" stroke="midnightblue" points="1672.92,-119.98 1662.86,-123.3 1672.8,-126.98 1672.92,-119.98"/>
</g>
<!-- Node29 -->
<g id="node29" class="node">
<title>Node29</title>
<g id="a_node29"><a xlink:href="datatable_8h.html" target="_top" xlink:title=" ">
<polygon fill="none" stroke="black" points="882.64,-224.5 882.64,-243.5 954.64,-243.5 954.64,-224.5 882.64,-224.5"/>
<text text-anchor="middle" x="918.64" y="-231.5" font-family="Helvetica,sans-Serif" font-size="10.00">datatable.h</text>
</a>
</g>
</g>
<!-- Node5&#45;&gt;Node29 -->
<g id="edge43" class="edge">
<title>Node5&#45;&gt;Node29</title>
<path fill="none" stroke="midnightblue" d="M1068.42,-336.5C1039.88,-329.79 1003.71,-318.42 975.64,-300 956.7,-287.57 940.28,-267.2 929.99,-252.58"/>
<polygon fill="midnightblue" stroke="midnightblue" points="932.65,-250.26 924.15,-243.94 926.85,-254.18 932.65,-250.26"/>
</g>
<!-- Node37 -->
<g id="node37" class="node">
<title>Node37</title>
<g id="a_node37"><a xlink:href="column__numeric_8h.html" target="_top" xlink:title=" ">
<polygon fill="none" stroke="black" points="1145.14,-280.5 1145.14,-299.5 1252.14,-299.5 1252.14,-280.5 1145.14,-280.5"/>
<text text-anchor="middle" x="1198.64" y="-287.5" font-family="Helvetica,sans-Serif" font-size="10.00">column_numeric.h</text>
</a>
</g>
</g>
<!-- Node5&#45;&gt;Node37 -->
<g id="edge56" class="edge">
<title>Node5&#45;&gt;Node37</title>
<path fill="none" stroke="midnightblue" d="M1128.98,-336.32C1141.8,-327.98 1161.43,-315.21 1176.58,-305.35"/>
<polygon fill="midnightblue" stroke="midnightblue" points="1178.87,-308.04 1185.34,-299.65 1175.05,-302.17 1178.87,-308.04"/>
</g>
<!-- Node39 -->
<g id="node39" class="node">
<title>Node39</title>
<g id="a_node39"><a xlink:href="column__iterator_8h.html" target="_top" xlink:title=" ">
<polygon fill="none" stroke="black" points="1522.64,-168.5 1522.64,-187.5 1624.64,-187.5 1624.64,-168.5 1522.64,-168.5"/>
<text text-anchor="middle" x="1573.64" y="-175.5" font-family="Helvetica,sans-Serif" font-size="10.00">column_iterator.h</text>
</a>
</g>
</g>
<!-- Node5&#45;&gt;Node39 -->
<g id="edge70" class="edge">
<title>Node5&#45;&gt;Node39</title>
<path fill="none" stroke="midnightblue" d="M1152.75,-336.47C1189.64,-327.84 1247.77,-313.83 1297.64,-300 1326.77,-291.92 1333.59,-288.34 1362.64,-280 1422.33,-262.87 1442.68,-272.9 1497.64,-244 1521.76,-231.32 1544.87,-209.76 1559.14,-194.97"/>
<polygon fill="midnightblue" stroke="midnightblue" points="1561.82,-197.24 1566.11,-187.55 1556.71,-192.44 1561.82,-197.24"/>
</g>
<!-- Node41 -->
<g id="node41" class="node">
<title>Node41</title>
<g id="a_node41"><a xlink:href="column__builder_8h.html" target="_top" xlink:title=" ">
<polygon fill="none" stroke="black" points="1065.64,-224.5 1065.64,-243.5 1165.64,-243.5 1165.64,-224.5 1065.64,-224.5"/>
<text text-anchor="middle" x="1115.64" y="-231.5" font-family="Helvetica,sans-Serif" font-size="10.00">column_builder.h</text>
</a>
</g>
</g>
<!-- Node5&#45;&gt;Node41 -->
<g id="edge64" class="edge">
<title>Node5&#45;&gt;Node41</title>
<path fill="none" stroke="midnightblue" d="M1115.64,-336.37C1115.64,-318.62 1115.64,-277.67 1115.64,-253.6"/>
<polygon fill="midnightblue" stroke="midnightblue" points="1119.14,-253.59 1115.64,-243.59 1112.14,-253.59 1119.14,-253.59"/>
</g>
<!-- Node43 -->
<g id="node43" class="node">
<title>Node43</title>
<g id="a_node43"><a xlink:href="array2d_8h.html" target="_top" xlink:title=" ">
<polygon fill="none" stroke="black" points="1696.14,-224.5 1696.14,-243.5 1759.14,-243.5 1759.14,-224.5 1696.14,-224.5"/>
<text text-anchor="middle" x="1727.64" y="-231.5" font-family="Helvetica,sans-Serif" font-size="10.00">array2d.h</text>
</a>
</g>
</g>
<!-- Node5&#45;&gt;Node43 -->
<g id="edge72" class="edge">
<title>Node5&#45;&gt;Node43</title>
<path fill="none" stroke="midnightblue" d="M1163.15,-336.46C1279.33,-315.58 1576.24,-262.21 1686.02,-242.48"/>
<polygon fill="midnightblue" stroke="midnightblue" points="1686.83,-245.89 1696.05,-240.68 1685.59,-239 1686.83,-245.89"/>
</g>
<!-- Node46 -->
<g id="node46" class="node">
<title>Node46</title>
<g id="a_node46"><a xlink:href="univariate__summary_8h.html" target="_top" xlink:title=" ">
<polygon fill="none" stroke="black" points="739.14,-224.5 739.14,-243.5 864.14,-243.5 864.14,-224.5 739.14,-224.5"/>
<text text-anchor="middle" x="801.64" y="-231.5" font-family="Helvetica,sans-Serif" font-size="10.00">univariate_summary.h</text>
</a>
</g>
</g>
<!-- Node5&#45;&gt;Node46 -->
<g id="edge80" class="edge">
<title>Node5&#45;&gt;Node46</title>
<path fill="none" stroke="midnightblue" d="M1077.33,-336.44C1043.15,-328.39 991.96,-315.31 948.64,-300 905.38,-284.71 857.06,-262.25 828.01,-248.13"/>
<polygon fill="midnightblue" stroke="midnightblue" points="829.46,-244.95 818.94,-243.69 826.38,-251.23 829.46,-244.95"/>
</g>
<!-- Node7 -->
<g id="node7" class="node">
<title>Node7</title>
<g id="a_node7"><a xlink:title=" ">
<polygon fill="none" stroke="#bfbfbf" points="388.64,-56.5 388.64,-75.5 432.64,-75.5 432.64,-56.5 388.64,-56.5"/>
<text text-anchor="middle" x="410.64" y="-63.5" font-family="Helvetica,sans-Serif" font-size="10.00">string</text>
</a>
</g>
</g>
<!-- Node6&#45;&gt;Node7 -->
<g id="edge6" class="edge">
<title>Node6&#45;&gt;Node7</title>
<path fill="none" stroke="midnightblue" d="M200.7,-280.45C129.84,-256.65 -51.88,-186.51 14.64,-112 26.75,-98.44 285.9,-76.81 378.29,-69.51"/>
<polygon fill="midnightblue" stroke="midnightblue" points="378.75,-72.98 388.45,-68.71 378.21,-66 378.75,-72.98"/>
</g>
<!-- Node8&#45;&gt;Node4 -->
<g id="edge8" class="edge">
<title>Node8&#45;&gt;Node4</title>
<path fill="none" stroke="midnightblue" d="M1021.81,-280.36C1024.2,-258.99 1027.48,-202.85 1001.64,-168 993.9,-157.55 965.08,-144.5 941.55,-135.15"/>
<polygon fill="midnightblue" stroke="midnightblue" points="942.79,-131.87 932.2,-131.51 940.25,-138.4 942.79,-131.87"/>
</g>
<!-- Node9 -->
<g id="node9" class="node">
<title>Node9</title>
<g id="a_node9"><a xlink:title=" ">
<polygon fill="none" stroke="#bfbfbf" points="936.64,-168.5 936.64,-187.5 992.64,-187.5 992.64,-168.5 936.64,-168.5"/>
<text text-anchor="middle" x="964.64" y="-175.5" font-family="Helvetica,sans-Serif" font-size="10.00">optional</text>
</a>
</g>
</g>
<!-- Node8&#45;&gt;Node9 -->
<g id="edge9" class="edge">
<title>Node8&#45;&gt;Node9</title>
<path fill="none" stroke="midnightblue" d="M1016.25,-280.37C1007.09,-262.38 985.79,-220.55 973.61,-196.63"/>
<polygon fill="midnightblue" stroke="midnightblue" points="976.67,-194.92 969.01,-187.59 970.43,-198.09 976.67,-194.92"/>
</g>
<!-- Node8&#45;&gt;Node10 -->
<g id="edge10" class="edge">
<title>Node8&#45;&gt;Node10</title>
<path fill="none" stroke="midnightblue" d="M1056.69,-284.54C1136.89,-274.6 1329.71,-250.72 1414.93,-240.17"/>
<polygon fill="midnightblue" stroke="midnightblue" points="1415.52,-243.62 1425.02,-238.92 1414.66,-236.67 1415.52,-243.62"/>
</g>
<!-- Node8&#45;&gt;Node17 -->
<g id="edge18" class="edge">
<title>Node8&#45;&gt;Node17</title>
<path fill="none" stroke="midnightblue" d="M984.27,-286.02C868.6,-276.54 510.17,-247.17 396.56,-237.86"/>
<polygon fill="midnightblue" stroke="midnightblue" points="396.6,-234.35 386.34,-237.02 396.02,-241.33 396.6,-234.35"/>
</g>
<!-- Node11 -->
<g id="node11" class="node">
<title>Node11</title>
<g id="a_node11"><a xlink:href="forward__type_8h.html" target="_top" xlink:title=" ">
<polygon fill="none" stroke="black" points="1449.64,-56.5 1449.64,-75.5 1539.64,-75.5 1539.64,-56.5 1449.64,-56.5"/>
<text text-anchor="middle" x="1494.64" y="-63.5" font-family="Helvetica,sans-Serif" font-size="10.00">forward_type.h</text>
</a>
</g>
</g>
<!-- Node10&#45;&gt;Node11 -->
<g id="edge11" class="edge">
<title>Node10&#45;&gt;Node11</title>
<path fill="none" stroke="midnightblue" d="M1458.68,-224.08C1464.67,-197.95 1482.23,-121.21 1490.39,-85.58"/>
<polygon fill="midnightblue" stroke="midnightblue" points="1493.86,-86.1 1492.68,-75.57 1487.04,-84.53 1493.86,-86.1"/>
</g>
<!-- Node14 -->
<g id="node14" class="node">
<title>Node14</title>
<g id="a_node14"><a xlink:href="string__util_8h.html" target="_top" xlink:title=" ">
<polygon fill="none" stroke="black" points="1286.64,-112.5 1286.64,-131.5 1360.64,-131.5 1360.64,-112.5 1286.64,-112.5"/>
<text text-anchor="middle" x="1323.64" y="-119.5" font-family="Helvetica,sans-Serif" font-size="10.00">string_util.h</text>
</a>
</g>
</g>
<!-- Node10&#45;&gt;Node14 -->
<g id="edge14" class="edge">
<title>Node10&#45;&gt;Node14</title>
<path fill="none" stroke="midnightblue" d="M1456.44,-224.26C1455.66,-210.57 1452.22,-183.98 1437.64,-168 1420.28,-148.97 1393.84,-137.87 1370.79,-131.46"/>
<polygon fill="midnightblue" stroke="midnightblue" points="1371.38,-128 1360.82,-128.92 1369.64,-134.78 1371.38,-128"/>
</g>
<!-- Node16 -->
<g id="node16" class="node">
<title>Node16</title>
<g id="a_node16"><a xlink:title=" ">
<polygon fill="none" stroke="#bfbfbf" points="1643.14,-168.5 1643.14,-187.5 1722.14,-187.5 1722.14,-168.5 1643.14,-168.5"/>
<text text-anchor="middle" x="1682.64" y="-175.5" font-family="Helvetica,sans-Serif" font-size="10.00">fmt/format.h</text>
</a>
</g>
</g>
<!-- Node10&#45;&gt;Node16 -->
<g id="edge17" class="edge">
<title>Node10&#45;&gt;Node16</title>
<path fill="none" stroke="midnightblue" d="M1488.54,-225.38C1527.26,-216.13 1592.83,-200.46 1636.91,-189.93"/>
<polygon fill="midnightblue" stroke="midnightblue" points="1637.89,-193.29 1646.8,-187.56 1636.26,-186.48 1637.89,-193.29"/>
</g>
<!-- Node12 -->
<g id="node12" class="node">
<title>Node12</title>
<g id="a_node12"><a xlink:title=" ">
<polygon fill="none" stroke="#bfbfbf" points="1421.14,-0.5 1421.14,-19.5 1490.14,-19.5 1490.14,-0.5 1421.14,-0.5"/>
<text text-anchor="middle" x="1455.64" y="-7.5" font-family="Helvetica,sans-Serif" font-size="10.00">type_traits</text>
</a>
</g>
</g>
<!-- Node11&#45;&gt;Node12 -->
<g id="edge12" class="edge">
<title>Node11&#45;&gt;Node12</title>
<path fill="none" stroke="midnightblue" d="M1488.2,-56.08C1482.69,-48.46 1474.61,-37.26 1467.88,-27.94"/>
<polygon fill="midnightblue" stroke="midnightblue" points="1470.65,-25.81 1461.96,-19.75 1464.98,-29.91 1470.65,-25.81"/>
</g>
<!-- Node13 -->
<g id="node13" class="node">
<title>Node13</title>
<g id="a_node13"><a xlink:title=" ">
<polygon fill="none" stroke="#bfbfbf" points="1508.64,-0.5 1508.64,-19.5 1558.64,-19.5 1558.64,-0.5 1508.64,-0.5"/>
<text text-anchor="middle" x="1533.64" y="-7.5" font-family="Helvetica,sans-Serif" font-size="10.00">cstdint</text>
</a>
</g>
</g>
<!-- Node11&#45;&gt;Node13 -->
<g id="edge13" class="edge">
<title>Node11&#45;&gt;Node13</title>
<path fill="none" stroke="midnightblue" d="M1501.08,-56.08C1506.59,-48.46 1514.67,-37.26 1521.41,-27.94"/>
<polygon fill="midnightblue" stroke="midnightblue" points="1524.3,-29.91 1527.32,-19.75 1518.63,-25.81 1524.3,-29.91"/>
</g>
<!-- Node14&#45;&gt;Node7 -->
<g id="edge15" class="edge">
<title>Node14&#45;&gt;Node7</title>
<path fill="none" stroke="midnightblue" d="M1286.56,-113.28C1283.55,-112.79 1280.55,-112.36 1277.64,-112 953.75,-72.11 557.55,-67.51 443.04,-67.03"/>
<polygon fill="midnightblue" stroke="midnightblue" points="442.86,-63.53 432.85,-67 442.84,-70.53 442.86,-63.53"/>
</g>
<!-- Node15 -->
<g id="node15" class="node">
<title>Node15</title>
<g id="a_node15"><a xlink:title=" ">
<polygon fill="none" stroke="#bfbfbf" points="871.14,-56.5 871.14,-75.5 936.14,-75.5 936.14,-56.5 871.14,-56.5"/>
<text text-anchor="middle" x="903.64" y="-63.5" font-family="Helvetica,sans-Serif" font-size="10.00">functional</text>
</a>
</g>
</g>
<!-- Node14&#45;&gt;Node15 -->
<g id="edge16" class="edge">
<title>Node14&#45;&gt;Node15</title>
<path fill="none" stroke="midnightblue" d="M1286.53,-113.5C1283.52,-112.96 1280.53,-112.46 1277.64,-112 1158.13,-93.14 1016.03,-78.04 946.41,-71.11"/>
<polygon fill="midnightblue" stroke="midnightblue" points="946.57,-67.61 936.27,-70.11 945.88,-74.58 946.57,-67.61"/>
</g>
<!-- Node18 -->
<g id="node18" class="node">
<title>Node18</title>
<g id="a_node18"><a xlink:href="country_8h.html" target="_top" xlink:title=" ">
<polygon fill="none" stroke="black" points="321.14,-112.5 321.14,-131.5 382.14,-131.5 382.14,-112.5 321.14,-112.5"/>
<text text-anchor="middle" x="351.64" y="-119.5" font-family="Helvetica,sans-Serif" font-size="10.00">country.h</text>
</a>
</g>
</g>
<!-- Node17&#45;&gt;Node18 -->
<g id="edge19" class="edge">
<title>Node17&#45;&gt;Node18</title>
<path fill="none" stroke="midnightblue" d="M360.86,-224.37C359.24,-206.62 355.52,-165.67 353.33,-141.6"/>
<polygon fill="midnightblue" stroke="midnightblue" points="356.81,-141.23 352.42,-131.59 349.84,-141.87 356.81,-141.23"/>
</g>
<!-- Node19 -->
<g id="node19" class="node">
<title>Node19</title>
<g id="a_node19"><a xlink:href="population__item_8h.html" target="_top" xlink:title=" ">
<polygon fill="none" stroke="black" points="179.14,-168.5 179.14,-187.5 284.14,-187.5 284.14,-168.5 179.14,-168.5"/>
<text text-anchor="middle" x="231.64" y="-175.5" font-family="Helvetica,sans-Serif" font-size="10.00">population_item.h</text>
</a>
</g>
</g>
<!-- Node17&#45;&gt;Node19 -->
<g id="edge21" class="edge">
<title>Node17&#45;&gt;Node19</title>
<path fill="none" stroke="midnightblue" d="M341.04,-224.44C319.65,-215.56 285.96,-201.56 261.62,-191.45"/>
<polygon fill="midnightblue" stroke="midnightblue" points="262.72,-188.12 252.14,-187.52 260.04,-194.58 262.72,-188.12"/>
</g>
<!-- Node21 -->
<g id="node21" class="node">
<title>Node21</title>
<g id="a_node21"><a xlink:href="HealthGPS_8Core_2disease_8h.html" target="_top" xlink:title=" ">
<polygon fill="none" stroke="black" points="379.14,-168.5 379.14,-187.5 442.14,-187.5 442.14,-168.5 379.14,-168.5"/>
<text text-anchor="middle" x="410.64" y="-175.5" font-family="Helvetica,sans-Serif" font-size="10.00">disease.h</text>
</a>
</g>
</g>
<!-- Node17&#45;&gt;Node21 -->
<g id="edge23" class="edge">
<title>Node17&#45;&gt;Node21</title>
<path fill="none" stroke="midnightblue" d="M369.73,-224.08C376.8,-216.3 387.23,-204.8 395.79,-195.37"/>
<polygon fill="midnightblue" stroke="midnightblue" points="398.57,-197.51 402.7,-187.75 393.39,-192.8 398.57,-197.51"/>
</g>
<!-- Node25 -->
<g id="node25" class="node">
<title>Node25</title>
<g id="a_node25"><a xlink:href="analysis_8h.html" target="_top" xlink:title=" ">
<polygon fill="none" stroke="black" points="460.64,-168.5 460.64,-187.5 526.64,-187.5 526.64,-168.5 460.64,-168.5"/>
<text text-anchor="middle" x="493.64" y="-175.5" font-family="Helvetica,sans-Serif" font-size="10.00">analysis.h</text>
</a>
</g>
</g>
<!-- Node17&#45;&gt;Node25 -->
<g id="edge32" class="edge">
<title>Node17&#45;&gt;Node25</title>
<path fill="none" stroke="midnightblue" d="M382.56,-224.44C404.38,-215.52 438.79,-201.44 463.53,-191.32"/>
<polygon fill="midnightblue" stroke="midnightblue" points="464.89,-194.54 472.82,-187.52 462.24,-188.06 464.89,-194.54"/>
</g>
<!-- Node26 -->
<g id="node26" class="node">
<title>Node26</title>
<g id="a_node26"><a xlink:href="indicator_8h.html" target="_top" xlink:title=" ">
<polygon fill="none" stroke="black" points="23.64,-112.5 23.64,-131.5 91.64,-131.5 91.64,-112.5 23.64,-112.5"/>
<text text-anchor="middle" x="57.64" y="-119.5" font-family="Helvetica,sans-Serif" font-size="10.00">indicator.h</text>
</a>
</g>
</g>
<!-- Node17&#45;&gt;Node26 -->
<g id="edge37" class="edge">
<title>Node17&#45;&gt;Node26</title>
<path fill="none" stroke="midnightblue" d="M336.9,-231.34C265.49,-226.3 62.88,-210.15 43.64,-188 32.33,-174.97 39,-154.99 46.51,-140.62"/>
<polygon fill="midnightblue" stroke="midnightblue" points="49.68,-142.14 51.64,-131.73 43.61,-138.65 49.68,-142.14"/>
</g>
<!-- Node27 -->
<g id="node27" class="node">
<title>Node27</title>
<g id="a_node27"><a xlink:href="mortality_8h.html" target="_top" xlink:title=" ">
<polygon fill="none" stroke="black" points="53.14,-168.5 53.14,-187.5 122.14,-187.5 122.14,-168.5 53.14,-168.5"/>
<text text-anchor="middle" x="87.64" y="-175.5" font-family="Helvetica,sans-Serif" font-size="10.00">mortality.h</text>
</a>
</g>
</g>
<!-- Node17&#45;&gt;Node27 -->
<g id="edge39" class="edge">
<title>Node17&#45;&gt;Node27</title>
<path fill="none" stroke="midnightblue" d="M336.84,-228.11C290.61,-219 190.68,-199.31 132.39,-187.82"/>
<polygon fill="midnightblue" stroke="midnightblue" points="132.84,-184.34 122.36,-185.84 131.49,-191.21 132.84,-184.34"/>
</g>
<!-- Node18&#45;&gt;Node7 -->
<g id="edge20" class="edge">
<title>Node18&#45;&gt;Node7</title>
<path fill="none" stroke="midnightblue" d="M361.12,-112.32C369.84,-104.34 382.98,-92.31 393.54,-82.65"/>
<polygon fill="midnightblue" stroke="midnightblue" points="395.98,-85.17 400.99,-75.83 391.25,-80 395.98,-85.17"/>
</g>
<!-- Node20 -->
<g id="node20" class="node">
<title>Node20</title>
<g id="a_node20"><a xlink:title=" ">
<polygon fill="none" stroke="#bfbfbf" points="128.14,-112.5 128.14,-131.5 169.14,-131.5 169.14,-112.5 128.14,-112.5"/>
<text text-anchor="middle" x="148.64" y="-119.5" font-family="Helvetica,sans-Serif" font-size="10.00">tuple</text>
</a>
</g>
</g>
<!-- Node19&#45;&gt;Node20 -->
<g id="edge22" class="edge">
<title>Node19&#45;&gt;Node20</title>
<path fill="none" stroke="midnightblue" d="M218.31,-168.32C205.48,-159.98 185.86,-147.21 170.7,-137.35"/>
<polygon fill="midnightblue" stroke="midnightblue" points="172.23,-134.17 161.94,-131.65 168.42,-140.04 172.23,-134.17"/>
</g>
<!-- Node21&#45;&gt;Node4 -->
<g id="edge25" class="edge">
<title>Node21&#45;&gt;Node4</title>
<path fill="none" stroke="midnightblue" d="M442.35,-169.65C445.48,-169.04 448.62,-168.48 451.64,-168 608.5,-143.15 797.95,-129.73 874.3,-124.99"/>
<polygon fill="midnightblue" stroke="midnightblue" points="874.96,-128.46 884.73,-124.36 874.53,-121.47 874.96,-128.46"/>
</g>
<!-- Node21&#45;&gt;Node7 -->
<g id="edge24" class="edge">
<title>Node21&#45;&gt;Node7</title>
<path fill="none" stroke="midnightblue" d="M410.64,-168.37C410.64,-150.62 410.64,-109.67 410.64,-85.6"/>
<polygon fill="midnightblue" stroke="midnightblue" points="414.14,-85.59 410.64,-75.59 407.14,-85.59 414.14,-85.59"/>
</g>
<!-- Node21&#45;&gt;Node11 -->
<g id="edge27" class="edge">
<title>Node21&#45;&gt;Node11</title>
<path fill="none" stroke="midnightblue" d="M419.65,-168.2C435.48,-153.39 470.01,-123.92 505.64,-112 594.17,-82.39 1244.63,-70.63 1439.57,-67.75"/>
<polygon fill="midnightblue" stroke="midnightblue" points="1439.65,-71.25 1449.6,-67.6 1439.55,-64.25 1439.65,-71.25"/>
</g>
<!-- Node21&#45;&gt;Node22 -->
<g id="edge26" class="edge">
<title>Node21&#45;&gt;Node22</title>
<path fill="none" stroke="midnightblue" d="M430.13,-168.44C450.28,-159.6 481.96,-145.69 504.97,-135.59"/>
<polygon fill="midnightblue" stroke="midnightblue" points="506.49,-138.74 514.24,-131.52 503.68,-132.33 506.49,-138.74"/>
</g>
<!-- Node21&#45;&gt;Node23 -->
<g id="edge28" class="edge">
<title>Node21&#45;&gt;Node23</title>
<path fill="none" stroke="midnightblue" d="M388.14,-168.44C364.56,-159.48 327.32,-145.31 300.68,-135.18"/>
<polygon fill="midnightblue" stroke="midnightblue" points="301.63,-131.8 291.04,-131.52 299.14,-138.34 301.63,-131.8"/>
</g>
<!-- Node23&#45;&gt;Node7 -->
<g id="edge29" class="edge">
<title>Node23&#45;&gt;Node7</title>
<path fill="none" stroke="midnightblue" d="M291.14,-112.44C314.72,-103.48 351.96,-89.31 378.6,-79.18"/>
<polygon fill="midnightblue" stroke="midnightblue" points="380.14,-82.34 388.25,-75.52 377.65,-75.8 380.14,-82.34"/>
</g>
<!-- Node23&#45;&gt;Node15 -->
<g id="edge31" class="edge">
<title>Node23&#45;&gt;Node15</title>
<path fill="none" stroke="midnightblue" d="M302.84,-113.42C305.81,-112.89 308.77,-112.41 311.64,-112 516.2,-82.95 763.36,-71.8 861,-68.33"/>
<polygon fill="midnightblue" stroke="midnightblue" points="861.2,-71.83 871.07,-67.98 860.96,-64.83 861.2,-71.83"/>
</g>
<!-- Node24 -->
<g id="node24" class="node">
<title>Node24</title>
<g id="a_node24"><a xlink:title=" ">
<polygon fill="none" stroke="#bfbfbf" points="209.14,-56.5 209.14,-75.5 266.14,-75.5 266.14,-56.5 209.14,-56.5"/>
<text text-anchor="middle" x="237.64" y="-63.5" font-family="Helvetica,sans-Serif" font-size="10.00">ostream</text>
</a>
</g>
</g>
<!-- Node23&#45;&gt;Node24 -->
<g id="edge30" class="edge">
<title>Node23&#45;&gt;Node24</title>
<path fill="none" stroke="midnightblue" d="M263.52,-112.08C259.23,-104.61 252.98,-93.72 247.7,-84.52"/>
<polygon fill="midnightblue" stroke="midnightblue" points="250.68,-82.68 242.66,-75.75 244.61,-86.17 250.68,-82.68"/>
</g>
<!-- Node25&#45;&gt;Node4 -->
<g id="edge34" class="edge">
<title>Node25&#45;&gt;Node4</title>
<path fill="none" stroke="midnightblue" d="M526.9,-172.67C604.42,-162.59 796.45,-137.6 874.67,-127.42"/>
<polygon fill="midnightblue" stroke="midnightblue" points="875.46,-130.85 884.93,-126.09 874.56,-123.91 875.46,-130.85"/>
</g>
<!-- Node25&#45;&gt;Node7 -->
<g id="edge35" class="edge">
<title>Node25&#45;&gt;Node7</title>
<path fill="none" stroke="midnightblue" d="M487.13,-168.37C473.37,-150.14 441.14,-107.43 423.22,-83.68"/>
<polygon fill="midnightblue" stroke="midnightblue" points="425.94,-81.47 417.12,-75.59 420.35,-85.68 425.94,-81.47"/>
</g>
<!-- Node25&#45;&gt;Node11 -->
<g id="edge36" class="edge">
<title>Node25&#45;&gt;Node11</title>
<path fill="none" stroke="midnightblue" d="M526.7,-170.27C592.72,-157.08 745.75,-127.74 875.64,-112 1082.89,-86.89 1331,-74.01 1439.4,-69.23"/>
<polygon fill="midnightblue" stroke="midnightblue" points="1439.61,-72.73 1449.45,-68.8 1439.31,-65.74 1439.61,-72.73"/>
</g>
<!-- Node25&#45;&gt;Node22 -->
<g id="edge33" class="edge">
<title>Node25&#45;&gt;Node22</title>
<path fill="none" stroke="midnightblue" d="M500.25,-168.08C505.9,-160.46 514.19,-149.26 521.09,-139.94"/>
<polygon fill="midnightblue" stroke="midnightblue" points="524.02,-141.87 527.16,-131.75 518.39,-137.7 524.02,-141.87"/>
</g>
<!-- Node26&#45;&gt;Node7 -->
<g id="edge38" class="edge">
<title>Node26&#45;&gt;Node7</title>
<path fill="none" stroke="midnightblue" d="M91.81,-115.77C159.97,-105.35 311.98,-82.09 378.47,-71.92"/>
<polygon fill="midnightblue" stroke="midnightblue" points="379.02,-75.38 388.38,-70.41 377.96,-68.46 379.02,-75.38"/>
</g>
<!-- Node27&#45;&gt;Node20 -->
<g id="edge40" class="edge">
<title>Node27&#45;&gt;Node20</title>
<path fill="none" stroke="midnightblue" d="M97.44,-168.32C106.46,-160.34 120.05,-148.31 130.96,-138.65"/>
<polygon fill="midnightblue" stroke="midnightblue" points="133.49,-141.08 138.66,-131.83 128.85,-135.84 133.49,-141.08"/>
</g>
<!-- Node28&#45;&gt;Node11 -->
<g id="edge42" class="edge">
<title>Node28&#45;&gt;Node11</title>
<path fill="none" stroke="midnightblue" d="M1612.46,-112.44C1589.21,-103.48 1552.49,-89.31 1526.23,-79.18"/>
<polygon fill="midnightblue" stroke="midnightblue" points="1527.31,-75.85 1516.72,-75.52 1524.79,-82.38 1527.31,-75.85"/>
</g>
<!-- Node29&#45;&gt;Node4 -->
<g id="edge46" class="edge">
<title>Node29&#45;&gt;Node4</title>
<path fill="none" stroke="midnightblue" d="M917.86,-224.37C916.24,-206.62 912.52,-165.67 910.33,-141.6"/>
<polygon fill="midnightblue" stroke="midnightblue" points="913.81,-141.23 909.42,-131.59 906.84,-141.87 913.81,-141.23"/>
</g>
<!-- Node29&#45;&gt;Node9 -->
<g id="edge49" class="edge">
<title>Node29&#45;&gt;Node9</title>
<path fill="none" stroke="midnightblue" d="M926.24,-224.08C932.87,-216.3 942.66,-204.8 950.7,-195.37"/>
<polygon fill="midnightblue" stroke="midnightblue" points="953.37,-197.63 957.19,-187.75 948.04,-193.09 953.37,-197.63"/>
</g>
<!-- Node29&#45;&gt;Node24 -->
<g id="edge50" class="edge">
<title>Node29&#45;&gt;Node24</title>
<path fill="none" stroke="midnightblue" d="M882.55,-225.51C879.21,-224.94 875.87,-224.43 872.64,-224 650.47,-194.43 588.31,-237.17 369.64,-188 336.14,-180.47 245.03,-160.34 225.64,-132 216.15,-118.13 221.45,-98.86 227.72,-84.9"/>
<polygon fill="midnightblue" stroke="midnightblue" points="230.91,-86.34 232.26,-75.83 224.65,-83.21 230.91,-86.34"/>
</g>
<!-- Node29&#45;&gt;Node30 -->
<g id="edge44" class="edge">
<title>Node29&#45;&gt;Node30</title>
<path fill="none" stroke="midnightblue" d="M954.74,-230.94C1028.92,-226.38 1203.92,-213.82 1360.01,-188.08"/>
<polygon fill="midnightblue" stroke="midnightblue" points="1360.97,-191.46 1370.26,-186.36 1359.82,-184.56 1360.97,-191.46"/>
</g>
<!-- Node31 -->
<g id="node31" class="node">
<title>Node31</title>
<g id="a_node31"><a xlink:title=" ">
<polygon fill="none" stroke="#bfbfbf" points="720.64,-168.5 720.64,-187.5 768.64,-187.5 768.64,-168.5 720.64,-168.5"/>
<text text-anchor="middle" x="744.64" y="-175.5" font-family="Helvetica,sans-Serif" font-size="10.00">mutex</text>
</a>
</g>
</g>
<!-- Node29&#45;&gt;Node31 -->
<g id="edge45" class="edge">
<title>Node29&#45;&gt;Node31</title>
<path fill="none" stroke="midnightblue" d="M891.07,-224.44C860.5,-214.96 811.18,-199.65 778.34,-189.46"/>
<polygon fill="midnightblue" stroke="midnightblue" points="779.31,-186.09 768.72,-186.47 777.23,-192.78 779.31,-186.09"/>
</g>
<!-- Node32 -->
<g id="node32" class="node">
<title>Node32</title>
<g id="a_node32"><a xlink:title=" ">
<polygon fill="none" stroke="#bfbfbf" points="787.14,-168.5 787.14,-187.5 880.14,-187.5 880.14,-168.5 787.14,-168.5"/>
<text text-anchor="middle" x="833.64" y="-175.5" font-family="Helvetica,sans-Serif" font-size="10.00">unordered_map</text>
</a>
</g>
</g>
<!-- Node29&#45;&gt;Node32 -->
<g id="edge47" class="edge">
<title>Node29&#45;&gt;Node32</title>
<path fill="none" stroke="midnightblue" d="M904.98,-224.32C891.72,-215.9 871.37,-202.97 855.79,-193.07"/>
<polygon fill="midnightblue" stroke="midnightblue" points="857.58,-190.06 847.26,-187.65 853.83,-195.97 857.58,-190.06"/>
</g>
<!-- Node33 -->
<g id="node33" class="node">
<title>Node33</title>
<g id="a_node33"><a xlink:title=" ">
<polygon fill="none" stroke="#bfbfbf" points="1288.64,-168.5 1288.64,-187.5 1352.64,-187.5 1352.64,-168.5 1288.64,-168.5"/>
<text text-anchor="middle" x="1320.64" y="-175.5" font-family="Helvetica,sans-Serif" font-size="10.00">algorithm</text>
</a>
</g>
</g>
<!-- Node29&#45;&gt;Node33 -->
<g id="edge48" class="edge">
<title>Node29&#45;&gt;Node33</title>
<path fill="none" stroke="midnightblue" d="M954.67,-229.62C1018.09,-223.43 1153.96,-209.09 1278.38,-188.08"/>
<polygon fill="midnightblue" stroke="midnightblue" points="1279.2,-191.49 1288.47,-186.36 1278.02,-184.59 1279.2,-191.49"/>
</g>
<!-- Node34 -->
<g id="node34" class="node">
<title>Node34</title>
<g id="a_node34"><a xlink:href="column_8h.html" target="_top" xlink:title=" ">
<polygon fill="none" stroke="black" points="1208.64,-168.5 1208.64,-187.5 1270.64,-187.5 1270.64,-168.5 1208.64,-168.5"/>
<text text-anchor="middle" x="1239.64" y="-175.5" font-family="Helvetica,sans-Serif" font-size="10.00">column.h</text>
</a>
</g>
</g>
<!-- Node29&#45;&gt;Node34 -->
<g id="edge51" class="edge">
<title>Node29&#45;&gt;Node34</title>
<path fill="none" stroke="midnightblue" d="M954.84,-226.91C1014.95,-216.8 1134.99,-196.61 1198.32,-185.95"/>
<polygon fill="midnightblue" stroke="midnightblue" points="1199.07,-189.37 1208.35,-184.26 1197.91,-182.47 1199.07,-189.37"/>
</g>
<!-- Node34&#45;&gt;Node7 -->
<g id="edge54" class="edge">
<title>Node34&#45;&gt;Node7</title>
<path fill="none" stroke="midnightblue" d="M1208.46,-168.82C1154.36,-154.95 1039.4,-126.86 940.64,-112 753.21,-83.79 525.63,-71.89 442.77,-68.28"/>
<polygon fill="midnightblue" stroke="midnightblue" points="442.86,-64.78 432.72,-67.85 442.56,-71.77 442.86,-64.78"/>
</g>
<!-- Node34&#45;&gt;Node28 -->
<g id="edge55" class="edge">
<title>Node34&#45;&gt;Node28</title>
<path fill="none" stroke="midnightblue" d="M1271.02,-169.6C1273.93,-169.02 1276.83,-168.47 1279.64,-168 1416.75,-144.88 1455.85,-156.31 1596.57,-131.98"/>
<polygon fill="midnightblue" stroke="midnightblue" points="1597.19,-135.43 1606.44,-130.25 1595.98,-128.53 1597.19,-135.43"/>
</g>
<!-- Node35 -->
<g id="node35" class="node">
<title>Node35</title>
<g id="a_node35"><a xlink:title=" ">
<polygon fill="none" stroke="#bfbfbf" points="1158.14,-112.5 1158.14,-131.5 1193.14,-131.5 1193.14,-112.5 1158.14,-112.5"/>
<text text-anchor="middle" x="1175.64" y="-119.5" font-family="Helvetica,sans-Serif" font-size="10.00">any</text>
</a>
</g>
</g>
<!-- Node34&#45;&gt;Node35 -->
<g id="edge52" class="edge">
<title>Node34&#45;&gt;Node35</title>
<path fill="none" stroke="midnightblue" d="M1229.36,-168.32C1219.8,-160.26 1205.36,-148.08 1193.86,-138.37"/>
<polygon fill="midnightblue" stroke="midnightblue" points="1196.01,-135.61 1186.11,-131.83 1191.5,-140.96 1196.01,-135.61"/>
</g>
<!-- Node36 -->
<g id="node36" class="node">
<title>Node36</title>
<g id="a_node36"><a xlink:title=" ">
<polygon fill="none" stroke="#bfbfbf" points="1211.14,-112.5 1211.14,-131.5 1268.14,-131.5 1268.14,-112.5 1211.14,-112.5"/>
<text text-anchor="middle" x="1239.64" y="-119.5" font-family="Helvetica,sans-Serif" font-size="10.00">typeinfo</text>
</a>
</g>
</g>
<!-- Node34&#45;&gt;Node36 -->
<g id="edge53" class="edge">
<title>Node34&#45;&gt;Node36</title>
<path fill="none" stroke="midnightblue" d="M1239.64,-168.08C1239.64,-161.01 1239.64,-150.86 1239.64,-141.99"/>
<polygon fill="midnightblue" stroke="midnightblue" points="1243.14,-141.75 1239.64,-131.75 1236.14,-141.75 1243.14,-141.75"/>
</g>
<!-- Node38 -->
<g id="node38" class="node">
<title>Node38</title>
<g id="a_node38"><a xlink:href="column__primitive_8h.html" target="_top" xlink:title=" ">
<polygon fill="none" stroke="black" points="1184.14,-224.5 1184.14,-243.5 1295.14,-243.5 1295.14,-224.5 1184.14,-224.5"/>
<text text-anchor="middle" x="1239.64" y="-231.5" font-family="Helvetica,sans-Serif" font-size="10.00">column_primitive.h</text>
</a>
</g>
</g>
<!-- Node37&#45;&gt;Node38 -->
<g id="edge57" class="edge">
<title>Node37&#45;&gt;Node38</title>
<path fill="none" stroke="midnightblue" d="M1205.41,-280.08C1211.2,-272.46 1219.7,-261.26 1226.78,-251.94"/>
<polygon fill="midnightblue" stroke="midnightblue" points="1229.74,-253.83 1233,-243.75 1224.16,-249.6 1229.74,-253.83"/>
</g>
<!-- Node38&#45;&gt;Node4 -->
<g id="edge59" class="edge">
<title>Node38&#45;&gt;Node4</title>
<path fill="none" stroke="midnightblue" d="M1229.43,-224.31C1212.28,-210.19 1176.07,-182.41 1140.64,-168 1073.47,-140.68 988.47,-129.64 942.28,-125.41"/>
<polygon fill="midnightblue" stroke="midnightblue" points="942.48,-121.92 932.21,-124.55 941.88,-128.89 942.48,-121.92"/>
</g>
<!-- Node38&#45;&gt;Node9 -->
<g id="edge60" class="edge">
<title>Node38&#45;&gt;Node9</title>
<path fill="none" stroke="midnightblue" d="M1196.07,-224.44C1142.79,-213.98 1053.48,-196.45 1002.8,-186.49"/>
<polygon fill="midnightblue" stroke="midnightblue" points="1003.39,-183.04 992.9,-184.55 1002.04,-189.91 1003.39,-183.04"/>
</g>
<!-- Node38&#45;&gt;Node33 -->
<g id="edge58" class="edge">
<title>Node38&#45;&gt;Node33</title>
<path fill="none" stroke="midnightblue" d="M1252.65,-224.32C1265.17,-215.98 1284.32,-203.21 1299.11,-193.35"/>
<polygon fill="midnightblue" stroke="midnightblue" points="1301.28,-196.11 1307.66,-187.65 1297.4,-190.29 1301.28,-196.11"/>
</g>
<!-- Node38&#45;&gt;Node34 -->
<g id="edge61" class="edge">
<title>Node38&#45;&gt;Node34</title>
<path fill="none" stroke="midnightblue" d="M1239.64,-224.08C1239.64,-217.01 1239.64,-206.86 1239.64,-197.99"/>
<polygon fill="midnightblue" stroke="midnightblue" points="1243.14,-197.75 1239.64,-187.75 1236.14,-197.75 1243.14,-197.75"/>
</g>
<!-- Node38&#45;&gt;Node39 -->
<g id="edge62" class="edge">
<title>Node38&#45;&gt;Node39</title>
<path fill="none" stroke="midnightblue" d="M1292.56,-224.44C1352.33,-214.78 1449.43,-199.08 1512.42,-188.9"/>
<polygon fill="midnightblue" stroke="midnightblue" points="1513.3,-192.3 1522.61,-187.25 1512.18,-185.39 1513.3,-192.3"/>
</g>
<!-- Node40 -->
<g id="node40" class="node">
<title>Node40</title>
<g id="a_node40"><a xlink:title=" ">
<polygon fill="none" stroke="#bfbfbf" points="1535.14,-112.5 1535.14,-131.5 1588.14,-131.5 1588.14,-112.5 1535.14,-112.5"/>
<text text-anchor="middle" x="1561.64" y="-119.5" font-family="Helvetica,sans-Serif" font-size="10.00">iterator</text>
</a>
</g>
</g>
<!-- Node39&#45;&gt;Node40 -->
<g id="edge63" class="edge">
<title>Node39&#45;&gt;Node40</title>
<path fill="none" stroke="midnightblue" d="M1571.66,-168.08C1570.07,-160.93 1567.78,-150.64 1565.79,-141.69"/>
<polygon fill="midnightblue" stroke="midnightblue" points="1569.17,-140.75 1563.59,-131.75 1562.34,-142.27 1569.17,-140.75"/>
</g>
<!-- Node41&#45;&gt;Node3 -->
<g id="edge66" class="edge">
<title>Node41&#45;&gt;Node3</title>
<path fill="none" stroke="midnightblue" d="M1065.46,-230.19C990.53,-225.38 844.94,-213.7 712.77,-187.91"/>
<polygon fill="midnightblue" stroke="midnightblue" points="713.37,-184.46 702.88,-185.95 712.01,-191.33 713.37,-184.46"/>
</g>
<!-- Node41&#45;&gt;Node4 -->
<g id="edge67" class="edge">
<title>Node41&#45;&gt;Node4</title>
<path fill="none" stroke="midnightblue" d="M1120.31,-224.32C1126.93,-210.71 1136.83,-184.24 1123.64,-168 1101.21,-140.39 997.29,-129.12 942.56,-125.04"/>
<polygon fill="midnightblue" stroke="midnightblue" points="942.53,-121.53 932.31,-124.32 942.04,-128.51 942.53,-121.53"/>
</g>
<!-- Node41&#45;&gt;Node30 -->
<g id="edge65" class="edge">
<title>Node41&#45;&gt;Node30</title>
<path fill="none" stroke="midnightblue" d="M1165.73,-224.62C1213.4,-216.46 1287.38,-203.36 1360.75,-188.1"/>
<polygon fill="midnightblue" stroke="midnightblue" points="1361.56,-191.51 1370.63,-186.03 1360.12,-184.66 1361.56,-191.51"/>
</g>
<!-- Node41&#45;&gt;Node34 -->
<g id="edge69" class="edge">
<title>Node41&#45;&gt;Node34</title>
<path fill="none" stroke="midnightblue" d="M1135.29,-224.44C1155.61,-215.6 1187.54,-201.69 1210.74,-191.59"/>
<polygon fill="midnightblue" stroke="midnightblue" points="1212.31,-194.72 1220.08,-187.52 1209.52,-188.3 1212.31,-194.72"/>
</g>
<!-- Node42 -->
<g id="node42" class="node">
<title>Node42</title>
<g id="a_node42"><a xlink:title=" ">
<polygon fill="none" stroke="#bfbfbf" points="1049.14,-168.5 1049.14,-187.5 1114.14,-187.5 1114.14,-168.5 1049.14,-168.5"/>
<text text-anchor="middle" x="1081.64" y="-175.5" font-family="Helvetica,sans-Serif" font-size="10.00">exception</text>
</a>
</g>
</g>
<!-- Node41&#45;&gt;Node42 -->
<g id="edge68" class="edge">
<title>Node41&#45;&gt;Node42</title>
<path fill="none" stroke="midnightblue" d="M1110.03,-224.08C1105.27,-216.53 1098.32,-205.49 1092.49,-196.23"/>
<polygon fill="midnightblue" stroke="midnightblue" points="1095.44,-194.35 1087.15,-187.75 1089.52,-198.08 1095.44,-194.35"/>
</g>
<!-- Node43&#45;&gt;Node4 -->
<g id="edge75" class="edge">
<title>Node43&#45;&gt;Node4</title>
<path fill="none" stroke="midnightblue" d="M1759.39,-230.77C1816.91,-225.65 1928.82,-210.07 1888.64,-168 1880.28,-159.25 1113.69,-130.54 942.35,-124.23"/>
<polygon fill="midnightblue" stroke="midnightblue" points="942.28,-120.73 932.16,-123.86 942.02,-127.72 942.28,-120.73"/>
</g>
<!-- Node43&#45;&gt;Node11 -->
<g id="edge73" class="edge">
<title>Node43&#45;&gt;Node11</title>
<path fill="none" stroke="midnightblue" d="M1759.59,-232.35C1821.11,-229.94 1946.54,-218.86 1906.64,-168 1862.86,-112.19 1651.68,-83.18 1549.82,-72.24"/>
<polygon fill="midnightblue" stroke="midnightblue" points="1550.04,-68.75 1539.73,-71.18 1549.31,-75.71 1550.04,-68.75"/>
</g>
<!-- Node43&#45;&gt;Node16 -->
<g id="edge79" class="edge">
<title>Node43&#45;&gt;Node16</title>
<path fill="none" stroke="midnightblue" d="M1720.21,-224.08C1713.79,-216.38 1704.34,-205.03 1696.52,-195.65"/>
<polygon fill="midnightblue" stroke="midnightblue" points="1699.02,-193.19 1689.93,-187.75 1693.65,-197.67 1699.02,-193.19"/>
</g>
<!-- Node43&#45;&gt;Node30 -->
<g id="edge74" class="edge">
<title>Node43&#45;&gt;Node30</title>
<path fill="none" stroke="midnightblue" d="M1695.89,-227.77C1635.61,-217.85 1504.75,-196.3 1439,-185.48"/>
<polygon fill="midnightblue" stroke="midnightblue" points="1439.47,-182.01 1429.03,-183.84 1438.33,-188.92 1439.47,-182.01"/>
</g>
<!-- Node43&#45;&gt;Node33 -->
<g id="edge76" class="edge">
<title>Node43&#45;&gt;Node33</title>
<path fill="none" stroke="midnightblue" d="M1695.67,-230.09C1633.5,-224.2 1491.82,-209.73 1362.86,-188.07"/>
<polygon fill="midnightblue" stroke="midnightblue" points="1363.26,-184.59 1352.81,-186.36 1362.09,-191.49 1363.26,-184.59"/>
</g>
<!-- Node44 -->
<g id="node44" class="node">
<title>Node44</title>
<g id="a_node44"><a xlink:title=" ">
<polygon fill="none" stroke="#bfbfbf" points="1740.14,-168.5 1740.14,-187.5 1805.14,-187.5 1805.14,-168.5 1740.14,-168.5"/>
<text text-anchor="middle" x="1772.64" y="-175.5" font-family="Helvetica,sans-Serif" font-size="10.00">stdexcept</text>
</a>
</g>
</g>
<!-- Node43&#45;&gt;Node44 -->
<g id="edge77" class="edge">
<title>Node43&#45;&gt;Node44</title>
<path fill="none" stroke="midnightblue" d="M1735.07,-224.08C1741.49,-216.38 1750.95,-205.03 1758.76,-195.65"/>
<polygon fill="midnightblue" stroke="midnightblue" points="1761.64,-197.67 1765.35,-187.75 1756.26,-193.19 1761.64,-197.67"/>
</g>
<!-- Node45 -->
<g id="node45" class="node">
<title>Node45</title>
<g id="a_node45"><a xlink:title=" ">
<polygon fill="none" stroke="#bfbfbf" points="1823.64,-168.5 1823.64,-187.5 1879.64,-187.5 1879.64,-168.5 1823.64,-168.5"/>
<text text-anchor="middle" x="1851.64" y="-175.5" font-family="Helvetica,sans-Serif" font-size="10.00">sstream</text>
</a>
</g>
</g>
<!-- Node43&#45;&gt;Node45 -->
<g id="edge78" class="edge">
<title>Node43&#45;&gt;Node45</title>
<path fill="none" stroke="midnightblue" d="M1747.29,-224.44C1767.61,-215.6 1799.54,-201.69 1822.74,-191.59"/>
<polygon fill="midnightblue" stroke="midnightblue" points="1824.31,-194.72 1832.08,-187.52 1821.52,-188.3 1824.31,-194.72"/>
</g>
<!-- Node46&#45;&gt;Node4 -->
<g id="edge82" class="edge">
<title>Node46&#45;&gt;Node4</title>
<path fill="none" stroke="midnightblue" d="M749.82,-224.44C710.73,-216.81 661.83,-204.32 649.64,-188 644.32,-180.88 643.92,-174.8 649.64,-168 678.04,-134.24 811.24,-125.81 874.77,-123.7"/>
<polygon fill="midnightblue" stroke="midnightblue" points="875.17,-127.19 885.06,-123.4 874.96,-120.19 875.17,-127.19"/>
</g>
<!-- Node46&#45;&gt;Node7 -->
<g id="edge81" class="edge">
<title>Node46&#45;&gt;Node7</title>
<path fill="none" stroke="midnightblue" d="M746.84,-224.42C714.69,-217.77 674.13,-206.47 641.64,-188 599.01,-163.76 604.09,-136.57 561.64,-112 523.89,-90.15 474.57,-78.06 442.75,-72.05"/>
<polygon fill="midnightblue" stroke="midnightblue" points="443.14,-68.56 432.67,-70.24 441.9,-75.45 443.14,-68.56"/>
</g>
<!-- Node46&#45;&gt;Node9 -->
<g id="edge83" class="edge">
<title>Node46&#45;&gt;Node9</title>
<path fill="none" stroke="midnightblue" d="M827.47,-224.44C854.89,-215.36 898.42,-200.94 929.07,-190.78"/>
<polygon fill="midnightblue" stroke="midnightblue" points="930.54,-193.98 938.93,-187.52 928.34,-187.34 930.54,-193.98"/>
</g>
</g>
</svg>
