<?xml version="1.0" encoding="UTF-8" standalone="no"?>
<!DOCTYPE svg PUBLIC "-//W3C//DTD SVG 1.1//EN"
 "http://www.w3.org/Graphics/SVG/1.1/DTD/svg11.dtd">
<!-- Generated by graphviz version 2.43.0 (0)
 -->
<!-- Title: HealthGPS/intervention_scenario.h Pages: 1 -->
<svg width="1327pt" height="173pt"
 viewBox="0.00 0.00 1327.00 173.00" xmlns="http://www.w3.org/2000/svg" xmlns:xlink="http://www.w3.org/1999/xlink">
<g id="graph0" class="graph" transform="scale(1 1) rotate(0) translate(4 169)">
<title>HealthGPS/intervention_scenario.h</title>
<!-- Node1 -->
<g id="node1" class="node">
<title>Node1</title>
<g id="a_node1"><a xlink:title=" ">
<polygon fill="#bfbfbf" stroke="black" points="606,-134.5 606,-164.5 737,-164.5 737,-134.5 606,-134.5"/>
<text text-anchor="start" x="614" y="-152.5" font-family="Helvetica,sans-Serif" font-size="10.00">HealthGPS/intervention</text>
<text text-anchor="middle" x="671.5" y="-141.5" font-family="Helvetica,sans-Serif" font-size="10.00">_scenario.h</text>
</a>
</g>
</g>
<!-- Node2 -->
<g id="node2" class="node">
<title>Node2</title>
<g id="a_node2"><a xlink:href="HealthGPS_2api_8h.html" target="_top" xlink:title=" ">
<polygon fill="none" stroke="black" points="40,-73 40,-92 135,-92 135,-73 40,-73"/>
<text text-anchor="middle" x="87.5" y="-80" font-family="Helvetica,sans-Serif" font-size="10.00">HealthGPS/api.h</text>
</a>
</g>
</g>
<!-- Node1&#45;&gt;Node2 -->
<g id="edge1" class="edge">
<title>Node1&#45;&gt;Node2</title>
<path fill="none" stroke="midnightblue" d="M595.46,-144.89C492.58,-139.16 303.61,-125.69 144.5,-98 135.65,-96.46 126.15,-94.26 117.49,-92.05"/>
<polygon fill="midnightblue" stroke="midnightblue" points="595.58,-148.4 605.75,-145.45 595.96,-141.41 595.58,-148.4"/>
</g>
<!-- Node4 -->
<g id="node4" class="node">
<title>Node4</title>
<g id="a_node4"><a xlink:href="fiscal__scenario_8h.html" target="_top" xlink:title=" ">
<polygon fill="none" stroke="black" points="357.5,-73 357.5,-92 509.5,-92 509.5,-73 357.5,-73"/>
<text text-anchor="middle" x="433.5" y="-80" font-family="Helvetica,sans-Serif" font-size="10.00">HealthGPS/fiscal_scenario.h</text>
</a>
</g>
</g>
<!-- Node1&#45;&gt;Node4 -->
<g id="edge3" class="edge">
<title>Node1&#45;&gt;Node4</title>
<path fill="none" stroke="midnightblue" d="M610.46,-131.83C563.88,-119.11 501.63,-102.11 464.73,-92.03"/>
<polygon fill="midnightblue" stroke="midnightblue" points="609.58,-135.22 620.15,-134.48 611.43,-128.46 609.58,-135.22"/>
</g>
<!-- Node7 -->
<g id="node7" class="node">
<title>Node7</title>
<g id="a_node7"><a xlink:href="food__labelling__scenario_8h.html" target="_top" xlink:title=" ">
<polygon fill="none" stroke="black" points="527.5,-67.5 527.5,-97.5 667.5,-97.5 667.5,-67.5 527.5,-67.5"/>
<text text-anchor="start" x="535.5" y="-85.5" font-family="Helvetica,sans-Serif" font-size="10.00">HealthGPS/food_labelling</text>
<text text-anchor="middle" x="597.5" y="-74.5" font-family="Helvetica,sans-Serif" font-size="10.00">_scenario.h</text>
</a>
</g>
</g>
<!-- Node1&#45;&gt;Node7 -->
<g id="edge6" class="edge">
<title>Node1&#45;&gt;Node7</title>
<path fill="none" stroke="midnightblue" d="M647.7,-127.6C636.53,-117.78 623.51,-106.34 613.53,-97.58"/>
<polygon fill="midnightblue" stroke="midnightblue" points="645.62,-130.43 655.44,-134.4 650.24,-125.17 645.62,-130.43"/>
</g>
<!-- Node9 -->
<g id="node9" class="node">
<title>Node9</title>
<g id="a_node9"><a xlink:href="marketing__dynamic__scenario_8h.html" target="_top" xlink:title=" ">
<polygon fill="none" stroke="black" points="686,-67.5 686,-97.5 807,-97.5 807,-67.5 686,-67.5"/>
<text text-anchor="start" x="694" y="-85.5" font-family="Helvetica,sans-Serif" font-size="10.00">HealthGPS/marketing</text>
<text text-anchor="middle" x="746.5" y="-74.5" font-family="Helvetica,sans-Serif" font-size="10.00">_dynamic_scenario.h</text>
</a>
</g>
</g>
<!-- Node1&#45;&gt;Node9 -->
<g id="edge9" class="edge">
<title>Node1&#45;&gt;Node9</title>
<path fill="none" stroke="midnightblue" d="M695.62,-127.6C706.94,-117.78 720.14,-106.34 730.26,-97.58"/>
<polygon fill="midnightblue" stroke="midnightblue" points="693.04,-125.2 687.77,-134.4 697.62,-130.49 693.04,-125.2"/>
</g>
<!-- Node11 -->
<g id="node11" class="node">
<title>Node11</title>
<g id="a_node11"><a xlink:href="marketing__scenario_8h.html" target="_top" xlink:title=" ">
<polygon fill="none" stroke="black" points="825,-67.5 825,-97.5 946,-97.5 946,-67.5 825,-67.5"/>
<text text-anchor="start" x="833" y="-85.5" font-family="Helvetica,sans-Serif" font-size="10.00">HealthGPS/marketing</text>
<text text-anchor="middle" x="885.5" y="-74.5" font-family="Helvetica,sans-Serif" font-size="10.00">_scenario.h</text>
</a>
</g>
</g>
<!-- Node1&#45;&gt;Node11 -->
<g id="edge12" class="edge">
<title>Node1&#45;&gt;Node11</title>
<path fill="none" stroke="midnightblue" d="M727.65,-131.44C762.34,-120.91 806.32,-107.55 839.04,-97.61"/>
<polygon fill="midnightblue" stroke="midnightblue" points="726.22,-128.22 717.67,-134.48 728.26,-134.92 726.22,-128.22"/>
</g>
<!-- Node13 -->
<g id="node13" class="node">
<title>Node13</title>
<g id="a_node13"><a xlink:href="physical__activity__scenario_8h.html" target="_top" xlink:title=" ">
<polygon fill="none" stroke="black" points="964.5,-67.5 964.5,-97.5 1078.5,-97.5 1078.5,-67.5 964.5,-67.5"/>
<text text-anchor="start" x="972.5" y="-85.5" font-family="Helvetica,sans-Serif" font-size="10.00">HealthGPS/physical</text>
<text text-anchor="middle" x="1021.5" y="-74.5" font-family="Helvetica,sans-Serif" font-size="10.00">_activity_scenario.h</text>
</a>
</g>
</g>
<!-- Node1&#45;&gt;Node13 -->
<g id="edge15" class="edge">
<title>Node1&#45;&gt;Node13</title>
<path fill="none" stroke="midnightblue" d="M747.13,-135.9C804.44,-126.15 885.07,-111.99 955.5,-98 958.38,-97.43 961.32,-96.83 964.29,-96.22"/>
<polygon fill="midnightblue" stroke="midnightblue" points="746.34,-132.49 737.06,-137.61 747.51,-139.39 746.34,-132.49"/>
</g>
<!-- Node15 -->
<g id="node15" class="node">
<title>Node15</title>
<g id="a_node15"><a xlink:href="simple__policy__scenario_8h.html" target="_top" xlink:title=" ">
<polygon fill="none" stroke="black" points="1097,-67.5 1097,-97.5 1236,-97.5 1236,-67.5 1097,-67.5"/>
<text text-anchor="start" x="1105" y="-85.5" font-family="Helvetica,sans-Serif" font-size="10.00">HealthGPS/simple_policy</text>
<text text-anchor="middle" x="1166.5" y="-74.5" font-family="Helvetica,sans-Serif" font-size="10.00">_scenario.h</text>
</a>
</g>
</g>
<!-- Node1&#45;&gt;Node15 -->
<g id="edge18" class="edge">
<title>Node1&#45;&gt;Node15</title>
<path fill="none" stroke="midnightblue" d="M747.4,-140.69C830.93,-131.76 969.09,-116.04 1087.5,-98 1090.53,-97.54 1093.63,-97.05 1096.75,-96.54"/>
<polygon fill="midnightblue" stroke="midnightblue" points="746.81,-137.23 737.23,-141.77 747.55,-144.19 746.81,-137.23"/>
</g>
<!-- Node17 -->
<g id="node17" class="node">
<title>Node17</title>
<g id="a_node17"><a xlink:href="configuration_8h.html" target="_top" xlink:title=" ">
<polygon fill="none" stroke="black" points="153.5,-73 153.5,-92 339.5,-92 339.5,-73 153.5,-73"/>
<text text-anchor="middle" x="246.5" y="-80" font-family="Helvetica,sans-Serif" font-size="10.00">HealthGPS.Console/configuration.h</text>
</a>
</g>
</g>
<!-- Node1&#45;&gt;Node17 -->
<g id="edge21" class="edge">
<title>Node1&#45;&gt;Node17</title>
<path fill="none" stroke="midnightblue" d="M595.53,-136.88C511.21,-123.99 377.15,-103.48 302.08,-92"/>
<polygon fill="midnightblue" stroke="midnightblue" points="595.15,-140.36 605.56,-138.42 596.2,-133.44 595.15,-140.36"/>
</g>
<!-- Node3 -->
<g id="node3" class="node">
<title>Node3</title>
<g id="a_node3"><a xlink:href="program_8cpp.html" target="_top" xlink:title=" ">
<polygon fill="none" stroke="black" points="0,-6 0,-25 175,-25 175,-6 0,-6"/>
<text text-anchor="middle" x="87.5" y="-13" font-family="Helvetica,sans-Serif" font-size="10.00">HealthGPS.Console/program.cpp</text>
</a>
</g>
</g>
<!-- Node2&#45;&gt;Node3 -->
<g id="edge2" class="edge">
<title>Node2&#45;&gt;Node3</title>
<path fill="none" stroke="midnightblue" d="M87.5,-62.54C87.5,-50.17 87.5,-34.62 87.5,-25.13"/>
<polygon fill="midnightblue" stroke="midnightblue" points="84,-62.73 87.5,-72.73 91,-62.73 84,-62.73"/>
</g>
<!-- Node5 -->
<g id="node5" class="node">
<title>Node5</title>
<g id="a_node5"><a xlink:href="fiscal__scenario_8cpp.html" target="_top" xlink:title=" ">
<polygon fill="none" stroke="black" points="193.5,-6 193.5,-25 357.5,-25 357.5,-6 193.5,-6"/>
<text text-anchor="middle" x="275.5" y="-13" font-family="Helvetica,sans-Serif" font-size="10.00">HealthGPS/fiscal_scenario.cpp</text>
</a>
</g>
</g>
<!-- Node4&#45;&gt;Node5 -->
<g id="edge4" class="edge">
<title>Node4&#45;&gt;Node5</title>
<path fill="none" stroke="midnightblue" d="M402.99,-68.95C371.71,-56.08 323.88,-36.4 296.57,-25.17"/>
<polygon fill="midnightblue" stroke="midnightblue" points="401.94,-72.3 412.52,-72.87 404.6,-65.83 401.94,-72.3"/>
</g>
<!-- Node6 -->
<g id="node6" class="node">
<title>Node6</title>
<g id="a_node6"><a xlink:href="configuration_8cpp.html" target="_top" xlink:title=" ">
<polygon fill="none" stroke="black" points="534,-6 534,-25 731,-25 731,-6 534,-6"/>
<text text-anchor="middle" x="632.5" y="-13" font-family="Helvetica,sans-Serif" font-size="10.00">HealthGPS.Console/configuration.cpp</text>
</a>
</g>
</g>
<!-- Node4&#45;&gt;Node6 -->
<g id="edge5" class="edge">
<title>Node4&#45;&gt;Node6</title>
<path fill="none" stroke="midnightblue" d="M469.68,-69.68C509.12,-56.8 571.28,-36.5 606.28,-25.06"/>
<polygon fill="midnightblue" stroke="midnightblue" points="468.34,-66.44 459.93,-72.87 470.52,-73.09 468.34,-66.44"/>
</g>
<!-- Node7&#45;&gt;Node6 -->
<g id="edge8" class="edge">
<title>Node7&#45;&gt;Node6</title>
<path fill="none" stroke="midnightblue" d="M610,-58.29C616.18,-46.8 623.28,-33.63 627.82,-25.19"/>
<polygon fill="midnightblue" stroke="midnightblue" points="606.75,-56.93 605.09,-67.4 612.92,-60.25 606.75,-56.93"/>
</g>
<!-- Node8 -->
<g id="node8" class="node">
<title>Node8</title>
<g id="a_node8"><a xlink:href="food__labelling__scenario_8cpp.html" target="_top" xlink:title=" ">
<polygon fill="none" stroke="black" points="375.5,-0.5 375.5,-30.5 515.5,-30.5 515.5,-0.5 375.5,-0.5"/>
<text text-anchor="start" x="383.5" y="-18.5" font-family="Helvetica,sans-Serif" font-size="10.00">HealthGPS/food_labelling</text>
<text text-anchor="middle" x="445.5" y="-7.5" font-family="Helvetica,sans-Serif" font-size="10.00">_scenario.cpp</text>
</a>
</g>
</g>
<!-- Node7&#45;&gt;Node8 -->
<g id="edge7" class="edge">
<title>Node7&#45;&gt;Node8</title>
<path fill="none" stroke="midnightblue" d="M555.19,-63.41C530.92,-53.03 500.91,-40.2 478.42,-30.58"/>
<polygon fill="midnightblue" stroke="midnightblue" points="553.95,-66.68 564.52,-67.4 556.7,-60.25 553.95,-66.68"/>
</g>
<!-- Node9&#45;&gt;Node6 -->
<g id="edge11" class="edge">
<title>Node9&#45;&gt;Node6</title>
<path fill="none" stroke="midnightblue" d="M712.84,-62.31C691.12,-49.93 663.95,-34.43 647.42,-25.01"/>
<polygon fill="midnightblue" stroke="midnightblue" points="711.34,-65.48 721.76,-67.4 714.81,-59.4 711.34,-65.48"/>
</g>
<!-- Node10 -->
<g id="node10" class="node">
<title>Node10</title>
<g id="a_node10"><a xlink:href="marketing__dynamic__scenario_8cpp.html" target="_top" xlink:title=" ">
<polygon fill="none" stroke="black" points="749,-0.5 749,-30.5 880,-30.5 880,-0.5 749,-0.5"/>
<text text-anchor="start" x="757" y="-18.5" font-family="Helvetica,sans-Serif" font-size="10.00">HealthGPS/marketing</text>
<text text-anchor="middle" x="814.5" y="-7.5" font-family="Helvetica,sans-Serif" font-size="10.00">_dynamic_scenario.cpp</text>
</a>
</g>
</g>
<!-- Node9&#45;&gt;Node10 -->
<g id="edge10" class="edge">
<title>Node9&#45;&gt;Node10</title>
<path fill="none" stroke="midnightblue" d="M768.67,-60.31C778.87,-50.56 790.69,-39.26 799.77,-30.58"/>
<polygon fill="midnightblue" stroke="midnightblue" points="766.07,-57.96 761.25,-67.4 770.9,-63.02 766.07,-57.96"/>
</g>
<!-- Node11&#45;&gt;Node6 -->
<g id="edge14" class="edge">
<title>Node11&#45;&gt;Node6</title>
<path fill="none" stroke="midnightblue" d="M820.93,-64.91C771.38,-52.18 705,-35.13 665.7,-25.03"/>
<polygon fill="midnightblue" stroke="midnightblue" points="820.36,-68.38 830.91,-67.48 822.1,-61.6 820.36,-68.38"/>
</g>
<!-- Node12 -->
<g id="node12" class="node">
<title>Node12</title>
<g id="a_node12"><a xlink:href="marketing__scenario_8cpp.html" target="_top" xlink:title=" ">
<polygon fill="none" stroke="black" points="898,-0.5 898,-30.5 1019,-30.5 1019,-0.5 898,-0.5"/>
<text text-anchor="start" x="906" y="-18.5" font-family="Helvetica,sans-Serif" font-size="10.00">HealthGPS/marketing</text>
<text text-anchor="middle" x="958.5" y="-7.5" font-family="Helvetica,sans-Serif" font-size="10.00">_scenario.cpp</text>
</a>
</g>
</g>
<!-- Node11&#45;&gt;Node12 -->
<g id="edge13" class="edge">
<title>Node11&#45;&gt;Node12</title>
<path fill="none" stroke="midnightblue" d="M908.97,-60.6C920,-50.78 932.84,-39.34 942.69,-30.58"/>
<polygon fill="midnightblue" stroke="midnightblue" points="906.48,-58.13 901.34,-67.4 911.14,-63.36 906.48,-58.13"/>
</g>
<!-- Node13&#45;&gt;Node6 -->
<g id="edge17" class="edge">
<title>Node13&#45;&gt;Node6</title>
<path fill="none" stroke="midnightblue" d="M954.39,-66.86C858.03,-48.96 757.3,-33.96 694.31,-25.02"/>
<polygon fill="midnightblue" stroke="midnightblue" points="953.83,-70.31 964.31,-68.71 955.12,-63.43 953.83,-70.31"/>
</g>
<!-- Node14 -->
<g id="node14" class="node">
<title>Node14</title>
<g id="a_node14"><a xlink:href="physical__activity__scenario_8cpp.html" target="_top" xlink:title=" ">
<polygon fill="none" stroke="black" points="1037,-0.5 1037,-30.5 1162,-30.5 1162,-0.5 1037,-0.5"/>
<text text-anchor="start" x="1045" y="-18.5" font-family="Helvetica,sans-Serif" font-size="10.00">HealthGPS/physical</text>
<text text-anchor="middle" x="1099.5" y="-7.5" font-family="Helvetica,sans-Serif" font-size="10.00">_activity_scenario.cpp</text>
</a>
</g>
</g>
<!-- Node13&#45;&gt;Node14 -->
<g id="edge16" class="edge">
<title>Node13&#45;&gt;Node14</title>
<path fill="none" stroke="midnightblue" d="M1046.24,-60.88C1058.09,-51.01 1071.98,-39.43 1082.61,-30.58"/>
<polygon fill="midnightblue" stroke="midnightblue" points="1043.87,-58.31 1038.42,-67.4 1048.35,-63.68 1043.87,-58.31"/>
</g>
<!-- Node15&#45;&gt;Node6 -->
<g id="edge20" class="edge">
<title>Node15&#45;&gt;Node6</title>
<path fill="none" stroke="midnightblue" d="M1086.44,-66.92C932.27,-45.16 891.16,-48.92 740.5,-31 725.28,-29.19 708.88,-27.07 693.57,-25.03"/>
<polygon fill="midnightblue" stroke="midnightblue" points="1086.37,-70.45 1096.76,-68.39 1087.36,-63.52 1086.37,-70.45"/>
</g>
<!-- Node16 -->
<g id="node16" class="node">
<title>Node16</title>
<g id="a_node16"><a xlink:href="simple__policy__scenario_8cpp.html" target="_top" xlink:title=" ">
<polygon fill="none" stroke="black" points="1180,-0.5 1180,-30.5 1319,-30.5 1319,-0.5 1180,-0.5"/>
<text text-anchor="start" x="1188" y="-18.5" font-family="Helvetica,sans-Serif" font-size="10.00">HealthGPS/simple_policy</text>
<text text-anchor="middle" x="1249.5" y="-7.5" font-family="Helvetica,sans-Serif" font-size="10.00">_scenario.cpp</text>
</a>
</g>
</g>
<!-- Node15&#45;&gt;Node16 -->
<g id="edge19" class="edge">
<title>Node15&#45;&gt;Node16</title>
<path fill="none" stroke="midnightblue" d="M1192.46,-61.17C1205.15,-51.23 1220.11,-39.51 1231.53,-30.58"/>
<polygon fill="midnightblue" stroke="midnightblue" points="1190.22,-58.47 1184.51,-67.4 1194.54,-63.99 1190.22,-58.47"/>
</g>
<!-- Node17&#45;&gt;Node3 -->
<g id="edge23" class="edge">
<title>Node17&#45;&gt;Node3</title>
<path fill="none" stroke="midnightblue" d="M215.77,-68.94C184.19,-56.03 135.88,-36.28 108.45,-25.06"/>
<polygon fill="midnightblue" stroke="midnightblue" points="214.81,-72.32 225.39,-72.87 217.45,-65.84 214.81,-72.32"/>
</g>
<!-- Node17&#45;&gt;Node6 -->
<g id="edge22" class="edge">
<title>Node17&#45;&gt;Node6</title>
<path fill="none" stroke="midnightblue" d="M307.24,-71.27C382.99,-58.52 511.11,-36.94 581.83,-25.03"/>
<polygon fill="midnightblue" stroke="midnightblue" points="306.64,-67.82 297.36,-72.94 307.8,-74.73 306.64,-67.82"/>
</g>
</g>
</svg>
