<?xml version="1.0" encoding="UTF-8" standalone="no"?>
<!DOCTYPE svg PUBLIC "-//W3C//DTD SVG 1.1//EN"
 "http://www.w3.org/Graphics/SVG/1.1/DTD/svg11.dtd">
<!-- Generated by graphviz version 2.43.0 (0)
 -->
<!-- Title: HealthGPS.Console/jsonparser.h Pages: 1 -->
<svg width="598pt" height="207pt"
 viewBox="0.00 0.00 597.50 207.00" xmlns="http://www.w3.org/2000/svg" xmlns:xlink="http://www.w3.org/1999/xlink">
<g id="graph0" class="graph" transform="scale(1 1) rotate(0) translate(4 203)">
<title>HealthGPS.Console/jsonparser.h</title>
<!-- Node1 -->
<g id="node1" class="node">
<title>Node1</title>
<g id="a_node1"><a xlink:title=" ">
<polygon fill="#bfbfbf" stroke="black" points="172,-179.5 172,-198.5 345,-198.5 345,-179.5 172,-179.5"/>
<text text-anchor="middle" x="258.5" y="-186.5" font-family="Helvetica,sans-Serif" font-size="10.00">HealthGPS.Console/jsonparser.h</text>
</a>
</g>
</g>
<!-- Node2 -->
<g id="node2" class="node">
<title>Node2</title>
<g id="a_node2"><a xlink:href="options_8h.html" target="_top" xlink:title=" ">
<polygon fill="none" stroke="black" points="227.5,-123.5 227.5,-142.5 289.5,-142.5 289.5,-123.5 227.5,-123.5"/>
<text text-anchor="middle" x="258.5" y="-130.5" font-family="Helvetica,sans-Serif" font-size="10.00">options.h</text>
</a>
</g>
</g>
<!-- Node1&#45;&gt;Node2 -->
<g id="edge1" class="edge">
<title>Node1&#45;&gt;Node2</title>
<path fill="none" stroke="midnightblue" d="M258.5,-179.08C258.5,-172.01 258.5,-161.86 258.5,-152.99"/>
<polygon fill="midnightblue" stroke="midnightblue" points="262,-152.75 258.5,-142.75 255,-152.75 262,-152.75"/>
</g>
<!-- Node12 -->
<g id="node12" class="node">
<title>Node12</title>
<g id="a_node12"><a xlink:href="riskmodel_8h.html" target="_top" xlink:title=" ">
<polygon fill="none" stroke="black" points="135.5,-123.5 135.5,-142.5 209.5,-142.5 209.5,-123.5 135.5,-123.5"/>
<text text-anchor="middle" x="172.5" y="-130.5" font-family="Helvetica,sans-Serif" font-size="10.00">riskmodel.h</text>
</a>
</g>
</g>
<!-- Node1&#45;&gt;Node12 -->
<g id="edge11" class="edge">
<title>Node1&#45;&gt;Node12</title>
<path fill="none" stroke="midnightblue" d="M244.68,-179.32C231.27,-170.9 210.68,-157.97 194.91,-148.07"/>
<polygon fill="midnightblue" stroke="midnightblue" points="196.61,-145.01 186.28,-142.65 192.89,-150.94 196.61,-145.01"/>
</g>
<!-- Node13 -->
<g id="node13" class="node">
<title>Node13</title>
<g id="a_node13"><a xlink:title=" ">
<polygon fill="none" stroke="#bfbfbf" points="307.5,-123.5 307.5,-142.5 417.5,-142.5 417.5,-123.5 307.5,-123.5"/>
<text text-anchor="middle" x="362.5" y="-130.5" font-family="Helvetica,sans-Serif" font-size="10.00">nlohmann/json.hpp</text>
</a>
</g>
</g>
<!-- Node1&#45;&gt;Node13 -->
<g id="edge16" class="edge">
<title>Node1&#45;&gt;Node13</title>
<path fill="none" stroke="midnightblue" d="M275.21,-179.32C291.81,-170.7 317.5,-157.36 336.72,-147.39"/>
<polygon fill="midnightblue" stroke="midnightblue" points="338.57,-150.37 345.83,-142.65 335.34,-144.16 338.57,-150.37"/>
</g>
<!-- Node3 -->
<g id="node3" class="node">
<title>Node3</title>
<g id="a_node3"><a xlink:href="forward__type_8h.html" target="_top" xlink:title=" ">
<polygon fill="none" stroke="black" points="295.5,-56.5 295.5,-86.5 429.5,-86.5 429.5,-56.5 295.5,-56.5"/>
<text text-anchor="start" x="303.5" y="-74.5" font-family="Helvetica,sans-Serif" font-size="10.00">HealthGPS.Core/forward</text>
<text text-anchor="middle" x="362.5" y="-63.5" font-family="Helvetica,sans-Serif" font-size="10.00">_type.h</text>
</a>
</g>
</g>
<!-- Node2&#45;&gt;Node3 -->
<g id="edge2" class="edge">
<title>Node2&#45;&gt;Node3</title>
<path fill="none" stroke="midnightblue" d="M273.4,-123.48C287.88,-115.19 310.37,-102.32 329.13,-91.59"/>
<polygon fill="midnightblue" stroke="midnightblue" points="331.05,-94.53 337.99,-86.52 327.57,-88.45 331.05,-94.53"/>
</g>
<!-- Node6 -->
<g id="node6" class="node">
<title>Node6</title>
<g id="a_node6"><a xlink:title=" ">
<polygon fill="none" stroke="#bfbfbf" points="111.5,-62 111.5,-81 155.5,-81 155.5,-62 111.5,-62"/>
<text text-anchor="middle" x="133.5" y="-69" font-family="Helvetica,sans-Serif" font-size="10.00">string</text>
</a>
</g>
</g>
<!-- Node2&#45;&gt;Node6 -->
<g id="edge5" class="edge">
<title>Node2&#45;&gt;Node6</title>
<path fill="none" stroke="midnightblue" d="M240.59,-123.48C219.61,-113.49 184.65,-96.85 160.41,-85.31"/>
<polygon fill="midnightblue" stroke="midnightblue" points="161.91,-82.15 151.38,-81.01 158.9,-88.47 161.91,-82.15"/>
</g>
<!-- Node7 -->
<g id="node7" class="node">
<title>Node7</title>
<g id="a_node7"><a xlink:title=" ">
<polygon fill="none" stroke="#bfbfbf" points="174,-62 174,-81 221,-81 221,-62 174,-62"/>
<text text-anchor="middle" x="197.5" y="-69" font-family="Helvetica,sans-Serif" font-size="10.00">vector</text>
</a>
</g>
</g>
<!-- Node2&#45;&gt;Node7 -->
<g id="edge6" class="edge">
<title>Node2&#45;&gt;Node7</title>
<path fill="none" stroke="midnightblue" d="M249.76,-123.48C240.34,-114.28 225.14,-99.46 213.55,-88.16"/>
<polygon fill="midnightblue" stroke="midnightblue" points="215.83,-85.49 206.22,-81.01 210.94,-90.5 215.83,-85.49"/>
</g>
<!-- Node8 -->
<g id="node8" class="node">
<title>Node8</title>
<g id="a_node8"><a xlink:title=" ">
<polygon fill="none" stroke="#bfbfbf" points="239.5,-62 239.5,-81 277.5,-81 277.5,-62 239.5,-62"/>
<text text-anchor="middle" x="258.5" y="-69" font-family="Helvetica,sans-Serif" font-size="10.00">map</text>
</a>
</g>
</g>
<!-- Node2&#45;&gt;Node8 -->
<g id="edge7" class="edge">
<title>Node2&#45;&gt;Node8</title>
<path fill="none" stroke="midnightblue" d="M258.5,-123.48C258.5,-115.08 258.5,-101.98 258.5,-91.16"/>
<polygon fill="midnightblue" stroke="midnightblue" points="262,-91.01 258.5,-81.01 255,-91.01 262,-91.01"/>
</g>
<!-- Node9 -->
<g id="node9" class="node">
<title>Node9</title>
<g id="a_node9"><a xlink:title=" ">
<polygon fill="none" stroke="#bfbfbf" points="0,-62 0,-81 93,-81 93,-62 0,-62"/>
<text text-anchor="middle" x="46.5" y="-69" font-family="Helvetica,sans-Serif" font-size="10.00">unordered_map</text>
</a>
</g>
</g>
<!-- Node2&#45;&gt;Node9 -->
<g id="edge8" class="edge">
<title>Node2&#45;&gt;Node9</title>
<path fill="none" stroke="midnightblue" d="M228.13,-123.48C190.89,-113.03 127.69,-95.29 86.52,-83.73"/>
<polygon fill="midnightblue" stroke="midnightblue" points="87.39,-80.34 76.82,-81.01 85.5,-87.08 87.39,-80.34"/>
</g>
<!-- Node10 -->
<g id="node10" class="node">
<title>Node10</title>
<g id="a_node10"><a xlink:title=" ">
<polygon fill="none" stroke="#bfbfbf" points="447.5,-62 447.5,-81 515.5,-81 515.5,-62 447.5,-62"/>
<text text-anchor="middle" x="481.5" y="-69" font-family="Helvetica,sans-Serif" font-size="10.00">filesystem</text>
</a>
</g>
</g>
<!-- Node2&#45;&gt;Node10 -->
<g id="edge9" class="edge">
<title>Node2&#45;&gt;Node10</title>
<path fill="none" stroke="midnightblue" d="M289.6,-125.03C325.64,-116.76 386.72,-102.18 438.5,-87 441.43,-86.14 444.46,-85.21 447.49,-84.25"/>
<polygon fill="midnightblue" stroke="midnightblue" points="448.63,-87.56 457.05,-81.12 446.46,-80.9 448.63,-87.56"/>
</g>
<!-- Node11 -->
<g id="node11" class="node">
<title>Node11</title>
<g id="a_node11"><a xlink:title=" ">
<polygon fill="none" stroke="#bfbfbf" points="533.5,-62 533.5,-81 589.5,-81 589.5,-62 533.5,-62"/>
<text text-anchor="middle" x="561.5" y="-69" font-family="Helvetica,sans-Serif" font-size="10.00">optional</text>
</a>
</g>
</g>
<!-- Node2&#45;&gt;Node11 -->
<g id="edge10" class="edge">
<title>Node2&#45;&gt;Node11</title>
<path fill="none" stroke="midnightblue" d="M289.9,-124.74C292.8,-124.13 295.7,-123.54 298.5,-123 398.39,-103.83 426.36,-113.71 524.5,-87 527.09,-86.29 529.76,-85.47 532.4,-84.57"/>
<polygon fill="midnightblue" stroke="midnightblue" points="533.61,-87.86 541.8,-81.13 531.2,-81.29 533.61,-87.86"/>
</g>
<!-- Node4 -->
<g id="node4" class="node">
<title>Node4</title>
<g id="a_node4"><a xlink:title=" ">
<polygon fill="none" stroke="#bfbfbf" points="289,-0.5 289,-19.5 358,-19.5 358,-0.5 289,-0.5"/>
<text text-anchor="middle" x="323.5" y="-7.5" font-family="Helvetica,sans-Serif" font-size="10.00">type_traits</text>
</a>
</g>
</g>
<!-- Node3&#45;&gt;Node4 -->
<g id="edge3" class="edge">
<title>Node3&#45;&gt;Node4</title>
<path fill="none" stroke="midnightblue" d="M353.26,-56.4C347.71,-47.93 340.61,-37.1 334.73,-28.14"/>
<polygon fill="midnightblue" stroke="midnightblue" points="337.58,-26.1 329.17,-19.66 331.73,-29.94 337.58,-26.1"/>
</g>
<!-- Node5 -->
<g id="node5" class="node">
<title>Node5</title>
<g id="a_node5"><a xlink:title=" ">
<polygon fill="none" stroke="#bfbfbf" points="376.5,-0.5 376.5,-19.5 426.5,-19.5 426.5,-0.5 376.5,-0.5"/>
<text text-anchor="middle" x="401.5" y="-7.5" font-family="Helvetica,sans-Serif" font-size="10.00">cstdint</text>
</a>
</g>
</g>
<!-- Node3&#45;&gt;Node5 -->
<g id="edge4" class="edge">
<title>Node3&#45;&gt;Node5</title>
<path fill="none" stroke="midnightblue" d="M371.74,-56.4C377.29,-47.93 384.39,-37.1 390.27,-28.14"/>
<polygon fill="midnightblue" stroke="midnightblue" points="393.27,-29.94 395.83,-19.66 387.42,-26.1 393.27,-29.94"/>
</g>
<!-- Node12&#45;&gt;Node6 -->
<g id="edge12" class="edge">
<title>Node12&#45;&gt;Node6</title>
<path fill="none" stroke="midnightblue" d="M166.91,-123.48C161.12,-114.64 151.91,-100.59 144.63,-89.48"/>
<polygon fill="midnightblue" stroke="midnightblue" points="147.49,-87.45 139.08,-81.01 141.63,-91.29 147.49,-87.45"/>
</g>
<!-- Node12&#45;&gt;Node7 -->
<g id="edge13" class="edge">
<title>Node12&#45;&gt;Node7</title>
<path fill="none" stroke="midnightblue" d="M176.08,-123.48C179.68,-114.9 185.35,-101.43 189.94,-90.48"/>
<polygon fill="midnightblue" stroke="midnightblue" points="193.28,-91.58 193.92,-81.01 186.82,-88.87 193.28,-91.58"/>
</g>
<!-- Node12&#45;&gt;Node8 -->
<g id="edge15" class="edge">
<title>Node12&#45;&gt;Node8</title>
<path fill="none" stroke="midnightblue" d="M184.82,-123.48C198.62,-113.93 221.2,-98.31 237.73,-86.87"/>
<polygon fill="midnightblue" stroke="midnightblue" points="239.97,-89.58 246.2,-81.01 235.99,-83.82 239.97,-89.58"/>
</g>
<!-- Node12&#45;&gt;Node9 -->
<g id="edge14" class="edge">
<title>Node12&#45;&gt;Node9</title>
<path fill="none" stroke="midnightblue" d="M154.45,-123.48C133.3,-113.49 98.06,-96.85 73.62,-85.31"/>
<polygon fill="midnightblue" stroke="midnightblue" points="75.06,-82.11 64.52,-81.01 72.07,-88.44 75.06,-82.11"/>
</g>
</g>
</svg>
