<?xml version="1.0" encoding="UTF-8" standalone="no"?>
<!DOCTYPE svg PUBLIC "-//W3C//DTD SVG 1.1//EN"
 "http://www.w3.org/Graphics/SVG/1.1/DTD/svg11.dtd">
<!-- Generated by graphviz version 2.43.0 (0)
 -->
<!-- Title: HealthGPS.Console/jsonparser.h Pages: 1 -->
<svg width="542pt" height="207pt"
 viewBox="0.00 0.00 542.00 207.00" xmlns="http://www.w3.org/2000/svg" xmlns:xlink="http://www.w3.org/1999/xlink">
<g id="graph0" class="graph" transform="scale(1 1) rotate(0) translate(4 203)">
<title>HealthGPS.Console/jsonparser.h</title>
<!-- Node1 -->
<g id="node1" class="node">
<title>Node1</title>
<g id="a_node1"><a xlink:title=" ">
<polygon fill="#bfbfbf" stroke="black" points="232.5,-179.5 232.5,-198.5 405.5,-198.5 405.5,-179.5 232.5,-179.5"/>
<text text-anchor="middle" x="319" y="-186.5" font-family="Helvetica,sans-Serif" font-size="10.00">HealthGPS.Console/jsonparser.h</text>
</a>
</g>
</g>
<!-- Node2 -->
<g id="node2" class="node">
<title>Node2</title>
<g id="a_node2"><a xlink:href="options_8h.html" target="_top" xlink:title=" ">
<polygon fill="none" stroke="black" points="288,-123.5 288,-142.5 350,-142.5 350,-123.5 288,-123.5"/>
<text text-anchor="middle" x="319" y="-130.5" font-family="Helvetica,sans-Serif" font-size="10.00">options.h</text>
</a>
</g>
</g>
<!-- Node1&#45;&gt;Node2 -->
<g id="edge1" class="edge">
<title>Node1&#45;&gt;Node2</title>
<path fill="none" stroke="midnightblue" d="M319,-179.08C319,-172.01 319,-161.86 319,-152.99"/>
<polygon fill="midnightblue" stroke="midnightblue" points="322.5,-152.75 319,-142.75 315.5,-152.75 322.5,-152.75"/>
</g>
<!-- Node13 -->
<g id="node13" class="node">
<title>Node13</title>
<g id="a_node13"><a xlink:href="riskmodel_8h.html" target="_top" xlink:title=" ">
<polygon fill="none" stroke="black" points="141,-62 141,-81 215,-81 215,-62 141,-62"/>
<text text-anchor="middle" x="178" y="-69" font-family="Helvetica,sans-Serif" font-size="10.00">riskmodel.h</text>
</a>
</g>
</g>
<!-- Node1&#45;&gt;Node13 -->
<g id="edge12" class="edge">
<title>Node1&#45;&gt;Node13</title>
<path fill="none" stroke="midnightblue" d="M308.4,-179.32C284.62,-159.84 226.74,-112.42 196.73,-87.84"/>
<polygon fill="midnightblue" stroke="midnightblue" points="198.67,-84.91 188.72,-81.28 194.24,-90.33 198.67,-84.91"/>
</g>
<!-- Node14 -->
<g id="node14" class="node">
<title>Node14</title>
<g id="a_node14"><a xlink:title=" ">
<polygon fill="none" stroke="#bfbfbf" points="368,-123.5 368,-142.5 478,-142.5 478,-123.5 368,-123.5"/>
<text text-anchor="middle" x="423" y="-130.5" font-family="Helvetica,sans-Serif" font-size="10.00">nlohmann/json.hpp</text>
</a>
</g>
</g>
<!-- Node1&#45;&gt;Node14 -->
<g id="edge17" class="edge">
<title>Node1&#45;&gt;Node14</title>
<path fill="none" stroke="midnightblue" d="M335.71,-179.32C352.31,-170.7 378,-157.36 397.22,-147.39"/>
<polygon fill="midnightblue" stroke="midnightblue" points="399.07,-150.37 406.33,-142.65 395.84,-144.16 399.07,-150.37"/>
</g>
<!-- Node3 -->
<g id="node3" class="node">
<title>Node3</title>
<g id="a_node3"><a xlink:href="forward__type_8h.html" target="_top" xlink:title=" ">
<polygon fill="none" stroke="black" points="314,-56.5 314,-86.5 448,-86.5 448,-56.5 314,-56.5"/>
<text text-anchor="start" x="322" y="-74.5" font-family="Helvetica,sans-Serif" font-size="10.00">HealthGPS.Core/forward</text>
<text text-anchor="middle" x="381" y="-63.5" font-family="Helvetica,sans-Serif" font-size="10.00">_type.h</text>
</a>
</g>
</g>
<!-- Node2&#45;&gt;Node3 -->
<g id="edge2" class="edge">
<title>Node2&#45;&gt;Node3</title>
<path fill="none" stroke="midnightblue" d="M327.88,-123.48C335.97,-115.72 348.24,-103.94 358.95,-93.66"/>
<polygon fill="midnightblue" stroke="midnightblue" points="361.6,-95.97 366.39,-86.52 356.75,-90.92 361.6,-95.97"/>
</g>
<!-- Node6 -->
<g id="node6" class="node">
<title>Node6</title>
<g id="a_node6"><a xlink:href="HealthGPS_8Console_2poco_8h.html" target="_top" xlink:title=" ">
<polygon fill="none" stroke="black" points="233.5,-62 233.5,-81 282.5,-81 282.5,-62 233.5,-62"/>
<text text-anchor="middle" x="258" y="-69" font-family="Helvetica,sans-Serif" font-size="10.00">poco.h</text>
</a>
</g>
</g>
<!-- Node2&#45;&gt;Node6 -->
<g id="edge5" class="edge">
<title>Node2&#45;&gt;Node6</title>
<path fill="none" stroke="midnightblue" d="M310.26,-123.48C300.84,-114.28 285.64,-99.46 274.05,-88.16"/>
<polygon fill="midnightblue" stroke="midnightblue" points="276.33,-85.49 266.72,-81.01 271.44,-90.5 276.33,-85.49"/>
</g>
<!-- Node12 -->
<g id="node12" class="node">
<title>Node12</title>
<g id="a_node12"><a xlink:title=" ">
<polygon fill="none" stroke="#bfbfbf" points="466,-62 466,-81 534,-81 534,-62 466,-62"/>
<text text-anchor="middle" x="500" y="-69" font-family="Helvetica,sans-Serif" font-size="10.00">filesystem</text>
</a>
</g>
</g>
<!-- Node2&#45;&gt;Node12 -->
<g id="edge11" class="edge">
<title>Node2&#45;&gt;Node12</title>
<path fill="none" stroke="midnightblue" d="M345.48,-123.45C373.28,-114.46 418.25,-99.85 457,-87 459.58,-86.15 462.24,-85.26 464.91,-84.36"/>
<polygon fill="midnightblue" stroke="midnightblue" points="466.18,-87.63 474.55,-81.13 463.95,-80.99 466.18,-87.63"/>
</g>
<!-- Node4 -->
<g id="node4" class="node">
<title>Node4</title>
<g id="a_node4"><a xlink:title=" ">
<polygon fill="none" stroke="#bfbfbf" points="369,-0.5 369,-19.5 419,-19.5 419,-0.5 369,-0.5"/>
<text text-anchor="middle" x="394" y="-7.5" font-family="Helvetica,sans-Serif" font-size="10.00">cstdint</text>
</a>
</g>
</g>
<!-- Node3&#45;&gt;Node4 -->
<g id="edge3" class="edge">
<title>Node3&#45;&gt;Node4</title>
<path fill="none" stroke="midnightblue" d="M384.08,-56.4C385.83,-48.38 388.05,-38.23 389.94,-29.57"/>
<polygon fill="midnightblue" stroke="midnightblue" points="393.39,-30.17 392.11,-19.66 386.55,-28.68 393.39,-30.17"/>
</g>
<!-- Node5 -->
<g id="node5" class="node">
<title>Node5</title>
<g id="a_node5"><a xlink:title=" ">
<polygon fill="none" stroke="#bfbfbf" points="437.5,-0.5 437.5,-19.5 506.5,-19.5 506.5,-0.5 437.5,-0.5"/>
<text text-anchor="middle" x="472" y="-7.5" font-family="Helvetica,sans-Serif" font-size="10.00">type_traits</text>
</a>
</g>
</g>
<!-- Node3&#45;&gt;Node5 -->
<g id="edge4" class="edge">
<title>Node3&#45;&gt;Node5</title>
<path fill="none" stroke="midnightblue" d="M402.57,-56.4C416.88,-47.04 435.61,-34.79 450.01,-25.38"/>
<polygon fill="midnightblue" stroke="midnightblue" points="452.3,-28.06 458.76,-19.66 448.47,-22.2 452.3,-28.06"/>
</g>
<!-- Node7 -->
<g id="node7" class="node">
<title>Node7</title>
<g id="a_node7"><a xlink:title=" ">
<polygon fill="none" stroke="#bfbfbf" points="239,-0.5 239,-19.5 277,-19.5 277,-0.5 239,-0.5"/>
<text text-anchor="middle" x="258" y="-7.5" font-family="Helvetica,sans-Serif" font-size="10.00">map</text>
</a>
</g>
</g>
<!-- Node6&#45;&gt;Node7 -->
<g id="edge6" class="edge">
<title>Node6&#45;&gt;Node7</title>
<path fill="none" stroke="midnightblue" d="M258,-61.98C258,-53.58 258,-40.48 258,-29.66"/>
<polygon fill="midnightblue" stroke="midnightblue" points="261.5,-29.51 258,-19.51 254.5,-29.51 261.5,-29.51"/>
</g>
<!-- Node8 -->
<g id="node8" class="node">
<title>Node8</title>
<g id="a_node8"><a xlink:title=" ">
<polygon fill="none" stroke="#bfbfbf" points="295,-0.5 295,-19.5 351,-19.5 351,-0.5 295,-0.5"/>
<text text-anchor="middle" x="323" y="-7.5" font-family="Helvetica,sans-Serif" font-size="10.00">optional</text>
</a>
</g>
</g>
<!-- Node6&#45;&gt;Node8 -->
<g id="edge7" class="edge">
<title>Node6&#45;&gt;Node8</title>
<path fill="none" stroke="midnightblue" d="M267.31,-61.98C277.45,-52.7 293.86,-37.67 306.25,-26.33"/>
<polygon fill="midnightblue" stroke="midnightblue" points="308.69,-28.84 313.7,-19.51 303.96,-23.68 308.69,-28.84"/>
</g>
<!-- Node9 -->
<g id="node9" class="node">
<title>Node9</title>
<g id="a_node9"><a xlink:title=" ">
<polygon fill="none" stroke="#bfbfbf" points="0,-0.5 0,-19.5 44,-19.5 44,-0.5 0,-0.5"/>
<text text-anchor="middle" x="22" y="-7.5" font-family="Helvetica,sans-Serif" font-size="10.00">string</text>
</a>
</g>
</g>
<!-- Node6&#45;&gt;Node9 -->
<g id="edge8" class="edge">
<title>Node6&#45;&gt;Node9</title>
<path fill="none" stroke="midnightblue" d="M239.54,-61.85C234.57,-59.74 229.14,-57.62 224,-56 152.96,-33.61 130.2,-38.38 54.33,-20.16"/>
<polygon fill="midnightblue" stroke="midnightblue" points="54.84,-16.68 44.3,-17.69 53.17,-23.48 54.84,-16.68"/>
</g>
<!-- Node10 -->
<g id="node10" class="node">
<title>Node10</title>
<g id="a_node10"><a xlink:title=" ">
<polygon fill="none" stroke="#bfbfbf" points="62.5,-0.5 62.5,-19.5 155.5,-19.5 155.5,-0.5 62.5,-0.5"/>
<text text-anchor="middle" x="109" y="-7.5" font-family="Helvetica,sans-Serif" font-size="10.00">unordered_map</text>
</a>
</g>
</g>
<!-- Node6&#45;&gt;Node10 -->
<g id="edge9" class="edge">
<title>Node6&#45;&gt;Node10</title>
<path fill="none" stroke="midnightblue" d="M238.27,-61.96C233.6,-59.98 228.63,-57.89 224,-56 196.04,-44.57 164.03,-32.09 140.89,-23.18"/>
<polygon fill="midnightblue" stroke="midnightblue" points="142.15,-19.92 131.56,-19.6 139.64,-26.45 142.15,-19.92"/>
</g>
<!-- Node11 -->
<g id="node11" class="node">
<title>Node11</title>
<g id="a_node11"><a xlink:title=" ">
<polygon fill="none" stroke="#bfbfbf" points="173.5,-0.5 173.5,-19.5 220.5,-19.5 220.5,-0.5 173.5,-0.5"/>
<text text-anchor="middle" x="197" y="-7.5" font-family="Helvetica,sans-Serif" font-size="10.00">vector</text>
</a>
</g>
</g>
<!-- Node6&#45;&gt;Node11 -->
<g id="edge10" class="edge">
<title>Node6&#45;&gt;Node11</title>
<path fill="none" stroke="midnightblue" d="M249.26,-61.98C239.84,-52.78 224.64,-37.96 213.05,-26.66"/>
<polygon fill="midnightblue" stroke="midnightblue" points="215.33,-23.99 205.72,-19.51 210.44,-29 215.33,-23.99"/>
</g>
<!-- Node13&#45;&gt;Node7 -->
<g id="edge13" class="edge">
<title>Node13&#45;&gt;Node7</title>
<path fill="none" stroke="midnightblue" d="M189.46,-61.98C202.17,-52.52 222.91,-37.1 238.25,-25.69"/>
<polygon fill="midnightblue" stroke="midnightblue" points="240.62,-28.29 246.56,-19.51 236.45,-22.67 240.62,-28.29"/>
</g>
<!-- Node13&#45;&gt;Node9 -->
<g id="edge14" class="edge">
<title>Node13&#45;&gt;Node9</title>
<path fill="none" stroke="midnightblue" d="M155.65,-61.98C129.01,-51.81 84.29,-34.76 53.99,-23.2"/>
<polygon fill="midnightblue" stroke="midnightblue" points="54.9,-19.8 44.31,-19.51 52.41,-26.34 54.9,-19.8"/>
</g>
<!-- Node13&#45;&gt;Node10 -->
<g id="edge15" class="edge">
<title>Node13&#45;&gt;Node10</title>
<path fill="none" stroke="midnightblue" d="M168.11,-61.98C157.35,-52.7 139.93,-37.67 126.78,-26.33"/>
<polygon fill="midnightblue" stroke="midnightblue" points="128.73,-23.39 118.87,-19.51 124.16,-28.69 128.73,-23.39"/>
</g>
<!-- Node13&#45;&gt;Node11 -->
<g id="edge16" class="edge">
<title>Node13&#45;&gt;Node11</title>
<path fill="none" stroke="midnightblue" d="M180.72,-61.98C183.43,-53.49 187.67,-40.2 191.15,-29.32"/>
<polygon fill="midnightblue" stroke="midnightblue" points="194.57,-30.1 194.28,-19.51 187.91,-27.97 194.57,-30.1"/>
</g>
</g>
</svg>
