<?xml version="1.0" encoding="UTF-8" standalone="no"?>
<!DOCTYPE svg PUBLIC "-//W3C//DTD SVG 1.1//EN"
 "http://www.w3.org/Graphics/SVG/1.1/DTD/svg11.dtd">
<!-- Generated by graphviz version 2.43.0 (0)
 -->
<!-- Title: HealthGPS.Console/jsonparser.h Pages: 1 -->
<svg width="515pt" height="207pt"
 viewBox="0.00 0.00 515.00 207.00" xmlns="http://www.w3.org/2000/svg" xmlns:xlink="http://www.w3.org/1999/xlink">
<g id="graph0" class="graph" transform="scale(1 1) rotate(0) translate(4 203)">
<title>HealthGPS.Console/jsonparser.h</title>
<!-- Node1 -->
<g id="node1" class="node">
<title>Node1</title>
<g id="a_node1"><a xlink:title=" ">
<polygon fill="#bfbfbf" stroke="black" points="128,-179.5 128,-198.5 301,-198.5 301,-179.5 128,-179.5"/>
<text text-anchor="middle" x="214.5" y="-186.5" font-family="Helvetica,sans-Serif" font-size="10.00">HealthGPS.Console/jsonparser.h</text>
</a>
</g>
</g>
<!-- Node2 -->
<g id="node2" class="node">
<title>Node2</title>
<g id="a_node2"><a xlink:href="options_8h.html" target="_top" xlink:title=" ">
<polygon fill="none" stroke="black" points="183.5,-123.5 183.5,-142.5 245.5,-142.5 245.5,-123.5 183.5,-123.5"/>
<text text-anchor="middle" x="214.5" y="-130.5" font-family="Helvetica,sans-Serif" font-size="10.00">options.h</text>
</a>
</g>
</g>
<!-- Node1&#45;&gt;Node2 -->
<g id="edge1" class="edge">
<title>Node1&#45;&gt;Node2</title>
<path fill="none" stroke="midnightblue" d="M214.5,-179.08C214.5,-172.01 214.5,-161.86 214.5,-152.99"/>
<polygon fill="midnightblue" stroke="midnightblue" points="218,-152.75 214.5,-142.75 211,-152.75 218,-152.75"/>
</g>
<!-- Node13 -->
<g id="node13" class="node">
<title>Node13</title>
<g id="a_node13"><a xlink:href="riskmodel_8h.html" target="_top" xlink:title=" ">
<polygon fill="none" stroke="black" points="50.5,-62 50.5,-81 124.5,-81 124.5,-62 50.5,-62"/>
<text text-anchor="middle" x="87.5" y="-69" font-family="Helvetica,sans-Serif" font-size="10.00">riskmodel.h</text>
</a>
</g>
</g>
<!-- Node1&#45;&gt;Node13 -->
<g id="edge12" class="edge">
<title>Node1&#45;&gt;Node13</title>
<path fill="none" stroke="midnightblue" d="M204.95,-179.32C183.62,-159.92 131.85,-112.83 104.72,-88.16"/>
<polygon fill="midnightblue" stroke="midnightblue" points="106.91,-85.42 97.16,-81.28 102.2,-90.6 106.91,-85.42"/>
</g>
<!-- Node14 -->
<g id="node14" class="node">
<title>Node14</title>
<g id="a_node14"><a xlink:title=" ">
<polygon fill="none" stroke="#bfbfbf" points="263.5,-123.5 263.5,-142.5 373.5,-142.5 373.5,-123.5 263.5,-123.5"/>
<text text-anchor="middle" x="318.5" y="-130.5" font-family="Helvetica,sans-Serif" font-size="10.00">nlohmann/json.hpp</text>
</a>
</g>
</g>
<!-- Node1&#45;&gt;Node14 -->
<g id="edge17" class="edge">
<title>Node1&#45;&gt;Node14</title>
<path fill="none" stroke="midnightblue" d="M231.21,-179.32C247.81,-170.7 273.5,-157.36 292.72,-147.39"/>
<polygon fill="midnightblue" stroke="midnightblue" points="294.57,-150.37 301.83,-142.65 291.34,-144.16 294.57,-150.37"/>
</g>
<!-- Node3 -->
<g id="node3" class="node">
<title>Node3</title>
<g id="a_node3"><a xlink:href="HealthGPS_8Console_2poco_8h.html" target="_top" xlink:title=" ">
<polygon fill="none" stroke="black" points="229,-62 229,-81 278,-81 278,-62 229,-62"/>
<text text-anchor="middle" x="253.5" y="-69" font-family="Helvetica,sans-Serif" font-size="10.00">poco.h</text>
</a>
</g>
</g>
<!-- Node2&#45;&gt;Node3 -->
<g id="edge2" class="edge">
<title>Node2&#45;&gt;Node3</title>
<path fill="none" stroke="midnightblue" d="M220.09,-123.48C225.88,-114.64 235.09,-100.59 242.37,-89.48"/>
<polygon fill="midnightblue" stroke="midnightblue" points="245.37,-91.29 247.92,-81.01 239.51,-87.45 245.37,-91.29"/>
</g>
<!-- Node9 -->
<g id="node9" class="node">
<title>Node9</title>
<g id="a_node9"><a xlink:href="forward__type_8h.html" target="_top" xlink:title=" ">
<polygon fill="none" stroke="black" points="327.5,-56.5 327.5,-86.5 461.5,-86.5 461.5,-56.5 327.5,-56.5"/>
<text text-anchor="start" x="335.5" y="-74.5" font-family="Helvetica,sans-Serif" font-size="10.00">HealthGPS.Core/forward</text>
<text text-anchor="middle" x="394.5" y="-63.5" font-family="Helvetica,sans-Serif" font-size="10.00">_type.h</text>
</a>
</g>
</g>
<!-- Node2&#45;&gt;Node9 -->
<g id="edge8" class="edge">
<title>Node2&#45;&gt;Node9</title>
<path fill="none" stroke="midnightblue" d="M240.29,-123.48C266.83,-114.7 308.92,-100.79 342.43,-89.71"/>
<polygon fill="midnightblue" stroke="midnightblue" points="343.68,-92.98 352.08,-86.52 341.48,-86.34 343.68,-92.98"/>
</g>
<!-- Node12 -->
<g id="node12" class="node">
<title>Node12</title>
<g id="a_node12"><a xlink:title=" ">
<polygon fill="none" stroke="#bfbfbf" points="142.5,-62 142.5,-81 210.5,-81 210.5,-62 142.5,-62"/>
<text text-anchor="middle" x="176.5" y="-69" font-family="Helvetica,sans-Serif" font-size="10.00">filesystem</text>
</a>
</g>
</g>
<!-- Node2&#45;&gt;Node12 -->
<g id="edge11" class="edge">
<title>Node2&#45;&gt;Node12</title>
<path fill="none" stroke="midnightblue" d="M209.06,-123.48C203.41,-114.64 194.44,-100.59 187.34,-89.48"/>
<polygon fill="midnightblue" stroke="midnightblue" points="190.27,-87.55 181.93,-81.01 184.37,-91.32 190.27,-87.55"/>
</g>
<!-- Node4 -->
<g id="node4" class="node">
<title>Node4</title>
<g id="a_node4"><a xlink:title=" ">
<polygon fill="none" stroke="#bfbfbf" points="233.5,-0.5 233.5,-19.5 277.5,-19.5 277.5,-0.5 233.5,-0.5"/>
<text text-anchor="middle" x="255.5" y="-7.5" font-family="Helvetica,sans-Serif" font-size="10.00">string</text>
</a>
</g>
</g>
<!-- Node3&#45;&gt;Node4 -->
<g id="edge3" class="edge">
<title>Node3&#45;&gt;Node4</title>
<path fill="none" stroke="midnightblue" d="M253.79,-61.98C254.07,-53.58 254.51,-40.48 254.87,-29.66"/>
<polygon fill="midnightblue" stroke="midnightblue" points="258.38,-29.62 255.21,-19.51 251.38,-29.39 258.38,-29.62"/>
</g>
<!-- Node5 -->
<g id="node5" class="node">
<title>Node5</title>
<g id="a_node5"><a xlink:title=" ">
<polygon fill="none" stroke="#bfbfbf" points="0,-0.5 0,-19.5 47,-19.5 47,-0.5 0,-0.5"/>
<text text-anchor="middle" x="23.5" y="-7.5" font-family="Helvetica,sans-Serif" font-size="10.00">vector</text>
</a>
</g>
</g>
<!-- Node3&#45;&gt;Node5 -->
<g id="edge4" class="edge">
<title>Node3&#45;&gt;Node5</title>
<path fill="none" stroke="midnightblue" d="M235.03,-61.89C230.06,-59.77 224.63,-57.65 219.5,-56 151.89,-34.32 130.37,-37.44 57.4,-20.09"/>
<polygon fill="midnightblue" stroke="midnightblue" points="57.8,-16.59 47.26,-17.63 56.15,-23.39 57.8,-16.59"/>
</g>
<!-- Node6 -->
<g id="node6" class="node">
<title>Node6</title>
<g id="a_node6"><a xlink:title=" ">
<polygon fill="none" stroke="#bfbfbf" points="65.5,-0.5 65.5,-19.5 103.5,-19.5 103.5,-0.5 65.5,-0.5"/>
<text text-anchor="middle" x="84.5" y="-7.5" font-family="Helvetica,sans-Serif" font-size="10.00">map</text>
</a>
</g>
</g>
<!-- Node3&#45;&gt;Node6 -->
<g id="edge5" class="edge">
<title>Node3&#45;&gt;Node6</title>
<path fill="none" stroke="midnightblue" d="M234.19,-61.94C229.42,-59.92 224.3,-57.82 219.5,-56 199.87,-48.56 146.82,-31.17 113.37,-20.32"/>
<polygon fill="midnightblue" stroke="midnightblue" points="114.26,-16.93 103.67,-17.18 112.11,-23.59 114.26,-16.93"/>
</g>
<!-- Node7 -->
<g id="node7" class="node">
<title>Node7</title>
<g id="a_node7"><a xlink:title=" ">
<polygon fill="none" stroke="#bfbfbf" points="122,-0.5 122,-19.5 215,-19.5 215,-0.5 122,-0.5"/>
<text text-anchor="middle" x="168.5" y="-7.5" font-family="Helvetica,sans-Serif" font-size="10.00">unordered_map</text>
</a>
</g>
</g>
<!-- Node3&#45;&gt;Node7 -->
<g id="edge6" class="edge">
<title>Node3&#45;&gt;Node7</title>
<path fill="none" stroke="midnightblue" d="M241.32,-61.98C227.69,-52.43 205.37,-36.81 189.03,-25.37"/>
<polygon fill="midnightblue" stroke="midnightblue" points="190.86,-22.38 180.66,-19.51 186.84,-28.11 190.86,-22.38"/>
</g>
<!-- Node8 -->
<g id="node8" class="node">
<title>Node8</title>
<g id="a_node8"><a xlink:title=" ">
<polygon fill="none" stroke="#bfbfbf" points="295.5,-0.5 295.5,-19.5 351.5,-19.5 351.5,-0.5 295.5,-0.5"/>
<text text-anchor="middle" x="323.5" y="-7.5" font-family="Helvetica,sans-Serif" font-size="10.00">optional</text>
</a>
</g>
</g>
<!-- Node3&#45;&gt;Node8 -->
<g id="edge7" class="edge">
<title>Node3&#45;&gt;Node8</title>
<path fill="none" stroke="midnightblue" d="M263.53,-61.98C274.55,-52.61 292.46,-37.38 305.84,-26.01"/>
<polygon fill="midnightblue" stroke="midnightblue" points="308.14,-28.65 313.49,-19.51 303.6,-23.32 308.14,-28.65"/>
</g>
<!-- Node10 -->
<g id="node10" class="node">
<title>Node10</title>
<g id="a_node10"><a xlink:title=" ">
<polygon fill="none" stroke="#bfbfbf" points="438,-0.5 438,-19.5 507,-19.5 507,-0.5 438,-0.5"/>
<text text-anchor="middle" x="472.5" y="-7.5" font-family="Helvetica,sans-Serif" font-size="10.00">type_traits</text>
</a>
</g>
</g>
<!-- Node9&#45;&gt;Node10 -->
<g id="edge9" class="edge">
<title>Node9&#45;&gt;Node10</title>
<path fill="none" stroke="midnightblue" d="M412.98,-56.4C425.02,-47.22 440.7,-35.26 452.94,-25.92"/>
<polygon fill="midnightblue" stroke="midnightblue" points="455.32,-28.51 461.15,-19.66 451.08,-22.94 455.32,-28.51"/>
</g>
<!-- Node11 -->
<g id="node11" class="node">
<title>Node11</title>
<g id="a_node11"><a xlink:title=" ">
<polygon fill="none" stroke="#bfbfbf" points="369.5,-0.5 369.5,-19.5 419.5,-19.5 419.5,-0.5 369.5,-0.5"/>
<text text-anchor="middle" x="394.5" y="-7.5" font-family="Helvetica,sans-Serif" font-size="10.00">cstdint</text>
</a>
</g>
</g>
<!-- Node9&#45;&gt;Node11 -->
<g id="edge10" class="edge">
<title>Node9&#45;&gt;Node11</title>
<path fill="none" stroke="midnightblue" d="M394.5,-56.4C394.5,-48.47 394.5,-38.46 394.5,-29.86"/>
<polygon fill="midnightblue" stroke="midnightblue" points="398,-29.66 394.5,-19.66 391,-29.66 398,-29.66"/>
</g>
<!-- Node13&#45;&gt;Node4 -->
<g id="edge13" class="edge">
<title>Node13&#45;&gt;Node4</title>
<path fill="none" stroke="midnightblue" d="M111.57,-61.98C141.09,-51.52 191.21,-33.77 223.83,-22.22"/>
<polygon fill="midnightblue" stroke="midnightblue" points="225.09,-25.48 233.35,-18.85 222.75,-18.88 225.09,-25.48"/>
</g>
<!-- Node13&#45;&gt;Node5 -->
<g id="edge14" class="edge">
<title>Node13&#45;&gt;Node5</title>
<path fill="none" stroke="midnightblue" d="M78.33,-61.98C68.35,-52.7 52.19,-37.67 39.99,-26.33"/>
<polygon fill="midnightblue" stroke="midnightblue" points="42.36,-23.75 32.65,-19.51 37.59,-28.88 42.36,-23.75"/>
</g>
<!-- Node13&#45;&gt;Node6 -->
<g id="edge16" class="edge">
<title>Node13&#45;&gt;Node6</title>
<path fill="none" stroke="midnightblue" d="M87.07,-61.98C86.65,-53.58 85.99,-40.48 85.44,-29.66"/>
<polygon fill="midnightblue" stroke="midnightblue" points="88.93,-29.32 84.93,-19.51 81.94,-29.67 88.93,-29.32"/>
</g>
<!-- Node13&#45;&gt;Node7 -->
<g id="edge15" class="edge">
<title>Node13&#45;&gt;Node7</title>
<path fill="none" stroke="midnightblue" d="M99.11,-61.98C111.98,-52.52 132.97,-37.1 148.51,-25.69"/>
<polygon fill="midnightblue" stroke="midnightblue" points="150.93,-28.25 156.92,-19.51 146.78,-22.61 150.93,-28.25"/>
</g>
</g>
</svg>
