<?xml version="1.0" encoding="UTF-8" standalone="no"?>
<!DOCTYPE svg PUBLIC "-//W3C//DTD SVG 1.1//EN"
 "http://www.w3.org/Graphics/SVG/1.1/DTD/svg11.dtd">
<!-- Generated by graphviz version 7.0.6 (20230106.0513)
 -->
<!-- Title: HealthGPS.Console/jsonparser.cpp Pages: 1 -->
<svg width="553pt" height="258pt"
 viewBox="0.00 0.00 552.50 258.00" xmlns="http://www.w3.org/2000/svg" xmlns:xlink="http://www.w3.org/1999/xlink">
<g id="graph0" class="graph" transform="scale(1 1) rotate(0) translate(4 254)">
<title>HealthGPS.Console/jsonparser.cpp</title>
<!-- Node1 -->
<g id="node1" class="node">
<title>Node1</title>
<g id="a_node1"><a xlink:title=" ">
<polygon fill="#999999" stroke="#666666" points="323.5,-250 153.5,-250 153.5,-231 323.5,-231 323.5,-250"/>
<text text-anchor="middle" x="238.5" y="-238" font-family="Helvetica,sans-Serif" font-size="10.00">HealthGPS.Console/jsonparser.cpp</text>
</a>
</g>
</g>
<!-- Node2 -->
<g id="node2" class="node">
<title>Node2</title>
<g id="a_node2"><a xlink:href="jsonparser_8h.html" target="_top" xlink:title=" ">
<polygon fill="white" stroke="#666666" points="273.5,-195 203.5,-195 203.5,-176 273.5,-176 273.5,-195"/>
<text text-anchor="middle" x="238.5" y="-183" font-family="Helvetica,sans-Serif" font-size="10.00">jsonparser.h</text>
</a>
</g>
</g>
<!-- Node1&#45;&gt;Node2 -->
<g id="edge1" class="edge">
<title>Node1&#45;&gt;Node2</title>
<path fill="none" stroke="#63b8ff" d="M238.5,-230.75C238.5,-224.27 238.5,-215.16 238.5,-206.9"/>
<polygon fill="#63b8ff" stroke="#63b8ff" points="242,-206.96 238.5,-196.96 235,-206.96 242,-206.96"/>
</g>
<!-- Node3 -->
<g id="node3" class="node">
<title>Node3</title>
<g id="a_node3"><a xlink:href="options_8h.html" target="_top" xlink:title=" ">
<polygon fill="white" stroke="#666666" points="266.5,-140 210.5,-140 210.5,-121 266.5,-121 266.5,-140"/>
<text text-anchor="middle" x="238.5" y="-128" font-family="Helvetica,sans-Serif" font-size="10.00">options.h</text>
</a>
</g>
</g>
<!-- Node2&#45;&gt;Node3 -->
<g id="edge2" class="edge">
<title>Node2&#45;&gt;Node3</title>
<path fill="none" stroke="#63b8ff" d="M238.5,-175.75C238.5,-169.27 238.5,-160.16 238.5,-151.9"/>
<polygon fill="#63b8ff" stroke="#63b8ff" points="242,-151.96 238.5,-141.96 235,-151.96 242,-151.96"/>
</g>
<!-- Node13 -->
<g id="node13" class="node">
<title>Node13</title>
<g id="a_node13"><a xlink:href="riskmodel_8h.html" target="_top" xlink:title=" ">
<polygon fill="white" stroke="#666666" points="192,-140 125,-140 125,-121 192,-121 192,-140"/>
<text text-anchor="middle" x="158.5" y="-128" font-family="Helvetica,sans-Serif" font-size="10.00">riskmodel.h</text>
</a>
</g>
</g>
<!-- Node2&#45;&gt;Node13 -->
<g id="edge12" class="edge">
<title>Node2&#45;&gt;Node13</title>
<path fill="none" stroke="#63b8ff" d="M224.93,-175.51C213.02,-167.62 195.45,-155.98 181.37,-146.65"/>
<polygon fill="#63b8ff" stroke="#63b8ff" points="183.4,-143.8 173.13,-141.19 179.54,-149.63 183.4,-143.8"/>
</g>
<!-- Node14 -->
<g id="node14" class="node">
<title>Node14</title>
<g id="a_node14"><a xlink:title=" ">
<polygon fill="#e0e0e0" stroke="#999999" points="382.5,-140 284.5,-140 284.5,-121 382.5,-121 382.5,-140"/>
<text text-anchor="middle" x="333.5" y="-128" font-family="Helvetica,sans-Serif" font-size="10.00">nlohmann/json.hpp</text>
</a>
</g>
</g>
<!-- Node2&#45;&gt;Node14 -->
<g id="edge17" class="edge">
<title>Node2&#45;&gt;Node14</title>
<path fill="none" stroke="#63b8ff" d="M254.62,-175.51C269.17,-167.39 290.84,-155.3 307.79,-145.85"/>
<polygon fill="#63b8ff" stroke="#63b8ff" points="309.27,-149.02 316.3,-141.1 305.86,-142.91 309.27,-149.02"/>
</g>
<!-- Node4 -->
<g id="node4" class="node">
<title>Node4</title>
<g id="a_node4"><a xlink:href="forward__type_8h.html" target="_top" xlink:title=" ">
<polygon fill="white" stroke="#666666" points="396.5,-85 274.5,-85 274.5,-55 396.5,-55 396.5,-85"/>
<text text-anchor="start" x="282.5" y="-73" font-family="Helvetica,sans-Serif" font-size="10.00">HealthGPS.Core/forward</text>
<text text-anchor="middle" x="335.5" y="-62" font-family="Helvetica,sans-Serif" font-size="10.00">_type.h</text>
</a>
</g>
</g>
<!-- Node3&#45;&gt;Node4 -->
<g id="edge3" class="edge">
<title>Node3&#45;&gt;Node4</title>
<path fill="none" stroke="#63b8ff" d="M253.23,-120.62C266.17,-112.81 285.47,-101.17 302.12,-91.13"/>
<polygon fill="#63b8ff" stroke="#63b8ff" points="303.51,-94.38 310.26,-86.22 299.89,-88.39 303.51,-94.38"/>
</g>
<!-- Node7 -->
<g id="node7" class="node">
<title>Node7</title>
<g id="a_node7"><a xlink:title=" ">
<polygon fill="#e0e0e0" stroke="#999999" points="142,-79.5 101,-79.5 101,-60.5 142,-60.5 142,-79.5"/>
<text text-anchor="middle" x="121.5" y="-67.5" font-family="Helvetica,sans-Serif" font-size="10.00">string</text>
</a>
</g>
</g>
<!-- Node3&#45;&gt;Node7 -->
<g id="edge6" class="edge">
<title>Node3&#45;&gt;Node7</title>
<path fill="none" stroke="#63b8ff" d="M220.73,-120.62C201.83,-111.17 171.68,-96.09 149.56,-85.03"/>
<polygon fill="#63b8ff" stroke="#63b8ff" points="151.3,-81.99 140.79,-80.65 148.17,-88.25 151.3,-81.99"/>
</g>
<!-- Node8 -->
<g id="node8" class="node">
<title>Node8</title>
<g id="a_node8"><a xlink:title=" ">
<polygon fill="#e0e0e0" stroke="#999999" points="202.5,-79.5 160.5,-79.5 160.5,-60.5 202.5,-60.5 202.5,-79.5"/>
<text text-anchor="middle" x="181.5" y="-67.5" font-family="Helvetica,sans-Serif" font-size="10.00">vector</text>
</a>
</g>
</g>
<!-- Node3&#45;&gt;Node8 -->
<g id="edge7" class="edge">
<title>Node3&#45;&gt;Node8</title>
<path fill="none" stroke="#63b8ff" d="M230.09,-120.87C221.59,-112.14 208.23,-98.43 197.67,-87.59"/>
<polygon fill="#63b8ff" stroke="#63b8ff" points="200.49,-85.47 191,-80.75 195.47,-90.36 200.49,-85.47"/>
</g>
<!-- Node9 -->
<g id="node9" class="node">
<title>Node9</title>
<g id="a_node9"><a xlink:title=" ">
<polygon fill="#e0e0e0" stroke="#999999" points="256,-79.5 221,-79.5 221,-60.5 256,-60.5 256,-79.5"/>
<text text-anchor="middle" x="238.5" y="-67.5" font-family="Helvetica,sans-Serif" font-size="10.00">map</text>
</a>
</g>
</g>
<!-- Node3&#45;&gt;Node9 -->
<g id="edge8" class="edge">
<title>Node3&#45;&gt;Node9</title>
<path fill="none" stroke="#63b8ff" d="M238.5,-120.87C238.5,-113 238.5,-101.1 238.5,-90.89"/>
<polygon fill="#63b8ff" stroke="#63b8ff" points="242,-91.18 238.5,-81.18 235,-91.18 242,-91.18"/>
</g>
<!-- Node10 -->
<g id="node10" class="node">
<title>Node10</title>
<g id="a_node10"><a xlink:title=" ">
<polygon fill="#e0e0e0" stroke="#999999" points="83,-79.5 0,-79.5 0,-60.5 83,-60.5 83,-79.5"/>
<text text-anchor="middle" x="41.5" y="-67.5" font-family="Helvetica,sans-Serif" font-size="10.00">unordered_map</text>
</a>
</g>
</g>
<!-- Node3&#45;&gt;Node10 -->
<g id="edge9" class="edge">
<title>Node3&#45;&gt;Node10</title>
<path fill="none" stroke="#63b8ff" d="M210.27,-121.12C176.77,-111.17 120.63,-94.5 82.38,-83.14"/>
<polygon fill="#63b8ff" stroke="#63b8ff" points="83.64,-79.86 73.06,-80.37 81.65,-86.57 83.64,-79.86"/>
</g>
<!-- Node11 -->
<g id="node11" class="node">
<title>Node11</title>
<g id="a_node11"><a xlink:title=" ">
<polygon fill="#e0e0e0" stroke="#999999" points="476,-79.5 415,-79.5 415,-60.5 476,-60.5 476,-79.5"/>
<text text-anchor="middle" x="445.5" y="-67.5" font-family="Helvetica,sans-Serif" font-size="10.00">filesystem</text>
</a>
</g>
</g>
<!-- Node3&#45;&gt;Node11 -->
<g id="edge10" class="edge">
<title>Node3&#45;&gt;Node11</title>
<path fill="none" stroke="#63b8ff" d="M266.76,-122.67C300.12,-114.44 357.18,-99.87 405.5,-85 407.08,-84.51 408.7,-84 410.32,-83.48"/>
<polygon fill="#63b8ff" stroke="#63b8ff" points="411.25,-86.86 419.62,-80.37 409.03,-80.22 411.25,-86.86"/>
</g>
<!-- Node12 -->
<g id="node12" class="node">
<title>Node12</title>
<g id="a_node12"><a xlink:title=" ">
<polygon fill="#e0e0e0" stroke="#999999" points="544.5,-79.5 494.5,-79.5 494.5,-60.5 544.5,-60.5 544.5,-79.5"/>
<text text-anchor="middle" x="519.5" y="-67.5" font-family="Helvetica,sans-Serif" font-size="10.00">optional</text>
</a>
</g>
</g>
<!-- Node3&#45;&gt;Node12 -->
<g id="edge11" class="edge">
<title>Node3&#45;&gt;Node12</title>
<path fill="none" stroke="#63b8ff" d="M266.75,-122.84C269.7,-122.19 272.66,-121.57 275.5,-121 368.35,-102.39 394.5,-111.19 485.5,-85 486.85,-84.61 488.21,-84.19 489.58,-83.74"/>
<polygon fill="#63b8ff" stroke="#63b8ff" points="490.4,-87.17 498.57,-80.42 487.97,-80.6 490.4,-87.17"/>
</g>
<!-- Node5 -->
<g id="node5" class="node">
<title>Node5</title>
<g id="a_node5"><a xlink:title=" ">
<polygon fill="#e0e0e0" stroke="#999999" points="330.5,-19 268.5,-19 268.5,0 330.5,0 330.5,-19"/>
<text text-anchor="middle" x="299.5" y="-7" font-family="Helvetica,sans-Serif" font-size="10.00">type_traits</text>
</a>
</g>
</g>
<!-- Node4&#45;&gt;Node5 -->
<g id="edge4" class="edge">
<title>Node4&#45;&gt;Node5</title>
<path fill="none" stroke="#63b8ff" d="M326.6,-54.54C321.8,-46.74 315.82,-37.03 310.71,-28.71"/>
<polygon fill="#63b8ff" stroke="#63b8ff" points="313.85,-27.15 305.63,-20.46 307.89,-30.82 313.85,-27.15"/>
</g>
<!-- Node6 -->
<g id="node6" class="node">
<title>Node6</title>
<g id="a_node6"><a xlink:title=" ">
<polygon fill="#e0e0e0" stroke="#999999" points="394.5,-19 348.5,-19 348.5,0 394.5,0 394.5,-19"/>
<text text-anchor="middle" x="371.5" y="-7" font-family="Helvetica,sans-Serif" font-size="10.00">cstdint</text>
</a>
</g>
</g>
<!-- Node4&#45;&gt;Node6 -->
<g id="edge5" class="edge">
<title>Node4&#45;&gt;Node6</title>
<path fill="none" stroke="#63b8ff" d="M344.4,-54.54C349.2,-46.74 355.18,-37.03 360.29,-28.71"/>
<polygon fill="#63b8ff" stroke="#63b8ff" points="363.11,-30.82 365.37,-20.46 357.15,-27.15 363.11,-30.82"/>
</g>
<!-- Node13&#45;&gt;Node7 -->
<g id="edge13" class="edge">
<title>Node13&#45;&gt;Node7</title>
<path fill="none" stroke="#63b8ff" d="M153.04,-120.87C147.79,-112.57 139.7,-99.78 133.03,-89.22"/>
<polygon fill="#63b8ff" stroke="#63b8ff" points="136.09,-87.53 127.79,-80.95 130.18,-91.27 136.09,-87.53"/>
</g>
<!-- Node13&#45;&gt;Node8 -->
<g id="edge14" class="edge">
<title>Node13&#45;&gt;Node8</title>
<path fill="none" stroke="#63b8ff" d="M161.89,-120.87C165.05,-112.83 169.87,-100.57 173.94,-90.22"/>
<polygon fill="#63b8ff" stroke="#63b8ff" points="177.14,-91.66 177.54,-81.08 170.62,-89.1 177.14,-91.66"/>
</g>
<!-- Node13&#45;&gt;Node9 -->
<g id="edge16" class="edge">
<title>Node13&#45;&gt;Node9</title>
<path fill="none" stroke="#63b8ff" d="M170.65,-120.62C182.98,-111.6 202.33,-97.45 217.22,-86.56"/>
<polygon fill="#63b8ff" stroke="#63b8ff" points="219.01,-89.59 225.01,-80.86 214.88,-83.94 219.01,-89.59"/>
</g>
<!-- Node13&#45;&gt;Node10 -->
<g id="edge15" class="edge">
<title>Node13&#45;&gt;Node10</title>
<path fill="none" stroke="#63b8ff" d="M140.73,-120.62C121.83,-111.17 91.68,-96.09 69.56,-85.03"/>
<polygon fill="#63b8ff" stroke="#63b8ff" points="71.3,-81.99 60.79,-80.65 68.17,-88.25 71.3,-81.99"/>
</g>
</g>
</svg>
