<?xml version="1.0" encoding="UTF-8" standalone="no"?>
<!DOCTYPE svg PUBLIC "-//W3C//DTD SVG 1.1//EN"
 "http://www.w3.org/Graphics/SVG/1.1/DTD/svg11.dtd">
<!-- Generated by graphviz version 7.0.6 (20230106.0513)
 -->
<!-- Title: HealthGPS.Console/jsonparser.h Pages: 1 -->
<svg width="528pt" height="93pt"
 viewBox="0.00 0.00 527.50 93.00" xmlns="http://www.w3.org/2000/svg" xmlns:xlink="http://www.w3.org/1999/xlink">
<g id="graph0" class="graph" transform="scale(1 1) rotate(0) translate(4 89)">
<title>HealthGPS.Console/jsonparser.h</title>
<!-- Node1 -->
<g id="node1" class="node">
<title>Node1</title>
<g id="a_node1"><a xlink:title=" ">
<polygon fill="#999999" stroke="#666666" points="363,-85 203,-85 203,-66 363,-66 363,-85"/>
<text text-anchor="middle" x="283" y="-73" font-family="Helvetica,sans-Serif" font-size="10.00">HealthGPS.Console/jsonparser.h</text>
</a>
</g>
</g>
<!-- Node2 -->
<g id="node2" class="node">
<title>Node2</title>
<g id="a_node2"><a xlink:href="configuration_8cpp.html" target="_top" xlink:title=" ">
<polygon fill="white" stroke="#666666" points="180,-24.5 0,-24.5 0,-5.5 180,-5.5 180,-24.5"/>
<text text-anchor="middle" x="90" y="-12.5" font-family="Helvetica,sans-Serif" font-size="10.00">HealthGPS.Console/configuration.cpp</text>
</a>
</g>
</g>
<!-- Node1&#45;&gt;Node2 -->
<g id="edge1" class="edge">
<title>Node1&#45;&gt;Node2</title>
<path fill="none" stroke="#63b8ff" d="M242.86,-62.33C206.12,-51.2 152.58,-34.97 119.59,-24.97"/>
<polygon fill="#63b8ff" stroke="#63b8ff" points="241.65,-65.62 252.24,-65.18 243.68,-58.93 241.65,-65.62"/>
</g>
<!-- Node3 -->
<g id="node3" class="node">
<title>Node3</title>
<g id="a_node3"><a xlink:href="jsonparser_8cpp.html" target="_top" xlink:title=" ">
<polygon fill="white" stroke="#666666" points="368,-24.5 198,-24.5 198,-5.5 368,-5.5 368,-24.5"/>
<text text-anchor="middle" x="283" y="-12.5" font-family="Helvetica,sans-Serif" font-size="10.00">HealthGPS.Console/jsonparser.cpp</text>
</a>
</g>
</g>
<!-- Node1&#45;&gt;Node3 -->
<g id="edge2" class="edge">
<title>Node1&#45;&gt;Node3</title>
<path fill="none" stroke="#63b8ff" d="M283,-54.66C283,-44.45 283,-32.54 283,-24.67"/>
<polygon fill="#63b8ff" stroke="#63b8ff" points="279.5,-54.35 283,-64.35 286.5,-54.35 279.5,-54.35"/>
</g>
<!-- Node4 -->
<g id="node4" class="node">
<title>Node4</title>
<g id="a_node4"><a xlink:href="model__parser_8cpp.html" target="_top" xlink:title=" ">
<polygon fill="white" stroke="#666666" points="519.5,-30 386.5,-30 386.5,0 519.5,0 519.5,-30"/>
<text text-anchor="start" x="394.5" y="-18" font-family="Helvetica,sans-Serif" font-size="10.00">HealthGPS.Console/model</text>
<text text-anchor="middle" x="453" y="-7" font-family="Helvetica,sans-Serif" font-size="10.00">_parser.cpp</text>
</a>
</g>
</g>
<!-- Node1&#45;&gt;Node4 -->
<g id="edge3" class="edge">
<title>Node1&#45;&gt;Node4</title>
<path fill="none" stroke="#63b8ff" d="M319.69,-61.88C346.54,-52.64 383.03,-40.08 411.04,-30.44"/>
<polygon fill="#63b8ff" stroke="#63b8ff" points="318.57,-58.56 310.25,-65.12 320.85,-65.18 318.57,-58.56"/>
</g>
</g>
</svg>
