<?xml version="1.0" encoding="UTF-8" standalone="no"?>
<!DOCTYPE svg PUBLIC "-//W3C//DTD SVG 1.1//EN"
 "http://www.w3.org/Graphics/SVG/1.1/DTD/svg11.dtd">
<!-- Generated by graphviz version 2.43.0 (0)
 -->
<!-- Title: HealthGPS/life_table.cpp Pages: 1 -->
<svg width="430pt" height="252pt"
 viewBox="0.00 0.00 430.00 252.00" xmlns="http://www.w3.org/2000/svg" xmlns:xlink="http://www.w3.org/1999/xlink">
<g id="graph0" class="graph" transform="scale(1 1) rotate(0) translate(4 248)">
<title>HealthGPS/life_table.cpp</title>
<!-- Node1 -->
<g id="node1" class="node">
<title>Node1</title>
<g id="a_node1"><a xlink:title=" ">
<polygon fill="#bfbfbf" stroke="black" points="269.5,-224.5 269.5,-243.5 406.5,-243.5 406.5,-224.5 269.5,-224.5"/>
<text text-anchor="middle" x="338" y="-231.5" font-family="Helvetica,sans-Serif" font-size="10.00">HealthGPS/life_table.cpp</text>
</a>
</g>
</g>
<!-- Node2 -->
<g id="node2" class="node">
<title>Node2</title>
<g id="a_node2"><a xlink:href="life__table_8h.html" target="_top" xlink:title=" ">
<polygon fill="none" stroke="black" points="192.5,-168.5 192.5,-187.5 263.5,-187.5 263.5,-168.5 192.5,-168.5"/>
<text text-anchor="middle" x="228" y="-175.5" font-family="Helvetica,sans-Serif" font-size="10.00">life_table.h</text>
</a>
</g>
</g>
<!-- Node1&#45;&gt;Node2 -->
<g id="edge1" class="edge">
<title>Node1&#45;&gt;Node2</title>
<path fill="none" stroke="midnightblue" d="M320.33,-224.32C302.61,-215.62 275.1,-202.12 254.71,-192.11"/>
<polygon fill="midnightblue" stroke="midnightblue" points="256.15,-188.92 245.63,-187.65 253.06,-195.2 256.15,-188.92"/>
</g>
<!-- Node11 -->
<g id="node11" class="node">
<title>Node11</title>
<g id="a_node11"><a xlink:title=" ">
<polygon fill="none" stroke="#bfbfbf" points="287.5,-56.5 287.5,-75.5 366.5,-75.5 366.5,-56.5 287.5,-56.5"/>
<text text-anchor="middle" x="327" y="-63.5" font-family="Helvetica,sans-Serif" font-size="10.00">fmt/format.h</text>
</a>
</g>
</g>
<!-- Node1&#45;&gt;Node11 -->
<g id="edge14" class="edge">
<title>Node1&#45;&gt;Node11</title>
<path fill="none" stroke="midnightblue" d="M337.41,-224.08C335.68,-197.95 330.59,-121.21 328.23,-85.58"/>
<polygon fill="midnightblue" stroke="midnightblue" points="331.72,-85.31 327.57,-75.57 324.74,-85.78 331.72,-85.31"/>
</g>
<!-- Node13 -->
<g id="node13" class="node">
<title>Node13</title>
<g id="a_node13"><a xlink:title=" ">
<polygon fill="none" stroke="#bfbfbf" points="366,-168.5 366,-187.5 422,-187.5 422,-168.5 366,-168.5"/>
<text text-anchor="middle" x="394" y="-175.5" font-family="Helvetica,sans-Serif" font-size="10.00">numeric</text>
</a>
</g>
</g>
<!-- Node1&#45;&gt;Node13 -->
<g id="edge13" class="edge">
<title>Node1&#45;&gt;Node13</title>
<path fill="none" stroke="midnightblue" d="M347,-224.32C355.19,-216.42 367.51,-204.55 377.47,-194.94"/>
<polygon fill="midnightblue" stroke="midnightblue" points="380.07,-197.29 384.84,-187.83 375.21,-192.26 380.07,-197.29"/>
</g>
<!-- Node3 -->
<g id="node3" class="node">
<title>Node3</title>
<g id="a_node3"><a xlink:href="gender__value_8h.html" target="_top" xlink:title=" ">
<polygon fill="none" stroke="black" points="0,-112.5 0,-131.5 92,-131.5 92,-112.5 0,-112.5"/>
<text text-anchor="middle" x="46" y="-119.5" font-family="Helvetica,sans-Serif" font-size="10.00">gender_value.h</text>
</a>
</g>
</g>
<!-- Node2&#45;&gt;Node3 -->
<g id="edge2" class="edge">
<title>Node2&#45;&gt;Node3</title>
<path fill="none" stroke="midnightblue" d="M199.16,-168.44C168.14,-159.24 118.67,-144.56 84.38,-134.39"/>
<polygon fill="midnightblue" stroke="midnightblue" points="85.29,-131.01 74.7,-131.52 83.29,-137.72 85.29,-131.01"/>
</g>
<!-- Node5 -->
<g id="node5" class="node">
<title>Node5</title>
<g id="a_node5"><a xlink:href="interval_8h.html" target="_top" xlink:title=" ">
<polygon fill="none" stroke="black" points="110.5,-112.5 110.5,-131.5 253.5,-131.5 253.5,-112.5 110.5,-112.5"/>
<text text-anchor="middle" x="182" y="-119.5" font-family="Helvetica,sans-Serif" font-size="10.00">HealthGPS.Core/interval.h</text>
</a>
</g>
</g>
<!-- Node2&#45;&gt;Node5 -->
<g id="edge4" class="edge">
<title>Node2&#45;&gt;Node5</title>
<path fill="none" stroke="midnightblue" d="M220.4,-168.08C213.77,-160.3 203.98,-148.8 195.94,-139.37"/>
<polygon fill="midnightblue" stroke="midnightblue" points="198.6,-137.09 189.45,-131.75 193.27,-141.63 198.6,-137.09"/>
</g>
<!-- Node12 -->
<g id="node12" class="node">
<title>Node12</title>
<g id="a_node12"><a xlink:title=" ">
<polygon fill="none" stroke="#bfbfbf" points="272,-112.5 272,-131.5 310,-131.5 310,-112.5 272,-112.5"/>
<text text-anchor="middle" x="291" y="-119.5" font-family="Helvetica,sans-Serif" font-size="10.00">map</text>
</a>
</g>
</g>
<!-- Node2&#45;&gt;Node12 -->
<g id="edge12" class="edge">
<title>Node2&#45;&gt;Node12</title>
<path fill="none" stroke="midnightblue" d="M238.12,-168.32C247.53,-160.26 261.74,-148.08 273.07,-138.37"/>
<polygon fill="midnightblue" stroke="midnightblue" points="275.38,-141 280.69,-131.83 270.82,-135.68 275.38,-141"/>
</g>
<!-- Node4 -->
<g id="node4" class="node">
<title>Node4</title>
<g id="a_node4"><a xlink:title=" ">
<polygon fill="none" stroke="#bfbfbf" points="11.5,-0.5 11.5,-19.5 80.5,-19.5 80.5,-0.5 11.5,-0.5"/>
<text text-anchor="middle" x="46" y="-7.5" font-family="Helvetica,sans-Serif" font-size="10.00">type_traits</text>
</a>
</g>
</g>
<!-- Node3&#45;&gt;Node4 -->
<g id="edge3" class="edge">
<title>Node3&#45;&gt;Node4</title>
<path fill="none" stroke="midnightblue" d="M46,-112.37C46,-94.62 46,-53.67 46,-29.6"/>
<polygon fill="midnightblue" stroke="midnightblue" points="49.5,-29.59 46,-19.59 42.5,-29.59 49.5,-29.59"/>
</g>
<!-- Node6 -->
<g id="node6" class="node">
<title>Node6</title>
<g id="a_node6"><a xlink:href="forward__type_8h.html" target="_top" xlink:title=" ">
<polygon fill="none" stroke="black" points="76,-56.5 76,-75.5 166,-75.5 166,-56.5 76,-56.5"/>
<text text-anchor="middle" x="121" y="-63.5" font-family="Helvetica,sans-Serif" font-size="10.00">forward_type.h</text>
</a>
</g>
</g>
<!-- Node5&#45;&gt;Node6 -->
<g id="edge5" class="edge">
<title>Node5&#45;&gt;Node6</title>
<path fill="none" stroke="midnightblue" d="M172.2,-112.32C163.18,-104.34 149.59,-92.31 138.68,-82.65"/>
<polygon fill="midnightblue" stroke="midnightblue" points="140.79,-79.84 130.98,-75.83 136.15,-85.08 140.79,-79.84"/>
</g>
<!-- Node8 -->
<g id="node8" class="node">
<title>Node8</title>
<g id="a_node8"><a xlink:href="string__util_8h.html" target="_top" xlink:title=" ">
<polygon fill="none" stroke="black" points="184,-56.5 184,-75.5 258,-75.5 258,-56.5 184,-56.5"/>
<text text-anchor="middle" x="221" y="-63.5" font-family="Helvetica,sans-Serif" font-size="10.00">string_util.h</text>
</a>
</g>
</g>
<!-- Node5&#45;&gt;Node8 -->
<g id="edge8" class="edge">
<title>Node5&#45;&gt;Node8</title>
<path fill="none" stroke="midnightblue" d="M188.44,-112.08C193.95,-104.46 202.03,-93.26 208.76,-83.94"/>
<polygon fill="midnightblue" stroke="midnightblue" points="211.66,-85.91 214.68,-75.75 205.99,-81.81 211.66,-85.91"/>
</g>
<!-- Node5&#45;&gt;Node11 -->
<g id="edge11" class="edge">
<title>Node5&#45;&gt;Node11</title>
<path fill="none" stroke="midnightblue" d="M204.98,-112.44C229.16,-103.44 267.42,-89.19 294.65,-79.05"/>
<polygon fill="midnightblue" stroke="midnightblue" points="295.98,-82.29 304.13,-75.52 293.54,-75.73 295.98,-82.29"/>
</g>
<!-- Node6&#45;&gt;Node4 -->
<g id="edge6" class="edge">
<title>Node6&#45;&gt;Node4</title>
<path fill="none" stroke="midnightblue" d="M108.95,-56.32C97.54,-48.11 80.17,-35.6 66.57,-25.81"/>
<polygon fill="midnightblue" stroke="midnightblue" points="68.43,-22.84 58.27,-19.83 64.34,-28.52 68.43,-22.84"/>
</g>
<!-- Node7 -->
<g id="node7" class="node">
<title>Node7</title>
<g id="a_node7"><a xlink:title=" ">
<polygon fill="none" stroke="#bfbfbf" points="99,-0.5 99,-19.5 149,-19.5 149,-0.5 99,-0.5"/>
<text text-anchor="middle" x="124" y="-7.5" font-family="Helvetica,sans-Serif" font-size="10.00">cstdint</text>
</a>
</g>
</g>
<!-- Node6&#45;&gt;Node7 -->
<g id="edge7" class="edge">
<title>Node6&#45;&gt;Node7</title>
<path fill="none" stroke="midnightblue" d="M121.5,-56.08C121.89,-49.01 122.45,-38.86 122.95,-29.99"/>
<polygon fill="midnightblue" stroke="midnightblue" points="126.45,-29.93 123.51,-19.75 119.46,-29.54 126.45,-29.93"/>
</g>
<!-- Node9 -->
<g id="node9" class="node">
<title>Node9</title>
<g id="a_node9"><a xlink:title=" ">
<polygon fill="none" stroke="#bfbfbf" points="183,-0.5 183,-19.5 227,-19.5 227,-0.5 183,-0.5"/>
<text text-anchor="middle" x="205" y="-7.5" font-family="Helvetica,sans-Serif" font-size="10.00">string</text>
</a>
</g>
</g>
<!-- Node8&#45;&gt;Node9 -->
<g id="edge9" class="edge">
<title>Node8&#45;&gt;Node9</title>
<path fill="none" stroke="midnightblue" d="M218.36,-56.08C216.21,-48.85 213.12,-38.41 210.45,-29.4"/>
<polygon fill="midnightblue" stroke="midnightblue" points="213.79,-28.34 207.59,-19.75 207.08,-30.33 213.79,-28.34"/>
</g>
<!-- Node10 -->
<g id="node10" class="node">
<title>Node10</title>
<g id="a_node10"><a xlink:title=" ">
<polygon fill="none" stroke="#bfbfbf" points="245.5,-0.5 245.5,-19.5 310.5,-19.5 310.5,-0.5 245.5,-0.5"/>
<text text-anchor="middle" x="278" y="-7.5" font-family="Helvetica,sans-Serif" font-size="10.00">functional</text>
</a>
</g>
</g>
<!-- Node8&#45;&gt;Node10 -->
<g id="edge10" class="edge">
<title>Node8&#45;&gt;Node10</title>
<path fill="none" stroke="midnightblue" d="M230.16,-56.32C238.5,-48.42 251.03,-36.55 261.18,-26.94"/>
<polygon fill="midnightblue" stroke="midnightblue" points="263.82,-29.25 268.68,-19.83 259.01,-24.17 263.82,-29.25"/>
</g>
</g>
</svg>
