<?xml version="1.0" encoding="UTF-8" standalone="no"?>
<!DOCTYPE svg PUBLIC "-//W3C//DTD SVG 1.1//EN"
 "http://www.w3.org/Graphics/SVG/1.1/DTD/svg11.dtd">
<!-- Generated by graphviz version 2.43.0 (0)
 -->
<!-- Title: HealthGPS/life_table.h Pages: 1 -->
<svg width="440pt" height="196pt"
 viewBox="0.00 0.00 439.50 196.00" xmlns="http://www.w3.org/2000/svg" xmlns:xlink="http://www.w3.org/1999/xlink">
<g id="graph0" class="graph" transform="scale(1 1) rotate(0) translate(4 192)">
<title>HealthGPS/life_table.h</title>
<!-- Node1 -->
<g id="node1" class="node">
<title>Node1</title>
<g id="a_node1"><a xlink:title=" ">
<polygon fill="#bfbfbf" stroke="black" points="266.5,-168.5 266.5,-187.5 392.5,-187.5 392.5,-168.5 266.5,-168.5"/>
<text text-anchor="middle" x="329.5" y="-175.5" font-family="Helvetica,sans-Serif" font-size="10.00">HealthGPS/life_table.h</text>
</a>
</g>
</g>
<!-- Node2 -->
<g id="node2" class="node">
<title>Node2</title>
<g id="a_node2"><a xlink:href="interval_8h.html" target="_top" xlink:title=" ">
<polygon fill="none" stroke="black" points="112,-112.5 112,-131.5 255,-131.5 255,-112.5 112,-112.5"/>
<text text-anchor="middle" x="183.5" y="-119.5" font-family="Helvetica,sans-Serif" font-size="10.00">HealthGPS.Core/interval.h</text>
</a>
</g>
</g>
<!-- Node1&#45;&gt;Node2 -->
<g id="edge1" class="edge">
<title>Node1&#45;&gt;Node2</title>
<path fill="none" stroke="midnightblue" d="M306.37,-168.44C282.02,-159.44 243.49,-145.19 216.08,-135.05"/>
<polygon fill="midnightblue" stroke="midnightblue" points="217.12,-131.7 206.53,-131.52 214.69,-138.27 217.12,-131.7"/>
</g>
<!-- Node10 -->
<g id="node10" class="node">
<title>Node10</title>
<g id="a_node10"><a xlink:href="gender__value_8h.html" target="_top" xlink:title=" ">
<polygon fill="none" stroke="black" points="283.5,-112.5 283.5,-131.5 375.5,-131.5 375.5,-112.5 283.5,-112.5"/>
<text text-anchor="middle" x="329.5" y="-119.5" font-family="Helvetica,sans-Serif" font-size="10.00">gender_value.h</text>
</a>
</g>
</g>
<!-- Node1&#45;&gt;Node10 -->
<g id="edge9" class="edge">
<title>Node1&#45;&gt;Node10</title>
<path fill="none" stroke="midnightblue" d="M329.5,-168.08C329.5,-161.01 329.5,-150.86 329.5,-141.99"/>
<polygon fill="midnightblue" stroke="midnightblue" points="333,-141.75 329.5,-131.75 326,-141.75 333,-141.75"/>
</g>
<!-- Node11 -->
<g id="node11" class="node">
<title>Node11</title>
<g id="a_node11"><a xlink:title=" ">
<polygon fill="none" stroke="#bfbfbf" points="393.5,-112.5 393.5,-131.5 431.5,-131.5 431.5,-112.5 393.5,-112.5"/>
<text text-anchor="middle" x="412.5" y="-119.5" font-family="Helvetica,sans-Serif" font-size="10.00">map</text>
</a>
</g>
</g>
<!-- Node1&#45;&gt;Node11 -->
<g id="edge11" class="edge">
<title>Node1&#45;&gt;Node11</title>
<path fill="none" stroke="midnightblue" d="M342.84,-168.32C355.66,-159.98 375.28,-147.21 390.44,-137.35"/>
<polygon fill="midnightblue" stroke="midnightblue" points="392.72,-140.04 399.2,-131.65 388.91,-134.17 392.72,-140.04"/>
</g>
<!-- Node3 -->
<g id="node3" class="node">
<title>Node3</title>
<g id="a_node3"><a xlink:href="forward__type_8h.html" target="_top" xlink:title=" ">
<polygon fill="none" stroke="black" points="221.5,-56.5 221.5,-75.5 311.5,-75.5 311.5,-56.5 221.5,-56.5"/>
<text text-anchor="middle" x="266.5" y="-63.5" font-family="Helvetica,sans-Serif" font-size="10.00">forward_type.h</text>
</a>
</g>
</g>
<!-- Node2&#45;&gt;Node3 -->
<g id="edge2" class="edge">
<title>Node2&#45;&gt;Node3</title>
<path fill="none" stroke="midnightblue" d="M196.84,-112.32C209.66,-103.98 229.28,-91.21 244.44,-81.35"/>
<polygon fill="midnightblue" stroke="midnightblue" points="246.72,-84.04 253.2,-75.65 242.91,-78.17 246.72,-84.04"/>
</g>
<!-- Node6 -->
<g id="node6" class="node">
<title>Node6</title>
<g id="a_node6"><a xlink:href="string__util_8h.html" target="_top" xlink:title=" ">
<polygon fill="none" stroke="black" points="31.5,-56.5 31.5,-75.5 105.5,-75.5 105.5,-56.5 31.5,-56.5"/>
<text text-anchor="middle" x="68.5" y="-63.5" font-family="Helvetica,sans-Serif" font-size="10.00">string_util.h</text>
</a>
</g>
</g>
<!-- Node2&#45;&gt;Node6 -->
<g id="edge5" class="edge">
<title>Node2&#45;&gt;Node6</title>
<path fill="none" stroke="midnightblue" d="M165.28,-112.44C146.6,-103.68 117.34,-89.94 95.88,-79.86"/>
<polygon fill="midnightblue" stroke="midnightblue" points="97.18,-76.6 86.64,-75.52 94.2,-82.93 97.18,-76.6"/>
</g>
<!-- Node9 -->
<g id="node9" class="node">
<title>Node9</title>
<g id="a_node9"><a xlink:title=" ">
<polygon fill="none" stroke="#bfbfbf" points="124,-56.5 124,-75.5 203,-75.5 203,-56.5 124,-56.5"/>
<text text-anchor="middle" x="163.5" y="-63.5" font-family="Helvetica,sans-Serif" font-size="10.00">fmt/format.h</text>
</a>
</g>
</g>
<!-- Node2&#45;&gt;Node9 -->
<g id="edge8" class="edge">
<title>Node2&#45;&gt;Node9</title>
<path fill="none" stroke="midnightblue" d="M180.2,-112.08C177.52,-104.85 173.65,-94.41 170.31,-85.4"/>
<polygon fill="midnightblue" stroke="midnightblue" points="173.5,-83.91 166.74,-75.75 166.93,-86.34 173.5,-83.91"/>
</g>
<!-- Node4 -->
<g id="node4" class="node">
<title>Node4</title>
<g id="a_node4"><a xlink:title=" ">
<polygon fill="none" stroke="#bfbfbf" points="236.5,-0.5 236.5,-19.5 286.5,-19.5 286.5,-0.5 236.5,-0.5"/>
<text text-anchor="middle" x="261.5" y="-7.5" font-family="Helvetica,sans-Serif" font-size="10.00">cstdint</text>
</a>
</g>
</g>
<!-- Node3&#45;&gt;Node4 -->
<g id="edge3" class="edge">
<title>Node3&#45;&gt;Node4</title>
<path fill="none" stroke="midnightblue" d="M265.67,-56.08C265.02,-49.01 264.08,-38.86 263.26,-29.99"/>
<polygon fill="midnightblue" stroke="midnightblue" points="266.72,-29.39 262.31,-19.75 259.75,-30.03 266.72,-29.39"/>
</g>
<!-- Node5 -->
<g id="node5" class="node">
<title>Node5</title>
<g id="a_node5"><a xlink:title=" ">
<polygon fill="none" stroke="#bfbfbf" points="305,-0.5 305,-19.5 374,-19.5 374,-0.5 305,-0.5"/>
<text text-anchor="middle" x="339.5" y="-7.5" font-family="Helvetica,sans-Serif" font-size="10.00">type_traits</text>
</a>
</g>
</g>
<!-- Node3&#45;&gt;Node5 -->
<g id="edge4" class="edge">
<title>Node3&#45;&gt;Node5</title>
<path fill="none" stroke="midnightblue" d="M278.23,-56.32C289.34,-48.11 306.24,-35.6 319.48,-25.81"/>
<polygon fill="midnightblue" stroke="midnightblue" points="321.6,-28.59 327.56,-19.83 317.44,-22.97 321.6,-28.59"/>
</g>
<!-- Node7 -->
<g id="node7" class="node">
<title>Node7</title>
<g id="a_node7"><a xlink:title=" ">
<polygon fill="none" stroke="#bfbfbf" points="0,-0.5 0,-19.5 65,-19.5 65,-0.5 0,-0.5"/>
<text text-anchor="middle" x="32.5" y="-7.5" font-family="Helvetica,sans-Serif" font-size="10.00">functional</text>
</a>
</g>
</g>
<!-- Node6&#45;&gt;Node7 -->
<g id="edge6" class="edge">
<title>Node6&#45;&gt;Node7</title>
<path fill="none" stroke="midnightblue" d="M62.56,-56.08C57.52,-48.53 50.16,-37.49 43.99,-28.23"/>
<polygon fill="midnightblue" stroke="midnightblue" points="46.79,-26.13 38.33,-19.75 40.97,-30.01 46.79,-26.13"/>
</g>
<!-- Node8 -->
<g id="node8" class="node">
<title>Node8</title>
<g id="a_node8"><a xlink:title=" ">
<polygon fill="none" stroke="#bfbfbf" points="83.5,-0.5 83.5,-19.5 127.5,-19.5 127.5,-0.5 83.5,-0.5"/>
<text text-anchor="middle" x="105.5" y="-7.5" font-family="Helvetica,sans-Serif" font-size="10.00">string</text>
</a>
</g>
</g>
<!-- Node6&#45;&gt;Node8 -->
<g id="edge7" class="edge">
<title>Node6&#45;&gt;Node8</title>
<path fill="none" stroke="midnightblue" d="M74.61,-56.08C79.78,-48.53 87.35,-37.49 93.69,-28.23"/>
<polygon fill="midnightblue" stroke="midnightblue" points="96.74,-29.98 99.5,-19.75 90.96,-26.02 96.74,-29.98"/>
</g>
<!-- Node10&#45;&gt;Node5 -->
<g id="edge10" class="edge">
<title>Node10&#45;&gt;Node5</title>
<path fill="none" stroke="midnightblue" d="M330.28,-112.37C331.9,-94.62 335.62,-53.67 337.81,-29.6"/>
<polygon fill="midnightblue" stroke="midnightblue" points="341.3,-29.87 338.72,-19.59 334.33,-29.23 341.3,-29.87"/>
</g>
</g>
</svg>
