<?xml version="1.0" encoding="UTF-8" standalone="no"?>
<!DOCTYPE svg PUBLIC "-//W3C//DTD SVG 1.1//EN"
 "http://www.w3.org/Graphics/SVG/1.1/DTD/svg11.dtd">
<!-- Generated by graphviz version 2.43.0 (0)
 -->
<!-- Title: HealthGPS/life_table.cpp Pages: 1 -->
<svg width="430pt" height="252pt"
 viewBox="0.00 0.00 430.00 252.00" xmlns="http://www.w3.org/2000/svg" xmlns:xlink="http://www.w3.org/1999/xlink">
<g id="graph0" class="graph" transform="scale(1 1) rotate(0) translate(4 248)">
<title>HealthGPS/life_table.cpp</title>
<!-- Node1 -->
<g id="node1" class="node">
<title>Node1</title>
<g id="a_node1"><a xlink:title=" ">
<polygon fill="#bfbfbf" stroke="black" points="269.5,-224.5 269.5,-243.5 406.5,-243.5 406.5,-224.5 269.5,-224.5"/>
<text text-anchor="middle" x="338" y="-231.5" font-family="Helvetica,sans-Serif" font-size="10.00">HealthGPS/life_table.cpp</text>
</a>
</g>
</g>
<!-- Node2 -->
<g id="node2" class="node">
<title>Node2</title>
<g id="a_node2"><a xlink:href="life__table_8h.html" target="_top" xlink:title=" ">
<polygon fill="none" stroke="black" points="148.5,-168.5 148.5,-187.5 219.5,-187.5 219.5,-168.5 148.5,-168.5"/>
<text text-anchor="middle" x="184" y="-175.5" font-family="Helvetica,sans-Serif" font-size="10.00">life_table.h</text>
</a>
</g>
</g>
<!-- Node1&#45;&gt;Node2 -->
<g id="edge1" class="edge">
<title>Node1&#45;&gt;Node2</title>
<path fill="none" stroke="midnightblue" d="M313.6,-224.44C287.8,-215.4 246.92,-201.06 217.98,-190.92"/>
<polygon fill="midnightblue" stroke="midnightblue" points="218.88,-187.52 208.29,-187.52 216.57,-194.13 218.88,-187.52"/>
</g>
<!-- Node10 -->
<g id="node10" class="node">
<title>Node10</title>
<g id="a_node10"><a xlink:title=" ">
<polygon fill="none" stroke="#bfbfbf" points="295.5,-56.5 295.5,-75.5 374.5,-75.5 374.5,-56.5 295.5,-56.5"/>
<text text-anchor="middle" x="335" y="-63.5" font-family="Helvetica,sans-Serif" font-size="10.00">fmt/format.h</text>
</a>
</g>
</g>
<!-- Node1&#45;&gt;Node10 -->
<g id="edge13" class="edge">
<title>Node1&#45;&gt;Node10</title>
<path fill="none" stroke="midnightblue" d="M337.84,-224.08C337.37,-197.95 335.98,-121.21 335.34,-85.58"/>
<polygon fill="midnightblue" stroke="midnightblue" points="338.84,-85.5 335.15,-75.57 331.84,-85.63 338.84,-85.5"/>
</g>
<!-- Node13 -->
<g id="node13" class="node">
<title>Node13</title>
<g id="a_node13"><a xlink:title=" ">
<polygon fill="none" stroke="#bfbfbf" points="366,-168.5 366,-187.5 422,-187.5 422,-168.5 366,-168.5"/>
<text text-anchor="middle" x="394" y="-175.5" font-family="Helvetica,sans-Serif" font-size="10.00">numeric</text>
</a>
</g>
</g>
<!-- Node1&#45;&gt;Node13 -->
<g id="edge14" class="edge">
<title>Node1&#45;&gt;Node13</title>
<path fill="none" stroke="midnightblue" d="M347,-224.32C355.19,-216.42 367.51,-204.55 377.47,-194.94"/>
<polygon fill="midnightblue" stroke="midnightblue" points="380.07,-197.29 384.84,-187.83 375.21,-192.26 380.07,-197.29"/>
</g>
<!-- Node3 -->
<g id="node3" class="node">
<title>Node3</title>
<g id="a_node3"><a xlink:href="interval_8h.html" target="_top" xlink:title=" ">
<polygon fill="none" stroke="black" points="166.5,-112.5 166.5,-131.5 309.5,-131.5 309.5,-112.5 166.5,-112.5"/>
<text text-anchor="middle" x="238" y="-119.5" font-family="Helvetica,sans-Serif" font-size="10.00">HealthGPS.Core/interval.h</text>
</a>
</g>
</g>
<!-- Node2&#45;&gt;Node3 -->
<g id="edge2" class="edge">
<title>Node2&#45;&gt;Node3</title>
<path fill="none" stroke="midnightblue" d="M192.92,-168.08C200.78,-160.22 212.43,-148.57 221.92,-139.08"/>
<polygon fill="midnightblue" stroke="midnightblue" points="224.65,-141.3 229.25,-131.75 219.7,-136.35 224.65,-141.3"/>
</g>
<!-- Node11 -->
<g id="node11" class="node">
<title>Node11</title>
<g id="a_node11"><a xlink:href="gender__value_8h.html" target="_top" xlink:title=" ">
<polygon fill="none" stroke="black" points="0,-112.5 0,-131.5 92,-131.5 92,-112.5 0,-112.5"/>
<text text-anchor="middle" x="46" y="-119.5" font-family="Helvetica,sans-Serif" font-size="10.00">gender_value.h</text>
</a>
</g>
</g>
<!-- Node2&#45;&gt;Node11 -->
<g id="edge10" class="edge">
<title>Node2&#45;&gt;Node11</title>
<path fill="none" stroke="midnightblue" d="M162.13,-168.44C139.22,-159.48 103.02,-145.31 77.13,-135.18"/>
<polygon fill="midnightblue" stroke="midnightblue" points="78.35,-131.9 67.76,-131.52 75.8,-138.42 78.35,-131.9"/>
</g>
<!-- Node12 -->
<g id="node12" class="node">
<title>Node12</title>
<g id="a_node12"><a xlink:title=" ">
<polygon fill="none" stroke="#bfbfbf" points="110,-112.5 110,-131.5 148,-131.5 148,-112.5 110,-112.5"/>
<text text-anchor="middle" x="129" y="-119.5" font-family="Helvetica,sans-Serif" font-size="10.00">map</text>
</a>
</g>
</g>
<!-- Node2&#45;&gt;Node12 -->
<g id="edge12" class="edge">
<title>Node2&#45;&gt;Node12</title>
<path fill="none" stroke="midnightblue" d="M174.92,-168.08C166.83,-160.14 154.8,-148.34 145.09,-138.8"/>
<polygon fill="midnightblue" stroke="midnightblue" points="147.5,-136.26 137.91,-131.75 142.6,-141.25 147.5,-136.26"/>
</g>
<!-- Node4 -->
<g id="node4" class="node">
<title>Node4</title>
<g id="a_node4"><a xlink:href="forward__type_8h.html" target="_top" xlink:title=" ">
<polygon fill="none" stroke="black" points="91,-56.5 91,-75.5 181,-75.5 181,-56.5 91,-56.5"/>
<text text-anchor="middle" x="136" y="-63.5" font-family="Helvetica,sans-Serif" font-size="10.00">forward_type.h</text>
</a>
</g>
</g>
<!-- Node3&#45;&gt;Node4 -->
<g id="edge3" class="edge">
<title>Node3&#45;&gt;Node4</title>
<path fill="none" stroke="midnightblue" d="M221.61,-112.32C205.33,-103.7 180.13,-90.36 161.28,-80.39"/>
<polygon fill="midnightblue" stroke="midnightblue" points="162.82,-77.24 152.35,-75.65 159.55,-83.43 162.82,-77.24"/>
</g>
<!-- Node7 -->
<g id="node7" class="node">
<title>Node7</title>
<g id="a_node7"><a xlink:href="string__util_8h.html" target="_top" xlink:title=" ">
<polygon fill="none" stroke="black" points="201,-56.5 201,-75.5 275,-75.5 275,-56.5 201,-56.5"/>
<text text-anchor="middle" x="238" y="-63.5" font-family="Helvetica,sans-Serif" font-size="10.00">string_util.h</text>
</a>
</g>
</g>
<!-- Node3&#45;&gt;Node7 -->
<g id="edge6" class="edge">
<title>Node3&#45;&gt;Node7</title>
<path fill="none" stroke="midnightblue" d="M238,-112.08C238,-105.01 238,-94.86 238,-85.99"/>
<polygon fill="midnightblue" stroke="midnightblue" points="241.5,-85.75 238,-75.75 234.5,-85.75 241.5,-85.75"/>
</g>
<!-- Node3&#45;&gt;Node10 -->
<g id="edge9" class="edge">
<title>Node3&#45;&gt;Node10</title>
<path fill="none" stroke="midnightblue" d="M253.58,-112.32C269,-103.74 292.81,-90.49 310.71,-80.52"/>
<polygon fill="midnightblue" stroke="midnightblue" points="312.42,-83.58 319.45,-75.65 309.01,-77.46 312.42,-83.58"/>
</g>
<!-- Node5 -->
<g id="node5" class="node">
<title>Node5</title>
<g id="a_node5"><a xlink:title=" ">
<polygon fill="none" stroke="#bfbfbf" points="111,-0.5 111,-19.5 161,-19.5 161,-0.5 111,-0.5"/>
<text text-anchor="middle" x="136" y="-7.5" font-family="Helvetica,sans-Serif" font-size="10.00">cstdint</text>
</a>
</g>
</g>
<!-- Node4&#45;&gt;Node5 -->
<g id="edge4" class="edge">
<title>Node4&#45;&gt;Node5</title>
<path fill="none" stroke="midnightblue" d="M136,-56.08C136,-49.01 136,-38.86 136,-29.99"/>
<polygon fill="midnightblue" stroke="midnightblue" points="139.5,-29.75 136,-19.75 132.5,-29.75 139.5,-29.75"/>
</g>
<!-- Node6 -->
<g id="node6" class="node">
<title>Node6</title>
<g id="a_node6"><a xlink:title=" ">
<polygon fill="none" stroke="#bfbfbf" points="20.5,-0.5 20.5,-19.5 89.5,-19.5 89.5,-0.5 20.5,-0.5"/>
<text text-anchor="middle" x="55" y="-7.5" font-family="Helvetica,sans-Serif" font-size="10.00">type_traits</text>
</a>
</g>
</g>
<!-- Node4&#45;&gt;Node6 -->
<g id="edge5" class="edge">
<title>Node4&#45;&gt;Node6</title>
<path fill="none" stroke="midnightblue" d="M122.99,-56.32C110.47,-47.98 91.32,-35.21 76.53,-25.35"/>
<polygon fill="midnightblue" stroke="midnightblue" points="78.24,-22.29 67.98,-19.65 74.36,-28.11 78.24,-22.29"/>
</g>
<!-- Node8 -->
<g id="node8" class="node">
<title>Node8</title>
<g id="a_node8"><a xlink:title=" ">
<polygon fill="none" stroke="#bfbfbf" points="191.5,-0.5 191.5,-19.5 256.5,-19.5 256.5,-0.5 191.5,-0.5"/>
<text text-anchor="middle" x="224" y="-7.5" font-family="Helvetica,sans-Serif" font-size="10.00">functional</text>
</a>
</g>
</g>
<!-- Node7&#45;&gt;Node8 -->
<g id="edge7" class="edge">
<title>Node7&#45;&gt;Node8</title>
<path fill="none" stroke="midnightblue" d="M235.69,-56.08C233.83,-48.93 231.16,-38.64 228.85,-29.69"/>
<polygon fill="midnightblue" stroke="midnightblue" points="232.17,-28.55 226.27,-19.75 225.39,-30.31 232.17,-28.55"/>
</g>
<!-- Node9 -->
<g id="node9" class="node">
<title>Node9</title>
<g id="a_node9"><a xlink:title=" ">
<polygon fill="none" stroke="#bfbfbf" points="275,-0.5 275,-19.5 319,-19.5 319,-0.5 275,-0.5"/>
<text text-anchor="middle" x="297" y="-7.5" font-family="Helvetica,sans-Serif" font-size="10.00">string</text>
</a>
</g>
</g>
<!-- Node7&#45;&gt;Node9 -->
<g id="edge8" class="edge">
<title>Node7&#45;&gt;Node9</title>
<path fill="none" stroke="midnightblue" d="M247.48,-56.32C256.2,-48.34 269.34,-36.31 279.9,-26.65"/>
<polygon fill="midnightblue" stroke="midnightblue" points="282.33,-29.17 287.35,-19.83 277.61,-24 282.33,-29.17"/>
</g>
<!-- Node11&#45;&gt;Node6 -->
<g id="edge11" class="edge">
<title>Node11&#45;&gt;Node6</title>
<path fill="none" stroke="midnightblue" d="M46.71,-112.37C48.16,-94.62 51.51,-53.67 53.48,-29.6"/>
<polygon fill="midnightblue" stroke="midnightblue" points="56.97,-29.84 54.3,-19.59 49.99,-29.27 56.97,-29.84"/>
</g>
</g>
</svg>
