<?xml version="1.0" encoding="UTF-8" standalone="no"?>
<!DOCTYPE svg PUBLIC "-//W3C//DTD SVG 1.1//EN"
 "http://www.w3.org/Graphics/SVG/1.1/DTD/svg11.dtd">
<!-- Generated by graphviz version 7.0.6 (20230106.0513)
 -->
<!-- Title: HealthGPS/lms_definition.h Pages: 1 -->
<svg width="1639pt" height="390pt"
 viewBox="0.00 0.00 1639.12 390.00" xmlns="http://www.w3.org/2000/svg" xmlns:xlink="http://www.w3.org/1999/xlink">
<g id="graph0" class="graph" transform="scale(1 1) rotate(0) translate(4 386)">
<title>HealthGPS/lms_definition.h</title>
<!-- Node1 -->
<g id="node1" class="node">
<title>Node1</title>
<g id="a_node1"><a xlink:title=" ">
<polygon fill="#999999" stroke="#666666" points="557.62,-382 421.62,-382 421.62,-363 557.62,-363 557.62,-382"/>
<text text-anchor="middle" x="489.62" y="-370" font-family="Helvetica,sans-Serif" font-size="10.00">HealthGPS/lms_definition.h</text>
</a>
</g>
</g>
<!-- Node2 -->
<g id="node2" class="node">
<title>Node2</title>
<g id="a_node2"><a xlink:href="converter_8h.html" target="_top" xlink:title=" ">
<polygon fill="white" stroke="#666666" points="298.62,-266.5 182.62,-266.5 182.62,-247.5 298.62,-247.5 298.62,-266.5"/>
<text text-anchor="middle" x="240.62" y="-254.5" font-family="Helvetica,sans-Serif" font-size="10.00">HealthGPS/converter.h</text>
</a>
</g>
</g>
<!-- Node1&#45;&gt;Node2 -->
<g id="edge1" class="edge">
<title>Node1&#45;&gt;Node2</title>
<path fill="none" stroke="#63b8ff" d="M459.92,-357.96C408.31,-334.43 303.44,-286.63 260.07,-266.86"/>
<polygon fill="#63b8ff" stroke="#63b8ff" points="458.16,-361 468.71,-361.97 461.06,-354.63 458.16,-361"/>
</g>
<!-- Node8 -->
<g id="node8" class="node">
<title>Node8</title>
<g id="a_node8"><a xlink:href="lms__model_8h.html" target="_top" xlink:title=" ">
<polygon fill="white" stroke="#666666" points="551.62,-266.5 427.62,-266.5 427.62,-247.5 551.62,-247.5 551.62,-266.5"/>
<text text-anchor="middle" x="489.62" y="-254.5" font-family="Helvetica,sans-Serif" font-size="10.00">HealthGPS/lms_model.h</text>
</a>
</g>
</g>
<!-- Node1&#45;&gt;Node8 -->
<g id="edge7" class="edge">
<title>Node1&#45;&gt;Node8</title>
<path fill="none" stroke="#63b8ff" d="M489.62,-351.23C489.62,-326.25 489.62,-284.9 489.62,-266.86"/>
<polygon fill="#63b8ff" stroke="#63b8ff" points="486.12,-351.08 489.62,-361.08 493.12,-351.08 486.12,-351.08"/>
</g>
<!-- Node11 -->
<g id="node11" class="node">
<title>Node11</title>
<g id="a_node11"><a xlink:href="repository_8h.html" target="_top" xlink:title=" ">
<polygon fill="white" stroke="#666666" points="956.12,-327 837.12,-327 837.12,-308 956.12,-308 956.12,-327"/>
<text text-anchor="middle" x="896.62" y="-315" font-family="Helvetica,sans-Serif" font-size="10.00">HealthGPS/repository.h</text>
</a>
</g>
</g>
<!-- Node1&#45;&gt;Node11 -->
<g id="edge11" class="edge">
<title>Node1&#45;&gt;Node11</title>
<path fill="none" stroke="#63b8ff" d="M569.03,-361.16C647.58,-350.93 766.03,-335.51 836.9,-326.28"/>
<polygon fill="#63b8ff" stroke="#63b8ff" points="568.71,-357.67 559.25,-362.43 569.61,-364.61 568.71,-357.67"/>
</g>
<!-- Node3 -->
<g id="node3" class="node">
<title>Node3</title>
<g id="a_node3"><a xlink:href="analysis__module_8cpp.html" target="_top" xlink:title=" ">
<polygon fill="white" stroke="#666666" points="566.62,-206 462.62,-206 462.62,-176 566.62,-176 566.62,-206"/>
<text text-anchor="start" x="470.62" y="-194" font-family="Helvetica,sans-Serif" font-size="10.00">HealthGPS/analysis</text>
<text text-anchor="middle" x="514.62" y="-183" font-family="Helvetica,sans-Serif" font-size="10.00">_module.cpp</text>
</a>
</g>
</g>
<!-- Node2&#45;&gt;Node3 -->
<g id="edge2" class="edge">
<title>Node2&#45;&gt;Node3</title>
<path fill="none" stroke="#63b8ff" d="M290.21,-244.42C338.9,-233.05 412.88,-215.76 462.45,-204.19"/>
<polygon fill="#63b8ff" stroke="#63b8ff" points="289.42,-241.01 280.48,-246.69 291.02,-247.82 289.42,-241.01"/>
</g>
<!-- Node4 -->
<g id="node4" class="node">
<title>Node4</title>
<g id="a_node4"><a xlink:href="converter_8cpp.html" target="_top" xlink:title=" ">
<polygon fill="white" stroke="#666666" points="144.62,-200.5 18.62,-200.5 18.62,-181.5 144.62,-181.5 144.62,-200.5"/>
<text text-anchor="middle" x="81.62" y="-188.5" font-family="Helvetica,sans-Serif" font-size="10.00">HealthGPS/converter.cpp</text>
</a>
</g>
</g>
<!-- Node2&#45;&gt;Node4 -->
<g id="edge3" class="edge">
<title>Node2&#45;&gt;Node4</title>
<path fill="none" stroke="#63b8ff" d="M208.19,-242.95C177.08,-230.42 130.93,-211.85 103.8,-200.93"/>
<polygon fill="#63b8ff" stroke="#63b8ff" points="206.53,-246.05 217.11,-246.54 209.14,-239.55 206.53,-246.05"/>
</g>
<!-- Node5 -->
<g id="node5" class="node">
<title>Node5</title>
<g id="a_node5"><a xlink:href="demographic_8cpp.html" target="_top" xlink:title=" ">
<polygon fill="white" stroke="#666666" points="728.12,-200.5 585.12,-200.5 585.12,-181.5 728.12,-181.5 728.12,-200.5"/>
<text text-anchor="middle" x="656.62" y="-188.5" font-family="Helvetica,sans-Serif" font-size="10.00">HealthGPS/demographic.cpp</text>
</a>
</g>
</g>
<!-- Node2&#45;&gt;Node5 -->
<g id="edge4" class="edge">
<title>Node2&#45;&gt;Node5</title>
<path fill="none" stroke="#63b8ff" d="M310.46,-246.05C378.28,-236.28 484.11,-220.74 575.62,-206 585.34,-204.43 595.71,-202.7 605.67,-200.99"/>
<polygon fill="#63b8ff" stroke="#63b8ff" points="309.98,-242.59 300.58,-247.47 310.98,-249.51 309.98,-242.59"/>
</g>
<!-- Node6 -->
<g id="node6" class="node">
<title>Node6</title>
<g id="a_node6"><a xlink:href="healthgps_8cpp.html" target="_top" xlink:title=" ">
<polygon fill="white" stroke="#666666" points="462.12,-74 333.12,-74 333.12,-55 462.12,-55 462.12,-74"/>
<text text-anchor="middle" x="397.62" y="-62" font-family="Helvetica,sans-Serif" font-size="10.00">HealthGPS/healthgps.cpp</text>
</a>
</g>
</g>
<!-- Node2&#45;&gt;Node6 -->
<g id="edge5" class="edge">
<title>Node2&#45;&gt;Node6</title>
<path fill="none" stroke="#63b8ff" d="M170.76,-254.76C87.59,-250.68 -34.83,-234.88 9.62,-176 48.55,-124.43 232.9,-89.8 332.84,-74.48"/>
<polygon fill="#63b8ff" stroke="#63b8ff" points="170.55,-258.26 180.7,-255.2 170.86,-251.26 170.55,-258.26"/>
</g>
<!-- Node7 -->
<g id="node7" class="node">
<title>Node7</title>
<g id="a_node7"><a xlink:href="repository_8cpp.html" target="_top" xlink:title=" ">
<polygon fill="white" stroke="#666666" points="292.62,-200.5 162.62,-200.5 162.62,-181.5 292.62,-181.5 292.62,-200.5"/>
<text text-anchor="middle" x="227.62" y="-188.5" font-family="Helvetica,sans-Serif" font-size="10.00">HealthGPS/repository.cpp</text>
</a>
</g>
</g>
<!-- Node2&#45;&gt;Node7 -->
<g id="edge6" class="edge">
<title>Node2&#45;&gt;Node7</title>
<path fill="none" stroke="#63b8ff" d="M236.57,-236.05C234.17,-224.24 231.25,-209.87 229.41,-200.82"/>
<polygon fill="#63b8ff" stroke="#63b8ff" points="233.09,-236.51 238.51,-245.62 239.95,-235.12 233.09,-236.51"/>
</g>
<!-- Node8&#45;&gt;Node3 -->
<g id="edge8" class="edge">
<title>Node8&#45;&gt;Node3</title>
<path fill="none" stroke="#63b8ff" d="M497.27,-236.42C501.08,-226.68 505.59,-215.12 509.06,-206.23"/>
<polygon fill="#63b8ff" stroke="#63b8ff" points="494.03,-235.1 493.65,-245.69 500.55,-237.65 494.03,-235.1"/>
</g>
<!-- Node9 -->
<g id="node9" class="node">
<title>Node9</title>
<g id="a_node9"><a xlink:href="disease_8cpp.html" target="_top" xlink:title=" ">
<polygon fill="white" stroke="#666666" points="867.12,-200.5 746.12,-200.5 746.12,-181.5 867.12,-181.5 867.12,-200.5"/>
<text text-anchor="middle" x="806.62" y="-188.5" font-family="Helvetica,sans-Serif" font-size="10.00">HealthGPS/disease.cpp</text>
</a>
</g>
</g>
<!-- Node8&#45;&gt;Node9 -->
<g id="edge9" class="edge">
<title>Node8&#45;&gt;Node9</title>
<path fill="none" stroke="#63b8ff" d="M545.24,-244.81C595.5,-234.69 671.52,-219.37 737.62,-206 745.65,-204.38 754.2,-202.64 762.45,-200.97"/>
<polygon fill="#63b8ff" stroke="#63b8ff" points="544.57,-241.37 535.46,-246.78 545.95,-248.23 544.57,-241.37"/>
</g>
<!-- Node10 -->
<g id="node10" class="node">
<title>Node10</title>
<g id="a_node10"><a xlink:href="lms__model_8cpp.html" target="_top" xlink:title=" ">
<polygon fill="white" stroke="#666666" points="444.62,-200.5 310.62,-200.5 310.62,-181.5 444.62,-181.5 444.62,-200.5"/>
<text text-anchor="middle" x="377.62" y="-188.5" font-family="Helvetica,sans-Serif" font-size="10.00">HealthGPS/lms_model.cpp</text>
</a>
</g>
</g>
<!-- Node8&#45;&gt;Node10 -->
<g id="edge10" class="edge">
<title>Node8&#45;&gt;Node10</title>
<path fill="none" stroke="#63b8ff" d="M464.12,-241.42C442.23,-228.92 411.39,-211.3 393.06,-200.82"/>
<polygon fill="#63b8ff" stroke="#63b8ff" points="462.32,-244.43 472.73,-246.35 465.79,-238.35 462.32,-244.43"/>
</g>
<!-- Node11&#45;&gt;Node7 -->
<g id="edge36" class="edge">
<title>Node11&#45;&gt;Node7</title>
<path fill="none" stroke="#63b8ff" d="M825.38,-316.56C730.98,-315.13 559.9,-307.28 418.62,-272 351.13,-255.14 276.54,-218.06 244.15,-200.96"/>
<polygon fill="#63b8ff" stroke="#63b8ff" points="825.22,-320.06 835.27,-316.69 825.31,-313.06 825.22,-320.06"/>
</g>
<!-- Node12 -->
<g id="node12" class="node">
<title>Node12</title>
<g id="a_node12"><a xlink:href="model__parser_8h.html" target="_top" xlink:title=" ">
<polygon fill="white" stroke="#666666" points="1536.12,-272 1403.12,-272 1403.12,-242 1536.12,-242 1536.12,-272"/>
<text text-anchor="start" x="1411.12" y="-260" font-family="Helvetica,sans-Serif" font-size="10.00">HealthGPS.Console/model</text>
<text text-anchor="middle" x="1469.62" y="-249" font-family="Helvetica,sans-Serif" font-size="10.00">_parser.h</text>
</a>
</g>
</g>
<!-- Node11&#45;&gt;Node12 -->
<g id="edge12" class="edge">
<title>Node11&#45;&gt;Node12</title>
<path fill="none" stroke="#63b8ff" d="M968.08,-311.49C1062.99,-304.49 1235.75,-290.52 1382.62,-272 1389.15,-271.18 1395.94,-270.24 1402.72,-269.24"/>
<polygon fill="#63b8ff" stroke="#63b8ff" points="967.85,-308 958.13,-312.22 968.36,-314.98 967.85,-308"/>
</g>
<!-- Node15 -->
<g id="node15" class="node">
<title>Node15</title>
<g id="a_node15"><a xlink:href="analysis__module_8h.html" target="_top" xlink:title=" ">
<polygon fill="white" stroke="#666666" points="673.62,-272 569.62,-272 569.62,-242 673.62,-242 673.62,-272"/>
<text text-anchor="start" x="577.62" y="-260" font-family="Helvetica,sans-Serif" font-size="10.00">HealthGPS/analysis</text>
<text text-anchor="middle" x="621.62" y="-249" font-family="Helvetica,sans-Serif" font-size="10.00">_module.h</text>
</a>
</g>
</g>
<!-- Node11&#45;&gt;Node15 -->
<g id="edge15" class="edge">
<title>Node11&#45;&gt;Node15</title>
<path fill="none" stroke="#63b8ff" d="M841.17,-305.29C797.92,-296.48 736.39,-283.76 682.62,-272 679.76,-271.37 676.82,-270.72 673.85,-270.06"/>
<polygon fill="#63b8ff" stroke="#63b8ff" points="840.32,-308.69 850.82,-307.26 841.72,-301.83 840.32,-308.69"/>
</g>
<!-- Node22 -->
<g id="node22" class="node">
<title>Node22</title>
<g id="a_node22"><a xlink:href="demographic_8h.html" target="_top" xlink:title=" ">
<polygon fill="white" stroke="#666666" points="823.62,-266.5 691.62,-266.5 691.62,-247.5 823.62,-247.5 823.62,-266.5"/>
<text text-anchor="middle" x="757.62" y="-254.5" font-family="Helvetica,sans-Serif" font-size="10.00">HealthGPS/demographic.h</text>
</a>
</g>
</g>
<!-- Node11&#45;&gt;Node22 -->
<g id="edge27" class="edge">
<title>Node11&#45;&gt;Node22</title>
<path fill="none" stroke="#63b8ff" d="M864.94,-303.16C838.61,-292.08 801.87,-276.62 778.93,-266.97"/>
<polygon fill="#63b8ff" stroke="#63b8ff" points="863.54,-306.37 874.12,-307.03 866.26,-299.92 863.54,-306.37"/>
</g>
<!-- Node23 -->
<g id="node23" class="node">
<title>Node23</title>
<g id="a_node23"><a xlink:href="_health_g_p_s_2disease_8h.html" target="_top" xlink:title=" ">
<polygon fill="white" stroke="#666666" points="951.62,-266.5 841.62,-266.5 841.62,-247.5 951.62,-247.5 951.62,-266.5"/>
<text text-anchor="middle" x="896.62" y="-254.5" font-family="Helvetica,sans-Serif" font-size="10.00">HealthGPS/disease.h</text>
</a>
</g>
</g>
<!-- Node11&#45;&gt;Node23 -->
<g id="edge30" class="edge">
<title>Node11&#45;&gt;Node23</title>
<path fill="none" stroke="#63b8ff" d="M896.62,-296.66C896.62,-286.45 896.62,-274.54 896.62,-266.67"/>
<polygon fill="#63b8ff" stroke="#63b8ff" points="893.12,-296.35 896.62,-306.35 900.12,-296.35 893.12,-296.35"/>
</g>
<!-- Node24 -->
<g id="node24" class="node">
<title>Node24</title>
<g id="a_node24"><a xlink:href="modulefactory_8h.html" target="_top" xlink:title=" ">
<polygon fill="white" stroke="#666666" points="1107.12,-266.5 970.12,-266.5 970.12,-247.5 1107.12,-247.5 1107.12,-266.5"/>
<text text-anchor="middle" x="1038.62" y="-254.5" font-family="Helvetica,sans-Serif" font-size="10.00">HealthGPS/modulefactory.h</text>
</a>
</g>
</g>
<!-- Node11&#45;&gt;Node24 -->
<g id="edge33" class="edge">
<title>Node11&#45;&gt;Node24</title>
<path fill="none" stroke="#63b8ff" d="M928.63,-303.31C955.55,-292.22 993.31,-276.67 1016.85,-266.97"/>
<polygon fill="#63b8ff" stroke="#63b8ff" points="927.5,-299.99 919.59,-307.04 930.17,-306.47 927.5,-299.99"/>
</g>
<!-- Node26 -->
<g id="node26" class="node">
<title>Node26</title>
<g id="a_node26"><a xlink:href="riskfactor_8h.html" target="_top" xlink:title=" ">
<polygon fill="white" stroke="#666666" points="1241.62,-266.5 1125.62,-266.5 1125.62,-247.5 1241.62,-247.5 1241.62,-266.5"/>
<text text-anchor="middle" x="1183.62" y="-254.5" font-family="Helvetica,sans-Serif" font-size="10.00">HealthGPS/riskfactor.h</text>
</a>
</g>
</g>
<!-- Node11&#45;&gt;Node26 -->
<g id="edge37" class="edge">
<title>Node11&#45;&gt;Node26</title>
<path fill="none" stroke="#63b8ff" d="M952.46,-305.31C996.94,-296.37 1060.79,-283.48 1116.62,-272 1124.54,-270.37 1132.97,-268.62 1141.1,-266.93"/>
<polygon fill="#63b8ff" stroke="#63b8ff" points="951.9,-301.85 942.79,-307.25 953.28,-308.71 951.9,-301.85"/>
</g>
<!-- Node28 -->
<g id="node28" class="node">
<title>Node28</title>
<g id="a_node28"><a xlink:href="ses__noise__module_8h.html" target="_top" xlink:title=" ">
<polygon fill="white" stroke="#666666" points="1373.12,-272 1260.12,-272 1260.12,-242 1373.12,-242 1373.12,-272"/>
<text text-anchor="start" x="1268.12" y="-260" font-family="Helvetica,sans-Serif" font-size="10.00">HealthGPS/ses_noise</text>
<text text-anchor="middle" x="1316.62" y="-249" font-family="Helvetica,sans-Serif" font-size="10.00">_module.h</text>
</a>
</g>
</g>
<!-- Node11&#45;&gt;Node28 -->
<g id="edge40" class="edge">
<title>Node11&#45;&gt;Node28</title>
<path fill="none" stroke="#63b8ff" d="M967.48,-309.36C1039.13,-301.73 1152.93,-288.47 1250.62,-272 1253.63,-271.49 1256.7,-270.95 1259.8,-270.37"/>
<polygon fill="#63b8ff" stroke="#63b8ff" points="967.43,-305.85 957.85,-310.38 968.17,-312.81 967.43,-305.85"/>
</g>
<!-- Node13 -->
<g id="node13" class="node">
<title>Node13</title>
<g id="a_node13"><a xlink:href="model__parser_8cpp.html" target="_top" xlink:title=" ">
<polygon fill="white" stroke="#666666" points="1631.12,-206 1498.12,-206 1498.12,-176 1631.12,-176 1631.12,-206"/>
<text text-anchor="start" x="1506.12" y="-194" font-family="Helvetica,sans-Serif" font-size="10.00">HealthGPS.Console/model</text>
<text text-anchor="middle" x="1564.62" y="-183" font-family="Helvetica,sans-Serif" font-size="10.00">_parser.cpp</text>
</a>
</g>
</g>
<!-- Node12&#45;&gt;Node13 -->
<g id="edge13" class="edge">
<title>Node12&#45;&gt;Node13</title>
<path fill="none" stroke="#63b8ff" d="M1500.02,-235.52C1514.11,-226.03 1530.51,-214.98 1543.27,-206.39"/>
<polygon fill="#63b8ff" stroke="#63b8ff" points="1498.3,-232.46 1491.96,-240.95 1502.21,-238.27 1498.3,-232.46"/>
</g>
<!-- Node14 -->
<g id="node14" class="node">
<title>Node14</title>
<g id="a_node14"><a xlink:href="program_8cpp.html" target="_top" xlink:title=" ">
<polygon fill="white" stroke="#666666" points="1175.12,-19 1014.12,-19 1014.12,0 1175.12,0 1175.12,-19"/>
<text text-anchor="middle" x="1094.62" y="-7" font-family="Helvetica,sans-Serif" font-size="10.00">HealthGPS.Console/program.cpp</text>
</a>
</g>
</g>
<!-- Node12&#45;&gt;Node14 -->
<g id="edge14" class="edge">
<title>Node12&#45;&gt;Node14</title>
<path fill="none" stroke="#63b8ff" d="M1469.16,-230.26C1467.6,-213.19 1463.04,-191.22 1450.62,-176 1371.55,-79.1 1222.92,-36.08 1145.08,-19.49"/>
<polygon fill="#63b8ff" stroke="#63b8ff" points="1465.66,-230.37 1469.74,-240.14 1472.65,-229.95 1465.66,-230.37"/>
</g>
<!-- Node15&#45;&gt;Node3 -->
<g id="edge16" class="edge">
<title>Node15&#45;&gt;Node3</title>
<path fill="none" stroke="#63b8ff" d="M588.04,-235.91C571.98,-226.31 553.13,-215.03 538.55,-206.31"/>
<polygon fill="#63b8ff" stroke="#63b8ff" points="585.93,-238.73 596.31,-240.86 589.52,-232.72 585.93,-238.73"/>
</g>
<!-- Node16 -->
<g id="node16" class="node">
<title>Node16</title>
<g id="a_node16"><a xlink:href="simulation__module_8h.html" target="_top" xlink:title=" ">
<polygon fill="white" stroke="#666666" points="998.12,-206 885.12,-206 885.12,-176 998.12,-176 998.12,-206"/>
<text text-anchor="start" x="893.12" y="-194" font-family="Helvetica,sans-Serif" font-size="10.00">HealthGPS/simulation</text>
<text text-anchor="middle" x="941.62" y="-183" font-family="Helvetica,sans-Serif" font-size="10.00">_module.h</text>
</a>
</g>
</g>
<!-- Node15&#45;&gt;Node16 -->
<g id="edge17" class="edge">
<title>Node15&#45;&gt;Node16</title>
<path fill="none" stroke="#63b8ff" d="M684.86,-241.59C770.36,-224.09 794.08,-222.54 876.62,-206 879.34,-205.46 882.12,-204.89 884.92,-204.31"/>
<polygon fill="#63b8ff" stroke="#63b8ff" points="684.4,-238.11 675.32,-243.56 685.82,-244.97 684.4,-238.11"/>
</g>
<!-- Node17 -->
<g id="node17" class="node">
<title>Node17</title>
<g id="a_node17"><a xlink:href="_health_g_p_s_2api_8h.html" target="_top" xlink:title=" ">
<polygon fill="white" stroke="#666666" points="1119.12,-74 1030.12,-74 1030.12,-55 1119.12,-55 1119.12,-74"/>
<text text-anchor="middle" x="1074.62" y="-62" font-family="Helvetica,sans-Serif" font-size="10.00">HealthGPS/api.h</text>
</a>
</g>
</g>
<!-- Node16&#45;&gt;Node17 -->
<g id="edge18" class="edge">
<title>Node16&#45;&gt;Node17</title>
<path fill="none" stroke="#63b8ff" d="M973.41,-169.3C985.55,-160.81 999.2,-150.52 1010.62,-140 1033.96,-118.52 1057.17,-88.92 1068.12,-74.35"/>
<polygon fill="#63b8ff" stroke="#63b8ff" points="971.6,-166.3 965.33,-174.84 975.55,-172.08 971.6,-166.3"/>
</g>
<!-- Node18 -->
<g id="node18" class="node">
<title>Node18</title>
<g id="a_node18"><a xlink:href="healthgps_8h.html" target="_top" xlink:title=" ">
<polygon fill="white" stroke="#666666" points="1001.12,-134.5 882.12,-134.5 882.12,-115.5 1001.12,-115.5 1001.12,-134.5"/>
<text text-anchor="middle" x="941.62" y="-122.5" font-family="Helvetica,sans-Serif" font-size="10.00">HealthGPS/healthgps.h</text>
</a>
</g>
</g>
<!-- Node16&#45;&gt;Node18 -->
<g id="edge20" class="edge">
<title>Node16&#45;&gt;Node18</title>
<path fill="none" stroke="#63b8ff" d="M941.62,-164.59C941.62,-154.06 941.62,-142.53 941.62,-134.84"/>
<polygon fill="#63b8ff" stroke="#63b8ff" points="938.12,-164.28 941.62,-174.28 945.12,-164.28 938.12,-164.28"/>
</g>
<!-- Node21 -->
<g id="node21" class="node">
<title>Node21</title>
<g id="a_node21"><a xlink:href="simulation__module_8cpp.html" target="_top" xlink:title=" ">
<polygon fill="white" stroke="#666666" points="864.12,-140 751.12,-140 751.12,-110 864.12,-110 864.12,-140"/>
<text text-anchor="start" x="759.12" y="-128" font-family="Helvetica,sans-Serif" font-size="10.00">HealthGPS/simulation</text>
<text text-anchor="middle" x="807.62" y="-117" font-family="Helvetica,sans-Serif" font-size="10.00">_module.cpp</text>
</a>
</g>
</g>
<!-- Node16&#45;&gt;Node21 -->
<g id="edge26" class="edge">
<title>Node16&#45;&gt;Node21</title>
<path fill="none" stroke="#63b8ff" d="M901.26,-170.72C880.79,-160.95 856.37,-149.28 837.59,-140.31"/>
<polygon fill="#63b8ff" stroke="#63b8ff" points="899.65,-173.83 910.18,-174.98 902.67,-167.52 899.65,-173.83"/>
</g>
<!-- Node17&#45;&gt;Node14 -->
<g id="edge19" class="edge">
<title>Node17&#45;&gt;Node14</title>
<path fill="none" stroke="#63b8ff" d="M1081.9,-44.22C1085.1,-35.74 1088.7,-26.21 1091.25,-19.44"/>
<polygon fill="#63b8ff" stroke="#63b8ff" points="1078.71,-42.74 1078.46,-53.33 1085.26,-45.21 1078.71,-42.74"/>
</g>
<!-- Node18&#45;&gt;Node6 -->
<g id="edge25" class="edge">
<title>Node18&#45;&gt;Node6</title>
<path fill="none" stroke="#63b8ff" d="M890.83,-112.91C885.04,-111.83 879.22,-110.83 873.62,-110 727.5,-88.2 554.45,-75.2 462.57,-69.3"/>
<polygon fill="#63b8ff" stroke="#63b8ff" points="889.87,-116.29 900.35,-114.76 891.21,-109.42 889.87,-116.29"/>
</g>
<!-- Node18&#45;&gt;Node17 -->
<g id="edge24" class="edge">
<title>Node18&#45;&gt;Node17</title>
<path fill="none" stroke="#63b8ff" d="M972.28,-110.52C997.45,-99.45 1032.38,-84.08 1054.23,-74.47"/>
<polygon fill="#63b8ff" stroke="#63b8ff" points="970.95,-107.28 963.21,-114.51 973.77,-113.68 970.95,-107.28"/>
</g>
<!-- Node19 -->
<g id="node19" class="node">
<title>Node19</title>
<g id="a_node19"><a xlink:href="configuration_8h.html" target="_top" xlink:title=" ">
<polygon fill="white" stroke="#666666" points="1011.62,-74 841.62,-74 841.62,-55 1011.62,-55 1011.62,-74"/>
<text text-anchor="middle" x="926.62" y="-62" font-family="Helvetica,sans-Serif" font-size="10.00">HealthGPS.Console/configuration.h</text>
</a>
</g>
</g>
<!-- Node18&#45;&gt;Node19 -->
<g id="edge21" class="edge">
<title>Node18&#45;&gt;Node19</title>
<path fill="none" stroke="#63b8ff" d="M936.62,-104.49C933.99,-94.22 930.89,-82.13 928.84,-74.17"/>
<polygon fill="#63b8ff" stroke="#63b8ff" points="933.16,-105.08 939.03,-113.9 939.94,-103.35 933.16,-105.08"/>
</g>
<!-- Node19&#45;&gt;Node14 -->
<g id="edge23" class="edge">
<title>Node19&#45;&gt;Node14</title>
<path fill="none" stroke="#63b8ff" d="M965.9,-51.11C996.66,-41.41 1038.72,-28.14 1066.26,-19.45"/>
<polygon fill="#63b8ff" stroke="#63b8ff" points="965.05,-47.71 956.56,-54.05 967.15,-54.38 965.05,-47.71"/>
</g>
<!-- Node20 -->
<g id="node20" class="node">
<title>Node20</title>
<g id="a_node20"><a xlink:href="configuration_8cpp.html" target="_top" xlink:title=" ">
<polygon fill="white" stroke="#666666" points="995.62,-19 815.62,-19 815.62,0 995.62,0 995.62,-19"/>
<text text-anchor="middle" x="905.62" y="-7" font-family="Helvetica,sans-Serif" font-size="10.00">HealthGPS.Console/configuration.cpp</text>
</a>
</g>
</g>
<!-- Node19&#45;&gt;Node20 -->
<g id="edge22" class="edge">
<title>Node19&#45;&gt;Node20</title>
<path fill="none" stroke="#63b8ff" d="M918.98,-44.22C915.62,-35.74 911.84,-26.21 909.17,-19.44"/>
<polygon fill="#63b8ff" stroke="#63b8ff" points="915.66,-45.33 922.6,-53.34 922.17,-42.75 915.66,-45.33"/>
</g>
<!-- Node22&#45;&gt;Node5 -->
<g id="edge28" class="edge">
<title>Node22&#45;&gt;Node5</title>
<path fill="none" stroke="#63b8ff" d="M734.08,-241.08C714.38,-228.6 686.92,-211.2 670.55,-200.82"/>
<polygon fill="#63b8ff" stroke="#63b8ff" points="731.98,-243.89 742.3,-246.29 735.73,-237.98 731.98,-243.89"/>
</g>
<!-- Node22&#45;&gt;Node16 -->
<g id="edge29" class="edge">
<title>Node22&#45;&gt;Node16</title>
<path fill="none" stroke="#63b8ff" d="M793.81,-243.41C824.33,-232.8 868.03,-217.6 900,-206.48"/>
<polygon fill="#63b8ff" stroke="#63b8ff" points="792.93,-240.01 784.64,-246.6 795.23,-246.62 792.93,-240.01"/>
</g>
<!-- Node23&#45;&gt;Node9 -->
<g id="edge31" class="edge">
<title>Node23&#45;&gt;Node9</title>
<path fill="none" stroke="#63b8ff" d="M875.16,-240.74C857.64,-228.28 833.49,-211.11 819.03,-200.82"/>
<polygon fill="#63b8ff" stroke="#63b8ff" points="872.7,-243.28 882.87,-246.22 876.75,-237.58 872.7,-243.28"/>
</g>
<!-- Node23&#45;&gt;Node16 -->
<g id="edge32" class="edge">
<title>Node23&#45;&gt;Node16</title>
<path fill="none" stroke="#63b8ff" d="M909.49,-237.7C916.52,-227.7 925.09,-215.51 931.61,-206.23"/>
<polygon fill="#63b8ff" stroke="#63b8ff" points="906.64,-235.67 903.75,-245.86 912.36,-239.7 906.64,-235.67"/>
</g>
<!-- Node24&#45;&gt;Node16 -->
<g id="edge35" class="edge">
<title>Node24&#45;&gt;Node16</title>
<path fill="none" stroke="#63b8ff" d="M1015.61,-240.82C999.85,-230.42 979.09,-216.72 963.56,-206.48"/>
<polygon fill="#63b8ff" stroke="#63b8ff" points="1013.6,-243.68 1023.87,-246.27 1017.45,-237.84 1013.6,-243.68"/>
</g>
<!-- Node25 -->
<g id="node25" class="node">
<title>Node25</title>
<g id="a_node25"><a xlink:href="modulefactory_8cpp.html" target="_top" xlink:title=" ">
<polygon fill="white" stroke="#666666" points="1164.62,-200.5 1016.62,-200.5 1016.62,-181.5 1164.62,-181.5 1164.62,-200.5"/>
<text text-anchor="middle" x="1090.62" y="-188.5" font-family="Helvetica,sans-Serif" font-size="10.00">HealthGPS/modulefactory.cpp</text>
</a>
</g>
</g>
<!-- Node24&#45;&gt;Node25 -->
<g id="edge34" class="edge">
<title>Node24&#45;&gt;Node25</title>
<path fill="none" stroke="#63b8ff" d="M1053.04,-238.26C1062.93,-226.08 1075.64,-210.44 1083.45,-200.82"/>
<polygon fill="#63b8ff" stroke="#63b8ff" points="1050.4,-235.96 1046.81,-245.93 1055.83,-240.37 1050.4,-235.96"/>
</g>
<!-- Node26&#45;&gt;Node16 -->
<g id="edge39" class="edge">
<title>Node26&#45;&gt;Node16</title>
<path fill="none" stroke="#63b8ff" d="M1138.63,-244.1C1098.36,-233.45 1039.22,-217.81 996.24,-206.45"/>
<polygon fill="#63b8ff" stroke="#63b8ff" points="1137.69,-247.47 1148.25,-246.65 1139.48,-240.71 1137.69,-247.47"/>
</g>
<!-- Node27 -->
<g id="node27" class="node">
<title>Node27</title>
<g id="a_node27"><a xlink:href="riskfactor_8cpp.html" target="_top" xlink:title=" ">
<polygon fill="white" stroke="#666666" points="1310.12,-200.5 1183.12,-200.5 1183.12,-181.5 1310.12,-181.5 1310.12,-200.5"/>
<text text-anchor="middle" x="1246.62" y="-188.5" font-family="Helvetica,sans-Serif" font-size="10.00">HealthGPS/riskfactor.cpp</text>
</a>
</g>
</g>
<!-- Node26&#45;&gt;Node27 -->
<g id="edge38" class="edge">
<title>Node26&#45;&gt;Node27</title>
<path fill="none" stroke="#63b8ff" d="M1200.38,-238.98C1212.46,-226.7 1228.28,-210.63 1237.94,-200.82"/>
<polygon fill="#63b8ff" stroke="#63b8ff" points="1197.96,-236.44 1193.44,-246.02 1202.95,-241.35 1197.96,-236.44"/>
</g>
<!-- Node28&#45;&gt;Node16 -->
<g id="edge42" class="edge">
<title>Node28&#45;&gt;Node16</title>
<path fill="none" stroke="#63b8ff" d="M1248.45,-241.69C1141.22,-222.82 1111.51,-224.69 1007.62,-206 1004.62,-205.46 1001.56,-204.89 998.46,-204.29"/>
<polygon fill="#63b8ff" stroke="#63b8ff" points="1247.84,-245.13 1258.29,-243.44 1249.06,-238.24 1247.84,-245.13"/>
</g>
<!-- Node29 -->
<g id="node29" class="node">
<title>Node29</title>
<g id="a_node29"><a xlink:href="ses__noise__module_8cpp.html" target="_top" xlink:title=" ">
<polygon fill="white" stroke="#666666" points="1441.12,-206 1328.12,-206 1328.12,-176 1441.12,-176 1441.12,-206"/>
<text text-anchor="start" x="1336.12" y="-194" font-family="Helvetica,sans-Serif" font-size="10.00">HealthGPS/ses_noise</text>
<text text-anchor="middle" x="1384.62" y="-183" font-family="Helvetica,sans-Serif" font-size="10.00">_module.cpp</text>
</a>
</g>
</g>
<!-- Node28&#45;&gt;Node29 -->
<g id="edge41" class="edge">
<title>Node28&#45;&gt;Node29</title>
<path fill="none" stroke="#63b8ff" d="M1339.9,-234.09C1349.72,-224.85 1360.86,-214.36 1369.57,-206.16"/>
<polygon fill="#63b8ff" stroke="#63b8ff" points="1337.7,-231.36 1332.82,-240.76 1342.5,-236.45 1337.7,-231.36"/>
</g>
</g>
</svg>
