<?xml version="1.0" encoding="UTF-8" standalone="no"?>
<!DOCTYPE svg PUBLIC "-//W3C//DTD SVG 1.1//EN"
 "http://www.w3.org/Graphics/SVG/1.1/DTD/svg11.dtd">
<!-- Generated by graphviz version 2.43.0 (0)
 -->
<!-- Title: HealthGPS/lms_definition.h Pages: 1 -->
<svg width="405pt" height="151pt"
 viewBox="0.00 0.00 405.00 151.00" xmlns="http://www.w3.org/2000/svg" xmlns:xlink="http://www.w3.org/1999/xlink">
<g id="graph0" class="graph" transform="scale(1 1) rotate(0) translate(4 147)">
<title>HealthGPS/lms_definition.h</title>
<!-- Node1 -->
<g id="node1" class="node">
<title>Node1</title>
<g id="a_node1"><a xlink:title=" ">
<polygon fill="#bfbfbf" stroke="black" points="168,-123.5 168,-142.5 317,-142.5 317,-123.5 168,-123.5"/>
<text text-anchor="middle" x="242.5" y="-130.5" font-family="Helvetica,sans-Serif" font-size="10.00">HealthGPS/lms_definition.h</text>
</a>
</g>
</g>
<!-- Node2 -->
<g id="node2" class="node">
<title>Node2</title>
<g id="a_node2"><a xlink:href="forward__type_8h.html" target="_top" xlink:title=" ">
<polygon fill="none" stroke="black" points="123.5,-56.5 123.5,-86.5 257.5,-86.5 257.5,-56.5 123.5,-56.5"/>
<text text-anchor="start" x="131.5" y="-74.5" font-family="Helvetica,sans-Serif" font-size="10.00">HealthGPS.Core/forward</text>
<text text-anchor="middle" x="190.5" y="-63.5" font-family="Helvetica,sans-Serif" font-size="10.00">_type.h</text>
</a>
</g>
</g>
<!-- Node1&#45;&gt;Node2 -->
<g id="edge1" class="edge">
<title>Node1&#45;&gt;Node2</title>
<path fill="none" stroke="midnightblue" d="M235.05,-123.48C228.4,-115.87 218.38,-104.4 209.52,-94.26"/>
<polygon fill="midnightblue" stroke="midnightblue" points="211.97,-91.75 202.76,-86.52 206.7,-96.36 211.97,-91.75"/>
</g>
<!-- Node5 -->
<g id="node5" class="node">
<title>Node5</title>
<g id="a_node5"><a xlink:href="weight__category_8h.html" target="_top" xlink:title=" ">
<polygon fill="none" stroke="black" points="0,-62 0,-81 105,-81 105,-62 0,-62"/>
<text text-anchor="middle" x="52.5" y="-69" font-family="Helvetica,sans-Serif" font-size="10.00">weight_category.h</text>
</a>
</g>
</g>
<!-- Node1&#45;&gt;Node5 -->
<g id="edge4" class="edge">
<title>Node1&#45;&gt;Node5</title>
<path fill="none" stroke="midnightblue" d="M215.28,-123.48C182.26,-113.14 126.46,-95.66 89.55,-84.1"/>
<polygon fill="midnightblue" stroke="midnightblue" points="90.26,-80.66 79.67,-81.01 88.17,-87.34 90.26,-80.66"/>
</g>
<!-- Node6 -->
<g id="node6" class="node">
<title>Node6</title>
<g id="a_node6"><a xlink:title=" ">
<polygon fill="none" stroke="#bfbfbf" points="275.5,-62 275.5,-81 313.5,-81 313.5,-62 275.5,-62"/>
<text text-anchor="middle" x="294.5" y="-69" font-family="Helvetica,sans-Serif" font-size="10.00">map</text>
</a>
</g>
</g>
<!-- Node1&#45;&gt;Node6 -->
<g id="edge6" class="edge">
<title>Node1&#45;&gt;Node6</title>
<path fill="none" stroke="midnightblue" d="M249.95,-123.48C257.83,-114.46 270.44,-100.02 280.24,-88.81"/>
<polygon fill="midnightblue" stroke="midnightblue" points="283.12,-90.84 287.06,-81.01 277.85,-86.24 283.12,-90.84"/>
</g>
<!-- Node7 -->
<g id="node7" class="node">
<title>Node7</title>
<g id="a_node7"><a xlink:title=" ">
<polygon fill="none" stroke="#bfbfbf" points="332,-62 332,-81 397,-81 397,-62 332,-62"/>
<text text-anchor="middle" x="364.5" y="-69" font-family="Helvetica,sans-Serif" font-size="10.00">stdexcept</text>
</a>
</g>
</g>
<!-- Node1&#45;&gt;Node7 -->
<g id="edge7" class="edge">
<title>Node1&#45;&gt;Node7</title>
<path fill="none" stroke="midnightblue" d="M259.98,-123.48C280.36,-113.53 314.28,-96.99 337.92,-85.46"/>
<polygon fill="midnightblue" stroke="midnightblue" points="339.6,-88.54 347.05,-81.01 336.53,-82.25 339.6,-88.54"/>
</g>
<!-- Node3 -->
<g id="node3" class="node">
<title>Node3</title>
<g id="a_node3"><a xlink:title=" ">
<polygon fill="none" stroke="#bfbfbf" points="57.5,-0.5 57.5,-19.5 107.5,-19.5 107.5,-0.5 57.5,-0.5"/>
<text text-anchor="middle" x="82.5" y="-7.5" font-family="Helvetica,sans-Serif" font-size="10.00">cstdint</text>
</a>
</g>
</g>
<!-- Node2&#45;&gt;Node3 -->
<g id="edge2" class="edge">
<title>Node2&#45;&gt;Node3</title>
<path fill="none" stroke="midnightblue" d="M164.91,-56.4C147.43,-46.77 124.41,-34.09 107.14,-24.58"/>
<polygon fill="midnightblue" stroke="midnightblue" points="108.66,-21.42 98.21,-19.66 105.28,-27.55 108.66,-21.42"/>
</g>
<!-- Node4 -->
<g id="node4" class="node">
<title>Node4</title>
<g id="a_node4"><a xlink:title=" ">
<polygon fill="none" stroke="#bfbfbf" points="156,-0.5 156,-19.5 225,-19.5 225,-0.5 156,-0.5"/>
<text text-anchor="middle" x="190.5" y="-7.5" font-family="Helvetica,sans-Serif" font-size="10.00">type_traits</text>
</a>
</g>
</g>
<!-- Node2&#45;&gt;Node4 -->
<g id="edge3" class="edge">
<title>Node2&#45;&gt;Node4</title>
<path fill="none" stroke="midnightblue" d="M190.5,-56.4C190.5,-48.47 190.5,-38.46 190.5,-29.86"/>
<polygon fill="midnightblue" stroke="midnightblue" points="194,-29.66 190.5,-19.66 187,-29.66 194,-29.66"/>
</g>
<!-- Node5&#45;&gt;Node3 -->
<g id="edge5" class="edge">
<title>Node5&#45;&gt;Node3</title>
<path fill="none" stroke="midnightblue" d="M56.8,-61.98C61.16,-53.32 68.06,-39.65 73.6,-28.65"/>
<polygon fill="midnightblue" stroke="midnightblue" points="76.83,-30.01 78.21,-19.51 70.58,-26.86 76.83,-30.01"/>
</g>
</g>
</svg>
