<?xml version="1.0" encoding="UTF-8" standalone="no"?>
<!DOCTYPE svg PUBLIC "-//W3C//DTD SVG 1.1//EN"
 "http://www.w3.org/Graphics/SVG/1.1/DTD/svg11.dtd">
<!-- Generated by graphviz version 2.43.0 (0)
 -->
<!-- Title: HealthGPS/lms_definition.h Pages: 1 -->
<svg width="266pt" height="151pt"
 viewBox="0.00 0.00 265.50 151.00" xmlns="http://www.w3.org/2000/svg" xmlns:xlink="http://www.w3.org/1999/xlink">
<g id="graph0" class="graph" transform="scale(1 1) rotate(0) translate(4 147)">
<title>HealthGPS/lms_definition.h</title>
<!-- Node1 -->
<g id="node1" class="node">
<title>Node1</title>
<g id="a_node1"><a xlink:title=" ">
<polygon fill="#bfbfbf" stroke="black" points="61.5,-123.5 61.5,-142.5 210.5,-142.5 210.5,-123.5 61.5,-123.5"/>
<text text-anchor="middle" x="136" y="-130.5" font-family="Helvetica,sans-Serif" font-size="10.00">HealthGPS/lms_definition.h</text>
</a>
</g>
</g>
<!-- Node2 -->
<g id="node2" class="node">
<title>Node2</title>
<g id="a_node2"><a xlink:href="forward__type_8h.html" target="_top" xlink:title=" ">
<polygon fill="none" stroke="black" points="0,-56.5 0,-86.5 134,-86.5 134,-56.5 0,-56.5"/>
<text text-anchor="start" x="8" y="-74.5" font-family="Helvetica,sans-Serif" font-size="10.00">HealthGPS.Core/forward</text>
<text text-anchor="middle" x="67" y="-63.5" font-family="Helvetica,sans-Serif" font-size="10.00">_type.h</text>
</a>
</g>
</g>
<!-- Node1&#45;&gt;Node2 -->
<g id="edge1" class="edge">
<title>Node1&#45;&gt;Node2</title>
<path fill="none" stroke="midnightblue" d="M126.11,-123.48C116.94,-115.57 102.93,-103.48 90.85,-93.07"/>
<polygon fill="midnightblue" stroke="midnightblue" points="93.12,-90.4 83.26,-86.52 88.55,-95.7 93.12,-90.4"/>
</g>
<!-- Node5 -->
<g id="node5" class="node">
<title>Node5</title>
<g id="a_node5"><a xlink:href="weight__category_8h.html" target="_top" xlink:title=" ">
<polygon fill="none" stroke="black" points="152.5,-62 152.5,-81 257.5,-81 257.5,-62 152.5,-62"/>
<text text-anchor="middle" x="205" y="-69" font-family="Helvetica,sans-Serif" font-size="10.00">weight_category.h</text>
</a>
</g>
</g>
<!-- Node1&#45;&gt;Node5 -->
<g id="edge4" class="edge">
<title>Node1&#45;&gt;Node5</title>
<path fill="none" stroke="midnightblue" d="M145.89,-123.48C156.65,-114.2 174.07,-99.17 187.22,-87.83"/>
<polygon fill="midnightblue" stroke="midnightblue" points="189.84,-90.19 195.13,-81.01 185.27,-84.89 189.84,-90.19"/>
</g>
<!-- Node3 -->
<g id="node3" class="node">
<title>Node3</title>
<g id="a_node3"><a xlink:title=" ">
<polygon fill="none" stroke="#bfbfbf" points="32.5,-0.5 32.5,-19.5 101.5,-19.5 101.5,-0.5 32.5,-0.5"/>
<text text-anchor="middle" x="67" y="-7.5" font-family="Helvetica,sans-Serif" font-size="10.00">type_traits</text>
</a>
</g>
</g>
<!-- Node2&#45;&gt;Node3 -->
<g id="edge2" class="edge">
<title>Node2&#45;&gt;Node3</title>
<path fill="none" stroke="midnightblue" d="M67,-56.4C67,-48.47 67,-38.46 67,-29.86"/>
<polygon fill="midnightblue" stroke="midnightblue" points="70.5,-29.66 67,-19.66 63.5,-29.66 70.5,-29.66"/>
</g>
<!-- Node4 -->
<g id="node4" class="node">
<title>Node4</title>
<g id="a_node4"><a xlink:title=" ">
<polygon fill="none" stroke="#bfbfbf" points="150,-0.5 150,-19.5 200,-19.5 200,-0.5 150,-0.5"/>
<text text-anchor="middle" x="175" y="-7.5" font-family="Helvetica,sans-Serif" font-size="10.00">cstdint</text>
</a>
</g>
</g>
<!-- Node2&#45;&gt;Node4 -->
<g id="edge3" class="edge">
<title>Node2&#45;&gt;Node4</title>
<path fill="none" stroke="midnightblue" d="M92.59,-56.4C110.07,-46.77 133.09,-34.09 150.36,-24.58"/>
<polygon fill="midnightblue" stroke="midnightblue" points="152.22,-27.55 159.29,-19.66 148.84,-21.42 152.22,-27.55"/>
</g>
<!-- Node5&#45;&gt;Node4 -->
<g id="edge5" class="edge">
<title>Node5&#45;&gt;Node4</title>
<path fill="none" stroke="midnightblue" d="M200.7,-61.98C196.34,-53.32 189.44,-39.65 183.9,-28.65"/>
<polygon fill="midnightblue" stroke="midnightblue" points="186.92,-26.86 179.29,-19.51 180.67,-30.01 186.92,-26.86"/>
</g>
</g>
</svg>
