<?xml version="1.0" encoding="UTF-8" standalone="no"?>
<!DOCTYPE svg PUBLIC "-//W3C//DTD SVG 1.1//EN"
 "http://www.w3.org/Graphics/SVG/1.1/DTD/svg11.dtd">
<!-- Generated by graphviz version 7.0.6 (20230106.0513)
 -->
<!-- Title: HealthGPS/map2d.h Pages: 1 -->
<svg width="1315pt" height="467pt"
 viewBox="0.00 0.00 1314.50 467.00" xmlns="http://www.w3.org/2000/svg" xmlns:xlink="http://www.w3.org/1999/xlink">
<g id="graph0" class="graph" transform="scale(1 1) rotate(0) translate(4 463)">
<title>HealthGPS/map2d.h</title>
<!-- Node1 -->
<g id="node1" class="node">
<title>Node1</title>
<g id="a_node1"><a xlink:title=" ">
<polygon fill="#999999" stroke="#666666" points="837.5,-459 731.5,-459 731.5,-440 837.5,-440 837.5,-459"/>
<text text-anchor="middle" x="784.5" y="-447" font-family="Helvetica,sans-Serif" font-size="10.00">HealthGPS/map2d.h</text>
</a>
</g>
</g>
<!-- Node2 -->
<g id="node2" class="node">
<title>Node2</title>
<g id="a_node2"><a xlink:href="riskfactor__adjustment__types_8h.html" target="_top" xlink:title=" ">
<polygon fill="white" stroke="#666666" points="838.5,-404 730.5,-404 730.5,-374 838.5,-374 838.5,-404"/>
<text text-anchor="start" x="738.5" y="-392" font-family="Helvetica,sans-Serif" font-size="10.00">HealthGPS/riskfactor</text>
<text text-anchor="middle" x="784.5" y="-381" font-family="Helvetica,sans-Serif" font-size="10.00">_adjustment_types.h</text>
</a>
</g>
</g>
<!-- Node1&#45;&gt;Node2 -->
<g id="edge1" class="edge">
<title>Node1&#45;&gt;Node2</title>
<path fill="none" stroke="#63b8ff" d="M784.5,-428.51C784.5,-420.49 784.5,-411.43 784.5,-404.11"/>
<polygon fill="#63b8ff" stroke="#63b8ff" points="781,-428.35 784.5,-438.35 788,-428.35 781,-428.35"/>
</g>
<!-- Node3 -->
<g id="node3" class="node">
<title>Node3</title>
<g id="a_node3"><a xlink:href="model__parser_8h.html" target="_top" xlink:title=" ">
<polygon fill="white" stroke="#666666" points="172,-272 39,-272 39,-242 172,-242 172,-272"/>
<text text-anchor="start" x="47" y="-260" font-family="Helvetica,sans-Serif" font-size="10.00">HealthGPS.Console/model</text>
<text text-anchor="middle" x="105.5" y="-249" font-family="Helvetica,sans-Serif" font-size="10.00">_parser.h</text>
</a>
</g>
</g>
<!-- Node2&#45;&gt;Node3 -->
<g id="edge2" class="edge">
<title>Node2&#45;&gt;Node3</title>
<path fill="none" stroke="#63b8ff" d="M718.8,-375.42C589.35,-350.64 302.59,-295.73 172.27,-270.78"/>
<polygon fill="#63b8ff" stroke="#63b8ff" points="718.12,-378.85 728.6,-377.3 719.43,-371.98 718.12,-378.85"/>
</g>
<!-- Node6 -->
<g id="node6" class="node">
<title>Node6</title>
<g id="a_node6"><a xlink:href="baseline__sync__message_8h.html" target="_top" xlink:title=" ">
<polygon fill="white" stroke="#666666" points="1306.5,-338 1202.5,-338 1202.5,-308 1306.5,-308 1306.5,-338"/>
<text text-anchor="start" x="1210.5" y="-326" font-family="Helvetica,sans-Serif" font-size="10.00">HealthGPS/baseline</text>
<text text-anchor="middle" x="1254.5" y="-315" font-family="Helvetica,sans-Serif" font-size="10.00">_sync_message.h</text>
</a>
</g>
</g>
<!-- Node2&#45;&gt;Node6 -->
<g id="edge5" class="edge">
<title>Node2&#45;&gt;Node6</title>
<path fill="none" stroke="#63b8ff" d="M850.24,-379.05C944.42,-366.22 1115.85,-342.88 1202.05,-331.14"/>
<polygon fill="#63b8ff" stroke="#63b8ff" points="849.81,-375.57 840.37,-380.39 850.75,-382.51 849.81,-375.57"/>
</g>
<!-- Node10 -->
<g id="node10" class="node">
<title>Node10</title>
<g id="a_node10"><a xlink:href="repository_8h.html" target="_top" xlink:title=" ">
<polygon fill="white" stroke="#666666" points="696,-332.5 577,-332.5 577,-313.5 696,-313.5 696,-332.5"/>
<text text-anchor="middle" x="636.5" y="-320.5" font-family="Helvetica,sans-Serif" font-size="10.00">HealthGPS/repository.h</text>
</a>
</g>
</g>
<!-- Node2&#45;&gt;Node10 -->
<g id="edge9" class="edge">
<title>Node2&#45;&gt;Node10</title>
<path fill="none" stroke="#63b8ff" d="M741.08,-369.22C713.45,-357.27 678.92,-342.34 657.28,-332.99"/>
<polygon fill="#63b8ff" stroke="#63b8ff" points="739.33,-372.28 749.9,-373.04 742.11,-365.85 739.33,-372.28"/>
</g>
<!-- Node29 -->
<g id="node29" class="node">
<title>Node29</title>
<g id="a_node29"><a xlink:href="riskfactor__adjustment_8h.html" target="_top" xlink:title=" ">
<polygon fill="white" stroke="#666666" points="987.5,-338 879.5,-338 879.5,-308 987.5,-308 987.5,-338"/>
<text text-anchor="start" x="887.5" y="-326" font-family="Helvetica,sans-Serif" font-size="10.00">HealthGPS/riskfactor</text>
<text text-anchor="middle" x="933.5" y="-315" font-family="Helvetica,sans-Serif" font-size="10.00">_adjustment.h</text>
</a>
</g>
</g>
<!-- Node2&#45;&gt;Node29 -->
<g id="edge39" class="edge">
<title>Node2&#45;&gt;Node29</title>
<path fill="none" stroke="#63b8ff" d="M828.41,-369.14C851.27,-359.32 878.78,-347.51 899.92,-338.43"/>
<polygon fill="#63b8ff" stroke="#63b8ff" points="827.14,-365.88 819.33,-373.04 829.9,-372.31 827.14,-365.88"/>
</g>
<!-- Node4 -->
<g id="node4" class="node">
<title>Node4</title>
<g id="a_node4"><a xlink:href="model__parser_8cpp.html" target="_top" xlink:title=" ">
<polygon fill="white" stroke="#666666" points="133,-206 0,-206 0,-176 133,-176 133,-206"/>
<text text-anchor="start" x="8" y="-194" font-family="Helvetica,sans-Serif" font-size="10.00">HealthGPS.Console/model</text>
<text text-anchor="middle" x="66.5" y="-183" font-family="Helvetica,sans-Serif" font-size="10.00">_parser.cpp</text>
</a>
</g>
</g>
<!-- Node3&#45;&gt;Node4 -->
<g id="edge3" class="edge">
<title>Node3&#45;&gt;Node4</title>
<path fill="none" stroke="#63b8ff" d="M90.94,-232.11C85.62,-223.38 79.77,-213.78 75.13,-206.16"/>
<polygon fill="#63b8ff" stroke="#63b8ff" points="87.86,-233.79 96.06,-240.5 93.84,-230.14 87.86,-233.79"/>
</g>
<!-- Node5 -->
<g id="node5" class="node">
<title>Node5</title>
<g id="a_node5"><a xlink:href="program_8cpp.html" target="_top" xlink:title=" ">
<polygon fill="white" stroke="#666666" points="581,-19 420,-19 420,0 581,0 581,-19"/>
<text text-anchor="middle" x="500.5" y="-7" font-family="Helvetica,sans-Serif" font-size="10.00">HealthGPS.Console/program.cpp</text>
</a>
</g>
</g>
<!-- Node3&#45;&gt;Node5 -->
<g id="edge4" class="edge">
<title>Node3&#45;&gt;Node5</title>
<path fill="none" stroke="#63b8ff" d="M123.62,-232.75C137.8,-215.6 158.72,-192.47 180.5,-176 281.02,-99.98 421.55,-41.1 476.83,-19.47"/>
<polygon fill="#63b8ff" stroke="#63b8ff" points="120.99,-230.44 117.42,-240.41 126.43,-234.84 120.99,-230.44"/>
</g>
<!-- Node7 -->
<g id="node7" class="node">
<title>Node7</title>
<g id="a_node7"><a xlink:href="demographic_8cpp.html" target="_top" xlink:title=" ">
<polygon fill="white" stroke="#666666" points="1237,-200.5 1094,-200.5 1094,-181.5 1237,-181.5 1237,-200.5"/>
<text text-anchor="middle" x="1165.5" y="-188.5" font-family="Helvetica,sans-Serif" font-size="10.00">HealthGPS/demographic.cpp</text>
</a>
</g>
</g>
<!-- Node6&#45;&gt;Node7 -->
<g id="edge6" class="edge">
<title>Node6&#45;&gt;Node7</title>
<path fill="none" stroke="#63b8ff" d="M1270.71,-298.02C1279.85,-281.26 1287.44,-258.93 1276.5,-242 1262.5,-220.34 1236.64,-207.97 1213.39,-200.96"/>
<polygon fill="#63b8ff" stroke="#63b8ff" points="1267.86,-295.96 1265.75,-306.35 1273.88,-299.55 1267.86,-295.96"/>
</g>
<!-- Node8 -->
<g id="node8" class="node">
<title>Node8</title>
<g id="a_node8"><a xlink:href="healthgps_8cpp.html" target="_top" xlink:title=" ">
<polygon fill="white" stroke="#666666" points="1150,-74 1021,-74 1021,-55 1150,-55 1150,-74"/>
<text text-anchor="middle" x="1085.5" y="-62" font-family="Helvetica,sans-Serif" font-size="10.00">HealthGPS/healthgps.cpp</text>
</a>
</g>
</g>
<!-- Node6&#45;&gt;Node8 -->
<g id="edge7" class="edge">
<title>Node6&#45;&gt;Node8</title>
<path fill="none" stroke="#63b8ff" d="M1276.79,-299.16C1283.12,-291.21 1289.2,-281.8 1292.5,-272 1296.76,-259.36 1296.5,-254.72 1292.5,-242 1264.27,-152.11 1154.33,-95.13 1107.17,-74.36"/>
<polygon fill="#63b8ff" stroke="#63b8ff" points="1274.23,-296.76 1270.36,-306.62 1279.54,-301.33 1274.23,-296.76"/>
</g>
<!-- Node9 -->
<g id="node9" class="node">
<title>Node9</title>
<g id="a_node9"><a xlink:href="riskfactor__adjustment_8cpp.html" target="_top" xlink:title=" ">
<polygon fill="white" stroke="#666666" points="1267.5,-272 1159.5,-272 1159.5,-242 1267.5,-242 1267.5,-272"/>
<text text-anchor="start" x="1167.5" y="-260" font-family="Helvetica,sans-Serif" font-size="10.00">HealthGPS/riskfactor</text>
<text text-anchor="middle" x="1213.5" y="-249" font-family="Helvetica,sans-Serif" font-size="10.00">_adjustment.cpp</text>
</a>
</g>
</g>
<!-- Node6&#45;&gt;Node9 -->
<g id="edge8" class="edge">
<title>Node6&#45;&gt;Node9</title>
<path fill="none" stroke="#63b8ff" d="M1239.2,-298.11C1233.6,-289.38 1227.45,-279.78 1222.57,-272.16"/>
<polygon fill="#63b8ff" stroke="#63b8ff" points="1236.24,-299.99 1244.58,-306.52 1242.14,-296.21 1236.24,-299.99"/>
</g>
<!-- Node10&#45;&gt;Node3 -->
<g id="edge10" class="edge">
<title>Node10&#45;&gt;Node3</title>
<path fill="none" stroke="#63b8ff" d="M565.14,-315.85C475.2,-307.72 315.98,-292.04 180.5,-272 177.75,-271.59 174.94,-271.16 172.11,-270.7"/>
<polygon fill="#63b8ff" stroke="#63b8ff" points="564.78,-319.33 575.05,-316.74 565.41,-312.36 564.78,-319.33"/>
</g>
<!-- Node11 -->
<g id="node11" class="node">
<title>Node11</title>
<g id="a_node11"><a xlink:href="analysis__module_8h.html" target="_top" xlink:title=" ">
<polygon fill="white" stroke="#666666" points="425.5,-272 321.5,-272 321.5,-242 425.5,-242 425.5,-272"/>
<text text-anchor="start" x="329.5" y="-260" font-family="Helvetica,sans-Serif" font-size="10.00">HealthGPS/analysis</text>
<text text-anchor="middle" x="373.5" y="-249" font-family="Helvetica,sans-Serif" font-size="10.00">_module.h</text>
</a>
</g>
</g>
<!-- Node10&#45;&gt;Node11 -->
<g id="edge11" class="edge">
<title>Node10&#45;&gt;Node11</title>
<path fill="none" stroke="#63b8ff" d="M588.5,-310.32C542.54,-299.13 473.37,-282.3 425.97,-270.77"/>
<polygon fill="#63b8ff" stroke="#63b8ff" points="587.64,-313.71 598.18,-312.68 589.29,-306.91 587.64,-313.71"/>
</g>
<!-- Node19 -->
<g id="node19" class="node">
<title>Node19</title>
<g id="a_node19"><a xlink:href="demographic_8h.html" target="_top" xlink:title=" ">
<polygon fill="white" stroke="#666666" points="1141.5,-266.5 1009.5,-266.5 1009.5,-247.5 1141.5,-247.5 1141.5,-266.5"/>
<text text-anchor="middle" x="1075.5" y="-254.5" font-family="Helvetica,sans-Serif" font-size="10.00">HealthGPS/demographic.h</text>
</a>
</g>
</g>
<!-- Node10&#45;&gt;Node19 -->
<g id="edge23" class="edge">
<title>Node10&#45;&gt;Node19</title>
<path fill="none" stroke="#63b8ff" d="M707.62,-313.26C781.1,-303.98 899.04,-288.43 1000.5,-272 1009.91,-270.48 1019.97,-268.7 1029.55,-266.94"/>
<polygon fill="#63b8ff" stroke="#63b8ff" points="707.2,-309.78 697.72,-314.5 708.07,-316.73 707.2,-309.78"/>
</g>
<!-- Node20 -->
<g id="node20" class="node">
<title>Node20</title>
<g id="a_node20"><a xlink:href="_health_g_p_s_2disease_8h.html" target="_top" xlink:title=" ">
<polygon fill="white" stroke="#666666" points="553.5,-266.5 443.5,-266.5 443.5,-247.5 553.5,-247.5 553.5,-266.5"/>
<text text-anchor="middle" x="498.5" y="-254.5" font-family="Helvetica,sans-Serif" font-size="10.00">HealthGPS/disease.h</text>
</a>
</g>
</g>
<!-- Node10&#45;&gt;Node20 -->
<g id="edge26" class="edge">
<title>Node10&#45;&gt;Node20</title>
<path fill="none" stroke="#63b8ff" d="M606.89,-308.27C579.84,-295.72 540.62,-277.54 517.53,-266.82"/>
<polygon fill="#63b8ff" stroke="#63b8ff" points="605.39,-311.43 615.94,-312.46 608.34,-305.08 605.39,-311.43"/>
</g>
<!-- Node22 -->
<g id="node22" class="node">
<title>Node22</title>
<g id="a_node22"><a xlink:href="modulefactory_8h.html" target="_top" xlink:title=" ">
<polygon fill="white" stroke="#666666" points="857,-266.5 720,-266.5 720,-247.5 857,-247.5 857,-266.5"/>
<text text-anchor="middle" x="788.5" y="-254.5" font-family="Helvetica,sans-Serif" font-size="10.00">HealthGPS/modulefactory.h</text>
</a>
</g>
</g>
<!-- Node10&#45;&gt;Node22 -->
<g id="edge29" class="edge">
<title>Node10&#45;&gt;Node22</title>
<path fill="none" stroke="#63b8ff" d="M667.92,-308.77C697.76,-296.21 741.77,-277.68 767.54,-266.82"/>
<polygon fill="#63b8ff" stroke="#63b8ff" points="666.89,-305.41 659.03,-312.51 669.6,-311.86 666.89,-305.41"/>
</g>
<!-- Node24 -->
<g id="node24" class="node">
<title>Node24</title>
<g id="a_node24"><a xlink:href="repository_8cpp.html" target="_top" xlink:title=" ">
<polygon fill="white" stroke="#666666" points="701.5,-266.5 571.5,-266.5 571.5,-247.5 701.5,-247.5 701.5,-266.5"/>
<text text-anchor="middle" x="636.5" y="-254.5" font-family="Helvetica,sans-Serif" font-size="10.00">HealthGPS/repository.cpp</text>
</a>
</g>
</g>
<!-- Node10&#45;&gt;Node24 -->
<g id="edge32" class="edge">
<title>Node10&#45;&gt;Node24</title>
<path fill="none" stroke="#63b8ff" d="M636.5,-301.68C636.5,-289.94 636.5,-275.77 636.5,-266.82"/>
<polygon fill="#63b8ff" stroke="#63b8ff" points="633,-301.59 636.5,-311.59 640,-301.59 633,-301.59"/>
</g>
<!-- Node25 -->
<g id="node25" class="node">
<title>Node25</title>
<g id="a_node25"><a xlink:href="riskfactor_8h.html" target="_top" xlink:title=" ">
<polygon fill="white" stroke="#666666" points="991.5,-266.5 875.5,-266.5 875.5,-247.5 991.5,-247.5 991.5,-266.5"/>
<text text-anchor="middle" x="933.5" y="-254.5" font-family="Helvetica,sans-Serif" font-size="10.00">HealthGPS/riskfactor.h</text>
</a>
</g>
</g>
<!-- Node10&#45;&gt;Node25 -->
<g id="edge33" class="edge">
<title>Node10&#45;&gt;Node25</title>
<path fill="none" stroke="#63b8ff" d="M689.23,-310.64C747.22,-298.14 839.18,-278.33 892.17,-266.91"/>
<polygon fill="#63b8ff" stroke="#63b8ff" points="688.63,-307.19 679.59,-312.71 690.1,-314.03 688.63,-307.19"/>
</g>
<!-- Node27 -->
<g id="node27" class="node">
<title>Node27</title>
<g id="a_node27"><a xlink:href="ses__noise__module_8h.html" target="_top" xlink:title=" ">
<polygon fill="white" stroke="#666666" points="303,-272 190,-272 190,-242 303,-242 303,-272"/>
<text text-anchor="start" x="198" y="-260" font-family="Helvetica,sans-Serif" font-size="10.00">HealthGPS/ses_noise</text>
<text text-anchor="middle" x="246.5" y="-249" font-family="Helvetica,sans-Serif" font-size="10.00">_module.h</text>
</a>
</g>
</g>
<!-- Node10&#45;&gt;Node27 -->
<g id="edge36" class="edge">
<title>Node10&#45;&gt;Node27</title>
<path fill="none" stroke="#63b8ff" d="M565.56,-312.22C499.79,-302.87 399.29,-287.89 312.5,-272 309.5,-271.45 306.44,-270.87 303.34,-270.27"/>
<polygon fill="#63b8ff" stroke="#63b8ff" points="564.73,-315.63 575.12,-313.57 565.71,-308.7 564.73,-315.63"/>
</g>
<!-- Node12 -->
<g id="node12" class="node">
<title>Node12</title>
<g id="a_node12"><a xlink:href="analysis__module_8cpp.html" target="_top" xlink:title=" ">
<polygon fill="white" stroke="#666666" points="425.5,-206 321.5,-206 321.5,-176 425.5,-176 425.5,-206"/>
<text text-anchor="start" x="329.5" y="-194" font-family="Helvetica,sans-Serif" font-size="10.00">HealthGPS/analysis</text>
<text text-anchor="middle" x="373.5" y="-183" font-family="Helvetica,sans-Serif" font-size="10.00">_module.cpp</text>
</a>
</g>
</g>
<!-- Node11&#45;&gt;Node12 -->
<g id="edge12" class="edge">
<title>Node11&#45;&gt;Node12</title>
<path fill="none" stroke="#63b8ff" d="M373.5,-230.39C373.5,-222.13 373.5,-213.28 373.5,-206.16"/>
<polygon fill="#63b8ff" stroke="#63b8ff" points="370,-230.28 373.5,-240.28 377,-230.28 370,-230.28"/>
</g>
<!-- Node13 -->
<g id="node13" class="node">
<title>Node13</title>
<g id="a_node13"><a xlink:href="simulation__module_8h.html" target="_top" xlink:title=" ">
<polygon fill="white" stroke="#666666" points="696,-206 583,-206 583,-176 696,-176 696,-206"/>
<text text-anchor="start" x="591" y="-194" font-family="Helvetica,sans-Serif" font-size="10.00">HealthGPS/simulation</text>
<text text-anchor="middle" x="639.5" y="-183" font-family="Helvetica,sans-Serif" font-size="10.00">_module.h</text>
</a>
</g>
</g>
<!-- Node11&#45;&gt;Node13 -->
<g id="edge13" class="edge">
<title>Node11&#45;&gt;Node13</title>
<path fill="none" stroke="#63b8ff" d="M436.69,-240.8C481.06,-230.12 539.91,-215.96 582.78,-205.65"/>
<polygon fill="#63b8ff" stroke="#63b8ff" points="436.11,-237.34 427.21,-243.08 437.75,-244.14 436.11,-237.34"/>
</g>
<!-- Node14 -->
<g id="node14" class="node">
<title>Node14</title>
<g id="a_node14"><a xlink:href="_health_g_p_s_2api_8h.html" target="_top" xlink:title=" ">
<polygon fill="white" stroke="#666666" points="566,-74 477,-74 477,-55 566,-55 566,-74"/>
<text text-anchor="middle" x="521.5" y="-62" font-family="Helvetica,sans-Serif" font-size="10.00">HealthGPS/api.h</text>
</a>
</g>
</g>
<!-- Node13&#45;&gt;Node14 -->
<g id="edge14" class="edge">
<title>Node13&#45;&gt;Node14</title>
<path fill="none" stroke="#63b8ff" d="M606.71,-169.35C594.88,-161.04 581.9,-150.85 571.5,-140 551.46,-119.08 534.14,-89.23 526.18,-74.47"/>
<polygon fill="#63b8ff" stroke="#63b8ff" points="604.39,-172 614.62,-174.73 608.32,-166.21 604.39,-172"/>
</g>
<!-- Node15 -->
<g id="node15" class="node">
<title>Node15</title>
<g id="a_node15"><a xlink:href="healthgps_8h.html" target="_top" xlink:title=" ">
<polygon fill="white" stroke="#666666" points="699,-134.5 580,-134.5 580,-115.5 699,-115.5 699,-134.5"/>
<text text-anchor="middle" x="639.5" y="-122.5" font-family="Helvetica,sans-Serif" font-size="10.00">HealthGPS/healthgps.h</text>
</a>
</g>
</g>
<!-- Node13&#45;&gt;Node15 -->
<g id="edge16" class="edge">
<title>Node13&#45;&gt;Node15</title>
<path fill="none" stroke="#63b8ff" d="M639.5,-164.59C639.5,-154.06 639.5,-142.53 639.5,-134.84"/>
<polygon fill="#63b8ff" stroke="#63b8ff" points="636,-164.28 639.5,-174.28 643,-164.28 636,-164.28"/>
</g>
<!-- Node18 -->
<g id="node18" class="node">
<title>Node18</title>
<g id="a_node18"><a xlink:href="simulation__module_8cpp.html" target="_top" xlink:title=" ">
<polygon fill="white" stroke="#666666" points="830,-140 717,-140 717,-110 830,-110 830,-140"/>
<text text-anchor="start" x="725" y="-128" font-family="Helvetica,sans-Serif" font-size="10.00">HealthGPS/simulation</text>
<text text-anchor="middle" x="773.5" y="-117" font-family="Helvetica,sans-Serif" font-size="10.00">_module.cpp</text>
</a>
</g>
</g>
<!-- Node13&#45;&gt;Node18 -->
<g id="edge22" class="edge">
<title>Node13&#45;&gt;Node18</title>
<path fill="none" stroke="#63b8ff" d="M679.86,-170.72C700.33,-160.95 724.76,-149.28 743.53,-140.31"/>
<polygon fill="#63b8ff" stroke="#63b8ff" points="678.45,-167.52 670.94,-174.98 681.47,-173.83 678.45,-167.52"/>
</g>
<!-- Node14&#45;&gt;Node5 -->
<g id="edge15" class="edge">
<title>Node14&#45;&gt;Node5</title>
<path fill="none" stroke="#63b8ff" d="M513.86,-44.22C510.5,-35.74 506.72,-26.21 504.04,-19.44"/>
<polygon fill="#63b8ff" stroke="#63b8ff" points="510.54,-45.33 517.47,-53.34 517.04,-42.75 510.54,-45.33"/>
</g>
<!-- Node15&#45;&gt;Node8 -->
<g id="edge21" class="edge">
<title>Node15&#45;&gt;Node8</title>
<path fill="none" stroke="#63b8ff" d="M692.18,-112.84C697.68,-111.82 703.2,-110.85 708.5,-110 817.5,-92.54 945.26,-78.88 1020.57,-71.52"/>
<polygon fill="#63b8ff" stroke="#63b8ff" points="691.64,-109.39 682.48,-114.72 692.96,-116.26 691.64,-109.39"/>
</g>
<!-- Node15&#45;&gt;Node14 -->
<g id="edge20" class="edge">
<title>Node15&#45;&gt;Node14</title>
<path fill="none" stroke="#63b8ff" d="M611.39,-110.07C589.14,-99.03 558.72,-83.95 539.59,-74.47"/>
<polygon fill="#63b8ff" stroke="#63b8ff" points="609.71,-113.14 620.22,-114.44 612.82,-106.87 609.71,-113.14"/>
</g>
<!-- Node16 -->
<g id="node16" class="node">
<title>Node16</title>
<g id="a_node16"><a xlink:href="configuration_8h.html" target="_top" xlink:title=" ">
<polygon fill="white" stroke="#666666" points="754.5,-74 584.5,-74 584.5,-55 754.5,-55 754.5,-74"/>
<text text-anchor="middle" x="669.5" y="-62" font-family="Helvetica,sans-Serif" font-size="10.00">HealthGPS.Console/configuration.h</text>
</a>
</g>
</g>
<!-- Node15&#45;&gt;Node16 -->
<g id="edge17" class="edge">
<title>Node15&#45;&gt;Node16</title>
<path fill="none" stroke="#63b8ff" d="M649.16,-105.16C654.5,-94.74 660.88,-82.3 665.06,-74.17"/>
<polygon fill="#63b8ff" stroke="#63b8ff" points="646.07,-103.53 644.62,-114.02 652.29,-106.72 646.07,-103.53"/>
</g>
<!-- Node16&#45;&gt;Node5 -->
<g id="edge19" class="edge">
<title>Node16&#45;&gt;Node5</title>
<path fill="none" stroke="#63b8ff" d="M629.99,-51.11C599.05,-41.41 556.74,-28.14 529.03,-19.45"/>
<polygon fill="#63b8ff" stroke="#63b8ff" points="628.8,-54.4 639.39,-54.06 630.89,-47.72 628.8,-54.4"/>
</g>
<!-- Node17 -->
<g id="node17" class="node">
<title>Node17</title>
<g id="a_node17"><a xlink:href="configuration_8cpp.html" target="_top" xlink:title=" ">
<polygon fill="white" stroke="#666666" points="779.5,-19 599.5,-19 599.5,0 779.5,0 779.5,-19"/>
<text text-anchor="middle" x="689.5" y="-7" font-family="Helvetica,sans-Serif" font-size="10.00">HealthGPS.Console/configuration.cpp</text>
</a>
</g>
</g>
<!-- Node16&#45;&gt;Node17 -->
<g id="edge18" class="edge">
<title>Node16&#45;&gt;Node17</title>
<path fill="none" stroke="#63b8ff" d="M676.78,-44.22C679.97,-35.74 683.57,-26.21 686.13,-19.44"/>
<polygon fill="#63b8ff" stroke="#63b8ff" points="673.59,-42.74 673.34,-53.33 680.14,-45.21 673.59,-42.74"/>
</g>
<!-- Node19&#45;&gt;Node7 -->
<g id="edge24" class="edge">
<title>Node19&#45;&gt;Node7</title>
<path fill="none" stroke="#63b8ff" d="M1096.96,-240.74C1114.48,-228.28 1138.63,-211.11 1153.09,-200.82"/>
<polygon fill="#63b8ff" stroke="#63b8ff" points="1095.37,-237.58 1089.25,-246.22 1099.43,-243.28 1095.37,-237.58"/>
</g>
<!-- Node19&#45;&gt;Node13 -->
<g id="edge25" class="edge">
<title>Node19&#45;&gt;Node13</title>
<path fill="none" stroke="#63b8ff" d="M1018.9,-245.04C1012.7,-243.96 1006.47,-242.92 1000.5,-242 869.96,-221.87 835.78,-227.72 705.5,-206 702.5,-205.5 699.42,-204.96 696.32,-204.38"/>
<polygon fill="#63b8ff" stroke="#63b8ff" points="1018.02,-248.44 1028.48,-246.76 1019.25,-241.55 1018.02,-248.44"/>
</g>
<!-- Node20&#45;&gt;Node13 -->
<g id="edge28" class="edge">
<title>Node20&#45;&gt;Node13</title>
<path fill="none" stroke="#63b8ff" d="M528.41,-242.42C551.67,-231.87 583.86,-217.26 607.6,-206.48"/>
<polygon fill="#63b8ff" stroke="#63b8ff" points="527.14,-239.16 519.48,-246.48 530.04,-245.53 527.14,-239.16"/>
</g>
<!-- Node21 -->
<g id="node21" class="node">
<title>Node21</title>
<g id="a_node21"><a xlink:href="disease_8cpp.html" target="_top" xlink:title=" ">
<polygon fill="white" stroke="#666666" points="565,-200.5 444,-200.5 444,-181.5 565,-181.5 565,-200.5"/>
<text text-anchor="middle" x="504.5" y="-188.5" font-family="Helvetica,sans-Serif" font-size="10.00">HealthGPS/disease.cpp</text>
</a>
</g>
</g>
<!-- Node20&#45;&gt;Node21 -->
<g id="edge27" class="edge">
<title>Node20&#45;&gt;Node21</title>
<path fill="none" stroke="#63b8ff" d="M500.41,-235.68C501.51,-223.94 502.83,-209.77 503.67,-200.82"/>
<polygon fill="#63b8ff" stroke="#63b8ff" points="496.92,-235.31 499.48,-245.59 503.89,-235.96 496.92,-235.31"/>
</g>
<!-- Node22&#45;&gt;Node13 -->
<g id="edge31" class="edge">
<title>Node22&#45;&gt;Node13</title>
<path fill="none" stroke="#63b8ff" d="M757.22,-242.57C732.62,-232 698.41,-217.3 673.21,-206.48"/>
<polygon fill="#63b8ff" stroke="#63b8ff" points="755.82,-245.77 766.39,-246.5 758.58,-239.34 755.82,-245.77"/>
</g>
<!-- Node23 -->
<g id="node23" class="node">
<title>Node23</title>
<g id="a_node23"><a xlink:href="modulefactory_8cpp.html" target="_top" xlink:title=" ">
<polygon fill="white" stroke="#666666" points="862.5,-200.5 714.5,-200.5 714.5,-181.5 862.5,-181.5 862.5,-200.5"/>
<text text-anchor="middle" x="788.5" y="-188.5" font-family="Helvetica,sans-Serif" font-size="10.00">HealthGPS/modulefactory.cpp</text>
</a>
</g>
</g>
<!-- Node22&#45;&gt;Node23 -->
<g id="edge30" class="edge">
<title>Node22&#45;&gt;Node23</title>
<path fill="none" stroke="#63b8ff" d="M788.5,-235.68C788.5,-223.94 788.5,-209.77 788.5,-200.82"/>
<polygon fill="#63b8ff" stroke="#63b8ff" points="785,-235.59 788.5,-245.59 792,-235.59 785,-235.59"/>
</g>
<!-- Node25&#45;&gt;Node13 -->
<g id="edge35" class="edge">
<title>Node25&#45;&gt;Node13</title>
<path fill="none" stroke="#63b8ff" d="M881.34,-244.65C829.37,-233.33 749.81,-216.01 696.28,-204.36"/>
<polygon fill="#63b8ff" stroke="#63b8ff" points="880.32,-248 890.83,-246.71 881.81,-241.16 880.32,-248"/>
</g>
<!-- Node26 -->
<g id="node26" class="node">
<title>Node26</title>
<g id="a_node26"><a xlink:href="riskfactor_8cpp.html" target="_top" xlink:title=" ">
<polygon fill="white" stroke="#666666" points="1008,-200.5 881,-200.5 881,-181.5 1008,-181.5 1008,-200.5"/>
<text text-anchor="middle" x="944.5" y="-188.5" font-family="Helvetica,sans-Serif" font-size="10.00">HealthGPS/riskfactor.cpp</text>
</a>
</g>
</g>
<!-- Node25&#45;&gt;Node26 -->
<g id="edge34" class="edge">
<title>Node25&#45;&gt;Node26</title>
<path fill="none" stroke="#63b8ff" d="M936.93,-236.05C938.96,-224.24 941.43,-209.87 942.98,-200.82"/>
<polygon fill="#63b8ff" stroke="#63b8ff" points="933.53,-235.16 935.29,-245.61 940.43,-236.35 933.53,-235.16"/>
</g>
<!-- Node27&#45;&gt;Node13 -->
<g id="edge38" class="edge">
<title>Node27&#45;&gt;Node13</title>
<path fill="none" stroke="#63b8ff" d="M314.42,-241.76C430.21,-222.05 462.25,-225.77 574.5,-206 577.23,-205.52 580.02,-205.01 582.83,-204.47"/>
<polygon fill="#63b8ff" stroke="#63b8ff" points="314.08,-238.26 304.82,-243.41 315.27,-245.16 314.08,-238.26"/>
</g>
<!-- Node28 -->
<g id="node28" class="node">
<title>Node28</title>
<g id="a_node28"><a xlink:href="ses__noise__module_8cpp.html" target="_top" xlink:title=" ">
<polygon fill="white" stroke="#666666" points="303,-206 190,-206 190,-176 303,-176 303,-206"/>
<text text-anchor="start" x="198" y="-194" font-family="Helvetica,sans-Serif" font-size="10.00">HealthGPS/ses_noise</text>
<text text-anchor="middle" x="246.5" y="-183" font-family="Helvetica,sans-Serif" font-size="10.00">_module.cpp</text>
</a>
</g>
</g>
<!-- Node27&#45;&gt;Node28 -->
<g id="edge37" class="edge">
<title>Node27&#45;&gt;Node28</title>
<path fill="none" stroke="#63b8ff" d="M246.5,-230.39C246.5,-222.13 246.5,-213.28 246.5,-206.16"/>
<polygon fill="#63b8ff" stroke="#63b8ff" points="243,-230.28 246.5,-240.28 250,-230.28 243,-230.28"/>
</g>
<!-- Node29&#45;&gt;Node9 -->
<g id="edge41" class="edge">
<title>Node29&#45;&gt;Node9</title>
<path fill="none" stroke="#63b8ff" d="M998.89,-307.05C1047.66,-295.91 1113.49,-280.86 1159.33,-270.38"/>
<polygon fill="#63b8ff" stroke="#63b8ff" points="998.26,-303.61 989.29,-309.25 999.82,-310.43 998.26,-303.61"/>
</g>
<!-- Node29&#45;&gt;Node25 -->
<g id="edge40" class="edge">
<title>Node29&#45;&gt;Node25</title>
<path fill="none" stroke="#63b8ff" d="M933.5,-296.59C933.5,-286.06 933.5,-274.53 933.5,-266.84"/>
<polygon fill="#63b8ff" stroke="#63b8ff" points="930,-296.28 933.5,-306.28 937,-296.28 930,-296.28"/>
</g>
</g>
</svg>
