<?xml version="1.0" encoding="UTF-8" standalone="no"?>
<!DOCTYPE svg PUBLIC "-//W3C//DTD SVG 1.1//EN"
 "http://www.w3.org/Graphics/SVG/1.1/DTD/svg11.dtd">
<!-- Generated by graphviz version 2.43.0 (0)
 -->
<!-- Title: HealthGPS/mapping.h Pages: 1 -->
<svg width="482pt" height="140pt"
 viewBox="0.00 0.00 482.00 140.00" xmlns="http://www.w3.org/2000/svg" xmlns:xlink="http://www.w3.org/1999/xlink">
<g id="graph0" class="graph" transform="scale(1 1) rotate(0) translate(4 136)">
<title>HealthGPS/mapping.h</title>
<!-- Node1 -->
<g id="node1" class="node">
<title>Node1</title>
<g id="a_node1"><a xlink:title=" ">
<polygon fill="#bfbfbf" stroke="black" points="204,-112.5 204,-131.5 327,-131.5 327,-112.5 204,-112.5"/>
<text text-anchor="middle" x="265.5" y="-119.5" font-family="Helvetica,sans-Serif" font-size="10.00">HealthGPS/mapping.h</text>
</a>
</g>
</g>
<!-- Node2 -->
<g id="node2" class="node">
<title>Node2</title>
<g id="a_node2"><a xlink:href="identifier_8h.html" target="_top" xlink:title=" ">
<polygon fill="none" stroke="black" points="28,-56.5 28,-75.5 177,-75.5 177,-56.5 28,-56.5"/>
<text text-anchor="middle" x="102.5" y="-63.5" font-family="Helvetica,sans-Serif" font-size="10.00">HealthGPS.Core/identifier.h</text>
</a>
</g>
</g>
<!-- Node1&#45;&gt;Node2 -->
<g id="edge1" class="edge">
<title>Node1&#45;&gt;Node2</title>
<path fill="none" stroke="midnightblue" d="M239.67,-112.44C212.25,-103.36 168.72,-88.94 138.07,-78.78"/>
<polygon fill="midnightblue" stroke="midnightblue" points="138.8,-75.34 128.21,-75.52 136.6,-81.98 138.8,-75.34"/>
</g>
<!-- Node5 -->
<g id="node5" class="node">
<title>Node5</title>
<g id="a_node5"><a xlink:title=" ">
<polygon fill="none" stroke="#bfbfbf" points="174.5,-0.5 174.5,-19.5 218.5,-19.5 218.5,-0.5 174.5,-0.5"/>
<text text-anchor="middle" x="196.5" y="-7.5" font-family="Helvetica,sans-Serif" font-size="10.00">string</text>
</a>
</g>
</g>
<!-- Node1&#45;&gt;Node5 -->
<g id="edge6" class="edge">
<title>Node1&#45;&gt;Node5</title>
<path fill="none" stroke="midnightblue" d="M256.05,-112.43C247.05,-103.89 233.55,-90.03 224.5,-76 215.04,-61.33 207.46,-42.93 202.58,-29.46"/>
<polygon fill="midnightblue" stroke="midnightblue" points="205.84,-28.18 199.27,-19.87 199.23,-30.47 205.84,-28.18"/>
</g>
<!-- Node6 -->
<g id="node6" class="node">
<title>Node6</title>
<g id="a_node6"><a xlink:title=" ">
<polygon fill="none" stroke="#bfbfbf" points="233,-56.5 233,-75.5 298,-75.5 298,-56.5 233,-56.5"/>
<text text-anchor="middle" x="265.5" y="-63.5" font-family="Helvetica,sans-Serif" font-size="10.00">stdexcept</text>
</a>
</g>
</g>
<!-- Node1&#45;&gt;Node6 -->
<g id="edge5" class="edge">
<title>Node1&#45;&gt;Node6</title>
<path fill="none" stroke="midnightblue" d="M265.5,-112.08C265.5,-105.01 265.5,-94.86 265.5,-85.99"/>
<polygon fill="midnightblue" stroke="midnightblue" points="269,-85.75 265.5,-75.75 262,-85.75 269,-85.75"/>
</g>
<!-- Node7 -->
<g id="node7" class="node">
<title>Node7</title>
<g id="a_node7"><a xlink:title=" ">
<polygon fill="none" stroke="#bfbfbf" points="316,-56.5 316,-75.5 409,-75.5 409,-56.5 316,-56.5"/>
<text text-anchor="middle" x="362.5" y="-63.5" font-family="Helvetica,sans-Serif" font-size="10.00">unordered_map</text>
</a>
</g>
</g>
<!-- Node1&#45;&gt;Node7 -->
<g id="edge7" class="edge">
<title>Node1&#45;&gt;Node7</title>
<path fill="none" stroke="midnightblue" d="M281.08,-112.32C296.5,-103.74 320.31,-90.49 338.21,-80.52"/>
<polygon fill="midnightblue" stroke="midnightblue" points="339.92,-83.58 346.95,-75.65 336.51,-77.46 339.92,-83.58"/>
</g>
<!-- Node8 -->
<g id="node8" class="node">
<title>Node8</title>
<g id="a_node8"><a xlink:title=" ">
<polygon fill="none" stroke="#bfbfbf" points="427,-56.5 427,-75.5 474,-75.5 474,-56.5 427,-56.5"/>
<text text-anchor="middle" x="450.5" y="-63.5" font-family="Helvetica,sans-Serif" font-size="10.00">vector</text>
</a>
</g>
</g>
<!-- Node1&#45;&gt;Node8 -->
<g id="edge8" class="edge">
<title>Node1&#45;&gt;Node8</title>
<path fill="none" stroke="midnightblue" d="M294.81,-112.44C328.1,-102.73 382.31,-86.9 417.18,-76.73"/>
<polygon fill="midnightblue" stroke="midnightblue" points="418.28,-80.05 426.9,-73.89 416.32,-73.33 418.28,-80.05"/>
</g>
<!-- Node3 -->
<g id="node3" class="node">
<title>Node3</title>
<g id="a_node3"><a xlink:title=" ">
<polygon fill="none" stroke="#bfbfbf" points="0,-0.5 0,-19.5 65,-19.5 65,-0.5 0,-0.5"/>
<text text-anchor="middle" x="32.5" y="-7.5" font-family="Helvetica,sans-Serif" font-size="10.00">functional</text>
</a>
</g>
</g>
<!-- Node2&#45;&gt;Node3 -->
<g id="edge2" class="edge">
<title>Node2&#45;&gt;Node3</title>
<path fill="none" stroke="midnightblue" d="M91.25,-56.32C80.7,-48.18 64.7,-35.84 52.06,-26.09"/>
<polygon fill="midnightblue" stroke="midnightblue" points="54.01,-23.17 43.95,-19.83 49.73,-28.71 54.01,-23.17"/>
</g>
<!-- Node4 -->
<g id="node4" class="node">
<title>Node4</title>
<g id="a_node4"><a xlink:title=" ">
<polygon fill="none" stroke="#bfbfbf" points="83,-0.5 83,-19.5 140,-19.5 140,-0.5 83,-0.5"/>
<text text-anchor="middle" x="111.5" y="-7.5" font-family="Helvetica,sans-Serif" font-size="10.00">ostream</text>
</a>
</g>
</g>
<!-- Node2&#45;&gt;Node4 -->
<g id="edge3" class="edge">
<title>Node2&#45;&gt;Node4</title>
<path fill="none" stroke="midnightblue" d="M103.99,-56.08C105.18,-48.93 106.89,-38.64 108.38,-29.69"/>
<polygon fill="midnightblue" stroke="midnightblue" points="111.85,-30.19 110.04,-19.75 104.95,-29.04 111.85,-30.19"/>
</g>
<!-- Node2&#45;&gt;Node5 -->
<g id="edge4" class="edge">
<title>Node2&#45;&gt;Node5</title>
<path fill="none" stroke="midnightblue" d="M117.6,-56.32C132.4,-47.82 155.19,-34.73 172.48,-24.8"/>
<polygon fill="midnightblue" stroke="midnightblue" points="174.51,-27.67 181.43,-19.65 171.02,-21.6 174.51,-27.67"/>
</g>
</g>
</svg>
