<?xml version="1.0" encoding="UTF-8" standalone="no"?>
<!DOCTYPE svg PUBLIC "-//W3C//DTD SVG 1.1//EN"
 "http://www.w3.org/Graphics/SVG/1.1/DTD/svg11.dtd">
<!-- Generated by graphviz version 2.43.0 (0)
 -->
<!-- Title: HealthGPS/model_result.h Pages: 1 -->
<svg width="389pt" height="207pt"
 viewBox="0.00 0.00 388.50 207.00" xmlns="http://www.w3.org/2000/svg" xmlns:xlink="http://www.w3.org/1999/xlink">
<g id="graph0" class="graph" transform="scale(1 1) rotate(0) translate(4 203)">
<title>HealthGPS/model_result.h</title>
<!-- Node1 -->
<g id="node1" class="node">
<title>Node1</title>
<g id="a_node1"><a xlink:title=" ">
<polygon fill="#bfbfbf" stroke="black" points="123,-179.5 123,-198.5 267,-198.5 267,-179.5 123,-179.5"/>
<text text-anchor="middle" x="195" y="-186.5" font-family="Helvetica,sans-Serif" font-size="10.00">HealthGPS/model_result.h</text>
</a>
</g>
</g>
<!-- Node2 -->
<g id="node2" class="node">
<title>Node2</title>
<g id="a_node2"><a xlink:href="data__series_8h.html" target="_top" xlink:title=" ">
<polygon fill="none" stroke="black" points="154,-123.5 154,-142.5 236,-142.5 236,-123.5 154,-123.5"/>
<text text-anchor="middle" x="195" y="-130.5" font-family="Helvetica,sans-Serif" font-size="10.00">data_series.h</text>
</a>
</g>
</g>
<!-- Node1&#45;&gt;Node2 -->
<g id="edge1" class="edge">
<title>Node1&#45;&gt;Node2</title>
<path fill="none" stroke="midnightblue" d="M195,-179.08C195,-172.01 195,-161.86 195,-152.99"/>
<polygon fill="midnightblue" stroke="midnightblue" points="198.5,-152.75 195,-142.75 191.5,-152.75 198.5,-152.75"/>
</g>
<!-- Node6 -->
<g id="node6" class="node">
<title>Node6</title>
<g id="a_node6"><a xlink:title=" ">
<polygon fill="none" stroke="#bfbfbf" points="63,-62 63,-81 101,-81 101,-62 63,-62"/>
<text text-anchor="middle" x="82" y="-69" font-family="Helvetica,sans-Serif" font-size="10.00">map</text>
</a>
</g>
</g>
<!-- Node1&#45;&gt;Node6 -->
<g id="edge10" class="edge">
<title>Node1&#45;&gt;Node6</title>
<path fill="none" stroke="midnightblue" d="M184.74,-179.35C174.42,-170.51 158.19,-156.24 145,-143 127.18,-125.12 108.03,-103.27 95.58,-88.68"/>
<polygon fill="midnightblue" stroke="midnightblue" points="98.22,-86.38 89.09,-81.02 92.88,-90.91 98.22,-86.38"/>
</g>
<!-- Node7 -->
<g id="node7" class="node">
<title>Node7</title>
<g id="a_node7"><a xlink:title=" ">
<polygon fill="none" stroke="#bfbfbf" points="271,-62 271,-81 315,-81 315,-62 271,-62"/>
<text text-anchor="middle" x="293" y="-69" font-family="Helvetica,sans-Serif" font-size="10.00">string</text>
</a>
</g>
</g>
<!-- Node1&#45;&gt;Node7 -->
<g id="edge11" class="edge">
<title>Node1&#45;&gt;Node7</title>
<path fill="none" stroke="midnightblue" d="M206.04,-179.38C216.66,-170.78 232.86,-156.9 245,-143 259.7,-126.17 273.75,-104.67 282.81,-89.87"/>
<polygon fill="midnightblue" stroke="midnightblue" points="285.85,-91.6 288,-81.22 279.85,-88 285.85,-91.6"/>
</g>
<!-- Node8 -->
<g id="node8" class="node">
<title>Node8</title>
<g id="a_node8"><a xlink:title=" ">
<polygon fill="none" stroke="#bfbfbf" points="333.5,-62 333.5,-81 380.5,-81 380.5,-62 333.5,-62"/>
<text text-anchor="middle" x="357" y="-69" font-family="Helvetica,sans-Serif" font-size="10.00">vector</text>
</a>
</g>
</g>
<!-- Node1&#45;&gt;Node8 -->
<g id="edge12" class="edge">
<title>Node1&#45;&gt;Node8</title>
<path fill="none" stroke="midnightblue" d="M209.63,-179.47C224.39,-170.73 247.69,-156.54 267,-143 292.7,-124.98 320.99,-102.32 338.86,-87.63"/>
<polygon fill="midnightblue" stroke="midnightblue" points="341.27,-90.19 346.74,-81.12 336.81,-84.79 341.27,-90.19"/>
</g>
<!-- Node9 -->
<g id="node9" class="node">
<title>Node9</title>
<g id="a_node9"><a xlink:href="gender__value_8h.html" target="_top" xlink:title=" ">
<polygon fill="none" stroke="black" points="0,-123.5 0,-142.5 92,-142.5 92,-123.5 0,-123.5"/>
<text text-anchor="middle" x="46" y="-130.5" font-family="Helvetica,sans-Serif" font-size="10.00">gender_value.h</text>
</a>
</g>
</g>
<!-- Node1&#45;&gt;Node9 -->
<g id="edge8" class="edge">
<title>Node1&#45;&gt;Node9</title>
<path fill="none" stroke="midnightblue" d="M171.39,-179.44C146.54,-170.44 107.23,-156.19 79.25,-146.05"/>
<polygon fill="midnightblue" stroke="midnightblue" points="80.09,-142.63 69.5,-142.52 77.71,-149.21 80.09,-142.63"/>
</g>
<!-- Node3 -->
<g id="node3" class="node">
<title>Node3</title>
<g id="a_node3"><a xlink:href="forward__type_8h.html" target="_top" xlink:title=" ">
<polygon fill="none" stroke="black" points="119,-56.5 119,-86.5 253,-86.5 253,-56.5 119,-56.5"/>
<text text-anchor="start" x="127" y="-74.5" font-family="Helvetica,sans-Serif" font-size="10.00">HealthGPS.Core/forward</text>
<text text-anchor="middle" x="186" y="-63.5" font-family="Helvetica,sans-Serif" font-size="10.00">_type.h</text>
</a>
</g>
</g>
<!-- Node2&#45;&gt;Node3 -->
<g id="edge2" class="edge">
<title>Node2&#45;&gt;Node3</title>
<path fill="none" stroke="midnightblue" d="M193.71,-123.48C192.65,-116.47 191.1,-106.19 189.66,-96.7"/>
<polygon fill="midnightblue" stroke="midnightblue" points="193.08,-95.89 188.12,-86.52 186.16,-96.93 193.08,-95.89"/>
</g>
<!-- Node2&#45;&gt;Node6 -->
<g id="edge5" class="edge">
<title>Node2&#45;&gt;Node6</title>
<path fill="none" stroke="midnightblue" d="M178.81,-123.48C160.1,-113.62 129.08,-97.29 107.2,-85.77"/>
<polygon fill="midnightblue" stroke="midnightblue" points="108.64,-82.57 98.16,-81.01 105.38,-88.77 108.64,-82.57"/>
</g>
<!-- Node2&#45;&gt;Node7 -->
<g id="edge6" class="edge">
<title>Node2&#45;&gt;Node7</title>
<path fill="none" stroke="midnightblue" d="M209.04,-123.48C225.05,-113.75 251.45,-97.73 270.37,-86.24"/>
<polygon fill="midnightblue" stroke="midnightblue" points="272.25,-89.19 278.99,-81.01 268.62,-83.21 272.25,-89.19"/>
</g>
<!-- Node2&#45;&gt;Node8 -->
<g id="edge7" class="edge">
<title>Node2&#45;&gt;Node8</title>
<path fill="none" stroke="midnightblue" d="M221.41,-123.46C247.64,-114.82 288.9,-100.81 324,-87 325.6,-86.37 327.24,-85.71 328.89,-85.03"/>
<polygon fill="midnightblue" stroke="midnightblue" points="330.43,-88.18 338.26,-81.04 327.69,-81.74 330.43,-88.18"/>
</g>
<!-- Node4 -->
<g id="node4" class="node">
<title>Node4</title>
<g id="a_node4"><a xlink:title=" ">
<polygon fill="none" stroke="#bfbfbf" points="161,-0.5 161,-19.5 211,-19.5 211,-0.5 161,-0.5"/>
<text text-anchor="middle" x="186" y="-7.5" font-family="Helvetica,sans-Serif" font-size="10.00">cstdint</text>
</a>
</g>
</g>
<!-- Node3&#45;&gt;Node4 -->
<g id="edge3" class="edge">
<title>Node3&#45;&gt;Node4</title>
<path fill="none" stroke="midnightblue" d="M186,-56.4C186,-48.47 186,-38.46 186,-29.86"/>
<polygon fill="midnightblue" stroke="midnightblue" points="189.5,-29.66 186,-19.66 182.5,-29.66 189.5,-29.66"/>
</g>
<!-- Node5 -->
<g id="node5" class="node">
<title>Node5</title>
<g id="a_node5"><a xlink:title=" ">
<polygon fill="none" stroke="#bfbfbf" points="37.5,-0.5 37.5,-19.5 106.5,-19.5 106.5,-0.5 37.5,-0.5"/>
<text text-anchor="middle" x="72" y="-7.5" font-family="Helvetica,sans-Serif" font-size="10.00">type_traits</text>
</a>
</g>
</g>
<!-- Node3&#45;&gt;Node5 -->
<g id="edge4" class="edge">
<title>Node3&#45;&gt;Node5</title>
<path fill="none" stroke="midnightblue" d="M158.98,-56.4C140.37,-46.68 115.79,-33.86 97.51,-24.31"/>
<polygon fill="midnightblue" stroke="midnightblue" points="99.07,-21.18 88.59,-19.66 95.83,-27.39 99.07,-21.18"/>
</g>
<!-- Node9&#45;&gt;Node5 -->
<g id="edge9" class="edge">
<title>Node9&#45;&gt;Node5</title>
<path fill="none" stroke="midnightblue" d="M46.14,-123.43C46.53,-109.22 48.07,-79.95 54,-56 56.27,-46.81 60.03,-37.01 63.52,-28.91"/>
<polygon fill="midnightblue" stroke="midnightblue" points="66.74,-30.28 67.67,-19.73 60.36,-27.39 66.74,-30.28"/>
</g>
</g>
</svg>
