<?xml version="1.0" encoding="UTF-8" standalone="no"?>
<!DOCTYPE svg PUBLIC "-//W3C//DTD SVG 1.1//EN"
 "http://www.w3.org/Graphics/SVG/1.1/DTD/svg11.dtd">
<!-- Generated by graphviz version 7.0.6 (20230106.0513)
 -->
<!-- Title: load_baseline_adjustments Pages: 1 -->
<svg width="318pt" height="76pt"
 viewBox="0.00 0.00 318.00 75.50" xmlns="http://www.w3.org/2000/svg" xmlns:xlink="http://www.w3.org/1999/xlink">
<g id="graph0" class="graph" transform="scale(1 1) rotate(0) translate(4 71.5)">
<title>load_baseline_adjustments</title>
<!-- Node1 -->
<g id="node1" class="node">
<title>Node1</title>
<g id="a_node1"><a xlink:title=" ">
<polygon fill="#999999" stroke="#666666" points="134,-40 0,-40 0,-21 134,-21 134,-40"/>
<text text-anchor="middle" x="67" y="-28" font-family="Helvetica,sans-Serif" font-size="10.00">load_baseline_adjustments</text>
</a>
</g>
</g>
<!-- Node2 -->
<g id="node2" class="node">
<title>Node2</title>
<g id="a_node2"><a xlink:href="structhgps_1_1core_1_1case__insensitive.html#a7c3f04e32aa1d7a41ef339443139b5c0" target="_top" xlink:title=" ">
<polygon fill="white" stroke="#666666" points="310,-67.5 170,-67.5 170,-37.5 310,-37.5 310,-67.5"/>
<text text-anchor="start" x="178" y="-55.5" font-family="Helvetica,sans-Serif" font-size="10.00">hgps::core::case_insensitive</text>
<text text-anchor="middle" x="240" y="-44.5" font-family="Helvetica,sans-Serif" font-size="10.00">::equals</text>
</a>
</g>
</g>
<!-- Node1&#45;&gt;Node2 -->
<g id="edge1" class="edge">
<title>Node1&#45;&gt;Node2</title>
<path fill="none" stroke="#63b8ff" d="M134.11,-39.01C142.03,-40.02 150.19,-41.07 158.29,-42.12"/>
<polygon fill="#63b8ff" stroke="#63b8ff" points="157.8,-45.58 168.17,-43.39 158.69,-38.64 157.8,-45.58"/>
</g>
<!-- Node3 -->
<g id="node3" class="node">
<title>Node3</title>
<g id="a_node3"><a xlink:href="csvparser_8cpp.html#ac4dc3a9222c5d4b8d146405f8856fddf" target="_top" xlink:title=" ">
<polygon fill="white" stroke="#666666" points="287.5,-19 192.5,-19 192.5,0 287.5,0 287.5,-19"/>
<text text-anchor="middle" x="240" y="-7" font-family="Helvetica,sans-Serif" font-size="10.00">load_baseline_csv</text>
</a>
</g>
</g>
<!-- Node1&#45;&gt;Node3 -->
<g id="edge2" class="edge">
<title>Node1&#45;&gt;Node3</title>
<path fill="none" stroke="#63b8ff" d="M134.11,-22.38C149.54,-20.49 165.86,-18.48 180.91,-16.63"/>
<polygon fill="#63b8ff" stroke="#63b8ff" points="181.13,-20.13 190.63,-15.44 180.28,-13.19 181.13,-20.13"/>
</g>
</g>
</svg>
