<?xml version="1.0" encoding="UTF-8" standalone="no"?>
<!DOCTYPE svg PUBLIC "-//W3C//DTD SVG 1.1//EN"
 "http://www.w3.org/Graphics/SVG/1.1/DTD/svg11.dtd">
<!-- Generated by graphviz version 2.43.0 (0)
 -->
<!-- Title: load_baseline_adjustments Pages: 1 -->
<svg width="490pt" height="78pt"
 viewBox="0.00 0.00 490.00 77.50" xmlns="http://www.w3.org/2000/svg" xmlns:xlink="http://www.w3.org/1999/xlink">
<g id="graph0" class="graph" transform="scale(1 1) rotate(0) translate(4 73.5)">
<title>load_baseline_adjustments</title>
<!-- Node1 -->
<g id="node1" class="node">
<title>Node1</title>
<g id="a_node1"><a xlink:title=" ">
<polygon fill="#bfbfbf" stroke="black" points="0,-25.5 0,-44.5 150,-44.5 150,-25.5 0,-25.5"/>
<text text-anchor="middle" x="75" y="-32.5" font-family="Helvetica,sans-Serif" font-size="10.00">load_baseline_adjustments</text>
</a>
</g>
</g>
<!-- Node2 -->
<g id="node2" class="node">
<title>Node2</title>
<g id="a_node2"><a xlink:href="structhgps_1_1core_1_1case__insensitive.html#a7c3f04e32aa1d7a41ef339443139b5c0" target="_top" xlink:title=" ">
<polygon fill="none" stroke="black" points="328,-39 328,-69 482,-69 482,-39 328,-39"/>
<text text-anchor="start" x="336" y="-57" font-family="Helvetica,sans-Serif" font-size="10.00">hgps::core::case_insensitive</text>
<text text-anchor="middle" x="405" y="-46" font-family="Helvetica,sans-Serif" font-size="10.00">::equals</text>
</a>
</g>
</g>
<!-- Node1&#45;&gt;Node2 -->
<g id="edge1" class="edge">
<title>Node1&#45;&gt;Node2</title>
<path fill="none" stroke="midnightblue" d="M150.02,-39.29C199.79,-42.17 265.59,-45.98 317.74,-49"/>
<polygon fill="midnightblue" stroke="midnightblue" points="317.79,-52.51 327.97,-49.6 318.19,-45.52 317.79,-52.51"/>
</g>
<!-- Node3 -->
<g id="node3" class="node">
<title>Node3</title>
<g id="a_node3"><a xlink:href="csvparser_8cpp.html#a62df83c91a23bce371f55f20b9825ffc" target="_top" xlink:title=" ">
<polygon fill="none" stroke="black" points="186,-6.5 186,-25.5 292,-25.5 292,-6.5 186,-6.5"/>
<text text-anchor="middle" x="239" y="-13.5" font-family="Helvetica,sans-Serif" font-size="10.00">load_baseline_csv</text>
</a>
</g>
</g>
<!-- Node1&#45;&gt;Node3 -->
<g id="edge2" class="edge">
<title>Node1&#45;&gt;Node3</title>
<path fill="none" stroke="midnightblue" d="M150.36,-26.28C158.88,-25.28 167.49,-24.27 175.82,-23.29"/>
<polygon fill="midnightblue" stroke="midnightblue" points="176.3,-26.76 185.82,-22.12 175.48,-19.81 176.3,-26.76"/>
</g>
<!-- Node3&#45;&gt;Node2 -->
<g id="edge3" class="edge">
<title>Node3&#45;&gt;Node2</title>
<path fill="none" stroke="midnightblue" d="M281.38,-25.59C295.84,-28.94 312.56,-32.81 328.9,-36.6"/>
<polygon fill="midnightblue" stroke="midnightblue" points="328.47,-40.09 339.01,-38.94 330.05,-33.27 328.47,-40.09"/>
</g>
<!-- Node4 -->
<g id="node4" class="node">
<title>Node4</title>
<g id="a_node4"><a xlink:href="namespacehgps_1_1core.html#a502537e3fe210afb2531f156977eb2f6" target="_top" xlink:title=" ">
<polygon fill="none" stroke="black" points="347.5,-0.5 347.5,-19.5 462.5,-19.5 462.5,-0.5 347.5,-0.5"/>
<text text-anchor="middle" x="405" y="-7.5" font-family="Helvetica,sans-Serif" font-size="10.00">hgps::core::to_lower</text>
</a>
</g>
</g>
<!-- Node3&#45;&gt;Node4 -->
<g id="edge4" class="edge">
<title>Node3&#45;&gt;Node4</title>
<path fill="none" stroke="midnightblue" d="M292.34,-14.09C306.58,-13.56 322.21,-12.99 337.14,-12.45"/>
<polygon fill="midnightblue" stroke="midnightblue" points="337.47,-15.94 347.34,-12.07 337.21,-8.94 337.47,-15.94"/>
</g>
</g>
</svg>
