<?xml version="1.0" encoding="UTF-8" standalone="no"?>
<!DOCTYPE svg PUBLIC "-//W3C//DTD SVG 1.1//EN"
 "http://www.w3.org/Graphics/SVG/1.1/DTD/svg11.dtd">
<!-- Generated by graphviz version 7.0.6 (20230106.0513)
 -->
<!-- Title: register_risk_factor_model_definitions Pages: 1 -->
<svg width="468pt" height="337pt"
 viewBox="0.00 0.00 468.00 337.00" xmlns="http://www.w3.org/2000/svg" xmlns:xlink="http://www.w3.org/1999/xlink">
<g id="graph0" class="graph" transform="scale(1 1) rotate(0) translate(4 333)">
<title>register_risk_factor_model_definitions</title>
<!-- Node1 -->
<g id="node1" class="node">
<title>Node1</title>
<g id="a_node1"><a xlink:title=" ">
<polygon fill="#999999" stroke="#666666" points="99,-207.5 0,-207.5 0,-177.5 99,-177.5 99,-207.5"/>
<text text-anchor="start" x="8" y="-195.5" font-family="Helvetica,sans-Serif" font-size="10.00">register_risk_factor</text>
<text text-anchor="middle" x="49.5" y="-184.5" font-family="Helvetica,sans-Serif" font-size="10.00">_model_definitions</text>
</a>
</g>
</g>
<!-- Node2 -->
<g id="node2" class="node">
<title>Node2</title>
<g id="a_node2"><a xlink:href="structhgps_1_1core_1_1case__insensitive.html#a7c3f04e32aa1d7a41ef339443139b5c0" target="_top" xlink:title=" ">
<polygon fill="white" stroke="#666666" points="460,-291.5 320,-291.5 320,-261.5 460,-261.5 460,-291.5"/>
<text text-anchor="start" x="328" y="-279.5" font-family="Helvetica,sans-Serif" font-size="10.00">hgps::core::case_insensitive</text>
<text text-anchor="middle" x="390" y="-268.5" font-family="Helvetica,sans-Serif" font-size="10.00">::equals</text>
</a>
</g>
</g>
<!-- Node1&#45;&gt;Node2 -->
<g id="edge1" class="edge">
<title>Node1&#45;&gt;Node2</title>
<path fill="none" stroke="#63b8ff" d="M65.74,-207.79C81.56,-222.6 107.75,-244.25 135,-254.5 190.37,-275.32 257.15,-280.4 308.34,-280.5"/>
<polygon fill="#63b8ff" stroke="#63b8ff" points="308.18,-284 318.16,-280.45 308.14,-277 308.18,-284"/>
</g>
<!-- Node3 -->
<g id="node3" class="node">
<title>Node3</title>
<g id="a_node3"><a xlink:href="model__parser_8cpp.html#a23c45f2fc31cd0836f491f52f6170f8d" target="_top" xlink:title=" ">
<polygon fill="white" stroke="#666666" points="276.5,-321 142.5,-321 142.5,-302 276.5,-302 276.5,-321"/>
<text text-anchor="middle" x="209.5" y="-309" font-family="Helvetica,sans-Serif" font-size="10.00">load_baseline_adjustments</text>
</a>
</g>
</g>
<!-- Node1&#45;&gt;Node3 -->
<g id="edge2" class="edge">
<title>Node1&#45;&gt;Node3</title>
<path fill="none" stroke="#63b8ff" d="M60.34,-207.94C74.43,-228.88 102.31,-266.1 135,-287.5 140.97,-291.41 147.63,-294.73 154.43,-297.54"/>
<polygon fill="#63b8ff" stroke="#63b8ff" points="153.16,-300.8 163.75,-301.01 155.6,-294.24 153.16,-300.8"/>
</g>
<!-- Node5 -->
<g id="node5" class="node">
<title>Node5</title>
<g id="a_node5"><a xlink:href="model__parser_8cpp.html#a6383bd1b70a0eb2be74798ff8197afc7" target="_top" xlink:title=" ">
<polygon fill="white" stroke="#666666" points="284,-245 135,-245 135,-226 284,-226 284,-245"/>
<text text-anchor="middle" x="209.5" y="-233" font-family="Helvetica,sans-Serif" font-size="10.00">load_dynamic_risk_model_info</text>
</a>
</g>
</g>
<!-- Node1&#45;&gt;Node5 -->
<g id="edge5" class="edge">
<title>Node1&#45;&gt;Node5</title>
<path fill="none" stroke="#63b8ff" d="M99.15,-206.53C110.87,-209.85 123.37,-213.35 135,-216.5 142.44,-218.52 150.31,-220.6 158.03,-222.62"/>
<polygon fill="#63b8ff" stroke="#63b8ff" points="157.14,-226.01 167.7,-225.14 158.9,-219.23 157.14,-226.01"/>
</g>
<!-- Node8 -->
<g id="node8" class="node">
<title>Node8</title>
<g id="a_node8"><a xlink:href="model__parser_8cpp.html#a8cb850cfcbbe7eb06655b658e47b0c2b" target="_top" xlink:title=" ">
<polygon fill="white" stroke="#666666" points="267.5,-207.5 151.5,-207.5 151.5,-177.5 267.5,-177.5 267.5,-207.5"/>
<text text-anchor="start" x="159.5" y="-195.5" font-family="Helvetica,sans-Serif" font-size="10.00">load_static_risk_model</text>
<text text-anchor="middle" x="209.5" y="-184.5" font-family="Helvetica,sans-Serif" font-size="10.00">_definition</text>
</a>
</g>
</g>
<!-- Node1&#45;&gt;Node8 -->
<g id="edge9" class="edge">
<title>Node1&#45;&gt;Node8</title>
<path fill="none" stroke="#63b8ff" d="M99.19,-192.5C112.02,-192.5 126.09,-192.5 139.75,-192.5"/>
<polygon fill="#63b8ff" stroke="#63b8ff" points="139.58,-196 149.58,-192.5 139.58,-189 139.58,-196"/>
</g>
<!-- Node9 -->
<g id="node9" class="node">
<title>Node9</title>
<g id="a_node9"><a xlink:href="classhgps_1_1_cached_repository.html#a72b653923d8e137e0b0cbb81cb940557" target="_top" xlink:title=" ">
<polygon fill="white" stroke="#666666" points="284,-159 135,-159 135,-118 284,-118 284,-159"/>
<text text-anchor="start" x="143" y="-147" font-family="Helvetica,sans-Serif" font-size="10.00">hgps::CachedRepository</text>
<text text-anchor="start" x="143" y="-136" font-family="Helvetica,sans-Serif" font-size="10.00">::register_baseline_adjustment</text>
<text text-anchor="middle" x="209.5" y="-125" font-family="Helvetica,sans-Serif" font-size="10.00">_definition</text>
</a>
</g>
</g>
<!-- Node1&#45;&gt;Node9 -->
<g id="edge10" class="edge">
<title>Node1&#45;&gt;Node9</title>
<path fill="none" stroke="#63b8ff" d="M95.78,-177.03C108.57,-172.65 122.81,-167.79 136.74,-163.02"/>
<polygon fill="#63b8ff" stroke="#63b8ff" points="137.55,-166.45 145.88,-159.9 135.29,-159.82 137.55,-166.45"/>
</g>
<!-- Node10 -->
<g id="node10" class="node">
<title>Node10</title>
<g id="a_node10"><a xlink:href="classhgps_1_1_cached_repository.html#a1dfd738feecb0a9ffc366f462155fd82" target="_top" xlink:title=" ">
<polygon fill="white" stroke="#666666" points="271,-100 148,-100 148,-59 271,-59 271,-100"/>
<text text-anchor="start" x="156" y="-88" font-family="Helvetica,sans-Serif" font-size="10.00">hgps::CachedRepository</text>
<text text-anchor="start" x="156" y="-77" font-family="Helvetica,sans-Serif" font-size="10.00">::register_linear_model</text>
<text text-anchor="middle" x="209.5" y="-66" font-family="Helvetica,sans-Serif" font-size="10.00">_definition</text>
</a>
</g>
</g>
<!-- Node1&#45;&gt;Node10 -->
<g id="edge11" class="edge">
<title>Node1&#45;&gt;Node10</title>
<path fill="none" stroke="#63b8ff" d="M62.47,-177.27C77.64,-158.83 105.4,-127.86 135,-108.5 136.4,-107.59 137.83,-106.69 139.29,-105.82"/>
<polygon fill="#63b8ff" stroke="#63b8ff" points="140.83,-108.97 147.92,-101.1 137.47,-102.83 140.83,-108.97"/>
</g>
<!-- Node11 -->
<g id="node11" class="node">
<title>Node11</title>
<g id="a_node11"><a xlink:href="classhgps_1_1_cached_repository.html#a1424cbd34a6f00fdb9e4237495e18b18" target="_top" xlink:title=" ">
<polygon fill="white" stroke="#666666" points="271,-41 148,-41 148,0 271,0 271,-41"/>
<text text-anchor="start" x="156" y="-29" font-family="Helvetica,sans-Serif" font-size="10.00">hgps::CachedRepository</text>
<text text-anchor="start" x="156" y="-18" font-family="Helvetica,sans-Serif" font-size="10.00">::register_lite_linear</text>
<text text-anchor="middle" x="209.5" y="-7" font-family="Helvetica,sans-Serif" font-size="10.00">_model_definition</text>
</a>
</g>
</g>
<!-- Node1&#45;&gt;Node11 -->
<g id="edge12" class="edge">
<title>Node1&#45;&gt;Node11</title>
<path fill="none" stroke="#63b8ff" d="M55.64,-177.35C66.14,-148.56 92.66,-85.63 135,-49.5 136.09,-48.57 137.2,-47.67 138.35,-46.8"/>
<polygon fill="#63b8ff" stroke="#63b8ff" points="139.99,-49.92 146.38,-41.46 136.11,-44.09 139.99,-49.92"/>
</g>
<!-- Node3&#45;&gt;Node2 -->
<g id="edge3" class="edge">
<title>Node3&#45;&gt;Node2</title>
<path fill="none" stroke="#63b8ff" d="M261.17,-301.56C275.91,-298.67 292.39,-295.44 308.48,-292.29"/>
<polygon fill="#63b8ff" stroke="#63b8ff" points="308.92,-295.77 318.05,-290.41 307.57,-288.9 308.92,-295.77"/>
</g>
<!-- Node4 -->
<g id="node4" class="node">
<title>Node4</title>
<g id="a_node4"><a xlink:href="csvparser_8cpp.html#ac4dc3a9222c5d4b8d146405f8856fddf" target="_top" xlink:title=" ">
<polygon fill="white" stroke="#666666" points="437.5,-329 342.5,-329 342.5,-310 437.5,-310 437.5,-329"/>
<text text-anchor="middle" x="390" y="-317" font-family="Helvetica,sans-Serif" font-size="10.00">load_baseline_csv</text>
</a>
</g>
</g>
<!-- Node3&#45;&gt;Node4 -->
<g id="edge4" class="edge">
<title>Node3&#45;&gt;Node4</title>
<path fill="none" stroke="#63b8ff" d="M276.97,-314.48C294.77,-315.28 313.88,-316.13 331.18,-316.91"/>
<polygon fill="#63b8ff" stroke="#63b8ff" points="330.59,-320.39 340.74,-317.34 330.91,-313.39 330.59,-320.39"/>
</g>
<!-- Node5&#45;&gt;Node2 -->
<g id="edge6" class="edge">
<title>Node5&#45;&gt;Node2</title>
<path fill="none" stroke="#63b8ff" d="M253.71,-245.42C270.87,-249.37 291.15,-254.02 310.72,-258.52"/>
<polygon fill="#63b8ff" stroke="#63b8ff" points="309.81,-261.9 320.34,-260.73 311.37,-255.08 309.81,-261.9"/>
</g>
<!-- Node6 -->
<g id="node6" class="node">
<title>Node6</title>
<g id="a_node6"><a xlink:href="namespacehgps_1_1core.html#a0a76cde29c0d40bf22469920121f2745" target="_top" xlink:title=" ">
<polygon fill="white" stroke="#666666" points="448,-243 332,-243 332,-224 448,-224 448,-243"/>
<text text-anchor="middle" x="390" y="-231" font-family="Helvetica,sans-Serif" font-size="10.00">hgps::core::split_string</text>
</a>
</g>
</g>
<!-- Node5&#45;&gt;Node6 -->
<g id="edge7" class="edge">
<title>Node5&#45;&gt;Node6</title>
<path fill="none" stroke="#63b8ff" d="M284.39,-234.67C296.19,-234.54 308.35,-234.4 320.03,-234.27"/>
<polygon fill="#63b8ff" stroke="#63b8ff" points="320.04,-237.77 330,-234.16 319.96,-230.77 320.04,-237.77"/>
</g>
<!-- Node7 -->
<g id="node7" class="node">
<title>Node7</title>
<g id="a_node7"><a xlink:href="namespacehgps_1_1core.html#a502537e3fe210afb2531f156977eb2f6" target="_top" xlink:title=" ">
<polygon fill="white" stroke="#666666" points="442,-206 338,-206 338,-187 442,-187 442,-206"/>
<text text-anchor="middle" x="390" y="-194" font-family="Helvetica,sans-Serif" font-size="10.00">hgps::core::to_lower</text>
</a>
</g>
</g>
<!-- Node5&#45;&gt;Node7 -->
<g id="edge8" class="edge">
<title>Node5&#45;&gt;Node7</title>
<path fill="none" stroke="#63b8ff" d="M256,-225.56C279.2,-220.49 307.64,-214.28 332.26,-208.9"/>
<polygon fill="#63b8ff" stroke="#63b8ff" points="332.77,-212.37 341.79,-206.81 331.27,-205.53 332.77,-212.37"/>
</g>
</g>
</svg>
