<?xml version="1.0" encoding="UTF-8" standalone="no"?>
<!DOCTYPE svg PUBLIC "-//W3C//DTD SVG 1.1//EN"
 "http://www.w3.org/Graphics/SVG/1.1/DTD/svg11.dtd">
<!-- Generated by graphviz version 2.43.0 (0)
 -->
<!-- Title: HealthGPS/modelinput.h Pages: 1 -->
<svg width="1506pt" height="431pt"
 viewBox="0.00 0.00 1505.50 431.00" xmlns="http://www.w3.org/2000/svg" xmlns:xlink="http://www.w3.org/1999/xlink">
<g id="graph0" class="graph" transform="scale(1 1) rotate(0) translate(4 427)">
<title>HealthGPS/modelinput.h</title>
<!-- Node1 -->
<g id="node1" class="node">
<title>Node1</title>
<g id="a_node1"><a xlink:title=" ">
<polygon fill="#bfbfbf" stroke="black" points="760,-403.5 760,-422.5 896,-422.5 896,-403.5 760,-403.5"/>
<text text-anchor="middle" x="828" y="-410.5" font-family="Helvetica,sans-Serif" font-size="10.00">HealthGPS/modelinput.h</text>
</a>
</g>
</g>
<!-- Node2 -->
<g id="node2" class="node">
<title>Node2</title>
<g id="a_node2"><a xlink:title=" ">
<polygon fill="none" stroke="#bfbfbf" points="877,-174 877,-193 915,-193 915,-174 877,-174"/>
<text text-anchor="middle" x="896" y="-181" font-family="Helvetica,sans-Serif" font-size="10.00">map</text>
</a>
</g>
</g>
<!-- Node1&#45;&gt;Node2 -->
<g id="edge1" class="edge">
<title>Node1&#45;&gt;Node2</title>
<path fill="none" stroke="midnightblue" d="M827.02,-403.37C824.4,-376.78 819.17,-294.32 847,-235 853.55,-221.04 865.56,-208.56 876.05,-199.51"/>
<polygon fill="midnightblue" stroke="midnightblue" points="878.47,-202.05 884,-193.01 874.04,-196.63 878.47,-202.05"/>
</g>
<!-- Node3 -->
<g id="node3" class="node">
<title>Node3</title>
<g id="a_node3"><a xlink:href="datatable_8h.html" target="_top" xlink:title=" ">
<polygon fill="none" stroke="black" points="252,-235.5 252,-254.5 404,-254.5 404,-235.5 252,-235.5"/>
<text text-anchor="middle" x="328" y="-242.5" font-family="Helvetica,sans-Serif" font-size="10.00">HealthGPS.Core/datatable.h</text>
</a>
</g>
</g>
<!-- Node1&#45;&gt;Node3 -->
<g id="edge2" class="edge">
<title>Node1&#45;&gt;Node3</title>
<path fill="none" stroke="midnightblue" d="M802.17,-403.42C719.11,-375.85 458.74,-289.41 363.42,-257.76"/>
<polygon fill="midnightblue" stroke="midnightblue" points="364.27,-254.35 353.67,-254.52 362.06,-261 364.27,-254.35"/>
</g>
<!-- Node19 -->
<g id="node19" class="node">
<title>Node19</title>
<g id="a_node19"><a xlink:href="string__util_8h.html" target="_top" xlink:title=" ">
<polygon fill="none" stroke="black" points="1196.5,-168.5 1196.5,-198.5 1321.5,-198.5 1321.5,-168.5 1196.5,-168.5"/>
<text text-anchor="start" x="1204.5" y="-186.5" font-family="Helvetica,sans-Serif" font-size="10.00">HealthGPS.Core/string</text>
<text text-anchor="middle" x="1259" y="-175.5" font-family="Helvetica,sans-Serif" font-size="10.00">_util.h</text>
</a>
</g>
</g>
<!-- Node1&#45;&gt;Node19 -->
<g id="edge18" class="edge">
<title>Node1&#45;&gt;Node19</title>
<path fill="none" stroke="midnightblue" d="M876.44,-403.47C987.55,-382.81 1255.2,-326.49 1307,-255 1318.95,-238.51 1304.21,-219.4 1288.01,-205.24"/>
<polygon fill="midnightblue" stroke="midnightblue" points="1290.01,-202.34 1280.05,-198.71 1285.57,-207.76 1290.01,-202.34"/>
</g>
<!-- Node21 -->
<g id="node21" class="node">
<title>Node21</title>
<g id="a_node21"><a xlink:href="settings_8h.html" target="_top" xlink:title=" ">
<polygon fill="none" stroke="black" points="1354.5,-347.5 1354.5,-366.5 1419.5,-366.5 1419.5,-347.5 1354.5,-347.5"/>
<text text-anchor="middle" x="1387" y="-354.5" font-family="Helvetica,sans-Serif" font-size="10.00">settings.h</text>
</a>
</g>
</g>
<!-- Node1&#45;&gt;Node21 -->
<g id="edge21" class="edge">
<title>Node1&#45;&gt;Node21</title>
<path fill="none" stroke="midnightblue" d="M896.16,-408.22C994.51,-402.26 1181.8,-389.04 1340,-367 1341.47,-366.8 1342.95,-366.58 1344.46,-366.35"/>
<polygon fill="midnightblue" stroke="midnightblue" points="1345.17,-369.77 1354.46,-364.68 1344.02,-362.87 1345.17,-369.77"/>
</g>
<!-- Node33 -->
<g id="node33" class="node">
<title>Node33</title>
<g id="a_node33"><a xlink:href="mapping_8h.html" target="_top" xlink:title=" ">
<polygon fill="none" stroke="black" points="613,-235.5 613,-254.5 681,-254.5 681,-235.5 613,-235.5"/>
<text text-anchor="middle" x="647" y="-242.5" font-family="Helvetica,sans-Serif" font-size="10.00">mapping.h</text>
</a>
</g>
</g>
<!-- Node1&#45;&gt;Node33 -->
<g id="edge49" class="edge">
<title>Node1&#45;&gt;Node33</title>
<path fill="none" stroke="midnightblue" d="M818.27,-403.08C788.91,-376.15 700.99,-295.51 663.85,-261.45"/>
<polygon fill="midnightblue" stroke="midnightblue" points="666.08,-258.75 656.34,-254.57 661.35,-263.91 666.08,-258.75"/>
</g>
<!-- Node4 -->
<g id="node4" class="node">
<title>Node4</title>
<g id="a_node4"><a xlink:title=" ">
<polygon fill="none" stroke="#bfbfbf" points="154,-174 154,-193 212,-193 212,-174 154,-174"/>
<text text-anchor="middle" x="183" y="-181" font-family="Helvetica,sans-Serif" font-size="10.00">memory</text>
</a>
</g>
</g>
<!-- Node3&#45;&gt;Node4 -->
<g id="edge3" class="edge">
<title>Node3&#45;&gt;Node4</title>
<path fill="none" stroke="midnightblue" d="M307.23,-235.48C282.57,-225.36 241.25,-208.4 213.1,-196.85"/>
<polygon fill="midnightblue" stroke="midnightblue" points="214.32,-193.57 203.74,-193.01 211.66,-200.04 214.32,-193.57"/>
</g>
<!-- Node5 -->
<g id="node5" class="node">
<title>Node5</title>
<g id="a_node5"><a xlink:title=" ">
<polygon fill="none" stroke="#bfbfbf" points="230,-174 230,-193 278,-193 278,-174 230,-174"/>
<text text-anchor="middle" x="254" y="-181" font-family="Helvetica,sans-Serif" font-size="10.00">mutex</text>
</a>
</g>
</g>
<!-- Node3&#45;&gt;Node5 -->
<g id="edge4" class="edge">
<title>Node3&#45;&gt;Node5</title>
<path fill="none" stroke="midnightblue" d="M317.4,-235.48C305.75,-226.11 286.81,-210.88 272.67,-199.51"/>
<polygon fill="midnightblue" stroke="midnightblue" points="274.57,-196.55 264.58,-193.01 270.18,-202 274.57,-196.55"/>
</g>
<!-- Node6 -->
<g id="node6" class="node">
<title>Node6</title>
<g id="a_node6"><a xlink:title=" ">
<polygon fill="none" stroke="#bfbfbf" points="649.5,-174 649.5,-193 696.5,-193 696.5,-174 649.5,-174"/>
<text text-anchor="middle" x="673" y="-181" font-family="Helvetica,sans-Serif" font-size="10.00">vector</text>
</a>
</g>
</g>
<!-- Node3&#45;&gt;Node6 -->
<g id="edge5" class="edge">
<title>Node3&#45;&gt;Node6</title>
<path fill="none" stroke="midnightblue" d="M383.74,-235.49C439.18,-226.88 526.62,-212.88 602,-199 614.25,-196.74 627.64,-194.06 639.46,-191.63"/>
<polygon fill="midnightblue" stroke="midnightblue" points="640.3,-195.03 649.38,-189.56 638.87,-188.17 640.3,-195.03"/>
</g>
<!-- Node7 -->
<g id="node7" class="node">
<title>Node7</title>
<g id="a_node7"><a xlink:title=" ">
<polygon fill="none" stroke="#bfbfbf" points="416.5,-174 416.5,-193 509.5,-193 509.5,-174 416.5,-174"/>
<text text-anchor="middle" x="463" y="-181" font-family="Helvetica,sans-Serif" font-size="10.00">unordered_map</text>
</a>
</g>
</g>
<!-- Node3&#45;&gt;Node7 -->
<g id="edge6" class="edge">
<title>Node3&#45;&gt;Node7</title>
<path fill="none" stroke="midnightblue" d="M347.34,-235.48C370.1,-225.45 408.09,-208.7 434.29,-197.15"/>
<polygon fill="midnightblue" stroke="midnightblue" points="435.95,-200.24 443.69,-193.01 433.13,-193.84 435.95,-200.24"/>
</g>
<!-- Node8 -->
<g id="node8" class="node">
<title>Node8</title>
<g id="a_node8"><a xlink:title=" ">
<polygon fill="none" stroke="#bfbfbf" points="296,-174 296,-193 360,-193 360,-174 296,-174"/>
<text text-anchor="middle" x="328" y="-181" font-family="Helvetica,sans-Serif" font-size="10.00">algorithm</text>
</a>
</g>
</g>
<!-- Node3&#45;&gt;Node8 -->
<g id="edge7" class="edge">
<title>Node3&#45;&gt;Node8</title>
<path fill="none" stroke="midnightblue" d="M328,-235.48C328,-227.08 328,-213.98 328,-203.16"/>
<polygon fill="midnightblue" stroke="midnightblue" points="331.5,-203.01 328,-193.01 324.5,-203.01 331.5,-203.01"/>
</g>
<!-- Node9 -->
<g id="node9" class="node">
<title>Node9</title>
<g id="a_node9"><a xlink:title=" ">
<polygon fill="none" stroke="#bfbfbf" points="0,-174 0,-193 56,-193 56,-174 0,-174"/>
<text text-anchor="middle" x="28" y="-181" font-family="Helvetica,sans-Serif" font-size="10.00">optional</text>
</a>
</g>
</g>
<!-- Node3&#45;&gt;Node9 -->
<g id="edge8" class="edge">
<title>Node3&#45;&gt;Node9</title>
<path fill="none" stroke="midnightblue" d="M254.27,-235.48C201.06,-228.35 127.81,-216.48 65,-199 62.41,-198.28 59.75,-197.44 57.1,-196.54"/>
<polygon fill="midnightblue" stroke="midnightblue" points="58.31,-193.25 47.72,-193.09 55.89,-199.82 58.31,-193.25"/>
</g>
<!-- Node10 -->
<g id="node10" class="node">
<title>Node10</title>
<g id="a_node10"><a xlink:title=" ">
<polygon fill="none" stroke="#bfbfbf" points="756.5,-112.5 756.5,-131.5 813.5,-131.5 813.5,-112.5 756.5,-112.5"/>
<text text-anchor="middle" x="785" y="-119.5" font-family="Helvetica,sans-Serif" font-size="10.00">ostream</text>
</a>
</g>
</g>
<!-- Node3&#45;&gt;Node10 -->
<g id="edge9" class="edge">
<title>Node3&#45;&gt;Node10</title>
<path fill="none" stroke="midnightblue" d="M335.71,-235.31C352.03,-217.12 389.97,-176.06 407,-168 466.5,-139.82 662.33,-128.25 746.25,-124.5"/>
<polygon fill="midnightblue" stroke="midnightblue" points="746.55,-127.99 756.39,-124.06 746.25,-121 746.55,-127.99"/>
</g>
<!-- Node11 -->
<g id="node11" class="node">
<title>Node11</title>
<g id="a_node11"><a xlink:href="column_8h.html" target="_top" xlink:title=" ">
<polygon fill="none" stroke="black" points="74,-174 74,-193 136,-193 136,-174 74,-174"/>
<text text-anchor="middle" x="105" y="-181" font-family="Helvetica,sans-Serif" font-size="10.00">column.h</text>
</a>
</g>
</g>
<!-- Node3&#45;&gt;Node11 -->
<g id="edge10" class="edge">
<title>Node3&#45;&gt;Node11</title>
<path fill="none" stroke="midnightblue" d="M288.04,-235.47C250.75,-227.2 193.69,-213.76 145,-199 142.37,-198.2 139.67,-197.33 136.96,-196.43"/>
<polygon fill="midnightblue" stroke="midnightblue" points="137.88,-193.04 127.28,-193.05 135.57,-199.65 137.88,-193.04"/>
</g>
<!-- Node12 -->
<g id="node12" class="node">
<title>Node12</title>
<g id="a_node12"><a xlink:title=" ">
<polygon fill="none" stroke="#bfbfbf" points="55.5,-112.5 55.5,-131.5 90.5,-131.5 90.5,-112.5 55.5,-112.5"/>
<text text-anchor="middle" x="73" y="-119.5" font-family="Helvetica,sans-Serif" font-size="10.00">any</text>
</a>
</g>
</g>
<!-- Node11&#45;&gt;Node12 -->
<g id="edge11" class="edge">
<title>Node11&#45;&gt;Node12</title>
<path fill="none" stroke="midnightblue" d="M100.42,-173.98C95.76,-165.32 88.41,-151.65 82.49,-140.65"/>
<polygon fill="midnightblue" stroke="midnightblue" points="85.4,-138.66 77.58,-131.51 79.23,-141.97 85.4,-138.66"/>
</g>
<!-- Node13 -->
<g id="node13" class="node">
<title>Node13</title>
<g id="a_node13"><a xlink:title=" ">
<polygon fill="none" stroke="#bfbfbf" points="108.5,-112.5 108.5,-131.5 165.5,-131.5 165.5,-112.5 108.5,-112.5"/>
<text text-anchor="middle" x="137" y="-119.5" font-family="Helvetica,sans-Serif" font-size="10.00">typeinfo</text>
</a>
</g>
</g>
<!-- Node11&#45;&gt;Node13 -->
<g id="edge12" class="edge">
<title>Node11&#45;&gt;Node13</title>
<path fill="none" stroke="midnightblue" d="M109.58,-173.98C114.24,-165.32 121.59,-151.65 127.51,-140.65"/>
<polygon fill="midnightblue" stroke="midnightblue" points="130.77,-141.97 132.42,-131.51 124.6,-138.66 130.77,-141.97"/>
</g>
<!-- Node14 -->
<g id="node14" class="node">
<title>Node14</title>
<g id="a_node14"><a xlink:title=" ">
<polygon fill="none" stroke="#bfbfbf" points="877,-112.5 877,-131.5 921,-131.5 921,-112.5 877,-112.5"/>
<text text-anchor="middle" x="899" y="-119.5" font-family="Helvetica,sans-Serif" font-size="10.00">string</text>
</a>
</g>
</g>
<!-- Node11&#45;&gt;Node14 -->
<g id="edge13" class="edge">
<title>Node11&#45;&gt;Node14</title>
<path fill="none" stroke="midnightblue" d="M125.02,-173.94C131.3,-171.61 138.34,-169.35 145,-168 440.72,-107.93 522.34,-157.76 823,-132 837.31,-130.77 853.09,-128.98 866.54,-127.31"/>
<polygon fill="midnightblue" stroke="midnightblue" points="867.28,-130.75 876.76,-126.02 866.4,-123.8 867.28,-130.75"/>
</g>
<!-- Node15 -->
<g id="node15" class="node">
<title>Node15</title>
<g id="a_node15"><a xlink:href="visitor_8h.html" target="_top" xlink:title=" ">
<polygon fill="none" stroke="black" points="397,-112.5 397,-131.5 453,-131.5 453,-112.5 397,-112.5"/>
<text text-anchor="middle" x="425" y="-119.5" font-family="Helvetica,sans-Serif" font-size="10.00">visitor.h</text>
</a>
</g>
</g>
<!-- Node11&#45;&gt;Node15 -->
<g id="edge14" class="edge">
<title>Node11&#45;&gt;Node15</title>
<path fill="none" stroke="midnightblue" d="M126.36,-173.92C132.32,-171.75 138.85,-169.59 145,-168 229.9,-146 332.21,-132.83 386.6,-126.85"/>
<polygon fill="midnightblue" stroke="midnightblue" points="387.25,-130.3 396.82,-125.75 386.5,-123.34 387.25,-130.3"/>
</g>
<!-- Node16 -->
<g id="node16" class="node">
<title>Node16</title>
<g id="a_node16"><a xlink:href="forward__type_8h.html" target="_top" xlink:title=" ">
<polygon fill="none" stroke="black" points="827,-56.5 827,-75.5 917,-75.5 917,-56.5 827,-56.5"/>
<text text-anchor="middle" x="872" y="-63.5" font-family="Helvetica,sans-Serif" font-size="10.00">forward_type.h</text>
</a>
</g>
</g>
<!-- Node15&#45;&gt;Node16 -->
<g id="edge15" class="edge">
<title>Node15&#45;&gt;Node16</title>
<path fill="none" stroke="midnightblue" d="M453.3,-117.58C526.07,-108.79 720.7,-85.28 816.78,-73.67"/>
<polygon fill="midnightblue" stroke="midnightblue" points="817.37,-77.12 826.88,-72.45 816.53,-70.18 817.37,-77.12"/>
</g>
<!-- Node17 -->
<g id="node17" class="node">
<title>Node17</title>
<g id="a_node17"><a xlink:title=" ">
<polygon fill="none" stroke="#bfbfbf" points="798.5,-0.5 798.5,-19.5 867.5,-19.5 867.5,-0.5 798.5,-0.5"/>
<text text-anchor="middle" x="833" y="-7.5" font-family="Helvetica,sans-Serif" font-size="10.00">type_traits</text>
</a>
</g>
</g>
<!-- Node16&#45;&gt;Node17 -->
<g id="edge16" class="edge">
<title>Node16&#45;&gt;Node17</title>
<path fill="none" stroke="midnightblue" d="M865.56,-56.08C860.05,-48.46 851.97,-37.26 845.24,-27.94"/>
<polygon fill="midnightblue" stroke="midnightblue" points="848.01,-25.81 839.32,-19.75 842.34,-29.91 848.01,-25.81"/>
</g>
<!-- Node18 -->
<g id="node18" class="node">
<title>Node18</title>
<g id="a_node18"><a xlink:title=" ">
<polygon fill="none" stroke="#bfbfbf" points="886,-0.5 886,-19.5 936,-19.5 936,-0.5 886,-0.5"/>
<text text-anchor="middle" x="911" y="-7.5" font-family="Helvetica,sans-Serif" font-size="10.00">cstdint</text>
</a>
</g>
</g>
<!-- Node16&#45;&gt;Node18 -->
<g id="edge17" class="edge">
<title>Node16&#45;&gt;Node18</title>
<path fill="none" stroke="midnightblue" d="M878.44,-56.08C883.95,-48.46 892.03,-37.26 898.76,-27.94"/>
<polygon fill="midnightblue" stroke="midnightblue" points="901.66,-29.91 904.68,-19.75 895.99,-25.81 901.66,-29.91"/>
</g>
<!-- Node19&#45;&gt;Node14 -->
<g id="edge19" class="edge">
<title>Node19&#45;&gt;Node14</title>
<path fill="none" stroke="midnightblue" d="M1196.31,-169.53C1193.5,-169 1190.72,-168.49 1188,-168 1095.19,-151.31 984.95,-135.15 931.41,-127.54"/>
<polygon fill="midnightblue" stroke="midnightblue" points="931.57,-124.03 921.18,-126.09 930.59,-130.96 931.57,-124.03"/>
</g>
<!-- Node20 -->
<g id="node20" class="node">
<title>Node20</title>
<g id="a_node20"><a xlink:title=" ">
<polygon fill="none" stroke="#bfbfbf" points="1137.5,-112.5 1137.5,-131.5 1202.5,-131.5 1202.5,-112.5 1137.5,-112.5"/>
<text text-anchor="middle" x="1170" y="-119.5" font-family="Helvetica,sans-Serif" font-size="10.00">functional</text>
</a>
</g>
</g>
<!-- Node19&#45;&gt;Node20 -->
<g id="edge20" class="edge">
<title>Node19&#45;&gt;Node20</title>
<path fill="none" stroke="midnightblue" d="M1237.91,-168.4C1223.91,-159.04 1205.59,-146.79 1191.51,-137.38"/>
<polygon fill="midnightblue" stroke="midnightblue" points="1193.21,-134.31 1182.95,-131.66 1189.32,-140.13 1193.21,-134.31"/>
</g>
<!-- Node22 -->
<g id="node22" class="node">
<title>Node22</title>
<g id="a_node22"><a xlink:href="poco_8h.html" target="_top" xlink:title=" ">
<polygon fill="none" stroke="black" points="992.5,-291.5 992.5,-310.5 1121.5,-310.5 1121.5,-291.5 992.5,-291.5"/>
<text text-anchor="middle" x="1057" y="-298.5" font-family="Helvetica,sans-Serif" font-size="10.00">HealthGPS.Core/poco.h</text>
</a>
</g>
</g>
<!-- Node21&#45;&gt;Node22 -->
<g id="edge22" class="edge">
<title>Node21&#45;&gt;Node22</title>
<path fill="none" stroke="midnightblue" d="M1354.46,-350.67C1299.9,-341.75 1189.12,-323.62 1119.23,-312.18"/>
<polygon fill="midnightblue" stroke="midnightblue" points="1119.66,-308.71 1109.22,-310.55 1118.52,-315.61 1119.66,-308.71"/>
</g>
<!-- Node31 -->
<g id="node31" class="node">
<title>Node31</title>
<g id="a_node31"><a xlink:href="interval_8h.html" target="_top" xlink:title=" ">
<polygon fill="none" stroke="black" points="1354.5,-235.5 1354.5,-254.5 1497.5,-254.5 1497.5,-235.5 1354.5,-235.5"/>
<text text-anchor="middle" x="1426" y="-242.5" font-family="Helvetica,sans-Serif" font-size="10.00">HealthGPS.Core/interval.h</text>
</a>
</g>
</g>
<!-- Node21&#45;&gt;Node31 -->
<g id="edge45" class="edge">
<title>Node21&#45;&gt;Node31</title>
<path fill="none" stroke="midnightblue" d="M1390.06,-347.37C1396.38,-329.54 1411,-288.3 1419.52,-264.27"/>
<polygon fill="midnightblue" stroke="midnightblue" points="1422.91,-265.19 1422.95,-254.59 1416.31,-262.85 1422.91,-265.19"/>
</g>
<!-- Node23 -->
<g id="node23" class="node">
<title>Node23</title>
<g id="a_node23"><a xlink:href="country_8h.html" target="_top" xlink:title=" ">
<polygon fill="none" stroke="black" points="1026.5,-235.5 1026.5,-254.5 1087.5,-254.5 1087.5,-235.5 1026.5,-235.5"/>
<text text-anchor="middle" x="1057" y="-242.5" font-family="Helvetica,sans-Serif" font-size="10.00">country.h</text>
</a>
</g>
</g>
<!-- Node22&#45;&gt;Node23 -->
<g id="edge23" class="edge">
<title>Node22&#45;&gt;Node23</title>
<path fill="none" stroke="midnightblue" d="M1057,-291.08C1057,-284.01 1057,-273.86 1057,-264.99"/>
<polygon fill="midnightblue" stroke="midnightblue" points="1060.5,-264.75 1057,-254.75 1053.5,-264.75 1060.5,-264.75"/>
</g>
<!-- Node24 -->
<g id="node24" class="node">
<title>Node24</title>
<g id="a_node24"><a xlink:href="population__item_8h.html" target="_top" xlink:title=" ">
<polygon fill="none" stroke="black" points="1105.5,-235.5 1105.5,-254.5 1210.5,-254.5 1210.5,-235.5 1105.5,-235.5"/>
<text text-anchor="middle" x="1158" y="-242.5" font-family="Helvetica,sans-Serif" font-size="10.00">population_item.h</text>
</a>
</g>
</g>
<!-- Node22&#45;&gt;Node24 -->
<g id="edge25" class="edge">
<title>Node22&#45;&gt;Node24</title>
<path fill="none" stroke="midnightblue" d="M1073.23,-291.32C1089.35,-282.7 1114.3,-269.36 1132.96,-259.39"/>
<polygon fill="midnightblue" stroke="midnightblue" points="1134.64,-262.46 1141.81,-254.65 1131.34,-256.28 1134.64,-262.46"/>
</g>
<!-- Node26 -->
<g id="node26" class="node">
<title>Node26</title>
<g id="a_node26"><a xlink:href="HealthGPS_8Core_2disease_8h.html" target="_top" xlink:title=" ">
<polygon fill="none" stroke="black" points="736.5,-235.5 736.5,-254.5 799.5,-254.5 799.5,-235.5 736.5,-235.5"/>
<text text-anchor="middle" x="768" y="-242.5" font-family="Helvetica,sans-Serif" font-size="10.00">disease.h</text>
</a>
</g>
</g>
<!-- Node22&#45;&gt;Node26 -->
<g id="edge27" class="edge">
<title>Node22&#45;&gt;Node26</title>
<path fill="none" stroke="midnightblue" d="M1011.21,-291.44C955.73,-281.08 863.08,-263.77 809.58,-253.77"/>
<polygon fill="midnightblue" stroke="midnightblue" points="810.21,-250.33 799.74,-251.93 808.93,-257.21 810.21,-250.33"/>
</g>
<!-- Node28 -->
<g id="node28" class="node">
<title>Node28</title>
<g id="a_node28"><a xlink:href="analysis_8h.html" target="_top" xlink:title=" ">
<polygon fill="none" stroke="black" points="856,-235.5 856,-254.5 922,-254.5 922,-235.5 856,-235.5"/>
<text text-anchor="middle" x="889" y="-242.5" font-family="Helvetica,sans-Serif" font-size="10.00">analysis.h</text>
</a>
</g>
</g>
<!-- Node22&#45;&gt;Node28 -->
<g id="edge36" class="edge">
<title>Node22&#45;&gt;Node28</title>
<path fill="none" stroke="midnightblue" d="M1030.38,-291.44C1001.99,-282.32 956.86,-267.81 925.25,-257.65"/>
<polygon fill="midnightblue" stroke="midnightblue" points="926.09,-254.24 915.5,-254.52 923.94,-260.91 926.09,-254.24"/>
</g>
<!-- Node29 -->
<g id="node29" class="node">
<title>Node29</title>
<g id="a_node29"><a xlink:href="indicator_8h.html" target="_top" xlink:title=" ">
<polygon fill="none" stroke="black" points="940,-235.5 940,-254.5 1008,-254.5 1008,-235.5 940,-235.5"/>
<text text-anchor="middle" x="974" y="-242.5" font-family="Helvetica,sans-Serif" font-size="10.00">indicator.h</text>
</a>
</g>
</g>
<!-- Node22&#45;&gt;Node29 -->
<g id="edge41" class="edge">
<title>Node22&#45;&gt;Node29</title>
<path fill="none" stroke="midnightblue" d="M1043.66,-291.32C1030.84,-282.98 1011.22,-270.21 996.06,-260.35"/>
<polygon fill="midnightblue" stroke="midnightblue" points="997.59,-257.17 987.3,-254.65 993.78,-263.04 997.59,-257.17"/>
</g>
<!-- Node30 -->
<g id="node30" class="node">
<title>Node30</title>
<g id="a_node30"><a xlink:href="mortality_8h.html" target="_top" xlink:title=" ">
<polygon fill="none" stroke="black" points="1228.5,-235.5 1228.5,-254.5 1297.5,-254.5 1297.5,-235.5 1228.5,-235.5"/>
<text text-anchor="middle" x="1263" y="-242.5" font-family="Helvetica,sans-Serif" font-size="10.00">mortality.h</text>
</a>
</g>
</g>
<!-- Node22&#45;&gt;Node30 -->
<g id="edge43" class="edge">
<title>Node22&#45;&gt;Node30</title>
<path fill="none" stroke="midnightblue" d="M1089.64,-291.44C1125.05,-282.16 1181.71,-267.31 1220.55,-257.13"/>
<polygon fill="midnightblue" stroke="midnightblue" points="1221.73,-260.44 1230.51,-254.52 1219.95,-253.67 1221.73,-260.44"/>
</g>
<!-- Node23&#45;&gt;Node14 -->
<g id="edge24" class="edge">
<title>Node23&#45;&gt;Node14</title>
<path fill="none" stroke="midnightblue" d="M1046.46,-235.42C1028.91,-221.18 992.51,-191.89 961,-168 947.35,-157.65 931.75,-146.33 919.61,-137.63"/>
<polygon fill="midnightblue" stroke="midnightblue" points="921.64,-134.78 911.46,-131.81 917.57,-140.47 921.64,-134.78"/>
</g>
<!-- Node25 -->
<g id="node25" class="node">
<title>Node25</title>
<g id="a_node25"><a xlink:title=" ">
<polygon fill="none" stroke="#bfbfbf" points="1137.5,-174 1137.5,-193 1178.5,-193 1178.5,-174 1137.5,-174"/>
<text text-anchor="middle" x="1158" y="-181" font-family="Helvetica,sans-Serif" font-size="10.00">tuple</text>
</a>
</g>
</g>
<!-- Node24&#45;&gt;Node25 -->
<g id="edge26" class="edge">
<title>Node24&#45;&gt;Node25</title>
<path fill="none" stroke="midnightblue" d="M1158,-235.48C1158,-227.08 1158,-213.98 1158,-203.16"/>
<polygon fill="midnightblue" stroke="midnightblue" points="1161.5,-203.01 1158,-193.01 1154.5,-203.01 1161.5,-203.01"/>
</g>
<!-- Node26&#45;&gt;Node2 -->
<g id="edge30" class="edge">
<title>Node26&#45;&gt;Node2</title>
<path fill="none" stroke="midnightblue" d="M786.34,-235.48C807.82,-225.49 843.62,-208.85 868.45,-197.31"/>
<polygon fill="midnightblue" stroke="midnightblue" points="870.1,-200.4 877.69,-193.01 867.15,-194.05 870.1,-200.4"/>
</g>
<!-- Node26&#45;&gt;Node6 -->
<g id="edge29" class="edge">
<title>Node26&#45;&gt;Node6</title>
<path fill="none" stroke="midnightblue" d="M754.39,-235.48C738.94,-225.8 713.51,-209.87 695.18,-198.39"/>
<polygon fill="midnightblue" stroke="midnightblue" points="696.92,-195.35 686.59,-193.01 693.2,-201.28 696.92,-195.35"/>
</g>
<!-- Node26&#45;&gt;Node14 -->
<g id="edge28" class="edge">
<title>Node26&#45;&gt;Node14</title>
<path fill="none" stroke="midnightblue" d="M781.42,-235.43C794.4,-226.88 814.35,-213.03 830,-199 851.05,-180.13 872.51,-155.47 885.78,-139.43"/>
<polygon fill="midnightblue" stroke="midnightblue" points="888.64,-141.46 892.26,-131.51 883.22,-137.03 888.64,-141.46"/>
</g>
<!-- Node26&#45;&gt;Node16 -->
<g id="edge31" class="edge">
<title>Node26&#45;&gt;Node16</title>
<path fill="none" stroke="midnightblue" d="M761.63,-235.23C755.74,-226.53 747.39,-212.57 744,-199 739.85,-182.41 746.8,-113.59 748,-112 764.33,-90.38 792.05,-79.14 817.14,-73.29"/>
<polygon fill="midnightblue" stroke="midnightblue" points="817.89,-76.71 826.96,-71.24 816.46,-69.86 817.89,-76.71"/>
</g>
<!-- Node27 -->
<g id="node27" class="node">
<title>Node27</title>
<g id="a_node27"><a xlink:href="identifier_8h.html" target="_top" xlink:title=" ">
<polygon fill="none" stroke="black" points="753,-174 753,-193 821,-193 821,-174 753,-174"/>
<text text-anchor="middle" x="787" y="-181" font-family="Helvetica,sans-Serif" font-size="10.00">identifier.h</text>
</a>
</g>
</g>
<!-- Node26&#45;&gt;Node27 -->
<g id="edge32" class="edge">
<title>Node26&#45;&gt;Node27</title>
<path fill="none" stroke="midnightblue" d="M770.72,-235.48C773.43,-226.99 777.67,-213.7 781.15,-202.82"/>
<polygon fill="midnightblue" stroke="midnightblue" points="784.57,-203.6 784.28,-193.01 777.91,-201.47 784.57,-203.6"/>
</g>
<!-- Node27&#45;&gt;Node10 -->
<g id="edge34" class="edge">
<title>Node27&#45;&gt;Node10</title>
<path fill="none" stroke="midnightblue" d="M786.71,-173.98C786.43,-165.58 785.99,-152.48 785.63,-141.66"/>
<polygon fill="midnightblue" stroke="midnightblue" points="789.12,-141.39 785.29,-131.51 782.12,-141.62 789.12,-141.39"/>
</g>
<!-- Node27&#45;&gt;Node14 -->
<g id="edge33" class="edge">
<title>Node27&#45;&gt;Node14</title>
<path fill="none" stroke="midnightblue" d="M803.05,-173.98C821.59,-164.12 852.34,-147.79 874.02,-136.27"/>
<polygon fill="midnightblue" stroke="midnightblue" points="875.79,-139.29 882.98,-131.51 872.51,-133.11 875.79,-139.29"/>
</g>
<!-- Node27&#45;&gt;Node20 -->
<g id="edge35" class="edge">
<title>Node27&#45;&gt;Node20</title>
<path fill="none" stroke="midnightblue" d="M821.25,-176.14C835.67,-173.52 852.63,-170.52 868,-168 960.28,-152.87 1068.79,-137.22 1127.34,-128.96"/>
<polygon fill="midnightblue" stroke="midnightblue" points="1127.91,-132.41 1137.33,-127.55 1126.94,-125.48 1127.91,-132.41"/>
</g>
<!-- Node28&#45;&gt;Node2 -->
<g id="edge37" class="edge">
<title>Node28&#45;&gt;Node2</title>
<path fill="none" stroke="midnightblue" d="M890,-235.48C890.99,-227.08 892.53,-213.98 893.8,-203.16"/>
<polygon fill="midnightblue" stroke="midnightblue" points="897.31,-203.35 895,-193.01 890.35,-202.53 897.31,-203.35"/>
</g>
<!-- Node28&#45;&gt;Node6 -->
<g id="edge38" class="edge">
<title>Node28&#45;&gt;Node6</title>
<path fill="none" stroke="midnightblue" d="M858.05,-235.48C817.83,-224.4 747.87,-205.12 706.45,-193.72"/>
<polygon fill="midnightblue" stroke="midnightblue" points="707.15,-190.28 696.58,-190.99 705.29,-197.02 707.15,-190.28"/>
</g>
<!-- Node28&#45;&gt;Node14 -->
<g id="edge39" class="edge">
<title>Node28&#45;&gt;Node14</title>
<path fill="none" stroke="midnightblue" d="M898.56,-235.45C907.09,-227.12 918.99,-213.6 924,-199 928.47,-185.97 927.46,-181.34 924,-168 921.45,-158.18 916.25,-148.21 911.24,-140.17"/>
<polygon fill="midnightblue" stroke="midnightblue" points="914.08,-138.11 905.63,-131.73 908.25,-141.99 914.08,-138.11"/>
</g>
<!-- Node28&#45;&gt;Node16 -->
<g id="edge40" class="edge">
<title>Node28&#45;&gt;Node16</title>
<path fill="none" stroke="midnightblue" d="M903.95,-235.47C915.93,-227.7 931.87,-215 939,-199 944.61,-186.41 940.1,-181.73 939,-168 936.99,-142.87 942.86,-133.68 930,-112 922.33,-99.07 909.42,-88.5 897.72,-80.87"/>
<polygon fill="midnightblue" stroke="midnightblue" points="899.48,-77.84 889.12,-75.61 895.83,-83.81 899.48,-77.84"/>
</g>
<!-- Node29&#45;&gt;Node14 -->
<g id="edge42" class="edge">
<title>Node29&#45;&gt;Node14</title>
<path fill="none" stroke="midnightblue" d="M970.9,-235.13C965.56,-220.49 953.79,-190.61 939,-168 932.22,-157.63 923.15,-147.22 915.36,-139.03"/>
<polygon fill="midnightblue" stroke="midnightblue" points="917.63,-136.34 908.12,-131.66 912.63,-141.25 917.63,-136.34"/>
</g>
<!-- Node30&#45;&gt;Node25 -->
<g id="edge44" class="edge">
<title>Node30&#45;&gt;Node25</title>
<path fill="none" stroke="midnightblue" d="M1247.96,-235.48C1230.72,-225.71 1202.26,-209.58 1181.97,-198.08"/>
<polygon fill="midnightblue" stroke="midnightblue" points="1183.44,-194.89 1173.02,-193.01 1179.99,-200.98 1183.44,-194.89"/>
</g>
<!-- Node31&#45;&gt;Node16 -->
<g id="edge46" class="edge">
<title>Node31&#45;&gt;Node16</title>
<path fill="none" stroke="midnightblue" d="M1429.39,-235.41C1434.81,-220.09 1443.35,-187.83 1428,-168 1367.28,-89.53 1055.4,-72.01 927.17,-68.11"/>
<polygon fill="midnightblue" stroke="midnightblue" points="927.26,-64.61 917.16,-67.82 927.06,-71.61 927.26,-64.61"/>
</g>
<!-- Node31&#45;&gt;Node19 -->
<g id="edge47" class="edge">
<title>Node31&#45;&gt;Node19</title>
<path fill="none" stroke="midnightblue" d="M1402.07,-235.48C1377.66,-226.78 1339.07,-213.03 1308.11,-202"/>
<polygon fill="midnightblue" stroke="midnightblue" points="1308.95,-198.58 1298.36,-198.52 1306.6,-205.18 1308.95,-198.58"/>
</g>
<!-- Node32 -->
<g id="node32" class="node">
<title>Node32</title>
<g id="a_node32"><a xlink:title=" ">
<polygon fill="none" stroke="#bfbfbf" points="1339.5,-174 1339.5,-193 1418.5,-193 1418.5,-174 1339.5,-174"/>
<text text-anchor="middle" x="1379" y="-181" font-family="Helvetica,sans-Serif" font-size="10.00">fmt/format.h</text>
</a>
</g>
</g>
<!-- Node31&#45;&gt;Node32 -->
<g id="edge48" class="edge">
<title>Node31&#45;&gt;Node32</title>
<path fill="none" stroke="midnightblue" d="M1419.27,-235.48C1412.22,-226.55 1400.97,-212.31 1392.15,-201.14"/>
<polygon fill="midnightblue" stroke="midnightblue" points="1394.67,-198.69 1385.72,-193.01 1389.17,-203.03 1394.67,-198.69"/>
</g>
<!-- Node33&#45;&gt;Node6 -->
<g id="edge52" class="edge">
<title>Node33&#45;&gt;Node6</title>
<path fill="none" stroke="midnightblue" d="M650.73,-235.48C654.47,-226.9 660.36,-213.43 665.14,-202.48"/>
<polygon fill="midnightblue" stroke="midnightblue" points="668.48,-203.57 669.28,-193.01 662.07,-200.77 668.48,-203.57"/>
</g>
<!-- Node33&#45;&gt;Node7 -->
<g id="edge53" class="edge">
<title>Node33&#45;&gt;Node7</title>
<path fill="none" stroke="midnightblue" d="M620.64,-235.48C588.66,-225.14 534.62,-207.66 498.88,-196.1"/>
<polygon fill="midnightblue" stroke="midnightblue" points="499.91,-192.76 489.31,-193.01 497.75,-199.42 499.91,-192.76"/>
</g>
<!-- Node33&#45;&gt;Node14 -->
<g id="edge51" class="edge">
<title>Node33&#45;&gt;Node14</title>
<path fill="none" stroke="midnightblue" d="M642.78,-235.29C635.96,-219.79 624.82,-187.25 641,-168 648.26,-159.37 799.21,-137.09 866.78,-127.5"/>
<polygon fill="midnightblue" stroke="midnightblue" points="867.47,-130.94 876.88,-126.07 866.49,-124.01 867.47,-130.94"/>
</g>
<!-- Node33&#45;&gt;Node27 -->
<g id="edge50" class="edge">
<title>Node33&#45;&gt;Node27</title>
<path fill="none" stroke="midnightblue" d="M667.06,-235.48C690.76,-225.4 730.41,-208.55 757.58,-197"/>
<polygon fill="midnightblue" stroke="midnightblue" points="759.14,-200.14 766.98,-193.01 756.41,-193.7 759.14,-200.14"/>
</g>
<!-- Node34 -->
<g id="node34" class="node">
<title>Node34</title>
<g id="a_node34"><a xlink:title=" ">
<polygon fill="none" stroke="#bfbfbf" points="527.5,-174 527.5,-193 592.5,-193 592.5,-174 527.5,-174"/>
<text text-anchor="middle" x="560" y="-181" font-family="Helvetica,sans-Serif" font-size="10.00">stdexcept</text>
</a>
</g>
</g>
<!-- Node33&#45;&gt;Node34 -->
<g id="edge54" class="edge">
<title>Node33&#45;&gt;Node34</title>
<path fill="none" stroke="midnightblue" d="M634.54,-235.48C620.58,-225.93 597.74,-210.31 581.01,-198.87"/>
<polygon fill="midnightblue" stroke="midnightblue" points="582.67,-195.77 572.44,-193.01 578.72,-201.54 582.67,-195.77"/>
</g>
</g>
</svg>
