<?xml version="1.0" encoding="UTF-8" standalone="no"?>
<!DOCTYPE svg PUBLIC "-//W3C//DTD SVG 1.1//EN"
 "http://www.w3.org/Graphics/SVG/1.1/DTD/svg11.dtd">
<!-- Generated by graphviz version 2.43.0 (0)
 -->
<!-- Title: HealthGPS.Console/model_info.h Pages: 1 -->
<svg width="461pt" height="229pt"
 viewBox="0.00 0.00 461.00 229.00" xmlns="http://www.w3.org/2000/svg" xmlns:xlink="http://www.w3.org/1999/xlink">
<g id="graph0" class="graph" transform="scale(1 1) rotate(0) translate(4 225)">
<title>HealthGPS.Console/model_info.h</title>
<!-- Node1 -->
<g id="node1" class="node">
<title>Node1</title>
<g id="a_node1"><a xlink:title=" ">
<polygon fill="#bfbfbf" stroke="black" points="219.5,-190.5 219.5,-220.5 363.5,-220.5 363.5,-190.5 219.5,-190.5"/>
<text text-anchor="start" x="227.5" y="-208.5" font-family="Helvetica,sans-Serif" font-size="10.00">HealthGPS.Console/model</text>
<text text-anchor="middle" x="291.5" y="-197.5" font-family="Helvetica,sans-Serif" font-size="10.00">_info.h</text>
</a>
</g>
</g>
<!-- Node2 -->
<g id="node2" class="node">
<title>Node2</title>
<g id="a_node2"><a xlink:href="result__file__writer_8h.html" target="_top" xlink:title=" ">
<polygon fill="none" stroke="black" points="221,-123.5 221,-153.5 362,-153.5 362,-123.5 221,-123.5"/>
<text text-anchor="start" x="229" y="-141.5" font-family="Helvetica,sans-Serif" font-size="10.00">HealthGPS.Console/result</text>
<text text-anchor="middle" x="291.5" y="-130.5" font-family="Helvetica,sans-Serif" font-size="10.00">_file_writer.h</text>
</a>
</g>
</g>
<!-- Node1&#45;&gt;Node2 -->
<g id="edge1" class="edge">
<title>Node1&#45;&gt;Node2</title>
<path fill="none" stroke="midnightblue" d="M291.5,-180.11C291.5,-171.15 291.5,-161.32 291.5,-153.58"/>
<polygon fill="midnightblue" stroke="midnightblue" points="288,-180.4 291.5,-190.4 295,-180.4 288,-180.4"/>
</g>
<!-- Node3 -->
<g id="node3" class="node">
<title>Node3</title>
<g id="a_node3"><a xlink:href="configuration_8h.html" target="_top" xlink:title=" ">
<polygon fill="none" stroke="black" points="107.5,-62 107.5,-81 293.5,-81 293.5,-62 107.5,-62"/>
<text text-anchor="middle" x="200.5" y="-69" font-family="Helvetica,sans-Serif" font-size="10.00">HealthGPS.Console/configuration.h</text>
</a>
</g>
</g>
<!-- Node2&#45;&gt;Node3 -->
<g id="edge2" class="edge">
<title>Node2&#45;&gt;Node3</title>
<path fill="none" stroke="midnightblue" d="M263.23,-117.31C246.14,-105.1 225.25,-90.18 212.41,-81.01"/>
<polygon fill="midnightblue" stroke="midnightblue" points="261.58,-120.43 271.75,-123.4 265.65,-114.74 261.58,-120.43"/>
</g>
<!-- Node6 -->
<g id="node6" class="node">
<title>Node6</title>
<g id="a_node6"><a xlink:href="result__file__writer_8cpp.html" target="_top" xlink:title=" ">
<polygon fill="none" stroke="black" points="312,-56.5 312,-86.5 453,-86.5 453,-56.5 312,-56.5"/>
<text text-anchor="start" x="320" y="-74.5" font-family="Helvetica,sans-Serif" font-size="10.00">HealthGPS.Console/result</text>
<text text-anchor="middle" x="382.5" y="-63.5" font-family="Helvetica,sans-Serif" font-size="10.00">_file_writer.cpp</text>
</a>
</g>
</g>
<!-- Node2&#45;&gt;Node6 -->
<g id="edge5" class="edge">
<title>Node2&#45;&gt;Node6</title>
<path fill="none" stroke="midnightblue" d="M319.57,-117.45C333.57,-107.45 350.16,-95.6 362.79,-86.58"/>
<polygon fill="midnightblue" stroke="midnightblue" points="317.35,-114.74 311.25,-123.4 321.42,-120.43 317.35,-114.74"/>
</g>
<!-- Node4 -->
<g id="node4" class="node">
<title>Node4</title>
<g id="a_node4"><a xlink:href="configuration_8cpp.html" target="_top" xlink:title=" ">
<polygon fill="none" stroke="black" points="0,-0.5 0,-19.5 197,-19.5 197,-0.5 0,-0.5"/>
<text text-anchor="middle" x="98.5" y="-7.5" font-family="Helvetica,sans-Serif" font-size="10.00">HealthGPS.Console/configuration.cpp</text>
</a>
</g>
</g>
<!-- Node3&#45;&gt;Node4 -->
<g id="edge3" class="edge">
<title>Node3&#45;&gt;Node4</title>
<path fill="none" stroke="midnightblue" d="M177.19,-56.9C157.46,-45.4 129.81,-29.27 113.09,-19.51"/>
<polygon fill="midnightblue" stroke="midnightblue" points="175.48,-59.96 185.89,-61.98 179.01,-53.91 175.48,-59.96"/>
</g>
<!-- Node5 -->
<g id="node5" class="node">
<title>Node5</title>
<g id="a_node5"><a xlink:href="program_8cpp.html" target="_top" xlink:title=" ">
<polygon fill="none" stroke="black" points="215,-0.5 215,-19.5 390,-19.5 390,-0.5 215,-0.5"/>
<text text-anchor="middle" x="302.5" y="-7.5" font-family="Helvetica,sans-Serif" font-size="10.00">HealthGPS.Console/program.cpp</text>
</a>
</g>
</g>
<!-- Node3&#45;&gt;Node5 -->
<g id="edge4" class="edge">
<title>Node3&#45;&gt;Node5</title>
<path fill="none" stroke="midnightblue" d="M223.81,-56.9C243.54,-45.4 271.19,-29.27 287.91,-19.51"/>
<polygon fill="midnightblue" stroke="midnightblue" points="221.99,-53.91 215.11,-61.98 225.52,-59.96 221.99,-53.91"/>
</g>
</g>
</svg>
