<?xml version="1.0" encoding="UTF-8" standalone="no"?>
<!DOCTYPE svg PUBLIC "-//W3C//DTD SVG 1.1//EN"
 "http://www.w3.org/Graphics/SVG/1.1/DTD/svg11.dtd">
<!-- Generated by graphviz version 7.0.6 (20230106.0513)
 -->
<!-- Title: HealthGPS/model_result.cpp Pages: 1 -->
<svg width="390pt" height="258pt"
 viewBox="0.00 0.00 389.50 258.00" xmlns="http://www.w3.org/2000/svg" xmlns:xlink="http://www.w3.org/1999/xlink">
<g id="graph0" class="graph" transform="scale(1 1) rotate(0) translate(4 254)">
<title>HealthGPS/model_result.cpp</title>
<!-- Node1 -->
<g id="node1" class="node">
<title>Node1</title>
<g id="a_node1"><a xlink:title=" ">
<polygon fill="#999999" stroke="#666666" points="341,-250 198,-250 198,-231 341,-231 341,-250"/>
<text text-anchor="middle" x="269.5" y="-238" font-family="Helvetica,sans-Serif" font-size="10.00">HealthGPS/model_result.cpp</text>
</a>
</g>
</g>
<!-- Node2 -->
<g id="node2" class="node">
<title>Node2</title>
<g id="a_node2"><a xlink:href="model__result_8h.html" target="_top" xlink:title=" ">
<polygon fill="white" stroke="#666666" points="225.5,-195 145.5,-195 145.5,-176 225.5,-176 225.5,-195"/>
<text text-anchor="middle" x="185.5" y="-183" font-family="Helvetica,sans-Serif" font-size="10.00">model_result.h</text>
</a>
</g>
</g>
<!-- Node1&#45;&gt;Node2 -->
<g id="edge1" class="edge">
<title>Node1&#45;&gt;Node2</title>
<path fill="none" stroke="#63b8ff" d="M255.25,-230.51C242.62,-222.54 223.94,-210.75 209.09,-201.38"/>
<polygon fill="#63b8ff" stroke="#63b8ff" points="211.14,-198.54 200.82,-196.17 207.41,-204.46 211.14,-198.54"/>
</g>
<!-- Node11 -->
<g id="node11" class="node">
<title>Node11</title>
<g id="a_node11"><a xlink:title=" ">
<polygon fill="#e0e0e0" stroke="#999999" points="295.5,-195 243.5,-195 243.5,-176 295.5,-176 295.5,-195"/>
<text text-anchor="middle" x="269.5" y="-183" font-family="Helvetica,sans-Serif" font-size="10.00">sstream</text>
</a>
</g>
</g>
<!-- Node1&#45;&gt;Node11 -->
<g id="edge14" class="edge">
<title>Node1&#45;&gt;Node11</title>
<path fill="none" stroke="#63b8ff" d="M269.5,-230.75C269.5,-224.27 269.5,-215.16 269.5,-206.9"/>
<polygon fill="#63b8ff" stroke="#63b8ff" points="273,-206.96 269.5,-196.96 266,-206.96 273,-206.96"/>
</g>
<!-- Node12 -->
<g id="node12" class="node">
<title>Node12</title>
<g id="a_node12"><a xlink:title=" ">
<polygon fill="#e0e0e0" stroke="#999999" points="381.5,-195 313.5,-195 313.5,-176 381.5,-176 381.5,-195"/>
<text text-anchor="middle" x="347.5" y="-183" font-family="Helvetica,sans-Serif" font-size="10.00">fmt/format.h</text>
</a>
</g>
</g>
<!-- Node1&#45;&gt;Node12 -->
<g id="edge15" class="edge">
<title>Node1&#45;&gt;Node12</title>
<path fill="none" stroke="#63b8ff" d="M282.73,-230.51C294.34,-222.62 311.47,-210.98 325.2,-201.65"/>
<polygon fill="#63b8ff" stroke="#63b8ff" points="326.91,-204.72 333.21,-196.21 322.97,-198.93 326.91,-204.72"/>
</g>
<!-- Node3 -->
<g id="node3" class="node">
<title>Node3</title>
<g id="a_node3"><a xlink:href="data__series_8h.html" target="_top" xlink:title=" ">
<polygon fill="white" stroke="#666666" points="223,-140 148,-140 148,-121 223,-121 223,-140"/>
<text text-anchor="middle" x="185.5" y="-128" font-family="Helvetica,sans-Serif" font-size="10.00">data_series.h</text>
</a>
</g>
</g>
<!-- Node2&#45;&gt;Node3 -->
<g id="edge2" class="edge">
<title>Node2&#45;&gt;Node3</title>
<path fill="none" stroke="#63b8ff" d="M185.5,-175.75C185.5,-169.27 185.5,-160.16 185.5,-151.9"/>
<polygon fill="#63b8ff" stroke="#63b8ff" points="189,-151.96 185.5,-141.96 182,-151.96 189,-151.96"/>
</g>
<!-- Node7 -->
<g id="node7" class="node">
<title>Node7</title>
<g id="a_node7"><a xlink:title=" ">
<polygon fill="#e0e0e0" stroke="#999999" points="98,-79.5 57,-79.5 57,-60.5 98,-60.5 98,-79.5"/>
<text text-anchor="middle" x="77.5" y="-67.5" font-family="Helvetica,sans-Serif" font-size="10.00">string</text>
</a>
</g>
</g>
<!-- Node2&#45;&gt;Node7 -->
<g id="edge11" class="edge">
<title>Node2&#45;&gt;Node7</title>
<path fill="none" stroke="#63b8ff" d="M175.53,-175.54C165.85,-166.73 150.84,-152.77 138.5,-140 122.07,-123 104.27,-102.62 92.16,-88.43"/>
<polygon fill="#63b8ff" stroke="#63b8ff" points="94.89,-86.24 85.75,-80.87 89.55,-90.76 94.89,-86.24"/>
</g>
<!-- Node8 -->
<g id="node8" class="node">
<title>Node8</title>
<g id="a_node8"><a xlink:title=" ">
<polygon fill="#e0e0e0" stroke="#999999" points="298.5,-79.5 256.5,-79.5 256.5,-60.5 298.5,-60.5 298.5,-79.5"/>
<text text-anchor="middle" x="277.5" y="-67.5" font-family="Helvetica,sans-Serif" font-size="10.00">vector</text>
</a>
</g>
</g>
<!-- Node2&#45;&gt;Node8 -->
<g id="edge13" class="edge">
<title>Node2&#45;&gt;Node8</title>
<path fill="none" stroke="#63b8ff" d="M195.99,-175.53C205.75,-166.93 220.4,-153.31 231.5,-140 244.87,-123.96 257.86,-103.95 266.6,-89.61"/>
<polygon fill="#63b8ff" stroke="#63b8ff" points="269.49,-91.6 271.62,-81.22 263.49,-88 269.49,-91.6"/>
</g>
<!-- Node9 -->
<g id="node9" class="node">
<title>Node9</title>
<g id="a_node9"><a xlink:title=" ">
<polygon fill="#e0e0e0" stroke="#999999" points="352,-79.5 317,-79.5 317,-60.5 352,-60.5 352,-79.5"/>
<text text-anchor="middle" x="334.5" y="-67.5" font-family="Helvetica,sans-Serif" font-size="10.00">map</text>
</a>
</g>
</g>
<!-- Node2&#45;&gt;Node9 -->
<g id="edge12" class="edge">
<title>Node2&#45;&gt;Node9</title>
<path fill="none" stroke="#63b8ff" d="M199.94,-175.58C213.73,-166.9 234.95,-153.14 252.5,-140 275.16,-123.03 299.84,-101.86 316.15,-87.48"/>
<polygon fill="#63b8ff" stroke="#63b8ff" points="318.42,-90.14 323.57,-80.88 313.77,-84.91 318.42,-90.14"/>
</g>
<!-- Node10 -->
<g id="node10" class="node">
<title>Node10</title>
<g id="a_node10"><a xlink:href="gender__value_8h.html" target="_top" xlink:title=" ">
<polygon fill="white" stroke="#666666" points="81,-140 0,-140 0,-121 81,-121 81,-140"/>
<text text-anchor="middle" x="40.5" y="-128" font-family="Helvetica,sans-Serif" font-size="10.00">gender_value.h</text>
</a>
</g>
</g>
<!-- Node2&#45;&gt;Node10 -->
<g id="edge9" class="edge">
<title>Node2&#45;&gt;Node10</title>
<path fill="none" stroke="#63b8ff" d="M160.9,-175.51C137.43,-166.93 101.83,-153.92 75.43,-144.27"/>
<polygon fill="#63b8ff" stroke="#63b8ff" points="76.75,-141.02 66.16,-140.88 74.35,-147.6 76.75,-141.02"/>
</g>
<!-- Node4 -->
<g id="node4" class="node">
<title>Node4</title>
<g id="a_node4"><a xlink:href="forward__type_8h.html" target="_top" xlink:title=" ">
<polygon fill="white" stroke="#666666" points="238.5,-85 116.5,-85 116.5,-55 238.5,-55 238.5,-85"/>
<text text-anchor="start" x="124.5" y="-73" font-family="Helvetica,sans-Serif" font-size="10.00">HealthGPS.Core/forward</text>
<text text-anchor="middle" x="177.5" y="-62" font-family="Helvetica,sans-Serif" font-size="10.00">_type.h</text>
</a>
</g>
</g>
<!-- Node3&#45;&gt;Node4 -->
<g id="edge3" class="edge">
<title>Node3&#45;&gt;Node4</title>
<path fill="none" stroke="#63b8ff" d="M184.32,-120.87C183.44,-114.4 182.18,-105.2 180.98,-96.45"/>
<polygon fill="#63b8ff" stroke="#63b8ff" points="184.46,-96.05 179.64,-86.61 177.52,-97 184.46,-96.05"/>
</g>
<!-- Node3&#45;&gt;Node7 -->
<g id="edge6" class="edge">
<title>Node3&#45;&gt;Node7</title>
<path fill="none" stroke="#63b8ff" d="M169.1,-120.62C151.81,-111.25 124.32,-96.36 103.96,-85.33"/>
<polygon fill="#63b8ff" stroke="#63b8ff" points="105.85,-82.37 95.39,-80.69 102.51,-88.53 105.85,-82.37"/>
</g>
<!-- Node3&#45;&gt;Node8 -->
<g id="edge7" class="edge">
<title>Node3&#45;&gt;Node8</title>
<path fill="none" stroke="#63b8ff" d="M199.47,-120.62C213.93,-111.42 236.76,-96.91 254,-85.94"/>
<polygon fill="#63b8ff" stroke="#63b8ff" points="255.56,-89.1 262.12,-80.78 251.8,-83.19 255.56,-89.1"/>
</g>
<!-- Node3&#45;&gt;Node9 -->
<g id="edge8" class="edge">
<title>Node3&#45;&gt;Node9</title>
<path fill="none" stroke="#63b8ff" d="M213.03,-120.59C238.02,-112.23 275.71,-98.97 307.5,-85 307.61,-84.95 307.72,-84.9 307.83,-84.86"/>
<polygon fill="#63b8ff" stroke="#63b8ff" points="309.23,-88.06 316.74,-80.58 306.2,-81.75 309.23,-88.06"/>
</g>
<!-- Node5 -->
<g id="node5" class="node">
<title>Node5</title>
<g id="a_node5"><a xlink:title=" ">
<polygon fill="#e0e0e0" stroke="#999999" points="98.5,-19 36.5,-19 36.5,0 98.5,0 98.5,-19"/>
<text text-anchor="middle" x="67.5" y="-7" font-family="Helvetica,sans-Serif" font-size="10.00">type_traits</text>
</a>
</g>
</g>
<!-- Node4&#45;&gt;Node5 -->
<g id="edge4" class="edge">
<title>Node4&#45;&gt;Node5</title>
<path fill="none" stroke="#63b8ff" d="M150.31,-54.54C133.13,-45.4 111.05,-33.66 94,-24.6"/>
<polygon fill="#63b8ff" stroke="#63b8ff" points="95.94,-21.66 85.47,-20.06 92.66,-27.84 95.94,-21.66"/>
</g>
<!-- Node6 -->
<g id="node6" class="node">
<title>Node6</title>
<g id="a_node6"><a xlink:title=" ">
<polygon fill="#e0e0e0" stroke="#999999" points="200.5,-19 154.5,-19 154.5,0 200.5,0 200.5,-19"/>
<text text-anchor="middle" x="177.5" y="-7" font-family="Helvetica,sans-Serif" font-size="10.00">cstdint</text>
</a>
</g>
</g>
<!-- Node4&#45;&gt;Node6 -->
<g id="edge5" class="edge">
<title>Node4&#45;&gt;Node6</title>
<path fill="none" stroke="#63b8ff" d="M177.5,-54.54C177.5,-47.34 177.5,-38.53 177.5,-30.68"/>
<polygon fill="#63b8ff" stroke="#63b8ff" points="181,-30.69 177.5,-20.69 174,-30.69 181,-30.69"/>
</g>
<!-- Node10&#45;&gt;Node5 -->
<g id="edge10" class="edge">
<title>Node10&#45;&gt;Node5</title>
<path fill="none" stroke="#63b8ff" d="M40.4,-120.62C40.45,-106.49 41.4,-78.11 47.5,-55 49.79,-46.31 53.63,-37.17 57.32,-29.45"/>
<polygon fill="#63b8ff" stroke="#63b8ff" points="60.35,-31.23 61.77,-20.73 54.11,-28.05 60.35,-31.23"/>
</g>
</g>
</svg>
