<?xml version="1.0" encoding="UTF-8" standalone="no"?>
<!DOCTYPE svg PUBLIC "-//W3C//DTD SVG 1.1//EN"
 "http://www.w3.org/Graphics/SVG/1.1/DTD/svg11.dtd">
<!-- Generated by graphviz version 2.43.0 (0)
 -->
<!-- Title: HealthGPS.Console/model_parser.h Pages: 1 -->
<svg width="346pt" height="106pt"
 viewBox="0.00 0.00 345.50 106.00" xmlns="http://www.w3.org/2000/svg" xmlns:xlink="http://www.w3.org/1999/xlink">
<g id="graph0" class="graph" transform="scale(1 1) rotate(0) translate(4 102)">
<title>HealthGPS.Console/model_parser.h</title>
<!-- Node1 -->
<g id="node1" class="node">
<title>Node1</title>
<g id="a_node1"><a xlink:title=" ">
<polygon fill="#bfbfbf" stroke="black" points="89,-67.5 89,-97.5 233,-97.5 233,-67.5 89,-67.5"/>
<text text-anchor="start" x="97" y="-85.5" font-family="Helvetica,sans-Serif" font-size="10.00">HealthGPS.Console/model</text>
<text text-anchor="middle" x="161" y="-74.5" font-family="Helvetica,sans-Serif" font-size="10.00">_parser.h</text>
</a>
</g>
</g>
<!-- Node2 -->
<g id="node2" class="node">
<title>Node2</title>
<g id="a_node2"><a xlink:href="model__parser_8cpp.html" target="_top" xlink:title=" ">
<polygon fill="none" stroke="black" points="0,-0.5 0,-30.5 144,-30.5 144,-0.5 0,-0.5"/>
<text text-anchor="start" x="8" y="-18.5" font-family="Helvetica,sans-Serif" font-size="10.00">HealthGPS.Console/model</text>
<text text-anchor="middle" x="72" y="-7.5" font-family="Helvetica,sans-Serif" font-size="10.00">_parser.cpp</text>
</a>
</g>
</g>
<!-- Node1&#45;&gt;Node2 -->
<g id="edge1" class="edge">
<title>Node1&#45;&gt;Node2</title>
<path fill="none" stroke="midnightblue" d="M133.55,-61.45C119.86,-51.45 103.63,-39.6 91.27,-30.58"/>
<polygon fill="midnightblue" stroke="midnightblue" points="131.55,-64.32 141.69,-67.4 135.68,-58.67 131.55,-64.32"/>
</g>
<!-- Node3 -->
<g id="node3" class="node">
<title>Node3</title>
<g id="a_node3"><a xlink:href="program_8cpp.html" target="_top" xlink:title=" ">
<polygon fill="none" stroke="black" points="162.5,-6 162.5,-25 337.5,-25 337.5,-6 162.5,-6"/>
<text text-anchor="middle" x="250" y="-13" font-family="Helvetica,sans-Serif" font-size="10.00">HealthGPS.Console/program.cpp</text>
</a>
</g>
</g>
<!-- Node1&#45;&gt;Node3 -->
<g id="edge2" class="edge">
<title>Node1&#45;&gt;Node3</title>
<path fill="none" stroke="midnightblue" d="M188.65,-61.31C205.36,-49.1 225.8,-34.18 238.35,-25.01"/>
<polygon fill="midnightblue" stroke="midnightblue" points="186.32,-58.67 180.31,-67.4 190.45,-64.32 186.32,-58.67"/>
</g>
</g>
</svg>
