<?xml version="1.0" encoding="UTF-8" standalone="no"?>
<!DOCTYPE svg PUBLIC "-//W3C//DTD SVG 1.1//EN"
 "http://www.w3.org/Graphics/SVG/1.1/DTD/svg11.dtd">
<!-- Generated by graphviz version 7.0.6 (20230106.0513)
 -->
<!-- Title: HealthGPS/modulefactory.h Pages: 1 -->
<svg width="479pt" height="269pt"
 viewBox="0.00 0.00 478.50 269.00" xmlns="http://www.w3.org/2000/svg" xmlns:xlink="http://www.w3.org/1999/xlink">
<g id="graph0" class="graph" transform="scale(1 1) rotate(0) translate(4 265)">
<title>HealthGPS/modulefactory.h</title>
<!-- Node1 -->
<g id="node1" class="node">
<title>Node1</title>
<g id="a_node1"><a xlink:title=" ">
<polygon fill="#999999" stroke="#666666" points="216.5,-261 79.5,-261 79.5,-242 216.5,-242 216.5,-261"/>
<text text-anchor="middle" x="148" y="-249" font-family="Helvetica,sans-Serif" font-size="10.00">HealthGPS/modulefactory.h</text>
</a>
</g>
</g>
<!-- Node2 -->
<g id="node2" class="node">
<title>Node2</title>
<g id="a_node2"><a xlink:href="modulefactory_8cpp.html" target="_top" xlink:title=" ">
<polygon fill="white" stroke="#666666" points="148,-200.5 0,-200.5 0,-181.5 148,-181.5 148,-200.5"/>
<text text-anchor="middle" x="74" y="-188.5" font-family="Helvetica,sans-Serif" font-size="10.00">HealthGPS/modulefactory.cpp</text>
</a>
</g>
</g>
<!-- Node1&#45;&gt;Node2 -->
<g id="edge1" class="edge">
<title>Node1&#45;&gt;Node2</title>
<path fill="none" stroke="#63b8ff" d="M128.05,-234.73C114.36,-223.9 96.69,-209.93 85.34,-200.97"/>
<polygon fill="#63b8ff" stroke="#63b8ff" points="125.56,-237.22 135.57,-240.68 129.9,-231.73 125.56,-237.22"/>
</g>
<!-- Node3 -->
<g id="node3" class="node">
<title>Node3</title>
<g id="a_node3"><a xlink:href="simulation__module_8h.html" target="_top" xlink:title=" ">
<polygon fill="white" stroke="#666666" points="279.5,-206 166.5,-206 166.5,-176 279.5,-176 279.5,-206"/>
<text text-anchor="start" x="174.5" y="-194" font-family="Helvetica,sans-Serif" font-size="10.00">HealthGPS/simulation</text>
<text text-anchor="middle" x="223" y="-183" font-family="Helvetica,sans-Serif" font-size="10.00">_module.h</text>
</a>
</g>
</g>
<!-- Node1&#45;&gt;Node3 -->
<g id="edge2" class="edge">
<title>Node1&#45;&gt;Node3</title>
<path fill="none" stroke="#63b8ff" d="M168.13,-234.8C179.44,-225.98 193.45,-215.05 204.49,-206.44"/>
<polygon fill="#63b8ff" stroke="#63b8ff" points="166.32,-231.77 160.58,-240.68 170.62,-237.29 166.32,-231.77"/>
</g>
<!-- Node4 -->
<g id="node4" class="node">
<title>Node4</title>
<g id="a_node4"><a xlink:href="_health_g_p_s_2api_8h.html" target="_top" xlink:title=" ">
<polygon fill="white" stroke="#666666" points="134.5,-74 45.5,-74 45.5,-55 134.5,-55 134.5,-74"/>
<text text-anchor="middle" x="90" y="-62" font-family="Helvetica,sans-Serif" font-size="10.00">HealthGPS/api.h</text>
</a>
</g>
</g>
<!-- Node3&#45;&gt;Node4 -->
<g id="edge3" class="edge">
<title>Node3&#45;&gt;Node4</title>
<path fill="none" stroke="#63b8ff" d="M191.21,-169.3C179.08,-160.81 165.42,-150.52 154,-140 130.67,-118.52 107.45,-88.92 96.5,-74.35"/>
<polygon fill="#63b8ff" stroke="#63b8ff" points="189.07,-172.08 199.3,-174.84 193.02,-166.3 189.07,-172.08"/>
</g>
<!-- Node6 -->
<g id="node6" class="node">
<title>Node6</title>
<g id="a_node6"><a xlink:href="healthgps_8h.html" target="_top" xlink:title=" ">
<polygon fill="white" stroke="#666666" points="282.5,-134.5 163.5,-134.5 163.5,-115.5 282.5,-115.5 282.5,-134.5"/>
<text text-anchor="middle" x="223" y="-122.5" font-family="Helvetica,sans-Serif" font-size="10.00">HealthGPS/healthgps.h</text>
</a>
</g>
</g>
<!-- Node3&#45;&gt;Node6 -->
<g id="edge5" class="edge">
<title>Node3&#45;&gt;Node6</title>
<path fill="none" stroke="#63b8ff" d="M223,-164.59C223,-154.06 223,-142.53 223,-134.84"/>
<polygon fill="#63b8ff" stroke="#63b8ff" points="219.5,-164.28 223,-174.28 226.5,-164.28 219.5,-164.28"/>
</g>
<!-- Node10 -->
<g id="node10" class="node">
<title>Node10</title>
<g id="a_node10"><a xlink:href="simulation__module_8cpp.html" target="_top" xlink:title=" ">
<polygon fill="white" stroke="#666666" points="413.5,-140 300.5,-140 300.5,-110 413.5,-110 413.5,-140"/>
<text text-anchor="start" x="308.5" y="-128" font-family="Helvetica,sans-Serif" font-size="10.00">HealthGPS/simulation</text>
<text text-anchor="middle" x="357" y="-117" font-family="Helvetica,sans-Serif" font-size="10.00">_module.cpp</text>
</a>
</g>
</g>
<!-- Node3&#45;&gt;Node10 -->
<g id="edge11" class="edge">
<title>Node3&#45;&gt;Node10</title>
<path fill="none" stroke="#63b8ff" d="M263.36,-170.72C283.83,-160.95 308.26,-149.28 327.03,-140.31"/>
<polygon fill="#63b8ff" stroke="#63b8ff" points="261.95,-167.52 254.44,-174.98 264.97,-173.83 261.95,-167.52"/>
</g>
<!-- Node5 -->
<g id="node5" class="node">
<title>Node5</title>
<g id="a_node5"><a xlink:href="program_8cpp.html" target="_top" xlink:title=" ">
<polygon fill="white" stroke="#666666" points="170.5,-19 9.5,-19 9.5,0 170.5,0 170.5,-19"/>
<text text-anchor="middle" x="90" y="-7" font-family="Helvetica,sans-Serif" font-size="10.00">HealthGPS.Console/program.cpp</text>
</a>
</g>
</g>
<!-- Node4&#45;&gt;Node5 -->
<g id="edge4" class="edge">
<title>Node4&#45;&gt;Node5</title>
<path fill="none" stroke="#63b8ff" d="M90,-43.35C90,-35.1 90,-25.97 90,-19.44"/>
<polygon fill="#63b8ff" stroke="#63b8ff" points="86.5,-43.23 90,-53.23 93.5,-43.23 86.5,-43.23"/>
</g>
<!-- Node6&#45;&gt;Node4 -->
<g id="edge9" class="edge">
<title>Node6&#45;&gt;Node4</title>
<path fill="none" stroke="#63b8ff" d="M192.34,-110.52C167.18,-99.45 132.24,-84.08 110.39,-74.47"/>
<polygon fill="#63b8ff" stroke="#63b8ff" points="190.85,-113.68 201.41,-114.51 193.67,-107.28 190.85,-113.68"/>
</g>
<!-- Node7 -->
<g id="node7" class="node">
<title>Node7</title>
<g id="a_node7"><a xlink:href="configuration_8h.html" target="_top" xlink:title=" ">
<polygon fill="white" stroke="#666666" points="323,-74 153,-74 153,-55 323,-55 323,-74"/>
<text text-anchor="middle" x="238" y="-62" font-family="Helvetica,sans-Serif" font-size="10.00">HealthGPS.Console/configuration.h</text>
</a>
</g>
</g>
<!-- Node6&#45;&gt;Node7 -->
<g id="edge6" class="edge">
<title>Node6&#45;&gt;Node7</title>
<path fill="none" stroke="#63b8ff" d="M228,-104.49C230.64,-94.22 233.74,-82.13 235.78,-74.17"/>
<polygon fill="#63b8ff" stroke="#63b8ff" points="224.68,-103.35 225.59,-113.9 231.46,-105.08 224.68,-103.35"/>
</g>
<!-- Node9 -->
<g id="node9" class="node">
<title>Node9</title>
<g id="a_node9"><a xlink:href="healthgps_8cpp.html" target="_top" xlink:title=" ">
<polygon fill="white" stroke="#666666" points="470.5,-74 341.5,-74 341.5,-55 470.5,-55 470.5,-74"/>
<text text-anchor="middle" x="406" y="-62" font-family="Helvetica,sans-Serif" font-size="10.00">HealthGPS/healthgps.cpp</text>
</a>
</g>
</g>
<!-- Node6&#45;&gt;Node9 -->
<g id="edge10" class="edge">
<title>Node6&#45;&gt;Node9</title>
<path fill="none" stroke="#63b8ff" d="M261.51,-111.69C296.34,-100.56 346.8,-84.42 377.94,-74.47"/>
<polygon fill="#63b8ff" stroke="#63b8ff" points="260.69,-108.28 252.24,-114.65 262.83,-114.94 260.69,-108.28"/>
</g>
<!-- Node7&#45;&gt;Node5 -->
<g id="edge8" class="edge">
<title>Node7&#45;&gt;Node5</title>
<path fill="none" stroke="#63b8ff" d="M202.29,-50.71C175.21,-41.01 138.67,-27.93 114.74,-19.36"/>
<polygon fill="#63b8ff" stroke="#63b8ff" points="200.87,-53.92 211.47,-54 203.23,-47.33 200.87,-53.92"/>
</g>
<!-- Node8 -->
<g id="node8" class="node">
<title>Node8</title>
<g id="a_node8"><a xlink:href="configuration_8cpp.html" target="_top" xlink:title=" ">
<polygon fill="white" stroke="#666666" points="369,-19 189,-19 189,0 369,0 369,-19"/>
<text text-anchor="middle" x="279" y="-7" font-family="Helvetica,sans-Serif" font-size="10.00">HealthGPS.Console/configuration.cpp</text>
</a>
</g>
</g>
<!-- Node7&#45;&gt;Node8 -->
<g id="edge7" class="edge">
<title>Node7&#45;&gt;Node8</title>
<path fill="none" stroke="#63b8ff" d="M251.81,-45.65C258.63,-36.84 266.55,-26.59 272.08,-19.44"/>
<polygon fill="#63b8ff" stroke="#63b8ff" points="249.05,-43.5 245.7,-53.55 254.58,-47.78 249.05,-43.5"/>
</g>
</g>
</svg>
