<?xml version="1.0" encoding="UTF-8" standalone="no"?>
<!DOCTYPE svg PUBLIC "-//W3C//DTD SVG 1.1//EN"
 "http://www.w3.org/Graphics/SVG/1.1/DTD/svg11.dtd">
<!-- Generated by graphviz version 7.0.6 (20230106.0513)
 -->
<!-- Title: HealthGPS/monotonic_vector.h Pages: 1 -->
<svg width="268pt" height="159pt"
 viewBox="0.00 0.00 268.00 159.00" xmlns="http://www.w3.org/2000/svg" xmlns:xlink="http://www.w3.org/1999/xlink">
<g id="graph0" class="graph" transform="scale(1 1) rotate(0) translate(4 155)">
<title>HealthGPS/monotonic_vector.h</title>
<!-- Node1 -->
<g id="node1" class="node">
<title>Node1</title>
<g id="a_node1"><a xlink:title=" ">
<polygon fill="#999999" stroke="#666666" points="146.5,-151 33.5,-151 33.5,-121 146.5,-121 146.5,-151"/>
<text text-anchor="start" x="41.5" y="-139" font-family="Helvetica,sans-Serif" font-size="10.00">HealthGPS/monotonic</text>
<text text-anchor="middle" x="90" y="-128" font-family="Helvetica,sans-Serif" font-size="10.00">_vector.h</text>
</a>
</g>
</g>
<!-- Node2 -->
<g id="node2" class="node">
<title>Node2</title>
<g id="a_node2"><a xlink:title=" ">
<polygon fill="#e0e0e0" stroke="#999999" points="42,-79.5 0,-79.5 0,-60.5 42,-60.5 42,-79.5"/>
<text text-anchor="middle" x="21" y="-67.5" font-family="Helvetica,sans-Serif" font-size="10.00">vector</text>
</a>
</g>
</g>
<!-- Node1&#45;&gt;Node2 -->
<g id="edge1" class="edge">
<title>Node1&#45;&gt;Node2</title>
<path fill="none" stroke="#63b8ff" d="M74.69,-120.8C64.04,-110.92 49.81,-97.72 38.67,-87.39"/>
<polygon fill="#63b8ff" stroke="#63b8ff" points="41.36,-85.11 31.64,-80.87 36.6,-90.24 41.36,-85.11"/>
</g>
<!-- Node3 -->
<g id="node3" class="node">
<title>Node3</title>
<g id="a_node3"><a xlink:title=" ">
<polygon fill="#e0e0e0" stroke="#999999" points="119.5,-79.5 60.5,-79.5 60.5,-60.5 119.5,-60.5 119.5,-79.5"/>
<text text-anchor="middle" x="90" y="-67.5" font-family="Helvetica,sans-Serif" font-size="10.00">stdexcept</text>
</a>
</g>
</g>
<!-- Node1&#45;&gt;Node3 -->
<g id="edge2" class="edge">
<title>Node1&#45;&gt;Node3</title>
<path fill="none" stroke="#63b8ff" d="M90,-120.8C90,-112.09 90,-100.81 90,-91.18"/>
<polygon fill="#63b8ff" stroke="#63b8ff" points="93.5,-91.36 90,-81.36 86.5,-91.36 93.5,-91.36"/>
</g>
<!-- Node4 -->
<g id="node4" class="node">
<title>Node4</title>
<g id="a_node4"><a xlink:href="forward__type_8h.html" target="_top" xlink:title=" ">
<polygon fill="white" stroke="#666666" points="260,-85 138,-85 138,-55 260,-55 260,-85"/>
<text text-anchor="start" x="146" y="-73" font-family="Helvetica,sans-Serif" font-size="10.00">HealthGPS.Core/forward</text>
<text text-anchor="middle" x="199" y="-62" font-family="Helvetica,sans-Serif" font-size="10.00">_type.h</text>
</a>
</g>
</g>
<!-- Node1&#45;&gt;Node4 -->
<g id="edge3" class="edge">
<title>Node1&#45;&gt;Node4</title>
<path fill="none" stroke="#63b8ff" d="M114.46,-120.64C129.33,-111.91 148.53,-100.63 164.88,-91.04"/>
<polygon fill="#63b8ff" stroke="#63b8ff" points="166.46,-94.16 173.31,-86.08 162.92,-88.13 166.46,-94.16"/>
</g>
<!-- Node5 -->
<g id="node5" class="node">
<title>Node5</title>
<g id="a_node5"><a xlink:title=" ">
<polygon fill="#e0e0e0" stroke="#999999" points="194,-19 132,-19 132,0 194,0 194,-19"/>
<text text-anchor="middle" x="163" y="-7" font-family="Helvetica,sans-Serif" font-size="10.00">type_traits</text>
</a>
</g>
</g>
<!-- Node4&#45;&gt;Node5 -->
<g id="edge4" class="edge">
<title>Node4&#45;&gt;Node5</title>
<path fill="none" stroke="#63b8ff" d="M190.1,-54.54C185.3,-46.74 179.32,-37.03 174.21,-28.71"/>
<polygon fill="#63b8ff" stroke="#63b8ff" points="177.35,-27.15 169.13,-20.46 171.39,-30.82 177.35,-27.15"/>
</g>
<!-- Node6 -->
<g id="node6" class="node">
<title>Node6</title>
<g id="a_node6"><a xlink:title=" ">
<polygon fill="#e0e0e0" stroke="#999999" points="258,-19 212,-19 212,0 258,0 258,-19"/>
<text text-anchor="middle" x="235" y="-7" font-family="Helvetica,sans-Serif" font-size="10.00">cstdint</text>
</a>
</g>
</g>
<!-- Node4&#45;&gt;Node6 -->
<g id="edge5" class="edge">
<title>Node4&#45;&gt;Node6</title>
<path fill="none" stroke="#63b8ff" d="M207.9,-54.54C212.7,-46.74 218.68,-37.03 223.79,-28.71"/>
<polygon fill="#63b8ff" stroke="#63b8ff" points="226.61,-30.82 228.87,-20.46 220.65,-27.15 226.61,-30.82"/>
</g>
</g>
</svg>
