<?xml version="1.0" encoding="UTF-8" standalone="no"?>
<!DOCTYPE svg PUBLIC "-//W3C//DTD SVG 1.1//EN"
 "http://www.w3.org/Graphics/SVG/1.1/DTD/svg11.dtd">
<!-- Generated by graphviz version 2.43.0 (0)
 -->
<!-- Title: HealthGPS/monotonic_vector.h Pages: 1 -->
<svg width="2125pt" height="609pt"
 viewBox="0.00 0.00 2125.25 609.00" xmlns="http://www.w3.org/2000/svg" xmlns:xlink="http://www.w3.org/1999/xlink">
<g id="graph0" class="graph" transform="scale(1 1) rotate(0) translate(4 605)">
<title>HealthGPS/monotonic_vector.h</title>
<!-- Node1 -->
<g id="node1" class="node">
<title>Node1</title>
<g id="a_node1"><a xlink:title=" ">
<polygon fill="#bfbfbf" stroke="black" points="1223.25,-570.5 1223.25,-600.5 1346.25,-600.5 1346.25,-570.5 1223.25,-570.5"/>
<text text-anchor="start" x="1231.25" y="-588.5" font-family="Helvetica,sans-Serif" font-size="10.00">HealthGPS/monotonic</text>
<text text-anchor="middle" x="1284.75" y="-577.5" font-family="Helvetica,sans-Serif" font-size="10.00">_vector.h</text>
</a>
</g>
</g>
<!-- Node2 -->
<g id="node2" class="node">
<title>Node2</title>
<g id="a_node2"><a xlink:href="gender__table_8h.html" target="_top" xlink:title=" ">
<polygon fill="none" stroke="black" points="1262.75,-514.5 1262.75,-533.5 1406.75,-533.5 1406.75,-514.5 1262.75,-514.5"/>
<text text-anchor="middle" x="1334.75" y="-521.5" font-family="Helvetica,sans-Serif" font-size="10.00">HealthGPS/gender_table.h</text>
</a>
</g>
</g>
<!-- Node1&#45;&gt;Node2 -->
<g id="edge1" class="edge">
<title>Node1&#45;&gt;Node2</title>
<path fill="none" stroke="midnightblue" d="M1303.07,-562.7C1311.53,-552.64 1321.09,-541.26 1327.48,-533.66"/>
<polygon fill="midnightblue" stroke="midnightblue" points="1300.36,-560.49 1296.6,-570.4 1305.72,-565 1300.36,-560.49"/>
</g>
<!-- Node28 -->
<g id="node28" class="node">
<title>Node28</title>
<g id="a_node28"><a xlink:href="relative__risk_8h.html" target="_top" xlink:title=" ">
<polygon fill="none" stroke="black" points="1180.25,-447.5 1180.25,-477.5 1289.25,-477.5 1289.25,-447.5 1180.25,-447.5"/>
<text text-anchor="start" x="1188.25" y="-465.5" font-family="Helvetica,sans-Serif" font-size="10.00">HealthGPS/relative</text>
<text text-anchor="middle" x="1234.75" y="-454.5" font-family="Helvetica,sans-Serif" font-size="10.00">_risk.h</text>
</a>
</g>
</g>
<!-- Node1&#45;&gt;Node28 -->
<g id="edge64" class="edge">
<title>Node1&#45;&gt;Node28</title>
<path fill="none" stroke="midnightblue" d="M1268.76,-561.59C1263.43,-553.2 1257.82,-543.44 1253.75,-534 1245.68,-515.26 1240.24,-492.21 1237.32,-477.68"/>
<polygon fill="midnightblue" stroke="midnightblue" points="1265.93,-563.65 1274.35,-570.08 1271.78,-559.81 1265.93,-563.65"/>
</g>
<!-- Node3 -->
<g id="node3" class="node">
<title>Node3</title>
<g id="a_node3"><a xlink:href="analysis__definition_8h.html" target="_top" xlink:title=" ">
<polygon fill="none" stroke="black" points="973.75,-380.5 973.75,-410.5 1085.75,-410.5 1085.75,-380.5 973.75,-380.5"/>
<text text-anchor="start" x="981.75" y="-398.5" font-family="Helvetica,sans-Serif" font-size="10.00">HealthGPS/analysis</text>
<text text-anchor="middle" x="1029.75" y="-387.5" font-family="Helvetica,sans-Serif" font-size="10.00">_definition.h</text>
</a>
</g>
</g>
<!-- Node2&#45;&gt;Node3 -->
<g id="edge2" class="edge">
<title>Node2&#45;&gt;Node3</title>
<path fill="none" stroke="midnightblue" d="M1252.38,-520.55C1205.03,-516.01 1145.96,-504.78 1099.75,-478 1071.35,-461.54 1048.92,-429.19 1037.67,-410.58"/>
<polygon fill="midnightblue" stroke="midnightblue" points="1252.34,-524.06 1262.61,-521.45 1252.95,-517.09 1252.34,-524.06"/>
</g>
<!-- Node14 -->
<g id="node14" class="node">
<title>Node14</title>
<g id="a_node14"><a xlink:href="converter_8h.html" target="_top" xlink:title=" ">
<polygon fill="none" stroke="black" points="1216.75,-319 1216.75,-338 1342.75,-338 1342.75,-319 1216.75,-319"/>
<text text-anchor="middle" x="1279.75" y="-326" font-family="Helvetica,sans-Serif" font-size="10.00">HealthGPS/converter.h</text>
</a>
</g>
</g>
<!-- Node2&#45;&gt;Node14 -->
<g id="edge25" class="edge">
<title>Node2&#45;&gt;Node14</title>
<path fill="none" stroke="midnightblue" d="M1329.58,-504.81C1318.08,-464.35 1290.73,-368.14 1282.28,-338.41"/>
<polygon fill="midnightblue" stroke="midnightblue" points="1326.22,-505.77 1332.32,-514.44 1332.95,-503.86 1326.22,-505.77"/>
</g>
<!-- Node18 -->
<g id="node18" class="node">
<title>Node18</title>
<g id="a_node18"><a xlink:href="baseline__sync__message_8h.html" target="_top" xlink:title=" ">
<polygon fill="none" stroke="black" points="2004.25,-246.5 2004.25,-276.5 2117.25,-276.5 2117.25,-246.5 2004.25,-246.5"/>
<text text-anchor="start" x="2012.25" y="-264.5" font-family="Helvetica,sans-Serif" font-size="10.00">HealthGPS/baseline</text>
<text text-anchor="middle" x="2060.75" y="-253.5" font-family="Helvetica,sans-Serif" font-size="10.00">_sync_message.h</text>
</a>
</g>
</g>
<!-- Node2&#45;&gt;Node18 -->
<g id="edge21" class="edge">
<title>Node2&#45;&gt;Node18</title>
<path fill="none" stroke="midnightblue" d="M1417.16,-518.12C1515.86,-511.5 1674.88,-498.13 1730.75,-478 1865.3,-429.52 2000.11,-316.57 2045.07,-276.72"/>
<polygon fill="midnightblue" stroke="midnightblue" points="1416.66,-514.65 1406.91,-518.8 1417.12,-521.63 1416.66,-514.65"/>
</g>
<!-- Node20 -->
<g id="node20" class="node">
<title>Node20</title>
<g id="a_node20"><a xlink:href="default__cancer__model_8h.html" target="_top" xlink:title=" ">
<polygon fill="none" stroke="black" points="1470.25,-313.5 1470.25,-343.5 1613.25,-343.5 1613.25,-313.5 1470.25,-313.5"/>
<text text-anchor="start" x="1478.25" y="-331.5" font-family="Helvetica,sans-Serif" font-size="10.00">HealthGPS/default_cancer</text>
<text text-anchor="middle" x="1541.75" y="-320.5" font-family="Helvetica,sans-Serif" font-size="10.00">_model.h</text>
</a>
</g>
</g>
<!-- Node2&#45;&gt;Node20 -->
<g id="edge26" class="edge">
<title>Node2&#45;&gt;Node20</title>
<path fill="none" stroke="midnightblue" d="M1372.42,-511.03C1415.82,-495.24 1485.99,-463.17 1523.75,-411 1538.37,-390.81 1541.47,-360.96 1541.93,-343.55"/>
<polygon fill="midnightblue" stroke="midnightblue" points="1371.06,-507.8 1362.8,-514.43 1373.39,-514.4 1371.06,-507.8"/>
</g>
<!-- Node24 -->
<g id="node24" class="node">
<title>Node24</title>
<g id="a_node24"><a xlink:href="default__disease__model_8h.html" target="_top" xlink:title=" ">
<polygon fill="none" stroke="black" points="1663.25,-313.5 1663.25,-343.5 1812.25,-343.5 1812.25,-313.5 1663.25,-313.5"/>
<text text-anchor="start" x="1671.25" y="-331.5" font-family="Helvetica,sans-Serif" font-size="10.00">HealthGPS/default_disease</text>
<text text-anchor="middle" x="1737.75" y="-320.5" font-family="Helvetica,sans-Serif" font-size="10.00">_model.h</text>
</a>
</g>
</g>
<!-- Node2&#45;&gt;Node24 -->
<g id="edge31" class="edge">
<title>Node2&#45;&gt;Node24</title>
<path fill="none" stroke="midnightblue" d="M1417.09,-523.85C1513.65,-523.05 1665.79,-515.6 1706.75,-478 1744.97,-442.91 1742.73,-373.89 1739.66,-343.94"/>
<polygon fill="midnightblue" stroke="midnightblue" points="1417.03,-520.35 1407.05,-523.91 1417.07,-527.35 1417.03,-520.35"/>
</g>
<!-- Node26 -->
<g id="node26" class="node">
<title>Node26</title>
<g id="a_node26"><a xlink:href="demographic_8h.html" target="_top" xlink:title=" ">
<polygon fill="none" stroke="black" points="909.75,-252 909.75,-271 1053.75,-271 1053.75,-252 909.75,-252"/>
<text text-anchor="middle" x="981.75" y="-259" font-family="Helvetica,sans-Serif" font-size="10.00">HealthGPS/demographic.h</text>
</a>
</g>
</g>
<!-- Node2&#45;&gt;Node26 -->
<g id="edge34" class="edge">
<title>Node2&#45;&gt;Node26</title>
<path fill="none" stroke="midnightblue" d="M1256.76,-512.26C1227.98,-505.65 1196.22,-495.03 1170.75,-478 1124.94,-447.36 1130.8,-421.7 1094.75,-380 1057.92,-337.39 1010.07,-290.02 990.59,-271.04"/>
<polygon fill="midnightblue" stroke="midnightblue" points="1256.28,-515.73 1266.8,-514.43 1257.76,-508.89 1256.28,-515.73"/>
</g>
<!-- Node27 -->
<g id="node27" class="node">
<title>Node27</title>
<g id="a_node27"><a xlink:href="hierarchical__model__static_8cpp.html" target="_top" xlink:title=" ">
<polygon fill="none" stroke="black" points="1569.75,-447.5 1569.75,-477.5 1697.75,-477.5 1697.75,-447.5 1569.75,-447.5"/>
<text text-anchor="start" x="1577.75" y="-465.5" font-family="Helvetica,sans-Serif" font-size="10.00">HealthGPS/hierarchical</text>
<text text-anchor="middle" x="1633.75" y="-454.5" font-family="Helvetica,sans-Serif" font-size="10.00">_model_static.cpp</text>
</a>
</g>
</g>
<!-- Node2&#45;&gt;Node27 -->
<g id="edge37" class="edge">
<title>Node2&#45;&gt;Node27</title>
<path fill="none" stroke="midnightblue" d="M1387.7,-512.46C1438.5,-502.36 1515.27,-487.08 1569.53,-476.28"/>
<polygon fill="midnightblue" stroke="midnightblue" points="1386.72,-509.09 1377.59,-514.48 1388.08,-515.96 1386.72,-509.09"/>
</g>
<!-- Node2&#45;&gt;Node28 -->
<g id="edge38" class="edge">
<title>Node2&#45;&gt;Node28</title>
<path fill="none" stroke="midnightblue" d="M1311.69,-509.28C1295.68,-499.75 1274.43,-487.11 1258.32,-477.52"/>
<polygon fill="midnightblue" stroke="midnightblue" points="1310.04,-512.37 1320.43,-514.48 1313.62,-506.35 1310.04,-512.37"/>
</g>
<!-- Node4 -->
<g id="node4" class="node">
<title>Node4</title>
<g id="a_node4"><a xlink:href="analysis__module_8h.html" target="_top" xlink:title=" ">
<polygon fill="none" stroke="black" points="779.75,-246.5 779.75,-276.5 891.75,-276.5 891.75,-246.5 779.75,-246.5"/>
<text text-anchor="start" x="787.75" y="-264.5" font-family="Helvetica,sans-Serif" font-size="10.00">HealthGPS/analysis</text>
<text text-anchor="middle" x="835.75" y="-253.5" font-family="Helvetica,sans-Serif" font-size="10.00">_module.h</text>
</a>
</g>
</g>
<!-- Node3&#45;&gt;Node4 -->
<g id="edge3" class="edge">
<title>Node3&#45;&gt;Node4</title>
<path fill="none" stroke="midnightblue" d="M1000.54,-374.62C960.88,-347.64 890.98,-300.08 856.37,-276.52"/>
<polygon fill="midnightblue" stroke="midnightblue" points="998.75,-377.64 1008.99,-380.37 1002.69,-371.85 998.75,-377.64"/>
</g>
<!-- Node3&#45;&gt;Node14 -->
<g id="edge15" class="edge">
<title>Node3&#45;&gt;Node14</title>
<path fill="none" stroke="midnightblue" d="M1093.56,-377.91C1142.52,-365.18 1208.11,-348.13 1246.95,-338.03"/>
<polygon fill="midnightblue" stroke="midnightblue" points="1092.49,-374.57 1083.69,-380.48 1094.25,-381.35 1092.49,-374.57"/>
</g>
<!-- Node5 -->
<g id="node5" class="node">
<title>Node5</title>
<g id="a_node5"><a xlink:href="analysis__module_8cpp.html" target="_top" xlink:title=" ">
<polygon fill="none" stroke="black" points="1087.75,-179.5 1087.75,-209.5 1199.75,-209.5 1199.75,-179.5 1087.75,-179.5"/>
<text text-anchor="start" x="1095.75" y="-197.5" font-family="Helvetica,sans-Serif" font-size="10.00">HealthGPS/analysis</text>
<text text-anchor="middle" x="1143.75" y="-186.5" font-family="Helvetica,sans-Serif" font-size="10.00">_module.cpp</text>
</a>
</g>
</g>
<!-- Node4&#45;&gt;Node5 -->
<g id="edge4" class="edge">
<title>Node4&#45;&gt;Node5</title>
<path fill="none" stroke="midnightblue" d="M901.6,-245.83C971.35,-230.85 1040.66,-216.54 1087.72,-206.9"/>
<polygon fill="midnightblue" stroke="midnightblue" points="900.8,-242.43 891.76,-247.95 902.27,-249.27 900.8,-242.43"/>
</g>
<!-- Node6 -->
<g id="node6" class="node">
<title>Node6</title>
<g id="a_node6"><a xlink:href="simulation__module_8h.html" target="_top" xlink:title=" ">
<polygon fill="none" stroke="black" points="648.25,-179.5 648.25,-209.5 771.25,-209.5 771.25,-179.5 648.25,-179.5"/>
<text text-anchor="start" x="656.25" y="-197.5" font-family="Helvetica,sans-Serif" font-size="10.00">HealthGPS/simulation</text>
<text text-anchor="middle" x="709.75" y="-186.5" font-family="Helvetica,sans-Serif" font-size="10.00">_module.h</text>
</a>
</g>
</g>
<!-- Node4&#45;&gt;Node6 -->
<g id="edge5" class="edge">
<title>Node4&#45;&gt;Node6</title>
<path fill="none" stroke="midnightblue" d="M799.34,-241.71C779.47,-231.46 755.27,-218.98 737.04,-209.58"/>
<polygon fill="midnightblue" stroke="midnightblue" points="797.92,-244.92 808.41,-246.4 801.13,-238.7 797.92,-244.92"/>
</g>
<!-- Node7 -->
<g id="node7" class="node">
<title>Node7</title>
<g id="a_node7"><a xlink:href="HealthGPS_2api_8h.html" target="_top" xlink:title=" ">
<polygon fill="none" stroke="black" points="579.25,-56.5 579.25,-75.5 674.25,-75.5 674.25,-56.5 579.25,-56.5"/>
<text text-anchor="middle" x="626.75" y="-63.5" font-family="Helvetica,sans-Serif" font-size="10.00">HealthGPS/api.h</text>
</a>
</g>
</g>
<!-- Node6&#45;&gt;Node7 -->
<g id="edge6" class="edge">
<title>Node6&#45;&gt;Node7</title>
<path fill="none" stroke="midnightblue" d="M670.99,-173.98C658.84,-165.99 646.57,-155.62 638.75,-143 625.53,-121.65 625.26,-90.67 626.04,-75.72"/>
<polygon fill="midnightblue" stroke="midnightblue" points="669.4,-177.11 679.75,-179.37 673.06,-171.15 669.4,-177.11"/>
</g>
<!-- Node9 -->
<g id="node9" class="node">
<title>Node9</title>
<g id="a_node9"><a xlink:href="healthgps_8h.html" target="_top" xlink:title=" ">
<polygon fill="none" stroke="black" points="789.75,-118 789.75,-137 917.75,-137 917.75,-118 789.75,-118"/>
<text text-anchor="middle" x="853.75" y="-125" font-family="Helvetica,sans-Serif" font-size="10.00">HealthGPS/healthgps.h</text>
</a>
</g>
</g>
<!-- Node6&#45;&gt;Node9 -->
<g id="edge8" class="edge">
<title>Node6&#45;&gt;Node9</title>
<path fill="none" stroke="midnightblue" d="M750.45,-175.13C778.16,-162.62 813.57,-146.64 834.91,-137.01"/>
<polygon fill="midnightblue" stroke="midnightblue" points="748.67,-172.09 741,-179.4 751.55,-178.47 748.67,-172.09"/>
</g>
<!-- Node13 -->
<g id="node13" class="node">
<title>Node13</title>
<g id="a_node13"><a xlink:href="simulation__module_8cpp.html" target="_top" xlink:title=" ">
<polygon fill="none" stroke="black" points="648.25,-112.5 648.25,-142.5 771.25,-142.5 771.25,-112.5 648.25,-112.5"/>
<text text-anchor="start" x="656.25" y="-130.5" font-family="Helvetica,sans-Serif" font-size="10.00">HealthGPS/simulation</text>
<text text-anchor="middle" x="709.75" y="-119.5" font-family="Helvetica,sans-Serif" font-size="10.00">_module.cpp</text>
</a>
</g>
</g>
<!-- Node6&#45;&gt;Node13 -->
<g id="edge14" class="edge">
<title>Node6&#45;&gt;Node13</title>
<path fill="none" stroke="midnightblue" d="M709.75,-169.11C709.75,-160.15 709.75,-150.32 709.75,-142.58"/>
<polygon fill="midnightblue" stroke="midnightblue" points="706.25,-169.4 709.75,-179.4 713.25,-169.4 706.25,-169.4"/>
</g>
<!-- Node8 -->
<g id="node8" class="node">
<title>Node8</title>
<g id="a_node8"><a xlink:href="program_8cpp.html" target="_top" xlink:title=" ">
<polygon fill="none" stroke="black" points="539.25,-0.5 539.25,-19.5 714.25,-19.5 714.25,-0.5 539.25,-0.5"/>
<text text-anchor="middle" x="626.75" y="-7.5" font-family="Helvetica,sans-Serif" font-size="10.00">HealthGPS.Console/program.cpp</text>
</a>
</g>
</g>
<!-- Node7&#45;&gt;Node8 -->
<g id="edge7" class="edge">
<title>Node7&#45;&gt;Node8</title>
<path fill="none" stroke="midnightblue" d="M626.75,-45.8C626.75,-36.91 626.75,-26.78 626.75,-19.75"/>
<polygon fill="midnightblue" stroke="midnightblue" points="623.25,-46.08 626.75,-56.08 630.25,-46.08 623.25,-46.08"/>
</g>
<!-- Node9&#45;&gt;Node7 -->
<g id="edge9" class="edge">
<title>Node9&#45;&gt;Node7</title>
<path fill="none" stroke="midnightblue" d="M811.39,-115.4C767.3,-103.84 699.22,-86 659.22,-75.51"/>
<polygon fill="midnightblue" stroke="midnightblue" points="810.67,-118.83 821.23,-117.98 812.44,-112.05 810.67,-118.83"/>
</g>
<!-- Node10 -->
<g id="node10" class="node">
<title>Node10</title>
<g id="a_node10"><a xlink:href="healthgps_8cpp.html" target="_top" xlink:title=" ">
<polygon fill="none" stroke="black" points="1207.75,-56.5 1207.75,-75.5 1347.75,-75.5 1347.75,-56.5 1207.75,-56.5"/>
<text text-anchor="middle" x="1277.75" y="-63.5" font-family="Helvetica,sans-Serif" font-size="10.00">HealthGPS/healthgps.cpp</text>
</a>
</g>
</g>
<!-- Node9&#45;&gt;Node10 -->
<g id="edge10" class="edge">
<title>Node9&#45;&gt;Node10</title>
<path fill="none" stroke="midnightblue" d="M924.47,-116.58C1006.33,-105.09 1139.8,-86.36 1217.12,-75.51"/>
<polygon fill="midnightblue" stroke="midnightblue" points="923.92,-113.12 914.5,-117.98 924.89,-120.05 923.92,-113.12"/>
</g>
<!-- Node11 -->
<g id="node11" class="node">
<title>Node11</title>
<g id="a_node11"><a xlink:href="configuration_8h.html" target="_top" xlink:title=" ">
<polygon fill="none" stroke="black" points="752.75,-56.5 752.75,-75.5 938.75,-75.5 938.75,-56.5 752.75,-56.5"/>
<text text-anchor="middle" x="845.75" y="-63.5" font-family="Helvetica,sans-Serif" font-size="10.00">HealthGPS.Console/configuration.h</text>
</a>
</g>
</g>
<!-- Node9&#45;&gt;Node11 -->
<g id="edge11" class="edge">
<title>Node9&#45;&gt;Node11</title>
<path fill="none" stroke="midnightblue" d="M851.24,-107.82C849.79,-97 848.03,-83.9 846.9,-75.51"/>
<polygon fill="midnightblue" stroke="midnightblue" points="847.81,-108.53 852.61,-117.98 854.74,-107.6 847.81,-108.53"/>
</g>
<!-- Node11&#45;&gt;Node8 -->
<g id="edge13" class="edge">
<title>Node11&#45;&gt;Node8</title>
<path fill="none" stroke="midnightblue" d="M801.24,-54.02C759.87,-43.82 699.11,-28.84 661.29,-19.52"/>
<polygon fill="midnightblue" stroke="midnightblue" points="800.5,-57.45 811.05,-56.44 802.18,-50.65 800.5,-57.45"/>
</g>
<!-- Node12 -->
<g id="node12" class="node">
<title>Node12</title>
<g id="a_node12"><a xlink:href="configuration_8cpp.html" target="_top" xlink:title=" ">
<polygon fill="none" stroke="black" points="747.25,-0.5 747.25,-19.5 944.25,-19.5 944.25,-0.5 747.25,-0.5"/>
<text text-anchor="middle" x="845.75" y="-7.5" font-family="Helvetica,sans-Serif" font-size="10.00">HealthGPS.Console/configuration.cpp</text>
</a>
</g>
</g>
<!-- Node11&#45;&gt;Node12 -->
<g id="edge12" class="edge">
<title>Node11&#45;&gt;Node12</title>
<path fill="none" stroke="midnightblue" d="M845.75,-45.8C845.75,-36.91 845.75,-26.78 845.75,-19.75"/>
<polygon fill="midnightblue" stroke="midnightblue" points="842.25,-46.08 845.75,-56.08 849.25,-46.08 842.25,-46.08"/>
</g>
<!-- Node14&#45;&gt;Node5 -->
<g id="edge16" class="edge">
<title>Node14&#45;&gt;Node5</title>
<path fill="none" stroke="midnightblue" d="M1269.84,-310.23C1259.22,-292.7 1241.11,-265.44 1220.75,-246 1205.61,-231.54 1185.8,-218.65 1170.07,-209.52"/>
<polygon fill="midnightblue" stroke="midnightblue" points="1266.84,-312.03 1274.94,-318.86 1272.87,-308.47 1266.84,-312.03"/>
</g>
<!-- Node14&#45;&gt;Node10 -->
<g id="edge19" class="edge">
<title>Node14&#45;&gt;Node10</title>
<path fill="none" stroke="midnightblue" d="M1279.61,-308.72C1279.21,-256.77 1278.1,-112.61 1277.82,-75.7"/>
<polygon fill="midnightblue" stroke="midnightblue" points="1276.11,-308.86 1279.69,-318.83 1283.11,-308.81 1276.11,-308.86"/>
</g>
<!-- Node15 -->
<g id="node15" class="node">
<title>Node15</title>
<g id="a_node15"><a xlink:href="converter_8cpp.html" target="_top" xlink:title=" ">
<polygon fill="none" stroke="black" points="1344.25,-252 1344.25,-271 1481.25,-271 1481.25,-252 1344.25,-252"/>
<text text-anchor="middle" x="1412.75" y="-259" font-family="Helvetica,sans-Serif" font-size="10.00">HealthGPS/converter.cpp</text>
</a>
</g>
</g>
<!-- Node14&#45;&gt;Node15 -->
<g id="edge17" class="edge">
<title>Node14&#45;&gt;Node15</title>
<path fill="none" stroke="midnightblue" d="M1306.47,-314.44C1332.81,-301.57 1372.33,-282.26 1395.02,-271.17"/>
<polygon fill="midnightblue" stroke="midnightblue" points="1304.86,-311.33 1297.41,-318.87 1307.94,-317.62 1304.86,-311.33"/>
</g>
<!-- Node16 -->
<g id="node16" class="node">
<title>Node16</title>
<g id="a_node16"><a xlink:href="demographic_8cpp.html" target="_top" xlink:title=" ">
<polygon fill="none" stroke="black" points="1306.25,-185 1306.25,-204 1461.25,-204 1461.25,-185 1306.25,-185"/>
<text text-anchor="middle" x="1383.75" y="-192" font-family="Helvetica,sans-Serif" font-size="10.00">HealthGPS/demographic.cpp</text>
</a>
</g>
</g>
<!-- Node14&#45;&gt;Node16 -->
<g id="edge18" class="edge">
<title>Node14&#45;&gt;Node16</title>
<path fill="none" stroke="midnightblue" d="M1290.46,-309.75C1300.97,-292.8 1317.84,-266.83 1334.75,-246 1347.38,-230.45 1363.94,-214.1 1374.21,-204.35"/>
<polygon fill="midnightblue" stroke="midnightblue" points="1287.29,-308.22 1285.05,-318.58 1293.26,-311.88 1287.29,-308.22"/>
</g>
<!-- Node17 -->
<g id="node17" class="node">
<title>Node17</title>
<g id="a_node17"><a xlink:href="repository_8cpp.html" target="_top" xlink:title=" ">
<polygon fill="none" stroke="black" points="1071.75,-252 1071.75,-271 1211.75,-271 1211.75,-252 1071.75,-252"/>
<text text-anchor="middle" x="1141.75" y="-259" font-family="Helvetica,sans-Serif" font-size="10.00">HealthGPS/repository.cpp</text>
</a>
</g>
</g>
<!-- Node14&#45;&gt;Node17 -->
<g id="edge20" class="edge">
<title>Node14&#45;&gt;Node17</title>
<path fill="none" stroke="midnightblue" d="M1252.03,-314.44C1224.7,-301.57 1183.7,-282.26 1160.15,-271.17"/>
<polygon fill="midnightblue" stroke="midnightblue" points="1250.89,-317.77 1261.43,-318.87 1253.87,-311.44 1250.89,-317.77"/>
</g>
<!-- Node18&#45;&gt;Node10 -->
<g id="edge23" class="edge">
<title>Node18&#45;&gt;Node10</title>
<path fill="none" stroke="midnightblue" d="M2061.89,-236.35C2061.37,-217.95 2057.4,-193.39 2041.75,-179 1941.3,-86.6 1517.28,-70.33 1347.99,-67.54"/>
<polygon fill="midnightblue" stroke="midnightblue" points="2058.39,-236.35 2061.87,-246.36 2065.39,-236.36 2058.39,-236.35"/>
</g>
<!-- Node18&#45;&gt;Node16 -->
<g id="edge22" class="edge">
<title>Node18&#45;&gt;Node16</title>
<path fill="none" stroke="midnightblue" d="M1994.18,-245.89C1797.48,-216.55 1576.1,-203.67 1461.44,-198.49"/>
<polygon fill="midnightblue" stroke="midnightblue" points="1993.71,-249.36 2004.12,-247.39 1994.75,-242.43 1993.71,-249.36"/>
</g>
<!-- Node19 -->
<g id="node19" class="node">
<title>Node19</title>
<g id="a_node19"><a xlink:href="riskfactor__adjustment_8cpp.html" target="_top" xlink:title=" ">
<polygon fill="none" stroke="black" points="1914.75,-179.5 1914.75,-209.5 2032.75,-209.5 2032.75,-179.5 1914.75,-179.5"/>
<text text-anchor="start" x="1922.75" y="-197.5" font-family="Helvetica,sans-Serif" font-size="10.00">HealthGPS/riskfactor</text>
<text text-anchor="middle" x="1973.75" y="-186.5" font-family="Helvetica,sans-Serif" font-size="10.00">_adjustment.cpp</text>
</a>
</g>
</g>
<!-- Node18&#45;&gt;Node19 -->
<g id="edge24" class="edge">
<title>Node18&#45;&gt;Node19</title>
<path fill="none" stroke="midnightblue" d="M2033.54,-240.17C2020.24,-230.23 2004.56,-218.51 1992.59,-209.58"/>
<polygon fill="midnightblue" stroke="midnightblue" points="2031.77,-243.21 2041.88,-246.4 2035.96,-237.61 2031.77,-243.21"/>
</g>
<!-- Node20&#45;&gt;Node15 -->
<g id="edge27" class="edge">
<title>Node20&#45;&gt;Node15</title>
<path fill="none" stroke="midnightblue" d="M1504.65,-308.8C1479.92,-296.34 1448.59,-280.56 1429.64,-271.01"/>
<polygon fill="midnightblue" stroke="midnightblue" points="1503.26,-312.02 1513.76,-313.4 1506.41,-305.77 1503.26,-312.02"/>
</g>
<!-- Node21 -->
<g id="node21" class="node">
<title>Node21</title>
<g id="a_node21"><a xlink:href="default__cancer__model_8cpp.html" target="_top" xlink:title=" ">
<polygon fill="none" stroke="black" points="1499.25,-246.5 1499.25,-276.5 1642.25,-276.5 1642.25,-246.5 1499.25,-246.5"/>
<text text-anchor="start" x="1507.25" y="-264.5" font-family="Helvetica,sans-Serif" font-size="10.00">HealthGPS/default_cancer</text>
<text text-anchor="middle" x="1570.75" y="-253.5" font-family="Helvetica,sans-Serif" font-size="10.00">_model.cpp</text>
</a>
</g>
</g>
<!-- Node20&#45;&gt;Node21 -->
<g id="edge28" class="edge">
<title>Node20&#45;&gt;Node21</title>
<path fill="none" stroke="midnightblue" d="M1552.24,-303.99C1556.34,-294.8 1560.9,-284.58 1564.47,-276.58"/>
<polygon fill="midnightblue" stroke="midnightblue" points="1548.92,-302.84 1548.05,-313.4 1555.32,-305.69 1548.92,-302.84"/>
</g>
<!-- Node22 -->
<g id="node22" class="node">
<title>Node22</title>
<g id="a_node22"><a xlink:href="disease__registry_8h.html" target="_top" xlink:title=" ">
<polygon fill="none" stroke="black" points="1660.25,-252 1660.25,-271 1819.25,-271 1819.25,-252 1660.25,-252"/>
<text text-anchor="middle" x="1739.75" y="-259" font-family="Helvetica,sans-Serif" font-size="10.00">HealthGPS/disease_registry.h</text>
</a>
</g>
</g>
<!-- Node20&#45;&gt;Node22 -->
<g id="edge29" class="edge">
<title>Node20&#45;&gt;Node22</title>
<path fill="none" stroke="midnightblue" d="M1594.24,-310.27C1632.82,-297.6 1683.6,-280.93 1713.84,-271.01"/>
<polygon fill="midnightblue" stroke="midnightblue" points="1593.13,-306.95 1584.72,-313.4 1595.31,-313.6 1593.13,-306.95"/>
</g>
<!-- Node23 -->
<g id="node23" class="node">
<title>Node23</title>
<g id="a_node23"><a xlink:href="disease_8cpp.html" target="_top" xlink:title=" ">
<polygon fill="none" stroke="black" points="840.25,-185 840.25,-204 969.25,-204 969.25,-185 840.25,-185"/>
<text text-anchor="middle" x="904.75" y="-192" font-family="Helvetica,sans-Serif" font-size="10.00">HealthGPS/disease.cpp</text>
</a>
</g>
</g>
<!-- Node22&#45;&gt;Node23 -->
<g id="edge30" class="edge">
<title>Node22&#45;&gt;Node23</title>
<path fill="none" stroke="midnightblue" d="M1683.39,-250.35C1672.9,-248.71 1662.01,-247.16 1651.75,-246 1398.21,-217.22 1333.24,-228.6 1078.75,-210 1042.63,-207.36 1002.31,-204.03 969.59,-201.22"/>
<polygon fill="midnightblue" stroke="midnightblue" points="1682.86,-253.81 1693.29,-251.95 1683.98,-246.9 1682.86,-253.81"/>
</g>
<!-- Node24&#45;&gt;Node22 -->
<g id="edge33" class="edge">
<title>Node24&#45;&gt;Node22</title>
<path fill="none" stroke="midnightblue" d="M1738.5,-303.25C1738.84,-292.02 1739.23,-279.38 1739.49,-271.19"/>
<polygon fill="midnightblue" stroke="midnightblue" points="1735,-303.29 1738.19,-313.4 1741.99,-303.51 1735,-303.29"/>
</g>
<!-- Node25 -->
<g id="node25" class="node">
<title>Node25</title>
<g id="a_node25"><a xlink:href="default__disease__model_8cpp.html" target="_top" xlink:title=" ">
<polygon fill="none" stroke="black" points="1837.25,-246.5 1837.25,-276.5 1986.25,-276.5 1986.25,-246.5 1837.25,-246.5"/>
<text text-anchor="start" x="1845.25" y="-264.5" font-family="Helvetica,sans-Serif" font-size="10.00">HealthGPS/default_disease</text>
<text text-anchor="middle" x="1911.75" y="-253.5" font-family="Helvetica,sans-Serif" font-size="10.00">_model.cpp</text>
</a>
</g>
</g>
<!-- Node24&#45;&gt;Node25 -->
<g id="edge32" class="edge">
<title>Node24&#45;&gt;Node25</title>
<path fill="none" stroke="midnightblue" d="M1785.08,-309.82C1813.05,-299.37 1847.98,-286.32 1874.07,-276.58"/>
<polygon fill="midnightblue" stroke="midnightblue" points="1783.65,-306.62 1775.51,-313.4 1786.1,-313.18 1783.65,-306.62"/>
</g>
<!-- Node26&#45;&gt;Node6 -->
<g id="edge36" class="edge">
<title>Node26&#45;&gt;Node6</title>
<path fill="none" stroke="midnightblue" d="M935.92,-249.55C889.88,-238.55 818.76,-221.55 768.59,-209.56"/>
<polygon fill="midnightblue" stroke="midnightblue" points="935.37,-253.02 945.91,-251.94 937,-246.21 935.37,-253.02"/>
</g>
<!-- Node26&#45;&gt;Node16 -->
<g id="edge35" class="edge">
<title>Node26&#45;&gt;Node16</title>
<path fill="none" stroke="midnightblue" d="M1038.3,-250.22C1046.5,-248.78 1054.84,-247.33 1062.75,-246 1155.24,-230.45 1262.98,-213.8 1327.16,-204.03"/>
<polygon fill="midnightblue" stroke="midnightblue" points="1037.65,-246.78 1028.41,-251.97 1038.87,-253.67 1037.65,-246.78"/>
</g>
<!-- Node28&#45;&gt;Node14 -->
<g id="edge39" class="edge">
<title>Node28&#45;&gt;Node14</title>
<path fill="none" stroke="midnightblue" d="M1247.52,-438.4C1251.82,-429.96 1256.39,-420.21 1259.75,-411 1269.15,-385.27 1275.53,-353.38 1278.26,-338.25"/>
<polygon fill="midnightblue" stroke="midnightblue" points="1244.4,-436.81 1242.84,-447.29 1250.59,-440.07 1244.4,-436.81"/>
</g>
<!-- Node29 -->
<g id="node29" class="node">
<title>Node29</title>
<g id="a_node29"><a xlink:href="disease__definition_8h.html" target="_top" xlink:title=" ">
<polygon fill="none" stroke="black" points="1345.25,-386 1345.25,-405 1514.25,-405 1514.25,-386 1345.25,-386"/>
<text text-anchor="middle" x="1429.75" y="-393" font-family="Helvetica,sans-Serif" font-size="10.00">HealthGPS/disease_definition.h</text>
</a>
</g>
</g>
<!-- Node28&#45;&gt;Node29 -->
<g id="edge40" class="edge">
<title>Node28&#45;&gt;Node29</title>
<path fill="none" stroke="midnightblue" d="M1286.93,-444.11C1324.87,-431.46 1374.58,-414.89 1404.23,-405.01"/>
<polygon fill="midnightblue" stroke="midnightblue" points="1285.45,-440.91 1277.07,-447.4 1287.66,-447.55 1285.45,-440.91"/>
</g>
<!-- Node40 -->
<g id="node40" class="node">
<title>Node40</title>
<g id="a_node40"><a xlink:href="relative__risk_8cpp.html" target="_top" xlink:title=" ">
<polygon fill="none" stroke="black" points="1142.25,-380.5 1142.25,-410.5 1251.25,-410.5 1251.25,-380.5 1142.25,-380.5"/>
<text text-anchor="start" x="1150.25" y="-398.5" font-family="Helvetica,sans-Serif" font-size="10.00">HealthGPS/relative</text>
<text text-anchor="middle" x="1196.75" y="-387.5" font-family="Helvetica,sans-Serif" font-size="10.00">_risk.cpp</text>
</a>
</g>
</g>
<!-- Node28&#45;&gt;Node40 -->
<g id="edge63" class="edge">
<title>Node28&#45;&gt;Node40</title>
<path fill="none" stroke="midnightblue" d="M1221.35,-438.58C1215.89,-429.24 1209.76,-418.75 1204.98,-410.58"/>
<polygon fill="midnightblue" stroke="midnightblue" points="1218.44,-440.53 1226.51,-447.4 1224.48,-437 1218.44,-440.53"/>
</g>
<!-- Node29&#45;&gt;Node14 -->
<g id="edge41" class="edge">
<title>Node29&#45;&gt;Node14</title>
<path fill="none" stroke="midnightblue" d="M1400.4,-381.78C1370.7,-368.91 1325.57,-349.35 1299.75,-338.17"/>
<polygon fill="midnightblue" stroke="midnightblue" points="1399.27,-385.1 1409.83,-385.87 1402.05,-378.68 1399.27,-385.1"/>
</g>
<!-- Node29&#45;&gt;Node20 -->
<g id="edge42" class="edge">
<title>Node29&#45;&gt;Node20</title>
<path fill="none" stroke="midnightblue" d="M1453.7,-380.6C1472.5,-369.69 1498.58,-354.55 1517.48,-343.59"/>
<polygon fill="midnightblue" stroke="midnightblue" points="1451.75,-377.69 1444.86,-385.73 1455.26,-383.74 1451.75,-377.69"/>
</g>
<!-- Node29&#45;&gt;Node24 -->
<g id="edge43" class="edge">
<title>Node29&#45;&gt;Node24</title>
<path fill="none" stroke="midnightblue" d="M1480.34,-383.82C1532.43,-372.83 1613.84,-355.65 1671.13,-343.56"/>
<polygon fill="midnightblue" stroke="midnightblue" points="1479.4,-380.45 1470.34,-385.94 1480.84,-387.3 1479.4,-380.45"/>
</g>
<!-- Node30 -->
<g id="node30" class="node">
<title>Node30</title>
<g id="a_node30"><a xlink:href="repository_8h.html" target="_top" xlink:title=" ">
<polygon fill="none" stroke="black" points="638.75,-319 638.75,-338 766.75,-338 766.75,-319 638.75,-319"/>
<text text-anchor="middle" x="702.75" y="-326" font-family="Helvetica,sans-Serif" font-size="10.00">HealthGPS/repository.h</text>
</a>
</g>
</g>
<!-- Node29&#45;&gt;Node30 -->
<g id="edge44" class="edge">
<title>Node29&#45;&gt;Node30</title>
<path fill="none" stroke="midnightblue" d="M1334.79,-386.01C1184.36,-372.56 895.2,-346.71 766.84,-335.23"/>
<polygon fill="midnightblue" stroke="midnightblue" points="1334.66,-389.51 1344.93,-386.92 1335.29,-382.54 1334.66,-389.51"/>
</g>
<!-- Node30&#45;&gt;Node4 -->
<g id="edge45" class="edge">
<title>Node30&#45;&gt;Node4</title>
<path fill="none" stroke="midnightblue" d="M729.41,-314.47C751.89,-303.49 784,-287.79 807.05,-276.53"/>
<polygon fill="midnightblue" stroke="midnightblue" points="727.86,-311.33 720.41,-318.87 730.94,-317.62 727.86,-311.33"/>
</g>
<!-- Node30&#45;&gt;Node17 -->
<g id="edge53" class="edge">
<title>Node30&#45;&gt;Node17</title>
<path fill="none" stroke="midnightblue" d="M776.93,-318.02C849.82,-308.49 964.13,-292.96 1062.75,-277 1073.9,-275.2 1085.91,-273.08 1097.11,-271.03"/>
<polygon fill="midnightblue" stroke="midnightblue" points="776.39,-314.56 766.93,-319.33 777.3,-321.51 776.39,-314.56"/>
</g>
<!-- Node30&#45;&gt;Node26 -->
<g id="edge46" class="edge">
<title>Node30&#45;&gt;Node26</title>
<path fill="none" stroke="midnightblue" d="M749.35,-316.64C804.32,-303.84 894.58,-282.81 944.91,-271.08"/>
<polygon fill="midnightblue" stroke="midnightblue" points="748.46,-313.26 739.51,-318.94 750.05,-320.08 748.46,-313.26"/>
</g>
<!-- Node31 -->
<g id="node31" class="node">
<title>Node31</title>
<g id="a_node31"><a xlink:href="HealthGPS_2disease_8h.html" target="_top" xlink:title=" ">
<polygon fill="none" stroke="black" points="643.75,-252 643.75,-271 761.75,-271 761.75,-252 643.75,-252"/>
<text text-anchor="middle" x="702.75" y="-259" font-family="Helvetica,sans-Serif" font-size="10.00">HealthGPS/disease.h</text>
</a>
</g>
</g>
<!-- Node30&#45;&gt;Node31 -->
<g id="edge47" class="edge">
<title>Node30&#45;&gt;Node31</title>
<path fill="none" stroke="midnightblue" d="M702.75,-308.54C702.75,-296.17 702.75,-280.62 702.75,-271.13"/>
<polygon fill="midnightblue" stroke="midnightblue" points="699.25,-308.73 702.75,-318.73 706.25,-308.73 699.25,-308.73"/>
</g>
<!-- Node32 -->
<g id="node32" class="node">
<title>Node32</title>
<g id="a_node32"><a xlink:href="modulefactory_8h.html" target="_top" xlink:title=" ">
<polygon fill="none" stroke="black" points="193.75,-252 193.75,-271 343.75,-271 343.75,-252 193.75,-252"/>
<text text-anchor="middle" x="268.75" y="-259" font-family="Helvetica,sans-Serif" font-size="10.00">HealthGPS/modulefactory.h</text>
</a>
</g>
</g>
<!-- Node30&#45;&gt;Node32 -->
<g id="edge50" class="edge">
<title>Node30&#45;&gt;Node32</title>
<path fill="none" stroke="midnightblue" d="M629.92,-317.59C559.07,-307.81 448.4,-292.15 352.75,-277 341.06,-275.15 328.47,-273.04 316.69,-271.01"/>
<polygon fill="midnightblue" stroke="midnightblue" points="629.7,-321.09 640.08,-318.99 630.65,-314.16 629.7,-321.09"/>
</g>
<!-- Node34 -->
<g id="node34" class="node">
<title>Node34</title>
<g id="a_node34"><a xlink:href="riskfactor_8h.html" target="_top" xlink:title=" ">
<polygon fill="none" stroke="black" points="361.75,-252 361.75,-271 487.75,-271 487.75,-252 361.75,-252"/>
<text text-anchor="middle" x="424.75" y="-259" font-family="Helvetica,sans-Serif" font-size="10.00">HealthGPS/riskfactor.h</text>
</a>
</g>
</g>
<!-- Node30&#45;&gt;Node34 -->
<g id="edge54" class="edge">
<title>Node30&#45;&gt;Node34</title>
<path fill="none" stroke="midnightblue" d="M656.32,-316.64C601.55,-303.84 511.61,-282.81 461.46,-271.08"/>
<polygon fill="midnightblue" stroke="midnightblue" points="655.59,-320.07 666.12,-318.94 657.18,-313.25 655.59,-320.07"/>
</g>
<!-- Node36 -->
<g id="node36" class="node">
<title>Node36</title>
<g id="a_node36"><a xlink:href="ses__noise__module_8h.html" target="_top" xlink:title=" ">
<polygon fill="none" stroke="black" points="506.25,-246.5 506.25,-276.5 625.25,-276.5 625.25,-246.5 506.25,-246.5"/>
<text text-anchor="start" x="514.25" y="-264.5" font-family="Helvetica,sans-Serif" font-size="10.00">HealthGPS/ses_noise</text>
<text text-anchor="middle" x="565.75" y="-253.5" font-family="Helvetica,sans-Serif" font-size="10.00">_module.h</text>
</a>
</g>
</g>
<!-- Node30&#45;&gt;Node36 -->
<g id="edge57" class="edge">
<title>Node30&#45;&gt;Node36</title>
<path fill="none" stroke="midnightblue" d="M675.3,-314.47C652.14,-303.49 619.06,-287.79 595.32,-276.53"/>
<polygon fill="midnightblue" stroke="midnightblue" points="674.03,-317.74 684.56,-318.87 677.03,-311.42 674.03,-317.74"/>
</g>
<!-- Node38 -->
<g id="node38" class="node">
<title>Node38</title>
<g id="a_node38"><a xlink:href="model__parser_8h.html" target="_top" xlink:title=" ">
<polygon fill="none" stroke="black" points="14.75,-246.5 14.75,-276.5 158.75,-276.5 158.75,-246.5 14.75,-246.5"/>
<text text-anchor="start" x="22.75" y="-264.5" font-family="Helvetica,sans-Serif" font-size="10.00">HealthGPS.Console/model</text>
<text text-anchor="middle" x="86.75" y="-253.5" font-family="Helvetica,sans-Serif" font-size="10.00">_parser.h</text>
</a>
</g>
</g>
<!-- Node30&#45;&gt;Node38 -->
<g id="edge60" class="edge">
<title>Node30&#45;&gt;Node38</title>
<path fill="none" stroke="midnightblue" d="M628.37,-321.42C527.64,-312.92 342.34,-296.33 184.75,-277 176.39,-275.97 167.64,-274.81 158.95,-273.6"/>
<polygon fill="midnightblue" stroke="midnightblue" points="628.18,-324.91 638.44,-322.27 628.77,-317.94 628.18,-324.91"/>
</g>
<!-- Node31&#45;&gt;Node6 -->
<g id="edge49" class="edge">
<title>Node31&#45;&gt;Node6</title>
<path fill="none" stroke="midnightblue" d="M704.77,-241.74C705.88,-231.49 707.22,-219 708.24,-209.59"/>
<polygon fill="midnightblue" stroke="midnightblue" points="701.29,-241.42 703.7,-251.73 708.25,-242.17 701.29,-241.42"/>
</g>
<!-- Node31&#45;&gt;Node23 -->
<g id="edge48" class="edge">
<title>Node31&#45;&gt;Node23</title>
<path fill="none" stroke="midnightblue" d="M739.22,-248.77C779.25,-235.89 842.53,-215.52 878.14,-204.06"/>
<polygon fill="midnightblue" stroke="midnightblue" points="738.02,-245.47 729.58,-251.87 740.17,-252.14 738.02,-245.47"/>
</g>
<!-- Node32&#45;&gt;Node6 -->
<g id="edge52" class="edge">
<title>Node32&#45;&gt;Node6</title>
<path fill="none" stroke="midnightblue" d="M325.82,-250.29C334.82,-248.78 344.03,-247.3 352.75,-246 479.47,-227.1 512.34,-230.83 638.75,-210 641.86,-209.49 645.03,-208.94 648.23,-208.36"/>
<polygon fill="midnightblue" stroke="midnightblue" points="325.06,-246.87 315.78,-251.99 326.23,-253.77 325.06,-246.87"/>
</g>
<!-- Node33 -->
<g id="node33" class="node">
<title>Node33</title>
<g id="a_node33"><a xlink:href="modulefactory_8cpp.html" target="_top" xlink:title=" ">
<polygon fill="none" stroke="black" points="177.25,-185 177.25,-204 338.25,-204 338.25,-185 177.25,-185"/>
<text text-anchor="middle" x="257.75" y="-192" font-family="Helvetica,sans-Serif" font-size="10.00">HealthGPS/modulefactory.cpp</text>
</a>
</g>
</g>
<!-- Node32&#45;&gt;Node33 -->
<g id="edge51" class="edge">
<title>Node32&#45;&gt;Node33</title>
<path fill="none" stroke="midnightblue" d="M265.54,-241.54C263.45,-229.17 260.82,-213.62 259.21,-204.13"/>
<polygon fill="midnightblue" stroke="midnightblue" points="262.15,-242.46 267.27,-251.73 269.05,-241.29 262.15,-242.46"/>
</g>
<!-- Node34&#45;&gt;Node6 -->
<g id="edge56" class="edge">
<title>Node34&#45;&gt;Node6</title>
<path fill="none" stroke="midnightblue" d="M472.17,-249.69C520.39,-238.69 595.31,-221.6 648.11,-209.56"/>
<polygon fill="midnightblue" stroke="midnightblue" points="471.28,-246.3 462.3,-251.94 472.83,-253.12 471.28,-246.3"/>
</g>
<!-- Node35 -->
<g id="node35" class="node">
<title>Node35</title>
<g id="a_node35"><a xlink:href="riskfactor_8cpp.html" target="_top" xlink:title=" ">
<polygon fill="none" stroke="black" points="356.25,-185 356.25,-204 493.25,-204 493.25,-185 356.25,-185"/>
<text text-anchor="middle" x="424.75" y="-192" font-family="Helvetica,sans-Serif" font-size="10.00">HealthGPS/riskfactor.cpp</text>
</a>
</g>
</g>
<!-- Node34&#45;&gt;Node35 -->
<g id="edge55" class="edge">
<title>Node34&#45;&gt;Node35</title>
<path fill="none" stroke="midnightblue" d="M424.75,-241.54C424.75,-229.17 424.75,-213.62 424.75,-204.13"/>
<polygon fill="midnightblue" stroke="midnightblue" points="421.25,-241.73 424.75,-251.73 428.25,-241.73 421.25,-241.73"/>
</g>
<!-- Node36&#45;&gt;Node6 -->
<g id="edge59" class="edge">
<title>Node36&#45;&gt;Node6</title>
<path fill="none" stroke="midnightblue" d="M606.14,-242.27C629.08,-231.92 657.35,-219.15 678.57,-209.58"/>
<polygon fill="midnightblue" stroke="midnightblue" points="604.67,-239.09 597,-246.4 607.55,-245.47 604.67,-239.09"/>
</g>
<!-- Node37 -->
<g id="node37" class="node">
<title>Node37</title>
<g id="a_node37"><a xlink:href="ses__noise__module_8cpp.html" target="_top" xlink:title=" ">
<polygon fill="none" stroke="black" points="511.25,-179.5 511.25,-209.5 630.25,-209.5 630.25,-179.5 511.25,-179.5"/>
<text text-anchor="start" x="519.25" y="-197.5" font-family="Helvetica,sans-Serif" font-size="10.00">HealthGPS/ses_noise</text>
<text text-anchor="middle" x="570.75" y="-186.5" font-family="Helvetica,sans-Serif" font-size="10.00">_module.cpp</text>
</a>
</g>
</g>
<!-- Node36&#45;&gt;Node37 -->
<g id="edge58" class="edge">
<title>Node36&#45;&gt;Node37</title>
<path fill="none" stroke="midnightblue" d="M567.61,-236.4C568.3,-227.37 569.07,-217.41 569.67,-209.58"/>
<polygon fill="midnightblue" stroke="midnightblue" points="564.12,-236.16 566.84,-246.4 571.09,-236.69 564.12,-236.16"/>
</g>
<!-- Node38&#45;&gt;Node8 -->
<g id="edge62" class="edge">
<title>Node38&#45;&gt;Node8</title>
<path fill="none" stroke="midnightblue" d="M38.99,-241.45C25.86,-233.74 13.2,-223.42 5.75,-210 -0.93,-197.95 -2.62,-189.94 5.75,-179 72.87,-91.31 406.85,-38.85 555.35,-19.52"/>
<polygon fill="midnightblue" stroke="midnightblue" points="37.64,-244.69 48.1,-246.37 40.97,-238.54 37.64,-244.69"/>
</g>
<!-- Node39 -->
<g id="node39" class="node">
<title>Node39</title>
<g id="a_node39"><a xlink:href="model__parser_8cpp.html" target="_top" xlink:title=" ">
<polygon fill="none" stroke="black" points="14.75,-179.5 14.75,-209.5 158.75,-209.5 158.75,-179.5 14.75,-179.5"/>
<text text-anchor="start" x="22.75" y="-197.5" font-family="Helvetica,sans-Serif" font-size="10.00">HealthGPS.Console/model</text>
<text text-anchor="middle" x="86.75" y="-186.5" font-family="Helvetica,sans-Serif" font-size="10.00">_parser.cpp</text>
</a>
</g>
</g>
<!-- Node38&#45;&gt;Node39 -->
<g id="edge61" class="edge">
<title>Node38&#45;&gt;Node39</title>
<path fill="none" stroke="midnightblue" d="M86.75,-236.11C86.75,-227.15 86.75,-217.32 86.75,-209.58"/>
<polygon fill="midnightblue" stroke="midnightblue" points="83.25,-236.4 86.75,-246.4 90.25,-236.4 83.25,-236.4"/>
</g>
</g>
</svg>
