<?xml version="1.0" encoding="UTF-8" standalone="no"?>
<!DOCTYPE svg PUBLIC "-//W3C//DTD SVG 1.1//EN"
 "http://www.w3.org/Graphics/SVG/1.1/DTD/svg11.dtd">
<!-- Generated by graphviz version 2.43.0 (0)
 -->
<!-- Title: HealthGPS/mtrandom.cpp Pages: 1 -->
<svg width="208pt" height="196pt"
 viewBox="0.00 0.00 208.00 196.00" xmlns="http://www.w3.org/2000/svg" xmlns:xlink="http://www.w3.org/1999/xlink">
<g id="graph0" class="graph" transform="scale(1 1) rotate(0) translate(4 192)">
<title>HealthGPS/mtrandom.cpp</title>
<!-- Node1 -->
<g id="node1" class="node">
<title>Node1</title>
<g id="a_node1"><a xlink:title=" ">
<polygon fill="#bfbfbf" stroke="black" points="46.5,-168.5 46.5,-187.5 189.5,-187.5 189.5,-168.5 46.5,-168.5"/>
<text text-anchor="middle" x="118" y="-175.5" font-family="Helvetica,sans-Serif" font-size="10.00">HealthGPS/mtrandom.cpp</text>
</a>
</g>
</g>
<!-- Node2 -->
<g id="node2" class="node">
<title>Node2</title>
<g id="a_node2"><a xlink:href="mtrandom_8h.html" target="_top" xlink:title=" ">
<polygon fill="none" stroke="black" points="79.5,-112.5 79.5,-131.5 156.5,-131.5 156.5,-112.5 79.5,-112.5"/>
<text text-anchor="middle" x="118" y="-119.5" font-family="Helvetica,sans-Serif" font-size="10.00">mtrandom.h</text>
</a>
</g>
</g>
<!-- Node1&#45;&gt;Node2 -->
<g id="edge1" class="edge">
<title>Node1&#45;&gt;Node2</title>
<path fill="none" stroke="midnightblue" d="M118,-168.08C118,-161.01 118,-150.86 118,-141.99"/>
<polygon fill="midnightblue" stroke="midnightblue" points="121.5,-141.75 118,-131.75 114.5,-141.75 121.5,-141.75"/>
</g>
<!-- Node3 -->
<g id="node3" class="node">
<title>Node3</title>
<g id="a_node3"><a xlink:href="randombit__generator_8h.html" target="_top" xlink:title=" ">
<polygon fill="none" stroke="black" points="0,-56.5 0,-75.5 128,-75.5 128,-56.5 0,-56.5"/>
<text text-anchor="middle" x="64" y="-63.5" font-family="Helvetica,sans-Serif" font-size="10.00">randombit_generator.h</text>
</a>
</g>
</g>
<!-- Node2&#45;&gt;Node3 -->
<g id="edge2" class="edge">
<title>Node2&#45;&gt;Node3</title>
<path fill="none" stroke="midnightblue" d="M109.08,-112.08C101.22,-104.22 89.57,-92.57 80.08,-83.08"/>
<polygon fill="midnightblue" stroke="midnightblue" points="82.3,-80.35 72.75,-75.75 77.35,-85.3 82.3,-80.35"/>
</g>
<!-- Node6 -->
<g id="node6" class="node">
<title>Node6</title>
<g id="a_node6"><a xlink:title=" ">
<polygon fill="none" stroke="#bfbfbf" points="146,-56.5 146,-75.5 200,-75.5 200,-56.5 146,-56.5"/>
<text text-anchor="middle" x="173" y="-63.5" font-family="Helvetica,sans-Serif" font-size="10.00">random</text>
</a>
</g>
</g>
<!-- Node2&#45;&gt;Node6 -->
<g id="edge5" class="edge">
<title>Node2&#45;&gt;Node6</title>
<path fill="none" stroke="midnightblue" d="M127.08,-112.08C135.17,-104.14 147.2,-92.34 156.91,-82.8"/>
<polygon fill="midnightblue" stroke="midnightblue" points="159.4,-85.25 164.09,-75.75 154.5,-80.26 159.4,-85.25"/>
</g>
<!-- Node4 -->
<g id="node4" class="node">
<title>Node4</title>
<g id="a_node4"><a xlink:title=" ">
<polygon fill="none" stroke="#bfbfbf" points="10,-0.5 10,-19.5 54,-19.5 54,-0.5 10,-0.5"/>
<text text-anchor="middle" x="32" y="-7.5" font-family="Helvetica,sans-Serif" font-size="10.00">limits</text>
</a>
</g>
</g>
<!-- Node3&#45;&gt;Node4 -->
<g id="edge3" class="edge">
<title>Node3&#45;&gt;Node4</title>
<path fill="none" stroke="midnightblue" d="M58.72,-56.08C54.29,-48.61 47.84,-37.72 42.38,-28.52"/>
<polygon fill="midnightblue" stroke="midnightblue" points="45.29,-26.57 37.19,-19.75 39.27,-30.14 45.29,-26.57"/>
</g>
<!-- Node5 -->
<g id="node5" class="node">
<title>Node5</title>
<g id="a_node5"><a xlink:title=" ">
<polygon fill="none" stroke="#bfbfbf" points="72.5,-0.5 72.5,-19.5 119.5,-19.5 119.5,-0.5 72.5,-0.5"/>
<text text-anchor="middle" x="96" y="-7.5" font-family="Helvetica,sans-Serif" font-size="10.00">vector</text>
</a>
</g>
</g>
<!-- Node3&#45;&gt;Node5 -->
<g id="edge4" class="edge">
<title>Node3&#45;&gt;Node5</title>
<path fill="none" stroke="midnightblue" d="M69.28,-56.08C73.71,-48.61 80.16,-37.72 85.62,-28.52"/>
<polygon fill="midnightblue" stroke="midnightblue" points="88.73,-30.14 90.81,-19.75 82.71,-26.57 88.73,-30.14"/>
</g>
</g>
</svg>
