<?xml version="1.0" encoding="UTF-8" standalone="no"?>
<!DOCTYPE svg PUBLIC "-//W3C//DTD SVG 1.1//EN"
 "http://www.w3.org/Graphics/SVG/1.1/DTD/svg11.dtd">
<!-- Generated by graphviz version 2.43.0 (0)
 -->
<!-- Title: host::load_datatable_from_csv Pages: 1 -->
<svg width="667pt" height="495pt"
 viewBox="0.00 0.00 667.00 495.00" xmlns="http://www.w3.org/2000/svg" xmlns:xlink="http://www.w3.org/1999/xlink">
<g id="graph0" class="graph" transform="scale(1 1) rotate(0) translate(4 491)">
<title>host::load_datatable_from_csv</title>
<!-- Node1 -->
<g id="node1" class="node">
<title>Node1</title>
<g id="a_node1"><a xlink:title="Populates a datatable with the input data file contents.">
<polygon fill="#bfbfbf" stroke="black" points="0,-171.5 0,-201.5 116,-201.5 116,-171.5 0,-171.5"/>
<text text-anchor="start" x="8" y="-189.5" font-family="Helvetica,sans-Serif" font-size="10.00">host::load_datatable</text>
<text text-anchor="middle" x="58" y="-178.5" font-family="Helvetica,sans-Serif" font-size="10.00">_from_csv</text>
</a>
</g>
</g>
<!-- Node2 -->
<g id="node2" class="node">
<title>Node2</title>
<g id="a_node2"><a xlink:href="classhgps_1_1core_1_1DataTable.html#ae022bf3052be4728cce521ca87a54865" target="_top" xlink:title="Adds a new column to the table.">
<polygon fill="none" stroke="black" points="156,-360 156,-379 302,-379 302,-360 156,-360"/>
<text text-anchor="middle" x="229" y="-367" font-family="Helvetica,sans-Serif" font-size="10.00">hgps::core::DataTable::add</text>
</a>
</g>
</g>
<!-- Node1&#45;&gt;Node2 -->
<g id="edge1" class="edge">
<title>Node1&#45;&gt;Node2</title>
<path fill="none" stroke="midnightblue" d="M67.22,-201.69C81.82,-227.74 114.31,-281.66 152,-318.5 166.59,-332.76 185.65,-345.54 201.04,-354.74"/>
<polygon fill="midnightblue" stroke="midnightblue" points="199.66,-357.99 210.07,-359.99 203.18,-351.94 199.66,-357.99"/>
</g>
<!-- Node7 -->
<g id="node7" class="node">
<title>Node7</title>
<g id="a_node7"><a xlink:href="namespacehgps_1_1core.html#a502537e3fe210afb2531f156977eb2f6" target="_top" xlink:title="Converts the given ASCII string to lower&#45;case.">
<polygon fill="none" stroke="black" points="364,-281 364,-300 479,-300 479,-281 364,-281"/>
<text text-anchor="middle" x="421.5" y="-288" font-family="Helvetica,sans-Serif" font-size="10.00">hgps::core::to_lower</text>
</a>
</g>
</g>
<!-- Node1&#45;&gt;Node7 -->
<g id="edge15" class="edge">
<title>Node1&#45;&gt;Node7</title>
<path fill="none" stroke="midnightblue" d="M67.75,-201.79C81.98,-224.93 112.55,-268 152,-285.5 220.2,-315.76 308.06,-310.14 364.35,-301.68"/>
<polygon fill="midnightblue" stroke="midnightblue" points="365.15,-305.09 374.48,-300.07 364.06,-298.18 365.15,-305.09"/>
</g>
<!-- Node8 -->
<g id="node8" class="node">
<title>Node8</title>
<g id="a_node8"><a xlink:href="classhgps_1_1core_1_1PrimitiveDataTableColumnBuilder.html#a1f9ff5d8eef6a17c0f6b7c92a519872e" target="_top" xlink:title="Builds the column with current data.">
<polygon fill="none" stroke="black" points="157,-245.5 157,-275.5 301,-275.5 301,-245.5 157,-245.5"/>
<text text-anchor="start" x="165" y="-263.5" font-family="Helvetica,sans-Serif" font-size="10.00">hgps::core::PrimitiveData</text>
<text text-anchor="middle" x="229" y="-252.5" font-family="Helvetica,sans-Serif" font-size="10.00">TableColumnBuilder::build</text>
</a>
</g>
</g>
<!-- Node1&#45;&gt;Node8 -->
<g id="edge8" class="edge">
<title>Node1&#45;&gt;Node8</title>
<path fill="none" stroke="midnightblue" d="M84.03,-201.62C102.39,-212.3 128.19,-226.44 152,-236.5 156.47,-238.39 161.13,-240.2 165.86,-241.94"/>
<polygon fill="midnightblue" stroke="midnightblue" points="165.02,-245.35 175.61,-245.38 167.34,-238.75 165.02,-245.35"/>
</g>
<!-- Node9 -->
<g id="node9" class="node">
<title>Node9</title>
<g id="a_node9"><a xlink:href="structhgps_1_1core_1_1case__insensitive.html#a7c3f04e32aa1d7a41ef339443139b5c0" target="_top" xlink:title="Compare two case&#45;insensitive ASCII string for equality.">
<polygon fill="none" stroke="black" points="152,-196.5 152,-226.5 306,-226.5 306,-196.5 152,-196.5"/>
<text text-anchor="start" x="160" y="-214.5" font-family="Helvetica,sans-Serif" font-size="10.00">hgps::core::case_insensitive</text>
<text text-anchor="middle" x="229" y="-203.5" font-family="Helvetica,sans-Serif" font-size="10.00">::equals</text>
</a>
</g>
</g>
<!-- Node1&#45;&gt;Node9 -->
<g id="edge9" class="edge">
<title>Node1&#45;&gt;Node9</title>
<path fill="none" stroke="midnightblue" d="M116.22,-194.96C124.47,-196.19 133.12,-197.47 141.8,-198.75"/>
<polygon fill="midnightblue" stroke="midnightblue" points="141.56,-202.25 151.97,-200.25 142.59,-195.33 141.56,-202.25"/>
</g>
<!-- Node10 -->
<g id="node10" class="node">
<title>Node10</title>
<g id="a_node10"><a xlink:href="namespacehost_1_1detail.html#a918cca25f7d11e0008f7aa8e428c5b8c" target="_top" xlink:title=" ">
<polygon fill="none" stroke="black" points="177,-147.5 177,-177.5 281,-177.5 281,-147.5 177,-147.5"/>
<text text-anchor="start" x="185" y="-165.5" font-family="Helvetica,sans-Serif" font-size="10.00">host::detail::parse</text>
<text text-anchor="middle" x="229" y="-154.5" font-family="Helvetica,sans-Serif" font-size="10.00">_double_column</text>
</a>
</g>
</g>
<!-- Node1&#45;&gt;Node10 -->
<g id="edge10" class="edge">
<title>Node1&#45;&gt;Node10</title>
<path fill="none" stroke="midnightblue" d="M116.22,-178.37C132.47,-176.07 150.24,-173.54 166.72,-171.2"/>
<polygon fill="midnightblue" stroke="midnightblue" points="167.39,-174.64 176.8,-169.77 166.41,-167.71 167.39,-174.64"/>
</g>
<!-- Node11 -->
<g id="node11" class="node">
<title>Node11</title>
<g id="a_node11"><a xlink:href="namespacehost_1_1detail.html#a2ecb10006bc4e39991b2029cd8e188a9" target="_top" xlink:title=" ">
<polygon fill="none" stroke="black" points="177,-98.5 177,-128.5 281,-128.5 281,-98.5 177,-98.5"/>
<text text-anchor="start" x="185" y="-116.5" font-family="Helvetica,sans-Serif" font-size="10.00">host::detail::parse</text>
<text text-anchor="middle" x="229" y="-105.5" font-family="Helvetica,sans-Serif" font-size="10.00">_float_column</text>
</a>
</g>
</g>
<!-- Node1&#45;&gt;Node11 -->
<g id="edge11" class="edge">
<title>Node1&#45;&gt;Node11</title>
<path fill="none" stroke="midnightblue" d="M85.32,-171.49C103.66,-161.39 128.88,-148.2 152,-138.5 157.42,-136.23 163.12,-134.03 168.86,-131.93"/>
<polygon fill="midnightblue" stroke="midnightblue" points="170.26,-135.15 178.52,-128.51 167.93,-128.55 170.26,-135.15"/>
</g>
<!-- Node12 -->
<g id="node12" class="node">
<title>Node12</title>
<g id="a_node12"><a xlink:href="namespacehost_1_1detail.html#a37790aeb69b717077251401e27f63273" target="_top" xlink:title=" ">
<polygon fill="none" stroke="black" points="177,-49.5 177,-79.5 281,-79.5 281,-49.5 177,-49.5"/>
<text text-anchor="start" x="185" y="-67.5" font-family="Helvetica,sans-Serif" font-size="10.00">host::detail::parse</text>
<text text-anchor="middle" x="229" y="-56.5" font-family="Helvetica,sans-Serif" font-size="10.00">_int_column</text>
</a>
</g>
</g>
<!-- Node1&#45;&gt;Node12 -->
<g id="edge12" class="edge">
<title>Node1&#45;&gt;Node12</title>
<path fill="none" stroke="midnightblue" d="M69.59,-171.49C85.28,-150.31 116.67,-111.76 152,-89.5 156.89,-86.42 162.21,-83.68 167.67,-81.25"/>
<polygon fill="midnightblue" stroke="midnightblue" points="169.04,-84.47 176.97,-77.45 166.39,-77.99 169.04,-84.47"/>
</g>
<!-- Node13 -->
<g id="node13" class="node">
<title>Node13</title>
<g id="a_node13"><a xlink:href="namespacehost_1_1detail.html#a175fabf9aa46f5c7d47f52a6d5cd2505" target="_top" xlink:title=" ">
<polygon fill="none" stroke="black" points="177,-0.5 177,-30.5 281,-30.5 281,-0.5 177,-0.5"/>
<text text-anchor="start" x="185" y="-18.5" font-family="Helvetica,sans-Serif" font-size="10.00">host::detail::parse</text>
<text text-anchor="middle" x="229" y="-7.5" font-family="Helvetica,sans-Serif" font-size="10.00">_string_column</text>
</a>
</g>
</g>
<!-- Node1&#45;&gt;Node13 -->
<g id="edge13" class="edge">
<title>Node1&#45;&gt;Node13</title>
<path fill="none" stroke="midnightblue" d="M64.62,-171.25C76.29,-141.68 105.97,-76.28 152,-40.5 156.71,-36.84 161.97,-33.71 167.48,-31.02"/>
<polygon fill="midnightblue" stroke="midnightblue" points="169.13,-34.12 176.91,-26.92 166.34,-27.7 169.13,-34.12"/>
</g>
<!-- Node3 -->
<g id="node3" class="node">
<title>Node3</title>
<g id="a_node3"><a xlink:href="classhgps_1_1core_1_1DataTable.html#aea4b85552bb60b81746a68bdcf95e059" target="_top" xlink:title="Gets the column at a given index.">
<polygon fill="none" stroke="black" points="360.5,-456.5 360.5,-486.5 482.5,-486.5 482.5,-456.5 360.5,-456.5"/>
<text text-anchor="start" x="368.5" y="-474.5" font-family="Helvetica,sans-Serif" font-size="10.00">hgps::core::DataTable</text>
<text text-anchor="middle" x="421.5" y="-463.5" font-family="Helvetica,sans-Serif" font-size="10.00">::column</text>
</a>
</g>
</g>
<!-- Node2&#45;&gt;Node3 -->
<g id="edge2" class="edge">
<title>Node2&#45;&gt;Node3</title>
<path fill="none" stroke="midnightblue" d="M242.92,-379.07C263.24,-393.82 304.25,-422.41 342,-441.5 349.85,-445.47 358.36,-449.23 366.78,-452.67"/>
<polygon fill="midnightblue" stroke="midnightblue" points="365.62,-455.98 376.21,-456.4 368.2,-449.47 365.62,-455.98"/>
</g>
<!-- Node4 -->
<g id="node4" class="node">
<title>Node4</title>
<g id="a_node4"><a xlink:href="classhgps_1_1core_1_1DataTable.html#a5b4ada045a3551ea156edd2888fbb425" target="_top" xlink:title="Gets the number of columns.">
<polygon fill="none" stroke="black" points="537,-434.5 537,-464.5 659,-464.5 659,-434.5 537,-434.5"/>
<text text-anchor="start" x="545" y="-452.5" font-family="Helvetica,sans-Serif" font-size="10.00">hgps::core::DataTable</text>
<text text-anchor="middle" x="598" y="-441.5" font-family="Helvetica,sans-Serif" font-size="10.00">::num_columns</text>
</a>
</g>
</g>
<!-- Node2&#45;&gt;Node4 -->
<g id="edge5" class="edge">
<title>Node2&#45;&gt;Node4</title>
<path fill="none" stroke="midnightblue" d="M253.66,-379.11C276.08,-387.88 310.86,-400.64 342,-408.5 403.65,-424.06 475.24,-434.96 526.84,-441.59"/>
<polygon fill="midnightblue" stroke="midnightblue" points="526.53,-445.08 536.89,-442.86 527.4,-438.14 526.53,-445.08"/>
</g>
<!-- Node5 -->
<g id="node5" class="node">
<title>Node5</title>
<g id="a_node5"><a xlink:href="classhgps_1_1core_1_1DataTableColumn.html#aead9fbd8096b197bd3c1889f09af21d8" target="_top" xlink:title="Gets the column name identifier.">
<polygon fill="none" stroke="black" points="342,-368.5 342,-398.5 501,-398.5 501,-368.5 342,-368.5"/>
<text text-anchor="start" x="350" y="-386.5" font-family="Helvetica,sans-Serif" font-size="10.00">hgps::core::DataTableColumn</text>
<text text-anchor="middle" x="421.5" y="-375.5" font-family="Helvetica,sans-Serif" font-size="10.00">::name</text>
</a>
</g>
</g>
<!-- Node2&#45;&gt;Node5 -->
<g id="edge4" class="edge">
<title>Node2&#45;&gt;Node5</title>
<path fill="none" stroke="midnightblue" d="M302.02,-374.79C311.64,-375.5 321.59,-376.23 331.46,-376.96"/>
<polygon fill="midnightblue" stroke="midnightblue" points="331.46,-380.47 341.69,-377.71 331.97,-373.48 331.46,-380.47"/>
</g>
<!-- Node6 -->
<g id="node6" class="node">
<title>Node6</title>
<g id="a_node6"><a xlink:href="classhgps_1_1core_1_1DataTableColumn.html#a6e7f8368bb2d10e1cf9679af121e19fb" target="_top" xlink:title="The size of the column data, number of rows.">
<polygon fill="none" stroke="black" points="342,-319.5 342,-349.5 501,-349.5 501,-319.5 342,-319.5"/>
<text text-anchor="start" x="350" y="-337.5" font-family="Helvetica,sans-Serif" font-size="10.00">hgps::core::DataTableColumn</text>
<text text-anchor="middle" x="421.5" y="-326.5" font-family="Helvetica,sans-Serif" font-size="10.00">::size</text>
</a>
</g>
</g>
<!-- Node2&#45;&gt;Node6 -->
<g id="edge6" class="edge">
<title>Node2&#45;&gt;Node6</title>
<path fill="none" stroke="midnightblue" d="M281.8,-359.98C297.28,-357.14 314.7,-353.94 331.83,-350.79"/>
<polygon fill="midnightblue" stroke="midnightblue" points="332.67,-354.2 341.87,-348.95 331.4,-347.31 332.67,-354.2"/>
</g>
<!-- Node2&#45;&gt;Node7 -->
<g id="edge7" class="edge">
<title>Node2&#45;&gt;Node7</title>
<path fill="none" stroke="midnightblue" d="M245.4,-359.88C266.5,-347.06 305.9,-324.38 342,-310.5 349.56,-307.59 357.69,-304.98 365.75,-302.68"/>
<polygon fill="midnightblue" stroke="midnightblue" points="366.78,-306.03 375.51,-300.03 364.94,-299.27 366.78,-306.03"/>
</g>
<!-- Node3&#45;&gt;Node4 -->
<g id="edge3" class="edge">
<title>Node3&#45;&gt;Node4</title>
<path fill="none" stroke="midnightblue" d="M482.55,-463.93C496.81,-462.13 512.15,-460.2 526.81,-458.35"/>
<polygon fill="midnightblue" stroke="midnightblue" points="527.35,-461.81 536.84,-457.09 526.48,-454.86 527.35,-461.81"/>
</g>
<!-- Node14 -->
<g id="node14" class="node">
<title>Node14</title>
<g id="a_node14"><a xlink:href="namespacehgps_1_1core.html#a552bf0464b6b160440c294654ee500d1" target="_top" xlink:title="Trim leading and trailing occurrences of white&#45;space characters from string.">
<polygon fill="none" stroke="black" points="375,-6 375,-25 468,-25 468,-6 375,-6"/>
<text text-anchor="middle" x="421.5" y="-13" font-family="Helvetica,sans-Serif" font-size="10.00">hgps::core::trim</text>
</a>
</g>
</g>
<!-- Node13&#45;&gt;Node14 -->
<g id="edge14" class="edge">
<title>Node13&#45;&gt;Node14</title>
<path fill="none" stroke="midnightblue" d="M281.05,-15.5C306.83,-15.5 338.17,-15.5 364.6,-15.5"/>
<polygon fill="midnightblue" stroke="midnightblue" points="364.84,-19 374.84,-15.5 364.84,-12 364.84,-19"/>
</g>
</g>
</svg>
