<?xml version="1.0" encoding="UTF-8" standalone="no"?>
<!DOCTYPE svg PUBLIC "-//W3C//DTD SVG 1.1//EN"
 "http://www.w3.org/Graphics/SVG/1.1/DTD/svg11.dtd">
<!-- Generated by graphviz version 7.0.6 (20230106.0513)
 -->
<!-- Title: hgps::operator&lt; Pages: 1 -->
<svg width="233pt" height="86pt"
 viewBox="0.00 0.00 233.00 86.00" xmlns="http://www.w3.org/2000/svg" xmlns:xlink="http://www.w3.org/1999/xlink">
<g id="graph0" class="graph" transform="scale(1 1) rotate(0) translate(4 82)">
<title>hgps::operator&lt;</title>
<!-- Node1 -->
<g id="node1" class="node">
<title>Node1</title>
<g id="a_node1"><a xlink:title=" ">
<polygon fill="#999999" stroke="#666666" points="85,-48.5 0,-48.5 0,-29.5 85,-29.5 85,-48.5"/>
<text text-anchor="middle" x="42.5" y="-36.5" font-family="Helvetica,sans-Serif" font-size="10.00">hgps::operator&lt;</text>
</a>
</g>
</g>
<!-- Node2 -->
<g id="node2" class="node">
<title>Node2</title>
<g id="a_node2"><a xlink:href="classhgps_1_1_mapping_entry.html#a6c5be50d073b1725deecf9166692f872" target="_top" xlink:title=" ">
<polygon fill="white" stroke="#666666" points="225,-78 121,-78 121,-48 225,-48 225,-78"/>
<text text-anchor="start" x="129" y="-66" font-family="Helvetica,sans-Serif" font-size="10.00">hgps::MappingEntry</text>
<text text-anchor="middle" x="173" y="-55" font-family="Helvetica,sans-Serif" font-size="10.00">::level</text>
</a>
</g>
</g>
<!-- Node1&#45;&gt;Node2 -->
<g id="edge1" class="edge">
<title>Node1&#45;&gt;Node2</title>
<path fill="none" stroke="#63b8ff" d="M85.22,-46.79C92.98,-48.24 101.24,-49.78 109.46,-51.32"/>
<polygon fill="#63b8ff" stroke="#63b8ff" points="108.64,-54.73 119.12,-53.12 109.93,-47.85 108.64,-54.73"/>
</g>
<!-- Node3 -->
<g id="node3" class="node">
<title>Node3</title>
<g id="a_node3"><a xlink:href="classhgps_1_1_mapping_entry.html#a6ff2875b44ef1295f6a9171b76e2f574" target="_top" xlink:title=" ">
<polygon fill="white" stroke="#666666" points="225,-30 121,-30 121,0 225,0 225,-30"/>
<text text-anchor="start" x="129" y="-18" font-family="Helvetica,sans-Serif" font-size="10.00">hgps::MappingEntry</text>
<text text-anchor="middle" x="173" y="-7" font-family="Helvetica,sans-Serif" font-size="10.00">::name</text>
</a>
</g>
</g>
<!-- Node1&#45;&gt;Node3 -->
<g id="edge2" class="edge">
<title>Node1&#45;&gt;Node3</title>
<path fill="none" stroke="#63b8ff" d="M85.22,-31.21C92.98,-29.76 101.24,-28.22 109.46,-26.68"/>
<polygon fill="#63b8ff" stroke="#63b8ff" points="109.93,-30.15 119.12,-24.88 108.64,-23.27 109.93,-30.15"/>
</g>
</g>
</svg>
