<?xml version="1.0" encoding="UTF-8" standalone="no"?>
<!DOCTYPE svg PUBLIC "-//W3C//DTD SVG 1.1//EN"
 "http://www.w3.org/Graphics/SVG/1.1/DTD/svg11.dtd">
<!-- Generated by graphviz version 2.43.0 (0)
 -->
<!-- Title: hgps::build_risk_factor_module Pages: 1 -->
<svg width="335pt" height="247pt"
 viewBox="0.00 0.00 335.00 246.50" xmlns="http://www.w3.org/2000/svg" xmlns:xlink="http://www.w3.org/1999/xlink">
<g id="graph0" class="graph" transform="scale(1 1) rotate(0) translate(4 242.5)">
<title>hgps::build_risk_factor_module</title>
<!-- Node1 -->
<g id="node1" class="node">
<title>Node1</title>
<g id="a_node1"><a xlink:title=" ">
<polygon fill="#bfbfbf" stroke="black" points="0,-98.5 0,-128.5 127,-128.5 127,-98.5 0,-98.5"/>
<text text-anchor="start" x="8" y="-116.5" font-family="Helvetica,sans-Serif" font-size="10.00">hgps::build_risk_factor</text>
<text text-anchor="middle" x="63.5" y="-105.5" font-family="Helvetica,sans-Serif" font-size="10.00">_module</text>
</a>
</g>
</g>
<!-- Node2 -->
<g id="node2" class="node">
<title>Node2</title>
<g id="a_node2"><a xlink:href="classhgps_1_1Repository.html#a42dfd811aa4396e140a126b50d3e5c74" target="_top" xlink:title="Gets the user provided baseline risk factors adjustment dataset.">
<polygon fill="none" stroke="black" points="183,-197 183,-238 307,-238 307,-197 183,-197"/>
<text text-anchor="start" x="191" y="-226" font-family="Helvetica,sans-Serif" font-size="10.00">hgps::Repository::get</text>
<text text-anchor="start" x="191" y="-215" font-family="Helvetica,sans-Serif" font-size="10.00">_baseline_adjustment</text>
<text text-anchor="middle" x="245" y="-204" font-family="Helvetica,sans-Serif" font-size="10.00">_definition</text>
</a>
</g>
</g>
<!-- Node1&#45;&gt;Node2 -->
<g id="edge1" class="edge">
<title>Node1&#45;&gt;Node2</title>
<path fill="none" stroke="midnightblue" d="M81.59,-128.79C100.44,-145.05 132.21,-170.7 163,-187.5 166.46,-189.39 170.05,-191.2 173.73,-192.94"/>
<polygon fill="midnightblue" stroke="midnightblue" points="172.43,-196.19 182.99,-197.1 175.3,-189.81 172.43,-196.19"/>
</g>
<!-- Node3 -->
<g id="node3" class="node">
<title>Node3</title>
<g id="a_node3"><a xlink:href="namespacehgps.html#ae9b174775b16879867eaefdd09019019" target="_top" xlink:title="Gets the default production instance builders for full hierarchical regression models.">
<polygon fill="none" stroke="black" points="163,-147.5 163,-177.5 327,-177.5 327,-147.5 163,-147.5"/>
<text text-anchor="start" x="171" y="-165.5" font-family="Helvetica,sans-Serif" font-size="10.00">hgps::get_default_hierarchical</text>
<text text-anchor="middle" x="245" y="-154.5" font-family="Helvetica,sans-Serif" font-size="10.00">_model_registry</text>
</a>
</g>
</g>
<!-- Node1&#45;&gt;Node3 -->
<g id="edge2" class="edge">
<title>Node1&#45;&gt;Node3</title>
<path fill="none" stroke="midnightblue" d="M119.82,-128.6C138.59,-133.73 159.73,-139.5 179.17,-144.8"/>
<polygon fill="midnightblue" stroke="midnightblue" points="178.29,-148.19 188.86,-147.45 180.14,-141.44 178.29,-148.19"/>
</g>
<!-- Node4 -->
<g id="node4" class="node">
<title>Node4</title>
<g id="a_node4"><a xlink:href="namespacehgps.html#ab6f6184e7acdf4d238a0928c66ee9953" target="_top" xlink:title="Gets the default production instance builders for lite hierarchical regression models.">
<polygon fill="none" stroke="black" points="166,-98.5 166,-128.5 324,-128.5 324,-98.5 166,-98.5"/>
<text text-anchor="start" x="174" y="-116.5" font-family="Helvetica,sans-Serif" font-size="10.00">hgps::get_default_lite</text>
<text text-anchor="middle" x="245" y="-105.5" font-family="Helvetica,sans-Serif" font-size="10.00">_hierarchical_model_registry</text>
</a>
</g>
</g>
<!-- Node1&#45;&gt;Node4 -->
<g id="edge3" class="edge">
<title>Node1&#45;&gt;Node4</title>
<path fill="none" stroke="midnightblue" d="M127.03,-113.5C136.34,-113.5 146.08,-113.5 155.8,-113.5"/>
<polygon fill="midnightblue" stroke="midnightblue" points="155.9,-117 165.9,-113.5 155.9,-110 155.9,-117"/>
</g>
<!-- Node5 -->
<g id="node5" class="node">
<title>Node5</title>
<g id="a_node5"><a xlink:href="classhgps_1_1Repository.html#a966ee2b3fe25f392fc0ab670a7c27d48" target="_top" xlink:title="Gets the user provided hierarchical linear model definition.">
<polygon fill="none" stroke="black" points="176.5,-49.5 176.5,-79.5 313.5,-79.5 313.5,-49.5 176.5,-49.5"/>
<text text-anchor="start" x="184.5" y="-67.5" font-family="Helvetica,sans-Serif" font-size="10.00">hgps::Repository::get</text>
<text text-anchor="middle" x="245" y="-56.5" font-family="Helvetica,sans-Serif" font-size="10.00">_linear_model_definition</text>
</a>
</g>
</g>
<!-- Node1&#45;&gt;Node5 -->
<g id="edge4" class="edge">
<title>Node1&#45;&gt;Node5</title>
<path fill="none" stroke="midnightblue" d="M119.82,-98.4C138.59,-93.27 159.73,-87.5 179.17,-82.2"/>
<polygon fill="midnightblue" stroke="midnightblue" points="180.14,-85.56 188.86,-79.55 178.29,-78.81 180.14,-85.56"/>
</g>
<!-- Node6 -->
<g id="node6" class="node">
<title>Node6</title>
<g id="a_node6"><a xlink:href="classhgps_1_1Repository.html#a0da5ff4b083b21f55709e410b5f72f39" target="_top" xlink:title="Gets the user provided lite hierarchical linear model definition.">
<polygon fill="none" stroke="black" points="166,-0.5 166,-30.5 324,-30.5 324,-0.5 166,-0.5"/>
<text text-anchor="start" x="174" y="-18.5" font-family="Helvetica,sans-Serif" font-size="10.00">hgps::Repository::get</text>
<text text-anchor="middle" x="245" y="-7.5" font-family="Helvetica,sans-Serif" font-size="10.00">_lite_linear_model_definition</text>
</a>
</g>
</g>
<!-- Node1&#45;&gt;Node6 -->
<g id="edge5" class="edge">
<title>Node1&#45;&gt;Node6</title>
<path fill="none" stroke="midnightblue" d="M81.11,-98.4C99.8,-82.1 131.67,-56.36 163,-40.5 167.48,-38.23 172.21,-36.12 177.03,-34.17"/>
<polygon fill="midnightblue" stroke="midnightblue" points="178.29,-37.44 186.4,-30.62 175.81,-30.9 178.29,-37.44"/>
</g>
</g>
</svg>
