<?xml version="1.0" encoding="UTF-8" standalone="no"?>
<!DOCTYPE svg PUBLIC "-//W3C//DTD SVG 1.1//EN"
 "http://www.w3.org/Graphics/SVG/1.1/DTD/svg11.dtd">
<!-- Generated by graphviz version 2.43.0 (0)
 -->
<!-- Title: host::register_risk_factor_model_definitions Pages: 1 -->
<svg width="707pt" height="396pt"
 viewBox="0.00 0.00 707.00 396.30" xmlns="http://www.w3.org/2000/svg" xmlns:xlink="http://www.w3.org/1999/xlink">
<g id="graph0" class="graph" transform="scale(1 1) rotate(0) translate(4 392.3)">
<title>host::register_risk_factor_model_definitions</title>
<!-- Node1 -->
<g id="node1" class="node">
<title>Node1</title>
<g id="a_node1"><a xlink:title="Registers a risk factor model definition with the repository.">
<polygon fill="#bfbfbf" stroke="black" points="0,-192 0,-222 143,-222 143,-192 0,-192"/>
<text text-anchor="start" x="8" y="-210" font-family="Helvetica,sans-Serif" font-size="10.00">host::register_risk</text>
<text text-anchor="middle" x="71.5" y="-199" font-family="Helvetica,sans-Serif" font-size="10.00">_factor_model_definitions</text>
</a>
</g>
</g>
<!-- Node2 -->
<g id="node2" class="node">
<title>Node2</title>
<g id="a_node2"><a xlink:href="structhgps_1_1core_1_1case__insensitive.html#a7c3f04e32aa1d7a41ef339443139b5c0" target="_top" xlink:title="Compare two case&#45;insensitive ASCII string for equality.">
<polygon fill="none" stroke="black" points="545,-329 545,-359 699,-359 699,-329 545,-329"/>
<text text-anchor="start" x="553" y="-347" font-family="Helvetica,sans-Serif" font-size="10.00">hgps::core::case_insensitive</text>
<text text-anchor="middle" x="622" y="-336" font-family="Helvetica,sans-Serif" font-size="10.00">::equals</text>
</a>
</g>
</g>
<!-- Node1&#45;&gt;Node2 -->
<g id="edge1" class="edge">
<title>Node1&#45;&gt;Node2</title>
<path fill="none" stroke="midnightblue" d="M78.85,-222.2C92.3,-252.17 126.73,-318.47 179,-347 301.22,-413.7 472.24,-384.34 561.47,-361.59"/>
<polygon fill="midnightblue" stroke="midnightblue" points="562.37,-364.97 571.16,-359.06 560.6,-358.2 562.37,-364.97"/>
</g>
<!-- Node3 -->
<g id="node3" class="node">
<title>Node3</title>
<g id="a_node3"><a xlink:href="namespacehost.html#a4b5ca710f860350ad9e1d5b97fd7709c" target="_top" xlink:title="Loads baseline adjustments information from a file.">
<polygon fill="none" stroke="black" points="207,-307 207,-337 318,-337 318,-307 207,-307"/>
<text text-anchor="start" x="215" y="-325" font-family="Helvetica,sans-Serif" font-size="10.00">host::load_baseline</text>
<text text-anchor="middle" x="262.5" y="-314" font-family="Helvetica,sans-Serif" font-size="10.00">_adjustments</text>
</a>
</g>
</g>
<!-- Node1&#45;&gt;Node3 -->
<g id="edge2" class="edge">
<title>Node1&#45;&gt;Node3</title>
<path fill="none" stroke="midnightblue" d="M90.98,-222.07C111.65,-238.51 146.5,-265.01 179,-284 190.39,-290.65 203.14,-297.02 215.15,-302.57"/>
<polygon fill="midnightblue" stroke="midnightblue" points="214.03,-305.9 224.58,-306.84 216.92,-299.52 214.03,-305.9"/>
</g>
<!-- Node5 -->
<g id="node5" class="node">
<title>Node5</title>
<g id="a_node5"><a xlink:href="namespacehgps_1_1core.html#a502537e3fe210afb2531f156977eb2f6" target="_top" xlink:title="Converts the given ASCII string to lower&#45;case.">
<polygon fill="none" stroke="black" points="564.5,-265.5 564.5,-284.5 679.5,-284.5 679.5,-265.5 564.5,-265.5"/>
<text text-anchor="middle" x="622" y="-272.5" font-family="Helvetica,sans-Serif" font-size="10.00">hgps::core::to_lower</text>
</a>
</g>
</g>
<!-- Node1&#45;&gt;Node5 -->
<g id="edge15" class="edge">
<title>Node1&#45;&gt;Node5</title>
<path fill="none" stroke="midnightblue" d="M143.18,-210.92C229.81,-216.38 380.9,-228.06 509,-249 521.29,-251.01 548.22,-257.24 572.59,-263.1"/>
<polygon fill="midnightblue" stroke="midnightblue" points="571.93,-266.54 582.47,-265.48 573.57,-259.73 571.93,-266.54"/>
</g>
<!-- Node6 -->
<g id="node6" class="node">
<title>Node6</title>
<g id="a_node6"><a xlink:href="namespacehost.html#a7eec8ba4859ddfc96413217e3939b0c2" target="_top" xlink:title="Loads the lite hierarchical linear regression model definition from a JSON file.">
<polygon fill="none" stroke="black" points="382,-258 382,-288 509,-288 509,-258 382,-258"/>
<text text-anchor="start" x="390" y="-276" font-family="Helvetica,sans-Serif" font-size="10.00">host::load_dynamic</text>
<text text-anchor="middle" x="445.5" y="-265" font-family="Helvetica,sans-Serif" font-size="10.00">_risk_model_definition</text>
</a>
</g>
</g>
<!-- Node1&#45;&gt;Node6 -->
<g id="edge7" class="edge">
<title>Node1&#45;&gt;Node6</title>
<path fill="none" stroke="midnightblue" d="M110.39,-222.01C130.48,-229.4 155.76,-237.82 179,-243 243.33,-257.34 318.05,-265 371.8,-268.98"/>
<polygon fill="midnightblue" stroke="midnightblue" points="371.69,-272.48 381.92,-269.71 372.19,-265.5 371.69,-272.48"/>
</g>
<!-- Node8 -->
<g id="node8" class="node">
<title>Node8</title>
<g id="a_node8"><a xlink:href="namespacehost.html#ac903f23faea1e73e5c28aecc3807e180" target="_top" xlink:title="Loads the new energy balance model definition from a JSON file.">
<polygon fill="none" stroke="black" points="195,-170 195,-200 330,-200 330,-170 195,-170"/>
<text text-anchor="start" x="203" y="-188" font-family="Helvetica,sans-Serif" font-size="10.00">host::load_newebm_risk</text>
<text text-anchor="middle" x="262.5" y="-177" font-family="Helvetica,sans-Serif" font-size="10.00">_model_definition</text>
</a>
</g>
</g>
<!-- Node1&#45;&gt;Node8 -->
<g id="edge11" class="edge">
<title>Node1&#45;&gt;Node8</title>
<path fill="none" stroke="midnightblue" d="M143.15,-198.78C156.6,-197.21 170.74,-195.56 184.38,-193.98"/>
<polygon fill="midnightblue" stroke="midnightblue" points="185.17,-197.41 194.69,-192.78 184.36,-190.46 185.17,-197.41"/>
</g>
<!-- Node9 -->
<g id="node9" class="node">
<title>Node9</title>
<g id="a_node9"><a xlink:href="namespacehost.html#aa5c14c76fdc8d41e26a1c5ee5f86f4ab" target="_top" xlink:title="Loads the full hierarchical linear regression model definition from a JSON file.">
<polygon fill="none" stroke="black" points="202.5,-121 202.5,-151 322.5,-151 322.5,-121 202.5,-121"/>
<text text-anchor="start" x="210.5" y="-139" font-family="Helvetica,sans-Serif" font-size="10.00">host::load_static_risk</text>
<text text-anchor="middle" x="262.5" y="-128" font-family="Helvetica,sans-Serif" font-size="10.00">_model_definition</text>
</a>
</g>
</g>
<!-- Node1&#45;&gt;Node9 -->
<g id="edge12" class="edge">
<title>Node1&#45;&gt;Node9</title>
<path fill="none" stroke="midnightblue" d="M103.74,-191.9C124.73,-182.08 153.17,-169.41 179,-160 184.57,-157.97 190.39,-156 196.26,-154.1"/>
<polygon fill="midnightblue" stroke="midnightblue" points="197.65,-157.34 206.14,-151 195.55,-150.66 197.65,-157.34"/>
</g>
<!-- Node10 -->
<g id="node10" class="node">
<title>Node10</title>
<g id="a_node10"><a xlink:href="classhgps_1_1CachedRepository.html#a72b653923d8e137e0b0cbb81cb940557" target="_top" xlink:title="Register a user provided baseline risk factors adjustments dataset.">
<polygon fill="none" stroke="black" points="179,-60.5 179,-101.5 346,-101.5 346,-60.5 179,-60.5"/>
<text text-anchor="start" x="187" y="-89.5" font-family="Helvetica,sans-Serif" font-size="10.00">hgps::CachedRepository</text>
<text text-anchor="start" x="187" y="-78.5" font-family="Helvetica,sans-Serif" font-size="10.00">::register_baseline_adjustment</text>
<text text-anchor="middle" x="262.5" y="-67.5" font-family="Helvetica,sans-Serif" font-size="10.00">_definition</text>
</a>
</g>
</g>
<!-- Node1&#45;&gt;Node10 -->
<g id="edge13" class="edge">
<title>Node1&#45;&gt;Node10</title>
<path fill="none" stroke="midnightblue" d="M85.88,-191.7C104.78,-170.9 141.24,-133.7 179,-111 181.96,-109.22 185.05,-107.52 188.21,-105.9"/>
<polygon fill="midnightblue" stroke="midnightblue" points="189.8,-109.02 197.3,-101.54 186.77,-102.71 189.8,-109.02"/>
</g>
<!-- Node11 -->
<g id="node11" class="node">
<title>Node11</title>
<g id="a_node11"><a xlink:href="classhgps_1_1CachedRepository.html#a5e374c0c1161939e26eac27a09be37e1" target="_top" xlink:title="Register a user provided risk factor model definition.">
<polygon fill="none" stroke="black" points="195.5,-0.5 195.5,-41.5 329.5,-41.5 329.5,-0.5 195.5,-0.5"/>
<text text-anchor="start" x="203.5" y="-29.5" font-family="Helvetica,sans-Serif" font-size="10.00">hgps::CachedRepository</text>
<text text-anchor="start" x="203.5" y="-18.5" font-family="Helvetica,sans-Serif" font-size="10.00">::register_risk_factor</text>
<text text-anchor="middle" x="262.5" y="-7.5" font-family="Helvetica,sans-Serif" font-size="10.00">_model_definition</text>
</a>
</g>
</g>
<!-- Node1&#45;&gt;Node11 -->
<g id="edge14" class="edge">
<title>Node1&#45;&gt;Node11</title>
<path fill="none" stroke="midnightblue" d="M78.94,-191.81C92.78,-160.92 128.23,-90.42 179,-51 181.31,-49.2 183.74,-47.51 186.26,-45.91"/>
<polygon fill="midnightblue" stroke="midnightblue" points="188.18,-48.84 195.11,-40.83 184.7,-42.77 188.18,-48.84"/>
</g>
<!-- Node3&#45;&gt;Node2 -->
<g id="edge3" class="edge">
<title>Node3&#45;&gt;Node2</title>
<path fill="none" stroke="midnightblue" d="M318.29,-336.04C338.2,-340.48 360.98,-344.81 382,-347 432.46,-352.26 489.23,-351.82 534.78,-349.91"/>
<polygon fill="midnightblue" stroke="midnightblue" points="535.08,-353.4 544.91,-349.46 534.76,-346.41 535.08,-353.4"/>
</g>
<!-- Node4 -->
<g id="node4" class="node">
<title>Node4</title>
<g id="a_node4"><a xlink:href="namespacehost.html#ae3e061207e4dd21d8c9e59710356c614" target="_top" xlink:title="Loads the contents of baseline adjustments file into a table.">
<polygon fill="none" stroke="black" points="390,-307 390,-337 501,-337 501,-307 390,-307"/>
<text text-anchor="start" x="398" y="-325" font-family="Helvetica,sans-Serif" font-size="10.00">host::load_baseline</text>
<text text-anchor="middle" x="445.5" y="-314" font-family="Helvetica,sans-Serif" font-size="10.00">_from_csv</text>
</a>
</g>
</g>
<!-- Node3&#45;&gt;Node4 -->
<g id="edge4" class="edge">
<title>Node3&#45;&gt;Node4</title>
<path fill="none" stroke="midnightblue" d="M318.3,-322C337.7,-322 359.71,-322 379.86,-322"/>
<polygon fill="midnightblue" stroke="midnightblue" points="379.89,-325.5 389.89,-322 379.89,-318.5 379.89,-325.5"/>
</g>
<!-- Node4&#45;&gt;Node2 -->
<g id="edge5" class="edge">
<title>Node4&#45;&gt;Node2</title>
<path fill="none" stroke="midnightblue" d="M501.23,-328.9C511.9,-330.25 523.33,-331.69 534.73,-333.12"/>
<polygon fill="midnightblue" stroke="midnightblue" points="534.37,-336.61 544.73,-334.38 535.24,-329.66 534.37,-336.61"/>
</g>
<!-- Node4&#45;&gt;Node5 -->
<g id="edge6" class="edge">
<title>Node4&#45;&gt;Node5</title>
<path fill="none" stroke="midnightblue" d="M501.23,-307.26C525.26,-300.79 553.14,-293.28 575.94,-287.14"/>
<polygon fill="midnightblue" stroke="midnightblue" points="576.96,-290.49 585.7,-284.51 575.14,-283.73 576.96,-290.49"/>
</g>
<!-- Node6&#45;&gt;Node2 -->
<g id="edge8" class="edge">
<title>Node6&#45;&gt;Node2</title>
<path fill="none" stroke="midnightblue" d="M484.2,-288.01C492.38,-291.29 500.99,-294.75 509,-298 530.86,-306.86 555.08,-316.79 575.39,-325.16"/>
<polygon fill="midnightblue" stroke="midnightblue" points="574.14,-328.43 584.72,-329 576.8,-321.95 574.14,-328.43"/>
</g>
<!-- Node6&#45;&gt;Node5 -->
<g id="edge10" class="edge">
<title>Node6&#45;&gt;Node5</title>
<path fill="none" stroke="midnightblue" d="M509.01,-273.72C523.71,-273.88 539.43,-274.07 554.3,-274.24"/>
<polygon fill="midnightblue" stroke="midnightblue" points="554.4,-277.74 564.44,-274.35 554.48,-270.74 554.4,-277.74"/>
</g>
<!-- Node7 -->
<g id="node7" class="node">
<title>Node7</title>
<g id="a_node7"><a xlink:href="namespacehgps_1_1core.html#a0a76cde29c0d40bf22469920121f2745" target="_top" xlink:title="Splits a string into substrings based on specified delimiting characters.">
<polygon fill="none" stroke="black" points="558.5,-227.5 558.5,-246.5 685.5,-246.5 685.5,-227.5 558.5,-227.5"/>
<text text-anchor="middle" x="622" y="-234.5" font-family="Helvetica,sans-Serif" font-size="10.00">hgps::core::split_string</text>
</a>
</g>
</g>
<!-- Node6&#45;&gt;Node7 -->
<g id="edge9" class="edge">
<title>Node6&#45;&gt;Node7</title>
<path fill="none" stroke="midnightblue" d="M509.01,-260.1C527.15,-256.36 546.86,-252.3 564.61,-248.63"/>
<polygon fill="midnightblue" stroke="midnightblue" points="565.72,-251.98 574.81,-246.53 564.31,-245.12 565.72,-251.98"/>
</g>
</g>
</svg>
