<?xml version="1.0" encoding="UTF-8" standalone="no"?>
<!DOCTYPE svg PUBLIC "-//W3C//DTD SVG 1.1//EN"
 "http://www.w3.org/Graphics/SVG/1.1/DTD/svg11.dtd">
<!-- Generated by graphviz version 2.43.0 (0)
 -->
<!-- Title: hgps::build_disease_module Pages: 1 -->
<svg width="306pt" height="313pt"
 viewBox="0.00 0.00 306.00 312.50" xmlns="http://www.w3.org/2000/svg" xmlns:xlink="http://www.w3.org/1999/xlink">
<g id="graph0" class="graph" transform="scale(1 1) rotate(0) translate(4 308.5)">
<title>hgps::build_disease_module</title>
<!-- Node1 -->
<g id="node1" class="node">
<title>Node1</title>
<g id="a_node1"><a xlink:title=" ">
<polygon fill="#bfbfbf" stroke="black" points="0,-137 0,-167 113,-167 113,-137 0,-137"/>
<text text-anchor="start" x="8" y="-155" font-family="Helvetica,sans-Serif" font-size="10.00">hgps::build_disease</text>
<text text-anchor="middle" x="56.5" y="-144" font-family="Helvetica,sans-Serif" font-size="10.00">_module</text>
</a>
</g>
</g>
<!-- Node2 -->
<g id="node2" class="node">
<title>Node2</title>
<g id="a_node2"><a xlink:href="classhgps_1_1Settings.html#a317e5711c6337e4ed6644edf7849988e" target="_top" xlink:title=" ">
<polygon fill="none" stroke="black" points="168.5,-274 168.5,-304 278.5,-304 278.5,-274 168.5,-274"/>
<text text-anchor="start" x="176.5" y="-292" font-family="Helvetica,sans-Serif" font-size="10.00">hgps::Settings::age</text>
<text text-anchor="middle" x="223.5" y="-281" font-family="Helvetica,sans-Serif" font-size="10.00">_range</text>
</a>
</g>
</g>
<!-- Node1&#45;&gt;Node2 -->
<g id="edge1" class="edge">
<title>Node1&#45;&gt;Node2</title>
<path fill="none" stroke="midnightblue" d="M66.14,-167.34C80.38,-191.32 111.05,-237.65 149,-264 152.21,-266.23 155.63,-268.27 159.18,-270.14"/>
<polygon fill="midnightblue" stroke="midnightblue" points="157.68,-273.31 168.22,-274.46 160.7,-266.99 157.68,-273.31"/>
</g>
<!-- Node3 -->
<g id="node3" class="node">
<title>Node3</title>
<g id="a_node3"><a xlink:href="classhgps_1_1ModelInput.html#afdc4b35087c18875cb546dd0c653fe0a" target="_top" xlink:title=" ">
<polygon fill="none" stroke="black" points="149,-235.5 149,-254.5 298,-254.5 298,-235.5 149,-235.5"/>
<text text-anchor="middle" x="223.5" y="-242.5" font-family="Helvetica,sans-Serif" font-size="10.00">hgps::ModelInput::diseases</text>
</a>
</g>
</g>
<!-- Node1&#45;&gt;Node3 -->
<g id="edge2" class="edge">
<title>Node1&#45;&gt;Node3</title>
<path fill="none" stroke="midnightblue" d="M71.94,-167.05C88.87,-183.84 118.53,-210.65 149,-226 153.66,-228.35 158.64,-230.42 163.73,-232.26"/>
<polygon fill="midnightblue" stroke="midnightblue" points="162.99,-235.7 173.59,-235.49 165.17,-229.05 162.99,-235.7"/>
</g>
<!-- Node4 -->
<g id="node4" class="node">
<title>Node4</title>
<g id="a_node4"><a xlink:href="namespacehgps.html#abad57caf5bece7e34b2f81cc94709d40" target="_top" xlink:title=" ">
<polygon fill="none" stroke="black" points="151.5,-186 151.5,-216 295.5,-216 295.5,-186 151.5,-186"/>
<text text-anchor="start" x="159.5" y="-204" font-family="Helvetica,sans-Serif" font-size="10.00">hgps::get_default_disease</text>
<text text-anchor="middle" x="223.5" y="-193" font-family="Helvetica,sans-Serif" font-size="10.00">_model_registry</text>
</a>
</g>
</g>
<!-- Node1&#45;&gt;Node4 -->
<g id="edge3" class="edge">
<title>Node1&#45;&gt;Node4</title>
<path fill="none" stroke="midnightblue" d="M108.35,-167.1C125.37,-172.16 144.5,-177.84 162.17,-183.08"/>
<polygon fill="midnightblue" stroke="midnightblue" points="161.23,-186.46 171.82,-185.95 163.23,-179.75 161.23,-186.46"/>
</g>
<!-- Node5 -->
<g id="node5" class="node">
<title>Node5</title>
<g id="a_node5"><a xlink:href="classhgps_1_1Repository.html#a128ca9476585aa8ccae799158099a207" target="_top" xlink:title=" ">
<polygon fill="none" stroke="black" points="164,-137 164,-167 283,-167 283,-137 164,-137"/>
<text text-anchor="start" x="172" y="-155" font-family="Helvetica,sans-Serif" font-size="10.00">hgps::Repository::get</text>
<text text-anchor="middle" x="223.5" y="-144" font-family="Helvetica,sans-Serif" font-size="10.00">_disease_definition</text>
</a>
</g>
</g>
<!-- Node1&#45;&gt;Node5 -->
<g id="edge4" class="edge">
<title>Node1&#45;&gt;Node5</title>
<path fill="none" stroke="midnightblue" d="M113.36,-152C126.32,-152 140.27,-152 153.72,-152"/>
<polygon fill="midnightblue" stroke="midnightblue" points="153.88,-155.5 163.88,-152 153.88,-148.5 153.88,-155.5"/>
</g>
<!-- Node6 -->
<g id="node6" class="node">
<title>Node6</title>
<g id="a_node6"><a xlink:href="classhgps_1_1Repository.html#a5a115c0ff9257b20dd7555132acb2619" target="_top" xlink:title=" ">
<polygon fill="none" stroke="black" points="164,-88 164,-118 283,-118 283,-88 164,-88"/>
<text text-anchor="start" x="172" y="-106" font-family="Helvetica,sans-Serif" font-size="10.00">hgps::Repository::get</text>
<text text-anchor="middle" x="223.5" y="-95" font-family="Helvetica,sans-Serif" font-size="10.00">_disease_info</text>
</a>
</g>
</g>
<!-- Node1&#45;&gt;Node6 -->
<g id="edge5" class="edge">
<title>Node1&#45;&gt;Node6</title>
<path fill="none" stroke="midnightblue" d="M108.35,-136.9C125.37,-131.84 144.5,-126.16 162.17,-120.92"/>
<polygon fill="midnightblue" stroke="midnightblue" points="163.23,-124.25 171.82,-118.05 161.23,-117.54 163.23,-124.25"/>
</g>
<!-- Node7 -->
<g id="node7" class="node">
<title>Node7</title>
<g id="a_node7"><a xlink:href="classhgps_1_1Repository.html#a480bc36a0f3c2ec07daabf862c0b0667" target="_top" xlink:title=" ">
<polygon fill="none" stroke="black" points="164,-39 164,-69 283,-69 283,-39 164,-39"/>
<text text-anchor="start" x="172" y="-57" font-family="Helvetica,sans-Serif" font-size="10.00">hgps::Repository::get</text>
<text text-anchor="middle" x="223.5" y="-46" font-family="Helvetica,sans-Serif" font-size="10.00">_lms_definition</text>
</a>
</g>
</g>
<!-- Node1&#45;&gt;Node7 -->
<g id="edge6" class="edge">
<title>Node1&#45;&gt;Node7</title>
<path fill="none" stroke="midnightblue" d="M72.81,-136.99C90.08,-120.77 119.58,-95.09 149,-79 152.9,-76.87 157.01,-74.87 161.21,-73.01"/>
<polygon fill="midnightblue" stroke="midnightblue" points="162.63,-76.21 170.53,-69.15 159.95,-69.74 162.63,-76.21"/>
</g>
<!-- Node8 -->
<g id="node8" class="node">
<title>Node8</title>
<g id="a_node8"><a xlink:href="classhgps_1_1ModelInput.html#acf1b179fa0b7c3d06dd928584efd8fd3" target="_top" xlink:title=" ">
<polygon fill="none" stroke="black" points="150.5,-0.5 150.5,-19.5 296.5,-19.5 296.5,-0.5 150.5,-0.5"/>
<text text-anchor="middle" x="223.5" y="-7.5" font-family="Helvetica,sans-Serif" font-size="10.00">hgps::ModelInput::settings</text>
</a>
</g>
</g>
<!-- Node1&#45;&gt;Node8 -->
<g id="edge7" class="edge">
<title>Node1&#45;&gt;Node8</title>
<path fill="none" stroke="midnightblue" d="M64.72,-136.67C77.78,-110.65 107.82,-57.96 149,-30 152.73,-27.47 156.77,-25.25 160.98,-23.32"/>
<polygon fill="midnightblue" stroke="midnightblue" points="162.42,-26.51 170.38,-19.52 159.8,-20.02 162.42,-26.51"/>
</g>
</g>
</svg>
