<?xml version="1.0" encoding="UTF-8" standalone="no"?>
<!DOCTYPE svg PUBLIC "-//W3C//DTD SVG 1.1//EN"
 "http://www.w3.org/Graphics/SVG/1.1/DTD/svg11.dtd">
<!-- Generated by graphviz version 2.43.0 (0)
 -->
<!-- Title: hgps::get_default_simulation_module_factory Pages: 1 -->
<svg width="529pt" height="1056pt"
 viewBox="0.00 0.00 529.00 1056.00" xmlns="http://www.w3.org/2000/svg" xmlns:xlink="http://www.w3.org/1999/xlink">
<g id="graph0" class="graph" transform="scale(1 1) rotate(0) translate(4 1052)">
<title>hgps::get_default_simulation_module_factory</title>
<!-- Node1 -->
<g id="node1" class="node">
<title>Node1</title>
<g id="a_node1"><a xlink:title="Create the default simulation modules factory for production usage.">
<polygon fill="#bfbfbf" stroke="black" points="0,-456.5 0,-486.5 158,-486.5 158,-456.5 0,-456.5"/>
<text text-anchor="start" x="8" y="-474.5" font-family="Helvetica,sans-Serif" font-size="10.00">hgps::get_default_simulation</text>
<text text-anchor="middle" x="79" y="-463.5" font-family="Helvetica,sans-Serif" font-size="10.00">_module_factory</text>
</a>
</g>
</g>
<!-- Node2 -->
<g id="node2" class="node">
<title>Node2</title>
<g id="a_node2"><a xlink:href="namespacehgps.html#a00f39dc81f9c78a17b520811df508289" target="_top" xlink:title="Builds a new instance of the AnalysisModule using the given data infrastructure.">
<polygon fill="none" stroke="black" points="199.5,-831.5 199.5,-861.5 315.5,-861.5 315.5,-831.5 199.5,-831.5"/>
<text text-anchor="start" x="207.5" y="-849.5" font-family="Helvetica,sans-Serif" font-size="10.00">hgps::build_analysis</text>
<text text-anchor="middle" x="257.5" y="-838.5" font-family="Helvetica,sans-Serif" font-size="10.00">_module</text>
</a>
</g>
</g>
<!-- Node1&#45;&gt;Node2 -->
<g id="edge1" class="edge">
<title>Node1&#45;&gt;Node2</title>
<path fill="none" stroke="midnightblue" d="M84.08,-486.69C96.5,-531.58 136.56,-666.82 194,-767.5 205.63,-787.88 222.23,-808.59 235.4,-823.7"/>
<polygon fill="midnightblue" stroke="midnightblue" points="233.06,-826.32 242.32,-831.47 238.29,-821.67 233.06,-826.32"/>
</g>
<!-- Node11 -->
<g id="node11" class="node">
<title>Node11</title>
<g id="a_node11"><a xlink:href="namespacehgps.html#a1dfc6cbd78a8f76582f05e63bcd8d3a6" target="_top" xlink:title="Builds a new instance of the DiseaseModule using the given data infrastructure.">
<polygon fill="none" stroke="black" points="201,-727.5 201,-757.5 314,-757.5 314,-727.5 201,-727.5"/>
<text text-anchor="start" x="209" y="-745.5" font-family="Helvetica,sans-Serif" font-size="10.00">hgps::build_disease</text>
<text text-anchor="middle" x="257.5" y="-734.5" font-family="Helvetica,sans-Serif" font-size="10.00">_module</text>
</a>
</g>
</g>
<!-- Node1&#45;&gt;Node11 -->
<g id="edge10" class="edge">
<title>Node1&#45;&gt;Node11</title>
<path fill="none" stroke="midnightblue" d="M90,-486.85C119.36,-531.94 205.54,-664.25 240.99,-718.69"/>
<polygon fill="midnightblue" stroke="midnightblue" points="238.22,-720.85 246.61,-727.32 244.09,-717.03 238.22,-720.85"/>
</g>
<!-- Node16 -->
<g id="node16" class="node">
<title>Node16</title>
<g id="a_node16"><a xlink:href="namespacehgps.html#ad7d042f1937872f2f8b344915584a7a9" target="_top" xlink:title="Builds a new instance of the PopulationModule using the given data infrastructure.">
<polygon fill="none" stroke="black" points="194,-456.5 194,-486.5 321,-486.5 321,-456.5 194,-456.5"/>
<text text-anchor="start" x="202" y="-474.5" font-family="Helvetica,sans-Serif" font-size="10.00">hgps::build_population</text>
<text text-anchor="middle" x="257.5" y="-463.5" font-family="Helvetica,sans-Serif" font-size="10.00">_module</text>
</a>
</g>
</g>
<!-- Node1&#45;&gt;Node16 -->
<g id="edge18" class="edge">
<title>Node1&#45;&gt;Node16</title>
<path fill="none" stroke="midnightblue" d="M158.19,-471.5C166.64,-471.5 175.22,-471.5 183.61,-471.5"/>
<polygon fill="midnightblue" stroke="midnightblue" points="183.73,-475 193.73,-471.5 183.73,-468 183.73,-475"/>
</g>
<!-- Node22 -->
<g id="node22" class="node">
<title>Node22</title>
<g id="a_node22"><a xlink:href="namespacehgps.html#ae0fac74fbde1e5a2c58bf7ce7f866f80" target="_top" xlink:title=" ">
<polygon fill="none" stroke="black" points="194,-184.5 194,-214.5 321,-214.5 321,-184.5 194,-184.5"/>
<text text-anchor="start" x="202" y="-202.5" font-family="Helvetica,sans-Serif" font-size="10.00">hgps::build_risk_factor</text>
<text text-anchor="middle" x="257.5" y="-191.5" font-family="Helvetica,sans-Serif" font-size="10.00">_module</text>
</a>
</g>
</g>
<!-- Node1&#45;&gt;Node22 -->
<g id="edge27" class="edge">
<title>Node1&#45;&gt;Node22</title>
<path fill="none" stroke="midnightblue" d="M89.74,-456.49C118.84,-411.64 205.33,-278.36 240.93,-223.5"/>
<polygon fill="midnightblue" stroke="midnightblue" points="244.06,-225.09 246.57,-214.8 238.19,-221.28 244.06,-225.09"/>
</g>
<!-- Node28 -->
<g id="node28" class="node">
<title>Node28</title>
<g id="a_node28"><a xlink:href="namespacehgps.html#a5e12849e2055f3e1f5ffdaf234380e16" target="_top" xlink:title=" ">
<polygon fill="none" stroke="black" points="196,-56.5 196,-86.5 319,-86.5 319,-56.5 196,-56.5"/>
<text text-anchor="start" x="204" y="-74.5" font-family="Helvetica,sans-Serif" font-size="10.00">hgps::build_ses_noise</text>
<text text-anchor="middle" x="257.5" y="-63.5" font-family="Helvetica,sans-Serif" font-size="10.00">_module</text>
</a>
</g>
</g>
<!-- Node1&#45;&gt;Node28 -->
<g id="edge33" class="edge">
<title>Node1&#45;&gt;Node28</title>
<path fill="none" stroke="midnightblue" d="M84.8,-456.33C99.05,-412.02 143.24,-279.41 194,-175.5 208.01,-146.81 227.34,-115.64 240.78,-94.98"/>
<polygon fill="midnightblue" stroke="midnightblue" points="243.76,-96.82 246.32,-86.54 237.91,-92.98 243.76,-96.82"/>
</g>
<!-- Node3 -->
<g id="node3" class="node">
<title>Node3</title>
<g id="a_node3"><a xlink:href="classhgps_1_1Settings.html#a317e5711c6337e4ed6644edf7849988e" target="_top" xlink:title="The experiment population age range constraint.">
<polygon fill="none" stroke="black" points="384,-831.5 384,-861.5 494,-861.5 494,-831.5 384,-831.5"/>
<text text-anchor="start" x="392" y="-849.5" font-family="Helvetica,sans-Serif" font-size="10.00">hgps::Settings::age</text>
<text text-anchor="middle" x="439" y="-838.5" font-family="Helvetica,sans-Serif" font-size="10.00">_range</text>
</a>
</g>
</g>
<!-- Node2&#45;&gt;Node3 -->
<g id="edge2" class="edge">
<title>Node2&#45;&gt;Node3</title>
<path fill="none" stroke="midnightblue" d="M315.79,-846.5C334.23,-846.5 354.78,-846.5 373.68,-846.5"/>
<polygon fill="midnightblue" stroke="midnightblue" points="373.7,-850 383.7,-846.5 373.7,-843 373.7,-850"/>
</g>
<!-- Node4 -->
<g id="node4" class="node">
<title>Node4</title>
<g id="a_node4"><a xlink:href="classhgps_1_1Settings.html#a4538c7a82ccecddb077b8283bb7735f7" target="_top" xlink:title="Gets the experiment target country information.">
<polygon fill="none" stroke="black" points="375,-569 375,-588 503,-588 503,-569 375,-569"/>
<text text-anchor="middle" x="439" y="-576" font-family="Helvetica,sans-Serif" font-size="10.00">hgps::Settings::country</text>
</a>
</g>
</g>
<!-- Node2&#45;&gt;Node4 -->
<g id="edge3" class="edge">
<title>Node2&#45;&gt;Node4</title>
<path fill="none" stroke="midnightblue" d="M274.07,-831.34C288.46,-816.43 309.32,-792.35 321,-767.5 353.68,-698.01 303.58,-653.67 357,-598.5 359.68,-595.74 362.67,-593.33 365.88,-591.24"/>
<polygon fill="midnightblue" stroke="midnightblue" points="367.71,-594.23 374.85,-586.4 364.39,-588.07 367.71,-594.23"/>
</g>
<!-- Node5 -->
<g id="node5" class="node">
<title>Node5</title>
<g id="a_node5"><a xlink:href="classhgps_1_1core_1_1Datastore.html#ac22a342da438569f5b97c5c0540e628f" target="_top" xlink:title="Gets the Burden of Diseases (BoD) analysis dataset for a country.">
<polygon fill="none" stroke="black" points="375.5,-1017.5 375.5,-1047.5 502.5,-1047.5 502.5,-1017.5 375.5,-1017.5"/>
<text text-anchor="start" x="383.5" y="-1035.5" font-family="Helvetica,sans-Serif" font-size="10.00">hgps::core::Datastore</text>
<text text-anchor="middle" x="439" y="-1024.5" font-family="Helvetica,sans-Serif" font-size="10.00">::get_disease_analysis</text>
</a>
</g>
</g>
<!-- Node2&#45;&gt;Node5 -->
<g id="edge4" class="edge">
<title>Node2&#45;&gt;Node5</title>
<path fill="none" stroke="midnightblue" d="M263.66,-861.9C275.17,-893.9 306.03,-967.89 357,-1007.5 359.82,-1009.69 362.83,-1011.69 365.97,-1013.51"/>
<polygon fill="midnightblue" stroke="midnightblue" points="364.62,-1016.75 375.11,-1018.2 367.81,-1010.52 364.62,-1016.75"/>
</g>
<!-- Node6 -->
<g id="node6" class="node">
<title>Node6</title>
<g id="a_node6"><a xlink:href="classhgps_1_1Repository.html#a480bc36a0f3c2ec07daabf862c0b0667" target="_top" xlink:title="Gets the LMS (lambda&#45;mu&#45;sigma) definition.">
<polygon fill="none" stroke="black" points="379.5,-880.5 379.5,-910.5 498.5,-910.5 498.5,-880.5 379.5,-880.5"/>
<text text-anchor="start" x="387.5" y="-898.5" font-family="Helvetica,sans-Serif" font-size="10.00">hgps::Repository::get</text>
<text text-anchor="middle" x="439" y="-887.5" font-family="Helvetica,sans-Serif" font-size="10.00">_lms_definition</text>
</a>
</g>
</g>
<!-- Node2&#45;&gt;Node6 -->
<g id="edge5" class="edge">
<title>Node2&#45;&gt;Node6</title>
<path fill="none" stroke="midnightblue" d="M313.82,-861.6C332.59,-866.73 353.73,-872.5 373.17,-877.8"/>
<polygon fill="midnightblue" stroke="midnightblue" points="372.29,-881.19 382.86,-880.45 374.14,-874.44 372.29,-881.19"/>
</g>
<!-- Node7 -->
<g id="node7" class="node">
<title>Node7</title>
<g id="a_node7"><a xlink:href="classhgps_1_1Repository.html#acf292f7951f2391e72305f7f1694659b" target="_top" xlink:title="Gets a reference to the back&#45;end storage instance.">
<polygon fill="none" stroke="black" points="365.5,-531 365.5,-550 512.5,-550 512.5,-531 365.5,-531"/>
<text text-anchor="middle" x="439" y="-538" font-family="Helvetica,sans-Serif" font-size="10.00">hgps::Repository::manager</text>
</a>
</g>
</g>
<!-- Node2&#45;&gt;Node7 -->
<g id="edge6" class="edge">
<title>Node2&#45;&gt;Node7</title>
<path fill="none" stroke="midnightblue" d="M274.28,-831.44C288.83,-816.6 309.8,-792.57 321,-767.5 359.29,-681.85 292.65,-627.77 357,-559.5 358.23,-558.2 359.52,-556.98 360.88,-555.84"/>
<polygon fill="midnightblue" stroke="midnightblue" points="362.99,-558.64 369.26,-550.1 359.03,-552.86 362.99,-558.64"/>
</g>
<!-- Node8 -->
<g id="node8" class="node">
<title>Node8</title>
<g id="a_node8"><a xlink:href="classhgps_1_1ModelInput.html#abd88dd970c41908601acde18d5d69b8e" target="_top" xlink:title="Gets the simulation run information.">
<polygon fill="none" stroke="black" points="378,-979 378,-998 500,-998 500,-979 378,-979"/>
<text text-anchor="middle" x="439" y="-986" font-family="Helvetica,sans-Serif" font-size="10.00">hgps::ModelInput::run</text>
</a>
</g>
</g>
<!-- Node2&#45;&gt;Node8 -->
<g id="edge7" class="edge">
<title>Node2&#45;&gt;Node8</title>
<path fill="none" stroke="midnightblue" d="M266.22,-861.69C280.42,-888.01 313.27,-941.9 357,-969.5 360.57,-971.75 364.39,-973.74 368.34,-975.49"/>
<polygon fill="midnightblue" stroke="midnightblue" points="367.18,-978.8 377.77,-979.17 369.72,-972.28 367.18,-978.8"/>
</g>
<!-- Node9 -->
<g id="node9" class="node">
<title>Node9</title>
<g id="a_node9"><a xlink:href="classhgps_1_1ModelInput.html#acf1b179fa0b7c3d06dd928584efd8fd3" target="_top" xlink:title="Gets the simulation experiment settings definition.">
<polygon fill="none" stroke="black" points="366,-793 366,-812 512,-812 512,-793 366,-793"/>
<text text-anchor="middle" x="439" y="-800" font-family="Helvetica,sans-Serif" font-size="10.00">hgps::ModelInput::settings</text>
</a>
</g>
</g>
<!-- Node2&#45;&gt;Node9 -->
<g id="edge8" class="edge">
<title>Node2&#45;&gt;Node9</title>
<path fill="none" stroke="midnightblue" d="M315.79,-832.46C339.47,-826.65 366.64,-819.99 389.34,-814.43"/>
<polygon fill="midnightblue" stroke="midnightblue" points="390.22,-817.82 399.1,-812.04 388.55,-811.02 390.22,-817.82"/>
</g>
<!-- Node10 -->
<g id="node10" class="node">
<title>Node10</title>
<g id="a_node10"><a xlink:href="classhgps_1_1detail_1_1StoreConverter.html#a6453f9feb5c024128ad6846f5ba04984" target="_top" xlink:title=" ">
<polygon fill="none" stroke="black" points="362.5,-929.5 362.5,-959.5 515.5,-959.5 515.5,-929.5 362.5,-929.5"/>
<text text-anchor="start" x="370.5" y="-947.5" font-family="Helvetica,sans-Serif" font-size="10.00">hgps::detail::StoreConverter</text>
<text text-anchor="middle" x="439" y="-936.5" font-family="Helvetica,sans-Serif" font-size="10.00">::to_analysis_definition</text>
</a>
</g>
</g>
<!-- Node2&#45;&gt;Node10 -->
<g id="edge9" class="edge">
<title>Node2&#45;&gt;Node10</title>
<path fill="none" stroke="midnightblue" d="M274.7,-861.59C293.28,-878.16 325.28,-904.54 357,-920.5 360.76,-922.39 364.69,-924.16 368.71,-925.81"/>
<polygon fill="midnightblue" stroke="midnightblue" points="367.63,-929.14 378.22,-929.45 370.13,-922.6 367.63,-929.14"/>
</g>
<!-- Node11&#45;&gt;Node3 -->
<g id="edge11" class="edge">
<title>Node11&#45;&gt;Node3</title>
<path fill="none" stroke="midnightblue" d="M273.56,-757.66C291.83,-775.27 324.27,-804.14 357,-821.5 362.46,-824.4 368.31,-827.02 374.27,-829.37"/>
<polygon fill="midnightblue" stroke="midnightblue" points="373.1,-832.67 383.7,-832.85 375.53,-826.1 373.1,-832.67"/>
</g>
<!-- Node11&#45;&gt;Node6 -->
<g id="edge16" class="edge">
<title>Node11&#45;&gt;Node6</title>
<path fill="none" stroke="midnightblue" d="M270.62,-757.73C283.31,-773.75 303.76,-799.74 321,-822.5 337.32,-844.04 334.89,-855.96 357,-871.5 360.99,-874.3 365.31,-876.78 369.81,-878.98"/>
<polygon fill="midnightblue" stroke="midnightblue" points="368.67,-882.3 379.24,-883.09 371.47,-875.89 368.67,-882.3"/>
</g>
<!-- Node11&#45;&gt;Node9 -->
<g id="edge17" class="edge">
<title>Node11&#45;&gt;Node9</title>
<path fill="none" stroke="midnightblue" d="M290.83,-757.53C309.81,-765.96 334.44,-776.21 357,-783.5 364.82,-786.02 373.16,-788.37 381.41,-790.48"/>
<polygon fill="midnightblue" stroke="midnightblue" points="380.83,-793.94 391.38,-792.94 382.51,-787.15 380.83,-793.94"/>
</g>
<!-- Node12 -->
<g id="node12" class="node">
<title>Node12</title>
<g id="a_node12"><a xlink:href="classhgps_1_1ModelInput.html#afdc4b35087c18875cb546dd0c653fe0a" target="_top" xlink:title="Gets the collection of diseases to include in experiment.">
<polygon fill="none" stroke="black" points="364.5,-755 364.5,-774 513.5,-774 513.5,-755 364.5,-755"/>
<text text-anchor="middle" x="439" y="-762" font-family="Helvetica,sans-Serif" font-size="10.00">hgps::ModelInput::diseases</text>
</a>
</g>
</g>
<!-- Node11&#45;&gt;Node12 -->
<g id="edge12" class="edge">
<title>Node11&#45;&gt;Node12</title>
<path fill="none" stroke="midnightblue" d="M314.31,-749.34C326.94,-750.89 340.62,-752.57 354.12,-754.22"/>
<polygon fill="midnightblue" stroke="midnightblue" points="354.04,-757.74 364.4,-755.48 354.9,-750.79 354.04,-757.74"/>
</g>
<!-- Node13 -->
<g id="node13" class="node">
<title>Node13</title>
<g id="a_node13"><a xlink:href="namespacehgps.html#abad57caf5bece7e34b2f81cc94709d40" target="_top" xlink:title="Create the default disease model builder registry for disease group.">
<polygon fill="none" stroke="black" points="367,-705.5 367,-735.5 511,-735.5 511,-705.5 367,-705.5"/>
<text text-anchor="start" x="375" y="-723.5" font-family="Helvetica,sans-Serif" font-size="10.00">hgps::get_default_disease</text>
<text text-anchor="middle" x="439" y="-712.5" font-family="Helvetica,sans-Serif" font-size="10.00">_model_registry</text>
</a>
</g>
</g>
<!-- Node11&#45;&gt;Node13 -->
<g id="edge13" class="edge">
<title>Node11&#45;&gt;Node13</title>
<path fill="none" stroke="midnightblue" d="M314.31,-735.66C327.86,-734 342.61,-732.19 357.06,-730.42"/>
<polygon fill="midnightblue" stroke="midnightblue" points="357.5,-733.89 367,-729.2 356.64,-726.94 357.5,-733.89"/>
</g>
<!-- Node14 -->
<g id="node14" class="node">
<title>Node14</title>
<g id="a_node14"><a xlink:href="classhgps_1_1Repository.html#a128ca9476585aa8ccae799158099a207" target="_top" xlink:title="Gets a disease complete definition.">
<polygon fill="none" stroke="black" points="379.5,-656.5 379.5,-686.5 498.5,-686.5 498.5,-656.5 379.5,-656.5"/>
<text text-anchor="start" x="387.5" y="-674.5" font-family="Helvetica,sans-Serif" font-size="10.00">hgps::Repository::get</text>
<text text-anchor="middle" x="439" y="-663.5" font-family="Helvetica,sans-Serif" font-size="10.00">_disease_definition</text>
</a>
</g>
</g>
<!-- Node11&#45;&gt;Node14 -->
<g id="edge14" class="edge">
<title>Node11&#45;&gt;Node14</title>
<path fill="none" stroke="midnightblue" d="M288.21,-727.32C307.52,-717.78 333.4,-705.6 357,-696.5 362.95,-694.21 369.2,-691.97 375.49,-689.85"/>
<polygon fill="midnightblue" stroke="midnightblue" points="376.95,-693.05 385.35,-686.6 374.76,-686.4 376.95,-693.05"/>
</g>
<!-- Node15 -->
<g id="node15" class="node">
<title>Node15</title>
<g id="a_node15"><a xlink:href="classhgps_1_1Repository.html#ad11b424670ef4e0c3d93e999d86efa58" target="_top" xlink:title="Gets a disease information by identifier.">
<polygon fill="none" stroke="black" points="379.5,-607.5 379.5,-637.5 498.5,-637.5 498.5,-607.5 379.5,-607.5"/>
<text text-anchor="start" x="387.5" y="-625.5" font-family="Helvetica,sans-Serif" font-size="10.00">hgps::Repository::get</text>
<text text-anchor="middle" x="439" y="-614.5" font-family="Helvetica,sans-Serif" font-size="10.00">_disease_info</text>
</a>
</g>
</g>
<!-- Node11&#45;&gt;Node15 -->
<g id="edge15" class="edge">
<title>Node11&#45;&gt;Node15</title>
<path fill="none" stroke="midnightblue" d="M270.22,-727.4C287.19,-706.53 320.58,-669 357,-647.5 361.06,-645.1 365.38,-642.91 369.82,-640.91"/>
<polygon fill="midnightblue" stroke="midnightblue" points="371.17,-644.14 379.07,-637.09 368.5,-637.68 371.17,-644.14"/>
</g>
<!-- Node16&#45;&gt;Node4 -->
<g id="edge19" class="edge">
<title>Node16&#45;&gt;Node4</title>
<path fill="none" stroke="midnightblue" d="M271.15,-486.79C288.44,-506.66 321.4,-540.98 357,-559.5 361.53,-561.86 366.35,-563.92 371.3,-565.74"/>
<polygon fill="midnightblue" stroke="midnightblue" points="370.33,-569.11 380.93,-568.92 372.53,-562.46 370.33,-569.11"/>
</g>
<!-- Node16&#45;&gt;Node7 -->
<g id="edge23" class="edge">
<title>Node16&#45;&gt;Node7</title>
<path fill="none" stroke="midnightblue" d="M284.07,-486.63C303.52,-497.6 331.24,-512.09 357,-521.5 363.98,-524.05 371.43,-526.34 378.87,-528.38"/>
<polygon fill="midnightblue" stroke="midnightblue" points="378.06,-531.78 388.62,-530.9 379.82,-525 378.06,-531.78"/>
</g>
<!-- Node16&#45;&gt;Node9 -->
<g id="edge24" class="edge">
<title>Node16&#45;&gt;Node9</title>
<path fill="none" stroke="midnightblue" d="M262.33,-486.61C277.56,-546.13 334.04,-762.21 357,-783.5 358.68,-785.06 360.46,-786.49 362.32,-787.82"/>
<polygon fill="midnightblue" stroke="midnightblue" points="360.58,-790.86 370.97,-792.95 364.15,-784.83 360.58,-790.86"/>
</g>
<!-- Node17 -->
<g id="node17" class="node">
<title>Node17</title>
<g id="a_node17"><a xlink:href="classhgps_1_1core_1_1Datastore.html#a478f1c3eca4cd2166eb77d7d6488a569" target="_top" xlink:title="Gets the population birth indicators for a country filtered by time.">
<polygon fill="none" stroke="black" points="378.5,-306.5 378.5,-336.5 499.5,-336.5 499.5,-306.5 378.5,-306.5"/>
<text text-anchor="start" x="386.5" y="-324.5" font-family="Helvetica,sans-Serif" font-size="10.00">hgps::core::Datastore</text>
<text text-anchor="middle" x="439" y="-313.5" font-family="Helvetica,sans-Serif" font-size="10.00">::get_birth_indicators</text>
</a>
</g>
</g>
<!-- Node16&#45;&gt;Node17 -->
<g id="edge20" class="edge">
<title>Node16&#45;&gt;Node17</title>
<path fill="none" stroke="midnightblue" d="M266.36,-456.37C280.77,-430.1 313.94,-376.05 357,-346.5 360.72,-343.95 364.71,-341.65 368.85,-339.58"/>
<polygon fill="midnightblue" stroke="midnightblue" points="370.43,-342.7 378.11,-335.4 367.56,-336.32 370.43,-342.7"/>
</g>
<!-- Node18 -->
<g id="node18" class="node">
<title>Node18</title>
<g id="a_node18"><a xlink:href="classhgps_1_1core_1_1Datastore.html#a80544f7a15b4d8069e6013ad7df22c01" target="_top" xlink:title="Gets the population mortality trend for a country filtered by time.">
<polygon fill="none" stroke="black" points="378.5,-481.5 378.5,-511.5 499.5,-511.5 499.5,-481.5 378.5,-481.5"/>
<text text-anchor="start" x="386.5" y="-499.5" font-family="Helvetica,sans-Serif" font-size="10.00">hgps::core::Datastore</text>
<text text-anchor="middle" x="439" y="-488.5" font-family="Helvetica,sans-Serif" font-size="10.00">::get_mortality</text>
</a>
</g>
</g>
<!-- Node16&#45;&gt;Node18 -->
<g id="edge21" class="edge">
<title>Node16&#45;&gt;Node18</title>
<path fill="none" stroke="midnightblue" d="M321.03,-480.21C336.3,-482.34 352.73,-484.62 368.32,-486.79"/>
<polygon fill="midnightblue" stroke="midnightblue" points="368.02,-490.29 378.41,-488.2 368.99,-483.35 368.02,-490.29"/>
</g>
<!-- Node19 -->
<g id="node19" class="node">
<title>Node19</title>
<g id="a_node19"><a xlink:href="classhgps_1_1core_1_1Datastore.html#a18209be1995680018625c2276ad68853" target="_top" xlink:title="Gets the population growth trend for a country filtered by time.">
<polygon fill="none" stroke="black" points="378.5,-432.5 378.5,-462.5 499.5,-462.5 499.5,-432.5 378.5,-432.5"/>
<text text-anchor="start" x="386.5" y="-450.5" font-family="Helvetica,sans-Serif" font-size="10.00">hgps::core::Datastore</text>
<text text-anchor="middle" x="439" y="-439.5" font-family="Helvetica,sans-Serif" font-size="10.00">::get_population</text>
</a>
</g>
</g>
<!-- Node16&#45;&gt;Node19 -->
<g id="edge22" class="edge">
<title>Node16&#45;&gt;Node19</title>
<path fill="none" stroke="midnightblue" d="M321.03,-463.14C336.3,-461.1 352.73,-458.9 368.32,-456.82"/>
<polygon fill="midnightblue" stroke="midnightblue" points="368.96,-460.26 378.41,-455.47 368.04,-453.32 368.96,-460.26"/>
</g>
<!-- Node20 -->
<g id="node20" class="node">
<title>Node20</title>
<g id="a_node20"><a xlink:href="classhgps_1_1ModelInput.html#a4e4bfd49abcbe8999f611d2235fcef4e" target="_top" xlink:title="Gets the experiment start time.">
<polygon fill="none" stroke="black" points="360.5,-394 360.5,-413 517.5,-413 517.5,-394 360.5,-394"/>
<text text-anchor="middle" x="439" y="-401" font-family="Helvetica,sans-Serif" font-size="10.00">hgps::ModelInput::start_time</text>
</a>
</g>
</g>
<!-- Node16&#45;&gt;Node20 -->
<g id="edge25" class="edge">
<title>Node16&#45;&gt;Node20</title>
<path fill="none" stroke="midnightblue" d="M285.42,-456.46C304.85,-446.08 331.96,-432.58 357,-423.5 365.03,-420.59 373.65,-417.96 382.17,-415.64"/>
<polygon fill="midnightblue" stroke="midnightblue" points="383.29,-418.96 392.08,-413.05 381.52,-412.19 383.29,-418.96"/>
</g>
<!-- Node21 -->
<g id="node21" class="node">
<title>Node21</title>
<g id="a_node21"><a xlink:href="classhgps_1_1ModelInput.html#a045b359f9876d85a9dadf8afd6c677c8" target="_top" xlink:title="Gets the experiment stop time.">
<polygon fill="none" stroke="black" points="361.5,-356 361.5,-375 516.5,-375 516.5,-356 361.5,-356"/>
<text text-anchor="middle" x="439" y="-363" font-family="Helvetica,sans-Serif" font-size="10.00">hgps::ModelInput::stop_time</text>
</a>
</g>
</g>
<!-- Node16&#45;&gt;Node21 -->
<g id="edge26" class="edge">
<title>Node16&#45;&gt;Node21</title>
<path fill="none" stroke="midnightblue" d="M271.19,-456.39C288.52,-436.75 321.53,-402.83 357,-384.5 361.54,-382.16 366.36,-380.1 371.31,-378.29"/>
<polygon fill="midnightblue" stroke="midnightblue" points="372.55,-381.57 380.95,-375.11 370.35,-374.92 372.55,-381.57"/>
</g>
<!-- Node23 -->
<g id="node23" class="node">
<title>Node23</title>
<g id="a_node23"><a xlink:href="classhgps_1_1Repository.html#a42dfd811aa4396e140a126b50d3e5c74" target="_top" xlink:title="Gets the user provided baseline risk factors adjustment dataset.">
<polygon fill="none" stroke="black" points="377,-50 377,-91 501,-91 501,-50 377,-50"/>
<text text-anchor="start" x="385" y="-79" font-family="Helvetica,sans-Serif" font-size="10.00">hgps::Repository::get</text>
<text text-anchor="start" x="385" y="-68" font-family="Helvetica,sans-Serif" font-size="10.00">_baseline_adjustment</text>
<text text-anchor="middle" x="439" y="-57" font-family="Helvetica,sans-Serif" font-size="10.00">_definition</text>
</a>
</g>
</g>
<!-- Node22&#45;&gt;Node23 -->
<g id="edge28" class="edge">
<title>Node22&#45;&gt;Node23</title>
<path fill="none" stroke="midnightblue" d="M270.32,-184.25C287.41,-163.09 320.95,-124.82 357,-101.5 360.48,-99.25 364.16,-97.12 367.94,-95.11"/>
<polygon fill="midnightblue" stroke="midnightblue" points="369.51,-98.24 376.92,-90.67 366.4,-91.97 369.51,-98.24"/>
</g>
<!-- Node24 -->
<g id="node24" class="node">
<title>Node24</title>
<g id="a_node24"><a xlink:href="namespacehgps.html#ae9b174775b16879867eaefdd09019019" target="_top" xlink:title="Gets the default production instance builders for full hierarchical regression models.">
<polygon fill="none" stroke="black" points="357,-257.5 357,-287.5 521,-287.5 521,-257.5 357,-257.5"/>
<text text-anchor="start" x="365" y="-275.5" font-family="Helvetica,sans-Serif" font-size="10.00">hgps::get_default_hierarchical</text>
<text text-anchor="middle" x="439" y="-264.5" font-family="Helvetica,sans-Serif" font-size="10.00">_model_registry</text>
</a>
</g>
</g>
<!-- Node22&#45;&gt;Node24 -->
<g id="edge29" class="edge">
<title>Node22&#45;&gt;Node24</title>
<path fill="none" stroke="midnightblue" d="M285.52,-214.53C304.99,-224.97 332.12,-238.71 357,-248.5 362.03,-250.48 367.3,-252.39 372.62,-254.2"/>
<polygon fill="midnightblue" stroke="midnightblue" points="371.64,-257.56 382.23,-257.37 373.82,-250.91 371.64,-257.56"/>
</g>
<!-- Node25 -->
<g id="node25" class="node">
<title>Node25</title>
<g id="a_node25"><a xlink:href="namespacehgps.html#ab6f6184e7acdf4d238a0928c66ee9953" target="_top" xlink:title="Gets the default production instance builders for lite hierarchical regression models.">
<polygon fill="none" stroke="black" points="360,-208.5 360,-238.5 518,-238.5 518,-208.5 360,-208.5"/>
<text text-anchor="start" x="368" y="-226.5" font-family="Helvetica,sans-Serif" font-size="10.00">hgps::get_default_lite</text>
<text text-anchor="middle" x="439" y="-215.5" font-family="Helvetica,sans-Serif" font-size="10.00">_hierarchical_model_registry</text>
</a>
</g>
</g>
<!-- Node22&#45;&gt;Node25 -->
<g id="edge30" class="edge">
<title>Node22&#45;&gt;Node25</title>
<path fill="none" stroke="midnightblue" d="M321.03,-207.86C330.34,-209.11 340.08,-210.41 349.8,-211.71"/>
<polygon fill="midnightblue" stroke="midnightblue" points="349.53,-215.2 359.9,-213.06 350.46,-208.26 349.53,-215.2"/>
</g>
<!-- Node26 -->
<g id="node26" class="node">
<title>Node26</title>
<g id="a_node26"><a xlink:href="classhgps_1_1Repository.html#a966ee2b3fe25f392fc0ab670a7c27d48" target="_top" xlink:title="Gets the user provided hierarchical linear model definition.">
<polygon fill="none" stroke="black" points="370.5,-159.5 370.5,-189.5 507.5,-189.5 507.5,-159.5 370.5,-159.5"/>
<text text-anchor="start" x="378.5" y="-177.5" font-family="Helvetica,sans-Serif" font-size="10.00">hgps::Repository::get</text>
<text text-anchor="middle" x="439" y="-166.5" font-family="Helvetica,sans-Serif" font-size="10.00">_linear_model_definition</text>
</a>
</g>
</g>
<!-- Node22&#45;&gt;Node26 -->
<g id="edge31" class="edge">
<title>Node22&#45;&gt;Node26</title>
<path fill="none" stroke="midnightblue" d="M321.03,-190.79C333.77,-189.02 347.31,-187.13 360.5,-185.29"/>
<polygon fill="midnightblue" stroke="midnightblue" points="361.08,-188.75 370.5,-183.9 360.11,-181.81 361.08,-188.75"/>
</g>
<!-- Node27 -->
<g id="node27" class="node">
<title>Node27</title>
<g id="a_node27"><a xlink:href="classhgps_1_1Repository.html#a0da5ff4b083b21f55709e410b5f72f39" target="_top" xlink:title="Gets the user provided lite hierarchical linear model definition.">
<polygon fill="none" stroke="black" points="360,-110.5 360,-140.5 518,-140.5 518,-110.5 360,-110.5"/>
<text text-anchor="start" x="368" y="-128.5" font-family="Helvetica,sans-Serif" font-size="10.00">hgps::Repository::get</text>
<text text-anchor="middle" x="439" y="-117.5" font-family="Helvetica,sans-Serif" font-size="10.00">_lite_linear_model_definition</text>
</a>
</g>
</g>
<!-- Node22&#45;&gt;Node27 -->
<g id="edge32" class="edge">
<title>Node22&#45;&gt;Node27</title>
<path fill="none" stroke="midnightblue" d="M285.97,-184.33C305.43,-173.96 332.35,-160.36 357,-150.5 362.83,-148.17 368.96,-145.92 375.14,-143.79"/>
<polygon fill="midnightblue" stroke="midnightblue" points="376.47,-147.04 384.85,-140.55 374.25,-140.4 376.47,-147.04"/>
</g>
<!-- Node29 -->
<g id="node29" class="node">
<title>Node29</title>
<g id="a_node29"><a xlink:href="classhgps_1_1ModelInput.html#a63aa938279daec0fa272d867c257f5ae" target="_top" xlink:title="Gets the Socio&#45;economic status (SES) model information.">
<polygon fill="none" stroke="black" points="377.5,-0.5 377.5,-30.5 500.5,-30.5 500.5,-0.5 377.5,-0.5"/>
<text text-anchor="start" x="385.5" y="-18.5" font-family="Helvetica,sans-Serif" font-size="10.00">hgps::ModelInput::ses</text>
<text text-anchor="middle" x="439" y="-7.5" font-family="Helvetica,sans-Serif" font-size="10.00">_definition</text>
</a>
</g>
</g>
<!-- Node28&#45;&gt;Node29 -->
<g id="edge34" class="edge">
<title>Node28&#45;&gt;Node29</title>
<path fill="none" stroke="midnightblue" d="M306.08,-56.47C322.24,-51.38 340.4,-45.67 357,-40.5 364.31,-38.22 372,-35.84 379.6,-33.48"/>
<polygon fill="midnightblue" stroke="midnightblue" points="380.64,-36.83 389.16,-30.53 378.57,-30.14 380.64,-36.83"/>
</g>
</g>
</svg>
