<?xml version="1.0" encoding="UTF-8" standalone="no"?>
<!DOCTYPE svg PUBLIC "-//W3C//DTD SVG 1.1//EN"
 "http://www.w3.org/Graphics/SVG/1.1/DTD/svg11.dtd">
<!-- Generated by graphviz version 2.43.0 (0)
 -->
<!-- Title: hgps::core::to_lower Pages: 1 -->
<svg width="732pt" height="490pt"
 viewBox="0.00 0.00 732.00 490.00" xmlns="http://www.w3.org/2000/svg" xmlns:xlink="http://www.w3.org/1999/xlink">
<g id="graph0" class="graph" transform="scale(1 1) rotate(0) translate(4 486)">
<title>hgps::core::to_lower</title>
<!-- Node1 -->
<g id="node1" class="node">
<title>Node1</title>
<g id="a_node1"><a xlink:title="Converts the given ASCII string to lower&#45;case.">
<polygon fill="#bfbfbf" stroke="black" points="609,-238.82 609,-257.82 724,-257.82 724,-238.82 609,-238.82"/>
<text text-anchor="middle" x="666.5" y="-245.82" font-family="Helvetica,sans-Serif" font-size="10.00">hgps::core::to_lower</text>
</a>
</g>
</g>
<!-- Node2 -->
<g id="node2" class="node">
<title>Node2</title>
<g id="a_node2"><a xlink:href="classhgps_1_1core_1_1DataTable.html#ae022bf3052be4728cce521ca87a54865" target="_top" xlink:title="Adds a new column to the table.">
<polygon fill="none" stroke="black" points="423,-429.82 423,-448.82 569,-448.82 569,-429.82 423,-429.82"/>
<text text-anchor="middle" x="496" y="-436.82" font-family="Helvetica,sans-Serif" font-size="10.00">hgps::core::DataTable::add</text>
</a>
</g>
</g>
<!-- Node1&#45;&gt;Node2 -->
<g id="edge1" class="edge">
<title>Node1&#45;&gt;Node2</title>
<path fill="none" stroke="midnightblue" d="M660.48,-267.97C650.29,-303.73 623.74,-379.44 573,-419.32 567.42,-423.71 560.97,-427.13 554.24,-429.81"/>
<polygon fill="midnightblue" stroke="midnightblue" points="663.88,-268.8 663.12,-258.24 657.12,-266.97 663.88,-268.8"/>
</g>
<!-- Node3 -->
<g id="node3" class="node">
<title>Node3</title>
<g id="a_node3"><a xlink:href="namespacehost.html#a186b46487783fb34e9ac1ce3d52778aa" target="_top" xlink:title="Populates a datatable with the input data file contents.">
<polygon fill="none" stroke="black" points="261.5,-426.32 261.5,-456.32 377.5,-456.32 377.5,-426.32 261.5,-426.32"/>
<text text-anchor="start" x="269.5" y="-444.32" font-family="Helvetica,sans-Serif" font-size="10.00">host::load_datatable</text>
<text text-anchor="middle" x="319.5" y="-433.32" font-family="Helvetica,sans-Serif" font-size="10.00">_from_csv</text>
</a>
</g>
</g>
<!-- Node1&#45;&gt;Node3 -->
<g id="edge16" class="edge">
<title>Node1&#45;&gt;Node3</title>
<path fill="none" stroke="midnightblue" d="M663.68,-268.35C658.5,-311.93 639.47,-414.97 573,-458.32 506.76,-501.53 408.84,-475.57 356.53,-456.35"/>
<polygon fill="midnightblue" stroke="midnightblue" points="667.18,-268.48 664.76,-258.17 660.22,-267.75 667.18,-268.48"/>
</g>
<!-- Node5 -->
<g id="node5" class="node">
<title>Node5</title>
<g id="a_node5"><a xlink:href="classhgps_1_1DataSeries.html#a3d3e52a0ea2ac6686e28ec69b462266d" target="_top" xlink:title="Adds a new channel to the collection.">
<polygon fill="none" stroke="black" points="434.5,-380.32 434.5,-410.32 557.5,-410.32 557.5,-380.32 434.5,-380.32"/>
<text text-anchor="start" x="442.5" y="-398.32" font-family="Helvetica,sans-Serif" font-size="10.00">hgps::DataSeries::add</text>
<text text-anchor="middle" x="496" y="-387.32" font-family="Helvetica,sans-Serif" font-size="10.00">_channel</text>
</a>
</g>
</g>
<!-- Node1&#45;&gt;Node5 -->
<g id="edge4" class="edge">
<title>Node1&#45;&gt;Node5</title>
<path fill="none" stroke="midnightblue" d="M655.97,-267.24C641.56,-293.98 611.75,-342.66 573,-370.32 567.57,-374.2 561.51,-377.5 555.24,-380.3"/>
<polygon fill="midnightblue" stroke="midnightblue" points="659.19,-268.64 660.72,-258.15 652.98,-265.39 659.19,-268.64"/>
</g>
<!-- Node7 -->
<g id="node7" class="node">
<title>Node7</title>
<g id="a_node7"><a xlink:href="classhgps_1_1core_1_1DataTable.html#a6c64e1194df192529cedc7027cabeeb9" target="_top" xlink:title="Gets the column by name.">
<polygon fill="none" stroke="black" points="435,-331.32 435,-361.32 557,-361.32 557,-331.32 435,-331.32"/>
<text text-anchor="start" x="443" y="-349.32" font-family="Helvetica,sans-Serif" font-size="10.00">hgps::core::DataTable</text>
<text text-anchor="middle" x="496" y="-338.32" font-family="Helvetica,sans-Serif" font-size="10.00">::column</text>
</a>
</g>
</g>
<!-- Node1&#45;&gt;Node7 -->
<g id="edge6" class="edge">
<title>Node1&#45;&gt;Node7</title>
<path fill="none" stroke="midnightblue" d="M648.06,-265.2C630.39,-281.5 601.65,-305.93 573,-321.32 566.03,-325.07 558.39,-328.39 550.73,-331.28"/>
<polygon fill="midnightblue" stroke="midnightblue" points="650.91,-267.32 655.8,-257.92 646.11,-262.22 650.91,-267.32"/>
</g>
<!-- Node8 -->
<g id="node8" class="node">
<title>Node8</title>
<g id="a_node8"><a xlink:href="structhgps_1_1core_1_1case__insensitive.html#a60ec863fe6c31cde4df3e38864dfd0a2" target="_top" xlink:title="Weak&#45;ordering case&#45;insensitive ASCII strings comparer.">
<polygon fill="none" stroke="black" points="419,-282.32 419,-312.32 573,-312.32 573,-282.32 419,-282.32"/>
<text text-anchor="start" x="427" y="-300.32" font-family="Helvetica,sans-Serif" font-size="10.00">hgps::core::case_insensitive</text>
<text text-anchor="middle" x="496" y="-289.32" font-family="Helvetica,sans-Serif" font-size="10.00">::compare</text>
</a>
</g>
</g>
<!-- Node1&#45;&gt;Node8 -->
<g id="edge7" class="edge">
<title>Node1&#45;&gt;Node8</title>
<path fill="none" stroke="midnightblue" d="M622.98,-260.69C600.42,-267.25 572.51,-275.36 548.71,-282.28"/>
<polygon fill="midnightblue" stroke="midnightblue" points="623.99,-264.04 632.61,-257.89 622.03,-257.32 623.99,-264.04"/>
</g>
<!-- Node9 -->
<g id="node9" class="node">
<title>Node9</title>
<g id="a_node9"><a xlink:href="structhgps_1_1core_1_1Identifier.html#a42617028dae66379e732882e54dc1f6a" target="_top" xlink:title="Determines whether a string representation and this instance have same value.">
<polygon fill="none" stroke="black" points="438,-233.32 438,-263.32 554,-263.32 554,-233.32 438,-233.32"/>
<text text-anchor="start" x="446" y="-251.32" font-family="Helvetica,sans-Serif" font-size="10.00">hgps::core::Identifier</text>
<text text-anchor="middle" x="496" y="-240.32" font-family="Helvetica,sans-Serif" font-size="10.00">::equal</text>
</a>
</g>
</g>
<!-- Node1&#45;&gt;Node9 -->
<g id="edge8" class="edge">
<title>Node1&#45;&gt;Node9</title>
<path fill="none" stroke="midnightblue" d="M598.8,-248.32C583.98,-248.32 568.4,-248.32 554,-248.32"/>
<polygon fill="midnightblue" stroke="midnightblue" points="598.92,-251.82 608.92,-248.32 598.92,-244.82 598.92,-251.82"/>
</g>
<!-- Node10 -->
<g id="node10" class="node">
<title>Node10</title>
<g id="a_node10"><a xlink:href="classhgps_1_1data_1_1DataManager.html#a0da4317997c2f64df07b1eee4f06c2e9" target="_top" xlink:title="Gets a disease full definition by identifier for a country.">
<polygon fill="none" stroke="black" points="426,-184.32 426,-214.32 566,-214.32 566,-184.32 426,-184.32"/>
<text text-anchor="start" x="434" y="-202.32" font-family="Helvetica,sans-Serif" font-size="10.00">hgps::data::DataManager</text>
<text text-anchor="middle" x="496" y="-191.32" font-family="Helvetica,sans-Serif" font-size="10.00">::get_disease</text>
</a>
</g>
</g>
<!-- Node1&#45;&gt;Node10 -->
<g id="edge9" class="edge">
<title>Node1&#45;&gt;Node10</title>
<path fill="none" stroke="midnightblue" d="M622.98,-235.96C600.42,-229.4 572.51,-221.28 548.71,-214.36"/>
<polygon fill="midnightblue" stroke="midnightblue" points="622.03,-239.33 632.61,-238.76 623.99,-232.6 622.03,-239.33"/>
</g>
<!-- Node11 -->
<g id="node11" class="node">
<title>Node11</title>
<g id="a_node11"><a xlink:href="namespacehost.html#ae3e061207e4dd21d8c9e59710356c614" target="_top" xlink:title="Loads the contents of baseline adjustments file into a table.">
<polygon fill="none" stroke="black" points="440.5,-135.32 440.5,-165.32 551.5,-165.32 551.5,-135.32 440.5,-135.32"/>
<text text-anchor="start" x="448.5" y="-153.32" font-family="Helvetica,sans-Serif" font-size="10.00">host::load_baseline</text>
<text text-anchor="middle" x="496" y="-142.32" font-family="Helvetica,sans-Serif" font-size="10.00">_from_csv</text>
</a>
</g>
</g>
<!-- Node1&#45;&gt;Node11 -->
<g id="edge10" class="edge">
<title>Node1&#45;&gt;Node11</title>
<path fill="none" stroke="midnightblue" d="M648.9,-231.85C631.37,-215.26 602.26,-189.94 573,-174.32 566.29,-170.74 558.95,-167.59 551.57,-164.85"/>
<polygon fill="midnightblue" stroke="midnightblue" points="646.48,-234.37 656.1,-238.79 651.33,-229.33 646.48,-234.37"/>
</g>
<!-- Node13 -->
<g id="node13" class="node">
<title>Node13</title>
<g id="a_node13"><a xlink:href="namespacehost.html#af872a17121b8dc250c7397fb6af921cf" target="_top" xlink:title="Registers a risk factor model definition with the repository.">
<polygon fill="none" stroke="black" points="77,-91.32 77,-121.32 220,-121.32 220,-91.32 77,-91.32"/>
<text text-anchor="start" x="85" y="-109.32" font-family="Helvetica,sans-Serif" font-size="10.00">host::register_risk</text>
<text text-anchor="middle" x="148.5" y="-98.32" font-family="Helvetica,sans-Serif" font-size="10.00">_factor_model_definitions</text>
</a>
</g>
</g>
<!-- Node1&#45;&gt;Node13 -->
<g id="edge19" class="edge">
<title>Node1&#45;&gt;Node13</title>
<path fill="none" stroke="midnightblue" d="M657.69,-229.39C644.8,-200.94 616.15,-148.08 573,-125.32 513.76,-94.07 324.7,-97.65 220.35,-102.33"/>
<polygon fill="midnightblue" stroke="midnightblue" points="654.52,-230.89 661.72,-238.66 660.94,-228.1 654.52,-230.89"/>
</g>
<!-- Node14 -->
<g id="node14" class="node">
<title>Node14</title>
<g id="a_node14"><a xlink:href="namespacehost.html#af79a5d1675d5305364c34cc2f44541e7" target="_top" xlink:title="Loads the input configuration file, *.json, information.">
<polygon fill="none" stroke="black" points="81.5,-30.82 81.5,-49.82 215.5,-49.82 215.5,-30.82 81.5,-30.82"/>
<text text-anchor="middle" x="148.5" y="-37.82" font-family="Helvetica,sans-Serif" font-size="10.00">host::load_configuration</text>
</a>
</g>
</g>
<!-- Node1&#45;&gt;Node14 -->
<g id="edge14" class="edge">
<title>Node1&#45;&gt;Node14</title>
<path fill="none" stroke="midnightblue" d="M662.89,-228.63C656.29,-187.48 634.78,-92.68 573,-50.32 449.41,34.42 254.28,-9.4 179.78,-30.81"/>
<polygon fill="midnightblue" stroke="midnightblue" points="659.46,-229.34 664.38,-238.72 666.38,-228.32 659.46,-229.34"/>
</g>
<!-- Node15 -->
<g id="node15" class="node">
<title>Node15</title>
<g id="a_node15"><a xlink:href="namespacehost.html#a7eec8ba4859ddfc96413217e3939b0c2" target="_top" xlink:title="Loads the lite hierarchical linear regression model definition from a JSON file.">
<polygon fill="none" stroke="black" points="256,-47.32 256,-77.32 383,-77.32 383,-47.32 256,-47.32"/>
<text text-anchor="start" x="264" y="-65.32" font-family="Helvetica,sans-Serif" font-size="10.00">host::load_dynamic</text>
<text text-anchor="middle" x="319.5" y="-54.32" font-family="Helvetica,sans-Serif" font-size="10.00">_risk_model_definition</text>
</a>
</g>
</g>
<!-- Node1&#45;&gt;Node15 -->
<g id="edge17" class="edge">
<title>Node1&#45;&gt;Node15</title>
<path fill="none" stroke="midnightblue" d="M660.14,-228.8C649.66,-194.7 623.01,-124.87 573,-92.32 516.48,-55.54 437.51,-51.97 383.01,-55.08"/>
<polygon fill="midnightblue" stroke="midnightblue" points="656.82,-229.9 662.98,-238.51 663.53,-227.93 656.82,-229.9"/>
</g>
<!-- Node2&#45;&gt;Node3 -->
<g id="edge2" class="edge">
<title>Node2&#45;&gt;Node3</title>
<path fill="none" stroke="midnightblue" d="M412.43,-440.27C400.61,-440.4 388.68,-440.54 377.5,-440.67"/>
<polygon fill="midnightblue" stroke="midnightblue" points="412.81,-443.76 422.76,-440.15 412.73,-436.76 412.81,-443.76"/>
</g>
<!-- Node4 -->
<g id="node4" class="node">
<title>Node4</title>
<g id="a_node4"><a xlink:href="program_8cpp.html#a0ddf1224851353fc92bfbff6f499fa97" target="_top" xlink:title="Health&#45;GPS host application entry point.">
<polygon fill="none" stroke="black" points="0,-96.82 0,-115.82 41,-115.82 41,-96.82 0,-96.82"/>
<text text-anchor="middle" x="20.5" y="-103.82" font-family="Helvetica,sans-Serif" font-size="10.00">main</text>
</a>
</g>
</g>
<!-- Node3&#45;&gt;Node4 -->
<g id="edge3" class="edge">
<title>Node3&#45;&gt;Node4</title>
<path fill="none" stroke="midnightblue" d="M263.3,-421.29C260.76,-419.74 258.31,-418.08 256,-416.32 136.37,-325.03 47.22,-157.56 26.22,-115.9"/>
<polygon fill="midnightblue" stroke="midnightblue" points="261.76,-424.44 272.22,-426.18 265.13,-418.3 261.76,-424.44"/>
</g>
<!-- Node6 -->
<g id="node6" class="node">
<title>Node6</title>
<g id="a_node6"><a xlink:href="classhgps_1_1DataSeries.html#a9a68223a9bf99c87e1d09ab495e61c59" target="_top" xlink:title="Adds multiple channels to the collection.">
<polygon fill="none" stroke="black" points="258,-377.32 258,-407.32 381,-407.32 381,-377.32 258,-377.32"/>
<text text-anchor="start" x="266" y="-395.32" font-family="Helvetica,sans-Serif" font-size="10.00">hgps::DataSeries::add</text>
<text text-anchor="middle" x="319.5" y="-384.32" font-family="Helvetica,sans-Serif" font-size="10.00">_channels</text>
</a>
</g>
</g>
<!-- Node5&#45;&gt;Node6 -->
<g id="edge5" class="edge">
<title>Node5&#45;&gt;Node6</title>
<path fill="none" stroke="midnightblue" d="M424.21,-394.1C409.96,-393.86 395.1,-393.6 381.23,-393.37"/>
<polygon fill="midnightblue" stroke="midnightblue" points="424.4,-397.61 434.46,-394.28 424.52,-390.61 424.4,-397.61"/>
</g>
<!-- Node12 -->
<g id="node12" class="node">
<title>Node12</title>
<g id="a_node12"><a xlink:href="namespacehost.html#a4b5ca710f860350ad9e1d5b97fd7709c" target="_top" xlink:title="Loads baseline adjustments information from a file.">
<polygon fill="none" stroke="black" points="264,-135.32 264,-165.32 375,-165.32 375,-135.32 264,-135.32"/>
<text text-anchor="start" x="272" y="-153.32" font-family="Helvetica,sans-Serif" font-size="10.00">host::load_baseline</text>
<text text-anchor="middle" x="319.5" y="-142.32" font-family="Helvetica,sans-Serif" font-size="10.00">_adjustments</text>
</a>
</g>
</g>
<!-- Node11&#45;&gt;Node12 -->
<g id="edge11" class="edge">
<title>Node11&#45;&gt;Node12</title>
<path fill="none" stroke="midnightblue" d="M430.08,-150.32C411.97,-150.32 392.49,-150.32 375.04,-150.32"/>
<polygon fill="midnightblue" stroke="midnightblue" points="430.27,-153.82 440.27,-150.32 430.27,-146.82 430.27,-153.82"/>
</g>
<!-- Node12&#45;&gt;Node13 -->
<g id="edge12" class="edge">
<title>Node12&#45;&gt;Node13</title>
<path fill="none" stroke="midnightblue" d="M253.74,-133.46C238.45,-129.48 222.25,-125.26 207.29,-121.37"/>
<polygon fill="midnightblue" stroke="midnightblue" points="253.07,-136.9 263.63,-136.04 254.84,-130.13 253.07,-136.9"/>
</g>
<!-- Node13&#45;&gt;Node4 -->
<g id="edge13" class="edge">
<title>Node13&#45;&gt;Node4</title>
<path fill="none" stroke="midnightblue" d="M66.74,-106.32C57.29,-106.32 48.42,-106.32 41.08,-106.32"/>
<polygon fill="midnightblue" stroke="midnightblue" points="66.77,-109.82 76.77,-106.32 66.77,-102.82 66.77,-109.82"/>
</g>
<!-- Node14&#45;&gt;Node4 -->
<g id="edge15" class="edge">
<title>Node14&#45;&gt;Node4</title>
<path fill="none" stroke="midnightblue" d="M120.11,-54.67C95.79,-67.41 60.94,-85.66 39.84,-96.71"/>
<polygon fill="midnightblue" stroke="midnightblue" points="121.94,-57.66 129.18,-49.92 118.7,-51.46 121.94,-57.66"/>
</g>
<!-- Node15&#45;&gt;Node13 -->
<g id="edge18" class="edge">
<title>Node15&#45;&gt;Node13</title>
<path fill="none" stroke="midnightblue" d="M250.92,-79.92C236.45,-83.69 221.28,-87.63 207.21,-91.3"/>
<polygon fill="midnightblue" stroke="midnightblue" points="252.02,-83.25 260.81,-77.34 250.25,-76.47 252.02,-83.25"/>
</g>
</g>
</svg>
