<?xml version="1.0" encoding="UTF-8" standalone="no"?>
<!DOCTYPE svg PUBLIC "-//W3C//DTD SVG 1.1//EN"
 "http://www.w3.org/Graphics/SVG/1.1/DTD/svg11.dtd">
<!-- Generated by graphviz version 2.43.0 (0)
 -->
<!-- Title: hgps::core::run_async Pages: 1 -->
<svg width="300pt" height="127pt"
 viewBox="0.00 0.00 300.00 126.50" xmlns="http://www.w3.org/2000/svg" xmlns:xlink="http://www.w3.org/1999/xlink">
<g id="graph0" class="graph" transform="scale(1 1) rotate(0) translate(4 122.5)">
<title>hgps::core::run_async</title>
<!-- Node1 -->
<g id="node1" class="node">
<title>Node1</title>
<g id="a_node1"><a xlink:title="Run a given function asynchronous.">
<polygon fill="#bfbfbf" stroke="black" points="170,-55 170,-74 292,-74 292,-55 170,-55"/>
<text text-anchor="middle" x="231" y="-62" font-family="Helvetica,sans-Serif" font-size="10.00">hgps::core::run_async</text>
</a>
</g>
</g>
<!-- Node2 -->
<g id="node2" class="node">
<title>Node2</title>
<g id="a_node2"><a xlink:href="program_8cpp.html#a0ddf1224851353fc92bfbff6f499fa97" target="_top" xlink:title="Health&#45;GPS host application entry point.">
<polygon fill="none" stroke="black" points="46.5,-99 46.5,-118 87.5,-118 87.5,-99 46.5,-99"/>
<text text-anchor="middle" x="67" y="-106" font-family="Helvetica,sans-Serif" font-size="10.00">main</text>
</a>
</g>
</g>
<!-- Node1&#45;&gt;Node2 -->
<g id="edge1" class="edge">
<title>Node1&#45;&gt;Node2</title>
<path fill="none" stroke="midnightblue" d="M184.86,-76.76C152.98,-85.42 111.82,-96.6 87.82,-103.12"/>
<polygon fill="midnightblue" stroke="midnightblue" points="186.12,-80.05 194.85,-74.05 184.28,-73.29 186.12,-80.05"/>
</g>
<!-- Node3 -->
<g id="node3" class="node">
<title>Node3</title>
<g id="a_node3"><a xlink:href="classhgps_1_1DefaultEventBus.html#a4ea312a2bc9bdf9210ca7513432a95b2" target="_top" xlink:title="Publishes a message to all subscribers asynchronous.">
<polygon fill="none" stroke="black" points="3,-49.5 3,-79.5 131,-79.5 131,-49.5 3,-49.5"/>
<text text-anchor="start" x="11" y="-67.5" font-family="Helvetica,sans-Serif" font-size="10.00">hgps::DefaultEventBus</text>
<text text-anchor="middle" x="67" y="-56.5" font-family="Helvetica,sans-Serif" font-size="10.00">::publish_async</text>
</a>
</g>
</g>
<!-- Node1&#45;&gt;Node3 -->
<g id="edge2" class="edge">
<title>Node1&#45;&gt;Node3</title>
<path fill="none" stroke="midnightblue" d="M159.51,-64.5C150.06,-64.5 140.4,-64.5 131.08,-64.5"/>
<polygon fill="midnightblue" stroke="midnightblue" points="159.68,-68 169.68,-64.5 159.68,-61 159.68,-68"/>
</g>
<!-- Node4 -->
<g id="node4" class="node">
<title>Node4</title>
<g id="a_node4"><a xlink:href="classhgps_1_1PopulationModule.html#aee3e42276edae4477f41ca360b090323" target="_top" xlink:title="Updates the virtual population status.">
<polygon fill="none" stroke="black" points="0,-0.5 0,-30.5 134,-30.5 134,-0.5 0,-0.5"/>
<text text-anchor="start" x="8" y="-18.5" font-family="Helvetica,sans-Serif" font-size="10.00">hgps::PopulationModule</text>
<text text-anchor="middle" x="67" y="-7.5" font-family="Helvetica,sans-Serif" font-size="10.00">::update_population</text>
</a>
</g>
</g>
<!-- Node1&#45;&gt;Node4 -->
<g id="edge3" class="edge">
<title>Node1&#45;&gt;Node4</title>
<path fill="none" stroke="midnightblue" d="M188.53,-51.96C166.95,-45.43 140.4,-37.4 117.71,-30.54"/>
<polygon fill="midnightblue" stroke="midnightblue" points="187.8,-55.39 198.38,-54.94 189.82,-48.69 187.8,-55.39"/>
</g>
</g>
</svg>
