<?xml version="1.0" encoding="UTF-8" standalone="no"?>
<!DOCTYPE svg PUBLIC "-//W3C//DTD SVG 1.1//EN"
 "http://www.w3.org/Graphics/SVG/1.1/DTD/svg11.dtd">
<!-- Generated by graphviz version 2.43.0 (0)
 -->
<!-- Title: host::register_risk_factor_model_definitions Pages: 1 -->
<svg width="692pt" height="350pt"
 viewBox="0.00 0.00 692.00 349.79" xmlns="http://www.w3.org/2000/svg" xmlns:xlink="http://www.w3.org/1999/xlink">
<g id="graph0" class="graph" transform="scale(1 1) rotate(0) translate(4 345.79)">
<title>host::register_risk_factor_model_definitions</title>
<!-- Node1 -->
<g id="node1" class="node">
<title>Node1</title>
<g id="a_node1"><a xlink:title="Registers a risk factor model definition with the repository.">
<polygon fill="#bfbfbf" stroke="black" points="0,-181 0,-211 143,-211 143,-181 0,-181"/>
<text text-anchor="start" x="8" y="-199" font-family="Helvetica,sans-Serif" font-size="10.00">host::register_risk</text>
<text text-anchor="middle" x="71.5" y="-188" font-family="Helvetica,sans-Serif" font-size="10.00">_factor_model_definitions</text>
</a>
</g>
</g>
<!-- Node2 -->
<g id="node2" class="node">
<title>Node2</title>
<g id="a_node2"><a xlink:href="structhgps_1_1core_1_1case__insensitive.html#a7c3f04e32aa1d7a41ef339443139b5c0" target="_top" xlink:title="Compare two case&#45;insensitive ASCII string for equality.">
<polygon fill="none" stroke="black" points="530,-291 530,-321 684,-321 684,-291 530,-291"/>
<text text-anchor="start" x="538" y="-309" font-family="Helvetica,sans-Serif" font-size="10.00">hgps::core::case_insensitive</text>
<text text-anchor="middle" x="607" y="-298" font-family="Helvetica,sans-Serif" font-size="10.00">::equals</text>
</a>
</g>
</g>
<!-- Node1&#45;&gt;Node2 -->
<g id="edge1" class="edge">
<title>Node1&#45;&gt;Node2</title>
<path fill="none" stroke="midnightblue" d="M80.95,-211.02C96.47,-236.84 132.22,-288.81 179,-309 296.15,-359.57 448.79,-340.78 536.24,-323.04"/>
<polygon fill="midnightblue" stroke="midnightblue" points="536.98,-326.46 546.06,-321 535.55,-319.61 536.98,-326.46"/>
</g>
<!-- Node3 -->
<g id="node3" class="node">
<title>Node3</title>
<g id="a_node3"><a xlink:href="namespacehost.html#a4b5ca710f860350ad9e1d5b97fd7709c" target="_top" xlink:title="Loads baseline adjustments information from a file.">
<polygon fill="none" stroke="black" points="207,-269 207,-299 318,-299 318,-269 207,-269"/>
<text text-anchor="start" x="215" y="-287" font-family="Helvetica,sans-Serif" font-size="10.00">host::load_baseline</text>
<text text-anchor="middle" x="262.5" y="-276" font-family="Helvetica,sans-Serif" font-size="10.00">_adjustments</text>
</a>
</g>
</g>
<!-- Node1&#45;&gt;Node3 -->
<g id="edge2" class="edge">
<title>Node1&#45;&gt;Node3</title>
<path fill="none" stroke="midnightblue" d="M97.78,-211.17C119.02,-223.57 150.4,-241.1 179,-254 187.76,-257.95 197.22,-261.78 206.49,-265.3"/>
<polygon fill="midnightblue" stroke="midnightblue" points="205.46,-268.65 216.05,-268.86 207.9,-262.09 205.46,-268.65"/>
</g>
<!-- Node6 -->
<g id="node6" class="node">
<title>Node6</title>
<g id="a_node6"><a xlink:href="namespacehost.html#a863b7fcd46376d19914cb6635cd20764" target="_top" xlink:title="Loads the lite hierarchical linear regression model definition from a JSON file.">
<polygon fill="none" stroke="black" points="382,-201 382,-231 494,-231 494,-201 382,-201"/>
<text text-anchor="start" x="390" y="-219" font-family="Helvetica,sans-Serif" font-size="10.00">host::load_dynamic</text>
<text text-anchor="middle" x="438" y="-208" font-family="Helvetica,sans-Serif" font-size="10.00">_risk_model_info</text>
</a>
</g>
</g>
<!-- Node1&#45;&gt;Node6 -->
<g id="edge7" class="edge">
<title>Node1&#45;&gt;Node6</title>
<path fill="none" stroke="midnightblue" d="M128.48,-211.06C144.66,-214.74 162.42,-218.16 179,-220 252.77,-228.21 271.8,-221.63 346,-220 354.3,-219.82 363.01,-219.54 371.63,-219.22"/>
<polygon fill="midnightblue" stroke="midnightblue" points="371.82,-222.71 381.67,-218.82 371.54,-215.72 371.82,-222.71"/>
</g>
<!-- Node8 -->
<g id="node8" class="node">
<title>Node8</title>
<g id="a_node8"><a xlink:href="namespacehost.html#ad40efaaa78e97a0fdf3b2bce14d5aca8" target="_top" xlink:title="Loads the full hierarchical linear regression model definition from a JSON file.">
<polygon fill="none" stroke="black" points="202.5,-181 202.5,-211 322.5,-211 322.5,-181 202.5,-181"/>
<text text-anchor="start" x="210.5" y="-199" font-family="Helvetica,sans-Serif" font-size="10.00">host::load_static_risk</text>
<text text-anchor="middle" x="262.5" y="-188" font-family="Helvetica,sans-Serif" font-size="10.00">_model_definition</text>
</a>
</g>
</g>
<!-- Node1&#45;&gt;Node8 -->
<g id="edge11" class="edge">
<title>Node1&#45;&gt;Node8</title>
<path fill="none" stroke="midnightblue" d="M143.15,-196C159.14,-196 176.12,-196 192.06,-196"/>
<polygon fill="midnightblue" stroke="midnightblue" points="192.37,-199.5 202.37,-196 192.37,-192.5 192.37,-199.5"/>
</g>
<!-- Node9 -->
<g id="node9" class="node">
<title>Node9</title>
<g id="a_node9"><a xlink:href="classhgps_1_1CachedRepository.html#a72b653923d8e137e0b0cbb81cb940557" target="_top" xlink:title="Register a user provided baseline risk factors adjustments dataset.">
<polygon fill="none" stroke="black" points="179,-120.5 179,-161.5 346,-161.5 346,-120.5 179,-120.5"/>
<text text-anchor="start" x="187" y="-149.5" font-family="Helvetica,sans-Serif" font-size="10.00">hgps::CachedRepository</text>
<text text-anchor="start" x="187" y="-138.5" font-family="Helvetica,sans-Serif" font-size="10.00">::register_baseline_adjustment</text>
<text text-anchor="middle" x="262.5" y="-127.5" font-family="Helvetica,sans-Serif" font-size="10.00">_definition</text>
</a>
</g>
</g>
<!-- Node1&#45;&gt;Node9 -->
<g id="edge12" class="edge">
<title>Node1&#45;&gt;Node9</title>
<path fill="none" stroke="midnightblue" d="M124.15,-180.97C141.72,-175.86 161.81,-170.01 181.1,-164.4"/>
<polygon fill="midnightblue" stroke="midnightblue" points="182.16,-167.73 190.79,-161.58 180.21,-161.01 182.16,-167.73"/>
</g>
<!-- Node10 -->
<g id="node10" class="node">
<title>Node10</title>
<g id="a_node10"><a xlink:href="classhgps_1_1CachedRepository.html#a1dfd738feecb0a9ffc366f462155fd82" target="_top" xlink:title="Register a user provided full hierarchical linear model definition.">
<polygon fill="none" stroke="black" points="195.5,-60.5 195.5,-101.5 329.5,-101.5 329.5,-60.5 195.5,-60.5"/>
<text text-anchor="start" x="203.5" y="-89.5" font-family="Helvetica,sans-Serif" font-size="10.00">hgps::CachedRepository</text>
<text text-anchor="start" x="203.5" y="-78.5" font-family="Helvetica,sans-Serif" font-size="10.00">::register_linear_model</text>
<text text-anchor="middle" x="262.5" y="-67.5" font-family="Helvetica,sans-Serif" font-size="10.00">_definition</text>
</a>
</g>
</g>
<!-- Node1&#45;&gt;Node10 -->
<g id="edge13" class="edge">
<title>Node1&#45;&gt;Node10</title>
<path fill="none" stroke="midnightblue" d="M87.91,-180.98C107.64,-162.43 143.51,-130.91 179,-111 182.25,-109.18 185.63,-107.43 189.09,-105.76"/>
<polygon fill="midnightblue" stroke="midnightblue" points="190.73,-108.85 198.38,-101.52 187.83,-102.49 190.73,-108.85"/>
</g>
<!-- Node11 -->
<g id="node11" class="node">
<title>Node11</title>
<g id="a_node11"><a xlink:href="classhgps_1_1CachedRepository.html#a1424cbd34a6f00fdb9e4237495e18b18" target="_top" xlink:title="Register a user provided lite hierarchical linear model definition.">
<polygon fill="none" stroke="black" points="195.5,-0.5 195.5,-41.5 329.5,-41.5 329.5,-0.5 195.5,-0.5"/>
<text text-anchor="start" x="203.5" y="-29.5" font-family="Helvetica,sans-Serif" font-size="10.00">hgps::CachedRepository</text>
<text text-anchor="start" x="203.5" y="-18.5" font-family="Helvetica,sans-Serif" font-size="10.00">::register_lite_linear</text>
<text text-anchor="middle" x="262.5" y="-7.5" font-family="Helvetica,sans-Serif" font-size="10.00">_model_definition</text>
</a>
</g>
</g>
<!-- Node1&#45;&gt;Node11 -->
<g id="edge14" class="edge">
<title>Node1&#45;&gt;Node11</title>
<path fill="none" stroke="midnightblue" d="M79.68,-181C94.35,-151.87 130.51,-87.33 179,-51 181.34,-49.24 183.8,-47.58 186.34,-46.01"/>
<polygon fill="midnightblue" stroke="midnightblue" points="188.24,-48.96 195.25,-41.01 184.82,-42.85 188.24,-48.96"/>
</g>
<!-- Node3&#45;&gt;Node2 -->
<g id="edge3" class="edge">
<title>Node3&#45;&gt;Node2</title>
<path fill="none" stroke="midnightblue" d="M318.15,-287.51C372.36,-290.99 456.25,-296.38 519.51,-300.44"/>
<polygon fill="midnightblue" stroke="midnightblue" points="519.67,-303.96 529.87,-301.11 520.12,-296.98 519.67,-303.96"/>
</g>
<!-- Node4 -->
<g id="node4" class="node">
<title>Node4</title>
<g id="a_node4"><a xlink:href="namespacehost.html#ae3e061207e4dd21d8c9e59710356c614" target="_top" xlink:title="Loads the contents of baseline adjustments file into a table.">
<polygon fill="none" stroke="black" points="382.5,-250 382.5,-280 493.5,-280 493.5,-250 382.5,-250"/>
<text text-anchor="start" x="390.5" y="-268" font-family="Helvetica,sans-Serif" font-size="10.00">host::load_baseline</text>
<text text-anchor="middle" x="438" y="-257" font-family="Helvetica,sans-Serif" font-size="10.00">_from_csv</text>
</a>
</g>
</g>
<!-- Node3&#45;&gt;Node4 -->
<g id="edge4" class="edge">
<title>Node3&#45;&gt;Node4</title>
<path fill="none" stroke="midnightblue" d="M318.4,-277.99C335.49,-276.12 354.5,-274.03 372.21,-272.1"/>
<polygon fill="midnightblue" stroke="midnightblue" points="372.9,-275.54 382.46,-270.97 372.14,-268.58 372.9,-275.54"/>
</g>
<!-- Node4&#45;&gt;Node2 -->
<g id="edge5" class="edge">
<title>Node4&#45;&gt;Node2</title>
<path fill="none" stroke="midnightblue" d="M493.68,-278.42C506.85,-281.66 521.1,-285.16 534.9,-288.54"/>
<polygon fill="midnightblue" stroke="midnightblue" points="534.29,-292 544.84,-290.98 535.96,-285.2 534.29,-292"/>
</g>
<!-- Node5 -->
<g id="node5" class="node">
<title>Node5</title>
<g id="a_node5"><a xlink:href="namespacehgps_1_1core.html#a502537e3fe210afb2531f156977eb2f6" target="_top" xlink:title="Converts the given ASCII string to lower&#45;case.">
<polygon fill="none" stroke="black" points="549.5,-249.5 549.5,-268.5 664.5,-268.5 664.5,-249.5 549.5,-249.5"/>
<text text-anchor="middle" x="607" y="-256.5" font-family="Helvetica,sans-Serif" font-size="10.00">hgps::core::to_lower</text>
</a>
</g>
</g>
<!-- Node4&#45;&gt;Node5 -->
<g id="edge6" class="edge">
<title>Node4&#45;&gt;Node5</title>
<path fill="none" stroke="midnightblue" d="M493.68,-263.04C508.21,-262.51 524.07,-261.94 539.17,-261.4"/>
<polygon fill="midnightblue" stroke="midnightblue" points="539.61,-264.89 549.48,-261.03 539.36,-257.89 539.61,-264.89"/>
</g>
<!-- Node6&#45;&gt;Node2 -->
<g id="edge8" class="edge">
<title>Node6&#45;&gt;Node2</title>
<path fill="none" stroke="midnightblue" d="M477.01,-231.01C482.9,-233.97 488.77,-237.32 494,-241 512.77,-254.2 510.76,-265.5 530,-278 534.99,-281.24 540.4,-284.17 545.96,-286.81"/>
<polygon fill="midnightblue" stroke="midnightblue" points="544.85,-290.15 555.41,-290.98 547.67,-283.74 544.85,-290.15"/>
</g>
<!-- Node6&#45;&gt;Node5 -->
<g id="edge10" class="edge">
<title>Node6&#45;&gt;Node5</title>
<path fill="none" stroke="midnightblue" d="M494.14,-230.2C515.2,-235.62 538.97,-241.74 559.18,-246.94"/>
<polygon fill="midnightblue" stroke="midnightblue" points="558.52,-250.39 569.08,-249.49 560.27,-243.61 558.52,-250.39"/>
</g>
<!-- Node7 -->
<g id="node7" class="node">
<title>Node7</title>
<g id="a_node7"><a xlink:href="namespacehgps_1_1core.html#a0a76cde29c0d40bf22469920121f2745" target="_top" xlink:title="Splits a string into substrings based on specified delimiting characters.">
<polygon fill="none" stroke="black" points="543.5,-206.5 543.5,-225.5 670.5,-225.5 670.5,-206.5 543.5,-206.5"/>
<text text-anchor="middle" x="607" y="-213.5" font-family="Helvetica,sans-Serif" font-size="10.00">hgps::core::split_string</text>
</a>
</g>
</g>
<!-- Node6&#45;&gt;Node7 -->
<g id="edge9" class="edge">
<title>Node6&#45;&gt;Node7</title>
<path fill="none" stroke="midnightblue" d="M494.14,-216C506.59,-216 519.99,-216 533.04,-216"/>
<polygon fill="midnightblue" stroke="midnightblue" points="533.4,-219.5 543.4,-216 533.4,-212.5 533.4,-219.5"/>
</g>
</g>
</svg>
