<?xml version="1.0" encoding="UTF-8" standalone="no"?>
<!DOCTYPE svg PUBLIC "-//W3C//DTD SVG 1.1//EN"
 "http://www.w3.org/Graphics/SVG/1.1/DTD/svg11.dtd">
<!-- Generated by graphviz version 2.43.0 (0)
 -->
<!-- Title: hgps::core::to_lower Pages: 1 -->
<svg width="741pt" height="433pt"
 viewBox="0.00 0.00 741.00 432.80" xmlns="http://www.w3.org/2000/svg" xmlns:xlink="http://www.w3.org/1999/xlink">
<g id="graph0" class="graph" transform="scale(1 1) rotate(0) translate(4 428.8)">
<title>hgps::core::to_lower</title>
<!-- Node1 -->
<g id="node1" class="node">
<title>Node1</title>
<g id="a_node1"><a xlink:title=" ">
<polygon fill="#bfbfbf" stroke="black" points="618,-200.3 618,-219.3 733,-219.3 733,-200.3 618,-200.3"/>
<text text-anchor="middle" x="675.5" y="-207.3" font-family="Helvetica,sans-Serif" font-size="10.00">hgps::core::to_lower</text>
</a>
</g>
</g>
<!-- Node2 -->
<g id="node2" class="node">
<title>Node2</title>
<g id="a_node2"><a xlink:href="classhgps_1_1core_1_1DataTable.html#ae022bf3052be4728cce521ca87a54865" target="_top" xlink:title=" ">
<polygon fill="none" stroke="black" points="432,-405.3 432,-424.3 578,-424.3 578,-405.3 432,-405.3"/>
<text text-anchor="middle" x="505" y="-412.3" font-family="Helvetica,sans-Serif" font-size="10.00">hgps::core::DataTable::add</text>
</a>
</g>
</g>
<!-- Node1&#45;&gt;Node2 -->
<g id="edge1" class="edge">
<title>Node1&#45;&gt;Node2</title>
<path fill="none" stroke="midnightblue" d="M669.77,-229.8C659.93,-267 633.76,-347.01 582,-390.8 574.5,-397.14 565.31,-401.81 555.95,-405.25"/>
<polygon fill="midnightblue" stroke="midnightblue" points="673.26,-230.27 672.3,-219.72 666.47,-228.56 673.26,-230.27"/>
</g>
<!-- Node3 -->
<g id="node3" class="node">
<title>Node3</title>
<g id="a_node3"><a xlink:href="csvparser_8cpp.html#aa36bf705a50d4f460573db11852ca40c" target="_top" xlink:title=" ">
<polygon fill="none" stroke="black" points="252.5,-367.3 252.5,-386.3 363.5,-386.3 363.5,-367.3 252.5,-367.3"/>
<text text-anchor="middle" x="308" y="-374.3" font-family="Helvetica,sans-Serif" font-size="10.00">load_datatable_csv</text>
</a>
</g>
</g>
<!-- Node1&#45;&gt;Node3 -->
<g id="edge16" class="edge">
<title>Node1&#45;&gt;Node3</title>
<path fill="none" stroke="midnightblue" d="M668.63,-229.34C657.63,-262.16 630.53,-327.63 582,-356.8 514.79,-397.19 420.81,-393.82 362.49,-386.32"/>
<polygon fill="midnightblue" stroke="midnightblue" points="672.05,-230.15 671.75,-219.56 665.38,-228.02 672.05,-230.15"/>
</g>
<!-- Node5 -->
<g id="node5" class="node">
<title>Node5</title>
<g id="a_node5"><a xlink:href="classhgps_1_1DataSeries.html#a3d3e52a0ea2ac6686e28ec69b462266d" target="_top" xlink:title=" ">
<polygon fill="none" stroke="black" points="443.5,-317.8 443.5,-347.8 566.5,-347.8 566.5,-317.8 443.5,-317.8"/>
<text text-anchor="start" x="451.5" y="-335.8" font-family="Helvetica,sans-Serif" font-size="10.00">hgps::DataSeries::add</text>
<text text-anchor="middle" x="505" y="-324.8" font-family="Helvetica,sans-Serif" font-size="10.00">_channel</text>
</a>
</g>
</g>
<!-- Node1&#45;&gt;Node5 -->
<g id="edge4" class="edge">
<title>Node1&#45;&gt;Node5</title>
<path fill="none" stroke="midnightblue" d="M661.99,-227.75C645.87,-249.61 615.87,-286.28 582,-307.8 576.02,-311.6 569.41,-314.87 562.65,-317.69"/>
<polygon fill="midnightblue" stroke="midnightblue" points="665.02,-229.53 668.02,-219.37 659.33,-225.44 665.02,-229.53"/>
</g>
<!-- Node7 -->
<g id="node7" class="node">
<title>Node7</title>
<g id="a_node7"><a xlink:href="classhgps_1_1core_1_1DataTable.html#a6c64e1194df192529cedc7027cabeeb9" target="_top" xlink:title=" ">
<polygon fill="none" stroke="black" points="444,-268.8 444,-298.8 566,-298.8 566,-268.8 444,-268.8"/>
<text text-anchor="start" x="452" y="-286.8" font-family="Helvetica,sans-Serif" font-size="10.00">hgps::core::DataTable</text>
<text text-anchor="middle" x="505" y="-275.8" font-family="Helvetica,sans-Serif" font-size="10.00">::column</text>
</a>
</g>
</g>
<!-- Node1&#45;&gt;Node7 -->
<g id="edge6" class="edge">
<title>Node1&#45;&gt;Node7</title>
<path fill="none" stroke="midnightblue" d="M649.68,-224.42C631.37,-234.84 605.64,-248.73 582,-258.8 573.69,-262.33 564.7,-265.69 555.92,-268.72"/>
<polygon fill="midnightblue" stroke="midnightblue" points="651.61,-227.35 658.53,-219.33 648.12,-221.28 651.61,-227.35"/>
</g>
<!-- Node8 -->
<g id="node8" class="node">
<title>Node8</title>
<g id="a_node8"><a xlink:href="structhgps_1_1core_1_1case__insensitive.html#a60ec863fe6c31cde4df3e38864dfd0a2" target="_top" xlink:title=" ">
<polygon fill="none" stroke="black" points="428,-219.8 428,-249.8 582,-249.8 582,-219.8 428,-219.8"/>
<text text-anchor="start" x="436" y="-237.8" font-family="Helvetica,sans-Serif" font-size="10.00">hgps::core::case_insensitive</text>
<text text-anchor="middle" x="505" y="-226.8" font-family="Helvetica,sans-Serif" font-size="10.00">::compare</text>
</a>
</g>
</g>
<!-- Node1&#45;&gt;Node8 -->
<g id="edge7" class="edge">
<title>Node1&#45;&gt;Node8</title>
<path fill="none" stroke="midnightblue" d="M607.8,-219.69C599.39,-220.94 590.73,-222.22 582.19,-223.49"/>
<polygon fill="midnightblue" stroke="midnightblue" points="608.55,-223.12 617.92,-218.19 607.52,-216.2 608.55,-223.12"/>
</g>
<!-- Node9 -->
<g id="node9" class="node">
<title>Node9</title>
<g id="a_node9"><a xlink:href="structhgps_1_1core_1_1Identifier.html#a42617028dae66379e732882e54dc1f6a" target="_top" xlink:title=" ">
<polygon fill="none" stroke="black" points="447,-170.8 447,-200.8 563,-200.8 563,-170.8 447,-170.8"/>
<text text-anchor="start" x="455" y="-188.8" font-family="Helvetica,sans-Serif" font-size="10.00">hgps::core::Identifier</text>
<text text-anchor="middle" x="505" y="-177.8" font-family="Helvetica,sans-Serif" font-size="10.00">::equal</text>
</a>
</g>
</g>
<!-- Node1&#45;&gt;Node9 -->
<g id="edge8" class="edge">
<title>Node1&#45;&gt;Node9</title>
<path fill="none" stroke="midnightblue" d="M607.8,-200.3C592.98,-198.19 577.4,-195.97 563,-193.92"/>
<polygon fill="midnightblue" stroke="midnightblue" points="607.53,-203.79 617.92,-201.74 608.52,-196.86 607.53,-203.79"/>
</g>
<!-- Node10 -->
<g id="node10" class="node">
<title>Node10</title>
<g id="a_node10"><a xlink:href="classhgps_1_1data_1_1DataManager.html#a0da4317997c2f64df07b1eee4f06c2e9" target="_top" xlink:title=" ">
<polygon fill="none" stroke="black" points="435,-121.8 435,-151.8 575,-151.8 575,-121.8 435,-121.8"/>
<text text-anchor="start" x="443" y="-139.8" font-family="Helvetica,sans-Serif" font-size="10.00">hgps::data::DataManager</text>
<text text-anchor="middle" x="505" y="-128.8" font-family="Helvetica,sans-Serif" font-size="10.00">::get_disease</text>
</a>
</g>
</g>
<!-- Node1&#45;&gt;Node10 -->
<g id="edge9" class="edge">
<title>Node1&#45;&gt;Node10</title>
<path fill="none" stroke="midnightblue" d="M649.72,-195.09C631.43,-184.62 605.7,-170.72 582,-160.8 574.34,-157.59 566.1,-154.57 557.97,-151.82"/>
<polygon fill="midnightblue" stroke="midnightblue" points="648.15,-198.22 658.56,-200.21 651.66,-192.17 648.15,-198.22"/>
</g>
<!-- Node11 -->
<g id="node11" class="node">
<title>Node11</title>
<g id="a_node11"><a xlink:href="csvparser_8cpp.html#a62df83c91a23bce371f55f20b9825ffc" target="_top" xlink:title=" ">
<polygon fill="none" stroke="black" points="452,-45.3 452,-64.3 558,-64.3 558,-45.3 452,-45.3"/>
<text text-anchor="middle" x="505" y="-52.3" font-family="Helvetica,sans-Serif" font-size="10.00">load_baseline_csv</text>
</a>
</g>
</g>
<!-- Node1&#45;&gt;Node11 -->
<g id="edge10" class="edge">
<title>Node1&#45;&gt;Node11</title>
<path fill="none" stroke="midnightblue" d="M666.17,-191.05C652.59,-162.63 623.05,-108.78 582,-78.8 573.4,-72.51 563.09,-67.84 552.89,-64.37"/>
<polygon fill="midnightblue" stroke="midnightblue" points="663.06,-192.67 670.44,-200.28 669.41,-189.73 663.06,-192.67"/>
</g>
<!-- Node14 -->
<g id="node14" class="node">
<title>Node14</title>
<g id="a_node14"><a xlink:href="configuration_8cpp.html#af1d74f465c1ecdaac9ccef435ca1462c" target="_top" xlink:title=" ">
<polygon fill="none" stroke="black" points="79,-86.3 79,-105.3 186,-105.3 186,-86.3 79,-86.3"/>
<text text-anchor="middle" x="132.5" y="-93.3" font-family="Helvetica,sans-Serif" font-size="10.00">load_configuration</text>
</a>
</g>
</g>
<!-- Node1&#45;&gt;Node14 -->
<g id="edge14" class="edge">
<title>Node1&#45;&gt;Node14</title>
<path fill="none" stroke="midnightblue" d="M663.76,-191.6C648.8,-168.23 619.28,-128.67 582,-111.8 512.88,-80.52 289.36,-87.57 186.37,-92.73"/>
<polygon fill="midnightblue" stroke="midnightblue" points="660.86,-193.57 669.09,-200.24 666.81,-189.89 660.86,-193.57"/>
</g>
<!-- Node15 -->
<g id="node15" class="node">
<title>Node15</title>
<g id="a_node15"><a xlink:href="model__parser_8cpp.html#a6383bd1b70a0eb2be74798ff8197afc7" target="_top" xlink:title=" ">
<polygon fill="none" stroke="black" points="224,-7.3 224,-26.3 392,-26.3 392,-7.3 224,-7.3"/>
<text text-anchor="middle" x="308" y="-14.3" font-family="Helvetica,sans-Serif" font-size="10.00">load_dynamic_risk_model_info</text>
</a>
</g>
</g>
<!-- Node1&#45;&gt;Node15 -->
<g id="edge17" class="edge">
<title>Node1&#45;&gt;Node15</title>
<path fill="none" stroke="midnightblue" d="M670.52,-189.92C661.84,-152.42 637.39,-71.76 582,-35.8 513.36,8.77 413.49,1.96 355.5,-7.26"/>
<polygon fill="midnightblue" stroke="midnightblue" points="667.18,-191.05 672.72,-200.08 674.02,-189.56 667.18,-191.05"/>
</g>
<!-- Node2&#45;&gt;Node3 -->
<g id="edge2" class="edge">
<title>Node2&#45;&gt;Node3</title>
<path fill="none" stroke="midnightblue" d="M445.04,-403.31C417.22,-397.89 384.4,-391.49 357.98,-386.34"/>
<polygon fill="midnightblue" stroke="midnightblue" points="444.56,-406.78 455.04,-405.26 445.9,-399.91 444.56,-406.78"/>
</g>
<!-- Node4 -->
<g id="node4" class="node">
<title>Node4</title>
<g id="a_node4"><a xlink:href="program_8cpp.html#a0ddf1224851353fc92bfbff6f499fa97" target="_top" xlink:title=" ">
<polygon fill="none" stroke="black" points="0,-86.3 0,-105.3 41,-105.3 41,-86.3 0,-86.3"/>
<text text-anchor="middle" x="20.5" y="-93.3" font-family="Helvetica,sans-Serif" font-size="10.00">main</text>
</a>
</g>
</g>
<!-- Node3&#45;&gt;Node4 -->
<g id="edge3" class="edge">
<title>Node3&#45;&gt;Node4</title>
<path fill="none" stroke="midnightblue" d="M242.5,-365.92C235.99,-363.47 229.69,-360.47 224,-356.8 117.79,-288.16 44.31,-144.13 25.97,-105.5"/>
<polygon fill="midnightblue" stroke="midnightblue" points="241.56,-369.3 252.15,-369.13 243.77,-362.65 241.56,-369.3"/>
</g>
<!-- Node6 -->
<g id="node6" class="node">
<title>Node6</title>
<g id="a_node6"><a xlink:href="classhgps_1_1DataSeries.html#a9a68223a9bf99c87e1d09ab495e61c59" target="_top" xlink:title=" ">
<polygon fill="none" stroke="black" points="246.5,-317.8 246.5,-347.8 369.5,-347.8 369.5,-317.8 246.5,-317.8"/>
<text text-anchor="start" x="254.5" y="-335.8" font-family="Helvetica,sans-Serif" font-size="10.00">hgps::DataSeries::add</text>
<text text-anchor="middle" x="308" y="-324.8" font-family="Helvetica,sans-Serif" font-size="10.00">_channels</text>
</a>
</g>
</g>
<!-- Node5&#45;&gt;Node6 -->
<g id="edge5" class="edge">
<title>Node5&#45;&gt;Node6</title>
<path fill="none" stroke="midnightblue" d="M433.28,-332.8C412.41,-332.8 389.77,-332.8 369.59,-332.8"/>
<polygon fill="midnightblue" stroke="midnightblue" points="433.37,-336.3 443.37,-332.8 433.37,-329.3 433.37,-336.3"/>
</g>
<!-- Node12 -->
<g id="node12" class="node">
<title>Node12</title>
<g id="a_node12"><a xlink:href="model__parser_8cpp.html#a23c45f2fc31cd0836f491f52f6170f8d" target="_top" xlink:title=" ">
<polygon fill="none" stroke="black" points="233,-45.3 233,-64.3 383,-64.3 383,-45.3 233,-45.3"/>
<text text-anchor="middle" x="308" y="-52.3" font-family="Helvetica,sans-Serif" font-size="10.00">load_baseline_adjustments</text>
</a>
</g>
</g>
<!-- Node11&#45;&gt;Node12 -->
<g id="edge11" class="edge">
<title>Node11&#45;&gt;Node12</title>
<path fill="none" stroke="midnightblue" d="M441.86,-54.8C423.21,-54.8 402.56,-54.8 383.2,-54.8"/>
<polygon fill="midnightblue" stroke="midnightblue" points="442,-58.3 452,-54.8 442,-51.3 442,-58.3"/>
</g>
<!-- Node13 -->
<g id="node13" class="node">
<title>Node13</title>
<g id="a_node13"><a xlink:href="model__parser_8cpp.html#a63714a3138c1b3676cfb45b209522ce4" target="_top" xlink:title=" ">
<polygon fill="none" stroke="black" points="77,-36.8 77,-66.8 188,-66.8 188,-36.8 77,-36.8"/>
<text text-anchor="start" x="85" y="-54.8" font-family="Helvetica,sans-Serif" font-size="10.00">register_risk_factor</text>
<text text-anchor="middle" x="132.5" y="-43.8" font-family="Helvetica,sans-Serif" font-size="10.00">_model_definitions</text>
</a>
</g>
</g>
<!-- Node12&#45;&gt;Node13 -->
<g id="edge12" class="edge">
<title>Node12&#45;&gt;Node13</title>
<path fill="none" stroke="midnightblue" d="M222.65,-53.34C210.94,-53.14 199.16,-52.93 188.18,-52.74"/>
<polygon fill="midnightblue" stroke="midnightblue" points="222.86,-56.84 232.92,-53.52 222.98,-49.84 222.86,-56.84"/>
</g>
<!-- Node13&#45;&gt;Node4 -->
<g id="edge13" class="edge">
<title>Node13&#45;&gt;Node4</title>
<path fill="none" stroke="midnightblue" d="M84.64,-70.54C69.45,-76.62 53.4,-83.04 41.29,-87.88"/>
<polygon fill="midnightblue" stroke="midnightblue" points="85.97,-73.78 93.95,-66.82 83.37,-67.28 85.97,-73.78"/>
</g>
<!-- Node14&#45;&gt;Node4 -->
<g id="edge15" class="edge">
<title>Node14&#45;&gt;Node4</title>
<path fill="none" stroke="midnightblue" d="M68.68,-95.8C58.67,-95.8 49.02,-95.8 41.08,-95.8"/>
<polygon fill="midnightblue" stroke="midnightblue" points="68.76,-99.3 78.76,-95.8 68.76,-92.3 68.76,-99.3"/>
</g>
<!-- Node15&#45;&gt;Node13 -->
<g id="edge18" class="edge">
<title>Node15&#45;&gt;Node13</title>
<path fill="none" stroke="midnightblue" d="M249.77,-28.34C229.96,-32.34 207.82,-36.8 188.22,-40.76"/>
<polygon fill="midnightblue" stroke="midnightblue" points="250.48,-31.77 259.59,-26.36 249.1,-24.91 250.48,-31.77"/>
</g>
</g>
</svg>
