<?xml version="1.0" encoding="UTF-8" standalone="no"?>
<!DOCTYPE svg PUBLIC "-//W3C//DTD SVG 1.1//EN"
 "http://www.w3.org/Graphics/SVG/1.1/DTD/svg11.dtd">
<!-- Generated by graphviz version 2.43.0 (0)
 -->
<!-- Title: hgps::build_risk_factor_module Pages: 1 -->
<svg width="332pt" height="100pt"
 viewBox="0.00 0.00 332.00 99.50" xmlns="http://www.w3.org/2000/svg" xmlns:xlink="http://www.w3.org/1999/xlink">
<g id="graph0" class="graph" transform="scale(1 1) rotate(0) translate(4 95.5)">
<title>hgps::build_risk_factor_module</title>
<!-- Node1 -->
<g id="node1" class="node">
<title>Node1</title>
<g id="a_node1"><a xlink:title=" ">
<polygon fill="#bfbfbf" stroke="black" points="0,-27.5 0,-57.5 127,-57.5 127,-27.5 0,-27.5"/>
<text text-anchor="start" x="8" y="-45.5" font-family="Helvetica,sans-Serif" font-size="10.00">hgps::build_risk_factor</text>
<text text-anchor="middle" x="63.5" y="-34.5" font-family="Helvetica,sans-Serif" font-size="10.00">_module</text>
</a>
</g>
</g>
<!-- Node2 -->
<g id="node2" class="node">
<title>Node2</title>
<g id="a_node2"><a xlink:href="classhgps_1_1Repository.html#a42dfd811aa4396e140a126b50d3e5c74" target="_top" xlink:title="Gets the user provided baseline risk factors adjustment dataset.">
<polygon fill="none" stroke="black" points="181.5,-50 181.5,-91 305.5,-91 305.5,-50 181.5,-50"/>
<text text-anchor="start" x="189.5" y="-79" font-family="Helvetica,sans-Serif" font-size="10.00">hgps::Repository::get</text>
<text text-anchor="start" x="189.5" y="-68" font-family="Helvetica,sans-Serif" font-size="10.00">_baseline_adjustment</text>
<text text-anchor="middle" x="243.5" y="-57" font-family="Helvetica,sans-Serif" font-size="10.00">_definition</text>
</a>
</g>
</g>
<!-- Node1&#45;&gt;Node2 -->
<g id="edge1" class="edge">
<title>Node1&#45;&gt;Node2</title>
<path fill="none" stroke="midnightblue" d="M127.01,-52.33C141.33,-54.59 156.66,-57 171.32,-59.3"/>
<polygon fill="midnightblue" stroke="midnightblue" points="170.92,-62.78 181.34,-60.88 172.01,-55.87 170.92,-62.78"/>
</g>
<!-- Node3 -->
<g id="node3" class="node">
<title>Node3</title>
<g id="a_node3"><a xlink:href="classhgps_1_1Repository.html#a092ba56e5003ed476a9f556e9df224bf" target="_top" xlink:title="Gets a user&#45;provided risk factor model definition.">
<polygon fill="none" stroke="black" points="163,-0.5 163,-30.5 324,-30.5 324,-0.5 163,-0.5"/>
<text text-anchor="start" x="171" y="-18.5" font-family="Helvetica,sans-Serif" font-size="10.00">hgps::Repository::get</text>
<text text-anchor="middle" x="243.5" y="-7.5" font-family="Helvetica,sans-Serif" font-size="10.00">_risk_factor_model_definition</text>
</a>
</g>
</g>
<!-- Node1&#45;&gt;Node3 -->
<g id="edge2" class="edge">
<title>Node1&#45;&gt;Node3</title>
<path fill="none" stroke="midnightblue" d="M127.01,-33.02C135.45,-31.74 144.24,-30.4 153.04,-29.07"/>
<polygon fill="midnightblue" stroke="midnightblue" points="153.6,-32.53 162.96,-27.57 152.55,-25.6 153.6,-32.53"/>
</g>
</g>
</svg>
