<?xml version="1.0" encoding="UTF-8" standalone="no"?>
<!DOCTYPE svg PUBLIC "-//W3C//DTD SVG 1.1//EN"
 "http://www.w3.org/Graphics/SVG/1.1/DTD/svg11.dtd">
<!-- Generated by graphviz version 2.43.0 (0)
 -->
<!-- Title: hgps::create_integer_gender_table Pages: 1 -->
<svg width="270pt" height="137pt"
 viewBox="0.00 0.00 270.00 137.00" xmlns="http://www.w3.org/2000/svg" xmlns:xlink="http://www.w3.org/1999/xlink">
<g id="graph0" class="graph" transform="scale(1 1) rotate(0) translate(4 133)">
<title>hgps::create_integer_gender_table</title>
<!-- Node1 -->
<g id="node1" class="node">
<title>Node1</title>
<g id="a_node1"><a xlink:title="Creates an instance of the gender lookup table for integer rows breakpoints value.">
<polygon fill="#bfbfbf" stroke="black" points="0,-49.5 0,-79.5 116,-79.5 116,-49.5 0,-49.5"/>
<text text-anchor="start" x="8" y="-67.5" font-family="Helvetica,sans-Serif" font-size="10.00">hgps::create_integer</text>
<text text-anchor="middle" x="58" y="-56.5" font-family="Helvetica,sans-Serif" font-size="10.00">_gender_table</text>
</a>
</g>
</g>
<!-- Node2 -->
<g id="node2" class="node">
<title>Node2</title>
<g id="a_node2"><a xlink:href="classhgps_1_1core_1_1Interval.html#a668fd071ff56c0019147b8763cf747b9" target="_top" xlink:title="Gets the interval length.">
<polygon fill="none" stroke="black" points="152,-98.5 152,-128.5 262,-128.5 262,-98.5 152,-98.5"/>
<text text-anchor="start" x="160" y="-116.5" font-family="Helvetica,sans-Serif" font-size="10.00">hgps::core::Interval</text>
<text text-anchor="middle" x="207" y="-105.5" font-family="Helvetica,sans-Serif" font-size="10.00">::length</text>
</a>
</g>
</g>
<!-- Node1&#45;&gt;Node2 -->
<g id="edge1" class="edge">
<title>Node1&#45;&gt;Node2</title>
<path fill="none" stroke="midnightblue" d="M104.3,-79.6C119.04,-84.51 135.57,-90.02 150.94,-95.15"/>
<polygon fill="midnightblue" stroke="midnightblue" points="150.25,-98.61 160.85,-98.45 152.47,-91.97 150.25,-98.61"/>
</g>
<!-- Node3 -->
<g id="node3" class="node">
<title>Node3</title>
<g id="a_node3"><a xlink:href="classhgps_1_1core_1_1Interval.html#ae9995123ed22bb10f9b39a03bd573159" target="_top" xlink:title="Gets the interval lower bound.">
<polygon fill="none" stroke="black" points="152,-49.5 152,-79.5 262,-79.5 262,-49.5 152,-49.5"/>
<text text-anchor="start" x="160" y="-67.5" font-family="Helvetica,sans-Serif" font-size="10.00">hgps::core::Interval</text>
<text text-anchor="middle" x="207" y="-56.5" font-family="Helvetica,sans-Serif" font-size="10.00">::lower</text>
</a>
</g>
</g>
<!-- Node1&#45;&gt;Node3 -->
<g id="edge2" class="edge">
<title>Node1&#45;&gt;Node3</title>
<path fill="none" stroke="midnightblue" d="M116.25,-64.5C124.51,-64.5 133.05,-64.5 141.43,-64.5"/>
<polygon fill="midnightblue" stroke="midnightblue" points="141.55,-68 151.55,-64.5 141.55,-61 141.55,-68"/>
</g>
<!-- Node4 -->
<g id="node4" class="node">
<title>Node4</title>
<g id="a_node4"><a xlink:href="classhgps_1_1core_1_1Interval.html#a2cdf9a6b543eaae1a0010212fcb3e20c" target="_top" xlink:title="Gets the interval upper bound.">
<polygon fill="none" stroke="black" points="152,-0.5 152,-30.5 262,-30.5 262,-0.5 152,-0.5"/>
<text text-anchor="start" x="160" y="-18.5" font-family="Helvetica,sans-Serif" font-size="10.00">hgps::core::Interval</text>
<text text-anchor="middle" x="207" y="-7.5" font-family="Helvetica,sans-Serif" font-size="10.00">::upper</text>
</a>
</g>
</g>
<!-- Node1&#45;&gt;Node4 -->
<g id="edge3" class="edge">
<title>Node1&#45;&gt;Node4</title>
<path fill="none" stroke="midnightblue" d="M104.3,-49.4C119.04,-44.49 135.57,-38.98 150.94,-33.85"/>
<polygon fill="midnightblue" stroke="midnightblue" points="152.47,-37.03 160.85,-30.55 150.25,-30.39 152.47,-37.03"/>
</g>
</g>
</svg>
