<?xml version="1.0" encoding="UTF-8" standalone="no"?>
<!DOCTYPE svg PUBLIC "-//W3C//DTD SVG 1.1//EN"
 "http://www.w3.org/Graphics/SVG/1.1/DTD/svg11.dtd">
<!-- Generated by graphviz version 7.0.6 (20230106.0513)
 -->
<!-- Title: hgps::core::run_async Pages: 1 -->
<svg width="278pt" height="86pt"
 viewBox="0.00 0.00 278.00 86.00" xmlns="http://www.w3.org/2000/svg" xmlns:xlink="http://www.w3.org/1999/xlink">
<g id="graph0" class="graph" transform="scale(1 1) rotate(0) translate(4 82)">
<title>hgps::core::run_async</title>
<!-- Node1 -->
<g id="node1" class="node">
<title>Node1</title>
<g id="a_node1"><a xlink:title=" ">
<polygon fill="#999999" stroke="#666666" points="270,-48.5 157,-48.5 157,-29.5 270,-29.5 270,-48.5"/>
<text text-anchor="middle" x="213.5" y="-36.5" font-family="Helvetica,sans-Serif" font-size="10.00">hgps::core::run_async</text>
</a>
</g>
</g>
<!-- Node2 -->
<g id="node2" class="node">
<title>Node2</title>
<g id="a_node2"><a xlink:href="classhgps_1_1_default_event_bus.html#a4ea312a2bc9bdf9210ca7513432a95b2" target="_top" xlink:title=" ">
<polygon fill="white" stroke="#666666" points="118,-78 3,-78 3,-48 118,-48 118,-78"/>
<text text-anchor="start" x="11" y="-66" font-family="Helvetica,sans-Serif" font-size="10.00">hgps::DefaultEventBus</text>
<text text-anchor="middle" x="60.5" y="-55" font-family="Helvetica,sans-Serif" font-size="10.00">::publish_async</text>
</a>
</g>
</g>
<!-- Node1&#45;&gt;Node2 -->
<g id="edge1" class="edge">
<title>Node1&#45;&gt;Node2</title>
<path fill="none" stroke="#63b8ff" d="M145.39,-49.67C136.36,-51.1 127.16,-52.56 118.33,-53.97"/>
<polygon fill="#63b8ff" stroke="#63b8ff" points="145.88,-53.13 155.21,-48.11 144.78,-46.22 145.88,-53.13"/>
</g>
<!-- Node3 -->
<g id="node3" class="node">
<title>Node3</title>
<g id="a_node3"><a xlink:href="classhgps_1_1_population_module.html#aee3e42276edae4477f41ca360b090323" target="_top" xlink:title="Updates the virtual population status.">
<polygon fill="white" stroke="#666666" points="121,-30 0,-30 0,0 121,0 121,-30"/>
<text text-anchor="start" x="8" y="-18" font-family="Helvetica,sans-Serif" font-size="10.00">hgps::PopulationModule</text>
<text text-anchor="middle" x="60.5" y="-7" font-family="Helvetica,sans-Serif" font-size="10.00">::update_population</text>
</a>
</g>
</g>
<!-- Node1&#45;&gt;Node3 -->
<g id="edge2" class="edge">
<title>Node1&#45;&gt;Node3</title>
<path fill="none" stroke="#63b8ff" d="M145.48,-28.35C137.45,-27.07 129.3,-25.78 121.38,-24.52"/>
<polygon fill="#63b8ff" stroke="#63b8ff" points="144.78,-31.78 155.21,-29.89 145.88,-24.87 144.78,-31.78"/>
</g>
</g>
</svg>
