<?xml version="1.0" encoding="UTF-8" standalone="no"?>
<!DOCTYPE svg PUBLIC "-//W3C//DTD SVG 1.1//EN"
 "http://www.w3.org/Graphics/SVG/1.1/DTD/svg11.dtd">
<!-- Generated by graphviz version 2.43.0 (0)
 -->
<!-- Title: host::load_baseline_from_csv Pages: 1 -->
<svg width="522pt" height="39pt"
 viewBox="0.00 0.00 522.00 39.00" xmlns="http://www.w3.org/2000/svg" xmlns:xlink="http://www.w3.org/1999/xlink">
<g id="graph0" class="graph" transform="scale(1 1) rotate(0) translate(4 35)">
<title>host::load_baseline_from_csv</title>
<!-- Node1 -->
<g id="node1" class="node">
<title>Node1</title>
<g id="a_node1"><a xlink:title="Loads the contents of baseline adjustments file into a table.">
<polygon fill="#bfbfbf" stroke="black" points="403,-0.5 403,-30.5 514,-30.5 514,-0.5 403,-0.5"/>
<text text-anchor="start" x="411" y="-18.5" font-family="Helvetica,sans-Serif" font-size="10.00">host::load_baseline</text>
<text text-anchor="middle" x="458.5" y="-7.5" font-family="Helvetica,sans-Serif" font-size="10.00">_from_csv</text>
</a>
</g>
</g>
<!-- Node2 -->
<g id="node2" class="node">
<title>Node2</title>
<g id="a_node2"><a xlink:href="namespacehost.html#a4b5ca710f860350ad9e1d5b97fd7709c" target="_top" xlink:title="Loads baseline adjustments information from a file.">
<polygon fill="none" stroke="black" points="256,-0.5 256,-30.5 367,-30.5 367,-0.5 256,-0.5"/>
<text text-anchor="start" x="264" y="-18.5" font-family="Helvetica,sans-Serif" font-size="10.00">host::load_baseline</text>
<text text-anchor="middle" x="311.5" y="-7.5" font-family="Helvetica,sans-Serif" font-size="10.00">_adjustments</text>
</a>
</g>
</g>
<!-- Node1&#45;&gt;Node2 -->
<g id="edge1" class="edge">
<title>Node1&#45;&gt;Node2</title>
<path fill="none" stroke="midnightblue" d="M392.54,-15.5C384.14,-15.5 375.61,-15.5 367.4,-15.5"/>
<polygon fill="midnightblue" stroke="midnightblue" points="392.68,-19 402.68,-15.5 392.68,-12 392.68,-19"/>
</g>
<!-- Node3 -->
<g id="node3" class="node">
<title>Node3</title>
<g id="a_node3"><a xlink:href="namespacehost.html#af872a17121b8dc250c7397fb6af921cf" target="_top" xlink:title="Registers a risk factor model definition with the repository.">
<polygon fill="none" stroke="black" points="77,-0.5 77,-30.5 220,-30.5 220,-0.5 77,-0.5"/>
<text text-anchor="start" x="85" y="-18.5" font-family="Helvetica,sans-Serif" font-size="10.00">host::register_risk</text>
<text text-anchor="middle" x="148.5" y="-7.5" font-family="Helvetica,sans-Serif" font-size="10.00">_factor_model_definitions</text>
</a>
</g>
</g>
<!-- Node2&#45;&gt;Node3 -->
<g id="edge2" class="edge">
<title>Node2&#45;&gt;Node3</title>
<path fill="none" stroke="midnightblue" d="M245.85,-15.5C237.42,-15.5 228.75,-15.5 220.22,-15.5"/>
<polygon fill="midnightblue" stroke="midnightblue" points="245.99,-19 255.99,-15.5 245.99,-12 245.99,-19"/>
</g>
<!-- Node4 -->
<g id="node4" class="node">
<title>Node4</title>
<g id="a_node4"><a xlink:href="program_8cpp.html#a0ddf1224851353fc92bfbff6f499fa97" target="_top" xlink:title="Health&#45;GPS host application entry point.">
<polygon fill="none" stroke="black" points="0,-6 0,-25 41,-25 41,-6 0,-6"/>
<text text-anchor="middle" x="20.5" y="-13" font-family="Helvetica,sans-Serif" font-size="10.00">main</text>
</a>
</g>
</g>
<!-- Node3&#45;&gt;Node4 -->
<g id="edge3" class="edge">
<title>Node3&#45;&gt;Node4</title>
<path fill="none" stroke="midnightblue" d="M66.74,-15.5C57.29,-15.5 48.42,-15.5 41.08,-15.5"/>
<polygon fill="midnightblue" stroke="midnightblue" points="66.77,-19 76.77,-15.5 66.77,-12 66.77,-19"/>
</g>
</g>
</svg>
