<?xml version="1.0" encoding="UTF-8" standalone="no"?>
<!DOCTYPE svg PUBLIC "-//W3C//DTD SVG 1.1//EN"
 "http://www.w3.org/Graphics/SVG/1.1/DTD/svg11.dtd">
<!-- Generated by graphviz version 7.0.6 (20230106.0513)
 -->
<!-- Title: hgps::build_analysis_module Pages: 1 -->
<svg width="286pt" height="332pt"
 viewBox="0.00 0.00 286.00 332.00" xmlns="http://www.w3.org/2000/svg" xmlns:xlink="http://www.w3.org/1999/xlink">
<g id="graph0" class="graph" transform="scale(1 1) rotate(0) translate(4 328)">
<title>hgps::build_analysis_module</title>
<!-- Node1 -->
<g id="node1" class="node">
<title>Node1</title>
<g id="a_node1"><a xlink:title=" ">
<polygon fill="#999999" stroke="#666666" points="105,-168 0,-168 0,-138 105,-138 105,-168"/>
<text text-anchor="start" x="8" y="-156" font-family="Helvetica,sans-Serif" font-size="10.00">hgps::build_analysis</text>
<text text-anchor="middle" x="52.5" y="-145" font-family="Helvetica,sans-Serif" font-size="10.00">_module</text>
</a>
</g>
</g>
<!-- Node2 -->
<g id="node2" class="node">
<title>Node2</title>
<g id="a_node2"><a xlink:href="classhgps_1_1_settings.html#a317e5711c6337e4ed6644edf7849988e" target="_top" xlink:title=" ">
<polygon fill="white" stroke="#666666" points="260,-324 159,-324 159,-294 260,-294 260,-324"/>
<text text-anchor="start" x="167" y="-312" font-family="Helvetica,sans-Serif" font-size="10.00">hgps::Settings::age</text>
<text text-anchor="middle" x="209.5" y="-301" font-family="Helvetica,sans-Serif" font-size="10.00">_range</text>
</a>
</g>
</g>
<!-- Node1&#45;&gt;Node2 -->
<g id="edge1" class="edge">
<title>Node1&#45;&gt;Node2</title>
<path fill="none" stroke="#63b8ff" d="M59.74,-168.38C71.58,-195.7 99.84,-252.83 141,-285 143.4,-286.87 145.95,-288.61 148.62,-290.22"/>
<polygon fill="#63b8ff" stroke="#63b8ff" points="146.81,-293.22 157.29,-294.78 150.06,-287.02 146.81,-293.22"/>
</g>
<!-- Node3 -->
<g id="node3" class="node">
<title>Node3</title>
<g id="a_node3"><a xlink:href="classhgps_1_1_settings.html#a4538c7a82ccecddb077b8283bb7735f7" target="_top" xlink:title=" ">
<polygon fill="white" stroke="#666666" points="268.5,-275.5 150.5,-275.5 150.5,-256.5 268.5,-256.5 268.5,-275.5"/>
<text text-anchor="middle" x="209.5" y="-263.5" font-family="Helvetica,sans-Serif" font-size="10.00">hgps::Settings::country</text>
</a>
</g>
</g>
<!-- Node1&#45;&gt;Node3 -->
<g id="edge2" class="edge">
<title>Node1&#45;&gt;Node3</title>
<path fill="none" stroke="#63b8ff" d="M63.73,-168.46C78.38,-189.38 107.31,-226.45 141,-247 143.92,-248.78 147.01,-250.4 150.2,-251.87"/>
<polygon fill="#63b8ff" stroke="#63b8ff" points="148.66,-255.02 159.24,-255.52 151.27,-248.53 148.66,-255.02"/>
</g>
<!-- Node4 -->
<g id="node4" class="node">
<title>Node4</title>
<g id="a_node4"><a xlink:href="classhgps_1_1core_1_1_datastore.html#ac22a342da438569f5b97c5c0540e628f" target="_top" xlink:title=" ">
<polygon fill="white" stroke="#666666" points="267.5,-238 151.5,-238 151.5,-208 267.5,-208 267.5,-238"/>
<text text-anchor="start" x="159.5" y="-226" font-family="Helvetica,sans-Serif" font-size="10.00">hgps::core::Datastore</text>
<text text-anchor="middle" x="209.5" y="-215" font-family="Helvetica,sans-Serif" font-size="10.00">::get_disease_analysis</text>
</a>
</g>
</g>
<!-- Node1&#45;&gt;Node4 -->
<g id="edge3" class="edge">
<title>Node1&#45;&gt;Node4</title>
<path fill="none" stroke="#63b8ff" d="M80.21,-168.31C97.29,-177.78 120.09,-189.84 141,-199 144.52,-200.54 148.18,-202.06 151.89,-203.55"/>
<polygon fill="#63b8ff" stroke="#63b8ff" points="150.4,-206.72 160.99,-207.06 152.92,-200.19 150.4,-206.72"/>
</g>
<!-- Node5 -->
<g id="node5" class="node">
<title>Node5</title>
<g id="a_node5"><a xlink:href="classhgps_1_1_repository.html#af8a140cb827742605866a1c55fb68790" target="_top" xlink:title=" ">
<polygon fill="white" stroke="#666666" points="264.5,-190 154.5,-190 154.5,-160 264.5,-160 264.5,-190"/>
<text text-anchor="start" x="162.5" y="-178" font-family="Helvetica,sans-Serif" font-size="10.00">hgps::Repository::get</text>
<text text-anchor="middle" x="209.5" y="-167" font-family="Helvetica,sans-Serif" font-size="10.00">_lms_definition</text>
</a>
</g>
</g>
<!-- Node1&#45;&gt;Node5 -->
<g id="edge4" class="edge">
<title>Node1&#45;&gt;Node5</title>
<path fill="none" stroke="#63b8ff" d="M105.11,-160.33C117.31,-162.06 130.46,-163.92 143.17,-165.73"/>
<polygon fill="#63b8ff" stroke="#63b8ff" points="142.3,-169.14 152.69,-167.08 143.28,-162.21 142.3,-169.14"/>
</g>
<!-- Node6 -->
<g id="node6" class="node">
<title>Node6</title>
<g id="a_node6"><a xlink:href="classhgps_1_1_repository.html#a9f1a0dc37a4994fc1cc47d444561383d" target="_top" xlink:title=" ">
<polygon fill="white" stroke="#666666" points="276.5,-141.5 142.5,-141.5 142.5,-122.5 276.5,-122.5 276.5,-141.5"/>
<text text-anchor="middle" x="209.5" y="-129.5" font-family="Helvetica,sans-Serif" font-size="10.00">hgps::Repository::manager</text>
</a>
</g>
</g>
<!-- Node1&#45;&gt;Node6 -->
<g id="edge5" class="edge">
<title>Node1&#45;&gt;Node6</title>
<path fill="none" stroke="#63b8ff" d="M105.11,-146.01C113.47,-144.87 122.29,-143.68 131.1,-142.49"/>
<polygon fill="#63b8ff" stroke="#63b8ff" points="131.28,-145.99 140.72,-141.18 130.34,-139.06 131.28,-145.99"/>
</g>
<!-- Node7 -->
<g id="node7" class="node">
<title>Node7</title>
<g id="a_node7"><a xlink:href="classhgps_1_1_model_input.html#abd88dd970c41908601acde18d5d69b8e" target="_top" xlink:title=" ">
<polygon fill="white" stroke="#666666" points="264.5,-104.5 154.5,-104.5 154.5,-85.5 264.5,-85.5 264.5,-104.5"/>
<text text-anchor="middle" x="209.5" y="-92.5" font-family="Helvetica,sans-Serif" font-size="10.00">hgps::ModelInput::run</text>
</a>
</g>
</g>
<!-- Node1&#45;&gt;Node7 -->
<g id="edge6" class="edge">
<title>Node1&#45;&gt;Node7</title>
<path fill="none" stroke="#63b8ff" d="M85.05,-137.61C101.49,-129.93 122.07,-120.84 141,-114 146.72,-111.93 152.79,-109.95 158.84,-108.09"/>
<polygon fill="#63b8ff" stroke="#63b8ff" points="159.59,-111.52 168.19,-105.33 157.61,-104.8 159.59,-111.52"/>
</g>
<!-- Node8 -->
<g id="node8" class="node">
<title>Node8</title>
<g id="a_node8"><a xlink:href="classhgps_1_1_model_input.html#acf1b179fa0b7c3d06dd928584efd8fd3" target="_top" xlink:title=" ">
<polygon fill="white" stroke="#666666" points="275,-67.5 144,-67.5 144,-48.5 275,-48.5 275,-67.5"/>
<text text-anchor="middle" x="209.5" y="-55.5" font-family="Helvetica,sans-Serif" font-size="10.00">hgps::ModelInput::settings</text>
</a>
</g>
</g>
<!-- Node1&#45;&gt;Node8 -->
<g id="edge7" class="edge">
<title>Node1&#45;&gt;Node8</title>
<path fill="none" stroke="#63b8ff" d="M67.15,-137.62C83.2,-120.44 111.43,-92.96 141,-77 144.59,-75.07 148.39,-73.31 152.29,-71.72"/>
<polygon fill="#63b8ff" stroke="#63b8ff" points="153.14,-75.14 161.34,-68.42 150.75,-68.56 153.14,-75.14"/>
</g>
<!-- Node9 -->
<g id="node9" class="node">
<title>Node9</title>
<g id="a_node9"><a xlink:href="classhgps_1_1detail_1_1_store_converter.html#a6453f9feb5c024128ad6846f5ba04984" target="_top" xlink:title=" ">
<polygon fill="white" stroke="#666666" points="278,-30 141,-30 141,0 278,0 278,-30"/>
<text text-anchor="start" x="149" y="-18" font-family="Helvetica,sans-Serif" font-size="10.00">hgps::detail::StoreConverter</text>
<text text-anchor="middle" x="209.5" y="-7" font-family="Helvetica,sans-Serif" font-size="10.00">::to_analysis_definition</text>
</a>
</g>
</g>
<!-- Node1&#45;&gt;Node9 -->
<g id="edge8" class="edge">
<title>Node1&#45;&gt;Node9</title>
<path fill="none" stroke="#63b8ff" d="M61.64,-137.62C75.1,-113.57 104.2,-67.02 141,-40 142.93,-38.58 144.95,-37.24 147.03,-35.97"/>
<polygon fill="#63b8ff" stroke="#63b8ff" points="148.69,-39.05 155.82,-31.21 145.36,-32.89 148.69,-39.05"/>
</g>
</g>
</svg>
