<?xml version="1.0" encoding="UTF-8" standalone="no"?>
<!DOCTYPE svg PUBLIC "-//W3C//DTD SVG 1.1//EN"
 "http://www.w3.org/Graphics/SVG/1.1/DTD/svg11.dtd">
<!-- Generated by graphviz version 2.43.0 (0)
 -->
<!-- Title: host::poco::to_json Pages: 1 -->
<svg width="306pt" height="100pt"
 viewBox="0.00 0.00 306.00 99.50" xmlns="http://www.w3.org/2000/svg" xmlns:xlink="http://www.w3.org/1999/xlink">
<g id="graph0" class="graph" transform="scale(1 1) rotate(0) translate(4 95.5)">
<title>host::poco::to_json</title>
<!-- Node1 -->
<g id="node1" class="node">
<title>Node1</title>
<g id="a_node1"><a xlink:title=" ">
<polygon fill="#bfbfbf" stroke="black" points="0,-38.5 0,-57.5 108,-57.5 108,-38.5 0,-38.5"/>
<text text-anchor="middle" x="54" y="-45.5" font-family="Helvetica,sans-Serif" font-size="10.00">host::poco::to_json</text>
</a>
</g>
</g>
<!-- Node2 -->
<g id="node2" class="node">
<title>Node2</title>
<g id="a_node2"><a xlink:href="structhost_1_1poco_1_1PolicyScenarioInfo.html#af22a64be82d90a8c3794d80b7ce588a1" target="_top" xlink:title=" ">
<polygon fill="none" stroke="black" points="144,-61 144,-91 298,-91 298,-61 144,-61"/>
<text text-anchor="start" x="152" y="-79" font-family="Helvetica,sans-Serif" font-size="10.00">host::poco::PolicyScenario</text>
<text text-anchor="middle" x="221" y="-68" font-family="Helvetica,sans-Serif" font-size="10.00">Info::to_child_cutoff_age_str</text>
</a>
</g>
</g>
<!-- Node1&#45;&gt;Node2 -->
<g id="edge1" class="edge">
<title>Node1&#45;&gt;Node2</title>
<path fill="none" stroke="midnightblue" d="M108.12,-57.01C116.4,-58.42 125.13,-59.9 133.93,-61.39"/>
<polygon fill="midnightblue" stroke="midnightblue" points="133.41,-64.86 143.85,-63.08 134.58,-57.95 133.41,-64.86"/>
</g>
<!-- Node3 -->
<g id="node3" class="node">
<title>Node3</title>
<g id="a_node3"><a xlink:href="structhost_1_1poco_1_1PolicyScenarioInfo.html#a69f6f53a7bbde77de93ec2bae33cb179" target="_top" xlink:title=" ">
<polygon fill="none" stroke="black" points="149,-0.5 149,-41.5 293,-41.5 293,-0.5 149,-0.5"/>
<text text-anchor="start" x="157" y="-29.5" font-family="Helvetica,sans-Serif" font-size="10.00">host::poco::PolicyScenario</text>
<text text-anchor="start" x="157" y="-18.5" font-family="Helvetica,sans-Serif" font-size="10.00">Info::to_coverage_cutoff</text>
<text text-anchor="middle" x="221" y="-7.5" font-family="Helvetica,sans-Serif" font-size="10.00">_time_str</text>
</a>
</g>
</g>
<!-- Node1&#45;&gt;Node3 -->
<g id="edge2" class="edge">
<title>Node1&#45;&gt;Node3</title>
<path fill="none" stroke="midnightblue" d="M108.12,-39.31C117.97,-37.7 128.46,-35.98 138.93,-34.27"/>
<polygon fill="midnightblue" stroke="midnightblue" points="139.63,-37.7 148.93,-32.63 138.5,-30.79 139.63,-37.7"/>
</g>
</g>
</svg>
