<?xml version="1.0" encoding="UTF-8" standalone="no"?>
<!DOCTYPE svg PUBLIC "-//W3C//DTD SVG 1.1//EN"
 "http://www.w3.org/Graphics/SVG/1.1/DTD/svg11.dtd">
<!-- Generated by graphviz version 7.0.6 (20230106.0513)
 -->
<!-- Title: hgps::core::parallel_for Pages: 1 -->
<svg width="427pt" height="38pt"
 viewBox="0.00 0.00 427.00 38.00" xmlns="http://www.w3.org/2000/svg" xmlns:xlink="http://www.w3.org/1999/xlink">
<g id="graph0" class="graph" transform="scale(1 1) rotate(0) translate(4 34)">
<title>hgps::core::parallel_for</title>
<!-- Node1 -->
<g id="node1" class="node">
<title>Node1</title>
<g id="a_node1"><a xlink:title=" ">
<polygon fill="#999999" stroke="#666666" points="419,-24.5 304,-24.5 304,-5.5 419,-5.5 419,-24.5"/>
<text text-anchor="middle" x="361.5" y="-12.5" font-family="Helvetica,sans-Serif" font-size="10.00">hgps::core::parallel_for</text>
</a>
</g>
</g>
<!-- Node2 -->
<g id="node2" class="node">
<title>Node2</title>
<g id="a_node2"><a xlink:href="namespacehgps_1_1core.html#a7f89b08ae3f9edbb57adaafce8bd9114" target="_top" xlink:title=" ">
<polygon fill="white" stroke="#666666" points="268,-30 156,-30 156,0 268,0 268,-30"/>
<text text-anchor="start" x="164" y="-18" font-family="Helvetica,sans-Serif" font-size="10.00">hgps::core::find_index</text>
<text text-anchor="middle" x="212" y="-7" font-family="Helvetica,sans-Serif" font-size="10.00">_of_all</text>
</a>
</g>
</g>
<!-- Node1&#45;&gt;Node2 -->
<g id="edge1" class="edge">
<title>Node1&#45;&gt;Node2</title>
<path fill="none" stroke="#63b8ff" d="M292.51,-15C284.38,-15 276.16,-15 268.24,-15"/>
<polygon fill="#63b8ff" stroke="#63b8ff" points="292.38,-18.5 302.38,-15 292.38,-11.5 292.38,-18.5"/>
</g>
<!-- Node3 -->
<g id="node3" class="node">
<title>Node3</title>
<g id="a_node3"><a xlink:href="classhgps_1_1_s_e_s_noise_module.html#ad24d0002d518f941159a9873fe918c44" target="_top" xlink:title="Updates the virtual population status.">
<polygon fill="white" stroke="#666666" points="120,-30 0,-30 0,0 120,0 120,-30"/>
<text text-anchor="start" x="8" y="-18" font-family="Helvetica,sans-Serif" font-size="10.00">hgps::SESNoiseModule</text>
<text text-anchor="middle" x="60" y="-7" font-family="Helvetica,sans-Serif" font-size="10.00">::update_population</text>
</a>
</g>
</g>
<!-- Node2&#45;&gt;Node3 -->
<g id="edge2" class="edge">
<title>Node2&#45;&gt;Node3</title>
<path fill="none" stroke="#63b8ff" d="M144.15,-15C136.26,-15 128.26,-15 120.48,-15"/>
<polygon fill="#63b8ff" stroke="#63b8ff" points="144.06,-18.5 154.06,-15 144.06,-11.5 144.06,-18.5"/>
</g>
</g>
</svg>
