<?xml version="1.0" encoding="UTF-8" standalone="no"?>
<!DOCTYPE svg PUBLIC "-//W3C//DTD SVG 1.1//EN"
 "http://www.w3.org/Graphics/SVG/1.1/DTD/svg11.dtd">
<!-- Generated by graphviz version 2.43.0 (0)
 -->
<!-- Title: hgps::get_default_simulation_module_factory Pages: 1 -->
<svg width="526pt" height="907pt"
 viewBox="0.00 0.00 526.00 907.00" xmlns="http://www.w3.org/2000/svg" xmlns:xlink="http://www.w3.org/1999/xlink">
<g id="graph0" class="graph" transform="scale(1 1) rotate(0) translate(4 903)">
<title>hgps::get_default_simulation_module_factory</title>
<!-- Node1 -->
<g id="node1" class="node">
<title>Node1</title>
<g id="a_node1"><a xlink:title="Create the default simulation modules factory for production usage.">
<polygon fill="#bfbfbf" stroke="black" points="0,-308.5 0,-338.5 158,-338.5 158,-308.5 0,-308.5"/>
<text text-anchor="start" x="8" y="-326.5" font-family="Helvetica,sans-Serif" font-size="10.00">hgps::get_default_simulation</text>
<text text-anchor="middle" x="79" y="-315.5" font-family="Helvetica,sans-Serif" font-size="10.00">_module_factory</text>
</a>
</g>
</g>
<!-- Node2 -->
<g id="node2" class="node">
<title>Node2</title>
<g id="a_node2"><a xlink:href="namespacehgps.html#a00f39dc81f9c78a17b520811df508289" target="_top" xlink:title="Builds a new instance of the AnalysisModule using the given data infrastructure.">
<polygon fill="none" stroke="black" points="199.5,-682.5 199.5,-712.5 315.5,-712.5 315.5,-682.5 199.5,-682.5"/>
<text text-anchor="start" x="207.5" y="-700.5" font-family="Helvetica,sans-Serif" font-size="10.00">hgps::build_analysis</text>
<text text-anchor="middle" x="257.5" y="-689.5" font-family="Helvetica,sans-Serif" font-size="10.00">_module</text>
</a>
</g>
</g>
<!-- Node1&#45;&gt;Node2 -->
<g id="edge1" class="edge">
<title>Node1&#45;&gt;Node2</title>
<path fill="none" stroke="midnightblue" d="M85.07,-338.78C99.51,-381.61 143.15,-505.98 194,-602.5 207.43,-627.98 225.85,-655.27 239.21,-674.04"/>
<polygon fill="midnightblue" stroke="midnightblue" points="236.46,-676.2 245.14,-682.27 242.14,-672.11 236.46,-676.2"/>
</g>
<!-- Node11 -->
<g id="node11" class="node">
<title>Node11</title>
<g id="a_node11"><a xlink:href="namespacehgps.html#a1dfc6cbd78a8f76582f05e63bcd8d3a6" target="_top" xlink:title="Builds a new instance of the DiseaseModule using the given data infrastructure.">
<polygon fill="none" stroke="black" points="201,-562.5 201,-592.5 314,-592.5 314,-562.5 201,-562.5"/>
<text text-anchor="start" x="209" y="-580.5" font-family="Helvetica,sans-Serif" font-size="10.00">hgps::build_disease</text>
<text text-anchor="middle" x="257.5" y="-569.5" font-family="Helvetica,sans-Serif" font-size="10.00">_module</text>
</a>
</g>
</g>
<!-- Node1&#45;&gt;Node11 -->
<g id="edge10" class="edge">
<title>Node1&#45;&gt;Node11</title>
<path fill="none" stroke="midnightblue" d="M90.51,-338.63C120.13,-381.25 204.41,-502.53 240.15,-553.97"/>
<polygon fill="midnightblue" stroke="midnightblue" points="237.46,-556.24 246.04,-562.45 243.21,-552.24 237.46,-556.24"/>
</g>
<!-- Node16 -->
<g id="node16" class="node">
<title>Node16</title>
<g id="a_node16"><a xlink:href="namespacehgps.html#ad7d042f1937872f2f8b344915584a7a9" target="_top" xlink:title="Builds a new instance of the PopulationModule using the given data infrastructure.">
<polygon fill="none" stroke="black" points="194,-308.5 194,-338.5 321,-338.5 321,-308.5 194,-308.5"/>
<text text-anchor="start" x="202" y="-326.5" font-family="Helvetica,sans-Serif" font-size="10.00">hgps::build_population</text>
<text text-anchor="middle" x="257.5" y="-315.5" font-family="Helvetica,sans-Serif" font-size="10.00">_module</text>
</a>
</g>
</g>
<!-- Node1&#45;&gt;Node16 -->
<g id="edge18" class="edge">
<title>Node1&#45;&gt;Node16</title>
<path fill="none" stroke="midnightblue" d="M158.19,-323.5C166.64,-323.5 175.22,-323.5 183.61,-323.5"/>
<polygon fill="midnightblue" stroke="midnightblue" points="183.73,-327 193.73,-323.5 183.73,-320 183.73,-327"/>
</g>
<!-- Node22 -->
<g id="node22" class="node">
<title>Node22</title>
<g id="a_node22"><a xlink:href="namespacehgps.html#ae0fac74fbde1e5a2c58bf7ce7f866f80" target="_top" xlink:title=" ">
<polygon fill="none" stroke="black" points="194,-104.5 194,-134.5 321,-134.5 321,-104.5 194,-104.5"/>
<text text-anchor="start" x="202" y="-122.5" font-family="Helvetica,sans-Serif" font-size="10.00">hgps::build_risk_factor</text>
<text text-anchor="middle" x="257.5" y="-111.5" font-family="Helvetica,sans-Serif" font-size="10.00">_module</text>
</a>
</g>
</g>
<!-- Node1&#45;&gt;Node22 -->
<g id="edge27" class="edge">
<title>Node1&#45;&gt;Node22</title>
<path fill="none" stroke="midnightblue" d="M92.98,-308.5C123.58,-273.13 200.39,-184.35 236.79,-142.28"/>
<polygon fill="midnightblue" stroke="midnightblue" points="239.61,-144.38 243.5,-134.52 234.31,-139.79 239.61,-144.38"/>
</g>
<!-- Node25 -->
<g id="node25" class="node">
<title>Node25</title>
<g id="a_node25"><a xlink:href="namespacehgps.html#a5e12849e2055f3e1f5ffdaf234380e16" target="_top" xlink:title=" ">
<polygon fill="none" stroke="black" points="196,-28.5 196,-58.5 319,-58.5 319,-28.5 196,-28.5"/>
<text text-anchor="start" x="204" y="-46.5" font-family="Helvetica,sans-Serif" font-size="10.00">hgps::build_ses_noise</text>
<text text-anchor="middle" x="257.5" y="-35.5" font-family="Helvetica,sans-Serif" font-size="10.00">_module</text>
</a>
</g>
</g>
<!-- Node1&#45;&gt;Node25 -->
<g id="edge30" class="edge">
<title>Node1&#45;&gt;Node25</title>
<path fill="none" stroke="midnightblue" d="M85.06,-308.42C98.44,-270.03 137.64,-166.6 194,-95.5 203.01,-84.13 214.87,-73.51 225.82,-64.86"/>
<polygon fill="midnightblue" stroke="midnightblue" points="228.13,-67.5 233.97,-58.66 223.89,-61.93 228.13,-67.5"/>
</g>
<!-- Node3 -->
<g id="node3" class="node">
<title>Node3</title>
<g id="a_node3"><a xlink:href="classhgps_1_1Settings.html#a317e5711c6337e4ed6644edf7849988e" target="_top" xlink:title="The experiment population age range constraint.">
<polygon fill="none" stroke="black" points="382.5,-731.5 382.5,-761.5 492.5,-761.5 492.5,-731.5 382.5,-731.5"/>
<text text-anchor="start" x="390.5" y="-749.5" font-family="Helvetica,sans-Serif" font-size="10.00">hgps::Settings::age</text>
<text text-anchor="middle" x="437.5" y="-738.5" font-family="Helvetica,sans-Serif" font-size="10.00">_range</text>
</a>
</g>
</g>
<!-- Node2&#45;&gt;Node3 -->
<g id="edge2" class="edge">
<title>Node2&#45;&gt;Node3</title>
<path fill="none" stroke="midnightblue" d="M313.36,-712.6C332.15,-717.77 353.33,-723.6 372.76,-728.95"/>
<polygon fill="midnightblue" stroke="midnightblue" points="371.86,-732.34 382.43,-731.62 373.72,-725.59 371.86,-732.34"/>
</g>
<!-- Node4 -->
<g id="node4" class="node">
<title>Node4</title>
<g id="a_node4"><a xlink:href="classhgps_1_1Settings.html#a4538c7a82ccecddb077b8283bb7735f7" target="_top" xlink:title="Gets the experiment target country information.">
<polygon fill="none" stroke="black" points="373.5,-508 373.5,-527 501.5,-527 501.5,-508 373.5,-508"/>
<text text-anchor="middle" x="437.5" y="-515" font-family="Helvetica,sans-Serif" font-size="10.00">hgps::Settings::country</text>
</a>
</g>
</g>
<!-- Node2&#45;&gt;Node4 -->
<g id="edge3" class="edge">
<title>Node2&#45;&gt;Node4</title>
<path fill="none" stroke="midnightblue" d="M269.07,-682.28C281.83,-663.73 303.73,-631.28 321,-602.5 338.2,-573.85 330.46,-556.8 357,-536.5 359.46,-534.62 362.07,-532.92 364.8,-531.39"/>
<polygon fill="midnightblue" stroke="midnightblue" points="366.35,-534.53 373.84,-527.04 363.31,-528.22 366.35,-534.53"/>
</g>
<!-- Node5 -->
<g id="node5" class="node">
<title>Node5</title>
<g id="a_node5"><a xlink:href="classhgps_1_1core_1_1Datastore.html#ac22a342da438569f5b97c5c0540e628f" target="_top" xlink:title="Gets the Burden of Diseases (BoD) analysis dataset for a country.">
<polygon fill="none" stroke="black" points="374,-868.5 374,-898.5 501,-898.5 501,-868.5 374,-868.5"/>
<text text-anchor="start" x="382" y="-886.5" font-family="Helvetica,sans-Serif" font-size="10.00">hgps::core::Datastore</text>
<text text-anchor="middle" x="437.5" y="-875.5" font-family="Helvetica,sans-Serif" font-size="10.00">::get_disease_analysis</text>
</a>
</g>
</g>
<!-- Node2&#45;&gt;Node5 -->
<g id="edge4" class="edge">
<title>Node2&#45;&gt;Node5</title>
<path fill="none" stroke="midnightblue" d="M263.68,-712.88C275.22,-744.84 306.13,-818.76 357,-858.5 359.49,-860.44 362.12,-862.23 364.87,-863.89"/>
<polygon fill="midnightblue" stroke="midnightblue" points="363.49,-867.12 373.96,-868.71 366.77,-860.93 363.49,-867.12"/>
</g>
<!-- Node6 -->
<g id="node6" class="node">
<title>Node6</title>
<g id="a_node6"><a xlink:href="classhgps_1_1Repository.html#a480bc36a0f3c2ec07daabf862c0b0667" target="_top" xlink:title="Gets the LMS (lambda&#45;mu&#45;sigma) definition.">
<polygon fill="none" stroke="black" points="378,-682.5 378,-712.5 497,-712.5 497,-682.5 378,-682.5"/>
<text text-anchor="start" x="386" y="-700.5" font-family="Helvetica,sans-Serif" font-size="10.00">hgps::Repository::get</text>
<text text-anchor="middle" x="437.5" y="-689.5" font-family="Helvetica,sans-Serif" font-size="10.00">_lms_definition</text>
</a>
</g>
</g>
<!-- Node2&#45;&gt;Node6 -->
<g id="edge5" class="edge">
<title>Node2&#45;&gt;Node6</title>
<path fill="none" stroke="midnightblue" d="M315.8,-697.5C332.21,-697.5 350.28,-697.5 367.32,-697.5"/>
<polygon fill="midnightblue" stroke="midnightblue" points="367.78,-701 377.78,-697.5 367.78,-694 367.78,-701"/>
</g>
<!-- Node7 -->
<g id="node7" class="node">
<title>Node7</title>
<g id="a_node7"><a xlink:href="classhgps_1_1Repository.html#acf292f7951f2391e72305f7f1694659b" target="_top" xlink:title="Gets a reference to the back&#45;end storage instance.">
<polygon fill="none" stroke="black" points="364,-470 364,-489 511,-489 511,-470 364,-470"/>
<text text-anchor="middle" x="437.5" y="-477" font-family="Helvetica,sans-Serif" font-size="10.00">hgps::Repository::manager</text>
</a>
</g>
</g>
<!-- Node2&#45;&gt;Node7 -->
<g id="edge6" class="edge">
<title>Node2&#45;&gt;Node7</title>
<path fill="none" stroke="midnightblue" d="M270.14,-682.41C283.74,-664.25 306.26,-632.43 321,-602.5 342.61,-558.62 320.75,-531.34 357,-498.5 358.71,-496.95 360.52,-495.52 362.42,-494.21"/>
<polygon fill="midnightblue" stroke="midnightblue" points="364.3,-497.16 371.2,-489.11 360.79,-491.1 364.3,-497.16"/>
</g>
<!-- Node8 -->
<g id="node8" class="node">
<title>Node8</title>
<g id="a_node8"><a xlink:href="classhgps_1_1ModelInput.html#abd88dd970c41908601acde18d5d69b8e" target="_top" xlink:title="Gets the simulation run information.">
<polygon fill="none" stroke="black" points="376.5,-830 376.5,-849 498.5,-849 498.5,-830 376.5,-830"/>
<text text-anchor="middle" x="437.5" y="-837" font-family="Helvetica,sans-Serif" font-size="10.00">hgps::ModelInput::run</text>
</a>
</g>
</g>
<!-- Node2&#45;&gt;Node8 -->
<g id="edge7" class="edge">
<title>Node2&#45;&gt;Node8</title>
<path fill="none" stroke="midnightblue" d="M266.24,-712.68C280.45,-738.97 313.33,-792.81 357,-820.5 360.34,-822.62 363.9,-824.5 367.59,-826.18"/>
<polygon fill="midnightblue" stroke="midnightblue" points="366.38,-829.46 376.97,-829.92 368.98,-822.96 366.38,-829.46"/>
</g>
<!-- Node9 -->
<g id="node9" class="node">
<title>Node9</title>
<g id="a_node9"><a xlink:href="classhgps_1_1ModelInput.html#acf1b179fa0b7c3d06dd928584efd8fd3" target="_top" xlink:title="Gets the simulation experiment settings definition.">
<polygon fill="none" stroke="black" points="364.5,-432 364.5,-451 510.5,-451 510.5,-432 364.5,-432"/>
<text text-anchor="middle" x="437.5" y="-439" font-family="Helvetica,sans-Serif" font-size="10.00">hgps::ModelInput::settings</text>
</a>
</g>
</g>
<!-- Node2&#45;&gt;Node9 -->
<g id="edge8" class="edge">
<title>Node2&#45;&gt;Node9</title>
<path fill="none" stroke="midnightblue" d="M270.84,-682.3C284.89,-664.28 307.62,-632.85 321,-602.5 347.26,-542.92 310.65,-506.22 357,-460.5 358.44,-459.08 359.97,-457.76 361.56,-456.53"/>
<polygon fill="midnightblue" stroke="midnightblue" points="363.51,-459.44 370.09,-451.13 359.77,-453.53 363.51,-459.44"/>
</g>
<!-- Node10 -->
<g id="node10" class="node">
<title>Node10</title>
<g id="a_node10"><a xlink:href="classhgps_1_1detail_1_1StoreConverter.html#a6453f9feb5c024128ad6846f5ba04984" target="_top" xlink:title=" ">
<polygon fill="none" stroke="black" points="361,-780.5 361,-810.5 514,-810.5 514,-780.5 361,-780.5"/>
<text text-anchor="start" x="369" y="-798.5" font-family="Helvetica,sans-Serif" font-size="10.00">hgps::detail::StoreConverter</text>
<text text-anchor="middle" x="437.5" y="-787.5" font-family="Helvetica,sans-Serif" font-size="10.00">::to_analysis_definition</text>
</a>
</g>
</g>
<!-- Node2&#45;&gt;Node10 -->
<g id="edge9" class="edge">
<title>Node2&#45;&gt;Node10</title>
<path fill="none" stroke="midnightblue" d="M274.72,-712.56C293.31,-729.11 325.32,-755.46 357,-771.5 360.69,-773.37 364.55,-775.12 368.5,-776.76"/>
<polygon fill="midnightblue" stroke="midnightblue" points="367.24,-780.02 377.83,-780.37 369.77,-773.49 367.24,-780.02"/>
</g>
<!-- Node11&#45;&gt;Node3 -->
<g id="edge11" class="edge">
<title>Node11&#45;&gt;Node3</title>
<path fill="none" stroke="midnightblue" d="M268.44,-592.72C292.2,-628.99 350.76,-717.92 357,-722.5 361.84,-726.05 367.21,-729.09 372.8,-731.68"/>
<polygon fill="midnightblue" stroke="midnightblue" points="371.81,-735.05 382.38,-735.62 374.47,-728.58 371.81,-735.05"/>
</g>
<!-- Node11&#45;&gt;Node6 -->
<g id="edge16" class="edge">
<title>Node11&#45;&gt;Node6</title>
<path fill="none" stroke="midnightblue" d="M270.16,-592.79C287.07,-613.93 320.39,-651.91 357,-673.5 360.63,-675.64 364.47,-677.61 368.43,-679.41"/>
<polygon fill="midnightblue" stroke="midnightblue" points="367.23,-682.71 377.81,-683.32 369.93,-676.24 367.23,-682.71"/>
</g>
<!-- Node11&#45;&gt;Node9 -->
<g id="edge17" class="edge">
<title>Node11&#45;&gt;Node9</title>
<path fill="none" stroke="midnightblue" d="M266.9,-562.26C281.66,-536.98 314.74,-486.57 357,-460.5 360.43,-458.38 364.09,-456.5 367.87,-454.83"/>
<polygon fill="midnightblue" stroke="midnightblue" points="369.42,-457.98 377.47,-451.09 366.88,-451.45 369.42,-457.98"/>
</g>
<!-- Node12 -->
<g id="node12" class="node">
<title>Node12</title>
<g id="a_node12"><a xlink:href="classhgps_1_1ModelInput.html#afdc4b35087c18875cb546dd0c653fe0a" target="_top" xlink:title="Gets the collection of diseases to include in experiment.">
<polygon fill="none" stroke="black" points="363,-546 363,-565 512,-565 512,-546 363,-546"/>
<text text-anchor="middle" x="437.5" y="-553" font-family="Helvetica,sans-Serif" font-size="10.00">hgps::ModelInput::diseases</text>
</a>
</g>
</g>
<!-- Node11&#45;&gt;Node12 -->
<g id="edge12" class="edge">
<title>Node11&#45;&gt;Node12</title>
<path fill="none" stroke="midnightblue" d="M314.33,-570.6C326.6,-569.08 339.85,-567.45 352.94,-565.83"/>
<polygon fill="midnightblue" stroke="midnightblue" points="353.41,-569.3 362.9,-564.6 352.55,-562.35 353.41,-569.3"/>
</g>
<!-- Node13 -->
<g id="node13" class="node">
<title>Node13</title>
<g id="a_node13"><a xlink:href="namespacehgps.html#abad57caf5bece7e34b2f81cc94709d40" target="_top" xlink:title="Create the default disease model builder registry for disease group.">
<polygon fill="none" stroke="black" points="365.5,-382.5 365.5,-412.5 509.5,-412.5 509.5,-382.5 365.5,-382.5"/>
<text text-anchor="start" x="373.5" y="-400.5" font-family="Helvetica,sans-Serif" font-size="10.00">hgps::get_default_disease</text>
<text text-anchor="middle" x="437.5" y="-389.5" font-family="Helvetica,sans-Serif" font-size="10.00">_model_registry</text>
</a>
</g>
</g>
<!-- Node11&#45;&gt;Node13 -->
<g id="edge13" class="edge">
<title>Node11&#45;&gt;Node13</title>
<path fill="none" stroke="midnightblue" d="M264.03,-562.22C276.02,-531.19 307.43,-460.55 357,-422.5 359.45,-420.62 362.04,-418.88 364.73,-417.28"/>
<polygon fill="midnightblue" stroke="midnightblue" points="366.43,-420.34 373.63,-412.56 363.15,-414.15 366.43,-420.34"/>
</g>
<!-- Node14 -->
<g id="node14" class="node">
<title>Node14</title>
<g id="a_node14"><a xlink:href="classhgps_1_1Repository.html#a128ca9476585aa8ccae799158099a207" target="_top" xlink:title="Gets a disease complete definition.">
<polygon fill="none" stroke="black" points="378,-633.5 378,-663.5 497,-663.5 497,-633.5 378,-633.5"/>
<text text-anchor="start" x="386" y="-651.5" font-family="Helvetica,sans-Serif" font-size="10.00">hgps::Repository::get</text>
<text text-anchor="middle" x="437.5" y="-640.5" font-family="Helvetica,sans-Serif" font-size="10.00">_disease_definition</text>
</a>
</g>
</g>
<!-- Node11&#45;&gt;Node14 -->
<g id="edge14" class="edge">
<title>Node11&#45;&gt;Node14</title>
<path fill="none" stroke="midnightblue" d="M287.3,-592.67C306.67,-602.52 332.97,-615.2 357,-624.5 362.13,-626.48 367.49,-628.41 372.9,-630.25"/>
<polygon fill="midnightblue" stroke="midnightblue" points="372.07,-633.66 382.67,-633.46 374.26,-627.01 372.07,-633.66"/>
</g>
<!-- Node15 -->
<g id="node15" class="node">
<title>Node15</title>
<g id="a_node15"><a xlink:href="classhgps_1_1Repository.html#ad11b424670ef4e0c3d93e999d86efa58" target="_top" xlink:title="Gets a disease information by identifier.">
<polygon fill="none" stroke="black" points="378,-584.5 378,-614.5 497,-614.5 497,-584.5 378,-584.5"/>
<text text-anchor="start" x="386" y="-602.5" font-family="Helvetica,sans-Serif" font-size="10.00">hgps::Repository::get</text>
<text text-anchor="middle" x="437.5" y="-591.5" font-family="Helvetica,sans-Serif" font-size="10.00">_disease_info</text>
</a>
</g>
</g>
<!-- Node11&#45;&gt;Node15 -->
<g id="edge15" class="edge">
<title>Node11&#45;&gt;Node15</title>
<path fill="none" stroke="midnightblue" d="M314.33,-584.4C331.21,-586.49 349.94,-588.8 367.56,-590.98"/>
<polygon fill="midnightblue" stroke="midnightblue" points="367.44,-594.49 377.79,-592.24 368.3,-587.54 367.44,-594.49"/>
</g>
<!-- Node16&#45;&gt;Node4 -->
<g id="edge19" class="edge">
<title>Node16&#45;&gt;Node4</title>
<path fill="none" stroke="midnightblue" d="M262.51,-338.67C272.38,-372.9 301.2,-456.4 357,-498.5 359.47,-500.36 362.09,-502.05 364.83,-503.57"/>
<polygon fill="midnightblue" stroke="midnightblue" points="363.36,-506.74 373.89,-507.89 366.38,-500.43 363.36,-506.74"/>
</g>
<!-- Node16&#45;&gt;Node7 -->
<g id="edge23" class="edge">
<title>Node16&#45;&gt;Node7</title>
<path fill="none" stroke="midnightblue" d="M264.93,-338.58C277.91,-367.13 310.05,-429 357,-460.5 360.07,-462.56 363.33,-464.39 366.72,-466.03"/>
<polygon fill="midnightblue" stroke="midnightblue" points="365.37,-469.26 375.95,-469.92 368.09,-462.81 365.37,-469.26"/>
</g>
<!-- Node16&#45;&gt;Node9 -->
<g id="edge24" class="edge">
<title>Node16&#45;&gt;Node9</title>
<path fill="none" stroke="midnightblue" d="M269.33,-338.85C285.7,-360.88 318.94,-401.15 357,-422.5 361.01,-424.75 365.27,-426.73 369.67,-428.48"/>
<polygon fill="midnightblue" stroke="midnightblue" points="368.84,-431.9 379.44,-431.95 371.19,-425.31 368.84,-431.9"/>
</g>
<!-- Node17 -->
<g id="node17" class="node">
<title>Node17</title>
<g id="a_node17"><a xlink:href="classhgps_1_1core_1_1Datastore.html#a478f1c3eca4cd2166eb77d7d6488a569" target="_top" xlink:title="Gets the population birth indicators for a country filtered by time.">
<polygon fill="none" stroke="black" points="377,-333.5 377,-363.5 498,-363.5 498,-333.5 377,-333.5"/>
<text text-anchor="start" x="385" y="-351.5" font-family="Helvetica,sans-Serif" font-size="10.00">hgps::core::Datastore</text>
<text text-anchor="middle" x="437.5" y="-340.5" font-family="Helvetica,sans-Serif" font-size="10.00">::get_birth_indicators</text>
</a>
</g>
</g>
<!-- Node16&#45;&gt;Node17 -->
<g id="edge20" class="edge">
<title>Node16&#45;&gt;Node17</title>
<path fill="none" stroke="midnightblue" d="M321.01,-332.28C335.74,-334.35 351.54,-336.57 366.57,-338.68"/>
<polygon fill="midnightblue" stroke="midnightblue" points="366.45,-342.2 376.84,-340.12 367.42,-335.26 366.45,-342.2"/>
</g>
<!-- Node18 -->
<g id="node18" class="node">
<title>Node18</title>
<g id="a_node18"><a xlink:href="classhgps_1_1core_1_1Datastore.html#a80544f7a15b4d8069e6013ad7df22c01" target="_top" xlink:title="Gets the population mortality trend for a country filtered by time.">
<polygon fill="none" stroke="black" points="377,-284.5 377,-314.5 498,-314.5 498,-284.5 377,-284.5"/>
<text text-anchor="start" x="385" y="-302.5" font-family="Helvetica,sans-Serif" font-size="10.00">hgps::core::Datastore</text>
<text text-anchor="middle" x="437.5" y="-291.5" font-family="Helvetica,sans-Serif" font-size="10.00">::get_mortality</text>
</a>
</g>
</g>
<!-- Node16&#45;&gt;Node18 -->
<g id="edge21" class="edge">
<title>Node16&#45;&gt;Node18</title>
<path fill="none" stroke="midnightblue" d="M321.01,-315.07C335.74,-313.09 351.54,-310.96 366.57,-308.93"/>
<polygon fill="midnightblue" stroke="midnightblue" points="367.39,-312.35 376.84,-307.54 366.46,-305.41 367.39,-312.35"/>
</g>
<!-- Node19 -->
<g id="node19" class="node">
<title>Node19</title>
<g id="a_node19"><a xlink:href="classhgps_1_1core_1_1Datastore.html#a18209be1995680018625c2276ad68853" target="_top" xlink:title="Gets the population growth trend for a country filtered by time.">
<polygon fill="none" stroke="black" points="377,-235.5 377,-265.5 498,-265.5 498,-235.5 377,-235.5"/>
<text text-anchor="start" x="385" y="-253.5" font-family="Helvetica,sans-Serif" font-size="10.00">hgps::core::Datastore</text>
<text text-anchor="middle" x="437.5" y="-242.5" font-family="Helvetica,sans-Serif" font-size="10.00">::get_population</text>
</a>
</g>
</g>
<!-- Node16&#45;&gt;Node19 -->
<g id="edge22" class="edge">
<title>Node16&#45;&gt;Node19</title>
<path fill="none" stroke="midnightblue" d="M286.45,-308.5C305.89,-298.4 332.61,-285.21 357,-275.5 362.82,-273.18 368.95,-270.93 375.11,-268.79"/>
<polygon fill="midnightblue" stroke="midnightblue" points="376.43,-272.04 384.79,-265.53 374.19,-265.41 376.43,-272.04"/>
</g>
<!-- Node20 -->
<g id="node20" class="node">
<title>Node20</title>
<g id="a_node20"><a xlink:href="classhgps_1_1ModelInput.html#a4e4bfd49abcbe8999f611d2235fcef4e" target="_top" xlink:title="Gets the experiment start time.">
<polygon fill="none" stroke="black" points="359,-197 359,-216 516,-216 516,-197 359,-197"/>
<text text-anchor="middle" x="437.5" y="-204" font-family="Helvetica,sans-Serif" font-size="10.00">hgps::ModelInput::start_time</text>
</a>
</g>
</g>
<!-- Node16&#45;&gt;Node20 -->
<g id="edge25" class="edge">
<title>Node16&#45;&gt;Node20</title>
<path fill="none" stroke="midnightblue" d="M269.71,-308.17C286.31,-286.59 319.55,-247.55 357,-226.5 361.81,-223.8 366.98,-221.46 372.3,-219.43"/>
<polygon fill="midnightblue" stroke="midnightblue" points="373.66,-222.66 381.98,-216.1 371.39,-216.04 373.66,-222.66"/>
</g>
<!-- Node21 -->
<g id="node21" class="node">
<title>Node21</title>
<g id="a_node21"><a xlink:href="classhgps_1_1ModelInput.html#a045b359f9876d85a9dadf8afd6c677c8" target="_top" xlink:title="Gets the experiment stop time.">
<polygon fill="none" stroke="black" points="360,-159 360,-178 515,-178 515,-159 360,-159"/>
<text text-anchor="middle" x="437.5" y="-166" font-family="Helvetica,sans-Serif" font-size="10.00">hgps::ModelInput::stop_time</text>
</a>
</g>
</g>
<!-- Node16&#45;&gt;Node21 -->
<g id="edge26" class="edge">
<title>Node16&#45;&gt;Node21</title>
<path fill="none" stroke="midnightblue" d="M265.17,-308.08C278.33,-279.55 310.47,-218.61 357,-187.5 360.07,-185.45 363.34,-183.62 366.73,-181.98"/>
<polygon fill="midnightblue" stroke="midnightblue" points="368.1,-185.2 375.96,-178.1 365.39,-178.75 368.1,-185.2"/>
</g>
<!-- Node23 -->
<g id="node23" class="node">
<title>Node23</title>
<g id="a_node23"><a xlink:href="classhgps_1_1Repository.html#a42dfd811aa4396e140a126b50d3e5c74" target="_top" xlink:title="Gets the user provided baseline risk factors adjustment dataset.">
<polygon fill="none" stroke="black" points="375.5,-99 375.5,-140 499.5,-140 499.5,-99 375.5,-99"/>
<text text-anchor="start" x="383.5" y="-128" font-family="Helvetica,sans-Serif" font-size="10.00">hgps::Repository::get</text>
<text text-anchor="start" x="383.5" y="-117" font-family="Helvetica,sans-Serif" font-size="10.00">_baseline_adjustment</text>
<text text-anchor="middle" x="437.5" y="-106" font-family="Helvetica,sans-Serif" font-size="10.00">_definition</text>
</a>
</g>
</g>
<!-- Node22&#45;&gt;Node23 -->
<g id="edge28" class="edge">
<title>Node22&#45;&gt;Node23</title>
<path fill="none" stroke="midnightblue" d="M321.01,-119.5C335.33,-119.5 350.66,-119.5 365.32,-119.5"/>
<polygon fill="midnightblue" stroke="midnightblue" points="365.34,-123 375.34,-119.5 365.34,-116 365.34,-123"/>
</g>
<!-- Node24 -->
<g id="node24" class="node">
<title>Node24</title>
<g id="a_node24"><a xlink:href="classhgps_1_1Repository.html#a092ba56e5003ed476a9f556e9df224bf" target="_top" xlink:title="Gets a user&#45;provided risk factor model definition.">
<polygon fill="none" stroke="black" points="357,-49.5 357,-79.5 518,-79.5 518,-49.5 357,-49.5"/>
<text text-anchor="start" x="365" y="-67.5" font-family="Helvetica,sans-Serif" font-size="10.00">hgps::Repository::get</text>
<text text-anchor="middle" x="437.5" y="-56.5" font-family="Helvetica,sans-Serif" font-size="10.00">_risk_factor_model_definition</text>
</a>
</g>
</g>
<!-- Node22&#45;&gt;Node24 -->
<g id="edge29" class="edge">
<title>Node22&#45;&gt;Node24</title>
<path fill="none" stroke="midnightblue" d="M307.14,-104.47C329.12,-97.68 355.26,-89.6 378.27,-82.49"/>
<polygon fill="midnightblue" stroke="midnightblue" points="379.4,-85.81 387.92,-79.51 377.33,-79.12 379.4,-85.81"/>
</g>
<!-- Node26 -->
<g id="node26" class="node">
<title>Node26</title>
<g id="a_node26"><a xlink:href="classhgps_1_1ModelInput.html#a63aa938279daec0fa272d867c257f5ae" target="_top" xlink:title="Gets the Socio&#45;economic status (SES) model information.">
<polygon fill="none" stroke="black" points="376,-0.5 376,-30.5 499,-30.5 499,-0.5 376,-0.5"/>
<text text-anchor="start" x="384" y="-18.5" font-family="Helvetica,sans-Serif" font-size="10.00">hgps::ModelInput::ses</text>
<text text-anchor="middle" x="437.5" y="-7.5" font-family="Helvetica,sans-Serif" font-size="10.00">_definition</text>
</a>
</g>
</g>
<!-- Node25&#45;&gt;Node26 -->
<g id="edge31" class="edge">
<title>Node25&#45;&gt;Node26</title>
<path fill="none" stroke="midnightblue" d="M319.26,-33.94C334.21,-31.59 350.35,-29.05 365.73,-26.63"/>
<polygon fill="midnightblue" stroke="midnightblue" points="366.38,-30.07 375.71,-25.06 365.29,-23.16 366.38,-30.07"/>
</g>
</g>
</svg>
