<?xml version="1.0" encoding="UTF-8" standalone="no"?>
<!DOCTYPE svg PUBLIC "-//W3C//DTD SVG 1.1//EN"
 "http://www.w3.org/Graphics/SVG/1.1/DTD/svg11.dtd">
<!-- Generated by graphviz version 2.43.0 (0)
 -->
<!-- Title: host::detail::parse_string_column Pages: 1 -->
<svg width="341pt" height="39pt"
 viewBox="0.00 0.00 341.00 39.00" xmlns="http://www.w3.org/2000/svg" xmlns:xlink="http://www.w3.org/1999/xlink">
<g id="graph0" class="graph" transform="scale(1 1) rotate(0) translate(4 35)">
<title>host::detail::parse_string_column</title>
<!-- Node1 -->
<g id="node1" class="node">
<title>Node1</title>
<g id="a_node1"><a xlink:title=" ">
<polygon fill="#bfbfbf" stroke="black" points="229,-0.5 229,-30.5 333,-30.5 333,-0.5 229,-0.5"/>
<text text-anchor="start" x="237" y="-18.5" font-family="Helvetica,sans-Serif" font-size="10.00">host::detail::parse</text>
<text text-anchor="middle" x="281" y="-7.5" font-family="Helvetica,sans-Serif" font-size="10.00">_string_column</text>
</a>
</g>
</g>
<!-- Node2 -->
<g id="node2" class="node">
<title>Node2</title>
<g id="a_node2"><a xlink:href="namespacehost.html#a186b46487783fb34e9ac1ce3d52778aa" target="_top" xlink:title="Populates a datatable with the input data file contents.">
<polygon fill="none" stroke="black" points="77,-0.5 77,-30.5 193,-30.5 193,-0.5 77,-0.5"/>
<text text-anchor="start" x="85" y="-18.5" font-family="Helvetica,sans-Serif" font-size="10.00">host::load_datatable</text>
<text text-anchor="middle" x="135" y="-7.5" font-family="Helvetica,sans-Serif" font-size="10.00">_from_csv</text>
</a>
</g>
</g>
<!-- Node1&#45;&gt;Node2 -->
<g id="edge1" class="edge">
<title>Node1&#45;&gt;Node2</title>
<path fill="none" stroke="midnightblue" d="M218.71,-15.5C210.31,-15.5 201.71,-15.5 193.38,-15.5"/>
<polygon fill="midnightblue" stroke="midnightblue" points="218.83,-19 228.83,-15.5 218.83,-12 218.83,-19"/>
</g>
<!-- Node3 -->
<g id="node3" class="node">
<title>Node3</title>
<g id="a_node3"><a xlink:href="program_8cpp.html#a0ddf1224851353fc92bfbff6f499fa97" target="_top" xlink:title="Health&#45;GPS host application entry point.">
<polygon fill="none" stroke="black" points="0,-6 0,-25 41,-25 41,-6 0,-6"/>
<text text-anchor="middle" x="20.5" y="-13" font-family="Helvetica,sans-Serif" font-size="10.00">main</text>
</a>
</g>
</g>
<!-- Node2&#45;&gt;Node3 -->
<g id="edge2" class="edge">
<title>Node2&#45;&gt;Node3</title>
<path fill="none" stroke="midnightblue" d="M66.62,-15.5C57.37,-15.5 48.55,-15.5 41.19,-15.5"/>
<polygon fill="midnightblue" stroke="midnightblue" points="66.76,-19 76.76,-15.5 66.76,-12 66.76,-19"/>
</g>
</g>
</svg>
