<?xml version="1.0" encoding="UTF-8" standalone="no"?>
<!DOCTYPE svg PUBLIC "-//W3C//DTD SVG 1.1//EN"
 "http://www.w3.org/Graphics/SVG/1.1/DTD/svg11.dtd">
<!-- Generated by graphviz version 2.43.0 (0)
 -->
<!-- Title: hgps::core::split_string Pages: 1 -->
<svg width="567pt" height="186pt"
 viewBox="0.00 0.00 567.00 186.00" xmlns="http://www.w3.org/2000/svg" xmlns:xlink="http://www.w3.org/1999/xlink">
<g id="graph0" class="graph" transform="scale(1 1) rotate(0) translate(4 182)">
<title>hgps::core::split_string</title>
<!-- Node1 -->
<g id="node1" class="node">
<title>Node1</title>
<g id="a_node1"><a xlink:title="Splits a string into substrings based on specified delimiting characters.">
<polygon fill="#bfbfbf" stroke="black" points="432,-79 432,-98 559,-98 559,-79 432,-79"/>
<text text-anchor="middle" x="495.5" y="-86" font-family="Helvetica,sans-Serif" font-size="10.00">hgps::core::split_string</text>
</a>
</g>
</g>
<!-- Node2 -->
<g id="node2" class="node">
<title>Node2</title>
<g id="a_node2"><a xlink:href="namespacehost.html#a863b7fcd46376d19914cb6635cd20764" target="_top" xlink:title="Loads the lite hierarchical linear regression model definition from a JSON file.">
<polygon fill="none" stroke="black" points="270,-147.5 270,-177.5 382,-177.5 382,-147.5 270,-147.5"/>
<text text-anchor="start" x="278" y="-165.5" font-family="Helvetica,sans-Serif" font-size="10.00">host::load_dynamic</text>
<text text-anchor="middle" x="326" y="-154.5" font-family="Helvetica,sans-Serif" font-size="10.00">_risk_model_info</text>
</a>
</g>
</g>
<!-- Node1&#45;&gt;Node2 -->
<g id="edge1" class="edge">
<title>Node1&#45;&gt;Node2</title>
<path fill="none" stroke="midnightblue" d="M468.48,-102.93C448.88,-113.49 421.17,-127.79 396,-138.5 388.65,-141.63 380.73,-144.67 372.98,-147.48"/>
<polygon fill="midnightblue" stroke="midnightblue" points="470.29,-105.93 477.4,-98.07 466.94,-99.78 470.29,-105.93"/>
</g>
<!-- Node5 -->
<g id="node5" class="node">
<title>Node5</title>
<g id="a_node5"><a xlink:href="namespacehgps_1_1core.html#a9d8aa7993d06d2d14aef83886eb21bc7" target="_top" xlink:title="Converts the string representation to its DoubleInterval equivalent.">
<polygon fill="none" stroke="black" points="257,-98.5 257,-128.5 395,-128.5 395,-98.5 257,-98.5"/>
<text text-anchor="start" x="265" y="-116.5" font-family="Helvetica,sans-Serif" font-size="10.00">hgps::core::parse_double</text>
<text text-anchor="middle" x="326" y="-105.5" font-family="Helvetica,sans-Serif" font-size="10.00">_interval</text>
</a>
</g>
</g>
<!-- Node1&#45;&gt;Node5 -->
<g id="edge4" class="edge">
<title>Node1&#45;&gt;Node5</title>
<path fill="none" stroke="midnightblue" d="M421.51,-99.39C412.78,-100.7 403.9,-102.02 395.25,-103.31"/>
<polygon fill="midnightblue" stroke="midnightblue" points="422.28,-102.82 431.65,-97.88 421.25,-95.89 422.28,-102.82"/>
</g>
<!-- Node6 -->
<g id="node6" class="node">
<title>Node6</title>
<g id="a_node6"><a xlink:href="namespacehgps_1_1core.html#a90c39901bf6eb0831ab8fd74e61905a3" target="_top" xlink:title="Converts the string representation to its FloatInterval equivalent.">
<polygon fill="none" stroke="black" points="262.5,-49.5 262.5,-79.5 389.5,-79.5 389.5,-49.5 262.5,-49.5"/>
<text text-anchor="start" x="270.5" y="-67.5" font-family="Helvetica,sans-Serif" font-size="10.00">hgps::core::parse_float</text>
<text text-anchor="middle" x="326" y="-56.5" font-family="Helvetica,sans-Serif" font-size="10.00">_interval</text>
</a>
</g>
</g>
<!-- Node1&#45;&gt;Node6 -->
<g id="edge5" class="edge">
<title>Node1&#45;&gt;Node6</title>
<path fill="none" stroke="midnightblue" d="M421.55,-78.05C410.92,-76.52 400.05,-74.97 389.64,-73.48"/>
<polygon fill="midnightblue" stroke="midnightblue" points="421.26,-81.54 431.65,-79.5 422.25,-74.61 421.26,-81.54"/>
</g>
<!-- Node7 -->
<g id="node7" class="node">
<title>Node7</title>
<g id="a_node7"><a xlink:href="namespacehgps_1_1core.html#aa84cb07d255b900f74637c98e1c1323f" target="_top" xlink:title="Converts the string representation to its IntegerInterval equivalent.">
<polygon fill="none" stroke="black" points="256,-0.5 256,-30.5 396,-30.5 396,-0.5 256,-0.5"/>
<text text-anchor="start" x="264" y="-18.5" font-family="Helvetica,sans-Serif" font-size="10.00">hgps::core::parse_integer</text>
<text text-anchor="middle" x="326" y="-7.5" font-family="Helvetica,sans-Serif" font-size="10.00">_interval</text>
</a>
</g>
</g>
<!-- Node1&#45;&gt;Node7 -->
<g id="edge6" class="edge">
<title>Node1&#45;&gt;Node7</title>
<path fill="none" stroke="midnightblue" d="M467.29,-74.28C447.71,-64.28 420.54,-50.89 396,-40.5 387.9,-37.07 379.16,-33.68 370.71,-30.54"/>
<polygon fill="midnightblue" stroke="midnightblue" points="465.76,-77.42 476.25,-78.89 468.96,-71.2 465.76,-77.42"/>
</g>
<!-- Node3 -->
<g id="node3" class="node">
<title>Node3</title>
<g id="a_node3"><a xlink:href="namespacehost.html#af872a17121b8dc250c7397fb6af921cf" target="_top" xlink:title="Registers a risk factor model definition with the repository.">
<polygon fill="none" stroke="black" points="77,-147.5 77,-177.5 220,-177.5 220,-147.5 77,-147.5"/>
<text text-anchor="start" x="85" y="-165.5" font-family="Helvetica,sans-Serif" font-size="10.00">host::register_risk</text>
<text text-anchor="middle" x="148.5" y="-154.5" font-family="Helvetica,sans-Serif" font-size="10.00">_factor_model_definitions</text>
</a>
</g>
</g>
<!-- Node2&#45;&gt;Node3 -->
<g id="edge2" class="edge">
<title>Node2&#45;&gt;Node3</title>
<path fill="none" stroke="midnightblue" d="M259.77,-162.5C246.85,-162.5 233.24,-162.5 220.16,-162.5"/>
<polygon fill="midnightblue" stroke="midnightblue" points="259.95,-166 269.95,-162.5 259.95,-159 259.95,-166"/>
</g>
<!-- Node4 -->
<g id="node4" class="node">
<title>Node4</title>
<g id="a_node4"><a xlink:href="program_8cpp.html#a0ddf1224851353fc92bfbff6f499fa97" target="_top" xlink:title="Health&#45;GPS host application entry point.">
<polygon fill="none" stroke="black" points="0,-153 0,-172 41,-172 41,-153 0,-153"/>
<text text-anchor="middle" x="20.5" y="-160" font-family="Helvetica,sans-Serif" font-size="10.00">main</text>
</a>
</g>
</g>
<!-- Node3&#45;&gt;Node4 -->
<g id="edge3" class="edge">
<title>Node3&#45;&gt;Node4</title>
<path fill="none" stroke="midnightblue" d="M66.74,-162.5C57.29,-162.5 48.42,-162.5 41.08,-162.5"/>
<polygon fill="midnightblue" stroke="midnightblue" points="66.77,-166 76.77,-162.5 66.77,-159 66.77,-166"/>
</g>
</g>
</svg>
