<?xml version="1.0" encoding="UTF-8" standalone="no"?>
<!DOCTYPE svg PUBLIC "-//W3C//DTD SVG 1.1//EN"
 "http://www.w3.org/Graphics/SVG/1.1/DTD/svg11.dtd">
<!-- Generated by graphviz version 2.43.0 (0)
 -->
<!-- Title: host::expand_environment_variables Pages: 1 -->
<svg width="549pt" height="78pt"
 viewBox="0.00 0.00 549.00 77.50" xmlns="http://www.w3.org/2000/svg" xmlns:xlink="http://www.w3.org/1999/xlink">
<g id="graph0" class="graph" transform="scale(1 1) rotate(0) translate(4 73.5)">
<title>host::expand_environment_variables</title>
<!-- Node1 -->
<g id="node1" class="node">
<title>Node1</title>
<g id="a_node1"><a xlink:title="Expand environment variables in path to respective values.">
<polygon fill="#bfbfbf" stroke="black" points="394,-17 394,-47 541,-47 541,-17 394,-17"/>
<text text-anchor="start" x="402" y="-35" font-family="Helvetica,sans-Serif" font-size="10.00">host::expand_environment</text>
<text text-anchor="middle" x="467.5" y="-24" font-family="Helvetica,sans-Serif" font-size="10.00">_variables</text>
</a>
</g>
</g>
<!-- Node2 -->
<g id="node2" class="node">
<title>Node2</title>
<g id="a_node2"><a xlink:href="namespacehost.html#a009475c30ce55d73b02a78b212742e39" target="_top" xlink:title="Creates the full output file name from user input configuration.">
<polygon fill="none" stroke="black" points="247,-39 247,-69 358,-69 358,-39 247,-39"/>
<text text-anchor="start" x="255" y="-57" font-family="Helvetica,sans-Serif" font-size="10.00">host::create_output</text>
<text text-anchor="middle" x="302.5" y="-46" font-family="Helvetica,sans-Serif" font-size="10.00">_file_name</text>
</a>
</g>
</g>
<!-- Node1&#45;&gt;Node2 -->
<g id="edge1" class="edge">
<title>Node1&#45;&gt;Node2</title>
<path fill="none" stroke="midnightblue" d="M383.53,-43.2C374.96,-44.35 366.41,-45.51 358.27,-46.61"/>
<polygon fill="midnightblue" stroke="midnightblue" points="384.14,-46.65 393.58,-41.84 383.2,-39.71 384.14,-46.65"/>
</g>
<!-- Node5 -->
<g id="node5" class="node">
<title>Node5</title>
<g id="a_node5"><a xlink:href="namespacehost.html#af79a5d1675d5305364c34cc2f44541e7" target="_top" xlink:title="Loads the input configuration file, *.json, information.">
<polygon fill="none" stroke="black" points="77,-0.5 77,-19.5 211,-19.5 211,-0.5 77,-0.5"/>
<text text-anchor="middle" x="144" y="-7.5" font-family="Helvetica,sans-Serif" font-size="10.00">host::load_configuration</text>
</a>
</g>
</g>
<!-- Node1&#45;&gt;Node5 -->
<g id="edge4" class="edge">
<title>Node1&#45;&gt;Node5</title>
<path fill="none" stroke="midnightblue" d="M383.78,-26.34C330.17,-22.67 261.27,-17.96 211.27,-14.53"/>
<polygon fill="midnightblue" stroke="midnightblue" points="383.73,-29.84 393.95,-27.04 384.21,-22.86 383.73,-29.84"/>
</g>
<!-- Node3 -->
<g id="node3" class="node">
<title>Node3</title>
<g id="a_node3"><a xlink:href="namespacehost.html#a07367da68854f50923957b8f86a7bc4c" target="_top" xlink:title="Creates the simulation results file logger instance.">
<polygon fill="none" stroke="black" points="87.5,-39 87.5,-69 200.5,-69 200.5,-39 87.5,-39"/>
<text text-anchor="start" x="95.5" y="-57" font-family="Helvetica,sans-Serif" font-size="10.00">host::create_results</text>
<text text-anchor="middle" x="144" y="-46" font-family="Helvetica,sans-Serif" font-size="10.00">_file_logger</text>
</a>
</g>
</g>
<!-- Node2&#45;&gt;Node3 -->
<g id="edge2" class="edge">
<title>Node2&#45;&gt;Node3</title>
<path fill="none" stroke="midnightblue" d="M236.47,-54C224.61,-54 212.33,-54 200.76,-54"/>
<polygon fill="midnightblue" stroke="midnightblue" points="236.76,-57.5 246.76,-54 236.76,-50.5 236.76,-57.5"/>
</g>
<!-- Node4 -->
<g id="node4" class="node">
<title>Node4</title>
<g id="a_node4"><a xlink:href="program_8cpp.html#a0ddf1224851353fc92bfbff6f499fa97" target="_top" xlink:title="Health&#45;GPS host application entry point.">
<polygon fill="none" stroke="black" points="0,-22.5 0,-41.5 41,-41.5 41,-22.5 0,-22.5"/>
<text text-anchor="middle" x="20.5" y="-29.5" font-family="Helvetica,sans-Serif" font-size="10.00">main</text>
</a>
</g>
</g>
<!-- Node3&#45;&gt;Node4 -->
<g id="edge3" class="edge">
<title>Node3&#45;&gt;Node4</title>
<path fill="none" stroke="midnightblue" d="M77.17,-42.08C64.05,-39.7 51.25,-37.39 41.23,-35.57"/>
<polygon fill="midnightblue" stroke="midnightblue" points="76.76,-45.56 87.23,-43.9 78.01,-38.68 76.76,-45.56"/>
</g>
<!-- Node5&#45;&gt;Node4 -->
<g id="edge5" class="edge">
<title>Node5&#45;&gt;Node4</title>
<path fill="none" stroke="midnightblue" d="M80.54,-21.31C66.26,-23.9 52.1,-26.46 41.23,-28.43"/>
<polygon fill="midnightblue" stroke="midnightblue" points="81.2,-24.75 90.41,-19.52 79.95,-17.86 81.2,-24.75"/>
</g>
</g>
</svg>
