<?xml version="1.0" encoding="UTF-8" standalone="no"?>
<!DOCTYPE svg PUBLIC "-//W3C//DTD SVG 1.1//EN"
 "http://www.w3.org/Graphics/SVG/1.1/DTD/svg11.dtd">
<!-- Generated by graphviz version 2.43.0 (0)
 -->
<!-- Title: host::create_intervention_scenario Pages: 1 -->
<svg width="477pt" height="61pt"
 viewBox="0.00 0.00 477.00 61.00" xmlns="http://www.w3.org/2000/svg" xmlns:xlink="http://www.w3.org/1999/xlink">
<g id="graph0" class="graph" transform="scale(1 1) rotate(0) translate(4 57)">
<title>host::create_intervention_scenario</title>
<!-- Node1 -->
<g id="node1" class="node">
<title>Node1</title>
<g id="a_node1"><a xlink:title="Creates the intervention scenario instance.">
<polygon fill="#bfbfbf" stroke="black" points="0,-22.5 0,-52.5 139,-52.5 139,-22.5 0,-22.5"/>
<text text-anchor="start" x="8" y="-40.5" font-family="Helvetica,sans-Serif" font-size="10.00">host::create_intervention</text>
<text text-anchor="middle" x="69.5" y="-29.5" font-family="Helvetica,sans-Serif" font-size="10.00">_scenario</text>
</a>
</g>
</g>
<!-- Node2 -->
<g id="node2" class="node">
<title>Node2</title>
<g id="a_node2"><a xlink:href="structhgps_1_1core_1_1case__insensitive.html#a7c3f04e32aa1d7a41ef339443139b5c0" target="_top" xlink:title="Compare two case&#45;insensitive ASCII string for equality.">
<polygon fill="none" stroke="black" points="315,-22.5 315,-52.5 469,-52.5 469,-22.5 315,-22.5"/>
<text text-anchor="start" x="323" y="-40.5" font-family="Helvetica,sans-Serif" font-size="10.00">hgps::core::case_insensitive</text>
<text text-anchor="middle" x="392" y="-29.5" font-family="Helvetica,sans-Serif" font-size="10.00">::equals</text>
</a>
</g>
</g>
<!-- Node1&#45;&gt;Node2 -->
<g id="edge1" class="edge">
<title>Node1&#45;&gt;Node2</title>
<path fill="none" stroke="midnightblue" d="M139.07,-39.75C151.05,-40.06 163.39,-40.33 175,-40.5 221.22,-41.16 232.78,-41.12 279,-40.5 287.32,-40.39 295.98,-40.23 304.65,-40.04"/>
<polygon fill="midnightblue" stroke="midnightblue" points="304.87,-43.54 314.79,-39.82 304.72,-36.54 304.87,-43.54"/>
</g>
<!-- Node3 -->
<g id="node3" class="node">
<title>Node3</title>
<g id="a_node3"><a xlink:href="namespacehgps.html#adf9e6a1bb7098d2f9a2fd6c49d575fe1" target="_top" xlink:title=" ">
<polygon fill="none" stroke="black" points="175,-0.5 175,-30.5 279,-30.5 279,-0.5 175,-0.5"/>
<text text-anchor="start" x="183" y="-18.5" font-family="Helvetica,sans-Serif" font-size="10.00">hgps::parse_fiscal</text>
<text text-anchor="middle" x="227" y="-7.5" font-family="Helvetica,sans-Serif" font-size="10.00">_impact_type</text>
</a>
</g>
</g>
<!-- Node1&#45;&gt;Node3 -->
<g id="edge2" class="edge">
<title>Node1&#45;&gt;Node3</title>
<path fill="none" stroke="midnightblue" d="M139.16,-27.79C147.72,-26.58 156.43,-25.34 164.86,-24.15"/>
<polygon fill="midnightblue" stroke="midnightblue" points="165.58,-27.58 174.99,-22.72 164.6,-20.65 165.58,-27.58"/>
</g>
<!-- Node3&#45;&gt;Node2 -->
<g id="edge3" class="edge">
<title>Node3&#45;&gt;Node2</title>
<path fill="none" stroke="midnightblue" d="M279.13,-22.4C287.4,-23.52 296.17,-24.7 305,-25.89"/>
<polygon fill="midnightblue" stroke="midnightblue" points="304.6,-29.37 314.98,-27.24 305.54,-22.43 304.6,-29.37"/>
</g>
</g>
</svg>
