<?xml version="1.0" encoding="UTF-8" standalone="no"?>
<!DOCTYPE svg PUBLIC "-//W3C//DTD SVG 1.1//EN"
 "http://www.w3.org/Graphics/SVG/1.1/DTD/svg11.dtd">
<!-- Generated by graphviz version 2.43.0 (0)
 -->
<!-- Title: host::create_intervention_simulation Pages: 1 -->
<svg width="652pt" height="61pt"
 viewBox="0.00 0.00 652.00 61.00" xmlns="http://www.w3.org/2000/svg" xmlns:xlink="http://www.w3.org/1999/xlink">
<g id="graph0" class="graph" transform="scale(1 1) rotate(0) translate(4 57)">
<title>host::create_intervention_simulation</title>
<!-- Node1 -->
<g id="node1" class="node">
<title>Node1</title>
<g id="a_node1"><a xlink:title="Creates the intervention simulation engine instance.">
<polygon fill="#bfbfbf" stroke="black" points="0,-22.5 0,-52.5 139,-52.5 139,-22.5 0,-22.5"/>
<text text-anchor="start" x="8" y="-40.5" font-family="Helvetica,sans-Serif" font-size="10.00">host::create_intervention</text>
<text text-anchor="middle" x="69.5" y="-29.5" font-family="Helvetica,sans-Serif" font-size="10.00">_simulation</text>
</a>
</g>
</g>
<!-- Node2 -->
<g id="node2" class="node">
<title>Node2</title>
<g id="a_node2"><a xlink:href="namespacehost.html#a4552f895418d563b0dac59718d48b4d8" target="_top" xlink:title="Creates the intervention scenario instance.">
<polygon fill="none" stroke="black" points="175,-22.5 175,-52.5 314,-52.5 314,-22.5 175,-22.5"/>
<text text-anchor="start" x="183" y="-40.5" font-family="Helvetica,sans-Serif" font-size="10.00">host::create_intervention</text>
<text text-anchor="middle" x="244.5" y="-29.5" font-family="Helvetica,sans-Serif" font-size="10.00">_scenario</text>
</a>
</g>
</g>
<!-- Node1&#45;&gt;Node2 -->
<g id="edge1" class="edge">
<title>Node1&#45;&gt;Node2</title>
<path fill="none" stroke="midnightblue" d="M139.37,-37.5C147.68,-37.5 156.21,-37.5 164.65,-37.5"/>
<polygon fill="midnightblue" stroke="midnightblue" points="164.87,-41 174.87,-37.5 164.87,-34 164.87,-41"/>
</g>
<!-- Node3 -->
<g id="node3" class="node">
<title>Node3</title>
<g id="a_node3"><a xlink:href="structhgps_1_1core_1_1case__insensitive.html#a7c3f04e32aa1d7a41ef339443139b5c0" target="_top" xlink:title="Compare two case&#45;insensitive ASCII string for equality.">
<polygon fill="none" stroke="black" points="490,-22.5 490,-52.5 644,-52.5 644,-22.5 490,-22.5"/>
<text text-anchor="start" x="498" y="-40.5" font-family="Helvetica,sans-Serif" font-size="10.00">hgps::core::case_insensitive</text>
<text text-anchor="middle" x="567" y="-29.5" font-family="Helvetica,sans-Serif" font-size="10.00">::equals</text>
</a>
</g>
</g>
<!-- Node2&#45;&gt;Node3 -->
<g id="edge2" class="edge">
<title>Node2&#45;&gt;Node3</title>
<path fill="none" stroke="midnightblue" d="M314.07,-39.75C326.05,-40.06 338.39,-40.33 350,-40.5 396.22,-41.16 407.78,-41.12 454,-40.5 462.32,-40.39 470.98,-40.23 479.65,-40.04"/>
<polygon fill="midnightblue" stroke="midnightblue" points="479.87,-43.54 489.79,-39.82 479.72,-36.54 479.87,-43.54"/>
</g>
<!-- Node4 -->
<g id="node4" class="node">
<title>Node4</title>
<g id="a_node4"><a xlink:href="namespacehgps.html#adf9e6a1bb7098d2f9a2fd6c49d575fe1" target="_top" xlink:title=" ">
<polygon fill="none" stroke="black" points="350,-0.5 350,-30.5 454,-30.5 454,-0.5 350,-0.5"/>
<text text-anchor="start" x="358" y="-18.5" font-family="Helvetica,sans-Serif" font-size="10.00">hgps::parse_fiscal</text>
<text text-anchor="middle" x="402" y="-7.5" font-family="Helvetica,sans-Serif" font-size="10.00">_impact_type</text>
</a>
</g>
</g>
<!-- Node2&#45;&gt;Node4 -->
<g id="edge3" class="edge">
<title>Node2&#45;&gt;Node4</title>
<path fill="none" stroke="midnightblue" d="M314.16,-27.79C322.72,-26.58 331.43,-25.34 339.86,-24.15"/>
<polygon fill="midnightblue" stroke="midnightblue" points="340.58,-27.58 349.99,-22.72 339.6,-20.65 340.58,-27.58"/>
</g>
<!-- Node4&#45;&gt;Node3 -->
<g id="edge4" class="edge">
<title>Node4&#45;&gt;Node3</title>
<path fill="none" stroke="midnightblue" d="M454.13,-22.4C462.4,-23.52 471.17,-24.7 480,-25.89"/>
<polygon fill="midnightblue" stroke="midnightblue" points="479.6,-29.37 489.98,-27.24 480.54,-22.43 479.6,-29.37"/>
</g>
</g>
</svg>
