<?xml version="1.0" encoding="UTF-8" standalone="no"?>
<!DOCTYPE svg PUBLIC "-//W3C//DTD SVG 1.1//EN"
 "http://www.w3.org/Graphics/SVG/1.1/DTD/svg11.dtd">
<!-- Generated by graphviz version 2.43.0 (0)
 -->
<!-- Title: hgps::build_analysis_module Pages: 1 -->
<svg width="313pt" height="340pt"
 viewBox="0.00 0.00 313.00 340.00" xmlns="http://www.w3.org/2000/svg" xmlns:xlink="http://www.w3.org/1999/xlink">
<g id="graph0" class="graph" transform="scale(1 1) rotate(0) translate(4 336)">
<title>hgps::build_analysis_module</title>
<!-- Node1 -->
<g id="node1" class="node">
<title>Node1</title>
<g id="a_node1"><a xlink:title="Builds a new instance of the AnalysisModule using the given data infrastructure.">
<polygon fill="#bfbfbf" stroke="black" points="0,-142.5 0,-172.5 116,-172.5 116,-142.5 0,-142.5"/>
<text text-anchor="start" x="8" y="-160.5" font-family="Helvetica,sans-Serif" font-size="10.00">hgps::build_analysis</text>
<text text-anchor="middle" x="58" y="-149.5" font-family="Helvetica,sans-Serif" font-size="10.00">_module</text>
</a>
</g>
</g>
<!-- Node2 -->
<g id="node2" class="node">
<title>Node2</title>
<g id="a_node2"><a xlink:href="classhgps_1_1Settings.html#a317e5711c6337e4ed6644edf7849988e" target="_top" xlink:title="The experiment population age range constraint.">
<polygon fill="none" stroke="black" points="173.5,-301.5 173.5,-331.5 283.5,-331.5 283.5,-301.5 173.5,-301.5"/>
<text text-anchor="start" x="181.5" y="-319.5" font-family="Helvetica,sans-Serif" font-size="10.00">hgps::Settings::age</text>
<text text-anchor="middle" x="228.5" y="-308.5" font-family="Helvetica,sans-Serif" font-size="10.00">_range</text>
</a>
</g>
</g>
<!-- Node1&#45;&gt;Node2 -->
<g id="edge1" class="edge">
<title>Node1&#45;&gt;Node2</title>
<path fill="none" stroke="midnightblue" d="M65.56,-172.77C78.23,-200.46 108.68,-259.12 152,-291.5 155.81,-294.35 159.96,-296.88 164.29,-299.13"/>
<polygon fill="midnightblue" stroke="midnightblue" points="162.84,-302.32 173.38,-303.37 165.8,-295.97 162.84,-302.32"/>
</g>
<!-- Node3 -->
<g id="node3" class="node">
<title>Node3</title>
<g id="a_node3"><a xlink:href="classhgps_1_1Settings.html#a4538c7a82ccecddb077b8283bb7735f7" target="_top" xlink:title="Gets the experiment target country information.">
<polygon fill="none" stroke="black" points="164.5,-263 164.5,-282 292.5,-282 292.5,-263 164.5,-263"/>
<text text-anchor="middle" x="228.5" y="-270" font-family="Helvetica,sans-Serif" font-size="10.00">hgps::Settings::country</text>
</a>
</g>
</g>
<!-- Node1&#45;&gt;Node3 -->
<g id="edge2" class="edge">
<title>Node1&#45;&gt;Node3</title>
<path fill="none" stroke="midnightblue" d="M69.42,-172.69C84.9,-194.06 116.03,-232.72 152,-253.5 155.86,-255.73 159.97,-257.7 164.21,-259.44"/>
<polygon fill="midnightblue" stroke="midnightblue" points="163.06,-262.74 173.66,-262.89 165.47,-256.17 163.06,-262.74"/>
</g>
<!-- Node4 -->
<g id="node4" class="node">
<title>Node4</title>
<g id="a_node4"><a xlink:href="classhgps_1_1core_1_1Datastore.html#ac22a342da438569f5b97c5c0540e628f" target="_top" xlink:title="Gets the Burden of Diseases (BoD) analysis dataset for a country.">
<polygon fill="none" stroke="black" points="165,-213.5 165,-243.5 292,-243.5 292,-213.5 165,-213.5"/>
<text text-anchor="start" x="173" y="-231.5" font-family="Helvetica,sans-Serif" font-size="10.00">hgps::core::Datastore</text>
<text text-anchor="middle" x="228.5" y="-220.5" font-family="Helvetica,sans-Serif" font-size="10.00">::get_disease_analysis</text>
</a>
</g>
</g>
<!-- Node1&#45;&gt;Node4 -->
<g id="edge3" class="edge">
<title>Node1&#45;&gt;Node4</title>
<path fill="none" stroke="midnightblue" d="M86.13,-172.67C104.4,-182.51 129.22,-195.19 152,-204.5 156.73,-206.43 161.68,-208.31 166.69,-210.11"/>
<polygon fill="midnightblue" stroke="midnightblue" points="165.74,-213.49 176.34,-213.46 168.04,-206.87 165.74,-213.49"/>
</g>
<!-- Node5 -->
<g id="node5" class="node">
<title>Node5</title>
<g id="a_node5"><a xlink:href="classhgps_1_1Repository.html#a480bc36a0f3c2ec07daabf862c0b0667" target="_top" xlink:title="Gets the LMS (lambda&#45;mu&#45;sigma) definition.">
<polygon fill="none" stroke="black" points="169,-164.5 169,-194.5 288,-194.5 288,-164.5 169,-164.5"/>
<text text-anchor="start" x="177" y="-182.5" font-family="Helvetica,sans-Serif" font-size="10.00">hgps::Repository::get</text>
<text text-anchor="middle" x="228.5" y="-171.5" font-family="Helvetica,sans-Serif" font-size="10.00">_lms_definition</text>
</a>
</g>
</g>
<!-- Node1&#45;&gt;Node5 -->
<g id="edge4" class="edge">
<title>Node1&#45;&gt;Node5</title>
<path fill="none" stroke="midnightblue" d="M116.05,-164.95C129.72,-166.73 144.47,-168.66 158.62,-170.51"/>
<polygon fill="midnightblue" stroke="midnightblue" points="158.42,-174.01 168.79,-171.83 159.33,-167.07 158.42,-174.01"/>
</g>
<!-- Node6 -->
<g id="node6" class="node">
<title>Node6</title>
<g id="a_node6"><a xlink:href="classhgps_1_1Repository.html#acf292f7951f2391e72305f7f1694659b" target="_top" xlink:title="Gets a reference to the back&#45;end storage instance.">
<polygon fill="none" stroke="black" points="155,-126 155,-145 302,-145 302,-126 155,-126"/>
<text text-anchor="middle" x="228.5" y="-133" font-family="Helvetica,sans-Serif" font-size="10.00">hgps::Repository::manager</text>
</a>
</g>
</g>
<!-- Node1&#45;&gt;Node6 -->
<g id="edge5" class="edge">
<title>Node1&#45;&gt;Node6</title>
<path fill="none" stroke="midnightblue" d="M116.05,-150.05C125.33,-148.84 135.11,-147.56 144.85,-146.29"/>
<polygon fill="midnightblue" stroke="midnightblue" points="145.52,-149.73 154.98,-144.97 144.61,-142.79 145.52,-149.73"/>
</g>
<!-- Node7 -->
<g id="node7" class="node">
<title>Node7</title>
<g id="a_node7"><a xlink:href="classhgps_1_1ModelInput.html#abd88dd970c41908601acde18d5d69b8e" target="_top" xlink:title="Gets the simulation run information.">
<polygon fill="none" stroke="black" points="167.5,-88 167.5,-107 289.5,-107 289.5,-88 167.5,-88"/>
<text text-anchor="middle" x="228.5" y="-95" font-family="Helvetica,sans-Serif" font-size="10.00">hgps::ModelInput::run</text>
</a>
</g>
</g>
<!-- Node1&#45;&gt;Node7 -->
<g id="edge6" class="edge">
<title>Node1&#45;&gt;Node7</title>
<path fill="none" stroke="midnightblue" d="M89.9,-142.31C107.75,-133.93 130.81,-123.78 152,-116.5 159.2,-114.03 166.89,-111.72 174.5,-109.63"/>
<polygon fill="midnightblue" stroke="midnightblue" points="175.64,-112.95 184.41,-107.01 173.85,-106.18 175.64,-112.95"/>
</g>
<!-- Node8 -->
<g id="node8" class="node">
<title>Node8</title>
<g id="a_node8"><a xlink:href="classhgps_1_1ModelInput.html#acf1b179fa0b7c3d06dd928584efd8fd3" target="_top" xlink:title="Gets the simulation experiment settings definition.">
<polygon fill="none" stroke="black" points="155.5,-50 155.5,-69 301.5,-69 301.5,-50 155.5,-50"/>
<text text-anchor="middle" x="228.5" y="-57" font-family="Helvetica,sans-Serif" font-size="10.00">hgps::ModelInput::settings</text>
</a>
</g>
</g>
<!-- Node1&#45;&gt;Node8 -->
<g id="edge7" class="edge">
<title>Node1&#45;&gt;Node8</title>
<path fill="none" stroke="midnightblue" d="M72.59,-142.32C89.47,-124.41 119.98,-94.98 152,-78.5 156.54,-76.16 161.39,-74.1 166.35,-72.29"/>
<polygon fill="midnightblue" stroke="midnightblue" points="167.59,-75.56 175.98,-69.09 165.38,-68.92 167.59,-75.56"/>
</g>
<!-- Node9 -->
<g id="node9" class="node">
<title>Node9</title>
<g id="a_node9"><a xlink:href="classhgps_1_1detail_1_1StoreConverter.html#a6453f9feb5c024128ad6846f5ba04984" target="_top" xlink:title=" ">
<polygon fill="none" stroke="black" points="152,-0.5 152,-30.5 305,-30.5 305,-0.5 152,-0.5"/>
<text text-anchor="start" x="160" y="-18.5" font-family="Helvetica,sans-Serif" font-size="10.00">hgps::detail::StoreConverter</text>
<text text-anchor="middle" x="228.5" y="-7.5" font-family="Helvetica,sans-Serif" font-size="10.00">::to_analysis_definition</text>
</a>
</g>
</g>
<!-- Node1&#45;&gt;Node9 -->
<g id="edge8" class="edge">
<title>Node1&#45;&gt;Node9</title>
<path fill="none" stroke="midnightblue" d="M67.18,-142.24C81.26,-117.37 112.43,-68.13 152,-40.5 154.86,-38.5 157.89,-36.66 161.03,-34.95"/>
<polygon fill="midnightblue" stroke="midnightblue" points="162.67,-38.04 170.12,-30.51 159.6,-31.76 162.67,-38.04"/>
</g>
</g>
</svg>
