<?xml version="1.0" encoding="UTF-8" standalone="no"?>
<!DOCTYPE svg PUBLIC "-//W3C//DTD SVG 1.1//EN"
 "http://www.w3.org/Graphics/SVG/1.1/DTD/svg11.dtd">
<!-- Generated by graphviz version 7.0.6 (20230106.0513)
 -->
<!-- Title: hgps::make_finally Pages: 1 -->
<svg width="262pt" height="45pt"
 viewBox="0.00 0.00 262.00 45.00" xmlns="http://www.w3.org/2000/svg" xmlns:xlink="http://www.w3.org/1999/xlink">
<g id="graph0" class="graph" transform="scale(1 1) rotate(0) translate(4 41)">
<title>hgps::make_finally</title>
<!-- Node1 -->
<g id="node1" class="node">
<title>Node1</title>
<g id="a_node1"><a xlink:title=" ">
<polygon fill="#999999" stroke="#666666" points="254,-19 156,-19 156,0 254,0 254,-19"/>
<text text-anchor="middle" x="205" y="-7" font-family="Helvetica,sans-Serif" font-size="10.00">hgps::make_finally</text>
</a>
</g>
</g>
<!-- Node2 -->
<g id="node2" class="node">
<title>Node2</title>
<g id="a_node2"><a xlink:href="classhgps_1_1_model_runner.html#a7cff7c405b8ceaeadcbe2091e1f88375" target="_top" xlink:title=" ">
<polygon fill="white" stroke="#666666" points="120,-19 0,-19 0,0 120,0 120,-19"/>
<text text-anchor="middle" x="60" y="-7" font-family="Helvetica,sans-Serif" font-size="10.00">hgps::ModelRunner::run</text>
</a>
</g>
</g>
<!-- Node1&#45;&gt;Node2 -->
<g id="edge1" class="edge">
<title>Node1&#45;&gt;Node2</title>
<path fill="none" stroke="#63b8ff" d="M144.19,-9.5C136.28,-9.5 128.17,-9.5 120.27,-9.5"/>
<polygon fill="#63b8ff" stroke="#63b8ff" points="144.07,-13 154.07,-9.5 144.07,-6 144.07,-13"/>
</g>
<!-- Node2&#45;&gt;Node2 -->
<g id="edge2" class="edge">
<title>Node2&#45;&gt;Node2</title>
<path fill="none" stroke="#63b8ff" d="M85.74,-30.43C82.52,-34.29 73.94,-37 60,-37 34.51,-37 26.94,-27.94 37.3,-19.37"/>
<polygon fill="#63b8ff" stroke="#63b8ff" points="89.12,-29.54 83.1,-20.83 82.37,-31.4 89.12,-29.54"/>
</g>
</g>
</svg>
