<?xml version="1.0" encoding="UTF-8" standalone="no"?>
<!DOCTYPE svg PUBLIC "-//W3C//DTD SVG 1.1//EN"
 "http://www.w3.org/Graphics/SVG/1.1/DTD/svg11.dtd">
<!-- Generated by graphviz version 2.43.0 (0)
 -->
<!-- Title: hgps::detail::create_relative_risk Pages: 1 -->
<svg width="686pt" height="88pt"
 viewBox="0.00 0.00 686.00 88.00" xmlns="http://www.w3.org/2000/svg" xmlns:xlink="http://www.w3.org/1999/xlink">
<g id="graph0" class="graph" transform="scale(1 1) rotate(0) translate(4 84)">
<title>hgps::detail::create_relative_risk</title>
<!-- Node1 -->
<g id="node1" class="node">
<title>Node1</title>
<g id="a_node1"><a xlink:title=" ">
<polygon fill="#bfbfbf" stroke="black" points="0,-24.5 0,-54.5 110,-54.5 110,-24.5 0,-24.5"/>
<text text-anchor="start" x="8" y="-42.5" font-family="Helvetica,sans-Serif" font-size="10.00">hgps::detail::create</text>
<text text-anchor="middle" x="55" y="-31.5" font-family="Helvetica,sans-Serif" font-size="10.00">_relative_risk</text>
</a>
</g>
</g>
<!-- Node2 -->
<g id="node2" class="node">
<title>Node2</title>
<g id="a_node2"><a xlink:href="classhgps_1_1detail_1_1StoreConverter.html#a5dff97954a34bfaeefcd4a85ff553038" target="_top" xlink:title=" ">
<polygon fill="none" stroke="black" points="146,-49.5 146,-79.5 299,-79.5 299,-49.5 146,-49.5"/>
<text text-anchor="start" x="154" y="-67.5" font-family="Helvetica,sans-Serif" font-size="10.00">hgps::detail::StoreConverter</text>
<text text-anchor="middle" x="222.5" y="-56.5" font-family="Helvetica,sans-Serif" font-size="10.00">::to_relative_risk_lookup</text>
</a>
</g>
</g>
<!-- Node1&#45;&gt;Node2 -->
<g id="edge1" class="edge">
<title>Node1&#45;&gt;Node2</title>
<path fill="none" stroke="midnightblue" d="M110.19,-47.69C118.48,-48.94 127.2,-50.26 135.97,-51.58"/>
<polygon fill="midnightblue" stroke="midnightblue" points="135.45,-55.04 145.86,-53.07 136.49,-48.12 135.45,-55.04"/>
</g>
<!-- Node3 -->
<g id="node3" class="node">
<title>Node3</title>
<g id="a_node3"><a xlink:href="classhgps_1_1detail_1_1StoreConverter.html#ab84ed9dfdfc47787731e596e99daa19d" target="_top" xlink:title=" ">
<polygon fill="none" stroke="black" points="146,-0.5 146,-30.5 299,-30.5 299,-0.5 146,-0.5"/>
<text text-anchor="start" x="154" y="-18.5" font-family="Helvetica,sans-Serif" font-size="10.00">hgps::detail::StoreConverter</text>
<text text-anchor="middle" x="222.5" y="-7.5" font-family="Helvetica,sans-Serif" font-size="10.00">::to_relative_risk_table</text>
</a>
</g>
</g>
<!-- Node1&#45;&gt;Node3 -->
<g id="edge2" class="edge">
<title>Node1&#45;&gt;Node3</title>
<path fill="none" stroke="midnightblue" d="M110.19,-31.64C118.39,-30.45 127.01,-29.2 135.68,-27.94"/>
<polygon fill="midnightblue" stroke="midnightblue" points="136.47,-31.37 145.86,-26.47 135.46,-24.44 136.47,-31.37"/>
</g>
<!-- Node4 -->
<g id="node4" class="node">
<title>Node4</title>
<g id="a_node4"><a xlink:href="classhgps_1_1detail_1_1StoreConverter.html#a066dd7e4f199e2b8442edbe49ee71bcd" target="_top" xlink:title=" ">
<polygon fill="none" stroke="black" points="335,-0.5 335,-30.5 488,-30.5 488,-0.5 335,-0.5"/>
<text text-anchor="start" x="343" y="-18.5" font-family="Helvetica,sans-Serif" font-size="10.00">hgps::detail::StoreConverter</text>
<text text-anchor="middle" x="411.5" y="-7.5" font-family="Helvetica,sans-Serif" font-size="10.00">::to_gender</text>
</a>
</g>
</g>
<!-- Node3&#45;&gt;Node4 -->
<g id="edge3" class="edge">
<title>Node3&#45;&gt;Node4</title>
<path fill="none" stroke="midnightblue" d="M299.02,-15.5C307.47,-15.5 316.13,-15.5 324.7,-15.5"/>
<polygon fill="midnightblue" stroke="midnightblue" points="324.7,-19 334.7,-15.5 324.7,-12 324.7,-19"/>
</g>
<!-- Node5 -->
<g id="node5" class="node">
<title>Node5</title>
<g id="a_node5"><a xlink:href="structhgps_1_1core_1_1case__insensitive.html#a7c3f04e32aa1d7a41ef339443139b5c0" target="_top" xlink:title="Compare two case&#45;insensitive ASCII string for equality.">
<polygon fill="none" stroke="black" points="524,-0.5 524,-30.5 678,-30.5 678,-0.5 524,-0.5"/>
<text text-anchor="start" x="532" y="-18.5" font-family="Helvetica,sans-Serif" font-size="10.00">hgps::core::case_insensitive</text>
<text text-anchor="middle" x="601" y="-7.5" font-family="Helvetica,sans-Serif" font-size="10.00">::equals</text>
</a>
</g>
</g>
<!-- Node4&#45;&gt;Node5 -->
<g id="edge4" class="edge">
<title>Node4&#45;&gt;Node5</title>
<path fill="none" stroke="midnightblue" d="M488.22,-15.5C496.7,-15.5 505.38,-15.5 513.97,-15.5"/>
<polygon fill="midnightblue" stroke="midnightblue" points="513.99,-19 523.99,-15.5 513.99,-12 513.99,-19"/>
</g>
</g>
</svg>
