<?xml version="1.0" encoding="UTF-8" standalone="no"?>
<!DOCTYPE svg PUBLIC "-//W3C//DTD SVG 1.1//EN"
 "http://www.w3.org/Graphics/SVG/1.1/DTD/svg11.dtd">
<!-- Generated by graphviz version 2.43.0 (0)
 -->
<!-- Title: HealthGPS.Console/options.h Pages: 1 -->
<svg width="602pt" height="218pt"
 viewBox="0.00 0.00 602.23 218.00" xmlns="http://www.w3.org/2000/svg" xmlns:xlink="http://www.w3.org/1999/xlink">
<g id="graph0" class="graph" transform="scale(1 1) rotate(0) translate(4 214)">
<title>HealthGPS.Console/options.h</title>
<!-- Node1 -->
<g id="node1" class="node">
<title>Node1</title>
<g id="a_node1"><a xlink:title=" ">
<polygon fill="#bfbfbf" stroke="black" points="246.17,-190.5 246.17,-209.5 404.17,-209.5 404.17,-190.5 246.17,-190.5"/>
<text text-anchor="middle" x="325.17" y="-197.5" font-family="Helvetica,sans-Serif" font-size="10.00">HealthGPS.Console/options.h</text>
</a>
</g>
</g>
<!-- Node2 -->
<g id="node2" class="node">
<title>Node2</title>
<g id="a_node2"><a xlink:href="configuration_8h.html" target="_top" xlink:title=" ">
<polygon fill="none" stroke="black" points="387.17,-134.5 387.17,-153.5 573.17,-153.5 573.17,-134.5 387.17,-134.5"/>
<text text-anchor="middle" x="480.17" y="-141.5" font-family="Helvetica,sans-Serif" font-size="10.00">HealthGPS.Console/configuration.h</text>
</a>
</g>
</g>
<!-- Node1&#45;&gt;Node2 -->
<g id="edge1" class="edge">
<title>Node1&#45;&gt;Node2</title>
<path fill="none" stroke="midnightblue" d="M359.5,-187.04C388.66,-176.88 429.8,-162.55 455.72,-153.52"/>
<polygon fill="midnightblue" stroke="midnightblue" points="358.02,-183.85 349.73,-190.44 360.32,-190.46 358.02,-183.85"/>
</g>
<!-- Node5 -->
<g id="node5" class="node">
<title>Node5</title>
<g id="a_node5"><a xlink:href="jsonparser_8h.html" target="_top" xlink:title=" ">
<polygon fill="none" stroke="black" points="123.67,-134.5 123.67,-153.5 296.67,-153.5 296.67,-134.5 123.67,-134.5"/>
<text text-anchor="middle" x="210.17" y="-141.5" font-family="Helvetica,sans-Serif" font-size="10.00">HealthGPS.Console/jsonparser.h</text>
</a>
</g>
</g>
<!-- Node1&#45;&gt;Node5 -->
<g id="edge4" class="edge">
<title>Node1&#45;&gt;Node5</title>
<path fill="none" stroke="midnightblue" d="M297.69,-186.1C276.2,-176.01 246.95,-162.27 228.3,-153.52"/>
<polygon fill="midnightblue" stroke="midnightblue" points="296.41,-189.36 306.95,-190.44 299.38,-183.02 296.41,-189.36"/>
</g>
<!-- Node8 -->
<g id="node8" class="node">
<title>Node8</title>
<g id="a_node8"><a xlink:href="model__parser_8h.html" target="_top" xlink:title=" ">
<polygon fill="none" stroke="black" points="219.17,-67.5 219.17,-97.5 363.17,-97.5 363.17,-67.5 219.17,-67.5"/>
<text text-anchor="start" x="227.17" y="-85.5" font-family="Helvetica,sans-Serif" font-size="10.00">HealthGPS.Console/model</text>
<text text-anchor="middle" x="291.17" y="-74.5" font-family="Helvetica,sans-Serif" font-size="10.00">_parser.h</text>
</a>
</g>
</g>
<!-- Node1&#45;&gt;Node8 -->
<g id="edge11" class="edge">
<title>Node1&#45;&gt;Node8</title>
<path fill="none" stroke="midnightblue" d="M319.78,-180.7C312.98,-157.61 301.44,-118.41 295.3,-97.55"/>
<polygon fill="midnightblue" stroke="midnightblue" points="316.43,-181.71 322.61,-190.32 323.15,-179.74 316.43,-181.71"/>
</g>
<!-- Node3 -->
<g id="node3" class="node">
<title>Node3</title>
<g id="a_node3"><a xlink:href="configuration_8cpp.html" target="_top" xlink:title=" ">
<polygon fill="none" stroke="black" points="381.67,-73 381.67,-92 578.67,-92 578.67,-73 381.67,-73"/>
<text text-anchor="middle" x="480.17" y="-80" font-family="Helvetica,sans-Serif" font-size="10.00">HealthGPS.Console/configuration.cpp</text>
</a>
</g>
</g>
<!-- Node2&#45;&gt;Node3 -->
<g id="edge2" class="edge">
<title>Node2&#45;&gt;Node3</title>
<path fill="none" stroke="midnightblue" d="M480.17,-124.32C480.17,-113.5 480.17,-100.4 480.17,-92.01"/>
<polygon fill="midnightblue" stroke="midnightblue" points="476.67,-124.48 480.17,-134.48 483.67,-124.48 476.67,-124.48"/>
</g>
<!-- Node4 -->
<g id="node4" class="node">
<title>Node4</title>
<g id="a_node4"><a xlink:href="program_8cpp.html" target="_top" xlink:title=" ">
<polygon fill="none" stroke="black" points="323.67,-6 323.67,-25 498.67,-25 498.67,-6 323.67,-6"/>
<text text-anchor="middle" x="411.17" y="-13" font-family="Helvetica,sans-Serif" font-size="10.00">HealthGPS.Console/program.cpp</text>
</a>
</g>
</g>
<!-- Node2&#45;&gt;Node4 -->
<g id="edge3" class="edge">
<title>Node2&#45;&gt;Node4</title>
<path fill="none" stroke="midnightblue" d="M541.44,-131.21C559.54,-124.56 577.37,-114.19 588.17,-98 595.81,-86.54 596.47,-78 588.17,-67 573.49,-47.55 513.49,-33.35 467.37,-25.05"/>
<polygon fill="midnightblue" stroke="midnightblue" points="540.09,-127.97 531.7,-134.44 542.29,-134.61 540.09,-127.97"/>
</g>
<!-- Node5&#45;&gt;Node3 -->
<g id="edge5" class="edge">
<title>Node5&#45;&gt;Node3</title>
<path fill="none" stroke="midnightblue" d="M258.91,-132.26C311.29,-120.72 393.47,-102.61 441.55,-92.01"/>
<polygon fill="midnightblue" stroke="midnightblue" points="257.86,-128.9 248.85,-134.48 259.37,-135.74 257.86,-128.9"/>
</g>
<!-- Node6 -->
<g id="node6" class="node">
<title>Node6</title>
<g id="a_node6"><a xlink:href="jsonparser_8cpp.html" target="_top" xlink:title=" ">
<polygon fill="none" stroke="black" points="17.17,-73 17.17,-92 201.17,-92 201.17,-73 17.17,-73"/>
<text text-anchor="middle" x="109.17" y="-80" font-family="Helvetica,sans-Serif" font-size="10.00">HealthGPS.Console/jsonparser.cpp</text>
</a>
</g>
</g>
<!-- Node5&#45;&gt;Node6 -->
<g id="edge6" class="edge">
<title>Node5&#45;&gt;Node6</title>
<path fill="none" stroke="midnightblue" d="M186.82,-129.24C167.31,-117.75 140.1,-101.72 123.61,-92.01"/>
<polygon fill="midnightblue" stroke="midnightblue" points="185.3,-132.41 195.7,-134.48 188.86,-126.38 185.3,-132.41"/>
</g>
<!-- Node7 -->
<g id="node7" class="node">
<title>Node7</title>
<g id="a_node7"><a xlink:href="model__parser_8cpp.html" target="_top" xlink:title=" ">
<polygon fill="none" stroke="black" points="99.17,-0.5 99.17,-30.5 243.17,-30.5 243.17,-0.5 99.17,-0.5"/>
<text text-anchor="start" x="107.17" y="-18.5" font-family="Helvetica,sans-Serif" font-size="10.00">HealthGPS.Console/model</text>
<text text-anchor="middle" x="171.17" y="-7.5" font-family="Helvetica,sans-Serif" font-size="10.00">_parser.cpp</text>
</a>
</g>
</g>
<!-- Node5&#45;&gt;Node7 -->
<g id="edge7" class="edge">
<title>Node5&#45;&gt;Node7</title>
<path fill="none" stroke="midnightblue" d="M113.36,-132.98C68.41,-126.13 21.88,-115.1 8.17,-98 -22.21,-60.11 42.44,-38.36 99.09,-27.01"/>
<polygon fill="midnightblue" stroke="midnightblue" points="113.12,-136.48 123.52,-134.46 114.13,-129.55 113.12,-136.48"/>
</g>
<!-- Node5&#45;&gt;Node8 -->
<g id="edge8" class="edge">
<title>Node5&#45;&gt;Node8</title>
<path fill="none" stroke="midnightblue" d="M229.95,-128.47C242.78,-119.05 259.39,-106.84 272.08,-97.52"/>
<polygon fill="midnightblue" stroke="midnightblue" points="227.76,-125.73 221.77,-134.48 231.9,-131.38 227.76,-125.73"/>
</g>
<!-- Node8&#45;&gt;Node4 -->
<g id="edge10" class="edge">
<title>Node8&#45;&gt;Node4</title>
<path fill="none" stroke="midnightblue" d="M326.29,-62.47C349.2,-50.06 377.99,-34.47 395.46,-25.01"/>
<polygon fill="midnightblue" stroke="midnightblue" points="324.33,-59.56 317.21,-67.4 327.67,-65.71 324.33,-59.56"/>
</g>
<!-- Node8&#45;&gt;Node7 -->
<g id="edge9" class="edge">
<title>Node8&#45;&gt;Node7</title>
<path fill="none" stroke="midnightblue" d="M256.23,-62.57C237.35,-52.35 214.44,-39.94 197.15,-30.58"/>
<polygon fill="midnightblue" stroke="midnightblue" points="254.67,-65.71 265.13,-67.4 258,-59.56 254.67,-65.71"/>
</g>
</g>
</svg>
