<?xml version="1.0" encoding="UTF-8" standalone="no"?>
<!DOCTYPE svg PUBLIC "-//W3C//DTD SVG 1.1//EN"
 "http://www.w3.org/Graphics/SVG/1.1/DTD/svg11.dtd">
<!-- Generated by graphviz version 2.43.0 (0)
 -->
<!-- Title: HealthGPS.Console/options.h Pages: 1 -->
<svg width="515pt" height="151pt"
 viewBox="0.00 0.00 514.50 151.00" xmlns="http://www.w3.org/2000/svg" xmlns:xlink="http://www.w3.org/1999/xlink">
<g id="graph0" class="graph" transform="scale(1 1) rotate(0) translate(4 147)">
<title>HealthGPS.Console/options.h</title>
<!-- Node1 -->
<g id="node1" class="node">
<title>Node1</title>
<g id="a_node1"><a xlink:title=" ">
<polygon fill="#bfbfbf" stroke="black" points="195,-123.5 195,-142.5 353,-142.5 353,-123.5 195,-123.5"/>
<text text-anchor="middle" x="274" y="-130.5" font-family="Helvetica,sans-Serif" font-size="10.00">HealthGPS.Console/options.h</text>
</a>
</g>
</g>
<!-- Node2 -->
<g id="node2" class="node">
<title>Node2</title>
<g id="a_node2"><a xlink:href="forward__type_8h.html" target="_top" xlink:title=" ">
<polygon fill="none" stroke="black" points="36,-56.5 36,-86.5 170,-86.5 170,-56.5 36,-56.5"/>
<text text-anchor="start" x="44" y="-74.5" font-family="Helvetica,sans-Serif" font-size="10.00">HealthGPS.Core/forward</text>
<text text-anchor="middle" x="103" y="-63.5" font-family="Helvetica,sans-Serif" font-size="10.00">_type.h</text>
</a>
</g>
</g>
<!-- Node1&#45;&gt;Node2 -->
<g id="edge1" class="edge">
<title>Node1&#45;&gt;Node2</title>
<path fill="none" stroke="midnightblue" d="M249.5,-123.48C224.39,-114.74 184.64,-100.91 152.88,-89.86"/>
<polygon fill="midnightblue" stroke="midnightblue" points="153.9,-86.5 143.3,-86.52 151.6,-93.11 153.9,-86.5"/>
</g>
<!-- Node5 -->
<g id="node5" class="node">
<title>Node5</title>
<g id="a_node5"><a xlink:href="HealthGPS_8Console_2poco_8h.html" target="_top" xlink:title=" ">
<polygon fill="none" stroke="black" points="249.5,-62 249.5,-81 298.5,-81 298.5,-62 249.5,-62"/>
<text text-anchor="middle" x="274" y="-69" font-family="Helvetica,sans-Serif" font-size="10.00">poco.h</text>
</a>
</g>
</g>
<!-- Node1&#45;&gt;Node5 -->
<g id="edge4" class="edge">
<title>Node1&#45;&gt;Node5</title>
<path fill="none" stroke="midnightblue" d="M274,-123.48C274,-115.08 274,-101.98 274,-91.16"/>
<polygon fill="midnightblue" stroke="midnightblue" points="277.5,-91.01 274,-81.01 270.5,-91.01 277.5,-91.01"/>
</g>
<!-- Node11 -->
<g id="node11" class="node">
<title>Node11</title>
<g id="a_node11"><a xlink:title=" ">
<polygon fill="none" stroke="#bfbfbf" points="317,-62 317,-81 385,-81 385,-62 317,-62"/>
<text text-anchor="middle" x="351" y="-69" font-family="Helvetica,sans-Serif" font-size="10.00">filesystem</text>
</a>
</g>
</g>
<!-- Node1&#45;&gt;Node11 -->
<g id="edge10" class="edge">
<title>Node1&#45;&gt;Node11</title>
<path fill="none" stroke="midnightblue" d="M285.03,-123.48C297.27,-114.02 317.23,-98.6 331.99,-87.19"/>
<polygon fill="midnightblue" stroke="midnightblue" points="334.22,-89.89 339.99,-81.01 329.94,-84.35 334.22,-89.89"/>
</g>
<!-- Node3 -->
<g id="node3" class="node">
<title>Node3</title>
<g id="a_node3"><a xlink:title=" ">
<polygon fill="none" stroke="#bfbfbf" points="0,-0.5 0,-19.5 50,-19.5 50,-0.5 0,-0.5"/>
<text text-anchor="middle" x="25" y="-7.5" font-family="Helvetica,sans-Serif" font-size="10.00">cstdint</text>
</a>
</g>
</g>
<!-- Node2&#45;&gt;Node3 -->
<g id="edge2" class="edge">
<title>Node2&#45;&gt;Node3</title>
<path fill="none" stroke="midnightblue" d="M84.52,-56.4C72.48,-47.22 56.8,-35.26 44.56,-25.92"/>
<polygon fill="midnightblue" stroke="midnightblue" points="46.42,-22.94 36.35,-19.66 42.18,-28.51 46.42,-22.94"/>
</g>
<!-- Node4 -->
<g id="node4" class="node">
<title>Node4</title>
<g id="a_node4"><a xlink:title=" ">
<polygon fill="none" stroke="#bfbfbf" points="68.5,-0.5 68.5,-19.5 137.5,-19.5 137.5,-0.5 68.5,-0.5"/>
<text text-anchor="middle" x="103" y="-7.5" font-family="Helvetica,sans-Serif" font-size="10.00">type_traits</text>
</a>
</g>
</g>
<!-- Node2&#45;&gt;Node4 -->
<g id="edge3" class="edge">
<title>Node2&#45;&gt;Node4</title>
<path fill="none" stroke="midnightblue" d="M103,-56.4C103,-48.47 103,-38.46 103,-29.86"/>
<polygon fill="midnightblue" stroke="midnightblue" points="106.5,-29.66 103,-19.66 99.5,-29.66 106.5,-29.66"/>
</g>
<!-- Node6 -->
<g id="node6" class="node">
<title>Node6</title>
<g id="a_node6"><a xlink:title=" ">
<polygon fill="none" stroke="#bfbfbf" points="156,-0.5 156,-19.5 194,-19.5 194,-0.5 156,-0.5"/>
<text text-anchor="middle" x="175" y="-7.5" font-family="Helvetica,sans-Serif" font-size="10.00">map</text>
</a>
</g>
</g>
<!-- Node5&#45;&gt;Node6 -->
<g id="edge5" class="edge">
<title>Node5&#45;&gt;Node6</title>
<path fill="none" stroke="midnightblue" d="M259.82,-61.98C243.64,-52.25 216.97,-36.23 197.86,-24.74"/>
<polygon fill="midnightblue" stroke="midnightblue" points="199.53,-21.66 189.16,-19.51 195.93,-27.66 199.53,-21.66"/>
</g>
<!-- Node7 -->
<g id="node7" class="node">
<title>Node7</title>
<g id="a_node7"><a xlink:title=" ">
<polygon fill="none" stroke="#bfbfbf" points="212,-0.5 212,-19.5 268,-19.5 268,-0.5 212,-0.5"/>
<text text-anchor="middle" x="240" y="-7.5" font-family="Helvetica,sans-Serif" font-size="10.00">optional</text>
</a>
</g>
</g>
<!-- Node5&#45;&gt;Node7 -->
<g id="edge6" class="edge">
<title>Node5&#45;&gt;Node7</title>
<path fill="none" stroke="midnightblue" d="M269.13,-61.98C264.13,-53.23 256.21,-39.37 249.89,-28.31"/>
<polygon fill="midnightblue" stroke="midnightblue" points="252.86,-26.46 244.86,-19.51 246.78,-29.93 252.86,-26.46"/>
</g>
<!-- Node8 -->
<g id="node8" class="node">
<title>Node8</title>
<g id="a_node8"><a xlink:title=" ">
<polygon fill="none" stroke="#bfbfbf" points="286,-0.5 286,-19.5 330,-19.5 330,-0.5 286,-0.5"/>
<text text-anchor="middle" x="308" y="-7.5" font-family="Helvetica,sans-Serif" font-size="10.00">string</text>
</a>
</g>
</g>
<!-- Node5&#45;&gt;Node8 -->
<g id="edge7" class="edge">
<title>Node5&#45;&gt;Node8</title>
<path fill="none" stroke="midnightblue" d="M278.87,-61.98C283.87,-53.23 291.79,-39.37 298.11,-28.31"/>
<polygon fill="midnightblue" stroke="midnightblue" points="301.22,-29.93 303.14,-19.51 295.14,-26.46 301.22,-29.93"/>
</g>
<!-- Node9 -->
<g id="node9" class="node">
<title>Node9</title>
<g id="a_node9"><a xlink:title=" ">
<polygon fill="none" stroke="#bfbfbf" points="348.5,-0.5 348.5,-19.5 441.5,-19.5 441.5,-0.5 348.5,-0.5"/>
<text text-anchor="middle" x="395" y="-7.5" font-family="Helvetica,sans-Serif" font-size="10.00">unordered_map</text>
</a>
</g>
</g>
<!-- Node5&#45;&gt;Node9 -->
<g id="edge8" class="edge">
<title>Node5&#45;&gt;Node9</title>
<path fill="none" stroke="midnightblue" d="M291.34,-61.98C311.55,-52.03 345.19,-35.49 368.64,-23.96"/>
<polygon fill="midnightblue" stroke="midnightblue" points="370.27,-27.06 377.7,-19.51 367.18,-20.78 370.27,-27.06"/>
</g>
<!-- Node10 -->
<g id="node10" class="node">
<title>Node10</title>
<g id="a_node10"><a xlink:title=" ">
<polygon fill="none" stroke="#bfbfbf" points="459.5,-0.5 459.5,-19.5 506.5,-19.5 506.5,-0.5 459.5,-0.5"/>
<text text-anchor="middle" x="483" y="-7.5" font-family="Helvetica,sans-Serif" font-size="10.00">vector</text>
</a>
</g>
</g>
<!-- Node5&#45;&gt;Node10 -->
<g id="edge9" class="edge">
<title>Node5&#45;&gt;Node10</title>
<path fill="none" stroke="midnightblue" d="M292.5,-61.99C297.47,-59.87 302.89,-57.72 308,-56 367.2,-36.06 385.93,-36.76 449.53,-20.31"/>
<polygon fill="midnightblue" stroke="midnightblue" points="450.47,-23.68 459.25,-17.76 448.69,-16.91 450.47,-23.68"/>
</g>
</g>
</svg>
