<?xml version="1.0" encoding="UTF-8" standalone="no"?>
<!DOCTYPE svg PUBLIC "-//W3C//DTD SVG 1.1//EN"
 "http://www.w3.org/Graphics/SVG/1.1/DTD/svg11.dtd">
<!-- Generated by graphviz version 7.0.6 (20230106.0513)
 -->
<!-- Title: HealthGPS/physical_activity_scenario.h Pages: 1 -->
<svg width="320pt" height="104pt"
 viewBox="0.00 0.00 319.50 104.00" xmlns="http://www.w3.org/2000/svg" xmlns:xlink="http://www.w3.org/1999/xlink">
<g id="graph0" class="graph" transform="scale(1 1) rotate(0) translate(4 100)">
<title>HealthGPS/physical_activity_scenario.h</title>
<!-- Node1 -->
<g id="node1" class="node">
<title>Node1</title>
<g id="a_node1"><a xlink:title=" ">
<polygon fill="#999999" stroke="#666666" points="224,-96 120,-96 120,-66 224,-66 224,-96"/>
<text text-anchor="start" x="128" y="-84" font-family="Helvetica,sans-Serif" font-size="10.00">HealthGPS/physical</text>
<text text-anchor="middle" x="172" y="-73" font-family="Helvetica,sans-Serif" font-size="10.00">_activity_scenario.h</text>
</a>
</g>
</g>
<!-- Node2 -->
<g id="node2" class="node">
<title>Node2</title>
<g id="a_node2"><a xlink:href="configuration_8cpp.html" target="_top" xlink:title=" ">
<polygon fill="white" stroke="#666666" points="180,-24.5 0,-24.5 0,-5.5 180,-5.5 180,-24.5"/>
<text text-anchor="middle" x="90" y="-12.5" font-family="Helvetica,sans-Serif" font-size="10.00">HealthGPS.Console/configuration.cpp</text>
</a>
</g>
</g>
<!-- Node1&#45;&gt;Node2 -->
<g id="edge1" class="edge">
<title>Node1&#45;&gt;Node2</title>
<path fill="none" stroke="#63b8ff" d="M145.01,-58.93C130.17,-47.35 112.56,-33.61 101.33,-24.84"/>
<polygon fill="#63b8ff" stroke="#63b8ff" points="142.57,-61.47 152.61,-64.87 146.88,-55.95 142.57,-61.47"/>
</g>
<!-- Node3 -->
<g id="node3" class="node">
<title>Node3</title>
<g id="a_node3"><a xlink:href="physical__activity__scenario_8cpp.html" target="_top" xlink:title=" ">
<polygon fill="white" stroke="#666666" points="311.5,-30 198.5,-30 198.5,0 311.5,0 311.5,-30"/>
<text text-anchor="start" x="206.5" y="-18" font-family="Helvetica,sans-Serif" font-size="10.00">HealthGPS/physical</text>
<text text-anchor="middle" x="255" y="-7" font-family="Helvetica,sans-Serif" font-size="10.00">_activity_scenario.cpp</text>
</a>
</g>
</g>
<!-- Node1&#45;&gt;Node3 -->
<g id="edge2" class="edge">
<title>Node1&#45;&gt;Node3</title>
<path fill="none" stroke="#63b8ff" d="M199.27,-58.97C211.42,-49.61 225.42,-38.81 236.34,-30.39"/>
<polygon fill="#63b8ff" stroke="#63b8ff" points="197.4,-55.99 191.62,-64.87 201.68,-61.54 197.4,-55.99"/>
</g>
</g>
</svg>
