<?xml version="1.0" encoding="UTF-8" standalone="no"?>
<!DOCTYPE svg PUBLIC "-//W3C//DTD SVG 1.1//EN"
 "http://www.w3.org/Graphics/SVG/1.1/DTD/svg11.dtd">
<!-- Generated by graphviz version 7.0.6 (20230106.0513)
 -->
<!-- Title: HealthGPS.Core/poco.h Pages: 1 -->
<svg width="673pt" height="192pt"
 viewBox="0.00 0.00 673.00 192.00" xmlns="http://www.w3.org/2000/svg" xmlns:xlink="http://www.w3.org/1999/xlink">
<g id="graph0" class="graph" transform="scale(1 1) rotate(0) translate(4 188)">
<title>HealthGPS.Core/poco.h</title>
<!-- Node1 -->
<g id="node1" class="node">
<title>Node1</title>
<g id="a_node1"><a xlink:title=" ">
<polygon fill="#999999" stroke="#666666" points="304.5,-184 183.5,-184 183.5,-165 304.5,-165 304.5,-184"/>
<text text-anchor="middle" x="244" y="-172" font-family="Helvetica,sans-Serif" font-size="10.00">HealthGPS.Core/poco.h</text>
</a>
</g>
</g>
<!-- Node2 -->
<g id="node2" class="node">
<title>Node2</title>
<g id="a_node2"><a xlink:href="country_8h.html" target="_top" xlink:title=" ">
<polygon fill="white" stroke="#666666" points="238.5,-74 181.5,-74 181.5,-55 238.5,-55 238.5,-74"/>
<text text-anchor="middle" x="210" y="-62" font-family="Helvetica,sans-Serif" font-size="10.00">country.h</text>
</a>
</g>
</g>
<!-- Node1&#45;&gt;Node2 -->
<g id="edge1" class="edge">
<title>Node1&#45;&gt;Node2</title>
<path fill="none" stroke="#63b8ff" d="M250.63,-164.58C259.09,-152.01 271.65,-128.57 263,-110 257.42,-98.03 246.87,-88.14 236.64,-80.75"/>
<polygon fill="#63b8ff" stroke="#63b8ff" points="238.63,-77.87 228.36,-75.27 234.77,-83.71 238.63,-77.87"/>
</g>
<!-- Node4 -->
<g id="node4" class="node">
<title>Node4</title>
<g id="a_node4"><a xlink:href="population__item_8h.html" target="_top" xlink:title=" ">
<polygon fill="white" stroke="#666666" points="253.5,-129 160.5,-129 160.5,-110 253.5,-110 253.5,-129"/>
<text text-anchor="middle" x="207" y="-117" font-family="Helvetica,sans-Serif" font-size="10.00">population_item.h</text>
</a>
</g>
</g>
<!-- Node1&#45;&gt;Node4 -->
<g id="edge3" class="edge">
<title>Node1&#45;&gt;Node4</title>
<path fill="none" stroke="#63b8ff" d="M237.89,-164.75C232.99,-157.73 225.95,-147.64 219.83,-138.87"/>
<polygon fill="#63b8ff" stroke="#63b8ff" points="222.7,-136.88 214.11,-130.68 216.96,-140.89 222.7,-136.88"/>
</g>
<!-- Node6 -->
<g id="node6" class="node">
<title>Node6</title>
<g id="a_node6"><a xlink:href="_health_g_p_s_8_core_2disease_8h.html" target="_top" xlink:title=" ">
<polygon fill="white" stroke="#666666" points="448.5,-129 389.5,-129 389.5,-110 448.5,-110 448.5,-129"/>
<text text-anchor="middle" x="419" y="-117" font-family="Helvetica,sans-Serif" font-size="10.00">disease.h</text>
</a>
</g>
</g>
<!-- Node1&#45;&gt;Node6 -->
<g id="edge5" class="edge">
<title>Node1&#45;&gt;Node6</title>
<path fill="none" stroke="#63b8ff" d="M273.69,-164.51C302.56,-155.76 346.64,-142.42 378.67,-132.71"/>
<polygon fill="#63b8ff" stroke="#63b8ff" points="379.46,-136.13 388.01,-129.88 377.43,-129.43 379.46,-136.13"/>
</g>
<!-- Node15 -->
<g id="node15" class="node">
<title>Node15</title>
<g id="a_node15"><a xlink:href="analysis_8h.html" target="_top" xlink:title=" ">
<polygon fill="white" stroke="#666666" points="371.5,-129 310.5,-129 310.5,-110 371.5,-110 371.5,-129"/>
<text text-anchor="middle" x="341" y="-117" font-family="Helvetica,sans-Serif" font-size="10.00">analysis.h</text>
</a>
</g>
</g>
<!-- Node1&#45;&gt;Node15 -->
<g id="edge16" class="edge">
<title>Node1&#45;&gt;Node15</title>
<path fill="none" stroke="#63b8ff" d="M260.45,-164.51C275.32,-156.39 297.44,-144.3 314.75,-134.85"/>
<polygon fill="#63b8ff" stroke="#63b8ff" points="316.36,-137.95 323.46,-130.08 313.01,-131.81 316.36,-137.95"/>
</g>
<!-- Node16 -->
<g id="node16" class="node">
<title>Node16</title>
<g id="a_node16"><a xlink:href="indicator_8h.html" target="_top" xlink:title=" ">
<polygon fill="white" stroke="#666666" points="62,-129 0,-129 0,-110 62,-110 62,-129"/>
<text text-anchor="middle" x="31" y="-117" font-family="Helvetica,sans-Serif" font-size="10.00">indicator.h</text>
</a>
</g>
</g>
<!-- Node1&#45;&gt;Node16 -->
<g id="edge21" class="edge">
<title>Node1&#45;&gt;Node16</title>
<path fill="none" stroke="#63b8ff" d="M207.87,-164.51C170.71,-155.26 112.85,-140.87 73.51,-131.08"/>
<polygon fill="#63b8ff" stroke="#63b8ff" points="74.46,-127.71 63.91,-128.69 72.77,-134.5 74.46,-127.71"/>
</g>
<!-- Node17 -->
<g id="node17" class="node">
<title>Node17</title>
<g id="a_node17"><a xlink:href="mortality_8h.html" target="_top" xlink:title=" ">
<polygon fill="white" stroke="#666666" points="142,-129 80,-129 80,-110 142,-110 142,-129"/>
<text text-anchor="middle" x="111" y="-117" font-family="Helvetica,sans-Serif" font-size="10.00">mortality.h</text>
</a>
</g>
</g>
<!-- Node1&#45;&gt;Node17 -->
<g id="edge23" class="edge">
<title>Node1&#45;&gt;Node17</title>
<path fill="none" stroke="#63b8ff" d="M221.44,-164.51C200.1,-156.01 167.84,-143.15 143.69,-133.53"/>
<polygon fill="#63b8ff" stroke="#63b8ff" points="145.22,-130.37 134.63,-129.92 142.63,-136.87 145.22,-130.37"/>
</g>
<!-- Node3 -->
<g id="node3" class="node">
<title>Node3</title>
<g id="a_node3"><a xlink:title=" ">
<polygon fill="#e0e0e0" stroke="#999999" points="287.5,-19 246.5,-19 246.5,0 287.5,0 287.5,-19"/>
<text text-anchor="middle" x="267" y="-7" font-family="Helvetica,sans-Serif" font-size="10.00">string</text>
</a>
</g>
</g>
<!-- Node2&#45;&gt;Node3 -->
<g id="edge2" class="edge">
<title>Node2&#45;&gt;Node3</title>
<path fill="none" stroke="#63b8ff" d="M219.67,-54.51C227.74,-47 239.47,-36.1 249.22,-27.03"/>
<polygon fill="#63b8ff" stroke="#63b8ff" points="251.43,-29.76 256.37,-20.39 246.66,-24.63 251.43,-29.76"/>
</g>
<!-- Node5 -->
<g id="node5" class="node">
<title>Node5</title>
<g id="a_node5"><a xlink:title=" ">
<polygon fill="#e0e0e0" stroke="#999999" points="146,-74 108,-74 108,-55 146,-55 146,-74"/>
<text text-anchor="middle" x="127" y="-62" font-family="Helvetica,sans-Serif" font-size="10.00">tuple</text>
</a>
</g>
</g>
<!-- Node4&#45;&gt;Node5 -->
<g id="edge4" class="edge">
<title>Node4&#45;&gt;Node5</title>
<path fill="none" stroke="#63b8ff" d="M193.43,-109.51C181.52,-101.62 163.95,-89.98 149.87,-80.65"/>
<polygon fill="#63b8ff" stroke="#63b8ff" points="151.9,-77.8 141.63,-75.19 148.04,-83.63 151.9,-77.8"/>
</g>
<!-- Node6&#45;&gt;Node3 -->
<g id="edge6" class="edge">
<title>Node6&#45;&gt;Node3</title>
<path fill="none" stroke="#63b8ff" d="M418.83,-109.87C418.1,-96.36 414.73,-70.21 400,-55 373.23,-27.36 328.83,-16.89 298.77,-12.92"/>
<polygon fill="#63b8ff" stroke="#63b8ff" points="299.46,-9.48 289.13,-11.83 298.68,-16.43 299.46,-9.48"/>
</g>
<!-- Node7 -->
<g id="node7" class="node">
<title>Node7</title>
<g id="a_node7"><a xlink:title=" ">
<polygon fill="#e0e0e0" stroke="#999999" points="337,-74 295,-74 295,-55 337,-55 337,-74"/>
<text text-anchor="middle" x="316" y="-62" font-family="Helvetica,sans-Serif" font-size="10.00">vector</text>
</a>
</g>
</g>
<!-- Node6&#45;&gt;Node7 -->
<g id="edge7" class="edge">
<title>Node6&#45;&gt;Node7</title>
<path fill="none" stroke="#63b8ff" d="M401.53,-109.51C385.6,-101.31 361.81,-89.07 343.36,-79.58"/>
<polygon fill="#63b8ff" stroke="#63b8ff" points="345.05,-76.51 334.56,-75.05 341.85,-82.74 345.05,-76.51"/>
</g>
<!-- Node8 -->
<g id="node8" class="node">
<title>Node8</title>
<g id="a_node8"><a xlink:title=" ">
<polygon fill="#e0e0e0" stroke="#999999" points="390.5,-74 355.5,-74 355.5,-55 390.5,-55 390.5,-74"/>
<text text-anchor="middle" x="373" y="-62" font-family="Helvetica,sans-Serif" font-size="10.00">map</text>
</a>
</g>
</g>
<!-- Node6&#45;&gt;Node8 -->
<g id="edge8" class="edge">
<title>Node6&#45;&gt;Node8</title>
<path fill="none" stroke="#63b8ff" d="M411.4,-109.75C405.12,-102.5 395.99,-91.98 388.2,-83.02"/>
<polygon fill="#63b8ff" stroke="#63b8ff" points="390.95,-80.84 381.75,-75.59 385.66,-85.43 390.95,-80.84"/>
</g>
<!-- Node9 -->
<g id="node9" class="node">
<title>Node9</title>
<g id="a_node9"><a xlink:href="forward__type_8h.html" target="_top" xlink:title=" ">
<polygon fill="white" stroke="#666666" points="607,-74 527,-74 527,-55 607,-55 607,-74"/>
<text text-anchor="middle" x="567" y="-62" font-family="Helvetica,sans-Serif" font-size="10.00">forward_type.h</text>
</a>
</g>
</g>
<!-- Node6&#45;&gt;Node9 -->
<g id="edge9" class="edge">
<title>Node6&#45;&gt;Node9</title>
<path fill="none" stroke="#63b8ff" d="M444.11,-109.51C468.17,-100.89 504.72,-87.8 531.71,-78.14"/>
<polygon fill="#63b8ff" stroke="#63b8ff" points="532.61,-81.53 540.84,-74.87 530.25,-74.94 532.61,-81.53"/>
</g>
<!-- Node12 -->
<g id="node12" class="node">
<title>Node12</title>
<g id="a_node12"><a xlink:href="identifier_8h.html" target="_top" xlink:title=" ">
<polygon fill="white" stroke="#666666" points="508.5,-74 447.5,-74 447.5,-55 508.5,-55 508.5,-74"/>
<text text-anchor="middle" x="478" y="-62" font-family="Helvetica,sans-Serif" font-size="10.00">identifier.h</text>
</a>
</g>
</g>
<!-- Node6&#45;&gt;Node12 -->
<g id="edge12" class="edge">
<title>Node6&#45;&gt;Node12</title>
<path fill="none" stroke="#63b8ff" d="M429.01,-109.51C437.37,-102 449.5,-91.1 459.6,-82.03"/>
<polygon fill="#63b8ff" stroke="#63b8ff" points="461.91,-84.66 467.01,-75.37 457.24,-79.45 461.91,-84.66"/>
</g>
<!-- Node10 -->
<g id="node10" class="node">
<title>Node10</title>
<g id="a_node10"><a xlink:title=" ">
<polygon fill="#e0e0e0" stroke="#999999" points="665,-19 603,-19 603,0 665,0 665,-19"/>
<text text-anchor="middle" x="634" y="-7" font-family="Helvetica,sans-Serif" font-size="10.00">type_traits</text>
</a>
</g>
</g>
<!-- Node9&#45;&gt;Node10 -->
<g id="edge10" class="edge">
<title>Node9&#45;&gt;Node10</title>
<path fill="none" stroke="#63b8ff" d="M578.37,-54.51C588.05,-46.85 602.2,-35.66 613.81,-26.47"/>
<polygon fill="#63b8ff" stroke="#63b8ff" points="615.94,-29.25 621.62,-20.3 611.6,-23.76 615.94,-29.25"/>
</g>
<!-- Node11 -->
<g id="node11" class="node">
<title>Node11</title>
<g id="a_node11"><a xlink:title=" ">
<polygon fill="#e0e0e0" stroke="#999999" points="585,-19 539,-19 539,0 585,0 585,-19"/>
<text text-anchor="middle" x="562" y="-7" font-family="Helvetica,sans-Serif" font-size="10.00">cstdint</text>
</a>
</g>
</g>
<!-- Node9&#45;&gt;Node11 -->
<g id="edge11" class="edge">
<title>Node9&#45;&gt;Node11</title>
<path fill="none" stroke="#63b8ff" d="M566.17,-54.75C565.56,-48.27 564.7,-39.16 563.92,-30.9"/>
<polygon fill="#63b8ff" stroke="#63b8ff" points="567.41,-30.58 562.99,-20.95 560.44,-31.23 567.41,-30.58"/>
</g>
<!-- Node12&#45;&gt;Node3 -->
<g id="edge13" class="edge">
<title>Node12&#45;&gt;Node3</title>
<path fill="none" stroke="#63b8ff" d="M447.32,-55.79C407.68,-45.84 339.02,-28.59 298.83,-18.5"/>
<polygon fill="#63b8ff" stroke="#63b8ff" points="299.84,-15.14 289.29,-16.1 298.13,-21.93 299.84,-15.14"/>
</g>
<!-- Node13 -->
<g id="node13" class="node">
<title>Node13</title>
<g id="a_node13"><a xlink:title=" ">
<polygon fill="#e0e0e0" stroke="#999999" points="436,-19 384,-19 384,0 436,0 436,-19"/>
<text text-anchor="middle" x="410" y="-7" font-family="Helvetica,sans-Serif" font-size="10.00">ostream</text>
</a>
</g>
</g>
<!-- Node12&#45;&gt;Node13 -->
<g id="edge14" class="edge">
<title>Node12&#45;&gt;Node13</title>
<path fill="none" stroke="#63b8ff" d="M466.46,-54.51C456.54,-46.77 441.99,-35.43 430.14,-26.2"/>
<polygon fill="#63b8ff" stroke="#63b8ff" points="432.6,-23.68 422.56,-20.29 428.29,-29.2 432.6,-23.68"/>
</g>
<!-- Node14 -->
<g id="node14" class="node">
<title>Node14</title>
<g id="a_node14"><a xlink:title=" ">
<polygon fill="#e0e0e0" stroke="#999999" points="512,-19 454,-19 454,0 512,0 512,-19"/>
<text text-anchor="middle" x="483" y="-7" font-family="Helvetica,sans-Serif" font-size="10.00">functional</text>
</a>
</g>
</g>
<!-- Node12&#45;&gt;Node14 -->
<g id="edge15" class="edge">
<title>Node12&#45;&gt;Node14</title>
<path fill="none" stroke="#63b8ff" d="M478.83,-54.75C479.44,-48.27 480.3,-39.16 481.08,-30.9"/>
<polygon fill="#63b8ff" stroke="#63b8ff" points="484.56,-31.23 482.01,-20.95 477.59,-30.58 484.56,-31.23"/>
</g>
<!-- Node15&#45;&gt;Node3 -->
<g id="edge19" class="edge">
<title>Node15&#45;&gt;Node3</title>
<path fill="none" stroke="#63b8ff" d="M325.8,-109.8C313.38,-101.95 296.26,-89.3 286,-74 277.26,-60.96 272.44,-43.79 269.84,-30.59"/>
<polygon fill="#63b8ff" stroke="#63b8ff" points="273.33,-30.2 268.23,-20.91 266.42,-31.35 273.33,-30.2"/>
</g>
<!-- Node15&#45;&gt;Node7 -->
<g id="edge18" class="edge">
<title>Node15&#45;&gt;Node7</title>
<path fill="none" stroke="#63b8ff" d="M336.87,-109.75C333.67,-102.96 329.11,-93.3 325.07,-84.73"/>
<polygon fill="#63b8ff" stroke="#63b8ff" points="328.3,-83.36 320.86,-75.81 321.96,-86.35 328.3,-83.36"/>
</g>
<!-- Node15&#45;&gt;Node8 -->
<g id="edge17" class="edge">
<title>Node15&#45;&gt;Node8</title>
<path fill="none" stroke="#63b8ff" d="M346.28,-109.75C350.47,-102.81 356.48,-92.86 361.73,-84.16"/>
<polygon fill="#63b8ff" stroke="#63b8ff" points="364.65,-86.11 366.82,-75.74 358.65,-82.49 364.65,-86.11"/>
</g>
<!-- Node15&#45;&gt;Node9 -->
<g id="edge20" class="edge">
<title>Node15&#45;&gt;Node9</title>
<path fill="none" stroke="#63b8ff" d="M371.95,-111.24C409.54,-102.43 473.41,-87.45 517.78,-77.04"/>
<polygon fill="#63b8ff" stroke="#63b8ff" points="518.48,-80.47 527.41,-74.78 516.88,-73.66 518.48,-80.47"/>
</g>
<!-- Node16&#45;&gt;Node3 -->
<g id="edge22" class="edge">
<title>Node16&#45;&gt;Node3</title>
<path fill="none" stroke="#63b8ff" d="M37.94,-109.67C49.24,-95.89 72.99,-69.38 99,-55 142.65,-30.87 199.98,-19.34 235.12,-14.21"/>
<polygon fill="#63b8ff" stroke="#63b8ff" points="235.2,-17.73 244.64,-12.91 234.26,-10.8 235.2,-17.73"/>
</g>
<!-- Node17&#45;&gt;Node5 -->
<g id="edge24" class="edge">
<title>Node17&#45;&gt;Node5</title>
<path fill="none" stroke="#63b8ff" d="M113.64,-109.75C115.64,-103.11 118.48,-93.73 121.02,-85.31"/>
<polygon fill="#63b8ff" stroke="#63b8ff" points="124.32,-86.48 123.86,-75.89 117.62,-84.45 124.32,-86.48"/>
</g>
</g>
</svg>
