<?xml version="1.0" encoding="UTF-8" standalone="no"?>
<!DOCTYPE svg PUBLIC "-//W3C//DTD SVG 1.1//EN"
 "http://www.w3.org/Graphics/SVG/1.1/DTD/svg11.dtd">
<!-- Generated by graphviz version 2.43.0 (0)
 -->
<!-- Title: HealthGPS/population.h Pages: 1 -->
<svg width="1555pt" height="464pt"
 viewBox="0.00 0.00 1554.52 464.00" xmlns="http://www.w3.org/2000/svg" xmlns:xlink="http://www.w3.org/1999/xlink">
<g id="graph0" class="graph" transform="scale(1 1) rotate(0) translate(4 460)">
<title>HealthGPS/population.h</title>
<!-- Node1 -->
<g id="node1" class="node">
<title>Node1</title>
<g id="a_node1"><a xlink:title=" ">
<polygon fill="#bfbfbf" stroke="black" points="559.02,-436.5 559.02,-455.5 691.02,-455.5 691.02,-436.5 559.02,-436.5"/>
<text text-anchor="middle" x="625.02" y="-443.5" font-family="Helvetica,sans-Serif" font-size="10.00">HealthGPS/population.h</text>
</a>
</g>
</g>
<!-- Node2 -->
<g id="node2" class="node">
<title>Node2</title>
<g id="a_node2"><a xlink:href="population_8cpp.html" target="_top" xlink:title=" ">
<polygon fill="none" stroke="black" points="468.52,-380.5 468.52,-399.5 611.52,-399.5 611.52,-380.5 468.52,-380.5"/>
<text text-anchor="middle" x="540.02" y="-387.5" font-family="Helvetica,sans-Serif" font-size="10.00">HealthGPS/population.cpp</text>
</a>
</g>
</g>
<!-- Node1&#45;&gt;Node2 -->
<g id="edge1" class="edge">
<title>Node1&#45;&gt;Node2</title>
<path fill="none" stroke="midnightblue" d="M602.82,-430.9C587.24,-421 566.89,-408.07 553.64,-399.65"/>
<polygon fill="midnightblue" stroke="midnightblue" points="601.04,-433.92 611.36,-436.32 604.79,-428.01 601.04,-433.92"/>
</g>
<!-- Node3 -->
<g id="node3" class="node">
<title>Node3</title>
<g id="a_node3"><a xlink:href="runtime__context_8h.html" target="_top" xlink:title=" ">
<polygon fill="none" stroke="black" points="629.52,-380.5 629.52,-399.5 790.52,-399.5 790.52,-380.5 629.52,-380.5"/>
<text text-anchor="middle" x="710.02" y="-387.5" font-family="Helvetica,sans-Serif" font-size="10.00">HealthGPS/runtime_context.h</text>
</a>
</g>
</g>
<!-- Node1&#45;&gt;Node3 -->
<g id="edge2" class="edge">
<title>Node1&#45;&gt;Node3</title>
<path fill="none" stroke="midnightblue" d="M647.21,-430.9C662.8,-421 683.15,-408.07 696.39,-399.65"/>
<polygon fill="midnightblue" stroke="midnightblue" points="645.24,-428.01 638.67,-436.32 648.99,-433.92 645.24,-428.01"/>
</g>
<!-- Node4 -->
<g id="node4" class="node">
<title>Node4</title>
<g id="a_node4"><a xlink:href="analysis__module_8h.html" target="_top" xlink:title=" ">
<polygon fill="none" stroke="black" points="30.02,-313.5 30.02,-343.5 142.02,-343.5 142.02,-313.5 30.02,-313.5"/>
<text text-anchor="start" x="38.02" y="-331.5" font-family="Helvetica,sans-Serif" font-size="10.00">HealthGPS/analysis</text>
<text text-anchor="middle" x="86.02" y="-320.5" font-family="Helvetica,sans-Serif" font-size="10.00">_module.h</text>
</a>
</g>
</g>
<!-- Node3&#45;&gt;Node4 -->
<g id="edge3" class="edge">
<title>Node3&#45;&gt;Node4</title>
<path fill="none" stroke="midnightblue" d="M619,-379.94C410.04,-362 354.56,-374.36 151.02,-344 148.16,-343.57 145.24,-343.09 142.29,-342.57"/>
<polygon fill="midnightblue" stroke="midnightblue" points="618.8,-383.44 629.07,-380.82 619.41,-376.46 618.8,-383.44"/>
</g>
<!-- Node9 -->
<g id="node9" class="node">
<title>Node9</title>
<g id="a_node9"><a xlink:href="healthgps_8h.html" target="_top" xlink:title=" ">
<polygon fill="none" stroke="black" points="308.02,-118 308.02,-137 436.02,-137 436.02,-118 308.02,-118"/>
<text text-anchor="middle" x="372.02" y="-125" font-family="Helvetica,sans-Serif" font-size="10.00">HealthGPS/healthgps.h</text>
</a>
</g>
</g>
<!-- Node3&#45;&gt;Node9 -->
<g id="edge24" class="edge">
<title>Node3&#45;&gt;Node9</title>
<path fill="none" stroke="midnightblue" d="M619.01,-380.17C518.03,-375.92 65.03,-390.74 21.02,-344 -8.84,-312.29 -4.43,-281.35 21.02,-246 86.52,-154.99 225.81,-133.46 307.86,-128.97"/>
<polygon fill="midnightblue" stroke="midnightblue" points="618.89,-383.67 629.08,-380.75 619.29,-376.68 618.89,-383.67"/>
</g>
<!-- Node14 -->
<g id="node14" class="node">
<title>Node14</title>
<g id="a_node14"><a xlink:href="default__cancer__model_8cpp.html" target="_top" xlink:title=" ">
<polygon fill="none" stroke="black" points="160.52,-313.5 160.52,-343.5 303.52,-343.5 303.52,-313.5 160.52,-313.5"/>
<text text-anchor="start" x="168.52" y="-331.5" font-family="Helvetica,sans-Serif" font-size="10.00">HealthGPS/default_cancer</text>
<text text-anchor="middle" x="232.02" y="-320.5" font-family="Helvetica,sans-Serif" font-size="10.00">_model.cpp</text>
</a>
</g>
</g>
<!-- Node3&#45;&gt;Node14 -->
<g id="edge15" class="edge">
<title>Node3&#45;&gt;Node14</title>
<path fill="none" stroke="midnightblue" d="M619.15,-379.44C520.48,-368.93 369.3,-352.42 312.02,-344 309.36,-343.61 306.66,-343.2 303.94,-342.77"/>
<polygon fill="midnightblue" stroke="midnightblue" points="618.81,-382.92 629.12,-380.5 619.55,-375.96 618.81,-382.92"/>
</g>
<!-- Node15 -->
<g id="node15" class="node">
<title>Node15</title>
<g id="a_node15"><a xlink:href="default__disease__model_8cpp.html" target="_top" xlink:title=" ">
<polygon fill="none" stroke="black" points="321.52,-313.5 321.52,-343.5 470.52,-343.5 470.52,-313.5 321.52,-313.5"/>
<text text-anchor="start" x="329.52" y="-331.5" font-family="Helvetica,sans-Serif" font-size="10.00">HealthGPS/default_disease</text>
<text text-anchor="middle" x="396.02" y="-320.5" font-family="Helvetica,sans-Serif" font-size="10.00">_model.cpp</text>
</a>
</g>
</g>
<!-- Node3&#45;&gt;Node15 -->
<g id="edge16" class="edge">
<title>Node3&#45;&gt;Node15</title>
<path fill="none" stroke="midnightblue" d="M655.12,-378.6C603.79,-368.87 526.76,-354.27 470.02,-343.52"/>
<polygon fill="midnightblue" stroke="midnightblue" points="654.55,-382.05 665.03,-380.48 655.85,-375.17 654.55,-382.05"/>
</g>
<!-- Node16 -->
<g id="node16" class="node">
<title>Node16</title>
<g id="a_node16"><a xlink:href="demographic_8h.html" target="_top" xlink:title=" ">
<polygon fill="none" stroke="black" points="489.02,-319 489.02,-338 633.02,-338 633.02,-319 489.02,-319"/>
<text text-anchor="middle" x="561.02" y="-326" font-family="Helvetica,sans-Serif" font-size="10.00">HealthGPS/demographic.h</text>
</a>
</g>
</g>
<!-- Node3&#45;&gt;Node16 -->
<g id="edge17" class="edge">
<title>Node3&#45;&gt;Node16</title>
<path fill="none" stroke="midnightblue" d="M679.04,-376.63C650.09,-365.07 607.64,-348.12 582.32,-338.01"/>
<polygon fill="midnightblue" stroke="midnightblue" points="678.08,-380.02 688.67,-380.48 680.68,-373.52 678.08,-380.02"/>
</g>
<!-- Node18 -->
<g id="node18" class="node">
<title>Node18</title>
<g id="a_node18"><a xlink:href="HealthGPS_2disease_8h.html" target="_top" xlink:title=" ">
<polygon fill="none" stroke="black" points="651.02,-319 651.02,-338 769.02,-338 769.02,-319 651.02,-319"/>
<text text-anchor="middle" x="710.02" y="-326" font-family="Helvetica,sans-Serif" font-size="10.00">HealthGPS/disease.h</text>
</a>
</g>
</g>
<!-- Node3&#45;&gt;Node18 -->
<g id="edge20" class="edge">
<title>Node3&#45;&gt;Node18</title>
<path fill="none" stroke="midnightblue" d="M710.02,-370.32C710.02,-359.5 710.02,-346.4 710.02,-338.01"/>
<polygon fill="midnightblue" stroke="midnightblue" points="706.52,-370.48 710.02,-380.48 713.52,-370.48 706.52,-370.48"/>
</g>
<!-- Node20 -->
<g id="node20" class="node">
<title>Node20</title>
<g id="a_node20"><a xlink:href="energy__balance__model_8cpp.html" target="_top" xlink:title=" ">
<polygon fill="none" stroke="black" points="787.52,-313.5 787.52,-343.5 936.52,-343.5 936.52,-313.5 787.52,-313.5"/>
<text text-anchor="start" x="795.52" y="-331.5" font-family="Helvetica,sans-Serif" font-size="10.00">HealthGPS/energy_balance</text>
<text text-anchor="middle" x="862.02" y="-320.5" font-family="Helvetica,sans-Serif" font-size="10.00">_model.cpp</text>
</a>
</g>
</g>
<!-- Node3&#45;&gt;Node20 -->
<g id="edge23" class="edge">
<title>Node3&#45;&gt;Node20</title>
<path fill="none" stroke="midnightblue" d="M741.39,-376.72C766.06,-367.06 800.44,-353.6 826.19,-343.52"/>
<polygon fill="midnightblue" stroke="midnightblue" points="739.83,-373.57 731.79,-380.48 742.38,-380.09 739.83,-373.57"/>
</g>
<!-- Node21 -->
<g id="node21" class="node">
<title>Node21</title>
<g id="a_node21"><a xlink:href="hierarchical__model__static_8cpp.html" target="_top" xlink:title=" ">
<polygon fill="none" stroke="black" points="955.02,-313.5 955.02,-343.5 1083.02,-343.5 1083.02,-313.5 955.02,-313.5"/>
<text text-anchor="start" x="963.02" y="-331.5" font-family="Helvetica,sans-Serif" font-size="10.00">HealthGPS/hierarchical</text>
<text text-anchor="middle" x="1019.02" y="-320.5" font-family="Helvetica,sans-Serif" font-size="10.00">_model_static.cpp</text>
</a>
</g>
</g>
<!-- Node3&#45;&gt;Node21 -->
<g id="edge25" class="edge">
<title>Node3&#45;&gt;Node21</title>
<path fill="none" stroke="midnightblue" d="M765.18,-378.51C812.81,-369.43 883.47,-355.92 945.02,-344 948.23,-343.38 951.52,-342.74 954.84,-342.09"/>
<polygon fill="midnightblue" stroke="midnightblue" points="764.25,-375.12 755.08,-380.43 765.56,-382 764.25,-375.12"/>
</g>
<!-- Node22 -->
<g id="node22" class="node">
<title>Node22</title>
<g id="a_node22"><a xlink:href="riskfactor__adjustment_8h.html" target="_top" xlink:title=" ">
<polygon fill="none" stroke="black" points="1101.02,-313.5 1101.02,-343.5 1219.02,-343.5 1219.02,-313.5 1101.02,-313.5"/>
<text text-anchor="start" x="1109.02" y="-331.5" font-family="Helvetica,sans-Serif" font-size="10.00">HealthGPS/riskfactor</text>
<text text-anchor="middle" x="1160.02" y="-320.5" font-family="Helvetica,sans-Serif" font-size="10.00">_adjustment.h</text>
</a>
</g>
</g>
<!-- Node3&#45;&gt;Node22 -->
<g id="edge26" class="edge">
<title>Node3&#45;&gt;Node22</title>
<path fill="none" stroke="midnightblue" d="M801.03,-380.68C878.64,-373.01 993.02,-360.35 1092.02,-344 1094.87,-343.53 1097.79,-343.02 1100.74,-342.48"/>
<polygon fill="midnightblue" stroke="midnightblue" points="800.42,-377.22 790.81,-381.68 801.1,-384.19 800.42,-377.22"/>
</g>
<!-- Node26 -->
<g id="node26" class="node">
<title>Node26</title>
<g id="a_node26"><a xlink:href="runtime__context_8cpp.html" target="_top" xlink:title=" ">
<polygon fill="none" stroke="black" points="1237.02,-319 1237.02,-338 1409.02,-338 1409.02,-319 1237.02,-319"/>
<text text-anchor="middle" x="1323.02" y="-326" font-family="Helvetica,sans-Serif" font-size="10.00">HealthGPS/runtime_context.cpp</text>
</a>
</g>
</g>
<!-- Node3&#45;&gt;Node26 -->
<g id="edge31" class="edge">
<title>Node3&#45;&gt;Node26</title>
<path fill="none" stroke="midnightblue" d="M801.04,-382.89C904.64,-375.51 1078.82,-361.85 1228.02,-344 1242.1,-342.32 1257.3,-340.15 1271.33,-338.01"/>
<polygon fill="midnightblue" stroke="midnightblue" points="800.66,-379.4 790.93,-383.6 801.16,-386.39 800.66,-379.4"/>
</g>
<!-- Node27 -->
<g id="node27" class="node">
<title>Node27</title>
<g id="a_node27"><a xlink:href="ses__noise__module_8cpp.html" target="_top" xlink:title=" ">
<polygon fill="none" stroke="black" points="1427.52,-313.5 1427.52,-343.5 1546.52,-343.5 1546.52,-313.5 1427.52,-313.5"/>
<text text-anchor="start" x="1435.52" y="-331.5" font-family="Helvetica,sans-Serif" font-size="10.00">HealthGPS/ses_noise</text>
<text text-anchor="middle" x="1487.02" y="-320.5" font-family="Helvetica,sans-Serif" font-size="10.00">_module.cpp</text>
</a>
</g>
</g>
<!-- Node3&#45;&gt;Node27 -->
<g id="edge32" class="edge">
<title>Node3&#45;&gt;Node27</title>
<path fill="none" stroke="midnightblue" d="M800.85,-387.39C935.98,-384.06 1197.68,-374 1418.02,-344 1421.05,-343.59 1424.15,-343.12 1427.27,-342.6"/>
<polygon fill="midnightblue" stroke="midnightblue" points="800.46,-383.9 790.55,-387.64 800.63,-390.9 800.46,-383.9"/>
</g>
<!-- Node5 -->
<g id="node5" class="node">
<title>Node5</title>
<g id="a_node5"><a xlink:href="analysis__module_8cpp.html" target="_top" xlink:title=" ">
<polygon fill="none" stroke="black" points="30.02,-246.5 30.02,-276.5 142.02,-276.5 142.02,-246.5 30.02,-246.5"/>
<text text-anchor="start" x="38.02" y="-264.5" font-family="Helvetica,sans-Serif" font-size="10.00">HealthGPS/analysis</text>
<text text-anchor="middle" x="86.02" y="-253.5" font-family="Helvetica,sans-Serif" font-size="10.00">_module.cpp</text>
</a>
</g>
</g>
<!-- Node4&#45;&gt;Node5 -->
<g id="edge4" class="edge">
<title>Node4&#45;&gt;Node5</title>
<path fill="none" stroke="midnightblue" d="M86.02,-303.11C86.02,-294.15 86.02,-284.32 86.02,-276.58"/>
<polygon fill="midnightblue" stroke="midnightblue" points="82.52,-303.4 86.02,-313.4 89.52,-303.4 82.52,-303.4"/>
</g>
<!-- Node6 -->
<g id="node6" class="node">
<title>Node6</title>
<g id="a_node6"><a xlink:href="simulation__module_8h.html" target="_top" xlink:title=" ">
<polygon fill="none" stroke="black" points="499.52,-179.5 499.52,-209.5 622.52,-209.5 622.52,-179.5 499.52,-179.5"/>
<text text-anchor="start" x="507.52" y="-197.5" font-family="Helvetica,sans-Serif" font-size="10.00">HealthGPS/simulation</text>
<text text-anchor="middle" x="561.02" y="-186.5" font-family="Helvetica,sans-Serif" font-size="10.00">_module.h</text>
</a>
</g>
</g>
<!-- Node4&#45;&gt;Node6 -->
<g id="edge5" class="edge">
<title>Node4&#45;&gt;Node6</title>
<path fill="none" stroke="midnightblue" d="M143.19,-310.51C200.08,-293.72 289.91,-267.5 368.02,-246 414.26,-233.27 466.96,-219.53 505.59,-209.6"/>
<polygon fill="midnightblue" stroke="midnightblue" points="141.91,-307.24 133.31,-313.43 143.89,-313.96 141.91,-307.24"/>
</g>
<!-- Node7 -->
<g id="node7" class="node">
<title>Node7</title>
<g id="a_node7"><a xlink:href="HealthGPS_2api_8h.html" target="_top" xlink:title=" ">
<polygon fill="none" stroke="black" points="532.52,-56.5 532.52,-75.5 627.52,-75.5 627.52,-56.5 532.52,-56.5"/>
<text text-anchor="middle" x="580.02" y="-63.5" font-family="Helvetica,sans-Serif" font-size="10.00">HealthGPS/api.h</text>
</a>
</g>
</g>
<!-- Node6&#45;&gt;Node7 -->
<g id="edge6" class="edge">
<title>Node6&#45;&gt;Node7</title>
<path fill="none" stroke="midnightblue" d="M575.23,-170.41C579.59,-162.08 583.81,-152.41 586.02,-143 591.62,-119.03 585.92,-89.77 582.37,-75.56"/>
<polygon fill="midnightblue" stroke="midnightblue" points="572.16,-168.72 570.35,-179.15 578.28,-172.13 572.16,-168.72"/>
</g>
<!-- Node6&#45;&gt;Node9 -->
<g id="edge8" class="edge">
<title>Node6&#45;&gt;Node9</title>
<path fill="none" stroke="midnightblue" d="M510.44,-176.11C473.67,-163.46 425.49,-146.89 396.75,-137.01"/>
<polygon fill="midnightblue" stroke="midnightblue" points="509.41,-179.45 520.01,-179.4 511.69,-172.83 509.41,-179.45"/>
</g>
<!-- Node13 -->
<g id="node13" class="node">
<title>Node13</title>
<g id="a_node13"><a xlink:href="simulation__module_8cpp.html" target="_top" xlink:title=" ">
<polygon fill="none" stroke="black" points="454.52,-112.5 454.52,-142.5 577.52,-142.5 577.52,-112.5 454.52,-112.5"/>
<text text-anchor="start" x="462.52" y="-130.5" font-family="Helvetica,sans-Serif" font-size="10.00">HealthGPS/simulation</text>
<text text-anchor="middle" x="516.02" y="-119.5" font-family="Helvetica,sans-Serif" font-size="10.00">_module.cpp</text>
</a>
</g>
</g>
<!-- Node6&#45;&gt;Node13 -->
<g id="edge14" class="edge">
<title>Node6&#45;&gt;Node13</title>
<path fill="none" stroke="midnightblue" d="M545.55,-171.16C538.99,-161.68 531.54,-150.92 525.76,-142.58"/>
<polygon fill="midnightblue" stroke="midnightblue" points="542.68,-173.17 551.25,-179.4 548.44,-169.18 542.68,-173.17"/>
</g>
<!-- Node8 -->
<g id="node8" class="node">
<title>Node8</title>
<g id="a_node8"><a xlink:href="program_8cpp.html" target="_top" xlink:title=" ">
<polygon fill="none" stroke="black" points="492.52,-0.5 492.52,-19.5 667.52,-19.5 667.52,-0.5 492.52,-0.5"/>
<text text-anchor="middle" x="580.02" y="-7.5" font-family="Helvetica,sans-Serif" font-size="10.00">HealthGPS.Console/program.cpp</text>
</a>
</g>
</g>
<!-- Node7&#45;&gt;Node8 -->
<g id="edge7" class="edge">
<title>Node7&#45;&gt;Node8</title>
<path fill="none" stroke="midnightblue" d="M580.02,-45.8C580.02,-36.91 580.02,-26.78 580.02,-19.75"/>
<polygon fill="midnightblue" stroke="midnightblue" points="576.52,-46.08 580.02,-56.08 583.52,-46.08 576.52,-46.08"/>
</g>
<!-- Node9&#45;&gt;Node7 -->
<g id="edge9" class="edge">
<title>Node9&#45;&gt;Node7</title>
<path fill="none" stroke="midnightblue" d="M411.6,-115.18C452.02,-103.61 513.84,-85.93 550.27,-75.51"/>
<polygon fill="midnightblue" stroke="midnightblue" points="410.47,-111.86 401.82,-117.98 412.39,-118.59 410.47,-111.86"/>
</g>
<!-- Node10 -->
<g id="node10" class="node">
<title>Node10</title>
<g id="a_node10"><a xlink:href="healthgps_8cpp.html" target="_top" xlink:title=" ">
<polygon fill="none" stroke="black" points="148.02,-56.5 148.02,-75.5 288.02,-75.5 288.02,-56.5 148.02,-56.5"/>
<text text-anchor="middle" x="218.02" y="-63.5" font-family="Helvetica,sans-Serif" font-size="10.00">HealthGPS/healthgps.cpp</text>
</a>
</g>
</g>
<!-- Node9&#45;&gt;Node10 -->
<g id="edge10" class="edge">
<title>Node9&#45;&gt;Node10</title>
<path fill="none" stroke="midnightblue" d="M340.39,-114.28C310.47,-102.72 266.32,-85.66 240.04,-75.51"/>
<polygon fill="midnightblue" stroke="midnightblue" points="339.36,-117.64 349.95,-117.98 341.88,-111.11 339.36,-117.64"/>
</g>
<!-- Node11 -->
<g id="node11" class="node">
<title>Node11</title>
<g id="a_node11"><a xlink:href="configuration_8h.html" target="_top" xlink:title=" ">
<polygon fill="none" stroke="black" points="306.02,-56.5 306.02,-75.5 492.02,-75.5 492.02,-56.5 306.02,-56.5"/>
<text text-anchor="middle" x="399.02" y="-63.5" font-family="Helvetica,sans-Serif" font-size="10.00">HealthGPS.Console/configuration.h</text>
</a>
</g>
</g>
<!-- Node9&#45;&gt;Node11 -->
<g id="edge11" class="edge">
<title>Node9&#45;&gt;Node11</title>
<path fill="none" stroke="midnightblue" d="M380.03,-108.83C385.03,-97.83 391.23,-84.16 395.15,-75.51"/>
<polygon fill="midnightblue" stroke="midnightblue" points="376.83,-107.42 375.88,-117.98 383.2,-110.32 376.83,-107.42"/>
</g>
<!-- Node11&#45;&gt;Node8 -->
<g id="edge13" class="edge">
<title>Node11&#45;&gt;Node8</title>
<path fill="none" stroke="midnightblue" d="M437.33,-53.57C471.48,-43.38 520.68,-28.7 551.47,-19.52"/>
<polygon fill="midnightblue" stroke="midnightblue" points="436.28,-50.23 427.7,-56.44 438.28,-56.94 436.28,-50.23"/>
</g>
<!-- Node12 -->
<g id="node12" class="node">
<title>Node12</title>
<g id="a_node12"><a xlink:href="configuration_8cpp.html" target="_top" xlink:title=" ">
<polygon fill="none" stroke="black" points="277.52,-0.5 277.52,-19.5 474.52,-19.5 474.52,-0.5 277.52,-0.5"/>
<text text-anchor="middle" x="376.02" y="-7.5" font-family="Helvetica,sans-Serif" font-size="10.00">HealthGPS.Console/configuration.cpp</text>
</a>
</g>
</g>
<!-- Node11&#45;&gt;Node12 -->
<g id="edge12" class="edge">
<title>Node11&#45;&gt;Node12</title>
<path fill="none" stroke="midnightblue" d="M391.22,-46.69C387.34,-37.59 382.84,-27.01 379.74,-19.75"/>
<polygon fill="midnightblue" stroke="midnightblue" points="388.08,-48.25 395.22,-56.08 394.52,-45.51 388.08,-48.25"/>
</g>
<!-- Node16&#45;&gt;Node6 -->
<g id="edge19" class="edge">
<title>Node16&#45;&gt;Node6</title>
<path fill="none" stroke="midnightblue" d="M561.02,-308.53C561.02,-281.81 561.02,-233.69 561.02,-209.78"/>
<polygon fill="midnightblue" stroke="midnightblue" points="557.52,-308.84 561.02,-318.84 564.52,-308.84 557.52,-308.84"/>
</g>
<!-- Node17 -->
<g id="node17" class="node">
<title>Node17</title>
<g id="a_node17"><a xlink:href="demographic_8cpp.html" target="_top" xlink:title=" ">
<polygon fill="none" stroke="black" points="377.52,-252 377.52,-271 532.52,-271 532.52,-252 377.52,-252"/>
<text text-anchor="middle" x="455.02" y="-259" font-family="Helvetica,sans-Serif" font-size="10.00">HealthGPS/demographic.cpp</text>
</a>
</g>
</g>
<!-- Node16&#45;&gt;Node17 -->
<g id="edge18" class="edge">
<title>Node16&#45;&gt;Node17</title>
<path fill="none" stroke="midnightblue" d="M538.09,-313.44C517.1,-300.57 486.7,-281.93 469.08,-271.13"/>
<polygon fill="midnightblue" stroke="midnightblue" points="536.37,-316.49 546.72,-318.73 540.02,-310.52 536.37,-316.49"/>
</g>
<!-- Node18&#45;&gt;Node6 -->
<g id="edge22" class="edge">
<title>Node18&#45;&gt;Node6</title>
<path fill="none" stroke="midnightblue" d="M720.85,-310.21C730.45,-292.45 740.96,-264.81 727.02,-246 703.16,-213.81 659.29,-201.44 622.63,-196.98"/>
<polygon fill="midnightblue" stroke="midnightblue" points="717.77,-308.54 715.77,-318.95 723.82,-312.06 717.77,-308.54"/>
</g>
<!-- Node19 -->
<g id="node19" class="node">
<title>Node19</title>
<g id="a_node19"><a xlink:href="disease_8cpp.html" target="_top" xlink:title=" ">
<polygon fill="none" stroke="black" points="589.52,-252 589.52,-271 718.52,-271 718.52,-252 589.52,-252"/>
<text text-anchor="middle" x="654.02" y="-259" font-family="Helvetica,sans-Serif" font-size="10.00">HealthGPS/disease.cpp</text>
</a>
</g>
</g>
<!-- Node18&#45;&gt;Node19 -->
<g id="edge21" class="edge">
<title>Node18&#45;&gt;Node19</title>
<path fill="none" stroke="midnightblue" d="M695.92,-311.13C684.96,-298.42 670.21,-281.3 661.45,-271.13"/>
<polygon fill="midnightblue" stroke="midnightblue" points="693.28,-313.44 702.46,-318.73 698.59,-308.87 693.28,-313.44"/>
</g>
<!-- Node23 -->
<g id="node23" class="node">
<title>Node23</title>
<g id="a_node23"><a xlink:href="riskfactor_8h.html" target="_top" xlink:title=" ">
<polygon fill="none" stroke="black" points="1097.02,-252 1097.02,-271 1223.02,-271 1223.02,-252 1097.02,-252"/>
<text text-anchor="middle" x="1160.02" y="-259" font-family="Helvetica,sans-Serif" font-size="10.00">HealthGPS/riskfactor.h</text>
</a>
</g>
</g>
<!-- Node22&#45;&gt;Node23 -->
<g id="edge27" class="edge">
<title>Node22&#45;&gt;Node23</title>
<path fill="none" stroke="midnightblue" d="M1160.02,-303.25C1160.02,-292.02 1160.02,-279.38 1160.02,-271.19"/>
<polygon fill="midnightblue" stroke="midnightblue" points="1156.52,-303.4 1160.02,-313.4 1163.52,-303.4 1156.52,-303.4"/>
</g>
<!-- Node25 -->
<g id="node25" class="node">
<title>Node25</title>
<g id="a_node25"><a xlink:href="riskfactor__adjustment_8cpp.html" target="_top" xlink:title=" ">
<polygon fill="none" stroke="black" points="961.02,-246.5 961.02,-276.5 1079.02,-276.5 1079.02,-246.5 961.02,-246.5"/>
<text text-anchor="start" x="969.02" y="-264.5" font-family="Helvetica,sans-Serif" font-size="10.00">HealthGPS/riskfactor</text>
<text text-anchor="middle" x="1020.02" y="-253.5" font-family="Helvetica,sans-Serif" font-size="10.00">_adjustment.cpp</text>
</a>
</g>
</g>
<!-- Node22&#45;&gt;Node25 -->
<g id="edge30" class="edge">
<title>Node22&#45;&gt;Node25</title>
<path fill="none" stroke="midnightblue" d="M1120.45,-309.13C1098.21,-298.8 1070.87,-286.11 1050.33,-276.58"/>
<polygon fill="midnightblue" stroke="midnightblue" points="1119.09,-312.36 1129.64,-313.4 1122.04,-306.01 1119.09,-312.36"/>
</g>
<!-- Node23&#45;&gt;Node6 -->
<g id="edge29" class="edge">
<title>Node23&#45;&gt;Node6</title>
<path fill="none" stroke="midnightblue" d="M1111.26,-249.97C1103.5,-248.5 1095.56,-247.12 1088.02,-246 920.5,-221.17 721.12,-205.92 622.53,-199.33"/>
<polygon fill="midnightblue" stroke="midnightblue" points="1110.8,-253.45 1121.28,-251.94 1112.14,-246.58 1110.8,-253.45"/>
</g>
<!-- Node24 -->
<g id="node24" class="node">
<title>Node24</title>
<g id="a_node24"><a xlink:href="riskfactor_8cpp.html" target="_top" xlink:title=" ">
<polygon fill="none" stroke="black" points="1091.52,-185 1091.52,-204 1228.52,-204 1228.52,-185 1091.52,-185"/>
<text text-anchor="middle" x="1160.02" y="-192" font-family="Helvetica,sans-Serif" font-size="10.00">HealthGPS/riskfactor.cpp</text>
</a>
</g>
</g>
<!-- Node23&#45;&gt;Node24 -->
<g id="edge28" class="edge">
<title>Node23&#45;&gt;Node24</title>
<path fill="none" stroke="midnightblue" d="M1160.02,-241.54C1160.02,-229.17 1160.02,-213.62 1160.02,-204.13"/>
<polygon fill="midnightblue" stroke="midnightblue" points="1156.52,-241.73 1160.02,-251.73 1163.52,-241.73 1156.52,-241.73"/>
</g>
</g>
</svg>
