<?xml version="1.0" encoding="UTF-8" standalone="no"?>
<!DOCTYPE svg PUBLIC "-//W3C//DTD SVG 1.1//EN"
 "http://www.w3.org/Graphics/SVG/1.1/DTD/svg11.dtd">
<!-- Generated by graphviz version 2.43.0 (0)
 -->
<!-- Title: HealthGPS/population.h Pages: 1 -->
<svg width="1722pt" height="464pt"
 viewBox="0.00 0.00 1721.56 464.00" xmlns="http://www.w3.org/2000/svg" xmlns:xlink="http://www.w3.org/1999/xlink">
<g id="graph0" class="graph" transform="scale(1 1) rotate(0) translate(4 460)">
<title>HealthGPS/population.h</title>
<!-- Node1 -->
<g id="node1" class="node">
<title>Node1</title>
<g id="a_node1"><a xlink:title=" ">
<polygon fill="#bfbfbf" stroke="black" points="635.06,-436.5 635.06,-455.5 767.06,-455.5 767.06,-436.5 635.06,-436.5"/>
<text text-anchor="middle" x="701.06" y="-443.5" font-family="Helvetica,sans-Serif" font-size="10.00">HealthGPS/population.h</text>
</a>
</g>
</g>
<!-- Node2 -->
<g id="node2" class="node">
<title>Node2</title>
<g id="a_node2"><a xlink:href="population_8cpp.html" target="_top" xlink:title=" ">
<polygon fill="none" stroke="black" points="544.56,-380.5 544.56,-399.5 687.56,-399.5 687.56,-380.5 544.56,-380.5"/>
<text text-anchor="middle" x="616.06" y="-387.5" font-family="Helvetica,sans-Serif" font-size="10.00">HealthGPS/population.cpp</text>
</a>
</g>
</g>
<!-- Node1&#45;&gt;Node2 -->
<g id="edge1" class="edge">
<title>Node1&#45;&gt;Node2</title>
<path fill="none" stroke="midnightblue" d="M678.87,-430.9C663.28,-421 642.93,-408.07 629.68,-399.65"/>
<polygon fill="midnightblue" stroke="midnightblue" points="677.09,-433.92 687.41,-436.32 680.84,-428.01 677.09,-433.92"/>
</g>
<!-- Node3 -->
<g id="node3" class="node">
<title>Node3</title>
<g id="a_node3"><a xlink:href="runtime__context_8h.html" target="_top" xlink:title=" ">
<polygon fill="none" stroke="black" points="705.56,-380.5 705.56,-399.5 866.56,-399.5 866.56,-380.5 705.56,-380.5"/>
<text text-anchor="middle" x="786.06" y="-387.5" font-family="Helvetica,sans-Serif" font-size="10.00">HealthGPS/runtime_context.h</text>
</a>
</g>
</g>
<!-- Node1&#45;&gt;Node3 -->
<g id="edge2" class="edge">
<title>Node1&#45;&gt;Node3</title>
<path fill="none" stroke="midnightblue" d="M723.26,-430.9C738.84,-421 759.19,-408.07 772.44,-399.65"/>
<polygon fill="midnightblue" stroke="midnightblue" points="721.28,-428.01 714.72,-436.32 725.04,-433.92 721.28,-428.01"/>
</g>
<!-- Node4 -->
<g id="node4" class="node">
<title>Node4</title>
<g id="a_node4"><a xlink:href="analysis__module_8h.html" target="_top" xlink:title=" ">
<polygon fill="none" stroke="black" points="30.06,-313.5 30.06,-343.5 142.06,-343.5 142.06,-313.5 30.06,-313.5"/>
<text text-anchor="start" x="38.06" y="-331.5" font-family="Helvetica,sans-Serif" font-size="10.00">HealthGPS/analysis</text>
<text text-anchor="middle" x="86.06" y="-320.5" font-family="Helvetica,sans-Serif" font-size="10.00">_module.h</text>
</a>
</g>
</g>
<!-- Node3&#45;&gt;Node4 -->
<g id="edge3" class="edge">
<title>Node3&#45;&gt;Node4</title>
<path fill="none" stroke="midnightblue" d="M694.93,-379.94C452.39,-360.42 388.06,-378.06 151.06,-344 148.2,-343.59 145.28,-343.12 142.33,-342.61"/>
<polygon fill="midnightblue" stroke="midnightblue" points="694.87,-383.45 705.12,-380.78 695.44,-376.47 694.87,-383.45"/>
</g>
<!-- Node9 -->
<g id="node9" class="node">
<title>Node9</title>
<g id="a_node9"><a xlink:href="healthgps_8h.html" target="_top" xlink:title=" ">
<polygon fill="none" stroke="black" points="308.06,-118 308.06,-137 436.06,-137 436.06,-118 308.06,-118"/>
<text text-anchor="middle" x="372.06" y="-125" font-family="Helvetica,sans-Serif" font-size="10.00">HealthGPS/healthgps.h</text>
</a>
</g>
</g>
<!-- Node3&#45;&gt;Node9 -->
<g id="edge25" class="edge">
<title>Node3&#45;&gt;Node9</title>
<path fill="none" stroke="midnightblue" d="M694.98,-380.2C602.56,-376.53 45.69,-369.97 21.06,-344 -8.91,-312.39 -4.38,-281.35 21.06,-246 86.57,-154.99 225.86,-133.46 307.91,-128.97"/>
<polygon fill="midnightblue" stroke="midnightblue" points="694.96,-383.71 705.12,-380.73 695.32,-376.72 694.96,-383.71"/>
</g>
<!-- Node14 -->
<g id="node14" class="node">
<title>Node14</title>
<g id="a_node14"><a xlink:href="default__cancer__model_8cpp.html" target="_top" xlink:title=" ">
<polygon fill="none" stroke="black" points="160.56,-313.5 160.56,-343.5 303.56,-343.5 303.56,-313.5 160.56,-313.5"/>
<text text-anchor="start" x="168.56" y="-331.5" font-family="Helvetica,sans-Serif" font-size="10.00">HealthGPS/default_cancer</text>
<text text-anchor="middle" x="232.06" y="-320.5" font-family="Helvetica,sans-Serif" font-size="10.00">_model.cpp</text>
</a>
</g>
</g>
<!-- Node3&#45;&gt;Node14 -->
<g id="edge15" class="edge">
<title>Node3&#45;&gt;Node14</title>
<path fill="none" stroke="midnightblue" d="M694.99,-379.91C523.74,-363.61 478.65,-366.86 312.06,-344 309.41,-343.64 306.7,-343.24 303.97,-342.83"/>
<polygon fill="midnightblue" stroke="midnightblue" points="694.82,-383.41 705.11,-380.88 695.49,-376.44 694.82,-383.41"/>
</g>
<!-- Node15 -->
<g id="node15" class="node">
<title>Node15</title>
<g id="a_node15"><a xlink:href="default__disease__model_8cpp.html" target="_top" xlink:title=" ">
<polygon fill="none" stroke="black" points="321.56,-313.5 321.56,-343.5 470.56,-343.5 470.56,-313.5 321.56,-313.5"/>
<text text-anchor="start" x="329.56" y="-331.5" font-family="Helvetica,sans-Serif" font-size="10.00">HealthGPS/default_disease</text>
<text text-anchor="middle" x="396.06" y="-320.5" font-family="Helvetica,sans-Serif" font-size="10.00">_model.cpp</text>
</a>
</g>
</g>
<!-- Node3&#45;&gt;Node15 -->
<g id="edge16" class="edge">
<title>Node3&#45;&gt;Node15</title>
<path fill="none" stroke="midnightblue" d="M714.96,-379.06C652.89,-370.25 560.43,-356.84 480.06,-344 476.99,-343.51 473.86,-343 470.7,-342.48"/>
<polygon fill="midnightblue" stroke="midnightblue" points="714.64,-382.55 725.03,-380.48 715.62,-375.61 714.64,-382.55"/>
</g>
<!-- Node16 -->
<g id="node16" class="node">
<title>Node16</title>
<g id="a_node16"><a xlink:href="demographic_8h.html" target="_top" xlink:title=" ">
<polygon fill="none" stroke="black" points="489.06,-319 489.06,-338 633.06,-338 633.06,-319 489.06,-319"/>
<text text-anchor="middle" x="561.06" y="-326" font-family="Helvetica,sans-Serif" font-size="10.00">HealthGPS/demographic.h</text>
</a>
</g>
</g>
<!-- Node3&#45;&gt;Node16 -->
<g id="edge17" class="edge">
<title>Node3&#45;&gt;Node16</title>
<path fill="none" stroke="midnightblue" d="M744.07,-377.9C700.37,-366.34 632.89,-348.5 593.24,-338.01"/>
<polygon fill="midnightblue" stroke="midnightblue" points="743.26,-381.3 753.83,-380.48 745.05,-374.53 743.26,-381.3"/>
</g>
<!-- Node18 -->
<g id="node18" class="node">
<title>Node18</title>
<g id="a_node18"><a xlink:href="HealthGPS_2disease_8h.html" target="_top" xlink:title=" ">
<polygon fill="none" stroke="black" points="651.06,-319 651.06,-338 769.06,-338 769.06,-319 651.06,-319"/>
<text text-anchor="middle" x="710.06" y="-326" font-family="Helvetica,sans-Serif" font-size="10.00">HealthGPS/disease.h</text>
</a>
</g>
</g>
<!-- Node3&#45;&gt;Node18 -->
<g id="edge20" class="edge">
<title>Node3&#45;&gt;Node18</title>
<path fill="none" stroke="midnightblue" d="M767.28,-374.29C752.7,-362.88 733,-347.46 720.93,-338.01"/>
<polygon fill="midnightblue" stroke="midnightblue" points="765.14,-377.07 775.17,-380.48 769.46,-371.55 765.14,-377.07"/>
</g>
<!-- Node20 -->
<g id="node20" class="node">
<title>Node20</title>
<g id="a_node20"><a xlink:href="energy__balance__hierarchical__model_8cpp.html" target="_top" xlink:title=" ">
<polygon fill="none" stroke="black" points="787.56,-313.5 787.56,-343.5 936.56,-343.5 936.56,-313.5 787.56,-313.5"/>
<text text-anchor="start" x="795.56" y="-331.5" font-family="Helvetica,sans-Serif" font-size="10.00">HealthGPS/energy_balance</text>
<text text-anchor="middle" x="862.06" y="-320.5" font-family="Helvetica,sans-Serif" font-size="10.00">_hierarchical_model.cpp</text>
</a>
</g>
</g>
<!-- Node3&#45;&gt;Node20 -->
<g id="edge23" class="edge">
<title>Node3&#45;&gt;Node20</title>
<path fill="none" stroke="midnightblue" d="M804.97,-374.2C816.96,-364.81 832.36,-352.75 844.15,-343.52"/>
<polygon fill="midnightblue" stroke="midnightblue" points="802.67,-371.55 796.95,-380.48 806.98,-377.07 802.67,-371.55"/>
</g>
<!-- Node21 -->
<g id="node21" class="node">
<title>Node21</title>
<g id="a_node21"><a xlink:href="energy__balance__model_8cpp.html" target="_top" xlink:title=" ">
<polygon fill="none" stroke="black" points="954.56,-313.5 954.56,-343.5 1103.56,-343.5 1103.56,-313.5 954.56,-313.5"/>
<text text-anchor="start" x="962.56" y="-331.5" font-family="Helvetica,sans-Serif" font-size="10.00">HealthGPS/energy_balance</text>
<text text-anchor="middle" x="1029.06" y="-320.5" font-family="Helvetica,sans-Serif" font-size="10.00">_model.cpp</text>
</a>
</g>
</g>
<!-- Node3&#45;&gt;Node21 -->
<g id="edge24" class="edge">
<title>Node3&#45;&gt;Node21</title>
<path fill="none" stroke="midnightblue" d="M830.8,-378.05C870.5,-368.33 928.71,-354.07 971.79,-343.52"/>
<polygon fill="midnightblue" stroke="midnightblue" points="829.76,-374.7 820.88,-380.48 831.42,-381.5 829.76,-374.7"/>
</g>
<!-- Node22 -->
<g id="node22" class="node">
<title>Node22</title>
<g id="a_node22"><a xlink:href="hierarchical__model__static_8cpp.html" target="_top" xlink:title=" ">
<polygon fill="none" stroke="black" points="1122.06,-313.5 1122.06,-343.5 1250.06,-343.5 1250.06,-313.5 1122.06,-313.5"/>
<text text-anchor="start" x="1130.06" y="-331.5" font-family="Helvetica,sans-Serif" font-size="10.00">HealthGPS/hierarchical</text>
<text text-anchor="middle" x="1186.06" y="-320.5" font-family="Helvetica,sans-Serif" font-size="10.00">_model_static.cpp</text>
</a>
</g>
</g>
<!-- Node3&#45;&gt;Node22 -->
<g id="edge26" class="edge">
<title>Node3&#45;&gt;Node22</title>
<path fill="none" stroke="midnightblue" d="M866.12,-379.23C932.23,-370.85 1028.44,-357.95 1112.06,-344 1115.29,-343.46 1118.59,-342.89 1121.93,-342.3"/>
<polygon fill="midnightblue" stroke="midnightblue" points="865.67,-375.76 856.19,-380.48 866.55,-382.7 865.67,-375.76"/>
</g>
<!-- Node23 -->
<g id="node23" class="node">
<title>Node23</title>
<g id="a_node23"><a xlink:href="riskfactor__adjustment_8h.html" target="_top" xlink:title=" ">
<polygon fill="none" stroke="black" points="1268.06,-313.5 1268.06,-343.5 1386.06,-343.5 1386.06,-313.5 1268.06,-313.5"/>
<text text-anchor="start" x="1276.06" y="-331.5" font-family="Helvetica,sans-Serif" font-size="10.00">HealthGPS/riskfactor</text>
<text text-anchor="middle" x="1327.06" y="-320.5" font-family="Helvetica,sans-Serif" font-size="10.00">_adjustment.h</text>
</a>
</g>
</g>
<!-- Node3&#45;&gt;Node23 -->
<g id="edge27" class="edge">
<title>Node3&#45;&gt;Node23</title>
<path fill="none" stroke="midnightblue" d="M876.96,-383.47C972.47,-376.94 1126.9,-364.31 1259.06,-344 1261.93,-343.56 1264.85,-343.08 1267.8,-342.56"/>
<polygon fill="midnightblue" stroke="midnightblue" points="876.5,-380 866.76,-384.16 876.97,-386.98 876.5,-380"/>
</g>
<!-- Node27 -->
<g id="node27" class="node">
<title>Node27</title>
<g id="a_node27"><a xlink:href="runtime__context_8cpp.html" target="_top" xlink:title=" ">
<polygon fill="none" stroke="black" points="1404.06,-319 1404.06,-338 1576.06,-338 1576.06,-319 1404.06,-319"/>
<text text-anchor="middle" x="1490.06" y="-326" font-family="Helvetica,sans-Serif" font-size="10.00">HealthGPS/runtime_context.cpp</text>
</a>
</g>
</g>
<!-- Node3&#45;&gt;Node27 -->
<g id="edge32" class="edge">
<title>Node3&#45;&gt;Node27</title>
<path fill="none" stroke="midnightblue" d="M877.21,-384.48C996.46,-378.06 1211.83,-364.72 1395.06,-344 1409.32,-342.39 1424.72,-340.22 1438.88,-338.06"/>
<polygon fill="midnightblue" stroke="midnightblue" points="876.83,-380.99 867.03,-385.02 877.2,-387.98 876.83,-380.99"/>
</g>
<!-- Node28 -->
<g id="node28" class="node">
<title>Node28</title>
<g id="a_node28"><a xlink:href="ses__noise__module_8cpp.html" target="_top" xlink:title=" ">
<polygon fill="none" stroke="black" points="1594.56,-313.5 1594.56,-343.5 1713.56,-343.5 1713.56,-313.5 1594.56,-313.5"/>
<text text-anchor="start" x="1602.56" y="-331.5" font-family="Helvetica,sans-Serif" font-size="10.00">HealthGPS/ses_noise</text>
<text text-anchor="middle" x="1654.06" y="-320.5" font-family="Helvetica,sans-Serif" font-size="10.00">_module.cpp</text>
</a>
</g>
</g>
<!-- Node3&#45;&gt;Node28 -->
<g id="edge33" class="edge">
<title>Node3&#45;&gt;Node28</title>
<path fill="none" stroke="midnightblue" d="M877.11,-388.33C1025.87,-386.24 1330.01,-377.79 1585.06,-344 1588.1,-343.6 1591.2,-343.14 1594.32,-342.63"/>
<polygon fill="midnightblue" stroke="midnightblue" points="876.63,-384.84 866.67,-388.47 876.72,-391.84 876.63,-384.84"/>
</g>
<!-- Node5 -->
<g id="node5" class="node">
<title>Node5</title>
<g id="a_node5"><a xlink:href="analysis__module_8cpp.html" target="_top" xlink:title=" ">
<polygon fill="none" stroke="black" points="30.06,-246.5 30.06,-276.5 142.06,-276.5 142.06,-246.5 30.06,-246.5"/>
<text text-anchor="start" x="38.06" y="-264.5" font-family="Helvetica,sans-Serif" font-size="10.00">HealthGPS/analysis</text>
<text text-anchor="middle" x="86.06" y="-253.5" font-family="Helvetica,sans-Serif" font-size="10.00">_module.cpp</text>
</a>
</g>
</g>
<!-- Node4&#45;&gt;Node5 -->
<g id="edge4" class="edge">
<title>Node4&#45;&gt;Node5</title>
<path fill="none" stroke="midnightblue" d="M86.06,-303.11C86.06,-294.15 86.06,-284.32 86.06,-276.58"/>
<polygon fill="midnightblue" stroke="midnightblue" points="82.56,-303.4 86.06,-313.4 89.56,-303.4 82.56,-303.4"/>
</g>
<!-- Node6 -->
<g id="node6" class="node">
<title>Node6</title>
<g id="a_node6"><a xlink:href="simulation__module_8h.html" target="_top" xlink:title=" ">
<polygon fill="none" stroke="black" points="499.56,-179.5 499.56,-209.5 622.56,-209.5 622.56,-179.5 499.56,-179.5"/>
<text text-anchor="start" x="507.56" y="-197.5" font-family="Helvetica,sans-Serif" font-size="10.00">HealthGPS/simulation</text>
<text text-anchor="middle" x="561.06" y="-186.5" font-family="Helvetica,sans-Serif" font-size="10.00">_module.h</text>
</a>
</g>
</g>
<!-- Node4&#45;&gt;Node6 -->
<g id="edge5" class="edge">
<title>Node4&#45;&gt;Node6</title>
<path fill="none" stroke="midnightblue" d="M143.24,-310.51C200.13,-293.72 289.96,-267.5 368.06,-246 414.31,-233.27 467.01,-219.53 505.64,-209.6"/>
<polygon fill="midnightblue" stroke="midnightblue" points="141.96,-307.24 133.36,-313.43 143.94,-313.96 141.96,-307.24"/>
</g>
<!-- Node7 -->
<g id="node7" class="node">
<title>Node7</title>
<g id="a_node7"><a xlink:href="HealthGPS_2api_8h.html" target="_top" xlink:title=" ">
<polygon fill="none" stroke="black" points="532.56,-56.5 532.56,-75.5 627.56,-75.5 627.56,-56.5 532.56,-56.5"/>
<text text-anchor="middle" x="580.06" y="-63.5" font-family="Helvetica,sans-Serif" font-size="10.00">HealthGPS/api.h</text>
</a>
</g>
</g>
<!-- Node6&#45;&gt;Node7 -->
<g id="edge6" class="edge">
<title>Node6&#45;&gt;Node7</title>
<path fill="none" stroke="midnightblue" d="M575.27,-170.41C579.63,-162.08 583.86,-152.41 586.06,-143 591.67,-119.03 585.96,-89.77 582.42,-75.56"/>
<polygon fill="midnightblue" stroke="midnightblue" points="572.21,-168.72 570.39,-179.15 578.32,-172.13 572.21,-168.72"/>
</g>
<!-- Node6&#45;&gt;Node9 -->
<g id="edge8" class="edge">
<title>Node6&#45;&gt;Node9</title>
<path fill="none" stroke="midnightblue" d="M510.49,-176.11C473.72,-163.46 425.54,-146.89 396.8,-137.01"/>
<polygon fill="midnightblue" stroke="midnightblue" points="509.46,-179.45 520.05,-179.4 511.73,-172.83 509.46,-179.45"/>
</g>
<!-- Node13 -->
<g id="node13" class="node">
<title>Node13</title>
<g id="a_node13"><a xlink:href="simulation__module_8cpp.html" target="_top" xlink:title=" ">
<polygon fill="none" stroke="black" points="454.56,-112.5 454.56,-142.5 577.56,-142.5 577.56,-112.5 454.56,-112.5"/>
<text text-anchor="start" x="462.56" y="-130.5" font-family="Helvetica,sans-Serif" font-size="10.00">HealthGPS/simulation</text>
<text text-anchor="middle" x="516.06" y="-119.5" font-family="Helvetica,sans-Serif" font-size="10.00">_module.cpp</text>
</a>
</g>
</g>
<!-- Node6&#45;&gt;Node13 -->
<g id="edge14" class="edge">
<title>Node6&#45;&gt;Node13</title>
<path fill="none" stroke="midnightblue" d="M545.59,-171.16C539.03,-161.68 531.58,-150.92 525.81,-142.58"/>
<polygon fill="midnightblue" stroke="midnightblue" points="542.73,-173.17 551.3,-179.4 548.48,-169.18 542.73,-173.17"/>
</g>
<!-- Node8 -->
<g id="node8" class="node">
<title>Node8</title>
<g id="a_node8"><a xlink:href="program_8cpp.html" target="_top" xlink:title=" ">
<polygon fill="none" stroke="black" points="492.56,-0.5 492.56,-19.5 667.56,-19.5 667.56,-0.5 492.56,-0.5"/>
<text text-anchor="middle" x="580.06" y="-7.5" font-family="Helvetica,sans-Serif" font-size="10.00">HealthGPS.Console/program.cpp</text>
</a>
</g>
</g>
<!-- Node7&#45;&gt;Node8 -->
<g id="edge7" class="edge">
<title>Node7&#45;&gt;Node8</title>
<path fill="none" stroke="midnightblue" d="M580.06,-45.8C580.06,-36.91 580.06,-26.78 580.06,-19.75"/>
<polygon fill="midnightblue" stroke="midnightblue" points="576.56,-46.08 580.06,-56.08 583.56,-46.08 576.56,-46.08"/>
</g>
<!-- Node9&#45;&gt;Node7 -->
<g id="edge9" class="edge">
<title>Node9&#45;&gt;Node7</title>
<path fill="none" stroke="midnightblue" d="M411.65,-115.18C452.07,-103.61 513.89,-85.93 550.32,-75.51"/>
<polygon fill="midnightblue" stroke="midnightblue" points="410.52,-111.86 401.86,-117.98 412.44,-118.59 410.52,-111.86"/>
</g>
<!-- Node10 -->
<g id="node10" class="node">
<title>Node10</title>
<g id="a_node10"><a xlink:href="healthgps_8cpp.html" target="_top" xlink:title=" ">
<polygon fill="none" stroke="black" points="148.06,-56.5 148.06,-75.5 288.06,-75.5 288.06,-56.5 148.06,-56.5"/>
<text text-anchor="middle" x="218.06" y="-63.5" font-family="Helvetica,sans-Serif" font-size="10.00">HealthGPS/healthgps.cpp</text>
</a>
</g>
</g>
<!-- Node9&#45;&gt;Node10 -->
<g id="edge10" class="edge">
<title>Node9&#45;&gt;Node10</title>
<path fill="none" stroke="midnightblue" d="M340.44,-114.28C310.51,-102.72 266.37,-85.66 240.09,-75.51"/>
<polygon fill="midnightblue" stroke="midnightblue" points="339.41,-117.64 350,-117.98 341.93,-111.11 339.41,-117.64"/>
</g>
<!-- Node11 -->
<g id="node11" class="node">
<title>Node11</title>
<g id="a_node11"><a xlink:href="configuration_8h.html" target="_top" xlink:title=" ">
<polygon fill="none" stroke="black" points="306.06,-56.5 306.06,-75.5 492.06,-75.5 492.06,-56.5 306.06,-56.5"/>
<text text-anchor="middle" x="399.06" y="-63.5" font-family="Helvetica,sans-Serif" font-size="10.00">HealthGPS.Console/configuration.h</text>
</a>
</g>
</g>
<!-- Node9&#45;&gt;Node11 -->
<g id="edge11" class="edge">
<title>Node9&#45;&gt;Node11</title>
<path fill="none" stroke="midnightblue" d="M380.08,-108.83C385.07,-97.83 391.27,-84.16 395.2,-75.51"/>
<polygon fill="midnightblue" stroke="midnightblue" points="376.88,-107.42 375.93,-117.98 383.25,-110.32 376.88,-107.42"/>
</g>
<!-- Node11&#45;&gt;Node8 -->
<g id="edge13" class="edge">
<title>Node11&#45;&gt;Node8</title>
<path fill="none" stroke="midnightblue" d="M437.38,-53.57C471.53,-43.38 520.72,-28.7 551.52,-19.52"/>
<polygon fill="midnightblue" stroke="midnightblue" points="436.32,-50.23 427.74,-56.44 438.33,-56.94 436.32,-50.23"/>
</g>
<!-- Node12 -->
<g id="node12" class="node">
<title>Node12</title>
<g id="a_node12"><a xlink:href="configuration_8cpp.html" target="_top" xlink:title=" ">
<polygon fill="none" stroke="black" points="277.56,-0.5 277.56,-19.5 474.56,-19.5 474.56,-0.5 277.56,-0.5"/>
<text text-anchor="middle" x="376.06" y="-7.5" font-family="Helvetica,sans-Serif" font-size="10.00">HealthGPS.Console/configuration.cpp</text>
</a>
</g>
</g>
<!-- Node11&#45;&gt;Node12 -->
<g id="edge12" class="edge">
<title>Node11&#45;&gt;Node12</title>
<path fill="none" stroke="midnightblue" d="M391.26,-46.69C387.39,-37.59 382.88,-27.01 379.79,-19.75"/>
<polygon fill="midnightblue" stroke="midnightblue" points="388.13,-48.25 395.26,-56.08 394.57,-45.51 388.13,-48.25"/>
</g>
<!-- Node16&#45;&gt;Node6 -->
<g id="edge19" class="edge">
<title>Node16&#45;&gt;Node6</title>
<path fill="none" stroke="midnightblue" d="M561.06,-308.53C561.06,-281.81 561.06,-233.69 561.06,-209.78"/>
<polygon fill="midnightblue" stroke="midnightblue" points="557.56,-308.84 561.06,-318.84 564.56,-308.84 557.56,-308.84"/>
</g>
<!-- Node17 -->
<g id="node17" class="node">
<title>Node17</title>
<g id="a_node17"><a xlink:href="demographic_8cpp.html" target="_top" xlink:title=" ">
<polygon fill="none" stroke="black" points="377.56,-252 377.56,-271 532.56,-271 532.56,-252 377.56,-252"/>
<text text-anchor="middle" x="455.06" y="-259" font-family="Helvetica,sans-Serif" font-size="10.00">HealthGPS/demographic.cpp</text>
</a>
</g>
</g>
<!-- Node16&#45;&gt;Node17 -->
<g id="edge18" class="edge">
<title>Node16&#45;&gt;Node17</title>
<path fill="none" stroke="midnightblue" d="M538.14,-313.44C517.14,-300.57 486.74,-281.93 469.13,-271.13"/>
<polygon fill="midnightblue" stroke="midnightblue" points="536.41,-316.49 546.77,-318.73 540.07,-310.52 536.41,-316.49"/>
</g>
<!-- Node18&#45;&gt;Node6 -->
<g id="edge22" class="edge">
<title>Node18&#45;&gt;Node6</title>
<path fill="none" stroke="midnightblue" d="M720.89,-310.21C730.49,-292.45 741,-264.81 727.06,-246 703.21,-213.81 659.33,-201.44 622.68,-196.98"/>
<polygon fill="midnightblue" stroke="midnightblue" points="717.82,-308.54 715.82,-318.95 723.87,-312.06 717.82,-308.54"/>
</g>
<!-- Node19 -->
<g id="node19" class="node">
<title>Node19</title>
<g id="a_node19"><a xlink:href="disease_8cpp.html" target="_top" xlink:title=" ">
<polygon fill="none" stroke="black" points="589.56,-252 589.56,-271 718.56,-271 718.56,-252 589.56,-252"/>
<text text-anchor="middle" x="654.06" y="-259" font-family="Helvetica,sans-Serif" font-size="10.00">HealthGPS/disease.cpp</text>
</a>
</g>
</g>
<!-- Node18&#45;&gt;Node19 -->
<g id="edge21" class="edge">
<title>Node18&#45;&gt;Node19</title>
<path fill="none" stroke="midnightblue" d="M695.96,-311.13C685.01,-298.42 670.26,-281.3 661.49,-271.13"/>
<polygon fill="midnightblue" stroke="midnightblue" points="693.33,-313.44 702.51,-318.73 698.63,-308.87 693.33,-313.44"/>
</g>
<!-- Node24 -->
<g id="node24" class="node">
<title>Node24</title>
<g id="a_node24"><a xlink:href="riskfactor_8h.html" target="_top" xlink:title=" ">
<polygon fill="none" stroke="black" points="1264.06,-252 1264.06,-271 1390.06,-271 1390.06,-252 1264.06,-252"/>
<text text-anchor="middle" x="1327.06" y="-259" font-family="Helvetica,sans-Serif" font-size="10.00">HealthGPS/riskfactor.h</text>
</a>
</g>
</g>
<!-- Node23&#45;&gt;Node24 -->
<g id="edge28" class="edge">
<title>Node23&#45;&gt;Node24</title>
<path fill="none" stroke="midnightblue" d="M1327.06,-303.25C1327.06,-292.02 1327.06,-279.38 1327.06,-271.19"/>
<polygon fill="midnightblue" stroke="midnightblue" points="1323.56,-303.4 1327.06,-313.4 1330.56,-303.4 1323.56,-303.4"/>
</g>
<!-- Node26 -->
<g id="node26" class="node">
<title>Node26</title>
<g id="a_node26"><a xlink:href="riskfactor__adjustment_8cpp.html" target="_top" xlink:title=" ">
<polygon fill="none" stroke="black" points="1128.06,-246.5 1128.06,-276.5 1246.06,-276.5 1246.06,-246.5 1128.06,-246.5"/>
<text text-anchor="start" x="1136.06" y="-264.5" font-family="Helvetica,sans-Serif" font-size="10.00">HealthGPS/riskfactor</text>
<text text-anchor="middle" x="1187.06" y="-253.5" font-family="Helvetica,sans-Serif" font-size="10.00">_adjustment.cpp</text>
</a>
</g>
</g>
<!-- Node23&#45;&gt;Node26 -->
<g id="edge31" class="edge">
<title>Node23&#45;&gt;Node26</title>
<path fill="none" stroke="midnightblue" d="M1287.5,-309.13C1265.25,-298.8 1237.91,-286.11 1217.38,-276.58"/>
<polygon fill="midnightblue" stroke="midnightblue" points="1286.14,-312.36 1296.68,-313.4 1289.09,-306.01 1286.14,-312.36"/>
</g>
<!-- Node24&#45;&gt;Node6 -->
<g id="edge30" class="edge">
<title>Node24&#45;&gt;Node6</title>
<path fill="none" stroke="midnightblue" d="M1279.41,-250.02C1271.31,-248.5 1262.97,-247.08 1255.06,-246 1022.86,-214.3 744.04,-201.64 622.6,-197.37"/>
<polygon fill="midnightblue" stroke="midnightblue" points="1278.99,-253.51 1289.47,-252 1280.33,-246.64 1278.99,-253.51"/>
</g>
<!-- Node25 -->
<g id="node25" class="node">
<title>Node25</title>
<g id="a_node25"><a xlink:href="riskfactor_8cpp.html" target="_top" xlink:title=" ">
<polygon fill="none" stroke="black" points="1258.56,-185 1258.56,-204 1395.56,-204 1395.56,-185 1258.56,-185"/>
<text text-anchor="middle" x="1327.06" y="-192" font-family="Helvetica,sans-Serif" font-size="10.00">HealthGPS/riskfactor.cpp</text>
</a>
</g>
</g>
<!-- Node24&#45;&gt;Node25 -->
<g id="edge29" class="edge">
<title>Node24&#45;&gt;Node25</title>
<path fill="none" stroke="midnightblue" d="M1327.06,-241.54C1327.06,-229.17 1327.06,-213.62 1327.06,-204.13"/>
<polygon fill="midnightblue" stroke="midnightblue" points="1323.56,-241.73 1327.06,-251.73 1330.56,-241.73 1323.56,-241.73"/>
</g>
</g>
</svg>
