<?xml version="1.0" encoding="UTF-8" standalone="no"?>
<!DOCTYPE svg PUBLIC "-//W3C//DTD SVG 1.1//EN"
 "http://www.w3.org/Graphics/SVG/1.1/DTD/svg11.dtd">
<!-- Generated by graphviz version 7.0.6 (20230106.0513)
 -->
<!-- Title: HealthGPS/population.h Pages: 1 -->
<svg width="1448pt" height="456pt"
 viewBox="0.00 0.00 1447.95 456.00" xmlns="http://www.w3.org/2000/svg" xmlns:xlink="http://www.w3.org/1999/xlink">
<g id="graph0" class="graph" transform="scale(1 1) rotate(0) translate(4 452)">
<title>HealthGPS/population.h</title>
<!-- Node1 -->
<g id="node1" class="node">
<title>Node1</title>
<g id="a_node1"><a xlink:title=" ">
<polygon fill="#999999" stroke="#666666" points="641.95,-448 520.95,-448 520.95,-429 641.95,-429 641.95,-448"/>
<text text-anchor="middle" x="581.45" y="-436" font-family="Helvetica,sans-Serif" font-size="10.00">HealthGPS/population.h</text>
</a>
</g>
</g>
<!-- Node2 -->
<g id="node2" class="node">
<title>Node2</title>
<g id="a_node2"><a xlink:href="population_8cpp.html" target="_top" xlink:title=" ">
<polygon fill="white" stroke="#666666" points="568.95,-393 437.95,-393 437.95,-374 568.95,-374 568.95,-393"/>
<text text-anchor="middle" x="503.45" y="-381" font-family="Helvetica,sans-Serif" font-size="10.00">HealthGPS/population.cpp</text>
</a>
</g>
</g>
<!-- Node1&#45;&gt;Node2 -->
<g id="edge1" class="edge">
<title>Node1&#45;&gt;Node2</title>
<path fill="none" stroke="#63b8ff" d="M558.91,-422.19C545.15,-412.84 528.03,-401.21 516.48,-393.36"/>
<polygon fill="#63b8ff" stroke="#63b8ff" points="556.73,-424.93 566.96,-427.66 560.66,-419.14 556.73,-424.93"/>
</g>
<!-- Node3 -->
<g id="node3" class="node">
<title>Node3</title>
<g id="a_node3"><a xlink:href="runtime__context_8h.html" target="_top" xlink:title=" ">
<polygon fill="white" stroke="#666666" points="733.45,-393 587.45,-393 587.45,-374 733.45,-374 733.45,-393"/>
<text text-anchor="middle" x="660.45" y="-381" font-family="Helvetica,sans-Serif" font-size="10.00">HealthGPS/runtime_context.h</text>
</a>
</g>
</g>
<!-- Node1&#45;&gt;Node3 -->
<g id="edge2" class="edge">
<title>Node1&#45;&gt;Node3</title>
<path fill="none" stroke="#63b8ff" d="M604.27,-422.19C618.21,-412.84 635.55,-401.21 647.24,-393.36"/>
<polygon fill="#63b8ff" stroke="#63b8ff" points="602.46,-419.19 596.11,-427.67 606.36,-425 602.46,-419.19"/>
</g>
<!-- Node4 -->
<g id="node4" class="node">
<title>Node4</title>
<g id="a_node4"><a xlink:href="analysis__module_8h.html" target="_top" xlink:title=" ">
<polygon fill="white" stroke="#666666" points="133.45,-338 29.45,-338 29.45,-308 133.45,-308 133.45,-338"/>
<text text-anchor="start" x="37.45" y="-326" font-family="Helvetica,sans-Serif" font-size="10.00">HealthGPS/analysis</text>
<text text-anchor="middle" x="81.45" y="-315" font-family="Helvetica,sans-Serif" font-size="10.00">_module.h</text>
</a>
</g>
</g>
<!-- Node3&#45;&gt;Node4 -->
<g id="edge3" class="edge">
<title>Node3&#45;&gt;Node4</title>
<path fill="none" stroke="#63b8ff" d="M575.71,-373.87C382.32,-356.55 330.49,-367.21 142.45,-338 139.66,-337.57 136.8,-337.08 133.93,-336.55"/>
<polygon fill="#63b8ff" stroke="#63b8ff" points="575.35,-377.35 585.63,-374.78 575.99,-370.38 575.35,-377.35"/>
</g>
<!-- Node9 -->
<g id="node9" class="node">
<title>Node9</title>
<g id="a_node9"><a xlink:href="healthgps_8h.html" target="_top" xlink:title=" ">
<polygon fill="white" stroke="#666666" points="404.95,-134.5 285.95,-134.5 285.95,-115.5 404.95,-115.5 404.95,-134.5"/>
<text text-anchor="middle" x="345.45" y="-122.5" font-family="Helvetica,sans-Serif" font-size="10.00">HealthGPS/healthgps.h</text>
</a>
</g>
</g>
<!-- Node3&#45;&gt;Node9 -->
<g id="edge24" class="edge">
<title>Node3&#45;&gt;Node9</title>
<path fill="none" stroke="#63b8ff" d="M575.88,-374.18C477.49,-369.97 61.04,-381.3 20.45,-338 -8.73,-306.87 -4.13,-276.87 20.45,-242 80.59,-156.67 209.43,-133.76 285.59,-127.83"/>
<polygon fill="#63b8ff" stroke="#63b8ff" points="575.44,-377.66 585.63,-374.75 575.86,-370.67 575.44,-377.66"/>
</g>
<!-- Node14 -->
<g id="node14" class="node">
<title>Node14</title>
<g id="a_node14"><a xlink:href="default__cancer__model_8cpp.html" target="_top" xlink:title=" ">
<polygon fill="white" stroke="#666666" points="282.95,-338 151.95,-338 151.95,-308 282.95,-308 282.95,-338"/>
<text text-anchor="start" x="159.95" y="-326" font-family="Helvetica,sans-Serif" font-size="10.00">HealthGPS/default_cancer</text>
<text text-anchor="middle" x="217.45" y="-315" font-family="Helvetica,sans-Serif" font-size="10.00">_model.cpp</text>
</a>
</g>
</g>
<!-- Node3&#45;&gt;Node14 -->
<g id="edge15" class="edge">
<title>Node3&#45;&gt;Node14</title>
<path fill="none" stroke="#63b8ff" d="M576.09,-373.86C501.36,-365.83 389.4,-352.9 292.45,-338 289.44,-337.54 286.36,-337.04 283.26,-336.53"/>
<polygon fill="#63b8ff" stroke="#63b8ff" points="575.47,-377.31 585.79,-374.89 576.22,-370.35 575.47,-377.31"/>
</g>
<!-- Node15 -->
<g id="node15" class="node">
<title>Node15</title>
<g id="a_node15"><a xlink:href="default__disease__model_8cpp.html" target="_top" xlink:title=" ">
<polygon fill="white" stroke="#666666" points="437.45,-338 301.45,-338 301.45,-308 437.45,-308 437.45,-338"/>
<text text-anchor="start" x="309.45" y="-326" font-family="Helvetica,sans-Serif" font-size="10.00">HealthGPS/default_disease</text>
<text text-anchor="middle" x="369.45" y="-315" font-family="Helvetica,sans-Serif" font-size="10.00">_model.cpp</text>
</a>
</g>
</g>
<!-- Node3&#45;&gt;Node15 -->
<g id="edge16" class="edge">
<title>Node3&#45;&gt;Node15</title>
<path fill="none" stroke="#63b8ff" d="M604.92,-371.34C557.36,-361.78 488.69,-347.97 437.77,-337.73"/>
<polygon fill="#63b8ff" stroke="#63b8ff" points="603.96,-374.71 614.45,-373.25 605.34,-367.85 603.96,-374.71"/>
</g>
<!-- Node16 -->
<g id="node16" class="node">
<title>Node16</title>
<g id="a_node16"><a xlink:href="demographic_8h.html" target="_top" xlink:title=" ">
<polygon fill="white" stroke="#666666" points="587.45,-332.5 455.45,-332.5 455.45,-313.5 587.45,-313.5 587.45,-332.5"/>
<text text-anchor="middle" x="521.45" y="-320.5" font-family="Helvetica,sans-Serif" font-size="10.00">HealthGPS/demographic.h</text>
</a>
</g>
</g>
<!-- Node3&#45;&gt;Node16 -->
<g id="edge17" class="edge">
<title>Node3&#45;&gt;Node16</title>
<path fill="none" stroke="#63b8ff" d="M628.76,-369.16C602.43,-358.08 565.7,-342.62 542.76,-332.97"/>
<polygon fill="#63b8ff" stroke="#63b8ff" points="627.37,-372.37 637.94,-373.03 630.08,-365.92 627.37,-372.37"/>
</g>
<!-- Node18 -->
<g id="node18" class="node">
<title>Node18</title>
<g id="a_node18"><a xlink:href="_health_g_p_s_2disease_8h.html" target="_top" xlink:title=" ">
<polygon fill="white" stroke="#666666" points="715.45,-332.5 605.45,-332.5 605.45,-313.5 715.45,-313.5 715.45,-332.5"/>
<text text-anchor="middle" x="660.45" y="-320.5" font-family="Helvetica,sans-Serif" font-size="10.00">HealthGPS/disease.h</text>
</a>
</g>
</g>
<!-- Node3&#45;&gt;Node18 -->
<g id="edge20" class="edge">
<title>Node3&#45;&gt;Node18</title>
<path fill="none" stroke="#63b8ff" d="M660.45,-362.66C660.45,-352.45 660.45,-340.54 660.45,-332.67"/>
<polygon fill="#63b8ff" stroke="#63b8ff" points="656.95,-362.35 660.45,-372.35 663.95,-362.35 656.95,-362.35"/>
</g>
<!-- Node20 -->
<g id="node20" class="node">
<title>Node20</title>
<g id="a_node20"><a xlink:href="energy__balance__model_8cpp.html" target="_top" xlink:title=" ">
<polygon fill="white" stroke="#666666" points="870.95,-338 733.95,-338 733.95,-308 870.95,-308 870.95,-338"/>
<text text-anchor="start" x="741.95" y="-326" font-family="Helvetica,sans-Serif" font-size="10.00">HealthGPS/energy_balance</text>
<text text-anchor="middle" x="802.45" y="-315" font-family="Helvetica,sans-Serif" font-size="10.00">_model.cpp</text>
</a>
</g>
</g>
<!-- Node3&#45;&gt;Node20 -->
<g id="edge23" class="edge">
<title>Node3&#45;&gt;Node20</title>
<path fill="none" stroke="#63b8ff" d="M692.61,-369.25C714.88,-360.08 744.52,-347.86 767.4,-338.44"/>
<polygon fill="#63b8ff" stroke="#63b8ff" points="691.33,-365.99 683.41,-373.04 693.99,-372.47 691.33,-365.99"/>
</g>
<!-- Node21 -->
<g id="node21" class="node">
<title>Node21</title>
<g id="a_node21"><a xlink:href="hierarchical__model__static_8cpp.html" target="_top" xlink:title=" ">
<polygon fill="white" stroke="#666666" points="1007.45,-338 889.45,-338 889.45,-308 1007.45,-308 1007.45,-338"/>
<text text-anchor="start" x="897.45" y="-326" font-family="Helvetica,sans-Serif" font-size="10.00">HealthGPS/hierarchical</text>
<text text-anchor="middle" x="948.45" y="-315" font-family="Helvetica,sans-Serif" font-size="10.00">_model_static.cpp</text>
</a>
</g>
</g>
<!-- Node3&#45;&gt;Node21 -->
<g id="edge25" class="edge">
<title>Node3&#45;&gt;Node21</title>
<path fill="none" stroke="#63b8ff" d="M715.68,-371.28C765.38,-361.18 838.23,-346.39 889.15,-336.04"/>
<polygon fill="#63b8ff" stroke="#63b8ff" points="715.09,-367.83 705.99,-373.25 716.48,-374.69 715.09,-367.83"/>
</g>
<!-- Node22 -->
<g id="node22" class="node">
<title>Node22</title>
<g id="a_node22"><a xlink:href="riskfactor__adjustment_8h.html" target="_top" xlink:title=" ">
<polygon fill="white" stroke="#666666" points="1133.45,-338 1025.45,-338 1025.45,-308 1133.45,-308 1133.45,-338"/>
<text text-anchor="start" x="1033.45" y="-326" font-family="Helvetica,sans-Serif" font-size="10.00">HealthGPS/riskfactor</text>
<text text-anchor="middle" x="1079.45" y="-315" font-family="Helvetica,sans-Serif" font-size="10.00">_adjustment.h</text>
</a>
</g>
</g>
<!-- Node3&#45;&gt;Node22 -->
<g id="edge26" class="edge">
<title>Node3&#45;&gt;Node22</title>
<path fill="none" stroke="#63b8ff" d="M745.01,-374.2C817.35,-366.56 924.11,-353.99 1016.45,-338 1019.32,-337.5 1022.26,-336.96 1025.22,-336.39"/>
<polygon fill="#63b8ff" stroke="#63b8ff" points="744.79,-370.7 735.21,-375.23 745.52,-377.67 744.79,-370.7"/>
</g>
<!-- Node26 -->
<g id="node26" class="node">
<title>Node26</title>
<g id="a_node26"><a xlink:href="runtime__context_8cpp.html" target="_top" xlink:title=" ">
<polygon fill="white" stroke="#666666" points="1308.95,-332.5 1151.95,-332.5 1151.95,-313.5 1308.95,-313.5 1308.95,-332.5"/>
<text text-anchor="middle" x="1230.45" y="-320.5" font-family="Helvetica,sans-Serif" font-size="10.00">HealthGPS/runtime_context.cpp</text>
</a>
</g>
</g>
<!-- Node3&#45;&gt;Node26 -->
<g id="edge31" class="edge">
<title>Node3&#45;&gt;Node26</title>
<path fill="none" stroke="#63b8ff" d="M745.12,-376.38C841.52,-369.01 1003.63,-355.43 1142.45,-338 1153.96,-336.55 1166.28,-334.75 1177.95,-332.93"/>
<polygon fill="#63b8ff" stroke="#63b8ff" points="744.91,-372.88 735.2,-377.13 745.44,-379.86 744.91,-372.88"/>
</g>
<!-- Node27 -->
<g id="node27" class="node">
<title>Node27</title>
<g id="a_node27"><a xlink:href="ses__noise__module_8cpp.html" target="_top" xlink:title=" ">
<polygon fill="white" stroke="#666666" points="1439.95,-338 1326.95,-338 1326.95,-308 1439.95,-308 1439.95,-338"/>
<text text-anchor="start" x="1334.95" y="-326" font-family="Helvetica,sans-Serif" font-size="10.00">HealthGPS/ses_noise</text>
<text text-anchor="middle" x="1383.45" y="-315" font-family="Helvetica,sans-Serif" font-size="10.00">_module.cpp</text>
</a>
</g>
</g>
<!-- Node3&#45;&gt;Node27 -->
<g id="edge32" class="edge">
<title>Node3&#45;&gt;Node27</title>
<path fill="none" stroke="#63b8ff" d="M745.26,-380.68C870.97,-377.1 1113.95,-366.78 1318.45,-338 1321.08,-337.63 1323.76,-337.21 1326.46,-336.76"/>
<polygon fill="#63b8ff" stroke="#63b8ff" points="745.25,-377.18 735.35,-380.95 745.44,-384.18 745.25,-377.18"/>
</g>
<!-- Node5 -->
<g id="node5" class="node">
<title>Node5</title>
<g id="a_node5"><a xlink:href="analysis__module_8cpp.html" target="_top" xlink:title=" ">
<polygon fill="white" stroke="#666666" points="133.45,-272 29.45,-272 29.45,-242 133.45,-242 133.45,-272"/>
<text text-anchor="start" x="37.45" y="-260" font-family="Helvetica,sans-Serif" font-size="10.00">HealthGPS/analysis</text>
<text text-anchor="middle" x="81.45" y="-249" font-family="Helvetica,sans-Serif" font-size="10.00">_module.cpp</text>
</a>
</g>
</g>
<!-- Node4&#45;&gt;Node5 -->
<g id="edge4" class="edge">
<title>Node4&#45;&gt;Node5</title>
<path fill="none" stroke="#63b8ff" d="M81.45,-296.39C81.45,-288.13 81.45,-279.28 81.45,-272.16"/>
<polygon fill="#63b8ff" stroke="#63b8ff" points="77.95,-296.28 81.45,-306.28 84.95,-296.28 77.95,-296.28"/>
</g>
<!-- Node6 -->
<g id="node6" class="node">
<title>Node6</title>
<g id="a_node6"><a xlink:href="simulation__module_8h.html" target="_top" xlink:title=" ">
<polygon fill="white" stroke="#666666" points="577.95,-206 464.95,-206 464.95,-176 577.95,-176 577.95,-206"/>
<text text-anchor="start" x="472.95" y="-194" font-family="Helvetica,sans-Serif" font-size="10.00">HealthGPS/simulation</text>
<text text-anchor="middle" x="521.45" y="-183" font-family="Helvetica,sans-Serif" font-size="10.00">_module.h</text>
</a>
</g>
</g>
<!-- Node4&#45;&gt;Node6 -->
<g id="edge5" class="edge">
<title>Node4&#45;&gt;Node6</title>
<path fill="none" stroke="#63b8ff" d="M137.44,-304.17C189.8,-287.63 270.24,-262.54 340.45,-242 383,-229.55 431.43,-216.22 467.47,-206.45"/>
<polygon fill="#63b8ff" stroke="#63b8ff" points="136.63,-300.76 128.15,-307.11 138.74,-307.43 136.63,-300.76"/>
</g>
<!-- Node7 -->
<g id="node7" class="node">
<title>Node7</title>
<g id="a_node7"><a xlink:href="_health_g_p_s_2api_8h.html" target="_top" xlink:title=" ">
<polygon fill="white" stroke="#666666" points="562.95,-74 473.95,-74 473.95,-55 562.95,-55 562.95,-74"/>
<text text-anchor="middle" x="518.45" y="-62" font-family="Helvetica,sans-Serif" font-size="10.00">HealthGPS/api.h</text>
</a>
</g>
</g>
<!-- Node6&#45;&gt;Node7 -->
<g id="edge6" class="edge">
<title>Node6&#45;&gt;Node7</title>
<path fill="none" stroke="#63b8ff" d="M535.58,-165.57C542.96,-149.75 549.51,-128.7 544.45,-110 540.8,-96.53 531.94,-82.95 525.58,-74.4"/>
<polygon fill="#63b8ff" stroke="#63b8ff" points="532.58,-163.74 531.15,-174.24 538.82,-166.92 532.58,-163.74"/>
</g>
<!-- Node6&#45;&gt;Node9 -->
<g id="edge8" class="edge">
<title>Node6&#45;&gt;Node9</title>
<path fill="none" stroke="#63b8ff" d="M471.54,-171.85C438.4,-159.8 396.34,-144.51 370.16,-134.99"/>
<polygon fill="#63b8ff" stroke="#63b8ff" points="469.93,-174.99 480.53,-175.12 472.33,-168.41 469.93,-174.99"/>
</g>
<!-- Node13 -->
<g id="node13" class="node">
<title>Node13</title>
<g id="a_node13"><a xlink:href="simulation__module_8cpp.html" target="_top" xlink:title=" ">
<polygon fill="white" stroke="#666666" points="535.95,-140 422.95,-140 422.95,-110 535.95,-110 535.95,-140"/>
<text text-anchor="start" x="430.95" y="-128" font-family="Helvetica,sans-Serif" font-size="10.00">HealthGPS/simulation</text>
<text text-anchor="middle" x="479.45" y="-117" font-family="Helvetica,sans-Serif" font-size="10.00">_module.cpp</text>
</a>
</g>
</g>
<!-- Node6&#45;&gt;Node13 -->
<g id="edge14" class="edge">
<title>Node6&#45;&gt;Node13</title>
<path fill="none" stroke="#63b8ff" d="M505.96,-166.39C500.18,-157.59 493.8,-147.86 488.74,-140.16"/>
<polygon fill="#63b8ff" stroke="#63b8ff" points="502.88,-168.09 511.3,-174.53 508.74,-164.25 502.88,-168.09"/>
</g>
<!-- Node8 -->
<g id="node8" class="node">
<title>Node8</title>
<g id="a_node8"><a xlink:href="program_8cpp.html" target="_top" xlink:title=" ">
<polygon fill="white" stroke="#666666" points="545.95,-19 384.95,-19 384.95,0 545.95,0 545.95,-19"/>
<text text-anchor="middle" x="465.45" y="-7" font-family="Helvetica,sans-Serif" font-size="10.00">HealthGPS.Console/program.cpp</text>
</a>
</g>
</g>
<!-- Node7&#45;&gt;Node8 -->
<g id="edge7" class="edge">
<title>Node7&#45;&gt;Node8</title>
<path fill="none" stroke="#63b8ff" d="M501.73,-46.78C492.67,-37.72 481.85,-26.9 474.39,-19.44"/>
<polygon fill="#63b8ff" stroke="#63b8ff" points="499.08,-49.08 508.63,-53.68 504.03,-44.13 499.08,-49.08"/>
</g>
<!-- Node9&#45;&gt;Node7 -->
<g id="edge12" class="edge">
<title>Node9&#45;&gt;Node7</title>
<path fill="none" stroke="#63b8ff" d="M382.28,-111.55C415.19,-100.42 462.61,-84.38 491.93,-74.47"/>
<polygon fill="#63b8ff" stroke="#63b8ff" points="381.51,-108.11 373.16,-114.63 383.75,-114.74 381.51,-108.11"/>
</g>
<!-- Node10 -->
<g id="node10" class="node">
<title>Node10</title>
<g id="a_node10"><a xlink:href="configuration_8h.html" target="_top" xlink:title=" ">
<polygon fill="white" stroke="#666666" points="308.45,-74 138.45,-74 138.45,-55 308.45,-55 308.45,-74"/>
<text text-anchor="middle" x="223.45" y="-62" font-family="Helvetica,sans-Serif" font-size="10.00">HealthGPS.Console/configuration.h</text>
</a>
</g>
</g>
<!-- Node9&#45;&gt;Node10 -->
<g id="edge9" class="edge">
<title>Node9&#45;&gt;Node10</title>
<path fill="none" stroke="#63b8ff" d="M316.7,-110.22C293.67,-99.17 262.02,-83.99 242.15,-74.47"/>
<polygon fill="#63b8ff" stroke="#63b8ff" points="315.02,-113.29 325.55,-114.46 318.05,-106.98 315.02,-113.29"/>
</g>
<!-- Node12 -->
<g id="node12" class="node">
<title>Node12</title>
<g id="a_node12"><a xlink:href="healthgps_8cpp.html" target="_top" xlink:title=" ">
<polygon fill="white" stroke="#666666" points="455.95,-74 326.95,-74 326.95,-55 455.95,-55 455.95,-74"/>
<text text-anchor="middle" x="391.45" y="-62" font-family="Helvetica,sans-Serif" font-size="10.00">HealthGPS/healthgps.cpp</text>
</a>
</g>
</g>
<!-- Node9&#45;&gt;Node12 -->
<g id="edge13" class="edge">
<title>Node9&#45;&gt;Node12</title>
<path fill="none" stroke="#63b8ff" d="M359.23,-106.48C367.61,-95.81 377.96,-82.65 384.63,-74.17"/>
<polygon fill="#63b8ff" stroke="#63b8ff" points="356.6,-104.15 353.17,-114.18 362.1,-108.48 356.6,-104.15"/>
</g>
<!-- Node10&#45;&gt;Node8 -->
<g id="edge11" class="edge">
<title>Node10&#45;&gt;Node8</title>
<path fill="none" stroke="#63b8ff" d="M275.7,-52.06C320.32,-42.28 383.61,-28.42 424.6,-19.45"/>
<polygon fill="#63b8ff" stroke="#63b8ff" points="275,-48.63 265.98,-54.19 276.5,-55.46 275,-48.63"/>
</g>
<!-- Node11 -->
<g id="node11" class="node">
<title>Node11</title>
<g id="a_node11"><a xlink:href="configuration_8cpp.html" target="_top" xlink:title=" ">
<polygon fill="white" stroke="#666666" points="313.45,-19 133.45,-19 133.45,0 313.45,0 313.45,-19"/>
<text text-anchor="middle" x="223.45" y="-7" font-family="Helvetica,sans-Serif" font-size="10.00">HealthGPS.Console/configuration.cpp</text>
</a>
</g>
</g>
<!-- Node10&#45;&gt;Node11 -->
<g id="edge10" class="edge">
<title>Node10&#45;&gt;Node11</title>
<path fill="none" stroke="#63b8ff" d="M223.45,-43.35C223.45,-35.1 223.45,-25.97 223.45,-19.44"/>
<polygon fill="#63b8ff" stroke="#63b8ff" points="219.95,-43.23 223.45,-53.23 226.95,-43.23 219.95,-43.23"/>
</g>
<!-- Node16&#45;&gt;Node6 -->
<g id="edge19" class="edge">
<title>Node16&#45;&gt;Node6</title>
<path fill="none" stroke="#63b8ff" d="M521.45,-301.81C521.45,-275.34 521.45,-229.56 521.45,-206.36"/>
<polygon fill="#63b8ff" stroke="#63b8ff" points="517.95,-301.55 521.45,-311.55 524.95,-301.55 517.95,-301.55"/>
</g>
<!-- Node17 -->
<g id="node17" class="node">
<title>Node17</title>
<g id="a_node17"><a xlink:href="demographic_8cpp.html" target="_top" xlink:title=" ">
<polygon fill="white" stroke="#666666" points="492.95,-266.5 349.95,-266.5 349.95,-247.5 492.95,-247.5 492.95,-266.5"/>
<text text-anchor="middle" x="421.45" y="-254.5" font-family="Helvetica,sans-Serif" font-size="10.00">HealthGPS/demographic.cpp</text>
</a>
</g>
</g>
<!-- Node16&#45;&gt;Node17 -->
<g id="edge18" class="edge">
<title>Node16&#45;&gt;Node17</title>
<path fill="none" stroke="#63b8ff" d="M497.87,-306.91C478.38,-294.44 451.38,-277.15 435.23,-266.82"/>
<polygon fill="#63b8ff" stroke="#63b8ff" points="495.96,-309.84 506.27,-312.29 499.73,-303.95 495.96,-309.84"/>
</g>
<!-- Node18&#45;&gt;Node6 -->
<g id="edge22" class="edge">
<title>Node18&#45;&gt;Node6</title>
<path fill="none" stroke="#63b8ff" d="M672.65,-303.59C682.5,-286.19 692.72,-260.12 679.45,-242 656.41,-210.55 613.5,-198.38 578.2,-193.9"/>
<polygon fill="#63b8ff" stroke="#63b8ff" points="669.82,-301.51 667.57,-311.86 675.79,-305.17 669.82,-301.51"/>
</g>
<!-- Node19 -->
<g id="node19" class="node">
<title>Node19</title>
<g id="a_node19"><a xlink:href="disease_8cpp.html" target="_top" xlink:title=" ">
<polygon fill="white" stroke="#666666" points="670.95,-266.5 549.95,-266.5 549.95,-247.5 670.95,-247.5 670.95,-266.5"/>
<text text-anchor="middle" x="610.45" y="-254.5" font-family="Helvetica,sans-Serif" font-size="10.00">HealthGPS/disease.cpp</text>
</a>
</g>
</g>
<!-- Node18&#45;&gt;Node19 -->
<g id="edge21" class="edge">
<title>Node18&#45;&gt;Node19</title>
<path fill="none" stroke="#63b8ff" d="M646.59,-304.26C637.07,-292.08 624.85,-276.44 617.34,-266.82"/>
<polygon fill="#63b8ff" stroke="#63b8ff" points="643.65,-306.18 652.56,-311.91 649.17,-301.87 643.65,-306.18"/>
</g>
<!-- Node23 -->
<g id="node23" class="node">
<title>Node23</title>
<g id="a_node23"><a xlink:href="riskfactor_8h.html" target="_top" xlink:title=" ">
<polygon fill="white" stroke="#666666" points="1137.45,-266.5 1021.45,-266.5 1021.45,-247.5 1137.45,-247.5 1137.45,-266.5"/>
<text text-anchor="middle" x="1079.45" y="-254.5" font-family="Helvetica,sans-Serif" font-size="10.00">HealthGPS/riskfactor.h</text>
</a>
</g>
</g>
<!-- Node22&#45;&gt;Node23 -->
<g id="edge27" class="edge">
<title>Node22&#45;&gt;Node23</title>
<path fill="none" stroke="#63b8ff" d="M1079.45,-296.59C1079.45,-286.06 1079.45,-274.53 1079.45,-266.84"/>
<polygon fill="#63b8ff" stroke="#63b8ff" points="1075.95,-296.28 1079.45,-306.28 1082.95,-296.28 1075.95,-296.28"/>
</g>
<!-- Node25 -->
<g id="node25" class="node">
<title>Node25</title>
<g id="a_node25"><a xlink:href="riskfactor__adjustment_8cpp.html" target="_top" xlink:title=" ">
<polygon fill="white" stroke="#666666" points="1003.45,-272 895.45,-272 895.45,-242 1003.45,-242 1003.45,-272"/>
<text text-anchor="start" x="903.45" y="-260" font-family="Helvetica,sans-Serif" font-size="10.00">HealthGPS/riskfactor</text>
<text text-anchor="middle" x="949.45" y="-249" font-family="Helvetica,sans-Serif" font-size="10.00">_adjustment.cpp</text>
</a>
</g>
</g>
<!-- Node22&#45;&gt;Node25 -->
<g id="edge30" class="edge">
<title>Node22&#45;&gt;Node25</title>
<path fill="none" stroke="#63b8ff" d="M1040.02,-302.59C1020.22,-292.84 996.65,-281.24 978.53,-272.31"/>
<polygon fill="#63b8ff" stroke="#63b8ff" points="1038.4,-305.69 1048.92,-306.97 1041.49,-299.41 1038.4,-305.69"/>
</g>
<!-- Node23&#45;&gt;Node6 -->
<g id="edge29" class="edge">
<title>Node23&#45;&gt;Node6</title>
<path fill="none" stroke="#63b8ff" d="M1028.75,-244.82C1023.26,-243.79 1017.75,-242.82 1012.45,-242 856.23,-217.79 670.15,-202.51 578.4,-195.86"/>
<polygon fill="#63b8ff" stroke="#63b8ff" points="1027.92,-248.23 1038.41,-246.73 1029.27,-241.36 1027.92,-248.23"/>
</g>
<!-- Node24 -->
<g id="node24" class="node">
<title>Node24</title>
<g id="a_node24"><a xlink:href="riskfactor_8cpp.html" target="_top" xlink:title=" ">
<polygon fill="white" stroke="#666666" points="1142.95,-200.5 1015.95,-200.5 1015.95,-181.5 1142.95,-181.5 1142.95,-200.5"/>
<text text-anchor="middle" x="1079.45" y="-188.5" font-family="Helvetica,sans-Serif" font-size="10.00">HealthGPS/riskfactor.cpp</text>
</a>
</g>
</g>
<!-- Node23&#45;&gt;Node24 -->
<g id="edge28" class="edge">
<title>Node23&#45;&gt;Node24</title>
<path fill="none" stroke="#63b8ff" d="M1079.45,-235.68C1079.45,-223.94 1079.45,-209.77 1079.45,-200.82"/>
<polygon fill="#63b8ff" stroke="#63b8ff" points="1075.95,-235.59 1079.45,-245.59 1082.95,-235.59 1075.95,-235.59"/>
</g>
</g>
</svg>
