<?xml version="1.0" encoding="UTF-8" standalone="no"?>
<!DOCTYPE svg PUBLIC "-//W3C//DTD SVG 1.1//EN"
 "http://www.w3.org/Graphics/SVG/1.1/DTD/svg11.dtd">
<!-- Generated by graphviz version 7.0.6 (20230106.0513)
 -->
<!-- Title: HealthGPS/population.h Pages: 1 -->
<svg width="2031pt" height="522pt"
 viewBox="0.00 0.00 2031.30 522.00" xmlns="http://www.w3.org/2000/svg" xmlns:xlink="http://www.w3.org/1999/xlink">
<g id="graph0" class="graph" transform="scale(1 1) rotate(0) translate(4 518)">
<title>HealthGPS/population.h</title>
<!-- Node1 -->
<g id="node1" class="node">
<title>Node1</title>
<g id="a_node1"><a xlink:title=" ">
<polygon fill="#999999" stroke="#666666" points="1528.8,-514 1407.8,-514 1407.8,-495 1528.8,-495 1528.8,-514"/>
<text text-anchor="middle" x="1468.3" y="-502" font-family="Helvetica,sans-Serif" font-size="10.00">HealthGPS/population.h</text>
</a>
</g>
</g>
<!-- Node2 -->
<g id="node2" class="node">
<title>Node2</title>
<g id="a_node2"><a xlink:href="person_8h.html" target="_top" xlink:title=" ">
<polygon fill="white" stroke="#666666" points="1011.3,-459 957.3,-459 957.3,-440 1011.3,-440 1011.3,-459"/>
<text text-anchor="middle" x="984.3" y="-447" font-family="Helvetica,sans-Serif" font-size="10.00">person.h</text>
</a>
</g>
</g>
<!-- Node1&#45;&gt;Node2 -->
<g id="edge1" class="edge">
<title>Node1&#45;&gt;Node2</title>
<path fill="none" stroke="#63b8ff" d="M1407.49,-496.84C1306.47,-485.78 1106.91,-463.93 1022.95,-454.73"/>
<polygon fill="#63b8ff" stroke="#63b8ff" points="1023.49,-451.27 1013.17,-453.66 1022.73,-458.23 1023.49,-451.27"/>
</g>
<!-- Node8 -->
<g id="node8" class="node">
<title>Node8</title>
<g id="a_node8"><a xlink:title=" ">
<polygon fill="#e0e0e0" stroke="#999999" points="1172.3,-129 1130.3,-129 1130.3,-110 1172.3,-110 1172.3,-129"/>
<text text-anchor="middle" x="1151.3" y="-117" font-family="Helvetica,sans-Serif" font-size="10.00">vector</text>
</a>
</g>
</g>
<!-- Node1&#45;&gt;Node8 -->
<g id="edge93" class="edge">
<title>Node1&#45;&gt;Node8</title>
<path fill="none" stroke="#63b8ff" d="M1529.28,-504.34C1673.45,-504.69 2023.3,-495.26 2023.3,-395.5 2023.3,-395.5 2023.3,-395.5 2023.3,-228.5 2023.3,-183.45 1986.35,-181.15 1944.3,-165 1872.53,-137.45 1324.06,-124.13 1183.85,-121.15"/>
<polygon fill="#63b8ff" stroke="#63b8ff" points="1184.24,-117.66 1174.17,-120.95 1184.09,-124.66 1184.24,-117.66"/>
</g>
<!-- Node3 -->
<g id="node3" class="node">
<title>Node3</title>
<g id="a_node3"><a xlink:title=" ">
<polygon fill="#e0e0e0" stroke="#999999" points="347.8,-129 312.8,-129 312.8,-110 347.8,-110 347.8,-129"/>
<text text-anchor="middle" x="330.3" y="-117" font-family="Helvetica,sans-Serif" font-size="10.00">map</text>
</a>
</g>
</g>
<!-- Node2&#45;&gt;Node3 -->
<g id="edge2" class="edge">
<title>Node2&#45;&gt;Node3</title>
<path fill="none" stroke="#63b8ff" d="M957.09,-447.19C828.78,-440.68 290.3,-409.24 290.3,-340.5 290.3,-340.5 290.3,-340.5 290.3,-228.5 290.3,-195.45 306.97,-160.05 318.79,-139.12"/>
<polygon fill="#63b8ff" stroke="#63b8ff" points="321.73,-141.03 323.8,-130.64 315.7,-137.47 321.73,-141.03"/>
</g>
<!-- Node4 -->
<g id="node4" class="node">
<title>Node4</title>
<g id="a_node4"><a xlink:title=" ">
<polygon fill="#e0e0e0" stroke="#999999" points="1082.3,-404 1036.3,-404 1036.3,-385 1082.3,-385 1082.3,-404"/>
<text text-anchor="middle" x="1059.3" y="-392" font-family="Helvetica,sans-Serif" font-size="10.00">atomic</text>
</a>
</g>
</g>
<!-- Node2&#45;&gt;Node4 -->
<g id="edge3" class="edge">
<title>Node2&#45;&gt;Node4</title>
<path fill="none" stroke="#63b8ff" d="M997.02,-439.51C1008.08,-431.7 1024.33,-420.21 1037.47,-410.93"/>
<polygon fill="#63b8ff" stroke="#63b8ff" points="1039.38,-413.86 1045.53,-405.23 1035.34,-408.14 1039.38,-413.86"/>
</g>
<!-- Node5 -->
<g id="node5" class="node">
<title>Node5</title>
<g id="a_node5"><a xlink:href="interfaces_8h.html" target="_top" xlink:title=" ">
<polygon fill="white" stroke="#666666" points="1017.8,-404 950.8,-404 950.8,-385 1017.8,-385 1017.8,-404"/>
<text text-anchor="middle" x="984.3" y="-392" font-family="Helvetica,sans-Serif" font-size="10.00">interfaces.h</text>
</a>
</g>
</g>
<!-- Node2&#45;&gt;Node5 -->
<g id="edge4" class="edge">
<title>Node2&#45;&gt;Node5</title>
<path fill="none" stroke="#63b8ff" d="M984.3,-439.75C984.3,-433.27 984.3,-424.16 984.3,-415.9"/>
<polygon fill="#63b8ff" stroke="#63b8ff" points="987.8,-415.96 984.3,-405.96 980.8,-415.96 987.8,-415.96"/>
</g>
<!-- Node26 -->
<g id="node26" class="node">
<title>Node26</title>
<g id="a_node26"><a xlink:href="identifier_8h.html" target="_top" xlink:title=" ">
<polygon fill="white" stroke="#666666" points="665.8,-129 604.8,-129 604.8,-110 665.8,-110 665.8,-129"/>
<text text-anchor="middle" x="635.3" y="-117" font-family="Helvetica,sans-Serif" font-size="10.00">identifier.h</text>
</a>
</g>
</g>
<!-- Node2&#45;&gt;Node26 -->
<g id="edge92" class="edge">
<title>Node2&#45;&gt;Node26</title>
<path fill="none" stroke="#63b8ff" d="M956.84,-447.99C857.6,-445.42 523.3,-430.1 523.3,-340.5 523.3,-340.5 523.3,-340.5 523.3,-228.5 523.3,-183.53 570.66,-151.37 603.79,-134.39"/>
<polygon fill="#63b8ff" stroke="#63b8ff" points="605.16,-137.61 612.61,-130.07 602.09,-131.32 605.16,-137.61"/>
</g>
<!-- Node5&#45;&gt;Node3 -->
<g id="edge90" class="edge">
<title>Node5&#45;&gt;Node3</title>
<path fill="none" stroke="#63b8ff" d="M950.53,-386.81C882.48,-372.89 724.43,-338.39 596.3,-294 481.98,-254.39 425.99,-275.89 347.3,-184 336.95,-171.92 332.83,-154.18 331.23,-140.52"/>
<polygon fill="#63b8ff" stroke="#63b8ff" points="334.74,-140.6 330.47,-130.9 327.77,-141.15 334.74,-140.6"/>
</g>
<!-- Node6 -->
<g id="node6" class="node">
<title>Node6</title>
<g id="a_node6"><a xlink:href="randombit__generator_8h.html" target="_top" xlink:title=" ">
<polygon fill="white" stroke="#666666" points="1955.8,-239 1842.8,-239 1842.8,-220 1955.8,-220 1955.8,-239"/>
<text text-anchor="middle" x="1899.3" y="-227" font-family="Helvetica,sans-Serif" font-size="10.00">randombit_generator.h</text>
</a>
</g>
</g>
<!-- Node5&#45;&gt;Node6 -->
<g id="edge5" class="edge">
<title>Node5&#45;&gt;Node6</title>
<path fill="none" stroke="#63b8ff" d="M1018.03,-386.42C1021.16,-385.89 1024.28,-385.4 1027.3,-385 1254.73,-354.69 1317.2,-393.49 1542.3,-349 1666.24,-324.5 1806.73,-269.36 1867.98,-243.88"/>
<polygon fill="#63b8ff" stroke="#63b8ff" points="1869.21,-247.16 1877.07,-240.06 1866.5,-240.7 1869.21,-247.16"/>
</g>
<!-- Node9 -->
<g id="node9" class="node">
<title>Node9</title>
<g id="a_node9"><a xlink:href="_health_g_p_s_8_core_2api_8h.html" target="_top" xlink:title=" ">
<polygon fill="white" stroke="#666666" points="1040.8,-349 927.8,-349 927.8,-330 1040.8,-330 1040.8,-349"/>
<text text-anchor="middle" x="984.3" y="-337" font-family="Helvetica,sans-Serif" font-size="10.00">HealthGPS.Core/api.h</text>
</a>
</g>
</g>
<!-- Node5&#45;&gt;Node9 -->
<g id="edge8" class="edge">
<title>Node5&#45;&gt;Node9</title>
<path fill="none" stroke="#63b8ff" d="M984.3,-384.75C984.3,-378.27 984.3,-369.16 984.3,-360.9"/>
<polygon fill="#63b8ff" stroke="#63b8ff" points="987.8,-360.96 984.3,-350.96 980.8,-360.96 987.8,-360.96"/>
</g>
<!-- Node33 -->
<g id="node33" class="node">
<title>Node33</title>
<g id="a_node33"><a xlink:title=" ">
<polygon fill="#e0e0e0" stroke="#999999" points="1561.3,-184 1509.3,-184 1509.3,-165 1561.3,-165 1561.3,-184"/>
<text text-anchor="middle" x="1535.3" y="-172" font-family="Helvetica,sans-Serif" font-size="10.00">memory</text>
</a>
</g>
</g>
<!-- Node5&#45;&gt;Node33 -->
<g id="edge91" class="edge">
<title>Node5&#45;&gt;Node33</title>
<path fill="none" stroke="#63b8ff" d="M1018.03,-386.4C1112.18,-366.49 1373.23,-310.46 1409.3,-294 1447.23,-276.69 1455.22,-267.88 1485.3,-239 1499.81,-225.06 1513.76,-206.81 1523.22,-193.45"/>
<polygon fill="#63b8ff" stroke="#63b8ff" points="1525.85,-195.8 1528.65,-185.59 1520.09,-191.82 1525.85,-195.8"/>
</g>
<!-- Node7 -->
<g id="node7" class="node">
<title>Node7</title>
<g id="a_node7"><a xlink:title=" ">
<polygon fill="#e0e0e0" stroke="#999999" points="1919.3,-184 1879.3,-184 1879.3,-165 1919.3,-165 1919.3,-184"/>
<text text-anchor="middle" x="1899.3" y="-172" font-family="Helvetica,sans-Serif" font-size="10.00">limits</text>
</a>
</g>
</g>
<!-- Node6&#45;&gt;Node7 -->
<g id="edge6" class="edge">
<title>Node6&#45;&gt;Node7</title>
<path fill="none" stroke="#63b8ff" d="M1899.3,-219.75C1899.3,-213.27 1899.3,-204.16 1899.3,-195.9"/>
<polygon fill="#63b8ff" stroke="#63b8ff" points="1902.8,-195.96 1899.3,-185.96 1895.8,-195.96 1902.8,-195.96"/>
</g>
<!-- Node6&#45;&gt;Node8 -->
<g id="edge7" class="edge">
<title>Node6&#45;&gt;Node8</title>
<path fill="none" stroke="#63b8ff" d="M1908.96,-219.67C1922.39,-206.37 1943.44,-181.04 1928.3,-165 1902.35,-137.53 1328.3,-124.09 1183.99,-121.13"/>
<polygon fill="#63b8ff" stroke="#63b8ff" points="1184.07,-117.63 1174,-120.93 1183.93,-124.63 1184.07,-117.63"/>
</g>
<!-- Node10 -->
<g id="node10" class="node">
<title>Node10</title>
<g id="a_node10"><a xlink:href="version_8h.html" target="_top" xlink:title=" ">
<polygon fill="white" stroke="#666666" points="373.8,-294 318.8,-294 318.8,-275 373.8,-275 373.8,-294"/>
<text text-anchor="middle" x="346.3" y="-282" font-family="Helvetica,sans-Serif" font-size="10.00">version.h</text>
</a>
</g>
</g>
<!-- Node9&#45;&gt;Node10 -->
<g id="edge9" class="edge">
<title>Node9&#45;&gt;Node10</title>
<path fill="none" stroke="#63b8ff" d="M927.4,-333.77C799.93,-323.18 494.15,-297.78 385.46,-288.75"/>
<polygon fill="#63b8ff" stroke="#63b8ff" points="385.85,-285.27 375.59,-287.93 385.27,-292.25 385.85,-285.27"/>
</g>
<!-- Node12 -->
<g id="node12" class="node">
<title>Node12</title>
<g id="a_node12"><a xlink:href="datastore_8h.html" target="_top" xlink:title=" ">
<polygon fill="white" stroke="#666666" points="692.8,-294 627.8,-294 627.8,-275 692.8,-275 692.8,-294"/>
<text text-anchor="middle" x="660.3" y="-282" font-family="Helvetica,sans-Serif" font-size="10.00">datastore.h</text>
</a>
</g>
</g>
<!-- Node9&#45;&gt;Node12 -->
<g id="edge11" class="edge">
<title>Node9&#45;&gt;Node12</title>
<path fill="none" stroke="#63b8ff" d="M927.48,-329.71C871.45,-320.96 783.4,-306.99 707.3,-294 706.3,-293.83 705.28,-293.65 704.26,-293.48"/>
<polygon fill="#63b8ff" stroke="#63b8ff" points="705.1,-290.07 694.64,-291.79 703.89,-296.97 705.1,-290.07"/>
</g>
<!-- Node14 -->
<g id="node14" class="node">
<title>Node14</title>
<g id="a_node14"><a xlink:href="interval_8h.html" target="_top" xlink:title=" ">
<polygon fill="white" stroke="#666666" points="608.8,-239 553.8,-239 553.8,-220 608.8,-220 608.8,-239"/>
<text text-anchor="middle" x="581.3" y="-227" font-family="Helvetica,sans-Serif" font-size="10.00">interval.h</text>
</a>
</g>
</g>
<!-- Node9&#45;&gt;Node14 -->
<g id="edge75" class="edge">
<title>Node9&#45;&gt;Node14</title>
<path fill="none" stroke="#63b8ff" d="M927.43,-337.57C837.83,-335.12 668.87,-326.23 619.3,-294 603.49,-283.72 593.32,-264.36 587.51,-249.7"/>
<polygon fill="#63b8ff" stroke="#63b8ff" points="590.94,-248.89 584.28,-240.65 584.35,-251.25 590.94,-248.89"/>
</g>
<!-- Node21 -->
<g id="node21" class="node">
<title>Node21</title>
<g id="a_node21"><a xlink:href="poco_8h.html" target="_top" xlink:title=" ">
<polygon fill="white" stroke="#666666" points="369.3,-239 323.3,-239 323.3,-220 369.3,-220 369.3,-239"/>
<text text-anchor="middle" x="346.3" y="-227" font-family="Helvetica,sans-Serif" font-size="10.00">poco.h</text>
</a>
</g>
</g>
<!-- Node9&#45;&gt;Node21 -->
<g id="edge89" class="edge">
<title>Node9&#45;&gt;Node21</title>
<path fill="none" stroke="#63b8ff" d="M927.4,-334.39C851.46,-328.35 713,-315.41 596.3,-294 518.17,-279.67 428.29,-254.71 380.45,-240.73"/>
<polygon fill="#63b8ff" stroke="#63b8ff" points="381.54,-237.41 370.96,-237.94 379.56,-244.12 381.54,-237.41"/>
</g>
<!-- Node9&#45;&gt;Node26 -->
<g id="edge88" class="edge">
<title>Node9&#45;&gt;Node26</title>
<path fill="none" stroke="#63b8ff" d="M961.72,-329.54C910.86,-308.74 784.72,-253.57 694.3,-184 676.83,-170.56 660.04,-151.72 648.87,-138.05"/>
<polygon fill="#63b8ff" stroke="#63b8ff" points="651.7,-135.99 642.74,-130.35 646.23,-140.35 651.7,-135.99"/>
</g>
<!-- Node31 -->
<g id="node31" class="node">
<title>Node31</title>
<g id="a_node31"><a xlink:href="visitor_8h.html" target="_top" xlink:title=" ">
<polygon fill="white" stroke="#666666" points="1789.3,-129 1739.3,-129 1739.3,-110 1789.3,-110 1789.3,-129"/>
<text text-anchor="middle" x="1764.3" y="-117" font-family="Helvetica,sans-Serif" font-size="10.00">visitor.h</text>
</a>
</g>
</g>
<!-- Node9&#45;&gt;Node31 -->
<g id="edge45" class="edge">
<title>Node9&#45;&gt;Node31</title>
<path fill="none" stroke="#63b8ff" d="M1041.21,-337.28C1241.68,-332.36 1906.24,-310.74 1965.3,-239 1981.56,-219.25 1963.68,-182.14 1944.3,-165 1904.44,-129.75 1841.01,-121.47 1801.07,-120.02"/>
<polygon fill="#63b8ff" stroke="#63b8ff" points="1801.31,-116.53 1791.24,-119.81 1801.16,-123.53 1801.31,-116.53"/>
</g>
<!-- Node32 -->
<g id="node32" class="node">
<title>Node32</title>
<g id="a_node32"><a xlink:href="datatable_8h.html" target="_top" xlink:title=" ">
<polygon fill="white" stroke="#666666" points="1343.8,-239 1278.8,-239 1278.8,-220 1343.8,-220 1343.8,-239"/>
<text text-anchor="middle" x="1311.3" y="-227" font-family="Helvetica,sans-Serif" font-size="10.00">datatable.h</text>
</a>
</g>
</g>
<!-- Node9&#45;&gt;Node32 -->
<g id="edge47" class="edge">
<title>Node9&#45;&gt;Node32</title>
<path fill="none" stroke="#63b8ff" d="M1011.34,-329.57C1069.48,-310.36 1206.56,-265.09 1273.37,-243.03"/>
<polygon fill="#63b8ff" stroke="#63b8ff" points="1274.39,-246.37 1282.79,-239.92 1272.2,-239.73 1274.39,-246.37"/>
</g>
<!-- Node40 -->
<g id="node40" class="node">
<title>Node40</title>
<g id="a_node40"><a xlink:href="column__numeric_8h.html" target="_top" xlink:title=" ">
<polygon fill="white" stroke="#666666" points="1400.3,-294 1304.3,-294 1304.3,-275 1400.3,-275 1400.3,-294"/>
<text text-anchor="middle" x="1352.3" y="-282" font-family="Helvetica,sans-Serif" font-size="10.00">column_numeric.h</text>
</a>
</g>
</g>
<!-- Node9&#45;&gt;Node40 -->
<g id="edge60" class="edge">
<title>Node9&#45;&gt;Node40</title>
<path fill="none" stroke="#63b8ff" d="M1040.99,-330.33C1109.27,-320.5 1223.41,-304.06 1292.88,-294.06"/>
<polygon fill="#63b8ff" stroke="#63b8ff" points="1293.16,-297.55 1302.56,-292.66 1292.16,-290.63 1293.16,-297.55"/>
</g>
<!-- Node42 -->
<g id="node42" class="node">
<title>Node42</title>
<g id="a_node42"><a xlink:href="column__iterator_8h.html" target="_top" xlink:title=" ">
<polygon fill="white" stroke="#666666" points="1745.3,-184 1653.3,-184 1653.3,-165 1745.3,-165 1745.3,-184"/>
<text text-anchor="middle" x="1699.3" y="-172" font-family="Helvetica,sans-Serif" font-size="10.00">column_iterator.h</text>
</a>
</g>
</g>
<!-- Node9&#45;&gt;Node42 -->
<g id="edge74" class="edge">
<title>Node9&#45;&gt;Node42</title>
<path fill="none" stroke="#63b8ff" d="M1041.21,-337.64C1123.6,-335.24 1280.32,-326.4 1409.3,-294 1510.29,-268.63 1622.42,-214.93 1672.55,-189.46"/>
<polygon fill="#63b8ff" stroke="#63b8ff" points="1673.9,-192.7 1681.2,-185.03 1670.71,-186.47 1673.9,-192.7"/>
</g>
<!-- Node44 -->
<g id="node44" class="node">
<title>Node44</title>
<g id="a_node44"><a xlink:href="column__builder_8h.html" target="_top" xlink:title=" ">
<polygon fill="white" stroke="#666666" points="1818.3,-239 1728.3,-239 1728.3,-220 1818.3,-220 1818.3,-239"/>
<text text-anchor="middle" x="1773.3" y="-227" font-family="Helvetica,sans-Serif" font-size="10.00">column_builder.h</text>
</a>
</g>
</g>
<!-- Node9&#45;&gt;Node44 -->
<g id="edge68" class="edge">
<title>Node9&#45;&gt;Node44</title>
<path fill="none" stroke="#63b8ff" d="M1041.2,-337.58C1180.17,-334.87 1533.79,-325.04 1647.3,-294 1685.75,-283.48 1726.24,-260.67 1750.63,-245.45"/>
<polygon fill="#63b8ff" stroke="#63b8ff" points="1752.22,-248.59 1758.77,-240.26 1748.45,-242.69 1752.22,-248.59"/>
</g>
<!-- Node46 -->
<g id="node46" class="node">
<title>Node46</title>
<g id="a_node46"><a xlink:href="array2d_8h.html" target="_top" xlink:title=" ">
<polygon fill="white" stroke="#666666" points="978.8,-239 921.8,-239 921.8,-220 978.8,-220 978.8,-239"/>
<text text-anchor="middle" x="950.3" y="-227" font-family="Helvetica,sans-Serif" font-size="10.00">array2d.h</text>
</a>
</g>
</g>
<!-- Node9&#45;&gt;Node46 -->
<g id="edge76" class="edge">
<title>Node9&#45;&gt;Node46</title>
<path fill="none" stroke="#63b8ff" d="M981.51,-329.66C976.09,-312.42 963.96,-273.9 956.52,-250.27"/>
<polygon fill="#63b8ff" stroke="#63b8ff" points="959.91,-249.39 953.57,-240.9 953.24,-251.49 959.91,-249.39"/>
</g>
<!-- Node49 -->
<g id="node49" class="node">
<title>Node49</title>
<g id="a_node49"><a xlink:href="univariate__summary_8h.html" target="_top" xlink:title=" ">
<polygon fill="white" stroke="#666666" points="1110.8,-239 999.8,-239 999.8,-220 1110.8,-220 1110.8,-239"/>
<text text-anchor="middle" x="1055.3" y="-227" font-family="Helvetica,sans-Serif" font-size="10.00">univariate_summary.h</text>
</a>
</g>
</g>
<!-- Node9&#45;&gt;Node49 -->
<g id="edge84" class="edge">
<title>Node9&#45;&gt;Node49</title>
<path fill="none" stroke="#63b8ff" d="M990.11,-329.66C1001.65,-312.1 1027.7,-272.48 1043.15,-248.98"/>
<polygon fill="#63b8ff" stroke="#63b8ff" points="1046.01,-251 1048.58,-240.72 1040.16,-247.16 1046.01,-251"/>
</g>
<!-- Node11 -->
<g id="node11" class="node">
<title>Node11</title>
<g id="a_node11"><a xlink:title=" ">
<polygon fill="#e0e0e0" stroke="#999999" points="434.8,-74 393.8,-74 393.8,-55 434.8,-55 434.8,-74"/>
<text text-anchor="middle" x="414.3" y="-62" font-family="Helvetica,sans-Serif" font-size="10.00">string</text>
</a>
</g>
</g>
<!-- Node10&#45;&gt;Node11 -->
<g id="edge10" class="edge">
<title>Node10&#45;&gt;Node11</title>
<path fill="none" stroke="#63b8ff" d="M318.46,-279.72C243.77,-268.94 41.98,-235.5 3.3,-184 -1.77,-177.25 0.25,-172.88 3.3,-165 15.21,-134.19 23.96,-125.19 53.3,-110 110.38,-80.44 305.02,-69.75 382.3,-66.61"/>
<polygon fill="#63b8ff" stroke="#63b8ff" points="382.28,-70.12 392.14,-66.23 382.01,-63.12 382.28,-70.12"/>
</g>
<!-- Node12&#45;&gt;Node8 -->
<g id="edge12" class="edge">
<title>Node12&#45;&gt;Node8</title>
<path fill="none" stroke="#63b8ff" d="M659.79,-274.61C659.06,-252.17 660.58,-193.07 694.3,-165 726.79,-137.95 1019.28,-125.17 1118.53,-121.59"/>
<polygon fill="#63b8ff" stroke="#63b8ff" points="1118.52,-125.09 1128.39,-121.24 1118.27,-118.1 1118.52,-125.09"/>
</g>
<!-- Node13 -->
<g id="node13" class="node">
<title>Node13</title>
<g id="a_node13"><a xlink:title=" ">
<polygon fill="#e0e0e0" stroke="#999999" points="1213.3,-184 1163.3,-184 1163.3,-165 1213.3,-165 1213.3,-184"/>
<text text-anchor="middle" x="1188.3" y="-172" font-family="Helvetica,sans-Serif" font-size="10.00">optional</text>
</a>
</g>
</g>
<!-- Node12&#45;&gt;Node13 -->
<g id="edge13" class="edge">
<title>Node12&#45;&gt;Node13</title>
<path fill="none" stroke="#63b8ff" d="M693.06,-283.04C785.02,-281.34 1043.78,-273.52 1120.3,-239 1142.76,-228.86 1162.6,-208.25 1174.97,-193.26"/>
<polygon fill="#63b8ff" stroke="#63b8ff" points="1177.59,-195.58 1181.03,-185.56 1172.09,-191.25 1177.59,-195.58"/>
</g>
<!-- Node12&#45;&gt;Node14 -->
<g id="edge14" class="edge">
<title>Node12&#45;&gt;Node14</title>
<path fill="none" stroke="#63b8ff" d="M646.9,-274.51C635.14,-266.62 617.79,-254.98 603.89,-245.65"/>
<polygon fill="#63b8ff" stroke="#63b8ff" points="606.01,-242.87 595.76,-240.2 602.11,-248.68 606.01,-242.87"/>
</g>
<!-- Node12&#45;&gt;Node21 -->
<g id="edge22" class="edge">
<title>Node12&#45;&gt;Node21</title>
<path fill="none" stroke="#63b8ff" d="M627.58,-277.98C567.94,-267.91 442.07,-246.67 380.99,-236.36"/>
<polygon fill="#63b8ff" stroke="#63b8ff" points="381.62,-232.91 371.17,-234.7 380.45,-239.81 381.62,-232.91"/>
</g>
<!-- Node15 -->
<g id="node15" class="node">
<title>Node15</title>
<g id="a_node15"><a xlink:href="forward__type_8h.html" target="_top" xlink:title=" ">
<polygon fill="white" stroke="#666666" points="734.3,-74 654.3,-74 654.3,-55 734.3,-55 734.3,-74"/>
<text text-anchor="middle" x="694.3" y="-62" font-family="Helvetica,sans-Serif" font-size="10.00">forward_type.h</text>
</a>
</g>
</g>
<!-- Node14&#45;&gt;Node15 -->
<g id="edge15" class="edge">
<title>Node14&#45;&gt;Node15</title>
<path fill="none" stroke="#63b8ff" d="M592.63,-219.61C612.3,-203.59 652.83,-167.89 675.3,-129 683.15,-115.41 688.03,-98.27 690.87,-85.23"/>
<polygon fill="#63b8ff" stroke="#63b8ff" points="694.25,-86.19 692.72,-75.71 687.38,-84.86 694.25,-86.19"/>
</g>
<!-- Node18 -->
<g id="node18" class="node">
<title>Node18</title>
<g id="a_node18"><a xlink:href="string__util_8h.html" target="_top" xlink:title=" ">
<polygon fill="white" stroke="#666666" points="509.8,-129 442.8,-129 442.8,-110 509.8,-110 509.8,-129"/>
<text text-anchor="middle" x="476.3" y="-117" font-family="Helvetica,sans-Serif" font-size="10.00">string_util.h</text>
</a>
</g>
</g>
<!-- Node14&#45;&gt;Node18 -->
<g id="edge18" class="edge">
<title>Node14&#45;&gt;Node18</title>
<path fill="none" stroke="#63b8ff" d="M572.7,-219.66C555.25,-201.7 515.37,-160.69 492.75,-137.42"/>
<polygon fill="#63b8ff" stroke="#63b8ff" points="495.54,-135.28 486.06,-130.55 490.52,-140.16 495.54,-135.28"/>
</g>
<!-- Node20 -->
<g id="node20" class="node">
<title>Node20</title>
<g id="a_node20"><a xlink:title=" ">
<polygon fill="#e0e0e0" stroke="#999999" points="771.3,-184 703.3,-184 703.3,-165 771.3,-165 771.3,-184"/>
<text text-anchor="middle" x="737.3" y="-172" font-family="Helvetica,sans-Serif" font-size="10.00">fmt/format.h</text>
</a>
</g>
</g>
<!-- Node14&#45;&gt;Node20 -->
<g id="edge21" class="edge">
<title>Node14&#45;&gt;Node20</title>
<path fill="none" stroke="#63b8ff" d="M607.76,-219.51C633.16,-210.88 671.76,-197.76 700.22,-188.1"/>
<polygon fill="#63b8ff" stroke="#63b8ff" points="701.19,-191.46 709.53,-184.93 698.94,-184.84 701.19,-191.46"/>
</g>
<!-- Node16 -->
<g id="node16" class="node">
<title>Node16</title>
<g id="a_node16"><a xlink:title=" ">
<polygon fill="#e0e0e0" stroke="#999999" points="689.3,-19 627.3,-19 627.3,0 689.3,0 689.3,-19"/>
<text text-anchor="middle" x="658.3" y="-7" font-family="Helvetica,sans-Serif" font-size="10.00">type_traits</text>
</a>
</g>
</g>
<!-- Node15&#45;&gt;Node16 -->
<g id="edge16" class="edge">
<title>Node15&#45;&gt;Node16</title>
<path fill="none" stroke="#63b8ff" d="M688.35,-54.75C683.59,-47.73 676.73,-37.64 670.78,-28.87"/>
<polygon fill="#63b8ff" stroke="#63b8ff" points="673.74,-27 665.22,-20.69 667.94,-30.93 673.74,-27"/>
</g>
<!-- Node17 -->
<g id="node17" class="node">
<title>Node17</title>
<g id="a_node17"><a xlink:title=" ">
<polygon fill="#e0e0e0" stroke="#999999" points="753.3,-19 707.3,-19 707.3,0 753.3,0 753.3,-19"/>
<text text-anchor="middle" x="730.3" y="-7" font-family="Helvetica,sans-Serif" font-size="10.00">cstdint</text>
</a>
</g>
</g>
<!-- Node15&#45;&gt;Node17 -->
<g id="edge17" class="edge">
<title>Node15&#45;&gt;Node17</title>
<path fill="none" stroke="#63b8ff" d="M700.24,-54.75C705.01,-47.73 711.86,-37.64 717.82,-28.87"/>
<polygon fill="#63b8ff" stroke="#63b8ff" points="720.65,-30.93 723.37,-20.69 714.86,-27 720.65,-30.93"/>
</g>
<!-- Node18&#45;&gt;Node11 -->
<g id="edge19" class="edge">
<title>Node18&#45;&gt;Node11</title>
<path fill="none" stroke="#63b8ff" d="M465.78,-109.51C456.91,-101.93 443.99,-90.88 433.31,-81.75"/>
<polygon fill="#63b8ff" stroke="#63b8ff" points="435.69,-79.18 425.81,-75.34 431.14,-84.5 435.69,-79.18"/>
</g>
<!-- Node19 -->
<g id="node19" class="node">
<title>Node19</title>
<g id="a_node19"><a xlink:title=" ">
<polygon fill="#e0e0e0" stroke="#999999" points="574.3,-74 516.3,-74 516.3,-55 574.3,-55 574.3,-74"/>
<text text-anchor="middle" x="545.3" y="-62" font-family="Helvetica,sans-Serif" font-size="10.00">functional</text>
</a>
</g>
</g>
<!-- Node18&#45;&gt;Node19 -->
<g id="edge20" class="edge">
<title>Node18&#45;&gt;Node19</title>
<path fill="none" stroke="#63b8ff" d="M488,-109.51C498.07,-101.77 512.84,-90.43 524.86,-81.2"/>
<polygon fill="#63b8ff" stroke="#63b8ff" points="526.77,-84.15 532.56,-75.28 522.5,-78.6 526.77,-84.15"/>
</g>
<!-- Node22 -->
<g id="node22" class="node">
<title>Node22</title>
<g id="a_node22"><a xlink:href="country_8h.html" target="_top" xlink:title=" ">
<polygon fill="white" stroke="#666666" points="213.8,-129 156.8,-129 156.8,-110 213.8,-110 213.8,-129"/>
<text text-anchor="middle" x="185.3" y="-117" font-family="Helvetica,sans-Serif" font-size="10.00">country.h</text>
</a>
</g>
</g>
<!-- Node21&#45;&gt;Node22 -->
<g id="edge23" class="edge">
<title>Node21&#45;&gt;Node22</title>
<path fill="none" stroke="#63b8ff" d="M333.12,-219.66C305.64,-201.23 241.95,-158.5 207.83,-135.62"/>
<polygon fill="#63b8ff" stroke="#63b8ff" points="210.17,-132.97 199.91,-130.3 206.27,-138.78 210.17,-132.97"/>
</g>
<!-- Node23 -->
<g id="node23" class="node">
<title>Node23</title>
<g id="a_node23"><a xlink:href="population__item_8h.html" target="_top" xlink:title=" ">
<polygon fill="white" stroke="#666666" points="185.8,-184 92.8,-184 92.8,-165 185.8,-165 185.8,-184"/>
<text text-anchor="middle" x="139.3" y="-172" font-family="Helvetica,sans-Serif" font-size="10.00">population_item.h</text>
</a>
</g>
</g>
<!-- Node21&#45;&gt;Node23 -->
<g id="edge25" class="edge">
<title>Node21&#45;&gt;Node23</title>
<path fill="none" stroke="#63b8ff" d="M322.95,-222.52C289.66,-214 227.86,-198.18 185.21,-187.25"/>
<polygon fill="#63b8ff" stroke="#63b8ff" points="186.28,-183.92 175.73,-184.83 184.55,-190.7 186.28,-183.92"/>
</g>
<!-- Node25 -->
<g id="node25" class="node">
<title>Node25</title>
<g id="a_node25"><a xlink:href="_health_g_p_s_8_core_2disease_8h.html" target="_top" xlink:title=" ">
<polygon fill="white" stroke="#666666" points="494.8,-184 435.8,-184 435.8,-165 494.8,-165 494.8,-184"/>
<text text-anchor="middle" x="465.3" y="-172" font-family="Helvetica,sans-Serif" font-size="10.00">disease.h</text>
</a>
</g>
</g>
<!-- Node21&#45;&gt;Node25 -->
<g id="edge27" class="edge">
<title>Node21&#45;&gt;Node25</title>
<path fill="none" stroke="#63b8ff" d="M366.48,-219.51C385.32,-211.12 413.66,-198.5 435.17,-188.92"/>
<polygon fill="#63b8ff" stroke="#63b8ff" points="436.31,-192.24 444.03,-184.97 433.47,-185.85 436.31,-192.24"/>
</g>
<!-- Node28 -->
<g id="node28" class="node">
<title>Node28</title>
<g id="a_node28"><a xlink:href="analysis_8h.html" target="_top" xlink:title=" ">
<polygon fill="white" stroke="#666666" points="417.8,-184 356.8,-184 356.8,-165 417.8,-165 417.8,-184"/>
<text text-anchor="middle" x="387.3" y="-172" font-family="Helvetica,sans-Serif" font-size="10.00">analysis.h</text>
</a>
</g>
</g>
<!-- Node21&#45;&gt;Node28 -->
<g id="edge36" class="edge">
<title>Node21&#45;&gt;Node28</title>
<path fill="none" stroke="#63b8ff" d="M353.07,-219.75C358.61,-212.58 366.64,-202.2 373.53,-193.3"/>
<polygon fill="#63b8ff" stroke="#63b8ff" points="376.1,-195.69 379.45,-185.64 370.57,-191.41 376.1,-195.69"/>
</g>
<!-- Node29 -->
<g id="node29" class="node">
<title>Node29</title>
<g id="a_node29"><a xlink:href="indicator_8h.html" target="_top" xlink:title=" ">
<polygon fill="white" stroke="#666666" points="294.3,-129 232.3,-129 232.3,-110 294.3,-110 294.3,-129"/>
<text text-anchor="middle" x="263.3" y="-117" font-family="Helvetica,sans-Serif" font-size="10.00">indicator.h</text>
</a>
</g>
</g>
<!-- Node21&#45;&gt;Node29 -->
<g id="edge41" class="edge">
<title>Node21&#45;&gt;Node29</title>
<path fill="none" stroke="#63b8ff" d="M339.5,-219.66C325.89,-201.94 295.01,-161.77 277.02,-138.35"/>
<polygon fill="#63b8ff" stroke="#63b8ff" points="279.97,-136.46 271.11,-130.66 274.42,-140.72 279.97,-136.46"/>
</g>
<!-- Node30 -->
<g id="node30" class="node">
<title>Node30</title>
<g id="a_node30"><a xlink:href="mortality_8h.html" target="_top" xlink:title=" ">
<polygon fill="white" stroke="#666666" points="74.3,-184 12.3,-184 12.3,-165 74.3,-165 74.3,-184"/>
<text text-anchor="middle" x="43.3" y="-172" font-family="Helvetica,sans-Serif" font-size="10.00">mortality.h</text>
</a>
</g>
</g>
<!-- Node21&#45;&gt;Node30 -->
<g id="edge43" class="edge">
<title>Node21&#45;&gt;Node30</title>
<path fill="none" stroke="#63b8ff" d="M323.02,-224.9C278.83,-217.98 179.5,-202.11 85.81,-184.42"/>
<polygon fill="#63b8ff" stroke="#63b8ff" points="86.68,-181.02 76.2,-182.59 85.37,-187.89 86.68,-181.02"/>
</g>
<!-- Node22&#45;&gt;Node11 -->
<g id="edge24" class="edge">
<title>Node22&#45;&gt;Node11</title>
<path fill="none" stroke="#63b8ff" d="M213.84,-111.89C256.76,-101.96 337.67,-83.24 382.45,-72.87"/>
<polygon fill="#63b8ff" stroke="#63b8ff" points="383.11,-76.31 392.07,-70.65 381.53,-69.49 383.11,-76.31"/>
</g>
<!-- Node24 -->
<g id="node24" class="node">
<title>Node24</title>
<g id="a_node24"><a xlink:title=" ">
<polygon fill="#e0e0e0" stroke="#999999" points="100.3,-129 62.3,-129 62.3,-110 100.3,-110 100.3,-129"/>
<text text-anchor="middle" x="81.3" y="-117" font-family="Helvetica,sans-Serif" font-size="10.00">tuple</text>
</a>
</g>
</g>
<!-- Node23&#45;&gt;Node24 -->
<g id="edge26" class="edge">
<title>Node23&#45;&gt;Node24</title>
<path fill="none" stroke="#63b8ff" d="M129.46,-164.51C121.24,-157 109.31,-146.1 99.38,-137.03"/>
<polygon fill="#63b8ff" stroke="#63b8ff" points="101.85,-134.54 92.11,-130.38 97.13,-139.71 101.85,-134.54"/>
</g>
<!-- Node25&#45;&gt;Node3 -->
<g id="edge30" class="edge">
<title>Node25&#45;&gt;Node3</title>
<path fill="none" stroke="#63b8ff" d="M442.4,-164.51C419.3,-155.44 383.6,-141.43 358.72,-131.66"/>
<polygon fill="#63b8ff" stroke="#63b8ff" points="360.12,-128.45 349.53,-128.05 357.56,-134.97 360.12,-128.45"/>
</g>
<!-- Node25&#45;&gt;Node8 -->
<g id="edge29" class="edge">
<title>Node25&#45;&gt;Node8</title>
<path fill="none" stroke="#63b8ff" d="M495.21,-171.19C607.29,-162.53 1001.85,-132.05 1118.55,-123.03"/>
<polygon fill="#63b8ff" stroke="#63b8ff" points="1118.66,-126.53 1128.36,-122.27 1118.12,-119.55 1118.66,-126.53"/>
</g>
<!-- Node25&#45;&gt;Node11 -->
<g id="edge28" class="edge">
<title>Node25&#45;&gt;Node11</title>
<path fill="none" stroke="#63b8ff" d="M457.46,-164.53C450.3,-155.93 439.85,-142.32 433.3,-129 426.45,-115.07 421.54,-98.19 418.43,-85.34"/>
<polygon fill="#63b8ff" stroke="#63b8ff" points="421.93,-84.94 416.33,-75.95 415.1,-86.47 421.93,-84.94"/>
</g>
<!-- Node25&#45;&gt;Node15 -->
<g id="edge31" class="edge">
<title>Node25&#45;&gt;Node15</title>
<path fill="none" stroke="#63b8ff" d="M483.45,-164.52C508.68,-152.09 555.8,-129.01 596.3,-110 618.89,-99.4 644.57,-87.75 663.98,-79.03"/>
<polygon fill="#63b8ff" stroke="#63b8ff" points="665.26,-82.29 672.95,-75.01 662.4,-75.9 665.26,-82.29"/>
</g>
<!-- Node25&#45;&gt;Node26 -->
<g id="edge32" class="edge">
<title>Node25&#45;&gt;Node26</title>
<path fill="none" stroke="#63b8ff" d="M494.14,-164.51C522.06,-155.8 564.63,-142.53 595.72,-132.84"/>
<polygon fill="#63b8ff" stroke="#63b8ff" points="596.65,-136.21 605.16,-129.9 594.57,-129.53 596.65,-136.21"/>
</g>
<!-- Node26&#45;&gt;Node11 -->
<g id="edge33" class="edge">
<title>Node26&#45;&gt;Node11</title>
<path fill="none" stroke="#63b8ff" d="M604.57,-111.13C562.83,-101.12 488.58,-83.31 446.23,-73.16"/>
<polygon fill="#63b8ff" stroke="#63b8ff" points="447.19,-69.79 436.65,-70.86 445.56,-76.6 447.19,-69.79"/>
</g>
<!-- Node26&#45;&gt;Node19 -->
<g id="edge35" class="edge">
<title>Node26&#45;&gt;Node19</title>
<path fill="none" stroke="#63b8ff" d="M620.03,-109.51C606.37,-101.47 586.1,-89.53 570.11,-80.11"/>
<polygon fill="#63b8ff" stroke="#63b8ff" points="572.04,-77.18 561.64,-75.13 568.48,-83.22 572.04,-77.18"/>
</g>
<!-- Node27 -->
<g id="node27" class="node">
<title>Node27</title>
<g id="a_node27"><a xlink:title=" ">
<polygon fill="#e0e0e0" stroke="#999999" points="1156.3,-74 1104.3,-74 1104.3,-55 1156.3,-55 1156.3,-74"/>
<text text-anchor="middle" x="1130.3" y="-62" font-family="Helvetica,sans-Serif" font-size="10.00">ostream</text>
</a>
</g>
</g>
<!-- Node26&#45;&gt;Node27 -->
<g id="edge34" class="edge">
<title>Node26&#45;&gt;Node27</title>
<path fill="none" stroke="#63b8ff" d="M666.26,-115.18C753.03,-105.89 998.36,-79.63 1092.69,-69.53"/>
<polygon fill="#63b8ff" stroke="#63b8ff" points="1092.87,-73.03 1102.44,-68.48 1092.12,-66.07 1092.87,-73.03"/>
</g>
<!-- Node28&#45;&gt;Node3 -->
<g id="edge37" class="edge">
<title>Node28&#45;&gt;Node3</title>
<path fill="none" stroke="#63b8ff" d="M377.63,-164.51C369.55,-157 357.83,-146.1 348.07,-137.03"/>
<polygon fill="#63b8ff" stroke="#63b8ff" points="350.64,-134.63 340.93,-130.39 345.87,-139.76 350.64,-134.63"/>
</g>
<!-- Node28&#45;&gt;Node8 -->
<g id="edge38" class="edge">
<title>Node28&#45;&gt;Node8</title>
<path fill="none" stroke="#63b8ff" d="M417.87,-166.37C420.71,-165.85 423.55,-165.38 426.3,-165 691.56,-128.17 1015.64,-121.82 1118.41,-120.73"/>
<polygon fill="#63b8ff" stroke="#63b8ff" points="1118.35,-124.23 1128.31,-120.63 1118.28,-117.23 1118.35,-124.23"/>
</g>
<!-- Node28&#45;&gt;Node11 -->
<g id="edge39" class="edge">
<title>Node28&#45;&gt;Node11</title>
<path fill="none" stroke="#63b8ff" d="M388.78,-164.81C390.95,-152.52 395.28,-129.39 400.3,-110 402.43,-101.77 405.17,-92.8 407.66,-85.09"/>
<polygon fill="#63b8ff" stroke="#63b8ff" points="410.94,-86.32 410.76,-75.72 404.29,-84.11 410.94,-86.32"/>
</g>
<!-- Node28&#45;&gt;Node15 -->
<g id="edge40" class="edge">
<title>Node28&#45;&gt;Node15</title>
<path fill="none" stroke="#63b8ff" d="M418.3,-164.6C445.2,-156.49 484.96,-143.59 518.3,-129 534.51,-121.91 537,-116.92 553.3,-110 584.24,-96.86 620.42,-85.52 648.39,-77.58"/>
<polygon fill="#63b8ff" stroke="#63b8ff" points="649.29,-80.96 657.98,-74.9 647.41,-74.21 649.29,-80.96"/>
</g>
<!-- Node29&#45;&gt;Node11 -->
<g id="edge42" class="edge">
<title>Node29&#45;&gt;Node11</title>
<path fill="none" stroke="#63b8ff" d="M288.91,-109.51C314.8,-100.42 354.84,-86.37 382.68,-76.6"/>
<polygon fill="#63b8ff" stroke="#63b8ff" points="383.72,-79.94 392,-73.33 381.4,-73.34 383.72,-79.94"/>
</g>
<!-- Node30&#45;&gt;Node24 -->
<g id="edge44" class="edge">
<title>Node30&#45;&gt;Node24</title>
<path fill="none" stroke="#63b8ff" d="M49.57,-164.75C54.66,-157.66 61.99,-147.42 68.33,-138.59"/>
<polygon fill="#63b8ff" stroke="#63b8ff" points="71.02,-140.84 74,-130.67 65.33,-136.76 71.02,-140.84"/>
</g>
<!-- Node31&#45;&gt;Node15 -->
<g id="edge46" class="edge">
<title>Node31&#45;&gt;Node15</title>
<path fill="none" stroke="#63b8ff" d="M1739.16,-111.61C1736.19,-110.98 1733.19,-110.42 1730.3,-110 1537.11,-82 927.78,-69.5 745.99,-66.34"/>
<polygon fill="#63b8ff" stroke="#63b8ff" points="746.21,-62.84 736.15,-66.17 746.09,-69.84 746.21,-62.84"/>
</g>
<!-- Node32&#45;&gt;Node8 -->
<g id="edge50" class="edge">
<title>Node32&#45;&gt;Node8</title>
<path fill="none" stroke="#63b8ff" d="M1299.36,-219.64C1282.44,-207.15 1250.38,-183.79 1222.3,-165 1207.08,-154.81 1189.65,-143.88 1175.88,-135.4"/>
<polygon fill="#63b8ff" stroke="#63b8ff" points="1177.79,-132.47 1167.44,-130.24 1174.14,-138.45 1177.79,-132.47"/>
</g>
<!-- Node32&#45;&gt;Node13 -->
<g id="edge53" class="edge">
<title>Node32&#45;&gt;Node13</title>
<path fill="none" stroke="#63b8ff" d="M1290.43,-219.51C1270.88,-211.08 1241.4,-198.38 1219.13,-188.79"/>
<polygon fill="#63b8ff" stroke="#63b8ff" points="1220.81,-185.7 1210.24,-184.96 1218.04,-192.13 1220.81,-185.7"/>
</g>
<!-- Node32&#45;&gt;Node27 -->
<g id="edge54" class="edge">
<title>Node32&#45;&gt;Node27</title>
<path fill="none" stroke="#63b8ff" d="M1344.27,-223.2C1385.31,-215.13 1447.38,-197.18 1424.3,-165 1364.87,-82.15 1232.67,-67.41 1167.74,-65.37"/>
<polygon fill="#63b8ff" stroke="#63b8ff" points="1168.02,-61.87 1157.95,-65.15 1167.87,-68.87 1168.02,-61.87"/>
</g>
<!-- Node32&#45;&gt;Node33 -->
<g id="edge48" class="edge">
<title>Node32&#45;&gt;Node33</title>
<path fill="none" stroke="#63b8ff" d="M1343.87,-220.79C1384.77,-211.12 1454.79,-194.55 1497.86,-184.36"/>
<polygon fill="#63b8ff" stroke="#63b8ff" points="1498.59,-187.78 1507.51,-182.07 1496.97,-180.97 1498.59,-187.78"/>
</g>
<!-- Node34 -->
<g id="node34" class="node">
<title>Node34</title>
<g id="a_node34"><a xlink:title=" ">
<polygon fill="#e0e0e0" stroke="#999999" points="1415.3,-184 1371.3,-184 1371.3,-165 1415.3,-165 1415.3,-184"/>
<text text-anchor="middle" x="1393.3" y="-172" font-family="Helvetica,sans-Serif" font-size="10.00">mutex</text>
</a>
</g>
</g>
<!-- Node32&#45;&gt;Node34 -->
<g id="edge49" class="edge">
<title>Node32&#45;&gt;Node34</title>
<path fill="none" stroke="#63b8ff" d="M1325.21,-219.51C1337.53,-211.54 1355.77,-199.75 1370.27,-190.38"/>
<polygon fill="#63b8ff" stroke="#63b8ff" points="1371.82,-193.55 1378.32,-185.18 1368.02,-187.67 1371.82,-193.55"/>
</g>
<!-- Node35 -->
<g id="node35" class="node">
<title>Node35</title>
<g id="a_node35"><a xlink:title=" ">
<polygon fill="#e0e0e0" stroke="#999999" points="1352.8,-184 1269.8,-184 1269.8,-165 1352.8,-165 1352.8,-184"/>
<text text-anchor="middle" x="1311.3" y="-172" font-family="Helvetica,sans-Serif" font-size="10.00">unordered_map</text>
</a>
</g>
</g>
<!-- Node32&#45;&gt;Node35 -->
<g id="edge51" class="edge">
<title>Node32&#45;&gt;Node35</title>
<path fill="none" stroke="#63b8ff" d="M1311.3,-219.75C1311.3,-213.27 1311.3,-204.16 1311.3,-195.9"/>
<polygon fill="#63b8ff" stroke="#63b8ff" points="1314.8,-195.96 1311.3,-185.96 1307.8,-195.96 1314.8,-195.96"/>
</g>
<!-- Node36 -->
<g id="node36" class="node">
<title>Node36</title>
<g id="a_node36"><a xlink:title=" ">
<polygon fill="#e0e0e0" stroke="#999999" points="1145.3,-184 1089.3,-184 1089.3,-165 1145.3,-165 1145.3,-184"/>
<text text-anchor="middle" x="1117.3" y="-172" font-family="Helvetica,sans-Serif" font-size="10.00">algorithm</text>
</a>
</g>
</g>
<!-- Node32&#45;&gt;Node36 -->
<g id="edge52" class="edge">
<title>Node32&#45;&gt;Node36</title>
<path fill="none" stroke="#63b8ff" d="M1278.39,-219.51C1244.73,-210.32 1192.45,-196.03 1156.63,-186.25"/>
<polygon fill="#63b8ff" stroke="#63b8ff" points="1157.66,-182.9 1147.09,-183.64 1155.81,-189.65 1157.66,-182.9"/>
</g>
<!-- Node37 -->
<g id="node37" class="node">
<title>Node37</title>
<g id="a_node37"><a xlink:href="column_8h.html" target="_top" xlink:title=" ">
<polygon fill="white" stroke="#666666" points="1635.3,-184 1579.3,-184 1579.3,-165 1635.3,-165 1635.3,-184"/>
<text text-anchor="middle" x="1607.3" y="-172" font-family="Helvetica,sans-Serif" font-size="10.00">column.h</text>
</a>
</g>
</g>
<!-- Node32&#45;&gt;Node37 -->
<g id="edge55" class="edge">
<title>Node32&#45;&gt;Node37</title>
<path fill="none" stroke="#63b8ff" d="M1344.11,-223.46C1391.36,-216.08 1481.54,-201.5 1567.98,-184.37"/>
<polygon fill="#63b8ff" stroke="#63b8ff" points="1568.45,-187.85 1577.57,-182.46 1567.07,-180.98 1568.45,-187.85"/>
</g>
<!-- Node37&#45;&gt;Node11 -->
<g id="edge58" class="edge">
<title>Node37&#45;&gt;Node11</title>
<path fill="none" stroke="#63b8ff" d="M1579.07,-166.75C1576.11,-166.13 1573.15,-165.53 1570.3,-165 1398.61,-133.2 1355.09,-126.89 1181.3,-110 882.72,-80.97 806.5,-95.66 507.3,-74 486.97,-72.53 464.17,-70.45 446.24,-68.72"/>
<polygon fill="#63b8ff" stroke="#63b8ff" points="446.76,-65.25 436.47,-67.76 446.08,-72.22 446.76,-65.25"/>
</g>
<!-- Node37&#45;&gt;Node31 -->
<g id="edge59" class="edge">
<title>Node37&#45;&gt;Node31</title>
<path fill="none" stroke="#63b8ff" d="M1633.93,-164.51C1659.8,-155.77 1699.28,-142.45 1728.02,-132.75"/>
<polygon fill="#63b8ff" stroke="#63b8ff" points="1729.05,-136.09 1737.4,-129.58 1726.81,-129.46 1729.05,-136.09"/>
</g>
<!-- Node38 -->
<g id="node38" class="node">
<title>Node38</title>
<g id="a_node38"><a xlink:title=" ">
<polygon fill="#e0e0e0" stroke="#999999" points="1654.3,-129 1622.3,-129 1622.3,-110 1654.3,-110 1654.3,-129"/>
<text text-anchor="middle" x="1638.3" y="-117" font-family="Helvetica,sans-Serif" font-size="10.00">any</text>
</a>
</g>
</g>
<!-- Node37&#45;&gt;Node38 -->
<g id="edge56" class="edge">
<title>Node37&#45;&gt;Node38</title>
<path fill="none" stroke="#63b8ff" d="M1612.42,-164.75C1616.48,-157.81 1622.29,-147.86 1627.38,-139.16"/>
<polygon fill="#63b8ff" stroke="#63b8ff" points="1630.27,-141.15 1632.3,-130.75 1624.23,-137.61 1630.27,-141.15"/>
</g>
<!-- Node39 -->
<g id="node39" class="node">
<title>Node39</title>
<g id="a_node39"><a xlink:title=" ">
<polygon fill="#e0e0e0" stroke="#999999" points="1604.3,-129 1554.3,-129 1554.3,-110 1604.3,-110 1604.3,-129"/>
<text text-anchor="middle" x="1579.3" y="-117" font-family="Helvetica,sans-Serif" font-size="10.00">typeinfo</text>
</a>
</g>
</g>
<!-- Node37&#45;&gt;Node39 -->
<g id="edge57" class="edge">
<title>Node37&#45;&gt;Node39</title>
<path fill="none" stroke="#63b8ff" d="M1602.67,-164.75C1599.05,-157.88 1593.87,-148.08 1589.31,-139.45"/>
<polygon fill="#63b8ff" stroke="#63b8ff" points="1592.49,-137.99 1584.73,-130.78 1586.3,-141.26 1592.49,-137.99"/>
</g>
<!-- Node41 -->
<g id="node41" class="node">
<title>Node41</title>
<g id="a_node41"><a xlink:href="column__primitive_8h.html" target="_top" xlink:title=" ">
<polygon fill="white" stroke="#666666" points="1475.8,-239 1378.8,-239 1378.8,-220 1475.8,-220 1475.8,-239"/>
<text text-anchor="middle" x="1427.3" y="-227" font-family="Helvetica,sans-Serif" font-size="10.00">column_primitive.h</text>
</a>
</g>
</g>
<!-- Node40&#45;&gt;Node41 -->
<g id="edge61" class="edge">
<title>Node40&#45;&gt;Node41</title>
<path fill="none" stroke="#63b8ff" d="M1365.02,-274.51C1376.08,-266.7 1392.33,-255.21 1405.47,-245.93"/>
<polygon fill="#63b8ff" stroke="#63b8ff" points="1407.38,-248.86 1413.53,-240.23 1403.34,-243.14 1407.38,-248.86"/>
</g>
<!-- Node41&#45;&gt;Node8 -->
<g id="edge63" class="edge">
<title>Node41&#45;&gt;Node8</title>
<path fill="none" stroke="#63b8ff" d="M1429.93,-219.85C1433.45,-206.33 1437.81,-180.16 1424.3,-165 1392.93,-129.82 1249.17,-122.43 1183.81,-120.89"/>
<polygon fill="#63b8ff" stroke="#63b8ff" points="1184.15,-117.4 1174.08,-120.7 1184.01,-124.4 1184.15,-117.4"/>
</g>
<!-- Node41&#45;&gt;Node13 -->
<g id="edge64" class="edge">
<title>Node41&#45;&gt;Node13</title>
<path fill="none" stroke="#63b8ff" d="M1386.75,-219.51C1341.37,-209.45 1268.49,-193.28 1224.82,-183.6"/>
<polygon fill="#63b8ff" stroke="#63b8ff" points="1225.58,-180.18 1215.06,-181.44 1224.07,-187.02 1225.58,-180.18"/>
</g>
<!-- Node41&#45;&gt;Node36 -->
<g id="edge62" class="edge">
<title>Node41&#45;&gt;Node36</title>
<path fill="none" stroke="#63b8ff" d="M1378.31,-221.48C1325.89,-213.76 1240.06,-200.5 1156.74,-184.37"/>
<polygon fill="#63b8ff" stroke="#63b8ff" points="1157.51,-180.96 1147.02,-182.47 1156.17,-187.83 1157.51,-180.96"/>
</g>
<!-- Node41&#45;&gt;Node37 -->
<g id="edge65" class="edge">
<title>Node41&#45;&gt;Node37</title>
<path fill="none" stroke="#63b8ff" d="M1457.83,-219.51C1488.29,-210.54 1535.2,-196.73 1568.33,-186.97"/>
<polygon fill="#63b8ff" stroke="#63b8ff" points="1568.93,-190.44 1577.54,-184.26 1566.96,-183.73 1568.93,-190.44"/>
</g>
<!-- Node41&#45;&gt;Node42 -->
<g id="edge66" class="edge">
<title>Node41&#45;&gt;Node42</title>
<path fill="none" stroke="#63b8ff" d="M1473.44,-219.51C1519.98,-210.44 1591.94,-196.42 1642.09,-186.65"/>
<polygon fill="#63b8ff" stroke="#63b8ff" points="1642.75,-190.08 1651.9,-184.74 1641.41,-183.21 1642.75,-190.08"/>
</g>
<!-- Node43 -->
<g id="node43" class="node">
<title>Node43</title>
<g id="a_node43"><a xlink:title=" ">
<polygon fill="#e0e0e0" stroke="#999999" points="1720.8,-129 1673.8,-129 1673.8,-110 1720.8,-110 1720.8,-129"/>
<text text-anchor="middle" x="1697.3" y="-117" font-family="Helvetica,sans-Serif" font-size="10.00">iterator</text>
</a>
</g>
</g>
<!-- Node42&#45;&gt;Node43 -->
<g id="edge67" class="edge">
<title>Node42&#45;&gt;Node43</title>
<path fill="none" stroke="#63b8ff" d="M1698.97,-164.75C1698.72,-158.27 1698.38,-149.16 1698.07,-140.9"/>
<polygon fill="#63b8ff" stroke="#63b8ff" points="1701.57,-140.82 1697.69,-130.95 1694.57,-141.08 1701.57,-140.82"/>
</g>
<!-- Node44&#45;&gt;Node7 -->
<g id="edge70" class="edge">
<title>Node44&#45;&gt;Node7</title>
<path fill="none" stroke="#63b8ff" d="M1794.67,-219.51C1814.94,-210.98 1845.63,-198.08 1868.53,-188.44"/>
<polygon fill="#63b8ff" stroke="#63b8ff" points="1869.81,-191.7 1877.68,-184.59 1867.1,-185.25 1869.81,-191.7"/>
</g>
<!-- Node44&#45;&gt;Node8 -->
<g id="edge71" class="edge">
<title>Node44&#45;&gt;Node8</title>
<path fill="none" stroke="#63b8ff" d="M1773.55,-219.86C1773.45,-205.85 1770.98,-178.41 1754.3,-165 1709.65,-129.12 1302.84,-122.08 1183.85,-120.78"/>
<polygon fill="#63b8ff" stroke="#63b8ff" points="1184.18,-117.28 1174.14,-120.68 1184.11,-124.28 1184.18,-117.28"/>
</g>
<!-- Node44&#45;&gt;Node33 -->
<g id="edge69" class="edge">
<title>Node44&#45;&gt;Node33</title>
<path fill="none" stroke="#63b8ff" d="M1731.25,-219.57C1692.48,-211.27 1633.05,-198.39 1572.56,-184.48"/>
<polygon fill="#63b8ff" stroke="#63b8ff" points="1573.66,-181.15 1563.13,-182.31 1572.09,-187.97 1573.66,-181.15"/>
</g>
<!-- Node44&#45;&gt;Node37 -->
<g id="edge73" class="edge">
<title>Node44&#45;&gt;Node37</title>
<path fill="none" stroke="#63b8ff" d="M1745.14,-219.51C1717.87,-210.8 1676.3,-197.53 1645.95,-187.84"/>
<polygon fill="#63b8ff" stroke="#63b8ff" points="1647.35,-184.61 1636.76,-184.91 1645.22,-191.28 1647.35,-184.61"/>
</g>
<!-- Node45 -->
<g id="node45" class="node">
<title>Node45</title>
<g id="a_node45"><a xlink:title=" ">
<polygon fill="#e0e0e0" stroke="#999999" points="1860.8,-184 1801.8,-184 1801.8,-165 1860.8,-165 1860.8,-184"/>
<text text-anchor="middle" x="1831.3" y="-172" font-family="Helvetica,sans-Serif" font-size="10.00">exception</text>
</a>
</g>
</g>
<!-- Node44&#45;&gt;Node45 -->
<g id="edge72" class="edge">
<title>Node44&#45;&gt;Node45</title>
<path fill="none" stroke="#63b8ff" d="M1783.14,-219.51C1791.35,-212 1803.28,-201.1 1813.21,-192.03"/>
<polygon fill="#63b8ff" stroke="#63b8ff" points="1815.47,-194.71 1820.49,-185.38 1810.74,-189.54 1815.47,-194.71"/>
</g>
<!-- Node46&#45;&gt;Node8 -->
<g id="edge79" class="edge">
<title>Node46&#45;&gt;Node8</title>
<path fill="none" stroke="#63b8ff" d="M965.69,-219.7C987.51,-207.28 1028.73,-184 1064.3,-165 1084,-154.48 1106.45,-143.01 1123.61,-134.35"/>
<polygon fill="#63b8ff" stroke="#63b8ff" points="1124.83,-137.65 1132.19,-130.03 1121.68,-131.4 1124.83,-137.65"/>
</g>
<!-- Node46&#45;&gt;Node15 -->
<g id="edge77" class="edge">
<title>Node46&#45;&gt;Node15</title>
<path fill="none" stroke="#63b8ff" d="M949.48,-219.54C947.79,-206.07 942.79,-180.52 928.3,-165 879.32,-112.54 798.18,-86.59 745.48,-74.62"/>
<polygon fill="#63b8ff" stroke="#63b8ff" points="746.35,-71.23 735.84,-72.53 744.87,-78.07 746.35,-71.23"/>
</g>
<!-- Node46&#45;&gt;Node20 -->
<g id="edge83" class="edge">
<title>Node46&#45;&gt;Node20</title>
<path fill="none" stroke="#63b8ff" d="M921.57,-221.35C885.89,-212.47 824.61,-197.23 782.58,-186.77"/>
<polygon fill="#63b8ff" stroke="#63b8ff" points="783.56,-183.41 773.01,-184.39 781.87,-190.2 783.56,-183.41"/>
</g>
<!-- Node46&#45;&gt;Node33 -->
<g id="edge78" class="edge">
<title>Node46&#45;&gt;Node33</title>
<path fill="none" stroke="#63b8ff" d="M978.89,-222.1C983.04,-221.31 987.27,-220.58 991.3,-220 1016.35,-216.39 1378.53,-187.81 1497.64,-178.45"/>
<polygon fill="#63b8ff" stroke="#63b8ff" points="1497.82,-181.95 1507.52,-177.68 1497.27,-174.97 1497.82,-181.95"/>
</g>
<!-- Node46&#45;&gt;Node36 -->
<g id="edge80" class="edge">
<title>Node46&#45;&gt;Node36</title>
<path fill="none" stroke="#63b8ff" d="M978.63,-219.51C1006.06,-210.8 1047.87,-197.53 1078.41,-187.84"/>
<polygon fill="#63b8ff" stroke="#63b8ff" points="1079.19,-191.27 1087.67,-184.9 1077.08,-184.59 1079.19,-191.27"/>
</g>
<!-- Node47 -->
<g id="node47" class="node">
<title>Node47</title>
<g id="a_node47"><a xlink:title=" ">
<polygon fill="#e0e0e0" stroke="#999999" points="848.8,-184 789.8,-184 789.8,-165 848.8,-165 848.8,-184"/>
<text text-anchor="middle" x="819.3" y="-172" font-family="Helvetica,sans-Serif" font-size="10.00">stdexcept</text>
</a>
</g>
</g>
<!-- Node46&#45;&gt;Node47 -->
<g id="edge81" class="edge">
<title>Node46&#45;&gt;Node47</title>
<path fill="none" stroke="#63b8ff" d="M928.07,-219.51C907.15,-211.04 875.57,-198.27 851.81,-188.66"/>
<polygon fill="#63b8ff" stroke="#63b8ff" points="853.18,-185.43 842.59,-184.93 850.55,-191.92 853.18,-185.43"/>
</g>
<!-- Node48 -->
<g id="node48" class="node">
<title>Node48</title>
<g id="a_node48"><a xlink:title=" ">
<polygon fill="#e0e0e0" stroke="#999999" points="919.3,-184 867.3,-184 867.3,-165 919.3,-165 919.3,-184"/>
<text text-anchor="middle" x="893.3" y="-172" font-family="Helvetica,sans-Serif" font-size="10.00">sstream</text>
</a>
</g>
</g>
<!-- Node46&#45;&gt;Node48 -->
<g id="edge82" class="edge">
<title>Node46&#45;&gt;Node48</title>
<path fill="none" stroke="#63b8ff" d="M940.63,-219.51C932.55,-212 920.83,-201.1 911.07,-192.03"/>
<polygon fill="#63b8ff" stroke="#63b8ff" points="913.64,-189.63 903.93,-185.39 908.87,-194.76 913.64,-189.63"/>
</g>
<!-- Node49&#45;&gt;Node8 -->
<g id="edge86" class="edge">
<title>Node49&#45;&gt;Node8</title>
<path fill="none" stroke="#63b8ff" d="M1056.9,-219.81C1059.7,-206.69 1066.52,-181.59 1080.3,-165 1090.96,-152.16 1106.33,-141.89 1120.04,-134.46"/>
<polygon fill="#63b8ff" stroke="#63b8ff" points="1121.43,-137.69 1128.75,-130.03 1118.25,-131.45 1121.43,-137.69"/>
</g>
<!-- Node49&#45;&gt;Node11 -->
<g id="edge85" class="edge">
<title>Node49&#45;&gt;Node11</title>
<path fill="none" stroke="#63b8ff" d="M1040.58,-219.61C1017.46,-206 970.84,-180 928.3,-165 752.4,-103.01 528.26,-76.47 446.22,-68.38"/>
<polygon fill="#63b8ff" stroke="#63b8ff" points="446.74,-64.91 436.46,-67.44 446.08,-71.88 446.74,-64.91"/>
</g>
<!-- Node49&#45;&gt;Node13 -->
<g id="edge87" class="edge">
<title>Node49&#45;&gt;Node13</title>
<path fill="none" stroke="#63b8ff" d="M1077.86,-219.51C1099.2,-211.01 1131.46,-198.15 1155.61,-188.53"/>
<polygon fill="#63b8ff" stroke="#63b8ff" points="1156.67,-191.87 1164.66,-184.92 1154.08,-185.37 1156.67,-191.87"/>
</g>
</g>
</svg>
