<?xml version="1.0" encoding="UTF-8" standalone="no"?>
<!DOCTYPE svg PUBLIC "-//W3C//DTD SVG 1.1//EN"
 "http://www.w3.org/Graphics/SVG/1.1/DTD/svg11.dtd">
<!-- Generated by graphviz version 7.0.6 (20230106.0513)
 -->
<!-- Title: main Pages: 1 -->
<svg width="893pt" height="887pt"
 viewBox="0.00 0.00 893.00 887.00" xmlns="http://www.w3.org/2000/svg" xmlns:xlink="http://www.w3.org/1999/xlink">
<g id="graph0" class="graph" transform="scale(1 1) rotate(0) translate(4 883)">
<title>main</title>
<!-- Node1 -->
<g id="node1" class="node">
<title>Node1</title>
<g id="a_node1"><a xlink:title=" ">
<polygon fill="#999999" stroke="#666666" points="38,-456 0,-456 0,-437 38,-437 38,-456"/>
<text text-anchor="middle" x="19" y="-444" font-family="Helvetica,sans-Serif" font-size="10.00">main</text>
</a>
</g>
</g>
<!-- Node2 -->
<g id="node2" class="node">
<title>Node2</title>
<g id="a_node2"><a xlink:href="configuration_8cpp.html#abca01cbba192888924595a9e6afbd6c5" target="_top" xlink:title=" ">
<polygon fill="white" stroke="#666666" points="208,-875 74,-875 74,-856 208,-856 208,-875"/>
<text text-anchor="middle" x="141" y="-863" font-family="Helvetica,sans-Serif" font-size="10.00">create_baseline_simulation</text>
</a>
</g>
</g>
<!-- Node1&#45;&gt;Node2 -->
<g id="edge1" class="edge">
<title>Node1&#45;&gt;Node2</title>
<path fill="none" stroke="#63b8ff" d="M20.08,-456.19C20.7,-510.33 26.2,-775.06 74,-837.5 77.97,-842.69 83.1,-846.93 88.73,-850.39"/>
<polygon fill="#63b8ff" stroke="#63b8ff" points="86.75,-853.31 97.23,-854.81 89.97,-847.09 86.75,-853.31"/>
</g>
<!-- Node4 -->
<g id="node4" class="node">
<title>Node4</title>
<g id="a_node4"><a xlink:href="configuration_8cpp.html#a32941ab19338506c6bf94a654a8ef756" target="_top" xlink:title=" ">
<polygon fill="white" stroke="#666666" points="190,-577.5 92,-577.5 92,-547.5 190,-547.5 190,-577.5"/>
<text text-anchor="start" x="100" y="-565.5" font-family="Helvetica,sans-Serif" font-size="10.00">create_intervention</text>
<text text-anchor="middle" x="141" y="-554.5" font-family="Helvetica,sans-Serif" font-size="10.00">_simulation</text>
</a>
</g>
</g>
<!-- Node1&#45;&gt;Node4 -->
<g id="edge3" class="edge">
<title>Node1&#45;&gt;Node4</title>
<path fill="none" stroke="#63b8ff" d="M30.23,-456.39C49.07,-474.6 89.72,-513.9 115.92,-539.22"/>
<polygon fill="#63b8ff" stroke="#63b8ff" points="113.48,-541.73 123.1,-546.17 118.35,-536.7 113.48,-541.73"/>
</g>
<!-- Node8 -->
<g id="node8" class="node">
<title>Node8</title>
<g id="a_node8"><a xlink:href="configuration_8cpp.html#af1f2ff12e096dc8f70dd6c15201acbe6" target="_top" xlink:title=" ">
<polygon fill="white" stroke="#666666" points="191.5,-691 90.5,-691 90.5,-672 191.5,-672 191.5,-691"/>
<text text-anchor="middle" x="141" y="-679" font-family="Helvetica,sans-Serif" font-size="10.00">create_model_input</text>
</a>
</g>
</g>
<!-- Node1&#45;&gt;Node8 -->
<g id="edge8" class="edge">
<title>Node1&#45;&gt;Node8</title>
<path fill="none" stroke="#63b8ff" d="M22.9,-456.35C29.98,-479.72 49.34,-540.01 74,-586.5 88.92,-614.62 110.66,-644.34 125.07,-662.9"/>
<polygon fill="#63b8ff" stroke="#63b8ff" points="122.16,-664.87 131.1,-670.56 127.66,-660.54 122.16,-664.87"/>
</g>
<!-- Node12 -->
<g id="node12" class="node">
<title>Node12</title>
<g id="a_node12"><a xlink:href="configuration_8cpp.html#a3427972c3e42f3552ea12e02f31406f6" target="_top" xlink:title=" ">
<polygon fill="white" stroke="#666666" points="181,-399 101,-399 101,-380 181,-380 181,-399"/>
<text text-anchor="middle" x="141" y="-387" font-family="Helvetica,sans-Serif" font-size="10.00">create_options</text>
</a>
</g>
</g>
<!-- Node1&#45;&gt;Node12 -->
<g id="edge13" class="edge">
<title>Node1&#45;&gt;Node12</title>
<path fill="none" stroke="#63b8ff" d="M34.23,-436.72C44.87,-429.68 59.94,-420.27 74,-413.5 81.55,-409.86 89.81,-406.45 97.85,-403.4"/>
<polygon fill="#63b8ff" stroke="#63b8ff" points="98.97,-406.72 107.16,-400 96.57,-400.14 98.97,-406.72"/>
</g>
<!-- Node13 -->
<g id="node13" class="node">
<title>Node13</title>
<g id="a_node13"><a xlink:href="configuration_8cpp.html#af5bcc5029f8d8a94e399e6570cbcd645" target="_top" xlink:title=" ">
<polygon fill="white" stroke="#666666" points="355,-841.5 260,-841.5 260,-811.5 355,-811.5 355,-841.5"/>
<text text-anchor="start" x="268" y="-829.5" font-family="Helvetica,sans-Serif" font-size="10.00">create_results_file</text>
<text text-anchor="middle" x="307.5" y="-818.5" font-family="Helvetica,sans-Serif" font-size="10.00">_logger</text>
</a>
</g>
</g>
<!-- Node1&#45;&gt;Node13 -->
<g id="edge14" class="edge">
<title>Node1&#45;&gt;Node13</title>
<path fill="none" stroke="#63b8ff" d="M19.99,-456.42C20.14,-508.37 23.6,-748.51 74,-797.5 119.52,-841.74 195.94,-842.82 248.67,-836.92"/>
<polygon fill="#63b8ff" stroke="#63b8ff" points="248.88,-840.42 258.37,-835.71 248.01,-833.48 248.88,-840.42"/>
</g>
<!-- Node17 -->
<g id="node17" class="node">
<title>Node17</title>
<g id="a_node17"><a xlink:href="program_8cpp.html#a9f102f55bc6fac1b9624a0b1dd5ed75b" target="_top" xlink:title=" ">
<polygon fill="white" stroke="#666666" points="183,-348 99,-348 99,-329 183,-329 183,-348"/>
<text text-anchor="middle" x="141" y="-336" font-family="Helvetica,sans-Serif" font-size="10.00">exit_application</text>
</a>
</g>
</g>
<!-- Node1&#45;&gt;Node17 -->
<g id="edge20" class="edge">
<title>Node1&#45;&gt;Node17</title>
<path fill="none" stroke="#63b8ff" d="M25.08,-436.58C33.46,-421.01 51.52,-390.64 74,-371.5 82.54,-364.23 92.97,-358.07 102.98,-353.11"/>
<polygon fill="#63b8ff" stroke="#63b8ff" points="104.2,-356.41 111.8,-349.02 101.26,-350.05 104.2,-356.41"/>
</g>
<!-- Node19 -->
<g id="node19" class="node">
<title>Node19</title>
<g id="a_node19"><a xlink:href="configuration_8cpp.html#a2461092c854fb9f4d25b93c5dfe35c43" target="_top" xlink:title=" ">
<polygon fill="white" stroke="#666666" points="178,-189 104,-189 104,-170 178,-170 178,-189"/>
<text text-anchor="middle" x="141" y="-177" font-family="Helvetica,sans-Serif" font-size="10.00">get_diseases</text>
</a>
</g>
</g>
<!-- Node1&#45;&gt;Node19 -->
<g id="edge22" class="edge">
<title>Node1&#45;&gt;Node19</title>
<path fill="none" stroke="#63b8ff" d="M21.22,-436.8C25.17,-407.74 39.44,-319.47 74,-255.5 86.15,-233.01 105.97,-211.4 120.72,-197.02"/>
<polygon fill="#63b8ff" stroke="#63b8ff" points="122.78,-199.89 127.63,-190.47 117.96,-194.81 122.78,-199.89"/>
</g>
<!-- Node22 -->
<g id="node22" class="node">
<title>Node22</title>
<g id="a_node22"><a xlink:href="configuration_8cpp.html#af1d74f465c1ecdaac9ccef435ca1462c" target="_top" xlink:title=" ">
<polygon fill="white" stroke="#666666" points="529,-792 434,-792 434,-773 529,-773 529,-792"/>
<text text-anchor="middle" x="481.5" y="-780" font-family="Helvetica,sans-Serif" font-size="10.00">load_configuration</text>
</a>
</g>
</g>
<!-- Node1&#45;&gt;Node22 -->
<g id="edge25" class="edge">
<title>Node1&#45;&gt;Node22</title>
<path fill="none" stroke="#63b8ff" d="M20.85,-456.46C24.65,-498.67 41.3,-662.47 74,-700.5 160.22,-800.79 332.01,-799.37 422.17,-790.57"/>
<polygon fill="#63b8ff" stroke="#63b8ff" points="422.46,-794.06 432.04,-789.54 421.73,-787.1 422.46,-794.06"/>
</g>
<!-- Node25 -->
<g id="node25" class="node">
<title>Node25</title>
<g id="a_node25"><a xlink:href="csvparser_8cpp.html#aa36bf705a50d4f460573db11852ca40c" target="_top" xlink:title=" ">
<polygon fill="white" stroke="#666666" points="357,-235 258,-235 258,-216 357,-216 357,-235"/>
<text text-anchor="middle" x="307.5" y="-223" font-family="Helvetica,sans-Serif" font-size="10.00">load_datatable_csv</text>
</a>
</g>
</g>
<!-- Node1&#45;&gt;Node25 -->
<g id="edge30" class="edge">
<title>Node1&#45;&gt;Node25</title>
<path fill="none" stroke="#63b8ff" d="M38.27,-444.78C80.05,-440.55 181.06,-428.49 208,-408.5 263.58,-367.27 291.16,-285.11 301.51,-246.49"/>
<polygon fill="#63b8ff" stroke="#63b8ff" points="304.89,-247.4 303.95,-236.85 298.1,-245.68 304.89,-247.4"/>
</g>
<!-- Node37 -->
<g id="node37" class="node">
<title>Node37</title>
<g id="a_node37"><a xlink:href="configuration_8cpp.html#ae5bfc8d2f1b2556f23e8a36429f5bdc0" target="_top" xlink:title=" ">
<polygon fill="white" stroke="#666666" points="187,-152 95,-152 95,-133 187,-133 187,-152"/>
<text text-anchor="middle" x="141" y="-140" font-family="Helvetica,sans-Serif" font-size="10.00">parse_arguments</text>
</a>
</g>
</g>
<!-- Node1&#45;&gt;Node37 -->
<g id="edge45" class="edge">
<title>Node1&#45;&gt;Node37</title>
<path fill="none" stroke="#63b8ff" d="M20.52,-436.51C23.1,-390.96 35.93,-203.29 74,-161.5 77.03,-158.17 80.6,-155.42 84.49,-153.13"/>
<polygon fill="#63b8ff" stroke="#63b8ff" points="85.72,-156.42 93.3,-149.01 82.76,-150.08 85.72,-156.42"/>
</g>
<!-- Node38 -->
<g id="node38" class="node">
<title>Node38</title>
<g id="a_node38"><a xlink:href="configuration_8cpp.html#a8ad33901fb05829054f97821a5b5d192" target="_top" xlink:title=" ">
<polygon fill="white" stroke="#666666" points="179.5,-283 102.5,-283 102.5,-264 179.5,-264 179.5,-283"/>
<text text-anchor="middle" x="141" y="-271" font-family="Helvetica,sans-Serif" font-size="10.00">print_app_title</text>
</a>
</g>
</g>
<!-- Node1&#45;&gt;Node38 -->
<g id="edge46" class="edge">
<title>Node1&#45;&gt;Node38</title>
<path fill="none" stroke="#63b8ff" d="M22.25,-436.71C27.81,-414.18 43.98,-357.74 74,-320.5 84.1,-307.97 98.36,-297.25 111.03,-289.23"/>
<polygon fill="#63b8ff" stroke="#63b8ff" points="112.69,-292.32 119.46,-284.17 109.08,-286.32 112.69,-292.32"/>
</g>
<!-- Node39 -->
<g id="node39" class="node">
<title>Node39</title>
<g id="a_node39"><a xlink:href="model__parser_8cpp.html#a63714a3138c1b3676cfb45b209522ce4" target="_top" xlink:title=" ">
<polygon fill="white" stroke="#666666" points="357,-480.5 258,-480.5 258,-450.5 357,-450.5 357,-480.5"/>
<text text-anchor="start" x="266" y="-468.5" font-family="Helvetica,sans-Serif" font-size="10.00">register_risk_factor</text>
<text text-anchor="middle" x="307.5" y="-457.5" font-family="Helvetica,sans-Serif" font-size="10.00">_model_definitions</text>
</a>
</g>
</g>
<!-- Node1&#45;&gt;Node39 -->
<g id="edge48" class="edge">
<title>Node1&#45;&gt;Node39</title>
<path fill="none" stroke="#63b8ff" d="M38.36,-447.72C79.48,-450.44 180.54,-457.15 246.18,-461.5"/>
<polygon fill="#63b8ff" stroke="#63b8ff" points="245.88,-464.99 256.09,-462.16 246.34,-458 245.88,-464.99"/>
</g>
<!-- Node3 -->
<g id="node3" class="node">
<title>Node3</title>
<g id="a_node3"><a xlink:href="configuration_8cpp.html#a98ce7bb0c5ae91a7ca34bd310f6cd8c1" target="_top" xlink:title=" ">
<polygon fill="white" stroke="#666666" points="371,-879 244,-879 244,-860 371,-860 371,-879"/>
<text text-anchor="middle" x="307.5" y="-867" font-family="Helvetica,sans-Serif" font-size="10.00">create_baseline_scenario</text>
</a>
</g>
</g>
<!-- Node2&#45;&gt;Node3 -->
<g id="edge2" class="edge">
<title>Node2&#45;&gt;Node3</title>
<path fill="none" stroke="#63b8ff" d="M208.43,-867.12C216.22,-867.3 224.21,-867.5 232.1,-867.69"/>
<polygon fill="#63b8ff" stroke="#63b8ff" points="231.95,-871.19 242.04,-867.93 232.12,-864.19 231.95,-871.19"/>
</g>
<!-- Node5 -->
<g id="node5" class="node">
<title>Node5</title>
<g id="a_node5"><a xlink:href="configuration_8cpp.html#a296320e54b04702f2a8300dc287dec3f" target="_top" xlink:title=" ">
<polygon fill="white" stroke="#666666" points="356.5,-631.5 258.5,-631.5 258.5,-601.5 356.5,-601.5 356.5,-631.5"/>
<text text-anchor="start" x="266.5" y="-619.5" font-family="Helvetica,sans-Serif" font-size="10.00">create_intervention</text>
<text text-anchor="middle" x="307.5" y="-608.5" font-family="Helvetica,sans-Serif" font-size="10.00">_scenario</text>
</a>
</g>
</g>
<!-- Node4&#45;&gt;Node5 -->
<g id="edge4" class="edge">
<title>Node4&#45;&gt;Node5</title>
<path fill="none" stroke="#63b8ff" d="M189.14,-577.97C207.64,-584.05 229.05,-591.08 248.49,-597.46"/>
<polygon fill="#63b8ff" stroke="#63b8ff" points="247.32,-600.76 257.92,-600.55 249.51,-594.11 247.32,-600.76"/>
</g>
<!-- Node6 -->
<g id="node6" class="node">
<title>Node6</title>
<g id="a_node6"><a xlink:href="structhgps_1_1core_1_1case__insensitive.html#a7c3f04e32aa1d7a41ef339443139b5c0" target="_top" xlink:title=" ">
<polygon fill="white" stroke="#666666" points="734.5,-662.5 594.5,-662.5 594.5,-632.5 734.5,-632.5 734.5,-662.5"/>
<text text-anchor="start" x="602.5" y="-650.5" font-family="Helvetica,sans-Serif" font-size="10.00">hgps::core::case_insensitive</text>
<text text-anchor="middle" x="664.5" y="-639.5" font-family="Helvetica,sans-Serif" font-size="10.00">::equals</text>
</a>
</g>
</g>
<!-- Node5&#45;&gt;Node6 -->
<g id="edge5" class="edge">
<title>Node5&#45;&gt;Node6</title>
<path fill="none" stroke="#63b8ff" d="M343.78,-631.87C362.23,-639.09 385.41,-646.88 407,-650.5 465.29,-660.28 532.08,-659.11 582.89,-655.72"/>
<polygon fill="#63b8ff" stroke="#63b8ff" points="582.9,-659.23 592.62,-655.02 582.4,-652.25 582.9,-659.23"/>
</g>
<!-- Node7 -->
<g id="node7" class="node">
<title>Node7</title>
<g id="a_node7"><a xlink:href="namespacehgps.html#adf9e6a1bb7098d2f9a2fd6c49d575fe1" target="_top" xlink:title=" ">
<polygon fill="white" stroke="#666666" points="529,-641.5 434,-641.5 434,-611.5 529,-611.5 529,-641.5"/>
<text text-anchor="start" x="442" y="-629.5" font-family="Helvetica,sans-Serif" font-size="10.00">hgps::parse_fiscal</text>
<text text-anchor="middle" x="481.5" y="-618.5" font-family="Helvetica,sans-Serif" font-size="10.00">_impact_type</text>
</a>
</g>
</g>
<!-- Node5&#45;&gt;Node7 -->
<g id="edge6" class="edge">
<title>Node5&#45;&gt;Node7</title>
<path fill="none" stroke="#63b8ff" d="M356.87,-619.31C377.25,-620.5 401.15,-621.89 422.47,-623.13"/>
<polygon fill="#63b8ff" stroke="#63b8ff" points="421.98,-626.6 432.17,-623.69 422.39,-619.62 421.98,-626.6"/>
</g>
<!-- Node7&#45;&gt;Node6 -->
<g id="edge7" class="edge">
<title>Node7&#45;&gt;Node6</title>
<path fill="none" stroke="#63b8ff" d="M529.11,-631.91C545.51,-633.81 564.44,-636.01 582.82,-638.14"/>
<polygon fill="#63b8ff" stroke="#63b8ff" points="582.33,-641.61 592.66,-639.28 583.13,-634.65 582.33,-641.61"/>
</g>
<!-- Node8&#45;&gt;Node6 -->
<g id="edge11" class="edge">
<title>Node8&#45;&gt;Node6</title>
<path fill="none" stroke="#63b8ff" d="M191.79,-680.02C297.92,-676.83 538.22,-669.44 556,-667.5 564.69,-666.55 573.73,-665.29 582.72,-663.87"/>
<polygon fill="#63b8ff" stroke="#63b8ff" points="583.26,-667.33 592.55,-662.25 582.11,-660.43 583.26,-667.33"/>
</g>
<!-- Node9 -->
<g id="node9" class="node">
<title>Node9</title>
<g id="a_node9"><a xlink:href="configuration_8cpp.html#a4d45e5dc816938177257998c2cac63fe" target="_top" xlink:title=" ">
<polygon fill="white" stroke="#666666" points="351.5,-755 263.5,-755 263.5,-736 351.5,-736 351.5,-755"/>
<text text-anchor="middle" x="307.5" y="-743" font-family="Helvetica,sans-Serif" font-size="10.00">create_job_seed</text>
</a>
</g>
</g>
<!-- Node8&#45;&gt;Node9 -->
<g id="edge9" class="edge">
<title>Node8&#45;&gt;Node9</title>
<path fill="none" stroke="#63b8ff" d="M162.41,-691.37C182.79,-701.03 215.15,-715.79 244,-726.5 249.31,-728.47 254.93,-730.4 260.54,-732.22"/>
<polygon fill="#63b8ff" stroke="#63b8ff" points="259.18,-735.46 269.77,-735.13 261.28,-728.78 259.18,-735.46"/>
</g>
<!-- Node11 -->
<g id="node11" class="node">
<title>Node11</title>
<g id="a_node11"><a xlink:href="classhgps_1_1_mapping_entry.html#a6ff2875b44ef1295f6a9171b76e2f574" target="_top" xlink:title=" ">
<polygon fill="white" stroke="#666666" points="359.5,-717.5 255.5,-717.5 255.5,-687.5 359.5,-687.5 359.5,-717.5"/>
<text text-anchor="start" x="263.5" y="-705.5" font-family="Helvetica,sans-Serif" font-size="10.00">hgps::MappingEntry</text>
<text text-anchor="middle" x="307.5" y="-694.5" font-family="Helvetica,sans-Serif" font-size="10.00">::name</text>
</a>
</g>
</g>
<!-- Node8&#45;&gt;Node11 -->
<g id="edge12" class="edge">
<title>Node8&#45;&gt;Node11</title>
<path fill="none" stroke="#63b8ff" d="M191.8,-687.86C208.25,-689.96 226.75,-692.32 244.02,-694.52"/>
<polygon fill="#63b8ff" stroke="#63b8ff" points="243.3,-697.96 253.66,-695.75 244.18,-691.02 243.3,-697.96"/>
</g>
<!-- Node10 -->
<g id="node10" class="node">
<title>Node10</title>
<g id="a_node10"><a xlink:href="classhgps_1_1_m_t_random32.html#acde91ac098b35fc0ab4f1f5c764b074d" target="_top" xlink:title=" ">
<polygon fill="white" stroke="#666666" points="552,-755 411,-755 411,-736 552,-736 552,-755"/>
<text text-anchor="middle" x="481.5" y="-743" font-family="Helvetica,sans-Serif" font-size="10.00">hgps::MTRandom32::discard</text>
</a>
</g>
</g>
<!-- Node9&#45;&gt;Node10 -->
<g id="edge10" class="edge">
<title>Node9&#45;&gt;Node10</title>
<path fill="none" stroke="#63b8ff" d="M351.9,-745.5C366.38,-745.5 383,-745.5 399.39,-745.5"/>
<polygon fill="#63b8ff" stroke="#63b8ff" points="399.16,-749 409.16,-745.5 399.16,-742 399.16,-749"/>
</g>
<!-- Node14 -->
<g id="node14" class="node">
<title>Node14</title>
<g id="a_node14"><a xlink:href="configuration_8cpp.html#ab41af12c9a317e192dba580788e542fe" target="_top" xlink:title=" ">
<polygon fill="white" stroke="#666666" points="542.5,-866 420.5,-866 420.5,-847 542.5,-847 542.5,-866"/>
<text text-anchor="middle" x="481.5" y="-854" font-family="Helvetica,sans-Serif" font-size="10.00">create_output_file_name</text>
</a>
</g>
</g>
<!-- Node13&#45;&gt;Node14 -->
<g id="edge15" class="edge">
<title>Node13&#45;&gt;Node14</title>
<path fill="none" stroke="#63b8ff" d="M355.5,-834.7C372.96,-837.74 393.15,-841.26 412.13,-844.58"/>
<polygon fill="#63b8ff" stroke="#63b8ff" points="411.51,-848.02 421.96,-846.29 412.71,-841.12 411.51,-848.02"/>
</g>
<!-- Node16 -->
<g id="node16" class="node">
<title>Node16</title>
<g id="a_node16"><a xlink:href="classhgps_1_1_model_input.html#a5035a15c52467ce060d8f4d5ed21116b" target="_top" xlink:title=" ">
<polygon fill="white" stroke="#666666" points="540.5,-829 422.5,-829 422.5,-810 540.5,-810 540.5,-829"/>
<text text-anchor="middle" x="481.5" y="-817" font-family="Helvetica,sans-Serif" font-size="10.00">hgps::ModelInput::seed</text>
</a>
</g>
</g>
<!-- Node13&#45;&gt;Node16 -->
<g id="edge19" class="edge">
<title>Node13&#45;&gt;Node16</title>
<path fill="none" stroke="#63b8ff" d="M355.5,-824.59C372.55,-823.89 392.2,-823.09 410.79,-822.34"/>
<polygon fill="#63b8ff" stroke="#63b8ff" points="410.83,-825.84 420.68,-821.93 410.55,-818.84 410.83,-825.84"/>
</g>
<!-- Node14&#45;&gt;Node6 -->
<g id="edge16" class="edge">
<title>Node14&#45;&gt;Node6</title>
<path fill="none" stroke="#63b8ff" d="M542.81,-846.56C547.54,-844.37 552.01,-841.72 556,-838.5 584.46,-815.53 574.44,-796.59 592,-764.5 609.82,-731.94 632.46,-695.64 647.43,-672.23"/>
<polygon fill="#63b8ff" stroke="#63b8ff" points="650.25,-674.32 652.72,-664.01 644.36,-670.53 650.25,-674.32"/>
</g>
<!-- Node15 -->
<g id="node15" class="node">
<title>Node15</title>
<g id="a_node15"><a xlink:href="configuration_8cpp.html#a1ce92c675b7577ecb00196d4de5f669a" target="_top" xlink:title=" ">
<polygon fill="white" stroke="#666666" points="717,-855.5 612,-855.5 612,-825.5 717,-825.5 717,-855.5"/>
<text text-anchor="start" x="620" y="-843.5" font-family="Helvetica,sans-Serif" font-size="10.00">expand_environment</text>
<text text-anchor="middle" x="664.5" y="-832.5" font-family="Helvetica,sans-Serif" font-size="10.00">_variables</text>
</a>
</g>
</g>
<!-- Node14&#45;&gt;Node15 -->
<g id="edge17" class="edge">
<title>Node14&#45;&gt;Node15</title>
<path fill="none" stroke="#63b8ff" d="M542.77,-851.17C561.25,-849.54 581.63,-847.74 600.3,-846.09"/>
<polygon fill="#63b8ff" stroke="#63b8ff" points="600.51,-849.58 610.16,-845.21 599.9,-842.61 600.51,-849.58"/>
</g>
<!-- Node15&#45;&gt;Node15 -->
<g id="edge18" class="edge">
<title>Node15&#45;&gt;Node15</title>
<path fill="none" stroke="#63b8ff" d="M635.58,-855.78C629.16,-864.91 638.8,-873.5 664.5,-873.5 678.56,-873.5 687.81,-870.93 692.26,-867.11"/>
<polygon fill="#63b8ff" stroke="#63b8ff" points="695.73,-867.59 693.26,-857.28 688.76,-866.87 695.73,-867.59"/>
</g>
<!-- Node18 -->
<g id="node18" class="node">
<title>Node18</title>
<g id="a_node18"><a xlink:href="configuration_8cpp.html#a00375a4ac7180c34e4a70069e76433a3" target="_top" xlink:title=" ">
<polygon fill="white" stroke="#666666" points="354,-198 261,-198 261,-179 354,-179 354,-198"/>
<text text-anchor="middle" x="307.5" y="-186" font-family="Helvetica,sans-Serif" font-size="10.00">get_time_now_str</text>
</a>
</g>
</g>
<!-- Node17&#45;&gt;Node18 -->
<g id="edge21" class="edge">
<title>Node17&#45;&gt;Node18</title>
<path fill="none" stroke="#63b8ff" d="M161.87,-328.59C176.3,-320.55 195.42,-308.01 208,-292.5 233.84,-260.63 213.5,-234.94 244,-207.5 246.03,-205.68 248.23,-204.03 250.54,-202.54"/>
<polygon fill="#63b8ff" stroke="#63b8ff" points="252.05,-205.7 259.29,-197.96 248.8,-199.5 252.05,-205.7"/>
</g>
<!-- Node20 -->
<g id="node20" class="node">
<title>Node20</title>
<g id="a_node20"><a xlink:href="classhgps_1_1core_1_1_datastore.html#a1e6ca1ba28eafd7c3023994e42f550d4" target="_top" xlink:title=" ">
<polygon fill="white" stroke="#666666" points="362.5,-160.5 252.5,-160.5 252.5,-130.5 362.5,-130.5 362.5,-160.5"/>
<text text-anchor="start" x="260.5" y="-148.5" font-family="Helvetica,sans-Serif" font-size="10.00">hgps::core::Datastore</text>
<text text-anchor="middle" x="307.5" y="-137.5" font-family="Helvetica,sans-Serif" font-size="10.00">::get_disease_info</text>
</a>
</g>
</g>
<!-- Node19&#45;&gt;Node20 -->
<g id="edge23" class="edge">
<title>Node19&#45;&gt;Node20</title>
<path fill="none" stroke="#63b8ff" d="M178.1,-172.04C196.54,-168.23 219.56,-163.47 241,-159.04"/>
<polygon fill="#63b8ff" stroke="#63b8ff" points="241.46,-162.52 250.55,-157.06 240.05,-155.66 241.46,-162.52"/>
</g>
<!-- Node21 -->
<g id="node21" class="node">
<title>Node21</title>
<g id="a_node21"><a xlink:href="classhgps_1_1core_1_1_datastore.html#ae9baf94e6cc8a1329dd270b2159c8711" target="_top" xlink:title=" ">
<polygon fill="white" stroke="#666666" points="362.5,-112.5 252.5,-112.5 252.5,-82.5 362.5,-82.5 362.5,-112.5"/>
<text text-anchor="start" x="260.5" y="-100.5" font-family="Helvetica,sans-Serif" font-size="10.00">hgps::core::Datastore</text>
<text text-anchor="middle" x="307.5" y="-89.5" font-family="Helvetica,sans-Serif" font-size="10.00">::get_diseases</text>
</a>
</g>
</g>
<!-- Node19&#45;&gt;Node21 -->
<g id="edge24" class="edge">
<title>Node19&#45;&gt;Node21</title>
<path fill="none" stroke="#63b8ff" d="M178.47,-173.5C188.52,-170.82 199.1,-166.98 208,-161.5 228.36,-148.96 224.29,-135.05 244,-121.5 245.76,-120.29 247.59,-119.13 249.47,-118.02"/>
<polygon fill="#63b8ff" stroke="#63b8ff" points="250.66,-121.35 257.86,-113.58 247.38,-115.16 250.66,-121.35"/>
</g>
<!-- Node22&#45;&gt;Node6 -->
<g id="edge27" class="edge">
<title>Node22&#45;&gt;Node6</title>
<path fill="none" stroke="#63b8ff" d="M529.21,-775.43C538.48,-772.84 547.86,-769.31 556,-764.5 595.37,-741.22 628.84,-699.01 647.54,-672.16"/>
<polygon fill="#63b8ff" stroke="#63b8ff" points="650.39,-674.19 653.11,-663.95 644.6,-670.26 650.39,-674.19"/>
</g>
<!-- Node22&#45;&gt;Node15 -->
<g id="edge28" class="edge">
<title>Node22&#45;&gt;Node15</title>
<path fill="none" stroke="#63b8ff" d="M523.9,-792.47C534.43,-795.2 545.68,-798.3 556,-801.5 574.77,-807.32 595.09,-814.46 612.96,-821.04"/>
<polygon fill="#63b8ff" stroke="#63b8ff" points="611.72,-824.32 622.31,-824.52 614.16,-817.76 611.72,-824.32"/>
</g>
<!-- Node23 -->
<g id="node23" class="node">
<title>Node23</title>
<g id="a_node23"><a xlink:href="configuration_8cpp.html#a1795c5541ce3065fd05e28e44e7335b0" target="_top" xlink:title=" ">
<polygon fill="white" stroke="#666666" points="716.5,-792 612.5,-792 612.5,-773 716.5,-773 716.5,-792"/>
<text text-anchor="middle" x="664.5" y="-780" font-family="Helvetica,sans-Serif" font-size="10.00">create_output_folder</text>
</a>
</g>
</g>
<!-- Node22&#45;&gt;Node23 -->
<g id="edge26" class="edge">
<title>Node22&#45;&gt;Node23</title>
<path fill="none" stroke="#63b8ff" d="M529.11,-782.5C550.99,-782.5 577.37,-782.5 600.95,-782.5"/>
<polygon fill="#63b8ff" stroke="#63b8ff" points="600.76,-786 610.76,-782.5 600.76,-779 600.76,-786"/>
</g>
<!-- Node24 -->
<g id="node24" class="node">
<title>Node24</title>
<g id="a_node24"><a xlink:href="namespacehgps_1_1core.html#a502537e3fe210afb2531f156977eb2f6" target="_top" xlink:title=" ">
<polygon fill="white" stroke="#666666" points="716.5,-394 612.5,-394 612.5,-375 716.5,-375 716.5,-394"/>
<text text-anchor="middle" x="664.5" y="-382" font-family="Helvetica,sans-Serif" font-size="10.00">hgps::core::to_lower</text>
</a>
</g>
</g>
<!-- Node22&#45;&gt;Node24 -->
<g id="edge29" class="edge">
<title>Node22&#45;&gt;Node24</title>
<path fill="none" stroke="#63b8ff" d="M529.39,-779.67C539.42,-776.9 549.07,-772.23 556,-764.5 596.98,-718.76 570.25,-547.93 592,-490.5 604.77,-456.78 630.12,-423.18 646.94,-403.12"/>
<polygon fill="#63b8ff" stroke="#63b8ff" points="649.57,-405.43 653.44,-395.57 644.26,-400.87 649.57,-405.43"/>
</g>
<!-- Node25&#45;&gt;Node24 -->
<g id="edge44" class="edge">
<title>Node25&#45;&gt;Node24</title>
<path fill="none" stroke="#63b8ff" d="M357.14,-223.78C409.39,-223.99 493.34,-230.41 556,-264.5 567.68,-270.86 621.36,-334.02 648.17,-366.06"/>
<polygon fill="#63b8ff" stroke="#63b8ff" points="645.19,-367.96 654.29,-373.4 650.57,-363.47 645.19,-367.96"/>
</g>
<!-- Node26 -->
<g id="node26" class="node">
<title>Node26</title>
<g id="a_node26"><a xlink:href="classhgps_1_1core_1_1_data_table.html#ae022bf3052be4728cce521ca87a54865" target="_top" xlink:title=" ">
<polygon fill="white" stroke="#666666" points="548.5,-216 414.5,-216 414.5,-197 548.5,-197 548.5,-216"/>
<text text-anchor="middle" x="481.5" y="-204" font-family="Helvetica,sans-Serif" font-size="10.00">hgps::core::DataTable::add</text>
</a>
</g>
</g>
<!-- Node25&#45;&gt;Node26 -->
<g id="edge31" class="edge">
<title>Node25&#45;&gt;Node26</title>
<path fill="none" stroke="#63b8ff" d="M357.33,-220.11C371.55,-218.53 387.46,-216.78 402.99,-215.06"/>
<polygon fill="#63b8ff" stroke="#63b8ff" points="403.15,-218.57 412.7,-213.99 402.38,-211.61 403.15,-218.57"/>
</g>
<!-- Node31 -->
<g id="node31" class="node">
<title>Node31</title>
<g id="a_node31"><a xlink:href="classhgps_1_1core_1_1_primitive_data_table_column_builder.html#af56d31139c3575bceea1f3c16ba5229d" target="_top" xlink:title=" ">
<polygon fill="white" stroke="#666666" points="546,-178.5 417,-178.5 417,-148.5 546,-148.5 546,-178.5"/>
<text text-anchor="start" x="425" y="-166.5" font-family="Helvetica,sans-Serif" font-size="10.00">hgps::core::PrimitiveData</text>
<text text-anchor="middle" x="481.5" y="-155.5" font-family="Helvetica,sans-Serif" font-size="10.00">TableColumnBuilder::build</text>
</a>
</g>
</g>
<!-- Node25&#45;&gt;Node31 -->
<g id="edge38" class="edge">
<title>Node25&#45;&gt;Node31</title>
<path fill="none" stroke="#63b8ff" d="M347.59,-215.58C355.44,-213.21 363.56,-210.5 371,-207.5 387.78,-200.74 390.38,-195.66 407,-188.5 411.51,-186.56 416.22,-184.66 420.99,-182.84"/>
<polygon fill="#63b8ff" stroke="#63b8ff" points="421.87,-186.25 430.04,-179.5 419.45,-179.68 421.87,-186.25"/>
</g>
<!-- Node32 -->
<g id="node32" class="node">
<title>Node32</title>
<g id="a_node32"><a xlink:href="csvparser_8cpp.html#a2a241ea6ea1080044f2c94df5f66bf10" target="_top" xlink:title=" ">
<polygon fill="white" stroke="#666666" points="532,-130 431,-130 431,-111 532,-111 532,-130"/>
<text text-anchor="middle" x="481.5" y="-118" font-family="Helvetica,sans-Serif" font-size="10.00">get_double_column</text>
</a>
</g>
</g>
<!-- Node25&#45;&gt;Node32 -->
<g id="edge39" class="edge">
<title>Node25&#45;&gt;Node32</title>
<path fill="none" stroke="#63b8ff" d="M357.22,-215.79C362.17,-213.57 366.88,-210.85 371,-207.5 397.54,-185.94 380.16,-160.69 407,-139.5 411.01,-136.34 415.48,-133.69 420.2,-131.49"/>
<polygon fill="#63b8ff" stroke="#63b8ff" points="421.36,-134.79 429.39,-127.88 418.8,-128.28 421.36,-134.79"/>
</g>
<!-- Node33 -->
<g id="node33" class="node">
<title>Node33</title>
<g id="a_node33"><a xlink:href="csvparser_8cpp.html#a93c50966061a3748752a54f837d72c52" target="_top" xlink:title=" ">
<polygon fill="white" stroke="#666666" points="526.5,-93 436.5,-93 436.5,-74 526.5,-74 526.5,-93"/>
<text text-anchor="middle" x="481.5" y="-81" font-family="Helvetica,sans-Serif" font-size="10.00">get_float_column</text>
</a>
</g>
</g>
<!-- Node25&#45;&gt;Node33 -->
<g id="edge40" class="edge">
<title>Node25&#45;&gt;Node33</title>
<path fill="none" stroke="#63b8ff" d="M357.46,-216.56C362.42,-214.2 367.07,-211.24 371,-207.5 406.74,-173.5 370.79,-136.01 407,-102.5 412.27,-97.62 418.62,-93.96 425.36,-91.22"/>
<polygon fill="#63b8ff" stroke="#63b8ff" points="426.35,-94.58 434.73,-88.1 424.14,-87.94 426.35,-94.58"/>
</g>
<!-- Node34 -->
<g id="node34" class="node">
<title>Node34</title>
<g id="a_node34"><a xlink:href="csvparser_8cpp.html#a45de9c7efc2ee516888807b173e4e064" target="_top" xlink:title=" ">
<polygon fill="white" stroke="#666666" points="523,-56 440,-56 440,-37 523,-37 523,-56"/>
<text text-anchor="middle" x="481.5" y="-44" font-family="Helvetica,sans-Serif" font-size="10.00">get_int_column</text>
</a>
</g>
</g>
<!-- Node25&#45;&gt;Node34 -->
<g id="edge41" class="edge">
<title>Node25&#45;&gt;Node34</title>
<path fill="none" stroke="#63b8ff" d="M357.46,-217.03C362.49,-214.59 367.15,-211.48 371,-207.5 416.55,-160.38 360.51,-110.69 407,-64.5 412.96,-58.58 420.53,-54.49 428.53,-51.7"/>
<polygon fill="#63b8ff" stroke="#63b8ff" points="429.43,-55.08 438.14,-49.03 427.56,-48.33 429.43,-55.08"/>
</g>
<!-- Node35 -->
<g id="node35" class="node">
<title>Node35</title>
<g id="a_node35"><a xlink:href="csvparser_8cpp.html#aef4d3e51d3ef1bd72a04d915dfb7ab62" target="_top" xlink:title=" ">
<polygon fill="white" stroke="#666666" points="529.5,-19 433.5,-19 433.5,0 529.5,0 529.5,-19"/>
<text text-anchor="middle" x="481.5" y="-7" font-family="Helvetica,sans-Serif" font-size="10.00">get_string_column</text>
</a>
</g>
</g>
<!-- Node25&#45;&gt;Node35 -->
<g id="edge42" class="edge">
<title>Node25&#45;&gt;Node35</title>
<path fill="none" stroke="#63b8ff" d="M357.35,-217.36C362.46,-214.87 367.18,-211.65 371,-207.5 426.25,-147.47 350.56,-86.41 407,-27.5 411.37,-22.93 416.7,-19.45 422.47,-16.8"/>
<polygon fill="#63b8ff" stroke="#63b8ff" points="423.6,-20.11 431.79,-13.4 421.2,-13.54 423.6,-20.11"/>
</g>
<!-- Node26&#45;&gt;Node24 -->
<g id="edge37" class="edge">
<title>Node26&#45;&gt;Node24</title>
<path fill="none" stroke="#63b8ff" d="M531.16,-216.48C540.09,-219.88 548.83,-224.43 556,-230.5 582.39,-252.86 572.75,-270.76 592,-299.5 608.48,-324.1 630.91,-349.78 646.23,-366.38"/>
<polygon fill="#63b8ff" stroke="#63b8ff" points="643.51,-368.59 652.89,-373.5 648.62,-363.81 643.51,-368.59"/>
</g>
<!-- Node27 -->
<g id="node27" class="node">
<title>Node27</title>
<g id="a_node27"><a xlink:href="classhgps_1_1core_1_1_data_table.html#aea4b85552bb60b81746a68bdcf95e059" target="_top" xlink:title=" ">
<polygon fill="white" stroke="#666666" points="720.5,-242.5 608.5,-242.5 608.5,-212.5 720.5,-212.5 720.5,-242.5"/>
<text text-anchor="start" x="616.5" y="-230.5" font-family="Helvetica,sans-Serif" font-size="10.00">hgps::core::DataTable</text>
<text text-anchor="middle" x="664.5" y="-219.5" font-family="Helvetica,sans-Serif" font-size="10.00">::column</text>
</a>
</g>
</g>
<!-- Node26&#45;&gt;Node27 -->
<g id="edge32" class="edge">
<title>Node26&#45;&gt;Node27</title>
<path fill="none" stroke="#63b8ff" d="M548.87,-214.2C564.54,-216.02 581.25,-217.96 596.93,-219.78"/>
<polygon fill="#63b8ff" stroke="#63b8ff" points="596.29,-223.23 606.63,-220.9 597.1,-216.27 596.29,-223.23"/>
</g>
<!-- Node28 -->
<g id="node28" class="node">
<title>Node28</title>
<g id="a_node28"><a xlink:href="classhgps_1_1core_1_1_data_table.html#a5b4ada045a3551ea156edd2888fbb425" target="_top" xlink:title=" ">
<polygon fill="white" stroke="#666666" points="885,-220.5 773,-220.5 773,-190.5 885,-190.5 885,-220.5"/>
<text text-anchor="start" x="781" y="-208.5" font-family="Helvetica,sans-Serif" font-size="10.00">hgps::core::DataTable</text>
<text text-anchor="middle" x="829" y="-197.5" font-family="Helvetica,sans-Serif" font-size="10.00">::num_columns</text>
</a>
</g>
</g>
<!-- Node26&#45;&gt;Node28 -->
<g id="edge36" class="edge">
<title>Node26&#45;&gt;Node28</title>
<path fill="none" stroke="#63b8ff" d="M548.79,-204.39C563.05,-204.02 578.02,-203.69 592,-203.5 656.44,-202.62 672.56,-202.79 737,-203.5 744.84,-203.59 753.06,-203.71 761.22,-203.86"/>
<polygon fill="#63b8ff" stroke="#63b8ff" points="761.08,-207.36 771.15,-204.06 761.22,-200.36 761.08,-207.36"/>
</g>
<!-- Node29 -->
<g id="node29" class="node">
<title>Node29</title>
<g id="a_node29"><a xlink:href="classhgps_1_1core_1_1_data_table_column.html#a6c4fca6541099b0471948cf9f00178bd" target="_top" xlink:title=" ">
<polygon fill="white" stroke="#666666" points="737,-156.5 592,-156.5 592,-126.5 737,-126.5 737,-156.5"/>
<text text-anchor="start" x="600" y="-144.5" font-family="Helvetica,sans-Serif" font-size="10.00">hgps::core::DataTableColumn</text>
<text text-anchor="middle" x="664.5" y="-133.5" font-family="Helvetica,sans-Serif" font-size="10.00">::length</text>
</a>
</g>
</g>
<!-- Node26&#45;&gt;Node29 -->
<g id="edge34" class="edge">
<title>Node26&#45;&gt;Node29</title>
<path fill="none" stroke="#63b8ff" d="M526.44,-196.58C536.28,-193.97 546.58,-190.91 556,-187.5 572.64,-181.48 575.8,-177.61 592,-170.5 599.01,-167.43 606.44,-164.28 613.77,-161.25"/>
<polygon fill="#63b8ff" stroke="#63b8ff" points="615.04,-164.51 622.97,-157.48 612.39,-158.04 615.04,-164.51"/>
</g>
<!-- Node30 -->
<g id="node30" class="node">
<title>Node30</title>
<g id="a_node30"><a xlink:href="classhgps_1_1core_1_1_data_table_column.html#aead9fbd8096b197bd3c1889f09af21d8" target="_top" xlink:title=" ">
<polygon fill="white" stroke="#666666" points="737,-290.5 592,-290.5 592,-260.5 737,-260.5 737,-290.5"/>
<text text-anchor="start" x="600" y="-278.5" font-family="Helvetica,sans-Serif" font-size="10.00">hgps::core::DataTableColumn</text>
<text text-anchor="middle" x="664.5" y="-267.5" font-family="Helvetica,sans-Serif" font-size="10.00">::name</text>
</a>
</g>
</g>
<!-- Node26&#45;&gt;Node30 -->
<g id="edge35" class="edge">
<title>Node26&#45;&gt;Node30</title>
<path fill="none" stroke="#63b8ff" d="M518.22,-216.49C530.41,-220.33 544,-225.11 556,-230.5 572.9,-238.08 575.13,-243.85 592,-251.5 595.5,-253.09 599.15,-254.63 602.85,-256.11"/>
<polygon fill="#63b8ff" stroke="#63b8ff" points="601.37,-259.3 611.96,-259.59 603.87,-252.76 601.37,-259.3"/>
</g>
<!-- Node27&#45;&gt;Node28 -->
<g id="edge33" class="edge">
<title>Node27&#45;&gt;Node28</title>
<path fill="none" stroke="#63b8ff" d="M720.97,-219.99C733.97,-218.23 747.95,-216.34 761.39,-214.52"/>
<polygon fill="#63b8ff" stroke="#63b8ff" points="761.57,-218.03 771.01,-213.22 760.63,-211.09 761.57,-218.03"/>
</g>
<!-- Node36 -->
<g id="node36" class="node">
<title>Node36</title>
<g id="a_node36"><a xlink:href="namespacehgps_1_1core.html#a552bf0464b6b160440c294654ee500d1" target="_top" xlink:title="Trim leading and trailing occurrences of white&#45;space characters from string.">
<polygon fill="white" stroke="#666666" points="707,-19 622,-19 622,0 707,0 707,-19"/>
<text text-anchor="middle" x="664.5" y="-7" font-family="Helvetica,sans-Serif" font-size="10.00">hgps::core::trim</text>
</a>
</g>
</g>
<!-- Node35&#45;&gt;Node36 -->
<g id="edge43" class="edge">
<title>Node35&#45;&gt;Node36</title>
<path fill="none" stroke="#63b8ff" d="M529.58,-9.5C554.29,-9.5 584.65,-9.5 610.22,-9.5"/>
<polygon fill="#63b8ff" stroke="#63b8ff" points="610.08,-13 620.08,-9.5 610.08,-6 610.08,-13"/>
</g>
<!-- Node38&#45;&gt;Node18 -->
<g id="edge47" class="edge">
<title>Node38&#45;&gt;Node18</title>
<path fill="none" stroke="#63b8ff" d="M154.53,-263.73C173.13,-249.62 209.57,-223.49 244,-207.5 248.22,-205.54 252.7,-203.72 257.24,-202.04"/>
<polygon fill="#63b8ff" stroke="#63b8ff" points="258.1,-205.45 266.43,-198.89 255.83,-198.83 258.1,-205.45"/>
</g>
<!-- Node39&#45;&gt;Node6 -->
<g id="edge49" class="edge">
<title>Node39&#45;&gt;Node6</title>
<path fill="none" stroke="#63b8ff" d="M319.37,-480.77C335.8,-502.71 369.1,-542.86 407,-564.5 466.35,-598.39 491.19,-580.8 556,-602.5 577.37,-609.65 600.49,-619.1 619.8,-627.49"/>
<polygon fill="#63b8ff" stroke="#63b8ff" points="618.15,-630.59 628.71,-631.41 620.97,-624.18 618.15,-630.59"/>
</g>
<!-- Node40 -->
<g id="node40" class="node">
<title>Node40</title>
<g id="a_node40"><a xlink:href="model__parser_8cpp.html#a23c45f2fc31cd0836f491f52f6170f8d" target="_top" xlink:title=" ">
<polygon fill="white" stroke="#666666" points="548.5,-555 414.5,-555 414.5,-536 548.5,-536 548.5,-555"/>
<text text-anchor="middle" x="481.5" y="-543" font-family="Helvetica,sans-Serif" font-size="10.00">load_baseline_adjustments</text>
</a>
</g>
</g>
<!-- Node39&#45;&gt;Node40 -->
<g id="edge50" class="edge">
<title>Node39&#45;&gt;Node40</title>
<path fill="none" stroke="#63b8ff" d="M328.56,-480.86C347.75,-494.86 377.98,-515.2 407,-527.5 411.03,-529.21 415.27,-530.78 419.57,-532.22"/>
<polygon fill="#63b8ff" stroke="#63b8ff" points="418.34,-535.5 428.93,-535.08 420.39,-528.81 418.34,-535.5"/>
</g>
<!-- Node42 -->
<g id="node42" class="node">
<title>Node42</title>
<g id="a_node42"><a xlink:href="model__parser_8cpp.html#a6383bd1b70a0eb2be74798ff8197afc7" target="_top" xlink:title=" ">
<polygon fill="white" stroke="#666666" points="556,-518 407,-518 407,-499 556,-499 556,-518"/>
<text text-anchor="middle" x="481.5" y="-506" font-family="Helvetica,sans-Serif" font-size="10.00">load_dynamic_risk_model_info</text>
</a>
</g>
</g>
<!-- Node39&#45;&gt;Node42 -->
<g id="edge53" class="edge">
<title>Node39&#45;&gt;Node42</title>
<path fill="none" stroke="#63b8ff" d="M357.33,-477.71C379.95,-483.36 406.81,-490.08 429.67,-495.79"/>
<polygon fill="#63b8ff" stroke="#63b8ff" points="428.52,-499.11 439.07,-498.14 430.22,-492.32 428.52,-499.11"/>
</g>
<!-- Node44 -->
<g id="node44" class="node">
<title>Node44</title>
<g id="a_node44"><a xlink:href="model__parser_8cpp.html#a8cb850cfcbbe7eb06655b658e47b0c2b" target="_top" xlink:title=" ">
<polygon fill="white" stroke="#666666" points="539.5,-480.5 423.5,-480.5 423.5,-450.5 539.5,-450.5 539.5,-480.5"/>
<text text-anchor="start" x="431.5" y="-468.5" font-family="Helvetica,sans-Serif" font-size="10.00">load_static_risk_model</text>
<text text-anchor="middle" x="481.5" y="-457.5" font-family="Helvetica,sans-Serif" font-size="10.00">_definition</text>
</a>
</g>
</g>
<!-- Node39&#45;&gt;Node44 -->
<g id="edge57" class="edge">
<title>Node39&#45;&gt;Node44</title>
<path fill="none" stroke="#63b8ff" d="M357.33,-465.5C374.19,-465.5 393.42,-465.5 411.58,-465.5"/>
<polygon fill="#63b8ff" stroke="#63b8ff" points="411.51,-469 421.51,-465.5 411.51,-462 411.51,-469"/>
</g>
<!-- Node45 -->
<g id="node45" class="node">
<title>Node45</title>
<g id="a_node45"><a xlink:href="classhgps_1_1_cached_repository.html#a72b653923d8e137e0b0cbb81cb940557" target="_top" xlink:title=" ">
<polygon fill="white" stroke="#666666" points="556,-432 407,-432 407,-391 556,-391 556,-432"/>
<text text-anchor="start" x="415" y="-420" font-family="Helvetica,sans-Serif" font-size="10.00">hgps::CachedRepository</text>
<text text-anchor="start" x="415" y="-409" font-family="Helvetica,sans-Serif" font-size="10.00">::register_baseline_adjustment</text>
<text text-anchor="middle" x="481.5" y="-398" font-family="Helvetica,sans-Serif" font-size="10.00">_definition</text>
</a>
</g>
</g>
<!-- Node39&#45;&gt;Node45 -->
<g id="edge58" class="edge">
<title>Node39&#45;&gt;Node45</title>
<path fill="none" stroke="#63b8ff" d="M357.33,-450.17C371.61,-445.69 387.59,-440.67 403.18,-435.77"/>
<polygon fill="#63b8ff" stroke="#63b8ff" points="403.95,-439.2 412.44,-432.87 401.86,-432.52 403.95,-439.2"/>
</g>
<!-- Node46 -->
<g id="node46" class="node">
<title>Node46</title>
<g id="a_node46"><a xlink:href="classhgps_1_1_cached_repository.html#a1dfd738feecb0a9ffc366f462155fd82" target="_top" xlink:title=" ">
<polygon fill="white" stroke="#666666" points="543,-373 420,-373 420,-332 543,-332 543,-373"/>
<text text-anchor="start" x="428" y="-361" font-family="Helvetica,sans-Serif" font-size="10.00">hgps::CachedRepository</text>
<text text-anchor="start" x="428" y="-350" font-family="Helvetica,sans-Serif" font-size="10.00">::register_linear_model</text>
<text text-anchor="middle" x="481.5" y="-339" font-family="Helvetica,sans-Serif" font-size="10.00">_definition</text>
</a>
</g>
</g>
<!-- Node39&#45;&gt;Node46 -->
<g id="edge59" class="edge">
<title>Node39&#45;&gt;Node46</title>
<path fill="none" stroke="#63b8ff" d="M323.69,-450.03C342.09,-431.96 374.66,-402.06 407,-382.5 409.29,-381.12 411.65,-379.77 414.07,-378.46"/>
<polygon fill="#63b8ff" stroke="#63b8ff" points="415.53,-381.65 422.87,-374 412.37,-375.4 415.53,-381.65"/>
</g>
<!-- Node47 -->
<g id="node47" class="node">
<title>Node47</title>
<g id="a_node47"><a xlink:href="classhgps_1_1_cached_repository.html#a1424cbd34a6f00fdb9e4237495e18b18" target="_top" xlink:title=" ">
<polygon fill="white" stroke="#666666" points="543,-314 420,-314 420,-273 543,-273 543,-314"/>
<text text-anchor="start" x="428" y="-302" font-family="Helvetica,sans-Serif" font-size="10.00">hgps::CachedRepository</text>
<text text-anchor="start" x="428" y="-291" font-family="Helvetica,sans-Serif" font-size="10.00">::register_lite_linear</text>
<text text-anchor="middle" x="481.5" y="-280" font-family="Helvetica,sans-Serif" font-size="10.00">_model_definition</text>
</a>
</g>
</g>
<!-- Node39&#45;&gt;Node47 -->
<g id="edge60" class="edge">
<title>Node39&#45;&gt;Node47</title>
<path fill="none" stroke="#63b8ff" d="M315.46,-450.07C329.12,-421.39 362.06,-359.54 407,-323.5 408.31,-322.45 409.66,-321.43 411.05,-320.44"/>
<polygon fill="#63b8ff" stroke="#63b8ff" points="412.78,-323.49 419.36,-315.18 409.04,-317.58 412.78,-323.49"/>
</g>
<!-- Node40&#45;&gt;Node6 -->
<g id="edge51" class="edge">
<title>Node40&#45;&gt;Node6</title>
<path fill="none" stroke="#63b8ff" d="M520.42,-555.4C532.14,-559.11 544.88,-563.83 556,-569.5 585.88,-584.74 616.52,-607.85 637.4,-624.96"/>
<polygon fill="#63b8ff" stroke="#63b8ff" points="634.91,-627.44 644.83,-631.15 639.39,-622.06 634.91,-627.44"/>
</g>
<!-- Node41 -->
<g id="node41" class="node">
<title>Node41</title>
<g id="a_node41"><a xlink:href="csvparser_8cpp.html#ac4dc3a9222c5d4b8d146405f8856fddf" target="_top" xlink:title=" ">
<polygon fill="white" stroke="#666666" points="712,-555 617,-555 617,-536 712,-536 712,-555"/>
<text text-anchor="middle" x="664.5" y="-543" font-family="Helvetica,sans-Serif" font-size="10.00">load_baseline_csv</text>
</a>
</g>
</g>
<!-- Node40&#45;&gt;Node41 -->
<g id="edge52" class="edge">
<title>Node40&#45;&gt;Node41</title>
<path fill="none" stroke="#63b8ff" d="M548.87,-545.5C567.33,-545.5 587.23,-545.5 605.18,-545.5"/>
<polygon fill="#63b8ff" stroke="#63b8ff" points="605.16,-549 615.16,-545.5 605.16,-542 605.16,-549"/>
</g>
<!-- Node42&#45;&gt;Node6 -->
<g id="edge54" class="edge">
<title>Node42&#45;&gt;Node6</title>
<path fill="none" stroke="#63b8ff" d="M536.21,-518.41C543.13,-520.82 549.92,-523.8 556,-527.5 561.43,-530.8 613.34,-589.91 642.99,-623.91"/>
<polygon fill="#63b8ff" stroke="#63b8ff" points="640.16,-625.98 649.36,-631.22 645.43,-621.39 640.16,-625.98"/>
</g>
<!-- Node42&#45;&gt;Node24 -->
<g id="edge56" class="edge">
<title>Node42&#45;&gt;Node24</title>
<path fill="none" stroke="#63b8ff" d="M534.83,-498.59C542.18,-496.18 549.46,-493.19 556,-489.5 595.37,-467.31 630.69,-427.06 649.41,-403.36"/>
<polygon fill="#63b8ff" stroke="#63b8ff" points="652.12,-405.58 655.45,-395.52 646.58,-401.3 652.12,-405.58"/>
</g>
<!-- Node43 -->
<g id="node43" class="node">
<title>Node43</title>
<g id="a_node43"><a xlink:href="namespacehgps_1_1core.html#a0a76cde29c0d40bf22469920121f2745" target="_top" xlink:title=" ">
<polygon fill="white" stroke="#666666" points="722.5,-518 606.5,-518 606.5,-499 722.5,-499 722.5,-518"/>
<text text-anchor="middle" x="664.5" y="-506" font-family="Helvetica,sans-Serif" font-size="10.00">hgps::core::split_string</text>
</a>
</g>
</g>
<!-- Node42&#45;&gt;Node43 -->
<g id="edge55" class="edge">
<title>Node42&#45;&gt;Node43</title>
<path fill="none" stroke="#63b8ff" d="M556.38,-508.5C569.1,-508.5 582.28,-508.5 594.86,-508.5"/>
<polygon fill="#63b8ff" stroke="#63b8ff" points="594.7,-512 604.7,-508.5 594.7,-505 594.7,-512"/>
</g>
</g>
</svg>
