<?xml version="1.0" encoding="UTF-8" standalone="no"?>
<!DOCTYPE svg PUBLIC "-//W3C//DTD SVG 1.1//EN"
 "http://www.w3.org/Graphics/SVG/1.1/DTD/svg11.dtd">
<!-- Generated by graphviz version 7.0.6 (20230106.0513)
 -->
<!-- Title: HealthGPS/random_algorithm.h Pages: 1 -->
<svg width="2809pt" height="610pt"
 viewBox="0.00 0.00 2808.50 610.00" xmlns="http://www.w3.org/2000/svg" xmlns:xlink="http://www.w3.org/1999/xlink">
<g id="graph0" class="graph" transform="scale(1 1) rotate(0) translate(4 606)">
<title>HealthGPS/random_algorithm.h</title>
<!-- Node1 -->
<g id="node1" class="node">
<title>Node1</title>
<g id="a_node1"><a xlink:title=" ">
<polygon fill="#999999" stroke="#666666" points="1452,-602 1298,-602 1298,-583 1452,-583 1452,-602"/>
<text text-anchor="middle" x="1375" y="-590" font-family="Helvetica,sans-Serif" font-size="10.00">HealthGPS/random_algorithm.h</text>
</a>
</g>
</g>
<!-- Node2 -->
<g id="node2" class="node">
<title>Node2</title>
<g id="a_node2"><a xlink:href="energy__balance__model_8h.html" target="_top" xlink:title=" ">
<polygon fill="white" stroke="#666666" points="273.5,-426 136.5,-426 136.5,-396 273.5,-396 273.5,-426"/>
<text text-anchor="start" x="144.5" y="-414" font-family="Helvetica,sans-Serif" font-size="10.00">HealthGPS/energy_balance</text>
<text text-anchor="middle" x="205" y="-403" font-family="Helvetica,sans-Serif" font-size="10.00">_model.h</text>
</a>
</g>
</g>
<!-- Node1&#45;&gt;Node2 -->
<g id="edge1" class="edge">
<title>Node1&#45;&gt;Node2</title>
<path fill="none" stroke="#63b8ff" d="M1305.2,-580.79C1096.8,-548.82 480.74,-454.3 273.73,-422.54"/>
<polygon fill="#63b8ff" stroke="#63b8ff" points="1304.67,-584.25 1315.08,-582.31 1305.73,-577.33 1304.67,-584.25"/>
</g>
<!-- Node16 -->
<g id="node16" class="node">
<title>Node16</title>
<g id="a_node16"><a xlink:href="random__algorithm_8cpp.html" target="_top" xlink:title=" ">
<polygon fill="white" stroke="#666666" points="1966,-547 1802,-547 1802,-528 1966,-528 1966,-547"/>
<text text-anchor="middle" x="1884" y="-535" font-family="Helvetica,sans-Serif" font-size="10.00">HealthGPS/random_algorithm.cpp</text>
</a>
</g>
</g>
<!-- Node1&#45;&gt;Node16 -->
<g id="edge19" class="edge">
<title>Node1&#45;&gt;Node16</title>
<path fill="none" stroke="#63b8ff" d="M1463.64,-582.27C1558.89,-572.35 1709.04,-556.72 1801.74,-547.07"/>
<polygon fill="#63b8ff" stroke="#63b8ff" points="1463.4,-578.78 1453.81,-583.29 1464.12,-585.74 1463.4,-578.78"/>
</g>
<!-- Node17 -->
<g id="node17" class="node">
<title>Node17</title>
<g id="a_node17"><a xlink:href="runtime__context_8h.html" target="_top" xlink:title=" ">
<polygon fill="white" stroke="#666666" points="1126,-420.5 980,-420.5 980,-401.5 1126,-401.5 1126,-420.5"/>
<text text-anchor="middle" x="1053" y="-408.5" font-family="Helvetica,sans-Serif" font-size="10.00">HealthGPS/runtime_context.h</text>
</a>
</g>
</g>
<!-- Node1&#45;&gt;Node17 -->
<g id="edge20" class="edge">
<title>Node1&#45;&gt;Node17</title>
<path fill="none" stroke="#63b8ff" d="M1349.35,-577.2C1285.56,-541.64 1121.13,-449.98 1069.06,-420.96"/>
<polygon fill="#63b8ff" stroke="#63b8ff" points="1347.27,-580.05 1357.71,-581.86 1350.68,-573.94 1347.27,-580.05"/>
</g>
<!-- Node31 -->
<g id="node31" class="node">
<title>Node31</title>
<g id="a_node31"><a xlink:href="scenario_8h.html" target="_top" xlink:title=" ">
<polygon fill="white" stroke="#666666" points="1783.5,-547 1670.5,-547 1670.5,-528 1783.5,-528 1783.5,-547"/>
<text text-anchor="middle" x="1727" y="-535" font-family="Helvetica,sans-Serif" font-size="10.00">HealthGPS/scenario.h</text>
</a>
</g>
</g>
<!-- Node1&#45;&gt;Node31 -->
<g id="edge40" class="edge">
<title>Node1&#45;&gt;Node31</title>
<path fill="none" stroke="#63b8ff" d="M1445.85,-580.83C1511.89,-570.89 1609.12,-556.25 1670.21,-547.05"/>
<polygon fill="#63b8ff" stroke="#63b8ff" points="1445.58,-577.33 1436.21,-582.28 1446.62,-584.26 1445.58,-577.33"/>
</g>
<!-- Node3 -->
<g id="node3" class="node">
<title>Node3</title>
<g id="a_node3"><a xlink:href="energy__balance__model_8cpp.html" target="_top" xlink:title=" ">
<polygon fill="white" stroke="#666666" points="273.5,-360 136.5,-360 136.5,-330 273.5,-330 273.5,-360"/>
<text text-anchor="start" x="144.5" y="-348" font-family="Helvetica,sans-Serif" font-size="10.00">HealthGPS/energy_balance</text>
<text text-anchor="middle" x="205" y="-337" font-family="Helvetica,sans-Serif" font-size="10.00">_model.cpp</text>
</a>
</g>
</g>
<!-- Node2&#45;&gt;Node3 -->
<g id="edge2" class="edge">
<title>Node2&#45;&gt;Node3</title>
<path fill="none" stroke="#63b8ff" d="M205,-384.39C205,-376.13 205,-367.28 205,-360.16"/>
<polygon fill="#63b8ff" stroke="#63b8ff" points="201.5,-384.28 205,-394.28 208.5,-384.28 201.5,-384.28"/>
</g>
<!-- Node4 -->
<g id="node4" class="node">
<title>Node4</title>
<g id="a_node4"><a xlink:href="hierarchical__model_8h.html" target="_top" xlink:title=" ">
<polygon fill="white" stroke="#666666" points="118,-360 0,-360 0,-330 118,-330 118,-360"/>
<text text-anchor="start" x="8" y="-348" font-family="Helvetica,sans-Serif" font-size="10.00">HealthGPS/hierarchical</text>
<text text-anchor="middle" x="59" y="-337" font-family="Helvetica,sans-Serif" font-size="10.00">_model.h</text>
</a>
</g>
</g>
<!-- Node2&#45;&gt;Node4 -->
<g id="edge3" class="edge">
<title>Node2&#45;&gt;Node4</title>
<path fill="none" stroke="#63b8ff" d="M161.98,-391.14C139.58,-381.32 112.62,-369.51 91.91,-360.43"/>
<polygon fill="#63b8ff" stroke="#63b8ff" points="160.28,-394.22 170.85,-395.03 163.1,-387.81 160.28,-394.22"/>
</g>
<!-- Node5 -->
<g id="node5" class="node">
<title>Node5</title>
<g id="a_node5"><a xlink:href="healthgps_8cpp.html" target="_top" xlink:title=" ">
<polygon fill="white" stroke="#666666" points="775.5,-90.5 646.5,-90.5 646.5,-71.5 775.5,-71.5 775.5,-90.5"/>
<text text-anchor="middle" x="711" y="-78.5" font-family="Helvetica,sans-Serif" font-size="10.00">HealthGPS/healthgps.cpp</text>
</a>
</g>
</g>
<!-- Node4&#45;&gt;Node5 -->
<g id="edge4" class="edge">
<title>Node4&#45;&gt;Node5</title>
<path fill="none" stroke="#63b8ff" d="M48.13,-318.84C42.77,-302.67 38.83,-281.5 46,-264 61.61,-225.9 74.71,-217.45 111,-198 288.2,-103.02 531.83,-85.1 646.45,-82.19"/>
<polygon fill="#63b8ff" stroke="#63b8ff" points="44.84,-320.04 51.62,-328.18 51.4,-317.59 44.84,-320.04"/>
</g>
<!-- Node6 -->
<g id="node6" class="node">
<title>Node6</title>
<g id="a_node6"><a xlink:href="hierarchical__model__registry_8h.html" target="_top" xlink:title=" ">
<polygon fill="white" stroke="#666666" points="173,-294 55,-294 55,-264 173,-264 173,-294"/>
<text text-anchor="start" x="63" y="-282" font-family="Helvetica,sans-Serif" font-size="10.00">HealthGPS/hierarchical</text>
<text text-anchor="middle" x="114" y="-271" font-family="Helvetica,sans-Serif" font-size="10.00">_model_registry.h</text>
</a>
</g>
</g>
<!-- Node4&#45;&gt;Node6 -->
<g id="edge5" class="edge">
<title>Node4&#45;&gt;Node6</title>
<path fill="none" stroke="#63b8ff" d="M78.56,-321.24C86.32,-312.21 95,-302.11 101.83,-294.16"/>
<polygon fill="#63b8ff" stroke="#63b8ff" points="76.06,-318.78 72.19,-328.65 81.36,-323.35 76.06,-318.78"/>
</g>
<!-- Node8 -->
<g id="node8" class="node">
<title>Node8</title>
<g id="a_node8"><a xlink:href="riskfactor_8h.html" target="_top" xlink:title=" ">
<polygon fill="white" stroke="#666666" points="307,-288.5 191,-288.5 191,-269.5 307,-269.5 307,-288.5"/>
<text text-anchor="middle" x="249" y="-276.5" font-family="Helvetica,sans-Serif" font-size="10.00">HealthGPS/riskfactor.h</text>
</a>
</g>
</g>
<!-- Node4&#45;&gt;Node8 -->
<g id="edge7" class="edge">
<title>Node4&#45;&gt;Node8</title>
<path fill="none" stroke="#63b8ff" d="M112.42,-326.01C148.26,-313.93 193.93,-298.55 222.32,-288.99"/>
<polygon fill="#63b8ff" stroke="#63b8ff" points="111.43,-322.64 103.07,-329.15 113.67,-329.28 111.43,-322.64"/>
</g>
<!-- Node7 -->
<g id="node7" class="node">
<title>Node7</title>
<g id="a_node7"><a xlink:href="riskfactor_8cpp.html" target="_top" xlink:title=" ">
<polygon fill="white" stroke="#666666" points="247.5,-222.5 120.5,-222.5 120.5,-203.5 247.5,-203.5 247.5,-222.5"/>
<text text-anchor="middle" x="184" y="-210.5" font-family="Helvetica,sans-Serif" font-size="10.00">HealthGPS/riskfactor.cpp</text>
</a>
</g>
</g>
<!-- Node6&#45;&gt;Node7 -->
<g id="edge6" class="edge">
<title>Node6&#45;&gt;Node7</title>
<path fill="none" stroke="#63b8ff" d="M137.76,-256.27C150.27,-244.84 164.92,-231.44 174.33,-222.84"/>
<polygon fill="#63b8ff" stroke="#63b8ff" points="135.67,-253.44 130.65,-262.78 140.39,-258.61 135.67,-253.44"/>
</g>
<!-- Node8&#45;&gt;Node7 -->
<g id="edge8" class="edge">
<title>Node8&#45;&gt;Node7</title>
<path fill="none" stroke="#63b8ff" d="M232.07,-261.33C219.56,-249.02 203.02,-232.73 192.96,-222.82"/>
<polygon fill="#63b8ff" stroke="#63b8ff" points="229.3,-263.52 238.88,-268.04 234.21,-258.53 229.3,-263.52"/>
</g>
<!-- Node9 -->
<g id="node9" class="node">
<title>Node9</title>
<g id="a_node9"><a xlink:href="simulation__module_8h.html" target="_top" xlink:title=" ">
<polygon fill="white" stroke="#666666" points="1096.5,-228 983.5,-228 983.5,-198 1096.5,-198 1096.5,-228"/>
<text text-anchor="start" x="991.5" y="-216" font-family="Helvetica,sans-Serif" font-size="10.00">HealthGPS/simulation</text>
<text text-anchor="middle" x="1040" y="-205" font-family="Helvetica,sans-Serif" font-size="10.00">_module.h</text>
</a>
</g>
</g>
<!-- Node8&#45;&gt;Node9 -->
<g id="edge9" class="edge">
<title>Node8&#45;&gt;Node9</title>
<path fill="none" stroke="#63b8ff" d="M298.58,-266.85C304.43,-265.77 310.33,-264.78 316,-264 563.11,-229.81 861.07,-218.6 983.4,-215.27"/>
<polygon fill="#63b8ff" stroke="#63b8ff" points="298.09,-263.38 288.95,-268.73 299.43,-270.25 298.09,-263.38"/>
</g>
<!-- Node10 -->
<g id="node10" class="node">
<title>Node10</title>
<g id="a_node10"><a xlink:href="_health_g_p_s_2api_8h.html" target="_top" xlink:title=" ">
<polygon fill="white" stroke="#666666" points="1565.5,-90.5 1476.5,-90.5 1476.5,-71.5 1565.5,-71.5 1565.5,-90.5"/>
<text text-anchor="middle" x="1521" y="-78.5" font-family="Helvetica,sans-Serif" font-size="10.00">HealthGPS/api.h</text>
</a>
</g>
</g>
<!-- Node9&#45;&gt;Node10 -->
<g id="edge10" class="edge">
<title>Node9&#45;&gt;Node10</title>
<path fill="none" stroke="#63b8ff" d="M1104.26,-194.63C1208.03,-166.59 1408.84,-112.31 1487.88,-90.95"/>
<polygon fill="#63b8ff" stroke="#63b8ff" points="1103.51,-191.21 1094.77,-197.2 1105.34,-197.97 1103.51,-191.21"/>
</g>
<!-- Node12 -->
<g id="node12" class="node">
<title>Node12</title>
<g id="a_node12"><a xlink:href="healthgps_8h.html" target="_top" xlink:title=" ">
<polygon fill="white" stroke="#666666" points="1580.5,-156.5 1461.5,-156.5 1461.5,-137.5 1580.5,-137.5 1580.5,-156.5"/>
<text text-anchor="middle" x="1521" y="-144.5" font-family="Helvetica,sans-Serif" font-size="10.00">HealthGPS/healthgps.h</text>
</a>
</g>
</g>
<!-- Node9&#45;&gt;Node12 -->
<g id="edge12" class="edge">
<title>Node9&#45;&gt;Node12</title>
<path fill="none" stroke="#63b8ff" d="M1108,-202.95C1202.35,-190.4 1371.48,-167.89 1461.24,-155.95"/>
<polygon fill="#63b8ff" stroke="#63b8ff" points="1107.54,-199.48 1098.09,-204.27 1108.47,-206.42 1107.54,-199.48"/>
</g>
<!-- Node15 -->
<g id="node15" class="node">
<title>Node15</title>
<g id="a_node15"><a xlink:href="simulation__module_8cpp.html" target="_top" xlink:title=" ">
<polygon fill="white" stroke="#666666" points="1096.5,-162 983.5,-162 983.5,-132 1096.5,-132 1096.5,-162"/>
<text text-anchor="start" x="991.5" y="-150" font-family="Helvetica,sans-Serif" font-size="10.00">HealthGPS/simulation</text>
<text text-anchor="middle" x="1040" y="-139" font-family="Helvetica,sans-Serif" font-size="10.00">_module.cpp</text>
</a>
</g>
</g>
<!-- Node9&#45;&gt;Node15 -->
<g id="edge18" class="edge">
<title>Node9&#45;&gt;Node15</title>
<path fill="none" stroke="#63b8ff" d="M1040,-186.39C1040,-178.13 1040,-169.28 1040,-162.16"/>
<polygon fill="#63b8ff" stroke="#63b8ff" points="1036.5,-186.28 1040,-196.28 1043.5,-186.28 1036.5,-186.28"/>
</g>
<!-- Node11 -->
<g id="node11" class="node">
<title>Node11</title>
<g id="a_node11"><a xlink:href="program_8cpp.html" target="_top" xlink:title=" ">
<polygon fill="white" stroke="#666666" points="1693.5,-24.5 1532.5,-24.5 1532.5,-5.5 1693.5,-5.5 1693.5,-24.5"/>
<text text-anchor="middle" x="1613" y="-12.5" font-family="Helvetica,sans-Serif" font-size="10.00">HealthGPS.Console/program.cpp</text>
</a>
</g>
</g>
<!-- Node10&#45;&gt;Node11 -->
<g id="edge11" class="edge">
<title>Node10&#45;&gt;Node11</title>
<path fill="none" stroke="#63b8ff" d="M1543.19,-64.56C1561.08,-52.12 1585.6,-35.06 1600.32,-24.82"/>
<polygon fill="#63b8ff" stroke="#63b8ff" points="1541.25,-61.65 1535.03,-70.24 1545.24,-67.4 1541.25,-61.65"/>
</g>
<!-- Node12&#45;&gt;Node5 -->
<g id="edge17" class="edge">
<title>Node12&#45;&gt;Node5</title>
<path fill="none" stroke="#63b8ff" d="M1449.83,-140.38C1294.2,-128.08 925.59,-98.96 775.88,-87.13"/>
<polygon fill="#63b8ff" stroke="#63b8ff" points="1449.36,-143.85 1459.6,-141.15 1449.91,-136.87 1449.36,-143.85"/>
</g>
<!-- Node12&#45;&gt;Node10 -->
<g id="edge16" class="edge">
<title>Node12&#45;&gt;Node10</title>
<path fill="none" stroke="#63b8ff" d="M1521,-125.68C1521,-113.94 1521,-99.77 1521,-90.82"/>
<polygon fill="#63b8ff" stroke="#63b8ff" points="1517.5,-125.59 1521,-135.59 1524.5,-125.59 1517.5,-125.59"/>
</g>
<!-- Node13 -->
<g id="node13" class="node">
<title>Node13</title>
<g id="a_node13"><a xlink:href="configuration_8h.html" target="_top" xlink:title=" ">
<polygon fill="white" stroke="#666666" points="1754,-90.5 1584,-90.5 1584,-71.5 1754,-71.5 1754,-90.5"/>
<text text-anchor="middle" x="1669" y="-78.5" font-family="Helvetica,sans-Serif" font-size="10.00">HealthGPS.Console/configuration.h</text>
</a>
</g>
</g>
<!-- Node12&#45;&gt;Node13 -->
<g id="edge13" class="edge">
<title>Node12&#45;&gt;Node13</title>
<path fill="none" stroke="#63b8ff" d="M1551.98,-132.6C1581.02,-120.04 1623.61,-101.63 1648.6,-90.82"/>
<polygon fill="#63b8ff" stroke="#63b8ff" points="1550.76,-129.32 1542.97,-136.5 1553.54,-135.74 1550.76,-129.32"/>
</g>
<!-- Node13&#45;&gt;Node11 -->
<g id="edge15" class="edge">
<title>Node13&#45;&gt;Node11</title>
<path fill="none" stroke="#63b8ff" d="M1653.79,-62.62C1643.09,-50.39 1629.22,-34.54 1620.72,-24.82"/>
<polygon fill="#63b8ff" stroke="#63b8ff" points="1651,-64.74 1660.22,-69.96 1656.27,-60.13 1651,-64.74"/>
</g>
<!-- Node14 -->
<g id="node14" class="node">
<title>Node14</title>
<g id="a_node14"><a xlink:href="configuration_8cpp.html" target="_top" xlink:title=" ">
<polygon fill="white" stroke="#666666" points="2219,-24.5 2039,-24.5 2039,-5.5 2219,-5.5 2219,-24.5"/>
<text text-anchor="middle" x="2129" y="-12.5" font-family="Helvetica,sans-Serif" font-size="10.00">HealthGPS.Console/configuration.cpp</text>
</a>
</g>
</g>
<!-- Node13&#45;&gt;Node14 -->
<g id="edge14" class="edge">
<title>Node13&#45;&gt;Node14</title>
<path fill="none" stroke="#63b8ff" d="M1739.53,-69.39C1747.45,-68.23 1755.39,-67.08 1763,-66 1881.55,-49.18 1911.39,-46.38 2030,-30 2041.61,-28.4 2053.98,-26.67 2065.9,-24.99"/>
<polygon fill="#63b8ff" stroke="#63b8ff" points="1739.28,-65.89 1729.9,-70.81 1740.3,-72.81 1739.28,-65.89"/>
</g>
<!-- Node17&#45;&gt;Node3 -->
<g id="edge32" class="edge">
<title>Node17&#45;&gt;Node3</title>
<path fill="none" stroke="#63b8ff" d="M968.56,-407.63C826.55,-402.95 531.1,-390.22 283,-360 280,-359.63 276.93,-359.23 273.84,-358.79"/>
<polygon fill="#63b8ff" stroke="#63b8ff" points="968.14,-411.12 978.24,-407.94 968.36,-404.12 968.14,-411.12"/>
</g>
<!-- Node17&#45;&gt;Node12 -->
<g id="edge33" class="edge">
<title>Node17&#45;&gt;Node12</title>
<path fill="none" stroke="#63b8ff" d="M1137.47,-407.67C1273.45,-403.04 1528.5,-390.37 1556,-360 1610.59,-299.72 1546.82,-188.37 1526.69,-156.64"/>
<polygon fill="#63b8ff" stroke="#63b8ff" points="1137.68,-404.16 1127.81,-407.99 1137.92,-411.16 1137.68,-404.16"/>
</g>
<!-- Node18 -->
<g id="node18" class="node">
<title>Node18</title>
<g id="a_node18"><a xlink:href="analysis__module_8h.html" target="_top" xlink:title=" ">
<polygon fill="white" stroke="#666666" points="396,-360 292,-360 292,-330 396,-330 396,-360"/>
<text text-anchor="start" x="300" y="-348" font-family="Helvetica,sans-Serif" font-size="10.00">HealthGPS/analysis</text>
<text text-anchor="middle" x="344" y="-337" font-family="Helvetica,sans-Serif" font-size="10.00">_module.h</text>
</a>
</g>
</g>
<!-- Node17&#45;&gt;Node18 -->
<g id="edge21" class="edge">
<title>Node17&#45;&gt;Node18</title>
<path fill="none" stroke="#63b8ff" d="M968.42,-407.48C844.27,-402.88 605.65,-390.59 405,-360 402.21,-359.57 399.35,-359.09 396.48,-358.56"/>
<polygon fill="#63b8ff" stroke="#63b8ff" points="968.08,-410.97 978.2,-407.84 968.33,-403.98 968.08,-410.97"/>
</g>
<!-- Node20 -->
<g id="node20" class="node">
<title>Node20</title>
<g id="a_node20"><a xlink:href="default__cancer__model_8cpp.html" target="_top" xlink:title=" ">
<polygon fill="white" stroke="#666666" points="671.5,-360 540.5,-360 540.5,-330 671.5,-330 671.5,-360"/>
<text text-anchor="start" x="548.5" y="-348" font-family="Helvetica,sans-Serif" font-size="10.00">HealthGPS/default_cancer</text>
<text text-anchor="middle" x="606" y="-337" font-family="Helvetica,sans-Serif" font-size="10.00">_model.cpp</text>
</a>
</g>
</g>
<!-- Node17&#45;&gt;Node20 -->
<g id="edge24" class="edge">
<title>Node17&#45;&gt;Node20</title>
<path fill="none" stroke="#63b8ff" d="M968.46,-399.88C892.94,-390.55 779.38,-375.78 681,-360 677.99,-359.52 674.92,-359.01 671.82,-358.48"/>
<polygon fill="#63b8ff" stroke="#63b8ff" points="967.93,-403.34 978.28,-401.09 968.78,-396.4 967.93,-403.34"/>
</g>
<!-- Node21 -->
<g id="node21" class="node">
<title>Node21</title>
<g id="a_node21"><a xlink:href="default__disease__model_8cpp.html" target="_top" xlink:title=" ">
<polygon fill="white" stroke="#666666" points="976,-360 840,-360 840,-330 976,-330 976,-360"/>
<text text-anchor="start" x="848" y="-348" font-family="Helvetica,sans-Serif" font-size="10.00">HealthGPS/default_disease</text>
<text text-anchor="middle" x="908" y="-337" font-family="Helvetica,sans-Serif" font-size="10.00">_model.cpp</text>
</a>
</g>
</g>
<!-- Node17&#45;&gt;Node21 -->
<g id="edge25" class="edge">
<title>Node17&#45;&gt;Node21</title>
<path fill="none" stroke="#63b8ff" d="M1022.56,-396.57C998.62,-386 965.33,-371.3 940.8,-360.48"/>
<polygon fill="#63b8ff" stroke="#63b8ff" points="1020.89,-399.65 1031.45,-400.49 1023.72,-393.25 1020.89,-399.65"/>
</g>
<!-- Node22 -->
<g id="node22" class="node">
<title>Node22</title>
<g id="a_node22"><a xlink:href="demographic_8h.html" target="_top" xlink:title=" ">
<polygon fill="white" stroke="#666666" points="822,-354.5 690,-354.5 690,-335.5 822,-335.5 822,-354.5"/>
<text text-anchor="middle" x="756" y="-342.5" font-family="Helvetica,sans-Serif" font-size="10.00">HealthGPS/demographic.h</text>
</a>
</g>
</g>
<!-- Node17&#45;&gt;Node22 -->
<g id="edge26" class="edge">
<title>Node17&#45;&gt;Node22</title>
<path fill="none" stroke="#63b8ff" d="M1000.27,-398.64C942.28,-386.14 850.32,-366.33 797.33,-354.91"/>
<polygon fill="#63b8ff" stroke="#63b8ff" points="999.4,-402.03 1009.91,-400.71 1000.87,-395.19 999.4,-402.03"/>
</g>
<!-- Node24 -->
<g id="node24" class="node">
<title>Node24</title>
<g id="a_node24"><a xlink:href="_health_g_p_s_2disease_8h.html" target="_top" xlink:title=" ">
<polygon fill="white" stroke="#666666" points="1547,-354.5 1437,-354.5 1437,-335.5 1547,-335.5 1547,-354.5"/>
<text text-anchor="middle" x="1492" y="-342.5" font-family="Helvetica,sans-Serif" font-size="10.00">HealthGPS/disease.h</text>
</a>
</g>
</g>
<!-- Node17&#45;&gt;Node24 -->
<g id="edge29" class="edge">
<title>Node17&#45;&gt;Node24</title>
<path fill="none" stroke="#63b8ff" d="M1137.64,-400.74C1213.85,-391.93 1328.78,-377.44 1428,-360 1436.29,-358.54 1445.13,-356.76 1453.52,-354.96"/>
<polygon fill="#63b8ff" stroke="#63b8ff" points="1137.26,-397.26 1127.72,-401.88 1138.05,-404.22 1137.26,-397.26"/>
</g>
<!-- Node26 -->
<g id="node26" class="node">
<title>Node26</title>
<g id="a_node26"><a xlink:href="hierarchical__model__static_8cpp.html" target="_top" xlink:title=" ">
<polygon fill="white" stroke="#666666" points="1112,-360 994,-360 994,-330 1112,-330 1112,-360"/>
<text text-anchor="start" x="1002" y="-348" font-family="Helvetica,sans-Serif" font-size="10.00">HealthGPS/hierarchical</text>
<text text-anchor="middle" x="1053" y="-337" font-family="Helvetica,sans-Serif" font-size="10.00">_model_static.cpp</text>
</a>
</g>
</g>
<!-- Node17&#45;&gt;Node26 -->
<g id="edge34" class="edge">
<title>Node17&#45;&gt;Node26</title>
<path fill="none" stroke="#63b8ff" d="M1053,-389.78C1053,-380.17 1053,-368.92 1053,-360.23"/>
<polygon fill="#63b8ff" stroke="#63b8ff" points="1049.5,-389.59 1053,-399.59 1056.5,-389.59 1049.5,-389.59"/>
</g>
<!-- Node27 -->
<g id="node27" class="node">
<title>Node27</title>
<g id="a_node27"><a xlink:href="riskfactor__adjustment_8h.html" target="_top" xlink:title=" ">
<polygon fill="white" stroke="#666666" points="522,-360 414,-360 414,-330 522,-330 522,-360"/>
<text text-anchor="start" x="422" y="-348" font-family="Helvetica,sans-Serif" font-size="10.00">HealthGPS/riskfactor</text>
<text text-anchor="middle" x="468" y="-337" font-family="Helvetica,sans-Serif" font-size="10.00">_adjustment.h</text>
</a>
</g>
</g>
<!-- Node17&#45;&gt;Node27 -->
<g id="edge35" class="edge">
<title>Node17&#45;&gt;Node27</title>
<path fill="none" stroke="#63b8ff" d="M968.27,-405.1C864.67,-398.38 684.19,-384.26 531,-360 528.12,-359.54 525.18,-359.04 522.22,-358.49"/>
<polygon fill="#63b8ff" stroke="#63b8ff" points="967.88,-408.59 978.08,-405.73 968.32,-401.6 967.88,-408.59"/>
</g>
<!-- Node29 -->
<g id="node29" class="node">
<title>Node29</title>
<g id="a_node29"><a xlink:href="runtime__context_8cpp.html" target="_top" xlink:title=" ">
<polygon fill="white" stroke="#666666" points="1287.5,-354.5 1130.5,-354.5 1130.5,-335.5 1287.5,-335.5 1287.5,-354.5"/>
<text text-anchor="middle" x="1209" y="-342.5" font-family="Helvetica,sans-Serif" font-size="10.00">HealthGPS/runtime_context.cpp</text>
</a>
</g>
</g>
<!-- Node17&#45;&gt;Node29 -->
<g id="edge38" class="edge">
<title>Node17&#45;&gt;Node29</title>
<path fill="none" stroke="#63b8ff" d="M1085.22,-396.78C1115.74,-384.26 1160.74,-365.8 1187.24,-354.93"/>
<polygon fill="#63b8ff" stroke="#63b8ff" points="1084.01,-393.49 1076.09,-400.53 1086.67,-399.97 1084.01,-393.49"/>
</g>
<!-- Node30 -->
<g id="node30" class="node">
<title>Node30</title>
<g id="a_node30"><a xlink:href="ses__noise__module_8cpp.html" target="_top" xlink:title=" ">
<polygon fill="white" stroke="#666666" points="1418.5,-360 1305.5,-360 1305.5,-330 1418.5,-330 1418.5,-360"/>
<text text-anchor="start" x="1313.5" y="-348" font-family="Helvetica,sans-Serif" font-size="10.00">HealthGPS/ses_noise</text>
<text text-anchor="middle" x="1362" y="-337" font-family="Helvetica,sans-Serif" font-size="10.00">_module.cpp</text>
</a>
</g>
</g>
<!-- Node17&#45;&gt;Node30 -->
<g id="edge39" class="edge">
<title>Node17&#45;&gt;Node30</title>
<path fill="none" stroke="#63b8ff" d="M1107.96,-398.79C1157.22,-388.72 1231.46,-373.48 1296,-360 1298.98,-359.38 1302.04,-358.74 1305.12,-358.09"/>
<polygon fill="#63b8ff" stroke="#63b8ff" points="1107.49,-395.31 1098.4,-400.74 1108.9,-402.17 1107.49,-395.31"/>
</g>
<!-- Node18&#45;&gt;Node9 -->
<g id="edge23" class="edge">
<title>Node18&#45;&gt;Node9</title>
<path fill="none" stroke="#63b8ff" d="M384.56,-324.45C401.47,-315.78 421.08,-305.05 438,-294 456.02,-282.23 456,-271.95 476,-264 567.12,-227.78 858.74,-217.65 983.02,-214.94"/>
<polygon fill="#63b8ff" stroke="#63b8ff" points="383.12,-321.25 375.77,-328.88 386.27,-327.5 383.12,-321.25"/>
</g>
<!-- Node19 -->
<g id="node19" class="node">
<title>Node19</title>
<g id="a_node19"><a xlink:href="analysis__module_8cpp.html" target="_top" xlink:title=" ">
<polygon fill="white" stroke="#666666" points="429,-294 325,-294 325,-264 429,-264 429,-294"/>
<text text-anchor="start" x="333" y="-282" font-family="Helvetica,sans-Serif" font-size="10.00">HealthGPS/analysis</text>
<text text-anchor="middle" x="377" y="-271" font-family="Helvetica,sans-Serif" font-size="10.00">_module.cpp</text>
</a>
</g>
</g>
<!-- Node18&#45;&gt;Node19 -->
<g id="edge22" class="edge">
<title>Node18&#45;&gt;Node19</title>
<path fill="none" stroke="#63b8ff" d="M356.47,-319.83C360.93,-311.17 365.81,-301.7 369.7,-294.16"/>
<polygon fill="#63b8ff" stroke="#63b8ff" points="353.49,-317.96 352.02,-328.45 359.71,-321.17 353.49,-317.96"/>
</g>
<!-- Node22&#45;&gt;Node9 -->
<g id="edge28" class="edge">
<title>Node22&#45;&gt;Node9</title>
<path fill="none" stroke="#63b8ff" d="M785.8,-330.36C839.83,-305.63 953.45,-253.62 1008.62,-228.36"/>
<polygon fill="#63b8ff" stroke="#63b8ff" points="784.53,-327.09 776.9,-334.43 787.45,-333.45 784.53,-327.09"/>
</g>
<!-- Node23 -->
<g id="node23" class="node">
<title>Node23</title>
<g id="a_node23"><a xlink:href="demographic_8cpp.html" target="_top" xlink:title=" ">
<polygon fill="white" stroke="#666666" points="827.5,-288.5 684.5,-288.5 684.5,-269.5 827.5,-269.5 827.5,-288.5"/>
<text text-anchor="middle" x="756" y="-276.5" font-family="Helvetica,sans-Serif" font-size="10.00">HealthGPS/demographic.cpp</text>
</a>
</g>
</g>
<!-- Node22&#45;&gt;Node23 -->
<g id="edge27" class="edge">
<title>Node22&#45;&gt;Node23</title>
<path fill="none" stroke="#63b8ff" d="M756,-323.68C756,-311.94 756,-297.77 756,-288.82"/>
<polygon fill="#63b8ff" stroke="#63b8ff" points="752.5,-323.59 756,-333.59 759.5,-323.59 752.5,-323.59"/>
</g>
<!-- Node24&#45;&gt;Node9 -->
<g id="edge31" class="edge">
<title>Node24&#45;&gt;Node9</title>
<path fill="none" stroke="#63b8ff" d="M1493.19,-323.71C1493.07,-305.28 1489.66,-278.79 1473,-264 1445.38,-239.47 1208.02,-223.27 1096.91,-216.97"/>
<polygon fill="#63b8ff" stroke="#63b8ff" points="1489.69,-323.56 1492.9,-333.66 1496.69,-323.77 1489.69,-323.56"/>
</g>
<!-- Node25 -->
<g id="node25" class="node">
<title>Node25</title>
<g id="a_node25"><a xlink:href="disease_8cpp.html" target="_top" xlink:title=" ">
<polygon fill="white" stroke="#666666" points="1463.5,-288.5 1342.5,-288.5 1342.5,-269.5 1463.5,-269.5 1463.5,-288.5"/>
<text text-anchor="middle" x="1403" y="-276.5" font-family="Helvetica,sans-Serif" font-size="10.00">HealthGPS/disease.cpp</text>
</a>
</g>
</g>
<!-- Node24&#45;&gt;Node25 -->
<g id="edge30" class="edge">
<title>Node24&#45;&gt;Node25</title>
<path fill="none" stroke="#63b8ff" d="M1470.29,-328.39C1453.01,-315.96 1429.44,-299.01 1415.27,-288.82"/>
<polygon fill="#63b8ff" stroke="#63b8ff" points="1468.23,-331.22 1478.4,-334.22 1472.32,-325.54 1468.23,-331.22"/>
</g>
<!-- Node27&#45;&gt;Node8 -->
<g id="edge36" class="edge">
<title>Node27&#45;&gt;Node8</title>
<path fill="none" stroke="#63b8ff" d="M407.75,-326.39C366.22,-314.26 312.74,-298.63 279.67,-288.96"/>
<polygon fill="#63b8ff" stroke="#63b8ff" points="406.55,-329.69 417.13,-329.13 408.51,-322.97 406.55,-329.69"/>
</g>
<!-- Node28 -->
<g id="node28" class="node">
<title>Node28</title>
<g id="a_node28"><a xlink:href="riskfactor__adjustment_8cpp.html" target="_top" xlink:title=" ">
<polygon fill="white" stroke="#666666" points="593,-294 485,-294 485,-264 593,-264 593,-294"/>
<text text-anchor="start" x="493" y="-282" font-family="Helvetica,sans-Serif" font-size="10.00">HealthGPS/riskfactor</text>
<text text-anchor="middle" x="539" y="-271" font-family="Helvetica,sans-Serif" font-size="10.00">_adjustment.cpp</text>
</a>
</g>
</g>
<!-- Node27&#45;&gt;Node28 -->
<g id="edge37" class="edge">
<title>Node27&#45;&gt;Node28</title>
<path fill="none" stroke="#63b8ff" d="M492.31,-322.09C502.56,-312.85 514.19,-302.36 523.29,-294.16"/>
<polygon fill="#63b8ff" stroke="#63b8ff" points="489.97,-319.49 484.88,-328.78 494.65,-324.69 489.97,-319.49"/>
</g>
<!-- Node31&#45;&gt;Node13 -->
<g id="edge41" class="edge">
<title>Node31&#45;&gt;Node13</title>
<path fill="none" stroke="#63b8ff" d="M1737.9,-517.7C1750.64,-493.91 1770,-451.28 1770,-412 1770,-412 1770,-412 1770,-212 1770,-173.71 1761.54,-162.2 1738,-132 1723.99,-114.03 1701.87,-99.59 1686.46,-90.93"/>
<polygon fill="#63b8ff" stroke="#63b8ff" points="1734.98,-515.74 1733.18,-526.18 1741.1,-519.14 1734.98,-515.74"/>
</g>
<!-- Node32 -->
<g id="node32" class="node">
<title>Node32</title>
<g id="a_node32"><a xlink:href="baseline__scenario_8h.html" target="_top" xlink:title=" ">
<polygon fill="white" stroke="#666666" points="1902,-162 1798,-162 1798,-132 1902,-132 1902,-162"/>
<text text-anchor="start" x="1806" y="-150" font-family="Helvetica,sans-Serif" font-size="10.00">HealthGPS/baseline</text>
<text text-anchor="middle" x="1850" y="-139" font-family="Helvetica,sans-Serif" font-size="10.00">_scenario.h</text>
</a>
</g>
</g>
<!-- Node31&#45;&gt;Node32 -->
<g id="edge42" class="edge">
<title>Node31&#45;&gt;Node32</title>
<path fill="none" stroke="#63b8ff" d="M1751.54,-521.43C1781.72,-500.8 1829,-460.7 1829,-412 1829,-412 1829,-412 1829,-278 1829,-235.48 1840.09,-186.12 1846.15,-162.31"/>
<polygon fill="#63b8ff" stroke="#63b8ff" points="1749.75,-518.42 1743.32,-526.84 1753.59,-524.27 1749.75,-518.42"/>
</g>
<!-- Node34 -->
<g id="node34" class="node">
<title>Node34</title>
<g id="a_node34"><a xlink:href="intervention__scenario_8h.html" target="_top" xlink:title=" ">
<polygon fill="white" stroke="#666666" points="2138.5,-162 2021.5,-162 2021.5,-132 2138.5,-132 2138.5,-162"/>
<text text-anchor="start" x="2029.5" y="-150" font-family="Helvetica,sans-Serif" font-size="10.00">HealthGPS/intervention</text>
<text text-anchor="middle" x="2080" y="-139" font-family="Helvetica,sans-Serif" font-size="10.00">_scenario.h</text>
</a>
</g>
</g>
<!-- Node31&#45;&gt;Node34 -->
<g id="edge46" class="edge">
<title>Node31&#45;&gt;Node34</title>
<path fill="none" stroke="#63b8ff" d="M1772.21,-524.55C1845.96,-503.72 1984,-458.51 1984,-412 1984,-412 1984,-412 1984,-278 1984,-227.5 2031.46,-183.74 2059.64,-162.22"/>
<polygon fill="#63b8ff" stroke="#63b8ff" points="1771.55,-521.1 1762.85,-527.16 1773.42,-527.85 1771.55,-521.1"/>
</g>
<!-- Node47 -->
<g id="node47" class="node">
<title>Node47</title>
<g id="a_node47"><a xlink:href="simulation__definition_8h.html" target="_top" xlink:title=" ">
<polygon fill="white" stroke="#666666" points="1698.5,-492 1585.5,-492 1585.5,-462 1698.5,-462 1698.5,-492"/>
<text text-anchor="start" x="1593.5" y="-480" font-family="Helvetica,sans-Serif" font-size="10.00">HealthGPS/simulation</text>
<text text-anchor="middle" x="1642" y="-469" font-family="Helvetica,sans-Serif" font-size="10.00">_definition.h</text>
</a>
</g>
</g>
<!-- Node31&#45;&gt;Node47 -->
<g id="edge67" class="edge">
<title>Node31&#45;&gt;Node47</title>
<path fill="none" stroke="#63b8ff" d="M1704.95,-521.33C1692.01,-512.42 1675.74,-501.22 1662.98,-492.44"/>
<polygon fill="#63b8ff" stroke="#63b8ff" points="1702.62,-523.97 1712.84,-526.76 1706.59,-518.2 1702.62,-523.97"/>
</g>
<!-- Node32&#45;&gt;Node10 -->
<g id="edge44" class="edge">
<title>Node32&#45;&gt;Node10</title>
<path fill="none" stroke="#63b8ff" d="M1786.41,-135.81C1730.5,-126.52 1647.05,-111.87 1575,-96 1568.19,-94.5 1560.94,-92.74 1554.03,-90.98"/>
<polygon fill="#63b8ff" stroke="#63b8ff" points="1785.63,-139.23 1796.07,-137.4 1786.77,-132.32 1785.63,-139.23"/>
</g>
<!-- Node32&#45;&gt;Node14 -->
<g id="edge43" class="edge">
<title>Node32&#45;&gt;Node14</title>
<path fill="none" stroke="#63b8ff" d="M1913.56,-139.88C1997.81,-131.12 2137.69,-114.05 2153,-96 2170.92,-74.88 2148.74,-40.74 2136.32,-24.77"/>
<polygon fill="#63b8ff" stroke="#63b8ff" points="1913.41,-136.38 1903.81,-140.88 1914.12,-143.34 1913.41,-136.38"/>
</g>
<!-- Node33 -->
<g id="node33" class="node">
<title>Node33</title>
<g id="a_node33"><a xlink:href="baseline__scenario_8cpp.html" target="_top" xlink:title=" ">
<polygon fill="white" stroke="#666666" points="1876,-96 1772,-96 1772,-66 1876,-66 1876,-96"/>
<text text-anchor="start" x="1780" y="-84" font-family="Helvetica,sans-Serif" font-size="10.00">HealthGPS/baseline</text>
<text text-anchor="middle" x="1824" y="-73" font-family="Helvetica,sans-Serif" font-size="10.00">_scenario.cpp</text>
</a>
</g>
</g>
<!-- Node32&#45;&gt;Node33 -->
<g id="edge45" class="edge">
<title>Node32&#45;&gt;Node33</title>
<path fill="none" stroke="#63b8ff" d="M1839.95,-121.25C1836.49,-112.75 1832.75,-103.53 1829.75,-96.16"/>
<polygon fill="#63b8ff" stroke="#63b8ff" points="1836.65,-122.45 1843.66,-130.39 1843.14,-119.81 1836.65,-122.45"/>
</g>
<!-- Node34&#45;&gt;Node10 -->
<g id="edge48" class="edge">
<title>Node34&#45;&gt;Node10</title>
<path fill="none" stroke="#63b8ff" d="M2009.79,-139.66C1881.09,-127.94 1616.73,-103.43 1575,-96 1567.56,-94.68 1559.64,-92.86 1552.23,-90.97"/>
<polygon fill="#63b8ff" stroke="#63b8ff" points="2009.28,-143.13 2019.55,-140.55 2009.91,-136.15 2009.28,-143.13"/>
</g>
<!-- Node34&#45;&gt;Node13 -->
<g id="edge47" class="edge">
<title>Node34&#45;&gt;Node13</title>
<path fill="none" stroke="#63b8ff" d="M2010.19,-135.13C1930.38,-122.7 1801.18,-102.58 1726.78,-91"/>
<polygon fill="#63b8ff" stroke="#63b8ff" points="2009.2,-138.52 2019.62,-136.6 2010.28,-131.6 2009.2,-138.52"/>
</g>
<!-- Node35 -->
<g id="node35" class="node">
<title>Node35</title>
<g id="a_node35"><a xlink:href="fiscal__scenario_8h.html" target="_top" xlink:title=" ">
<polygon fill="white" stroke="#666666" points="2341.5,-90.5 2200.5,-90.5 2200.5,-71.5 2341.5,-71.5 2341.5,-90.5"/>
<text text-anchor="middle" x="2271" y="-78.5" font-family="Helvetica,sans-Serif" font-size="10.00">HealthGPS/fiscal_scenario.h</text>
</a>
</g>
</g>
<!-- Node34&#45;&gt;Node35 -->
<g id="edge49" class="edge">
<title>Node34&#45;&gt;Node35</title>
<path fill="none" stroke="#63b8ff" d="M2133.7,-128.01C2169.73,-115.93 2215.64,-100.55 2244.18,-90.99"/>
<polygon fill="#63b8ff" stroke="#63b8ff" points="2132.67,-124.66 2124.3,-131.16 2134.89,-131.3 2132.67,-124.66"/>
</g>
<!-- Node37 -->
<g id="node37" class="node">
<title>Node37</title>
<g id="a_node37"><a xlink:href="food__labelling__scenario_8h.html" target="_top" xlink:title=" ">
<polygon fill="white" stroke="#666666" points="2486.5,-96 2359.5,-96 2359.5,-66 2486.5,-66 2486.5,-96"/>
<text text-anchor="start" x="2367.5" y="-84" font-family="Helvetica,sans-Serif" font-size="10.00">HealthGPS/food_labelling</text>
<text text-anchor="middle" x="2423" y="-73" font-family="Helvetica,sans-Serif" font-size="10.00">_scenario.h</text>
</a>
</g>
</g>
<!-- Node34&#45;&gt;Node37 -->
<g id="edge52" class="edge">
<title>Node34&#45;&gt;Node37</title>
<path fill="none" stroke="#63b8ff" d="M2150.29,-133.22C2205.02,-123.23 2282.87,-108.91 2351,-96 2353.63,-95.5 2356.31,-94.99 2359.02,-94.47"/>
<polygon fill="#63b8ff" stroke="#63b8ff" points="2149.67,-129.78 2140.46,-135.02 2150.93,-136.66 2149.67,-129.78"/>
</g>
<!-- Node39 -->
<g id="node39" class="node">
<title>Node39</title>
<g id="a_node39"><a xlink:href="marketing__dynamic__scenario_8h.html" target="_top" xlink:title=" ">
<polygon fill="white" stroke="#666666" points="2615.5,-96 2504.5,-96 2504.5,-66 2615.5,-66 2615.5,-96"/>
<text text-anchor="start" x="2512.5" y="-84" font-family="Helvetica,sans-Serif" font-size="10.00">HealthGPS/marketing</text>
<text text-anchor="middle" x="2560" y="-73" font-family="Helvetica,sans-Serif" font-size="10.00">_dynamic_scenario.h</text>
</a>
</g>
</g>
<!-- Node34&#45;&gt;Node39 -->
<g id="edge55" class="edge">
<title>Node34&#45;&gt;Node39</title>
<path fill="none" stroke="#63b8ff" d="M2150.11,-139.64C2233.04,-131.64 2375.09,-116.44 2496,-96 2498.69,-95.54 2501.44,-95.05 2504.21,-94.53"/>
<polygon fill="#63b8ff" stroke="#63b8ff" points="2149.94,-136.14 2140.32,-140.58 2150.61,-143.11 2149.94,-136.14"/>
</g>
<!-- Node41 -->
<g id="node41" class="node">
<title>Node41</title>
<g id="a_node41"><a xlink:href="marketing__scenario_8h.html" target="_top" xlink:title=" ">
<polygon fill="white" stroke="#666666" points="2744.5,-96 2633.5,-96 2633.5,-66 2744.5,-66 2744.5,-96"/>
<text text-anchor="start" x="2641.5" y="-84" font-family="Helvetica,sans-Serif" font-size="10.00">HealthGPS/marketing</text>
<text text-anchor="middle" x="2689" y="-73" font-family="Helvetica,sans-Serif" font-size="10.00">_scenario.h</text>
</a>
</g>
</g>
<!-- Node34&#45;&gt;Node41 -->
<g id="edge58" class="edge">
<title>Node34&#45;&gt;Node41</title>
<path fill="none" stroke="#63b8ff" d="M2150.05,-142.36C2254.13,-136.31 2455.53,-122.21 2625,-96 2627.7,-95.58 2630.45,-95.12 2633.23,-94.63"/>
<polygon fill="#63b8ff" stroke="#63b8ff" points="2150.06,-138.85 2140.28,-142.91 2150.46,-145.84 2150.06,-138.85"/>
</g>
<!-- Node43 -->
<g id="node43" class="node">
<title>Node43</title>
<g id="a_node43"><a xlink:href="physical__activity__scenario_8h.html" target="_top" xlink:title=" ">
<polygon fill="white" stroke="#666666" points="1998,-96 1894,-96 1894,-66 1998,-66 1998,-96"/>
<text text-anchor="start" x="1902" y="-84" font-family="Helvetica,sans-Serif" font-size="10.00">HealthGPS/physical</text>
<text text-anchor="middle" x="1946" y="-73" font-family="Helvetica,sans-Serif" font-size="10.00">_activity_scenario.h</text>
</a>
</g>
</g>
<!-- Node34&#45;&gt;Node43 -->
<g id="edge61" class="edge">
<title>Node34&#45;&gt;Node43</title>
<path fill="none" stroke="#63b8ff" d="M2039.64,-126.72C2019.17,-116.95 1994.74,-105.28 1975.97,-96.31"/>
<polygon fill="#63b8ff" stroke="#63b8ff" points="2038.03,-129.83 2048.56,-130.98 2041.05,-123.52 2038.03,-129.83"/>
</g>
<!-- Node45 -->
<g id="node45" class="node">
<title>Node45</title>
<g id="a_node45"><a xlink:href="simple__policy__scenario_8h.html" target="_top" xlink:title=" ">
<polygon fill="white" stroke="#666666" points="2144,-96 2016,-96 2016,-66 2144,-66 2144,-96"/>
<text text-anchor="start" x="2024" y="-84" font-family="Helvetica,sans-Serif" font-size="10.00">HealthGPS/simple_policy</text>
<text text-anchor="middle" x="2080" y="-73" font-family="Helvetica,sans-Serif" font-size="10.00">_scenario.h</text>
</a>
</g>
</g>
<!-- Node34&#45;&gt;Node45 -->
<g id="edge64" class="edge">
<title>Node34&#45;&gt;Node45</title>
<path fill="none" stroke="#63b8ff" d="M2080,-120.39C2080,-112.13 2080,-103.28 2080,-96.16"/>
<polygon fill="#63b8ff" stroke="#63b8ff" points="2076.5,-120.28 2080,-130.28 2083.5,-120.28 2076.5,-120.28"/>
</g>
<!-- Node35&#45;&gt;Node14 -->
<g id="edge50" class="edge">
<title>Node35&#45;&gt;Node14</title>
<path fill="none" stroke="#63b8ff" d="M2240.91,-66.44C2213.05,-53.88 2172.45,-35.58 2148.58,-24.82"/>
<polygon fill="#63b8ff" stroke="#63b8ff" points="2239.32,-69.56 2249.88,-70.48 2242.2,-63.18 2239.32,-69.56"/>
</g>
<!-- Node36 -->
<g id="node36" class="node">
<title>Node36</title>
<g id="a_node36"><a xlink:href="fiscal__scenario_8cpp.html" target="_top" xlink:title=" ">
<polygon fill="white" stroke="#666666" points="2389,-24.5 2237,-24.5 2237,-5.5 2389,-5.5 2389,-24.5"/>
<text text-anchor="middle" x="2313" y="-12.5" font-family="Helvetica,sans-Serif" font-size="10.00">HealthGPS/fiscal_scenario.cpp</text>
</a>
</g>
</g>
<!-- Node35&#45;&gt;Node36 -->
<g id="edge51" class="edge">
<title>Node35&#45;&gt;Node36</title>
<path fill="none" stroke="#63b8ff" d="M2283.12,-61.53C2291.04,-49.46 2301.02,-34.25 2307.21,-24.82"/>
<polygon fill="#63b8ff" stroke="#63b8ff" points="2280.23,-59.55 2277.67,-69.84 2286.08,-63.4 2280.23,-59.55"/>
</g>
<!-- Node37&#45;&gt;Node14 -->
<g id="edge53" class="edge">
<title>Node37&#45;&gt;Node14</title>
<path fill="none" stroke="#63b8ff" d="M2348.16,-63.71C2291.58,-51.39 2216.04,-34.95 2170.04,-24.93"/>
<polygon fill="#63b8ff" stroke="#63b8ff" points="2347.21,-67.08 2357.73,-65.79 2348.7,-60.24 2347.21,-67.08"/>
</g>
<!-- Node38 -->
<g id="node38" class="node">
<title>Node38</title>
<g id="a_node38"><a xlink:href="food__labelling__scenario_8cpp.html" target="_top" xlink:title=" ">
<polygon fill="white" stroke="#666666" points="2534.5,-30 2407.5,-30 2407.5,0 2534.5,0 2534.5,-30"/>
<text text-anchor="start" x="2415.5" y="-18" font-family="Helvetica,sans-Serif" font-size="10.00">HealthGPS/food_labelling</text>
<text text-anchor="middle" x="2471" y="-7" font-family="Helvetica,sans-Serif" font-size="10.00">_scenario.cpp</text>
</a>
</g>
</g>
<!-- Node37&#45;&gt;Node38 -->
<g id="edge54" class="edge">
<title>Node37&#45;&gt;Node38</title>
<path fill="none" stroke="#63b8ff" d="M2440.49,-56.68C2447.15,-47.79 2454.54,-37.95 2460.38,-30.16"/>
<polygon fill="#63b8ff" stroke="#63b8ff" points="2437.76,-54.49 2434.56,-64.59 2443.36,-58.69 2437.76,-54.49"/>
</g>
<!-- Node39&#45;&gt;Node14 -->
<g id="edge56" class="edge">
<title>Node39&#45;&gt;Node14</title>
<path fill="none" stroke="#63b8ff" d="M2492.97,-65.55C2375.71,-45.2 2343.45,-45.92 2228,-30 2216.39,-28.4 2204.02,-26.67 2192.1,-24.99"/>
<polygon fill="#63b8ff" stroke="#63b8ff" points="2492.26,-68.97 2502.71,-67.25 2493.47,-62.08 2492.26,-68.97"/>
</g>
<!-- Node40 -->
<g id="node40" class="node">
<title>Node40</title>
<g id="a_node40"><a xlink:href="marketing__dynamic__scenario_8cpp.html" target="_top" xlink:title=" ">
<polygon fill="white" stroke="#666666" points="2671.5,-30 2552.5,-30 2552.5,0 2671.5,0 2671.5,-30"/>
<text text-anchor="start" x="2560.5" y="-18" font-family="Helvetica,sans-Serif" font-size="10.00">HealthGPS/marketing</text>
<text text-anchor="middle" x="2612" y="-7" font-family="Helvetica,sans-Serif" font-size="10.00">_dynamic_scenario.cpp</text>
</a>
</g>
</g>
<!-- Node39&#45;&gt;Node40 -->
<g id="edge57" class="edge">
<title>Node39&#45;&gt;Node40</title>
<path fill="none" stroke="#63b8ff" d="M2578.72,-56.96C2586,-48 2594.1,-38.03 2600.49,-30.16"/>
<polygon fill="#63b8ff" stroke="#63b8ff" points="2576.08,-54.65 2572.49,-64.62 2581.52,-59.07 2576.08,-54.65"/>
</g>
<!-- Node41&#45;&gt;Node14 -->
<g id="edge59" class="edge">
<title>Node41&#45;&gt;Node14</title>
<path fill="none" stroke="#63b8ff" d="M2621.86,-65.64C2447.91,-39.48 2400.29,-49.98 2228,-30 2215.41,-28.54 2201.95,-26.77 2189.14,-25"/>
<polygon fill="#63b8ff" stroke="#63b8ff" points="2621.32,-69.09 2631.73,-67.14 2622.38,-62.17 2621.32,-69.09"/>
</g>
<!-- Node42 -->
<g id="node42" class="node">
<title>Node42</title>
<g id="a_node42"><a xlink:href="marketing__scenario_8cpp.html" target="_top" xlink:title=" ">
<polygon fill="white" stroke="#666666" points="2800.5,-30 2689.5,-30 2689.5,0 2800.5,0 2800.5,-30"/>
<text text-anchor="start" x="2697.5" y="-18" font-family="Helvetica,sans-Serif" font-size="10.00">HealthGPS/marketing</text>
<text text-anchor="middle" x="2745" y="-7" font-family="Helvetica,sans-Serif" font-size="10.00">_scenario.cpp</text>
</a>
</g>
</g>
<!-- Node41&#45;&gt;Node42 -->
<g id="edge60" class="edge">
<title>Node41&#45;&gt;Node42</title>
<path fill="none" stroke="#63b8ff" d="M2708.91,-57.24C2716.81,-48.21 2725.65,-38.11 2732.61,-30.16"/>
<polygon fill="#63b8ff" stroke="#63b8ff" points="2706.38,-54.83 2702.42,-64.66 2711.64,-59.44 2706.38,-54.83"/>
</g>
<!-- Node43&#45;&gt;Node14 -->
<g id="edge62" class="edge">
<title>Node43&#45;&gt;Node14</title>
<path fill="none" stroke="#63b8ff" d="M1997.9,-61.85C2032.35,-49.8 2076.08,-34.51 2103.31,-24.99"/>
<polygon fill="#63b8ff" stroke="#63b8ff" points="1996.78,-58.53 1988.5,-65.14 1999.09,-65.14 1996.78,-58.53"/>
</g>
<!-- Node44 -->
<g id="node44" class="node">
<title>Node44</title>
<g id="a_node44"><a xlink:href="physical__activity__scenario_8cpp.html" target="_top" xlink:title=" ">
<polygon fill="white" stroke="#666666" points="1874.5,-30 1761.5,-30 1761.5,0 1874.5,0 1874.5,-30"/>
<text text-anchor="start" x="1769.5" y="-18" font-family="Helvetica,sans-Serif" font-size="10.00">HealthGPS/physical</text>
<text text-anchor="middle" x="1818" y="-7" font-family="Helvetica,sans-Serif" font-size="10.00">_activity_scenario.cpp</text>
</a>
</g>
</g>
<!-- Node43&#45;&gt;Node44 -->
<g id="edge63" class="edge">
<title>Node43&#45;&gt;Node44</title>
<path fill="none" stroke="#63b8ff" d="M1907.18,-60.59C1887.68,-50.84 1864.48,-39.24 1846.63,-30.31"/>
<polygon fill="#63b8ff" stroke="#63b8ff" points="1905.41,-63.62 1915.92,-64.96 1908.54,-57.36 1905.41,-63.62"/>
</g>
<!-- Node45&#45;&gt;Node14 -->
<g id="edge65" class="edge">
<title>Node45&#45;&gt;Node14</title>
<path fill="none" stroke="#63b8ff" d="M2097.65,-56.95C2106.17,-45.81 2115.9,-33.11 2122.23,-24.84"/>
<polygon fill="#63b8ff" stroke="#63b8ff" points="2095.09,-54.53 2091.79,-64.59 2100.65,-58.78 2095.09,-54.53"/>
</g>
<!-- Node46 -->
<g id="node46" class="node">
<title>Node46</title>
<g id="a_node46"><a xlink:href="simple__policy__scenario_8cpp.html" target="_top" xlink:title=" ">
<polygon fill="white" stroke="#666666" points="2021,-30 1893,-30 1893,0 2021,0 2021,-30"/>
<text text-anchor="start" x="1901" y="-18" font-family="Helvetica,sans-Serif" font-size="10.00">HealthGPS/simple_policy</text>
<text text-anchor="middle" x="1957" y="-7" font-family="Helvetica,sans-Serif" font-size="10.00">_scenario.cpp</text>
</a>
</g>
</g>
<!-- Node45&#45;&gt;Node46 -->
<g id="edge66" class="edge">
<title>Node45&#45;&gt;Node46</title>
<path fill="none" stroke="#63b8ff" d="M2042.43,-60.45C2023.75,-50.73 2001.59,-39.2 1984.51,-30.31"/>
<polygon fill="#63b8ff" stroke="#63b8ff" points="2040.57,-63.43 2051.05,-64.94 2043.8,-57.22 2040.57,-63.43"/>
</g>
<!-- Node47&#45;&gt;Node17 -->
<g id="edge68" class="edge">
<title>Node47&#45;&gt;Node17</title>
<path fill="none" stroke="#63b8ff" d="M1573.81,-468.59C1462.07,-456.45 1240.94,-432.42 1126.09,-419.94"/>
<polygon fill="#63b8ff" stroke="#63b8ff" points="1573.43,-472.07 1583.75,-469.67 1574.19,-465.11 1573.43,-472.07"/>
</g>
<!-- Node48 -->
<g id="node48" class="node">
<title>Node48</title>
<g id="a_node48"><a xlink:href="simulation_8h.html" target="_top" xlink:title=" ">
<polygon fill="white" stroke="#666666" points="1724.5,-222.5 1603.5,-222.5 1603.5,-203.5 1724.5,-203.5 1724.5,-222.5"/>
<text text-anchor="middle" x="1664" y="-210.5" font-family="Helvetica,sans-Serif" font-size="10.00">HealthGPS/simulation.h</text>
</a>
</g>
</g>
<!-- Node47&#45;&gt;Node48 -->
<g id="edge69" class="edge">
<title>Node47&#45;&gt;Node48</title>
<path fill="none" stroke="#63b8ff" d="M1628.74,-451.36C1625.17,-443.48 1621.8,-434.58 1620,-426 1617.26,-412.95 1618.42,-409.24 1620,-396 1628.08,-328.21 1652.51,-249.17 1661.03,-222.95"/>
<polygon fill="#63b8ff" stroke="#63b8ff" points="1625.58,-452.85 1633.11,-460.3 1631.87,-449.78 1625.58,-452.85"/>
</g>
<!-- Node51 -->
<g id="node50" class="node">
<title>Node51</title>
<g id="a_node50"><a xlink:href="simulation__definition_8cpp.html" target="_top" xlink:title=" ">
<polygon fill="white" stroke="#666666" points="1741.5,-426 1628.5,-426 1628.5,-396 1741.5,-396 1741.5,-426"/>
<text text-anchor="start" x="1636.5" y="-414" font-family="Helvetica,sans-Serif" font-size="10.00">HealthGPS/simulation</text>
<text text-anchor="middle" x="1685" y="-403" font-family="Helvetica,sans-Serif" font-size="10.00">_definition.cpp</text>
</a>
</g>
</g>
<!-- Node47&#45;&gt;Node51 -->
<g id="edge73" class="edge">
<title>Node47&#45;&gt;Node51</title>
<path fill="none" stroke="#63b8ff" d="M1657.86,-452.39C1663.78,-443.59 1670.31,-433.86 1675.48,-426.16"/>
<polygon fill="#63b8ff" stroke="#63b8ff" points="1655.06,-450.29 1652.39,-460.54 1660.87,-454.19 1655.06,-450.29"/>
</g>
<!-- Node48&#45;&gt;Node12 -->
<g id="edge70" class="edge">
<title>Node48&#45;&gt;Node12</title>
<path fill="none" stroke="#63b8ff" d="M1633.69,-198.44C1605.64,-185.88 1564.75,-167.58 1540.71,-156.82"/>
<polygon fill="#63b8ff" stroke="#63b8ff" points="1632.18,-201.59 1642.73,-202.48 1635.04,-195.2 1632.18,-201.59"/>
</g>
<!-- Node49 -->
<g id="node49" class="node">
<title>Node49</title>
<g id="a_node49"><a xlink:href="modelrunner_8h.html" target="_top" xlink:title=" ">
<polygon fill="#fff0f0" stroke="red" points="1729,-156.5 1599,-156.5 1599,-137.5 1729,-137.5 1729,-156.5"/>
<text text-anchor="middle" x="1664" y="-144.5" font-family="Helvetica,sans-Serif" font-size="10.00">HealthGPS/modelrunner.h</text>
</a>
</g>
</g>
<!-- Node48&#45;&gt;Node49 -->
<g id="edge71" class="edge">
<title>Node48&#45;&gt;Node49</title>
<path fill="none" stroke="#63b8ff" d="M1664,-191.68C1664,-179.94 1664,-165.77 1664,-156.82"/>
<polygon fill="#63b8ff" stroke="#63b8ff" points="1660.5,-191.59 1664,-201.59 1667.5,-191.59 1660.5,-191.59"/>
</g>
<!-- Node49&#45;&gt;Node10 -->
<g id="edge72" class="edge">
<title>Node49&#45;&gt;Node10</title>
<path fill="none" stroke="#63b8ff" d="M1633.69,-132.44C1605.64,-119.88 1564.75,-101.58 1540.71,-90.82"/>
<polygon fill="#63b8ff" stroke="#63b8ff" points="1632.18,-135.59 1642.73,-136.48 1635.04,-129.2 1632.18,-135.59"/>
</g>
</g>
</svg>
