<?xml version="1.0" encoding="UTF-8" standalone="no"?>
<!DOCTYPE svg PUBLIC "-//W3C//DTD SVG 1.1//EN"
 "http://www.w3.org/Graphics/SVG/1.1/DTD/svg11.dtd">
<!-- Generated by graphviz version 2.43.0 (0)
 -->
<!-- Title: HealthGPS/random_algorithm.cpp Pages: 1 -->
<svg width="517pt" height="196pt"
 viewBox="0.00 0.00 516.50 196.00" xmlns="http://www.w3.org/2000/svg" xmlns:xlink="http://www.w3.org/1999/xlink">
<g id="graph0" class="graph" transform="scale(1 1) rotate(0) translate(4 192)">
<title>HealthGPS/random_algorithm.cpp</title>
<!-- Node1 -->
<g id="node1" class="node">
<title>Node1</title>
<g id="a_node1"><a xlink:title=" ">
<polygon fill="#bfbfbf" stroke="black" points="208,-168.5 208,-187.5 390,-187.5 390,-168.5 208,-168.5"/>
<text text-anchor="middle" x="299" y="-175.5" font-family="Helvetica,sans-Serif" font-size="10.00">HealthGPS/random_algorithm.cpp</text>
</a>
</g>
</g>
<!-- Node2 -->
<g id="node2" class="node">
<title>Node2</title>
<g id="a_node2"><a xlink:href="random__algorithm_8h.html" target="_top" xlink:title=" ">
<polygon fill="none" stroke="black" points="63,-112.5 63,-131.5 179,-131.5 179,-112.5 63,-112.5"/>
<text text-anchor="middle" x="121" y="-119.5" font-family="Helvetica,sans-Serif" font-size="10.00">random_algorithm.h</text>
</a>
</g>
</g>
<!-- Node1&#45;&gt;Node2 -->
<g id="edge1" class="edge">
<title>Node1&#45;&gt;Node2</title>
<path fill="none" stroke="midnightblue" d="M270.8,-168.44C240.59,-159.28 192.49,-144.69 158.97,-134.52"/>
<polygon fill="midnightblue" stroke="midnightblue" points="159.66,-131.07 149.07,-131.52 157.63,-137.77 159.66,-131.07"/>
</g>
<!-- Node7 -->
<g id="node7" class="node">
<title>Node7</title>
<g id="a_node7"><a xlink:title=" ">
<polygon fill="none" stroke="#bfbfbf" points="197,-112.5 197,-131.5 251,-131.5 251,-112.5 197,-112.5"/>
<text text-anchor="middle" x="224" y="-119.5" font-family="Helvetica,sans-Serif" font-size="10.00">random</text>
</a>
</g>
</g>
<!-- Node1&#45;&gt;Node7 -->
<g id="edge6" class="edge">
<title>Node1&#45;&gt;Node7</title>
<path fill="none" stroke="midnightblue" d="M286.95,-168.32C275.54,-160.11 258.17,-147.6 244.57,-137.81"/>
<polygon fill="midnightblue" stroke="midnightblue" points="246.43,-134.84 236.27,-131.83 242.34,-140.52 246.43,-134.84"/>
</g>
<!-- Node8 -->
<g id="node8" class="node">
<title>Node8</title>
<g id="a_node8"><a xlink:title=" ">
<polygon fill="none" stroke="#bfbfbf" points="269.5,-112.5 269.5,-131.5 328.5,-131.5 328.5,-112.5 269.5,-112.5"/>
<text text-anchor="middle" x="299" y="-119.5" font-family="Helvetica,sans-Serif" font-size="10.00">numbers</text>
</a>
</g>
</g>
<!-- Node1&#45;&gt;Node8 -->
<g id="edge7" class="edge">
<title>Node1&#45;&gt;Node8</title>
<path fill="none" stroke="midnightblue" d="M299,-168.08C299,-161.01 299,-150.86 299,-141.99"/>
<polygon fill="midnightblue" stroke="midnightblue" points="302.5,-141.75 299,-131.75 295.5,-141.75 302.5,-141.75"/>
</g>
<!-- Node9 -->
<g id="node9" class="node">
<title>Node9</title>
<g id="a_node9"><a xlink:title=" ">
<polygon fill="none" stroke="#bfbfbf" points="346.5,-112.5 346.5,-131.5 411.5,-131.5 411.5,-112.5 346.5,-112.5"/>
<text text-anchor="middle" x="379" y="-119.5" font-family="Helvetica,sans-Serif" font-size="10.00">stdexcept</text>
</a>
</g>
</g>
<!-- Node1&#45;&gt;Node9 -->
<g id="edge8" class="edge">
<title>Node1&#45;&gt;Node9</title>
<path fill="none" stroke="midnightblue" d="M311.85,-168.32C324.22,-159.98 343.13,-147.21 357.74,-137.35"/>
<polygon fill="midnightblue" stroke="midnightblue" points="359.85,-140.15 366.18,-131.65 355.93,-134.35 359.85,-140.15"/>
</g>
<!-- Node10 -->
<g id="node10" class="node">
<title>Node10</title>
<g id="a_node10"><a xlink:title=" ">
<polygon fill="none" stroke="#bfbfbf" points="429.5,-112.5 429.5,-131.5 508.5,-131.5 508.5,-112.5 429.5,-112.5"/>
<text text-anchor="middle" x="469" y="-119.5" font-family="Helvetica,sans-Serif" font-size="10.00">fmt/format.h</text>
</a>
</g>
</g>
<!-- Node1&#45;&gt;Node10 -->
<g id="edge9" class="edge">
<title>Node1&#45;&gt;Node10</title>
<path fill="none" stroke="midnightblue" d="M325.94,-168.44C354.66,-159.32 400.33,-144.81 432.32,-134.65"/>
<polygon fill="midnightblue" stroke="midnightblue" points="433.72,-137.88 442.19,-131.52 431.6,-131.21 433.72,-137.88"/>
</g>
<!-- Node3 -->
<g id="node3" class="node">
<title>Node3</title>
<g id="a_node3"><a xlink:href="randombit__generator_8h.html" target="_top" xlink:title=" ">
<polygon fill="none" stroke="black" points="0,-56.5 0,-75.5 128,-75.5 128,-56.5 0,-56.5"/>
<text text-anchor="middle" x="64" y="-63.5" font-family="Helvetica,sans-Serif" font-size="10.00">randombit_generator.h</text>
</a>
</g>
</g>
<!-- Node2&#45;&gt;Node3 -->
<g id="edge2" class="edge">
<title>Node2&#45;&gt;Node3</title>
<path fill="none" stroke="midnightblue" d="M111.84,-112.32C103.5,-104.42 90.97,-92.55 80.82,-82.94"/>
<polygon fill="midnightblue" stroke="midnightblue" points="82.99,-80.17 73.32,-75.83 78.18,-85.25 82.99,-80.17"/>
</g>
<!-- Node6 -->
<g id="node6" class="node">
<title>Node6</title>
<g id="a_node6"><a xlink:title=" ">
<polygon fill="none" stroke="#bfbfbf" points="146.5,-56.5 146.5,-75.5 211.5,-75.5 211.5,-56.5 146.5,-56.5"/>
<text text-anchor="middle" x="179" y="-63.5" font-family="Helvetica,sans-Serif" font-size="10.00">functional</text>
</a>
</g>
</g>
<!-- Node2&#45;&gt;Node6 -->
<g id="edge5" class="edge">
<title>Node2&#45;&gt;Node6</title>
<path fill="none" stroke="midnightblue" d="M130.32,-112.32C138.89,-104.34 151.81,-92.31 162.19,-82.65"/>
<polygon fill="midnightblue" stroke="midnightblue" points="164.58,-85.21 169.51,-75.83 159.81,-80.09 164.58,-85.21"/>
</g>
<!-- Node4 -->
<g id="node4" class="node">
<title>Node4</title>
<g id="a_node4"><a xlink:title=" ">
<polygon fill="none" stroke="#bfbfbf" points="10,-0.5 10,-19.5 54,-19.5 54,-0.5 10,-0.5"/>
<text text-anchor="middle" x="32" y="-7.5" font-family="Helvetica,sans-Serif" font-size="10.00">limits</text>
</a>
</g>
</g>
<!-- Node3&#45;&gt;Node4 -->
<g id="edge3" class="edge">
<title>Node3&#45;&gt;Node4</title>
<path fill="none" stroke="midnightblue" d="M58.72,-56.08C54.29,-48.61 47.84,-37.72 42.38,-28.52"/>
<polygon fill="midnightblue" stroke="midnightblue" points="45.29,-26.57 37.19,-19.75 39.27,-30.14 45.29,-26.57"/>
</g>
<!-- Node5 -->
<g id="node5" class="node">
<title>Node5</title>
<g id="a_node5"><a xlink:title=" ">
<polygon fill="none" stroke="#bfbfbf" points="72.5,-0.5 72.5,-19.5 119.5,-19.5 119.5,-0.5 72.5,-0.5"/>
<text text-anchor="middle" x="96" y="-7.5" font-family="Helvetica,sans-Serif" font-size="10.00">vector</text>
</a>
</g>
</g>
<!-- Node3&#45;&gt;Node5 -->
<g id="edge4" class="edge">
<title>Node3&#45;&gt;Node5</title>
<path fill="none" stroke="midnightblue" d="M69.28,-56.08C73.71,-48.61 80.16,-37.72 85.62,-28.52"/>
<polygon fill="midnightblue" stroke="midnightblue" points="88.73,-30.14 90.81,-19.75 82.71,-26.57 88.73,-30.14"/>
</g>
</g>
</svg>
