<?xml version="1.0" encoding="UTF-8" standalone="no"?>
<!DOCTYPE svg PUBLIC "-//W3C//DTD SVG 1.1//EN"
 "http://www.w3.org/Graphics/SVG/1.1/DTD/svg11.dtd">
<!-- Generated by graphviz version 2.43.0 (0)
 -->
<!-- Title: HealthGPS/random_algorithm.h Pages: 1 -->
<svg width="3022pt" height="620pt"
 viewBox="0.00 0.00 3021.50 620.00" xmlns="http://www.w3.org/2000/svg" xmlns:xlink="http://www.w3.org/1999/xlink">
<g id="graph0" class="graph" transform="scale(1 1) rotate(0) translate(4 616)">
<title>HealthGPS/random_algorithm.h</title>
<!-- Node1 -->
<g id="node1" class="node">
<title>Node1</title>
<g id="a_node1"><a xlink:title=" ">
<polygon fill="#bfbfbf" stroke="black" points="1392,-592.5 1392,-611.5 1562,-611.5 1562,-592.5 1392,-592.5"/>
<text text-anchor="middle" x="1477" y="-599.5" font-family="Helvetica,sans-Serif" font-size="10.00">HealthGPS/random_algorithm.h</text>
</a>
</g>
</g>
<!-- Node2 -->
<g id="node2" class="node">
<title>Node2</title>
<g id="a_node2"><a xlink:href="energy__balance__model_8h.html" target="_top" xlink:title=" ">
<polygon fill="none" stroke="black" points="146.5,-402.5 146.5,-432.5 295.5,-432.5 295.5,-402.5 146.5,-402.5"/>
<text text-anchor="start" x="154.5" y="-420.5" font-family="Helvetica,sans-Serif" font-size="10.00">HealthGPS/energy_balance</text>
<text text-anchor="middle" x="221" y="-409.5" font-family="Helvetica,sans-Serif" font-size="10.00">_model.h</text>
</a>
</g>
</g>
<!-- Node1&#45;&gt;Node2 -->
<g id="edge1" class="edge">
<title>Node1&#45;&gt;Node2</title>
<path fill="none" stroke="midnightblue" d="M1408.11,-590.99C1190.86,-559.42 521.26,-462.13 295.9,-429.38"/>
<polygon fill="midnightblue" stroke="midnightblue" points="1407.71,-594.47 1418.11,-592.44 1408.71,-587.54 1407.71,-594.47"/>
</g>
<!-- Node16 -->
<g id="node16" class="node">
<title>Node16</title>
<g id="a_node16"><a xlink:href="random__algorithm_8cpp.html" target="_top" xlink:title=" ">
<polygon fill="none" stroke="black" points="1930,-536.5 1930,-555.5 2112,-555.5 2112,-536.5 1930,-536.5"/>
<text text-anchor="middle" x="2021" y="-543.5" font-family="Helvetica,sans-Serif" font-size="10.00">HealthGPS/random_algorithm.cpp</text>
</a>
</g>
</g>
<!-- Node1&#45;&gt;Node16 -->
<g id="edge19" class="edge">
<title>Node1&#45;&gt;Node16</title>
<path fill="none" stroke="midnightblue" d="M1572.35,-591.54C1674.96,-581.35 1836.67,-565.3 1935.35,-555.5"/>
<polygon fill="midnightblue" stroke="midnightblue" points="1571.9,-588.06 1562.3,-592.53 1572.6,-595.03 1571.9,-588.06"/>
</g>
<!-- Node17 -->
<g id="node17" class="node">
<title>Node17</title>
<g id="a_node17"><a xlink:href="runtime__context_8h.html" target="_top" xlink:title=" ">
<polygon fill="none" stroke="black" points="1054.5,-408 1054.5,-427 1215.5,-427 1215.5,-408 1054.5,-408"/>
<text text-anchor="middle" x="1135" y="-415" font-family="Helvetica,sans-Serif" font-size="10.00">HealthGPS/runtime_context.h</text>
</a>
</g>
</g>
<!-- Node1&#45;&gt;Node17 -->
<g id="edge20" class="edge">
<title>Node1&#45;&gt;Node17</title>
<path fill="none" stroke="midnightblue" d="M1452.01,-587.66C1385.53,-552.19 1205.7,-456.23 1151,-427.04"/>
<polygon fill="midnightblue" stroke="midnightblue" points="1450.49,-590.82 1460.96,-592.44 1453.79,-584.65 1450.49,-590.82"/>
</g>
<!-- Node31 -->
<g id="node31" class="node">
<title>Node31</title>
<g id="a_node31"><a xlink:href="scenario_8h.html" target="_top" xlink:title=" ">
<polygon fill="none" stroke="black" points="1790,-536.5 1790,-555.5 1912,-555.5 1912,-536.5 1790,-536.5"/>
<text text-anchor="middle" x="1851" y="-543.5" font-family="Helvetica,sans-Serif" font-size="10.00">HealthGPS/scenario.h</text>
</a>
</g>
</g>
<!-- Node1&#45;&gt;Node31 -->
<g id="edge40" class="edge">
<title>Node1&#45;&gt;Node31</title>
<path fill="none" stroke="midnightblue" d="M1546.4,-590.98C1617.05,-580.78 1725.38,-565.14 1792.02,-555.52"/>
<polygon fill="midnightblue" stroke="midnightblue" points="1545.66,-587.55 1536.26,-592.44 1546.66,-594.48 1545.66,-587.55"/>
</g>
<!-- Node3 -->
<g id="node3" class="node">
<title>Node3</title>
<g id="a_node3"><a xlink:href="energy__balance__model_8cpp.html" target="_top" xlink:title=" ">
<polygon fill="none" stroke="black" points="146.5,-335.5 146.5,-365.5 295.5,-365.5 295.5,-335.5 146.5,-335.5"/>
<text text-anchor="start" x="154.5" y="-353.5" font-family="Helvetica,sans-Serif" font-size="10.00">HealthGPS/energy_balance</text>
<text text-anchor="middle" x="221" y="-342.5" font-family="Helvetica,sans-Serif" font-size="10.00">_model.cpp</text>
</a>
</g>
</g>
<!-- Node2&#45;&gt;Node3 -->
<g id="edge2" class="edge">
<title>Node2&#45;&gt;Node3</title>
<path fill="none" stroke="midnightblue" d="M221,-392.11C221,-383.15 221,-373.32 221,-365.58"/>
<polygon fill="midnightblue" stroke="midnightblue" points="217.5,-392.4 221,-402.4 224.5,-392.4 217.5,-392.4"/>
</g>
<!-- Node4 -->
<g id="node4" class="node">
<title>Node4</title>
<g id="a_node4"><a xlink:href="hierarchical__model_8h.html" target="_top" xlink:title=" ">
<polygon fill="none" stroke="black" points="0,-335.5 0,-365.5 128,-365.5 128,-335.5 0,-335.5"/>
<text text-anchor="start" x="8" y="-353.5" font-family="Helvetica,sans-Serif" font-size="10.00">HealthGPS/hierarchical</text>
<text text-anchor="middle" x="64" y="-342.5" font-family="Helvetica,sans-Serif" font-size="10.00">_model.h</text>
</a>
</g>
</g>
<!-- Node2&#45;&gt;Node4 -->
<g id="edge3" class="edge">
<title>Node2&#45;&gt;Node4</title>
<path fill="none" stroke="midnightblue" d="M177.63,-398.54C152.51,-388.14 121.34,-375.24 98,-365.58"/>
<polygon fill="midnightblue" stroke="midnightblue" points="176.36,-401.8 186.93,-402.4 179.03,-395.34 176.36,-401.8"/>
</g>
<!-- Node5 -->
<g id="node5" class="node">
<title>Node5</title>
<g id="a_node5"><a xlink:href="healthgps_8cpp.html" target="_top" xlink:title=" ">
<polygon fill="none" stroke="black" points="693,-73 693,-92 833,-92 833,-73 693,-73"/>
<text text-anchor="middle" x="763" y="-80" font-family="Helvetica,sans-Serif" font-size="10.00">HealthGPS/healthgps.cpp</text>
</a>
</g>
</g>
<!-- Node4&#45;&gt;Node5 -->
<g id="edge4" class="edge">
<title>Node4&#45;&gt;Node5</title>
<path fill="none" stroke="midnightblue" d="M52.67,-325.86C46.31,-309.15 41.09,-286.52 49,-268 65.91,-228.4 80.64,-220.58 119,-201 310.06,-103.47 569.47,-85.88 692.58,-83.37"/>
<polygon fill="midnightblue" stroke="midnightblue" points="49.58,-327.53 56.67,-335.41 56.04,-324.83 49.58,-327.53"/>
</g>
<!-- Node6 -->
<g id="node6" class="node">
<title>Node6</title>
<g id="a_node6"><a xlink:href="hierarchical__model__registry_8h.html" target="_top" xlink:title=" ">
<polygon fill="none" stroke="black" points="58,-268.5 58,-298.5 186,-298.5 186,-268.5 58,-268.5"/>
<text text-anchor="start" x="66" y="-286.5" font-family="Helvetica,sans-Serif" font-size="10.00">HealthGPS/hierarchical</text>
<text text-anchor="middle" x="122" y="-275.5" font-family="Helvetica,sans-Serif" font-size="10.00">_model_registry.h</text>
</a>
</g>
</g>
<!-- Node4&#45;&gt;Node6 -->
<g id="edge5" class="edge">
<title>Node4&#45;&gt;Node6</title>
<path fill="none" stroke="midnightblue" d="M83.42,-327.74C92,-318.12 101.84,-307.09 109.44,-298.58"/>
<polygon fill="midnightblue" stroke="midnightblue" points="80.63,-325.6 76.59,-335.4 85.85,-330.26 80.63,-325.6"/>
</g>
<!-- Node8 -->
<g id="node8" class="node">
<title>Node8</title>
<g id="a_node8"><a xlink:href="riskfactor_8h.html" target="_top" xlink:title=" ">
<polygon fill="none" stroke="black" points="204,-274 204,-293 330,-293 330,-274 204,-274"/>
<text text-anchor="middle" x="267" y="-281" font-family="Helvetica,sans-Serif" font-size="10.00">HealthGPS/riskfactor.h</text>
</a>
</g>
</g>
<!-- Node4&#45;&gt;Node8 -->
<g id="edge7" class="edge">
<title>Node4&#45;&gt;Node8</title>
<path fill="none" stroke="midnightblue" d="M117.81,-332.27C157.37,-319.6 209.43,-302.93 240.43,-293.01"/>
<polygon fill="midnightblue" stroke="midnightblue" points="116.5,-329.01 108.05,-335.4 118.64,-335.68 116.5,-329.01"/>
</g>
<!-- Node7 -->
<g id="node7" class="node">
<title>Node7</title>
<g id="a_node7"><a xlink:href="riskfactor_8cpp.html" target="_top" xlink:title=" ">
<polygon fill="none" stroke="black" points="128.5,-207 128.5,-226 265.5,-226 265.5,-207 128.5,-207"/>
<text text-anchor="middle" x="197" y="-214" font-family="Helvetica,sans-Serif" font-size="10.00">HealthGPS/riskfactor.cpp</text>
</a>
</g>
</g>
<!-- Node6&#45;&gt;Node7 -->
<g id="edge6" class="edge">
<title>Node6&#45;&gt;Node7</title>
<path fill="none" stroke="midnightblue" d="M146.03,-261.67C159.88,-249.67 176.55,-235.22 186.97,-226.19"/>
<polygon fill="midnightblue" stroke="midnightblue" points="143.54,-259.2 138.27,-268.4 148.12,-264.49 143.54,-259.2"/>
</g>
<!-- Node8&#45;&gt;Node7 -->
<g id="edge8" class="edge">
<title>Node8&#45;&gt;Node7</title>
<path fill="none" stroke="midnightblue" d="M250.15,-266.86C236.39,-254.08 217.45,-236.49 206.29,-226.13"/>
<polygon fill="midnightblue" stroke="midnightblue" points="247.85,-269.49 257.56,-273.73 252.61,-264.36 247.85,-269.49"/>
</g>
<!-- Node9 -->
<g id="node9" class="node">
<title>Node9</title>
<g id="a_node9"><a xlink:href="simulation__module_8h.html" target="_top" xlink:title=" ">
<polygon fill="none" stroke="black" points="1056.5,-201.5 1056.5,-231.5 1179.5,-231.5 1179.5,-201.5 1056.5,-201.5"/>
<text text-anchor="start" x="1064.5" y="-219.5" font-family="Helvetica,sans-Serif" font-size="10.00">HealthGPS/simulation</text>
<text text-anchor="middle" x="1118" y="-208.5" font-family="Helvetica,sans-Serif" font-size="10.00">_module.h</text>
</a>
</g>
</g>
<!-- Node8&#45;&gt;Node9 -->
<g id="edge9" class="edge">
<title>Node8&#45;&gt;Node9</title>
<path fill="none" stroke="midnightblue" d="M314.65,-271.97C322.74,-270.45 331.09,-269.05 339,-268 604.51,-232.82 924.33,-221.86 1056.37,-218.69"/>
<polygon fill="midnightblue" stroke="midnightblue" points="313.72,-268.59 304.58,-273.94 315.07,-275.46 313.72,-268.59"/>
</g>
<!-- Node10 -->
<g id="node10" class="node">
<title>Node10</title>
<g id="a_node10"><a xlink:href="HealthGPS_2api_8h.html" target="_top" xlink:title=" ">
<polygon fill="none" stroke="black" points="1584.5,-73 1584.5,-92 1679.5,-92 1679.5,-73 1584.5,-73"/>
<text text-anchor="middle" x="1632" y="-80" font-family="Helvetica,sans-Serif" font-size="10.00">HealthGPS/api.h</text>
</a>
</g>
</g>
<!-- Node9&#45;&gt;Node10 -->
<g id="edge10" class="edge">
<title>Node9&#45;&gt;Node10</title>
<path fill="none" stroke="midnightblue" d="M1182.21,-199.01C1292.63,-170.65 1514.73,-113.62 1598.76,-92.04"/>
<polygon fill="midnightblue" stroke="midnightblue" points="1181.34,-195.62 1172.52,-201.5 1183.08,-202.4 1181.34,-195.62"/>
</g>
<!-- Node12 -->
<g id="node12" class="node">
<title>Node12</title>
<g id="a_node12"><a xlink:href="healthgps_8h.html" target="_top" xlink:title=" ">
<polygon fill="none" stroke="black" points="1568,-140 1568,-159 1696,-159 1696,-140 1568,-140"/>
<text text-anchor="middle" x="1632" y="-147" font-family="Helvetica,sans-Serif" font-size="10.00">HealthGPS/healthgps.h</text>
</a>
</g>
</g>
<!-- Node9&#45;&gt;Node12 -->
<g id="edge12" class="edge">
<title>Node9&#45;&gt;Node12</title>
<path fill="none" stroke="midnightblue" d="M1189.81,-206.42C1290.31,-193.71 1471.39,-170.81 1567.69,-158.63"/>
<polygon fill="midnightblue" stroke="midnightblue" points="1189.23,-202.96 1179.74,-207.69 1190.11,-209.91 1189.23,-202.96"/>
</g>
<!-- Node15 -->
<g id="node15" class="node">
<title>Node15</title>
<g id="a_node15"><a xlink:href="simulation__module_8cpp.html" target="_top" xlink:title=" ">
<polygon fill="none" stroke="black" points="1056.5,-134.5 1056.5,-164.5 1179.5,-164.5 1179.5,-134.5 1056.5,-134.5"/>
<text text-anchor="start" x="1064.5" y="-152.5" font-family="Helvetica,sans-Serif" font-size="10.00">HealthGPS/simulation</text>
<text text-anchor="middle" x="1118" y="-141.5" font-family="Helvetica,sans-Serif" font-size="10.00">_module.cpp</text>
</a>
</g>
</g>
<!-- Node9&#45;&gt;Node15 -->
<g id="edge18" class="edge">
<title>Node9&#45;&gt;Node15</title>
<path fill="none" stroke="midnightblue" d="M1118,-191.11C1118,-182.15 1118,-172.32 1118,-164.58"/>
<polygon fill="midnightblue" stroke="midnightblue" points="1114.5,-191.4 1118,-201.4 1121.5,-191.4 1114.5,-191.4"/>
</g>
<!-- Node11 -->
<g id="node11" class="node">
<title>Node11</title>
<g id="a_node11"><a xlink:href="program_8cpp.html" target="_top" xlink:title=" ">
<polygon fill="none" stroke="black" points="1643.5,-6 1643.5,-25 1818.5,-25 1818.5,-6 1643.5,-6"/>
<text text-anchor="middle" x="1731" y="-13" font-family="Helvetica,sans-Serif" font-size="10.00">HealthGPS.Console/program.cpp</text>
</a>
</g>
</g>
<!-- Node10&#45;&gt;Node11 -->
<g id="edge11" class="edge">
<title>Node10&#45;&gt;Node11</title>
<path fill="none" stroke="midnightblue" d="M1653.94,-67.09C1673.53,-54.24 1701.56,-35.83 1717.86,-25.13"/>
<polygon fill="midnightblue" stroke="midnightblue" points="1651.79,-64.32 1645.35,-72.73 1655.63,-70.17 1651.79,-64.32"/>
</g>
<!-- Node12&#45;&gt;Node5 -->
<g id="edge14" class="edge">
<title>Node12&#45;&gt;Node5</title>
<path fill="none" stroke="midnightblue" d="M1557.66,-142.94C1392.08,-130.55 994.87,-100.84 833.22,-88.75"/>
<polygon fill="midnightblue" stroke="midnightblue" points="1557.51,-146.44 1567.75,-143.69 1558.04,-139.46 1557.51,-146.44"/>
</g>
<!-- Node12&#45;&gt;Node10 -->
<g id="edge13" class="edge">
<title>Node12&#45;&gt;Node10</title>
<path fill="none" stroke="midnightblue" d="M1632,-129.54C1632,-117.17 1632,-101.62 1632,-92.13"/>
<polygon fill="midnightblue" stroke="midnightblue" points="1628.5,-129.73 1632,-139.73 1635.5,-129.73 1628.5,-129.73"/>
</g>
<!-- Node13 -->
<g id="node13" class="node">
<title>Node13</title>
<g id="a_node13"><a xlink:href="configuration_8h.html" target="_top" xlink:title=" ">
<polygon fill="none" stroke="black" points="1698,-73 1698,-92 1884,-92 1884,-73 1698,-73"/>
<text text-anchor="middle" x="1791" y="-80" font-family="Helvetica,sans-Serif" font-size="10.00">HealthGPS.Console/configuration.h</text>
</a>
</g>
</g>
<!-- Node12&#45;&gt;Node13 -->
<g id="edge15" class="edge">
<title>Node12&#45;&gt;Node13</title>
<path fill="none" stroke="midnightblue" d="M1662.73,-135.94C1694.31,-123.03 1742.62,-103.28 1770.05,-92.06"/>
<polygon fill="midnightblue" stroke="midnightblue" points="1661.05,-132.84 1653.11,-139.87 1663.69,-139.32 1661.05,-132.84"/>
</g>
<!-- Node13&#45;&gt;Node11 -->
<g id="edge17" class="edge">
<title>Node13&#45;&gt;Node11</title>
<path fill="none" stroke="midnightblue" d="M1775.89,-65.13C1764.16,-52.42 1748.35,-35.3 1738.96,-25.13"/>
<polygon fill="midnightblue" stroke="midnightblue" points="1773.55,-67.76 1782.91,-72.73 1778.7,-63.01 1773.55,-67.76"/>
</g>
<!-- Node14 -->
<g id="node14" class="node">
<title>Node14</title>
<g id="a_node14"><a xlink:href="configuration_8cpp.html" target="_top" xlink:title=" ">
<polygon fill="none" stroke="black" points="2187.5,-6 2187.5,-25 2384.5,-25 2384.5,-6 2187.5,-6"/>
<text text-anchor="middle" x="2286" y="-13" font-family="Helvetica,sans-Serif" font-size="10.00">HealthGPS.Console/configuration.cpp</text>
</a>
</g>
</g>
<!-- Node13&#45;&gt;Node14 -->
<g id="edge16" class="edge">
<title>Node13&#45;&gt;Node14</title>
<path fill="none" stroke="midnightblue" d="M1860.52,-71.58C1871.71,-70.02 1883.17,-68.45 1894,-67 2020.55,-50.1 2052.41,-47.57 2179,-31 2193.5,-29.1 2209.1,-27.01 2223.77,-25.03"/>
<polygon fill="midnightblue" stroke="midnightblue" points="1859.77,-68.15 1850.35,-73 1860.74,-75.08 1859.77,-68.15"/>
</g>
<!-- Node17&#45;&gt;Node3 -->
<g id="edge32" class="edge">
<title>Node17&#45;&gt;Node3</title>
<path fill="none" stroke="midnightblue" d="M1043.93,-414.31C890.71,-409.87 571.85,-397.43 304,-366 301.24,-365.68 298.43,-365.32 295.6,-364.94"/>
<polygon fill="midnightblue" stroke="midnightblue" points="1044.13,-417.82 1054.22,-414.6 1044.33,-410.82 1044.13,-417.82"/>
</g>
<!-- Node17&#45;&gt;Node12 -->
<g id="edge33" class="edge">
<title>Node17&#45;&gt;Node12</title>
<path fill="none" stroke="midnightblue" d="M1225.98,-414.49C1371.32,-410.32 1642.62,-398.27 1672,-366 1727.84,-304.66 1659.57,-191.52 1638.07,-159.28"/>
<polygon fill="midnightblue" stroke="midnightblue" points="1225.63,-410.99 1215.74,-414.77 1225.83,-417.99 1225.63,-410.99"/>
</g>
<!-- Node18 -->
<g id="node18" class="node">
<title>Node18</title>
<g id="a_node18"><a xlink:href="analysis__module_8h.html" target="_top" xlink:title=" ">
<polygon fill="none" stroke="black" points="313,-335.5 313,-365.5 425,-365.5 425,-335.5 313,-335.5"/>
<text text-anchor="start" x="321" y="-353.5" font-family="Helvetica,sans-Serif" font-size="10.00">HealthGPS/analysis</text>
<text text-anchor="middle" x="369" y="-342.5" font-family="Helvetica,sans-Serif" font-size="10.00">_module.h</text>
</a>
</g>
</g>
<!-- Node17&#45;&gt;Node18 -->
<g id="edge21" class="edge">
<title>Node17&#45;&gt;Node18</title>
<path fill="none" stroke="midnightblue" d="M1044.2,-414.23C910.11,-409.92 651.52,-397.92 434,-366 431.14,-365.58 428.22,-365.1 425.28,-364.59"/>
<polygon fill="midnightblue" stroke="midnightblue" points="1044.31,-417.74 1054.42,-414.56 1044.53,-410.74 1044.31,-417.74"/>
</g>
<!-- Node20 -->
<g id="node20" class="node">
<title>Node20</title>
<g id="a_node20"><a xlink:href="default__cancer__model_8cpp.html" target="_top" xlink:title=" ">
<polygon fill="none" stroke="black" points="579.5,-335.5 579.5,-365.5 722.5,-365.5 722.5,-335.5 579.5,-335.5"/>
<text text-anchor="start" x="587.5" y="-353.5" font-family="Helvetica,sans-Serif" font-size="10.00">HealthGPS/default_cancer</text>
<text text-anchor="middle" x="651" y="-342.5" font-family="Helvetica,sans-Serif" font-size="10.00">_model.cpp</text>
</a>
</g>
</g>
<!-- Node17&#45;&gt;Node20 -->
<g id="edge24" class="edge">
<title>Node17&#45;&gt;Node20</title>
<path fill="none" stroke="midnightblue" d="M1047.2,-406.84C965.44,-397.53 840.24,-382.46 732,-366 728.89,-365.53 725.72,-365.03 722.52,-364.51"/>
<polygon fill="midnightblue" stroke="midnightblue" points="1046.87,-410.33 1057.2,-407.98 1047.66,-403.37 1046.87,-410.33"/>
</g>
<!-- Node21 -->
<g id="node21" class="node">
<title>Node21</title>
<g id="a_node21"><a xlink:href="default__disease__model_8cpp.html" target="_top" xlink:title=" ">
<polygon fill="none" stroke="black" points="903.5,-335.5 903.5,-365.5 1052.5,-365.5 1052.5,-335.5 903.5,-335.5"/>
<text text-anchor="start" x="911.5" y="-353.5" font-family="Helvetica,sans-Serif" font-size="10.00">HealthGPS/default_disease</text>
<text text-anchor="middle" x="978" y="-342.5" font-family="Helvetica,sans-Serif" font-size="10.00">_model.cpp</text>
</a>
</g>
</g>
<!-- Node17&#45;&gt;Node21 -->
<g id="edge25" class="edge">
<title>Node17&#45;&gt;Node21</title>
<path fill="none" stroke="midnightblue" d="M1104.6,-403.91C1078.01,-392.91 1039.45,-376.94 1011.88,-365.53"/>
<polygon fill="midnightblue" stroke="midnightblue" points="1103.57,-407.28 1114.15,-407.87 1106.25,-400.81 1103.57,-407.28"/>
</g>
<!-- Node22 -->
<g id="node22" class="node">
<title>Node22</title>
<g id="a_node22"><a xlink:href="demographic_8h.html" target="_top" xlink:title=" ">
<polygon fill="none" stroke="black" points="741,-341 741,-360 885,-360 885,-341 741,-341"/>
<text text-anchor="middle" x="813" y="-348" font-family="Helvetica,sans-Serif" font-size="10.00">HealthGPS/demographic.h</text>
</a>
</g>
</g>
<!-- Node17&#45;&gt;Node22 -->
<g id="edge26" class="edge">
<title>Node17&#45;&gt;Node22</title>
<path fill="none" stroke="midnightblue" d="M1082.39,-405.88C1018.97,-393.08 913.66,-371.82 855.26,-360.03"/>
<polygon fill="midnightblue" stroke="midnightblue" points="1082.08,-409.39 1092.57,-407.94 1083.46,-402.53 1082.08,-409.39"/>
</g>
<!-- Node24 -->
<g id="node24" class="node">
<title>Node24</title>
<g id="a_node24"><a xlink:href="HealthGPS_2disease_8h.html" target="_top" xlink:title=" ">
<polygon fill="none" stroke="black" points="1545,-341 1545,-360 1663,-360 1663,-341 1545,-341"/>
<text text-anchor="middle" x="1604" y="-348" font-family="Helvetica,sans-Serif" font-size="10.00">HealthGPS/disease.h</text>
</a>
</g>
</g>
<!-- Node17&#45;&gt;Node24 -->
<g id="edge29" class="edge">
<title>Node17&#45;&gt;Node24</title>
<path fill="none" stroke="midnightblue" d="M1225.79,-407.29C1307.27,-398.49 1430.01,-383.94 1536,-366 1546,-364.31 1556.76,-362.16 1566.7,-360.05"/>
<polygon fill="midnightblue" stroke="midnightblue" points="1225.13,-403.84 1215.56,-408.39 1225.88,-410.8 1225.13,-403.84"/>
</g>
<!-- Node26 -->
<g id="node26" class="node">
<title>Node26</title>
<g id="a_node26"><a xlink:href="hierarchical__model__static_8cpp.html" target="_top" xlink:title=" ">
<polygon fill="none" stroke="black" points="1071,-335.5 1071,-365.5 1199,-365.5 1199,-335.5 1071,-335.5"/>
<text text-anchor="start" x="1079" y="-353.5" font-family="Helvetica,sans-Serif" font-size="10.00">HealthGPS/hierarchical</text>
<text text-anchor="middle" x="1135" y="-342.5" font-family="Helvetica,sans-Serif" font-size="10.00">_model_static.cpp</text>
</a>
</g>
</g>
<!-- Node17&#45;&gt;Node26 -->
<g id="edge34" class="edge">
<title>Node17&#45;&gt;Node26</title>
<path fill="none" stroke="midnightblue" d="M1135,-397.41C1135,-387.22 1135,-374.9 1135,-365.59"/>
<polygon fill="midnightblue" stroke="midnightblue" points="1131.5,-397.73 1135,-407.73 1138.5,-397.73 1131.5,-397.73"/>
</g>
<!-- Node27 -->
<g id="node27" class="node">
<title>Node27</title>
<g id="a_node27"><a xlink:href="riskfactor__adjustment_8h.html" target="_top" xlink:title=" ">
<polygon fill="none" stroke="black" points="443,-335.5 443,-365.5 561,-365.5 561,-335.5 443,-335.5"/>
<text text-anchor="start" x="451" y="-353.5" font-family="Helvetica,sans-Serif" font-size="10.00">HealthGPS/riskfactor</text>
<text text-anchor="middle" x="502" y="-342.5" font-family="Helvetica,sans-Serif" font-size="10.00">_adjustment.h</text>
</a>
</g>
</g>
<!-- Node17&#45;&gt;Node27 -->
<g id="edge35" class="edge">
<title>Node17&#45;&gt;Node27</title>
<path fill="none" stroke="midnightblue" d="M1043.93,-411.76C931.92,-405.15 736.2,-391.05 570,-366 567.14,-365.57 564.21,-365.09 561.26,-364.58"/>
<polygon fill="midnightblue" stroke="midnightblue" points="1043.98,-415.27 1054.17,-412.36 1044.39,-408.28 1043.98,-415.27"/>
</g>
<!-- Node29 -->
<g id="node29" class="node">
<title>Node29</title>
<g id="a_node29"><a xlink:href="runtime__context_8cpp.html" target="_top" xlink:title=" ">
<polygon fill="none" stroke="black" points="1217,-341 1217,-360 1389,-360 1389,-341 1217,-341"/>
<text text-anchor="middle" x="1303" y="-348" font-family="Helvetica,sans-Serif" font-size="10.00">HealthGPS/runtime_context.cpp</text>
</a>
</g>
</g>
<!-- Node17&#45;&gt;Node29 -->
<g id="edge38" class="edge">
<title>Node17&#45;&gt;Node29</title>
<path fill="none" stroke="midnightblue" d="M1167.04,-404.1C1200.39,-391.2 1251.75,-371.33 1280.87,-360.06"/>
<polygon fill="midnightblue" stroke="midnightblue" points="1165.37,-401 1157.31,-407.87 1167.9,-407.52 1165.37,-401"/>
</g>
<!-- Node30 -->
<g id="node30" class="node">
<title>Node30</title>
<g id="a_node30"><a xlink:href="ses__noise__module_8cpp.html" target="_top" xlink:title=" ">
<polygon fill="none" stroke="black" points="1407.5,-335.5 1407.5,-365.5 1526.5,-365.5 1526.5,-335.5 1407.5,-335.5"/>
<text text-anchor="start" x="1415.5" y="-353.5" font-family="Helvetica,sans-Serif" font-size="10.00">HealthGPS/ses_noise</text>
<text text-anchor="middle" x="1467" y="-342.5" font-family="Helvetica,sans-Serif" font-size="10.00">_module.cpp</text>
</a>
</g>
</g>
<!-- Node17&#45;&gt;Node30 -->
<g id="edge39" class="edge">
<title>Node17&#45;&gt;Node30</title>
<path fill="none" stroke="midnightblue" d="M1190.58,-406.12C1243.85,-396.1 1326.49,-380.38 1398,-366 1401,-365.4 1404.07,-364.77 1407.17,-364.14"/>
<polygon fill="midnightblue" stroke="midnightblue" points="1189.84,-402.7 1180.66,-407.98 1191.13,-409.58 1189.84,-402.7"/>
</g>
<!-- Node18&#45;&gt;Node9 -->
<g id="edge23" class="edge">
<title>Node18&#45;&gt;Node9</title>
<path fill="none" stroke="midnightblue" d="M410.12,-331.22C428.63,-322.37 450.44,-311.05 469,-299 487.28,-287.13 486.79,-276.15 507,-268 605.53,-228.26 921.92,-219.79 1056.49,-217.99"/>
<polygon fill="midnightblue" stroke="midnightblue" points="408.61,-328.06 401.05,-335.49 411.59,-334.39 408.61,-328.06"/>
</g>
<!-- Node19 -->
<g id="node19" class="node">
<title>Node19</title>
<g id="a_node19"><a xlink:href="analysis__module_8cpp.html" target="_top" xlink:title=" ">
<polygon fill="none" stroke="black" points="348,-268.5 348,-298.5 460,-298.5 460,-268.5 348,-268.5"/>
<text text-anchor="start" x="356" y="-286.5" font-family="Helvetica,sans-Serif" font-size="10.00">HealthGPS/analysis</text>
<text text-anchor="middle" x="404" y="-275.5" font-family="Helvetica,sans-Serif" font-size="10.00">_module.cpp</text>
</a>
</g>
</g>
<!-- Node18&#45;&gt;Node19 -->
<g id="edge22" class="edge">
<title>Node18&#45;&gt;Node19</title>
<path fill="none" stroke="midnightblue" d="M381.34,-326.58C386.37,-317.24 392.02,-306.75 396.42,-298.58"/>
<polygon fill="midnightblue" stroke="midnightblue" points="378.25,-324.93 376.59,-335.4 384.42,-328.25 378.25,-324.93"/>
</g>
<!-- Node22&#45;&gt;Node9 -->
<g id="edge28" class="edge">
<title>Node22&#45;&gt;Node9</title>
<path fill="none" stroke="midnightblue" d="M842.22,-336.86C899.41,-312.1 1025.75,-257.43 1085.49,-231.57"/>
<polygon fill="midnightblue" stroke="midnightblue" points="840.8,-333.66 833.01,-340.84 843.58,-340.08 840.8,-333.66"/>
</g>
<!-- Node23 -->
<g id="node23" class="node">
<title>Node23</title>
<g id="a_node23"><a xlink:href="demographic_8cpp.html" target="_top" xlink:title=" ">
<polygon fill="none" stroke="black" points="735.5,-274 735.5,-293 890.5,-293 890.5,-274 735.5,-274"/>
<text text-anchor="middle" x="813" y="-281" font-family="Helvetica,sans-Serif" font-size="10.00">HealthGPS/demographic.cpp</text>
</a>
</g>
</g>
<!-- Node22&#45;&gt;Node23 -->
<g id="edge27" class="edge">
<title>Node22&#45;&gt;Node23</title>
<path fill="none" stroke="midnightblue" d="M813,-330.54C813,-318.17 813,-302.62 813,-293.13"/>
<polygon fill="midnightblue" stroke="midnightblue" points="809.5,-330.73 813,-340.73 816.5,-330.73 809.5,-330.73"/>
</g>
<!-- Node24&#45;&gt;Node9 -->
<g id="edge31" class="edge">
<title>Node24&#45;&gt;Node9</title>
<path fill="none" stroke="midnightblue" d="M1605.33,-330.71C1605.53,-311.89 1602.56,-283.55 1585,-268 1555.24,-241.64 1299.86,-226.14 1179.84,-220.25"/>
<polygon fill="midnightblue" stroke="midnightblue" points="1601.83,-330.63 1604.91,-340.76 1608.82,-330.92 1601.83,-330.63"/>
</g>
<!-- Node25 -->
<g id="node25" class="node">
<title>Node25</title>
<g id="a_node25"><a xlink:href="disease_8cpp.html" target="_top" xlink:title=" ">
<polygon fill="none" stroke="black" points="1446.5,-274 1446.5,-293 1575.5,-293 1575.5,-274 1446.5,-274"/>
<text text-anchor="middle" x="1511" y="-281" font-family="Helvetica,sans-Serif" font-size="10.00">HealthGPS/disease.cpp</text>
</a>
</g>
</g>
<!-- Node24&#45;&gt;Node25 -->
<g id="edge30" class="edge">
<title>Node24&#45;&gt;Node25</title>
<path fill="none" stroke="midnightblue" d="M1583.14,-334.92C1564.75,-322.07 1538.59,-303.78 1523.34,-293.13"/>
<polygon fill="midnightblue" stroke="midnightblue" points="1581.26,-337.87 1591.46,-340.73 1585.27,-332.14 1581.26,-337.87"/>
</g>
<!-- Node27&#45;&gt;Node8 -->
<g id="edge36" class="edge">
<title>Node27&#45;&gt;Node8</title>
<path fill="none" stroke="midnightblue" d="M441.44,-332.75C395.48,-320.04 334.19,-303.09 297.83,-293.03"/>
<polygon fill="midnightblue" stroke="midnightblue" points="440.73,-336.18 451.3,-335.48 442.59,-329.44 440.73,-336.18"/>
</g>
<!-- Node28 -->
<g id="node28" class="node">
<title>Node28</title>
<g id="a_node28"><a xlink:href="riskfactor__adjustment_8cpp.html" target="_top" xlink:title=" ">
<polygon fill="none" stroke="black" points="516,-268.5 516,-298.5 634,-298.5 634,-268.5 516,-268.5"/>
<text text-anchor="start" x="524" y="-286.5" font-family="Helvetica,sans-Serif" font-size="10.00">HealthGPS/riskfactor</text>
<text text-anchor="middle" x="575" y="-275.5" font-family="Helvetica,sans-Serif" font-size="10.00">_adjustment.cpp</text>
</a>
</g>
</g>
<!-- Node27&#45;&gt;Node28 -->
<g id="edge37" class="edge">
<title>Node27&#45;&gt;Node28</title>
<path fill="none" stroke="midnightblue" d="M525.47,-328.6C536.5,-318.78 549.34,-307.34 559.19,-298.58"/>
<polygon fill="midnightblue" stroke="midnightblue" points="522.98,-326.13 517.84,-335.4 527.64,-331.36 522.98,-326.13"/>
</g>
<!-- Node31&#45;&gt;Node13 -->
<g id="edge73" class="edge">
<title>Node31&#45;&gt;Node13</title>
<path fill="none" stroke="midnightblue" d="M1861.47,-527.63C1874.76,-503.87 1896,-459.5 1896,-418.5 1896,-418.5 1896,-418.5 1896,-215.5 1896,-176.75 1889,-164.43 1865,-134 1850.07,-115.07 1826.09,-100.55 1809.5,-92.04"/>
<polygon fill="midnightblue" stroke="midnightblue" points="1858.32,-526.07 1856.34,-536.48 1864.38,-529.58 1858.32,-526.07"/>
</g>
<!-- Node32 -->
<g id="node32" class="node">
<title>Node32</title>
<g id="a_node32"><a xlink:href="baseline__scenario_8h.html" target="_top" xlink:title=" ">
<polygon fill="none" stroke="black" points="1924.5,-134.5 1924.5,-164.5 2037.5,-164.5 2037.5,-134.5 1924.5,-134.5"/>
<text text-anchor="start" x="1932.5" y="-152.5" font-family="Helvetica,sans-Serif" font-size="10.00">HealthGPS/baseline</text>
<text text-anchor="middle" x="1981" y="-141.5" font-family="Helvetica,sans-Serif" font-size="10.00">_scenario.h</text>
</a>
</g>
</g>
<!-- Node31&#45;&gt;Node32 -->
<g id="edge41" class="edge">
<title>Node31&#45;&gt;Node32</title>
<path fill="none" stroke="midnightblue" d="M1874.8,-530.95C1906.05,-510.5 1957,-469.35 1957,-418.5 1957,-418.5 1957,-418.5 1957,-282.5 1957,-238.94 1969.81,-188.59 1976.71,-164.61"/>
<polygon fill="midnightblue" stroke="midnightblue" points="1872.77,-528.09 1866.19,-536.39 1876.51,-534.01 1872.77,-528.09"/>
</g>
<!-- Node34 -->
<g id="node34" class="node">
<title>Node34</title>
<g id="a_node34"><a xlink:href="intervention__scenario_8h.html" target="_top" xlink:title=" ">
<polygon fill="none" stroke="black" points="2170.5,-134.5 2170.5,-164.5 2301.5,-164.5 2301.5,-134.5 2170.5,-134.5"/>
<text text-anchor="start" x="2178.5" y="-152.5" font-family="Helvetica,sans-Serif" font-size="10.00">HealthGPS/intervention</text>
<text text-anchor="middle" x="2236" y="-141.5" font-family="Helvetica,sans-Serif" font-size="10.00">_scenario.h</text>
</a>
</g>
</g>
<!-- Node31&#45;&gt;Node34 -->
<g id="edge45" class="edge">
<title>Node31&#45;&gt;Node34</title>
<path fill="none" stroke="midnightblue" d="M1897.21,-533.93C1975.78,-513.76 2127,-468.44 2127,-418.5 2127,-418.5 2127,-418.5 2127,-282.5 2127,-229.15 2180.59,-185.72 2212.62,-164.53"/>
<polygon fill="midnightblue" stroke="midnightblue" points="1895.92,-530.65 1887.08,-536.5 1897.64,-537.44 1895.92,-530.65"/>
</g>
<!-- Node47 -->
<g id="node47" class="node">
<title>Node47</title>
<g id="a_node47"><a xlink:href="simulation__definition_8h.html" target="_top" xlink:title=" ">
<polygon fill="none" stroke="black" points="1699.5,-469.5 1699.5,-499.5 1822.5,-499.5 1822.5,-469.5 1699.5,-469.5"/>
<text text-anchor="start" x="1707.5" y="-487.5" font-family="Helvetica,sans-Serif" font-size="10.00">HealthGPS/simulation</text>
<text text-anchor="middle" x="1761" y="-476.5" font-family="Helvetica,sans-Serif" font-size="10.00">_definition.h</text>
</a>
</g>
</g>
<!-- Node31&#45;&gt;Node47 -->
<g id="edge66" class="edge">
<title>Node31&#45;&gt;Node47</title>
<path fill="none" stroke="midnightblue" d="M1829.43,-530.74C1815.12,-521.28 1796.44,-508.93 1782.21,-499.52"/>
<polygon fill="midnightblue" stroke="midnightblue" points="1827.83,-533.88 1838.11,-536.48 1831.69,-528.04 1827.83,-533.88"/>
</g>
<!-- Node32&#45;&gt;Node10 -->
<g id="edge42" class="edge">
<title>Node32&#45;&gt;Node10</title>
<path fill="none" stroke="midnightblue" d="M1914.5,-138.51C1855.13,-129.23 1765.93,-114.41 1689,-98 1680.81,-96.25 1672.02,-94.14 1663.85,-92.07"/>
<polygon fill="midnightblue" stroke="midnightblue" points="1914.08,-141.99 1924.5,-140.06 1915.16,-135.07 1914.08,-141.99"/>
</g>
<!-- Node32&#45;&gt;Node14 -->
<g id="edge44" class="edge">
<title>Node32&#45;&gt;Node14</title>
<path fill="none" stroke="midnightblue" d="M2047.65,-143.05C2140.08,-134.8 2297.81,-117.98 2315,-98 2333.8,-76.14 2308.09,-41.23 2294.06,-25.14"/>
<polygon fill="midnightblue" stroke="midnightblue" points="2047.2,-139.57 2037.54,-143.94 2047.81,-146.55 2047.2,-139.57"/>
</g>
<!-- Node33 -->
<g id="node33" class="node">
<title>Node33</title>
<g id="a_node33"><a xlink:href="baseline__scenario_8cpp.html" target="_top" xlink:title=" ">
<polygon fill="none" stroke="black" points="1902.5,-67.5 1902.5,-97.5 2015.5,-97.5 2015.5,-67.5 1902.5,-67.5"/>
<text text-anchor="start" x="1910.5" y="-85.5" font-family="Helvetica,sans-Serif" font-size="10.00">HealthGPS/baseline</text>
<text text-anchor="middle" x="1959" y="-74.5" font-family="Helvetica,sans-Serif" font-size="10.00">_scenario.cpp</text>
</a>
</g>
</g>
<!-- Node32&#45;&gt;Node33 -->
<g id="edge43" class="edge">
<title>Node32&#45;&gt;Node33</title>
<path fill="none" stroke="midnightblue" d="M1972.94,-124.7C1969.86,-115.59 1966.44,-105.49 1963.76,-97.58"/>
<polygon fill="midnightblue" stroke="midnightblue" points="1969.71,-126.05 1976.23,-134.4 1976.34,-123.8 1969.71,-126.05"/>
</g>
<!-- Node34&#45;&gt;Node10 -->
<g id="edge46" class="edge">
<title>Node34&#45;&gt;Node10</title>
<path fill="none" stroke="midnightblue" d="M2160.2,-142.17C2020.9,-130.43 1734.24,-105.79 1689,-98 1680.14,-96.47 1670.64,-94.28 1661.98,-92.07"/>
<polygon fill="midnightblue" stroke="midnightblue" points="2160.12,-145.67 2170.38,-143.02 2160.7,-138.7 2160.12,-145.67"/>
</g>
<!-- Node34&#45;&gt;Node13 -->
<g id="edge65" class="edge">
<title>Node34&#45;&gt;Node13</title>
<path fill="none" stroke="midnightblue" d="M2160.43,-137.46C2072.53,-124.62 1929.31,-103.7 1849.47,-92.04"/>
<polygon fill="midnightblue" stroke="midnightblue" points="2159.94,-140.93 2170.34,-138.91 2160.95,-134 2159.94,-140.93"/>
</g>
<!-- Node35 -->
<g id="node35" class="node">
<title>Node35</title>
<g id="a_node35"><a xlink:href="fiscal__scenario_8h.html" target="_top" xlink:title=" ">
<polygon fill="none" stroke="black" points="2362,-73 2362,-92 2514,-92 2514,-73 2362,-73"/>
<text text-anchor="middle" x="2438" y="-80" font-family="Helvetica,sans-Serif" font-size="10.00">HealthGPS/fiscal_scenario.h</text>
</a>
</g>
</g>
<!-- Node34&#45;&gt;Node35 -->
<g id="edge47" class="edge">
<title>Node34&#45;&gt;Node35</title>
<path fill="none" stroke="midnightblue" d="M2289.55,-131.27C2328.91,-118.6 2380.71,-101.93 2411.56,-92.01"/>
<polygon fill="midnightblue" stroke="midnightblue" points="2288.28,-128 2279.83,-134.4 2290.42,-134.66 2288.28,-128"/>
</g>
<!-- Node37 -->
<g id="node37" class="node">
<title>Node37</title>
<g id="a_node37"><a xlink:href="food__labelling__scenario_8h.html" target="_top" xlink:title=" ">
<polygon fill="none" stroke="black" points="2532,-67.5 2532,-97.5 2672,-97.5 2672,-67.5 2532,-67.5"/>
<text text-anchor="start" x="2540" y="-85.5" font-family="Helvetica,sans-Serif" font-size="10.00">HealthGPS/food_labelling</text>
<text text-anchor="middle" x="2602" y="-74.5" font-family="Helvetica,sans-Serif" font-size="10.00">_scenario.h</text>
</a>
</g>
</g>
<!-- Node34&#45;&gt;Node37 -->
<g id="edge50" class="edge">
<title>Node34&#45;&gt;Node37</title>
<path fill="none" stroke="midnightblue" d="M2311.73,-135.33C2369.61,-125.23 2451.37,-110.88 2523,-98 2525.88,-97.48 2528.82,-96.95 2531.79,-96.41"/>
<polygon fill="midnightblue" stroke="midnightblue" points="2310.82,-131.94 2301.57,-137.1 2312.02,-138.83 2310.82,-131.94"/>
</g>
<!-- Node39 -->
<g id="node39" class="node">
<title>Node39</title>
<g id="a_node39"><a xlink:href="marketing__dynamic__scenario_8h.html" target="_top" xlink:title=" ">
<polygon fill="none" stroke="black" points="2690.5,-67.5 2690.5,-97.5 2811.5,-97.5 2811.5,-67.5 2690.5,-67.5"/>
<text text-anchor="start" x="2698.5" y="-85.5" font-family="Helvetica,sans-Serif" font-size="10.00">HealthGPS/marketing</text>
<text text-anchor="middle" x="2751" y="-74.5" font-family="Helvetica,sans-Serif" font-size="10.00">_dynamic_scenario.h</text>
</a>
</g>
</g>
<!-- Node34&#45;&gt;Node39 -->
<g id="edge53" class="edge">
<title>Node34&#45;&gt;Node39</title>
<path fill="none" stroke="midnightblue" d="M2311.84,-142.02C2400.63,-133.94 2552,-118.64 2681,-98 2684.06,-97.51 2687.2,-96.98 2690.36,-96.41"/>
<polygon fill="midnightblue" stroke="midnightblue" points="2311.5,-138.53 2301.85,-142.92 2312.13,-145.51 2311.5,-138.53"/>
</g>
<!-- Node41 -->
<g id="node41" class="node">
<title>Node41</title>
<g id="a_node41"><a xlink:href="marketing__scenario_8h.html" target="_top" xlink:title=" ">
<polygon fill="none" stroke="black" points="2829.5,-67.5 2829.5,-97.5 2950.5,-97.5 2950.5,-67.5 2829.5,-67.5"/>
<text text-anchor="start" x="2837.5" y="-85.5" font-family="Helvetica,sans-Serif" font-size="10.00">HealthGPS/marketing</text>
<text text-anchor="middle" x="2890" y="-74.5" font-family="Helvetica,sans-Serif" font-size="10.00">_scenario.h</text>
</a>
</g>
</g>
<!-- Node34&#45;&gt;Node41 -->
<g id="edge56" class="edge">
<title>Node34&#45;&gt;Node41</title>
<path fill="none" stroke="midnightblue" d="M2311.83,-144.89C2423.7,-138.9 2639.35,-124.83 2821,-98 2823.79,-97.59 2826.63,-97.13 2829.49,-96.65"/>
<polygon fill="midnightblue" stroke="midnightblue" points="2311.46,-141.41 2301.66,-145.43 2311.83,-148.4 2311.46,-141.41"/>
</g>
<!-- Node43 -->
<g id="node43" class="node">
<title>Node43</title>
<g id="a_node43"><a xlink:href="physical__activity__scenario_8h.html" target="_top" xlink:title=" ">
<polygon fill="none" stroke="black" points="2034,-67.5 2034,-97.5 2148,-97.5 2148,-67.5 2034,-67.5"/>
<text text-anchor="start" x="2042" y="-85.5" font-family="Helvetica,sans-Serif" font-size="10.00">HealthGPS/physical</text>
<text text-anchor="middle" x="2091" y="-74.5" font-family="Helvetica,sans-Serif" font-size="10.00">_activity_scenario.h</text>
</a>
</g>
</g>
<!-- Node34&#45;&gt;Node43 -->
<g id="edge59" class="edge">
<title>Node34&#45;&gt;Node43</title>
<path fill="none" stroke="midnightblue" d="M2195.33,-130.27C2172.24,-119.92 2143.76,-107.15 2122.4,-97.58"/>
<polygon fill="midnightblue" stroke="midnightblue" points="2193.98,-133.5 2204.54,-134.4 2196.84,-127.11 2193.98,-133.5"/>
</g>
<!-- Node45 -->
<g id="node45" class="node">
<title>Node45</title>
<g id="a_node45"><a xlink:href="simple__policy__scenario_8h.html" target="_top" xlink:title=" ">
<polygon fill="none" stroke="black" points="2166.5,-67.5 2166.5,-97.5 2305.5,-97.5 2305.5,-67.5 2166.5,-67.5"/>
<text text-anchor="start" x="2174.5" y="-85.5" font-family="Helvetica,sans-Serif" font-size="10.00">HealthGPS/simple_policy</text>
<text text-anchor="middle" x="2236" y="-74.5" font-family="Helvetica,sans-Serif" font-size="10.00">_scenario.h</text>
</a>
</g>
</g>
<!-- Node34&#45;&gt;Node45 -->
<g id="edge62" class="edge">
<title>Node34&#45;&gt;Node45</title>
<path fill="none" stroke="midnightblue" d="M2236,-124.11C2236,-115.15 2236,-105.32 2236,-97.58"/>
<polygon fill="midnightblue" stroke="midnightblue" points="2232.5,-124.4 2236,-134.4 2239.5,-124.4 2232.5,-124.4"/>
</g>
<!-- Node35&#45;&gt;Node14 -->
<g id="edge49" class="edge">
<title>Node35&#45;&gt;Node14</title>
<path fill="none" stroke="midnightblue" d="M2408.26,-68.78C2378.16,-55.91 2332.43,-36.35 2306.27,-25.17"/>
<polygon fill="midnightblue" stroke="midnightblue" points="2407.24,-72.15 2417.82,-72.87 2410,-65.72 2407.24,-72.15"/>
</g>
<!-- Node36 -->
<g id="node36" class="node">
<title>Node36</title>
<g id="a_node36"><a xlink:href="fiscal__scenario_8cpp.html" target="_top" xlink:title=" ">
<polygon fill="none" stroke="black" points="2403,-6 2403,-25 2567,-25 2567,-6 2403,-6"/>
<text text-anchor="middle" x="2485" y="-13" font-family="Helvetica,sans-Serif" font-size="10.00">HealthGPS/fiscal_scenario.cpp</text>
</a>
</g>
</g>
<!-- Node35&#45;&gt;Node36 -->
<g id="edge48" class="edge">
<title>Node35&#45;&gt;Node36</title>
<path fill="none" stroke="midnightblue" d="M2450.36,-64.4C2459.49,-51.77 2471.55,-35.1 2478.76,-25.13"/>
<polygon fill="midnightblue" stroke="midnightblue" points="2447.36,-62.58 2444.34,-72.73 2453.03,-66.68 2447.36,-62.58"/>
</g>
<!-- Node37&#45;&gt;Node14 -->
<g id="edge52" class="edge">
<title>Node37&#45;&gt;Node14</title>
<path fill="none" stroke="midnightblue" d="M2523.66,-65.39C2461.54,-52.61 2377.17,-35.25 2327.46,-25.03"/>
<polygon fill="midnightblue" stroke="midnightblue" points="2523.32,-68.89 2533.82,-67.48 2524.73,-62.03 2523.32,-68.89"/>
</g>
<!-- Node38 -->
<g id="node38" class="node">
<title>Node38</title>
<g id="a_node38"><a xlink:href="food__labelling__scenario_8cpp.html" target="_top" xlink:title=" ">
<polygon fill="none" stroke="black" points="2585,-0.5 2585,-30.5 2725,-30.5 2725,-0.5 2585,-0.5"/>
<text text-anchor="start" x="2593" y="-18.5" font-family="Helvetica,sans-Serif" font-size="10.00">HealthGPS/food_labelling</text>
<text text-anchor="middle" x="2655" y="-7.5" font-family="Helvetica,sans-Serif" font-size="10.00">_scenario.cpp</text>
</a>
</g>
</g>
<!-- Node37&#45;&gt;Node38 -->
<g id="edge51" class="edge">
<title>Node37&#45;&gt;Node38</title>
<path fill="none" stroke="midnightblue" d="M2619.98,-59.45C2627.77,-49.9 2636.65,-39 2643.52,-30.58"/>
<polygon fill="midnightblue" stroke="midnightblue" points="2617.11,-57.43 2613.5,-67.4 2622.53,-61.86 2617.11,-57.43"/>
</g>
<!-- Node39&#45;&gt;Node14 -->
<g id="edge55" class="edge">
<title>Node39&#45;&gt;Node14</title>
<path fill="none" stroke="midnightblue" d="M2680.17,-66.95C2552.46,-46.02 2518.25,-47.13 2394,-31 2379.37,-29.1 2363.62,-27.01 2348.81,-25.03"/>
<polygon fill="midnightblue" stroke="midnightblue" points="2679.91,-70.45 2690.35,-68.63 2681.05,-63.55 2679.91,-70.45"/>
</g>
<!-- Node40 -->
<g id="node40" class="node">
<title>Node40</title>
<g id="a_node40"><a xlink:href="marketing__dynamic__scenario_8cpp.html" target="_top" xlink:title=" ">
<polygon fill="none" stroke="black" points="2743.5,-0.5 2743.5,-30.5 2874.5,-30.5 2874.5,-0.5 2743.5,-0.5"/>
<text text-anchor="start" x="2751.5" y="-18.5" font-family="Helvetica,sans-Serif" font-size="10.00">HealthGPS/marketing</text>
<text text-anchor="middle" x="2809" y="-7.5" font-family="Helvetica,sans-Serif" font-size="10.00">_dynamic_scenario.cpp</text>
</a>
</g>
</g>
<!-- Node39&#45;&gt;Node40 -->
<g id="edge54" class="edge">
<title>Node39&#45;&gt;Node40</title>
<path fill="none" stroke="midnightblue" d="M2770.42,-59.74C2779,-50.12 2788.84,-39.09 2796.44,-30.58"/>
<polygon fill="midnightblue" stroke="midnightblue" points="2767.63,-57.6 2763.59,-67.4 2772.85,-62.26 2767.63,-57.6"/>
</g>
<!-- Node41&#45;&gt;Node14 -->
<g id="edge58" class="edge">
<title>Node41&#45;&gt;Node14</title>
<path fill="none" stroke="midnightblue" d="M2819.52,-66.9C2630.84,-39.78 2580.09,-51.32 2394,-31 2378.2,-29.27 2361.14,-27.12 2345.35,-25"/>
<polygon fill="midnightblue" stroke="midnightblue" points="2819.09,-70.37 2829.49,-68.35 2820.1,-63.44 2819.09,-70.37"/>
</g>
<!-- Node42 -->
<g id="node42" class="node">
<title>Node42</title>
<g id="a_node42"><a xlink:href="marketing__scenario_8cpp.html" target="_top" xlink:title=" ">
<polygon fill="none" stroke="black" points="2892.5,-0.5 2892.5,-30.5 3013.5,-30.5 3013.5,-0.5 2892.5,-0.5"/>
<text text-anchor="start" x="2900.5" y="-18.5" font-family="Helvetica,sans-Serif" font-size="10.00">HealthGPS/marketing</text>
<text text-anchor="middle" x="2953" y="-7.5" font-family="Helvetica,sans-Serif" font-size="10.00">_scenario.cpp</text>
</a>
</g>
</g>
<!-- Node41&#45;&gt;Node42 -->
<g id="edge57" class="edge">
<title>Node41&#45;&gt;Node42</title>
<path fill="none" stroke="midnightblue" d="M2910.81,-60.02C2920.2,-50.34 2931.02,-39.17 2939.36,-30.58"/>
<polygon fill="midnightblue" stroke="midnightblue" points="2908.12,-57.78 2903.67,-67.4 2913.14,-62.65 2908.12,-57.78"/>
</g>
<!-- Node43&#45;&gt;Node14 -->
<g id="edge61" class="edge">
<title>Node43&#45;&gt;Node14</title>
<path fill="none" stroke="midnightblue" d="M2143.18,-64.11C2181.11,-51.46 2230.82,-34.89 2260.48,-25.01"/>
<polygon fill="midnightblue" stroke="midnightblue" points="2141.69,-60.91 2133.31,-67.4 2143.91,-67.55 2141.69,-60.91"/>
</g>
<!-- Node44 -->
<g id="node44" class="node">
<title>Node44</title>
<g id="a_node44"><a xlink:href="physical__activity__scenario_8cpp.html" target="_top" xlink:title=" ">
<polygon fill="none" stroke="black" points="1887.5,-0.5 1887.5,-30.5 2012.5,-30.5 2012.5,-0.5 1887.5,-0.5"/>
<text text-anchor="start" x="1895.5" y="-18.5" font-family="Helvetica,sans-Serif" font-size="10.00">HealthGPS/physical</text>
<text text-anchor="middle" x="1950" y="-7.5" font-family="Helvetica,sans-Serif" font-size="10.00">_activity_scenario.cpp</text>
</a>
</g>
</g>
<!-- Node43&#45;&gt;Node44 -->
<g id="edge60" class="edge">
<title>Node43&#45;&gt;Node44</title>
<path fill="none" stroke="midnightblue" d="M2051.15,-63.13C2028.75,-52.8 2001.22,-40.11 1980.54,-30.58"/>
<polygon fill="midnightblue" stroke="midnightblue" points="2049.86,-66.39 2060.41,-67.4 2052.79,-60.03 2049.86,-66.39"/>
</g>
<!-- Node45&#45;&gt;Node14 -->
<g id="edge64" class="edge">
<title>Node45&#45;&gt;Node14</title>
<path fill="none" stroke="midnightblue" d="M2253.06,-59.32C2262.08,-47.6 2272.63,-33.88 2279.31,-25.19"/>
<polygon fill="midnightblue" stroke="midnightblue" points="2250.17,-57.34 2246.85,-67.4 2255.72,-61.6 2250.17,-57.34"/>
</g>
<!-- Node46 -->
<g id="node46" class="node">
<title>Node46</title>
<g id="a_node46"><a xlink:href="simple__policy__scenario_8cpp.html" target="_top" xlink:title=" ">
<polygon fill="none" stroke="black" points="2030.5,-0.5 2030.5,-30.5 2169.5,-30.5 2169.5,-0.5 2030.5,-0.5"/>
<text text-anchor="start" x="2038.5" y="-18.5" font-family="Helvetica,sans-Serif" font-size="10.00">HealthGPS/simple_policy</text>
<text text-anchor="middle" x="2100" y="-7.5" font-family="Helvetica,sans-Serif" font-size="10.00">_scenario.cpp</text>
</a>
</g>
</g>
<!-- Node45&#45;&gt;Node46 -->
<g id="edge63" class="edge">
<title>Node45&#45;&gt;Node46</title>
<path fill="none" stroke="midnightblue" d="M2197.28,-62.99C2175.72,-52.69 2149.31,-40.07 2129.45,-30.58"/>
<polygon fill="midnightblue" stroke="midnightblue" points="2195.96,-66.24 2206.49,-67.4 2198.98,-59.93 2195.96,-66.24"/>
</g>
<!-- Node47&#45;&gt;Node17 -->
<g id="edge67" class="edge">
<title>Node47&#45;&gt;Node17</title>
<path fill="none" stroke="midnightblue" d="M1689.28,-476.05C1571.69,-463.84 1338.68,-439.65 1215.57,-426.87"/>
<polygon fill="midnightblue" stroke="midnightblue" points="1688.96,-479.54 1699.26,-477.09 1689.68,-472.58 1688.96,-479.54"/>
</g>
<!-- Node48 -->
<g id="node48" class="node">
<title>Node48</title>
<g id="a_node48"><a xlink:href="simulation_8h.html" target="_top" xlink:title=" ">
<polygon fill="none" stroke="black" points="1719,-207 1719,-226 1851,-226 1851,-207 1719,-207"/>
<text text-anchor="middle" x="1785" y="-214" font-family="Helvetica,sans-Serif" font-size="10.00">HealthGPS/simulation.h</text>
</a>
</g>
</g>
<!-- Node47&#45;&gt;Node48 -->
<g id="edge68" class="edge">
<title>Node47&#45;&gt;Node48</title>
<path fill="none" stroke="midnightblue" d="M1746.79,-460.41C1742.43,-452.08 1738.2,-442.41 1736,-433 1732.86,-419.58 1734.22,-415.66 1736,-402 1745.05,-332.66 1772.47,-252.28 1781.83,-226.17"/>
<polygon fill="midnightblue" stroke="midnightblue" points="1743.74,-462.13 1751.67,-469.15 1749.85,-458.72 1743.74,-462.13"/>
</g>
<!-- Node51 -->
<g id="node50" class="node">
<title>Node51</title>
<g id="a_node50"><a xlink:href="simulation__definition_8cpp.html" target="_top" xlink:title=" ">
<polygon fill="none" stroke="black" points="1744.5,-402.5 1744.5,-432.5 1867.5,-432.5 1867.5,-402.5 1744.5,-402.5"/>
<text text-anchor="start" x="1752.5" y="-420.5" font-family="Helvetica,sans-Serif" font-size="10.00">HealthGPS/simulation</text>
<text text-anchor="middle" x="1806" y="-409.5" font-family="Helvetica,sans-Serif" font-size="10.00">_definition.cpp</text>
</a>
</g>
</g>
<!-- Node47&#45;&gt;Node51 -->
<g id="edge72" class="edge">
<title>Node47&#45;&gt;Node51</title>
<path fill="none" stroke="midnightblue" d="M1776.47,-461.16C1783.03,-451.68 1790.48,-440.92 1796.25,-432.58"/>
<polygon fill="midnightblue" stroke="midnightblue" points="1773.58,-459.18 1770.76,-469.4 1779.33,-463.17 1773.58,-459.18"/>
</g>
<!-- Node48&#45;&gt;Node12 -->
<g id="edge69" class="edge">
<title>Node48&#45;&gt;Node12</title>
<path fill="none" stroke="midnightblue" d="M1755.46,-202.95C1725.16,-190.08 1678.85,-170.4 1652.4,-159.17"/>
<polygon fill="midnightblue" stroke="midnightblue" points="1754.11,-206.18 1764.68,-206.87 1756.85,-199.74 1754.11,-206.18"/>
</g>
<!-- Node49 -->
<g id="node49" class="node">
<title>Node49</title>
<g id="a_node49"><a xlink:href="modelrunner_8h.html" target="_top" xlink:title=" ">
<polygon fill="none" stroke="red" points="1714,-140 1714,-159 1856,-159 1856,-140 1714,-140"/>
<text text-anchor="middle" x="1785" y="-147" font-family="Helvetica,sans-Serif" font-size="10.00">HealthGPS/modelrunner.h</text>
</a>
</g>
</g>
<!-- Node48&#45;&gt;Node49 -->
<g id="edge70" class="edge">
<title>Node48&#45;&gt;Node49</title>
<path fill="none" stroke="midnightblue" d="M1785,-196.54C1785,-184.17 1785,-168.62 1785,-159.13"/>
<polygon fill="midnightblue" stroke="midnightblue" points="1781.5,-196.73 1785,-206.73 1788.5,-196.73 1781.5,-196.73"/>
</g>
<!-- Node49&#45;&gt;Node10 -->
<g id="edge71" class="edge">
<title>Node49&#45;&gt;Node10</title>
<path fill="none" stroke="midnightblue" d="M1755.46,-135.95C1725.16,-123.08 1678.85,-103.4 1652.4,-92.17"/>
<polygon fill="midnightblue" stroke="midnightblue" points="1754.11,-139.18 1764.68,-139.87 1756.85,-132.74 1754.11,-139.18"/>
</g>
</g>
</svg>
