<?xml version="1.0" encoding="UTF-8" standalone="no"?>
<!DOCTYPE svg PUBLIC "-//W3C//DTD SVG 1.1//EN"
 "http://www.w3.org/Graphics/SVG/1.1/DTD/svg11.dtd">
<!-- Generated by graphviz version 7.0.6 (20230106.0513)
 -->
<!-- Title: HealthGPS/random_algorithm.cpp Pages: 1 -->
<svg width="472pt" height="192pt"
 viewBox="0.00 0.00 471.50 192.00" xmlns="http://www.w3.org/2000/svg" xmlns:xlink="http://www.w3.org/1999/xlink">
<g id="graph0" class="graph" transform="scale(1 1) rotate(0) translate(4 188)">
<title>HealthGPS/random_algorithm.cpp</title>
<!-- Node1 -->
<g id="node1" class="node">
<title>Node1</title>
<g id="a_node1"><a xlink:title=" ">
<polygon fill="#999999" stroke="#666666" points="354.5,-184 190.5,-184 190.5,-165 354.5,-165 354.5,-184"/>
<text text-anchor="middle" x="272.5" y="-172" font-family="Helvetica,sans-Serif" font-size="10.00">HealthGPS/random_algorithm.cpp</text>
</a>
</g>
</g>
<!-- Node2 -->
<g id="node2" class="node">
<title>Node2</title>
<g id="a_node2"><a xlink:href="random__algorithm_8h.html" target="_top" xlink:title=" ">
<polygon fill="white" stroke="#666666" points="159.5,-129 57.5,-129 57.5,-110 159.5,-110 159.5,-129"/>
<text text-anchor="middle" x="108.5" y="-117" font-family="Helvetica,sans-Serif" font-size="10.00">random_algorithm.h</text>
</a>
</g>
</g>
<!-- Node1&#45;&gt;Node2 -->
<g id="edge1" class="edge">
<title>Node1&#45;&gt;Node2</title>
<path fill="none" stroke="#63b8ff" d="M244.68,-164.51C217.86,-155.84 177.04,-142.65 147.08,-132.97"/>
<polygon fill="#63b8ff" stroke="#63b8ff" points="148.21,-129.66 137.62,-129.91 146.06,-136.32 148.21,-129.66"/>
</g>
<!-- Node7 -->
<g id="node7" class="node">
<title>Node7</title>
<g id="a_node7"><a xlink:title=" ">
<polygon fill="#e0e0e0" stroke="#999999" points="227,-129 178,-129 178,-110 227,-110 227,-129"/>
<text text-anchor="middle" x="202.5" y="-117" font-family="Helvetica,sans-Serif" font-size="10.00">random</text>
</a>
</g>
</g>
<!-- Node1&#45;&gt;Node7 -->
<g id="edge6" class="edge">
<title>Node1&#45;&gt;Node7</title>
<path fill="none" stroke="#63b8ff" d="M260.63,-164.51C250.41,-156.77 235.43,-145.43 223.24,-136.2"/>
<polygon fill="#63b8ff" stroke="#63b8ff" points="225.49,-133.52 215.41,-130.27 221.27,-139.1 225.49,-133.52"/>
</g>
<!-- Node8 -->
<g id="node8" class="node">
<title>Node8</title>
<g id="a_node8"><a xlink:title=" ">
<polygon fill="#e0e0e0" stroke="#999999" points="299.5,-129 245.5,-129 245.5,-110 299.5,-110 299.5,-129"/>
<text text-anchor="middle" x="272.5" y="-117" font-family="Helvetica,sans-Serif" font-size="10.00">numbers</text>
</a>
</g>
</g>
<!-- Node1&#45;&gt;Node8 -->
<g id="edge7" class="edge">
<title>Node1&#45;&gt;Node8</title>
<path fill="none" stroke="#63b8ff" d="M272.5,-164.75C272.5,-158.27 272.5,-149.16 272.5,-140.9"/>
<polygon fill="#63b8ff" stroke="#63b8ff" points="276,-140.96 272.5,-130.96 269,-140.96 276,-140.96"/>
</g>
<!-- Node9 -->
<g id="node9" class="node">
<title>Node9</title>
<g id="a_node9"><a xlink:title=" ">
<polygon fill="#e0e0e0" stroke="#999999" points="377,-129 318,-129 318,-110 377,-110 377,-129"/>
<text text-anchor="middle" x="347.5" y="-117" font-family="Helvetica,sans-Serif" font-size="10.00">stdexcept</text>
</a>
</g>
</g>
<!-- Node1&#45;&gt;Node9 -->
<g id="edge8" class="edge">
<title>Node1&#45;&gt;Node9</title>
<path fill="none" stroke="#63b8ff" d="M285.22,-164.51C296.28,-156.7 312.54,-145.21 325.67,-135.93"/>
<polygon fill="#63b8ff" stroke="#63b8ff" points="327.58,-138.86 333.73,-130.23 323.54,-133.14 327.58,-138.86"/>
</g>
<!-- Node10 -->
<g id="node10" class="node">
<title>Node10</title>
<g id="a_node10"><a xlink:title=" ">
<polygon fill="#e0e0e0" stroke="#999999" points="463.5,-129 395.5,-129 395.5,-110 463.5,-110 463.5,-129"/>
<text text-anchor="middle" x="429.5" y="-117" font-family="Helvetica,sans-Serif" font-size="10.00">fmt/format.h</text>
</a>
</g>
</g>
<!-- Node1&#45;&gt;Node10 -->
<g id="edge9" class="edge">
<title>Node1&#45;&gt;Node10</title>
<path fill="none" stroke="#63b8ff" d="M299.13,-164.51C324.7,-155.88 363.55,-142.76 392.19,-133.1"/>
<polygon fill="#63b8ff" stroke="#63b8ff" points="393.21,-136.45 401.56,-129.93 390.97,-129.81 393.21,-136.45"/>
</g>
<!-- Node3 -->
<g id="node3" class="node">
<title>Node3</title>
<g id="a_node3"><a xlink:href="randombit__generator_8h.html" target="_top" xlink:title=" ">
<polygon fill="white" stroke="#666666" points="113,-74 0,-74 0,-55 113,-55 113,-74"/>
<text text-anchor="middle" x="56.5" y="-62" font-family="Helvetica,sans-Serif" font-size="10.00">randombit_generator.h</text>
</a>
</g>
</g>
<!-- Node2&#45;&gt;Node3 -->
<g id="edge2" class="edge">
<title>Node2&#45;&gt;Node3</title>
<path fill="none" stroke="#63b8ff" d="M99.91,-109.75C92.66,-102.35 82.05,-91.54 73.13,-82.45"/>
<polygon fill="#63b8ff" stroke="#63b8ff" points="75.84,-80.21 66.33,-75.52 70.84,-85.11 75.84,-80.21"/>
</g>
<!-- Node6 -->
<g id="node6" class="node">
<title>Node6</title>
<g id="a_node6"><a xlink:title=" ">
<polygon fill="#e0e0e0" stroke="#999999" points="189.5,-74 131.5,-74 131.5,-55 189.5,-55 189.5,-74"/>
<text text-anchor="middle" x="160.5" y="-62" font-family="Helvetica,sans-Serif" font-size="10.00">functional</text>
</a>
</g>
</g>
<!-- Node2&#45;&gt;Node6 -->
<g id="edge5" class="edge">
<title>Node2&#45;&gt;Node6</title>
<path fill="none" stroke="#63b8ff" d="M117.09,-109.75C124.34,-102.35 134.95,-91.54 143.87,-82.45"/>
<polygon fill="#63b8ff" stroke="#63b8ff" points="146.16,-85.11 150.67,-75.52 141.16,-80.21 146.16,-85.11"/>
</g>
<!-- Node4 -->
<g id="node4" class="node">
<title>Node4</title>
<g id="a_node4"><a xlink:title=" ">
<polygon fill="#e0e0e0" stroke="#999999" points="47.5,-19 7.5,-19 7.5,0 47.5,0 47.5,-19"/>
<text text-anchor="middle" x="27.5" y="-7" font-family="Helvetica,sans-Serif" font-size="10.00">limits</text>
</a>
</g>
</g>
<!-- Node3&#45;&gt;Node4 -->
<g id="edge3" class="edge">
<title>Node3&#45;&gt;Node4</title>
<path fill="none" stroke="#63b8ff" d="M51.71,-54.75C47.96,-47.88 42.59,-38.08 37.87,-29.45"/>
<polygon fill="#63b8ff" stroke="#63b8ff" points="40.99,-27.86 33.12,-20.77 34.85,-31.22 40.99,-27.86"/>
</g>
<!-- Node5 -->
<g id="node5" class="node">
<title>Node5</title>
<g id="a_node5"><a xlink:title=" ">
<polygon fill="#e0e0e0" stroke="#999999" points="107.5,-19 65.5,-19 65.5,0 107.5,0 107.5,-19"/>
<text text-anchor="middle" x="86.5" y="-7" font-family="Helvetica,sans-Serif" font-size="10.00">vector</text>
</a>
</g>
</g>
<!-- Node3&#45;&gt;Node5 -->
<g id="edge4" class="edge">
<title>Node3&#45;&gt;Node5</title>
<path fill="none" stroke="#63b8ff" d="M61.45,-54.75C65.34,-47.88 70.89,-38.08 75.78,-29.45"/>
<polygon fill="#63b8ff" stroke="#63b8ff" points="78.81,-31.19 80.69,-20.76 72.72,-27.74 78.81,-31.19"/>
</g>
</g>
</svg>
