<?xml version="1.0" encoding="UTF-8" standalone="no"?>
<!DOCTYPE svg PUBLIC "-//W3C//DTD SVG 1.1//EN"
 "http://www.w3.org/Graphics/SVG/1.1/DTD/svg11.dtd">
<!-- Generated by graphviz version 7.0.6 (20230106.0513)
 -->
<!-- Title: HealthGPS/relative_risk.h Pages: 1 -->
<svg width="1811pt" height="478pt"
 viewBox="0.00 0.00 1810.54 478.00" xmlns="http://www.w3.org/2000/svg" xmlns:xlink="http://www.w3.org/1999/xlink">
<g id="graph0" class="graph" transform="scale(1 1) rotate(0) translate(4 474)">
<title>HealthGPS/relative_risk.h</title>
<!-- Node1 -->
<g id="node1" class="node">
<title>Node1</title>
<g id="a_node1"><a xlink:title=" ">
<polygon fill="#999999" stroke="#666666" points="467.04,-470 369.04,-470 369.04,-440 467.04,-440 467.04,-470"/>
<text text-anchor="start" x="377.04" y="-458" font-family="Helvetica,sans-Serif" font-size="10.00">HealthGPS/relative</text>
<text text-anchor="middle" x="418.04" y="-447" font-family="Helvetica,sans-Serif" font-size="10.00">_risk.h</text>
</a>
</g>
</g>
<!-- Node2 -->
<g id="node2" class="node">
<title>Node2</title>
<g id="a_node2"><a xlink:href="converter_8h.html" target="_top" xlink:title=" ">
<polygon fill="white" stroke="#666666" points="181.04,-332.5 65.04,-332.5 65.04,-313.5 181.04,-313.5 181.04,-332.5"/>
<text text-anchor="middle" x="123.04" y="-320.5" font-family="Helvetica,sans-Serif" font-size="10.00">HealthGPS/converter.h</text>
</a>
</g>
</g>
<!-- Node1&#45;&gt;Node2 -->
<g id="edge1" class="edge">
<title>Node1&#45;&gt;Node2</title>
<path fill="none" stroke="#63b8ff" d="M375.08,-435.07C310.43,-406.58 190.63,-353.79 143.17,-332.87"/>
<polygon fill="#63b8ff" stroke="#63b8ff" points="373.4,-438.15 383.96,-438.98 376.22,-431.75 373.4,-438.15"/>
</g>
<!-- Node8 -->
<g id="node8" class="node">
<title>Node8</title>
<g id="a_node8"><a xlink:href="disease__definition_8h.html" target="_top" xlink:title=" ">
<polygon fill="white" stroke="#666666" points="495.04,-398.5 341.04,-398.5 341.04,-379.5 495.04,-379.5 495.04,-398.5"/>
<text text-anchor="middle" x="418.04" y="-386.5" font-family="Helvetica,sans-Serif" font-size="10.00">HealthGPS/disease_definition.h</text>
</a>
</g>
</g>
<!-- Node1&#45;&gt;Node8 -->
<g id="edge7" class="edge">
<title>Node1&#45;&gt;Node8</title>
<path fill="none" stroke="#63b8ff" d="M418.04,-428.59C418.04,-418.06 418.04,-406.53 418.04,-398.84"/>
<polygon fill="#63b8ff" stroke="#63b8ff" points="414.54,-428.28 418.04,-438.28 421.54,-428.28 414.54,-428.28"/>
</g>
<!-- Node34 -->
<g id="node34" class="node">
<title>Node34</title>
<g id="a_node34"><a xlink:href="relative__risk_8cpp.html" target="_top" xlink:title=" ">
<polygon fill="white" stroke="#666666" points="611.04,-404 513.04,-404 513.04,-374 611.04,-374 611.04,-404"/>
<text text-anchor="start" x="521.04" y="-392" font-family="Helvetica,sans-Serif" font-size="10.00">HealthGPS/relative</text>
<text text-anchor="middle" x="562.04" y="-381" font-family="Helvetica,sans-Serif" font-size="10.00">_risk.cpp</text>
</a>
</g>
</g>
<!-- Node1&#45;&gt;Node34 -->
<g id="edge49" class="edge">
<title>Node1&#45;&gt;Node34</title>
<path fill="none" stroke="#63b8ff" d="M460.81,-434.99C482.93,-425.16 509.47,-413.36 529.83,-404.31"/>
<polygon fill="#63b8ff" stroke="#63b8ff" points="459.46,-431.76 451.74,-439.02 462.3,-438.16 459.46,-431.76"/>
</g>
<!-- Node3 -->
<g id="node3" class="node">
<title>Node3</title>
<g id="a_node3"><a xlink:href="analysis__module_8cpp.html" target="_top" xlink:title=" ">
<polygon fill="white" stroke="#666666" points="173.04,-206 69.04,-206 69.04,-176 173.04,-176 173.04,-206"/>
<text text-anchor="start" x="77.04" y="-194" font-family="Helvetica,sans-Serif" font-size="10.00">HealthGPS/analysis</text>
<text text-anchor="middle" x="121.04" y="-183" font-family="Helvetica,sans-Serif" font-size="10.00">_module.cpp</text>
</a>
</g>
</g>
<!-- Node2&#45;&gt;Node3 -->
<g id="edge2" class="edge">
<title>Node2&#45;&gt;Node3</title>
<path fill="none" stroke="#63b8ff" d="M69.08,-309.32C49.55,-301.85 29.5,-290.15 18.04,-272 10.92,-260.73 10.96,-253.3 18.04,-242 29.38,-223.89 49.36,-212.17 68.72,-204.67"/>
<polygon fill="#63b8ff" stroke="#63b8ff" points="67.79,-312.58 78.39,-312.56 70.09,-305.97 67.79,-312.58"/>
</g>
<!-- Node4 -->
<g id="node4" class="node">
<title>Node4</title>
<g id="a_node4"><a xlink:href="converter_8cpp.html" target="_top" xlink:title=" ">
<polygon fill="white" stroke="#666666" points="186.04,-266.5 60.04,-266.5 60.04,-247.5 186.04,-247.5 186.04,-266.5"/>
<text text-anchor="middle" x="123.04" y="-254.5" font-family="Helvetica,sans-Serif" font-size="10.00">HealthGPS/converter.cpp</text>
</a>
</g>
</g>
<!-- Node2&#45;&gt;Node4 -->
<g id="edge3" class="edge">
<title>Node2&#45;&gt;Node4</title>
<path fill="none" stroke="#63b8ff" d="M123.04,-301.68C123.04,-289.94 123.04,-275.77 123.04,-266.82"/>
<polygon fill="#63b8ff" stroke="#63b8ff" points="119.54,-301.59 123.04,-311.59 126.54,-301.59 119.54,-301.59"/>
</g>
<!-- Node5 -->
<g id="node5" class="node">
<title>Node5</title>
<g id="a_node5"><a xlink:href="demographic_8cpp.html" target="_top" xlink:title=" ">
<polygon fill="white" stroke="#666666" points="671.54,-200.5 528.54,-200.5 528.54,-181.5 671.54,-181.5 671.54,-200.5"/>
<text text-anchor="middle" x="600.04" y="-188.5" font-family="Helvetica,sans-Serif" font-size="10.00">HealthGPS/demographic.cpp</text>
</a>
</g>
</g>
<!-- Node2&#45;&gt;Node5 -->
<g id="edge4" class="edge">
<title>Node2&#45;&gt;Node5</title>
<path fill="none" stroke="#63b8ff" d="M94.67,-307.68C66.46,-291.63 30.17,-264.86 51.04,-242 82.6,-207.43 386.51,-196.5 528.1,-193.26"/>
<polygon fill="#63b8ff" stroke="#63b8ff" points="92.79,-310.65 103.25,-312.36 96.14,-304.5 92.79,-310.65"/>
</g>
<!-- Node6 -->
<g id="node6" class="node">
<title>Node6</title>
<g id="a_node6"><a xlink:href="healthgps_8cpp.html" target="_top" xlink:title=" ">
<polygon fill="white" stroke="#666666" points="542.54,-74 413.54,-74 413.54,-55 542.54,-55 542.54,-74"/>
<text text-anchor="middle" x="478.04" y="-62" font-family="Helvetica,sans-Serif" font-size="10.00">HealthGPS/healthgps.cpp</text>
</a>
</g>
</g>
<!-- Node2&#45;&gt;Node6 -->
<g id="edge5" class="edge">
<title>Node2&#45;&gt;Node6</title>
<path fill="none" stroke="#63b8ff" d="M61.83,-309.46C41.53,-302.08 21.06,-290.4 9.04,-272 -17.39,-231.55 19.78,-202.71 60.04,-176 170.13,-102.97 326.42,-78.13 413.35,-69.73"/>
<polygon fill="#63b8ff" stroke="#63b8ff" points="60.68,-312.77 71.28,-312.57 62.87,-306.12 60.68,-312.77"/>
</g>
<!-- Node7 -->
<g id="node7" class="node">
<title>Node7</title>
<g id="a_node7"><a xlink:href="repository_8cpp.html" target="_top" xlink:title=" ">
<polygon fill="white" stroke="#666666" points="334.04,-266.5 204.04,-266.5 204.04,-247.5 334.04,-247.5 334.04,-266.5"/>
<text text-anchor="middle" x="269.04" y="-254.5" font-family="Helvetica,sans-Serif" font-size="10.00">HealthGPS/repository.cpp</text>
</a>
</g>
</g>
<!-- Node2&#45;&gt;Node7 -->
<g id="edge6" class="edge">
<title>Node2&#45;&gt;Node7</title>
<path fill="none" stroke="#63b8ff" d="M153.6,-308.6C182.25,-296.04 224.26,-277.63 248.91,-266.82"/>
<polygon fill="#63b8ff" stroke="#63b8ff" points="152.48,-305.27 144.73,-312.49 155.29,-311.68 152.48,-305.27"/>
</g>
<!-- Node8&#45;&gt;Node2 -->
<g id="edge8" class="edge">
<title>Node8&#45;&gt;Node2</title>
<path fill="none" stroke="#63b8ff" d="M365.66,-376.64C308.07,-364.14 216.73,-344.33 164.09,-332.91"/>
<polygon fill="#63b8ff" stroke="#63b8ff" points="364.72,-380.01 375.23,-378.71 366.2,-373.17 364.72,-380.01"/>
</g>
<!-- Node9 -->
<g id="node9" class="node">
<title>Node9</title>
<g id="a_node9"><a xlink:href="default__cancer__model_8h.html" target="_top" xlink:title=" ">
<polygon fill="white" stroke="#666666" points="483.54,-338 352.54,-338 352.54,-308 483.54,-308 483.54,-338"/>
<text text-anchor="start" x="360.54" y="-326" font-family="Helvetica,sans-Serif" font-size="10.00">HealthGPS/default_cancer</text>
<text text-anchor="middle" x="418.04" y="-315" font-family="Helvetica,sans-Serif" font-size="10.00">_model.h</text>
</a>
</g>
</g>
<!-- Node8&#45;&gt;Node9 -->
<g id="edge9" class="edge">
<title>Node8&#45;&gt;Node9</title>
<path fill="none" stroke="#63b8ff" d="M418.04,-367.78C418.04,-358.17 418.04,-346.92 418.04,-338.23"/>
<polygon fill="#63b8ff" stroke="#63b8ff" points="414.54,-367.59 418.04,-377.59 421.54,-367.59 414.54,-367.59"/>
</g>
<!-- Node13 -->
<g id="node13" class="node">
<title>Node13</title>
<g id="a_node13"><a xlink:href="default__disease__model_8h.html" target="_top" xlink:title=" ">
<polygon fill="white" stroke="#666666" points="644.04,-338 508.04,-338 508.04,-308 644.04,-308 644.04,-338"/>
<text text-anchor="start" x="516.04" y="-326" font-family="Helvetica,sans-Serif" font-size="10.00">HealthGPS/default_disease</text>
<text text-anchor="middle" x="576.04" y="-315" font-family="Helvetica,sans-Serif" font-size="10.00">_model.h</text>
</a>
</g>
</g>
<!-- Node8&#45;&gt;Node13 -->
<g id="edge14" class="edge">
<title>Node8&#45;&gt;Node13</title>
<path fill="none" stroke="#63b8ff" d="M450.5,-374.85C476.64,-364.26 513.33,-349.4 540.3,-338.48"/>
<polygon fill="#63b8ff" stroke="#63b8ff" points="449.37,-371.53 441.41,-378.53 451.99,-378.02 449.37,-371.53"/>
</g>
<!-- Node15 -->
<g id="node15" class="node">
<title>Node15</title>
<g id="a_node15"><a xlink:href="repository_8h.html" target="_top" xlink:title=" ">
<polygon fill="white" stroke="#666666" points="1208.54,-332.5 1089.54,-332.5 1089.54,-313.5 1208.54,-313.5 1208.54,-332.5"/>
<text text-anchor="middle" x="1149.04" y="-320.5" font-family="Helvetica,sans-Serif" font-size="10.00">HealthGPS/repository.h</text>
</a>
</g>
</g>
<!-- Node8&#45;&gt;Node15 -->
<g id="edge17" class="edge">
<title>Node8&#45;&gt;Node15</title>
<path fill="none" stroke="#63b8ff" d="M479.52,-377.35C487.75,-376.11 496.09,-374.95 504.04,-374 718.71,-348.25 975.24,-332.96 1089.3,-326.95"/>
<polygon fill="#63b8ff" stroke="#63b8ff" points="479.26,-373.85 469.91,-378.84 480.33,-380.76 479.26,-373.85"/>
</g>
<!-- Node9&#45;&gt;Node4 -->
<g id="edge10" class="edge">
<title>Node9&#45;&gt;Node4</title>
<path fill="none" stroke="#63b8ff" d="M341.14,-305.32C284.54,-293.04 209.79,-276.82 164.13,-266.92"/>
<polygon fill="#63b8ff" stroke="#63b8ff" points="340.21,-308.7 350.72,-307.4 341.69,-301.86 340.21,-308.7"/>
</g>
<!-- Node10 -->
<g id="node10" class="node">
<title>Node10</title>
<g id="a_node10"><a xlink:href="default__cancer__model_8cpp.html" target="_top" xlink:title=" ">
<polygon fill="white" stroke="#666666" points="483.54,-272 352.54,-272 352.54,-242 483.54,-242 483.54,-272"/>
<text text-anchor="start" x="360.54" y="-260" font-family="Helvetica,sans-Serif" font-size="10.00">HealthGPS/default_cancer</text>
<text text-anchor="middle" x="418.04" y="-249" font-family="Helvetica,sans-Serif" font-size="10.00">_model.cpp</text>
</a>
</g>
</g>
<!-- Node9&#45;&gt;Node10 -->
<g id="edge11" class="edge">
<title>Node9&#45;&gt;Node10</title>
<path fill="none" stroke="#63b8ff" d="M418.04,-296.39C418.04,-288.13 418.04,-279.28 418.04,-272.16"/>
<polygon fill="#63b8ff" stroke="#63b8ff" points="414.54,-296.28 418.04,-306.28 421.54,-296.28 414.54,-296.28"/>
</g>
<!-- Node11 -->
<g id="node11" class="node">
<title>Node11</title>
<g id="a_node11"><a xlink:href="disease__registry_8h.html" target="_top" xlink:title=" ">
<polygon fill="white" stroke="#666666" points="650.04,-266.5 502.04,-266.5 502.04,-247.5 650.04,-247.5 650.04,-266.5"/>
<text text-anchor="middle" x="576.04" y="-254.5" font-family="Helvetica,sans-Serif" font-size="10.00">HealthGPS/disease_registry.h</text>
</a>
</g>
</g>
<!-- Node9&#45;&gt;Node11 -->
<g id="edge12" class="edge">
<title>Node9&#45;&gt;Node11</title>
<path fill="none" stroke="#63b8ff" d="M464.01,-303.38C493.57,-291.41 530.65,-276.38 553.86,-266.99"/>
<polygon fill="#63b8ff" stroke="#63b8ff" points="462.86,-300.07 454.9,-307.07 465.48,-306.56 462.86,-300.07"/>
</g>
<!-- Node12 -->
<g id="node12" class="node">
<title>Node12</title>
<g id="a_node12"><a xlink:href="disease_8cpp.html" target="_top" xlink:title=" ">
<polygon fill="white" stroke="#666666" points="978.54,-200.5 857.54,-200.5 857.54,-181.5 978.54,-181.5 978.54,-200.5"/>
<text text-anchor="middle" x="918.04" y="-188.5" font-family="Helvetica,sans-Serif" font-size="10.00">HealthGPS/disease.cpp</text>
</a>
</g>
</g>
<!-- Node11&#45;&gt;Node12 -->
<g id="edge13" class="edge">
<title>Node11&#45;&gt;Node12</title>
<path fill="none" stroke="#63b8ff" d="M635.08,-244.95C701.65,-232.49 808.59,-212.48 870.18,-200.96"/>
<polygon fill="#63b8ff" stroke="#63b8ff" points="634.63,-241.48 625.44,-246.76 635.91,-248.36 634.63,-241.48"/>
</g>
<!-- Node13&#45;&gt;Node11 -->
<g id="edge16" class="edge">
<title>Node13&#45;&gt;Node11</title>
<path fill="none" stroke="#63b8ff" d="M576.04,-296.59C576.04,-286.06 576.04,-274.53 576.04,-266.84"/>
<polygon fill="#63b8ff" stroke="#63b8ff" points="572.54,-296.28 576.04,-306.28 579.54,-296.28 572.54,-296.28"/>
</g>
<!-- Node14 -->
<g id="node14" class="node">
<title>Node14</title>
<g id="a_node14"><a xlink:href="default__disease__model_8cpp.html" target="_top" xlink:title=" ">
<polygon fill="white" stroke="#666666" points="804.04,-272 668.04,-272 668.04,-242 804.04,-242 804.04,-272"/>
<text text-anchor="start" x="676.04" y="-260" font-family="Helvetica,sans-Serif" font-size="10.00">HealthGPS/default_disease</text>
<text text-anchor="middle" x="736.04" y="-249" font-family="Helvetica,sans-Serif" font-size="10.00">_model.cpp</text>
</a>
</g>
</g>
<!-- Node13&#45;&gt;Node14 -->
<g id="edge15" class="edge">
<title>Node13&#45;&gt;Node14</title>
<path fill="none" stroke="#63b8ff" d="M622.52,-303.41C647.2,-293.54 677.07,-281.59 699.98,-272.43"/>
<polygon fill="#63b8ff" stroke="#63b8ff" points="621.34,-300.11 613.35,-307.08 623.94,-306.61 621.34,-300.11"/>
</g>
<!-- Node15&#45;&gt;Node7 -->
<g id="edge42" class="edge">
<title>Node15&#45;&gt;Node7</title>
<path fill="none" stroke="#63b8ff" d="M1077.8,-320.5C937.07,-316.9 613.69,-305.41 344.04,-272 333.66,-270.71 322.54,-268.89 312.13,-266.98"/>
<polygon fill="#63b8ff" stroke="#63b8ff" points="1077.63,-324 1087.71,-320.75 1077.8,-317 1077.63,-324"/>
</g>
<!-- Node16 -->
<g id="node16" class="node">
<title>Node16</title>
<g id="a_node16"><a xlink:href="model__parser_8h.html" target="_top" xlink:title=" ">
<polygon fill="white" stroke="#666666" points="1787.54,-272 1654.54,-272 1654.54,-242 1787.54,-242 1787.54,-272"/>
<text text-anchor="start" x="1662.54" y="-260" font-family="Helvetica,sans-Serif" font-size="10.00">HealthGPS.Console/model</text>
<text text-anchor="middle" x="1721.04" y="-249" font-family="Helvetica,sans-Serif" font-size="10.00">_parser.h</text>
</a>
</g>
</g>
<!-- Node15&#45;&gt;Node16 -->
<g id="edge18" class="edge">
<title>Node15&#45;&gt;Node16</title>
<path fill="none" stroke="#63b8ff" d="M1220.34,-315.93C1315.03,-307.57 1487.42,-291.34 1634.04,-272 1640.56,-271.14 1647.35,-270.17 1654.12,-269.16"/>
<polygon fill="#63b8ff" stroke="#63b8ff" points="1220.06,-312.44 1210.41,-316.8 1220.68,-319.41 1220.06,-312.44"/>
</g>
<!-- Node19 -->
<g id="node19" class="node">
<title>Node19</title>
<g id="a_node19"><a xlink:href="analysis__module_8h.html" target="_top" xlink:title=" ">
<polygon fill="white" stroke="#666666" points="926.04,-272 822.04,-272 822.04,-242 926.04,-242 926.04,-272"/>
<text text-anchor="start" x="830.04" y="-260" font-family="Helvetica,sans-Serif" font-size="10.00">HealthGPS/analysis</text>
<text text-anchor="middle" x="874.04" y="-249" font-family="Helvetica,sans-Serif" font-size="10.00">_module.h</text>
</a>
</g>
</g>
<!-- Node15&#45;&gt;Node19 -->
<g id="edge21" class="edge">
<title>Node15&#45;&gt;Node19</title>
<path fill="none" stroke="#63b8ff" d="M1099.58,-310.49C1050.72,-299.12 976.26,-281.79 926.41,-270.19"/>
<polygon fill="#63b8ff" stroke="#63b8ff" points="1098.51,-313.83 1109.04,-312.69 1100.09,-307.01 1098.51,-313.83"/>
</g>
<!-- Node26 -->
<g id="node26" class="node">
<title>Node26</title>
<g id="a_node26"><a xlink:href="demographic_8h.html" target="_top" xlink:title=" ">
<polygon fill="white" stroke="#666666" points="1076.04,-266.5 944.04,-266.5 944.04,-247.5 1076.04,-247.5 1076.04,-266.5"/>
<text text-anchor="middle" x="1010.04" y="-254.5" font-family="Helvetica,sans-Serif" font-size="10.00">HealthGPS/demographic.h</text>
</a>
</g>
</g>
<!-- Node15&#45;&gt;Node26 -->
<g id="edge33" class="edge">
<title>Node15&#45;&gt;Node26</title>
<path fill="none" stroke="#63b8ff" d="M1119.58,-308.44C1092.32,-295.88 1052.57,-277.58 1029.2,-266.82"/>
<polygon fill="#63b8ff" stroke="#63b8ff" points="1117.79,-311.46 1128.34,-312.47 1120.72,-305.11 1117.79,-311.46"/>
</g>
<!-- Node27 -->
<g id="node27" class="node">
<title>Node27</title>
<g id="a_node27"><a xlink:href="_health_g_p_s_2disease_8h.html" target="_top" xlink:title=" ">
<polygon fill="white" stroke="#666666" points="1204.04,-266.5 1094.04,-266.5 1094.04,-247.5 1204.04,-247.5 1204.04,-266.5"/>
<text text-anchor="middle" x="1149.04" y="-254.5" font-family="Helvetica,sans-Serif" font-size="10.00">HealthGPS/disease.h</text>
</a>
</g>
</g>
<!-- Node15&#45;&gt;Node27 -->
<g id="edge36" class="edge">
<title>Node15&#45;&gt;Node27</title>
<path fill="none" stroke="#63b8ff" d="M1149.04,-301.68C1149.04,-289.94 1149.04,-275.77 1149.04,-266.82"/>
<polygon fill="#63b8ff" stroke="#63b8ff" points="1145.54,-301.59 1149.04,-311.59 1152.54,-301.59 1145.54,-301.59"/>
</g>
<!-- Node28 -->
<g id="node28" class="node">
<title>Node28</title>
<g id="a_node28"><a xlink:href="modulefactory_8h.html" target="_top" xlink:title=" ">
<polygon fill="white" stroke="#666666" points="1624.54,-266.5 1487.54,-266.5 1487.54,-247.5 1624.54,-247.5 1624.54,-266.5"/>
<text text-anchor="middle" x="1556.04" y="-254.5" font-family="Helvetica,sans-Serif" font-size="10.00">HealthGPS/modulefactory.h</text>
</a>
</g>
</g>
<!-- Node15&#45;&gt;Node28 -->
<g id="edge39" class="edge">
<title>Node15&#45;&gt;Node28</title>
<path fill="none" stroke="#63b8ff" d="M1219.98,-311.87C1286.87,-302.17 1389.89,-286.86 1479.04,-272 1488.42,-270.44 1498.43,-268.68 1508.02,-266.96"/>
<polygon fill="#63b8ff" stroke="#63b8ff" points="1219.63,-308.38 1210.24,-313.28 1220.64,-315.31 1219.63,-308.38"/>
</g>
<!-- Node30 -->
<g id="node30" class="node">
<title>Node30</title>
<g id="a_node30"><a xlink:href="riskfactor_8h.html" target="_top" xlink:title=" ">
<polygon fill="white" stroke="#666666" points="1338.04,-266.5 1222.04,-266.5 1222.04,-247.5 1338.04,-247.5 1338.04,-266.5"/>
<text text-anchor="middle" x="1280.04" y="-254.5" font-family="Helvetica,sans-Serif" font-size="10.00">HealthGPS/riskfactor.h</text>
</a>
</g>
</g>
<!-- Node15&#45;&gt;Node30 -->
<g id="edge43" class="edge">
<title>Node15&#45;&gt;Node30</title>
<path fill="none" stroke="#63b8ff" d="M1177.49,-308.1C1203.16,-295.56 1240.15,-277.49 1261.98,-266.82"/>
<polygon fill="#63b8ff" stroke="#63b8ff" points="1176.06,-304.9 1168.61,-312.44 1179.14,-311.19 1176.06,-304.9"/>
</g>
<!-- Node32 -->
<g id="node32" class="node">
<title>Node32</title>
<g id="a_node32"><a xlink:href="ses__noise__module_8h.html" target="_top" xlink:title=" ">
<polygon fill="white" stroke="#666666" points="1469.54,-272 1356.54,-272 1356.54,-242 1469.54,-242 1469.54,-272"/>
<text text-anchor="start" x="1364.54" y="-260" font-family="Helvetica,sans-Serif" font-size="10.00">HealthGPS/ses_noise</text>
<text text-anchor="middle" x="1413.04" y="-249" font-family="Helvetica,sans-Serif" font-size="10.00">_module.h</text>
</a>
</g>
</g>
<!-- Node15&#45;&gt;Node32 -->
<g id="edge46" class="edge">
<title>Node15&#45;&gt;Node32</title>
<path fill="none" stroke="#63b8ff" d="M1196.93,-310.39C1241.82,-299.51 1308.94,-283.24 1356.45,-271.72"/>
<polygon fill="#63b8ff" stroke="#63b8ff" points="1196.39,-306.92 1187.5,-312.68 1198.04,-313.72 1196.39,-306.92"/>
</g>
<!-- Node17 -->
<g id="node17" class="node">
<title>Node17</title>
<g id="a_node17"><a xlink:href="model__parser_8cpp.html" target="_top" xlink:title=" ">
<polygon fill="white" stroke="#666666" points="1787.54,-206 1654.54,-206 1654.54,-176 1787.54,-176 1787.54,-206"/>
<text text-anchor="start" x="1662.54" y="-194" font-family="Helvetica,sans-Serif" font-size="10.00">HealthGPS.Console/model</text>
<text text-anchor="middle" x="1721.04" y="-183" font-family="Helvetica,sans-Serif" font-size="10.00">_parser.cpp</text>
</a>
</g>
</g>
<!-- Node16&#45;&gt;Node17 -->
<g id="edge19" class="edge">
<title>Node16&#45;&gt;Node17</title>
<path fill="none" stroke="#63b8ff" d="M1721.04,-230.39C1721.04,-222.13 1721.04,-213.28 1721.04,-206.16"/>
<polygon fill="#63b8ff" stroke="#63b8ff" points="1717.54,-230.28 1721.04,-240.28 1724.54,-230.28 1717.54,-230.28"/>
</g>
<!-- Node18 -->
<g id="node18" class="node">
<title>Node18</title>
<g id="a_node18"><a xlink:href="program_8cpp.html" target="_top" xlink:title=" ">
<polygon fill="white" stroke="#666666" points="1370.54,-19 1209.54,-19 1209.54,0 1370.54,0 1370.54,-19"/>
<text text-anchor="middle" x="1290.04" y="-7" font-family="Helvetica,sans-Serif" font-size="10.00">HealthGPS.Console/program.cpp</text>
</a>
</g>
</g>
<!-- Node16&#45;&gt;Node18 -->
<g id="edge20" class="edge">
<title>Node16&#45;&gt;Node18</title>
<path fill="none" stroke="#63b8ff" d="M1766.97,-235.97C1778.91,-228.4 1790.3,-218.51 1797.04,-206 1803.37,-194.26 1804.87,-186.79 1797.04,-176 1742.19,-100.4 1458.91,-41.17 1341.31,-19.46"/>
<polygon fill="#63b8ff" stroke="#63b8ff" points="1765.56,-232.74 1758.67,-240.78 1769.08,-238.79 1765.56,-232.74"/>
</g>
<!-- Node19&#45;&gt;Node3 -->
<g id="edge22" class="edge">
<title>Node19&#45;&gt;Node3</title>
<path fill="none" stroke="#63b8ff" d="M810.39,-241.76C567.35,-206.13 287.57,-195.91 173.43,-193.05"/>
<polygon fill="#63b8ff" stroke="#63b8ff" points="809.66,-245.19 820.07,-243.2 810.69,-238.26 809.66,-245.19"/>
</g>
<!-- Node20 -->
<g id="node20" class="node">
<title>Node20</title>
<g id="a_node20"><a xlink:href="simulation__module_8h.html" target="_top" xlink:title=" ">
<polygon fill="white" stroke="#666666" points="1193.54,-206 1080.54,-206 1080.54,-176 1193.54,-176 1193.54,-206"/>
<text text-anchor="start" x="1088.54" y="-194" font-family="Helvetica,sans-Serif" font-size="10.00">HealthGPS/simulation</text>
<text text-anchor="middle" x="1137.04" y="-183" font-family="Helvetica,sans-Serif" font-size="10.00">_module.h</text>
</a>
</g>
</g>
<!-- Node19&#45;&gt;Node20 -->
<g id="edge23" class="edge">
<title>Node19&#45;&gt;Node20</title>
<path fill="none" stroke="#63b8ff" d="M937.36,-240.59C980.91,-229.99 1038.25,-216.04 1080.31,-205.81"/>
<polygon fill="#63b8ff" stroke="#63b8ff" points="936.67,-237.16 927.79,-242.92 938.33,-243.96 936.67,-237.16"/>
</g>
<!-- Node21 -->
<g id="node21" class="node">
<title>Node21</title>
<g id="a_node21"><a xlink:href="_health_g_p_s_2api_8h.html" target="_top" xlink:title=" ">
<polygon fill="white" stroke="#666666" points="1314.54,-74 1225.54,-74 1225.54,-55 1314.54,-55 1314.54,-74"/>
<text text-anchor="middle" x="1270.04" y="-62" font-family="Helvetica,sans-Serif" font-size="10.00">HealthGPS/api.h</text>
</a>
</g>
</g>
<!-- Node20&#45;&gt;Node21 -->
<g id="edge24" class="edge">
<title>Node20&#45;&gt;Node21</title>
<path fill="none" stroke="#63b8ff" d="M1168.83,-169.3C1180.96,-160.81 1194.62,-150.52 1206.04,-140 1229.37,-118.52 1252.59,-88.92 1263.54,-74.35"/>
<polygon fill="#63b8ff" stroke="#63b8ff" points="1167.02,-166.3 1160.74,-174.84 1170.97,-172.08 1167.02,-166.3"/>
</g>
<!-- Node22 -->
<g id="node22" class="node">
<title>Node22</title>
<g id="a_node22"><a xlink:href="healthgps_8h.html" target="_top" xlink:title=" ">
<polygon fill="white" stroke="#666666" points="1196.54,-134.5 1077.54,-134.5 1077.54,-115.5 1196.54,-115.5 1196.54,-134.5"/>
<text text-anchor="middle" x="1137.04" y="-122.5" font-family="Helvetica,sans-Serif" font-size="10.00">HealthGPS/healthgps.h</text>
</a>
</g>
</g>
<!-- Node20&#45;&gt;Node22 -->
<g id="edge26" class="edge">
<title>Node20&#45;&gt;Node22</title>
<path fill="none" stroke="#63b8ff" d="M1137.04,-164.59C1137.04,-154.06 1137.04,-142.53 1137.04,-134.84"/>
<polygon fill="#63b8ff" stroke="#63b8ff" points="1133.54,-164.28 1137.04,-174.28 1140.54,-164.28 1133.54,-164.28"/>
</g>
<!-- Node25 -->
<g id="node25" class="node">
<title>Node25</title>
<g id="a_node25"><a xlink:href="simulation__module_8cpp.html" target="_top" xlink:title=" ">
<polygon fill="white" stroke="#666666" points="1059.54,-140 946.54,-140 946.54,-110 1059.54,-110 1059.54,-140"/>
<text text-anchor="start" x="954.54" y="-128" font-family="Helvetica,sans-Serif" font-size="10.00">HealthGPS/simulation</text>
<text text-anchor="middle" x="1003.04" y="-117" font-family="Helvetica,sans-Serif" font-size="10.00">_module.cpp</text>
</a>
</g>
</g>
<!-- Node20&#45;&gt;Node25 -->
<g id="edge32" class="edge">
<title>Node20&#45;&gt;Node25</title>
<path fill="none" stroke="#63b8ff" d="M1096.68,-170.72C1076.21,-160.95 1051.78,-149.28 1033.01,-140.31"/>
<polygon fill="#63b8ff" stroke="#63b8ff" points="1095.07,-173.83 1105.6,-174.98 1098.09,-167.52 1095.07,-173.83"/>
</g>
<!-- Node21&#45;&gt;Node18 -->
<g id="edge25" class="edge">
<title>Node21&#45;&gt;Node18</title>
<path fill="none" stroke="#63b8ff" d="M1277.32,-44.22C1280.51,-35.74 1284.11,-26.21 1286.67,-19.44"/>
<polygon fill="#63b8ff" stroke="#63b8ff" points="1274.13,-42.74 1273.88,-53.33 1280.68,-45.21 1274.13,-42.74"/>
</g>
<!-- Node22&#45;&gt;Node6 -->
<g id="edge31" class="edge">
<title>Node22&#45;&gt;Node6</title>
<path fill="none" stroke="#63b8ff" d="M1086.71,-112.89C1080.78,-111.8 1074.79,-110.8 1069.04,-110 878.74,-83.36 651.58,-71.9 542.61,-67.66"/>
<polygon fill="#63b8ff" stroke="#63b8ff" points="1086.03,-116.32 1096.51,-114.78 1087.35,-109.45 1086.03,-116.32"/>
</g>
<!-- Node22&#45;&gt;Node21 -->
<g id="edge30" class="edge">
<title>Node22&#45;&gt;Node21</title>
<path fill="none" stroke="#63b8ff" d="M1167.7,-110.52C1192.86,-99.45 1227.8,-84.08 1249.65,-74.47"/>
<polygon fill="#63b8ff" stroke="#63b8ff" points="1166.37,-107.28 1158.63,-114.51 1169.19,-113.68 1166.37,-107.28"/>
</g>
<!-- Node23 -->
<g id="node23" class="node">
<title>Node23</title>
<g id="a_node23"><a xlink:href="configuration_8h.html" target="_top" xlink:title=" ">
<polygon fill="white" stroke="#666666" points="1207.04,-74 1037.04,-74 1037.04,-55 1207.04,-55 1207.04,-74"/>
<text text-anchor="middle" x="1122.04" y="-62" font-family="Helvetica,sans-Serif" font-size="10.00">HealthGPS.Console/configuration.h</text>
</a>
</g>
</g>
<!-- Node22&#45;&gt;Node23 -->
<g id="edge27" class="edge">
<title>Node22&#45;&gt;Node23</title>
<path fill="none" stroke="#63b8ff" d="M1132.04,-104.49C1129.4,-94.22 1126.3,-82.13 1124.26,-74.17"/>
<polygon fill="#63b8ff" stroke="#63b8ff" points="1128.58,-105.08 1134.45,-113.9 1135.36,-103.35 1128.58,-105.08"/>
</g>
<!-- Node23&#45;&gt;Node18 -->
<g id="edge29" class="edge">
<title>Node23&#45;&gt;Node18</title>
<path fill="none" stroke="#63b8ff" d="M1161.31,-51.11C1192.07,-41.41 1234.13,-28.14 1261.68,-19.45"/>
<polygon fill="#63b8ff" stroke="#63b8ff" points="1160.47,-47.71 1151.98,-54.05 1162.57,-54.38 1160.47,-47.71"/>
</g>
<!-- Node24 -->
<g id="node24" class="node">
<title>Node24</title>
<g id="a_node24"><a xlink:href="configuration_8cpp.html" target="_top" xlink:title=" ">
<polygon fill="white" stroke="#666666" points="1191.04,-19 1011.04,-19 1011.04,0 1191.04,0 1191.04,-19"/>
<text text-anchor="middle" x="1101.04" y="-7" font-family="Helvetica,sans-Serif" font-size="10.00">HealthGPS.Console/configuration.cpp</text>
</a>
</g>
</g>
<!-- Node23&#45;&gt;Node24 -->
<g id="edge28" class="edge">
<title>Node23&#45;&gt;Node24</title>
<path fill="none" stroke="#63b8ff" d="M1114.4,-44.22C1111.04,-35.74 1107.26,-26.21 1104.58,-19.44"/>
<polygon fill="#63b8ff" stroke="#63b8ff" points="1111.08,-45.33 1118.01,-53.34 1117.58,-42.75 1111.08,-45.33"/>
</g>
<!-- Node26&#45;&gt;Node5 -->
<g id="edge34" class="edge">
<title>Node26&#45;&gt;Node5</title>
<path fill="none" stroke="#63b8ff" d="M952.45,-245.03C946.58,-243.98 940.69,-242.95 935.04,-242 841.38,-226.27 732.57,-210.49 665,-200.98"/>
<polygon fill="#63b8ff" stroke="#63b8ff" points="951.72,-248.46 962.19,-246.8 952.98,-241.57 951.72,-248.46"/>
</g>
<!-- Node26&#45;&gt;Node20 -->
<g id="edge35" class="edge">
<title>Node26&#45;&gt;Node20</title>
<path fill="none" stroke="#63b8ff" d="M1037.84,-241.99C1058.72,-231.47 1087.21,-217.11 1108.31,-206.48"/>
<polygon fill="#63b8ff" stroke="#63b8ff" points="1036.41,-238.79 1029.05,-246.42 1039.56,-245.05 1036.41,-238.79"/>
</g>
<!-- Node27&#45;&gt;Node12 -->
<g id="edge37" class="edge">
<title>Node27&#45;&gt;Node12</title>
<path fill="none" stroke="#63b8ff" d="M1106.01,-244.08C1060.84,-231.56 990.88,-212.18 950.26,-200.93"/>
<polygon fill="#63b8ff" stroke="#63b8ff" points="1104.89,-247.4 1115.46,-246.7 1106.76,-240.65 1104.89,-247.4"/>
</g>
<!-- Node27&#45;&gt;Node20 -->
<g id="edge38" class="edge">
<title>Node27&#45;&gt;Node20</title>
<path fill="none" stroke="#63b8ff" d="M1145.31,-236.1C1143.49,-226.43 1141.36,-215.02 1139.71,-206.23"/>
<polygon fill="#63b8ff" stroke="#63b8ff" points="1141.81,-236.43 1147.09,-245.61 1148.69,-235.14 1141.81,-236.43"/>
</g>
<!-- Node28&#45;&gt;Node20 -->
<g id="edge41" class="edge">
<title>Node28&#45;&gt;Node20</title>
<path fill="none" stroke="#63b8ff" d="M1497.65,-245.07C1491.38,-243.99 1485.08,-242.94 1479.04,-242 1356.81,-222.93 1324.98,-226.85 1203.04,-206 1200.04,-205.49 1196.97,-204.93 1193.87,-204.35"/>
<polygon fill="#63b8ff" stroke="#63b8ff" points="1496.92,-248.49 1507.38,-246.77 1498.13,-241.6 1496.92,-248.49"/>
</g>
<!-- Node29 -->
<g id="node29" class="node">
<title>Node29</title>
<g id="a_node29"><a xlink:href="modulefactory_8cpp.html" target="_top" xlink:title=" ">
<polygon fill="white" stroke="#666666" points="1636.04,-200.5 1488.04,-200.5 1488.04,-181.5 1636.04,-181.5 1636.04,-200.5"/>
<text text-anchor="middle" x="1562.04" y="-188.5" font-family="Helvetica,sans-Serif" font-size="10.00">HealthGPS/modulefactory.cpp</text>
</a>
</g>
</g>
<!-- Node28&#45;&gt;Node29 -->
<g id="edge40" class="edge">
<title>Node28&#45;&gt;Node29</title>
<path fill="none" stroke="#63b8ff" d="M1557.95,-235.68C1559.05,-223.94 1560.37,-209.77 1561.21,-200.82"/>
<polygon fill="#63b8ff" stroke="#63b8ff" points="1554.46,-235.31 1557.02,-245.59 1561.43,-235.96 1554.46,-235.31"/>
</g>
<!-- Node30&#45;&gt;Node20 -->
<g id="edge45" class="edge">
<title>Node30&#45;&gt;Node20</title>
<path fill="none" stroke="#63b8ff" d="M1249.7,-242.42C1226.12,-231.87 1193.47,-217.26 1169.39,-206.48"/>
<polygon fill="#63b8ff" stroke="#63b8ff" points="1248.22,-245.59 1258.77,-246.48 1251.08,-239.2 1248.22,-245.59"/>
</g>
<!-- Node31 -->
<g id="node31" class="node">
<title>Node31</title>
<g id="a_node31"><a xlink:href="riskfactor_8cpp.html" target="_top" xlink:title=" ">
<polygon fill="white" stroke="#666666" points="1338.54,-200.5 1211.54,-200.5 1211.54,-181.5 1338.54,-181.5 1338.54,-200.5"/>
<text text-anchor="middle" x="1275.04" y="-188.5" font-family="Helvetica,sans-Serif" font-size="10.00">HealthGPS/riskfactor.cpp</text>
</a>
</g>
</g>
<!-- Node30&#45;&gt;Node31 -->
<g id="edge44" class="edge">
<title>Node30&#45;&gt;Node31</title>
<path fill="none" stroke="#63b8ff" d="M1278.45,-235.68C1277.54,-223.94 1276.43,-209.77 1275.73,-200.82"/>
<polygon fill="#63b8ff" stroke="#63b8ff" points="1274.96,-235.9 1279.23,-245.59 1281.94,-235.35 1274.96,-235.9"/>
</g>
<!-- Node32&#45;&gt;Node20 -->
<g id="edge48" class="edge">
<title>Node32&#45;&gt;Node20</title>
<path fill="none" stroke="#63b8ff" d="M1345,-240.22C1298.54,-229.45 1237.68,-215.34 1193.82,-205.17"/>
<polygon fill="#63b8ff" stroke="#63b8ff" points="1344.18,-243.63 1354.71,-242.47 1345.76,-236.81 1344.18,-243.63"/>
</g>
<!-- Node33 -->
<g id="node33" class="node">
<title>Node33</title>
<g id="a_node33"><a xlink:href="ses__noise__module_8cpp.html" target="_top" xlink:title=" ">
<polygon fill="white" stroke="#666666" points="1469.54,-206 1356.54,-206 1356.54,-176 1469.54,-176 1469.54,-206"/>
<text text-anchor="start" x="1364.54" y="-194" font-family="Helvetica,sans-Serif" font-size="10.00">HealthGPS/ses_noise</text>
<text text-anchor="middle" x="1413.04" y="-183" font-family="Helvetica,sans-Serif" font-size="10.00">_module.cpp</text>
</a>
</g>
</g>
<!-- Node32&#45;&gt;Node33 -->
<g id="edge47" class="edge">
<title>Node32&#45;&gt;Node33</title>
<path fill="none" stroke="#63b8ff" d="M1413.04,-230.39C1413.04,-222.13 1413.04,-213.28 1413.04,-206.16"/>
<polygon fill="#63b8ff" stroke="#63b8ff" points="1409.54,-230.28 1413.04,-240.28 1416.54,-230.28 1409.54,-230.28"/>
</g>
</g>
</svg>
