<?xml version="1.0" encoding="UTF-8" standalone="no"?>
<!DOCTYPE svg PUBLIC "-//W3C//DTD SVG 1.1//EN"
 "http://www.w3.org/Graphics/SVG/1.1/DTD/svg11.dtd">
<!-- Generated by graphviz version 7.0.6 (20230106.0513)
 -->
<!-- Title: HealthGPS/relative_risk.cpp Pages: 1 -->
<svg width="860pt" height="324pt"
 viewBox="0.00 0.00 859.50 324.00" xmlns="http://www.w3.org/2000/svg" xmlns:xlink="http://www.w3.org/1999/xlink">
<g id="graph0" class="graph" transform="scale(1 1) rotate(0) translate(4 320)">
<title>HealthGPS/relative_risk.cpp</title>
<!-- Node1 -->
<g id="node1" class="node">
<title>Node1</title>
<g id="a_node1"><a xlink:title=" ">
<polygon fill="#999999" stroke="#666666" points="408.5,-316 310.5,-316 310.5,-286 408.5,-286 408.5,-316"/>
<text text-anchor="start" x="318.5" y="-304" font-family="Helvetica,sans-Serif" font-size="10.00">HealthGPS/relative</text>
<text text-anchor="middle" x="359.5" y="-293" font-family="Helvetica,sans-Serif" font-size="10.00">_risk.cpp</text>
</a>
</g>
</g>
<!-- Node2 -->
<g id="node2" class="node">
<title>Node2</title>
<g id="a_node2"><a xlink:href="relative__risk_8h.html" target="_top" xlink:title=" ">
<polygon fill="white" stroke="#666666" points="397.5,-250 321.5,-250 321.5,-231 397.5,-231 397.5,-250"/>
<text text-anchor="middle" x="359.5" y="-238" font-family="Helvetica,sans-Serif" font-size="10.00">relative_risk.h</text>
</a>
</g>
</g>
<!-- Node1&#45;&gt;Node2 -->
<g id="edge1" class="edge">
<title>Node1&#45;&gt;Node2</title>
<path fill="none" stroke="#63b8ff" d="M359.5,-285.54C359.5,-278.34 359.5,-269.53 359.5,-261.68"/>
<polygon fill="#63b8ff" stroke="#63b8ff" points="363,-261.69 359.5,-251.69 356,-261.69 363,-261.69"/>
</g>
<!-- Node3 -->
<g id="node3" class="node">
<title>Node3</title>
<g id="a_node3"><a xlink:href="gender__table_8h.html" target="_top" xlink:title=" ">
<polygon fill="white" stroke="#666666" points="265.5,-195 185.5,-195 185.5,-176 265.5,-176 265.5,-195"/>
<text text-anchor="middle" x="225.5" y="-183" font-family="Helvetica,sans-Serif" font-size="10.00">gender_table.h</text>
</a>
</g>
</g>
<!-- Node2&#45;&gt;Node3 -->
<g id="edge2" class="edge">
<title>Node2&#45;&gt;Node3</title>
<path fill="none" stroke="#63b8ff" d="M336.77,-230.51C315.27,-222.01 282.77,-209.15 258.43,-199.53"/>
<polygon fill="#63b8ff" stroke="#63b8ff" points="259.89,-196.34 249.3,-195.91 257.31,-202.85 259.89,-196.34"/>
</g>
<!-- Node4 -->
<g id="node4" class="node">
<title>Node4</title>
<g id="a_node4"><a xlink:title=" ">
<polygon fill="#e0e0e0" stroke="#999999" points="35,-140 0,-140 0,-121 35,-121 35,-140"/>
<text text-anchor="middle" x="17.5" y="-128" font-family="Helvetica,sans-Serif" font-size="10.00">map</text>
</a>
</g>
</g>
<!-- Node2&#45;&gt;Node4 -->
<g id="edge32" class="edge">
<title>Node2&#45;&gt;Node4</title>
<path fill="none" stroke="#63b8ff" d="M321.21,-231.84C283.88,-223.99 225.71,-210.72 176.5,-195 129.64,-180.03 76.92,-157.88 45.5,-144.09"/>
<polygon fill="#63b8ff" stroke="#63b8ff" points="47.26,-141.04 36.7,-140.19 44.43,-147.44 47.26,-141.04"/>
</g>
<!-- Node6 -->
<g id="node6" class="node">
<title>Node6</title>
<g id="a_node6"><a xlink:href="monotonic__vector_8h.html" target="_top" xlink:title=" ">
<polygon fill="white" stroke="#666666" points="410,-140 309,-140 309,-121 410,-121 410,-140"/>
<text text-anchor="middle" x="359.5" y="-128" font-family="Helvetica,sans-Serif" font-size="10.00">monotonic_vector.h</text>
</a>
</g>
</g>
<!-- Node2&#45;&gt;Node6 -->
<g id="edge26" class="edge">
<title>Node2&#45;&gt;Node6</title>
<path fill="none" stroke="#63b8ff" d="M359.5,-230.66C359.5,-213.57 359.5,-175.61 359.5,-151.92"/>
<polygon fill="#63b8ff" stroke="#63b8ff" points="363,-151.97 359.5,-141.97 356,-151.97 363,-151.97"/>
</g>
<!-- Node12 -->
<g id="node12" class="node">
<title>Node12</title>
<g id="a_node12"><a xlink:href="array2d_8h.html" target="_top" xlink:title=" ">
<polygon fill="white" stroke="#666666" points="560.5,-140 428.5,-140 428.5,-121 560.5,-121 560.5,-140"/>
<text text-anchor="middle" x="494.5" y="-128" font-family="Helvetica,sans-Serif" font-size="10.00">HealthGPS.Core/array2d.h</text>
</a>
</g>
</g>
<!-- Node2&#45;&gt;Node12 -->
<g id="edge27" class="edge">
<title>Node2&#45;&gt;Node12</title>
<path fill="none" stroke="#63b8ff" d="M370.55,-230.66C393.29,-212.47 445.63,-170.6 474.49,-147.51"/>
<polygon fill="#63b8ff" stroke="#63b8ff" points="476.5,-150.39 482.12,-141.41 472.12,-144.92 476.5,-150.39"/>
</g>
<!-- Node21 -->
<g id="node21" class="node">
<title>Node21</title>
<g id="a_node21"><a xlink:href="identifier_8h.html" target="_top" xlink:title=" ">
<polygon fill="white" stroke="#666666" points="851.5,-79.5 715.5,-79.5 715.5,-60.5 851.5,-60.5 851.5,-79.5"/>
<text text-anchor="middle" x="783.5" y="-67.5" font-family="Helvetica,sans-Serif" font-size="10.00">HealthGPS.Core/identifier.h</text>
</a>
</g>
</g>
<!-- Node2&#45;&gt;Node21 -->
<g id="edge28" class="edge">
<title>Node2&#45;&gt;Node21</title>
<path fill="none" stroke="#63b8ff" d="M382,-230.56C452.22,-202.65 667.58,-117.07 750.49,-84.12"/>
<polygon fill="#63b8ff" stroke="#63b8ff" points="751.65,-87.42 759.65,-80.48 749.07,-80.92 751.65,-87.42"/>
</g>
<!-- Node3&#45;&gt;Node4 -->
<g id="edge3" class="edge">
<title>Node3&#45;&gt;Node4</title>
<path fill="none" stroke="#63b8ff" d="M185.15,-175.56C150.5,-167.68 99,-155.49 46.26,-140.64"/>
<polygon fill="#63b8ff" stroke="#63b8ff" points="47.38,-137.32 36.8,-137.95 45.46,-144.05 47.38,-137.32"/>
</g>
<!-- Node5 -->
<g id="node5" class="node">
<title>Node5</title>
<g id="a_node5"><a xlink:title=" ">
<polygon fill="#e0e0e0" stroke="#999999" points="104,-140 53,-140 53,-121 104,-121 104,-140"/>
<text text-anchor="middle" x="78.5" y="-128" font-family="Helvetica,sans-Serif" font-size="10.00">numeric</text>
</a>
</g>
</g>
<!-- Node3&#45;&gt;Node5 -->
<g id="edge4" class="edge">
<title>Node3&#45;&gt;Node5</title>
<path fill="none" stroke="#63b8ff" d="M200.56,-175.51C176.66,-166.89 140.36,-153.8 113.55,-144.14"/>
<polygon fill="#63b8ff" stroke="#63b8ff" points="115.09,-140.97 104.49,-140.87 112.71,-147.56 115.09,-140.97"/>
</g>
<!-- Node3&#45;&gt;Node6 -->
<g id="edge5" class="edge">
<title>Node3&#45;&gt;Node6</title>
<path fill="none" stroke="#63b8ff" d="M248.23,-175.51C269.73,-167.01 302.23,-154.15 326.57,-144.53"/>
<polygon fill="#63b8ff" stroke="#63b8ff" points="327.69,-147.85 335.7,-140.91 325.11,-141.34 327.69,-147.85"/>
</g>
<!-- Node9 -->
<g id="node9" class="node">
<title>Node9</title>
<g id="a_node9"><a xlink:href="forward__type_8h.html" target="_top" xlink:title=" ">
<polygon fill="white" stroke="#666666" points="173.5,-85 51.5,-85 51.5,-55 173.5,-55 173.5,-85"/>
<text text-anchor="start" x="59.5" y="-73" font-family="Helvetica,sans-Serif" font-size="10.00">HealthGPS.Core/forward</text>
<text text-anchor="middle" x="112.5" y="-62" font-family="Helvetica,sans-Serif" font-size="10.00">_type.h</text>
</a>
</g>
</g>
<!-- Node3&#45;&gt;Node9 -->
<g id="edge11" class="edge">
<title>Node3&#45;&gt;Node9</title>
<path fill="none" stroke="#63b8ff" d="M204.71,-175.6C188.69,-167.95 166.77,-155.68 151.5,-140 139.16,-127.32 129.37,-109.96 122.69,-95.83"/>
<polygon fill="#63b8ff" stroke="#63b8ff" points="125.9,-94.43 118.62,-86.72 119.5,-97.28 125.9,-94.43"/>
</g>
<!-- Node3&#45;&gt;Node12 -->
<g id="edge12" class="edge">
<title>Node3&#45;&gt;Node12</title>
<path fill="none" stroke="#63b8ff" d="M265.77,-176.57C311.42,-167.57 386.17,-152.84 437.72,-142.69"/>
<polygon fill="#63b8ff" stroke="#63b8ff" points="438.38,-146.12 447.51,-140.76 437.02,-139.26 438.38,-146.12"/>
</g>
<!-- Node17 -->
<g id="node17" class="node">
<title>Node17</title>
<g id="a_node17"><a xlink:href="interval_8h.html" target="_top" xlink:title=" ">
<polygon fill="white" stroke="#666666" points="290.5,-140 160.5,-140 160.5,-121 290.5,-121 290.5,-140"/>
<text text-anchor="middle" x="225.5" y="-128" font-family="Helvetica,sans-Serif" font-size="10.00">HealthGPS.Core/interval.h</text>
</a>
</g>
</g>
<!-- Node3&#45;&gt;Node17 -->
<g id="edge20" class="edge">
<title>Node3&#45;&gt;Node17</title>
<path fill="none" stroke="#63b8ff" d="M225.5,-175.75C225.5,-169.27 225.5,-160.16 225.5,-151.9"/>
<polygon fill="#63b8ff" stroke="#63b8ff" points="229,-151.96 225.5,-141.96 222,-151.96 229,-151.96"/>
</g>
<!-- Node7 -->
<g id="node7" class="node">
<title>Node7</title>
<g id="a_node7"><a xlink:title=" ">
<polygon fill="#e0e0e0" stroke="#999999" points="405.5,-79.5 363.5,-79.5 363.5,-60.5 405.5,-60.5 405.5,-79.5"/>
<text text-anchor="middle" x="384.5" y="-67.5" font-family="Helvetica,sans-Serif" font-size="10.00">vector</text>
</a>
</g>
</g>
<!-- Node6&#45;&gt;Node7 -->
<g id="edge6" class="edge">
<title>Node6&#45;&gt;Node7</title>
<path fill="none" stroke="#63b8ff" d="M363.19,-120.87C366.62,-112.83 371.86,-100.57 376.29,-90.22"/>
<polygon fill="#63b8ff" stroke="#63b8ff" points="379.49,-91.63 380.2,-81.06 373.05,-88.88 379.49,-91.63"/>
</g>
<!-- Node8 -->
<g id="node8" class="node">
<title>Node8</title>
<g id="a_node8"><a xlink:title=" ">
<polygon fill="#e0e0e0" stroke="#999999" points="483,-79.5 424,-79.5 424,-60.5 483,-60.5 483,-79.5"/>
<text text-anchor="middle" x="453.5" y="-67.5" font-family="Helvetica,sans-Serif" font-size="10.00">stdexcept</text>
</a>
</g>
</g>
<!-- Node6&#45;&gt;Node8 -->
<g id="edge7" class="edge">
<title>Node6&#45;&gt;Node8</title>
<path fill="none" stroke="#63b8ff" d="M373.78,-120.62C388.55,-111.42 411.87,-96.91 429.49,-85.94"/>
<polygon fill="#63b8ff" stroke="#63b8ff" points="431.16,-89.02 437.8,-80.77 427.46,-83.08 431.16,-89.02"/>
</g>
<!-- Node6&#45;&gt;Node9 -->
<g id="edge8" class="edge">
<title>Node6&#45;&gt;Node9</title>
<path fill="none" stroke="#63b8ff" d="M321.72,-120.55C285.34,-111.94 229.38,-98.68 184.49,-88.05"/>
<polygon fill="#63b8ff" stroke="#63b8ff" points="185.34,-84.66 174.8,-85.76 183.73,-91.47 185.34,-84.66"/>
</g>
<!-- Node10 -->
<g id="node10" class="node">
<title>Node10</title>
<g id="a_node10"><a xlink:title=" ">
<polygon fill="#e0e0e0" stroke="#999999" points="179.5,-19 117.5,-19 117.5,0 179.5,0 179.5,-19"/>
<text text-anchor="middle" x="148.5" y="-7" font-family="Helvetica,sans-Serif" font-size="10.00">type_traits</text>
</a>
</g>
</g>
<!-- Node9&#45;&gt;Node10 -->
<g id="edge9" class="edge">
<title>Node9&#45;&gt;Node10</title>
<path fill="none" stroke="#63b8ff" d="M121.4,-54.54C126.2,-46.74 132.18,-37.03 137.29,-28.71"/>
<polygon fill="#63b8ff" stroke="#63b8ff" points="140.11,-30.82 142.37,-20.46 134.15,-27.15 140.11,-30.82"/>
</g>
<!-- Node11 -->
<g id="node11" class="node">
<title>Node11</title>
<g id="a_node11"><a xlink:title=" ">
<polygon fill="#e0e0e0" stroke="#999999" points="99.5,-19 53.5,-19 53.5,0 99.5,0 99.5,-19"/>
<text text-anchor="middle" x="76.5" y="-7" font-family="Helvetica,sans-Serif" font-size="10.00">cstdint</text>
</a>
</g>
</g>
<!-- Node9&#45;&gt;Node11 -->
<g id="edge10" class="edge">
<title>Node9&#45;&gt;Node11</title>
<path fill="none" stroke="#63b8ff" d="M103.6,-54.54C98.8,-46.74 92.82,-37.03 87.71,-28.71"/>
<polygon fill="#63b8ff" stroke="#63b8ff" points="90.85,-27.15 82.63,-20.46 84.89,-30.82 90.85,-27.15"/>
</g>
<!-- Node12&#45;&gt;Node7 -->
<g id="edge15" class="edge">
<title>Node12&#45;&gt;Node7</title>
<path fill="none" stroke="#63b8ff" d="M477.79,-120.62C460.19,-111.25 432.19,-96.36 411.45,-85.33"/>
<polygon fill="#63b8ff" stroke="#63b8ff" points="413.17,-82.28 402.7,-80.68 409.89,-88.46 413.17,-82.28"/>
</g>
<!-- Node12&#45;&gt;Node8 -->
<g id="edge17" class="edge">
<title>Node12&#45;&gt;Node8</title>
<path fill="none" stroke="#63b8ff" d="M488.45,-120.87C482.58,-112.49 473.48,-99.51 466.04,-88.89"/>
<polygon fill="#63b8ff" stroke="#63b8ff" points="469.05,-87.09 460.44,-80.91 463.32,-91.1 469.05,-87.09"/>
</g>
<!-- Node12&#45;&gt;Node9 -->
<g id="edge13" class="edge">
<title>Node12&#45;&gt;Node9</title>
<path fill="none" stroke="#63b8ff" d="M428.29,-121.15C367.56,-113.23 274.83,-100.54 185.13,-85.39"/>
<polygon fill="#63b8ff" stroke="#63b8ff" points="185.86,-81.97 175.42,-83.74 184.69,-88.87 185.86,-81.97"/>
</g>
<!-- Node13 -->
<g id="node13" class="node">
<title>Node13</title>
<g id="a_node13"><a xlink:title=" ">
<polygon fill="#e0e0e0" stroke="#999999" points="553.5,-79.5 501.5,-79.5 501.5,-60.5 553.5,-60.5 553.5,-79.5"/>
<text text-anchor="middle" x="527.5" y="-67.5" font-family="Helvetica,sans-Serif" font-size="10.00">memory</text>
</a>
</g>
</g>
<!-- Node12&#45;&gt;Node13 -->
<g id="edge14" class="edge">
<title>Node12&#45;&gt;Node13</title>
<path fill="none" stroke="#63b8ff" d="M499.37,-120.87C504,-112.66 511.12,-100.04 517.03,-89.55"/>
<polygon fill="#63b8ff" stroke="#63b8ff" points="520,-91.41 521.87,-80.99 513.91,-87.98 520,-91.41"/>
</g>
<!-- Node14 -->
<g id="node14" class="node">
<title>Node14</title>
<g id="a_node14"><a xlink:title=" ">
<polygon fill="#e0e0e0" stroke="#999999" points="627.5,-79.5 571.5,-79.5 571.5,-60.5 627.5,-60.5 627.5,-79.5"/>
<text text-anchor="middle" x="599.5" y="-67.5" font-family="Helvetica,sans-Serif" font-size="10.00">algorithm</text>
</a>
</g>
</g>
<!-- Node12&#45;&gt;Node14 -->
<g id="edge16" class="edge">
<title>Node12&#45;&gt;Node14</title>
<path fill="none" stroke="#63b8ff" d="M510.45,-120.62C527.18,-111.29 553.73,-96.5 573.5,-85.49"/>
<polygon fill="#63b8ff" stroke="#63b8ff" points="575.05,-88.63 582.08,-80.71 571.64,-82.51 575.05,-88.63"/>
</g>
<!-- Node15 -->
<g id="node15" class="node">
<title>Node15</title>
<g id="a_node15"><a xlink:title=" ">
<polygon fill="#e0e0e0" stroke="#999999" points="697.5,-79.5 645.5,-79.5 645.5,-60.5 697.5,-60.5 697.5,-79.5"/>
<text text-anchor="middle" x="671.5" y="-67.5" font-family="Helvetica,sans-Serif" font-size="10.00">sstream</text>
</a>
</g>
</g>
<!-- Node12&#45;&gt;Node15 -->
<g id="edge18" class="edge">
<title>Node12&#45;&gt;Node15</title>
<path fill="none" stroke="#63b8ff" d="M525.47,-120.54C554.39,-112 598.65,-98.48 636.5,-85 637.44,-84.66 638.4,-84.32 639.36,-83.96"/>
<polygon fill="#63b8ff" stroke="#63b8ff" points="640.25,-87.37 648.34,-80.54 637.75,-80.83 640.25,-87.37"/>
</g>
<!-- Node16 -->
<g id="node16" class="node">
<title>Node16</title>
<g id="a_node16"><a xlink:title=" ">
<polygon fill="#e0e0e0" stroke="#999999" points="345.5,-79.5 277.5,-79.5 277.5,-60.5 345.5,-60.5 345.5,-79.5"/>
<text text-anchor="middle" x="311.5" y="-67.5" font-family="Helvetica,sans-Serif" font-size="10.00">fmt/format.h</text>
</a>
</g>
</g>
<!-- Node12&#45;&gt;Node16 -->
<g id="edge19" class="edge">
<title>Node12&#45;&gt;Node16</title>
<path fill="none" stroke="#63b8ff" d="M466.06,-120.52C437.76,-111.58 393.1,-97.42 354.5,-85 352.91,-84.49 351.29,-83.97 349.65,-83.44"/>
<polygon fill="#63b8ff" stroke="#63b8ff" points="350.82,-80.14 340.23,-80.38 348.66,-86.8 350.82,-80.14"/>
</g>
<!-- Node17&#45;&gt;Node9 -->
<g id="edge21" class="edge">
<title>Node17&#45;&gt;Node9</title>
<path fill="none" stroke="#63b8ff" d="M208.34,-120.62C193.06,-112.7 170.15,-100.85 150.57,-90.71"/>
<polygon fill="#63b8ff" stroke="#63b8ff" points="152.23,-87.62 141.74,-86.14 149.01,-93.84 152.23,-87.62"/>
</g>
<!-- Node17&#45;&gt;Node16 -->
<g id="edge25" class="edge">
<title>Node17&#45;&gt;Node16</title>
<path fill="none" stroke="#63b8ff" d="M238.56,-120.62C251.95,-111.51 273.02,-97.18 289.08,-86.25"/>
<polygon fill="#63b8ff" stroke="#63b8ff" points="290.76,-89.34 297.06,-80.82 286.83,-83.55 290.76,-89.34"/>
</g>
<!-- Node18 -->
<g id="node18" class="node">
<title>Node18</title>
<g id="a_node18"><a xlink:href="string__util_8h.html" target="_top" xlink:title=" ">
<polygon fill="white" stroke="#666666" points="259,-79.5 192,-79.5 192,-60.5 259,-60.5 259,-79.5"/>
<text text-anchor="middle" x="225.5" y="-67.5" font-family="Helvetica,sans-Serif" font-size="10.00">string_util.h</text>
</a>
</g>
</g>
<!-- Node17&#45;&gt;Node18 -->
<g id="edge22" class="edge">
<title>Node17&#45;&gt;Node18</title>
<path fill="none" stroke="#63b8ff" d="M225.5,-120.87C225.5,-113 225.5,-101.1 225.5,-90.89"/>
<polygon fill="#63b8ff" stroke="#63b8ff" points="229,-91.18 225.5,-81.18 222,-91.18 229,-91.18"/>
</g>
<!-- Node19 -->
<g id="node19" class="node">
<title>Node19</title>
<g id="a_node19"><a xlink:title=" ">
<polygon fill="#e0e0e0" stroke="#999999" points="633,-19 592,-19 592,0 633,0 633,-19"/>
<text text-anchor="middle" x="612.5" y="-7" font-family="Helvetica,sans-Serif" font-size="10.00">string</text>
</a>
</g>
</g>
<!-- Node18&#45;&gt;Node19 -->
<g id="edge23" class="edge">
<title>Node18&#45;&gt;Node19</title>
<path fill="none" stroke="#63b8ff" d="M250.29,-60.06C256.2,-58.17 262.53,-56.35 268.5,-55 381.68,-29.49 519.33,-17.17 580.53,-12.64"/>
<polygon fill="#63b8ff" stroke="#63b8ff" points="580.48,-16.15 590.21,-11.94 579.98,-9.17 580.48,-16.15"/>
</g>
<!-- Node20 -->
<g id="node20" class="node">
<title>Node20</title>
<g id="a_node20"><a xlink:title=" ">
<polygon fill="#e0e0e0" stroke="#999999" points="361.5,-19 303.5,-19 303.5,0 361.5,0 361.5,-19"/>
<text text-anchor="middle" x="332.5" y="-7" font-family="Helvetica,sans-Serif" font-size="10.00">functional</text>
</a>
</g>
</g>
<!-- Node18&#45;&gt;Node20 -->
<g id="edge24" class="edge">
<title>Node18&#45;&gt;Node20</title>
<path fill="none" stroke="#63b8ff" d="M241.75,-60.12C258.8,-50.79 285.86,-36 306.01,-24.99"/>
<polygon fill="#63b8ff" stroke="#63b8ff" points="307.67,-28.06 314.77,-20.19 304.31,-21.92 307.67,-28.06"/>
</g>
<!-- Node21&#45;&gt;Node19 -->
<g id="edge29" class="edge">
<title>Node21&#45;&gt;Node19</title>
<path fill="none" stroke="#63b8ff" d="M757.53,-60.12C727.11,-49.71 676.72,-32.47 644.07,-21.3"/>
<polygon fill="#63b8ff" stroke="#63b8ff" points="645.35,-18.04 634.76,-18.11 643.08,-24.66 645.35,-18.04"/>
</g>
<!-- Node21&#45;&gt;Node20 -->
<g id="edge31" class="edge">
<title>Node21&#45;&gt;Node20</title>
<path fill="none" stroke="#63b8ff" d="M736.75,-60.03C726.78,-58.25 716.31,-56.47 706.5,-55 585.47,-36.81 441.49,-21.43 372.82,-14.48"/>
<polygon fill="#63b8ff" stroke="#63b8ff" points="373.48,-11.03 363.18,-13.51 372.78,-17.99 373.48,-11.03"/>
</g>
<!-- Node22 -->
<g id="node22" class="node">
<title>Node22</title>
<g id="a_node22"><a xlink:title=" ">
<polygon fill="#e0e0e0" stroke="#999999" points="809.5,-19 757.5,-19 757.5,0 809.5,0 809.5,-19"/>
<text text-anchor="middle" x="783.5" y="-7" font-family="Helvetica,sans-Serif" font-size="10.00">ostream</text>
</a>
</g>
</g>
<!-- Node21&#45;&gt;Node22 -->
<g id="edge30" class="edge">
<title>Node21&#45;&gt;Node22</title>
<path fill="none" stroke="#63b8ff" d="M783.5,-60.37C783.5,-52.5 783.5,-40.6 783.5,-30.39"/>
<polygon fill="#63b8ff" stroke="#63b8ff" points="787,-30.68 783.5,-20.68 780,-30.68 787,-30.68"/>
</g>
</g>
</svg>
