<?xml version="1.0" encoding="UTF-8" standalone="no"?>
<!DOCTYPE svg PUBLIC "-//W3C//DTD SVG 1.1//EN"
 "http://www.w3.org/Graphics/SVG/1.1/DTD/svg11.dtd">
<!-- Generated by graphviz version 2.43.0 (0)
 -->
<!-- Title: HealthGPS/relative_risk.h Pages: 1 -->
<svg width="1938pt" height="486pt"
 viewBox="0.00 0.00 1938.43 486.00" xmlns="http://www.w3.org/2000/svg" xmlns:xlink="http://www.w3.org/1999/xlink">
<g id="graph0" class="graph" transform="scale(1 1) rotate(0) translate(4 482)">
<title>HealthGPS/relative_risk.h</title>
<!-- Node1 -->
<g id="node1" class="node">
<title>Node1</title>
<g id="a_node1"><a xlink:title=" ">
<polygon fill="#bfbfbf" stroke="black" points="230.18,-447.5 230.18,-477.5 339.18,-477.5 339.18,-447.5 230.18,-447.5"/>
<text text-anchor="start" x="238.18" y="-465.5" font-family="Helvetica,sans-Serif" font-size="10.00">HealthGPS/relative</text>
<text text-anchor="middle" x="284.68" y="-454.5" font-family="Helvetica,sans-Serif" font-size="10.00">_risk.h</text>
</a>
</g>
</g>
<!-- Node2 -->
<g id="node2" class="node">
<title>Node2</title>
<g id="a_node2"><a xlink:href="converter_8h.html" target="_top" xlink:title=" ">
<polygon fill="none" stroke="black" points="63.68,-319 63.68,-338 189.68,-338 189.68,-319 63.68,-319"/>
<text text-anchor="middle" x="126.68" y="-326" font-family="Helvetica,sans-Serif" font-size="10.00">HealthGPS/converter.h</text>
</a>
</g>
</g>
<!-- Node1&#45;&gt;Node2 -->
<g id="edge1" class="edge">
<title>Node1&#45;&gt;Node2</title>
<path fill="none" stroke="midnightblue" d="M241.71,-443.09C224.82,-434.7 205.87,-423.77 190.68,-411 164.24,-388.77 141.46,-354.04 131.72,-338.07"/>
<polygon fill="midnightblue" stroke="midnightblue" points="240.32,-446.31 250.85,-447.49 243.35,-440 240.32,-446.31"/>
</g>
<!-- Node8 -->
<g id="node8" class="node">
<title>Node8</title>
<g id="a_node8"><a xlink:href="disease__definition_8h.html" target="_top" xlink:title=" ">
<polygon fill="none" stroke="black" points="200.18,-386 200.18,-405 369.18,-405 369.18,-386 200.18,-386"/>
<text text-anchor="middle" x="284.68" y="-393" font-family="Helvetica,sans-Serif" font-size="10.00">HealthGPS/disease_definition.h</text>
</a>
</g>
</g>
<!-- Node1&#45;&gt;Node8 -->
<g id="edge7" class="edge">
<title>Node1&#45;&gt;Node8</title>
<path fill="none" stroke="midnightblue" d="M284.68,-437.25C284.68,-426.02 284.68,-413.38 284.68,-405.19"/>
<polygon fill="midnightblue" stroke="midnightblue" points="281.18,-437.4 284.68,-447.4 288.18,-437.4 281.18,-437.4"/>
</g>
<!-- Node34 -->
<g id="node34" class="node">
<title>Node34</title>
<g id="a_node34"><a xlink:href="relative__risk_8cpp.html" target="_top" xlink:title=" ">
<polygon fill="none" stroke="black" points="387.18,-380.5 387.18,-410.5 496.18,-410.5 496.18,-380.5 387.18,-380.5"/>
<text text-anchor="start" x="395.18" y="-398.5" font-family="Helvetica,sans-Serif" font-size="10.00">HealthGPS/relative</text>
<text text-anchor="middle" x="441.68" y="-387.5" font-family="Helvetica,sans-Serif" font-size="10.00">_risk.cpp</text>
</a>
</g>
</g>
<!-- Node1&#45;&gt;Node34 -->
<g id="edge49" class="edge">
<title>Node1&#45;&gt;Node34</title>
<path fill="none" stroke="midnightblue" d="M328.05,-443.54C353.17,-433.14 384.34,-420.24 407.68,-410.58"/>
<polygon fill="midnightblue" stroke="midnightblue" points="326.65,-440.34 318.74,-447.4 329.32,-446.8 326.65,-440.34"/>
</g>
<!-- Node3 -->
<g id="node3" class="node">
<title>Node3</title>
<g id="a_node3"><a xlink:href="analysis__module_8cpp.html" target="_top" xlink:title=" ">
<polygon fill="none" stroke="black" points="72.68,-179.5 72.68,-209.5 184.68,-209.5 184.68,-179.5 72.68,-179.5"/>
<text text-anchor="start" x="80.68" y="-197.5" font-family="Helvetica,sans-Serif" font-size="10.00">HealthGPS/analysis</text>
<text text-anchor="middle" x="128.68" y="-186.5" font-family="Helvetica,sans-Serif" font-size="10.00">_module.cpp</text>
</a>
</g>
</g>
<!-- Node2&#45;&gt;Node3 -->
<g id="edge2" class="edge">
<title>Node2&#45;&gt;Node3</title>
<path fill="none" stroke="midnightblue" d="M71.17,-315.83C50.08,-308.4 28.15,-296.37 15.68,-277 8.22,-265.41 8.18,-257.56 15.68,-246 28.48,-226.26 51,-214.16 72.59,-206.79"/>
<polygon fill="midnightblue" stroke="midnightblue" points="70.17,-319.19 80.76,-318.93 72.32,-312.52 70.17,-319.19"/>
</g>
<!-- Node4 -->
<g id="node4" class="node">
<title>Node4</title>
<g id="a_node4"><a xlink:href="converter_8cpp.html" target="_top" xlink:title=" ">
<polygon fill="none" stroke="black" points="58.18,-252 58.18,-271 195.18,-271 195.18,-252 58.18,-252"/>
<text text-anchor="middle" x="126.68" y="-259" font-family="Helvetica,sans-Serif" font-size="10.00">HealthGPS/converter.cpp</text>
</a>
</g>
</g>
<!-- Node2&#45;&gt;Node4 -->
<g id="edge3" class="edge">
<title>Node2&#45;&gt;Node4</title>
<path fill="none" stroke="midnightblue" d="M126.68,-308.54C126.68,-296.17 126.68,-280.62 126.68,-271.13"/>
<polygon fill="midnightblue" stroke="midnightblue" points="123.18,-308.73 126.68,-318.73 130.18,-308.73 123.18,-308.73"/>
</g>
<!-- Node5 -->
<g id="node5" class="node">
<title>Node5</title>
<g id="a_node5"><a xlink:href="demographic_8cpp.html" target="_top" xlink:title=" ">
<polygon fill="none" stroke="black" points="566.18,-185 566.18,-204 721.18,-204 721.18,-185 566.18,-185"/>
<text text-anchor="middle" x="643.68" y="-192" font-family="Helvetica,sans-Serif" font-size="10.00">HealthGPS/demographic.cpp</text>
</a>
</g>
</g>
<!-- Node2&#45;&gt;Node5 -->
<g id="edge4" class="edge">
<title>Node2&#45;&gt;Node5</title>
<path fill="none" stroke="midnightblue" d="M98.27,-314.24C67.68,-298.24 26.22,-270.44 48.68,-246 83,-208.64 412.72,-198.89 566.02,-196.37"/>
<polygon fill="midnightblue" stroke="midnightblue" points="96.83,-317.43 107.33,-318.81 99.98,-311.18 96.83,-317.43"/>
</g>
<!-- Node6 -->
<g id="node6" class="node">
<title>Node6</title>
<g id="a_node6"><a xlink:href="healthgps_8cpp.html" target="_top" xlink:title=" ">
<polygon fill="none" stroke="black" points="443.68,-56.5 443.68,-75.5 583.68,-75.5 583.68,-56.5 443.68,-56.5"/>
<text text-anchor="middle" x="513.68" y="-63.5" font-family="Helvetica,sans-Serif" font-size="10.00">HealthGPS/healthgps.cpp</text>
</a>
</g>
</g>
<!-- Node2&#45;&gt;Node6 -->
<g id="edge5" class="edge">
<title>Node2&#45;&gt;Node6</title>
<path fill="none" stroke="midnightblue" d="M63.81,-315.96C41.97,-308.61 19.69,-296.6 6.68,-277 -23.34,-231.8 63.43,-179.15 63.68,-179 183.6,-104.66 350.22,-79.62 443.4,-71.21"/>
<polygon fill="midnightblue" stroke="midnightblue" points="62.87,-319.33 73.46,-318.93 64.93,-312.64 62.87,-319.33"/>
</g>
<!-- Node7 -->
<g id="node7" class="node">
<title>Node7</title>
<g id="a_node7"><a xlink:href="repository_8cpp.html" target="_top" xlink:title=" ">
<polygon fill="none" stroke="black" points="718.68,-252 718.68,-271 858.68,-271 858.68,-252 718.68,-252"/>
<text text-anchor="middle" x="788.68" y="-259" font-family="Helvetica,sans-Serif" font-size="10.00">HealthGPS/repository.cpp</text>
</a>
</g>
</g>
<!-- Node2&#45;&gt;Node7 -->
<g id="edge6" class="edge">
<title>Node2&#45;&gt;Node7</title>
<path fill="none" stroke="midnightblue" d="M177.39,-317.1C186.13,-315.55 195.14,-314.1 203.68,-313 426.83,-284.13 485.43,-305.11 708.68,-277 721,-275.45 734.31,-273.25 746.46,-271.03"/>
<polygon fill="midnightblue" stroke="midnightblue" points="176.5,-313.7 167.3,-318.95 177.77,-320.58 176.5,-313.7"/>
</g>
<!-- Node8&#45;&gt;Node2 -->
<g id="edge8" class="edge">
<title>Node8&#45;&gt;Node2</title>
<path fill="none" stroke="midnightblue" d="M254.17,-381.95C222.88,-369.08 175.06,-349.4 147.75,-338.17"/>
<polygon fill="midnightblue" stroke="midnightblue" points="253.12,-385.3 263.7,-385.87 255.78,-378.83 253.12,-385.3"/>
</g>
<!-- Node9 -->
<g id="node9" class="node">
<title>Node9</title>
<g id="a_node9"><a xlink:href="default__cancer__model_8h.html" target="_top" xlink:title=" ">
<polygon fill="none" stroke="black" points="213.18,-313.5 213.18,-343.5 356.18,-343.5 356.18,-313.5 213.18,-313.5"/>
<text text-anchor="start" x="221.18" y="-331.5" font-family="Helvetica,sans-Serif" font-size="10.00">HealthGPS/default_cancer</text>
<text text-anchor="middle" x="284.68" y="-320.5" font-family="Helvetica,sans-Serif" font-size="10.00">_model.h</text>
</a>
</g>
</g>
<!-- Node8&#45;&gt;Node9 -->
<g id="edge9" class="edge">
<title>Node8&#45;&gt;Node9</title>
<path fill="none" stroke="midnightblue" d="M284.68,-375.41C284.68,-365.22 284.68,-352.9 284.68,-343.59"/>
<polygon fill="midnightblue" stroke="midnightblue" points="281.18,-375.73 284.68,-385.73 288.18,-375.73 281.18,-375.73"/>
</g>
<!-- Node13 -->
<g id="node13" class="node">
<title>Node13</title>
<g id="a_node13"><a xlink:href="default__disease__model_8h.html" target="_top" xlink:title=" ">
<polygon fill="none" stroke="black" points="379.18,-313.5 379.18,-343.5 528.18,-343.5 528.18,-313.5 379.18,-313.5"/>
<text text-anchor="start" x="387.18" y="-331.5" font-family="Helvetica,sans-Serif" font-size="10.00">HealthGPS/default_disease</text>
<text text-anchor="middle" x="453.68" y="-320.5" font-family="Helvetica,sans-Serif" font-size="10.00">_model.h</text>
</a>
</g>
</g>
<!-- Node8&#45;&gt;Node13 -->
<g id="edge14" class="edge">
<title>Node8&#45;&gt;Node13</title>
<path fill="none" stroke="midnightblue" d="M316.65,-382.2C345.29,-371.19 387.27,-355.04 417.2,-343.53"/>
<polygon fill="midnightblue" stroke="midnightblue" points="315.2,-379.01 307.12,-385.87 317.71,-385.55 315.2,-379.01"/>
</g>
<!-- Node15 -->
<g id="node15" class="node">
<title>Node15</title>
<g id="a_node15"><a xlink:href="repository_8h.html" target="_top" xlink:title=" ">
<polygon fill="none" stroke="black" points="1163.68,-319 1163.68,-338 1291.68,-338 1291.68,-319 1163.68,-319"/>
<text text-anchor="middle" x="1227.68" y="-326" font-family="Helvetica,sans-Serif" font-size="10.00">HealthGPS/repository.h</text>
</a>
</g>
</g>
<!-- Node8&#45;&gt;Node15 -->
<g id="edge17" class="edge">
<title>Node8&#45;&gt;Node15</title>
<path fill="none" stroke="midnightblue" d="M343.91,-384.4C355.1,-382.74 366.73,-381.18 377.68,-380 670.18,-348.58 1021.55,-335.49 1163.53,-331.22"/>
<polygon fill="midnightblue" stroke="midnightblue" points="343.15,-380.98 333.79,-385.95 344.21,-387.9 343.15,-380.98"/>
</g>
<!-- Node9&#45;&gt;Node4 -->
<g id="edge10" class="edge">
<title>Node9&#45;&gt;Node4</title>
<path fill="none" stroke="midnightblue" d="M240.82,-309.46C210.3,-296.9 170.98,-280.72 147.36,-271.01"/>
<polygon fill="midnightblue" stroke="midnightblue" points="239.81,-312.83 250.39,-313.4 242.48,-306.35 239.81,-312.83"/>
</g>
<!-- Node10 -->
<g id="node10" class="node">
<title>Node10</title>
<g id="a_node10"><a xlink:href="default__cancer__model_8cpp.html" target="_top" xlink:title=" ">
<polygon fill="none" stroke="black" points="213.18,-246.5 213.18,-276.5 356.18,-276.5 356.18,-246.5 213.18,-246.5"/>
<text text-anchor="start" x="221.18" y="-264.5" font-family="Helvetica,sans-Serif" font-size="10.00">HealthGPS/default_cancer</text>
<text text-anchor="middle" x="284.68" y="-253.5" font-family="Helvetica,sans-Serif" font-size="10.00">_model.cpp</text>
</a>
</g>
</g>
<!-- Node9&#45;&gt;Node10 -->
<g id="edge11" class="edge">
<title>Node9&#45;&gt;Node10</title>
<path fill="none" stroke="midnightblue" d="M284.68,-303.11C284.68,-294.15 284.68,-284.32 284.68,-276.58"/>
<polygon fill="midnightblue" stroke="midnightblue" points="281.18,-303.4 284.68,-313.4 288.18,-303.4 281.18,-303.4"/>
</g>
<!-- Node11 -->
<g id="node11" class="node">
<title>Node11</title>
<g id="a_node11"><a xlink:href="disease__registry_8h.html" target="_top" xlink:title=" ">
<polygon fill="none" stroke="black" points="374.18,-252 374.18,-271 533.18,-271 533.18,-252 374.18,-252"/>
<text text-anchor="middle" x="453.68" y="-259" font-family="Helvetica,sans-Serif" font-size="10.00">HealthGPS/disease_registry.h</text>
</a>
</g>
</g>
<!-- Node9&#45;&gt;Node11 -->
<g id="edge12" class="edge">
<title>Node9&#45;&gt;Node11</title>
<path fill="none" stroke="midnightblue" d="M330.74,-309.78C363.51,-297.18 406.08,-280.81 431.56,-271.01"/>
<polygon fill="midnightblue" stroke="midnightblue" points="329.43,-306.54 321.35,-313.4 331.94,-313.07 329.43,-306.54"/>
</g>
<!-- Node12 -->
<g id="node12" class="node">
<title>Node12</title>
<g id="a_node12"><a xlink:href="disease_8cpp.html" target="_top" xlink:title=" ">
<polygon fill="none" stroke="black" points="921.18,-185 921.18,-204 1050.18,-204 1050.18,-185 921.18,-185"/>
<text text-anchor="middle" x="985.68" y="-192" font-family="Helvetica,sans-Serif" font-size="10.00">HealthGPS/disease.cpp</text>
</a>
</g>
</g>
<!-- Node11&#45;&gt;Node12 -->
<g id="edge13" class="edge">
<title>Node11&#45;&gt;Node12</title>
<path fill="none" stroke="midnightblue" d="M512.85,-250.33C522.48,-248.8 532.34,-247.3 541.68,-246 676.15,-227.29 834.25,-210.56 920.84,-201.85"/>
<polygon fill="midnightblue" stroke="midnightblue" points="512.26,-246.88 502.95,-251.94 513.38,-253.79 512.26,-246.88"/>
</g>
<!-- Node13&#45;&gt;Node11 -->
<g id="edge16" class="edge">
<title>Node13&#45;&gt;Node11</title>
<path fill="none" stroke="midnightblue" d="M453.68,-303.25C453.68,-292.02 453.68,-279.38 453.68,-271.19"/>
<polygon fill="midnightblue" stroke="midnightblue" points="450.18,-303.4 453.68,-313.4 457.18,-303.4 450.18,-303.4"/>
</g>
<!-- Node14 -->
<g id="node14" class="node">
<title>Node14</title>
<g id="a_node14"><a xlink:href="default__disease__model_8cpp.html" target="_top" xlink:title=" ">
<polygon fill="none" stroke="black" points="551.18,-246.5 551.18,-276.5 700.18,-276.5 700.18,-246.5 551.18,-246.5"/>
<text text-anchor="start" x="559.18" y="-264.5" font-family="Helvetica,sans-Serif" font-size="10.00">HealthGPS/default_disease</text>
<text text-anchor="middle" x="625.68" y="-253.5" font-family="Helvetica,sans-Serif" font-size="10.00">_model.cpp</text>
</a>
</g>
</g>
<!-- Node13&#45;&gt;Node14 -->
<g id="edge15" class="edge">
<title>Node13&#45;&gt;Node14</title>
<path fill="none" stroke="midnightblue" d="M500.47,-309.82C528.11,-299.37 562.64,-286.32 588.43,-276.58"/>
<polygon fill="midnightblue" stroke="midnightblue" points="499.12,-306.59 491,-313.4 501.59,-313.13 499.12,-306.59"/>
</g>
<!-- Node15&#45;&gt;Node7 -->
<g id="edge39" class="edge">
<title>Node15&#45;&gt;Node7</title>
<path fill="none" stroke="midnightblue" d="M1153.5,-318.02C1080.61,-308.49 966.3,-292.96 867.68,-277 856.53,-275.2 844.52,-273.08 833.32,-271.03"/>
<polygon fill="midnightblue" stroke="midnightblue" points="1153.13,-321.51 1163.5,-319.33 1154.04,-314.56 1153.13,-321.51"/>
</g>
<!-- Node16 -->
<g id="node16" class="node">
<title>Node16</title>
<g id="a_node16"><a xlink:href="analysis__module_8h.html" target="_top" xlink:title=" ">
<polygon fill="none" stroke="black" points="876.68,-246.5 876.68,-276.5 988.68,-276.5 988.68,-246.5 876.68,-246.5"/>
<text text-anchor="start" x="884.68" y="-264.5" font-family="Helvetica,sans-Serif" font-size="10.00">HealthGPS/analysis</text>
<text text-anchor="middle" x="932.68" y="-253.5" font-family="Helvetica,sans-Serif" font-size="10.00">_module.h</text>
</a>
</g>
</g>
<!-- Node15&#45;&gt;Node16 -->
<g id="edge18" class="edge">
<title>Node15&#45;&gt;Node16</title>
<path fill="none" stroke="midnightblue" d="M1178.78,-316.81C1132.21,-306.62 1060.15,-290.83 997.68,-277 994.74,-276.35 991.73,-275.68 988.69,-275.01"/>
<polygon fill="midnightblue" stroke="midnightblue" points="1178.08,-320.24 1188.6,-318.96 1179.58,-313.41 1178.08,-320.24"/>
</g>
<!-- Node24 -->
<g id="node24" class="node">
<title>Node24</title>
<g id="a_node24"><a xlink:href="demographic_8h.html" target="_top" xlink:title=" ">
<polygon fill="none" stroke="black" points="1006.68,-252 1006.68,-271 1150.68,-271 1150.68,-252 1006.68,-252"/>
<text text-anchor="middle" x="1078.68" y="-259" font-family="Helvetica,sans-Serif" font-size="10.00">HealthGPS/demographic.h</text>
</a>
</g>
</g>
<!-- Node15&#45;&gt;Node24 -->
<g id="edge30" class="edge">
<title>Node15&#45;&gt;Node24</title>
<path fill="none" stroke="midnightblue" d="M1198.52,-314.78C1169.01,-301.91 1124.19,-282.35 1098.55,-271.17"/>
<polygon fill="midnightblue" stroke="midnightblue" points="1197.33,-318.08 1207.89,-318.87 1200.13,-311.66 1197.33,-318.08"/>
</g>
<!-- Node25 -->
<g id="node25" class="node">
<title>Node25</title>
<g id="a_node25"><a xlink:href="HealthGPS_2disease_8h.html" target="_top" xlink:title=" ">
<polygon fill="none" stroke="black" points="1168.68,-252 1168.68,-271 1286.68,-271 1286.68,-252 1168.68,-252"/>
<text text-anchor="middle" x="1227.68" y="-259" font-family="Helvetica,sans-Serif" font-size="10.00">HealthGPS/disease.h</text>
</a>
</g>
</g>
<!-- Node15&#45;&gt;Node25 -->
<g id="edge33" class="edge">
<title>Node15&#45;&gt;Node25</title>
<path fill="none" stroke="midnightblue" d="M1227.68,-308.54C1227.68,-296.17 1227.68,-280.62 1227.68,-271.13"/>
<polygon fill="midnightblue" stroke="midnightblue" points="1224.18,-308.73 1227.68,-318.73 1231.18,-308.73 1224.18,-308.73"/>
</g>
<!-- Node26 -->
<g id="node26" class="node">
<title>Node26</title>
<g id="a_node26"><a xlink:href="modulefactory_8h.html" target="_top" xlink:title=" ">
<polygon fill="none" stroke="black" points="1442.68,-252 1442.68,-271 1592.68,-271 1592.68,-252 1442.68,-252"/>
<text text-anchor="middle" x="1517.68" y="-259" font-family="Helvetica,sans-Serif" font-size="10.00">HealthGPS/modulefactory.h</text>
</a>
</g>
</g>
<!-- Node15&#45;&gt;Node26 -->
<g id="edge36" class="edge">
<title>Node15&#45;&gt;Node26</title>
<path fill="none" stroke="midnightblue" d="M1275.76,-316.72C1332.86,-303.92 1426.96,-282.83 1479.38,-271.08"/>
<polygon fill="midnightblue" stroke="midnightblue" points="1274.88,-313.33 1265.89,-318.94 1276.41,-320.16 1274.88,-313.33"/>
</g>
<!-- Node28 -->
<g id="node28" class="node">
<title>Node28</title>
<g id="a_node28"><a xlink:href="riskfactor_8h.html" target="_top" xlink:title=" ">
<polygon fill="none" stroke="black" points="1610.68,-252 1610.68,-271 1736.68,-271 1736.68,-252 1610.68,-252"/>
<text text-anchor="middle" x="1673.68" y="-259" font-family="Helvetica,sans-Serif" font-size="10.00">HealthGPS/riskfactor.h</text>
</a>
</g>
</g>
<!-- Node15&#45;&gt;Node28 -->
<g id="edge40" class="edge">
<title>Node15&#45;&gt;Node28</title>
<path fill="none" stroke="midnightblue" d="M1302.1,-318.89C1377.73,-309.8 1498.16,-294.39 1601.68,-277 1612.11,-275.25 1623.35,-273.11 1633.77,-271.01"/>
<polygon fill="midnightblue" stroke="midnightblue" points="1301.24,-315.46 1291.73,-320.13 1302.07,-322.41 1301.24,-315.46"/>
</g>
<!-- Node30 -->
<g id="node30" class="node">
<title>Node30</title>
<g id="a_node30"><a xlink:href="ses__noise__module_8h.html" target="_top" xlink:title=" ">
<polygon fill="none" stroke="black" points="1305.18,-246.5 1305.18,-276.5 1424.18,-276.5 1424.18,-246.5 1305.18,-246.5"/>
<text text-anchor="start" x="1313.18" y="-264.5" font-family="Helvetica,sans-Serif" font-size="10.00">HealthGPS/ses_noise</text>
<text text-anchor="middle" x="1364.68" y="-253.5" font-family="Helvetica,sans-Serif" font-size="10.00">_module.h</text>
</a>
</g>
</g>
<!-- Node15&#45;&gt;Node30 -->
<g id="edge43" class="edge">
<title>Node15&#45;&gt;Node30</title>
<path fill="none" stroke="midnightblue" d="M1255.13,-314.47C1278.29,-303.49 1311.37,-287.79 1335.11,-276.53"/>
<polygon fill="midnightblue" stroke="midnightblue" points="1253.4,-311.42 1245.87,-318.87 1256.41,-317.74 1253.4,-311.42"/>
</g>
<!-- Node32 -->
<g id="node32" class="node">
<title>Node32</title>
<g id="a_node32"><a xlink:href="model__parser_8h.html" target="_top" xlink:title=" ">
<polygon fill="none" stroke="black" points="1771.68,-246.5 1771.68,-276.5 1915.68,-276.5 1915.68,-246.5 1771.68,-246.5"/>
<text text-anchor="start" x="1779.68" y="-264.5" font-family="Helvetica,sans-Serif" font-size="10.00">HealthGPS.Console/model</text>
<text text-anchor="middle" x="1843.68" y="-253.5" font-family="Helvetica,sans-Serif" font-size="10.00">_parser.h</text>
</a>
</g>
</g>
<!-- Node15&#45;&gt;Node32 -->
<g id="edge46" class="edge">
<title>Node15&#45;&gt;Node32</title>
<path fill="none" stroke="midnightblue" d="M1302.06,-321.42C1402.79,-312.92 1588.09,-296.33 1745.68,-277 1754.04,-275.97 1762.8,-274.81 1771.48,-273.6"/>
<polygon fill="midnightblue" stroke="midnightblue" points="1301.66,-317.94 1291.99,-322.27 1302.25,-324.91 1301.66,-317.94"/>
</g>
<!-- Node16&#45;&gt;Node3 -->
<g id="edge19" class="edge">
<title>Node16&#45;&gt;Node3</title>
<path fill="none" stroke="midnightblue" d="M866.42,-245.96C607,-209.1 307.54,-199.14 185.07,-196.45"/>
<polygon fill="midnightblue" stroke="midnightblue" points="866.01,-249.44 876.4,-247.4 867,-242.51 866.01,-249.44"/>
</g>
<!-- Node17 -->
<g id="node17" class="node">
<title>Node17</title>
<g id="a_node17"><a xlink:href="simulation__module_8h.html" target="_top" xlink:title=" ">
<polygon fill="none" stroke="black" points="1159.18,-179.5 1159.18,-209.5 1282.18,-209.5 1282.18,-179.5 1159.18,-179.5"/>
<text text-anchor="start" x="1167.18" y="-197.5" font-family="Helvetica,sans-Serif" font-size="10.00">HealthGPS/simulation</text>
<text text-anchor="middle" x="1220.68" y="-186.5" font-family="Helvetica,sans-Serif" font-size="10.00">_module.h</text>
</a>
</g>
</g>
<!-- Node16&#45;&gt;Node17 -->
<g id="edge20" class="edge">
<title>Node16&#45;&gt;Node17</title>
<path fill="none" stroke="midnightblue" d="M998.92,-245.55C1047.15,-234.66 1112.01,-220.02 1159.12,-209.39"/>
<polygon fill="midnightblue" stroke="midnightblue" points="997.87,-242.2 988.89,-247.81 999.42,-249.03 997.87,-242.2"/>
</g>
<!-- Node18 -->
<g id="node18" class="node">
<title>Node18</title>
<g id="a_node18"><a xlink:href="HealthGPS_2api_8h.html" target="_top" xlink:title=" ">
<polygon fill="none" stroke="black" points="1315.18,-56.5 1315.18,-75.5 1410.18,-75.5 1410.18,-56.5 1315.18,-56.5"/>
<text text-anchor="middle" x="1362.68" y="-63.5" font-family="Helvetica,sans-Serif" font-size="10.00">HealthGPS/api.h</text>
</a>
</g>
</g>
<!-- Node17&#45;&gt;Node18 -->
<g id="edge21" class="edge">
<title>Node17&#45;&gt;Node18</title>
<path fill="none" stroke="midnightblue" d="M1252.41,-173.84C1265.68,-165.05 1280.94,-154.16 1293.68,-143 1318.88,-120.92 1344.28,-90.28 1355.99,-75.57"/>
<polygon fill="midnightblue" stroke="midnightblue" points="1250.5,-170.91 1244.03,-179.3 1254.32,-176.77 1250.5,-170.91"/>
</g>
<!-- Node20 -->
<g id="node20" class="node">
<title>Node20</title>
<g id="a_node20"><a xlink:href="healthgps_8h.html" target="_top" xlink:title=" ">
<polygon fill="none" stroke="black" points="1156.68,-118 1156.68,-137 1284.68,-137 1284.68,-118 1156.68,-118"/>
<text text-anchor="middle" x="1220.68" y="-125" font-family="Helvetica,sans-Serif" font-size="10.00">HealthGPS/healthgps.h</text>
</a>
</g>
</g>
<!-- Node17&#45;&gt;Node20 -->
<g id="edge23" class="edge">
<title>Node17&#45;&gt;Node20</title>
<path fill="none" stroke="midnightblue" d="M1220.68,-169.25C1220.68,-158.02 1220.68,-145.38 1220.68,-137.19"/>
<polygon fill="midnightblue" stroke="midnightblue" points="1217.18,-169.4 1220.68,-179.4 1224.18,-169.4 1217.18,-169.4"/>
</g>
<!-- Node23 -->
<g id="node23" class="node">
<title>Node23</title>
<g id="a_node23"><a xlink:href="simulation__module_8cpp.html" target="_top" xlink:title=" ">
<polygon fill="none" stroke="black" points="1015.18,-112.5 1015.18,-142.5 1138.18,-142.5 1138.18,-112.5 1015.18,-112.5"/>
<text text-anchor="start" x="1023.18" y="-130.5" font-family="Helvetica,sans-Serif" font-size="10.00">HealthGPS/simulation</text>
<text text-anchor="middle" x="1076.68" y="-119.5" font-family="Helvetica,sans-Serif" font-size="10.00">_module.cpp</text>
</a>
</g>
</g>
<!-- Node17&#45;&gt;Node23 -->
<g id="edge29" class="edge">
<title>Node17&#45;&gt;Node23</title>
<path fill="none" stroke="midnightblue" d="M1180.29,-175.27C1157.35,-164.92 1129.08,-152.15 1107.86,-142.58"/>
<polygon fill="midnightblue" stroke="midnightblue" points="1178.88,-178.47 1189.43,-179.4 1181.76,-172.09 1178.88,-178.47"/>
</g>
<!-- Node19 -->
<g id="node19" class="node">
<title>Node19</title>
<g id="a_node19"><a xlink:href="program_8cpp.html" target="_top" xlink:title=" ">
<polygon fill="none" stroke="black" points="1297.18,-0.5 1297.18,-19.5 1472.18,-19.5 1472.18,-0.5 1297.18,-0.5"/>
<text text-anchor="middle" x="1384.68" y="-7.5" font-family="Helvetica,sans-Serif" font-size="10.00">HealthGPS.Console/program.cpp</text>
</a>
</g>
</g>
<!-- Node18&#45;&gt;Node19 -->
<g id="edge22" class="edge">
<title>Node18&#45;&gt;Node19</title>
<path fill="none" stroke="midnightblue" d="M1370.14,-46.69C1373.85,-37.59 1378.15,-27.01 1381.11,-19.75"/>
<polygon fill="midnightblue" stroke="midnightblue" points="1366.84,-45.5 1366.31,-56.08 1373.32,-48.14 1366.84,-45.5"/>
</g>
<!-- Node20&#45;&gt;Node6 -->
<g id="edge25" class="edge">
<title>Node20&#45;&gt;Node6</title>
<path fill="none" stroke="midnightblue" d="M1171.68,-116.02C1163.37,-114.5 1154.8,-113.08 1146.68,-112 943.27,-84.95 700.78,-73.44 583.74,-69.18"/>
<polygon fill="midnightblue" stroke="midnightblue" points="1171.17,-119.49 1181.65,-117.92 1172.49,-112.61 1171.17,-119.49"/>
</g>
<!-- Node20&#45;&gt;Node18 -->
<g id="edge24" class="edge">
<title>Node20&#45;&gt;Node18</title>
<path fill="none" stroke="midnightblue" d="M1250.56,-113.98C1278.14,-102.42 1318.35,-85.58 1342.37,-75.51"/>
<polygon fill="midnightblue" stroke="midnightblue" points="1248.89,-110.88 1241.02,-117.98 1251.6,-117.34 1248.89,-110.88"/>
</g>
<!-- Node21 -->
<g id="node21" class="node">
<title>Node21</title>
<g id="a_node21"><a xlink:href="configuration_8h.html" target="_top" xlink:title=" ">
<polygon fill="none" stroke="black" points="1110.68,-56.5 1110.68,-75.5 1296.68,-75.5 1296.68,-56.5 1110.68,-56.5"/>
<text text-anchor="middle" x="1203.68" y="-63.5" font-family="Helvetica,sans-Serif" font-size="10.00">HealthGPS.Console/configuration.h</text>
</a>
</g>
</g>
<!-- Node20&#45;&gt;Node21 -->
<g id="edge26" class="edge">
<title>Node20&#45;&gt;Node21</title>
<path fill="none" stroke="midnightblue" d="M1215.44,-108.16C1212.33,-97.27 1208.53,-83.99 1206.11,-75.51"/>
<polygon fill="midnightblue" stroke="midnightblue" points="1212.13,-109.32 1218.24,-117.98 1218.86,-107.4 1212.13,-109.32"/>
</g>
<!-- Node21&#45;&gt;Node19 -->
<g id="edge28" class="edge">
<title>Node21&#45;&gt;Node19</title>
<path fill="none" stroke="midnightblue" d="M1242,-53.57C1276.14,-43.38 1325.34,-28.7 1356.13,-19.52"/>
<polygon fill="midnightblue" stroke="midnightblue" points="1240.94,-50.23 1232.36,-56.44 1242.94,-56.94 1240.94,-50.23"/>
</g>
<!-- Node22 -->
<g id="node22" class="node">
<title>Node22</title>
<g id="a_node22"><a xlink:href="configuration_8cpp.html" target="_top" xlink:title=" ">
<polygon fill="none" stroke="black" points="1082.18,-0.5 1082.18,-19.5 1279.18,-19.5 1279.18,-0.5 1082.18,-0.5"/>
<text text-anchor="middle" x="1180.68" y="-7.5" font-family="Helvetica,sans-Serif" font-size="10.00">HealthGPS.Console/configuration.cpp</text>
</a>
</g>
</g>
<!-- Node21&#45;&gt;Node22 -->
<g id="edge27" class="edge">
<title>Node21&#45;&gt;Node22</title>
<path fill="none" stroke="midnightblue" d="M1195.88,-46.69C1192,-37.59 1187.5,-27.01 1184.41,-19.75"/>
<polygon fill="midnightblue" stroke="midnightblue" points="1192.74,-48.25 1199.88,-56.08 1199.18,-45.51 1192.74,-48.25"/>
</g>
<!-- Node24&#45;&gt;Node5 -->
<g id="edge31" class="edge">
<title>Node24&#45;&gt;Node5</title>
<path fill="none" stroke="midnightblue" d="M1022.46,-250.17C1014.16,-248.72 1005.7,-247.29 997.68,-246 896.85,-229.79 779.43,-213.56 708.38,-204.03"/>
<polygon fill="midnightblue" stroke="midnightblue" points="1022.01,-253.65 1032.46,-251.94 1023.22,-246.75 1022.01,-253.65"/>
</g>
<!-- Node24&#45;&gt;Node17 -->
<g id="edge32" class="edge">
<title>Node24&#45;&gt;Node17</title>
<path fill="none" stroke="midnightblue" d="M1106.81,-247.62C1130.83,-236.63 1165.32,-220.84 1190.03,-209.53"/>
<polygon fill="midnightblue" stroke="midnightblue" points="1105.17,-244.52 1097.53,-251.87 1108.08,-250.89 1105.17,-244.52"/>
</g>
<!-- Node25&#45;&gt;Node12 -->
<g id="edge34" class="edge">
<title>Node25&#45;&gt;Node12</title>
<path fill="none" stroke="midnightblue" d="M1186.07,-249.32C1138.28,-236.49 1060.93,-215.71 1017.63,-204.08"/>
<polygon fill="midnightblue" stroke="midnightblue" points="1185.23,-252.72 1195.79,-251.94 1187.04,-245.96 1185.23,-252.72"/>
</g>
<!-- Node25&#45;&gt;Node17 -->
<g id="edge35" class="edge">
<title>Node25&#45;&gt;Node17</title>
<path fill="none" stroke="midnightblue" d="M1225.66,-241.74C1224.55,-231.49 1223.21,-219 1222.2,-209.59"/>
<polygon fill="midnightblue" stroke="midnightblue" points="1222.18,-242.17 1226.73,-251.73 1229.14,-241.42 1222.18,-242.17"/>
</g>
<!-- Node26&#45;&gt;Node17 -->
<g id="edge38" class="edge">
<title>Node26&#45;&gt;Node17</title>
<path fill="none" stroke="midnightblue" d="M1468.75,-249.79C1417.75,-238.63 1337.7,-221.11 1282.39,-209.01"/>
<polygon fill="midnightblue" stroke="midnightblue" points="1468.03,-253.22 1478.54,-251.94 1469.52,-246.38 1468.03,-253.22"/>
</g>
<!-- Node27 -->
<g id="node27" class="node">
<title>Node27</title>
<g id="a_node27"><a xlink:href="modulefactory_8cpp.html" target="_top" xlink:title=" ">
<polygon fill="none" stroke="black" points="1437.18,-185 1437.18,-204 1598.18,-204 1598.18,-185 1437.18,-185"/>
<text text-anchor="middle" x="1517.68" y="-192" font-family="Helvetica,sans-Serif" font-size="10.00">HealthGPS/modulefactory.cpp</text>
</a>
</g>
</g>
<!-- Node26&#45;&gt;Node27 -->
<g id="edge37" class="edge">
<title>Node26&#45;&gt;Node27</title>
<path fill="none" stroke="midnightblue" d="M1517.68,-241.54C1517.68,-229.17 1517.68,-213.62 1517.68,-204.13"/>
<polygon fill="midnightblue" stroke="midnightblue" points="1514.18,-241.73 1517.68,-251.73 1521.18,-241.73 1514.18,-241.73"/>
</g>
<!-- Node28&#45;&gt;Node17 -->
<g id="edge42" class="edge">
<title>Node28&#45;&gt;Node17</title>
<path fill="none" stroke="midnightblue" d="M1624.36,-250C1616.78,-248.55 1609.03,-247.17 1601.68,-246 1464.68,-224.29 1428.64,-231.9 1291.68,-210 1288.57,-209.5 1285.4,-208.97 1282.19,-208.4"/>
<polygon fill="midnightblue" stroke="midnightblue" points="1623.69,-253.44 1634.17,-251.93 1625.03,-246.57 1623.69,-253.44"/>
</g>
<!-- Node29 -->
<g id="node29" class="node">
<title>Node29</title>
<g id="a_node29"><a xlink:href="riskfactor_8cpp.html" target="_top" xlink:title=" ">
<polygon fill="none" stroke="black" points="1616.18,-185 1616.18,-204 1753.18,-204 1753.18,-185 1616.18,-185"/>
<text text-anchor="middle" x="1684.68" y="-192" font-family="Helvetica,sans-Serif" font-size="10.00">HealthGPS/riskfactor.cpp</text>
</a>
</g>
</g>
<!-- Node28&#45;&gt;Node29 -->
<g id="edge41" class="edge">
<title>Node28&#45;&gt;Node29</title>
<path fill="none" stroke="midnightblue" d="M1676.89,-241.54C1678.98,-229.17 1681.61,-213.62 1683.22,-204.13"/>
<polygon fill="midnightblue" stroke="midnightblue" points="1673.38,-241.29 1675.16,-251.73 1680.28,-242.46 1673.38,-241.29"/>
</g>
<!-- Node30&#45;&gt;Node17 -->
<g id="edge45" class="edge">
<title>Node30&#45;&gt;Node17</title>
<path fill="none" stroke="midnightblue" d="M1324.29,-242.27C1301.35,-231.92 1273.08,-219.15 1251.86,-209.58"/>
<polygon fill="midnightblue" stroke="midnightblue" points="1322.88,-245.47 1333.43,-246.4 1325.76,-239.09 1322.88,-245.47"/>
</g>
<!-- Node31 -->
<g id="node31" class="node">
<title>Node31</title>
<g id="a_node31"><a xlink:href="ses__noise__module_8cpp.html" target="_top" xlink:title=" ">
<polygon fill="none" stroke="black" points="1300.18,-179.5 1300.18,-209.5 1419.18,-209.5 1419.18,-179.5 1300.18,-179.5"/>
<text text-anchor="start" x="1308.18" y="-197.5" font-family="Helvetica,sans-Serif" font-size="10.00">HealthGPS/ses_noise</text>
<text text-anchor="middle" x="1359.68" y="-186.5" font-family="Helvetica,sans-Serif" font-size="10.00">_module.cpp</text>
</a>
</g>
</g>
<!-- Node30&#45;&gt;Node31 -->
<g id="edge44" class="edge">
<title>Node30&#45;&gt;Node31</title>
<path fill="none" stroke="midnightblue" d="M1362.82,-236.4C1362.13,-227.37 1361.36,-217.41 1360.76,-209.58"/>
<polygon fill="midnightblue" stroke="midnightblue" points="1359.34,-236.69 1363.59,-246.4 1366.32,-236.16 1359.34,-236.69"/>
</g>
<!-- Node32&#45;&gt;Node19 -->
<g id="edge48" class="edge">
<title>Node32&#45;&gt;Node19</title>
<path fill="none" stroke="midnightblue" d="M1891.44,-241.45C1904.57,-233.74 1917.23,-223.42 1924.68,-210 1931.36,-197.95 1932.85,-190.1 1924.68,-179 1865.82,-99.04 1562.91,-40.57 1438.31,-19.53"/>
<polygon fill="midnightblue" stroke="midnightblue" points="1889.47,-238.54 1882.33,-246.37 1892.8,-244.69 1889.47,-238.54"/>
</g>
<!-- Node33 -->
<g id="node33" class="node">
<title>Node33</title>
<g id="a_node33"><a xlink:href="model__parser_8cpp.html" target="_top" xlink:title=" ">
<polygon fill="none" stroke="black" points="1771.68,-179.5 1771.68,-209.5 1915.68,-209.5 1915.68,-179.5 1771.68,-179.5"/>
<text text-anchor="start" x="1779.68" y="-197.5" font-family="Helvetica,sans-Serif" font-size="10.00">HealthGPS.Console/model</text>
<text text-anchor="middle" x="1843.68" y="-186.5" font-family="Helvetica,sans-Serif" font-size="10.00">_parser.cpp</text>
</a>
</g>
</g>
<!-- Node32&#45;&gt;Node33 -->
<g id="edge47" class="edge">
<title>Node32&#45;&gt;Node33</title>
<path fill="none" stroke="midnightblue" d="M1843.68,-236.11C1843.68,-227.15 1843.68,-217.32 1843.68,-209.58"/>
<polygon fill="midnightblue" stroke="midnightblue" points="1840.18,-236.4 1843.68,-246.4 1847.18,-236.4 1840.18,-236.4"/>
</g>
</g>
</svg>
