<?xml version="1.0" encoding="UTF-8" standalone="no"?>
<!DOCTYPE svg PUBLIC "-//W3C//DTD SVG 1.1//EN"
 "http://www.w3.org/Graphics/SVG/1.1/DTD/svg11.dtd">
<!-- Generated by graphviz version 2.43.0 (0)
 -->
<!-- Title: HealthGPS/repository.h Pages: 1 -->
<svg width="1365pt" height="341pt"
 viewBox="0.00 0.00 1365.00 341.00" xmlns="http://www.w3.org/2000/svg" xmlns:xlink="http://www.w3.org/1999/xlink">
<g id="graph0" class="graph" transform="scale(1 1) rotate(0) translate(4 337)">
<title>HealthGPS/repository.h</title>
<!-- Node1 -->
<g id="node1" class="node">
<title>Node1</title>
<g id="a_node1"><a xlink:title=" ">
<polygon fill="#bfbfbf" stroke="black" points="682,-313.5 682,-332.5 810,-332.5 810,-313.5 682,-313.5"/>
<text text-anchor="middle" x="746" y="-320.5" font-family="Helvetica,sans-Serif" font-size="10.00">HealthGPS/repository.h</text>
</a>
</g>
</g>
<!-- Node2 -->
<g id="node2" class="node">
<title>Node2</title>
<g id="a_node2"><a xlink:href="analysis__module_8h.html" target="_top" xlink:title=" ">
<polygon fill="none" stroke="black" points="165,-246.5 165,-276.5 277,-276.5 277,-246.5 165,-246.5"/>
<text text-anchor="start" x="173" y="-264.5" font-family="Helvetica,sans-Serif" font-size="10.00">HealthGPS/analysis</text>
<text text-anchor="middle" x="221" y="-253.5" font-family="Helvetica,sans-Serif" font-size="10.00">_module.h</text>
</a>
</g>
</g>
<!-- Node1&#45;&gt;Node2 -->
<g id="edge1" class="edge">
<title>Node1&#45;&gt;Node2</title>
<path fill="none" stroke="midnightblue" d="M671.44,-317.51C580.16,-311.37 421.04,-298.59 286,-277 283.15,-276.54 280.23,-276.04 277.29,-275.5"/>
<polygon fill="midnightblue" stroke="midnightblue" points="671.48,-321.02 681.69,-318.19 671.94,-314.04 671.48,-321.02"/>
</g>
<!-- Node12 -->
<g id="node12" class="node">
<title>Node12</title>
<g id="a_node12"><a xlink:href="demographic_8h.html" target="_top" xlink:title=" ">
<polygon fill="none" stroke="black" points="295,-252 295,-271 439,-271 439,-252 295,-252"/>
<text text-anchor="middle" x="367" y="-259" font-family="Helvetica,sans-Serif" font-size="10.00">HealthGPS/demographic.h</text>
</a>
</g>
</g>
<!-- Node1&#45;&gt;Node12 -->
<g id="edge13" class="edge">
<title>Node1&#45;&gt;Node12</title>
<path fill="none" stroke="midnightblue" d="M676.09,-311.99C615.64,-303.21 525.96,-289.86 448,-277 436.86,-275.16 424.89,-273.08 413.65,-271.08"/>
<polygon fill="midnightblue" stroke="midnightblue" points="675.88,-315.5 686.28,-313.47 676.88,-308.57 675.88,-315.5"/>
</g>
<!-- Node14 -->
<g id="node14" class="node">
<title>Node14</title>
<g id="a_node14"><a xlink:href="HealthGPS_2disease_8h.html" target="_top" xlink:title=" ">
<polygon fill="none" stroke="black" points="457,-252 457,-271 575,-271 575,-252 457,-252"/>
<text text-anchor="middle" x="516" y="-259" font-family="Helvetica,sans-Serif" font-size="10.00">HealthGPS/disease.h</text>
</a>
</g>
</g>
<!-- Node1&#45;&gt;Node14 -->
<g id="edge16" class="edge">
<title>Node1&#45;&gt;Node14</title>
<path fill="none" stroke="midnightblue" d="M703.36,-310.97C658.7,-299.41 589.51,-281.52 548.89,-271.01"/>
<polygon fill="midnightblue" stroke="midnightblue" points="702.49,-314.36 713.05,-313.48 704.24,-307.58 702.49,-314.36"/>
</g>
<!-- Node16 -->
<g id="node16" class="node">
<title>Node16</title>
<g id="a_node16"><a xlink:href="modulefactory_8h.html" target="_top" xlink:title=" ">
<polygon fill="none" stroke="black" points="593,-252 593,-271 743,-271 743,-252 593,-252"/>
<text text-anchor="middle" x="668" y="-259" font-family="Helvetica,sans-Serif" font-size="10.00">HealthGPS/modulefactory.h</text>
</a>
</g>
</g>
<!-- Node1&#45;&gt;Node16 -->
<g id="edge19" class="edge">
<title>Node1&#45;&gt;Node16</title>
<path fill="none" stroke="midnightblue" d="M726.72,-307.29C711.76,-295.88 691.54,-280.46 679.15,-271.01"/>
<polygon fill="midnightblue" stroke="midnightblue" points="724.75,-310.19 734.82,-313.48 729,-304.63 724.75,-310.19"/>
</g>
<!-- Node18 -->
<g id="node18" class="node">
<title>Node18</title>
<g id="a_node18"><a xlink:href="repository_8cpp.html" target="_top" xlink:title=" ">
<polygon fill="none" stroke="black" points="1217,-252 1217,-271 1357,-271 1357,-252 1217,-252"/>
<text text-anchor="middle" x="1287" y="-259" font-family="Helvetica,sans-Serif" font-size="10.00">HealthGPS/repository.cpp</text>
</a>
</g>
</g>
<!-- Node1&#45;&gt;Node18 -->
<g id="edge22" class="edge">
<title>Node1&#45;&gt;Node18</title>
<path fill="none" stroke="midnightblue" d="M820.09,-316.72C911.53,-309.76 1071.65,-296.12 1208,-277 1219.74,-275.35 1232.39,-273.2 1244.06,-271.06"/>
<polygon fill="midnightblue" stroke="midnightblue" points="819.81,-313.23 810.1,-317.48 820.34,-320.21 819.81,-313.23"/>
</g>
<!-- Node19 -->
<g id="node19" class="node">
<title>Node19</title>
<g id="a_node19"><a xlink:href="riskfactor_8h.html" target="_top" xlink:title=" ">
<polygon fill="none" stroke="black" points="761,-252 761,-271 887,-271 887,-252 761,-252"/>
<text text-anchor="middle" x="824" y="-259" font-family="Helvetica,sans-Serif" font-size="10.00">HealthGPS/riskfactor.h</text>
</a>
</g>
</g>
<!-- Node1&#45;&gt;Node19 -->
<g id="edge23" class="edge">
<title>Node1&#45;&gt;Node19</title>
<path fill="none" stroke="midnightblue" d="M765.28,-307.29C780.24,-295.88 800.46,-280.46 812.85,-271.01"/>
<polygon fill="midnightblue" stroke="midnightblue" points="763,-304.63 757.18,-313.48 767.25,-310.19 763,-304.63"/>
</g>
<!-- Node21 -->
<g id="node21" class="node">
<title>Node21</title>
<g id="a_node21"><a xlink:href="ses__noise__module_8h.html" target="_top" xlink:title=" ">
<polygon fill="none" stroke="black" points="905.5,-246.5 905.5,-276.5 1024.5,-276.5 1024.5,-246.5 905.5,-246.5"/>
<text text-anchor="start" x="913.5" y="-264.5" font-family="Helvetica,sans-Serif" font-size="10.00">HealthGPS/ses_noise</text>
<text text-anchor="middle" x="965" y="-253.5" font-family="Helvetica,sans-Serif" font-size="10.00">_module.h</text>
</a>
</g>
</g>
<!-- Node1&#45;&gt;Node21 -->
<g id="edge26" class="edge">
<title>Node1&#45;&gt;Node21</title>
<path fill="none" stroke="midnightblue" d="M787.47,-310.73C823.21,-301.02 874.97,-286.96 913.39,-276.52"/>
<polygon fill="midnightblue" stroke="midnightblue" points="786.11,-307.48 777.38,-313.48 787.95,-314.23 786.11,-307.48"/>
</g>
<!-- Node23 -->
<g id="node23" class="node">
<title>Node23</title>
<g id="a_node23"><a xlink:href="model__parser_8h.html" target="_top" xlink:title=" ">
<polygon fill="none" stroke="black" points="1055,-246.5 1055,-276.5 1199,-276.5 1199,-246.5 1055,-246.5"/>
<text text-anchor="start" x="1063" y="-264.5" font-family="Helvetica,sans-Serif" font-size="10.00">HealthGPS.Console/model</text>
<text text-anchor="middle" x="1127" y="-253.5" font-family="Helvetica,sans-Serif" font-size="10.00">_parser.h</text>
</a>
</g>
</g>
<!-- Node1&#45;&gt;Node23 -->
<g id="edge29" class="edge">
<title>Node1&#45;&gt;Node23</title>
<path fill="none" stroke="midnightblue" d="M810.71,-311.89C878.45,-301.32 984.57,-284.74 1054.94,-273.75"/>
<polygon fill="midnightblue" stroke="midnightblue" points="809.93,-308.47 800.59,-313.48 811.01,-315.39 809.93,-308.47"/>
</g>
<!-- Node3 -->
<g id="node3" class="node">
<title>Node3</title>
<g id="a_node3"><a xlink:href="analysis__module_8cpp.html" target="_top" xlink:title=" ">
<polygon fill="none" stroke="black" points="0,-179.5 0,-209.5 112,-209.5 112,-179.5 0,-179.5"/>
<text text-anchor="start" x="8" y="-197.5" font-family="Helvetica,sans-Serif" font-size="10.00">HealthGPS/analysis</text>
<text text-anchor="middle" x="56" y="-186.5" font-family="Helvetica,sans-Serif" font-size="10.00">_module.cpp</text>
</a>
</g>
</g>
<!-- Node2&#45;&gt;Node3 -->
<g id="edge2" class="edge">
<title>Node2&#45;&gt;Node3</title>
<path fill="none" stroke="midnightblue" d="M175.77,-242.68C149.31,-232.26 116.37,-219.28 91.73,-209.58"/>
<polygon fill="midnightblue" stroke="midnightblue" points="174.61,-245.99 185.2,-246.4 177.18,-239.47 174.61,-245.99"/>
</g>
<!-- Node4 -->
<g id="node4" class="node">
<title>Node4</title>
<g id="a_node4"><a xlink:href="simulation__module_8h.html" target="_top" xlink:title=" ">
<polygon fill="none" stroke="black" points="450.5,-179.5 450.5,-209.5 573.5,-209.5 573.5,-179.5 450.5,-179.5"/>
<text text-anchor="start" x="458.5" y="-197.5" font-family="Helvetica,sans-Serif" font-size="10.00">HealthGPS/simulation</text>
<text text-anchor="middle" x="512" y="-186.5" font-family="Helvetica,sans-Serif" font-size="10.00">_module.h</text>
</a>
</g>
</g>
<!-- Node2&#45;&gt;Node4 -->
<g id="edge3" class="edge">
<title>Node2&#45;&gt;Node4</title>
<path fill="none" stroke="midnightblue" d="M286.97,-245.76C335.97,-234.82 402.33,-220 450.28,-209.29"/>
<polygon fill="midnightblue" stroke="midnightblue" points="286.1,-242.37 277.11,-247.97 287.63,-249.2 286.1,-242.37"/>
</g>
<!-- Node5 -->
<g id="node5" class="node">
<title>Node5</title>
<g id="a_node5"><a xlink:href="HealthGPS_2api_8h.html" target="_top" xlink:title=" ">
<polygon fill="none" stroke="black" points="554.5,-56.5 554.5,-75.5 649.5,-75.5 649.5,-56.5 554.5,-56.5"/>
<text text-anchor="middle" x="602" y="-63.5" font-family="Helvetica,sans-Serif" font-size="10.00">HealthGPS/api.h</text>
</a>
</g>
</g>
<!-- Node4&#45;&gt;Node5 -->
<g id="edge4" class="edge">
<title>Node4&#45;&gt;Node5</title>
<path fill="none" stroke="midnightblue" d="M528.01,-171C548.18,-142.65 581.88,-95.28 595.75,-75.79"/>
<polygon fill="midnightblue" stroke="midnightblue" points="524.92,-169.3 521.98,-179.48 530.62,-173.36 524.92,-169.3"/>
</g>
<!-- Node7 -->
<g id="node7" class="node">
<title>Node7</title>
<g id="a_node7"><a xlink:href="healthgps_8h.html" target="_top" xlink:title=" ">
<polygon fill="none" stroke="black" points="402,-118 402,-137 530,-137 530,-118 402,-118"/>
<text text-anchor="middle" x="466" y="-125" font-family="Helvetica,sans-Serif" font-size="10.00">HealthGPS/healthgps.h</text>
</a>
</g>
</g>
<!-- Node4&#45;&gt;Node7 -->
<g id="edge6" class="edge">
<title>Node4&#45;&gt;Node7</title>
<path fill="none" stroke="midnightblue" d="M496.06,-170.97C487.82,-159.33 478.24,-145.8 472.15,-137.19"/>
<polygon fill="midnightblue" stroke="midnightblue" points="493.39,-173.26 502.02,-179.4 499.1,-169.21 493.39,-173.26"/>
</g>
<!-- Node11 -->
<g id="node11" class="node">
<title>Node11</title>
<g id="a_node11"><a xlink:href="simulation__module_8cpp.html" target="_top" xlink:title=" ">
<polygon fill="none" stroke="black" points="586.5,-112.5 586.5,-142.5 709.5,-142.5 709.5,-112.5 586.5,-112.5"/>
<text text-anchor="start" x="594.5" y="-130.5" font-family="Helvetica,sans-Serif" font-size="10.00">HealthGPS/simulation</text>
<text text-anchor="middle" x="648" y="-119.5" font-family="Helvetica,sans-Serif" font-size="10.00">_module.cpp</text>
</a>
</g>
</g>
<!-- Node4&#45;&gt;Node11 -->
<g id="edge12" class="edge">
<title>Node4&#45;&gt;Node11</title>
<path fill="none" stroke="midnightblue" d="M550.72,-174.99C572.28,-164.69 598.69,-152.07 618.55,-142.58"/>
<polygon fill="midnightblue" stroke="midnightblue" points="549.02,-171.93 541.51,-179.4 552.04,-178.24 549.02,-171.93"/>
</g>
<!-- Node6 -->
<g id="node6" class="node">
<title>Node6</title>
<g id="a_node6"><a xlink:href="program_8cpp.html" target="_top" xlink:title=" ">
<polygon fill="none" stroke="black" points="514.5,-0.5 514.5,-19.5 689.5,-19.5 689.5,-0.5 514.5,-0.5"/>
<text text-anchor="middle" x="602" y="-7.5" font-family="Helvetica,sans-Serif" font-size="10.00">HealthGPS.Console/program.cpp</text>
</a>
</g>
</g>
<!-- Node5&#45;&gt;Node6 -->
<g id="edge5" class="edge">
<title>Node5&#45;&gt;Node6</title>
<path fill="none" stroke="midnightblue" d="M602,-45.8C602,-36.91 602,-26.78 602,-19.75"/>
<polygon fill="midnightblue" stroke="midnightblue" points="598.5,-46.08 602,-56.08 605.5,-46.08 598.5,-46.08"/>
</g>
<!-- Node7&#45;&gt;Node5 -->
<g id="edge7" class="edge">
<title>Node7&#45;&gt;Node5</title>
<path fill="none" stroke="midnightblue" d="M494.97,-113.83C521.37,-102.28 559.64,-85.53 582.55,-75.51"/>
<polygon fill="midnightblue" stroke="midnightblue" points="493.24,-110.76 485.49,-117.98 496.05,-117.17 493.24,-110.76"/>
</g>
<!-- Node8 -->
<g id="node8" class="node">
<title>Node8</title>
<g id="a_node8"><a xlink:href="healthgps_8cpp.html" target="_top" xlink:title=" ">
<polygon fill="none" stroke="black" points="396,-56.5 396,-75.5 536,-75.5 536,-56.5 396,-56.5"/>
<text text-anchor="middle" x="466" y="-63.5" font-family="Helvetica,sans-Serif" font-size="10.00">HealthGPS/healthgps.cpp</text>
</a>
</g>
</g>
<!-- Node7&#45;&gt;Node8 -->
<g id="edge8" class="edge">
<title>Node7&#45;&gt;Node8</title>
<path fill="none" stroke="midnightblue" d="M466,-107.82C466,-97 466,-83.9 466,-75.51"/>
<polygon fill="midnightblue" stroke="midnightblue" points="462.5,-107.98 466,-117.98 469.5,-107.98 462.5,-107.98"/>
</g>
<!-- Node9 -->
<g id="node9" class="node">
<title>Node9</title>
<g id="a_node9"><a xlink:href="configuration_8h.html" target="_top" xlink:title=" ">
<polygon fill="none" stroke="black" points="192,-56.5 192,-75.5 378,-75.5 378,-56.5 192,-56.5"/>
<text text-anchor="middle" x="285" y="-63.5" font-family="Helvetica,sans-Serif" font-size="10.00">HealthGPS.Console/configuration.h</text>
</a>
</g>
</g>
<!-- Node7&#45;&gt;Node9 -->
<g id="edge9" class="edge">
<title>Node7&#45;&gt;Node9</title>
<path fill="none" stroke="midnightblue" d="M430.2,-114.73C395.02,-103.17 342.18,-85.8 310.88,-75.51"/>
<polygon fill="midnightblue" stroke="midnightblue" points="429.47,-118.18 440.07,-117.98 431.66,-111.53 429.47,-118.18"/>
</g>
<!-- Node9&#45;&gt;Node6 -->
<g id="edge11" class="edge">
<title>Node9&#45;&gt;Node6</title>
<path fill="none" stroke="midnightblue" d="M345.3,-54.73C405.21,-44.52 495.99,-29.06 552.01,-19.52"/>
<polygon fill="midnightblue" stroke="midnightblue" points="344.5,-51.31 335.23,-56.44 345.68,-58.21 344.5,-51.31"/>
</g>
<!-- Node10 -->
<g id="node10" class="node">
<title>Node10</title>
<g id="a_node10"><a xlink:href="configuration_8cpp.html" target="_top" xlink:title=" ">
<polygon fill="none" stroke="black" points="186.5,-0.5 186.5,-19.5 383.5,-19.5 383.5,-0.5 186.5,-0.5"/>
<text text-anchor="middle" x="285" y="-7.5" font-family="Helvetica,sans-Serif" font-size="10.00">HealthGPS.Console/configuration.cpp</text>
</a>
</g>
</g>
<!-- Node9&#45;&gt;Node10 -->
<g id="edge10" class="edge">
<title>Node9&#45;&gt;Node10</title>
<path fill="none" stroke="midnightblue" d="M285,-45.8C285,-36.91 285,-26.78 285,-19.75"/>
<polygon fill="midnightblue" stroke="midnightblue" points="281.5,-46.08 285,-56.08 288.5,-46.08 281.5,-46.08"/>
</g>
<!-- Node12&#45;&gt;Node4 -->
<g id="edge15" class="edge">
<title>Node12&#45;&gt;Node4</title>
<path fill="none" stroke="midnightblue" d="M395.4,-247.77C419.95,-236.77 455.36,-220.89 480.71,-209.53"/>
<polygon fill="midnightblue" stroke="midnightblue" points="393.95,-244.58 386.25,-251.87 396.81,-250.97 393.95,-244.58"/>
</g>
<!-- Node13 -->
<g id="node13" class="node">
<title>Node13</title>
<g id="a_node13"><a xlink:href="demographic_8cpp.html" target="_top" xlink:title=" ">
<polygon fill="none" stroke="black" points="130.5,-185 130.5,-204 285.5,-204 285.5,-185 130.5,-185"/>
<text text-anchor="middle" x="208" y="-192" font-family="Helvetica,sans-Serif" font-size="10.00">HealthGPS/demographic.cpp</text>
</a>
</g>
</g>
<!-- Node12&#45;&gt;Node13 -->
<g id="edge14" class="edge">
<title>Node12&#45;&gt;Node13</title>
<path fill="none" stroke="midnightblue" d="M336.27,-247.94C304.69,-235.03 256.38,-215.28 228.95,-204.06"/>
<polygon fill="midnightblue" stroke="midnightblue" points="335.31,-251.32 345.89,-251.87 337.95,-244.84 335.31,-251.32"/>
</g>
<!-- Node14&#45;&gt;Node4 -->
<g id="edge18" class="edge">
<title>Node14&#45;&gt;Node4</title>
<path fill="none" stroke="midnightblue" d="M514.85,-241.74C514.21,-231.49 513.45,-219 512.87,-209.59"/>
<polygon fill="midnightblue" stroke="midnightblue" points="511.35,-241.97 515.46,-251.73 518.34,-241.54 511.35,-241.97"/>
</g>
<!-- Node15 -->
<g id="node15" class="node">
<title>Node15</title>
<g id="a_node15"><a xlink:href="disease_8cpp.html" target="_top" xlink:title=" ">
<polygon fill="none" stroke="black" points="303.5,-185 303.5,-204 432.5,-204 432.5,-185 303.5,-185"/>
<text text-anchor="middle" x="368" y="-192" font-family="Helvetica,sans-Serif" font-size="10.00">HealthGPS/disease.cpp</text>
</a>
</g>
</g>
<!-- Node14&#45;&gt;Node15 -->
<g id="edge17" class="edge">
<title>Node14&#45;&gt;Node15</title>
<path fill="none" stroke="midnightblue" d="M487.04,-247.78C457.73,-234.91 413.21,-215.35 387.73,-204.17"/>
<polygon fill="midnightblue" stroke="midnightblue" points="485.78,-251.05 496.35,-251.87 488.6,-244.64 485.78,-251.05"/>
</g>
<!-- Node16&#45;&gt;Node4 -->
<g id="edge21" class="edge">
<title>Node16&#45;&gt;Node4</title>
<path fill="none" stroke="midnightblue" d="M637.79,-247.91C611.37,-236.91 573.06,-220.94 545.67,-209.53"/>
<polygon fill="midnightblue" stroke="midnightblue" points="636.71,-251.25 647.28,-251.87 639.4,-244.79 636.71,-251.25"/>
</g>
<!-- Node17 -->
<g id="node17" class="node">
<title>Node17</title>
<g id="a_node17"><a xlink:href="modulefactory_8cpp.html" target="_top" xlink:title=" ">
<polygon fill="none" stroke="black" points="591.5,-185 591.5,-204 752.5,-204 752.5,-185 591.5,-185"/>
<text text-anchor="middle" x="672" y="-192" font-family="Helvetica,sans-Serif" font-size="10.00">HealthGPS/modulefactory.cpp</text>
</a>
</g>
</g>
<!-- Node16&#45;&gt;Node17 -->
<g id="edge20" class="edge">
<title>Node16&#45;&gt;Node17</title>
<path fill="none" stroke="midnightblue" d="M669.17,-241.54C669.93,-229.17 670.88,-213.62 671.47,-204.13"/>
<polygon fill="midnightblue" stroke="midnightblue" points="665.66,-241.54 668.54,-251.73 672.65,-241.97 665.66,-241.54"/>
</g>
<!-- Node19&#45;&gt;Node4 -->
<g id="edge25" class="edge">
<title>Node19&#45;&gt;Node4</title>
<path fill="none" stroke="midnightblue" d="M773.09,-249.89C718.56,-238.53 631.99,-220.5 573.64,-208.34"/>
<polygon fill="midnightblue" stroke="midnightblue" points="772.39,-253.32 782.89,-251.94 773.81,-246.47 772.39,-253.32"/>
</g>
<!-- Node20 -->
<g id="node20" class="node">
<title>Node20</title>
<g id="a_node20"><a xlink:href="riskfactor_8cpp.html" target="_top" xlink:title=" ">
<polygon fill="none" stroke="black" points="770.5,-185 770.5,-204 907.5,-204 907.5,-185 770.5,-185"/>
<text text-anchor="middle" x="839" y="-192" font-family="Helvetica,sans-Serif" font-size="10.00">HealthGPS/riskfactor.cpp</text>
</a>
</g>
</g>
<!-- Node19&#45;&gt;Node20 -->
<g id="edge24" class="edge">
<title>Node19&#45;&gt;Node20</title>
<path fill="none" stroke="midnightblue" d="M828.29,-241.91C831.16,-229.49 834.8,-213.72 837.01,-204.13"/>
<polygon fill="midnightblue" stroke="midnightblue" points="824.86,-241.2 826.02,-251.73 831.68,-242.78 824.86,-241.2"/>
</g>
<!-- Node21&#45;&gt;Node4 -->
<g id="edge28" class="edge">
<title>Node21&#45;&gt;Node4</title>
<path fill="none" stroke="midnightblue" d="M895.01,-245.95C755.56,-223.92 717.44,-231.75 582,-210 579.3,-209.57 576.55,-209.1 573.78,-208.61"/>
<polygon fill="midnightblue" stroke="midnightblue" points="894.8,-249.46 905.22,-247.58 895.9,-242.54 894.8,-249.46"/>
</g>
<!-- Node22 -->
<g id="node22" class="node">
<title>Node22</title>
<g id="a_node22"><a xlink:href="ses__noise__module_8cpp.html" target="_top" xlink:title=" ">
<polygon fill="none" stroke="black" points="925.5,-179.5 925.5,-209.5 1044.5,-209.5 1044.5,-179.5 925.5,-179.5"/>
<text text-anchor="start" x="933.5" y="-197.5" font-family="Helvetica,sans-Serif" font-size="10.00">HealthGPS/ses_noise</text>
<text text-anchor="middle" x="985" y="-186.5" font-family="Helvetica,sans-Serif" font-size="10.00">_module.cpp</text>
</a>
</g>
</g>
<!-- Node21&#45;&gt;Node22 -->
<g id="edge27" class="edge">
<title>Node21&#45;&gt;Node22</title>
<path fill="none" stroke="midnightblue" d="M972.32,-236.7C975.13,-227.59 978.23,-217.49 980.67,-209.58"/>
<polygon fill="midnightblue" stroke="midnightblue" points="968.94,-235.81 969.34,-246.4 975.63,-237.87 968.94,-235.81"/>
</g>
<!-- Node23&#45;&gt;Node6 -->
<g id="edge31" class="edge">
<title>Node23&#45;&gt;Node6</title>
<path fill="none" stroke="midnightblue" d="M1180.48,-241.82C1194.5,-234.21 1207.93,-223.85 1216,-210 1222.93,-198.09 1224.36,-189.95 1216,-179 1149.58,-91.97 818.21,-39.02 671.77,-19.53"/>
<polygon fill="midnightblue" stroke="midnightblue" points="1178.61,-238.84 1171.23,-246.44 1181.74,-245.1 1178.61,-238.84"/>
</g>
<!-- Node24 -->
<g id="node24" class="node">
<title>Node24</title>
<g id="a_node24"><a xlink:href="model__parser_8cpp.html" target="_top" xlink:title=" ">
<polygon fill="none" stroke="black" points="1063,-179.5 1063,-209.5 1207,-209.5 1207,-179.5 1063,-179.5"/>
<text text-anchor="start" x="1071" y="-197.5" font-family="Helvetica,sans-Serif" font-size="10.00">HealthGPS.Console/model</text>
<text text-anchor="middle" x="1135" y="-186.5" font-family="Helvetica,sans-Serif" font-size="10.00">_parser.cpp</text>
</a>
</g>
</g>
<!-- Node23&#45;&gt;Node24 -->
<g id="edge30" class="edge">
<title>Node23&#45;&gt;Node24</title>
<path fill="none" stroke="midnightblue" d="M1129.97,-236.4C1131.08,-227.37 1132.3,-217.41 1133.27,-209.58"/>
<polygon fill="midnightblue" stroke="midnightblue" points="1126.48,-236.04 1128.74,-246.4 1133.43,-236.9 1126.48,-236.04"/>
</g>
</g>
</svg>
