<?xml version="1.0" encoding="UTF-8" standalone="no"?>
<!DOCTYPE svg PUBLIC "-//W3C//DTD SVG 1.1//EN"
 "http://www.w3.org/Graphics/SVG/1.1/DTD/svg11.dtd">
<!-- Generated by graphviz version 7.0.6 (20230106.0513)
 -->
<!-- Title: HealthGPS/repository.h Pages: 1 -->
<svg width="1246pt" height="335pt"
 viewBox="0.00 0.00 1246.00 335.00" xmlns="http://www.w3.org/2000/svg" xmlns:xlink="http://www.w3.org/1999/xlink">
<g id="graph0" class="graph" transform="scale(1 1) rotate(0) translate(4 331)">
<title>HealthGPS/repository.h</title>
<!-- Node1 -->
<g id="node1" class="node">
<title>Node1</title>
<g id="a_node1"><a xlink:title=" ">
<polygon fill="#999999" stroke="#666666" points="735.5,-327 616.5,-327 616.5,-308 735.5,-308 735.5,-327"/>
<text text-anchor="middle" x="676" y="-315" font-family="Helvetica,sans-Serif" font-size="10.00">HealthGPS/repository.h</text>
</a>
</g>
</g>
<!-- Node2 -->
<g id="node2" class="node">
<title>Node2</title>
<g id="a_node2"><a xlink:href="model__parser_8h.html" target="_top" xlink:title=" ">
<polygon fill="white" stroke="#666666" points="1089.5,-272 956.5,-272 956.5,-242 1089.5,-242 1089.5,-272"/>
<text text-anchor="start" x="964.5" y="-260" font-family="Helvetica,sans-Serif" font-size="10.00">HealthGPS.Console/model</text>
<text text-anchor="middle" x="1023" y="-249" font-family="Helvetica,sans-Serif" font-size="10.00">_parser.h</text>
</a>
</g>
</g>
<!-- Node1&#45;&gt;Node2 -->
<g id="edge1" class="edge">
<title>Node1&#45;&gt;Node2</title>
<path fill="none" stroke="#63b8ff" d="M744.48,-305.73C799.52,-296.97 878.81,-284.12 948,-272 950.74,-271.52 953.53,-271.02 956.36,-270.52"/>
<polygon fill="#63b8ff" stroke="#63b8ff" points="743.93,-302.27 734.6,-307.3 745.03,-309.19 743.93,-302.27"/>
</g>
<!-- Node5 -->
<g id="node5" class="node">
<title>Node5</title>
<g id="a_node5"><a xlink:href="analysis__module_8h.html" target="_top" xlink:title=" ">
<polygon fill="white" stroke="#666666" points="239,-272 135,-272 135,-242 239,-242 239,-272"/>
<text text-anchor="start" x="143" y="-260" font-family="Helvetica,sans-Serif" font-size="10.00">HealthGPS/analysis</text>
<text text-anchor="middle" x="187" y="-249" font-family="Helvetica,sans-Serif" font-size="10.00">_module.h</text>
</a>
</g>
</g>
<!-- Node1&#45;&gt;Node5 -->
<g id="edge4" class="edge">
<title>Node1&#45;&gt;Node5</title>
<path fill="none" stroke="#63b8ff" d="M604.79,-311.77C519.56,-305.49 372.71,-292.71 248,-272 245.21,-271.54 242.36,-271.02 239.49,-270.48"/>
<polygon fill="#63b8ff" stroke="#63b8ff" points="604.41,-315.25 614.64,-312.48 604.92,-308.27 604.41,-315.25"/>
</g>
<!-- Node14 -->
<g id="node14" class="node">
<title>Node14</title>
<g id="a_node14"><a xlink:href="demographic_8h.html" target="_top" xlink:title=" ">
<polygon fill="white" stroke="#666666" points="389,-266.5 257,-266.5 257,-247.5 389,-247.5 389,-266.5"/>
<text text-anchor="middle" x="323" y="-254.5" font-family="Helvetica,sans-Serif" font-size="10.00">HealthGPS/demographic.h</text>
</a>
</g>
</g>
<!-- Node1&#45;&gt;Node14 -->
<g id="edge16" class="edge">
<title>Node1&#45;&gt;Node14</title>
<path fill="none" stroke="#63b8ff" d="M605.82,-305.78C549.56,-297.06 468.63,-284.24 398,-272 388.99,-270.44 379.4,-268.7 370.18,-267"/>
<polygon fill="#63b8ff" stroke="#63b8ff" points="605.17,-309.22 615.59,-307.29 606.24,-302.3 605.17,-309.22"/>
</g>
<!-- Node16 -->
<g id="node16" class="node">
<title>Node16</title>
<g id="a_node16"><a xlink:href="_health_g_p_s_2disease_8h.html" target="_top" xlink:title=" ">
<polygon fill="white" stroke="#666666" points="517,-266.5 407,-266.5 407,-247.5 517,-247.5 517,-266.5"/>
<text text-anchor="middle" x="462" y="-254.5" font-family="Helvetica,sans-Serif" font-size="10.00">HealthGPS/disease.h</text>
</a>
</g>
</g>
<!-- Node1&#45;&gt;Node16 -->
<g id="edge19" class="edge">
<title>Node1&#45;&gt;Node16</title>
<path fill="none" stroke="#63b8ff" d="M632.55,-304.62C591.78,-293.48 531.7,-277.05 494.81,-266.97"/>
<polygon fill="#63b8ff" stroke="#63b8ff" points="631.47,-307.96 642.04,-307.22 633.31,-301.2 631.47,-307.96"/>
</g>
<!-- Node18 -->
<g id="node18" class="node">
<title>Node18</title>
<g id="a_node18"><a xlink:href="modulefactory_8h.html" target="_top" xlink:title=" ">
<polygon fill="white" stroke="#666666" points="672.5,-266.5 535.5,-266.5 535.5,-247.5 672.5,-247.5 672.5,-266.5"/>
<text text-anchor="middle" x="604" y="-254.5" font-family="Helvetica,sans-Serif" font-size="10.00">HealthGPS/modulefactory.h</text>
</a>
</g>
</g>
<!-- Node1&#45;&gt;Node18 -->
<g id="edge22" class="edge">
<title>Node1&#45;&gt;Node18</title>
<path fill="none" stroke="#63b8ff" d="M656.2,-300.41C642.94,-289.64 625.97,-275.85 615.04,-266.97"/>
<polygon fill="#63b8ff" stroke="#63b8ff" points="653.92,-303.07 663.89,-306.66 658.34,-297.64 653.92,-303.07"/>
</g>
<!-- Node20 -->
<g id="node20" class="node">
<title>Node20</title>
<g id="a_node20"><a xlink:href="repository_8cpp.html" target="_top" xlink:title=" ">
<polygon fill="white" stroke="#666666" points="1238,-266.5 1108,-266.5 1108,-247.5 1238,-247.5 1238,-266.5"/>
<text text-anchor="middle" x="1173" y="-254.5" font-family="Helvetica,sans-Serif" font-size="10.00">HealthGPS/repository.cpp</text>
</a>
</g>
</g>
<!-- Node1&#45;&gt;Node20 -->
<g id="edge25" class="edge">
<title>Node1&#45;&gt;Node20</title>
<path fill="none" stroke="#63b8ff" d="M746.96,-310.83C831.17,-303.68 975.72,-290.12 1099,-272 1108.7,-270.57 1119.07,-268.78 1128.88,-266.96"/>
<polygon fill="#63b8ff" stroke="#63b8ff" points="746.92,-307.32 737.25,-311.65 747.5,-314.29 746.92,-307.32"/>
</g>
<!-- Node21 -->
<g id="node21" class="node">
<title>Node21</title>
<g id="a_node21"><a xlink:href="riskfactor_8h.html" target="_top" xlink:title=" ">
<polygon fill="white" stroke="#666666" points="807,-266.5 691,-266.5 691,-247.5 807,-247.5 807,-266.5"/>
<text text-anchor="middle" x="749" y="-254.5" font-family="Helvetica,sans-Serif" font-size="10.00">HealthGPS/riskfactor.h</text>
</a>
</g>
</g>
<!-- Node1&#45;&gt;Node21 -->
<g id="edge26" class="edge">
<title>Node1&#45;&gt;Node21</title>
<path fill="none" stroke="#63b8ff" d="M695.68,-300.73C709.19,-289.9 726.62,-275.93 737.81,-266.97"/>
<polygon fill="#63b8ff" stroke="#63b8ff" points="693.88,-297.68 688.27,-306.67 698.26,-303.15 693.88,-297.68"/>
</g>
<!-- Node23 -->
<g id="node23" class="node">
<title>Node23</title>
<g id="a_node23"><a xlink:href="ses__noise__module_8h.html" target="_top" xlink:title=" ">
<polygon fill="white" stroke="#666666" points="938.5,-272 825.5,-272 825.5,-242 938.5,-242 938.5,-272"/>
<text text-anchor="start" x="833.5" y="-260" font-family="Helvetica,sans-Serif" font-size="10.00">HealthGPS/ses_noise</text>
<text text-anchor="middle" x="882" y="-249" font-family="Helvetica,sans-Serif" font-size="10.00">_module.h</text>
</a>
</g>
</g>
<!-- Node1&#45;&gt;Node23 -->
<g id="edge29" class="edge">
<title>Node1&#45;&gt;Node23</title>
<path fill="none" stroke="#63b8ff" d="M718.29,-304.49C751.02,-295.2 796.45,-282.29 831.15,-272.44"/>
<polygon fill="#63b8ff" stroke="#63b8ff" points="717.41,-301.1 708.74,-307.2 719.32,-307.84 717.41,-301.1"/>
</g>
<!-- Node3 -->
<g id="node3" class="node">
<title>Node3</title>
<g id="a_node3"><a xlink:href="model__parser_8cpp.html" target="_top" xlink:title=" ">
<polygon fill="white" stroke="#666666" points="1168.5,-206 1035.5,-206 1035.5,-176 1168.5,-176 1168.5,-206"/>
<text text-anchor="start" x="1043.5" y="-194" font-family="Helvetica,sans-Serif" font-size="10.00">HealthGPS.Console/model</text>
<text text-anchor="middle" x="1102" y="-183" font-family="Helvetica,sans-Serif" font-size="10.00">_parser.cpp</text>
</a>
</g>
</g>
<!-- Node2&#45;&gt;Node3 -->
<g id="edge2" class="edge">
<title>Node2&#45;&gt;Node3</title>
<path fill="none" stroke="#63b8ff" d="M1049.29,-234.7C1060.78,-225.4 1073.94,-214.73 1084.24,-206.39"/>
<polygon fill="#63b8ff" stroke="#63b8ff" points="1047.28,-231.83 1041.71,-240.84 1051.68,-237.27 1047.28,-231.83"/>
</g>
<!-- Node4 -->
<g id="node4" class="node">
<title>Node4</title>
<g id="a_node4"><a xlink:href="program_8cpp.html" target="_top" xlink:title=" ">
<polygon fill="white" stroke="#666666" points="711.5,-19 550.5,-19 550.5,0 711.5,0 711.5,-19"/>
<text text-anchor="middle" x="631" y="-7" font-family="Helvetica,sans-Serif" font-size="10.00">HealthGPS.Console/program.cpp</text>
</a>
</g>
</g>
<!-- Node2&#45;&gt;Node4 -->
<g id="edge3" class="edge">
<title>Node2&#45;&gt;Node4</title>
<path fill="none" stroke="#63b8ff" d="M1016.98,-230.56C1011.78,-213.33 1002.73,-191.05 988,-176 897.46,-83.47 745.34,-37.24 672.42,-19.47"/>
<polygon fill="#63b8ff" stroke="#63b8ff" points="1013.57,-231.35 1019.58,-240.07 1020.32,-229.5 1013.57,-231.35"/>
</g>
<!-- Node6 -->
<g id="node6" class="node">
<title>Node6</title>
<g id="a_node6"><a xlink:href="analysis__module_8cpp.html" target="_top" xlink:title=" ">
<polygon fill="white" stroke="#666666" points="104,-206 0,-206 0,-176 104,-176 104,-206"/>
<text text-anchor="start" x="8" y="-194" font-family="Helvetica,sans-Serif" font-size="10.00">HealthGPS/analysis</text>
<text text-anchor="middle" x="52" y="-183" font-family="Helvetica,sans-Serif" font-size="10.00">_module.cpp</text>
</a>
</g>
</g>
<!-- Node5&#45;&gt;Node6 -->
<g id="edge5" class="edge">
<title>Node5&#45;&gt;Node6</title>
<path fill="none" stroke="#63b8ff" d="M146.34,-236.72C125.72,-226.95 101.11,-215.28 82.2,-206.31"/>
<polygon fill="#63b8ff" stroke="#63b8ff" points="144.8,-239.87 155.34,-240.99 147.8,-233.54 144.8,-239.87"/>
</g>
<!-- Node7 -->
<g id="node7" class="node">
<title>Node7</title>
<g id="a_node7"><a xlink:href="simulation__module_8h.html" target="_top" xlink:title=" ">
<polygon fill="white" stroke="#666666" points="535.5,-206 422.5,-206 422.5,-176 535.5,-176 535.5,-206"/>
<text text-anchor="start" x="430.5" y="-194" font-family="Helvetica,sans-Serif" font-size="10.00">HealthGPS/simulation</text>
<text text-anchor="middle" x="479" y="-183" font-family="Helvetica,sans-Serif" font-size="10.00">_module.h</text>
</a>
</g>
</g>
<!-- Node5&#45;&gt;Node7 -->
<g id="edge6" class="edge">
<title>Node5&#45;&gt;Node7</title>
<path fill="none" stroke="#63b8ff" d="M250.43,-241.47C314.87,-227.15 378.24,-213.49 422.47,-204.03"/>
<polygon fill="#63b8ff" stroke="#63b8ff" points="249.71,-238.05 240.71,-243.64 251.23,-244.88 249.71,-238.05"/>
</g>
<!-- Node8 -->
<g id="node8" class="node">
<title>Node8</title>
<g id="a_node8"><a xlink:href="_health_g_p_s_2api_8h.html" target="_top" xlink:title=" ">
<polygon fill="white" stroke="#666666" points="675.5,-74 586.5,-74 586.5,-55 675.5,-55 675.5,-74"/>
<text text-anchor="middle" x="631" y="-62" font-family="Helvetica,sans-Serif" font-size="10.00">HealthGPS/api.h</text>
</a>
</g>
</g>
<!-- Node7&#45;&gt;Node8 -->
<g id="edge7" class="edge">
<title>Node7&#45;&gt;Node8</title>
<path fill="none" stroke="#63b8ff" d="M541.7,-172.25C570.74,-162.88 601.01,-151.05 611,-140 628.07,-121.13 630.82,-89.23 631.1,-74.04"/>
<polygon fill="#63b8ff" stroke="#63b8ff" points="541.03,-168.8 532.54,-175.14 543.13,-175.47 541.03,-168.8"/>
</g>
<!-- Node9 -->
<g id="node9" class="node">
<title>Node9</title>
<g id="a_node9"><a xlink:href="healthgps_8h.html" target="_top" xlink:title=" ">
<polygon fill="white" stroke="#666666" points="471.5,-134.5 352.5,-134.5 352.5,-115.5 471.5,-115.5 471.5,-134.5"/>
<text text-anchor="middle" x="412" y="-122.5" font-family="Helvetica,sans-Serif" font-size="10.00">HealthGPS/healthgps.h</text>
</a>
</g>
</g>
<!-- Node7&#45;&gt;Node9 -->
<g id="edge9" class="edge">
<title>Node7&#45;&gt;Node9</title>
<path fill="none" stroke="#63b8ff" d="M455.91,-167.94C444.01,-156.58 430.17,-143.36 421.26,-134.84"/>
<polygon fill="#63b8ff" stroke="#63b8ff" points="453.39,-170.37 463.04,-174.75 458.22,-165.31 453.39,-170.37"/>
</g>
<!-- Node13 -->
<g id="node13" class="node">
<title>Node13</title>
<g id="a_node13"><a xlink:href="simulation__module_8cpp.html" target="_top" xlink:title=" ">
<polygon fill="white" stroke="#666666" points="602.5,-140 489.5,-140 489.5,-110 602.5,-110 602.5,-140"/>
<text text-anchor="start" x="497.5" y="-128" font-family="Helvetica,sans-Serif" font-size="10.00">HealthGPS/simulation</text>
<text text-anchor="middle" x="546" y="-117" font-family="Helvetica,sans-Serif" font-size="10.00">_module.cpp</text>
</a>
</g>
</g>
<!-- Node7&#45;&gt;Node13 -->
<g id="edge15" class="edge">
<title>Node7&#45;&gt;Node13</title>
<path fill="none" stroke="#63b8ff" d="M501.94,-168.09C511.61,-158.85 522.59,-148.36 531.17,-140.16"/>
<polygon fill="#63b8ff" stroke="#63b8ff" points="499.78,-165.31 494.96,-174.75 504.61,-170.37 499.78,-165.31"/>
</g>
<!-- Node8&#45;&gt;Node4 -->
<g id="edge8" class="edge">
<title>Node8&#45;&gt;Node4</title>
<path fill="none" stroke="#63b8ff" d="M631,-43.35C631,-35.1 631,-25.97 631,-19.44"/>
<polygon fill="#63b8ff" stroke="#63b8ff" points="627.5,-43.23 631,-53.23 634.5,-43.23 627.5,-43.23"/>
</g>
<!-- Node9&#45;&gt;Node8 -->
<g id="edge13" class="edge">
<title>Node9&#45;&gt;Node8</title>
<path fill="none" stroke="#63b8ff" d="M456.2,-112.19C497.93,-101.05 559.59,-84.58 597.43,-74.47"/>
<polygon fill="#63b8ff" stroke="#63b8ff" points="455.48,-108.76 446.72,-114.72 457.29,-115.53 455.48,-108.76"/>
</g>
<!-- Node10 -->
<g id="node10" class="node">
<title>Node10</title>
<g id="a_node10"><a xlink:href="configuration_8h.html" target="_top" xlink:title=" ">
<polygon fill="white" stroke="#666666" points="421,-74 251,-74 251,-55 421,-55 421,-74"/>
<text text-anchor="middle" x="336" y="-62" font-family="Helvetica,sans-Serif" font-size="10.00">HealthGPS.Console/configuration.h</text>
</a>
</g>
</g>
<!-- Node9&#45;&gt;Node10 -->
<g id="edge10" class="edge">
<title>Node9&#45;&gt;Node10</title>
<path fill="none" stroke="#63b8ff" d="M391.51,-108.23C377.45,-97.4 359.3,-83.43 347.65,-74.47"/>
<polygon fill="#63b8ff" stroke="#63b8ff" points="389.2,-110.87 399.26,-114.19 393.47,-105.32 389.2,-110.87"/>
</g>
<!-- Node12 -->
<g id="node12" class="node">
<title>Node12</title>
<g id="a_node12"><a xlink:href="healthgps_8cpp.html" target="_top" xlink:title=" ">
<polygon fill="white" stroke="#666666" points="568.5,-74 439.5,-74 439.5,-55 568.5,-55 568.5,-74"/>
<text text-anchor="middle" x="504" y="-62" font-family="Helvetica,sans-Serif" font-size="10.00">HealthGPS/healthgps.cpp</text>
</a>
</g>
</g>
<!-- Node9&#45;&gt;Node12 -->
<g id="edge14" class="edge">
<title>Node9&#45;&gt;Node12</title>
<path fill="none" stroke="#63b8ff" d="M435.35,-109.16C452.55,-98.22 475.39,-83.69 489.9,-74.47"/>
<polygon fill="#63b8ff" stroke="#63b8ff" points="433.81,-105.98 427.25,-114.3 437.57,-111.89 433.81,-105.98"/>
</g>
<!-- Node10&#45;&gt;Node4 -->
<g id="edge12" class="edge">
<title>Node10&#45;&gt;Node4</title>
<path fill="none" stroke="#63b8ff" d="M397.29,-52.49C451.79,-42.7 530.5,-28.56 581.2,-19.45"/>
<polygon fill="#63b8ff" stroke="#63b8ff" points="396.76,-49.03 387.53,-54.24 397.99,-55.92 396.76,-49.03"/>
</g>
<!-- Node11 -->
<g id="node11" class="node">
<title>Node11</title>
<g id="a_node11"><a xlink:href="configuration_8cpp.html" target="_top" xlink:title=" ">
<polygon fill="white" stroke="#666666" points="426,-19 246,-19 246,0 426,0 426,-19"/>
<text text-anchor="middle" x="336" y="-7" font-family="Helvetica,sans-Serif" font-size="10.00">HealthGPS.Console/configuration.cpp</text>
</a>
</g>
</g>
<!-- Node10&#45;&gt;Node11 -->
<g id="edge11" class="edge">
<title>Node10&#45;&gt;Node11</title>
<path fill="none" stroke="#63b8ff" d="M336,-43.35C336,-35.1 336,-25.97 336,-19.44"/>
<polygon fill="#63b8ff" stroke="#63b8ff" points="332.5,-43.23 336,-53.23 339.5,-43.23 332.5,-43.23"/>
</g>
<!-- Node14&#45;&gt;Node7 -->
<g id="edge18" class="edge">
<title>Node14&#45;&gt;Node7</title>
<path fill="none" stroke="#63b8ff" d="M355.05,-242.85C380.86,-232.26 417.08,-217.4 443.71,-206.48"/>
<polygon fill="#63b8ff" stroke="#63b8ff" points="354.01,-239.49 346.09,-246.53 356.67,-245.97 354.01,-239.49"/>
</g>
<!-- Node15 -->
<g id="node15" class="node">
<title>Node15</title>
<g id="a_node15"><a xlink:href="demographic_8cpp.html" target="_top" xlink:title=" ">
<polygon fill="white" stroke="#666666" points="265.5,-200.5 122.5,-200.5 122.5,-181.5 265.5,-181.5 265.5,-200.5"/>
<text text-anchor="middle" x="194" y="-188.5" font-family="Helvetica,sans-Serif" font-size="10.00">HealthGPS/demographic.cpp</text>
</a>
</g>
</g>
<!-- Node14&#45;&gt;Node15 -->
<g id="edge17" class="edge">
<title>Node14&#45;&gt;Node15</title>
<path fill="none" stroke="#63b8ff" d="M294.99,-242.1C269.71,-229.56 233.28,-211.49 211.78,-200.82"/>
<polygon fill="#63b8ff" stroke="#63b8ff" points="293.19,-245.12 303.71,-246.43 296.3,-238.85 293.19,-245.12"/>
</g>
<!-- Node16&#45;&gt;Node7 -->
<g id="edge21" class="edge">
<title>Node16&#45;&gt;Node7</title>
<path fill="none" stroke="#63b8ff" d="M467.29,-236.1C469.86,-226.43 472.89,-215.02 475.22,-206.23"/>
<polygon fill="#63b8ff" stroke="#63b8ff" points="463.94,-235.07 464.75,-245.64 470.7,-236.87 463.94,-235.07"/>
</g>
<!-- Node17 -->
<g id="node17" class="node">
<title>Node17</title>
<g id="a_node17"><a xlink:href="disease_8cpp.html" target="_top" xlink:title=" ">
<polygon fill="white" stroke="#666666" points="404.5,-200.5 283.5,-200.5 283.5,-181.5 404.5,-181.5 404.5,-200.5"/>
<text text-anchor="middle" x="344" y="-188.5" font-family="Helvetica,sans-Serif" font-size="10.00">HealthGPS/disease.cpp</text>
</a>
</g>
</g>
<!-- Node16&#45;&gt;Node17 -->
<g id="edge20" class="edge">
<title>Node16&#45;&gt;Node17</title>
<path fill="none" stroke="#63b8ff" d="M435.75,-241.76C412.66,-229.24 379.75,-211.39 360.27,-200.82"/>
<polygon fill="#63b8ff" stroke="#63b8ff" points="433.8,-244.69 444.26,-246.38 437.14,-238.54 433.8,-244.69"/>
</g>
<!-- Node18&#45;&gt;Node7 -->
<g id="edge24" class="edge">
<title>Node18&#45;&gt;Node7</title>
<path fill="none" stroke="#63b8ff" d="M576.64,-241.99C556.09,-231.47 528.04,-217.11 507.28,-206.48"/>
<polygon fill="#63b8ff" stroke="#63b8ff" points="574.78,-244.97 585.27,-246.41 577.97,-238.74 574.78,-244.97"/>
</g>
<!-- Node19 -->
<g id="node19" class="node">
<title>Node19</title>
<g id="a_node19"><a xlink:href="modulefactory_8cpp.html" target="_top" xlink:title=" ">
<polygon fill="white" stroke="#666666" points="702,-200.5 554,-200.5 554,-181.5 702,-181.5 702,-200.5"/>
<text text-anchor="middle" x="628" y="-188.5" font-family="Helvetica,sans-Serif" font-size="10.00">HealthGPS/modulefactory.cpp</text>
</a>
</g>
</g>
<!-- Node18&#45;&gt;Node19 -->
<g id="edge23" class="edge">
<title>Node18&#45;&gt;Node19</title>
<path fill="none" stroke="#63b8ff" d="M611.34,-236.43C615.79,-224.55 621.26,-209.96 624.69,-200.82"/>
<polygon fill="#63b8ff" stroke="#63b8ff" points="608.1,-235.09 607.87,-245.68 614.66,-237.55 608.1,-235.09"/>
</g>
<!-- Node21&#45;&gt;Node7 -->
<g id="edge28" class="edge">
<title>Node21&#45;&gt;Node7</title>
<path fill="none" stroke="#63b8ff" d="M700.24,-244.44C654.01,-233.48 584.59,-217.03 535.86,-205.48"/>
<polygon fill="#63b8ff" stroke="#63b8ff" points="699.16,-247.78 709.7,-246.68 700.78,-240.97 699.16,-247.78"/>
</g>
<!-- Node22 -->
<g id="node22" class="node">
<title>Node22</title>
<g id="a_node22"><a xlink:href="riskfactor_8cpp.html" target="_top" xlink:title=" ">
<polygon fill="white" stroke="#666666" points="847.5,-200.5 720.5,-200.5 720.5,-181.5 847.5,-181.5 847.5,-200.5"/>
<text text-anchor="middle" x="784" y="-188.5" font-family="Helvetica,sans-Serif" font-size="10.00">HealthGPS/riskfactor.cpp</text>
</a>
</g>
</g>
<!-- Node21&#45;&gt;Node22 -->
<g id="edge27" class="edge">
<title>Node21&#45;&gt;Node22</title>
<path fill="none" stroke="#63b8ff" d="M759.3,-237.16C765.87,-225.16 774.07,-210.15 779.17,-200.82"/>
<polygon fill="#63b8ff" stroke="#63b8ff" points="756.32,-235.32 754.59,-245.77 762.46,-238.68 756.32,-235.32"/>
</g>
<!-- Node23&#45;&gt;Node7 -->
<g id="edge31" class="edge">
<title>Node23&#45;&gt;Node7</title>
<path fill="none" stroke="#63b8ff" d="M814.09,-241.77C694.34,-221.66 661.23,-226.02 545,-206 542,-205.48 538.93,-204.93 535.83,-204.34"/>
<polygon fill="#63b8ff" stroke="#63b8ff" points="813.23,-245.17 823.68,-243.4 814.41,-238.27 813.23,-245.17"/>
</g>
<!-- Node24 -->
<g id="node24" class="node">
<title>Node24</title>
<g id="a_node24"><a xlink:href="ses__noise__module_8cpp.html" target="_top" xlink:title=" ">
<polygon fill="white" stroke="#666666" points="978.5,-206 865.5,-206 865.5,-176 978.5,-176 978.5,-206"/>
<text text-anchor="start" x="873.5" y="-194" font-family="Helvetica,sans-Serif" font-size="10.00">HealthGPS/ses_noise</text>
<text text-anchor="middle" x="922" y="-183" font-family="Helvetica,sans-Serif" font-size="10.00">_module.cpp</text>
</a>
</g>
</g>
<!-- Node23&#45;&gt;Node24 -->
<g id="edge30" class="edge">
<title>Node23&#45;&gt;Node24</title>
<path fill="none" stroke="#63b8ff" d="M896.93,-232.11C902.39,-223.38 908.39,-213.78 913.15,-206.16"/>
<polygon fill="#63b8ff" stroke="#63b8ff" points="894.01,-230.18 891.68,-240.51 899.95,-233.89 894.01,-230.18"/>
</g>
</g>
</svg>
