<?xml version="1.0" encoding="UTF-8" standalone="no"?>
<!DOCTYPE svg PUBLIC "-//W3C//DTD SVG 1.1//EN"
 "http://www.w3.org/Graphics/SVG/1.1/DTD/svg11.dtd">
<!-- Generated by graphviz version 7.0.6 (20230106.0513)
 -->
<!-- Title: HealthGPS.Console/result_file_writer.cpp Pages: 1 -->
<svg width="958pt" height="434pt"
 viewBox="0.00 0.00 957.50 434.00" xmlns="http://www.w3.org/2000/svg" xmlns:xlink="http://www.w3.org/1999/xlink">
<g id="graph0" class="graph" transform="scale(1 1) rotate(0) translate(4 430)">
<title>HealthGPS.Console/result_file_writer.cpp</title>
<!-- Node1 -->
<g id="node1" class="node">
<title>Node1</title>
<g id="a_node1"><a xlink:title=" ">
<polygon fill="#999999" stroke="#666666" points="668,-426 537,-426 537,-396 668,-396 668,-426"/>
<text text-anchor="start" x="545" y="-414" font-family="Helvetica,sans-Serif" font-size="10.00">HealthGPS.Console/result</text>
<text text-anchor="middle" x="602.5" y="-403" font-family="Helvetica,sans-Serif" font-size="10.00">_file_writer.cpp</text>
</a>
</g>
</g>
<!-- Node2 -->
<g id="node2" class="node">
<title>Node2</title>
<g id="a_node2"><a xlink:href="result__file__writer_8h.html" target="_top" xlink:title=" ">
<polygon fill="white" stroke="#666666" points="299,-360 204,-360 204,-341 299,-341 299,-360"/>
<text text-anchor="middle" x="251.5" y="-348" font-family="Helvetica,sans-Serif" font-size="10.00">result_file_writer.h</text>
</a>
</g>
</g>
<!-- Node1&#45;&gt;Node2 -->
<g id="edge1" class="edge">
<title>Node1&#45;&gt;Node2</title>
<path fill="none" stroke="#63b8ff" d="M536.89,-399.07C471.89,-388.23 373.22,-371.79 310.59,-361.35"/>
<polygon fill="#63b8ff" stroke="#63b8ff" points="311.26,-357.91 300.82,-359.72 310.11,-364.82 311.26,-357.91"/>
</g>
<!-- Node14 -->
<g id="node14" class="node">
<title>Node14</title>
<g id="a_node14"><a xlink:href="data__series_8h.html" target="_top" xlink:title=" ">
<polygon fill="white" stroke="#666666" points="378,-140 303,-140 303,-121 378,-121 378,-140"/>
<text text-anchor="middle" x="340.5" y="-128" font-family="Helvetica,sans-Serif" font-size="10.00">data_series.h</text>
</a>
</g>
</g>
<!-- Node1&#45;&gt;Node14 -->
<g id="edge28" class="edge">
<title>Node1&#45;&gt;Node14</title>
<path fill="none" stroke="#63b8ff" d="M548.92,-395.54C528.72,-387.81 506.92,-376.4 491.5,-360 470.84,-338.02 467.5,-326.67 467.5,-296.5 467.5,-296.5 467.5,-296.5 467.5,-239.5 467.5,-191.82 414.91,-160.78 377.41,-144.71"/>
<polygon fill="#63b8ff" stroke="#63b8ff" points="378.8,-141.5 368.22,-140.96 376.15,-147.98 378.8,-141.5"/>
</g>
<!-- Node15 -->
<g id="node15" class="node">
<title>Node15</title>
<g id="a_node15"><a xlink:href="forward__type_8h.html" target="_top" xlink:title=" ">
<polygon fill="white" stroke="#666666" points="451.5,-85 329.5,-85 329.5,-55 451.5,-55 451.5,-85"/>
<text text-anchor="start" x="337.5" y="-73" font-family="Helvetica,sans-Serif" font-size="10.00">HealthGPS.Core/forward</text>
<text text-anchor="middle" x="390.5" y="-62" font-family="Helvetica,sans-Serif" font-size="10.00">_type.h</text>
</a>
</g>
</g>
<!-- Node1&#45;&gt;Node15 -->
<g id="edge29" class="edge">
<title>Node1&#45;&gt;Node15</title>
<path fill="none" stroke="#63b8ff" d="M569.29,-395.5C553.68,-387.17 536.02,-375.29 524.5,-360 506.77,-336.47 505.5,-325.96 505.5,-296.5 505.5,-296.5 505.5,-296.5 505.5,-184.5 505.5,-155.04 505.27,-143.71 486.5,-121 475.7,-107.94 460.6,-97.87 445.56,-90.31"/>
<polygon fill="#63b8ff" stroke="#63b8ff" points="447.13,-87.18 436.59,-86.12 444.16,-93.52 447.13,-87.18"/>
</g>
<!-- Node22 -->
<g id="node22" class="node">
<title>Node22</title>
<g id="a_node22"><a xlink:title=" ">
<polygon fill="#e0e0e0" stroke="#999999" points="593.5,-360 533.5,-360 533.5,-341 593.5,-341 593.5,-360"/>
<text text-anchor="middle" x="563.5" y="-348" font-family="Helvetica,sans-Serif" font-size="10.00">fmt/core.h</text>
</a>
</g>
</g>
<!-- Node1&#45;&gt;Node22 -->
<g id="edge30" class="edge">
<title>Node1&#45;&gt;Node22</title>
<path fill="none" stroke="#63b8ff" d="M592.86,-395.54C587.66,-387.74 581.18,-378.03 575.64,-369.71"/>
<polygon fill="#63b8ff" stroke="#63b8ff" points="578.58,-367.81 570.12,-361.43 572.76,-371.7 578.58,-367.81"/>
</g>
<!-- Node23 -->
<g id="node23" class="node">
<title>Node23</title>
<g id="a_node23"><a xlink:title=" ">
<polygon fill="#e0e0e0" stroke="#999999" points="673.5,-360 611.5,-360 611.5,-341 673.5,-341 673.5,-360"/>
<text text-anchor="middle" x="642.5" y="-348" font-family="Helvetica,sans-Serif" font-size="10.00">fmt/color.h</text>
</a>
</g>
</g>
<!-- Node1&#45;&gt;Node23 -->
<g id="edge31" class="edge">
<title>Node1&#45;&gt;Node23</title>
<path fill="none" stroke="#63b8ff" d="M612.39,-395.54C617.78,-387.65 624.51,-377.81 630.24,-369.44"/>
<polygon fill="#63b8ff" stroke="#63b8ff" points="632.96,-371.65 635.71,-361.42 627.18,-367.7 632.96,-371.65"/>
</g>
<!-- Node24 -->
<g id="node24" class="node">
<title>Node24</title>
<g id="a_node24"><a xlink:title=" ">
<polygon fill="#e0e0e0" stroke="#999999" points="763,-360 692,-360 692,-341 763,-341 763,-360"/>
<text text-anchor="middle" x="727.5" y="-348" font-family="Helvetica,sans-Serif" font-size="10.00">fmt/chrono.h</text>
</a>
</g>
</g>
<!-- Node1&#45;&gt;Node24 -->
<g id="edge32" class="edge">
<title>Node1&#45;&gt;Node24</title>
<path fill="none" stroke="#63b8ff" d="M633.4,-395.54C653.19,-386.28 678.73,-374.33 698.2,-365.21"/>
<polygon fill="#63b8ff" stroke="#63b8ff" points="699.65,-368.4 707.23,-360.99 696.69,-362.06 699.65,-368.4"/>
</g>
<!-- Node25 -->
<g id="node25" class="node">
<title>Node25</title>
<g id="a_node25"><a xlink:title=" ">
<polygon fill="#e0e0e0" stroke="#999999" points="879.5,-360 781.5,-360 781.5,-341 879.5,-341 879.5,-360"/>
<text text-anchor="middle" x="830.5" y="-348" font-family="Helvetica,sans-Serif" font-size="10.00">nlohmann/json.hpp</text>
</a>
</g>
</g>
<!-- Node1&#45;&gt;Node25 -->
<g id="edge33" class="edge">
<title>Node1&#45;&gt;Node25</title>
<path fill="none" stroke="#63b8ff" d="M658.86,-395.54C697.7,-385.57 748.65,-372.5 784.93,-363.19"/>
<polygon fill="#63b8ff" stroke="#63b8ff" points="785.41,-366.68 794.22,-360.81 783.67,-359.9 785.41,-366.68"/>
</g>
<!-- Node26 -->
<g id="node26" class="node">
<title>Node26</title>
<g id="a_node26"><a xlink:title=" ">
<polygon fill="#e0e0e0" stroke="#999999" points="949.5,-360 897.5,-360 897.5,-341 949.5,-341 949.5,-360"/>
<text text-anchor="middle" x="923.5" y="-348" font-family="Helvetica,sans-Serif" font-size="10.00">sstream</text>
</a>
</g>
</g>
<!-- Node1&#45;&gt;Node26 -->
<g id="edge34" class="edge">
<title>Node1&#45;&gt;Node26</title>
<path fill="none" stroke="#63b8ff" d="M668.33,-399.74C723.95,-390.79 805.96,-376.93 886.35,-360.34"/>
<polygon fill="#63b8ff" stroke="#63b8ff" points="886.61,-363.86 895.69,-358.4 885.18,-357.01 886.61,-363.86"/>
</g>
<!-- Node3 -->
<g id="node3" class="node">
<title>Node3</title>
<g id="a_node3"><a xlink:title=" ">
<polygon fill="#e0e0e0" stroke="#999999" points="439.5,-305 395.5,-305 395.5,-286 439.5,-286 439.5,-305"/>
<text text-anchor="middle" x="417.5" y="-293" font-family="Helvetica,sans-Serif" font-size="10.00">mutex</text>
</a>
</g>
</g>
<!-- Node2&#45;&gt;Node3 -->
<g id="edge2" class="edge">
<title>Node2&#45;&gt;Node3</title>
<path fill="none" stroke="#63b8ff" d="M279.66,-340.51C308.66,-331.25 353.82,-316.83 384.49,-307.04"/>
<polygon fill="#63b8ff" stroke="#63b8ff" points="385.17,-310.5 393.63,-304.12 383.04,-303.83 385.17,-310.5"/>
</g>
<!-- Node4 -->
<g id="node4" class="node">
<title>Node4</title>
<g id="a_node4"><a xlink:title=" ">
<polygon fill="#e0e0e0" stroke="#999999" points="135.5,-305 89.5,-305 89.5,-286 135.5,-286 135.5,-305"/>
<text text-anchor="middle" x="112.5" y="-293" font-family="Helvetica,sans-Serif" font-size="10.00">atomic</text>
</a>
</g>
</g>
<!-- Node2&#45;&gt;Node4 -->
<g id="edge3" class="edge">
<title>Node2&#45;&gt;Node4</title>
<path fill="none" stroke="#63b8ff" d="M227.92,-340.51C205.52,-331.97 171.6,-319.03 146.32,-309.4"/>
<polygon fill="#63b8ff" stroke="#63b8ff" points="147.74,-306.19 137.15,-305.9 145.24,-312.73 147.74,-306.19"/>
</g>
<!-- Node5 -->
<g id="node5" class="node">
<title>Node5</title>
<g id="a_node5"><a xlink:title=" ">
<polygon fill="#e0e0e0" stroke="#999999" points="203,-305 154,-305 154,-286 203,-286 203,-305"/>
<text text-anchor="middle" x="178.5" y="-293" font-family="Helvetica,sans-Serif" font-size="10.00">fstream</text>
</a>
</g>
</g>
<!-- Node2&#45;&gt;Node5 -->
<g id="edge4" class="edge">
<title>Node2&#45;&gt;Node5</title>
<path fill="none" stroke="#63b8ff" d="M239.12,-340.51C228.35,-332.7 212.53,-321.21 199.75,-311.93"/>
<polygon fill="#63b8ff" stroke="#63b8ff" points="202.07,-309.29 191.93,-306.25 197.96,-314.95 202.07,-309.29"/>
</g>
<!-- Node6 -->
<g id="node6" class="node">
<title>Node6</title>
<g id="a_node6"><a xlink:title=" ">
<polygon fill="#e0e0e0" stroke="#999999" points="282,-305 221,-305 221,-286 282,-286 282,-305"/>
<text text-anchor="middle" x="251.5" y="-293" font-family="Helvetica,sans-Serif" font-size="10.00">filesystem</text>
</a>
</g>
</g>
<!-- Node2&#45;&gt;Node6 -->
<g id="edge5" class="edge">
<title>Node2&#45;&gt;Node6</title>
<path fill="none" stroke="#63b8ff" d="M251.5,-340.75C251.5,-334.27 251.5,-325.16 251.5,-316.9"/>
<polygon fill="#63b8ff" stroke="#63b8ff" points="255,-316.96 251.5,-306.96 248,-316.96 255,-316.96"/>
</g>
<!-- Node7 -->
<g id="node7" class="node">
<title>Node7</title>
<g id="a_node7"><a xlink:href="result__writer_8h.html" target="_top" xlink:title=" ">
<polygon fill="white" stroke="#666666" points="377,-305 300,-305 300,-286 377,-286 377,-305"/>
<text text-anchor="middle" x="338.5" y="-293" font-family="Helvetica,sans-Serif" font-size="10.00">result_writer.h</text>
</a>
</g>
</g>
<!-- Node2&#45;&gt;Node7 -->
<g id="edge6" class="edge">
<title>Node2&#45;&gt;Node7</title>
<path fill="none" stroke="#63b8ff" d="M266.26,-340.51C279.46,-332.47 299.06,-320.53 314.51,-311.11"/>
<polygon fill="#63b8ff" stroke="#63b8ff" points="315.95,-314.34 322.67,-306.15 312.31,-308.36 315.95,-314.34"/>
</g>
<!-- Node20 -->
<g id="node20" class="node">
<title>Node20</title>
<g id="a_node20"><a xlink:href="model__info_8h.html" target="_top" xlink:title=" ">
<polygon fill="white" stroke="#666666" points="71,-305 0,-305 0,-286 71,-286 71,-305"/>
<text text-anchor="middle" x="35.5" y="-293" font-family="Helvetica,sans-Serif" font-size="10.00">model_info.h</text>
</a>
</g>
</g>
<!-- Node2&#45;&gt;Node20 -->
<g id="edge25" class="edge">
<title>Node2&#45;&gt;Node20</title>
<path fill="none" stroke="#63b8ff" d="M214.86,-340.51C178.3,-331.54 122,-317.72 82.24,-307.97"/>
<polygon fill="#63b8ff" stroke="#63b8ff" points="83.26,-304.61 72.71,-305.63 81.59,-311.41 83.26,-304.61"/>
</g>
<!-- Node8 -->
<g id="node8" class="node">
<title>Node8</title>
<g id="a_node8"><a xlink:href="result__message_8h.html" target="_top" xlink:title=" ">
<polygon fill="white" stroke="#666666" points="396.5,-250 250.5,-250 250.5,-231 396.5,-231 396.5,-250"/>
<text text-anchor="middle" x="323.5" y="-238" font-family="Helvetica,sans-Serif" font-size="10.00">HealthGPS/result_message.h</text>
</a>
</g>
</g>
<!-- Node7&#45;&gt;Node8 -->
<g id="edge7" class="edge">
<title>Node7&#45;&gt;Node8</title>
<path fill="none" stroke="#63b8ff" d="M336.02,-285.75C334.15,-279.11 331.49,-269.73 329.11,-261.31"/>
<polygon fill="#63b8ff" stroke="#63b8ff" points="332.53,-260.57 326.44,-251.9 325.8,-262.47 332.53,-260.57"/>
</g>
<!-- Node9 -->
<g id="node9" class="node">
<title>Node9</title>
<g id="a_node9"><a xlink:href="event__message_8h.html" target="_top" xlink:title=" ">
<polygon fill="white" stroke="#666666" points="108.5,-140 16.5,-140 16.5,-121 108.5,-121 108.5,-140"/>
<text text-anchor="middle" x="62.5" y="-128" font-family="Helvetica,sans-Serif" font-size="10.00">event_message.h</text>
</a>
</g>
</g>
<!-- Node8&#45;&gt;Node9 -->
<g id="edge8" class="edge">
<title>Node8&#45;&gt;Node9</title>
<path fill="none" stroke="#63b8ff" d="M302.14,-230.66C256.35,-211.72 148.53,-167.1 94.51,-144.75"/>
<polygon fill="#63b8ff" stroke="#63b8ff" points="96.13,-141.63 85.55,-141.04 93.45,-148.1 96.13,-141.63"/>
</g>
<!-- Node13 -->
<g id="node13" class="node">
<title>Node13</title>
<g id="a_node13"><a xlink:href="model__result_8h.html" target="_top" xlink:title=" ">
<polygon fill="white" stroke="#666666" points="338.5,-195 258.5,-195 258.5,-176 338.5,-176 338.5,-195"/>
<text text-anchor="middle" x="298.5" y="-183" font-family="Helvetica,sans-Serif" font-size="10.00">model_result.h</text>
</a>
</g>
</g>
<!-- Node8&#45;&gt;Node13 -->
<g id="edge12" class="edge">
<title>Node8&#45;&gt;Node13</title>
<path fill="none" stroke="#63b8ff" d="M319.37,-230.75C316.17,-223.96 311.61,-214.3 307.57,-205.73"/>
<polygon fill="#63b8ff" stroke="#63b8ff" points="310.8,-204.36 303.36,-196.81 304.46,-207.35 310.8,-204.36"/>
</g>
<!-- Node10 -->
<g id="node10" class="node">
<title>Node10</title>
<g id="a_node10"><a xlink:title=" ">
<polygon fill="#e0e0e0" stroke="#999999" points="197,-79.5 156,-79.5 156,-60.5 197,-60.5 197,-79.5"/>
<text text-anchor="middle" x="176.5" y="-67.5" font-family="Helvetica,sans-Serif" font-size="10.00">string</text>
</a>
</g>
</g>
<!-- Node9&#45;&gt;Node10 -->
<g id="edge9" class="edge">
<title>Node9&#45;&gt;Node10</title>
<path fill="none" stroke="#63b8ff" d="M79.81,-120.62C98.14,-111.21 127.34,-96.22 148.86,-85.18"/>
<polygon fill="#63b8ff" stroke="#63b8ff" points="150.38,-88.34 157.68,-80.66 147.18,-82.11 150.38,-88.34"/>
</g>
<!-- Node11 -->
<g id="node11" class="node">
<title>Node11</title>
<g id="a_node11"><a xlink:title=" ">
<polygon fill="#e0e0e0" stroke="#999999" points="290.5,-19 244.5,-19 244.5,0 290.5,0 290.5,-19"/>
<text text-anchor="middle" x="267.5" y="-7" font-family="Helvetica,sans-Serif" font-size="10.00">cstdint</text>
</a>
</g>
</g>
<!-- Node9&#45;&gt;Node11 -->
<g id="edge10" class="edge">
<title>Node9&#45;&gt;Node11</title>
<path fill="none" stroke="#63b8ff" d="M71.6,-120.76C89.93,-103.28 130.98,-64.84 147.5,-55 174.65,-38.82 208.67,-26.89 233.54,-19.47"/>
<polygon fill="#63b8ff" stroke="#63b8ff" points="234.18,-22.93 242.82,-16.8 232.24,-16.2 234.18,-22.93"/>
</g>
<!-- Node12 -->
<g id="node12" class="node">
<title>Node12</title>
<g id="a_node12"><a xlink:href="event__visitor_8h.html" target="_top" xlink:title=" ">
<polygon fill="white" stroke="#666666" points="99,-79.5 22,-79.5 22,-60.5 99,-60.5 99,-79.5"/>
<text text-anchor="middle" x="60.5" y="-67.5" font-family="Helvetica,sans-Serif" font-size="10.00">event_visitor.h</text>
</a>
</g>
</g>
<!-- Node9&#45;&gt;Node12 -->
<g id="edge11" class="edge">
<title>Node9&#45;&gt;Node12</title>
<path fill="none" stroke="#63b8ff" d="M62.2,-120.87C61.94,-113 61.53,-101.1 61.18,-90.89"/>
<polygon fill="#63b8ff" stroke="#63b8ff" points="64.69,-91.05 60.85,-81.18 57.69,-91.29 64.69,-91.05"/>
</g>
<!-- Node13&#45;&gt;Node10 -->
<g id="edge22" class="edge">
<title>Node13&#45;&gt;Node10</title>
<path fill="none" stroke="#63b8ff" d="M288.93,-175.59C268.53,-156.61 220.5,-111.93 194.3,-87.56"/>
<polygon fill="#63b8ff" stroke="#63b8ff" points="196.84,-85.14 187.14,-80.9 192.07,-90.27 196.84,-85.14"/>
</g>
<!-- Node13&#45;&gt;Node14 -->
<g id="edge13" class="edge">
<title>Node13&#45;&gt;Node14</title>
<path fill="none" stroke="#63b8ff" d="M305.44,-175.75C311.12,-168.58 319.34,-158.2 326.39,-149.3"/>
<polygon fill="#63b8ff" stroke="#63b8ff" points="329.01,-151.64 332.47,-141.63 323.52,-147.29 329.01,-151.64"/>
</g>
<!-- Node17 -->
<g id="node17" class="node">
<title>Node17</title>
<g id="a_node17"><a xlink:title=" ">
<polygon fill="#e0e0e0" stroke="#999999" points="257.5,-79.5 215.5,-79.5 215.5,-60.5 257.5,-60.5 257.5,-79.5"/>
<text text-anchor="middle" x="236.5" y="-67.5" font-family="Helvetica,sans-Serif" font-size="10.00">vector</text>
</a>
</g>
</g>
<!-- Node13&#45;&gt;Node17 -->
<g id="edge24" class="edge">
<title>Node13&#45;&gt;Node17</title>
<path fill="none" stroke="#63b8ff" d="M293.63,-175.59C283.58,-157.19 260.34,-114.64 246.8,-89.85"/>
<polygon fill="#63b8ff" stroke="#63b8ff" points="249.93,-88.29 242.07,-81.19 243.79,-91.65 249.93,-88.29"/>
</g>
<!-- Node18 -->
<g id="node18" class="node">
<title>Node18</title>
<g id="a_node18"><a xlink:title=" ">
<polygon fill="#e0e0e0" stroke="#999999" points="311,-79.5 276,-79.5 276,-60.5 311,-60.5 311,-79.5"/>
<text text-anchor="middle" x="293.5" y="-67.5" font-family="Helvetica,sans-Serif" font-size="10.00">map</text>
</a>
</g>
</g>
<!-- Node13&#45;&gt;Node18 -->
<g id="edge23" class="edge">
<title>Node13&#45;&gt;Node18</title>
<path fill="none" stroke="#63b8ff" d="M297.51,-175.65C296.55,-166.68 295.15,-152.39 294.5,-140 293.65,-123.68 293.42,-105.16 293.39,-91.42"/>
<polygon fill="#63b8ff" stroke="#63b8ff" points="296.89,-91.46 293.41,-81.45 289.89,-91.45 296.89,-91.46"/>
</g>
<!-- Node19 -->
<g id="node19" class="node">
<title>Node19</title>
<g id="a_node19"><a xlink:href="gender__value_8h.html" target="_top" xlink:title=" ">
<polygon fill="white" stroke="#666666" points="477,-140 396,-140 396,-121 477,-121 477,-140"/>
<text text-anchor="middle" x="436.5" y="-128" font-family="Helvetica,sans-Serif" font-size="10.00">gender_value.h</text>
</a>
</g>
</g>
<!-- Node13&#45;&gt;Node19 -->
<g id="edge20" class="edge">
<title>Node13&#45;&gt;Node19</title>
<path fill="none" stroke="#63b8ff" d="M321.91,-175.51C344.15,-166.97 377.83,-154.03 402.92,-144.4"/>
<polygon fill="#63b8ff" stroke="#63b8ff" points="403.94,-147.75 412.02,-140.9 401.43,-141.22 403.94,-147.75"/>
</g>
<!-- Node14&#45;&gt;Node10 -->
<g id="edge17" class="edge">
<title>Node14&#45;&gt;Node10</title>
<path fill="none" stroke="#63b8ff" d="M310.07,-120.5C282.67,-112.14 241.46,-98.91 206.5,-85 206.02,-84.81 205.54,-84.61 205.05,-84.42"/>
<polygon fill="#63b8ff" stroke="#63b8ff" points="206.71,-81.32 196.14,-80.53 203.91,-87.74 206.71,-81.32"/>
</g>
<!-- Node14&#45;&gt;Node15 -->
<g id="edge14" class="edge">
<title>Node14&#45;&gt;Node15</title>
<path fill="none" stroke="#63b8ff" d="M347.88,-120.87C353.97,-113.74 362.91,-103.28 371.02,-93.79"/>
<polygon fill="#63b8ff" stroke="#63b8ff" points="373.62,-96.14 377.45,-86.27 368.3,-91.59 373.62,-96.14"/>
</g>
<!-- Node14&#45;&gt;Node17 -->
<g id="edge18" class="edge">
<title>Node14&#45;&gt;Node17</title>
<path fill="none" stroke="#63b8ff" d="M324.7,-120.62C308.14,-111.29 281.83,-96.5 262.25,-85.49"/>
<polygon fill="#63b8ff" stroke="#63b8ff" points="264.19,-82.56 253.76,-80.71 260.76,-88.66 264.19,-82.56"/>
</g>
<!-- Node14&#45;&gt;Node18 -->
<g id="edge19" class="edge">
<title>Node14&#45;&gt;Node18</title>
<path fill="none" stroke="#63b8ff" d="M333.56,-120.87C326.76,-112.4 316.19,-99.24 307.61,-88.57"/>
<polygon fill="#63b8ff" stroke="#63b8ff" points="310.4,-86.45 301.41,-80.85 304.95,-90.84 310.4,-86.45"/>
</g>
<!-- Node15&#45;&gt;Node11 -->
<g id="edge16" class="edge">
<title>Node15&#45;&gt;Node11</title>
<path fill="none" stroke="#63b8ff" d="M360.1,-54.54C340.62,-45.28 315.49,-33.33 296.33,-24.21"/>
<polygon fill="#63b8ff" stroke="#63b8ff" points="298,-21.13 287.47,-20 294.99,-27.45 298,-21.13"/>
</g>
<!-- Node16 -->
<g id="node16" class="node">
<title>Node16</title>
<g id="a_node16"><a xlink:title=" ">
<polygon fill="#e0e0e0" stroke="#999999" points="465.5,-19 403.5,-19 403.5,0 465.5,0 465.5,-19"/>
<text text-anchor="middle" x="434.5" y="-7" font-family="Helvetica,sans-Serif" font-size="10.00">type_traits</text>
</a>
</g>
</g>
<!-- Node15&#45;&gt;Node16 -->
<g id="edge15" class="edge">
<title>Node15&#45;&gt;Node16</title>
<path fill="none" stroke="#63b8ff" d="M401.38,-54.54C407.38,-46.56 414.87,-36.59 421.22,-28.16"/>
<polygon fill="#63b8ff" stroke="#63b8ff" points="423.85,-30.48 427.07,-20.38 418.26,-26.27 423.85,-30.48"/>
</g>
<!-- Node19&#45;&gt;Node16 -->
<g id="edge21" class="edge">
<title>Node19&#45;&gt;Node16</title>
<path fill="none" stroke="#63b8ff" d="M443.09,-120.51C448.97,-111.9 457.15,-98.28 460.5,-85 463.76,-72.07 463.98,-67.87 460.5,-55 457.99,-45.74 453.02,-36.42 448.09,-28.73"/>
<polygon fill="#63b8ff" stroke="#63b8ff" points="451.06,-26.87 442.49,-20.64 445.31,-30.86 451.06,-26.87"/>
</g>
<!-- Node20&#45;&gt;Node10 -->
<g id="edge26" class="edge">
<title>Node20&#45;&gt;Node10</title>
<path fill="none" stroke="#63b8ff" d="M41.03,-285.74C61.86,-252.71 135.93,-135.32 164.83,-89.5"/>
<polygon fill="#63b8ff" stroke="#63b8ff" points="167.67,-91.55 170.05,-81.22 161.75,-87.81 167.67,-91.55"/>
</g>
<!-- Node21 -->
<g id="node21" class="node">
<title>Node21</title>
<g id="a_node21"><a xlink:title=" ">
<polygon fill="#e0e0e0" stroke="#999999" points="232.5,-250 164.5,-250 164.5,-231 232.5,-231 232.5,-250"/>
<text text-anchor="middle" x="198.5" y="-238" font-family="Helvetica,sans-Serif" font-size="10.00">fmt/format.h</text>
</a>
</g>
</g>
<!-- Node20&#45;&gt;Node21 -->
<g id="edge27" class="edge">
<title>Node20&#45;&gt;Node21</title>
<path fill="none" stroke="#63b8ff" d="M63.15,-285.51C89.81,-276.84 130.38,-263.65 160.16,-253.97"/>
<polygon fill="#63b8ff" stroke="#63b8ff" points="161.12,-257.33 169.55,-250.91 158.95,-250.68 161.12,-257.33"/>
</g>
</g>
</svg>
