<?xml version="1.0" encoding="UTF-8" standalone="no"?>
<!DOCTYPE svg PUBLIC "-//W3C//DTD SVG 1.1//EN"
 "http://www.w3.org/Graphics/SVG/1.1/DTD/svg11.dtd">
<!-- Generated by graphviz version 7.0.6 (20230106.0513)
 -->
<!-- Title: HealthGPS.Console/result_file_writer.h Pages: 1 -->
<svg width="655pt" height="379pt"
 viewBox="0.00 0.00 654.50 379.00" xmlns="http://www.w3.org/2000/svg" xmlns:xlink="http://www.w3.org/1999/xlink">
<g id="graph0" class="graph" transform="scale(1 1) rotate(0) translate(4 375)">
<title>HealthGPS.Console/result_file_writer.h</title>
<!-- Node1 -->
<g id="node1" class="node">
<title>Node1</title>
<g id="a_node1"><a xlink:title=" ">
<polygon fill="#999999" stroke="#666666" points="252.5,-371 121.5,-371 121.5,-341 252.5,-341 252.5,-371"/>
<text text-anchor="start" x="129.5" y="-359" font-family="Helvetica,sans-Serif" font-size="10.00">HealthGPS.Console/result</text>
<text text-anchor="middle" x="187" y="-348" font-family="Helvetica,sans-Serif" font-size="10.00">_file_writer.h</text>
</a>
</g>
</g>
<!-- Node2 -->
<g id="node2" class="node">
<title>Node2</title>
<g id="a_node2"><a xlink:title=" ">
<polygon fill="#e0e0e0" stroke="#999999" points="44,-305 0,-305 0,-286 44,-286 44,-305"/>
<text text-anchor="middle" x="22" y="-293" font-family="Helvetica,sans-Serif" font-size="10.00">mutex</text>
</a>
</g>
</g>
<!-- Node1&#45;&gt;Node2 -->
<g id="edge1" class="edge">
<title>Node1&#45;&gt;Node2</title>
<path fill="none" stroke="#63b8ff" d="M146.21,-340.54C117.99,-330.53 80.93,-317.39 54.65,-308.08"/>
<polygon fill="#63b8ff" stroke="#63b8ff" points="56.13,-304.89 45.54,-304.85 53.79,-311.49 56.13,-304.89"/>
</g>
<!-- Node3 -->
<g id="node3" class="node">
<title>Node3</title>
<g id="a_node3"><a xlink:title=" ">
<polygon fill="#e0e0e0" stroke="#999999" points="108,-305 62,-305 62,-286 108,-286 108,-305"/>
<text text-anchor="middle" x="85" y="-293" font-family="Helvetica,sans-Serif" font-size="10.00">atomic</text>
</a>
</g>
</g>
<!-- Node1&#45;&gt;Node3 -->
<g id="edge2" class="edge">
<title>Node1&#45;&gt;Node3</title>
<path fill="none" stroke="#63b8ff" d="M161.79,-340.54C146.01,-331.49 125.77,-319.88 110.03,-310.85"/>
<polygon fill="#63b8ff" stroke="#63b8ff" points="112.15,-308.04 101.74,-306.1 108.67,-314.11 112.15,-308.04"/>
</g>
<!-- Node4 -->
<g id="node4" class="node">
<title>Node4</title>
<g id="a_node4"><a xlink:title=" ">
<polygon fill="#e0e0e0" stroke="#999999" points="175.5,-305 126.5,-305 126.5,-286 175.5,-286 175.5,-305"/>
<text text-anchor="middle" x="151" y="-293" font-family="Helvetica,sans-Serif" font-size="10.00">fstream</text>
</a>
</g>
</g>
<!-- Node1&#45;&gt;Node4 -->
<g id="edge3" class="edge">
<title>Node1&#45;&gt;Node4</title>
<path fill="none" stroke="#63b8ff" d="M178.1,-340.54C173.3,-332.74 167.32,-323.03 162.21,-314.71"/>
<polygon fill="#63b8ff" stroke="#63b8ff" points="165.35,-313.15 157.13,-306.46 159.39,-316.82 165.35,-313.15"/>
</g>
<!-- Node5 -->
<g id="node5" class="node">
<title>Node5</title>
<g id="a_node5"><a xlink:title=" ">
<polygon fill="#e0e0e0" stroke="#999999" points="254.5,-305 193.5,-305 193.5,-286 254.5,-286 254.5,-305"/>
<text text-anchor="middle" x="224" y="-293" font-family="Helvetica,sans-Serif" font-size="10.00">filesystem</text>
</a>
</g>
</g>
<!-- Node1&#45;&gt;Node5 -->
<g id="edge4" class="edge">
<title>Node1&#45;&gt;Node5</title>
<path fill="none" stroke="#63b8ff" d="M196.15,-340.54C201.08,-332.74 207.22,-323.03 212.48,-314.71"/>
<polygon fill="#63b8ff" stroke="#63b8ff" points="215.32,-316.78 217.7,-306.45 209.4,-313.03 215.32,-316.78"/>
</g>
<!-- Node6 -->
<g id="node6" class="node">
<title>Node6</title>
<g id="a_node6"><a xlink:href="result__writer_8h.html" target="_top" xlink:title=" ">
<polygon fill="white" stroke="#666666" points="349.5,-305 272.5,-305 272.5,-286 349.5,-286 349.5,-305"/>
<text text-anchor="middle" x="311" y="-293" font-family="Helvetica,sans-Serif" font-size="10.00">result_writer.h</text>
</a>
</g>
</g>
<!-- Node1&#45;&gt;Node6 -->
<g id="edge5" class="edge">
<title>Node1&#45;&gt;Node6</title>
<path fill="none" stroke="#63b8ff" d="M217.65,-340.54C237.29,-331.28 262.62,-319.33 281.93,-310.21"/>
<polygon fill="#63b8ff" stroke="#63b8ff" points="283.33,-313.42 290.88,-305.99 280.34,-307.09 283.33,-313.42"/>
</g>
<!-- Node19 -->
<g id="node19" class="node">
<title>Node19</title>
<g id="a_node19"><a xlink:href="model__info_8h.html" target="_top" xlink:title=" ">
<polygon fill="white" stroke="#666666" points="454.5,-305 383.5,-305 383.5,-286 454.5,-286 454.5,-305"/>
<text text-anchor="middle" x="419" y="-293" font-family="Helvetica,sans-Serif" font-size="10.00">model_info.h</text>
</a>
</g>
</g>
<!-- Node1&#45;&gt;Node19 -->
<g id="edge24" class="edge">
<title>Node1&#45;&gt;Node19</title>
<path fill="none" stroke="#63b8ff" d="M244.35,-340.54C283.87,-330.57 335.72,-317.5 372.63,-308.19"/>
<polygon fill="#63b8ff" stroke="#63b8ff" points="373.27,-311.64 382.11,-305.8 371.56,-304.85 373.27,-311.64"/>
</g>
<!-- Node7 -->
<g id="node7" class="node">
<title>Node7</title>
<g id="a_node7"><a xlink:href="result__message_8h.html" target="_top" xlink:title=" ">
<polygon fill="white" stroke="#666666" points="367,-250 221,-250 221,-231 367,-231 367,-250"/>
<text text-anchor="middle" x="294" y="-238" font-family="Helvetica,sans-Serif" font-size="10.00">HealthGPS/result_message.h</text>
</a>
</g>
</g>
<!-- Node6&#45;&gt;Node7 -->
<g id="edge6" class="edge">
<title>Node6&#45;&gt;Node7</title>
<path fill="none" stroke="#63b8ff" d="M308.19,-285.75C306.06,-279.11 303.06,-269.73 300.36,-261.31"/>
<polygon fill="#63b8ff" stroke="#63b8ff" points="303.72,-260.34 297.33,-251.88 297.05,-262.47 303.72,-260.34"/>
</g>
<!-- Node8 -->
<g id="node8" class="node">
<title>Node8</title>
<g id="a_node8"><a xlink:href="event__message_8h.html" target="_top" xlink:title=" ">
<polygon fill="white" stroke="#666666" points="601,-140 509,-140 509,-121 601,-121 601,-140"/>
<text text-anchor="middle" x="555" y="-128" font-family="Helvetica,sans-Serif" font-size="10.00">event_message.h</text>
</a>
</g>
</g>
<!-- Node7&#45;&gt;Node8 -->
<g id="edge7" class="edge">
<title>Node7&#45;&gt;Node8</title>
<path fill="none" stroke="#63b8ff" d="M315.36,-230.66C361.15,-211.72 468.97,-167.1 522.99,-144.75"/>
<polygon fill="#63b8ff" stroke="#63b8ff" points="524.05,-148.1 531.95,-141.04 521.37,-141.63 524.05,-148.1"/>
</g>
<!-- Node12 -->
<g id="node12" class="node">
<title>Node12</title>
<g id="a_node12"><a xlink:href="model__result_8h.html" target="_top" xlink:title=" ">
<polygon fill="white" stroke="#666666" points="334,-195 254,-195 254,-176 334,-176 334,-195"/>
<text text-anchor="middle" x="294" y="-183" font-family="Helvetica,sans-Serif" font-size="10.00">model_result.h</text>
</a>
</g>
</g>
<!-- Node7&#45;&gt;Node12 -->
<g id="edge11" class="edge">
<title>Node7&#45;&gt;Node12</title>
<path fill="none" stroke="#63b8ff" d="M294,-230.75C294,-224.27 294,-215.16 294,-206.9"/>
<polygon fill="#63b8ff" stroke="#63b8ff" points="297.5,-206.96 294,-196.96 290.5,-206.96 297.5,-206.96"/>
</g>
<!-- Node9 -->
<g id="node9" class="node">
<title>Node9</title>
<g id="a_node9"><a xlink:title=" ">
<polygon fill="#e0e0e0" stroke="#999999" points="512.5,-79.5 471.5,-79.5 471.5,-60.5 512.5,-60.5 512.5,-79.5"/>
<text text-anchor="middle" x="492" y="-67.5" font-family="Helvetica,sans-Serif" font-size="10.00">string</text>
</a>
</g>
</g>
<!-- Node8&#45;&gt;Node9 -->
<g id="edge8" class="edge">
<title>Node8&#45;&gt;Node9</title>
<path fill="none" stroke="#63b8ff" d="M545.43,-120.62C536,-111.85 521.35,-98.25 509.77,-87.5"/>
<polygon fill="#63b8ff" stroke="#63b8ff" points="512.48,-85.24 502.77,-81 507.71,-90.37 512.48,-85.24"/>
</g>
<!-- Node10 -->
<g id="node10" class="node">
<title>Node10</title>
<g id="a_node10"><a xlink:title=" ">
<polygon fill="#e0e0e0" stroke="#999999" points="483,-19 437,-19 437,0 483,0 483,-19"/>
<text text-anchor="middle" x="460" y="-7" font-family="Helvetica,sans-Serif" font-size="10.00">cstdint</text>
</a>
</g>
</g>
<!-- Node8&#45;&gt;Node10 -->
<g id="edge9" class="edge">
<title>Node8&#45;&gt;Node10</title>
<path fill="none" stroke="#63b8ff" d="M552.8,-120.89C548.71,-106.14 538.78,-75.64 522,-55 512.34,-43.11 498.75,-32.89 486.76,-25.24"/>
<polygon fill="#63b8ff" stroke="#63b8ff" points="488.85,-22.42 478.48,-20.24 485.23,-28.41 488.85,-22.42"/>
</g>
<!-- Node11 -->
<g id="node11" class="node">
<title>Node11</title>
<g id="a_node11"><a xlink:href="event__visitor_8h.html" target="_top" xlink:title=" ">
<polygon fill="white" stroke="#666666" points="646.5,-79.5 569.5,-79.5 569.5,-60.5 646.5,-60.5 646.5,-79.5"/>
<text text-anchor="middle" x="608" y="-67.5" font-family="Helvetica,sans-Serif" font-size="10.00">event_visitor.h</text>
</a>
</g>
</g>
<!-- Node8&#45;&gt;Node11 -->
<g id="edge10" class="edge">
<title>Node8&#45;&gt;Node11</title>
<path fill="none" stroke="#63b8ff" d="M562.82,-120.87C570.65,-112.23 582.9,-98.7 592.67,-87.92"/>
<polygon fill="#63b8ff" stroke="#63b8ff" points="595.01,-90.55 599.13,-80.79 589.82,-85.85 595.01,-90.55"/>
</g>
<!-- Node12&#45;&gt;Node9 -->
<g id="edge21" class="edge">
<title>Node12&#45;&gt;Node9</title>
<path fill="none" stroke="#63b8ff" d="M323.17,-175.58C346.44,-167.85 379.42,-155.47 406,-140 431.96,-124.89 458.41,-102.37 475,-87.21"/>
<polygon fill="#63b8ff" stroke="#63b8ff" points="477.09,-90.05 482.02,-80.67 472.32,-84.92 477.09,-90.05"/>
</g>
<!-- Node13 -->
<g id="node13" class="node">
<title>Node13</title>
<g id="a_node13"><a xlink:href="data__series_8h.html" target="_top" xlink:title=" ">
<polygon fill="white" stroke="#666666" points="397.5,-140 322.5,-140 322.5,-121 397.5,-121 397.5,-140"/>
<text text-anchor="middle" x="360" y="-128" font-family="Helvetica,sans-Serif" font-size="10.00">data_series.h</text>
</a>
</g>
</g>
<!-- Node12&#45;&gt;Node13 -->
<g id="edge12" class="edge">
<title>Node12&#45;&gt;Node13</title>
<path fill="none" stroke="#63b8ff" d="M305.2,-175.51C314.74,-167.85 328.67,-156.66 340.11,-147.47"/>
<polygon fill="#63b8ff" stroke="#63b8ff" points="342.18,-150.3 347.79,-141.31 337.8,-144.84 342.18,-150.3"/>
</g>
<!-- Node16 -->
<g id="node16" class="node">
<title>Node16</title>
<g id="a_node16"><a xlink:title=" ">
<polygon fill="#e0e0e0" stroke="#999999" points="313,-79.5 271,-79.5 271,-60.5 313,-60.5 313,-79.5"/>
<text text-anchor="middle" x="292" y="-67.5" font-family="Helvetica,sans-Serif" font-size="10.00">vector</text>
</a>
</g>
</g>
<!-- Node12&#45;&gt;Node16 -->
<g id="edge23" class="edge">
<title>Node12&#45;&gt;Node16</title>
<path fill="none" stroke="#63b8ff" d="M293.84,-175.59C293.52,-157.53 292.8,-116.17 292.36,-91.21"/>
<polygon fill="#63b8ff" stroke="#63b8ff" points="295.86,-91.31 292.18,-81.38 288.86,-91.44 295.86,-91.31"/>
</g>
<!-- Node17 -->
<g id="node17" class="node">
<title>Node17</title>
<g id="a_node17"><a xlink:title=" ">
<polygon fill="#e0e0e0" stroke="#999999" points="252.5,-79.5 217.5,-79.5 217.5,-60.5 252.5,-60.5 252.5,-79.5"/>
<text text-anchor="middle" x="235" y="-67.5" font-family="Helvetica,sans-Serif" font-size="10.00">map</text>
</a>
</g>
</g>
<!-- Node12&#45;&gt;Node17 -->
<g id="edge22" class="edge">
<title>Node12&#45;&gt;Node17</title>
<path fill="none" stroke="#63b8ff" d="M289.37,-175.59C279.81,-157.19 257.69,-114.64 244.8,-89.85"/>
<polygon fill="#63b8ff" stroke="#63b8ff" points="248.02,-88.47 240.31,-81.21 241.81,-91.69 248.02,-88.47"/>
</g>
<!-- Node18 -->
<g id="node18" class="node">
<title>Node18</title>
<g id="a_node18"><a xlink:href="gender__value_8h.html" target="_top" xlink:title=" ">
<polygon fill="white" stroke="#666666" points="227.5,-140 146.5,-140 146.5,-121 227.5,-121 227.5,-140"/>
<text text-anchor="middle" x="187" y="-128" font-family="Helvetica,sans-Serif" font-size="10.00">gender_value.h</text>
</a>
</g>
</g>
<!-- Node12&#45;&gt;Node18 -->
<g id="edge19" class="edge">
<title>Node12&#45;&gt;Node18</title>
<path fill="none" stroke="#63b8ff" d="M275.85,-175.51C259.22,-167.27 234.36,-154.96 215.15,-145.45"/>
<polygon fill="#63b8ff" stroke="#63b8ff" points="216.75,-142.33 206.24,-141.03 213.65,-148.6 216.75,-142.33"/>
</g>
<!-- Node13&#45;&gt;Node9 -->
<g id="edge16" class="edge">
<title>Node13&#45;&gt;Node9</title>
<path fill="none" stroke="#63b8ff" d="M380.78,-120.62C401.43,-111.74 434,-97.64 462,-85 462.22,-84.9 462.45,-84.8 462.67,-84.7"/>
<polygon fill="#63b8ff" stroke="#63b8ff" points="463.99,-87.94 471.61,-80.59 461.07,-81.58 463.99,-87.94"/>
</g>
<!-- Node14 -->
<g id="node14" class="node">
<title>Node14</title>
<g id="a_node14"><a xlink:href="forward__type_8h.html" target="_top" xlink:title=" ">
<polygon fill="white" stroke="#666666" points="453,-85 331,-85 331,-55 453,-55 453,-85"/>
<text text-anchor="start" x="339" y="-73" font-family="Helvetica,sans-Serif" font-size="10.00">HealthGPS.Core/forward</text>
<text text-anchor="middle" x="392" y="-62" font-family="Helvetica,sans-Serif" font-size="10.00">_type.h</text>
</a>
</g>
</g>
<!-- Node13&#45;&gt;Node14 -->
<g id="edge13" class="edge">
<title>Node13&#45;&gt;Node14</title>
<path fill="none" stroke="#63b8ff" d="M364.72,-120.87C368.46,-114.03 373.87,-104.14 378.89,-94.97"/>
<polygon fill="#63b8ff" stroke="#63b8ff" points="381.82,-96.9 383.55,-86.44 375.68,-93.54 381.82,-96.9"/>
</g>
<!-- Node13&#45;&gt;Node16 -->
<g id="edge17" class="edge">
<title>Node13&#45;&gt;Node16</title>
<path fill="none" stroke="#63b8ff" d="M349.67,-120.62C339.39,-111.77 323.37,-97.98 310.82,-87.19"/>
<polygon fill="#63b8ff" stroke="#63b8ff" points="313.44,-84.82 303.57,-80.96 308.87,-90.13 313.44,-84.82"/>
</g>
<!-- Node13&#45;&gt;Node17 -->
<g id="edge18" class="edge">
<title>Node13&#45;&gt;Node17</title>
<path fill="none" stroke="#63b8ff" d="M339.59,-120.6C321.53,-112.65 294.29,-100.47 261.97,-84.84"/>
<polygon fill="#63b8ff" stroke="#63b8ff" points="263.67,-81.77 253.14,-80.54 260.6,-88.06 263.67,-81.77"/>
</g>
<!-- Node14&#45;&gt;Node10 -->
<g id="edge15" class="edge">
<title>Node14&#45;&gt;Node10</title>
<path fill="none" stroke="#63b8ff" d="M408.81,-54.54C418.69,-46.04 431.19,-35.29 441.37,-26.53"/>
<polygon fill="#63b8ff" stroke="#63b8ff" points="443.47,-29.34 448.77,-20.16 438.91,-24.03 443.47,-29.34"/>
</g>
<!-- Node15 -->
<g id="node15" class="node">
<title>Node15</title>
<g id="a_node15"><a xlink:title=" ">
<polygon fill="#e0e0e0" stroke="#999999" points="354,-19 292,-19 292,0 354,0 354,-19"/>
<text text-anchor="middle" x="323" y="-7" font-family="Helvetica,sans-Serif" font-size="10.00">type_traits</text>
</a>
</g>
</g>
<!-- Node14&#45;&gt;Node15 -->
<g id="edge14" class="edge">
<title>Node14&#45;&gt;Node15</title>
<path fill="none" stroke="#63b8ff" d="M374.94,-54.54C364.92,-46.04 352.24,-35.29 341.91,-26.53"/>
<polygon fill="#63b8ff" stroke="#63b8ff" points="344.28,-23.95 334.39,-20.15 339.75,-29.29 344.28,-23.95"/>
</g>
<!-- Node18&#45;&gt;Node15 -->
<g id="edge20" class="edge">
<title>Node18&#45;&gt;Node15</title>
<path fill="none" stroke="#63b8ff" d="M187.04,-120.96C187.57,-105.78 190.82,-73.89 208,-55 226.72,-34.43 256.06,-23.27 280.42,-17.28"/>
<polygon fill="#63b8ff" stroke="#63b8ff" points="281.07,-20.72 290.07,-15.13 279.55,-13.88 281.07,-20.72"/>
</g>
<!-- Node19&#45;&gt;Node9 -->
<g id="edge25" class="edge">
<title>Node19&#45;&gt;Node9</title>
<path fill="none" stroke="#63b8ff" d="M430.88,-285.65C440.87,-277.53 454.65,-264.58 462,-250 488.68,-197.11 492.35,-125.38 492.42,-90.99"/>
<polygon fill="#63b8ff" stroke="#63b8ff" points="495.92,-91.24 492.33,-81.27 488.92,-91.31 495.92,-91.24"/>
</g>
<!-- Node20 -->
<g id="node20" class="node">
<title>Node20</title>
<g id="a_node20"><a xlink:title=" ">
<polygon fill="#e0e0e0" stroke="#999999" points="453,-250 385,-250 385,-231 453,-231 453,-250"/>
<text text-anchor="middle" x="419" y="-238" font-family="Helvetica,sans-Serif" font-size="10.00">fmt/format.h</text>
</a>
</g>
</g>
<!-- Node19&#45;&gt;Node20 -->
<g id="edge26" class="edge">
<title>Node19&#45;&gt;Node20</title>
<path fill="none" stroke="#63b8ff" d="M419,-285.75C419,-279.27 419,-270.16 419,-261.9"/>
<polygon fill="#63b8ff" stroke="#63b8ff" points="422.5,-261.96 419,-251.96 415.5,-261.96 422.5,-261.96"/>
</g>
</g>
</svg>
