<?xml version="1.0" encoding="UTF-8" standalone="no"?>
<!DOCTYPE svg PUBLIC "-//W3C//DTD SVG 1.1//EN"
 "http://www.w3.org/Graphics/SVG/1.1/DTD/svg11.dtd">
<!-- Generated by graphviz version 2.43.0 (0)
 -->
<!-- Title: HealthGPS.Console/result_file_writer.h Pages: 1 -->
<svg width="709pt" height="386pt"
 viewBox="0.00 0.00 708.50 386.00" xmlns="http://www.w3.org/2000/svg" xmlns:xlink="http://www.w3.org/1999/xlink">
<g id="graph0" class="graph" transform="scale(1 1) rotate(0) translate(4 382)">
<title>HealthGPS.Console/result_file_writer.h</title>
<!-- Node1 -->
<g id="node1" class="node">
<title>Node1</title>
<g id="a_node1"><a xlink:title=" ">
<polygon fill="#bfbfbf" stroke="black" points="131.5,-347.5 131.5,-377.5 272.5,-377.5 272.5,-347.5 131.5,-347.5"/>
<text text-anchor="start" x="139.5" y="-365.5" font-family="Helvetica,sans-Serif" font-size="10.00">HealthGPS.Console/result</text>
<text text-anchor="middle" x="202" y="-354.5" font-family="Helvetica,sans-Serif" font-size="10.00">_file_writer.h</text>
</a>
</g>
</g>
<!-- Node2 -->
<g id="node2" class="node">
<title>Node2</title>
<g id="a_node2"><a xlink:title=" ">
<polygon fill="none" stroke="#bfbfbf" points="0,-291.5 0,-310.5 48,-310.5 48,-291.5 0,-291.5"/>
<text text-anchor="middle" x="24" y="-298.5" font-family="Helvetica,sans-Serif" font-size="10.00">mutex</text>
</a>
</g>
</g>
<!-- Node1&#45;&gt;Node2 -->
<g id="edge1" class="edge">
<title>Node1&#45;&gt;Node2</title>
<path fill="none" stroke="midnightblue" d="M159.82,-347.4C128.64,-336.98 86.75,-322.98 57.77,-313.29"/>
<polygon fill="midnightblue" stroke="midnightblue" points="58.7,-309.91 48.1,-310.06 56.48,-316.55 58.7,-309.91"/>
</g>
<!-- Node3 -->
<g id="node3" class="node">
<title>Node3</title>
<g id="a_node3"><a xlink:title=" ">
<polygon fill="none" stroke="#bfbfbf" points="66,-291.5 66,-310.5 116,-310.5 116,-291.5 66,-291.5"/>
<text text-anchor="middle" x="91" y="-298.5" font-family="Helvetica,sans-Serif" font-size="10.00">atomic</text>
</a>
</g>
</g>
<!-- Node1&#45;&gt;Node3 -->
<g id="edge2" class="edge">
<title>Node1&#45;&gt;Node3</title>
<path fill="none" stroke="midnightblue" d="M175.69,-347.4C157.74,-337.77 134.08,-325.09 116.33,-315.58"/>
<polygon fill="midnightblue" stroke="midnightblue" points="117.62,-312.3 107.15,-310.66 114.31,-318.47 117.62,-312.3"/>
</g>
<!-- Node4 -->
<g id="node4" class="node">
<title>Node4</title>
<g id="a_node4"><a xlink:title=" ">
<polygon fill="none" stroke="#bfbfbf" points="134.5,-291.5 134.5,-310.5 189.5,-310.5 189.5,-291.5 134.5,-291.5"/>
<text text-anchor="middle" x="162" y="-298.5" font-family="Helvetica,sans-Serif" font-size="10.00">fstream</text>
</a>
</g>
</g>
<!-- Node1&#45;&gt;Node4 -->
<g id="edge3" class="edge">
<title>Node1&#45;&gt;Node4</title>
<path fill="none" stroke="midnightblue" d="M192.52,-347.4C186.83,-338.93 179.55,-328.1 173.52,-319.14"/>
<polygon fill="midnightblue" stroke="midnightblue" points="176.3,-317 167.82,-310.66 170.49,-320.91 176.3,-317"/>
</g>
<!-- Node5 -->
<g id="node5" class="node">
<title>Node5</title>
<g id="a_node5"><a xlink:title=" ">
<polygon fill="none" stroke="#bfbfbf" points="208,-291.5 208,-310.5 276,-310.5 276,-291.5 208,-291.5"/>
<text text-anchor="middle" x="242" y="-298.5" font-family="Helvetica,sans-Serif" font-size="10.00">filesystem</text>
</a>
</g>
</g>
<!-- Node1&#45;&gt;Node5 -->
<g id="edge4" class="edge">
<title>Node1&#45;&gt;Node5</title>
<path fill="none" stroke="midnightblue" d="M211.48,-347.4C217.17,-338.93 224.45,-328.1 230.48,-319.14"/>
<polygon fill="midnightblue" stroke="midnightblue" points="233.51,-320.91 236.18,-310.66 227.7,-317 233.51,-320.91"/>
</g>
<!-- Node6 -->
<g id="node6" class="node">
<title>Node6</title>
<g id="a_node6"><a xlink:href="result__writer_8h.html" target="_top" xlink:title=" ">
<polygon fill="none" stroke="black" points="294,-291.5 294,-310.5 380,-310.5 380,-291.5 294,-291.5"/>
<text text-anchor="middle" x="337" y="-298.5" font-family="Helvetica,sans-Serif" font-size="10.00">result_writer.h</text>
</a>
</g>
</g>
<!-- Node1&#45;&gt;Node6 -->
<g id="edge5" class="edge">
<title>Node1&#45;&gt;Node6</title>
<path fill="none" stroke="midnightblue" d="M233.99,-347.4C256.44,-337.51 286.21,-324.38 307.98,-314.79"/>
<polygon fill="midnightblue" stroke="midnightblue" points="309.62,-317.89 317.36,-310.66 306.79,-311.49 309.62,-317.89"/>
</g>
<!-- Node19 -->
<g id="node19" class="node">
<title>Node19</title>
<g id="a_node19"><a xlink:href="model__info_8h.html" target="_top" xlink:title=" ">
<polygon fill="none" stroke="black" points="415,-291.5 415,-310.5 495,-310.5 495,-291.5 415,-291.5"/>
<text text-anchor="middle" x="455" y="-298.5" font-family="Helvetica,sans-Serif" font-size="10.00">model_info.h</text>
</a>
</g>
</g>
<!-- Node1&#45;&gt;Node19 -->
<g id="edge24" class="edge">
<title>Node1&#45;&gt;Node19</title>
<path fill="none" stroke="midnightblue" d="M261.64,-347.47C306.71,-336.87 367.69,-322.53 409.03,-312.81"/>
<polygon fill="midnightblue" stroke="midnightblue" points="409.9,-316.2 418.83,-310.51 408.29,-309.39 409.9,-316.2"/>
</g>
<!-- Node7 -->
<g id="node7" class="node">
<title>Node7</title>
<g id="a_node7"><a xlink:href="result__message_8h.html" target="_top" xlink:title=" ">
<polygon fill="none" stroke="black" points="240,-235.5 240,-254.5 398,-254.5 398,-235.5 240,-235.5"/>
<text text-anchor="middle" x="319" y="-242.5" font-family="Helvetica,sans-Serif" font-size="10.00">HealthGPS/result_message.h</text>
</a>
</g>
</g>
<!-- Node6&#45;&gt;Node7 -->
<g id="edge6" class="edge">
<title>Node6&#45;&gt;Node7</title>
<path fill="none" stroke="midnightblue" d="M334.03,-291.08C331.62,-283.85 328.14,-273.41 325.13,-264.4"/>
<polygon fill="midnightblue" stroke="midnightblue" points="328.4,-263.13 321.92,-254.75 321.76,-265.34 328.4,-263.13"/>
</g>
<!-- Node8 -->
<g id="node8" class="node">
<title>Node8</title>
<g id="a_node8"><a xlink:href="event__message_8h.html" target="_top" xlink:title=" ">
<polygon fill="none" stroke="black" points="551.5,-123.5 551.5,-142.5 654.5,-142.5 654.5,-123.5 551.5,-123.5"/>
<text text-anchor="middle" x="603" y="-130.5" font-family="Helvetica,sans-Serif" font-size="10.00">event_message.h</text>
</a>
</g>
</g>
<!-- Node7&#45;&gt;Node8 -->
<g id="edge7" class="edge">
<title>Node7&#45;&gt;Node8</title>
<path fill="none" stroke="midnightblue" d="M341.29,-235.37C391.47,-215.93 513.48,-168.67 571.43,-146.23"/>
<polygon fill="midnightblue" stroke="midnightblue" points="572.76,-149.47 580.82,-142.59 570.23,-142.94 572.76,-149.47"/>
</g>
<!-- Node12 -->
<g id="node12" class="node">
<title>Node12</title>
<g id="a_node12"><a xlink:href="model__result_8h.html" target="_top" xlink:title=" ">
<polygon fill="none" stroke="black" points="274.5,-179.5 274.5,-198.5 363.5,-198.5 363.5,-179.5 274.5,-179.5"/>
<text text-anchor="middle" x="319" y="-186.5" font-family="Helvetica,sans-Serif" font-size="10.00">model_result.h</text>
</a>
</g>
</g>
<!-- Node7&#45;&gt;Node12 -->
<g id="edge11" class="edge">
<title>Node7&#45;&gt;Node12</title>
<path fill="none" stroke="midnightblue" d="M319,-235.08C319,-228.01 319,-217.86 319,-208.99"/>
<polygon fill="midnightblue" stroke="midnightblue" points="322.5,-208.75 319,-198.75 315.5,-208.75 322.5,-208.75"/>
</g>
<!-- Node9 -->
<g id="node9" class="node">
<title>Node9</title>
<g id="a_node9"><a xlink:title=" ">
<polygon fill="none" stroke="#bfbfbf" points="511,-62 511,-81 555,-81 555,-62 511,-62"/>
<text text-anchor="middle" x="533" y="-69" font-family="Helvetica,sans-Serif" font-size="10.00">string</text>
</a>
</g>
</g>
<!-- Node8&#45;&gt;Node9 -->
<g id="edge8" class="edge">
<title>Node8&#45;&gt;Node9</title>
<path fill="none" stroke="midnightblue" d="M592.97,-123.48C581.95,-114.11 564.04,-98.88 550.66,-87.51"/>
<polygon fill="midnightblue" stroke="midnightblue" points="552.9,-84.82 543.01,-81.01 548.36,-90.15 552.9,-84.82"/>
</g>
<!-- Node10 -->
<g id="node10" class="node">
<title>Node10</title>
<g id="a_node10"><a xlink:title=" ">
<polygon fill="none" stroke="#bfbfbf" points="474,-0.5 474,-19.5 524,-19.5 524,-0.5 474,-0.5"/>
<text text-anchor="middle" x="499" y="-7.5" font-family="Helvetica,sans-Serif" font-size="10.00">cstdint</text>
</a>
</g>
</g>
<!-- Node8&#45;&gt;Node10 -->
<g id="edge9" class="edge">
<title>Node8&#45;&gt;Node10</title>
<path fill="none" stroke="midnightblue" d="M600.1,-123.2C594.8,-108.13 582.38,-76.97 564,-56 553.01,-43.46 537.81,-32.68 524.87,-24.83"/>
<polygon fill="midnightblue" stroke="midnightblue" points="526.34,-21.64 515.94,-19.64 522.83,-27.69 526.34,-21.64"/>
</g>
<!-- Node11 -->
<g id="node11" class="node">
<title>Node11</title>
<g id="a_node11"><a xlink:href="event__visitor_8h.html" target="_top" xlink:title=" ">
<polygon fill="none" stroke="black" points="611.5,-62 611.5,-81 700.5,-81 700.5,-62 611.5,-62"/>
<text text-anchor="middle" x="656" y="-69" font-family="Helvetica,sans-Serif" font-size="10.00">event_visitor.h</text>
</a>
</g>
</g>
<!-- Node8&#45;&gt;Node11 -->
<g id="edge10" class="edge">
<title>Node8&#45;&gt;Node11</title>
<path fill="none" stroke="midnightblue" d="M610.59,-123.48C618.7,-114.37 631.73,-99.74 641.76,-88.48"/>
<polygon fill="midnightblue" stroke="midnightblue" points="644.38,-90.8 648.42,-81.01 639.16,-86.15 644.38,-90.8"/>
</g>
<!-- Node12&#45;&gt;Node9 -->
<g id="edge21" class="edge">
<title>Node12&#45;&gt;Node9</title>
<path fill="none" stroke="midnightblue" d="M348.36,-179.41C373.07,-171.6 408.92,-158.88 438,-143 466.97,-127.18 497,-103.44 515.35,-87.96"/>
<polygon fill="midnightblue" stroke="midnightblue" points="518.05,-90.26 523.36,-81.09 513.49,-84.94 518.05,-90.26"/>
</g>
<!-- Node13 -->
<g id="node13" class="node">
<title>Node13</title>
<g id="a_node13"><a xlink:href="data__series_8h.html" target="_top" xlink:title=" ">
<polygon fill="none" stroke="black" points="347,-123.5 347,-142.5 429,-142.5 429,-123.5 347,-123.5"/>
<text text-anchor="middle" x="388" y="-130.5" font-family="Helvetica,sans-Serif" font-size="10.00">data_series.h</text>
</a>
</g>
</g>
<!-- Node12&#45;&gt;Node13 -->
<g id="edge12" class="edge">
<title>Node12&#45;&gt;Node13</title>
<path fill="none" stroke="midnightblue" d="M330.09,-179.32C340.49,-171.18 356.26,-158.84 368.72,-149.09"/>
<polygon fill="midnightblue" stroke="midnightblue" points="370.99,-151.75 376.71,-142.83 366.68,-146.24 370.99,-151.75"/>
</g>
<!-- Node16 -->
<g id="node16" class="node">
<title>Node16</title>
<g id="a_node16"><a xlink:title=" ">
<polygon fill="none" stroke="#bfbfbf" points="293.5,-62 293.5,-81 340.5,-81 340.5,-62 293.5,-62"/>
<text text-anchor="middle" x="317" y="-69" font-family="Helvetica,sans-Serif" font-size="10.00">vector</text>
</a>
</g>
</g>
<!-- Node12&#45;&gt;Node16 -->
<g id="edge23" class="edge">
<title>Node12&#45;&gt;Node16</title>
<path fill="none" stroke="midnightblue" d="M318.85,-179.32C318.53,-160.76 317.77,-116.84 317.33,-91.47"/>
<polygon fill="midnightblue" stroke="midnightblue" points="320.82,-91.22 317.15,-81.28 313.83,-91.34 320.82,-91.22"/>
</g>
<!-- Node17 -->
<g id="node17" class="node">
<title>Node17</title>
<g id="a_node17"><a xlink:title=" ">
<polygon fill="none" stroke="#bfbfbf" points="237,-62 237,-81 275,-81 275,-62 237,-62"/>
<text text-anchor="middle" x="256" y="-69" font-family="Helvetica,sans-Serif" font-size="10.00">map</text>
</a>
</g>
</g>
<!-- Node12&#45;&gt;Node17 -->
<g id="edge22" class="edge">
<title>Node12&#45;&gt;Node17</title>
<path fill="none" stroke="midnightblue" d="M314.26,-179.32C303.96,-160.42 279.32,-115.25 265.61,-90.12"/>
<polygon fill="midnightblue" stroke="midnightblue" points="268.65,-88.38 260.79,-81.28 262.51,-91.74 268.65,-88.38"/>
</g>
<!-- Node18 -->
<g id="node18" class="node">
<title>Node18</title>
<g id="a_node18"><a xlink:href="gender__value_8h.html" target="_top" xlink:title=" ">
<polygon fill="none" stroke="black" points="161,-123.5 161,-142.5 253,-142.5 253,-123.5 161,-123.5"/>
<text text-anchor="middle" x="207" y="-130.5" font-family="Helvetica,sans-Serif" font-size="10.00">gender_value.h</text>
</a>
</g>
</g>
<!-- Node12&#45;&gt;Node18 -->
<g id="edge19" class="edge">
<title>Node12&#45;&gt;Node18</title>
<path fill="none" stroke="midnightblue" d="M301.01,-179.32C282.96,-170.62 254.95,-157.12 234.2,-147.11"/>
<polygon fill="midnightblue" stroke="midnightblue" points="235.48,-143.84 224.95,-142.65 232.44,-150.15 235.48,-143.84"/>
</g>
<!-- Node13&#45;&gt;Node9 -->
<g id="edge16" class="edge">
<title>Node13&#45;&gt;Node9</title>
<path fill="none" stroke="midnightblue" d="M410.88,-123.44C434.02,-114.68 470.73,-100.47 502,-87 503.2,-86.48 504.42,-85.95 505.65,-85.41"/>
<polygon fill="midnightblue" stroke="midnightblue" points="507.4,-88.45 515.05,-81.12 504.5,-82.08 507.4,-88.45"/>
</g>
<!-- Node14 -->
<g id="node14" class="node">
<title>Node14</title>
<g id="a_node14"><a xlink:href="forward__type_8h.html" target="_top" xlink:title=" ">
<polygon fill="none" stroke="black" points="359,-56.5 359,-86.5 493,-86.5 493,-56.5 359,-56.5"/>
<text text-anchor="start" x="367" y="-74.5" font-family="Helvetica,sans-Serif" font-size="10.00">HealthGPS.Core/forward</text>
<text text-anchor="middle" x="426" y="-63.5" font-family="Helvetica,sans-Serif" font-size="10.00">_type.h</text>
</a>
</g>
</g>
<!-- Node13&#45;&gt;Node14 -->
<g id="edge13" class="edge">
<title>Node13&#45;&gt;Node14</title>
<path fill="none" stroke="midnightblue" d="M393.44,-123.48C398.16,-116.09 405.19,-105.08 411.52,-95.17"/>
<polygon fill="midnightblue" stroke="midnightblue" points="414.61,-96.83 417.04,-86.52 408.71,-93.07 414.61,-96.83"/>
</g>
<!-- Node13&#45;&gt;Node16 -->
<g id="edge17" class="edge">
<title>Node13&#45;&gt;Node16</title>
<path fill="none" stroke="midnightblue" d="M377.83,-123.48C366.65,-114.11 348.48,-98.88 334.91,-87.51"/>
<polygon fill="midnightblue" stroke="midnightblue" points="337.07,-84.75 327.15,-81.01 332.57,-90.11 337.07,-84.75"/>
</g>
<!-- Node13&#45;&gt;Node17 -->
<g id="edge18" class="edge">
<title>Node13&#45;&gt;Node17</title>
<path fill="none" stroke="midnightblue" d="M367.09,-123.46C345.95,-114.7 312.44,-100.5 284,-87 283.16,-86.6 282.3,-86.19 281.44,-85.77"/>
<polygon fill="midnightblue" stroke="midnightblue" points="282.7,-82.49 272.19,-81.13 279.56,-88.74 282.7,-82.49"/>
</g>
<!-- Node14&#45;&gt;Node10 -->
<g id="edge15" class="edge">
<title>Node14&#45;&gt;Node10</title>
<path fill="none" stroke="midnightblue" d="M443.3,-56.4C454.45,-47.31 468.95,-35.49 480.36,-26.19"/>
<polygon fill="midnightblue" stroke="midnightblue" points="482.84,-28.69 488.38,-19.66 478.42,-23.26 482.84,-28.69"/>
</g>
<!-- Node15 -->
<g id="node15" class="node">
<title>Node15</title>
<g id="a_node15"><a xlink:title=" ">
<polygon fill="none" stroke="#bfbfbf" points="317.5,-0.5 317.5,-19.5 386.5,-19.5 386.5,-0.5 317.5,-0.5"/>
<text text-anchor="middle" x="352" y="-7.5" font-family="Helvetica,sans-Serif" font-size="10.00">type_traits</text>
</a>
</g>
</g>
<!-- Node14&#45;&gt;Node15 -->
<g id="edge14" class="edge">
<title>Node14&#45;&gt;Node15</title>
<path fill="none" stroke="midnightblue" d="M408.46,-56.4C397.16,-47.31 382.46,-35.49 370.89,-26.19"/>
<polygon fill="midnightblue" stroke="midnightblue" points="372.75,-23.2 362.77,-19.66 368.37,-28.65 372.75,-23.2"/>
</g>
<!-- Node18&#45;&gt;Node15 -->
<g id="edge20" class="edge">
<title>Node18&#45;&gt;Node15</title>
<path fill="none" stroke="midnightblue" d="M206.95,-123.26C207.33,-107.71 210.35,-75.1 228,-56 248.54,-33.78 280.91,-22.51 307.42,-16.81"/>
<polygon fill="midnightblue" stroke="midnightblue" points="308.12,-20.24 317.26,-14.88 306.77,-13.37 308.12,-20.24"/>
</g>
<!-- Node19&#45;&gt;Node9 -->
<g id="edge25" class="edge">
<title>Node19&#45;&gt;Node9</title>
<path fill="none" stroke="midnightblue" d="M468.28,-291.34C479.44,-283.31 494.82,-270.32 503,-255 531.93,-200.79 534.37,-125.65 533.76,-91.16"/>
<polygon fill="midnightblue" stroke="midnightblue" points="537.26,-91 533.47,-81.11 530.26,-91.21 537.26,-91"/>
</g>
<!-- Node20 -->
<g id="node20" class="node">
<title>Node20</title>
<g id="a_node20"><a xlink:title=" ">
<polygon fill="none" stroke="#bfbfbf" points="415.5,-235.5 415.5,-254.5 494.5,-254.5 494.5,-235.5 415.5,-235.5"/>
<text text-anchor="middle" x="455" y="-242.5" font-family="Helvetica,sans-Serif" font-size="10.00">fmt/format.h</text>
</a>
</g>
</g>
<!-- Node19&#45;&gt;Node20 -->
<g id="edge26" class="edge">
<title>Node19&#45;&gt;Node20</title>
<path fill="none" stroke="midnightblue" d="M455,-291.08C455,-284.01 455,-273.86 455,-264.99"/>
<polygon fill="midnightblue" stroke="midnightblue" points="458.5,-264.75 455,-254.75 451.5,-264.75 458.5,-264.75"/>
</g>
</g>
</svg>
