<?xml version="1.0" encoding="UTF-8" standalone="no"?>
<!DOCTYPE svg PUBLIC "-//W3C//DTD SVG 1.1//EN"
 "http://www.w3.org/Graphics/SVG/1.1/DTD/svg11.dtd">
<!-- Generated by graphviz version 7.0.6 (20230106.0513)
 -->
<!-- Title: HealthGPS.Console/result_writer.h Pages: 1 -->
<svg width="530pt" height="225pt"
 viewBox="0.00 0.00 530.00 225.00" xmlns="http://www.w3.org/2000/svg" xmlns:xlink="http://www.w3.org/1999/xlink">
<g id="graph0" class="graph" transform="scale(1 1) rotate(0) translate(4 221)">
<title>HealthGPS.Console/result_writer.h</title>
<!-- Node1 -->
<g id="node1" class="node">
<title>Node1</title>
<g id="a_node1"><a xlink:title=" ">
<polygon fill="#999999" stroke="#666666" points="288,-217 157,-217 157,-187 288,-187 288,-217"/>
<text text-anchor="start" x="165" y="-205" font-family="Helvetica,sans-Serif" font-size="10.00">HealthGPS.Console/result</text>
<text text-anchor="middle" x="222.5" y="-194" font-family="Helvetica,sans-Serif" font-size="10.00">_writer.h</text>
</a>
</g>
</g>
<!-- Node2 -->
<g id="node2" class="node">
<title>Node2</title>
<g id="a_node2"><a xlink:href="event__monitor_8h.html" target="_top" xlink:title=" ">
<polygon fill="white" stroke="#666666" points="213,-151 84,-151 84,-121 213,-121 213,-151"/>
<text text-anchor="start" x="92" y="-139" font-family="Helvetica,sans-Serif" font-size="10.00">HealthGPS.Console/event</text>
<text text-anchor="middle" x="148.5" y="-128" font-family="Helvetica,sans-Serif" font-size="10.00">_monitor.h</text>
</a>
</g>
</g>
<!-- Node1&#45;&gt;Node2 -->
<g id="edge1" class="edge">
<title>Node1&#45;&gt;Node2</title>
<path fill="none" stroke="#63b8ff" d="M197.55,-179.42C186.87,-170.18 174.69,-159.65 165.13,-151.39"/>
<polygon fill="#63b8ff" stroke="#63b8ff" points="195.08,-181.91 204.93,-185.81 199.66,-176.62 195.08,-181.91"/>
</g>
<!-- Node5 -->
<g id="node5" class="node">
<title>Node5</title>
<g id="a_node5"><a xlink:href="result__file__writer_8h.html" target="_top" xlink:title=" ">
<polygon fill="white" stroke="#666666" points="362,-151 231,-151 231,-121 362,-121 362,-151"/>
<text text-anchor="start" x="239" y="-139" font-family="Helvetica,sans-Serif" font-size="10.00">HealthGPS.Console/result</text>
<text text-anchor="middle" x="296.5" y="-128" font-family="Helvetica,sans-Serif" font-size="10.00">_file_writer.h</text>
</a>
</g>
</g>
<!-- Node1&#45;&gt;Node5 -->
<g id="edge4" class="edge">
<title>Node1&#45;&gt;Node5</title>
<path fill="none" stroke="#63b8ff" d="M247.45,-179.42C258.13,-170.18 270.31,-159.65 279.87,-151.39"/>
<polygon fill="#63b8ff" stroke="#63b8ff" points="245.34,-176.62 240.07,-185.81 249.92,-181.91 245.34,-176.62"/>
</g>
<!-- Node3 -->
<g id="node3" class="node">
<title>Node3</title>
<g id="a_node3"><a xlink:href="event__monitor_8cpp.html" target="_top" xlink:title=" ">
<polygon fill="white" stroke="#666666" points="129,-85 0,-85 0,-55 129,-55 129,-85"/>
<text text-anchor="start" x="8" y="-73" font-family="Helvetica,sans-Serif" font-size="10.00">HealthGPS.Console/event</text>
<text text-anchor="middle" x="64.5" y="-62" font-family="Helvetica,sans-Serif" font-size="10.00">_monitor.cpp</text>
</a>
</g>
</g>
<!-- Node2&#45;&gt;Node3 -->
<g id="edge2" class="edge">
<title>Node2&#45;&gt;Node3</title>
<path fill="none" stroke="#63b8ff" d="M120.9,-113.97C108.61,-104.61 94.44,-93.81 83.38,-85.39"/>
<polygon fill="#63b8ff" stroke="#63b8ff" points="118.58,-116.6 128.65,-119.88 122.82,-111.03 118.58,-116.6"/>
</g>
<!-- Node4 -->
<g id="node4" class="node">
<title>Node4</title>
<g id="a_node4"><a xlink:href="program_8cpp.html" target="_top" xlink:title=" ">
<polygon fill="white" stroke="#666666" points="238,-19 77,-19 77,0 238,0 238,-19"/>
<text text-anchor="middle" x="157.5" y="-7" font-family="Helvetica,sans-Serif" font-size="10.00">HealthGPS.Console/program.cpp</text>
</a>
</g>
</g>
<!-- Node2&#45;&gt;Node4 -->
<g id="edge3" class="edge">
<title>Node2&#45;&gt;Node4</title>
<path fill="none" stroke="#63b8ff" d="M150.35,-109.42C152.38,-81.38 155.52,-37.93 156.86,-19.38"/>
<polygon fill="#63b8ff" stroke="#63b8ff" points="146.87,-108.98 149.64,-119.21 153.85,-109.49 146.87,-108.98"/>
</g>
<!-- Node6 -->
<g id="node6" class="node">
<title>Node6</title>
<g id="a_node6"><a xlink:href="configuration_8h.html" target="_top" xlink:title=" ">
<polygon fill="white" stroke="#666666" points="372.5,-79.5 202.5,-79.5 202.5,-60.5 372.5,-60.5 372.5,-79.5"/>
<text text-anchor="middle" x="287.5" y="-67.5" font-family="Helvetica,sans-Serif" font-size="10.00">HealthGPS.Console/configuration.h</text>
</a>
</g>
</g>
<!-- Node5&#45;&gt;Node6 -->
<g id="edge5" class="edge">
<title>Node5&#45;&gt;Node6</title>
<path fill="none" stroke="#63b8ff" d="M292.93,-109.59C291.45,-99.06 289.82,-87.53 288.74,-79.84"/>
<polygon fill="#63b8ff" stroke="#63b8ff" points="289.43,-109.88 294.29,-119.3 296.37,-108.91 289.43,-109.88"/>
</g>
<!-- Node8 -->
<g id="node8" class="node">
<title>Node8</title>
<g id="a_node8"><a xlink:href="result__file__writer_8cpp.html" target="_top" xlink:title=" ">
<polygon fill="white" stroke="#666666" points="522,-85 391,-85 391,-55 522,-55 522,-85"/>
<text text-anchor="start" x="399" y="-73" font-family="Helvetica,sans-Serif" font-size="10.00">HealthGPS.Console/result</text>
<text text-anchor="middle" x="456.5" y="-62" font-family="Helvetica,sans-Serif" font-size="10.00">_file_writer.cpp</text>
</a>
</g>
</g>
<!-- Node5&#45;&gt;Node8 -->
<g id="edge8" class="edge">
<title>Node5&#45;&gt;Node8</title>
<path fill="none" stroke="#63b8ff" d="M342.98,-116.41C367.66,-106.54 397.53,-94.59 420.44,-85.43"/>
<polygon fill="#63b8ff" stroke="#63b8ff" points="341.8,-113.11 333.81,-120.08 344.4,-119.61 341.8,-113.11"/>
</g>
<!-- Node6&#45;&gt;Node4 -->
<g id="edge7" class="edge">
<title>Node6&#45;&gt;Node4</title>
<path fill="none" stroke="#63b8ff" d="M257.53,-55.52C232.94,-44.45 198.79,-29.08 177.43,-19.47"/>
<polygon fill="#63b8ff" stroke="#63b8ff" points="255.82,-58.58 266.38,-59.49 258.69,-52.2 255.82,-58.58"/>
</g>
<!-- Node7 -->
<g id="node7" class="node">
<title>Node7</title>
<g id="a_node7"><a xlink:href="configuration_8cpp.html" target="_top" xlink:title=" ">
<polygon fill="white" stroke="#666666" points="436.5,-19 256.5,-19 256.5,0 436.5,0 436.5,-19"/>
<text text-anchor="middle" x="346.5" y="-7" font-family="Helvetica,sans-Serif" font-size="10.00">HealthGPS.Console/configuration.cpp</text>
</a>
</g>
</g>
<!-- Node6&#45;&gt;Node7 -->
<g id="edge6" class="edge">
<title>Node6&#45;&gt;Node7</title>
<path fill="none" stroke="#63b8ff" d="M304.36,-52.28C315.13,-41.6 328.67,-28.17 337.45,-19.47"/>
<polygon fill="#63b8ff" stroke="#63b8ff" points="302.17,-49.52 297.54,-59.05 307.1,-54.49 302.17,-49.52"/>
</g>
</g>
</svg>
