<?xml version="1.0" encoding="UTF-8" standalone="no"?>
<!DOCTYPE svg PUBLIC "-//W3C//DTD SVG 1.1//EN"
 "http://www.w3.org/Graphics/SVG/1.1/DTD/svg11.dtd">
<!-- Generated by graphviz version 2.43.0 (0)
 -->
<!-- Title: HealthGPS.Console/result_writer.h Pages: 1 -->
<svg width="570pt" height="229pt"
 viewBox="0.00 0.00 570.00 229.00" xmlns="http://www.w3.org/2000/svg" xmlns:xlink="http://www.w3.org/1999/xlink">
<g id="graph0" class="graph" transform="scale(1 1) rotate(0) translate(4 225)">
<title>HealthGPS.Console/result_writer.h</title>
<!-- Node1 -->
<g id="node1" class="node">
<title>Node1</title>
<g id="a_node1"><a xlink:title=" ">
<polygon fill="#bfbfbf" stroke="black" points="168,-190.5 168,-220.5 309,-220.5 309,-190.5 168,-190.5"/>
<text text-anchor="start" x="176" y="-208.5" font-family="Helvetica,sans-Serif" font-size="10.00">HealthGPS.Console/result</text>
<text text-anchor="middle" x="238.5" y="-197.5" font-family="Helvetica,sans-Serif" font-size="10.00">_writer.h</text>
</a>
</g>
</g>
<!-- Node2 -->
<g id="node2" class="node">
<title>Node2</title>
<g id="a_node2"><a xlink:href="event__monitor_8h.html" target="_top" xlink:title=" ">
<polygon fill="none" stroke="black" points="89,-123.5 89,-153.5 230,-153.5 230,-123.5 89,-123.5"/>
<text text-anchor="start" x="97" y="-141.5" font-family="Helvetica,sans-Serif" font-size="10.00">HealthGPS.Console/event</text>
<text text-anchor="middle" x="159.5" y="-130.5" font-family="Helvetica,sans-Serif" font-size="10.00">_monitor.h</text>
</a>
</g>
</g>
<!-- Node1&#45;&gt;Node2 -->
<g id="edge1" class="edge">
<title>Node1&#45;&gt;Node2</title>
<path fill="none" stroke="midnightblue" d="M213.44,-183.88C201.44,-174.01 187.37,-162.43 176.61,-153.58"/>
<polygon fill="midnightblue" stroke="midnightblue" points="211.41,-186.75 221.36,-190.4 215.86,-181.34 211.41,-186.75"/>
</g>
<!-- Node5 -->
<g id="node5" class="node">
<title>Node5</title>
<g id="a_node5"><a xlink:href="result__file__writer_8h.html" target="_top" xlink:title=" ">
<polygon fill="none" stroke="black" points="248,-123.5 248,-153.5 389,-153.5 389,-123.5 248,-123.5"/>
<text text-anchor="start" x="256" y="-141.5" font-family="Helvetica,sans-Serif" font-size="10.00">HealthGPS.Console/result</text>
<text text-anchor="middle" x="318.5" y="-130.5" font-family="Helvetica,sans-Serif" font-size="10.00">_file_writer.h</text>
</a>
</g>
</g>
<!-- Node1&#45;&gt;Node5 -->
<g id="edge4" class="edge">
<title>Node1&#45;&gt;Node5</title>
<path fill="none" stroke="midnightblue" d="M263.87,-183.88C276.03,-174.01 290.28,-162.43 301.18,-153.58"/>
<polygon fill="midnightblue" stroke="midnightblue" points="261.41,-181.37 255.86,-190.4 265.83,-186.81 261.41,-181.37"/>
</g>
<!-- Node3 -->
<g id="node3" class="node">
<title>Node3</title>
<g id="a_node3"><a xlink:href="event__monitor_8cpp.html" target="_top" xlink:title=" ">
<polygon fill="none" stroke="black" points="0,-56.5 0,-86.5 141,-86.5 141,-56.5 0,-56.5"/>
<text text-anchor="start" x="8" y="-74.5" font-family="Helvetica,sans-Serif" font-size="10.00">HealthGPS.Console/event</text>
<text text-anchor="middle" x="70.5" y="-63.5" font-family="Helvetica,sans-Serif" font-size="10.00">_monitor.cpp</text>
</a>
</g>
</g>
<!-- Node2&#45;&gt;Node3 -->
<g id="edge2" class="edge">
<title>Node2&#45;&gt;Node3</title>
<path fill="none" stroke="midnightblue" d="M132.05,-117.45C118.36,-107.45 102.13,-95.6 89.77,-86.58"/>
<polygon fill="midnightblue" stroke="midnightblue" points="130.05,-120.32 140.19,-123.4 134.18,-114.67 130.05,-120.32"/>
</g>
<!-- Node4 -->
<g id="node4" class="node">
<title>Node4</title>
<g id="a_node4"><a xlink:href="program_8cpp.html" target="_top" xlink:title=" ">
<polygon fill="none" stroke="black" points="82,-0.5 82,-19.5 257,-19.5 257,-0.5 82,-0.5"/>
<text text-anchor="middle" x="169.5" y="-7.5" font-family="Helvetica,sans-Serif" font-size="10.00">HealthGPS.Console/program.cpp</text>
</a>
</g>
</g>
<!-- Node2&#45;&gt;Node4 -->
<g id="edge3" class="edge">
<title>Node2&#45;&gt;Node4</title>
<path fill="none" stroke="midnightblue" d="M161.43,-113.14C163.68,-84.62 167.3,-38.86 168.81,-19.79"/>
<polygon fill="midnightblue" stroke="midnightblue" points="157.91,-113.23 160.61,-123.48 164.89,-113.79 157.91,-113.23"/>
</g>
<!-- Node6 -->
<g id="node6" class="node">
<title>Node6</title>
<g id="a_node6"><a xlink:href="configuration_8h.html" target="_top" xlink:title=" ">
<polygon fill="none" stroke="black" points="216.5,-62 216.5,-81 402.5,-81 402.5,-62 216.5,-62"/>
<text text-anchor="middle" x="309.5" y="-69" font-family="Helvetica,sans-Serif" font-size="10.00">HealthGPS.Console/configuration.h</text>
</a>
</g>
</g>
<!-- Node5&#45;&gt;Node6 -->
<g id="edge5" class="edge">
<title>Node5&#45;&gt;Node6</title>
<path fill="none" stroke="midnightblue" d="M315.14,-113.25C313.59,-102.02 311.84,-89.38 310.7,-81.19"/>
<polygon fill="midnightblue" stroke="midnightblue" points="311.71,-113.97 316.55,-123.4 318.64,-113.01 311.71,-113.97"/>
</g>
<!-- Node8 -->
<g id="node8" class="node">
<title>Node8</title>
<g id="a_node8"><a xlink:href="result__file__writer_8cpp.html" target="_top" xlink:title=" ">
<polygon fill="none" stroke="black" points="421,-56.5 421,-86.5 562,-86.5 562,-56.5 421,-56.5"/>
<text text-anchor="start" x="429" y="-74.5" font-family="Helvetica,sans-Serif" font-size="10.00">HealthGPS.Console/result</text>
<text text-anchor="middle" x="491.5" y="-63.5" font-family="Helvetica,sans-Serif" font-size="10.00">_file_writer.cpp</text>
</a>
</g>
</g>
<!-- Node5&#45;&gt;Node8 -->
<g id="edge8" class="edge">
<title>Node5&#45;&gt;Node8</title>
<path fill="none" stroke="midnightblue" d="M365.56,-119.82C393.37,-109.37 428.09,-96.32 454.03,-86.58"/>
<polygon fill="midnightblue" stroke="midnightblue" points="364.17,-116.6 356.04,-123.4 366.63,-123.16 364.17,-116.6"/>
</g>
<!-- Node6&#45;&gt;Node4 -->
<g id="edge7" class="edge">
<title>Node6&#45;&gt;Node4</title>
<path fill="none" stroke="midnightblue" d="M280.04,-57.98C252.85,-46.42 213.21,-29.58 189.52,-19.51"/>
<polygon fill="midnightblue" stroke="midnightblue" points="278.87,-61.28 289.44,-61.98 281.61,-54.84 278.87,-61.28"/>
</g>
<!-- Node7 -->
<g id="node7" class="node">
<title>Node7</title>
<g id="a_node7"><a xlink:href="configuration_8cpp.html" target="_top" xlink:title=" ">
<polygon fill="none" stroke="black" points="275,-0.5 275,-19.5 472,-19.5 472,-0.5 275,-0.5"/>
<text text-anchor="middle" x="373.5" y="-7.5" font-family="Helvetica,sans-Serif" font-size="10.00">HealthGPS.Console/configuration.cpp</text>
</a>
</g>
</g>
<!-- Node6&#45;&gt;Node7 -->
<g id="edge6" class="edge">
<title>Node6&#45;&gt;Node7</title>
<path fill="none" stroke="midnightblue" d="M326.01,-55.15C338.21,-43.81 354.37,-28.78 364.35,-19.51"/>
<polygon fill="midnightblue" stroke="midnightblue" points="323.61,-52.6 318.67,-61.98 328.38,-57.73 323.61,-52.6"/>
</g>
</g>
</svg>
