<?xml version="1.0" encoding="UTF-8" standalone="no"?>
<!DOCTYPE svg PUBLIC "-//W3C//DTD SVG 1.1//EN"
 "http://www.w3.org/Graphics/SVG/1.1/DTD/svg11.dtd">
<!-- Generated by graphviz version 7.0.6 (20230106.0513)
 -->
<!-- Title: HealthGPS/riskfactor_adjustment_types.h Pages: 1 -->
<svg width="453pt" height="159pt"
 viewBox="0.00 0.00 453.00 159.00" xmlns="http://www.w3.org/2000/svg" xmlns:xlink="http://www.w3.org/1999/xlink">
<g id="graph0" class="graph" transform="scale(1 1) rotate(0) translate(4 155)">
<title>HealthGPS/riskfactor_adjustment_types.h</title>
<!-- Node1 -->
<g id="node1" class="node">
<title>Node1</title>
<g id="a_node1"><a xlink:title=" ">
<polygon fill="#999999" stroke="#666666" points="355,-151 247,-151 247,-121 355,-121 355,-151"/>
<text text-anchor="start" x="255" y="-139" font-family="Helvetica,sans-Serif" font-size="10.00">HealthGPS/riskfactor</text>
<text text-anchor="middle" x="301" y="-128" font-family="Helvetica,sans-Serif" font-size="10.00">_adjustment_types.h</text>
</a>
</g>
</g>
<!-- Node2 -->
<g id="node2" class="node">
<title>Node2</title>
<g id="a_node2"><a xlink:href="forward__type_8h.html" target="_top" xlink:title=" ">
<polygon fill="white" stroke="#666666" points="159,-85 37,-85 37,-55 159,-55 159,-85"/>
<text text-anchor="start" x="45" y="-73" font-family="Helvetica,sans-Serif" font-size="10.00">HealthGPS.Core/forward</text>
<text text-anchor="middle" x="98" y="-62" font-family="Helvetica,sans-Serif" font-size="10.00">_type.h</text>
</a>
</g>
</g>
<!-- Node1&#45;&gt;Node2 -->
<g id="edge1" class="edge">
<title>Node1&#45;&gt;Node2</title>
<path fill="none" stroke="#63b8ff" d="M255.19,-120.56C225.38,-111.16 186.28,-98.83 154.54,-88.82"/>
<polygon fill="#63b8ff" stroke="#63b8ff" points="155.68,-85.51 145.09,-85.85 153.57,-92.19 155.68,-85.51"/>
</g>
<!-- Node5 -->
<g id="node5" class="node">
<title>Node5</title>
<g id="a_node5"><a xlink:href="identifier_8h.html" target="_top" xlink:title=" ">
<polygon fill="white" stroke="#666666" points="313,-79.5 177,-79.5 177,-60.5 313,-60.5 313,-79.5"/>
<text text-anchor="middle" x="245" y="-67.5" font-family="Helvetica,sans-Serif" font-size="10.00">HealthGPS.Core/identifier.h</text>
</a>
</g>
</g>
<!-- Node1&#45;&gt;Node5 -->
<g id="edge4" class="edge">
<title>Node1&#45;&gt;Node5</title>
<path fill="none" stroke="#63b8ff" d="M288.57,-120.8C280.18,-111.21 269.06,-98.5 260.15,-88.32"/>
<polygon fill="#63b8ff" stroke="#63b8ff" points="262.95,-86.2 253.74,-80.98 257.69,-90.81 262.95,-86.2"/>
</g>
<!-- Node9 -->
<g id="node9" class="node">
<title>Node9</title>
<g id="a_node9"><a xlink:href="map2d_8h.html" target="_top" xlink:title=" ">
<polygon fill="white" stroke="#666666" points="385,-79.5 331,-79.5 331,-60.5 385,-60.5 385,-79.5"/>
<text text-anchor="middle" x="358" y="-67.5" font-family="Helvetica,sans-Serif" font-size="10.00">map2d.h</text>
</a>
</g>
</g>
<!-- Node1&#45;&gt;Node9 -->
<g id="edge8" class="edge">
<title>Node1&#45;&gt;Node9</title>
<path fill="none" stroke="#63b8ff" d="M313.65,-120.8C322.19,-111.21 333.51,-98.5 342.57,-88.32"/>
<polygon fill="#63b8ff" stroke="#63b8ff" points="345.08,-90.77 349.12,-80.97 339.85,-86.11 345.08,-90.77"/>
</g>
<!-- Node11 -->
<g id="node11" class="node">
<title>Node11</title>
<g id="a_node11"><a xlink:title=" ">
<polygon fill="#e0e0e0" stroke="#999999" points="445,-79.5 403,-79.5 403,-60.5 445,-60.5 445,-79.5"/>
<text text-anchor="middle" x="424" y="-67.5" font-family="Helvetica,sans-Serif" font-size="10.00">vector</text>
</a>
</g>
</g>
<!-- Node1&#45;&gt;Node11 -->
<g id="edge10" class="edge">
<title>Node1&#45;&gt;Node11</title>
<path fill="none" stroke="#63b8ff" d="M328.6,-120.64C348.9,-110.08 376.35,-95.79 396.6,-85.26"/>
<polygon fill="#63b8ff" stroke="#63b8ff" points="398.13,-88.41 405.39,-80.68 394.9,-82.2 398.13,-88.41"/>
</g>
<!-- Node3 -->
<g id="node3" class="node">
<title>Node3</title>
<g id="a_node3"><a xlink:title=" ">
<polygon fill="#e0e0e0" stroke="#999999" points="62,-19 0,-19 0,0 62,0 62,-19"/>
<text text-anchor="middle" x="31" y="-7" font-family="Helvetica,sans-Serif" font-size="10.00">type_traits</text>
</a>
</g>
</g>
<!-- Node2&#45;&gt;Node3 -->
<g id="edge2" class="edge">
<title>Node2&#45;&gt;Node3</title>
<path fill="none" stroke="#63b8ff" d="M81.44,-54.54C71.71,-46.04 59.39,-35.29 49.36,-26.53"/>
<polygon fill="#63b8ff" stroke="#63b8ff" points="51.91,-24.11 42.08,-20.17 47.31,-29.38 51.91,-24.11"/>
</g>
<!-- Node4 -->
<g id="node4" class="node">
<title>Node4</title>
<g id="a_node4"><a xlink:title=" ">
<polygon fill="#e0e0e0" stroke="#999999" points="126,-19 80,-19 80,0 126,0 126,-19"/>
<text text-anchor="middle" x="103" y="-7" font-family="Helvetica,sans-Serif" font-size="10.00">cstdint</text>
</a>
</g>
</g>
<!-- Node2&#45;&gt;Node4 -->
<g id="edge3" class="edge">
<title>Node2&#45;&gt;Node4</title>
<path fill="none" stroke="#63b8ff" d="M99.24,-54.54C99.86,-47.26 100.62,-38.31 101.3,-30.39"/>
<polygon fill="#63b8ff" stroke="#63b8ff" points="104.77,-30.94 102.13,-20.68 97.79,-30.35 104.77,-30.94"/>
</g>
<!-- Node6 -->
<g id="node6" class="node">
<title>Node6</title>
<g id="a_node6"><a xlink:title=" ">
<polygon fill="#e0e0e0" stroke="#999999" points="195.5,-19 154.5,-19 154.5,0 195.5,0 195.5,-19"/>
<text text-anchor="middle" x="175" y="-7" font-family="Helvetica,sans-Serif" font-size="10.00">string</text>
</a>
</g>
</g>
<!-- Node5&#45;&gt;Node6 -->
<g id="edge5" class="edge">
<title>Node5&#45;&gt;Node6</title>
<path fill="none" stroke="#63b8ff" d="M234.37,-60.12C223.78,-51.27 207.29,-37.48 194.37,-26.69"/>
<polygon fill="#63b8ff" stroke="#63b8ff" points="196.81,-24.17 186.89,-20.44 192.32,-29.54 196.81,-24.17"/>
</g>
<!-- Node7 -->
<g id="node7" class="node">
<title>Node7</title>
<g id="a_node7"><a xlink:title=" ">
<polygon fill="#e0e0e0" stroke="#999999" points="266,-19 214,-19 214,0 266,0 266,-19"/>
<text text-anchor="middle" x="240" y="-7" font-family="Helvetica,sans-Serif" font-size="10.00">ostream</text>
</a>
</g>
</g>
<!-- Node5&#45;&gt;Node7 -->
<g id="edge6" class="edge">
<title>Node5&#45;&gt;Node7</title>
<path fill="none" stroke="#63b8ff" d="M244.26,-60.37C243.59,-52.5 242.57,-40.6 241.7,-30.39"/>
<polygon fill="#63b8ff" stroke="#63b8ff" points="245.21,-30.34 240.87,-20.68 238.23,-30.94 245.21,-30.34"/>
</g>
<!-- Node8 -->
<g id="node8" class="node">
<title>Node8</title>
<g id="a_node8"><a xlink:title=" ">
<polygon fill="#e0e0e0" stroke="#999999" points="342,-19 284,-19 284,0 342,0 342,-19"/>
<text text-anchor="middle" x="313" y="-7" font-family="Helvetica,sans-Serif" font-size="10.00">functional</text>
</a>
</g>
</g>
<!-- Node5&#45;&gt;Node8 -->
<g id="edge7" class="edge">
<title>Node5&#45;&gt;Node8</title>
<path fill="none" stroke="#63b8ff" d="M255.33,-60.12C265.61,-51.27 281.63,-37.48 294.18,-26.69"/>
<polygon fill="#63b8ff" stroke="#63b8ff" points="296.13,-29.63 301.43,-20.46 291.56,-24.32 296.13,-29.63"/>
</g>
<!-- Node10 -->
<g id="node10" class="node">
<title>Node10</title>
<g id="a_node10"><a xlink:title=" ">
<polygon fill="#e0e0e0" stroke="#999999" points="395.5,-19 360.5,-19 360.5,0 395.5,0 395.5,-19"/>
<text text-anchor="middle" x="378" y="-7" font-family="Helvetica,sans-Serif" font-size="10.00">map</text>
</a>
</g>
</g>
<!-- Node9&#45;&gt;Node10 -->
<g id="edge9" class="edge">
<title>Node9&#45;&gt;Node10</title>
<path fill="none" stroke="#63b8ff" d="M360.95,-60.37C363.67,-52.42 367.8,-40.33 371.32,-30.05"/>
<polygon fill="#63b8ff" stroke="#63b8ff" points="374.62,-31.19 374.55,-20.6 368,-28.93 374.62,-31.19"/>
</g>
</g>
</svg>
