<?xml version="1.0" encoding="UTF-8" standalone="no"?>
<!DOCTYPE svg PUBLIC "-//W3C//DTD SVG 1.1//EN"
 "http://www.w3.org/Graphics/SVG/1.1/DTD/svg11.dtd">
<!-- Generated by graphviz version 2.43.0 (0)
 -->
<!-- Title: HealthGPS.Console/riskmodel.h Pages: 1 -->
<svg width="701pt" height="218pt"
 viewBox="0.00 0.00 701.00 218.00" xmlns="http://www.w3.org/2000/svg" xmlns:xlink="http://www.w3.org/1999/xlink">
<g id="graph0" class="graph" transform="scale(1 1) rotate(0) translate(4 214)">
<title>HealthGPS.Console/riskmodel.h</title>
<!-- Node1 -->
<g id="node1" class="node">
<title>Node1</title>
<g id="a_node1"><a xlink:title=" ">
<polygon fill="#bfbfbf" stroke="black" points="282,-190.5 282,-209.5 453,-209.5 453,-190.5 282,-190.5"/>
<text text-anchor="middle" x="367.5" y="-197.5" font-family="Helvetica,sans-Serif" font-size="10.00">HealthGPS.Console/riskmodel.h</text>
</a>
</g>
</g>
<!-- Node2 -->
<g id="node2" class="node">
<title>Node2</title>
<g id="a_node2"><a xlink:href="jsonparser_8h.html" target="_top" xlink:title=" ">
<polygon fill="none" stroke="black" points="281,-134.5 281,-153.5 454,-153.5 454,-134.5 281,-134.5"/>
<text text-anchor="middle" x="367.5" y="-141.5" font-family="Helvetica,sans-Serif" font-size="10.00">HealthGPS.Console/jsonparser.h</text>
</a>
</g>
</g>
<!-- Node1&#45;&gt;Node2 -->
<g id="edge1" class="edge">
<title>Node1&#45;&gt;Node2</title>
<path fill="none" stroke="midnightblue" d="M367.5,-179.8C367.5,-170.91 367.5,-160.78 367.5,-153.75"/>
<polygon fill="midnightblue" stroke="midnightblue" points="364,-180.08 367.5,-190.08 371,-180.08 364,-180.08"/>
</g>
<!-- Node3 -->
<g id="node3" class="node">
<title>Node3</title>
<g id="a_node3"><a xlink:href="configuration_8cpp.html" target="_top" xlink:title=" ">
<polygon fill="none" stroke="black" points="0,-73 0,-92 197,-92 197,-73 0,-73"/>
<text text-anchor="middle" x="98.5" y="-80" font-family="Helvetica,sans-Serif" font-size="10.00">HealthGPS.Console/configuration.cpp</text>
</a>
</g>
</g>
<!-- Node2&#45;&gt;Node3 -->
<g id="edge2" class="edge">
<title>Node2&#45;&gt;Node3</title>
<path fill="none" stroke="midnightblue" d="M318.94,-132.26C266.75,-120.72 184.88,-102.61 136.97,-92.01"/>
<polygon fill="midnightblue" stroke="midnightblue" points="318.44,-135.73 328.96,-134.48 319.95,-128.9 318.44,-135.73"/>
</g>
<!-- Node4 -->
<g id="node4" class="node">
<title>Node4</title>
<g id="a_node4"><a xlink:href="jsonparser_8cpp.html" target="_top" xlink:title=" ">
<polygon fill="none" stroke="black" points="215.5,-73 215.5,-92 399.5,-92 399.5,-73 215.5,-73"/>
<text text-anchor="middle" x="307.5" y="-80" font-family="Helvetica,sans-Serif" font-size="10.00">HealthGPS.Console/jsonparser.cpp</text>
</a>
</g>
</g>
<!-- Node2&#45;&gt;Node4 -->
<g id="edge3" class="edge">
<title>Node2&#45;&gt;Node4</title>
<path fill="none" stroke="midnightblue" d="M351.69,-127.32C340.29,-116.02 325.34,-101.19 316.08,-92.01"/>
<polygon fill="midnightblue" stroke="midnightblue" points="349.34,-129.92 358.9,-134.48 354.27,-124.95 349.34,-129.92"/>
</g>
<!-- Node5 -->
<g id="node5" class="node">
<title>Node5</title>
<g id="a_node5"><a xlink:href="model__parser_8cpp.html" target="_top" xlink:title=" ">
<polygon fill="none" stroke="black" points="355.5,-0.5 355.5,-30.5 499.5,-30.5 499.5,-0.5 355.5,-0.5"/>
<text text-anchor="start" x="363.5" y="-18.5" font-family="Helvetica,sans-Serif" font-size="10.00">HealthGPS.Console/model</text>
<text text-anchor="middle" x="427.5" y="-7.5" font-family="Helvetica,sans-Serif" font-size="10.00">_parser.cpp</text>
</a>
</g>
</g>
<!-- Node2&#45;&gt;Node5 -->
<g id="edge4" class="edge">
<title>Node2&#45;&gt;Node5</title>
<path fill="none" stroke="midnightblue" d="M385.29,-127.54C393.5,-119.5 402.69,-109.06 408.5,-98 419.99,-76.14 424.6,-47.37 426.4,-30.51"/>
<polygon fill="midnightblue" stroke="midnightblue" points="382.81,-125.07 377.87,-134.45 387.57,-130.2 382.81,-125.07"/>
</g>
<!-- Node6 -->
<g id="node6" class="node">
<title>Node6</title>
<g id="a_node6"><a xlink:href="model__parser_8h.html" target="_top" xlink:title=" ">
<polygon fill="none" stroke="black" points="455.5,-67.5 455.5,-97.5 599.5,-97.5 599.5,-67.5 455.5,-67.5"/>
<text text-anchor="start" x="463.5" y="-85.5" font-family="Helvetica,sans-Serif" font-size="10.00">HealthGPS.Console/model</text>
<text text-anchor="middle" x="527.5" y="-74.5" font-family="Helvetica,sans-Serif" font-size="10.00">_parser.h</text>
</a>
</g>
</g>
<!-- Node2&#45;&gt;Node6 -->
<g id="edge5" class="edge">
<title>Node2&#45;&gt;Node6</title>
<path fill="none" stroke="midnightblue" d="M399.83,-130.98C425.85,-121.3 462.45,-107.69 489.79,-97.52"/>
<polygon fill="midnightblue" stroke="midnightblue" points="398.58,-127.71 390.42,-134.48 401.02,-134.27 398.58,-127.71"/>
</g>
<!-- Node6&#45;&gt;Node5 -->
<g id="edge6" class="edge">
<title>Node6&#45;&gt;Node5</title>
<path fill="none" stroke="midnightblue" d="M497.09,-61.73C481.62,-51.68 463.17,-39.68 449.16,-30.58"/>
<polygon fill="midnightblue" stroke="midnightblue" points="495.51,-64.88 505.8,-67.4 499.32,-59.01 495.51,-64.88"/>
</g>
<!-- Node7 -->
<g id="node7" class="node">
<title>Node7</title>
<g id="a_node7"><a xlink:href="program_8cpp.html" target="_top" xlink:title=" ">
<polygon fill="none" stroke="black" points="518,-6 518,-25 693,-25 693,-6 518,-6"/>
<text text-anchor="middle" x="605.5" y="-13" font-family="Helvetica,sans-Serif" font-size="10.00">HealthGPS.Console/program.cpp</text>
</a>
</g>
</g>
<!-- Node6&#45;&gt;Node7 -->
<g id="edge7" class="edge">
<title>Node6&#45;&gt;Node7</title>
<path fill="none" stroke="midnightblue" d="M552.49,-60.67C566.9,-48.67 584.24,-34.22 595.07,-25.19"/>
<polygon fill="midnightblue" stroke="midnightblue" points="549.87,-58.31 544.42,-67.4 554.35,-63.68 549.87,-58.31"/>
</g>
</g>
</svg>
