<?xml version="1.0" encoding="UTF-8" standalone="no"?>
<!DOCTYPE svg PUBLIC "-//W3C//DTD SVG 1.1//EN"
 "http://www.w3.org/Graphics/SVG/1.1/DTD/svg11.dtd">
<!-- Generated by graphviz version 2.43.0 (0)
 -->
<!-- Title: HealthGPS/riskfactor.h Pages: 1 -->
<svg width="515pt" height="274pt"
 viewBox="0.00 0.00 515.00 274.00" xmlns="http://www.w3.org/2000/svg" xmlns:xlink="http://www.w3.org/1999/xlink">
<g id="graph0" class="graph" transform="scale(1 1) rotate(0) translate(4 270)">
<title>HealthGPS/riskfactor.h</title>
<!-- Node1 -->
<g id="node1" class="node">
<title>Node1</title>
<g id="a_node1"><a xlink:title=" ">
<polygon fill="#bfbfbf" stroke="black" points="79.5,-246.5 79.5,-265.5 205.5,-265.5 205.5,-246.5 79.5,-246.5"/>
<text text-anchor="middle" x="142.5" y="-253.5" font-family="Helvetica,sans-Serif" font-size="10.00">HealthGPS/riskfactor.h</text>
</a>
</g>
</g>
<!-- Node2 -->
<g id="node2" class="node">
<title>Node2</title>
<g id="a_node2"><a xlink:href="riskfactor_8cpp.html" target="_top" xlink:title=" ">
<polygon fill="none" stroke="black" points="0,-185 0,-204 137,-204 137,-185 0,-185"/>
<text text-anchor="middle" x="68.5" y="-192" font-family="Helvetica,sans-Serif" font-size="10.00">HealthGPS/riskfactor.cpp</text>
</a>
</g>
</g>
<!-- Node1&#45;&gt;Node2 -->
<g id="edge1" class="edge">
<title>Node1&#45;&gt;Node2</title>
<path fill="none" stroke="midnightblue" d="M123.81,-239.97C109.66,-228.59 90.72,-213.37 79.08,-204.01"/>
<polygon fill="midnightblue" stroke="midnightblue" points="121.91,-242.94 131.9,-246.48 126.3,-237.48 121.91,-242.94"/>
</g>
<!-- Node3 -->
<g id="node3" class="node">
<title>Node3</title>
<g id="a_node3"><a xlink:href="simulation__module_8h.html" target="_top" xlink:title=" ">
<polygon fill="none" stroke="black" points="155,-179.5 155,-209.5 278,-209.5 278,-179.5 155,-179.5"/>
<text text-anchor="start" x="163" y="-197.5" font-family="Helvetica,sans-Serif" font-size="10.00">HealthGPS/simulation</text>
<text text-anchor="middle" x="216.5" y="-186.5" font-family="Helvetica,sans-Serif" font-size="10.00">_module.h</text>
</a>
</g>
</g>
<!-- Node1&#45;&gt;Node3 -->
<g id="edge2" class="edge">
<title>Node1&#45;&gt;Node3</title>
<path fill="none" stroke="midnightblue" d="M160.91,-240.2C172.58,-230.81 187.58,-218.75 199.06,-209.52"/>
<polygon fill="midnightblue" stroke="midnightblue" points="158.7,-237.48 153.1,-246.48 163.09,-242.94 158.7,-237.48"/>
</g>
<!-- Node4 -->
<g id="node4" class="node">
<title>Node4</title>
<g id="a_node4"><a xlink:href="HealthGPS_2api_8h.html" target="_top" xlink:title=" ">
<polygon fill="none" stroke="black" points="44,-56.5 44,-75.5 139,-75.5 139,-56.5 44,-56.5"/>
<text text-anchor="middle" x="91.5" y="-63.5" font-family="Helvetica,sans-Serif" font-size="10.00">HealthGPS/api.h</text>
</a>
</g>
</g>
<!-- Node3&#45;&gt;Node4 -->
<g id="edge3" class="edge">
<title>Node3&#45;&gt;Node4</title>
<path fill="none" stroke="midnightblue" d="M182.71,-173.84C169.64,-165.32 155.07,-154.63 143.5,-143 122.3,-121.69 104.19,-90.69 96.07,-75.73"/>
<polygon fill="midnightblue" stroke="midnightblue" points="181.14,-176.99 191.47,-179.37 184.89,-171.07 181.14,-176.99"/>
</g>
<!-- Node6 -->
<g id="node6" class="node">
<title>Node6</title>
<g id="a_node6"><a xlink:href="healthgps_8h.html" target="_top" xlink:title=" ">
<polygon fill="none" stroke="black" points="152.5,-118 152.5,-137 280.5,-137 280.5,-118 152.5,-118"/>
<text text-anchor="middle" x="216.5" y="-125" font-family="Helvetica,sans-Serif" font-size="10.00">HealthGPS/healthgps.h</text>
</a>
</g>
</g>
<!-- Node3&#45;&gt;Node6 -->
<g id="edge5" class="edge">
<title>Node3&#45;&gt;Node6</title>
<path fill="none" stroke="midnightblue" d="M216.5,-169.25C216.5,-158.02 216.5,-145.38 216.5,-137.19"/>
<polygon fill="midnightblue" stroke="midnightblue" points="213,-169.4 216.5,-179.4 220,-169.4 213,-169.4"/>
</g>
<!-- Node10 -->
<g id="node10" class="node">
<title>Node10</title>
<g id="a_node10"><a xlink:href="simulation__module_8cpp.html" target="_top" xlink:title=" ">
<polygon fill="none" stroke="black" points="299,-112.5 299,-142.5 422,-142.5 422,-112.5 299,-112.5"/>
<text text-anchor="start" x="307" y="-130.5" font-family="Helvetica,sans-Serif" font-size="10.00">HealthGPS/simulation</text>
<text text-anchor="middle" x="360.5" y="-119.5" font-family="Helvetica,sans-Serif" font-size="10.00">_module.cpp</text>
</a>
</g>
</g>
<!-- Node3&#45;&gt;Node10 -->
<g id="edge11" class="edge">
<title>Node3&#45;&gt;Node10</title>
<path fill="none" stroke="midnightblue" d="M256.89,-175.27C279.82,-164.92 308.1,-152.15 329.32,-142.58"/>
<polygon fill="midnightblue" stroke="midnightblue" points="255.42,-172.09 247.75,-179.4 258.3,-178.47 255.42,-172.09"/>
</g>
<!-- Node5 -->
<g id="node5" class="node">
<title>Node5</title>
<g id="a_node5"><a xlink:href="program_8cpp.html" target="_top" xlink:title=" ">
<polygon fill="none" stroke="black" points="61,-0.5 61,-19.5 236,-19.5 236,-0.5 61,-0.5"/>
<text text-anchor="middle" x="148.5" y="-7.5" font-family="Helvetica,sans-Serif" font-size="10.00">HealthGPS.Console/program.cpp</text>
</a>
</g>
</g>
<!-- Node4&#45;&gt;Node5 -->
<g id="edge4" class="edge">
<title>Node4&#45;&gt;Node5</title>
<path fill="none" stroke="midnightblue" d="M108.12,-49.25C118.23,-39.67 130.78,-27.79 139.18,-19.83"/>
<polygon fill="midnightblue" stroke="midnightblue" points="105.51,-46.91 100.66,-56.32 110.32,-51.99 105.51,-46.91"/>
</g>
<!-- Node6&#45;&gt;Node4 -->
<g id="edge6" class="edge">
<title>Node6&#45;&gt;Node4</title>
<path fill="none" stroke="midnightblue" d="M189.56,-113.67C165.3,-102.13 130.34,-85.49 109.38,-75.51"/>
<polygon fill="midnightblue" stroke="midnightblue" points="188.06,-116.84 198.59,-117.98 191.07,-110.52 188.06,-116.84"/>
</g>
<!-- Node7 -->
<g id="node7" class="node">
<title>Node7</title>
<g id="a_node7"><a xlink:href="healthgps_8cpp.html" target="_top" xlink:title=" ">
<polygon fill="none" stroke="black" points="157.5,-56.5 157.5,-75.5 297.5,-75.5 297.5,-56.5 157.5,-56.5"/>
<text text-anchor="middle" x="227.5" y="-63.5" font-family="Helvetica,sans-Serif" font-size="10.00">HealthGPS/healthgps.cpp</text>
</a>
</g>
</g>
<!-- Node6&#45;&gt;Node7 -->
<g id="edge7" class="edge">
<title>Node6&#45;&gt;Node7</title>
<path fill="none" stroke="midnightblue" d="M219.95,-107.82C221.95,-97 224.38,-83.9 225.93,-75.51"/>
<polygon fill="midnightblue" stroke="midnightblue" points="216.45,-107.51 218.08,-117.98 223.34,-108.78 216.45,-107.51"/>
</g>
<!-- Node8 -->
<g id="node8" class="node">
<title>Node8</title>
<g id="a_node8"><a xlink:href="configuration_8h.html" target="_top" xlink:title=" ">
<polygon fill="none" stroke="black" points="315.5,-56.5 315.5,-75.5 501.5,-75.5 501.5,-56.5 315.5,-56.5"/>
<text text-anchor="middle" x="408.5" y="-63.5" font-family="Helvetica,sans-Serif" font-size="10.00">HealthGPS.Console/configuration.h</text>
</a>
</g>
</g>
<!-- Node6&#45;&gt;Node8 -->
<g id="edge8" class="edge">
<title>Node6&#45;&gt;Node8</title>
<path fill="none" stroke="midnightblue" d="M253.99,-114.88C291.31,-103.32 347.7,-85.84 381.04,-75.51"/>
<polygon fill="midnightblue" stroke="midnightblue" points="252.52,-111.67 244.01,-117.98 254.6,-118.36 252.52,-111.67"/>
</g>
<!-- Node8&#45;&gt;Node5 -->
<g id="edge10" class="edge">
<title>Node8&#45;&gt;Node5</title>
<path fill="none" stroke="midnightblue" d="M357.51,-54.41C308.37,-44.2 234.97,-28.96 189.51,-19.52"/>
<polygon fill="midnightblue" stroke="midnightblue" points="356.8,-57.84 367.3,-56.44 358.22,-50.98 356.8,-57.84"/>
</g>
<!-- Node9 -->
<g id="node9" class="node">
<title>Node9</title>
<g id="a_node9"><a xlink:href="configuration_8cpp.html" target="_top" xlink:title=" ">
<polygon fill="none" stroke="black" points="310,-0.5 310,-19.5 507,-19.5 507,-0.5 310,-0.5"/>
<text text-anchor="middle" x="408.5" y="-7.5" font-family="Helvetica,sans-Serif" font-size="10.00">HealthGPS.Console/configuration.cpp</text>
</a>
</g>
</g>
<!-- Node8&#45;&gt;Node9 -->
<g id="edge9" class="edge">
<title>Node8&#45;&gt;Node9</title>
<path fill="none" stroke="midnightblue" d="M408.5,-45.8C408.5,-36.91 408.5,-26.78 408.5,-19.75"/>
<polygon fill="midnightblue" stroke="midnightblue" points="405,-46.08 408.5,-56.08 412,-46.08 405,-46.08"/>
</g>
</g>
</svg>
