<?xml version="1.0" encoding="UTF-8" standalone="no"?>
<!DOCTYPE svg PUBLIC "-//W3C//DTD SVG 1.1//EN"
 "http://www.w3.org/Graphics/SVG/1.1/DTD/svg11.dtd">
<!-- Generated by graphviz version 2.43.0 (0)
 -->
<!-- Title: HealthGPS/runner_message.h Pages: 1 -->
<svg width="228pt" height="140pt"
 viewBox="0.00 0.00 227.50 140.00" xmlns="http://www.w3.org/2000/svg" xmlns:xlink="http://www.w3.org/1999/xlink">
<g id="graph0" class="graph" transform="scale(1 1) rotate(0) translate(4 136)">
<title>HealthGPS/runner_message.h</title>
<!-- Node1 -->
<g id="node1" class="node">
<title>Node1</title>
<g id="a_node1"><a xlink:title=" ">
<polygon fill="#bfbfbf" stroke="black" points="6.5,-112.5 6.5,-131.5 167.5,-131.5 167.5,-112.5 6.5,-112.5"/>
<text text-anchor="middle" x="87" y="-119.5" font-family="Helvetica,sans-Serif" font-size="10.00">HealthGPS/runner_message.h</text>
</a>
</g>
</g>
<!-- Node2 -->
<g id="node2" class="node">
<title>Node2</title>
<g id="a_node2"><a xlink:href="event__message_8h.html" target="_top" xlink:title=" ">
<polygon fill="none" stroke="black" points="35.5,-56.5 35.5,-75.5 138.5,-75.5 138.5,-56.5 35.5,-56.5"/>
<text text-anchor="middle" x="87" y="-63.5" font-family="Helvetica,sans-Serif" font-size="10.00">event_message.h</text>
</a>
</g>
</g>
<!-- Node1&#45;&gt;Node2 -->
<g id="edge1" class="edge">
<title>Node1&#45;&gt;Node2</title>
<path fill="none" stroke="midnightblue" d="M87,-112.08C87,-105.01 87,-94.86 87,-85.99"/>
<polygon fill="midnightblue" stroke="midnightblue" points="90.5,-85.75 87,-75.75 83.5,-85.75 90.5,-85.75"/>
</g>
<!-- Node3 -->
<g id="node3" class="node">
<title>Node3</title>
<g id="a_node3"><a xlink:title=" ">
<polygon fill="none" stroke="#bfbfbf" points="0,-0.5 0,-19.5 44,-19.5 44,-0.5 0,-0.5"/>
<text text-anchor="middle" x="22" y="-7.5" font-family="Helvetica,sans-Serif" font-size="10.00">string</text>
</a>
</g>
</g>
<!-- Node2&#45;&gt;Node3 -->
<g id="edge2" class="edge">
<title>Node2&#45;&gt;Node3</title>
<path fill="none" stroke="midnightblue" d="M76.56,-56.32C66.85,-48.26 52.18,-36.08 40.5,-26.37"/>
<polygon fill="midnightblue" stroke="midnightblue" points="42.56,-23.53 32.63,-19.83 38.09,-28.92 42.56,-23.53"/>
</g>
<!-- Node4 -->
<g id="node4" class="node">
<title>Node4</title>
<g id="a_node4"><a xlink:title=" ">
<polygon fill="none" stroke="#bfbfbf" points="62,-0.5 62,-19.5 112,-19.5 112,-0.5 62,-0.5"/>
<text text-anchor="middle" x="87" y="-7.5" font-family="Helvetica,sans-Serif" font-size="10.00">cstdint</text>
</a>
</g>
</g>
<!-- Node2&#45;&gt;Node4 -->
<g id="edge3" class="edge">
<title>Node2&#45;&gt;Node4</title>
<path fill="none" stroke="midnightblue" d="M87,-56.08C87,-49.01 87,-38.86 87,-29.99"/>
<polygon fill="midnightblue" stroke="midnightblue" points="90.5,-29.75 87,-19.75 83.5,-29.75 90.5,-29.75"/>
</g>
<!-- Node5 -->
<g id="node5" class="node">
<title>Node5</title>
<g id="a_node5"><a xlink:href="event__visitor_8h.html" target="_top" xlink:title=" ">
<polygon fill="none" stroke="black" points="130.5,-0.5 130.5,-19.5 219.5,-19.5 219.5,-0.5 130.5,-0.5"/>
<text text-anchor="middle" x="175" y="-7.5" font-family="Helvetica,sans-Serif" font-size="10.00">event_visitor.h</text>
</a>
</g>
</g>
<!-- Node2&#45;&gt;Node5 -->
<g id="edge4" class="edge">
<title>Node2&#45;&gt;Node5</title>
<path fill="none" stroke="midnightblue" d="M101.14,-56.32C114.87,-47.9 135.94,-34.97 152.06,-25.07"/>
<polygon fill="midnightblue" stroke="midnightblue" points="154.2,-27.87 160.9,-19.65 150.54,-21.9 154.2,-27.87"/>
</g>
</g>
</svg>
