<?xml version="1.0" encoding="UTF-8" standalone="no"?>
<!DOCTYPE svg PUBLIC "-//W3C//DTD SVG 1.1//EN"
 "http://www.w3.org/Graphics/SVG/1.1/DTD/svg11.dtd">
<!-- Generated by graphviz version 2.43.0 (0)
 -->
<!-- Title: HealthGPS/runtime_context.h Pages: 1 -->
<svg width="1554pt" height="408pt"
 viewBox="0.00 0.00 1554.48 408.00" xmlns="http://www.w3.org/2000/svg" xmlns:xlink="http://www.w3.org/1999/xlink">
<g id="graph0" class="graph" transform="scale(1 1) rotate(0) translate(4 404)">
<title>HealthGPS/runtime_context.h</title>
<!-- Node1 -->
<g id="node1" class="node">
<title>Node1</title>
<g id="a_node1"><a xlink:title=" ">
<polygon fill="#bfbfbf" stroke="black" points="629.48,-380.5 629.48,-399.5 790.48,-399.5 790.48,-380.5 629.48,-380.5"/>
<text text-anchor="middle" x="709.98" y="-387.5" font-family="Helvetica,sans-Serif" font-size="10.00">HealthGPS/runtime_context.h</text>
</a>
</g>
</g>
<!-- Node2 -->
<g id="node2" class="node">
<title>Node2</title>
<g id="a_node2"><a xlink:href="analysis__module_8h.html" target="_top" xlink:title=" ">
<polygon fill="none" stroke="black" points="29.98,-313.5 29.98,-343.5 141.98,-343.5 141.98,-313.5 29.98,-313.5"/>
<text text-anchor="start" x="37.98" y="-331.5" font-family="Helvetica,sans-Serif" font-size="10.00">HealthGPS/analysis</text>
<text text-anchor="middle" x="85.98" y="-320.5" font-family="Helvetica,sans-Serif" font-size="10.00">_module.h</text>
</a>
</g>
</g>
<!-- Node1&#45;&gt;Node2 -->
<g id="edge1" class="edge">
<title>Node1&#45;&gt;Node2</title>
<path fill="none" stroke="midnightblue" d="M618.88,-385.56C507.87,-380.48 314.82,-368.75 150.98,-344 148.12,-343.57 145.2,-343.08 142.26,-342.56"/>
<polygon fill="midnightblue" stroke="midnightblue" points="618.89,-389.07 629.04,-386.02 619.21,-382.07 618.89,-389.07"/>
</g>
<!-- Node7 -->
<g id="node7" class="node">
<title>Node7</title>
<g id="a_node7"><a xlink:href="healthgps_8h.html" target="_top" xlink:title=" ">
<polygon fill="none" stroke="black" points="307.98,-118 307.98,-137 435.98,-137 435.98,-118 307.98,-118"/>
<text text-anchor="middle" x="371.98" y="-125" font-family="Helvetica,sans-Serif" font-size="10.00">HealthGPS/healthgps.h</text>
</a>
</g>
</g>
<!-- Node1&#45;&gt;Node7 -->
<g id="edge22" class="edge">
<title>Node1&#45;&gt;Node7</title>
<path fill="none" stroke="midnightblue" d="M619.31,-389.81C441.56,-390.45 61.03,-386.75 20.98,-344 -8.8,-312.21 -4.47,-281.35 20.98,-246 86.49,-154.99 225.78,-133.46 307.82,-128.97"/>
<polygon fill="midnightblue" stroke="midnightblue" points="619.45,-393.31 629.43,-389.77 619.42,-386.31 619.45,-393.31"/>
</g>
<!-- Node12 -->
<g id="node12" class="node">
<title>Node12</title>
<g id="a_node12"><a xlink:href="default__cancer__model_8cpp.html" target="_top" xlink:title=" ">
<polygon fill="none" stroke="black" points="160.48,-313.5 160.48,-343.5 303.48,-343.5 303.48,-313.5 160.48,-313.5"/>
<text text-anchor="start" x="168.48" y="-331.5" font-family="Helvetica,sans-Serif" font-size="10.00">HealthGPS/default_cancer</text>
<text text-anchor="middle" x="231.98" y="-320.5" font-family="Helvetica,sans-Serif" font-size="10.00">_model.cpp</text>
</a>
</g>
</g>
<!-- Node1&#45;&gt;Node12 -->
<g id="edge13" class="edge">
<title>Node1&#45;&gt;Node12</title>
<path fill="none" stroke="midnightblue" d="M619.21,-380.48C538.4,-372.48 417.05,-359.44 311.98,-344 309.33,-343.61 306.63,-343.2 303.9,-342.77"/>
<polygon fill="midnightblue" stroke="midnightblue" points="619.06,-383.98 629.35,-381.48 619.74,-377.01 619.06,-383.98"/>
</g>
<!-- Node13 -->
<g id="node13" class="node">
<title>Node13</title>
<g id="a_node13"><a xlink:href="default__disease__model_8cpp.html" target="_top" xlink:title=" ">
<polygon fill="none" stroke="black" points="321.48,-313.5 321.48,-343.5 470.48,-343.5 470.48,-313.5 321.48,-313.5"/>
<text text-anchor="start" x="329.48" y="-331.5" font-family="Helvetica,sans-Serif" font-size="10.00">HealthGPS/default_disease</text>
<text text-anchor="middle" x="395.98" y="-320.5" font-family="Helvetica,sans-Serif" font-size="10.00">_model.cpp</text>
</a>
</g>
</g>
<!-- Node1&#45;&gt;Node13 -->
<g id="edge14" class="edge">
<title>Node1&#45;&gt;Node13</title>
<path fill="none" stroke="midnightblue" d="M655.08,-378.6C603.76,-368.87 526.72,-354.27 469.98,-343.52"/>
<polygon fill="midnightblue" stroke="midnightblue" points="654.51,-382.05 664.99,-380.48 655.82,-375.17 654.51,-382.05"/>
</g>
<!-- Node14 -->
<g id="node14" class="node">
<title>Node14</title>
<g id="a_node14"><a xlink:href="demographic_8h.html" target="_top" xlink:title=" ">
<polygon fill="none" stroke="black" points="488.98,-319 488.98,-338 632.98,-338 632.98,-319 488.98,-319"/>
<text text-anchor="middle" x="560.98" y="-326" font-family="Helvetica,sans-Serif" font-size="10.00">HealthGPS/demographic.h</text>
</a>
</g>
</g>
<!-- Node1&#45;&gt;Node14 -->
<g id="edge15" class="edge">
<title>Node1&#45;&gt;Node14</title>
<path fill="none" stroke="midnightblue" d="M679.01,-376.63C650.06,-365.07 607.61,-348.12 582.29,-338.01"/>
<polygon fill="midnightblue" stroke="midnightblue" points="678.05,-380.02 688.63,-380.48 680.64,-373.52 678.05,-380.02"/>
</g>
<!-- Node16 -->
<g id="node16" class="node">
<title>Node16</title>
<g id="a_node16"><a xlink:href="HealthGPS_2disease_8h.html" target="_top" xlink:title=" ">
<polygon fill="none" stroke="black" points="650.98,-319 650.98,-338 768.98,-338 768.98,-319 650.98,-319"/>
<text text-anchor="middle" x="709.98" y="-326" font-family="Helvetica,sans-Serif" font-size="10.00">HealthGPS/disease.h</text>
</a>
</g>
</g>
<!-- Node1&#45;&gt;Node16 -->
<g id="edge18" class="edge">
<title>Node1&#45;&gt;Node16</title>
<path fill="none" stroke="midnightblue" d="M709.98,-370.32C709.98,-359.5 709.98,-346.4 709.98,-338.01"/>
<polygon fill="midnightblue" stroke="midnightblue" points="706.48,-370.48 709.98,-380.48 713.48,-370.48 706.48,-370.48"/>
</g>
<!-- Node18 -->
<g id="node18" class="node">
<title>Node18</title>
<g id="a_node18"><a xlink:href="energy__balance__model_8cpp.html" target="_top" xlink:title=" ">
<polygon fill="none" stroke="black" points="787.48,-313.5 787.48,-343.5 936.48,-343.5 936.48,-313.5 787.48,-313.5"/>
<text text-anchor="start" x="795.48" y="-331.5" font-family="Helvetica,sans-Serif" font-size="10.00">HealthGPS/energy_balance</text>
<text text-anchor="middle" x="861.98" y="-320.5" font-family="Helvetica,sans-Serif" font-size="10.00">_model.cpp</text>
</a>
</g>
</g>
<!-- Node1&#45;&gt;Node18 -->
<g id="edge21" class="edge">
<title>Node1&#45;&gt;Node18</title>
<path fill="none" stroke="midnightblue" d="M741.35,-376.72C766.02,-367.06 800.41,-353.6 826.16,-343.52"/>
<polygon fill="midnightblue" stroke="midnightblue" points="739.79,-373.57 731.76,-380.48 742.35,-380.09 739.79,-373.57"/>
</g>
<!-- Node19 -->
<g id="node19" class="node">
<title>Node19</title>
<g id="a_node19"><a xlink:href="hierarchical__model__static_8cpp.html" target="_top" xlink:title=" ">
<polygon fill="none" stroke="black" points="954.98,-313.5 954.98,-343.5 1082.98,-343.5 1082.98,-313.5 954.98,-313.5"/>
<text text-anchor="start" x="962.98" y="-331.5" font-family="Helvetica,sans-Serif" font-size="10.00">HealthGPS/hierarchical</text>
<text text-anchor="middle" x="1018.98" y="-320.5" font-family="Helvetica,sans-Serif" font-size="10.00">_model_static.cpp</text>
</a>
</g>
</g>
<!-- Node1&#45;&gt;Node19 -->
<g id="edge23" class="edge">
<title>Node1&#45;&gt;Node19</title>
<path fill="none" stroke="midnightblue" d="M765.14,-378.51C812.77,-369.43 883.43,-355.92 944.98,-344 948.19,-343.38 951.48,-342.74 954.81,-342.09"/>
<polygon fill="midnightblue" stroke="midnightblue" points="764.21,-375.12 755.04,-380.43 765.52,-382 764.21,-375.12"/>
</g>
<!-- Node20 -->
<g id="node20" class="node">
<title>Node20</title>
<g id="a_node20"><a xlink:href="riskfactor__adjustment_8h.html" target="_top" xlink:title=" ">
<polygon fill="none" stroke="black" points="1100.98,-313.5 1100.98,-343.5 1218.98,-343.5 1218.98,-313.5 1100.98,-313.5"/>
<text text-anchor="start" x="1108.98" y="-331.5" font-family="Helvetica,sans-Serif" font-size="10.00">HealthGPS/riskfactor</text>
<text text-anchor="middle" x="1159.98" y="-320.5" font-family="Helvetica,sans-Serif" font-size="10.00">_adjustment.h</text>
</a>
</g>
</g>
<!-- Node1&#45;&gt;Node20 -->
<g id="edge24" class="edge">
<title>Node1&#45;&gt;Node20</title>
<path fill="none" stroke="midnightblue" d="M801,-380.68C878.6,-373.01 992.98,-360.35 1091.98,-344 1094.84,-343.53 1097.76,-343.02 1100.7,-342.48"/>
<polygon fill="midnightblue" stroke="midnightblue" points="800.38,-377.22 790.77,-381.68 801.06,-384.19 800.38,-377.22"/>
</g>
<!-- Node24 -->
<g id="node24" class="node">
<title>Node24</title>
<g id="a_node24"><a xlink:href="runtime__context_8cpp.html" target="_top" xlink:title=" ">
<polygon fill="none" stroke="black" points="1236.98,-319 1236.98,-338 1408.98,-338 1408.98,-319 1236.98,-319"/>
<text text-anchor="middle" x="1322.98" y="-326" font-family="Helvetica,sans-Serif" font-size="10.00">HealthGPS/runtime_context.cpp</text>
</a>
</g>
</g>
<!-- Node1&#45;&gt;Node24 -->
<g id="edge29" class="edge">
<title>Node1&#45;&gt;Node24</title>
<path fill="none" stroke="midnightblue" d="M801.01,-382.89C904.6,-375.51 1078.78,-361.85 1227.98,-344 1242.06,-342.32 1257.26,-340.15 1271.29,-338.01"/>
<polygon fill="midnightblue" stroke="midnightblue" points="800.63,-379.4 790.9,-383.6 801.12,-386.39 800.63,-379.4"/>
</g>
<!-- Node25 -->
<g id="node25" class="node">
<title>Node25</title>
<g id="a_node25"><a xlink:href="ses__noise__module_8cpp.html" target="_top" xlink:title=" ">
<polygon fill="none" stroke="black" points="1427.48,-313.5 1427.48,-343.5 1546.48,-343.5 1546.48,-313.5 1427.48,-313.5"/>
<text text-anchor="start" x="1435.48" y="-331.5" font-family="Helvetica,sans-Serif" font-size="10.00">HealthGPS/ses_noise</text>
<text text-anchor="middle" x="1486.98" y="-320.5" font-family="Helvetica,sans-Serif" font-size="10.00">_module.cpp</text>
</a>
</g>
</g>
<!-- Node1&#45;&gt;Node25 -->
<g id="edge30" class="edge">
<title>Node1&#45;&gt;Node25</title>
<path fill="none" stroke="midnightblue" d="M800.82,-387.39C935.94,-384.06 1197.64,-374 1417.98,-344 1421.01,-343.59 1424.11,-343.12 1427.23,-342.6"/>
<polygon fill="midnightblue" stroke="midnightblue" points="800.43,-383.9 790.52,-387.64 800.6,-390.9 800.43,-383.9"/>
</g>
<!-- Node3 -->
<g id="node3" class="node">
<title>Node3</title>
<g id="a_node3"><a xlink:href="analysis__module_8cpp.html" target="_top" xlink:title=" ">
<polygon fill="none" stroke="black" points="29.98,-246.5 29.98,-276.5 141.98,-276.5 141.98,-246.5 29.98,-246.5"/>
<text text-anchor="start" x="37.98" y="-264.5" font-family="Helvetica,sans-Serif" font-size="10.00">HealthGPS/analysis</text>
<text text-anchor="middle" x="85.98" y="-253.5" font-family="Helvetica,sans-Serif" font-size="10.00">_module.cpp</text>
</a>
</g>
</g>
<!-- Node2&#45;&gt;Node3 -->
<g id="edge2" class="edge">
<title>Node2&#45;&gt;Node3</title>
<path fill="none" stroke="midnightblue" d="M85.98,-303.11C85.98,-294.15 85.98,-284.32 85.98,-276.58"/>
<polygon fill="midnightblue" stroke="midnightblue" points="82.48,-303.4 85.98,-313.4 89.48,-303.4 82.48,-303.4"/>
</g>
<!-- Node4 -->
<g id="node4" class="node">
<title>Node4</title>
<g id="a_node4"><a xlink:href="simulation__module_8h.html" target="_top" xlink:title=" ">
<polygon fill="none" stroke="black" points="499.48,-179.5 499.48,-209.5 622.48,-209.5 622.48,-179.5 499.48,-179.5"/>
<text text-anchor="start" x="507.48" y="-197.5" font-family="Helvetica,sans-Serif" font-size="10.00">HealthGPS/simulation</text>
<text text-anchor="middle" x="560.98" y="-186.5" font-family="Helvetica,sans-Serif" font-size="10.00">_module.h</text>
</a>
</g>
</g>
<!-- Node2&#45;&gt;Node4 -->
<g id="edge3" class="edge">
<title>Node2&#45;&gt;Node4</title>
<path fill="none" stroke="midnightblue" d="M143.16,-310.51C200.04,-293.72 289.88,-267.5 367.98,-246 414.23,-233.27 466.93,-219.53 505.56,-209.6"/>
<polygon fill="midnightblue" stroke="midnightblue" points="141.87,-307.24 133.28,-313.43 143.86,-313.96 141.87,-307.24"/>
</g>
<!-- Node5 -->
<g id="node5" class="node">
<title>Node5</title>
<g id="a_node5"><a xlink:href="HealthGPS_2api_8h.html" target="_top" xlink:title=" ">
<polygon fill="none" stroke="black" points="532.48,-56.5 532.48,-75.5 627.48,-75.5 627.48,-56.5 532.48,-56.5"/>
<text text-anchor="middle" x="579.98" y="-63.5" font-family="Helvetica,sans-Serif" font-size="10.00">HealthGPS/api.h</text>
</a>
</g>
</g>
<!-- Node4&#45;&gt;Node5 -->
<g id="edge4" class="edge">
<title>Node4&#45;&gt;Node5</title>
<path fill="none" stroke="midnightblue" d="M575.19,-170.41C579.55,-162.08 583.78,-152.41 585.98,-143 591.59,-119.03 585.88,-89.77 582.34,-75.56"/>
<polygon fill="midnightblue" stroke="midnightblue" points="572.13,-168.72 570.31,-179.15 578.24,-172.13 572.13,-168.72"/>
</g>
<!-- Node4&#45;&gt;Node7 -->
<g id="edge6" class="edge">
<title>Node4&#45;&gt;Node7</title>
<path fill="none" stroke="midnightblue" d="M510.41,-176.11C473.64,-163.46 425.46,-146.89 396.72,-137.01"/>
<polygon fill="midnightblue" stroke="midnightblue" points="509.37,-179.45 519.97,-179.4 511.65,-172.83 509.37,-179.45"/>
</g>
<!-- Node11 -->
<g id="node11" class="node">
<title>Node11</title>
<g id="a_node11"><a xlink:href="simulation__module_8cpp.html" target="_top" xlink:title=" ">
<polygon fill="none" stroke="black" points="454.48,-112.5 454.48,-142.5 577.48,-142.5 577.48,-112.5 454.48,-112.5"/>
<text text-anchor="start" x="462.48" y="-130.5" font-family="Helvetica,sans-Serif" font-size="10.00">HealthGPS/simulation</text>
<text text-anchor="middle" x="515.98" y="-119.5" font-family="Helvetica,sans-Serif" font-size="10.00">_module.cpp</text>
</a>
</g>
</g>
<!-- Node4&#45;&gt;Node11 -->
<g id="edge12" class="edge">
<title>Node4&#45;&gt;Node11</title>
<path fill="none" stroke="midnightblue" d="M545.51,-171.16C538.95,-161.68 531.5,-150.92 525.72,-142.58"/>
<polygon fill="midnightblue" stroke="midnightblue" points="542.65,-173.17 551.21,-179.4 548.4,-169.18 542.65,-173.17"/>
</g>
<!-- Node6 -->
<g id="node6" class="node">
<title>Node6</title>
<g id="a_node6"><a xlink:href="program_8cpp.html" target="_top" xlink:title=" ">
<polygon fill="none" stroke="black" points="492.48,-0.5 492.48,-19.5 667.48,-19.5 667.48,-0.5 492.48,-0.5"/>
<text text-anchor="middle" x="579.98" y="-7.5" font-family="Helvetica,sans-Serif" font-size="10.00">HealthGPS.Console/program.cpp</text>
</a>
</g>
</g>
<!-- Node5&#45;&gt;Node6 -->
<g id="edge5" class="edge">
<title>Node5&#45;&gt;Node6</title>
<path fill="none" stroke="midnightblue" d="M579.98,-45.8C579.98,-36.91 579.98,-26.78 579.98,-19.75"/>
<polygon fill="midnightblue" stroke="midnightblue" points="576.48,-46.08 579.98,-56.08 583.48,-46.08 576.48,-46.08"/>
</g>
<!-- Node7&#45;&gt;Node5 -->
<g id="edge7" class="edge">
<title>Node7&#45;&gt;Node5</title>
<path fill="none" stroke="midnightblue" d="M411.57,-115.18C451.98,-103.61 513.81,-85.93 550.23,-75.51"/>
<polygon fill="midnightblue" stroke="midnightblue" points="410.43,-111.86 401.78,-117.98 412.36,-118.59 410.43,-111.86"/>
</g>
<!-- Node8 -->
<g id="node8" class="node">
<title>Node8</title>
<g id="a_node8"><a xlink:href="healthgps_8cpp.html" target="_top" xlink:title=" ">
<polygon fill="none" stroke="black" points="147.98,-56.5 147.98,-75.5 287.98,-75.5 287.98,-56.5 147.98,-56.5"/>
<text text-anchor="middle" x="217.98" y="-63.5" font-family="Helvetica,sans-Serif" font-size="10.00">HealthGPS/healthgps.cpp</text>
</a>
</g>
</g>
<!-- Node7&#45;&gt;Node8 -->
<g id="edge8" class="edge">
<title>Node7&#45;&gt;Node8</title>
<path fill="none" stroke="midnightblue" d="M340.36,-114.28C310.43,-102.72 266.29,-85.66 240,-75.51"/>
<polygon fill="midnightblue" stroke="midnightblue" points="339.33,-117.64 349.91,-117.98 341.85,-111.11 339.33,-117.64"/>
</g>
<!-- Node9 -->
<g id="node9" class="node">
<title>Node9</title>
<g id="a_node9"><a xlink:href="configuration_8h.html" target="_top" xlink:title=" ">
<polygon fill="none" stroke="black" points="305.98,-56.5 305.98,-75.5 491.98,-75.5 491.98,-56.5 305.98,-56.5"/>
<text text-anchor="middle" x="398.98" y="-63.5" font-family="Helvetica,sans-Serif" font-size="10.00">HealthGPS.Console/configuration.h</text>
</a>
</g>
</g>
<!-- Node7&#45;&gt;Node9 -->
<g id="edge9" class="edge">
<title>Node7&#45;&gt;Node9</title>
<path fill="none" stroke="midnightblue" d="M380,-108.83C384.99,-97.83 391.19,-84.16 395.12,-75.51"/>
<polygon fill="midnightblue" stroke="midnightblue" points="376.79,-107.42 375.85,-117.98 383.17,-110.32 376.79,-107.42"/>
</g>
<!-- Node9&#45;&gt;Node6 -->
<g id="edge11" class="edge">
<title>Node9&#45;&gt;Node6</title>
<path fill="none" stroke="midnightblue" d="M437.3,-53.57C471.44,-43.38 520.64,-28.7 551.43,-19.52"/>
<polygon fill="midnightblue" stroke="midnightblue" points="436.24,-50.23 427.66,-56.44 438.24,-56.94 436.24,-50.23"/>
</g>
<!-- Node10 -->
<g id="node10" class="node">
<title>Node10</title>
<g id="a_node10"><a xlink:href="configuration_8cpp.html" target="_top" xlink:title=" ">
<polygon fill="none" stroke="black" points="277.48,-0.5 277.48,-19.5 474.48,-19.5 474.48,-0.5 277.48,-0.5"/>
<text text-anchor="middle" x="375.98" y="-7.5" font-family="Helvetica,sans-Serif" font-size="10.00">HealthGPS.Console/configuration.cpp</text>
</a>
</g>
</g>
<!-- Node9&#45;&gt;Node10 -->
<g id="edge10" class="edge">
<title>Node9&#45;&gt;Node10</title>
<path fill="none" stroke="midnightblue" d="M391.18,-46.69C387.3,-37.59 382.8,-27.01 379.71,-19.75"/>
<polygon fill="midnightblue" stroke="midnightblue" points="388.04,-48.25 395.18,-56.08 394.48,-45.51 388.04,-48.25"/>
</g>
<!-- Node14&#45;&gt;Node4 -->
<g id="edge17" class="edge">
<title>Node14&#45;&gt;Node4</title>
<path fill="none" stroke="midnightblue" d="M560.98,-308.53C560.98,-281.81 560.98,-233.69 560.98,-209.78"/>
<polygon fill="midnightblue" stroke="midnightblue" points="557.48,-308.84 560.98,-318.84 564.48,-308.84 557.48,-308.84"/>
</g>
<!-- Node15 -->
<g id="node15" class="node">
<title>Node15</title>
<g id="a_node15"><a xlink:href="demographic_8cpp.html" target="_top" xlink:title=" ">
<polygon fill="none" stroke="black" points="377.48,-252 377.48,-271 532.48,-271 532.48,-252 377.48,-252"/>
<text text-anchor="middle" x="454.98" y="-259" font-family="Helvetica,sans-Serif" font-size="10.00">HealthGPS/demographic.cpp</text>
</a>
</g>
</g>
<!-- Node14&#45;&gt;Node15 -->
<g id="edge16" class="edge">
<title>Node14&#45;&gt;Node15</title>
<path fill="none" stroke="midnightblue" d="M538.05,-313.44C517.06,-300.57 486.66,-281.93 469.05,-271.13"/>
<polygon fill="midnightblue" stroke="midnightblue" points="536.33,-316.49 546.68,-318.73 539.99,-310.52 536.33,-316.49"/>
</g>
<!-- Node16&#45;&gt;Node4 -->
<g id="edge20" class="edge">
<title>Node16&#45;&gt;Node4</title>
<path fill="none" stroke="midnightblue" d="M720.81,-310.21C730.41,-292.45 740.92,-264.81 726.98,-246 703.13,-213.81 659.25,-201.44 622.6,-196.98"/>
<polygon fill="midnightblue" stroke="midnightblue" points="717.73,-308.54 715.73,-318.95 723.79,-312.06 717.73,-308.54"/>
</g>
<!-- Node17 -->
<g id="node17" class="node">
<title>Node17</title>
<g id="a_node17"><a xlink:href="disease_8cpp.html" target="_top" xlink:title=" ">
<polygon fill="none" stroke="black" points="589.48,-252 589.48,-271 718.48,-271 718.48,-252 589.48,-252"/>
<text text-anchor="middle" x="653.98" y="-259" font-family="Helvetica,sans-Serif" font-size="10.00">HealthGPS/disease.cpp</text>
</a>
</g>
</g>
<!-- Node16&#45;&gt;Node17 -->
<g id="edge19" class="edge">
<title>Node16&#45;&gt;Node17</title>
<path fill="none" stroke="midnightblue" d="M695.88,-311.13C684.93,-298.42 670.17,-281.3 661.41,-271.13"/>
<polygon fill="midnightblue" stroke="midnightblue" points="693.25,-313.44 702.43,-318.73 698.55,-308.87 693.25,-313.44"/>
</g>
<!-- Node21 -->
<g id="node21" class="node">
<title>Node21</title>
<g id="a_node21"><a xlink:href="riskfactor_8h.html" target="_top" xlink:title=" ">
<polygon fill="none" stroke="black" points="1096.98,-252 1096.98,-271 1222.98,-271 1222.98,-252 1096.98,-252"/>
<text text-anchor="middle" x="1159.98" y="-259" font-family="Helvetica,sans-Serif" font-size="10.00">HealthGPS/riskfactor.h</text>
</a>
</g>
</g>
<!-- Node20&#45;&gt;Node21 -->
<g id="edge25" class="edge">
<title>Node20&#45;&gt;Node21</title>
<path fill="none" stroke="midnightblue" d="M1159.98,-303.25C1159.98,-292.02 1159.98,-279.38 1159.98,-271.19"/>
<polygon fill="midnightblue" stroke="midnightblue" points="1156.48,-303.4 1159.98,-313.4 1163.48,-303.4 1156.48,-303.4"/>
</g>
<!-- Node23 -->
<g id="node23" class="node">
<title>Node23</title>
<g id="a_node23"><a xlink:href="riskfactor__adjustment_8cpp.html" target="_top" xlink:title=" ">
<polygon fill="none" stroke="black" points="960.98,-246.5 960.98,-276.5 1078.98,-276.5 1078.98,-246.5 960.98,-246.5"/>
<text text-anchor="start" x="968.98" y="-264.5" font-family="Helvetica,sans-Serif" font-size="10.00">HealthGPS/riskfactor</text>
<text text-anchor="middle" x="1019.98" y="-253.5" font-family="Helvetica,sans-Serif" font-size="10.00">_adjustment.cpp</text>
</a>
</g>
</g>
<!-- Node20&#45;&gt;Node23 -->
<g id="edge28" class="edge">
<title>Node20&#45;&gt;Node23</title>
<path fill="none" stroke="midnightblue" d="M1120.41,-309.13C1098.17,-298.8 1070.83,-286.11 1050.3,-276.58"/>
<polygon fill="midnightblue" stroke="midnightblue" points="1119.06,-312.36 1129.6,-313.4 1122.01,-306.01 1119.06,-312.36"/>
</g>
<!-- Node21&#45;&gt;Node4 -->
<g id="edge27" class="edge">
<title>Node21&#45;&gt;Node4</title>
<path fill="none" stroke="midnightblue" d="M1111.22,-249.97C1103.47,-248.5 1095.52,-247.12 1087.98,-246 920.46,-221.17 721.09,-205.92 622.49,-199.33"/>
<polygon fill="midnightblue" stroke="midnightblue" points="1110.76,-253.45 1121.25,-251.94 1112.11,-246.58 1110.76,-253.45"/>
</g>
<!-- Node22 -->
<g id="node22" class="node">
<title>Node22</title>
<g id="a_node22"><a xlink:href="riskfactor_8cpp.html" target="_top" xlink:title=" ">
<polygon fill="none" stroke="black" points="1091.48,-185 1091.48,-204 1228.48,-204 1228.48,-185 1091.48,-185"/>
<text text-anchor="middle" x="1159.98" y="-192" font-family="Helvetica,sans-Serif" font-size="10.00">HealthGPS/riskfactor.cpp</text>
</a>
</g>
</g>
<!-- Node21&#45;&gt;Node22 -->
<g id="edge26" class="edge">
<title>Node21&#45;&gt;Node22</title>
<path fill="none" stroke="midnightblue" d="M1159.98,-241.54C1159.98,-229.17 1159.98,-213.62 1159.98,-204.13"/>
<polygon fill="midnightblue" stroke="midnightblue" points="1156.48,-241.73 1159.98,-251.73 1163.48,-241.73 1156.48,-241.73"/>
</g>
</g>
</svg>
