<?xml version="1.0" encoding="UTF-8" standalone="no"?>
<!DOCTYPE svg PUBLIC "-//W3C//DTD SVG 1.1//EN"
 "http://www.w3.org/Graphics/SVG/1.1/DTD/svg11.dtd">
<!-- Generated by graphviz version 2.43.0 (0)
 -->
<!-- Title: HealthGPS/runtime_metric.cpp Pages: 1 -->
<svg width="192pt" height="140pt"
 viewBox="0.00 0.00 192.00 140.00" xmlns="http://www.w3.org/2000/svg" xmlns:xlink="http://www.w3.org/1999/xlink">
<g id="graph0" class="graph" transform="scale(1 1) rotate(0) translate(4 136)">
<title>HealthGPS/runtime_metric.cpp</title>
<!-- Node1 -->
<g id="node1" class="node">
<title>Node1</title>
<g id="a_node1"><a xlink:title=" ">
<polygon fill="#bfbfbf" stroke="black" points="17,-112.5 17,-131.5 184,-131.5 184,-112.5 17,-112.5"/>
<text text-anchor="middle" x="100.5" y="-119.5" font-family="Helvetica,sans-Serif" font-size="10.00">HealthGPS/runtime_metric.cpp</text>
</a>
</g>
</g>
<!-- Node2 -->
<g id="node2" class="node">
<title>Node2</title>
<g id="a_node2"><a xlink:href="runtime__metric_8h.html" target="_top" xlink:title=" ">
<polygon fill="none" stroke="black" points="0,-56.5 0,-75.5 101,-75.5 101,-56.5 0,-56.5"/>
<text text-anchor="middle" x="50.5" y="-63.5" font-family="Helvetica,sans-Serif" font-size="10.00">runtime_metric.h</text>
</a>
</g>
</g>
<!-- Node1&#45;&gt;Node2 -->
<g id="edge1" class="edge">
<title>Node1&#45;&gt;Node2</title>
<path fill="none" stroke="midnightblue" d="M92.24,-112.08C85.04,-104.3 74.39,-92.8 65.65,-83.37"/>
<polygon fill="midnightblue" stroke="midnightblue" points="67.97,-80.71 58.6,-75.75 62.83,-85.47 67.97,-80.71"/>
</g>
<!-- Node5 -->
<g id="node5" class="node">
<title>Node5</title>
<g id="a_node5"><a xlink:title=" ">
<polygon fill="none" stroke="#bfbfbf" points="119.5,-56.5 119.5,-75.5 183.5,-75.5 183.5,-56.5 119.5,-56.5"/>
<text text-anchor="middle" x="151.5" y="-63.5" font-family="Helvetica,sans-Serif" font-size="10.00">algorithm</text>
</a>
</g>
</g>
<!-- Node1&#45;&gt;Node5 -->
<g id="edge4" class="edge">
<title>Node1&#45;&gt;Node5</title>
<path fill="none" stroke="midnightblue" d="M108.92,-112.08C116.35,-104.22 127.35,-92.57 136.31,-83.08"/>
<polygon fill="midnightblue" stroke="midnightblue" points="138.91,-85.42 143.24,-75.75 133.82,-80.62 138.91,-85.42"/>
</g>
<!-- Node3 -->
<g id="node3" class="node">
<title>Node3</title>
<g id="a_node3"><a xlink:title=" ">
<polygon fill="none" stroke="#bfbfbf" points="2.5,-0.5 2.5,-19.5 40.5,-19.5 40.5,-0.5 2.5,-0.5"/>
<text text-anchor="middle" x="21.5" y="-7.5" font-family="Helvetica,sans-Serif" font-size="10.00">map</text>
</a>
</g>
</g>
<!-- Node2&#45;&gt;Node3 -->
<g id="edge2" class="edge">
<title>Node2&#45;&gt;Node3</title>
<path fill="none" stroke="midnightblue" d="M45.71,-56.08C41.74,-48.69 35.97,-37.95 31.07,-28.81"/>
<polygon fill="midnightblue" stroke="midnightblue" points="34.01,-26.91 26.2,-19.75 27.85,-30.22 34.01,-26.91"/>
</g>
<!-- Node4 -->
<g id="node4" class="node">
<title>Node4</title>
<g id="a_node4"><a xlink:title=" ">
<polygon fill="none" stroke="#bfbfbf" points="58.5,-0.5 58.5,-19.5 102.5,-19.5 102.5,-0.5 58.5,-0.5"/>
<text text-anchor="middle" x="80.5" y="-7.5" font-family="Helvetica,sans-Serif" font-size="10.00">string</text>
</a>
</g>
</g>
<!-- Node2&#45;&gt;Node4 -->
<g id="edge3" class="edge">
<title>Node2&#45;&gt;Node4</title>
<path fill="none" stroke="midnightblue" d="M55.45,-56.08C59.6,-48.61 65.65,-37.72 70.77,-28.52"/>
<polygon fill="midnightblue" stroke="midnightblue" points="73.84,-30.19 75.64,-19.75 67.72,-26.79 73.84,-30.19"/>
</g>
</g>
</svg>
