<?xml version="1.0" encoding="UTF-8" standalone="no"?>
<!DOCTYPE svg PUBLIC "-//W3C//DTD SVG 1.1//EN"
 "http://www.w3.org/Graphics/SVG/1.1/DTD/svg11.dtd">
<!-- Generated by graphviz version 2.43.0 (0)
 -->
<!-- Title: HealthGPS/runtime_metric.h Pages: 1 -->
<svg width="1722pt" height="464pt"
 viewBox="0.00 0.00 1721.52 464.00" xmlns="http://www.w3.org/2000/svg" xmlns:xlink="http://www.w3.org/1999/xlink">
<g id="graph0" class="graph" transform="scale(1 1) rotate(0) translate(4 460)">
<title>HealthGPS/runtime_metric.h</title>
<!-- Node1 -->
<g id="node1" class="node">
<title>Node1</title>
<g id="a_node1"><a xlink:title=" ">
<polygon fill="#bfbfbf" stroke="black" points="799.52,-436.5 799.52,-455.5 954.52,-455.5 954.52,-436.5 799.52,-436.5"/>
<text text-anchor="middle" x="877.02" y="-443.5" font-family="Helvetica,sans-Serif" font-size="10.00">HealthGPS/runtime_metric.h</text>
</a>
</g>
</g>
<!-- Node2 -->
<g id="node2" class="node">
<title>Node2</title>
<g id="a_node2"><a xlink:href="runtime__context_8h.html" target="_top" xlink:title=" ">
<polygon fill="none" stroke="black" points="705.52,-380.5 705.52,-399.5 866.52,-399.5 866.52,-380.5 705.52,-380.5"/>
<text text-anchor="middle" x="786.02" y="-387.5" font-family="Helvetica,sans-Serif" font-size="10.00">HealthGPS/runtime_context.h</text>
</a>
</g>
</g>
<!-- Node1&#45;&gt;Node2 -->
<g id="edge1" class="edge">
<title>Node1&#45;&gt;Node2</title>
<path fill="none" stroke="midnightblue" d="M853.73,-431.18C836.99,-421.24 814.92,-408.15 800.61,-399.65"/>
<polygon fill="midnightblue" stroke="midnightblue" points="852.02,-434.23 862.4,-436.32 855.59,-428.21 852.02,-434.23"/>
</g>
<!-- Node28 -->
<g id="node28" class="node">
<title>Node28</title>
<g id="a_node28"><a xlink:href="runtime__metric_8cpp.html" target="_top" xlink:title=" ">
<polygon fill="none" stroke="black" points="884.52,-380.5 884.52,-399.5 1051.52,-399.5 1051.52,-380.5 884.52,-380.5"/>
<text text-anchor="middle" x="968.02" y="-387.5" font-family="Helvetica,sans-Serif" font-size="10.00">HealthGPS/runtime_metric.cpp</text>
</a>
</g>
</g>
<!-- Node1&#45;&gt;Node28 -->
<g id="edge33" class="edge">
<title>Node1&#45;&gt;Node28</title>
<path fill="none" stroke="midnightblue" d="M900.32,-431.18C917.06,-421.24 939.12,-408.15 953.44,-399.65"/>
<polygon fill="midnightblue" stroke="midnightblue" points="898.46,-428.21 891.64,-436.32 902.03,-434.23 898.46,-428.21"/>
</g>
<!-- Node3 -->
<g id="node3" class="node">
<title>Node3</title>
<g id="a_node3"><a xlink:href="analysis__module_8h.html" target="_top" xlink:title=" ">
<polygon fill="none" stroke="black" points="30.02,-313.5 30.02,-343.5 142.02,-343.5 142.02,-313.5 30.02,-313.5"/>
<text text-anchor="start" x="38.02" y="-331.5" font-family="Helvetica,sans-Serif" font-size="10.00">HealthGPS/analysis</text>
<text text-anchor="middle" x="86.02" y="-320.5" font-family="Helvetica,sans-Serif" font-size="10.00">_module.h</text>
</a>
</g>
</g>
<!-- Node2&#45;&gt;Node3 -->
<g id="edge2" class="edge">
<title>Node2&#45;&gt;Node3</title>
<path fill="none" stroke="midnightblue" d="M695.24,-386.81C571.59,-382.86 343.55,-372.14 151.02,-344 148.16,-343.58 145.24,-343.11 142.3,-342.59"/>
<polygon fill="midnightblue" stroke="midnightblue" points="695.31,-390.31 705.42,-387.12 695.53,-383.31 695.31,-390.31"/>
</g>
<!-- Node8 -->
<g id="node8" class="node">
<title>Node8</title>
<g id="a_node8"><a xlink:href="healthgps_8h.html" target="_top" xlink:title=" ">
<polygon fill="none" stroke="black" points="308.02,-118 308.02,-137 436.02,-137 436.02,-118 308.02,-118"/>
<text text-anchor="middle" x="372.02" y="-125" font-family="Helvetica,sans-Serif" font-size="10.00">HealthGPS/healthgps.h</text>
</a>
</g>
</g>
<!-- Node2&#45;&gt;Node8 -->
<g id="edge24" class="edge">
<title>Node2&#45;&gt;Node8</title>
<path fill="none" stroke="midnightblue" d="M695.2,-386.95C497.47,-382.04 43.83,-368.19 21.02,-344 -8.86,-312.31 -4.42,-281.35 21.02,-246 86.53,-154.99 225.82,-133.46 307.87,-128.97"/>
<polygon fill="midnightblue" stroke="midnightblue" points="695.19,-390.45 705.28,-387.2 695.36,-383.45 695.19,-390.45"/>
</g>
<!-- Node13 -->
<g id="node13" class="node">
<title>Node13</title>
<g id="a_node13"><a xlink:href="default__cancer__model_8cpp.html" target="_top" xlink:title=" ">
<polygon fill="none" stroke="black" points="160.52,-313.5 160.52,-343.5 303.52,-343.5 303.52,-313.5 160.52,-313.5"/>
<text text-anchor="start" x="168.52" y="-331.5" font-family="Helvetica,sans-Serif" font-size="10.00">HealthGPS/default_cancer</text>
<text text-anchor="middle" x="232.02" y="-320.5" font-family="Helvetica,sans-Serif" font-size="10.00">_model.cpp</text>
</a>
</g>
</g>
<!-- Node2&#45;&gt;Node13 -->
<g id="edge14" class="edge">
<title>Node2&#45;&gt;Node13</title>
<path fill="none" stroke="midnightblue" d="M695.06,-382.66C599.44,-375.46 444.76,-362.3 312.02,-344 309.37,-343.63 306.66,-343.24 303.94,-342.83"/>
<polygon fill="midnightblue" stroke="midnightblue" points="695.04,-386.17 705.27,-383.43 695.56,-379.19 695.04,-386.17"/>
</g>
<!-- Node14 -->
<g id="node14" class="node">
<title>Node14</title>
<g id="a_node14"><a xlink:href="default__disease__model_8cpp.html" target="_top" xlink:title=" ">
<polygon fill="none" stroke="black" points="321.52,-313.5 321.52,-343.5 470.52,-343.5 470.52,-313.5 321.52,-313.5"/>
<text text-anchor="start" x="329.52" y="-331.5" font-family="Helvetica,sans-Serif" font-size="10.00">HealthGPS/default_disease</text>
<text text-anchor="middle" x="396.02" y="-320.5" font-family="Helvetica,sans-Serif" font-size="10.00">_model.cpp</text>
</a>
</g>
</g>
<!-- Node2&#45;&gt;Node14 -->
<g id="edge15" class="edge">
<title>Node2&#45;&gt;Node14</title>
<path fill="none" stroke="midnightblue" d="M714.92,-379.06C652.85,-370.25 560.39,-356.84 480.02,-344 476.96,-343.51 473.82,-343 470.66,-342.48"/>
<polygon fill="midnightblue" stroke="midnightblue" points="714.6,-382.55 724.99,-380.48 715.58,-375.61 714.6,-382.55"/>
</g>
<!-- Node15 -->
<g id="node15" class="node">
<title>Node15</title>
<g id="a_node15"><a xlink:href="demographic_8h.html" target="_top" xlink:title=" ">
<polygon fill="none" stroke="black" points="489.02,-319 489.02,-338 633.02,-338 633.02,-319 489.02,-319"/>
<text text-anchor="middle" x="561.02" y="-326" font-family="Helvetica,sans-Serif" font-size="10.00">HealthGPS/demographic.h</text>
</a>
</g>
</g>
<!-- Node2&#45;&gt;Node15 -->
<g id="edge16" class="edge">
<title>Node2&#45;&gt;Node15</title>
<path fill="none" stroke="midnightblue" d="M744.03,-377.9C700.33,-366.34 632.85,-348.5 593.2,-338.01"/>
<polygon fill="midnightblue" stroke="midnightblue" points="743.22,-381.3 753.79,-380.48 745.01,-374.53 743.22,-381.3"/>
</g>
<!-- Node17 -->
<g id="node17" class="node">
<title>Node17</title>
<g id="a_node17"><a xlink:href="HealthGPS_2disease_8h.html" target="_top" xlink:title=" ">
<polygon fill="none" stroke="black" points="651.02,-319 651.02,-338 769.02,-338 769.02,-319 651.02,-319"/>
<text text-anchor="middle" x="710.02" y="-326" font-family="Helvetica,sans-Serif" font-size="10.00">HealthGPS/disease.h</text>
</a>
</g>
</g>
<!-- Node2&#45;&gt;Node17 -->
<g id="edge19" class="edge">
<title>Node2&#45;&gt;Node17</title>
<path fill="none" stroke="midnightblue" d="M767.24,-374.29C752.66,-362.88 732.96,-347.46 720.89,-338.01"/>
<polygon fill="midnightblue" stroke="midnightblue" points="765.1,-377.07 775.14,-380.48 769.42,-371.55 765.1,-377.07"/>
</g>
<!-- Node19 -->
<g id="node19" class="node">
<title>Node19</title>
<g id="a_node19"><a xlink:href="energy__balance__hierarchical__model_8cpp.html" target="_top" xlink:title=" ">
<polygon fill="none" stroke="black" points="787.52,-313.5 787.52,-343.5 936.52,-343.5 936.52,-313.5 787.52,-313.5"/>
<text text-anchor="start" x="795.52" y="-331.5" font-family="Helvetica,sans-Serif" font-size="10.00">HealthGPS/energy_balance</text>
<text text-anchor="middle" x="862.02" y="-320.5" font-family="Helvetica,sans-Serif" font-size="10.00">_hierarchical_model.cpp</text>
</a>
</g>
</g>
<!-- Node2&#45;&gt;Node19 -->
<g id="edge22" class="edge">
<title>Node2&#45;&gt;Node19</title>
<path fill="none" stroke="midnightblue" d="M804.93,-374.2C816.92,-364.81 832.33,-352.75 844.11,-343.52"/>
<polygon fill="midnightblue" stroke="midnightblue" points="802.63,-371.55 796.91,-380.48 806.94,-377.07 802.63,-371.55"/>
</g>
<!-- Node20 -->
<g id="node20" class="node">
<title>Node20</title>
<g id="a_node20"><a xlink:href="energy__balance__model_8cpp.html" target="_top" xlink:title=" ">
<polygon fill="none" stroke="black" points="954.52,-313.5 954.52,-343.5 1103.52,-343.5 1103.52,-313.5 954.52,-313.5"/>
<text text-anchor="start" x="962.52" y="-331.5" font-family="Helvetica,sans-Serif" font-size="10.00">HealthGPS/energy_balance</text>
<text text-anchor="middle" x="1029.02" y="-320.5" font-family="Helvetica,sans-Serif" font-size="10.00">_model.cpp</text>
</a>
</g>
</g>
<!-- Node2&#45;&gt;Node20 -->
<g id="edge23" class="edge">
<title>Node2&#45;&gt;Node20</title>
<path fill="none" stroke="midnightblue" d="M830.76,-378.05C870.46,-368.33 928.67,-354.07 971.75,-343.52"/>
<polygon fill="midnightblue" stroke="midnightblue" points="829.72,-374.7 820.84,-380.48 831.39,-381.5 829.72,-374.7"/>
</g>
<!-- Node21 -->
<g id="node21" class="node">
<title>Node21</title>
<g id="a_node21"><a xlink:href="hierarchical__model__static_8cpp.html" target="_top" xlink:title=" ">
<polygon fill="none" stroke="black" points="1122.02,-313.5 1122.02,-343.5 1250.02,-343.5 1250.02,-313.5 1122.02,-313.5"/>
<text text-anchor="start" x="1130.02" y="-331.5" font-family="Helvetica,sans-Serif" font-size="10.00">HealthGPS/hierarchical</text>
<text text-anchor="middle" x="1186.02" y="-320.5" font-family="Helvetica,sans-Serif" font-size="10.00">_model_static.cpp</text>
</a>
</g>
</g>
<!-- Node2&#45;&gt;Node21 -->
<g id="edge25" class="edge">
<title>Node2&#45;&gt;Node21</title>
<path fill="none" stroke="midnightblue" d="M866.09,-379.23C932.2,-370.85 1028.4,-357.95 1112.02,-344 1115.25,-343.46 1118.56,-342.89 1121.89,-342.3"/>
<polygon fill="midnightblue" stroke="midnightblue" points="865.63,-375.76 856.15,-380.48 866.51,-382.7 865.63,-375.76"/>
</g>
<!-- Node22 -->
<g id="node22" class="node">
<title>Node22</title>
<g id="a_node22"><a xlink:href="riskfactor__adjustment_8h.html" target="_top" xlink:title=" ">
<polygon fill="none" stroke="black" points="1268.02,-313.5 1268.02,-343.5 1386.02,-343.5 1386.02,-313.5 1268.02,-313.5"/>
<text text-anchor="start" x="1276.02" y="-331.5" font-family="Helvetica,sans-Serif" font-size="10.00">HealthGPS/riskfactor</text>
<text text-anchor="middle" x="1327.02" y="-320.5" font-family="Helvetica,sans-Serif" font-size="10.00">_adjustment.h</text>
</a>
</g>
</g>
<!-- Node2&#45;&gt;Node22 -->
<g id="edge26" class="edge">
<title>Node2&#45;&gt;Node22</title>
<path fill="none" stroke="midnightblue" d="M876.64,-379.86C1047.35,-363.61 1092.81,-369.42 1259.02,-344 1261.89,-343.56 1264.81,-343.08 1267.76,-342.56"/>
<polygon fill="midnightblue" stroke="midnightblue" points="876.17,-376.39 866.55,-380.83 876.84,-383.36 876.17,-376.39"/>
</g>
<!-- Node26 -->
<g id="node26" class="node">
<title>Node26</title>
<g id="a_node26"><a xlink:href="runtime__context_8cpp.html" target="_top" xlink:title=" ">
<polygon fill="none" stroke="black" points="1404.02,-319 1404.02,-338 1576.02,-338 1576.02,-319 1404.02,-319"/>
<text text-anchor="middle" x="1490.02" y="-326" font-family="Helvetica,sans-Serif" font-size="10.00">HealthGPS/runtime_context.cpp</text>
</a>
</g>
</g>
<!-- Node2&#45;&gt;Node26 -->
<g id="edge31" class="edge">
<title>Node2&#45;&gt;Node26</title>
<path fill="none" stroke="midnightblue" d="M876.6,-379.89C1107.56,-360.6 1168.03,-369.14 1395.02,-344 1409.45,-342.4 1425.04,-340.22 1439.34,-338.03"/>
<polygon fill="midnightblue" stroke="midnightblue" points="876.21,-376.41 866.54,-380.74 876.8,-383.39 876.21,-376.41"/>
</g>
<!-- Node27 -->
<g id="node27" class="node">
<title>Node27</title>
<g id="a_node27"><a xlink:href="ses__noise__module_8cpp.html" target="_top" xlink:title=" ">
<polygon fill="none" stroke="black" points="1594.52,-313.5 1594.52,-343.5 1713.52,-343.5 1713.52,-313.5 1594.52,-313.5"/>
<text text-anchor="start" x="1602.52" y="-331.5" font-family="Helvetica,sans-Serif" font-size="10.00">HealthGPS/ses_noise</text>
<text text-anchor="middle" x="1654.02" y="-320.5" font-family="Helvetica,sans-Serif" font-size="10.00">_module.cpp</text>
</a>
</g>
</g>
<!-- Node2&#45;&gt;Node27 -->
<g id="edge32" class="edge">
<title>Node2&#45;&gt;Node27</title>
<path fill="none" stroke="midnightblue" d="M876.88,-379.9C1191.86,-356.7 1275.05,-384.18 1585.02,-344 1588.06,-343.61 1591.16,-343.15 1594.28,-342.65"/>
<polygon fill="midnightblue" stroke="midnightblue" points="876.25,-376.44 866.54,-380.68 876.77,-383.42 876.25,-376.44"/>
</g>
<!-- Node4 -->
<g id="node4" class="node">
<title>Node4</title>
<g id="a_node4"><a xlink:href="analysis__module_8cpp.html" target="_top" xlink:title=" ">
<polygon fill="none" stroke="black" points="30.02,-246.5 30.02,-276.5 142.02,-276.5 142.02,-246.5 30.02,-246.5"/>
<text text-anchor="start" x="38.02" y="-264.5" font-family="Helvetica,sans-Serif" font-size="10.00">HealthGPS/analysis</text>
<text text-anchor="middle" x="86.02" y="-253.5" font-family="Helvetica,sans-Serif" font-size="10.00">_module.cpp</text>
</a>
</g>
</g>
<!-- Node3&#45;&gt;Node4 -->
<g id="edge3" class="edge">
<title>Node3&#45;&gt;Node4</title>
<path fill="none" stroke="midnightblue" d="M86.02,-303.11C86.02,-294.15 86.02,-284.32 86.02,-276.58"/>
<polygon fill="midnightblue" stroke="midnightblue" points="82.52,-303.4 86.02,-313.4 89.52,-303.4 82.52,-303.4"/>
</g>
<!-- Node5 -->
<g id="node5" class="node">
<title>Node5</title>
<g id="a_node5"><a xlink:href="simulation__module_8h.html" target="_top" xlink:title=" ">
<polygon fill="none" stroke="black" points="499.52,-179.5 499.52,-209.5 622.52,-209.5 622.52,-179.5 499.52,-179.5"/>
<text text-anchor="start" x="507.52" y="-197.5" font-family="Helvetica,sans-Serif" font-size="10.00">HealthGPS/simulation</text>
<text text-anchor="middle" x="561.02" y="-186.5" font-family="Helvetica,sans-Serif" font-size="10.00">_module.h</text>
</a>
</g>
</g>
<!-- Node3&#45;&gt;Node5 -->
<g id="edge4" class="edge">
<title>Node3&#45;&gt;Node5</title>
<path fill="none" stroke="midnightblue" d="M143.2,-310.51C200.09,-293.72 289.92,-267.5 368.02,-246 414.27,-233.27 466.97,-219.53 505.6,-209.6"/>
<polygon fill="midnightblue" stroke="midnightblue" points="141.92,-307.24 133.32,-313.43 143.9,-313.96 141.92,-307.24"/>
</g>
<!-- Node6 -->
<g id="node6" class="node">
<title>Node6</title>
<g id="a_node6"><a xlink:href="HealthGPS_2api_8h.html" target="_top" xlink:title=" ">
<polygon fill="none" stroke="black" points="532.52,-56.5 532.52,-75.5 627.52,-75.5 627.52,-56.5 532.52,-56.5"/>
<text text-anchor="middle" x="580.02" y="-63.5" font-family="Helvetica,sans-Serif" font-size="10.00">HealthGPS/api.h</text>
</a>
</g>
</g>
<!-- Node5&#45;&gt;Node6 -->
<g id="edge5" class="edge">
<title>Node5&#45;&gt;Node6</title>
<path fill="none" stroke="midnightblue" d="M575.23,-170.41C579.6,-162.08 583.82,-152.41 586.02,-143 591.63,-119.03 585.92,-89.77 582.38,-75.56"/>
<polygon fill="midnightblue" stroke="midnightblue" points="572.17,-168.72 570.36,-179.15 578.28,-172.13 572.17,-168.72"/>
</g>
<!-- Node5&#45;&gt;Node8 -->
<g id="edge7" class="edge">
<title>Node5&#45;&gt;Node8</title>
<path fill="none" stroke="midnightblue" d="M510.45,-176.11C473.68,-163.46 425.5,-146.89 396.76,-137.01"/>
<polygon fill="midnightblue" stroke="midnightblue" points="509.42,-179.45 520.01,-179.4 511.7,-172.83 509.42,-179.45"/>
</g>
<!-- Node12 -->
<g id="node12" class="node">
<title>Node12</title>
<g id="a_node12"><a xlink:href="simulation__module_8cpp.html" target="_top" xlink:title=" ">
<polygon fill="none" stroke="black" points="454.52,-112.5 454.52,-142.5 577.52,-142.5 577.52,-112.5 454.52,-112.5"/>
<text text-anchor="start" x="462.52" y="-130.5" font-family="Helvetica,sans-Serif" font-size="10.00">HealthGPS/simulation</text>
<text text-anchor="middle" x="516.02" y="-119.5" font-family="Helvetica,sans-Serif" font-size="10.00">_module.cpp</text>
</a>
</g>
</g>
<!-- Node5&#45;&gt;Node12 -->
<g id="edge13" class="edge">
<title>Node5&#45;&gt;Node12</title>
<path fill="none" stroke="midnightblue" d="M545.56,-171.16C538.99,-161.68 531.54,-150.92 525.77,-142.58"/>
<polygon fill="midnightblue" stroke="midnightblue" points="542.69,-173.17 551.26,-179.4 548.45,-169.18 542.69,-173.17"/>
</g>
<!-- Node7 -->
<g id="node7" class="node">
<title>Node7</title>
<g id="a_node7"><a xlink:href="program_8cpp.html" target="_top" xlink:title=" ">
<polygon fill="none" stroke="black" points="492.52,-0.5 492.52,-19.5 667.52,-19.5 667.52,-0.5 492.52,-0.5"/>
<text text-anchor="middle" x="580.02" y="-7.5" font-family="Helvetica,sans-Serif" font-size="10.00">HealthGPS.Console/program.cpp</text>
</a>
</g>
</g>
<!-- Node6&#45;&gt;Node7 -->
<g id="edge6" class="edge">
<title>Node6&#45;&gt;Node7</title>
<path fill="none" stroke="midnightblue" d="M580.02,-45.8C580.02,-36.91 580.02,-26.78 580.02,-19.75"/>
<polygon fill="midnightblue" stroke="midnightblue" points="576.52,-46.08 580.02,-56.08 583.52,-46.08 576.52,-46.08"/>
</g>
<!-- Node8&#45;&gt;Node6 -->
<g id="edge8" class="edge">
<title>Node8&#45;&gt;Node6</title>
<path fill="none" stroke="midnightblue" d="M411.61,-115.18C452.03,-103.61 513.85,-85.93 550.28,-75.51"/>
<polygon fill="midnightblue" stroke="midnightblue" points="410.48,-111.86 401.83,-117.98 412.4,-118.59 410.48,-111.86"/>
</g>
<!-- Node9 -->
<g id="node9" class="node">
<title>Node9</title>
<g id="a_node9"><a xlink:href="healthgps_8cpp.html" target="_top" xlink:title=" ">
<polygon fill="none" stroke="black" points="148.02,-56.5 148.02,-75.5 288.02,-75.5 288.02,-56.5 148.02,-56.5"/>
<text text-anchor="middle" x="218.02" y="-63.5" font-family="Helvetica,sans-Serif" font-size="10.00">HealthGPS/healthgps.cpp</text>
</a>
</g>
</g>
<!-- Node8&#45;&gt;Node9 -->
<g id="edge9" class="edge">
<title>Node8&#45;&gt;Node9</title>
<path fill="none" stroke="midnightblue" d="M340.4,-114.28C310.48,-102.72 266.33,-85.66 240.05,-75.51"/>
<polygon fill="midnightblue" stroke="midnightblue" points="339.37,-117.64 349.96,-117.98 341.89,-111.11 339.37,-117.64"/>
</g>
<!-- Node10 -->
<g id="node10" class="node">
<title>Node10</title>
<g id="a_node10"><a xlink:href="configuration_8h.html" target="_top" xlink:title=" ">
<polygon fill="none" stroke="black" points="306.02,-56.5 306.02,-75.5 492.02,-75.5 492.02,-56.5 306.02,-56.5"/>
<text text-anchor="middle" x="399.02" y="-63.5" font-family="Helvetica,sans-Serif" font-size="10.00">HealthGPS.Console/configuration.h</text>
</a>
</g>
</g>
<!-- Node8&#45;&gt;Node10 -->
<g id="edge10" class="edge">
<title>Node8&#45;&gt;Node10</title>
<path fill="none" stroke="midnightblue" d="M380.04,-108.83C385.03,-97.83 391.24,-84.16 395.16,-75.51"/>
<polygon fill="midnightblue" stroke="midnightblue" points="376.84,-107.42 375.89,-117.98 383.21,-110.32 376.84,-107.42"/>
</g>
<!-- Node10&#45;&gt;Node7 -->
<g id="edge12" class="edge">
<title>Node10&#45;&gt;Node7</title>
<path fill="none" stroke="midnightblue" d="M437.34,-53.57C471.49,-43.38 520.68,-28.7 551.48,-19.52"/>
<polygon fill="midnightblue" stroke="midnightblue" points="436.29,-50.23 427.7,-56.44 438.29,-56.94 436.29,-50.23"/>
</g>
<!-- Node11 -->
<g id="node11" class="node">
<title>Node11</title>
<g id="a_node11"><a xlink:href="configuration_8cpp.html" target="_top" xlink:title=" ">
<polygon fill="none" stroke="black" points="277.52,-0.5 277.52,-19.5 474.52,-19.5 474.52,-0.5 277.52,-0.5"/>
<text text-anchor="middle" x="376.02" y="-7.5" font-family="Helvetica,sans-Serif" font-size="10.00">HealthGPS.Console/configuration.cpp</text>
</a>
</g>
</g>
<!-- Node10&#45;&gt;Node11 -->
<g id="edge11" class="edge">
<title>Node10&#45;&gt;Node11</title>
<path fill="none" stroke="midnightblue" d="M391.23,-46.69C387.35,-37.59 382.85,-27.01 379.75,-19.75"/>
<polygon fill="midnightblue" stroke="midnightblue" points="388.09,-48.25 395.23,-56.08 394.53,-45.51 388.09,-48.25"/>
</g>
<!-- Node15&#45;&gt;Node5 -->
<g id="edge18" class="edge">
<title>Node15&#45;&gt;Node5</title>
<path fill="none" stroke="midnightblue" d="M561.02,-308.53C561.02,-281.81 561.02,-233.69 561.02,-209.78"/>
<polygon fill="midnightblue" stroke="midnightblue" points="557.52,-308.84 561.02,-318.84 564.52,-308.84 557.52,-308.84"/>
</g>
<!-- Node16 -->
<g id="node16" class="node">
<title>Node16</title>
<g id="a_node16"><a xlink:href="demographic_8cpp.html" target="_top" xlink:title=" ">
<polygon fill="none" stroke="black" points="377.52,-252 377.52,-271 532.52,-271 532.52,-252 377.52,-252"/>
<text text-anchor="middle" x="455.02" y="-259" font-family="Helvetica,sans-Serif" font-size="10.00">HealthGPS/demographic.cpp</text>
</a>
</g>
</g>
<!-- Node15&#45;&gt;Node16 -->
<g id="edge17" class="edge">
<title>Node15&#45;&gt;Node16</title>
<path fill="none" stroke="midnightblue" d="M538.1,-313.44C517.11,-300.57 486.71,-281.93 469.09,-271.13"/>
<polygon fill="midnightblue" stroke="midnightblue" points="536.37,-316.49 546.73,-318.73 540.03,-310.52 536.37,-316.49"/>
</g>
<!-- Node17&#45;&gt;Node5 -->
<g id="edge21" class="edge">
<title>Node17&#45;&gt;Node5</title>
<path fill="none" stroke="midnightblue" d="M720.86,-310.21C730.45,-292.45 740.97,-264.81 727.02,-246 703.17,-213.81 659.3,-201.44 622.64,-196.98"/>
<polygon fill="midnightblue" stroke="midnightblue" points="717.78,-308.54 715.78,-318.95 723.83,-312.06 717.78,-308.54"/>
</g>
<!-- Node18 -->
<g id="node18" class="node">
<title>Node18</title>
<g id="a_node18"><a xlink:href="disease_8cpp.html" target="_top" xlink:title=" ">
<polygon fill="none" stroke="black" points="589.52,-252 589.52,-271 718.52,-271 718.52,-252 589.52,-252"/>
<text text-anchor="middle" x="654.02" y="-259" font-family="Helvetica,sans-Serif" font-size="10.00">HealthGPS/disease.cpp</text>
</a>
</g>
</g>
<!-- Node17&#45;&gt;Node18 -->
<g id="edge20" class="edge">
<title>Node17&#45;&gt;Node18</title>
<path fill="none" stroke="midnightblue" d="M695.92,-311.13C684.97,-298.42 670.22,-281.3 661.46,-271.13"/>
<polygon fill="midnightblue" stroke="midnightblue" points="693.29,-313.44 702.47,-318.73 698.6,-308.87 693.29,-313.44"/>
</g>
<!-- Node23 -->
<g id="node23" class="node">
<title>Node23</title>
<g id="a_node23"><a xlink:href="riskfactor_8h.html" target="_top" xlink:title=" ">
<polygon fill="none" stroke="black" points="1264.02,-252 1264.02,-271 1390.02,-271 1390.02,-252 1264.02,-252"/>
<text text-anchor="middle" x="1327.02" y="-259" font-family="Helvetica,sans-Serif" font-size="10.00">HealthGPS/riskfactor.h</text>
</a>
</g>
</g>
<!-- Node22&#45;&gt;Node23 -->
<g id="edge27" class="edge">
<title>Node22&#45;&gt;Node23</title>
<path fill="none" stroke="midnightblue" d="M1327.02,-303.25C1327.02,-292.02 1327.02,-279.38 1327.02,-271.19"/>
<polygon fill="midnightblue" stroke="midnightblue" points="1323.52,-303.4 1327.02,-313.4 1330.52,-303.4 1323.52,-303.4"/>
</g>
<!-- Node25 -->
<g id="node25" class="node">
<title>Node25</title>
<g id="a_node25"><a xlink:href="riskfactor__adjustment_8cpp.html" target="_top" xlink:title=" ">
<polygon fill="none" stroke="black" points="1128.02,-246.5 1128.02,-276.5 1246.02,-276.5 1246.02,-246.5 1128.02,-246.5"/>
<text text-anchor="start" x="1136.02" y="-264.5" font-family="Helvetica,sans-Serif" font-size="10.00">HealthGPS/riskfactor</text>
<text text-anchor="middle" x="1187.02" y="-253.5" font-family="Helvetica,sans-Serif" font-size="10.00">_adjustment.cpp</text>
</a>
</g>
</g>
<!-- Node22&#45;&gt;Node25 -->
<g id="edge30" class="edge">
<title>Node22&#45;&gt;Node25</title>
<path fill="none" stroke="midnightblue" d="M1287.46,-309.13C1265.21,-298.8 1237.88,-286.11 1217.34,-276.58"/>
<polygon fill="midnightblue" stroke="midnightblue" points="1286.1,-312.36 1296.65,-313.4 1289.05,-306.01 1286.1,-312.36"/>
</g>
<!-- Node23&#45;&gt;Node5 -->
<g id="edge29" class="edge">
<title>Node23&#45;&gt;Node5</title>
<path fill="none" stroke="midnightblue" d="M1279.37,-250.02C1271.27,-248.5 1262.93,-247.08 1255.02,-246 1022.82,-214.3 744,-201.64 622.57,-197.37"/>
<polygon fill="midnightblue" stroke="midnightblue" points="1278.95,-253.51 1289.44,-252 1280.3,-246.64 1278.95,-253.51"/>
</g>
<!-- Node24 -->
<g id="node24" class="node">
<title>Node24</title>
<g id="a_node24"><a xlink:href="riskfactor_8cpp.html" target="_top" xlink:title=" ">
<polygon fill="none" stroke="black" points="1258.52,-185 1258.52,-204 1395.52,-204 1395.52,-185 1258.52,-185"/>
<text text-anchor="middle" x="1327.02" y="-192" font-family="Helvetica,sans-Serif" font-size="10.00">HealthGPS/riskfactor.cpp</text>
</a>
</g>
</g>
<!-- Node23&#45;&gt;Node24 -->
<g id="edge28" class="edge">
<title>Node23&#45;&gt;Node24</title>
<path fill="none" stroke="midnightblue" d="M1327.02,-241.54C1327.02,-229.17 1327.02,-213.62 1327.02,-204.13"/>
<polygon fill="midnightblue" stroke="midnightblue" points="1323.52,-241.73 1327.02,-251.73 1330.52,-241.73 1323.52,-241.73"/>
</g>
</g>
</svg>
