<?xml version="1.0" encoding="UTF-8" standalone="no"?>
<!DOCTYPE svg PUBLIC "-//W3C//DTD SVG 1.1//EN"
 "http://www.w3.org/Graphics/SVG/1.1/DTD/svg11.dtd">
<!-- Generated by graphviz version 7.0.6 (20230106.0513)
 -->
<!-- Title: HealthGPS/runtime_metric.cpp Pages: 1 -->
<svg width="175pt" height="137pt"
 viewBox="0.00 0.00 174.50 137.00" xmlns="http://www.w3.org/2000/svg" xmlns:xlink="http://www.w3.org/1999/xlink">
<g id="graph0" class="graph" transform="scale(1 1) rotate(0) translate(4 133)">
<title>HealthGPS/runtime_metric.cpp</title>
<!-- Node1 -->
<g id="node1" class="node">
<title>Node1</title>
<g id="a_node1"><a xlink:title=" ">
<polygon fill="#999999" stroke="#666666" points="166.5,-129 14.5,-129 14.5,-110 166.5,-110 166.5,-129"/>
<text text-anchor="middle" x="90.5" y="-117" font-family="Helvetica,sans-Serif" font-size="10.00">HealthGPS/runtime_metric.cpp</text>
</a>
</g>
</g>
<!-- Node2 -->
<g id="node2" class="node">
<title>Node2</title>
<g id="a_node2"><a xlink:href="runtime__metric_8h.html" target="_top" xlink:title=" ">
<polygon fill="white" stroke="#666666" points="90,-74 1,-74 1,-55 90,-55 90,-74"/>
<text text-anchor="middle" x="45.5" y="-62" font-family="Helvetica,sans-Serif" font-size="10.00">runtime_metric.h</text>
</a>
</g>
</g>
<!-- Node1&#45;&gt;Node2 -->
<g id="edge1" class="edge">
<title>Node1&#45;&gt;Node2</title>
<path fill="none" stroke="#63b8ff" d="M83.07,-109.75C76.92,-102.5 67.99,-91.98 60.37,-83.02"/>
<polygon fill="#63b8ff" stroke="#63b8ff" points="63.21,-80.95 54.07,-75.6 57.88,-85.48 63.21,-80.95"/>
</g>
<!-- Node5 -->
<g id="node5" class="node">
<title>Node5</title>
<g id="a_node5"><a xlink:title=" ">
<polygon fill="#e0e0e0" stroke="#999999" points="164.5,-74 108.5,-74 108.5,-55 164.5,-55 164.5,-74"/>
<text text-anchor="middle" x="136.5" y="-62" font-family="Helvetica,sans-Serif" font-size="10.00">algorithm</text>
</a>
</g>
</g>
<!-- Node1&#45;&gt;Node5 -->
<g id="edge4" class="edge">
<title>Node1&#45;&gt;Node5</title>
<path fill="none" stroke="#63b8ff" d="M98.1,-109.75C104.38,-102.5 113.51,-91.98 121.3,-83.02"/>
<polygon fill="#63b8ff" stroke="#63b8ff" points="123.84,-85.43 127.75,-75.59 118.55,-80.84 123.84,-85.43"/>
</g>
<!-- Node3 -->
<g id="node3" class="node">
<title>Node3</title>
<g id="a_node3"><a xlink:title=" ">
<polygon fill="#e0e0e0" stroke="#999999" points="35,-19 0,-19 0,0 35,0 35,-19"/>
<text text-anchor="middle" x="17.5" y="-7" font-family="Helvetica,sans-Serif" font-size="10.00">map</text>
</a>
</g>
</g>
<!-- Node2&#45;&gt;Node3 -->
<g id="edge2" class="edge">
<title>Node2&#45;&gt;Node3</title>
<path fill="none" stroke="#63b8ff" d="M40.88,-54.75C37.25,-47.88 32.07,-38.08 27.51,-29.45"/>
<polygon fill="#63b8ff" stroke="#63b8ff" points="30.7,-27.99 22.93,-20.78 24.51,-31.26 30.7,-27.99"/>
</g>
<!-- Node4 -->
<g id="node4" class="node">
<title>Node4</title>
<g id="a_node4"><a xlink:title=" ">
<polygon fill="#e0e0e0" stroke="#999999" points="94,-19 53,-19 53,0 94,0 94,-19"/>
<text text-anchor="middle" x="73.5" y="-7" font-family="Helvetica,sans-Serif" font-size="10.00">string</text>
</a>
</g>
</g>
<!-- Node2&#45;&gt;Node4 -->
<g id="edge3" class="edge">
<title>Node2&#45;&gt;Node4</title>
<path fill="none" stroke="#63b8ff" d="M50.12,-54.75C53.75,-47.88 58.93,-38.08 63.49,-29.45"/>
<polygon fill="#63b8ff" stroke="#63b8ff" points="66.49,-31.26 68.07,-20.78 60.3,-27.99 66.49,-31.26"/>
</g>
</g>
</svg>
