<?xml version="1.0" encoding="UTF-8" standalone="no"?>
<!DOCTYPE svg PUBLIC "-//W3C//DTD SVG 1.1//EN"
 "http://www.w3.org/Graphics/SVG/1.1/DTD/svg11.dtd">
<!-- Generated by graphviz version 2.43.0 (0)
 -->
<!-- Title: HealthGPS/scenario.h Pages: 1 -->
<svg width="2337pt" height="564pt"
 viewBox="0.00 0.00 2337.00 564.00" xmlns="http://www.w3.org/2000/svg" xmlns:xlink="http://www.w3.org/1999/xlink">
<g id="graph0" class="graph" transform="scale(1 1) rotate(0) translate(4 560)">
<title>HealthGPS/scenario.h</title>
<!-- Node1 -->
<g id="node1" class="node">
<title>Node1</title>
<g id="a_node1"><a xlink:title=" ">
<polygon fill="#bfbfbf" stroke="black" points="487.5,-536.5 487.5,-555.5 609.5,-555.5 609.5,-536.5 487.5,-536.5"/>
<text text-anchor="middle" x="548.5" y="-543.5" font-family="Helvetica,sans-Serif" font-size="10.00">HealthGPS/scenario.h</text>
</a>
</g>
</g>
<!-- Node2 -->
<g id="node2" class="node">
<title>Node2</title>
<g id="a_node2"><a xlink:href="baseline__scenario_8h.html" target="_top" xlink:title=" ">
<polygon fill="none" stroke="black" points="275,-134.5 275,-164.5 388,-164.5 388,-134.5 275,-134.5"/>
<text text-anchor="start" x="283" y="-152.5" font-family="Helvetica,sans-Serif" font-size="10.00">HealthGPS/baseline</text>
<text text-anchor="middle" x="331.5" y="-141.5" font-family="Helvetica,sans-Serif" font-size="10.00">_scenario.h</text>
</a>
</g>
</g>
<!-- Node1&#45;&gt;Node2 -->
<g id="edge1" class="edge">
<title>Node1&#45;&gt;Node2</title>
<path fill="none" stroke="midnightblue" d="M506.73,-533.25C457.56,-516.56 382.5,-480.87 382.5,-418.5 382.5,-418.5 382.5,-418.5 382.5,-282.5 382.5,-237.05 355.87,-188.35 341.09,-164.84"/>
<polygon fill="midnightblue" stroke="midnightblue" points="505.9,-536.66 516.49,-536.43 508.07,-530 505.9,-536.66"/>
</g>
<!-- Node7 -->
<g id="node7" class="node">
<title>Node7</title>
<g id="a_node7"><a xlink:href="intervention__scenario_8h.html" target="_top" xlink:title=" ">
<polygon fill="none" stroke="black" points="464,-134.5 464,-164.5 595,-164.5 595,-134.5 464,-134.5"/>
<text text-anchor="start" x="472" y="-152.5" font-family="Helvetica,sans-Serif" font-size="10.00">HealthGPS/intervention</text>
<text text-anchor="middle" x="529.5" y="-141.5" font-family="Helvetica,sans-Serif" font-size="10.00">_scenario.h</text>
</a>
</g>
</g>
<!-- Node1&#45;&gt;Node7 -->
<g id="edge6" class="edge">
<title>Node1&#45;&gt;Node7</title>
<path fill="none" stroke="midnightblue" d="M543.94,-526.43C538.32,-501.89 529.5,-457.23 529.5,-418.5 529.5,-418.5 529.5,-418.5 529.5,-282.5 529.5,-239.65 529.5,-188.97 529.5,-164.76"/>
<polygon fill="midnightblue" stroke="midnightblue" points="540.61,-527.56 546.32,-536.48 547.42,-525.94 540.61,-527.56"/>
</g>
<!-- Node20 -->
<g id="node20" class="node">
<title>Node20</title>
<g id="a_node20"><a xlink:href="configuration_8h.html" target="_top" xlink:title=" ">
<polygon fill="none" stroke="black" points="1067.5,-73 1067.5,-92 1253.5,-92 1253.5,-73 1067.5,-73"/>
<text text-anchor="middle" x="1160.5" y="-80" font-family="Helvetica,sans-Serif" font-size="10.00">HealthGPS.Console/configuration.h</text>
</a>
</g>
</g>
<!-- Node1&#45;&gt;Node20 -->
<g id="edge64" class="edge">
<title>Node1&#45;&gt;Node20</title>
<path fill="none" stroke="midnightblue" d="M553.06,-526.43C558.68,-501.89 567.5,-457.23 567.5,-418.5 567.5,-418.5 567.5,-418.5 567.5,-282.5 567.5,-245.31 559.85,-226.94 586.5,-201 623.43,-165.06 961.5,-112.4 1100.86,-92.01"/>
<polygon fill="midnightblue" stroke="midnightblue" points="549.58,-525.94 550.68,-536.48 556.39,-527.56 549.58,-525.94"/>
</g>
<!-- Node21 -->
<g id="node21" class="node">
<title>Node21</title>
<g id="a_node21"><a xlink:href="simulation__definition_8h.html" target="_top" xlink:title=" ">
<polygon fill="none" stroke="black" points="1776,-469.5 1776,-499.5 1899,-499.5 1899,-469.5 1776,-469.5"/>
<text text-anchor="start" x="1784" y="-487.5" font-family="Helvetica,sans-Serif" font-size="10.00">HealthGPS/simulation</text>
<text text-anchor="middle" x="1837.5" y="-476.5" font-family="Helvetica,sans-Serif" font-size="10.00">_definition.h</text>
</a>
</g>
</g>
<!-- Node1&#45;&gt;Node21 -->
<g id="edge29" class="edge">
<title>Node1&#45;&gt;Node21</title>
<path fill="none" stroke="midnightblue" d="M620.01,-541.7C848.96,-531.13 1561.39,-498.25 1775.82,-488.35"/>
<polygon fill="midnightblue" stroke="midnightblue" points="619.63,-538.21 609.8,-542.17 619.95,-545.21 619.63,-538.21"/>
</g>
<!-- Node3 -->
<g id="node3" class="node">
<title>Node3</title>
<g id="a_node3"><a xlink:href="HealthGPS_2api_8h.html" target="_top" xlink:title=" ">
<polygon fill="none" stroke="black" points="1272,-73 1272,-92 1367,-92 1367,-73 1272,-73"/>
<text text-anchor="middle" x="1319.5" y="-80" font-family="Helvetica,sans-Serif" font-size="10.00">HealthGPS/api.h</text>
</a>
</g>
</g>
<!-- Node2&#45;&gt;Node3 -->
<g id="edge2" class="edge">
<title>Node2&#45;&gt;Node3</title>
<path fill="none" stroke="midnightblue" d="M398.03,-139.76C416.31,-137.6 436.15,-135.49 454.5,-134 812.79,-104.94 906.9,-150.59 1262.5,-98 1271.79,-96.63 1281.77,-94.37 1290.74,-92.04"/>
<polygon fill="midnightblue" stroke="midnightblue" points="397.57,-136.29 388.06,-140.96 398.4,-143.24 397.57,-136.29"/>
</g>
<!-- Node5 -->
<g id="node5" class="node">
<title>Node5</title>
<g id="a_node5"><a xlink:href="baseline__scenario_8cpp.html" target="_top" xlink:title=" ">
<polygon fill="none" stroke="black" points="0,-67.5 0,-97.5 113,-97.5 113,-67.5 0,-67.5"/>
<text text-anchor="start" x="8" y="-85.5" font-family="Helvetica,sans-Serif" font-size="10.00">HealthGPS/baseline</text>
<text text-anchor="middle" x="56.5" y="-74.5" font-family="Helvetica,sans-Serif" font-size="10.00">_scenario.cpp</text>
</a>
</g>
</g>
<!-- Node2&#45;&gt;Node5 -->
<g id="edge4" class="edge">
<title>Node2&#45;&gt;Node5</title>
<path fill="none" stroke="midnightblue" d="M264.88,-132.75C218.44,-121.78 157.15,-107.29 113.07,-96.87"/>
<polygon fill="midnightblue" stroke="midnightblue" points="264.32,-136.22 274.85,-135.11 265.93,-129.4 264.32,-136.22"/>
</g>
<!-- Node6 -->
<g id="node6" class="node">
<title>Node6</title>
<g id="a_node6"><a xlink:href="configuration_8cpp.html" target="_top" xlink:title=" ">
<polygon fill="none" stroke="black" points="460,-6 460,-25 657,-25 657,-6 460,-6"/>
<text text-anchor="middle" x="558.5" y="-13" font-family="Helvetica,sans-Serif" font-size="10.00">HealthGPS.Console/configuration.cpp</text>
</a>
</g>
</g>
<!-- Node2&#45;&gt;Node6 -->
<g id="edge5" class="edge">
<title>Node2&#45;&gt;Node6</title>
<path fill="none" stroke="midnightblue" d="M308.72,-126.87C293.1,-109.42 277.67,-84.92 292.5,-67 299.25,-58.84 428.37,-37.14 504.19,-25.01"/>
<polygon fill="midnightblue" stroke="midnightblue" points="306.38,-129.49 315.8,-134.34 311.46,-124.68 306.38,-129.49"/>
</g>
<!-- Node4 -->
<g id="node4" class="node">
<title>Node4</title>
<g id="a_node4"><a xlink:href="program_8cpp.html" target="_top" xlink:title=" ">
<polygon fill="none" stroke="black" points="1203,-6 1203,-25 1378,-25 1378,-6 1203,-6"/>
<text text-anchor="middle" x="1290.5" y="-13" font-family="Helvetica,sans-Serif" font-size="10.00">HealthGPS.Console/program.cpp</text>
</a>
</g>
</g>
<!-- Node3&#45;&gt;Node4 -->
<g id="edge3" class="edge">
<title>Node3&#45;&gt;Node4</title>
<path fill="none" stroke="midnightblue" d="M1311.38,-63.29C1305.81,-50.81 1298.67,-34.81 1294.35,-25.13"/>
<polygon fill="midnightblue" stroke="midnightblue" points="1308.32,-65.03 1315.59,-72.73 1314.71,-62.18 1308.32,-65.03"/>
</g>
<!-- Node7&#45;&gt;Node3 -->
<g id="edge7" class="edge">
<title>Node7&#45;&gt;Node3</title>
<path fill="none" stroke="midnightblue" d="M605.29,-147.77C738.88,-145.48 1024.67,-136.12 1262.5,-98 1271.57,-96.55 1281.31,-94.32 1290.13,-92.05"/>
<polygon fill="midnightblue" stroke="midnightblue" points="605.1,-144.27 595.16,-147.93 605.21,-151.27 605.1,-144.27"/>
</g>
<!-- Node8 -->
<g id="node8" class="node">
<title>Node8</title>
<g id="a_node8"><a xlink:href="fiscal__scenario_8h.html" target="_top" xlink:title=" ">
<polygon fill="none" stroke="black" points="757.5,-73 757.5,-92 909.5,-92 909.5,-73 757.5,-73"/>
<text text-anchor="middle" x="833.5" y="-80" font-family="Helvetica,sans-Serif" font-size="10.00">HealthGPS/fiscal_scenario.h</text>
</a>
</g>
</g>
<!-- Node7&#45;&gt;Node8 -->
<g id="edge8" class="edge">
<title>Node7&#45;&gt;Node8</title>
<path fill="none" stroke="midnightblue" d="M605.23,-132.31C664.96,-119.54 745.89,-102.23 793.61,-92.03"/>
<polygon fill="midnightblue" stroke="midnightblue" points="604.14,-128.96 595.09,-134.48 605.6,-135.81 604.14,-128.96"/>
</g>
<!-- Node10 -->
<g id="node10" class="node">
<title>Node10</title>
<g id="a_node10"><a xlink:href="food__labelling__scenario_8h.html" target="_top" xlink:title=" ">
<polygon fill="none" stroke="black" points="459.5,-67.5 459.5,-97.5 599.5,-97.5 599.5,-67.5 459.5,-67.5"/>
<text text-anchor="start" x="467.5" y="-85.5" font-family="Helvetica,sans-Serif" font-size="10.00">HealthGPS/food_labelling</text>
<text text-anchor="middle" x="529.5" y="-74.5" font-family="Helvetica,sans-Serif" font-size="10.00">_scenario.h</text>
</a>
</g>
</g>
<!-- Node7&#45;&gt;Node10 -->
<g id="edge11" class="edge">
<title>Node7&#45;&gt;Node10</title>
<path fill="none" stroke="midnightblue" d="M529.5,-124.11C529.5,-115.15 529.5,-105.32 529.5,-97.58"/>
<polygon fill="midnightblue" stroke="midnightblue" points="526,-124.4 529.5,-134.4 533,-124.4 526,-124.4"/>
</g>
<!-- Node12 -->
<g id="node12" class="node">
<title>Node12</title>
<g id="a_node12"><a xlink:href="marketing__dynamic__scenario_8h.html" target="_top" xlink:title=" ">
<polygon fill="none" stroke="black" points="618,-67.5 618,-97.5 739,-97.5 739,-67.5 618,-67.5"/>
<text text-anchor="start" x="626" y="-85.5" font-family="Helvetica,sans-Serif" font-size="10.00">HealthGPS/marketing</text>
<text text-anchor="middle" x="678.5" y="-74.5" font-family="Helvetica,sans-Serif" font-size="10.00">_dynamic_scenario.h</text>
</a>
</g>
</g>
<!-- Node7&#45;&gt;Node12 -->
<g id="edge14" class="edge">
<title>Node7&#45;&gt;Node12</title>
<path fill="none" stroke="midnightblue" d="M571.29,-130.27C595.02,-119.92 624.28,-107.15 646.23,-97.58"/>
<polygon fill="midnightblue" stroke="midnightblue" points="569.6,-127.19 561.83,-134.4 572.4,-133.61 569.6,-127.19"/>
</g>
<!-- Node14 -->
<g id="node14" class="node">
<title>Node14</title>
<g id="a_node14"><a xlink:href="marketing__scenario_8h.html" target="_top" xlink:title=" ">
<polygon fill="none" stroke="black" points="928,-67.5 928,-97.5 1049,-97.5 1049,-67.5 928,-67.5"/>
<text text-anchor="start" x="936" y="-85.5" font-family="Helvetica,sans-Serif" font-size="10.00">HealthGPS/marketing</text>
<text text-anchor="middle" x="988.5" y="-74.5" font-family="Helvetica,sans-Serif" font-size="10.00">_scenario.h</text>
</a>
</g>
</g>
<!-- Node7&#45;&gt;Node14 -->
<g id="edge17" class="edge">
<title>Node7&#45;&gt;Node14</title>
<path fill="none" stroke="midnightblue" d="M605.58,-134.59C606.9,-134.39 608.2,-134.19 609.5,-134 746.26,-113.66 782.01,-120.04 918.5,-98 921.56,-97.51 924.7,-96.97 927.85,-96.4"/>
<polygon fill="midnightblue" stroke="midnightblue" points="604.69,-131.19 595.37,-136.22 605.79,-138.1 604.69,-131.19"/>
</g>
<!-- Node16 -->
<g id="node16" class="node">
<title>Node16</title>
<g id="a_node16"><a xlink:href="physical__activity__scenario_8h.html" target="_top" xlink:title=" ">
<polygon fill="none" stroke="black" points="131.5,-67.5 131.5,-97.5 245.5,-97.5 245.5,-67.5 131.5,-67.5"/>
<text text-anchor="start" x="139.5" y="-85.5" font-family="Helvetica,sans-Serif" font-size="10.00">HealthGPS/physical</text>
<text text-anchor="middle" x="188.5" y="-74.5" font-family="Helvetica,sans-Serif" font-size="10.00">_activity_scenario.h</text>
</a>
</g>
</g>
<!-- Node7&#45;&gt;Node16 -->
<g id="edge20" class="edge">
<title>Node7&#45;&gt;Node16</title>
<path fill="none" stroke="midnightblue" d="M453.88,-134.08C390.93,-122.09 302.69,-105.27 245.55,-94.37"/>
<polygon fill="midnightblue" stroke="midnightblue" points="453.27,-137.53 463.75,-135.97 454.58,-130.66 453.27,-137.53"/>
</g>
<!-- Node18 -->
<g id="node18" class="node">
<title>Node18</title>
<g id="a_node18"><a xlink:href="simple__policy__scenario_8h.html" target="_top" xlink:title=" ">
<polygon fill="none" stroke="black" points="302,-67.5 302,-97.5 441,-97.5 441,-67.5 302,-67.5"/>
<text text-anchor="start" x="310" y="-85.5" font-family="Helvetica,sans-Serif" font-size="10.00">HealthGPS/simple_policy</text>
<text text-anchor="middle" x="371.5" y="-74.5" font-family="Helvetica,sans-Serif" font-size="10.00">_scenario.h</text>
</a>
</g>
</g>
<!-- Node7&#45;&gt;Node18 -->
<g id="edge23" class="edge">
<title>Node7&#45;&gt;Node18</title>
<path fill="none" stroke="midnightblue" d="M485.85,-130.54C460.57,-120.14 429.2,-107.24 405.72,-97.58"/>
<polygon fill="midnightblue" stroke="midnightblue" points="484.64,-133.83 495.22,-134.4 487.3,-127.35 484.64,-133.83"/>
</g>
<!-- Node7&#45;&gt;Node20 -->
<g id="edge26" class="edge">
<title>Node7&#45;&gt;Node20</title>
<path fill="none" stroke="midnightblue" d="M605.57,-134.53C606.89,-134.35 608.2,-134.17 609.5,-134 807.57,-108.16 858.95,-119.93 1057.5,-98 1072.76,-96.31 1089.24,-94.15 1104.45,-92.01"/>
<polygon fill="midnightblue" stroke="midnightblue" points="604.72,-131.12 595.34,-136.03 605.74,-138.04 604.72,-131.12"/>
</g>
<!-- Node8&#45;&gt;Node6 -->
<g id="edge10" class="edge">
<title>Node8&#45;&gt;Node6</title>
<path fill="none" stroke="midnightblue" d="M787.23,-70.56C733.02,-57.75 644.32,-36.78 594.81,-25.08"/>
<polygon fill="midnightblue" stroke="midnightblue" points="786.73,-74.04 797.27,-72.94 788.34,-67.23 786.73,-74.04"/>
</g>
<!-- Node9 -->
<g id="node9" class="node">
<title>Node9</title>
<g id="a_node9"><a xlink:href="fiscal__scenario_8cpp.html" target="_top" xlink:title=" ">
<polygon fill="none" stroke="black" points="824.5,-6 824.5,-25 988.5,-25 988.5,-6 824.5,-6"/>
<text text-anchor="middle" x="906.5" y="-13" font-family="Helvetica,sans-Serif" font-size="10.00">HealthGPS/fiscal_scenario.cpp</text>
</a>
</g>
</g>
<!-- Node8&#45;&gt;Node9 -->
<g id="edge9" class="edge">
<title>Node8&#45;&gt;Node9</title>
<path fill="none" stroke="midnightblue" d="M851.07,-65.86C865.42,-53.08 885.17,-35.49 896.81,-25.13"/>
<polygon fill="midnightblue" stroke="midnightblue" points="848.49,-63.47 843.35,-72.73 853.14,-68.7 848.49,-63.47"/>
</g>
<!-- Node10&#45;&gt;Node6 -->
<g id="edge13" class="edge">
<title>Node10&#45;&gt;Node6</title>
<path fill="none" stroke="midnightblue" d="M540.01,-57.94C545.1,-46.54 550.9,-33.55 554.62,-25.19"/>
<polygon fill="midnightblue" stroke="midnightblue" points="536.67,-56.84 535.79,-67.4 543.06,-59.69 536.67,-56.84"/>
</g>
<!-- Node11 -->
<g id="node11" class="node">
<title>Node11</title>
<g id="a_node11"><a xlink:href="food__labelling__scenario_8cpp.html" target="_top" xlink:title=" ">
<polygon fill="none" stroke="black" points="301.5,-0.5 301.5,-30.5 441.5,-30.5 441.5,-0.5 301.5,-0.5"/>
<text text-anchor="start" x="309.5" y="-18.5" font-family="Helvetica,sans-Serif" font-size="10.00">HealthGPS/food_labelling</text>
<text text-anchor="middle" x="371.5" y="-7.5" font-family="Helvetica,sans-Serif" font-size="10.00">_scenario.cpp</text>
</a>
</g>
</g>
<!-- Node10&#45;&gt;Node11 -->
<g id="edge12" class="edge">
<title>Node10&#45;&gt;Node11</title>
<path fill="none" stroke="midnightblue" d="M485.85,-63.54C460.57,-53.14 429.2,-40.24 405.72,-30.58"/>
<polygon fill="midnightblue" stroke="midnightblue" points="484.64,-66.83 495.22,-67.4 487.3,-60.35 484.64,-66.83"/>
</g>
<!-- Node12&#45;&gt;Node6 -->
<g id="edge16" class="edge">
<title>Node12&#45;&gt;Node6</title>
<path fill="none" stroke="midnightblue" d="M643.37,-62.47C620.46,-50.06 591.68,-34.47 574.21,-25.01"/>
<polygon fill="midnightblue" stroke="midnightblue" points="642,-65.71 652.46,-67.4 645.34,-59.56 642,-65.71"/>
</g>
<!-- Node13 -->
<g id="node13" class="node">
<title>Node13</title>
<g id="a_node13"><a xlink:href="marketing__dynamic__scenario_8cpp.html" target="_top" xlink:title=" ">
<polygon fill="none" stroke="black" points="675,-0.5 675,-30.5 806,-30.5 806,-0.5 675,-0.5"/>
<text text-anchor="start" x="683" y="-18.5" font-family="Helvetica,sans-Serif" font-size="10.00">HealthGPS/marketing</text>
<text text-anchor="middle" x="740.5" y="-7.5" font-family="Helvetica,sans-Serif" font-size="10.00">_dynamic_scenario.cpp</text>
</a>
</g>
</g>
<!-- Node12&#45;&gt;Node13 -->
<g id="edge15" class="edge">
<title>Node12&#45;&gt;Node13</title>
<path fill="none" stroke="midnightblue" d="M698.98,-60.02C708.22,-50.34 718.87,-39.17 727.07,-30.58"/>
<polygon fill="midnightblue" stroke="midnightblue" points="696.32,-57.74 691.95,-67.4 701.39,-62.58 696.32,-57.74"/>
</g>
<!-- Node14&#45;&gt;Node6 -->
<g id="edge19" class="edge">
<title>Node14&#45;&gt;Node6</title>
<path fill="none" stroke="midnightblue" d="M917.89,-67.03C865.79,-58.71 709.27,-37.14 620.74,-25.01"/>
<polygon fill="midnightblue" stroke="midnightblue" points="917.4,-70.5 927.84,-68.68 918.55,-63.59 917.4,-70.5"/>
</g>
<!-- Node15 -->
<g id="node15" class="node">
<title>Node15</title>
<g id="a_node15"><a xlink:href="marketing__scenario_8cpp.html" target="_top" xlink:title=" ">
<polygon fill="none" stroke="black" points="1007,-0.5 1007,-30.5 1128,-30.5 1128,-0.5 1007,-0.5"/>
<text text-anchor="start" x="1015" y="-18.5" font-family="Helvetica,sans-Serif" font-size="10.00">HealthGPS/marketing</text>
<text text-anchor="middle" x="1067.5" y="-7.5" font-family="Helvetica,sans-Serif" font-size="10.00">_scenario.cpp</text>
</a>
</g>
</g>
<!-- Node14&#45;&gt;Node15 -->
<g id="edge18" class="edge">
<title>Node14&#45;&gt;Node15</title>
<path fill="none" stroke="midnightblue" d="M1013.56,-60.88C1025.56,-51.01 1039.63,-39.43 1050.39,-30.58"/>
<polygon fill="midnightblue" stroke="midnightblue" points="1011.14,-58.34 1005.64,-67.4 1015.59,-63.75 1011.14,-58.34"/>
</g>
<!-- Node16&#45;&gt;Node6 -->
<g id="edge22" class="edge">
<title>Node16&#45;&gt;Node6</title>
<path fill="none" stroke="midnightblue" d="M255.71,-67.71C256.98,-67.47 258.25,-67.23 259.5,-67 345.02,-51.05 444.72,-34.65 504.66,-25.03"/>
<polygon fill="midnightblue" stroke="midnightblue" points="254.98,-64.29 245.82,-69.62 256.3,-71.16 254.98,-64.29"/>
</g>
<!-- Node17 -->
<g id="node17" class="node">
<title>Node17</title>
<g id="a_node17"><a xlink:href="physical__activity__scenario_8cpp.html" target="_top" xlink:title=" ">
<polygon fill="none" stroke="black" points="1,-0.5 1,-30.5 126,-30.5 126,-0.5 1,-0.5"/>
<text text-anchor="start" x="9" y="-18.5" font-family="Helvetica,sans-Serif" font-size="10.00">HealthGPS/physical</text>
<text text-anchor="middle" x="63.5" y="-7.5" font-family="Helvetica,sans-Serif" font-size="10.00">_activity_scenario.cpp</text>
</a>
</g>
</g>
<!-- Node16&#45;&gt;Node17 -->
<g id="edge21" class="edge">
<title>Node16&#45;&gt;Node17</title>
<path fill="none" stroke="midnightblue" d="M152.37,-62.71C132.66,-52.46 108.66,-39.98 90.57,-30.58"/>
<polygon fill="midnightblue" stroke="midnightblue" points="150.89,-65.89 161.38,-67.4 154.12,-59.68 150.89,-65.89"/>
</g>
<!-- Node18&#45;&gt;Node6 -->
<g id="edge25" class="edge">
<title>Node18&#45;&gt;Node6</title>
<path fill="none" stroke="midnightblue" d="M421.54,-64.11C457.92,-51.46 505.59,-34.89 534.03,-25.01"/>
<polygon fill="midnightblue" stroke="midnightblue" points="420.37,-60.81 412.08,-67.4 422.67,-67.42 420.37,-60.81"/>
</g>
<!-- Node19 -->
<g id="node19" class="node">
<title>Node19</title>
<g id="a_node19"><a xlink:href="simple__policy__scenario_8cpp.html" target="_top" xlink:title=" ">
<polygon fill="none" stroke="black" points="144,-0.5 144,-30.5 283,-30.5 283,-0.5 144,-0.5"/>
<text text-anchor="start" x="152" y="-18.5" font-family="Helvetica,sans-Serif" font-size="10.00">HealthGPS/simple_policy</text>
<text text-anchor="middle" x="213.5" y="-7.5" font-family="Helvetica,sans-Serif" font-size="10.00">_scenario.cpp</text>
</a>
</g>
</g>
<!-- Node18&#45;&gt;Node19 -->
<g id="edge24" class="edge">
<title>Node18&#45;&gt;Node19</title>
<path fill="none" stroke="midnightblue" d="M327.85,-63.54C302.57,-53.14 271.2,-40.24 247.72,-30.58"/>
<polygon fill="midnightblue" stroke="midnightblue" points="326.64,-66.83 337.22,-67.4 329.3,-60.35 326.64,-66.83"/>
</g>
<!-- Node20&#45;&gt;Node4 -->
<g id="edge28" class="edge">
<title>Node20&#45;&gt;Node4</title>
<path fill="none" stroke="midnightblue" d="M1186.95,-68.27C1212.7,-55.4 1251.08,-36.21 1273.17,-25.17"/>
<polygon fill="midnightblue" stroke="midnightblue" points="1185.14,-65.27 1177.76,-72.87 1188.27,-71.53 1185.14,-65.27"/>
</g>
<!-- Node20&#45;&gt;Node6 -->
<g id="edge27" class="edge">
<title>Node20&#45;&gt;Node6</title>
<path fill="none" stroke="midnightblue" d="M1093.65,-71.61C1081.63,-69.97 1069.2,-68.36 1057.5,-67 883.71,-46.8 839.34,-50.75 665.5,-31 650.04,-29.24 633.36,-27.1 617.87,-25.01"/>
<polygon fill="midnightblue" stroke="midnightblue" points="1093.24,-75.09 1103.63,-72.99 1094.2,-68.15 1093.24,-75.09"/>
</g>
<!-- Node22 -->
<g id="node22" class="node">
<title>Node22</title>
<g id="a_node22"><a xlink:href="runtime__context_8h.html" target="_top" xlink:title=" ">
<polygon fill="none" stroke="black" points="1418,-408 1418,-427 1579,-427 1579,-408 1418,-408"/>
<text text-anchor="middle" x="1498.5" y="-415" font-family="Helvetica,sans-Serif" font-size="10.00">HealthGPS/runtime_context.h</text>
</a>
</g>
</g>
<!-- Node21&#45;&gt;Node22 -->
<g id="edge30" class="edge">
<title>Node21&#45;&gt;Node22</title>
<path fill="none" stroke="midnightblue" d="M1765.59,-469.71C1698.15,-456.78 1599.47,-437.86 1542.85,-427"/>
<polygon fill="midnightblue" stroke="midnightblue" points="1765.24,-473.21 1775.72,-471.65 1766.55,-466.33 1765.24,-473.21"/>
</g>
<!-- Node43 -->
<g id="node43" class="node">
<title>Node43</title>
<g id="a_node43"><a xlink:href="simulation_8h.html" target="_top" xlink:title=" ">
<polygon fill="none" stroke="black" points="2125.5,-207 2125.5,-226 2257.5,-226 2257.5,-207 2125.5,-207"/>
<text text-anchor="middle" x="2191.5" y="-214" font-family="Helvetica,sans-Serif" font-size="10.00">HealthGPS/simulation.h</text>
</a>
</g>
</g>
<!-- Node21&#45;&gt;Node43 -->
<g id="edge58" class="edge">
<title>Node21&#45;&gt;Node43</title>
<path fill="none" stroke="midnightblue" d="M1909.35,-472.89C1977,-459.31 2076.89,-429.45 2138.5,-366 2178.55,-324.76 2188.56,-251.25 2190.86,-226.17"/>
<polygon fill="midnightblue" stroke="midnightblue" points="1908.35,-469.52 1899.2,-474.86 1909.68,-476.39 1908.35,-469.52"/>
</g>
<!-- Node46 -->
<g id="node46" class="node">
<title>Node46</title>
<g id="a_node46"><a xlink:href="simulation__definition_8cpp.html" target="_top" xlink:title=" ">
<polygon fill="none" stroke="black" points="2206,-402.5 2206,-432.5 2329,-432.5 2329,-402.5 2206,-402.5"/>
<text text-anchor="start" x="2214" y="-420.5" font-family="Helvetica,sans-Serif" font-size="10.00">HealthGPS/simulation</text>
<text text-anchor="middle" x="2267.5" y="-409.5" font-family="Helvetica,sans-Serif" font-size="10.00">_definition.cpp</text>
</a>
</g>
</g>
<!-- Node21&#45;&gt;Node46 -->
<g id="edge63" class="edge">
<title>Node21&#45;&gt;Node46</title>
<path fill="none" stroke="midnightblue" d="M1909.29,-474.26C1980.91,-464.81 2094.03,-449.24 2191.5,-433 2196.14,-432.23 2200.93,-431.39 2205.74,-430.53"/>
<polygon fill="midnightblue" stroke="midnightblue" points="1908.49,-470.84 1899.03,-475.61 1909.4,-477.78 1908.49,-470.84"/>
</g>
<!-- Node23 -->
<g id="node23" class="node">
<title>Node23</title>
<g id="a_node23"><a xlink:href="analysis__module_8h.html" target="_top" xlink:title=" ">
<polygon fill="none" stroke="black" points="1509.5,-335.5 1509.5,-365.5 1621.5,-365.5 1621.5,-335.5 1509.5,-335.5"/>
<text text-anchor="start" x="1517.5" y="-353.5" font-family="Helvetica,sans-Serif" font-size="10.00">HealthGPS/analysis</text>
<text text-anchor="middle" x="1565.5" y="-342.5" font-family="Helvetica,sans-Serif" font-size="10.00">_module.h</text>
</a>
</g>
</g>
<!-- Node22&#45;&gt;Node23 -->
<g id="edge31" class="edge">
<title>Node22&#45;&gt;Node23</title>
<path fill="none" stroke="midnightblue" d="M1514.87,-400.62C1525.91,-389.91 1540.35,-375.9 1550.98,-365.59"/>
<polygon fill="midnightblue" stroke="midnightblue" points="1512.28,-398.26 1507.54,-407.73 1517.15,-403.28 1512.28,-398.26"/>
</g>
<!-- Node26 -->
<g id="node26" class="node">
<title>Node26</title>
<g id="a_node26"><a xlink:href="healthgps_8h.html" target="_top" xlink:title=" ">
<polygon fill="none" stroke="black" points="1369.5,-140 1369.5,-159 1497.5,-159 1497.5,-140 1369.5,-140"/>
<text text-anchor="middle" x="1433.5" y="-147" font-family="Helvetica,sans-Serif" font-size="10.00">HealthGPS/healthgps.h</text>
</a>
</g>
</g>
<!-- Node22&#45;&gt;Node26 -->
<g id="edge49" class="edge">
<title>Node22&#45;&gt;Node26</title>
<path fill="none" stroke="midnightblue" d="M1589.27,-415.79C1753.47,-413.55 2086.19,-404.29 2121.5,-366 2130.84,-355.87 2129.89,-345.93 2121.5,-335 2044.72,-234.92 1653.42,-177.18 1497.62,-157.86"/>
<polygon fill="midnightblue" stroke="midnightblue" points="1589.14,-412.29 1579.19,-415.92 1589.23,-419.29 1589.14,-412.29"/>
</g>
<!-- Node29 -->
<g id="node29" class="node">
<title>Node29</title>
<g id="a_node29"><a xlink:href="default__cancer__model_8cpp.html" target="_top" xlink:title=" ">
<polygon fill="none" stroke="black" points="1802,-335.5 1802,-365.5 1945,-365.5 1945,-335.5 1802,-335.5"/>
<text text-anchor="start" x="1810" y="-353.5" font-family="Helvetica,sans-Serif" font-size="10.00">HealthGPS/default_cancer</text>
<text text-anchor="middle" x="1873.5" y="-342.5" font-family="Helvetica,sans-Serif" font-size="10.00">_model.cpp</text>
</a>
</g>
</g>
<!-- Node22&#45;&gt;Node29 -->
<g id="edge40" class="edge">
<title>Node22&#45;&gt;Node29</title>
<path fill="none" stroke="midnightblue" d="M1558.68,-406.29C1618.12,-396.18 1711.61,-380.19 1792.5,-366 1795.6,-365.46 1798.76,-364.9 1801.95,-364.34"/>
<polygon fill="midnightblue" stroke="midnightblue" points="1557.99,-402.86 1548.72,-407.98 1559.16,-409.76 1557.99,-402.86"/>
</g>
<!-- Node30 -->
<g id="node30" class="node">
<title>Node30</title>
<g id="a_node30"><a xlink:href="default__disease__model_8cpp.html" target="_top" xlink:title=" ">
<polygon fill="none" stroke="black" points="1963,-335.5 1963,-365.5 2112,-365.5 2112,-335.5 1963,-335.5"/>
<text text-anchor="start" x="1971" y="-353.5" font-family="Helvetica,sans-Serif" font-size="10.00">HealthGPS/default_disease</text>
<text text-anchor="middle" x="2037.5" y="-342.5" font-family="Helvetica,sans-Serif" font-size="10.00">_model.cpp</text>
</a>
</g>
</g>
<!-- Node22&#45;&gt;Node30 -->
<g id="edge41" class="edge">
<title>Node22&#45;&gt;Node30</title>
<path fill="none" stroke="midnightblue" d="M1589.14,-408.15C1681.31,-399.26 1828.14,-384.02 1954.5,-366 1957.25,-365.61 1960.05,-365.19 1962.88,-364.76"/>
<polygon fill="midnightblue" stroke="midnightblue" points="1588.62,-404.68 1579,-409.12 1589.29,-411.65 1588.62,-404.68"/>
</g>
<!-- Node31 -->
<g id="node31" class="node">
<title>Node31</title>
<g id="a_node31"><a xlink:href="demographic_8h.html" target="_top" xlink:title=" ">
<polygon fill="none" stroke="black" points="1639.5,-341 1639.5,-360 1783.5,-360 1783.5,-341 1639.5,-341"/>
<text text-anchor="middle" x="1711.5" y="-348" font-family="Helvetica,sans-Serif" font-size="10.00">HealthGPS/demographic.h</text>
</a>
</g>
</g>
<!-- Node22&#45;&gt;Node31 -->
<g id="edge42" class="edge">
<title>Node22&#45;&gt;Node31</title>
<path fill="none" stroke="midnightblue" d="M1536.42,-404.93C1578.59,-392.06 1645.73,-371.57 1683.44,-360.06"/>
<polygon fill="midnightblue" stroke="midnightblue" points="1535.33,-401.6 1526.78,-407.87 1537.37,-408.3 1535.33,-401.6"/>
</g>
<!-- Node33 -->
<g id="node33" class="node">
<title>Node33</title>
<g id="a_node33"><a xlink:href="HealthGPS_2disease_8h.html" target="_top" xlink:title=" ">
<polygon fill="none" stroke="black" points="1045.5,-341 1045.5,-360 1163.5,-360 1163.5,-341 1045.5,-341"/>
<text text-anchor="middle" x="1104.5" y="-348" font-family="Helvetica,sans-Serif" font-size="10.00">HealthGPS/disease.h</text>
</a>
</g>
</g>
<!-- Node22&#45;&gt;Node33 -->
<g id="edge45" class="edge">
<title>Node22&#45;&gt;Node33</title>
<path fill="none" stroke="midnightblue" d="M1426.83,-406.58C1360.64,-397.14 1259.7,-382.04 1172.5,-366 1162.77,-364.21 1152.29,-362.08 1142.55,-360.01"/>
<polygon fill="midnightblue" stroke="midnightblue" points="1426.34,-410.05 1436.74,-407.99 1427.33,-403.12 1426.34,-410.05"/>
</g>
<!-- Node35 -->
<g id="node35" class="node">
<title>Node35</title>
<g id="a_node35"><a xlink:href="energy__balance__model_8cpp.html" target="_top" xlink:title=" ">
<polygon fill="none" stroke="black" points="732,-335.5 732,-365.5 881,-365.5 881,-335.5 732,-335.5"/>
<text text-anchor="start" x="740" y="-353.5" font-family="Helvetica,sans-Serif" font-size="10.00">HealthGPS/energy_balance</text>
<text text-anchor="middle" x="806.5" y="-342.5" font-family="Helvetica,sans-Serif" font-size="10.00">_model.cpp</text>
</a>
</g>
</g>
<!-- Node22&#45;&gt;Node35 -->
<g id="edge48" class="edge">
<title>Node22&#45;&gt;Node35</title>
<path fill="none" stroke="midnightblue" d="M1407.45,-411.45C1288.33,-404.26 1073.24,-389.32 890.5,-366 887.42,-365.61 884.27,-365.18 881.1,-364.73"/>
<polygon fill="midnightblue" stroke="midnightblue" points="1407.43,-414.95 1417.62,-412.05 1407.84,-407.96 1407.43,-414.95"/>
</g>
<!-- Node36 -->
<g id="node36" class="node">
<title>Node36</title>
<g id="a_node36"><a xlink:href="hierarchical__model__static_8cpp.html" target="_top" xlink:title=" ">
<polygon fill="none" stroke="black" points="899.5,-335.5 899.5,-365.5 1027.5,-365.5 1027.5,-335.5 899.5,-335.5"/>
<text text-anchor="start" x="907.5" y="-353.5" font-family="Helvetica,sans-Serif" font-size="10.00">HealthGPS/hierarchical</text>
<text text-anchor="middle" x="963.5" y="-342.5" font-family="Helvetica,sans-Serif" font-size="10.00">_model_static.cpp</text>
</a>
</g>
</g>
<!-- Node22&#45;&gt;Node36 -->
<g id="edge50" class="edge">
<title>Node22&#45;&gt;Node36</title>
<path fill="none" stroke="midnightblue" d="M1407.7,-408.93C1314.32,-400.6 1164.81,-385.72 1036.5,-366 1033.56,-365.55 1030.56,-365.06 1027.54,-364.55"/>
<polygon fill="midnightblue" stroke="midnightblue" points="1407.41,-412.42 1417.68,-409.82 1408.03,-405.45 1407.41,-412.42"/>
</g>
<!-- Node37 -->
<g id="node37" class="node">
<title>Node37</title>
<g id="a_node37"><a xlink:href="riskfactor__adjustment_8h.html" target="_top" xlink:title=" ">
<polygon fill="none" stroke="black" points="595.5,-335.5 595.5,-365.5 713.5,-365.5 713.5,-335.5 595.5,-335.5"/>
<text text-anchor="start" x="603.5" y="-353.5" font-family="Helvetica,sans-Serif" font-size="10.00">HealthGPS/riskfactor</text>
<text text-anchor="middle" x="654.5" y="-342.5" font-family="Helvetica,sans-Serif" font-size="10.00">_adjustment.h</text>
</a>
</g>
</g>
<!-- Node22&#45;&gt;Node37 -->
<g id="edge51" class="edge">
<title>Node22&#45;&gt;Node37</title>
<path fill="none" stroke="midnightblue" d="M1407.76,-414.86C1262.45,-411.27 968.84,-400.1 722.5,-366 719.63,-365.6 716.7,-365.15 713.75,-364.66"/>
<polygon fill="midnightblue" stroke="midnightblue" points="1407.88,-418.36 1417.96,-415.1 1408.05,-411.36 1407.88,-418.36"/>
</g>
<!-- Node41 -->
<g id="node41" class="node">
<title>Node41</title>
<g id="a_node41"><a xlink:href="runtime__context_8cpp.html" target="_top" xlink:title=" ">
<polygon fill="none" stroke="black" points="1181.5,-341 1181.5,-360 1353.5,-360 1353.5,-341 1181.5,-341"/>
<text text-anchor="middle" x="1267.5" y="-348" font-family="Helvetica,sans-Serif" font-size="10.00">HealthGPS/runtime_context.cpp</text>
</a>
</g>
</g>
<!-- Node22&#45;&gt;Node41 -->
<g id="edge56" class="edge">
<title>Node22&#45;&gt;Node41</title>
<path fill="none" stroke="midnightblue" d="M1457.95,-405.09C1412.26,-392.23 1339,-371.62 1297.93,-360.06"/>
<polygon fill="midnightblue" stroke="midnightblue" points="1457.25,-408.53 1467.82,-407.87 1459.15,-401.79 1457.25,-408.53"/>
</g>
<!-- Node42 -->
<g id="node42" class="node">
<title>Node42</title>
<g id="a_node42"><a xlink:href="ses__noise__module_8cpp.html" target="_top" xlink:title=" ">
<polygon fill="none" stroke="black" points="1372,-335.5 1372,-365.5 1491,-365.5 1491,-335.5 1372,-335.5"/>
<text text-anchor="start" x="1380" y="-353.5" font-family="Helvetica,sans-Serif" font-size="10.00">HealthGPS/ses_noise</text>
<text text-anchor="middle" x="1431.5" y="-342.5" font-family="Helvetica,sans-Serif" font-size="10.00">_module.cpp</text>
</a>
</g>
</g>
<!-- Node22&#45;&gt;Node42 -->
<g id="edge57" class="edge">
<title>Node22&#45;&gt;Node42</title>
<path fill="none" stroke="midnightblue" d="M1482.13,-400.62C1471.09,-389.91 1456.65,-375.9 1446.02,-365.59"/>
<polygon fill="midnightblue" stroke="midnightblue" points="1479.85,-403.28 1489.46,-407.73 1484.72,-398.26 1479.85,-403.28"/>
</g>
<!-- Node24 -->
<g id="node24" class="node">
<title>Node24</title>
<g id="a_node24"><a xlink:href="analysis__module_8cpp.html" target="_top" xlink:title=" ">
<polygon fill="none" stroke="black" points="1487.5,-268.5 1487.5,-298.5 1599.5,-298.5 1599.5,-268.5 1487.5,-268.5"/>
<text text-anchor="start" x="1495.5" y="-286.5" font-family="Helvetica,sans-Serif" font-size="10.00">HealthGPS/analysis</text>
<text text-anchor="middle" x="1543.5" y="-275.5" font-family="Helvetica,sans-Serif" font-size="10.00">_module.cpp</text>
</a>
</g>
</g>
<!-- Node23&#45;&gt;Node24 -->
<g id="edge32" class="edge">
<title>Node23&#45;&gt;Node24</title>
<path fill="none" stroke="midnightblue" d="M1557.44,-325.7C1554.36,-316.59 1550.94,-306.49 1548.26,-298.58"/>
<polygon fill="midnightblue" stroke="midnightblue" points="1554.21,-327.05 1560.73,-335.4 1560.84,-324.8 1554.21,-327.05"/>
</g>
<!-- Node25 -->
<g id="node25" class="node">
<title>Node25</title>
<g id="a_node25"><a xlink:href="simulation__module_8h.html" target="_top" xlink:title=" ">
<polygon fill="none" stroke="black" points="1269,-201.5 1269,-231.5 1392,-231.5 1392,-201.5 1269,-201.5"/>
<text text-anchor="start" x="1277" y="-219.5" font-family="Helvetica,sans-Serif" font-size="10.00">HealthGPS/simulation</text>
<text text-anchor="middle" x="1330.5" y="-208.5" font-family="Helvetica,sans-Serif" font-size="10.00">_module.h</text>
</a>
</g>
</g>
<!-- Node23&#45;&gt;Node25 -->
<g id="edge33" class="edge">
<title>Node23&#45;&gt;Node25</title>
<path fill="none" stroke="midnightblue" d="M1531.61,-330.47C1483.85,-303.64 1397.84,-255.32 1355.47,-231.52"/>
<polygon fill="midnightblue" stroke="midnightblue" points="1529.92,-333.53 1540.35,-335.37 1533.35,-327.42 1529.92,-333.53"/>
</g>
<!-- Node25&#45;&gt;Node3 -->
<g id="edge34" class="edge">
<title>Node25&#45;&gt;Node3</title>
<path fill="none" stroke="midnightblue" d="M1328.48,-191.32C1325.99,-161.38 1321.87,-111.91 1320.22,-92.1"/>
<polygon fill="midnightblue" stroke="midnightblue" points="1325,-191.7 1329.32,-201.37 1331.98,-191.12 1325,-191.7"/>
</g>
<!-- Node25&#45;&gt;Node26 -->
<g id="edge35" class="edge">
<title>Node25&#45;&gt;Node26</title>
<path fill="none" stroke="midnightblue" d="M1361.44,-195.97C1380.97,-183.65 1405.22,-168.35 1420.02,-159.01"/>
<polygon fill="midnightblue" stroke="midnightblue" points="1359.44,-193.1 1352.85,-201.4 1363.17,-199.02 1359.44,-193.1"/>
</g>
<!-- Node28 -->
<g id="node28" class="node">
<title>Node28</title>
<g id="a_node28"><a xlink:href="simulation__module_8cpp.html" target="_top" xlink:title=" ">
<polygon fill="none" stroke="black" points="1179,-134.5 1179,-164.5 1302,-164.5 1302,-134.5 1179,-134.5"/>
<text text-anchor="start" x="1187" y="-152.5" font-family="Helvetica,sans-Serif" font-size="10.00">HealthGPS/simulation</text>
<text text-anchor="middle" x="1240.5" y="-141.5" font-family="Helvetica,sans-Serif" font-size="10.00">_module.cpp</text>
</a>
</g>
</g>
<!-- Node25&#45;&gt;Node28 -->
<g id="edge39" class="edge">
<title>Node25&#45;&gt;Node28</title>
<path fill="none" stroke="midnightblue" d="M1302.74,-195.45C1288.89,-185.45 1272.48,-173.6 1259.99,-164.58"/>
<polygon fill="midnightblue" stroke="midnightblue" points="1300.82,-198.38 1310.97,-201.4 1304.91,-192.7 1300.82,-198.38"/>
</g>
<!-- Node26&#45;&gt;Node3 -->
<g id="edge36" class="edge">
<title>Node26&#45;&gt;Node3</title>
<path fill="none" stroke="midnightblue" d="M1409.15,-134.62C1386.56,-121.74 1353.66,-102.98 1334.63,-92.13"/>
<polygon fill="midnightblue" stroke="midnightblue" points="1407.7,-137.82 1418.13,-139.73 1411.17,-131.74 1407.7,-137.82"/>
</g>
<!-- Node26&#45;&gt;Node20 -->
<g id="edge38" class="edge">
<title>Node26&#45;&gt;Node20</title>
<path fill="none" stroke="midnightblue" d="M1387.57,-137.56C1333.75,-124.75 1245.7,-103.78 1196.55,-92.08"/>
<polygon fill="midnightblue" stroke="midnightblue" points="1386.99,-141.02 1397.53,-139.94 1388.61,-134.21 1386.99,-141.02"/>
</g>
<!-- Node27 -->
<g id="node27" class="node">
<title>Node27</title>
<g id="a_node27"><a xlink:href="healthgps_8cpp.html" target="_top" xlink:title=" ">
<polygon fill="none" stroke="black" points="1385.5,-73 1385.5,-92 1525.5,-92 1525.5,-73 1385.5,-73"/>
<text text-anchor="middle" x="1455.5" y="-80" font-family="Helvetica,sans-Serif" font-size="10.00">HealthGPS/healthgps.cpp</text>
</a>
</g>
</g>
<!-- Node26&#45;&gt;Node27 -->
<g id="edge37" class="edge">
<title>Node26&#45;&gt;Node27</title>
<path fill="none" stroke="midnightblue" d="M1439.79,-129.91C1444,-117.49 1449.33,-101.72 1452.58,-92.13"/>
<polygon fill="midnightblue" stroke="midnightblue" points="1436.36,-129.14 1436.47,-139.73 1442.99,-131.38 1436.36,-129.14"/>
</g>
<!-- Node31&#45;&gt;Node25 -->
<g id="edge44" class="edge">
<title>Node31&#45;&gt;Node25</title>
<path fill="none" stroke="midnightblue" d="M1691.74,-334.34C1678.81,-324.38 1661.58,-311.01 1646.5,-299 1629.45,-285.42 1628.29,-277.13 1608.5,-268 1538.78,-235.86 1450.41,-224.14 1392.25,-219.89"/>
<polygon fill="midnightblue" stroke="midnightblue" points="1689.87,-337.32 1699.93,-340.64 1694.14,-331.77 1689.87,-337.32"/>
</g>
<!-- Node32 -->
<g id="node32" class="node">
<title>Node32</title>
<g id="a_node32"><a xlink:href="demographic_8cpp.html" target="_top" xlink:title=" ">
<polygon fill="none" stroke="black" points="1656,-274 1656,-293 1811,-293 1811,-274 1656,-274"/>
<text text-anchor="middle" x="1733.5" y="-281" font-family="Helvetica,sans-Serif" font-size="10.00">HealthGPS/demographic.cpp</text>
</a>
</g>
</g>
<!-- Node31&#45;&gt;Node32 -->
<g id="edge43" class="edge">
<title>Node31&#45;&gt;Node32</title>
<path fill="none" stroke="midnightblue" d="M1717.79,-330.91C1722,-318.49 1727.33,-302.72 1730.58,-293.13"/>
<polygon fill="midnightblue" stroke="midnightblue" points="1714.36,-330.14 1714.47,-340.73 1720.99,-332.38 1714.36,-330.14"/>
</g>
<!-- Node33&#45;&gt;Node25 -->
<g id="edge47" class="edge">
<title>Node33&#45;&gt;Node25</title>
<path fill="none" stroke="midnightblue" d="M1103.61,-330.91C1103.79,-312.45 1107.08,-284.59 1123.5,-268 1143.7,-247.59 1215.53,-233.36 1268.94,-225.33"/>
<polygon fill="midnightblue" stroke="midnightblue" points="1100.11,-331.07 1103.81,-341 1107.11,-330.93 1100.11,-331.07"/>
</g>
<!-- Node34 -->
<g id="node34" class="node">
<title>Node34</title>
<g id="a_node34"><a xlink:href="disease_8cpp.html" target="_top" xlink:title=" ">
<polygon fill="none" stroke="black" points="1133,-274 1133,-293 1262,-293 1262,-274 1133,-274"/>
<text text-anchor="middle" x="1197.5" y="-281" font-family="Helvetica,sans-Serif" font-size="10.00">HealthGPS/disease.cpp</text>
</a>
</g>
</g>
<!-- Node33&#45;&gt;Node34 -->
<g id="edge46" class="edge">
<title>Node33&#45;&gt;Node34</title>
<path fill="none" stroke="midnightblue" d="M1125.36,-334.92C1143.75,-322.07 1169.91,-303.78 1185.16,-293.13"/>
<polygon fill="midnightblue" stroke="midnightblue" points="1123.23,-332.14 1117.04,-340.73 1127.24,-337.87 1123.23,-332.14"/>
</g>
<!-- Node38 -->
<g id="node38" class="node">
<title>Node38</title>
<g id="a_node38"><a xlink:href="riskfactor_8h.html" target="_top" xlink:title=" ">
<polygon fill="none" stroke="black" points="598.5,-274 598.5,-293 724.5,-293 724.5,-274 598.5,-274"/>
<text text-anchor="middle" x="661.5" y="-281" font-family="Helvetica,sans-Serif" font-size="10.00">HealthGPS/riskfactor.h</text>
</a>
</g>
</g>
<!-- Node37&#45;&gt;Node38 -->
<g id="edge52" class="edge">
<title>Node37&#45;&gt;Node38</title>
<path fill="none" stroke="midnightblue" d="M657.11,-325.25C658.32,-314.02 659.68,-301.38 660.56,-293.19"/>
<polygon fill="midnightblue" stroke="midnightblue" points="653.61,-325.08 656.02,-335.4 660.57,-325.83 653.61,-325.08"/>
</g>
<!-- Node40 -->
<g id="node40" class="node">
<title>Node40</title>
<g id="a_node40"><a xlink:href="riskfactor__adjustment_8cpp.html" target="_top" xlink:title=" ">
<polygon fill="none" stroke="black" points="742.5,-268.5 742.5,-298.5 860.5,-298.5 860.5,-268.5 742.5,-268.5"/>
<text text-anchor="start" x="750.5" y="-286.5" font-family="Helvetica,sans-Serif" font-size="10.00">HealthGPS/riskfactor</text>
<text text-anchor="middle" x="801.5" y="-275.5" font-family="Helvetica,sans-Serif" font-size="10.00">_adjustment.cpp</text>
</a>
</g>
</g>
<!-- Node37&#45;&gt;Node40 -->
<g id="edge55" class="edge">
<title>Node37&#45;&gt;Node40</title>
<path fill="none" stroke="midnightblue" d="M695.73,-331.27C719.14,-320.92 748.01,-308.15 769.67,-298.58"/>
<polygon fill="midnightblue" stroke="midnightblue" points="694.13,-328.15 686.4,-335.4 696.96,-334.55 694.13,-328.15"/>
</g>
<!-- Node38&#45;&gt;Node25 -->
<g id="edge54" class="edge">
<title>Node38&#45;&gt;Node25</title>
<path fill="none" stroke="midnightblue" d="M709.71,-272C717.64,-270.5 725.78,-269.1 733.5,-268 927.87,-240.3 1160.16,-225.99 1268.79,-220.39"/>
<polygon fill="midnightblue" stroke="midnightblue" points="708.99,-268.58 699.85,-273.93 710.33,-275.45 708.99,-268.58"/>
</g>
<!-- Node39 -->
<g id="node39" class="node">
<title>Node39</title>
<g id="a_node39"><a xlink:href="riskfactor_8cpp.html" target="_top" xlink:title=" ">
<polygon fill="none" stroke="black" points="596,-207 596,-226 733,-226 733,-207 596,-207"/>
<text text-anchor="middle" x="664.5" y="-214" font-family="Helvetica,sans-Serif" font-size="10.00">HealthGPS/riskfactor.cpp</text>
</a>
</g>
</g>
<!-- Node38&#45;&gt;Node39 -->
<g id="edge53" class="edge">
<title>Node38&#45;&gt;Node39</title>
<path fill="none" stroke="midnightblue" d="M662.38,-263.54C662.95,-251.17 663.66,-235.62 664.1,-226.13"/>
<polygon fill="midnightblue" stroke="midnightblue" points="658.87,-263.58 661.9,-273.73 665.86,-263.91 658.87,-263.58"/>
</g>
<!-- Node43&#45;&gt;Node26 -->
<g id="edge59" class="edge">
<title>Node43&#45;&gt;Node26</title>
<path fill="none" stroke="midnightblue" d="M2139.39,-205.24C2130.13,-203.65 2120.55,-202.15 2111.5,-201 1886.99,-172.37 1618.42,-158.3 1497.76,-153.04"/>
<polygon fill="midnightblue" stroke="midnightblue" points="2138.82,-208.69 2149.28,-206.99 2140.04,-201.8 2138.82,-208.69"/>
</g>
<!-- Node44 -->
<g id="node44" class="node">
<title>Node44</title>
<g id="a_node44"><a xlink:href="modelrunner_8h.html" target="_top" xlink:title=" ">
<polygon fill="none" stroke="black" points="1835.5,-140 1835.5,-159 1977.5,-159 1977.5,-140 1835.5,-140"/>
<text text-anchor="middle" x="1906.5" y="-147" font-family="Helvetica,sans-Serif" font-size="10.00">HealthGPS/modelrunner.h</text>
</a>
</g>
</g>
<!-- Node43&#45;&gt;Node44 -->
<g id="edge60" class="edge">
<title>Node43&#45;&gt;Node44</title>
<path fill="none" stroke="midnightblue" d="M2143.9,-204.64C2087.75,-191.84 1995.55,-170.81 1944.14,-159.08"/>
<polygon fill="midnightblue" stroke="midnightblue" points="2143.42,-208.12 2153.95,-206.94 2144.98,-201.3 2143.42,-208.12"/>
</g>
<!-- Node44&#45;&gt;Node3 -->
<g id="edge61" class="edge">
<title>Node44&#45;&gt;Node3</title>
<path fill="none" stroke="midnightblue" d="M1825.15,-144.65C1720.68,-138.81 1534.03,-125.37 1376.5,-98 1367.65,-96.46 1358.15,-94.27 1349.49,-92.05"/>
<polygon fill="midnightblue" stroke="midnightblue" points="1825.13,-148.15 1835.31,-145.21 1825.52,-141.16 1825.13,-148.15"/>
</g>
<!-- Node45 -->
<g id="node45" class="node">
<title>Node45</title>
<g id="a_node45"><a xlink:href="modelrunner_8cpp.html" target="_top" xlink:title=" ">
<polygon fill="none" stroke="black" points="1830,-73 1830,-92 1983,-92 1983,-73 1830,-73"/>
<text text-anchor="middle" x="1906.5" y="-80" font-family="Helvetica,sans-Serif" font-size="10.00">HealthGPS/modelrunner.cpp</text>
</a>
</g>
</g>
<!-- Node44&#45;&gt;Node45 -->
<g id="edge62" class="edge">
<title>Node44&#45;&gt;Node45</title>
<path fill="none" stroke="midnightblue" d="M1906.5,-129.54C1906.5,-117.17 1906.5,-101.62 1906.5,-92.13"/>
<polygon fill="midnightblue" stroke="midnightblue" points="1903,-129.73 1906.5,-139.73 1910,-129.73 1903,-129.73"/>
</g>
</g>
</svg>
