<?xml version="1.0" encoding="UTF-8" standalone="no"?>
<!DOCTYPE svg PUBLIC "-//W3C//DTD SVG 1.1//EN"
 "http://www.w3.org/Graphics/SVG/1.1/DTD/svg11.dtd">
<!-- Generated by graphviz version 7.0.6 (20230106.0513)
 -->
<!-- Title: HealthGPS/scenario.h Pages: 1 -->
<svg width="2620pt" height="555pt"
 viewBox="0.00 0.00 2619.50 555.00" xmlns="http://www.w3.org/2000/svg" xmlns:xlink="http://www.w3.org/1999/xlink">
<g id="graph0" class="graph" transform="scale(1 1) rotate(0) translate(4 551)">
<title>HealthGPS/scenario.h</title>
<!-- Node1 -->
<g id="node1" class="node">
<title>Node1</title>
<g id="a_node1"><a xlink:title=" ">
<polygon fill="#999999" stroke="#666666" points="1322,-547 1209,-547 1209,-528 1322,-528 1322,-547"/>
<text text-anchor="middle" x="1265.5" y="-535" font-family="Helvetica,sans-Serif" font-size="10.00">HealthGPS/scenario.h</text>
</a>
</g>
</g>
<!-- Node2 -->
<g id="node2" class="node">
<title>Node2</title>
<g id="a_node2"><a xlink:href="configuration_8h.html" target="_top" xlink:title=" ">
<polygon fill="white" stroke="#666666" points="1031.5,-90.5 861.5,-90.5 861.5,-71.5 1031.5,-71.5 1031.5,-90.5"/>
<text text-anchor="middle" x="946.5" y="-78.5" font-family="Helvetica,sans-Serif" font-size="10.00">HealthGPS.Console/configuration.h</text>
</a>
</g>
</g>
<!-- Node1&#45;&gt;Node2 -->
<g id="edge1" class="edge">
<title>Node1&#45;&gt;Node2</title>
<path fill="none" stroke="#63b8ff" d="M1206.26,-525.27C1116.28,-506.49 955.5,-465.46 955.5,-412 955.5,-412 955.5,-412 955.5,-212 955.5,-166.3 949.9,-111.78 947.53,-90.81"/>
<polygon fill="#63b8ff" stroke="#63b8ff" points="1205.42,-528.67 1215.92,-527.25 1206.83,-521.81 1205.42,-528.67"/>
</g>
<!-- Node5 -->
<g id="node5" class="node">
<title>Node5</title>
<g id="a_node5"><a xlink:href="baseline__scenario_8h.html" target="_top" xlink:title=" ">
<polygon fill="white" stroke="#666666" points="1611.5,-162 1507.5,-162 1507.5,-132 1611.5,-132 1611.5,-162"/>
<text text-anchor="start" x="1515.5" y="-150" font-family="Helvetica,sans-Serif" font-size="10.00">HealthGPS/baseline</text>
<text text-anchor="middle" x="1559.5" y="-139" font-family="Helvetica,sans-Serif" font-size="10.00">_scenario.h</text>
</a>
</g>
</g>
<!-- Node1&#45;&gt;Node5 -->
<g id="edge4" class="edge">
<title>Node1&#45;&gt;Node5</title>
<path fill="none" stroke="#63b8ff" d="M1333.82,-533.8C1607.71,-522.54 2611.5,-476.85 2611.5,-412 2611.5,-412 2611.5,-412 2611.5,-278 2611.5,-176.09 1823.94,-153.21 1611.67,-148.89"/>
<polygon fill="#63b8ff" stroke="#63b8ff" points="1333.84,-530.3 1323.99,-534.2 1334.12,-537.29 1333.84,-530.3"/>
</g>
<!-- Node8 -->
<g id="node8" class="node">
<title>Node8</title>
<g id="a_node8"><a xlink:href="intervention__scenario_8h.html" target="_top" xlink:title=" ">
<polygon fill="white" stroke="#666666" points="709,-162 592,-162 592,-132 709,-132 709,-162"/>
<text text-anchor="start" x="600" y="-150" font-family="Helvetica,sans-Serif" font-size="10.00">HealthGPS/intervention</text>
<text text-anchor="middle" x="650.5" y="-139" font-family="Helvetica,sans-Serif" font-size="10.00">_scenario.h</text>
</a>
</g>
</g>
<!-- Node1&#45;&gt;Node8 -->
<g id="edge9" class="edge">
<title>Node1&#45;&gt;Node8</title>
<path fill="none" stroke="#63b8ff" d="M1197.78,-532.92C1066.14,-524.09 788.5,-495.58 788.5,-412 788.5,-412 788.5,-412 788.5,-278 788.5,-221.22 725.84,-181.94 684.97,-162.35"/>
<polygon fill="#63b8ff" stroke="#63b8ff" points="1197.19,-536.39 1207.4,-533.54 1197.65,-529.4 1197.19,-536.39"/>
</g>
<!-- Node21 -->
<g id="node21" class="node">
<title>Node21</title>
<g id="a_node21"><a xlink:href="simulation__definition_8h.html" target="_top" xlink:title=" ">
<polygon fill="white" stroke="#666666" points="1540,-492 1427,-492 1427,-462 1540,-462 1540,-492"/>
<text text-anchor="start" x="1435" y="-480" font-family="Helvetica,sans-Serif" font-size="10.00">HealthGPS/simulation</text>
<text text-anchor="middle" x="1483.5" y="-469" font-family="Helvetica,sans-Serif" font-size="10.00">_definition.h</text>
</a>
</g>
</g>
<!-- Node1&#45;&gt;Node21 -->
<g id="edge30" class="edge">
<title>Node1&#45;&gt;Node21</title>
<path fill="none" stroke="#63b8ff" d="M1309.35,-524.73C1344.04,-515.42 1392.65,-502.38 1429.69,-492.44"/>
<polygon fill="#63b8ff" stroke="#63b8ff" points="1308.82,-521.25 1300.07,-527.22 1310.64,-528.01 1308.82,-521.25"/>
</g>
<!-- Node3 -->
<g id="node3" class="node">
<title>Node3</title>
<g id="a_node3"><a xlink:href="configuration_8cpp.html" target="_top" xlink:title=" ">
<polygon fill="white" stroke="#666666" points="756.5,-24.5 576.5,-24.5 576.5,-5.5 756.5,-5.5 756.5,-24.5"/>
<text text-anchor="middle" x="666.5" y="-12.5" font-family="Helvetica,sans-Serif" font-size="10.00">HealthGPS.Console/configuration.cpp</text>
</a>
</g>
</g>
<!-- Node2&#45;&gt;Node3 -->
<g id="edge2" class="edge">
<title>Node2&#45;&gt;Node3</title>
<path fill="none" stroke="#63b8ff" d="M896.1,-68.48C841.4,-55.98 755.22,-36.28 705.46,-24.91"/>
<polygon fill="#63b8ff" stroke="#63b8ff" points="895.27,-71.88 905.8,-70.7 896.83,-65.06 895.27,-71.88"/>
</g>
<!-- Node4 -->
<g id="node4" class="node">
<title>Node4</title>
<g id="a_node4"><a xlink:href="program_8cpp.html" target="_top" xlink:title=" ">
<polygon fill="white" stroke="#666666" points="1341,-24.5 1180,-24.5 1180,-5.5 1341,-5.5 1341,-24.5"/>
<text text-anchor="middle" x="1260.5" y="-12.5" font-family="Helvetica,sans-Serif" font-size="10.00">HealthGPS.Console/program.cpp</text>
</a>
</g>
</g>
<!-- Node2&#45;&gt;Node4 -->
<g id="edge3" class="edge">
<title>Node2&#45;&gt;Node4</title>
<path fill="none" stroke="#63b8ff" d="M1001.47,-68.8C1062.64,-56.33 1160.25,-36.43 1216.55,-24.96"/>
<polygon fill="#63b8ff" stroke="#63b8ff" points="1001.07,-65.3 991.97,-70.73 1002.47,-72.16 1001.07,-65.3"/>
</g>
<!-- Node5&#45;&gt;Node3 -->
<g id="edge5" class="edge">
<title>Node5&#45;&gt;Node3</title>
<path fill="none" stroke="#63b8ff" d="M1532.96,-124.88C1504.33,-102.31 1461.6,-69.29 1452.5,-66 1308.75,-13.98 917.67,-44.72 765.5,-30 751.94,-28.69 737.38,-26.86 723.72,-24.97"/>
<polygon fill="#63b8ff" stroke="#63b8ff" points="1530.5,-127.4 1540.51,-130.86 1534.84,-121.91 1530.5,-127.4"/>
</g>
<!-- Node6 -->
<g id="node6" class="node">
<title>Node6</title>
<g id="a_node6"><a xlink:href="_health_g_p_s_2api_8h.html" target="_top" xlink:title=" ">
<polygon fill="white" stroke="#666666" points="1444,-90.5 1355,-90.5 1355,-71.5 1444,-71.5 1444,-90.5"/>
<text text-anchor="middle" x="1399.5" y="-78.5" font-family="Helvetica,sans-Serif" font-size="10.00">HealthGPS/api.h</text>
</a>
</g>
</g>
<!-- Node5&#45;&gt;Node6 -->
<g id="edge6" class="edge">
<title>Node5&#45;&gt;Node6</title>
<path fill="none" stroke="#63b8ff" d="M1512.95,-127.38C1483.02,-115.41 1445.46,-100.38 1421.96,-90.99"/>
<polygon fill="#63b8ff" stroke="#63b8ff" points="1511.6,-130.61 1522.19,-131.08 1514.2,-124.11 1511.6,-130.61"/>
</g>
<!-- Node7 -->
<g id="node7" class="node">
<title>Node7</title>
<g id="a_node7"><a xlink:href="baseline__scenario_8cpp.html" target="_top" xlink:title=" ">
<polygon fill="white" stroke="#666666" points="1611.5,-96 1507.5,-96 1507.5,-66 1611.5,-66 1611.5,-96"/>
<text text-anchor="start" x="1515.5" y="-84" font-family="Helvetica,sans-Serif" font-size="10.00">HealthGPS/baseline</text>
<text text-anchor="middle" x="1559.5" y="-73" font-family="Helvetica,sans-Serif" font-size="10.00">_scenario.cpp</text>
</a>
</g>
</g>
<!-- Node5&#45;&gt;Node7 -->
<g id="edge8" class="edge">
<title>Node5&#45;&gt;Node7</title>
<path fill="none" stroke="#63b8ff" d="M1559.5,-120.39C1559.5,-112.13 1559.5,-103.28 1559.5,-96.16"/>
<polygon fill="#63b8ff" stroke="#63b8ff" points="1556,-120.28 1559.5,-130.28 1563,-120.28 1556,-120.28"/>
</g>
<!-- Node6&#45;&gt;Node4 -->
<g id="edge7" class="edge">
<title>Node6&#45;&gt;Node4</title>
<path fill="none" stroke="#63b8ff" d="M1370.04,-66.44C1342.78,-53.88 1303.03,-35.58 1279.66,-24.82"/>
<polygon fill="#63b8ff" stroke="#63b8ff" points="1368.25,-69.46 1378.8,-70.47 1371.18,-63.11 1368.25,-69.46"/>
</g>
<!-- Node8&#45;&gt;Node2 -->
<g id="edge10" class="edge">
<title>Node8&#45;&gt;Node2</title>
<path fill="none" stroke="#63b8ff" d="M720.5,-130.86C777.87,-118.46 857.14,-101.32 904.94,-90.99"/>
<polygon fill="#63b8ff" stroke="#63b8ff" points="719.85,-127.42 710.81,-132.96 721.33,-134.27 719.85,-127.42"/>
</g>
<!-- Node8&#45;&gt;Node6 -->
<g id="edge11" class="edge">
<title>Node8&#45;&gt;Node6</title>
<path fill="none" stroke="#63b8ff" d="M720.87,-145.15C846.92,-142.7 1119.19,-133.16 1345.5,-96 1353.15,-94.74 1361.29,-92.91 1368.87,-90.97"/>
<polygon fill="#63b8ff" stroke="#63b8ff" points="720.95,-141.65 711.01,-145.33 721.08,-148.65 720.95,-141.65"/>
</g>
<!-- Node9 -->
<g id="node9" class="node">
<title>Node9</title>
<g id="a_node9"><a xlink:href="fiscal__scenario_8h.html" target="_top" xlink:title=" ">
<polygon fill="white" stroke="#666666" points="569,-90.5 428,-90.5 428,-71.5 569,-71.5 569,-90.5"/>
<text text-anchor="middle" x="498.5" y="-78.5" font-family="Helvetica,sans-Serif" font-size="10.00">HealthGPS/fiscal_scenario.h</text>
</a>
</g>
</g>
<!-- Node8&#45;&gt;Node9 -->
<g id="edge12" class="edge">
<title>Node8&#45;&gt;Node9</title>
<path fill="none" stroke="#63b8ff" d="M605.9,-127.22C577.53,-115.27 542.06,-100.34 519.84,-90.99"/>
<polygon fill="#63b8ff" stroke="#63b8ff" points="604.42,-130.39 614.99,-131.05 607.14,-123.94 604.42,-130.39"/>
</g>
<!-- Node11 -->
<g id="node11" class="node">
<title>Node11</title>
<g id="a_node11"><a xlink:href="food__labelling__scenario_8h.html" target="_top" xlink:title=" ">
<polygon fill="white" stroke="#666666" points="714,-96 587,-96 587,-66 714,-66 714,-96"/>
<text text-anchor="start" x="595" y="-84" font-family="Helvetica,sans-Serif" font-size="10.00">HealthGPS/food_labelling</text>
<text text-anchor="middle" x="650.5" y="-73" font-family="Helvetica,sans-Serif" font-size="10.00">_scenario.h</text>
</a>
</g>
</g>
<!-- Node8&#45;&gt;Node11 -->
<g id="edge15" class="edge">
<title>Node8&#45;&gt;Node11</title>
<path fill="none" stroke="#63b8ff" d="M650.5,-120.39C650.5,-112.13 650.5,-103.28 650.5,-96.16"/>
<polygon fill="#63b8ff" stroke="#63b8ff" points="647,-120.28 650.5,-130.28 654,-120.28 647,-120.28"/>
</g>
<!-- Node13 -->
<g id="node13" class="node">
<title>Node13</title>
<g id="a_node13"><a xlink:href="marketing__dynamic__scenario_8h.html" target="_top" xlink:title=" ">
<polygon fill="white" stroke="#666666" points="843,-96 732,-96 732,-66 843,-66 843,-96"/>
<text text-anchor="start" x="740" y="-84" font-family="Helvetica,sans-Serif" font-size="10.00">HealthGPS/marketing</text>
<text text-anchor="middle" x="787.5" y="-73" font-family="Helvetica,sans-Serif" font-size="10.00">_dynamic_scenario.h</text>
</a>
</g>
</g>
<!-- Node8&#45;&gt;Node13 -->
<g id="edge18" class="edge">
<title>Node8&#45;&gt;Node13</title>
<path fill="none" stroke="#63b8ff" d="M691.48,-126.86C712.46,-117.05 737.58,-105.32 756.86,-96.31"/>
<polygon fill="#63b8ff" stroke="#63b8ff" points="690.2,-123.59 682.62,-131 693.16,-129.94 690.2,-123.59"/>
</g>
<!-- Node15 -->
<g id="node15" class="node">
<title>Node15</title>
<g id="a_node15"><a xlink:href="marketing__scenario_8h.html" target="_top" xlink:title=" ">
<polygon fill="white" stroke="#666666" points="141,-96 30,-96 30,-66 141,-66 141,-96"/>
<text text-anchor="start" x="38" y="-84" font-family="Helvetica,sans-Serif" font-size="10.00">HealthGPS/marketing</text>
<text text-anchor="middle" x="85.5" y="-73" font-family="Helvetica,sans-Serif" font-size="10.00">_scenario.h</text>
</a>
</g>
</g>
<!-- Node8&#45;&gt;Node15 -->
<g id="edge21" class="edge">
<title>Node8&#45;&gt;Node15</title>
<path fill="none" stroke="#63b8ff" d="M580.31,-141.48C483.28,-134.67 302.88,-119.95 150.5,-96 147.54,-95.53 144.5,-95.02 141.45,-94.47"/>
<polygon fill="#63b8ff" stroke="#63b8ff" points="580,-144.97 590.21,-142.17 580.48,-137.99 580,-144.97"/>
</g>
<!-- Node17 -->
<g id="node17" class="node">
<title>Node17</title>
<g id="a_node17"><a xlink:href="physical__activity__scenario_8h.html" target="_top" xlink:title=" ">
<polygon fill="white" stroke="#666666" points="263.5,-96 159.5,-96 159.5,-66 263.5,-66 263.5,-96"/>
<text text-anchor="start" x="167.5" y="-84" font-family="Helvetica,sans-Serif" font-size="10.00">HealthGPS/physical</text>
<text text-anchor="middle" x="211.5" y="-73" font-family="Helvetica,sans-Serif" font-size="10.00">_activity_scenario.h</text>
</a>
</g>
</g>
<!-- Node8&#45;&gt;Node17 -->
<g id="edge24" class="edge">
<title>Node8&#45;&gt;Node17</title>
<path fill="none" stroke="#63b8ff" d="M580.3,-138.71C504.18,-130.35 379.23,-115.26 272.5,-96 269.61,-95.48 266.66,-94.91 263.68,-94.31"/>
<polygon fill="#63b8ff" stroke="#63b8ff" points="579.81,-142.18 590.13,-139.79 580.56,-135.22 579.81,-142.18"/>
</g>
<!-- Node19 -->
<g id="node19" class="node">
<title>Node19</title>
<g id="a_node19"><a xlink:href="simple__policy__scenario_8h.html" target="_top" xlink:title=" ">
<polygon fill="white" stroke="#666666" points="409.5,-96 281.5,-96 281.5,-66 409.5,-66 409.5,-96"/>
<text text-anchor="start" x="289.5" y="-84" font-family="Helvetica,sans-Serif" font-size="10.00">HealthGPS/simple_policy</text>
<text text-anchor="middle" x="345.5" y="-73" font-family="Helvetica,sans-Serif" font-size="10.00">_scenario.h</text>
</a>
</g>
</g>
<!-- Node8&#45;&gt;Node19 -->
<g id="edge27" class="edge">
<title>Node8&#45;&gt;Node19</title>
<path fill="none" stroke="#63b8ff" d="M580.69,-131.35C529.31,-120.57 459.99,-106.02 409.93,-95.52"/>
<polygon fill="#63b8ff" stroke="#63b8ff" points="579.71,-134.72 590.21,-133.35 581.14,-127.87 579.71,-134.72"/>
</g>
<!-- Node9&#45;&gt;Node3 -->
<g id="edge13" class="edge">
<title>Node9&#45;&gt;Node3</title>
<path fill="none" stroke="#63b8ff" d="M532.34,-67.11C565.22,-54.58 614.28,-35.89 643.07,-24.93"/>
<polygon fill="#63b8ff" stroke="#63b8ff" points="531.37,-63.73 523.27,-70.56 533.86,-70.27 531.37,-63.73"/>
</g>
<!-- Node10 -->
<g id="node10" class="node">
<title>Node10</title>
<g id="a_node10"><a xlink:href="fiscal__scenario_8cpp.html" target="_top" xlink:title=" ">
<polygon fill="white" stroke="#666666" points="558.5,-24.5 406.5,-24.5 406.5,-5.5 558.5,-5.5 558.5,-24.5"/>
<text text-anchor="middle" x="482.5" y="-12.5" font-family="Helvetica,sans-Serif" font-size="10.00">HealthGPS/fiscal_scenario.cpp</text>
</a>
</g>
</g>
<!-- Node9&#45;&gt;Node10 -->
<g id="edge14" class="edge">
<title>Node9&#45;&gt;Node10</title>
<path fill="none" stroke="#63b8ff" d="M493.51,-60.05C490.56,-48.24 486.97,-33.87 484.71,-24.82"/>
<polygon fill="#63b8ff" stroke="#63b8ff" points="490.09,-60.78 495.91,-69.63 496.88,-59.08 490.09,-60.78"/>
</g>
<!-- Node11&#45;&gt;Node3 -->
<g id="edge16" class="edge">
<title>Node11&#45;&gt;Node3</title>
<path fill="none" stroke="#63b8ff" d="M656.77,-54.93C659.42,-44.31 662.35,-32.61 664.29,-24.84"/>
<polygon fill="#63b8ff" stroke="#63b8ff" points="653.45,-53.78 654.42,-64.33 660.24,-55.48 653.45,-53.78"/>
</g>
<!-- Node12 -->
<g id="node12" class="node">
<title>Node12</title>
<g id="a_node12"><a xlink:href="food__labelling__scenario_8cpp.html" target="_top" xlink:title=" ">
<polygon fill="white" stroke="#666666" points="902,-30 775,-30 775,0 902,0 902,-30"/>
<text text-anchor="start" x="783" y="-18" font-family="Helvetica,sans-Serif" font-size="10.00">HealthGPS/food_labelling</text>
<text text-anchor="middle" x="838.5" y="-7" font-family="Helvetica,sans-Serif" font-size="10.00">_scenario.cpp</text>
</a>
</g>
</g>
<!-- Node11&#45;&gt;Node12 -->
<g id="edge17" class="edge">
<title>Node11&#45;&gt;Node12</title>
<path fill="none" stroke="#63b8ff" d="M703.56,-61.94C732.85,-51.97 768.73,-39.75 796.13,-30.43"/>
<polygon fill="#63b8ff" stroke="#63b8ff" points="702.46,-58.61 694.12,-65.15 704.72,-65.24 702.46,-58.61"/>
</g>
<!-- Node13&#45;&gt;Node3 -->
<g id="edge19" class="edge">
<title>Node13&#45;&gt;Node3</title>
<path fill="none" stroke="#63b8ff" d="M750.2,-60.27C727.92,-48.49 700.71,-34.1 683.49,-24.99"/>
<polygon fill="#63b8ff" stroke="#63b8ff" points="748.53,-63.35 759.01,-64.93 751.8,-57.16 748.53,-63.35"/>
</g>
<!-- Node14 -->
<g id="node14" class="node">
<title>Node14</title>
<g id="a_node14"><a xlink:href="marketing__dynamic__scenario_8cpp.html" target="_top" xlink:title=" ">
<polygon fill="white" stroke="#666666" points="1039,-30 920,-30 920,0 1039,0 1039,-30"/>
<text text-anchor="start" x="928" y="-18" font-family="Helvetica,sans-Serif" font-size="10.00">HealthGPS/marketing</text>
<text text-anchor="middle" x="979.5" y="-7" font-family="Helvetica,sans-Serif" font-size="10.00">_dynamic_scenario.cpp</text>
</a>
</g>
</g>
<!-- Node13&#45;&gt;Node14 -->
<g id="edge20" class="edge">
<title>Node13&#45;&gt;Node14</title>
<path fill="none" stroke="#63b8ff" d="M841.3,-62.07C871.28,-52.07 908.12,-39.79 936.22,-30.43"/>
<polygon fill="#63b8ff" stroke="#63b8ff" points="840.4,-58.68 832.02,-65.16 842.62,-65.32 840.4,-58.68"/>
</g>
<!-- Node15&#45;&gt;Node3 -->
<g id="edge22" class="edge">
<title>Node15&#45;&gt;Node3</title>
<path fill="none" stroke="#63b8ff" d="M152.58,-65.82C336.39,-38.84 386.28,-50.62 567.5,-30 580.26,-28.55 593.92,-26.77 606.89,-24.96"/>
<polygon fill="#63b8ff" stroke="#63b8ff" points="152.31,-62.33 142.93,-67.26 153.34,-69.25 152.31,-62.33"/>
</g>
<!-- Node16 -->
<g id="node16" class="node">
<title>Node16</title>
<g id="a_node16"><a xlink:href="marketing__scenario_8cpp.html" target="_top" xlink:title=" ">
<polygon fill="white" stroke="#666666" points="111,-30 0,-30 0,0 111,0 111,-30"/>
<text text-anchor="start" x="8" y="-18" font-family="Helvetica,sans-Serif" font-size="10.00">HealthGPS/marketing</text>
<text text-anchor="middle" x="55.5" y="-7" font-family="Helvetica,sans-Serif" font-size="10.00">_scenario.cpp</text>
</a>
</g>
</g>
<!-- Node15&#45;&gt;Node16 -->
<g id="edge23" class="edge">
<title>Node15&#45;&gt;Node16</title>
<path fill="none" stroke="#63b8ff" d="M74.03,-55.54C70.01,-46.96 65.63,-37.61 62.14,-30.16"/>
<polygon fill="#63b8ff" stroke="#63b8ff" points="70.79,-56.86 78.2,-64.43 77.12,-53.89 70.79,-56.86"/>
</g>
<!-- Node17&#45;&gt;Node3 -->
<g id="edge25" class="edge">
<title>Node17&#45;&gt;Node3</title>
<path fill="none" stroke="#63b8ff" d="M274.84,-65.71C404.53,-43.4 440.13,-46.78 567.5,-30 579.37,-28.44 592.04,-26.7 604.21,-24.99"/>
<polygon fill="#63b8ff" stroke="#63b8ff" points="274.41,-62.23 265.16,-67.39 275.61,-69.12 274.41,-62.23"/>
</g>
<!-- Node18 -->
<g id="node18" class="node">
<title>Node18</title>
<g id="a_node18"><a xlink:href="physical__activity__scenario_8cpp.html" target="_top" xlink:title=" ">
<polygon fill="white" stroke="#666666" points="242,-30 129,-30 129,0 242,0 242,-30"/>
<text text-anchor="start" x="137" y="-18" font-family="Helvetica,sans-Serif" font-size="10.00">HealthGPS/physical</text>
<text text-anchor="middle" x="185.5" y="-7" font-family="Helvetica,sans-Serif" font-size="10.00">_activity_scenario.cpp</text>
</a>
</g>
</g>
<!-- Node17&#45;&gt;Node18 -->
<g id="edge26" class="edge">
<title>Node17&#45;&gt;Node18</title>
<path fill="none" stroke="#63b8ff" d="M201.45,-55.25C197.99,-46.75 194.25,-37.53 191.25,-30.16"/>
<polygon fill="#63b8ff" stroke="#63b8ff" points="198.15,-56.45 205.16,-64.39 204.64,-53.81 198.15,-56.45"/>
</g>
<!-- Node19&#45;&gt;Node3 -->
<g id="edge28" class="edge">
<title>Node19&#45;&gt;Node3</title>
<path fill="none" stroke="#63b8ff" d="M420.64,-65.02C482.96,-52.59 569.5,-35.34 621.54,-24.96"/>
<polygon fill="#63b8ff" stroke="#63b8ff" points="420.29,-61.52 411.17,-66.91 421.66,-68.38 420.29,-61.52"/>
</g>
<!-- Node20 -->
<g id="node20" class="node">
<title>Node20</title>
<g id="a_node20"><a xlink:href="simple__policy__scenario_8cpp.html" target="_top" xlink:title=" ">
<polygon fill="white" stroke="#666666" points="388.5,-30 260.5,-30 260.5,0 388.5,0 388.5,-30"/>
<text text-anchor="start" x="268.5" y="-18" font-family="Helvetica,sans-Serif" font-size="10.00">HealthGPS/simple_policy</text>
<text text-anchor="middle" x="324.5" y="-7" font-family="Helvetica,sans-Serif" font-size="10.00">_scenario.cpp</text>
</a>
</g>
</g>
<!-- Node19&#45;&gt;Node20 -->
<g id="edge29" class="edge">
<title>Node19&#45;&gt;Node20</title>
<path fill="none" stroke="#63b8ff" d="M337.29,-54.97C334.52,-46.55 331.54,-37.45 329.15,-30.16"/>
<polygon fill="#63b8ff" stroke="#63b8ff" points="333.92,-55.95 340.37,-64.36 340.58,-53.77 333.92,-55.95"/>
</g>
<!-- Node22 -->
<g id="node22" class="node">
<title>Node22</title>
<g id="a_node22"><a xlink:href="runtime__context_8h.html" target="_top" xlink:title=" ">
<polygon fill="white" stroke="#666666" points="1711.5,-420.5 1565.5,-420.5 1565.5,-401.5 1711.5,-401.5 1711.5,-420.5"/>
<text text-anchor="middle" x="1638.5" y="-408.5" font-family="Helvetica,sans-Serif" font-size="10.00">HealthGPS/runtime_context.h</text>
</a>
</g>
</g>
<!-- Node21&#45;&gt;Node22 -->
<g id="edge31" class="edge">
<title>Node21&#45;&gt;Node22</title>
<path fill="none" stroke="#63b8ff" d="M1528.6,-457.38C1557.59,-445.41 1593.98,-430.38 1616.74,-420.99"/>
<polygon fill="#63b8ff" stroke="#63b8ff" points="1527.59,-454.01 1519.68,-461.06 1530.26,-460.48 1527.59,-454.01"/>
</g>
<!-- Node43 -->
<g id="node43" class="node">
<title>Node43</title>
<g id="a_node43"><a xlink:href="simulation_8h.html" target="_top" xlink:title=" ">
<polygon fill="white" stroke="#666666" points="1143,-222.5 1022,-222.5 1022,-203.5 1143,-203.5 1143,-222.5"/>
<text text-anchor="middle" x="1082.5" y="-210.5" font-family="Helvetica,sans-Serif" font-size="10.00">HealthGPS/simulation.h</text>
</a>
</g>
</g>
<!-- Node21&#45;&gt;Node43 -->
<g id="edge59" class="edge">
<title>Node21&#45;&gt;Node43</title>
<path fill="none" stroke="#63b8ff" d="M1415.54,-469.01C1340.72,-457.97 1221.05,-429.97 1145.5,-360 1103.17,-320.8 1087.96,-248.29 1083.81,-222.99"/>
<polygon fill="#63b8ff" stroke="#63b8ff" points="1414.8,-472.44 1425.19,-470.37 1415.78,-465.51 1414.8,-472.44"/>
</g>
<!-- Node46 -->
<g id="node46" class="node">
<title>Node46</title>
<g id="a_node46"><a xlink:href="simulation__definition_8cpp.html" target="_top" xlink:title=" ">
<polygon fill="white" stroke="#666666" points="1843,-426 1730,-426 1730,-396 1843,-396 1843,-426"/>
<text text-anchor="start" x="1738" y="-414" font-family="Helvetica,sans-Serif" font-size="10.00">HealthGPS/simulation</text>
<text text-anchor="middle" x="1786.5" y="-403" font-family="Helvetica,sans-Serif" font-size="10.00">_definition.cpp</text>
</a>
</g>
</g>
<!-- Node21&#45;&gt;Node46 -->
<g id="edge64" class="edge">
<title>Node21&#45;&gt;Node46</title>
<path fill="none" stroke="#63b8ff" d="M1551.54,-461.67C1598.91,-451.68 1663.56,-438.05 1720.5,-426 1723.48,-425.37 1726.53,-424.72 1729.62,-424.07"/>
<polygon fill="#63b8ff" stroke="#63b8ff" points="1551.03,-458.2 1541.97,-463.68 1552.48,-465.05 1551.03,-458.2"/>
</g>
<!-- Node23 -->
<g id="node23" class="node">
<title>Node23</title>
<g id="a_node23"><a xlink:href="analysis__module_8h.html" target="_top" xlink:title=" ">
<polygon fill="white" stroke="#666666" points="1276.5,-360 1172.5,-360 1172.5,-330 1276.5,-330 1276.5,-360"/>
<text text-anchor="start" x="1180.5" y="-348" font-family="Helvetica,sans-Serif" font-size="10.00">HealthGPS/analysis</text>
<text text-anchor="middle" x="1224.5" y="-337" font-family="Helvetica,sans-Serif" font-size="10.00">_module.h</text>
</a>
</g>
</g>
<!-- Node22&#45;&gt;Node23 -->
<g id="edge32" class="edge">
<title>Node22&#45;&gt;Node23</title>
<path fill="none" stroke="#63b8ff" d="M1553.98,-400.08C1482.26,-391.17 1376.78,-376.91 1285.5,-360 1282.62,-359.47 1279.66,-358.89 1276.68,-358.28"/>
<polygon fill="#63b8ff" stroke="#63b8ff" points="1553.33,-403.52 1563.69,-401.27 1554.19,-396.58 1553.33,-403.52"/>
</g>
<!-- Node26 -->
<g id="node26" class="node">
<title>Node26</title>
<g id="a_node26"><a xlink:href="healthgps_8h.html" target="_top" xlink:title=" ">
<polygon fill="white" stroke="#666666" points="1319,-156.5 1200,-156.5 1200,-137.5 1319,-137.5 1319,-156.5"/>
<text text-anchor="middle" x="1259.5" y="-144.5" font-family="Helvetica,sans-Serif" font-size="10.00">HealthGPS/healthgps.h</text>
</a>
</g>
</g>
<!-- Node22&#45;&gt;Node26 -->
<g id="edge50" class="edge">
<title>Node22&#45;&gt;Node26</title>
<path fill="none" stroke="#63b8ff" d="M1553.63,-407.11C1424.04,-401.82 1189.06,-388.4 1163.5,-360 1104.84,-294.84 1214.6,-187.82 1249.41,-156.72"/>
<polygon fill="#63b8ff" stroke="#63b8ff" points="1553.42,-410.61 1563.56,-407.51 1553.7,-403.61 1553.42,-410.61"/>
</g>
<!-- Node29 -->
<g id="node29" class="node">
<title>Node29</title>
<g id="a_node29"><a xlink:href="default__cancer__model_8cpp.html" target="_top" xlink:title=" ">
<polygon fill="white" stroke="#666666" points="1704,-360 1573,-360 1573,-330 1704,-330 1704,-360"/>
<text text-anchor="start" x="1581" y="-348" font-family="Helvetica,sans-Serif" font-size="10.00">HealthGPS/default_cancer</text>
<text text-anchor="middle" x="1638.5" y="-337" font-family="Helvetica,sans-Serif" font-size="10.00">_model.cpp</text>
</a>
</g>
</g>
<!-- Node22&#45;&gt;Node29 -->
<g id="edge41" class="edge">
<title>Node22&#45;&gt;Node29</title>
<path fill="none" stroke="#63b8ff" d="M1638.5,-389.78C1638.5,-380.17 1638.5,-368.92 1638.5,-360.23"/>
<polygon fill="#63b8ff" stroke="#63b8ff" points="1635,-389.59 1638.5,-399.59 1642,-389.59 1635,-389.59"/>
</g>
<!-- Node30 -->
<g id="node30" class="node">
<title>Node30</title>
<g id="a_node30"><a xlink:href="default__disease__model_8cpp.html" target="_top" xlink:title=" ">
<polygon fill="white" stroke="#666666" points="1858.5,-360 1722.5,-360 1722.5,-330 1858.5,-330 1858.5,-360"/>
<text text-anchor="start" x="1730.5" y="-348" font-family="Helvetica,sans-Serif" font-size="10.00">HealthGPS/default_disease</text>
<text text-anchor="middle" x="1790.5" y="-337" font-family="Helvetica,sans-Serif" font-size="10.00">_model.cpp</text>
</a>
</g>
</g>
<!-- Node22&#45;&gt;Node30 -->
<g id="edge42" class="edge">
<title>Node22&#45;&gt;Node30</title>
<path fill="none" stroke="#63b8ff" d="M1670.07,-396.71C1695.19,-386.13 1730.29,-371.35 1756.12,-360.48"/>
<polygon fill="#63b8ff" stroke="#63b8ff" points="1668.89,-393.41 1661.03,-400.51 1671.6,-399.86 1668.89,-393.41"/>
</g>
<!-- Node31 -->
<g id="node31" class="node">
<title>Node31</title>
<g id="a_node31"><a xlink:href="demographic_8h.html" target="_top" xlink:title=" ">
<polygon fill="white" stroke="#666666" points="1426.5,-354.5 1294.5,-354.5 1294.5,-335.5 1426.5,-335.5 1426.5,-354.5"/>
<text text-anchor="middle" x="1360.5" y="-342.5" font-family="Helvetica,sans-Serif" font-size="10.00">HealthGPS/demographic.h</text>
</a>
</g>
</g>
<!-- Node22&#45;&gt;Node31 -->
<g id="edge43" class="edge">
<title>Node22&#45;&gt;Node31</title>
<path fill="none" stroke="#63b8ff" d="M1588.46,-398.48C1534.15,-385.98 1448.58,-366.28 1399.18,-354.91"/>
<polygon fill="#63b8ff" stroke="#63b8ff" points="1587.55,-401.86 1598.08,-400.69 1589.12,-395.04 1587.55,-401.86"/>
</g>
<!-- Node33 -->
<g id="node33" class="node">
<title>Node33</title>
<g id="a_node33"><a xlink:href="_health_g_p_s_2disease_8h.html" target="_top" xlink:title=" ">
<polygon fill="white" stroke="#666666" points="1554.5,-354.5 1444.5,-354.5 1444.5,-335.5 1554.5,-335.5 1554.5,-354.5"/>
<text text-anchor="middle" x="1499.5" y="-342.5" font-family="Helvetica,sans-Serif" font-size="10.00">HealthGPS/disease.h</text>
</a>
</g>
</g>
<!-- Node22&#45;&gt;Node33 -->
<g id="edge46" class="edge">
<title>Node22&#45;&gt;Node33</title>
<path fill="none" stroke="#63b8ff" d="M1609.04,-396.44C1581.78,-383.88 1542.03,-365.58 1518.66,-354.82"/>
<polygon fill="#63b8ff" stroke="#63b8ff" points="1607.25,-399.46 1617.8,-400.47 1610.18,-393.11 1607.25,-399.46"/>
</g>
<!-- Node35 -->
<g id="node35" class="node">
<title>Node35</title>
<g id="a_node35"><a xlink:href="energy__balance__model_8cpp.html" target="_top" xlink:title=" ">
<polygon fill="white" stroke="#666666" points="2014,-360 1877,-360 1877,-330 2014,-330 2014,-360"/>
<text text-anchor="start" x="1885" y="-348" font-family="Helvetica,sans-Serif" font-size="10.00">HealthGPS/energy_balance</text>
<text text-anchor="middle" x="1945.5" y="-337" font-family="Helvetica,sans-Serif" font-size="10.00">_model.cpp</text>
</a>
</g>
</g>
<!-- Node22&#45;&gt;Node35 -->
<g id="edge49" class="edge">
<title>Node22&#45;&gt;Node35</title>
<path fill="none" stroke="#63b8ff" d="M1692.68,-398.7C1743.98,-388.01 1821.2,-371.91 1876.79,-360.32"/>
<polygon fill="#63b8ff" stroke="#63b8ff" points="1692.07,-395.26 1682.99,-400.72 1693.5,-402.11 1692.07,-395.26"/>
</g>
<!-- Node36 -->
<g id="node36" class="node">
<title>Node36</title>
<g id="a_node36"><a xlink:href="hierarchical__model__static_8cpp.html" target="_top" xlink:title=" ">
<polygon fill="white" stroke="#666666" points="2150.5,-360 2032.5,-360 2032.5,-330 2150.5,-330 2150.5,-360"/>
<text text-anchor="start" x="2040.5" y="-348" font-family="Helvetica,sans-Serif" font-size="10.00">HealthGPS/hierarchical</text>
<text text-anchor="middle" x="2091.5" y="-337" font-family="Helvetica,sans-Serif" font-size="10.00">_model_static.cpp</text>
</a>
</g>
</g>
<!-- Node22&#45;&gt;Node36 -->
<g id="edge51" class="edge">
<title>Node22&#45;&gt;Node36</title>
<path fill="none" stroke="#63b8ff" d="M1699.93,-399.17C1706.86,-398.05 1713.83,-396.97 1720.5,-396 1854.28,-376.62 1889.04,-381.46 2022.5,-360 2025.64,-359.5 2028.85,-358.95 2032.09,-358.37"/>
<polygon fill="#63b8ff" stroke="#63b8ff" points="1699.53,-395.68 1690.23,-400.76 1700.67,-402.59 1699.53,-395.68"/>
</g>
<!-- Node37 -->
<g id="node37" class="node">
<title>Node37</title>
<g id="a_node37"><a xlink:href="riskfactor__adjustment_8h.html" target="_top" xlink:title=" ">
<polygon fill="white" stroke="#666666" points="2583.5,-360 2475.5,-360 2475.5,-330 2583.5,-330 2583.5,-360"/>
<text text-anchor="start" x="2483.5" y="-348" font-family="Helvetica,sans-Serif" font-size="10.00">HealthGPS/riskfactor</text>
<text text-anchor="middle" x="2529.5" y="-337" font-family="Helvetica,sans-Serif" font-size="10.00">_adjustment.h</text>
</a>
</g>
</g>
<!-- Node22&#45;&gt;Node37 -->
<g id="edge52" class="edge">
<title>Node22&#45;&gt;Node37</title>
<path fill="none" stroke="#63b8ff" d="M1696.45,-399.21C1704.5,-397.97 1712.69,-396.85 1720.5,-396 2050.04,-360.04 2136.88,-403.57 2465.5,-360 2468.66,-359.58 2471.89,-359.09 2475.14,-358.54"/>
<polygon fill="#63b8ff" stroke="#63b8ff" points="1696.01,-395.74 1686.69,-400.78 1697.12,-402.65 1696.01,-395.74"/>
</g>
<!-- Node41 -->
<g id="node41" class="node">
<title>Node41</title>
<g id="a_node41"><a xlink:href="runtime__context_8cpp.html" target="_top" xlink:title=" ">
<polygon fill="white" stroke="#666666" points="2326,-354.5 2169,-354.5 2169,-335.5 2326,-335.5 2326,-354.5"/>
<text text-anchor="middle" x="2247.5" y="-342.5" font-family="Helvetica,sans-Serif" font-size="10.00">HealthGPS/runtime_context.cpp</text>
</a>
</g>
</g>
<!-- Node22&#45;&gt;Node41 -->
<g id="edge57" class="edge">
<title>Node22&#45;&gt;Node41</title>
<path fill="none" stroke="#63b8ff" d="M1698.21,-399.18C1705.7,-398.01 1713.27,-396.91 1720.5,-396 1914.73,-371.5 1965.14,-383.4 2159.5,-360 2171.17,-358.59 2183.67,-356.79 2195.48,-354.95"/>
<polygon fill="#63b8ff" stroke="#63b8ff" points="1697.76,-395.71 1688.45,-400.76 1698.88,-402.62 1697.76,-395.71"/>
</g>
<!-- Node42 -->
<g id="node42" class="node">
<title>Node42</title>
<g id="a_node42"><a xlink:href="ses__noise__module_8cpp.html" target="_top" xlink:title=" ">
<polygon fill="white" stroke="#666666" points="2457,-360 2344,-360 2344,-330 2457,-330 2457,-360"/>
<text text-anchor="start" x="2352" y="-348" font-family="Helvetica,sans-Serif" font-size="10.00">HealthGPS/ses_noise</text>
<text text-anchor="middle" x="2400.5" y="-337" font-family="Helvetica,sans-Serif" font-size="10.00">_module.cpp</text>
</a>
</g>
</g>
<!-- Node22&#45;&gt;Node42 -->
<g id="edge58" class="edge">
<title>Node22&#45;&gt;Node42</title>
<path fill="none" stroke="#63b8ff" d="M1696.76,-399.24C1704.72,-398.01 1712.8,-396.88 1720.5,-396 1992.09,-364.95 2063.59,-396.46 2334.5,-360 2337.52,-359.59 2340.6,-359.13 2343.71,-358.61"/>
<polygon fill="#63b8ff" stroke="#63b8ff" points="1696.44,-395.74 1687.13,-400.79 1697.56,-402.65 1696.44,-395.74"/>
</g>
<!-- Node24 -->
<g id="node24" class="node">
<title>Node24</title>
<g id="a_node24"><a xlink:href="analysis__module_8cpp.html" target="_top" xlink:title=" ">
<polygon fill="white" stroke="#666666" points="1314.5,-294 1210.5,-294 1210.5,-264 1314.5,-264 1314.5,-294"/>
<text text-anchor="start" x="1218.5" y="-282" font-family="Helvetica,sans-Serif" font-size="10.00">HealthGPS/analysis</text>
<text text-anchor="middle" x="1262.5" y="-271" font-family="Helvetica,sans-Serif" font-size="10.00">_module.cpp</text>
</a>
</g>
</g>
<!-- Node23&#45;&gt;Node24 -->
<g id="edge33" class="edge">
<title>Node23&#45;&gt;Node24</title>
<path fill="none" stroke="#63b8ff" d="M1238.68,-320.11C1243.87,-311.38 1249.57,-301.78 1254.09,-294.16"/>
<polygon fill="#63b8ff" stroke="#63b8ff" points="1235.8,-318.11 1233.71,-328.49 1241.82,-321.68 1235.8,-318.11"/>
</g>
<!-- Node25 -->
<g id="node25" class="node">
<title>Node25</title>
<g id="a_node25"><a xlink:href="simulation__module_8h.html" target="_top" xlink:title=" ">
<polygon fill="white" stroke="#666666" points="1404,-228 1291,-228 1291,-198 1404,-198 1404,-228"/>
<text text-anchor="start" x="1299" y="-216" font-family="Helvetica,sans-Serif" font-size="10.00">HealthGPS/simulation</text>
<text text-anchor="middle" x="1347.5" y="-205" font-family="Helvetica,sans-Serif" font-size="10.00">_module.h</text>
</a>
</g>
</g>
<!-- Node23&#45;&gt;Node25 -->
<g id="edge34" class="edge">
<title>Node23&#45;&gt;Node25</title>
<path fill="none" stroke="#63b8ff" d="M1207.53,-320.03C1197.81,-303.09 1189.67,-280.55 1201.5,-264 1221.67,-235.77 1258.8,-223.31 1290.56,-217.88"/>
<polygon fill="#63b8ff" stroke="#63b8ff" points="1204.54,-321.85 1212.82,-328.47 1210.47,-318.13 1204.54,-321.85"/>
</g>
<!-- Node25&#45;&gt;Node6 -->
<g id="edge35" class="edge">
<title>Node25&#45;&gt;Node6</title>
<path fill="none" stroke="#63b8ff" d="M1351.22,-186.44C1354.12,-170.36 1358.96,-149.44 1366.5,-132 1373.27,-116.34 1384.91,-100.23 1392.4,-90.67"/>
<polygon fill="#63b8ff" stroke="#63b8ff" points="1347.79,-185.72 1349.61,-196.16 1354.7,-186.86 1347.79,-185.72"/>
</g>
<!-- Node25&#45;&gt;Node26 -->
<g id="edge36" class="edge">
<title>Node25&#45;&gt;Node26</title>
<path fill="none" stroke="#63b8ff" d="M1318.98,-191.26C1302.97,-179.61 1283.82,-165.69 1271.66,-156.84"/>
<polygon fill="#63b8ff" stroke="#63b8ff" points="1316.6,-193.85 1326.75,-196.91 1320.72,-188.19 1316.6,-193.85"/>
</g>
<!-- Node28 -->
<g id="node28" class="node">
<title>Node28</title>
<g id="a_node28"><a xlink:href="simulation__module_8cpp.html" target="_top" xlink:title=" ">
<polygon fill="white" stroke="#666666" points="1489,-162 1376,-162 1376,-132 1489,-132 1489,-162"/>
<text text-anchor="start" x="1384" y="-150" font-family="Helvetica,sans-Serif" font-size="10.00">HealthGPS/simulation</text>
<text text-anchor="middle" x="1432.5" y="-139" font-family="Helvetica,sans-Serif" font-size="10.00">_module.cpp</text>
</a>
</g>
</g>
<!-- Node25&#45;&gt;Node28 -->
<g id="edge40" class="edge">
<title>Node25&#45;&gt;Node28</title>
<path fill="none" stroke="#63b8ff" d="M1375.42,-190.97C1387.87,-181.61 1402.2,-170.81 1413.39,-162.39"/>
<polygon fill="#63b8ff" stroke="#63b8ff" points="1373.46,-188.07 1367.57,-196.89 1377.67,-193.67 1373.46,-188.07"/>
</g>
<!-- Node26&#45;&gt;Node2 -->
<g id="edge37" class="edge">
<title>Node26&#45;&gt;Node2</title>
<path fill="none" stroke="#63b8ff" d="M1204.71,-134.8C1143.73,-122.33 1046.43,-102.43 990.31,-90.96"/>
<polygon fill="#63b8ff" stroke="#63b8ff" points="1203.67,-138.16 1214.17,-136.73 1205.07,-131.3 1203.67,-138.16"/>
</g>
<!-- Node26&#45;&gt;Node6 -->
<g id="edge38" class="edge">
<title>Node26&#45;&gt;Node6</title>
<path fill="none" stroke="#63b8ff" d="M1289.17,-132.44C1316.63,-119.88 1356.66,-101.58 1380.2,-90.82"/>
<polygon fill="#63b8ff" stroke="#63b8ff" points="1287.98,-129.13 1280.34,-136.47 1290.89,-135.5 1287.98,-129.13"/>
</g>
<!-- Node27 -->
<g id="node27" class="node">
<title>Node27</title>
<g id="a_node27"><a xlink:href="healthgps_8cpp.html" target="_top" xlink:title=" ">
<polygon fill="white" stroke="#666666" points="1337,-90.5 1208,-90.5 1208,-71.5 1337,-71.5 1337,-90.5"/>
<text text-anchor="middle" x="1272.5" y="-78.5" font-family="Helvetica,sans-Serif" font-size="10.00">HealthGPS/healthgps.cpp</text>
</a>
</g>
</g>
<!-- Node26&#45;&gt;Node27 -->
<g id="edge39" class="edge">
<title>Node26&#45;&gt;Node27</title>
<path fill="none" stroke="#63b8ff" d="M1263.55,-126.05C1265.95,-114.24 1268.87,-99.87 1270.71,-90.82"/>
<polygon fill="#63b8ff" stroke="#63b8ff" points="1260.17,-125.12 1261.61,-135.62 1267.03,-126.51 1260.17,-125.12"/>
</g>
<!-- Node31&#45;&gt;Node25 -->
<g id="edge45" class="edge">
<title>Node31&#45;&gt;Node25</title>
<path fill="none" stroke="#63b8ff" d="M1358.48,-323.81C1355.83,-297.34 1351.26,-251.56 1348.94,-228.36"/>
<polygon fill="#63b8ff" stroke="#63b8ff" points="1354.98,-323.96 1359.46,-333.56 1361.94,-323.26 1354.98,-323.96"/>
</g>
<!-- Node32 -->
<g id="node32" class="node">
<title>Node32</title>
<g id="a_node32"><a xlink:href="demographic_8cpp.html" target="_top" xlink:title=" ">
<polygon fill="white" stroke="#666666" points="1514,-288.5 1371,-288.5 1371,-269.5 1514,-269.5 1514,-288.5"/>
<text text-anchor="middle" x="1442.5" y="-276.5" font-family="Helvetica,sans-Serif" font-size="10.00">HealthGPS/demographic.cpp</text>
</a>
</g>
</g>
<!-- Node31&#45;&gt;Node32 -->
<g id="edge44" class="edge">
<title>Node31&#45;&gt;Node32</title>
<path fill="none" stroke="#63b8ff" d="M1380.95,-328.04C1396.83,-315.64 1418.26,-298.92 1431.2,-288.82"/>
<polygon fill="#63b8ff" stroke="#63b8ff" points="1378.82,-325.26 1373.09,-334.17 1383.13,-330.78 1378.82,-325.26"/>
</g>
<!-- Node33&#45;&gt;Node25 -->
<g id="edge48" class="edge">
<title>Node33&#45;&gt;Node25</title>
<path fill="none" stroke="#63b8ff" d="M1547.46,-332.26C1592.66,-320.72 1654.49,-303.5 1661.5,-294 1669.42,-283.27 1670.16,-274.14 1661.5,-264 1629.07,-226 1485.53,-216.74 1404.21,-214.58"/>
<polygon fill="#63b8ff" stroke="#63b8ff" points="1546.68,-328.85 1537.84,-334.7 1548.4,-335.64 1546.68,-328.85"/>
</g>
<!-- Node34 -->
<g id="node34" class="node">
<title>Node34</title>
<g id="a_node34"><a xlink:href="disease_8cpp.html" target="_top" xlink:title=" ">
<polygon fill="white" stroke="#666666" points="1653,-288.5 1532,-288.5 1532,-269.5 1653,-269.5 1653,-288.5"/>
<text text-anchor="middle" x="1592.5" y="-276.5" font-family="Helvetica,sans-Serif" font-size="10.00">HealthGPS/disease.cpp</text>
</a>
</g>
</g>
<!-- Node33&#45;&gt;Node34 -->
<g id="edge47" class="edge">
<title>Node33&#45;&gt;Node34</title>
<path fill="none" stroke="#63b8ff" d="M1521.68,-328.74C1539.78,-316.28 1564.74,-299.11 1579.68,-288.82"/>
<polygon fill="#63b8ff" stroke="#63b8ff" points="1519.93,-325.69 1513.68,-334.24 1523.9,-331.46 1519.93,-325.69"/>
</g>
<!-- Node38 -->
<g id="node38" class="node">
<title>Node38</title>
<g id="a_node38"><a xlink:href="riskfactor_8h.html" target="_top" xlink:title=" ">
<polygon fill="white" stroke="#666666" points="2141.5,-288.5 2025.5,-288.5 2025.5,-269.5 2141.5,-269.5 2141.5,-288.5"/>
<text text-anchor="middle" x="2083.5" y="-276.5" font-family="Helvetica,sans-Serif" font-size="10.00">HealthGPS/riskfactor.h</text>
</a>
</g>
</g>
<!-- Node37&#45;&gt;Node38 -->
<g id="edge53" class="edge">
<title>Node37&#45;&gt;Node38</title>
<path fill="none" stroke="#63b8ff" d="M2463.84,-329.82C2343.43,-309.16 2214.86,-294.02 2141.98,-286.09"/>
<polygon fill="#63b8ff" stroke="#63b8ff" points="2463.15,-333.25 2473.6,-331.51 2464.35,-326.35 2463.15,-333.25"/>
</g>
<!-- Node40 -->
<g id="node40" class="node">
<title>Node40</title>
<g id="a_node40"><a xlink:href="riskfactor__adjustment_8cpp.html" target="_top" xlink:title=" ">
<polygon fill="white" stroke="#666666" points="2583.5,-294 2475.5,-294 2475.5,-264 2583.5,-264 2583.5,-294"/>
<text text-anchor="start" x="2483.5" y="-282" font-family="Helvetica,sans-Serif" font-size="10.00">HealthGPS/riskfactor</text>
<text text-anchor="middle" x="2529.5" y="-271" font-family="Helvetica,sans-Serif" font-size="10.00">_adjustment.cpp</text>
</a>
</g>
</g>
<!-- Node37&#45;&gt;Node40 -->
<g id="edge56" class="edge">
<title>Node37&#45;&gt;Node40</title>
<path fill="none" stroke="#63b8ff" d="M2529.5,-318.39C2529.5,-310.13 2529.5,-301.28 2529.5,-294.16"/>
<polygon fill="#63b8ff" stroke="#63b8ff" points="2526,-318.28 2529.5,-328.28 2533,-318.28 2526,-318.28"/>
</g>
<!-- Node38&#45;&gt;Node25 -->
<g id="edge55" class="edge">
<title>Node38&#45;&gt;Node25</title>
<path fill="none" stroke="#63b8ff" d="M2013.77,-271.94C1868.83,-259.33 1537.43,-230.52 1404.35,-218.94"/>
<polygon fill="#63b8ff" stroke="#63b8ff" points="2013.36,-275.41 2023.62,-272.79 2013.97,-268.44 2013.36,-275.41"/>
</g>
<!-- Node39 -->
<g id="node39" class="node">
<title>Node39</title>
<g id="a_node39"><a xlink:href="riskfactor_8cpp.html" target="_top" xlink:title=" ">
<polygon fill="white" stroke="#666666" points="2147,-222.5 2020,-222.5 2020,-203.5 2147,-203.5 2147,-222.5"/>
<text text-anchor="middle" x="2083.5" y="-210.5" font-family="Helvetica,sans-Serif" font-size="10.00">HealthGPS/riskfactor.cpp</text>
</a>
</g>
</g>
<!-- Node38&#45;&gt;Node39 -->
<g id="edge54" class="edge">
<title>Node38&#45;&gt;Node39</title>
<path fill="none" stroke="#63b8ff" d="M2083.5,-257.68C2083.5,-245.94 2083.5,-231.77 2083.5,-222.82"/>
<polygon fill="#63b8ff" stroke="#63b8ff" points="2080,-257.59 2083.5,-267.59 2087,-257.59 2080,-257.59"/>
</g>
<!-- Node43&#45;&gt;Node26 -->
<g id="edge60" class="edge">
<title>Node43&#45;&gt;Node26</title>
<path fill="none" stroke="#63b8ff" d="M1117.7,-199.27C1152.34,-186.75 1204.35,-167.94 1234.81,-156.93"/>
<polygon fill="#63b8ff" stroke="#63b8ff" points="1116.75,-195.89 1108.53,-202.59 1119.13,-202.48 1116.75,-195.89"/>
</g>
<!-- Node44 -->
<g id="node44" class="node">
<title>Node44</title>
<g id="a_node44"><a xlink:href="modelrunner_8h.html" target="_top" xlink:title=" ">
<polygon fill="white" stroke="#666666" points="1181.5,-156.5 1051.5,-156.5 1051.5,-137.5 1181.5,-137.5 1181.5,-156.5"/>
<text text-anchor="middle" x="1116.5" y="-144.5" font-family="Helvetica,sans-Serif" font-size="10.00">HealthGPS/modelrunner.h</text>
</a>
</g>
</g>
<!-- Node43&#45;&gt;Node44 -->
<g id="edge61" class="edge">
<title>Node43&#45;&gt;Node44</title>
<path fill="none" stroke="#63b8ff" d="M1092.51,-193.16C1098.89,-181.16 1106.86,-166.15 1111.81,-156.82"/>
<polygon fill="#63b8ff" stroke="#63b8ff" points="1089.54,-191.29 1087.94,-201.76 1095.72,-194.58 1089.54,-191.29"/>
</g>
<!-- Node44&#45;&gt;Node6 -->
<g id="edge62" class="edge">
<title>Node44&#45;&gt;Node6</title>
<path fill="none" stroke="#63b8ff" d="M1171.12,-134.7C1217.6,-124.93 1286.08,-110.18 1345.5,-96 1352.09,-94.43 1359.12,-92.67 1365.85,-90.94"/>
<polygon fill="#63b8ff" stroke="#63b8ff" points="1170.64,-131.22 1161.57,-136.7 1172.08,-138.07 1170.64,-131.22"/>
</g>
<!-- Node45 -->
<g id="node45" class="node">
<title>Node45</title>
<g id="a_node45"><a xlink:href="modelrunner_8cpp.html" target="_top" xlink:title=" ">
<polygon fill="white" stroke="#666666" points="1189.5,-90.5 1049.5,-90.5 1049.5,-71.5 1189.5,-71.5 1189.5,-90.5"/>
<text text-anchor="middle" x="1119.5" y="-78.5" font-family="Helvetica,sans-Serif" font-size="10.00">HealthGPS/modelrunner.cpp</text>
</a>
</g>
</g>
<!-- Node44&#45;&gt;Node45 -->
<g id="edge63" class="edge">
<title>Node44&#45;&gt;Node45</title>
<path fill="none" stroke="#63b8ff" d="M1117.45,-125.68C1118,-113.94 1118.67,-99.77 1119.09,-90.82"/>
<polygon fill="#63b8ff" stroke="#63b8ff" points="1113.96,-125.44 1116.99,-135.59 1120.95,-125.76 1113.96,-125.44"/>
</g>
</g>
</svg>
