<?xml version="1.0" encoding="UTF-8" standalone="no"?>
<!DOCTYPE svg PUBLIC "-//W3C//DTD SVG 1.1//EN"
 "http://www.w3.org/Graphics/SVG/1.1/DTD/svg11.dtd">
<!-- Generated by graphviz version 2.43.0 (0)
 -->
<!-- Title: HealthGPS/scenario.h Pages: 1 -->
<svg width="2675pt" height="564pt"
 viewBox="0.00 0.00 2675.00 564.00" xmlns="http://www.w3.org/2000/svg" xmlns:xlink="http://www.w3.org/1999/xlink">
<g id="graph0" class="graph" transform="scale(1 1) rotate(0) translate(4 560)">
<title>HealthGPS/scenario.h</title>
<!-- Node1 -->
<g id="node1" class="node">
<title>Node1</title>
<g id="a_node1"><a xlink:title=" ">
<polygon fill="#bfbfbf" stroke="black" points="658.5,-536.5 658.5,-555.5 780.5,-555.5 780.5,-536.5 658.5,-536.5"/>
<text text-anchor="middle" x="719.5" y="-543.5" font-family="Helvetica,sans-Serif" font-size="10.00">HealthGPS/scenario.h</text>
</a>
</g>
</g>
<!-- Node2 -->
<g id="node2" class="node">
<title>Node2</title>
<g id="a_node2"><a xlink:href="baseline__scenario_8h.html" target="_top" xlink:title=" ">
<polygon fill="none" stroke="black" points="296,-134.5 296,-164.5 409,-164.5 409,-134.5 296,-134.5"/>
<text text-anchor="start" x="304" y="-152.5" font-family="Helvetica,sans-Serif" font-size="10.00">HealthGPS/baseline</text>
<text text-anchor="middle" x="352.5" y="-141.5" font-family="Helvetica,sans-Serif" font-size="10.00">_scenario.h</text>
</a>
</g>
</g>
<!-- Node1&#45;&gt;Node2 -->
<g id="edge1" class="edge">
<title>Node1&#45;&gt;Node2</title>
<path fill="none" stroke="midnightblue" d="M688.2,-532.4C648.05,-513.92 583.5,-475.37 583.5,-418.5 583.5,-418.5 583.5,-418.5 583.5,-282.5 583.5,-202.36 477.4,-170.22 409.01,-157.82"/>
<polygon fill="midnightblue" stroke="midnightblue" points="686.79,-535.6 697.35,-536.46 689.63,-529.2 686.79,-535.6"/>
</g>
<!-- Node7 -->
<g id="node7" class="node">
<title>Node7</title>
<g id="a_node7"><a xlink:href="intervention__scenario_8h.html" target="_top" xlink:title=" ">
<polygon fill="none" stroke="black" points="601,-134.5 601,-164.5 732,-164.5 732,-134.5 601,-134.5"/>
<text text-anchor="start" x="609" y="-152.5" font-family="Helvetica,sans-Serif" font-size="10.00">HealthGPS/intervention</text>
<text text-anchor="middle" x="666.5" y="-141.5" font-family="Helvetica,sans-Serif" font-size="10.00">_scenario.h</text>
</a>
</g>
</g>
<!-- Node1&#45;&gt;Node7 -->
<g id="edge6" class="edge">
<title>Node1&#45;&gt;Node7</title>
<path fill="none" stroke="midnightblue" d="M708.55,-527.65C694.66,-503.95 672.5,-459.68 672.5,-418.5 672.5,-418.5 672.5,-418.5 672.5,-282.5 672.5,-239.6 669.3,-188.94 667.57,-164.75"/>
<polygon fill="midnightblue" stroke="midnightblue" points="705.56,-529.48 713.74,-536.22 711.55,-525.85 705.56,-529.48"/>
</g>
<!-- Node20 -->
<g id="node20" class="node">
<title>Node20</title>
<g id="a_node20"><a xlink:href="configuration_8h.html" target="_top" xlink:title=" ">
<polygon fill="none" stroke="black" points="1067.5,-73 1067.5,-92 1253.5,-92 1253.5,-73 1067.5,-73"/>
<text text-anchor="middle" x="1160.5" y="-80" font-family="Helvetica,sans-Serif" font-size="10.00">HealthGPS.Console/configuration.h</text>
</a>
</g>
</g>
<!-- Node1&#45;&gt;Node20 -->
<g id="edge65" class="edge">
<title>Node1&#45;&gt;Node20</title>
<path fill="none" stroke="midnightblue" d="M720.94,-526.32C722.72,-501.64 725.5,-456.84 725.5,-418.5 725.5,-418.5 725.5,-418.5 725.5,-349.5 725.5,-176.44 979.19,-112.57 1099.1,-92.05"/>
<polygon fill="midnightblue" stroke="midnightblue" points="717.44,-526.18 720.19,-536.42 724.42,-526.7 717.44,-526.18"/>
</g>
<!-- Node21 -->
<g id="node21" class="node">
<title>Node21</title>
<g id="a_node21"><a xlink:href="simulation__definition_8h.html" target="_top" xlink:title=" ">
<polygon fill="none" stroke="black" points="1985,-469.5 1985,-499.5 2108,-499.5 2108,-469.5 1985,-469.5"/>
<text text-anchor="start" x="1993" y="-487.5" font-family="Helvetica,sans-Serif" font-size="10.00">HealthGPS/simulation</text>
<text text-anchor="middle" x="2046.5" y="-476.5" font-family="Helvetica,sans-Serif" font-size="10.00">_definition.h</text>
</a>
</g>
</g>
<!-- Node1&#45;&gt;Node21 -->
<g id="edge29" class="edge">
<title>Node1&#45;&gt;Node21</title>
<path fill="none" stroke="midnightblue" d="M790.93,-541.8C1024.83,-531.31 1765.27,-498.11 1984.66,-488.27"/>
<polygon fill="midnightblue" stroke="midnightblue" points="790.68,-538.31 780.84,-542.25 790.99,-545.3 790.68,-538.31"/>
</g>
<!-- Node3 -->
<g id="node3" class="node">
<title>Node3</title>
<g id="a_node3"><a xlink:href="HealthGPS_2api_8h.html" target="_top" xlink:title=" ">
<polygon fill="none" stroke="black" points="1272,-73 1272,-92 1367,-92 1367,-73 1272,-73"/>
<text text-anchor="middle" x="1319.5" y="-80" font-family="Helvetica,sans-Serif" font-size="10.00">HealthGPS/api.h</text>
</a>
</g>
</g>
<!-- Node2&#45;&gt;Node3 -->
<g id="edge2" class="edge">
<title>Node2&#45;&gt;Node3</title>
<path fill="none" stroke="midnightblue" d="M419.72,-144.3C467.61,-141.33 533.5,-137.32 591.5,-134 889.66,-116.96 967.26,-143.03 1262.5,-98 1271.69,-96.6 1281.54,-94.36 1290.43,-92.06"/>
<polygon fill="midnightblue" stroke="midnightblue" points="419.24,-140.82 409.48,-144.93 419.67,-147.81 419.24,-140.82"/>
</g>
<!-- Node5 -->
<g id="node5" class="node">
<title>Node5</title>
<g id="a_node5"><a xlink:href="baseline__scenario_8cpp.html" target="_top" xlink:title=" ">
<polygon fill="none" stroke="black" points="0,-67.5 0,-97.5 113,-97.5 113,-67.5 0,-67.5"/>
<text text-anchor="start" x="8" y="-85.5" font-family="Helvetica,sans-Serif" font-size="10.00">HealthGPS/baseline</text>
<text text-anchor="middle" x="56.5" y="-74.5" font-family="Helvetica,sans-Serif" font-size="10.00">_scenario.cpp</text>
</a>
</g>
</g>
<!-- Node2&#45;&gt;Node5 -->
<g id="edge4" class="edge">
<title>Node2&#45;&gt;Node5</title>
<path fill="none" stroke="midnightblue" d="M285.97,-133.89C233.92,-122.46 162.33,-106.74 113.03,-95.91"/>
<polygon fill="midnightblue" stroke="midnightblue" points="285.26,-137.32 295.78,-136.04 286.76,-130.48 285.26,-137.32"/>
</g>
<!-- Node6 -->
<g id="node6" class="node">
<title>Node6</title>
<g id="a_node6"><a xlink:href="configuration_8cpp.html" target="_top" xlink:title=" ">
<polygon fill="none" stroke="black" points="442,-6 442,-25 639,-25 639,-6 442,-6"/>
<text text-anchor="middle" x="540.5" y="-13" font-family="Helvetica,sans-Serif" font-size="10.00">HealthGPS.Console/configuration.cpp</text>
</a>
</g>
</g>
<!-- Node2&#45;&gt;Node6 -->
<g id="edge5" class="edge">
<title>Node2&#45;&gt;Node6</title>
<path fill="none" stroke="midnightblue" d="M285.81,-142.45C215.61,-133.55 120.41,-112.75 160.5,-67 200.69,-21.15 372.06,-39.06 432.5,-31 446.94,-29.08 462.46,-27 477.11,-25.03"/>
<polygon fill="midnightblue" stroke="midnightblue" points="285.62,-145.95 295.96,-143.67 286.46,-139 285.62,-145.95"/>
</g>
<!-- Node4 -->
<g id="node4" class="node">
<title>Node4</title>
<g id="a_node4"><a xlink:href="program_8cpp.html" target="_top" xlink:title=" ">
<polygon fill="none" stroke="black" points="1204,-6 1204,-25 1379,-25 1379,-6 1204,-6"/>
<text text-anchor="middle" x="1291.5" y="-13" font-family="Helvetica,sans-Serif" font-size="10.00">HealthGPS.Console/program.cpp</text>
</a>
</g>
</g>
<!-- Node3&#45;&gt;Node4 -->
<g id="edge3" class="edge">
<title>Node3&#45;&gt;Node4</title>
<path fill="none" stroke="midnightblue" d="M1311.66,-63.29C1306.28,-50.81 1299.39,-34.81 1295.22,-25.13"/>
<polygon fill="midnightblue" stroke="midnightblue" points="1308.55,-64.93 1315.72,-72.73 1314.98,-62.16 1308.55,-64.93"/>
</g>
<!-- Node7&#45;&gt;Node3 -->
<g id="edge7" class="edge">
<title>Node7&#45;&gt;Node3</title>
<path fill="none" stroke="midnightblue" d="M742.2,-146.08C855.87,-141.54 1077.12,-129.22 1262.5,-98 1271.46,-96.49 1281.08,-94.28 1289.82,-92.03"/>
<polygon fill="midnightblue" stroke="midnightblue" points="742.06,-142.58 732.2,-146.47 742.33,-149.57 742.06,-142.58"/>
</g>
<!-- Node8 -->
<g id="node8" class="node">
<title>Node8</title>
<g id="a_node8"><a xlink:href="fiscal__scenario_8h.html" target="_top" xlink:title=" ">
<polygon fill="none" stroke="black" points="599.5,-73 599.5,-92 751.5,-92 751.5,-73 599.5,-73"/>
<text text-anchor="middle" x="675.5" y="-80" font-family="Helvetica,sans-Serif" font-size="10.00">HealthGPS/fiscal_scenario.h</text>
</a>
</g>
</g>
<!-- Node7&#45;&gt;Node8 -->
<g id="edge8" class="edge">
<title>Node7&#45;&gt;Node8</title>
<path fill="none" stroke="midnightblue" d="M669.86,-124.25C671.41,-113.02 673.16,-100.38 674.3,-92.19"/>
<polygon fill="midnightblue" stroke="midnightblue" points="666.36,-124.01 668.45,-134.4 673.29,-124.97 666.36,-124.01"/>
</g>
<!-- Node10 -->
<g id="node10" class="node">
<title>Node10</title>
<g id="a_node10"><a xlink:href="food__labelling__scenario_8h.html" target="_top" xlink:title=" ">
<polygon fill="none" stroke="black" points="769.5,-67.5 769.5,-97.5 909.5,-97.5 909.5,-67.5 769.5,-67.5"/>
<text text-anchor="start" x="777.5" y="-85.5" font-family="Helvetica,sans-Serif" font-size="10.00">HealthGPS/food_labelling</text>
<text text-anchor="middle" x="839.5" y="-74.5" font-family="Helvetica,sans-Serif" font-size="10.00">_scenario.h</text>
</a>
</g>
</g>
<!-- Node7&#45;&gt;Node10 -->
<g id="edge11" class="edge">
<title>Node7&#45;&gt;Node10</title>
<path fill="none" stroke="midnightblue" d="M713.56,-130.82C741.37,-120.37 776.09,-107.32 802.03,-97.58"/>
<polygon fill="midnightblue" stroke="midnightblue" points="712.17,-127.6 704.04,-134.4 714.63,-134.16 712.17,-127.6"/>
</g>
<!-- Node12 -->
<g id="node12" class="node">
<title>Node12</title>
<g id="a_node12"><a xlink:href="marketing__dynamic__scenario_8h.html" target="_top" xlink:title=" ">
<polygon fill="none" stroke="black" points="928,-67.5 928,-97.5 1049,-97.5 1049,-67.5 928,-67.5"/>
<text text-anchor="start" x="936" y="-85.5" font-family="Helvetica,sans-Serif" font-size="10.00">HealthGPS/marketing</text>
<text text-anchor="middle" x="988.5" y="-74.5" font-family="Helvetica,sans-Serif" font-size="10.00">_dynamic_scenario.h</text>
</a>
</g>
</g>
<!-- Node7&#45;&gt;Node12 -->
<g id="edge14" class="edge">
<title>Node7&#45;&gt;Node12</title>
<path fill="none" stroke="midnightblue" d="M742.15,-133.47C792.21,-123.5 859.29,-110.06 918.5,-98 921.54,-97.38 924.65,-96.74 927.8,-96.1"/>
<polygon fill="midnightblue" stroke="midnightblue" points="741.18,-130.1 732.05,-135.48 742.54,-136.96 741.18,-130.1"/>
</g>
<!-- Node14 -->
<g id="node14" class="node">
<title>Node14</title>
<g id="a_node14"><a xlink:href="marketing__scenario_8h.html" target="_top" xlink:title=" ">
<polygon fill="none" stroke="black" points="170,-67.5 170,-97.5 291,-97.5 291,-67.5 170,-67.5"/>
<text text-anchor="start" x="178" y="-85.5" font-family="Helvetica,sans-Serif" font-size="10.00">HealthGPS/marketing</text>
<text text-anchor="middle" x="230.5" y="-74.5" font-family="Helvetica,sans-Serif" font-size="10.00">_scenario.h</text>
</a>
</g>
</g>
<!-- Node7&#45;&gt;Node14 -->
<g id="edge17" class="edge">
<title>Node7&#45;&gt;Node14</title>
<path fill="none" stroke="midnightblue" d="M590.66,-139.54C516.48,-130.43 400.42,-115.22 300.5,-98 297.44,-97.47 294.31,-96.91 291.16,-96.32"/>
<polygon fill="midnightblue" stroke="midnightblue" points="590.49,-143.05 600.84,-140.79 591.34,-136.1 590.49,-143.05"/>
</g>
<!-- Node16 -->
<g id="node16" class="node">
<title>Node16</title>
<g id="a_node16"><a xlink:href="physical__activity__scenario_8h.html" target="_top" xlink:title=" ">
<polygon fill="none" stroke="black" points="309.5,-67.5 309.5,-97.5 423.5,-97.5 423.5,-67.5 309.5,-67.5"/>
<text text-anchor="start" x="317.5" y="-85.5" font-family="Helvetica,sans-Serif" font-size="10.00">HealthGPS/physical</text>
<text text-anchor="middle" x="366.5" y="-74.5" font-family="Helvetica,sans-Serif" font-size="10.00">_activity_scenario.h</text>
</a>
</g>
</g>
<!-- Node7&#45;&gt;Node16 -->
<g id="edge20" class="edge">
<title>Node7&#45;&gt;Node16</title>
<path fill="none" stroke="midnightblue" d="M591.31,-132.35C545.42,-122.47 485.56,-109.55 432.5,-98 429.63,-97.38 426.7,-96.74 423.73,-96.09"/>
<polygon fill="midnightblue" stroke="midnightblue" points="590.66,-135.79 601.18,-134.47 592.14,-128.94 590.66,-135.79"/>
</g>
<!-- Node18 -->
<g id="node18" class="node">
<title>Node18</title>
<g id="a_node18"><a xlink:href="simple__policy__scenario_8h.html" target="_top" xlink:title=" ">
<polygon fill="none" stroke="black" points="442,-67.5 442,-97.5 581,-97.5 581,-67.5 442,-67.5"/>
<text text-anchor="start" x="450" y="-85.5" font-family="Helvetica,sans-Serif" font-size="10.00">HealthGPS/simple_policy</text>
<text text-anchor="middle" x="511.5" y="-74.5" font-family="Helvetica,sans-Serif" font-size="10.00">_scenario.h</text>
</a>
</g>
</g>
<!-- Node7&#45;&gt;Node18 -->
<g id="edge23" class="edge">
<title>Node7&#45;&gt;Node18</title>
<path fill="none" stroke="midnightblue" d="M623.35,-130.41C598.61,-120.03 568,-107.2 545.07,-97.58"/>
<polygon fill="midnightblue" stroke="midnightblue" points="622.29,-133.76 632.87,-134.4 625,-127.3 622.29,-133.76"/>
</g>
<!-- Node7&#45;&gt;Node20 -->
<g id="edge26" class="edge">
<title>Node7&#45;&gt;Node20</title>
<path fill="none" stroke="midnightblue" d="M742.58,-134.59C743.9,-134.39 745.2,-134.19 746.5,-134 884.14,-113.58 919.49,-115.7 1057.5,-98 1071.83,-96.16 1087.26,-94.06 1101.71,-92.03"/>
<polygon fill="midnightblue" stroke="midnightblue" points="741.69,-131.19 732.37,-136.22 742.79,-138.1 741.69,-131.19"/>
</g>
<!-- Node8&#45;&gt;Node6 -->
<g id="edge10" class="edge">
<title>Node8&#45;&gt;Node6</title>
<path fill="none" stroke="midnightblue" d="M648.38,-68.44C621.64,-55.57 581.53,-36.26 558.5,-25.17"/>
<polygon fill="midnightblue" stroke="midnightblue" points="647.04,-71.68 657.57,-72.87 650.08,-65.38 647.04,-71.68"/>
</g>
<!-- Node9 -->
<g id="node9" class="node">
<title>Node9</title>
<g id="a_node9"><a xlink:href="fiscal__scenario_8cpp.html" target="_top" xlink:title=" ">
<polygon fill="none" stroke="black" points="657.5,-6 657.5,-25 821.5,-25 821.5,-6 657.5,-6"/>
<text text-anchor="middle" x="739.5" y="-13" font-family="Helvetica,sans-Serif" font-size="10.00">HealthGPS/fiscal_scenario.cpp</text>
</a>
</g>
</g>
<!-- Node8&#45;&gt;Node9 -->
<g id="edge9" class="edge">
<title>Node8&#45;&gt;Node9</title>
<path fill="none" stroke="midnightblue" d="M691.26,-65.5C703.81,-52.75 720.9,-35.39 731.01,-25.13"/>
<polygon fill="midnightblue" stroke="midnightblue" points="688.65,-63.15 684.13,-72.73 693.64,-68.06 688.65,-63.15"/>
</g>
<!-- Node10&#45;&gt;Node6 -->
<g id="edge13" class="edge">
<title>Node10&#45;&gt;Node6</title>
<path fill="none" stroke="midnightblue" d="M765.01,-65.31C706.27,-52.54 626.67,-35.23 579.73,-25.03"/>
<polygon fill="midnightblue" stroke="midnightblue" points="764.47,-68.77 774.99,-67.48 765.96,-61.93 764.47,-68.77"/>
</g>
<!-- Node11 -->
<g id="node11" class="node">
<title>Node11</title>
<g id="a_node11"><a xlink:href="food__labelling__scenario_8cpp.html" target="_top" xlink:title=" ">
<polygon fill="none" stroke="black" points="839.5,-0.5 839.5,-30.5 979.5,-30.5 979.5,-0.5 839.5,-0.5"/>
<text text-anchor="start" x="847.5" y="-18.5" font-family="Helvetica,sans-Serif" font-size="10.00">HealthGPS/food_labelling</text>
<text text-anchor="middle" x="909.5" y="-7.5" font-family="Helvetica,sans-Serif" font-size="10.00">_scenario.cpp</text>
</a>
</g>
</g>
<!-- Node10&#45;&gt;Node11 -->
<g id="edge12" class="edge">
<title>Node10&#45;&gt;Node11</title>
<path fill="none" stroke="midnightblue" d="M862.32,-60.31C872.82,-50.56 884.99,-39.26 894.34,-30.58"/>
<polygon fill="midnightblue" stroke="midnightblue" points="859.64,-58.03 854.69,-67.4 864.4,-63.16 859.64,-58.03"/>
</g>
<!-- Node12&#45;&gt;Node6 -->
<g id="edge16" class="edge">
<title>Node12&#45;&gt;Node6</title>
<path fill="none" stroke="midnightblue" d="M917.87,-66.97C797.47,-46.72 765.33,-46.63 648.5,-31 634.06,-29.07 618.54,-26.99 603.89,-25.02"/>
<polygon fill="midnightblue" stroke="midnightblue" points="917.4,-70.44 927.84,-68.66 918.57,-63.54 917.4,-70.44"/>
</g>
<!-- Node13 -->
<g id="node13" class="node">
<title>Node13</title>
<g id="a_node13"><a xlink:href="marketing__dynamic__scenario_8cpp.html" target="_top" xlink:title=" ">
<polygon fill="none" stroke="black" points="998,-0.5 998,-30.5 1129,-30.5 1129,-0.5 998,-0.5"/>
<text text-anchor="start" x="1006" y="-18.5" font-family="Helvetica,sans-Serif" font-size="10.00">HealthGPS/marketing</text>
<text text-anchor="middle" x="1063.5" y="-7.5" font-family="Helvetica,sans-Serif" font-size="10.00">_dynamic_scenario.cpp</text>
</a>
</g>
</g>
<!-- Node12&#45;&gt;Node13 -->
<g id="edge15" class="edge">
<title>Node12&#45;&gt;Node13</title>
<path fill="none" stroke="midnightblue" d="M1012.62,-60.6C1023.94,-50.78 1037.14,-39.34 1047.26,-30.58"/>
<polygon fill="midnightblue" stroke="midnightblue" points="1010.04,-58.2 1004.77,-67.4 1014.62,-63.49 1010.04,-58.2"/>
</g>
<!-- Node14&#45;&gt;Node6 -->
<g id="edge19" class="edge">
<title>Node14&#45;&gt;Node6</title>
<path fill="none" stroke="midnightblue" d="M301.02,-66.71C362.47,-53.83 449.43,-35.6 499.9,-25.01"/>
<polygon fill="midnightblue" stroke="midnightblue" points="300.08,-63.34 291.01,-68.81 301.51,-70.19 300.08,-63.34"/>
</g>
<!-- Node15 -->
<g id="node15" class="node">
<title>Node15</title>
<g id="a_node15"><a xlink:href="marketing__scenario_8cpp.html" target="_top" xlink:title=" ">
<polygon fill="none" stroke="black" points="3,-0.5 3,-30.5 124,-30.5 124,-0.5 3,-0.5"/>
<text text-anchor="start" x="11" y="-18.5" font-family="Helvetica,sans-Serif" font-size="10.00">HealthGPS/marketing</text>
<text text-anchor="middle" x="63.5" y="-7.5" font-family="Helvetica,sans-Serif" font-size="10.00">_scenario.cpp</text>
</a>
</g>
</g>
<!-- Node14&#45;&gt;Node15 -->
<g id="edge18" class="edge">
<title>Node14&#45;&gt;Node15</title>
<path fill="none" stroke="midnightblue" d="M184.72,-63.68C157.94,-53.26 124.6,-40.28 99.67,-30.58"/>
<polygon fill="midnightblue" stroke="midnightblue" points="183.67,-67.03 194.26,-67.4 186.21,-60.51 183.67,-67.03"/>
</g>
<!-- Node16&#45;&gt;Node6 -->
<g id="edge22" class="edge">
<title>Node16&#45;&gt;Node6</title>
<path fill="none" stroke="midnightblue" d="M413.92,-63.78C447.66,-51.18 491.49,-34.81 517.73,-25.01"/>
<polygon fill="midnightblue" stroke="midnightblue" points="412.4,-60.62 404.26,-67.4 414.85,-67.18 412.4,-60.62"/>
</g>
<!-- Node17 -->
<g id="node17" class="node">
<title>Node17</title>
<g id="a_node17"><a xlink:href="physical__activity__scenario_8cpp.html" target="_top" xlink:title=" ">
<polygon fill="none" stroke="black" points="142,-0.5 142,-30.5 267,-30.5 267,-0.5 142,-0.5"/>
<text text-anchor="start" x="150" y="-18.5" font-family="Helvetica,sans-Serif" font-size="10.00">HealthGPS/physical</text>
<text text-anchor="middle" x="204.5" y="-7.5" font-family="Helvetica,sans-Serif" font-size="10.00">_activity_scenario.cpp</text>
</a>
</g>
</g>
<!-- Node16&#45;&gt;Node17 -->
<g id="edge21" class="edge">
<title>Node16&#45;&gt;Node17</title>
<path fill="none" stroke="midnightblue" d="M321.75,-63.54C295.83,-53.14 263.66,-40.24 239.58,-30.58"/>
<polygon fill="midnightblue" stroke="midnightblue" points="320.76,-66.92 331.35,-67.4 323.37,-60.42 320.76,-66.92"/>
</g>
<!-- Node18&#45;&gt;Node6 -->
<g id="edge25" class="edge">
<title>Node18&#45;&gt;Node6</title>
<path fill="none" stroke="midnightblue" d="M522.01,-57.94C527.1,-46.54 532.9,-33.55 536.62,-25.19"/>
<polygon fill="midnightblue" stroke="midnightblue" points="518.67,-56.84 517.79,-67.4 525.06,-59.69 518.67,-56.84"/>
</g>
<!-- Node19 -->
<g id="node19" class="node">
<title>Node19</title>
<g id="a_node19"><a xlink:href="simple__policy__scenario_8cpp.html" target="_top" xlink:title=" ">
<polygon fill="none" stroke="black" points="285,-0.5 285,-30.5 424,-30.5 424,-0.5 285,-0.5"/>
<text text-anchor="start" x="293" y="-18.5" font-family="Helvetica,sans-Serif" font-size="10.00">HealthGPS/simple_policy</text>
<text text-anchor="middle" x="354.5" y="-7.5" font-family="Helvetica,sans-Serif" font-size="10.00">_scenario.cpp</text>
</a>
</g>
</g>
<!-- Node18&#45;&gt;Node19 -->
<g id="edge24" class="edge">
<title>Node18&#45;&gt;Node19</title>
<path fill="none" stroke="midnightblue" d="M468.13,-63.54C443.01,-53.14 411.84,-40.24 388.5,-30.58"/>
<polygon fill="midnightblue" stroke="midnightblue" points="466.86,-66.8 477.43,-67.4 469.53,-60.34 466.86,-66.8"/>
</g>
<!-- Node20&#45;&gt;Node4 -->
<g id="edge28" class="edge">
<title>Node20&#45;&gt;Node4</title>
<path fill="none" stroke="midnightblue" d="M1187.16,-68.27C1213.1,-55.4 1251.78,-36.21 1274.03,-25.17"/>
<polygon fill="midnightblue" stroke="midnightblue" points="1185.3,-65.29 1177.9,-72.87 1188.41,-71.56 1185.3,-65.29"/>
</g>
<!-- Node20&#45;&gt;Node6 -->
<g id="edge27" class="edge">
<title>Node20&#45;&gt;Node6</title>
<path fill="none" stroke="midnightblue" d="M1093.87,-71.6C1081.78,-69.95 1069.27,-68.35 1057.5,-67 876.2,-46.27 829.87,-51.15 648.5,-31 632.8,-29.26 615.85,-27.11 600.14,-25"/>
<polygon fill="midnightblue" stroke="midnightblue" points="1093.52,-75.09 1103.9,-72.99 1094.48,-68.15 1093.52,-75.09"/>
</g>
<!-- Node22 -->
<g id="node22" class="node">
<title>Node22</title>
<g id="a_node22"><a xlink:href="runtime__context_8h.html" target="_top" xlink:title=" ">
<polygon fill="none" stroke="black" points="1498,-408 1498,-427 1659,-427 1659,-408 1498,-408"/>
<text text-anchor="middle" x="1578.5" y="-415" font-family="Helvetica,sans-Serif" font-size="10.00">HealthGPS/runtime_context.h</text>
</a>
</g>
</g>
<!-- Node21&#45;&gt;Node22 -->
<g id="edge30" class="edge">
<title>Node21&#45;&gt;Node22</title>
<path fill="none" stroke="midnightblue" d="M1974.82,-473.54C1883.24,-460.83 1726.29,-439.03 1639.93,-427.03"/>
<polygon fill="midnightblue" stroke="midnightblue" points="1974.45,-477.03 1984.84,-474.94 1975.41,-470.09 1974.45,-477.03"/>
</g>
<!-- Node44 -->
<g id="node44" class="node">
<title>Node44</title>
<g id="a_node44"><a xlink:href="simulation_8h.html" target="_top" xlink:title=" ">
<polygon fill="none" stroke="black" points="1636.5,-207 1636.5,-226 1768.5,-226 1768.5,-207 1636.5,-207"/>
<text text-anchor="middle" x="1702.5" y="-214" font-family="Helvetica,sans-Serif" font-size="10.00">HealthGPS/simulation.h</text>
</a>
</g>
</g>
<!-- Node21&#45;&gt;Node44 -->
<g id="edge59" class="edge">
<title>Node21&#45;&gt;Node44</title>
<path fill="none" stroke="midnightblue" d="M2118.44,-483.15C2270.82,-480.02 2603.68,-459.21 2496.5,-335 2402.33,-225.87 1941.85,-216.39 1768.59,-216.76"/>
<polygon fill="midnightblue" stroke="midnightblue" points="2118.16,-479.65 2108.23,-483.34 2118.29,-486.65 2118.16,-479.65"/>
</g>
<!-- Node47 -->
<g id="node47" class="node">
<title>Node47</title>
<g id="a_node47"><a xlink:href="simulation__definition_8cpp.html" target="_top" xlink:title=" ">
<polygon fill="none" stroke="black" points="2544,-402.5 2544,-432.5 2667,-432.5 2667,-402.5 2544,-402.5"/>
<text text-anchor="start" x="2552" y="-420.5" font-family="Helvetica,sans-Serif" font-size="10.00">HealthGPS/simulation</text>
<text text-anchor="middle" x="2605.5" y="-409.5" font-family="Helvetica,sans-Serif" font-size="10.00">_definition.cpp</text>
</a>
</g>
</g>
<!-- Node21&#45;&gt;Node47 -->
<g id="edge64" class="edge">
<title>Node21&#45;&gt;Node47</title>
<path fill="none" stroke="midnightblue" d="M2118.1,-477.91C2212.61,-470.11 2384.04,-454.44 2529.5,-433 2534.15,-432.31 2538.95,-431.55 2543.77,-430.73"/>
<polygon fill="midnightblue" stroke="midnightblue" points="2117.77,-474.43 2108.09,-478.74 2118.34,-481.41 2117.77,-474.43"/>
</g>
<!-- Node23 -->
<g id="node23" class="node">
<title>Node23</title>
<g id="a_node23"><a xlink:href="analysis__module_8h.html" target="_top" xlink:title=" ">
<polygon fill="none" stroke="black" points="1202.5,-335.5 1202.5,-365.5 1314.5,-365.5 1314.5,-335.5 1202.5,-335.5"/>
<text text-anchor="start" x="1210.5" y="-353.5" font-family="Helvetica,sans-Serif" font-size="10.00">HealthGPS/analysis</text>
<text text-anchor="middle" x="1258.5" y="-342.5" font-family="Helvetica,sans-Serif" font-size="10.00">_module.h</text>
</a>
</g>
</g>
<!-- Node22&#45;&gt;Node23 -->
<g id="edge31" class="edge">
<title>Node22&#45;&gt;Node23</title>
<path fill="none" stroke="midnightblue" d="M1523.8,-406.06C1472.11,-396.1 1392.43,-380.51 1323.5,-366 1320.56,-365.38 1317.54,-364.74 1314.5,-364.08"/>
<polygon fill="midnightblue" stroke="midnightblue" points="1523.27,-409.52 1533.75,-407.97 1524.59,-402.65 1523.27,-409.52"/>
</g>
<!-- Node26 -->
<g id="node26" class="node">
<title>Node26</title>
<g id="a_node26"><a xlink:href="healthgps_8h.html" target="_top" xlink:title=" ">
<polygon fill="none" stroke="black" points="1436.5,-140 1436.5,-159 1564.5,-159 1564.5,-140 1436.5,-140"/>
<text text-anchor="middle" x="1500.5" y="-147" font-family="Helvetica,sans-Serif" font-size="10.00">HealthGPS/healthgps.h</text>
</a>
</g>
</g>
<!-- Node22&#45;&gt;Node26 -->
<g id="edge50" class="edge">
<title>Node22&#45;&gt;Node26</title>
<path fill="none" stroke="midnightblue" d="M1543.01,-403.91C1526.01,-395.87 1507.27,-383.61 1497.5,-366 1490.81,-353.95 1489.73,-346.38 1497.5,-335 1522.25,-298.73 1564.75,-335.27 1589.5,-299 1597.27,-287.62 1593.89,-281.06 1589.5,-268 1573.53,-220.45 1529.84,-176.84 1510.24,-159"/>
<polygon fill="midnightblue" stroke="midnightblue" points="1541.64,-407.13 1552.2,-407.94 1544.45,-400.72 1541.64,-407.13"/>
</g>
<!-- Node29 -->
<g id="node29" class="node">
<title>Node29</title>
<g id="a_node29"><a xlink:href="default__cancer__model_8cpp.html" target="_top" xlink:title=" ">
<polygon fill="none" stroke="black" points="1507,-335.5 1507,-365.5 1650,-365.5 1650,-335.5 1507,-335.5"/>
<text text-anchor="start" x="1515" y="-353.5" font-family="Helvetica,sans-Serif" font-size="10.00">HealthGPS/default_cancer</text>
<text text-anchor="middle" x="1578.5" y="-342.5" font-family="Helvetica,sans-Serif" font-size="10.00">_model.cpp</text>
</a>
</g>
</g>
<!-- Node22&#45;&gt;Node29 -->
<g id="edge40" class="edge">
<title>Node22&#45;&gt;Node29</title>
<path fill="none" stroke="midnightblue" d="M1578.5,-397.41C1578.5,-387.22 1578.5,-374.9 1578.5,-365.59"/>
<polygon fill="midnightblue" stroke="midnightblue" points="1575,-397.73 1578.5,-407.73 1582,-397.73 1575,-397.73"/>
</g>
<!-- Node30 -->
<g id="node30" class="node">
<title>Node30</title>
<g id="a_node30"><a xlink:href="default__disease__model_8cpp.html" target="_top" xlink:title=" ">
<polygon fill="none" stroke="black" points="1668,-335.5 1668,-365.5 1817,-365.5 1817,-335.5 1668,-335.5"/>
<text text-anchor="start" x="1676" y="-353.5" font-family="Helvetica,sans-Serif" font-size="10.00">HealthGPS/default_disease</text>
<text text-anchor="middle" x="1742.5" y="-342.5" font-family="Helvetica,sans-Serif" font-size="10.00">_model.cpp</text>
</a>
</g>
</g>
<!-- Node22&#45;&gt;Node30 -->
<g id="edge41" class="edge">
<title>Node22&#45;&gt;Node30</title>
<path fill="none" stroke="midnightblue" d="M1609.89,-404.06C1637.67,-393.05 1678.18,-376.99 1707.11,-365.53"/>
<polygon fill="midnightblue" stroke="midnightblue" points="1608.28,-400.93 1600.28,-407.87 1610.86,-407.44 1608.28,-400.93"/>
</g>
<!-- Node31 -->
<g id="node31" class="node">
<title>Node31</title>
<g id="a_node31"><a xlink:href="demographic_8h.html" target="_top" xlink:title=" ">
<polygon fill="none" stroke="black" points="1040.5,-341 1040.5,-360 1184.5,-360 1184.5,-341 1040.5,-341"/>
<text text-anchor="middle" x="1112.5" y="-348" font-family="Helvetica,sans-Serif" font-size="10.00">HealthGPS/demographic.h</text>
</a>
</g>
</g>
<!-- Node22&#45;&gt;Node31 -->
<g id="edge42" class="edge">
<title>Node22&#45;&gt;Node31</title>
<path fill="none" stroke="midnightblue" d="M1495.36,-406.73C1417.28,-397.29 1297.26,-382.08 1193.5,-366 1181.92,-364.21 1169.45,-362.07 1157.85,-360"/>
<polygon fill="midnightblue" stroke="midnightblue" points="1495.27,-410.25 1505.62,-407.97 1496.11,-403.3 1495.27,-410.25"/>
</g>
<!-- Node33 -->
<g id="node33" class="node">
<title>Node33</title>
<g id="a_node33"><a xlink:href="HealthGPS_2disease_8h.html" target="_top" xlink:title=" ">
<polygon fill="none" stroke="black" points="903.5,-341 903.5,-360 1021.5,-360 1021.5,-341 903.5,-341"/>
<text text-anchor="middle" x="962.5" y="-348" font-family="Helvetica,sans-Serif" font-size="10.00">HealthGPS/disease.h</text>
</a>
</g>
</g>
<!-- Node22&#45;&gt;Node33 -->
<g id="edge45" class="edge">
<title>Node22&#45;&gt;Node33</title>
<path fill="none" stroke="midnightblue" d="M1487.69,-411.33C1378.85,-404.38 1191.15,-390.06 1031.5,-366 1020.97,-364.41 1009.63,-362.23 999.24,-360.04"/>
<polygon fill="midnightblue" stroke="midnightblue" points="1487.77,-414.84 1497.98,-411.97 1488.22,-407.85 1487.77,-414.84"/>
</g>
<!-- Node35 -->
<g id="node35" class="node">
<title>Node35</title>
<g id="a_node35"><a xlink:href="energy__balance__hierarchical__model_8cpp.html" target="_top" xlink:title=" ">
<polygon fill="none" stroke="black" points="1835,-335.5 1835,-365.5 1984,-365.5 1984,-335.5 1835,-335.5"/>
<text text-anchor="start" x="1843" y="-353.5" font-family="Helvetica,sans-Serif" font-size="10.00">HealthGPS/energy_balance</text>
<text text-anchor="middle" x="1909.5" y="-342.5" font-family="Helvetica,sans-Serif" font-size="10.00">_hierarchical_model.cpp</text>
</a>
</g>
</g>
<!-- Node22&#45;&gt;Node35 -->
<g id="edge48" class="edge">
<title>Node22&#45;&gt;Node35</title>
<path fill="none" stroke="midnightblue" d="M1632.17,-405.96C1688.11,-394.98 1776.08,-377.7 1837.91,-365.56"/>
<polygon fill="midnightblue" stroke="midnightblue" points="1631.25,-402.57 1622.11,-407.94 1632.6,-409.44 1631.25,-402.57"/>
</g>
<!-- Node36 -->
<g id="node36" class="node">
<title>Node36</title>
<g id="a_node36"><a xlink:href="energy__balance__model_8cpp.html" target="_top" xlink:title=" ">
<polygon fill="none" stroke="black" points="2002,-335.5 2002,-365.5 2151,-365.5 2151,-335.5 2002,-335.5"/>
<text text-anchor="start" x="2010" y="-353.5" font-family="Helvetica,sans-Serif" font-size="10.00">HealthGPS/energy_balance</text>
<text text-anchor="middle" x="2076.5" y="-342.5" font-family="Helvetica,sans-Serif" font-size="10.00">_model.cpp</text>
</a>
</g>
</g>
<!-- Node22&#45;&gt;Node36 -->
<g id="edge49" class="edge">
<title>Node22&#45;&gt;Node36</title>
<path fill="none" stroke="midnightblue" d="M1668.65,-406.89C1752.84,-397.6 1881.9,-382.53 1993.5,-366 1996.25,-365.59 1999.05,-365.17 2001.87,-364.73"/>
<polygon fill="midnightblue" stroke="midnightblue" points="1668.17,-403.43 1658.61,-408 1668.93,-410.38 1668.17,-403.43"/>
</g>
<!-- Node37 -->
<g id="node37" class="node">
<title>Node37</title>
<g id="a_node37"><a xlink:href="hierarchical__model__static_8cpp.html" target="_top" xlink:title=" ">
<polygon fill="none" stroke="black" points="2169.5,-335.5 2169.5,-365.5 2297.5,-365.5 2297.5,-335.5 2169.5,-335.5"/>
<text text-anchor="start" x="2177.5" y="-353.5" font-family="Helvetica,sans-Serif" font-size="10.00">HealthGPS/hierarchical</text>
<text text-anchor="middle" x="2233.5" y="-342.5" font-family="Helvetica,sans-Serif" font-size="10.00">_model_static.cpp</text>
</a>
</g>
</g>
<!-- Node22&#45;&gt;Node37 -->
<g id="edge51" class="edge">
<title>Node22&#45;&gt;Node37</title>
<path fill="none" stroke="midnightblue" d="M1669.47,-411.7C1784.3,-404.93 1987.74,-390.58 2160.5,-366 2163.44,-365.58 2166.45,-365.12 2169.47,-364.63"/>
<polygon fill="midnightblue" stroke="midnightblue" points="1669.09,-408.22 1659.31,-412.29 1669.5,-415.2 1669.09,-408.22"/>
</g>
<!-- Node38 -->
<g id="node38" class="node">
<title>Node38</title>
<g id="a_node38"><a xlink:href="riskfactor__adjustment_8h.html" target="_top" xlink:title=" ">
<polygon fill="none" stroke="black" points="1332.5,-335.5 1332.5,-365.5 1450.5,-365.5 1450.5,-335.5 1332.5,-335.5"/>
<text text-anchor="start" x="1340.5" y="-353.5" font-family="Helvetica,sans-Serif" font-size="10.00">HealthGPS/riskfactor</text>
<text text-anchor="middle" x="1391.5" y="-342.5" font-family="Helvetica,sans-Serif" font-size="10.00">_adjustment.h</text>
</a>
</g>
</g>
<!-- Node22&#45;&gt;Node38 -->
<g id="edge52" class="edge">
<title>Node22&#45;&gt;Node38</title>
<path fill="none" stroke="midnightblue" d="M1543.95,-404.49C1512.25,-393.47 1465.27,-377.14 1431.86,-365.53"/>
<polygon fill="midnightblue" stroke="midnightblue" points="1543.07,-407.89 1553.67,-407.87 1545.37,-401.28 1543.07,-407.89"/>
</g>
<!-- Node42 -->
<g id="node42" class="node">
<title>Node42</title>
<g id="a_node42"><a xlink:href="runtime__context_8cpp.html" target="_top" xlink:title=" ">
<polygon fill="none" stroke="black" points="2315.5,-341 2315.5,-360 2487.5,-360 2487.5,-341 2315.5,-341"/>
<text text-anchor="middle" x="2401.5" y="-348" font-family="Helvetica,sans-Serif" font-size="10.00">HealthGPS/runtime_context.cpp</text>
</a>
</g>
</g>
<!-- Node22&#45;&gt;Node42 -->
<g id="edge57" class="edge">
<title>Node22&#45;&gt;Node42</title>
<path fill="none" stroke="midnightblue" d="M1669.33,-412.6C1807.3,-406.14 2077.85,-391.34 2306.5,-366 2320.93,-364.4 2336.52,-362.21 2350.82,-360.02"/>
<polygon fill="midnightblue" stroke="midnightblue" points="1669.05,-409.11 1659.22,-413.07 1669.37,-416.1 1669.05,-409.11"/>
</g>
<!-- Node43 -->
<g id="node43" class="node">
<title>Node43</title>
<g id="a_node43"><a xlink:href="ses__noise__module_8cpp.html" target="_top" xlink:title=" ">
<polygon fill="none" stroke="black" points="766,-335.5 766,-365.5 885,-365.5 885,-335.5 766,-335.5"/>
<text text-anchor="start" x="774" y="-353.5" font-family="Helvetica,sans-Serif" font-size="10.00">HealthGPS/ses_noise</text>
<text text-anchor="middle" x="825.5" y="-342.5" font-family="Helvetica,sans-Serif" font-size="10.00">_module.cpp</text>
</a>
</g>
</g>
<!-- Node22&#45;&gt;Node43 -->
<g id="edge58" class="edge">
<title>Node22&#45;&gt;Node43</title>
<path fill="none" stroke="midnightblue" d="M1487.82,-413.66C1356.45,-408.66 1105.79,-395.86 894.5,-366 891.47,-365.57 888.37,-365.09 885.25,-364.57"/>
<polygon fill="midnightblue" stroke="midnightblue" points="1487.71,-417.15 1497.84,-414.03 1487.97,-410.16 1487.71,-417.15"/>
</g>
<!-- Node24 -->
<g id="node24" class="node">
<title>Node24</title>
<g id="a_node24"><a xlink:href="analysis__module_8cpp.html" target="_top" xlink:title=" ">
<polygon fill="none" stroke="black" points="1150.5,-268.5 1150.5,-298.5 1262.5,-298.5 1262.5,-268.5 1150.5,-268.5"/>
<text text-anchor="start" x="1158.5" y="-286.5" font-family="Helvetica,sans-Serif" font-size="10.00">HealthGPS/analysis</text>
<text text-anchor="middle" x="1206.5" y="-275.5" font-family="Helvetica,sans-Serif" font-size="10.00">_module.cpp</text>
</a>
</g>
</g>
<!-- Node23&#45;&gt;Node24 -->
<g id="edge32" class="edge">
<title>Node23&#45;&gt;Node24</title>
<path fill="none" stroke="midnightblue" d="M1240.86,-327.45C1233.22,-317.9 1224.5,-307 1217.76,-298.58"/>
<polygon fill="midnightblue" stroke="midnightblue" points="1238.24,-329.77 1247.22,-335.4 1243.7,-325.4 1238.24,-329.77"/>
</g>
<!-- Node25 -->
<g id="node25" class="node">
<title>Node25</title>
<g id="a_node25"><a xlink:href="simulation__module_8h.html" target="_top" xlink:title=" ">
<polygon fill="none" stroke="black" points="1213,-201.5 1213,-231.5 1336,-231.5 1336,-201.5 1213,-201.5"/>
<text text-anchor="start" x="1221" y="-219.5" font-family="Helvetica,sans-Serif" font-size="10.00">HealthGPS/simulation</text>
<text text-anchor="middle" x="1274.5" y="-208.5" font-family="Helvetica,sans-Serif" font-size="10.00">_module.h</text>
</a>
</g>
</g>
<!-- Node23&#45;&gt;Node25 -->
<g id="edge33" class="edge">
<title>Node23&#45;&gt;Node25</title>
<path fill="none" stroke="midnightblue" d="M1265.85,-325.32C1268.06,-317.05 1270.24,-307.69 1271.5,-299 1274.9,-275.6 1275.14,-248.05 1274.9,-231.72"/>
<polygon fill="midnightblue" stroke="midnightblue" points="1262.44,-324.51 1263.09,-335.08 1269.18,-326.41 1262.44,-324.51"/>
</g>
<!-- Node25&#45;&gt;Node3 -->
<g id="edge34" class="edge">
<title>Node25&#45;&gt;Node3</title>
<path fill="none" stroke="midnightblue" d="M1274.91,-191.01C1275.87,-174.44 1278.53,-152.32 1285.5,-134 1291.66,-117.8 1303.88,-101.63 1311.87,-92.1"/>
<polygon fill="midnightblue" stroke="midnightblue" points="1271.39,-191.34 1274.48,-201.47 1278.39,-191.63 1271.39,-191.34"/>
</g>
<!-- Node25&#45;&gt;Node26 -->
<g id="edge35" class="edge">
<title>Node25&#45;&gt;Node26</title>
<path fill="none" stroke="midnightblue" d="M1333.01,-198.67C1377.18,-185.97 1435.95,-169.06 1470.85,-159.03"/>
<polygon fill="midnightblue" stroke="midnightblue" points="1331.9,-195.35 1323.26,-201.48 1333.84,-202.08 1331.9,-195.35"/>
</g>
<!-- Node28 -->
<g id="node28" class="node">
<title>Node28</title>
<g id="a_node28"><a xlink:href="simulation__module_8cpp.html" target="_top" xlink:title=" ">
<polygon fill="none" stroke="black" points="1295,-134.5 1295,-164.5 1418,-164.5 1418,-134.5 1295,-134.5"/>
<text text-anchor="start" x="1303" y="-152.5" font-family="Helvetica,sans-Serif" font-size="10.00">HealthGPS/simulation</text>
<text text-anchor="middle" x="1356.5" y="-141.5" font-family="Helvetica,sans-Serif" font-size="10.00">_module.cpp</text>
</a>
</g>
</g>
<!-- Node25&#45;&gt;Node28 -->
<g id="edge39" class="edge">
<title>Node25&#45;&gt;Node28</title>
<path fill="none" stroke="midnightblue" d="M1300.15,-195.17C1312.69,-185.23 1327.47,-173.51 1338.74,-164.58"/>
<polygon fill="midnightblue" stroke="midnightblue" points="1297.96,-192.44 1292.29,-201.4 1302.3,-197.93 1297.96,-192.44"/>
</g>
<!-- Node26&#45;&gt;Node3 -->
<g id="edge36" class="edge">
<title>Node26&#45;&gt;Node3</title>
<path fill="none" stroke="midnightblue" d="M1466.91,-136.44C1431,-123.54 1374.98,-103.42 1343.35,-92.06"/>
<polygon fill="midnightblue" stroke="midnightblue" points="1465.87,-139.78 1476.46,-139.87 1468.24,-133.19 1465.87,-139.78"/>
</g>
<!-- Node26&#45;&gt;Node20 -->
<g id="edge38" class="edge">
<title>Node26&#45;&gt;Node20</title>
<path fill="none" stroke="midnightblue" d="M1447.05,-137.99C1440.13,-136.64 1433.15,-135.28 1426.5,-134 1349.19,-119.09 1259.17,-102.07 1206.17,-92.09"/>
<polygon fill="midnightblue" stroke="midnightblue" points="1446.59,-141.46 1457.07,-139.95 1447.93,-134.59 1446.59,-141.46"/>
</g>
<!-- Node27 -->
<g id="node27" class="node">
<title>Node27</title>
<g id="a_node27"><a xlink:href="healthgps_8cpp.html" target="_top" xlink:title=" ">
<polygon fill="none" stroke="black" points="1430.5,-73 1430.5,-92 1570.5,-92 1570.5,-73 1430.5,-73"/>
<text text-anchor="middle" x="1500.5" y="-80" font-family="Helvetica,sans-Serif" font-size="10.00">HealthGPS/healthgps.cpp</text>
</a>
</g>
</g>
<!-- Node26&#45;&gt;Node27 -->
<g id="edge37" class="edge">
<title>Node26&#45;&gt;Node27</title>
<path fill="none" stroke="midnightblue" d="M1500.5,-129.54C1500.5,-117.17 1500.5,-101.62 1500.5,-92.13"/>
<polygon fill="midnightblue" stroke="midnightblue" points="1497,-129.73 1500.5,-139.73 1504,-129.73 1497,-129.73"/>
</g>
<!-- Node31&#45;&gt;Node25 -->
<g id="edge44" class="edge">
<title>Node31&#45;&gt;Node25</title>
<path fill="none" stroke="midnightblue" d="M1114.64,-330.61C1117.65,-312.37 1124.79,-285.06 1141.5,-268 1160.59,-248.5 1187.98,-236.42 1212.95,-229"/>
<polygon fill="midnightblue" stroke="midnightblue" points="1111.16,-330.24 1113.25,-340.63 1118.09,-331.21 1111.16,-330.24"/>
</g>
<!-- Node32 -->
<g id="node32" class="node">
<title>Node32</title>
<g id="a_node32"><a xlink:href="demographic_8cpp.html" target="_top" xlink:title=" ">
<polygon fill="none" stroke="black" points="939,-274 939,-293 1094,-293 1094,-274 939,-274"/>
<text text-anchor="middle" x="1016.5" y="-281" font-family="Helvetica,sans-Serif" font-size="10.00">HealthGPS/demographic.cpp</text>
</a>
</g>
</g>
<!-- Node31&#45;&gt;Node32 -->
<g id="edge43" class="edge">
<title>Node31&#45;&gt;Node32</title>
<path fill="none" stroke="midnightblue" d="M1091.22,-335.09C1072.23,-322.24 1045.05,-303.83 1029.24,-293.13"/>
<polygon fill="midnightblue" stroke="midnightblue" points="1089.31,-338.03 1099.55,-340.73 1093.23,-332.23 1089.31,-338.03"/>
</g>
<!-- Node33&#45;&gt;Node25 -->
<g id="edge47" class="edge">
<title>Node33&#45;&gt;Node25</title>
<path fill="none" stroke="midnightblue" d="M912.64,-338.74C862.2,-327.36 790.54,-309.61 782.5,-299 774.18,-288.02 773.27,-278.23 782.5,-268 810.83,-236.61 1086.91,-223.63 1212.66,-219.31"/>
<polygon fill="midnightblue" stroke="midnightblue" points="911.9,-342.16 922.42,-340.93 913.42,-335.33 911.9,-342.16"/>
</g>
<!-- Node34 -->
<g id="node34" class="node">
<title>Node34</title>
<g id="a_node34"><a xlink:href="disease_8cpp.html" target="_top" xlink:title=" ">
<polygon fill="none" stroke="black" points="792,-274 792,-293 921,-293 921,-274 792,-274"/>
<text text-anchor="middle" x="856.5" y="-281" font-family="Helvetica,sans-Serif" font-size="10.00">HealthGPS/disease.cpp</text>
</a>
</g>
</g>
<!-- Node33&#45;&gt;Node34 -->
<g id="edge46" class="edge">
<title>Node33&#45;&gt;Node34</title>
<path fill="none" stroke="midnightblue" d="M939.58,-335.44C918.58,-322.57 888.18,-303.93 870.57,-293.13"/>
<polygon fill="midnightblue" stroke="midnightblue" points="937.85,-338.49 948.2,-340.73 941.51,-332.52 937.85,-338.49"/>
</g>
<!-- Node39 -->
<g id="node39" class="node">
<title>Node39</title>
<g id="a_node39"><a xlink:href="riskfactor_8h.html" target="_top" xlink:title=" ">
<polygon fill="none" stroke="black" points="1318.5,-274 1318.5,-293 1444.5,-293 1444.5,-274 1318.5,-274"/>
<text text-anchor="middle" x="1381.5" y="-281" font-family="Helvetica,sans-Serif" font-size="10.00">HealthGPS/riskfactor.h</text>
</a>
</g>
</g>
<!-- Node38&#45;&gt;Node39 -->
<g id="edge53" class="edge">
<title>Node38&#45;&gt;Node39</title>
<path fill="none" stroke="midnightblue" d="M1387.77,-325.25C1386.04,-314.02 1384.1,-301.38 1382.84,-293.19"/>
<polygon fill="midnightblue" stroke="midnightblue" points="1384.35,-326.04 1389.33,-335.4 1391.27,-324.98 1384.35,-326.04"/>
</g>
<!-- Node41 -->
<g id="node41" class="node">
<title>Node41</title>
<g id="a_node41"><a xlink:href="riskfactor__adjustment_8cpp.html" target="_top" xlink:title=" ">
<polygon fill="none" stroke="black" points="1462.5,-268.5 1462.5,-298.5 1580.5,-298.5 1580.5,-268.5 1462.5,-268.5"/>
<text text-anchor="start" x="1470.5" y="-286.5" font-family="Helvetica,sans-Serif" font-size="10.00">HealthGPS/riskfactor</text>
<text text-anchor="middle" x="1521.5" y="-275.5" font-family="Helvetica,sans-Serif" font-size="10.00">_adjustment.cpp</text>
</a>
</g>
</g>
<!-- Node38&#45;&gt;Node41 -->
<g id="edge56" class="edge">
<title>Node38&#45;&gt;Node41</title>
<path fill="none" stroke="midnightblue" d="M1428.79,-330.85C1449.35,-320.58 1474.45,-308.03 1493.35,-298.58"/>
<polygon fill="midnightblue" stroke="midnightblue" points="1427.09,-327.79 1419.71,-335.4 1430.22,-334.05 1427.09,-327.79"/>
</g>
<!-- Node39&#45;&gt;Node25 -->
<g id="edge55" class="edge">
<title>Node39&#45;&gt;Node25</title>
<path fill="none" stroke="midnightblue" d="M1358.38,-268.45C1340.43,-257.55 1315.66,-242.5 1297.69,-231.59"/>
<polygon fill="midnightblue" stroke="midnightblue" points="1356.71,-271.53 1367.07,-273.73 1360.34,-265.55 1356.71,-271.53"/>
</g>
<!-- Node40 -->
<g id="node40" class="node">
<title>Node40</title>
<g id="a_node40"><a xlink:href="riskfactor_8cpp.html" target="_top" xlink:title=" ">
<polygon fill="none" stroke="black" points="1354,-207 1354,-226 1491,-226 1491,-207 1354,-207"/>
<text text-anchor="middle" x="1422.5" y="-214" font-family="Helvetica,sans-Serif" font-size="10.00">HealthGPS/riskfactor.cpp</text>
</a>
</g>
</g>
<!-- Node39&#45;&gt;Node40 -->
<g id="edge54" class="edge">
<title>Node39&#45;&gt;Node40</title>
<path fill="none" stroke="midnightblue" d="M1392.52,-265.03C1400.45,-252.45 1410.83,-236.01 1417.06,-226.13"/>
<polygon fill="midnightblue" stroke="midnightblue" points="1389.4,-263.41 1387.03,-273.73 1395.32,-267.14 1389.4,-263.41"/>
</g>
<!-- Node44&#45;&gt;Node26 -->
<g id="edge60" class="edge">
<title>Node44&#45;&gt;Node26</title>
<path fill="none" stroke="midnightblue" d="M1666.03,-203.77C1626.01,-190.89 1562.72,-170.52 1527.11,-159.06"/>
<polygon fill="midnightblue" stroke="midnightblue" points="1665.08,-207.14 1675.68,-206.87 1667.23,-200.47 1665.08,-207.14"/>
</g>
<!-- Node45 -->
<g id="node45" class="node">
<title>Node45</title>
<g id="a_node45"><a xlink:href="modelrunner_8h.html" target="_top" xlink:title=" ">
<polygon fill="none" stroke="black" points="1613.5,-140 1613.5,-159 1755.5,-159 1755.5,-140 1613.5,-140"/>
<text text-anchor="middle" x="1684.5" y="-147" font-family="Helvetica,sans-Serif" font-size="10.00">HealthGPS/modelrunner.h</text>
</a>
</g>
</g>
<!-- Node44&#45;&gt;Node45 -->
<g id="edge61" class="edge">
<title>Node44&#45;&gt;Node45</title>
<path fill="none" stroke="midnightblue" d="M1697.35,-196.91C1693.91,-184.49 1689.54,-168.72 1686.89,-159.13"/>
<polygon fill="midnightblue" stroke="midnightblue" points="1694.03,-198.03 1700.07,-206.73 1700.78,-196.16 1694.03,-198.03"/>
</g>
<!-- Node45&#45;&gt;Node3 -->
<g id="edge62" class="edge">
<title>Node45&#45;&gt;Node3</title>
<path fill="none" stroke="midnightblue" d="M1626.17,-138.11C1554.33,-125.32 1433.65,-103.83 1367.12,-91.98"/>
<polygon fill="midnightblue" stroke="midnightblue" points="1625.95,-141.63 1636.41,-139.94 1627.18,-134.74 1625.95,-141.63"/>
</g>
<!-- Node46 -->
<g id="node46" class="node">
<title>Node46</title>
<g id="a_node46"><a xlink:href="modelrunner_8cpp.html" target="_top" xlink:title=" ">
<polygon fill="none" stroke="black" points="1608,-73 1608,-92 1761,-92 1761,-73 1608,-73"/>
<text text-anchor="middle" x="1684.5" y="-80" font-family="Helvetica,sans-Serif" font-size="10.00">HealthGPS/modelrunner.cpp</text>
</a>
</g>
</g>
<!-- Node45&#45;&gt;Node46 -->
<g id="edge63" class="edge">
<title>Node45&#45;&gt;Node46</title>
<path fill="none" stroke="midnightblue" d="M1684.5,-129.54C1684.5,-117.17 1684.5,-101.62 1684.5,-92.13"/>
<polygon fill="midnightblue" stroke="midnightblue" points="1681,-129.73 1684.5,-139.73 1688,-129.73 1681,-129.73"/>
</g>
</g>
</svg>
