<?xml version="1.0" encoding="UTF-8" standalone="no"?>
<!DOCTYPE svg PUBLIC "-//W3C//DTD SVG 1.1//EN"
 "http://www.w3.org/Graphics/SVG/1.1/DTD/svg11.dtd">
<!-- Generated by graphviz version 2.43.0 (0)
 -->
<!-- Title: HealthGPS/settings.h Pages: 1 -->
<svg width="2627pt" height="598pt"
 viewBox="0.00 0.00 2626.50 598.00" xmlns="http://www.w3.org/2000/svg" xmlns:xlink="http://www.w3.org/1999/xlink">
<g id="graph0" class="graph" transform="scale(1 1) rotate(0) translate(4 594)">
<title>HealthGPS/settings.h</title>
<!-- Node1 -->
<g id="node1" class="node">
<title>Node1</title>
<g id="a_node1"><a xlink:title=" ">
<polygon fill="#bfbfbf" stroke="black" points="1096,-570.5 1096,-589.5 1215,-589.5 1215,-570.5 1096,-570.5"/>
<text text-anchor="middle" x="1155.5" y="-577.5" font-family="Helvetica,sans-Serif" font-size="10.00">HealthGPS/settings.h</text>
</a>
</g>
</g>
<!-- Node2 -->
<g id="node2" class="node">
<title>Node2</title>
<g id="a_node2"><a xlink:href="modelinput_8h.html" target="_top" xlink:title=" ">
<polygon fill="none" stroke="black" points="1011.5,-514.5 1011.5,-533.5 1147.5,-533.5 1147.5,-514.5 1011.5,-514.5"/>
<text text-anchor="middle" x="1079.5" y="-521.5" font-family="Helvetica,sans-Serif" font-size="10.00">HealthGPS/modelinput.h</text>
</a>
</g>
</g>
<!-- Node1&#45;&gt;Node2 -->
<g id="edge1" class="edge">
<title>Node1&#45;&gt;Node2</title>
<path fill="none" stroke="midnightblue" d="M1134.92,-564.38C1121.19,-554.62 1103.57,-542.11 1091.93,-533.83"/>
<polygon fill="midnightblue" stroke="midnightblue" points="1133.11,-567.38 1143.29,-570.32 1137.16,-561.68 1133.11,-567.38"/>
</g>
<!-- Node43 -->
<g id="node43" class="node">
<title>Node43</title>
<g id="a_node43"><a xlink:href="settings_8cpp.html" target="_top" xlink:title=" ">
<polygon fill="none" stroke="black" points="1166,-514.5 1166,-533.5 1297,-533.5 1297,-514.5 1166,-514.5"/>
<text text-anchor="middle" x="1231.5" y="-521.5" font-family="Helvetica,sans-Serif" font-size="10.00">HealthGPS/settings.cpp</text>
</a>
</g>
</g>
<!-- Node1&#45;&gt;Node43 -->
<g id="edge70" class="edge">
<title>Node1&#45;&gt;Node43</title>
<path fill="none" stroke="midnightblue" d="M1176.08,-564.38C1189.81,-554.62 1207.43,-542.11 1219.07,-533.83"/>
<polygon fill="midnightblue" stroke="midnightblue" points="1173.84,-561.68 1167.71,-570.32 1177.89,-567.38 1173.84,-561.68"/>
</g>
<!-- Node3 -->
<g id="node3" class="node">
<title>Node3</title>
<g id="a_node3"><a xlink:href="analysis__module_8h.html" target="_top" xlink:title=" ">
<polygon fill="none" stroke="black" points="1149.5,-313.5 1149.5,-343.5 1261.5,-343.5 1261.5,-313.5 1149.5,-313.5"/>
<text text-anchor="start" x="1157.5" y="-331.5" font-family="Helvetica,sans-Serif" font-size="10.00">HealthGPS/analysis</text>
<text text-anchor="middle" x="1205.5" y="-320.5" font-family="Helvetica,sans-Serif" font-size="10.00">_module.h</text>
</a>
</g>
</g>
<!-- Node2&#45;&gt;Node3 -->
<g id="edge2" class="edge">
<title>Node2&#45;&gt;Node3</title>
<path fill="none" stroke="midnightblue" d="M1157.54,-513.9C1179.14,-507.38 1200.27,-496.4 1213.5,-478 1242.89,-437.12 1222.87,-372.36 1211.65,-343.81"/>
<polygon fill="midnightblue" stroke="midnightblue" points="1156.35,-510.6 1147.61,-516.59 1158.18,-517.36 1156.35,-510.6"/>
</g>
<!-- Node6 -->
<g id="node6" class="node">
<title>Node6</title>
<g id="a_node6"><a xlink:href="HealthGPS_2api_8h.html" target="_top" xlink:title=" ">
<polygon fill="none" stroke="black" points="1441,-56.5 1441,-75.5 1536,-75.5 1536,-56.5 1441,-56.5"/>
<text text-anchor="middle" x="1488.5" y="-63.5" font-family="Helvetica,sans-Serif" font-size="10.00">HealthGPS/api.h</text>
</a>
</g>
</g>
<!-- Node2&#45;&gt;Node6 -->
<g id="edge14" class="edge">
<title>Node2&#45;&gt;Node6</title>
<path fill="none" stroke="midnightblue" d="M1157.19,-514.02C1157.3,-514.02 1157.4,-514.01 1157.5,-514 1593.43,-480.92 1705.12,-517.63 2140.5,-478 2355.12,-458.46 2618.5,-612.01 2618.5,-396.5 2618.5,-396.5 2618.5,-396.5 2618.5,-193.5 2618.5,-138.16 1751.41,-82.71 1536.33,-69.8"/>
<polygon fill="midnightblue" stroke="midnightblue" points="1157.21,-510.51 1147.53,-514.83 1157.79,-517.49 1157.21,-510.51"/>
</g>
<!-- Node10 -->
<g id="node10" class="node">
<title>Node10</title>
<g id="a_node10"><a xlink:href="configuration_8h.html" target="_top" xlink:title=" ">
<polygon fill="none" stroke="black" points="46.5,-56.5 46.5,-75.5 232.5,-75.5 232.5,-56.5 46.5,-56.5"/>
<text text-anchor="middle" x="139.5" y="-63.5" font-family="Helvetica,sans-Serif" font-size="10.00">HealthGPS.Console/configuration.h</text>
</a>
</g>
</g>
<!-- Node2&#45;&gt;Node10 -->
<g id="edge69" class="edge">
<title>Node2&#45;&gt;Node10</title>
<path fill="none" stroke="midnightblue" d="M1000.93,-521.81C756.45,-517.08 25.5,-494.73 25.5,-396.5 25.5,-396.5 25.5,-396.5 25.5,-193.5 25.5,-136.15 90.97,-93.07 122.68,-75.57"/>
<polygon fill="midnightblue" stroke="midnightblue" points="1001.09,-525.31 1011.16,-522 1001.22,-518.32 1001.09,-525.31"/>
</g>
<!-- Node13 -->
<g id="node13" class="node">
<title>Node13</title>
<g id="a_node13"><a xlink:href="converter_8h.html" target="_top" xlink:title=" ">
<polygon fill="none" stroke="black" points="967.5,-319 967.5,-338 1093.5,-338 1093.5,-319 967.5,-319"/>
<text text-anchor="middle" x="1030.5" y="-326" font-family="Helvetica,sans-Serif" font-size="10.00">HealthGPS/converter.h</text>
</a>
</g>
</g>
<!-- Node2&#45;&gt;Node13 -->
<g id="edge15" class="edge">
<title>Node2&#45;&gt;Node13</title>
<path fill="none" stroke="midnightblue" d="M1064.83,-506.67C1058.43,-498.6 1051.48,-488.39 1047.5,-478 1028.27,-427.84 1029.02,-361.71 1030.02,-338.23"/>
<polygon fill="midnightblue" stroke="midnightblue" points="1062.29,-509.08 1071.41,-514.48 1067.65,-504.58 1062.29,-509.08"/>
</g>
<!-- Node17 -->
<g id="node17" class="node">
<title>Node17</title>
<g id="a_node17"><a xlink:href="demographic_8h.html" target="_top" xlink:title=" ">
<polygon fill="none" stroke="black" points="767.5,-319 767.5,-338 911.5,-338 911.5,-319 767.5,-319"/>
<text text-anchor="middle" x="839.5" y="-326" font-family="Helvetica,sans-Serif" font-size="10.00">HealthGPS/demographic.h</text>
</a>
</g>
</g>
<!-- Node2&#45;&gt;Node17 -->
<g id="edge21" class="edge">
<title>Node2&#45;&gt;Node17</title>
<path fill="none" stroke="midnightblue" d="M1034.31,-511.65C984.87,-496.86 906.88,-466.13 863.5,-411 845.99,-388.74 841.24,-354.03 839.97,-338.06"/>
<polygon fill="midnightblue" stroke="midnightblue" points="1033.53,-515.07 1044.1,-514.49 1035.47,-508.34 1033.53,-515.07"/>
</g>
<!-- Node18 -->
<g id="node18" class="node">
<title>Node18</title>
<g id="a_node18"><a xlink:href="HealthGPS_2disease_8h.html" target="_top" xlink:title=" ">
<polygon fill="none" stroke="black" points="631.5,-319 631.5,-338 749.5,-338 749.5,-319 631.5,-319"/>
<text text-anchor="middle" x="690.5" y="-326" font-family="Helvetica,sans-Serif" font-size="10.00">HealthGPS/disease.h</text>
</a>
</g>
</g>
<!-- Node2&#45;&gt;Node18 -->
<g id="edge24" class="edge">
<title>Node2&#45;&gt;Node18</title>
<path fill="none" stroke="midnightblue" d="M1013.65,-512.49C978.94,-505.47 936.27,-494.45 900.5,-478 814.89,-438.65 727.74,-363.28 699.75,-338"/>
<polygon fill="midnightblue" stroke="midnightblue" points="1013.19,-515.97 1023.68,-514.45 1014.54,-509.1 1013.19,-515.97"/>
</g>
<!-- Node20 -->
<g id="node20" class="node">
<title>Node20</title>
<g id="a_node20"><a xlink:href="modelinput_8cpp.html" target="_top" xlink:title=" ">
<polygon fill="none" stroke="black" points="1057,-453 1057,-472 1204,-472 1204,-453 1057,-453"/>
<text text-anchor="middle" x="1130.5" y="-460" font-family="Helvetica,sans-Serif" font-size="10.00">HealthGPS/modelinput.cpp</text>
</a>
</g>
</g>
<!-- Node2&#45;&gt;Node20 -->
<g id="edge27" class="edge">
<title>Node2&#45;&gt;Node20</title>
<path fill="none" stroke="midnightblue" d="M1093.5,-506.67C1103.11,-495.45 1115.49,-481.02 1123.21,-472.01"/>
<polygon fill="midnightblue" stroke="midnightblue" points="1090.66,-504.6 1086.81,-514.48 1095.97,-509.16 1090.66,-504.6"/>
</g>
<!-- Node21 -->
<g id="node21" class="node">
<title>Node21</title>
<g id="a_node21"><a xlink:href="modulefactory_8h.html" target="_top" xlink:title=" ">
<polygon fill="none" stroke="black" points="168.5,-319 168.5,-338 318.5,-338 318.5,-319 168.5,-319"/>
<text text-anchor="middle" x="243.5" y="-326" font-family="Helvetica,sans-Serif" font-size="10.00">HealthGPS/modulefactory.h</text>
</a>
</g>
</g>
<!-- Node2&#45;&gt;Node21 -->
<g id="edge28" class="edge">
<title>Node2&#45;&gt;Node21</title>
<path fill="none" stroke="midnightblue" d="M1020.65,-512.69C972.8,-504.09 903.6,-491.16 843.5,-478 625.2,-430.21 365.02,-361.9 275.55,-338.08"/>
<polygon fill="midnightblue" stroke="midnightblue" points="1020.07,-516.14 1030.53,-514.46 1021.3,-509.25 1020.07,-516.14"/>
</g>
<!-- Node23 -->
<g id="node23" class="node">
<title>Node23</title>
<g id="a_node23"><a xlink:href="repository_8h.html" target="_top" xlink:title=" ">
<polygon fill="none" stroke="black" points="872.5,-386 872.5,-405 1000.5,-405 1000.5,-386 872.5,-386"/>
<text text-anchor="middle" x="936.5" y="-393" font-family="Helvetica,sans-Serif" font-size="10.00">HealthGPS/repository.h</text>
</a>
</g>
</g>
<!-- Node2&#45;&gt;Node23 -->
<g id="edge31" class="edge">
<title>Node2&#45;&gt;Node23</title>
<path fill="none" stroke="midnightblue" d="M1056.76,-508.88C1043.9,-500.5 1027.77,-489.33 1014.5,-478 986.19,-453.84 956.94,-420.65 943.74,-405.14"/>
<polygon fill="midnightblue" stroke="midnightblue" points="1055.16,-512.01 1065.47,-514.45 1058.93,-506.12 1055.16,-512.01"/>
</g>
<!-- Node24 -->
<g id="node24" class="node">
<title>Node24</title>
<g id="a_node24"><a xlink:href="riskfactor_8h.html" target="_top" xlink:title=" ">
<polygon fill="none" stroke="black" points="1427.5,-252 1427.5,-271 1553.5,-271 1553.5,-252 1427.5,-252"/>
<text text-anchor="middle" x="1490.5" y="-259" font-family="Helvetica,sans-Serif" font-size="10.00">HealthGPS/riskfactor.h</text>
</a>
</g>
</g>
<!-- Node2&#45;&gt;Node24 -->
<g id="edge46" class="edge">
<title>Node2&#45;&gt;Node24</title>
<path fill="none" stroke="midnightblue" d="M1157.53,-513.12C1191.81,-506.53 1231.66,-495.69 1264.5,-478 1317.48,-449.47 1448.53,-308.36 1482.4,-271.38"/>
<polygon fill="midnightblue" stroke="midnightblue" points="1156.76,-509.7 1147.55,-514.95 1158.02,-516.59 1156.76,-509.7"/>
</g>
<!-- Node26 -->
<g id="node26" class="node">
<title>Node26</title>
<g id="a_node26"><a xlink:href="ses__noise__module_8h.html" target="_top" xlink:title=" ">
<polygon fill="none" stroke="black" points="1280,-313.5 1280,-343.5 1399,-343.5 1399,-313.5 1280,-313.5"/>
<text text-anchor="start" x="1288" y="-331.5" font-family="Helvetica,sans-Serif" font-size="10.00">HealthGPS/ses_noise</text>
<text text-anchor="middle" x="1339.5" y="-320.5" font-family="Helvetica,sans-Serif" font-size="10.00">_module.h</text>
</a>
</g>
</g>
<!-- Node2&#45;&gt;Node26 -->
<g id="edge47" class="edge">
<title>Node2&#45;&gt;Node26</title>
<path fill="none" stroke="midnightblue" d="M1152.07,-512.2C1179.41,-505.57 1209.63,-494.95 1233.5,-478 1284.37,-441.87 1319.72,-373.41 1333.31,-343.77"/>
<polygon fill="midnightblue" stroke="midnightblue" points="1151.12,-508.82 1142.14,-514.46 1152.67,-515.65 1151.12,-508.82"/>
</g>
<!-- Node30 -->
<g id="node30" class="node">
<title>Node30</title>
<g id="a_node30"><a xlink:href="simulation__definition_8h.html" target="_top" xlink:title=" ">
<polygon fill="none" stroke="black" points="2008,-447.5 2008,-477.5 2131,-477.5 2131,-447.5 2008,-447.5"/>
<text text-anchor="start" x="2016" y="-465.5" font-family="Helvetica,sans-Serif" font-size="10.00">HealthGPS/simulation</text>
<text text-anchor="middle" x="2069.5" y="-454.5" font-family="Helvetica,sans-Serif" font-size="10.00">_definition.h</text>
</a>
</g>
</g>
<!-- Node2&#45;&gt;Node30 -->
<g id="edge48" class="edge">
<title>Node2&#45;&gt;Node30</title>
<path fill="none" stroke="midnightblue" d="M1157.19,-514.03C1157.3,-514.02 1157.4,-514.01 1157.5,-514 1476.86,-486.76 1860.45,-471.05 2007.76,-465.65"/>
<polygon fill="midnightblue" stroke="midnightblue" points="1157.18,-510.51 1147.54,-514.91 1157.82,-517.48 1157.18,-510.51"/>
</g>
<!-- Node4 -->
<g id="node4" class="node">
<title>Node4</title>
<g id="a_node4"><a xlink:href="analysis__module_8cpp.html" target="_top" xlink:title=" ">
<polygon fill="none" stroke="black" points="1221.5,-246.5 1221.5,-276.5 1333.5,-276.5 1333.5,-246.5 1221.5,-246.5"/>
<text text-anchor="start" x="1229.5" y="-264.5" font-family="Helvetica,sans-Serif" font-size="10.00">HealthGPS/analysis</text>
<text text-anchor="middle" x="1277.5" y="-253.5" font-family="Helvetica,sans-Serif" font-size="10.00">_module.cpp</text>
</a>
</g>
</g>
<!-- Node3&#45;&gt;Node4 -->
<g id="edge3" class="edge">
<title>Node3&#45;&gt;Node4</title>
<path fill="none" stroke="midnightblue" d="M1228.65,-306.6C1239.52,-296.78 1252.2,-285.34 1261.91,-276.58"/>
<polygon fill="midnightblue" stroke="midnightblue" points="1226.2,-304.1 1221.12,-313.4 1230.89,-309.29 1226.2,-304.1"/>
</g>
<!-- Node5 -->
<g id="node5" class="node">
<title>Node5</title>
<g id="a_node5"><a xlink:href="simulation__module_8h.html" target="_top" xlink:title=" ">
<polygon fill="none" stroke="black" points="1290,-179.5 1290,-209.5 1413,-209.5 1413,-179.5 1290,-179.5"/>
<text text-anchor="start" x="1298" y="-197.5" font-family="Helvetica,sans-Serif" font-size="10.00">HealthGPS/simulation</text>
<text text-anchor="middle" x="1351.5" y="-186.5" font-family="Helvetica,sans-Serif" font-size="10.00">_module.h</text>
</a>
</g>
</g>
<!-- Node3&#45;&gt;Node5 -->
<g id="edge4" class="edge">
<title>Node3&#45;&gt;Node5</title>
<path fill="none" stroke="midnightblue" d="M1270.78,-310.55C1301.27,-301.27 1332.95,-289.21 1342.5,-277 1357.67,-257.6 1356.45,-227.2 1354.06,-209.53"/>
<polygon fill="midnightblue" stroke="midnightblue" points="1269.55,-307.26 1260.95,-313.46 1271.54,-313.97 1269.55,-307.26"/>
</g>
<!-- Node5&#45;&gt;Node6 -->
<g id="edge5" class="edge">
<title>Node5&#45;&gt;Node6</title>
<path fill="none" stroke="midnightblue" d="M1366.03,-170.84C1377.94,-153.41 1395.96,-129.45 1415.5,-112 1432.49,-96.83 1455.25,-83.72 1470.81,-75.63"/>
<polygon fill="midnightblue" stroke="midnightblue" points="1363.04,-169.03 1360.39,-179.29 1368.86,-172.92 1363.04,-169.03"/>
</g>
<!-- Node8 -->
<g id="node8" class="node">
<title>Node8</title>
<g id="a_node8"><a xlink:href="healthgps_8h.html" target="_top" xlink:title=" ">
<polygon fill="none" stroke="black" points="1424.5,-118 1424.5,-137 1552.5,-137 1552.5,-118 1424.5,-118"/>
<text text-anchor="middle" x="1488.5" y="-125" font-family="Helvetica,sans-Serif" font-size="10.00">HealthGPS/healthgps.h</text>
</a>
</g>
</g>
<!-- Node5&#45;&gt;Node8 -->
<g id="edge7" class="edge">
<title>Node5&#45;&gt;Node8</title>
<path fill="none" stroke="midnightblue" d="M1390.56,-174.97C1416.88,-162.48 1450.36,-146.6 1470.57,-137.01"/>
<polygon fill="midnightblue" stroke="midnightblue" points="1388.76,-171.95 1381.23,-179.4 1391.76,-178.27 1388.76,-171.95"/>
</g>
<!-- Node12 -->
<g id="node12" class="node">
<title>Node12</title>
<g id="a_node12"><a xlink:href="simulation__module_8cpp.html" target="_top" xlink:title=" ">
<polygon fill="none" stroke="black" points="1245,-112.5 1245,-142.5 1368,-142.5 1368,-112.5 1245,-112.5"/>
<text text-anchor="start" x="1253" y="-130.5" font-family="Helvetica,sans-Serif" font-size="10.00">HealthGPS/simulation</text>
<text text-anchor="middle" x="1306.5" y="-119.5" font-family="Helvetica,sans-Serif" font-size="10.00">_module.cpp</text>
</a>
</g>
</g>
<!-- Node5&#45;&gt;Node12 -->
<g id="edge13" class="edge">
<title>Node5&#45;&gt;Node12</title>
<path fill="none" stroke="midnightblue" d="M1336.03,-171.16C1329.47,-161.68 1322.02,-150.92 1316.25,-142.58"/>
<polygon fill="midnightblue" stroke="midnightblue" points="1333.17,-173.17 1341.74,-179.4 1338.92,-169.18 1333.17,-173.17"/>
</g>
<!-- Node7 -->
<g id="node7" class="node">
<title>Node7</title>
<g id="a_node7"><a xlink:href="program_8cpp.html" target="_top" xlink:title=" ">
<polygon fill="none" stroke="black" points="215,-0.5 215,-19.5 390,-19.5 390,-0.5 215,-0.5"/>
<text text-anchor="middle" x="302.5" y="-7.5" font-family="Helvetica,sans-Serif" font-size="10.00">HealthGPS.Console/program.cpp</text>
</a>
</g>
</g>
<!-- Node6&#45;&gt;Node7 -->
<g id="edge6" class="edge">
<title>Node6&#45;&gt;Node7</title>
<path fill="none" stroke="midnightblue" d="M1430.75,-62.37C1238.72,-53.63 620.8,-25.49 390.29,-15"/>
<polygon fill="midnightblue" stroke="midnightblue" points="1430.76,-65.87 1440.91,-62.83 1431.08,-58.88 1430.76,-65.87"/>
</g>
<!-- Node8&#45;&gt;Node6 -->
<g id="edge8" class="edge">
<title>Node8&#45;&gt;Node6</title>
<path fill="none" stroke="midnightblue" d="M1488.5,-107.82C1488.5,-97 1488.5,-83.9 1488.5,-75.51"/>
<polygon fill="midnightblue" stroke="midnightblue" points="1485,-107.98 1488.5,-117.98 1492,-107.98 1485,-107.98"/>
</g>
<!-- Node9 -->
<g id="node9" class="node">
<title>Node9</title>
<g id="a_node9"><a xlink:href="healthgps_8cpp.html" target="_top" xlink:title=" ">
<polygon fill="none" stroke="black" points="1107.5,-56.5 1107.5,-75.5 1247.5,-75.5 1247.5,-56.5 1107.5,-56.5"/>
<text text-anchor="middle" x="1177.5" y="-63.5" font-family="Helvetica,sans-Serif" font-size="10.00">HealthGPS/healthgps.cpp</text>
</a>
</g>
</g>
<!-- Node8&#45;&gt;Node9 -->
<g id="edge9" class="edge">
<title>Node8&#45;&gt;Node9</title>
<path fill="none" stroke="midnightblue" d="M1433.86,-116.05C1373.6,-104.52 1277.82,-86.19 1221.98,-75.51"/>
<polygon fill="midnightblue" stroke="midnightblue" points="1433.46,-119.53 1443.94,-117.98 1434.78,-112.66 1433.46,-119.53"/>
</g>
<!-- Node8&#45;&gt;Node10 -->
<g id="edge10" class="edge">
<title>Node8&#45;&gt;Node10</title>
<path fill="none" stroke="midnightblue" d="M1421,-116.66C1406.67,-114.85 1391.6,-113.17 1377.5,-112 950.98,-76.47 439.49,-68.99 232.86,-67.41"/>
<polygon fill="midnightblue" stroke="midnightblue" points="1420.92,-120.18 1431.28,-117.99 1421.82,-113.23 1420.92,-120.18"/>
</g>
<!-- Node10&#45;&gt;Node7 -->
<g id="edge12" class="edge">
<title>Node10&#45;&gt;Node7</title>
<path fill="none" stroke="midnightblue" d="M175.2,-53.17C205.9,-43 249.42,-28.59 276.79,-19.52"/>
<polygon fill="midnightblue" stroke="midnightblue" points="173.72,-49.98 165.33,-56.44 175.92,-56.62 173.72,-49.98"/>
</g>
<!-- Node11 -->
<g id="node11" class="node">
<title>Node11</title>
<g id="a_node11"><a xlink:href="configuration_8cpp.html" target="_top" xlink:title=" ">
<polygon fill="none" stroke="black" points="0,-0.5 0,-19.5 197,-19.5 197,-0.5 0,-0.5"/>
<text text-anchor="middle" x="98.5" y="-7.5" font-family="Helvetica,sans-Serif" font-size="10.00">HealthGPS.Console/configuration.cpp</text>
</a>
</g>
</g>
<!-- Node10&#45;&gt;Node11 -->
<g id="edge11" class="edge">
<title>Node10&#45;&gt;Node11</title>
<path fill="none" stroke="midnightblue" d="M126.48,-47.86C119.38,-38.5 110.9,-27.33 105.14,-19.75"/>
<polygon fill="midnightblue" stroke="midnightblue" points="123.89,-50.24 132.73,-56.08 129.47,-46 123.89,-50.24"/>
</g>
<!-- Node13&#45;&gt;Node4 -->
<g id="edge16" class="edge">
<title>Node13&#45;&gt;Node4</title>
<path fill="none" stroke="midnightblue" d="M1072.91,-316.34C1114.74,-305.33 1178.8,-288.47 1224.08,-276.56"/>
<polygon fill="midnightblue" stroke="midnightblue" points="1071.82,-313.01 1063.04,-318.94 1073.61,-319.78 1071.82,-313.01"/>
</g>
<!-- Node13&#45;&gt;Node9 -->
<g id="edge19" class="edge">
<title>Node13&#45;&gt;Node9</title>
<path fill="none" stroke="midnightblue" d="M1034.82,-308.87C1039.12,-291.96 1046.5,-266.61 1056.5,-246 1090.71,-175.46 1149.71,-100.79 1170.22,-75.75"/>
<polygon fill="midnightblue" stroke="midnightblue" points="1031.41,-308.08 1032.45,-318.62 1038.21,-309.73 1031.41,-308.08"/>
</g>
<!-- Node14 -->
<g id="node14" class="node">
<title>Node14</title>
<g id="a_node14"><a xlink:href="converter_8cpp.html" target="_top" xlink:title=" ">
<polygon fill="none" stroke="black" points="1066,-252 1066,-271 1203,-271 1203,-252 1066,-252"/>
<text text-anchor="middle" x="1134.5" y="-259" font-family="Helvetica,sans-Serif" font-size="10.00">HealthGPS/converter.cpp</text>
</a>
</g>
</g>
<!-- Node13&#45;&gt;Node14 -->
<g id="edge17" class="edge">
<title>Node13&#45;&gt;Node14</title>
<path fill="none" stroke="midnightblue" d="M1053.27,-313.27C1073.86,-300.4 1103.49,-281.88 1120.7,-271.13"/>
<polygon fill="midnightblue" stroke="midnightblue" points="1051.15,-310.47 1044.53,-318.73 1054.86,-316.4 1051.15,-310.47"/>
</g>
<!-- Node15 -->
<g id="node15" class="node">
<title>Node15</title>
<g id="a_node15"><a xlink:href="demographic_8cpp.html" target="_top" xlink:title=" ">
<polygon fill="none" stroke="black" points="696,-252 696,-271 851,-271 851,-252 696,-252"/>
<text text-anchor="middle" x="773.5" y="-259" font-family="Helvetica,sans-Serif" font-size="10.00">HealthGPS/demographic.cpp</text>
</a>
</g>
</g>
<!-- Node13&#45;&gt;Node15 -->
<g id="edge18" class="edge">
<title>Node13&#45;&gt;Node15</title>
<path fill="none" stroke="midnightblue" d="M986.63,-316.4C935.91,-303.58 853.51,-282.74 807.44,-271.08"/>
<polygon fill="midnightblue" stroke="midnightblue" points="986.08,-319.88 996.64,-318.94 987.8,-313.09 986.08,-319.88"/>
</g>
<!-- Node16 -->
<g id="node16" class="node">
<title>Node16</title>
<g id="a_node16"><a xlink:href="repository_8cpp.html" target="_top" xlink:title=" ">
<polygon fill="none" stroke="black" points="869.5,-252 869.5,-271 1009.5,-271 1009.5,-252 869.5,-252"/>
<text text-anchor="middle" x="939.5" y="-259" font-family="Helvetica,sans-Serif" font-size="10.00">HealthGPS/repository.cpp</text>
</a>
</g>
</g>
<!-- Node13&#45;&gt;Node16 -->
<g id="edge20" class="edge">
<title>Node13&#45;&gt;Node16</title>
<path fill="none" stroke="midnightblue" d="M1010.09,-312.92C992.1,-300.07 966.49,-281.78 951.58,-271.13"/>
<polygon fill="midnightblue" stroke="midnightblue" points="1008.06,-315.77 1018.23,-318.73 1012.12,-310.07 1008.06,-315.77"/>
</g>
<!-- Node17&#45;&gt;Node5 -->
<g id="edge23" class="edge">
<title>Node17&#45;&gt;Node5</title>
<path fill="none" stroke="midnightblue" d="M778.65,-316.91C722.84,-304.7 653.5,-281.61 686.5,-246 727.04,-202.27 1132.94,-196.22 1289.95,-195.52"/>
<polygon fill="midnightblue" stroke="midnightblue" points="778.02,-320.36 788.53,-318.99 779.46,-313.51 778.02,-320.36"/>
</g>
<!-- Node17&#45;&gt;Node15 -->
<g id="edge22" class="edge">
<title>Node17&#45;&gt;Node15</title>
<path fill="none" stroke="midnightblue" d="M823.25,-311.5C810.31,-298.75 792.69,-281.39 782.26,-271.13"/>
<polygon fill="midnightblue" stroke="midnightblue" points="821.02,-314.21 830.6,-318.73 825.93,-309.22 821.02,-314.21"/>
</g>
<!-- Node18&#45;&gt;Node5 -->
<g id="edge26" class="edge">
<title>Node18&#45;&gt;Node5</title>
<path fill="none" stroke="midnightblue" d="M679.32,-309.78C669.34,-291.47 658.54,-263.2 674.5,-246 715.89,-201.4 1131.01,-195.9 1290,-195.43"/>
<polygon fill="midnightblue" stroke="midnightblue" points="676.39,-311.71 684.47,-318.57 682.44,-308.17 676.39,-311.71"/>
</g>
<!-- Node19 -->
<g id="node19" class="node">
<title>Node19</title>
<g id="a_node19"><a xlink:href="disease_8cpp.html" target="_top" xlink:title=" ">
<polygon fill="none" stroke="black" points="472,-252 472,-271 601,-271 601,-252 472,-252"/>
<text text-anchor="middle" x="536.5" y="-259" font-family="Helvetica,sans-Serif" font-size="10.00">HealthGPS/disease.cpp</text>
</a>
</g>
</g>
<!-- Node18&#45;&gt;Node19 -->
<g id="edge25" class="edge">
<title>Node18&#45;&gt;Node19</title>
<path fill="none" stroke="midnightblue" d="M660.76,-314.95C630.27,-302.08 583.66,-282.4 557.03,-271.17"/>
<polygon fill="midnightblue" stroke="midnightblue" points="659.48,-318.2 670.05,-318.87 662.2,-311.76 659.48,-318.2"/>
</g>
<!-- Node21&#45;&gt;Node5 -->
<g id="edge30" class="edge">
<title>Node21&#45;&gt;Node5</title>
<path fill="none" stroke="midnightblue" d="M250.35,-309.55C258.86,-290.06 275.38,-259.86 300.5,-246 387.02,-198.26 1078.11,-195.14 1289.97,-195.32"/>
<polygon fill="midnightblue" stroke="midnightblue" points="247.09,-308.28 246.54,-318.86 253.57,-310.93 247.09,-308.28"/>
</g>
<!-- Node22 -->
<g id="node22" class="node">
<title>Node22</title>
<g id="a_node22"><a xlink:href="modulefactory_8cpp.html" target="_top" xlink:title=" ">
<polygon fill="none" stroke="black" points="54,-252 54,-271 215,-271 215,-252 54,-252"/>
<text text-anchor="middle" x="134.5" y="-259" font-family="Helvetica,sans-Serif" font-size="10.00">HealthGPS/modulefactory.cpp</text>
</a>
</g>
</g>
<!-- Node21&#45;&gt;Node22 -->
<g id="edge29" class="edge">
<title>Node21&#45;&gt;Node22</title>
<path fill="none" stroke="midnightblue" d="M219.93,-313.44C198.34,-300.57 167.08,-281.93 148.97,-271.13"/>
<polygon fill="midnightblue" stroke="midnightblue" points="218.42,-316.62 228.8,-318.73 222,-310.61 218.42,-316.62"/>
</g>
<!-- Node23&#45;&gt;Node3 -->
<g id="edge32" class="edge">
<title>Node23&#45;&gt;Node3</title>
<path fill="none" stroke="midnightblue" d="M981.67,-383.59C1027.82,-372.43 1099.58,-355.1 1149.35,-343.07"/>
<polygon fill="midnightblue" stroke="midnightblue" points="980.84,-380.18 971.94,-385.94 982.49,-386.99 980.84,-380.18"/>
</g>
<!-- Node23&#45;&gt;Node16 -->
<g id="edge36" class="edge">
<title>Node23&#45;&gt;Node16</title>
<path fill="none" stroke="midnightblue" d="M936.93,-375.78C937.59,-346.75 938.83,-292.04 939.31,-271.02"/>
<polygon fill="midnightblue" stroke="midnightblue" points="933.43,-375.76 936.7,-385.84 940.42,-375.92 933.43,-375.76"/>
</g>
<!-- Node23&#45;&gt;Node17 -->
<g id="edge33" class="edge">
<title>Node23&#45;&gt;Node17</title>
<path fill="none" stroke="midnightblue" d="M915,-380.09C895.81,-367.24 868.35,-348.83 852.37,-338.13"/>
<polygon fill="midnightblue" stroke="midnightblue" points="913.16,-383.07 923.42,-385.73 917.06,-377.26 913.16,-383.07"/>
</g>
<!-- Node23&#45;&gt;Node18 -->
<g id="edge34" class="edge">
<title>Node23&#45;&gt;Node18</title>
<path fill="none" stroke="midnightblue" d="M894.2,-383.32C845.63,-370.49 766.99,-349.71 722.98,-338.08"/>
<polygon fill="midnightblue" stroke="midnightblue" points="893.52,-386.76 904.09,-385.94 895.31,-380 893.52,-386.76"/>
</g>
<!-- Node23&#45;&gt;Node21 -->
<g id="edge35" class="edge">
<title>Node23&#45;&gt;Node21</title>
<path fill="none" stroke="midnightblue" d="M862.2,-390.46C747.27,-383.73 519.55,-368.49 327.5,-344 314.88,-342.39 301.25,-340.23 288.73,-338.06"/>
<polygon fill="midnightblue" stroke="midnightblue" points="862.11,-393.96 872.3,-391.04 862.52,-386.97 862.11,-393.96"/>
</g>
<!-- Node23&#45;&gt;Node24 -->
<g id="edge37" class="edge">
<title>Node23&#45;&gt;Node24</title>
<path fill="none" stroke="midnightblue" d="M991.02,-383.57C1024.47,-375.52 1067.45,-362.69 1102.5,-344 1121.73,-333.75 1120.54,-321.76 1140.5,-313 1166.18,-301.72 1333.56,-280.81 1427.24,-269.77"/>
<polygon fill="midnightblue" stroke="midnightblue" points="989.91,-380.24 980.97,-385.92 991.5,-387.06 989.91,-380.24"/>
</g>
<!-- Node23&#45;&gt;Node26 -->
<g id="edge40" class="edge">
<title>Node23&#45;&gt;Node26</title>
<path fill="none" stroke="midnightblue" d="M1010.24,-384.58C1078.05,-375.17 1181.3,-360.1 1270.5,-344 1273.51,-343.46 1276.59,-342.88 1279.7,-342.28"/>
<polygon fill="midnightblue" stroke="midnightblue" points="1009.51,-381.15 1000.09,-385.99 1010.47,-388.08 1009.51,-381.15"/>
</g>
<!-- Node28 -->
<g id="node28" class="node">
<title>Node28</title>
<g id="a_node28"><a xlink:href="model__parser_8h.html" target="_top" xlink:title=" ">
<polygon fill="none" stroke="black" points="336.5,-313.5 336.5,-343.5 480.5,-343.5 480.5,-313.5 336.5,-313.5"/>
<text text-anchor="start" x="344.5" y="-331.5" font-family="Helvetica,sans-Serif" font-size="10.00">HealthGPS.Console/model</text>
<text text-anchor="middle" x="408.5" y="-320.5" font-family="Helvetica,sans-Serif" font-size="10.00">_parser.h</text>
</a>
</g>
</g>
<!-- Node23&#45;&gt;Node28 -->
<g id="edge43" class="edge">
<title>Node23&#45;&gt;Node28</title>
<path fill="none" stroke="midnightblue" d="M862.14,-385.35C760.88,-372.88 580.81,-350.71 480.7,-338.39"/>
<polygon fill="midnightblue" stroke="midnightblue" points="861.93,-388.85 872.28,-386.59 862.79,-381.9 861.93,-388.85"/>
</g>
<!-- Node24&#45;&gt;Node5 -->
<g id="edge39" class="edge">
<title>Node24&#45;&gt;Node5</title>
<path fill="none" stroke="midnightblue" d="M1462.96,-247.62C1439.44,-236.63 1405.69,-220.84 1381.5,-209.53"/>
<polygon fill="midnightblue" stroke="midnightblue" points="1461.5,-250.8 1472.04,-251.87 1464.47,-244.46 1461.5,-250.8"/>
</g>
<!-- Node25 -->
<g id="node25" class="node">
<title>Node25</title>
<g id="a_node25"><a xlink:href="riskfactor_8cpp.html" target="_top" xlink:title=" ">
<polygon fill="none" stroke="black" points="1431,-185 1431,-204 1568,-204 1568,-185 1431,-185"/>
<text text-anchor="middle" x="1499.5" y="-192" font-family="Helvetica,sans-Serif" font-size="10.00">HealthGPS/riskfactor.cpp</text>
</a>
</g>
</g>
<!-- Node24&#45;&gt;Node25 -->
<g id="edge38" class="edge">
<title>Node24&#45;&gt;Node25</title>
<path fill="none" stroke="midnightblue" d="M1493.13,-241.54C1494.84,-229.17 1496.99,-213.62 1498.31,-204.13"/>
<polygon fill="midnightblue" stroke="midnightblue" points="1489.62,-241.35 1491.71,-251.73 1496.55,-242.31 1489.62,-241.35"/>
</g>
<!-- Node26&#45;&gt;Node5 -->
<g id="edge42" class="edge">
<title>Node26&#45;&gt;Node5</title>
<path fill="none" stroke="midnightblue" d="M1359.76,-305.38C1366.08,-297.1 1372.24,-287.2 1375.5,-277 1383.01,-253.54 1370.51,-226 1360.91,-209.7"/>
<polygon fill="midnightblue" stroke="midnightblue" points="1356.84,-303.42 1353.24,-313.39 1362.27,-307.85 1356.84,-303.42"/>
</g>
<!-- Node27 -->
<g id="node27" class="node">
<title>Node27</title>
<g id="a_node27"><a xlink:href="ses__noise__module_8cpp.html" target="_top" xlink:title=" ">
<polygon fill="none" stroke="black" points="1708,-246.5 1708,-276.5 1827,-276.5 1827,-246.5 1708,-246.5"/>
<text text-anchor="start" x="1716" y="-264.5" font-family="Helvetica,sans-Serif" font-size="10.00">HealthGPS/ses_noise</text>
<text text-anchor="middle" x="1767.5" y="-253.5" font-family="Helvetica,sans-Serif" font-size="10.00">_module.cpp</text>
</a>
</g>
</g>
<!-- Node26&#45;&gt;Node27 -->
<g id="edge41" class="edge">
<title>Node26&#45;&gt;Node27</title>
<path fill="none" stroke="midnightblue" d="M1409.22,-317.95C1505.56,-304.72 1670.69,-281.87 1698.5,-277 1701.51,-276.47 1704.6,-275.91 1707.71,-275.32"/>
<polygon fill="midnightblue" stroke="midnightblue" points="1408.69,-314.49 1399.26,-319.32 1409.64,-321.43 1408.69,-314.49"/>
</g>
<!-- Node28&#45;&gt;Node7 -->
<g id="edge45" class="edge">
<title>Node28&#45;&gt;Node7</title>
<path fill="none" stroke="midnightblue" d="M345.88,-309.55C329.01,-301.98 312.21,-291.45 300.5,-277 277.08,-248.11 281.5,-232.69 281.5,-195.5 281.5,-195.5 281.5,-195.5 281.5,-126.5 281.5,-85.94 294.19,-38.65 299.84,-19.6"/>
<polygon fill="midnightblue" stroke="midnightblue" points="344.65,-312.83 355.23,-313.47 347.35,-306.38 344.65,-312.83"/>
</g>
<!-- Node29 -->
<g id="node29" class="node">
<title>Node29</title>
<g id="a_node29"><a xlink:href="model__parser_8cpp.html" target="_top" xlink:title=" ">
<polygon fill="none" stroke="black" points="309.5,-246.5 309.5,-276.5 453.5,-276.5 453.5,-246.5 309.5,-246.5"/>
<text text-anchor="start" x="317.5" y="-264.5" font-family="Helvetica,sans-Serif" font-size="10.00">HealthGPS.Console/model</text>
<text text-anchor="middle" x="381.5" y="-253.5" font-family="Helvetica,sans-Serif" font-size="10.00">_parser.cpp</text>
</a>
</g>
</g>
<!-- Node28&#45;&gt;Node29 -->
<g id="edge44" class="edge">
<title>Node28&#45;&gt;Node29</title>
<path fill="none" stroke="midnightblue" d="M398.73,-303.99C394.92,-294.8 390.67,-284.58 387.35,-276.58"/>
<polygon fill="midnightblue" stroke="midnightblue" points="395.57,-305.5 402.64,-313.4 402.04,-302.82 395.57,-305.5"/>
</g>
<!-- Node31 -->
<g id="node31" class="node">
<title>Node31</title>
<g id="a_node31"><a xlink:href="runtime__context_8h.html" target="_top" xlink:title=" ">
<polygon fill="none" stroke="black" points="1703,-386 1703,-405 1864,-405 1864,-386 1703,-386"/>
<text text-anchor="middle" x="1783.5" y="-393" font-family="Helvetica,sans-Serif" font-size="10.00">HealthGPS/runtime_context.h</text>
</a>
</g>
</g>
<!-- Node30&#45;&gt;Node31 -->
<g id="edge49" class="edge">
<title>Node30&#45;&gt;Node31</title>
<path fill="none" stroke="midnightblue" d="M1997.9,-445.23C1941.75,-432.47 1865.83,-415.21 1821.03,-405.03"/>
<polygon fill="midnightblue" stroke="midnightblue" points="1997.27,-448.67 2007.79,-447.48 1998.82,-441.85 1997.27,-448.67"/>
</g>
<!-- Node39 -->
<g id="node39" class="node">
<title>Node39</title>
<g id="a_node39"><a xlink:href="simulation_8h.html" target="_top" xlink:title=" ">
<polygon fill="none" stroke="black" points="1883.5,-185 1883.5,-204 2015.5,-204 2015.5,-185 1883.5,-185"/>
<text text-anchor="middle" x="1949.5" y="-192" font-family="Helvetica,sans-Serif" font-size="10.00">HealthGPS/simulation.h</text>
</a>
</g>
</g>
<!-- Node30&#45;&gt;Node39 -->
<g id="edge63" class="edge">
<title>Node30&#45;&gt;Node39</title>
<path fill="none" stroke="midnightblue" d="M2141.48,-450.79C2245.61,-433.65 2430.15,-396.57 2469.5,-344 2477.76,-332.97 2478.1,-323.76 2469.5,-313 2413.38,-242.78 2143.03,-211.47 2015.87,-200.45"/>
<polygon fill="midnightblue" stroke="midnightblue" points="2140.67,-447.37 2131.36,-452.43 2141.79,-454.28 2140.67,-447.37"/>
</g>
<!-- Node42 -->
<g id="node42" class="node">
<title>Node42</title>
<g id="a_node42"><a xlink:href="simulation__definition_8cpp.html" target="_top" xlink:title=" ">
<polygon fill="none" stroke="black" points="2467,-380.5 2467,-410.5 2590,-410.5 2590,-380.5 2467,-380.5"/>
<text text-anchor="start" x="2475" y="-398.5" font-family="Helvetica,sans-Serif" font-size="10.00">HealthGPS/simulation</text>
<text text-anchor="middle" x="2528.5" y="-387.5" font-family="Helvetica,sans-Serif" font-size="10.00">_definition.cpp</text>
</a>
</g>
</g>
<!-- Node30&#45;&gt;Node42 -->
<g id="edge68" class="edge">
<title>Node30&#45;&gt;Node42</title>
<path fill="none" stroke="midnightblue" d="M2141.1,-453.31C2218.17,-444.19 2344.3,-428.44 2452.5,-411 2457.14,-410.25 2461.93,-409.44 2466.75,-408.59"/>
<polygon fill="midnightblue" stroke="midnightblue" points="2140.54,-449.85 2131.02,-454.49 2141.36,-456.8 2140.54,-449.85"/>
</g>
<!-- Node31&#45;&gt;Node3 -->
<g id="edge50" class="edge">
<title>Node31&#45;&gt;Node3</title>
<path fill="none" stroke="midnightblue" d="M1692.85,-388.8C1590.19,-381.6 1418.13,-367.26 1271.5,-344 1268.26,-343.49 1264.93,-342.91 1261.58,-342.29"/>
<polygon fill="midnightblue" stroke="midnightblue" points="1692.65,-392.3 1702.87,-389.5 1693.14,-385.31 1692.65,-392.3"/>
</g>
<!-- Node31&#45;&gt;Node8 -->
<g id="edge56" class="edge">
<title>Node31&#45;&gt;Node8</title>
<path fill="none" stroke="midnightblue" d="M1713.75,-383.99C1656.57,-372.45 1589.84,-350.4 1621.5,-313 1686.17,-236.61 1894.87,-327.31 1836.5,-246 1771.8,-155.86 1634.28,-133.97 1552.83,-129.2"/>
<polygon fill="midnightblue" stroke="midnightblue" points="1713.44,-387.5 1723.92,-385.96 1714.77,-380.62 1713.44,-387.5"/>
</g>
<!-- Node31&#45;&gt;Node17 -->
<g id="edge53" class="edge">
<title>Node31&#45;&gt;Node17</title>
<path fill="none" stroke="midnightblue" d="M1692.64,-390.73C1540.53,-384.01 1224.79,-368.35 958.5,-344 940.68,-342.37 921.4,-340.2 903.65,-338.03"/>
<polygon fill="midnightblue" stroke="midnightblue" points="1692.72,-394.23 1702.87,-391.18 1693.03,-387.24 1692.72,-394.23"/>
</g>
<!-- Node31&#45;&gt;Node18 -->
<g id="edge54" class="edge">
<title>Node31&#45;&gt;Node18</title>
<path fill="none" stroke="midnightblue" d="M1692.52,-394.91C1513.09,-394.65 1101.22,-388.69 758.5,-344 747.61,-342.58 735.87,-340.34 725.26,-338.04"/>
<polygon fill="midnightblue" stroke="midnightblue" points="1692.71,-398.41 1702.71,-394.92 1692.71,-391.41 1692.71,-398.41"/>
</g>
<!-- Node31&#45;&gt;Node27 -->
<g id="edge62" class="edge">
<title>Node31&#45;&gt;Node27</title>
<path fill="none" stroke="midnightblue" d="M1874.44,-394.34C2048.28,-393.09 2414.01,-385.5 2452.5,-344 2461.87,-333.9 2461.88,-323.09 2452.5,-313 2410.37,-267.65 1986,-262.64 1827.12,-262.37"/>
<polygon fill="midnightblue" stroke="midnightblue" points="1874.26,-390.85 1864.28,-394.41 1874.3,-397.85 1874.26,-390.85"/>
</g>
<!-- Node32 -->
<g id="node32" class="node">
<title>Node32</title>
<g id="a_node32"><a xlink:href="default__cancer__model_8cpp.html" target="_top" xlink:title=" ">
<polygon fill="none" stroke="black" points="1630,-313.5 1630,-343.5 1773,-343.5 1773,-313.5 1630,-313.5"/>
<text text-anchor="start" x="1638" y="-331.5" font-family="Helvetica,sans-Serif" font-size="10.00">HealthGPS/default_cancer</text>
<text text-anchor="middle" x="1701.5" y="-320.5" font-family="Helvetica,sans-Serif" font-size="10.00">_model.cpp</text>
</a>
</g>
</g>
<!-- Node31&#45;&gt;Node32 -->
<g id="edge51" class="edge">
<title>Node31&#45;&gt;Node32</title>
<path fill="none" stroke="midnightblue" d="M1764.25,-379.24C1750.64,-368.45 1732.54,-354.1 1719.27,-343.59"/>
<polygon fill="midnightblue" stroke="midnightblue" points="1762.43,-382.26 1772.44,-385.73 1766.78,-376.78 1762.43,-382.26"/>
</g>
<!-- Node33 -->
<g id="node33" class="node">
<title>Node33</title>
<g id="a_node33"><a xlink:href="default__disease__model_8cpp.html" target="_top" xlink:title=" ">
<polygon fill="none" stroke="black" points="1791,-313.5 1791,-343.5 1940,-343.5 1940,-313.5 1791,-313.5"/>
<text text-anchor="start" x="1799" y="-331.5" font-family="Helvetica,sans-Serif" font-size="10.00">HealthGPS/default_disease</text>
<text text-anchor="middle" x="1865.5" y="-320.5" font-family="Helvetica,sans-Serif" font-size="10.00">_model.cpp</text>
</a>
</g>
</g>
<!-- Node31&#45;&gt;Node33 -->
<g id="edge52" class="edge">
<title>Node31&#45;&gt;Node33</title>
<path fill="none" stroke="midnightblue" d="M1802.75,-379.24C1816.36,-368.45 1834.46,-354.1 1847.73,-343.59"/>
<polygon fill="midnightblue" stroke="midnightblue" points="1800.22,-376.78 1794.56,-385.73 1804.57,-382.26 1800.22,-376.78"/>
</g>
<!-- Node34 -->
<g id="node34" class="node">
<title>Node34</title>
<g id="a_node34"><a xlink:href="energy__balance__model_8cpp.html" target="_top" xlink:title=" ">
<polygon fill="none" stroke="black" points="1958,-313.5 1958,-343.5 2107,-343.5 2107,-313.5 1958,-313.5"/>
<text text-anchor="start" x="1966" y="-331.5" font-family="Helvetica,sans-Serif" font-size="10.00">HealthGPS/energy_balance</text>
<text text-anchor="middle" x="2032.5" y="-320.5" font-family="Helvetica,sans-Serif" font-size="10.00">_model.cpp</text>
</a>
</g>
</g>
<!-- Node31&#45;&gt;Node34 -->
<g id="edge55" class="edge">
<title>Node31&#45;&gt;Node34</title>
<path fill="none" stroke="midnightblue" d="M1825.99,-383.41C1868.15,-372.4 1932.9,-355.5 1978.64,-343.56"/>
<polygon fill="midnightblue" stroke="midnightblue" points="1825.1,-380.02 1816.31,-385.94 1826.87,-386.8 1825.1,-380.02"/>
</g>
<!-- Node35 -->
<g id="node35" class="node">
<title>Node35</title>
<g id="a_node35"><a xlink:href="hierarchical__model__static_8cpp.html" target="_top" xlink:title=" ">
<polygon fill="none" stroke="black" points="2125.5,-313.5 2125.5,-343.5 2253.5,-343.5 2253.5,-313.5 2125.5,-313.5"/>
<text text-anchor="start" x="2133.5" y="-331.5" font-family="Helvetica,sans-Serif" font-size="10.00">HealthGPS/hierarchical</text>
<text text-anchor="middle" x="2189.5" y="-320.5" font-family="Helvetica,sans-Serif" font-size="10.00">_model_static.cpp</text>
</a>
</g>
</g>
<!-- Node31&#45;&gt;Node35 -->
<g id="edge57" class="edge">
<title>Node31&#45;&gt;Node35</title>
<path fill="none" stroke="midnightblue" d="M1855.43,-384.56C1922.97,-374.99 2026.79,-359.7 2116.5,-344 2119.43,-343.49 2122.42,-342.95 2125.44,-342.4"/>
<polygon fill="midnightblue" stroke="midnightblue" points="1854.73,-381.12 1845.32,-385.98 1855.71,-388.05 1854.73,-381.12"/>
</g>
<!-- Node36 -->
<g id="node36" class="node">
<title>Node36</title>
<g id="a_node36"><a xlink:href="riskfactor__adjustment_8h.html" target="_top" xlink:title=" ">
<polygon fill="none" stroke="black" points="1455.5,-313.5 1455.5,-343.5 1573.5,-343.5 1573.5,-313.5 1455.5,-313.5"/>
<text text-anchor="start" x="1463.5" y="-331.5" font-family="Helvetica,sans-Serif" font-size="10.00">HealthGPS/riskfactor</text>
<text text-anchor="middle" x="1514.5" y="-320.5" font-family="Helvetica,sans-Serif" font-size="10.00">_adjustment.h</text>
</a>
</g>
</g>
<!-- Node31&#45;&gt;Node36 -->
<g id="edge58" class="edge">
<title>Node31&#45;&gt;Node36</title>
<path fill="none" stroke="midnightblue" d="M1738.17,-383.55C1692.64,-372.55 1622.31,-355.55 1572.68,-343.56"/>
<polygon fill="midnightblue" stroke="midnightblue" points="1737.51,-386.99 1748.06,-385.94 1739.16,-380.18 1737.51,-386.99"/>
</g>
<!-- Node38 -->
<g id="node38" class="node">
<title>Node38</title>
<g id="a_node38"><a xlink:href="runtime__context_8cpp.html" target="_top" xlink:title=" ">
<polygon fill="none" stroke="black" points="2271.5,-319 2271.5,-338 2443.5,-338 2443.5,-319 2271.5,-319"/>
<text text-anchor="middle" x="2357.5" y="-326" font-family="Helvetica,sans-Serif" font-size="10.00">HealthGPS/runtime_context.cpp</text>
</a>
</g>
</g>
<!-- Node31&#45;&gt;Node38 -->
<g id="edge61" class="edge">
<title>Node31&#45;&gt;Node38</title>
<path fill="none" stroke="midnightblue" d="M1874.15,-386.21C1970.59,-377.09 2127.53,-361.41 2262.5,-344 2276.07,-342.25 2290.69,-340.13 2304.3,-338.06"/>
<polygon fill="midnightblue" stroke="midnightblue" points="1873.78,-382.73 1864.15,-387.15 1874.43,-389.7 1873.78,-382.73"/>
</g>
<!-- Node36&#45;&gt;Node24 -->
<g id="edge59" class="edge">
<title>Node36&#45;&gt;Node24</title>
<path fill="none" stroke="midnightblue" d="M1505.8,-303.94C1501.59,-292.54 1496.79,-279.55 1493.71,-271.19"/>
<polygon fill="midnightblue" stroke="midnightblue" points="1502.55,-305.23 1509.29,-313.4 1509.11,-302.8 1502.55,-305.23"/>
</g>
<!-- Node37 -->
<g id="node37" class="node">
<title>Node37</title>
<g id="a_node37"><a xlink:href="riskfactor__adjustment_8cpp.html" target="_top" xlink:title=" ">
<polygon fill="none" stroke="black" points="1571.5,-246.5 1571.5,-276.5 1689.5,-276.5 1689.5,-246.5 1571.5,-246.5"/>
<text text-anchor="start" x="1579.5" y="-264.5" font-family="Helvetica,sans-Serif" font-size="10.00">HealthGPS/riskfactor</text>
<text text-anchor="middle" x="1630.5" y="-253.5" font-family="Helvetica,sans-Serif" font-size="10.00">_adjustment.cpp</text>
</a>
</g>
</g>
<!-- Node36&#45;&gt;Node37 -->
<g id="edge60" class="edge">
<title>Node36&#45;&gt;Node37</title>
<path fill="none" stroke="midnightblue" d="M1548.77,-308.3C1566.92,-298.12 1588.82,-285.85 1605.38,-276.58"/>
<polygon fill="midnightblue" stroke="midnightblue" points="1546.68,-305.45 1539.67,-313.4 1550.1,-311.56 1546.68,-305.45"/>
</g>
<!-- Node39&#45;&gt;Node8 -->
<g id="edge64" class="edge">
<title>Node39&#45;&gt;Node8</title>
<path fill="none" stroke="midnightblue" d="M1894.6,-183.19C1886.2,-181.72 1877.63,-180.27 1869.5,-179 1758.43,-161.58 1628.51,-145.22 1552.68,-136.06"/>
<polygon fill="midnightblue" stroke="midnightblue" points="1894.25,-186.69 1904.71,-185 1895.48,-179.8 1894.25,-186.69"/>
</g>
<!-- Node40 -->
<g id="node40" class="node">
<title>Node40</title>
<g id="a_node40"><a xlink:href="modelrunner_8h.html" target="_top" xlink:title=" ">
<polygon fill="none" stroke="black" points="1706.5,-118 1706.5,-137 1848.5,-137 1848.5,-118 1706.5,-118"/>
<text text-anchor="middle" x="1777.5" y="-125" font-family="Helvetica,sans-Serif" font-size="10.00">HealthGPS/modelrunner.h</text>
</a>
</g>
</g>
<!-- Node39&#45;&gt;Node40 -->
<g id="edge65" class="edge">
<title>Node39&#45;&gt;Node40</title>
<path fill="none" stroke="midnightblue" d="M1917.14,-181.27C1883,-168.37 1830.09,-148.38 1800.16,-137.06"/>
<polygon fill="midnightblue" stroke="midnightblue" points="1916.07,-184.61 1926.66,-184.87 1918.54,-178.06 1916.07,-184.61"/>
</g>
<!-- Node40&#45;&gt;Node6 -->
<g id="edge66" class="edge">
<title>Node40&#45;&gt;Node6</title>
<path fill="none" stroke="midnightblue" d="M1726.03,-115.9C1670,-104.37 1581.51,-86.15 1529.83,-75.51"/>
<polygon fill="midnightblue" stroke="midnightblue" points="1725.59,-119.39 1736.09,-117.98 1727,-112.53 1725.59,-119.39"/>
</g>
<!-- Node41 -->
<g id="node41" class="node">
<title>Node41</title>
<g id="a_node41"><a xlink:href="modelrunner_8cpp.html" target="_top" xlink:title=" ">
<polygon fill="none" stroke="black" points="1701,-56.5 1701,-75.5 1854,-75.5 1854,-56.5 1701,-56.5"/>
<text text-anchor="middle" x="1777.5" y="-63.5" font-family="Helvetica,sans-Serif" font-size="10.00">HealthGPS/modelrunner.cpp</text>
</a>
</g>
</g>
<!-- Node40&#45;&gt;Node41 -->
<g id="edge67" class="edge">
<title>Node40&#45;&gt;Node41</title>
<path fill="none" stroke="midnightblue" d="M1777.5,-107.82C1777.5,-97 1777.5,-83.9 1777.5,-75.51"/>
<polygon fill="midnightblue" stroke="midnightblue" points="1774,-107.98 1777.5,-117.98 1781,-107.98 1774,-107.98"/>
</g>
</g>
</svg>
