<?xml version="1.0" encoding="UTF-8" standalone="no"?>
<!DOCTYPE svg PUBLIC "-//W3C//DTD SVG 1.1//EN"
 "http://www.w3.org/Graphics/SVG/1.1/DTD/svg11.dtd">
<!-- Generated by graphviz version 2.43.0 (0)
 -->
<!-- Title: HealthGPS/settings.h Pages: 1 -->
<svg width="2637pt" height="598pt"
 viewBox="0.00 0.00 2637.00 598.00" xmlns="http://www.w3.org/2000/svg" xmlns:xlink="http://www.w3.org/1999/xlink">
<g id="graph0" class="graph" transform="scale(1 1) rotate(0) translate(4 594)">
<title>HealthGPS/settings.h</title>
<!-- Node1 -->
<g id="node1" class="node">
<title>Node1</title>
<g id="a_node1"><a xlink:title=" ">
<polygon fill="#bfbfbf" stroke="black" points="1006.5,-570.5 1006.5,-589.5 1125.5,-589.5 1125.5,-570.5 1006.5,-570.5"/>
<text text-anchor="middle" x="1066" y="-577.5" font-family="Helvetica,sans-Serif" font-size="10.00">HealthGPS/settings.h</text>
</a>
</g>
</g>
<!-- Node2 -->
<g id="node2" class="node">
<title>Node2</title>
<g id="a_node2"><a xlink:href="modelinput_8h.html" target="_top" xlink:title=" ">
<polygon fill="none" stroke="black" points="922,-514.5 922,-533.5 1058,-533.5 1058,-514.5 922,-514.5"/>
<text text-anchor="middle" x="990" y="-521.5" font-family="Helvetica,sans-Serif" font-size="10.00">HealthGPS/modelinput.h</text>
</a>
</g>
</g>
<!-- Node1&#45;&gt;Node2 -->
<g id="edge1" class="edge">
<title>Node1&#45;&gt;Node2</title>
<path fill="none" stroke="midnightblue" d="M1045.42,-564.38C1031.69,-554.62 1014.07,-542.11 1002.43,-533.83"/>
<polygon fill="midnightblue" stroke="midnightblue" points="1043.61,-567.38 1053.79,-570.32 1047.66,-561.68 1043.61,-567.38"/>
</g>
<!-- Node44 -->
<g id="node44" class="node">
<title>Node44</title>
<g id="a_node44"><a xlink:href="settings_8cpp.html" target="_top" xlink:title=" ">
<polygon fill="none" stroke="black" points="1076.5,-514.5 1076.5,-533.5 1207.5,-533.5 1207.5,-514.5 1076.5,-514.5"/>
<text text-anchor="middle" x="1142" y="-521.5" font-family="Helvetica,sans-Serif" font-size="10.00">HealthGPS/settings.cpp</text>
</a>
</g>
</g>
<!-- Node1&#45;&gt;Node44 -->
<g id="edge71" class="edge">
<title>Node1&#45;&gt;Node44</title>
<path fill="none" stroke="midnightblue" d="M1086.58,-564.38C1100.31,-554.62 1117.93,-542.11 1129.57,-533.83"/>
<polygon fill="midnightblue" stroke="midnightblue" points="1084.34,-561.68 1078.21,-570.32 1088.39,-567.38 1084.34,-561.68"/>
</g>
<!-- Node3 -->
<g id="node3" class="node">
<title>Node3</title>
<g id="a_node3"><a xlink:href="analysis__module_8h.html" target="_top" xlink:title=" ">
<polygon fill="none" stroke="black" points="530,-313.5 530,-343.5 642,-343.5 642,-313.5 530,-313.5"/>
<text text-anchor="start" x="538" y="-331.5" font-family="Helvetica,sans-Serif" font-size="10.00">HealthGPS/analysis</text>
<text text-anchor="middle" x="586" y="-320.5" font-family="Helvetica,sans-Serif" font-size="10.00">_module.h</text>
</a>
</g>
</g>
<!-- Node2&#45;&gt;Node3 -->
<g id="edge2" class="edge">
<title>Node2&#45;&gt;Node3</title>
<path fill="none" stroke="midnightblue" d="M960.86,-510.35C940.61,-501.49 913.06,-489.25 889,-478 786.85,-430.23 667,-370.33 613.82,-343.56"/>
<polygon fill="midnightblue" stroke="midnightblue" points="959.6,-513.62 970.16,-514.42 962.4,-507.21 959.6,-513.62"/>
</g>
<!-- Node6 -->
<g id="node6" class="node">
<title>Node6</title>
<g id="a_node6"><a xlink:href="HealthGPS_2api_8h.html" target="_top" xlink:title=" ">
<polygon fill="none" stroke="black" points="1364.5,-56.5 1364.5,-75.5 1459.5,-75.5 1459.5,-56.5 1364.5,-56.5"/>
<text text-anchor="middle" x="1412" y="-63.5" font-family="Helvetica,sans-Serif" font-size="10.00">HealthGPS/api.h</text>
</a>
</g>
</g>
<!-- Node2&#45;&gt;Node6 -->
<g id="edge14" class="edge">
<title>Node2&#45;&gt;Node6</title>
<path fill="none" stroke="midnightblue" d="M911.82,-521.2C677.98,-514.78 0,-488.27 0,-396.5 0,-396.5 0,-396.5 0,-193.5 0,-44.81 1185.07,-90.94 1333,-76 1343.16,-74.97 1354.05,-73.79 1364.4,-72.62"/>
<polygon fill="midnightblue" stroke="midnightblue" points="911.86,-524.7 921.95,-521.47 912.05,-517.7 911.86,-524.7"/>
</g>
<!-- Node10 -->
<g id="node10" class="node">
<title>Node10</title>
<g id="a_node10"><a xlink:href="configuration_8h.html" target="_top" xlink:title=" ">
<polygon fill="none" stroke="black" points="1666,-56.5 1666,-75.5 1852,-75.5 1852,-56.5 1666,-56.5"/>
<text text-anchor="middle" x="1759" y="-63.5" font-family="Helvetica,sans-Serif" font-size="10.00">HealthGPS.Console/configuration.h</text>
</a>
</g>
</g>
<!-- Node2&#45;&gt;Node10 -->
<g id="edge70" class="edge">
<title>Node2&#45;&gt;Node10</title>
<path fill="none" stroke="midnightblue" d="M1067.69,-514.02C1067.8,-514.02 1067.9,-514.01 1068,-514 1458.25,-483.55 1557.81,-509.28 1948,-478 2099.93,-465.82 2629,-548.91 2629,-396.5 2629,-396.5 2629,-396.5 2629,-193.5 2629,-115.66 2076.54,-81.55 1852.11,-70.9"/>
<polygon fill="midnightblue" stroke="midnightblue" points="1067.7,-510.51 1058.04,-514.85 1068.3,-517.49 1067.7,-510.51"/>
</g>
<!-- Node13 -->
<g id="node13" class="node">
<title>Node13</title>
<g id="a_node13"><a xlink:href="converter_8h.html" target="_top" xlink:title=" ">
<polygon fill="none" stroke="black" points="386,-319 386,-338 512,-338 512,-319 386,-319"/>
<text text-anchor="middle" x="449" y="-326" font-family="Helvetica,sans-Serif" font-size="10.00">HealthGPS/converter.h</text>
</a>
</g>
</g>
<!-- Node2&#45;&gt;Node13 -->
<g id="edge15" class="edge">
<title>Node2&#45;&gt;Node13</title>
<path fill="none" stroke="midnightblue" d="M944.34,-511.98C910.99,-503.59 864.83,-491.25 825,-478 686.15,-431.8 524.06,-362.35 468.69,-338.17"/>
<polygon fill="midnightblue" stroke="midnightblue" points="943.71,-515.43 954.26,-514.46 945.4,-508.64 943.71,-515.43"/>
</g>
<!-- Node17 -->
<g id="node17" class="node">
<title>Node17</title>
<g id="a_node17"><a xlink:href="demographic_8h.html" target="_top" xlink:title=" ">
<polygon fill="none" stroke="black" points="898,-319 898,-338 1042,-338 1042,-319 898,-319"/>
<text text-anchor="middle" x="970" y="-326" font-family="Helvetica,sans-Serif" font-size="10.00">HealthGPS/demographic.h</text>
</a>
</g>
</g>
<!-- Node2&#45;&gt;Node17 -->
<g id="edge21" class="edge">
<title>Node2&#45;&gt;Node17</title>
<path fill="none" stroke="midnightblue" d="M975.02,-506.47C968.78,-498.48 962.23,-488.38 959,-478 943.1,-426.9 960.11,-361.35 967.2,-338.12"/>
<polygon fill="midnightblue" stroke="midnightblue" points="972.42,-508.81 981.52,-514.23 977.79,-504.32 972.42,-508.81"/>
</g>
<!-- Node18 -->
<g id="node18" class="node">
<title>Node18</title>
<g id="a_node18"><a xlink:href="HealthGPS_2disease_8h.html" target="_top" xlink:title=" ">
<polygon fill="none" stroke="black" points="1198,-319 1198,-338 1316,-338 1316,-319 1198,-319"/>
<text text-anchor="middle" x="1257" y="-326" font-family="Helvetica,sans-Serif" font-size="10.00">HealthGPS/disease.h</text>
</a>
</g>
</g>
<!-- Node2&#45;&gt;Node18 -->
<g id="edge24" class="edge">
<title>Node2&#45;&gt;Node18</title>
<path fill="none" stroke="midnightblue" d="M1060.92,-512.15C1088.58,-505.49 1119.47,-494.87 1144,-478 1200.33,-439.27 1240.57,-363.5 1252.97,-338.06"/>
<polygon fill="midnightblue" stroke="midnightblue" points="1059.87,-508.8 1050.89,-514.43 1061.42,-515.63 1059.87,-508.8"/>
</g>
<!-- Node20 -->
<g id="node20" class="node">
<title>Node20</title>
<g id="a_node20"><a xlink:href="modelinput_8cpp.html" target="_top" xlink:title=" ">
<polygon fill="none" stroke="black" points="967.5,-453 967.5,-472 1114.5,-472 1114.5,-453 967.5,-453"/>
<text text-anchor="middle" x="1041" y="-460" font-family="Helvetica,sans-Serif" font-size="10.00">HealthGPS/modelinput.cpp</text>
</a>
</g>
</g>
<!-- Node2&#45;&gt;Node20 -->
<g id="edge27" class="edge">
<title>Node2&#45;&gt;Node20</title>
<path fill="none" stroke="midnightblue" d="M1004,-506.67C1013.61,-495.45 1025.99,-481.02 1033.71,-472.01"/>
<polygon fill="midnightblue" stroke="midnightblue" points="1001.16,-504.6 997.31,-514.48 1006.47,-509.16 1001.16,-504.6"/>
</g>
<!-- Node21 -->
<g id="node21" class="node">
<title>Node21</title>
<g id="a_node21"><a xlink:href="modulefactory_8h.html" target="_top" xlink:title=" ">
<polygon fill="none" stroke="black" points="218,-319 218,-338 368,-338 368,-319 218,-319"/>
<text text-anchor="middle" x="293" y="-326" font-family="Helvetica,sans-Serif" font-size="10.00">HealthGPS/modulefactory.h</text>
</a>
</g>
</g>
<!-- Node2&#45;&gt;Node21 -->
<g id="edge28" class="edge">
<title>Node2&#45;&gt;Node21</title>
<path fill="none" stroke="midnightblue" d="M917.95,-512.98C867.23,-505.24 797.96,-493.27 738,-478 572.26,-435.79 378.99,-362.9 314.89,-338.07"/>
<polygon fill="midnightblue" stroke="midnightblue" points="917.43,-516.45 927.84,-514.48 918.48,-509.52 917.43,-516.45"/>
</g>
<!-- Node23 -->
<g id="node23" class="node">
<title>Node23</title>
<g id="a_node23"><a xlink:href="repository_8h.html" target="_top" xlink:title=" ">
<polygon fill="none" stroke="black" points="783,-386 783,-405 911,-405 911,-386 783,-386"/>
<text text-anchor="middle" x="847" y="-393" font-family="Helvetica,sans-Serif" font-size="10.00">HealthGPS/repository.h</text>
</a>
</g>
</g>
<!-- Node2&#45;&gt;Node23 -->
<g id="edge31" class="edge">
<title>Node2&#45;&gt;Node23</title>
<path fill="none" stroke="midnightblue" d="M967.26,-508.88C954.4,-500.5 938.27,-489.33 925,-478 896.69,-453.84 867.44,-420.65 854.24,-405.14"/>
<polygon fill="midnightblue" stroke="midnightblue" points="965.66,-512.01 975.97,-514.45 969.43,-506.12 965.66,-512.01"/>
</g>
<!-- Node24 -->
<g id="node24" class="node">
<title>Node24</title>
<g id="a_node24"><a xlink:href="riskfactor_8h.html" target="_top" xlink:title=" ">
<polygon fill="none" stroke="black" points="1401,-252 1401,-271 1527,-271 1527,-252 1401,-252"/>
<text text-anchor="middle" x="1464" y="-259" font-family="Helvetica,sans-Serif" font-size="10.00">HealthGPS/riskfactor.h</text>
</a>
</g>
</g>
<!-- Node2&#45;&gt;Node24 -->
<g id="edge46" class="edge">
<title>Node2&#45;&gt;Node24</title>
<path fill="none" stroke="midnightblue" d="M1068.21,-512.59C1102.35,-505.9 1142.03,-495.14 1175,-478 1224.32,-452.36 1316.87,-344.02 1363,-313 1389.03,-295.5 1421.98,-280.15 1443.02,-271.09"/>
<polygon fill="midnightblue" stroke="midnightblue" points="1067.45,-509.17 1058.27,-514.45 1068.74,-516.05 1067.45,-509.17"/>
</g>
<!-- Node26 -->
<g id="node26" class="node">
<title>Node26</title>
<g id="a_node26"><a xlink:href="ses__noise__module_8h.html" target="_top" xlink:title=" ">
<polygon fill="none" stroke="black" points="1060.5,-313.5 1060.5,-343.5 1179.5,-343.5 1179.5,-313.5 1060.5,-313.5"/>
<text text-anchor="start" x="1068.5" y="-331.5" font-family="Helvetica,sans-Serif" font-size="10.00">HealthGPS/ses_noise</text>
<text text-anchor="middle" x="1120" y="-320.5" font-family="Helvetica,sans-Serif" font-size="10.00">_module.h</text>
</a>
</g>
</g>
<!-- Node2&#45;&gt;Node26 -->
<g id="edge47" class="edge">
<title>Node2&#45;&gt;Node26</title>
<path fill="none" stroke="midnightblue" d="M1068.04,-513.9C1089.64,-507.38 1110.77,-496.4 1124,-478 1153.36,-437.17 1135.67,-372.38 1125.57,-343.82"/>
<polygon fill="midnightblue" stroke="midnightblue" points="1066.85,-510.6 1058.11,-516.59 1068.68,-517.36 1066.85,-510.6"/>
</g>
<!-- Node30 -->
<g id="node30" class="node">
<title>Node30</title>
<g id="a_node30"><a xlink:href="simulation__definition_8h.html" target="_top" xlink:title=" ">
<polygon fill="none" stroke="black" points="1815.5,-447.5 1815.5,-477.5 1938.5,-477.5 1938.5,-447.5 1815.5,-447.5"/>
<text text-anchor="start" x="1823.5" y="-465.5" font-family="Helvetica,sans-Serif" font-size="10.00">HealthGPS/simulation</text>
<text text-anchor="middle" x="1877" y="-454.5" font-family="Helvetica,sans-Serif" font-size="10.00">_definition.h</text>
</a>
</g>
</g>
<!-- Node2&#45;&gt;Node30 -->
<g id="edge48" class="edge">
<title>Node2&#45;&gt;Node30</title>
<path fill="none" stroke="midnightblue" d="M1067.69,-514.03C1067.8,-514.02 1067.9,-514.01 1068,-514 1346.42,-489.26 1679.81,-472.51 1815.26,-466.25"/>
<polygon fill="midnightblue" stroke="midnightblue" points="1067.67,-510.51 1058.04,-514.94 1068.33,-517.48 1067.67,-510.51"/>
</g>
<!-- Node4 -->
<g id="node4" class="node">
<title>Node4</title>
<g id="a_node4"><a xlink:href="analysis__module_8cpp.html" target="_top" xlink:title=" ">
<polygon fill="none" stroke="black" points="439,-246.5 439,-276.5 551,-276.5 551,-246.5 439,-246.5"/>
<text text-anchor="start" x="447" y="-264.5" font-family="Helvetica,sans-Serif" font-size="10.00">HealthGPS/analysis</text>
<text text-anchor="middle" x="495" y="-253.5" font-family="Helvetica,sans-Serif" font-size="10.00">_module.cpp</text>
</a>
</g>
</g>
<!-- Node3&#45;&gt;Node4 -->
<g id="edge3" class="edge">
<title>Node3&#45;&gt;Node4</title>
<path fill="none" stroke="midnightblue" d="M557.93,-307.45C543.93,-297.45 527.34,-285.6 514.71,-276.58"/>
<polygon fill="midnightblue" stroke="midnightblue" points="556.08,-310.43 566.25,-313.4 560.15,-304.74 556.08,-310.43"/>
</g>
<!-- Node5 -->
<g id="node5" class="node">
<title>Node5</title>
<g id="a_node5"><a xlink:href="simulation__module_8h.html" target="_top" xlink:title=" ">
<polygon fill="none" stroke="black" points="1139.5,-179.5 1139.5,-209.5 1262.5,-209.5 1262.5,-179.5 1139.5,-179.5"/>
<text text-anchor="start" x="1147.5" y="-197.5" font-family="Helvetica,sans-Serif" font-size="10.00">HealthGPS/simulation</text>
<text text-anchor="middle" x="1201" y="-186.5" font-family="Helvetica,sans-Serif" font-size="10.00">_module.h</text>
</a>
</g>
</g>
<!-- Node3&#45;&gt;Node5 -->
<g id="edge4" class="edge">
<title>Node3&#45;&gt;Node5</title>
<path fill="none" stroke="midnightblue" d="M582.32,-303.32C581.01,-284.89 582.75,-260.32 598,-246 636.89,-209.48 993.7,-199.12 1139.43,-196.4"/>
<polygon fill="midnightblue" stroke="midnightblue" points="578.85,-303.75 583.36,-313.33 585.81,-303.02 578.85,-303.75"/>
</g>
<!-- Node5&#45;&gt;Node6 -->
<g id="edge5" class="edge">
<title>Node5&#45;&gt;Node6</title>
<path fill="none" stroke="midnightblue" d="M1197.86,-169.32C1196.93,-151.26 1198.93,-127.19 1213,-112 1223.29,-100.89 1308.62,-84.55 1364.16,-74.92"/>
<polygon fill="midnightblue" stroke="midnightblue" points="1194.38,-169.72 1198.7,-179.39 1201.35,-169.13 1194.38,-169.72"/>
</g>
<!-- Node8 -->
<g id="node8" class="node">
<title>Node8</title>
<g id="a_node8"><a xlink:href="healthgps_8h.html" target="_top" xlink:title=" ">
<polygon fill="none" stroke="black" points="1363,-118 1363,-137 1491,-137 1491,-118 1363,-118"/>
<text text-anchor="middle" x="1427" y="-125" font-family="Helvetica,sans-Serif" font-size="10.00">HealthGPS/healthgps.h</text>
</a>
</g>
</g>
<!-- Node5&#45;&gt;Node8 -->
<g id="edge7" class="edge">
<title>Node5&#45;&gt;Node8</title>
<path fill="none" stroke="midnightblue" d="M1259.51,-176.67C1303.68,-163.97 1362.45,-147.06 1397.35,-137.03"/>
<polygon fill="midnightblue" stroke="midnightblue" points="1258.4,-173.35 1249.76,-179.48 1260.34,-180.08 1258.4,-173.35"/>
</g>
<!-- Node12 -->
<g id="node12" class="node">
<title>Node12</title>
<g id="a_node12"><a xlink:href="simulation__module_8cpp.html" target="_top" xlink:title=" ">
<polygon fill="none" stroke="black" points="1221.5,-112.5 1221.5,-142.5 1344.5,-142.5 1344.5,-112.5 1221.5,-112.5"/>
<text text-anchor="start" x="1229.5" y="-130.5" font-family="Helvetica,sans-Serif" font-size="10.00">HealthGPS/simulation</text>
<text text-anchor="middle" x="1283" y="-119.5" font-family="Helvetica,sans-Serif" font-size="10.00">_module.cpp</text>
</a>
</g>
</g>
<!-- Node5&#45;&gt;Node12 -->
<g id="edge13" class="edge">
<title>Node5&#45;&gt;Node12</title>
<path fill="none" stroke="midnightblue" d="M1226.65,-173.17C1239.19,-163.23 1253.97,-151.51 1265.24,-142.58"/>
<polygon fill="midnightblue" stroke="midnightblue" points="1224.46,-170.44 1218.79,-179.4 1228.8,-175.93 1224.46,-170.44"/>
</g>
<!-- Node7 -->
<g id="node7" class="node">
<title>Node7</title>
<g id="a_node7"><a xlink:href="program_8cpp.html" target="_top" xlink:title=" ">
<polygon fill="none" stroke="black" points="1324.5,-0.5 1324.5,-19.5 1499.5,-19.5 1499.5,-0.5 1324.5,-0.5"/>
<text text-anchor="middle" x="1412" y="-7.5" font-family="Helvetica,sans-Serif" font-size="10.00">HealthGPS.Console/program.cpp</text>
</a>
</g>
</g>
<!-- Node6&#45;&gt;Node7 -->
<g id="edge6" class="edge">
<title>Node6&#45;&gt;Node7</title>
<path fill="none" stroke="midnightblue" d="M1412,-45.8C1412,-36.91 1412,-26.78 1412,-19.75"/>
<polygon fill="midnightblue" stroke="midnightblue" points="1408.5,-46.08 1412,-56.08 1415.5,-46.08 1408.5,-46.08"/>
</g>
<!-- Node8&#45;&gt;Node6 -->
<g id="edge8" class="edge">
<title>Node8&#45;&gt;Node6</title>
<path fill="none" stroke="midnightblue" d="M1422.38,-108.16C1419.63,-97.27 1416.28,-83.99 1414.15,-75.51"/>
<polygon fill="midnightblue" stroke="midnightblue" points="1419.01,-109.13 1424.85,-117.98 1425.8,-107.42 1419.01,-109.13"/>
</g>
<!-- Node9 -->
<g id="node9" class="node">
<title>Node9</title>
<g id="a_node9"><a xlink:href="healthgps_8cpp.html" target="_top" xlink:title=" ">
<polygon fill="none" stroke="black" points="1184,-56.5 1184,-75.5 1324,-75.5 1324,-56.5 1184,-56.5"/>
<text text-anchor="middle" x="1254" y="-63.5" font-family="Helvetica,sans-Serif" font-size="10.00">HealthGPS/healthgps.cpp</text>
</a>
</g>
</g>
<!-- Node8&#45;&gt;Node9 -->
<g id="edge9" class="edge">
<title>Node8&#45;&gt;Node9</title>
<path fill="none" stroke="midnightblue" d="M1392.35,-114.58C1358.72,-103.02 1308.52,-85.75 1278.74,-75.51"/>
<polygon fill="midnightblue" stroke="midnightblue" points="1391.62,-118.03 1402.21,-117.98 1393.9,-111.41 1391.62,-118.03"/>
</g>
<!-- Node8&#45;&gt;Node10 -->
<g id="edge10" class="edge">
<title>Node8&#45;&gt;Node10</title>
<path fill="none" stroke="midnightblue" d="M1479.18,-115.98C1486.17,-114.61 1493.26,-113.26 1500,-112 1572.01,-98.59 1655.53,-84.31 1707.83,-75.52"/>
<polygon fill="midnightblue" stroke="midnightblue" points="1478.18,-112.61 1469.04,-117.97 1479.53,-119.47 1478.18,-112.61"/>
</g>
<!-- Node10&#45;&gt;Node7 -->
<g id="edge12" class="edge">
<title>Node10&#45;&gt;Node7</title>
<path fill="none" stroke="midnightblue" d="M1693.8,-54.85C1628.24,-44.65 1528.29,-29.1 1466.73,-19.52"/>
<polygon fill="midnightblue" stroke="midnightblue" points="1693.6,-58.36 1704.02,-56.44 1694.67,-51.45 1693.6,-58.36"/>
</g>
<!-- Node11 -->
<g id="node11" class="node">
<title>Node11</title>
<g id="a_node11"><a xlink:href="configuration_8cpp.html" target="_top" xlink:title=" ">
<polygon fill="none" stroke="black" points="1660.5,-0.5 1660.5,-19.5 1857.5,-19.5 1857.5,-0.5 1660.5,-0.5"/>
<text text-anchor="middle" x="1759" y="-7.5" font-family="Helvetica,sans-Serif" font-size="10.00">HealthGPS.Console/configuration.cpp</text>
</a>
</g>
</g>
<!-- Node10&#45;&gt;Node11 -->
<g id="edge11" class="edge">
<title>Node10&#45;&gt;Node11</title>
<path fill="none" stroke="midnightblue" d="M1759,-45.8C1759,-36.91 1759,-26.78 1759,-19.75"/>
<polygon fill="midnightblue" stroke="midnightblue" points="1755.5,-46.08 1759,-56.08 1762.5,-46.08 1755.5,-46.08"/>
</g>
<!-- Node13&#45;&gt;Node4 -->
<g id="edge16" class="edge">
<title>Node13&#45;&gt;Node4</title>
<path fill="none" stroke="midnightblue" d="M461.13,-310.35C468.59,-299.82 478.01,-286.5 485.03,-276.59"/>
<polygon fill="midnightblue" stroke="midnightblue" points="458.12,-308.55 455.2,-318.73 463.84,-312.59 458.12,-308.55"/>
</g>
<!-- Node13&#45;&gt;Node9 -->
<g id="edge19" class="edge">
<title>Node13&#45;&gt;Node9</title>
<path fill="none" stroke="midnightblue" d="M437.22,-310.02C426.76,-292.09 415.23,-264.32 430,-246 524.8,-128.39 1002.26,-84.08 1183.8,-71.31"/>
<polygon fill="midnightblue" stroke="midnightblue" points="434.47,-312.22 442.75,-318.84 440.41,-308.51 434.47,-312.22"/>
</g>
<!-- Node14 -->
<g id="node14" class="node">
<title>Node14</title>
<g id="a_node14"><a xlink:href="converter_8cpp.html" target="_top" xlink:title=" ">
<polygon fill="none" stroke="black" points="207.5,-252 207.5,-271 344.5,-271 344.5,-252 207.5,-252"/>
<text text-anchor="middle" x="276" y="-259" font-family="Helvetica,sans-Serif" font-size="10.00">HealthGPS/converter.cpp</text>
</a>
</g>
</g>
<!-- Node13&#45;&gt;Node14 -->
<g id="edge17" class="edge">
<title>Node13&#45;&gt;Node14</title>
<path fill="none" stroke="midnightblue" d="M416.45,-315.27C382.12,-302.37 328.9,-282.38 298.79,-271.06"/>
<polygon fill="midnightblue" stroke="midnightblue" points="415.43,-318.63 426.03,-318.87 417.9,-312.07 415.43,-318.63"/>
</g>
<!-- Node15 -->
<g id="node15" class="node">
<title>Node15</title>
<g id="a_node15"><a xlink:href="demographic_8cpp.html" target="_top" xlink:title=" ">
<polygon fill="none" stroke="black" points="765.5,-252 765.5,-271 920.5,-271 920.5,-252 765.5,-252"/>
<text text-anchor="middle" x="843" y="-259" font-family="Helvetica,sans-Serif" font-size="10.00">HealthGPS/demographic.cpp</text>
</a>
</g>
</g>
<!-- Node13&#45;&gt;Node15 -->
<g id="edge18" class="edge">
<title>Node13&#45;&gt;Node15</title>
<path fill="none" stroke="midnightblue" d="M499.91,-316.94C506.99,-315.56 514.17,-314.21 521,-313 625.04,-294.56 651.66,-293.69 756,-277 767.79,-275.11 780.48,-273.03 792.41,-271.05"/>
<polygon fill="midnightblue" stroke="midnightblue" points="498.81,-313.59 489.68,-318.96 500.17,-320.46 498.81,-313.59"/>
</g>
<!-- Node16 -->
<g id="node16" class="node">
<title>Node16</title>
<g id="a_node16"><a xlink:href="repository_8cpp.html" target="_top" xlink:title=" ">
<polygon fill="none" stroke="black" points="607,-252 607,-271 747,-271 747,-252 607,-252"/>
<text text-anchor="middle" x="677" y="-259" font-family="Helvetica,sans-Serif" font-size="10.00">HealthGPS/repository.cpp</text>
</a>
</g>
</g>
<!-- Node13&#45;&gt;Node16 -->
<g id="edge20" class="edge">
<title>Node13&#45;&gt;Node16</title>
<path fill="none" stroke="midnightblue" d="M489.02,-316.09C534.12,-303.23 606.43,-282.62 646.96,-271.06"/>
<polygon fill="midnightblue" stroke="midnightblue" points="487.93,-312.76 479.28,-318.87 489.85,-319.49 487.93,-312.76"/>
</g>
<!-- Node17&#45;&gt;Node5 -->
<g id="edge23" class="edge">
<title>Node17&#45;&gt;Node5</title>
<path fill="none" stroke="midnightblue" d="M1025.48,-316.63C1056.44,-308.86 1094.75,-296.29 1125,-277 1153.38,-258.9 1178.29,-227.75 1191.34,-209.66"/>
<polygon fill="midnightblue" stroke="midnightblue" points="1024.61,-313.24 1015.71,-318.99 1026.25,-320.05 1024.61,-313.24"/>
</g>
<!-- Node17&#45;&gt;Node15 -->
<g id="edge22" class="edge">
<title>Node17&#45;&gt;Node15</title>
<path fill="none" stroke="midnightblue" d="M944.16,-314.27C919,-301.4 881.51,-282.21 859.93,-271.17"/>
<polygon fill="midnightblue" stroke="midnightblue" points="942.64,-317.43 953.14,-318.87 945.83,-311.2 942.64,-317.43"/>
</g>
<!-- Node18&#45;&gt;Node5 -->
<g id="edge26" class="edge">
<title>Node18&#45;&gt;Node5</title>
<path fill="none" stroke="midnightblue" d="M1249.41,-309.6C1238.17,-283.11 1217.34,-234.01 1207.06,-209.78"/>
<polygon fill="midnightblue" stroke="midnightblue" points="1246.2,-311 1253.33,-318.84 1252.64,-308.27 1246.2,-311"/>
</g>
<!-- Node19 -->
<g id="node19" class="node">
<title>Node19</title>
<g id="a_node19"><a xlink:href="disease_8cpp.html" target="_top" xlink:title=" ">
<polygon fill="none" stroke="black" points="1253.5,-252 1253.5,-271 1382.5,-271 1382.5,-252 1253.5,-252"/>
<text text-anchor="middle" x="1318" y="-259" font-family="Helvetica,sans-Serif" font-size="10.00">HealthGPS/disease.cpp</text>
</a>
</g>
</g>
<!-- Node18&#45;&gt;Node19 -->
<g id="edge25" class="edge">
<title>Node18&#45;&gt;Node19</title>
<path fill="none" stroke="midnightblue" d="M1272.36,-311.13C1284.29,-298.42 1300.36,-281.3 1309.9,-271.13"/>
<polygon fill="midnightblue" stroke="midnightblue" points="1269.52,-309.05 1265.23,-318.73 1274.62,-313.84 1269.52,-309.05"/>
</g>
<!-- Node21&#45;&gt;Node5 -->
<g id="edge30" class="edge">
<title>Node21&#45;&gt;Node5</title>
<path fill="none" stroke="midnightblue" d="M311.43,-312.61C336.53,-293.3 383.66,-260.39 430,-246 561.95,-205.03 980.78,-197.3 1139.36,-195.84"/>
<polygon fill="midnightblue" stroke="midnightblue" points="309.22,-309.89 303.51,-318.82 313.54,-315.4 309.22,-309.89"/>
</g>
<!-- Node22 -->
<g id="node22" class="node">
<title>Node22</title>
<g id="a_node22"><a xlink:href="modulefactory_8cpp.html" target="_top" xlink:title=" ">
<polygon fill="none" stroke="black" points="28.5,-252 28.5,-271 189.5,-271 189.5,-252 28.5,-252"/>
<text text-anchor="middle" x="109" y="-259" font-family="Helvetica,sans-Serif" font-size="10.00">HealthGPS/modulefactory.cpp</text>
</a>
</g>
</g>
<!-- Node21&#45;&gt;Node22 -->
<g id="edge29" class="edge">
<title>Node21&#45;&gt;Node22</title>
<path fill="none" stroke="midnightblue" d="M258.85,-315.44C222.35,-302.54 165.4,-282.42 133.24,-271.06"/>
<polygon fill="midnightblue" stroke="midnightblue" points="257.97,-318.84 268.57,-318.87 260.3,-312.24 257.97,-318.84"/>
</g>
<!-- Node23&#45;&gt;Node3 -->
<g id="edge32" class="edge">
<title>Node23&#45;&gt;Node3</title>
<path fill="none" stroke="midnightblue" d="M802.74,-383.48C758.56,-372.47 690.5,-355.52 642.45,-343.56"/>
<polygon fill="midnightblue" stroke="midnightblue" points="802.06,-386.92 812.61,-385.94 803.75,-380.12 802.06,-386.92"/>
</g>
<!-- Node23&#45;&gt;Node16 -->
<g id="edge36" class="edge">
<title>Node23&#45;&gt;Node16</title>
<path fill="none" stroke="midnightblue" d="M772.59,-387.78C742.38,-381.19 709.76,-368.46 689,-344 671.23,-323.07 673.37,-287.69 675.54,-271.31"/>
<polygon fill="midnightblue" stroke="midnightblue" points="772.24,-391.27 782.73,-389.78 773.6,-384.41 772.24,-391.27"/>
</g>
<!-- Node23&#45;&gt;Node17 -->
<g id="edge33" class="edge">
<title>Node23&#45;&gt;Node17</title>
<path fill="none" stroke="midnightblue" d="M872.35,-381.1C896.71,-368.23 932.8,-349.16 953.6,-338.17"/>
<polygon fill="midnightblue" stroke="midnightblue" points="870.54,-378.1 863.33,-385.87 873.81,-384.29 870.54,-378.1"/>
</g>
<!-- Node23&#45;&gt;Node18 -->
<g id="edge34" class="edge">
<title>Node23&#45;&gt;Node18</title>
<path fill="none" stroke="midnightblue" d="M921.14,-384.93C990.57,-375.65 1097.09,-360.57 1189,-344 1198.74,-342.24 1209.22,-340.13 1218.96,-338.06"/>
<polygon fill="midnightblue" stroke="midnightblue" points="920.63,-381.47 911.18,-386.26 921.55,-388.41 920.63,-381.47"/>
</g>
<!-- Node23&#45;&gt;Node21 -->
<g id="edge35" class="edge">
<title>Node23&#45;&gt;Node21</title>
<path fill="none" stroke="midnightblue" d="M772.85,-388.01C680.08,-379.55 516.44,-363.51 377,-344 364.69,-342.28 351.41,-340.12 339.13,-338.01"/>
<polygon fill="midnightblue" stroke="midnightblue" points="772.71,-391.51 782.98,-388.93 773.34,-384.54 772.71,-391.51"/>
</g>
<!-- Node23&#45;&gt;Node24 -->
<g id="edge37" class="edge">
<title>Node23&#45;&gt;Node24</title>
<path fill="none" stroke="midnightblue" d="M850.87,-376.27C856.02,-357 867.13,-327.43 889,-313 982.54,-251.29 1280.96,-292.09 1392,-277 1403.24,-275.47 1415.37,-273.25 1426.41,-271.01"/>
<polygon fill="midnightblue" stroke="midnightblue" points="847.47,-375.46 848.55,-386 854.28,-377.09 847.47,-375.46"/>
</g>
<!-- Node23&#45;&gt;Node26 -->
<g id="edge40" class="edge">
<title>Node23&#45;&gt;Node26</title>
<path fill="none" stroke="midnightblue" d="M892.71,-383.62C938.91,-372.62 1010.48,-355.58 1060.95,-343.56"/>
<polygon fill="midnightblue" stroke="midnightblue" points="891.89,-380.21 882.97,-385.94 893.51,-387.02 891.89,-380.21"/>
</g>
<!-- Node28 -->
<g id="node28" class="node">
<title>Node28</title>
<g id="a_node28"><a xlink:href="model__parser_8h.html" target="_top" xlink:title=" ">
<polygon fill="none" stroke="black" points="698,-313.5 698,-343.5 842,-343.5 842,-313.5 698,-313.5"/>
<text text-anchor="start" x="706" y="-331.5" font-family="Helvetica,sans-Serif" font-size="10.00">HealthGPS.Console/model</text>
<text text-anchor="middle" x="770" y="-320.5" font-family="Helvetica,sans-Serif" font-size="10.00">_parser.h</text>
</a>
</g>
</g>
<!-- Node23&#45;&gt;Node28 -->
<g id="edge43" class="edge">
<title>Node23&#45;&gt;Node28</title>
<path fill="none" stroke="midnightblue" d="M828.92,-379.24C816.14,-368.45 799.14,-354.1 786.69,-343.59"/>
<polygon fill="midnightblue" stroke="midnightblue" points="826.72,-381.96 836.62,-385.73 831.23,-376.61 826.72,-381.96"/>
</g>
<!-- Node24&#45;&gt;Node5 -->
<g id="edge39" class="edge">
<title>Node24&#45;&gt;Node5</title>
<path fill="none" stroke="midnightblue" d="M1419.4,-249.48C1374.88,-238.47 1306.3,-221.52 1257.89,-209.56"/>
<polygon fill="midnightblue" stroke="midnightblue" points="1418.8,-252.93 1429.35,-251.94 1420.48,-246.14 1418.8,-252.93"/>
</g>
<!-- Node25 -->
<g id="node25" class="node">
<title>Node25</title>
<g id="a_node25"><a xlink:href="riskfactor_8cpp.html" target="_top" xlink:title=" ">
<polygon fill="none" stroke="black" points="1395.5,-185 1395.5,-204 1532.5,-204 1532.5,-185 1395.5,-185"/>
<text text-anchor="middle" x="1464" y="-192" font-family="Helvetica,sans-Serif" font-size="10.00">HealthGPS/riskfactor.cpp</text>
</a>
</g>
</g>
<!-- Node24&#45;&gt;Node25 -->
<g id="edge38" class="edge">
<title>Node24&#45;&gt;Node25</title>
<path fill="none" stroke="midnightblue" d="M1464,-241.54C1464,-229.17 1464,-213.62 1464,-204.13"/>
<polygon fill="midnightblue" stroke="midnightblue" points="1460.5,-241.73 1464,-251.73 1467.5,-241.73 1460.5,-241.73"/>
</g>
<!-- Node26&#45;&gt;Node5 -->
<g id="edge42" class="edge">
<title>Node26&#45;&gt;Node5</title>
<path fill="none" stroke="midnightblue" d="M1140.84,-305.66C1148.37,-297.12 1156.59,-286.99 1163,-277 1177.26,-254.8 1189.25,-226.39 1195.76,-209.65"/>
<polygon fill="midnightblue" stroke="midnightblue" points="1138.03,-303.54 1133.91,-313.3 1143.22,-308.24 1138.03,-303.54"/>
</g>
<!-- Node27 -->
<g id="node27" class="node">
<title>Node27</title>
<g id="a_node27"><a xlink:href="ses__noise__module_8cpp.html" target="_top" xlink:title=" ">
<polygon fill="none" stroke="black" points="1545.5,-246.5 1545.5,-276.5 1664.5,-276.5 1664.5,-246.5 1545.5,-246.5"/>
<text text-anchor="start" x="1553.5" y="-264.5" font-family="Helvetica,sans-Serif" font-size="10.00">HealthGPS/ses_noise</text>
<text text-anchor="middle" x="1605" y="-253.5" font-family="Helvetica,sans-Serif" font-size="10.00">_module.cpp</text>
</a>
</g>
</g>
<!-- Node26&#45;&gt;Node27 -->
<g id="edge41" class="edge">
<title>Node26&#45;&gt;Node27</title>
<path fill="none" stroke="midnightblue" d="M1190.07,-312.95C1343.98,-289.52 1386.11,-300.46 1536,-277 1539.02,-276.53 1542.11,-276.01 1545.23,-275.46"/>
<polygon fill="midnightblue" stroke="midnightblue" points="1189.12,-309.56 1179.77,-314.54 1190.19,-316.47 1189.12,-309.56"/>
</g>
<!-- Node28&#45;&gt;Node7 -->
<g id="edge45" class="edge">
<title>Node28&#45;&gt;Node7</title>
<path fill="none" stroke="midnightblue" d="M852.32,-314.06C854.57,-313.7 856.8,-313.35 859,-313 910.74,-304.79 1053.58,-312.62 1092,-277 1119.28,-251.71 1111,-232.69 1111,-195.5 1111,-195.5 1111,-195.5 1111,-126.5 1111,-84.18 1138.08,-76.68 1175,-56 1220.4,-30.57 1277.56,-19.22 1324.37,-14.28"/>
<polygon fill="midnightblue" stroke="midnightblue" points="851.69,-310.62 842.37,-315.66 852.79,-317.53 851.69,-310.62"/>
</g>
<!-- Node29 -->
<g id="node29" class="node">
<title>Node29</title>
<g id="a_node29"><a xlink:href="model__parser_8cpp.html" target="_top" xlink:title=" ">
<polygon fill="none" stroke="black" points="939,-246.5 939,-276.5 1083,-276.5 1083,-246.5 939,-246.5"/>
<text text-anchor="start" x="947" y="-264.5" font-family="Helvetica,sans-Serif" font-size="10.00">HealthGPS.Console/model</text>
<text text-anchor="middle" x="1011" y="-253.5" font-family="Helvetica,sans-Serif" font-size="10.00">_parser.cpp</text>
</a>
</g>
</g>
<!-- Node28&#45;&gt;Node29 -->
<g id="edge44" class="edge">
<title>Node28&#45;&gt;Node29</title>
<path fill="none" stroke="midnightblue" d="M831.73,-310.85C871.03,-300.25 921.36,-286.68 958.68,-276.61"/>
<polygon fill="midnightblue" stroke="midnightblue" points="830.74,-307.49 822,-313.48 832.56,-314.25 830.74,-307.49"/>
</g>
<!-- Node31 -->
<g id="node31" class="node">
<title>Node31</title>
<g id="a_node31"><a xlink:href="runtime__context_8h.html" target="_top" xlink:title=" ">
<polygon fill="none" stroke="black" points="1716.5,-386 1716.5,-405 1877.5,-405 1877.5,-386 1716.5,-386"/>
<text text-anchor="middle" x="1797" y="-393" font-family="Helvetica,sans-Serif" font-size="10.00">HealthGPS/runtime_context.h</text>
</a>
</g>
</g>
<!-- Node30&#45;&gt;Node31 -->
<g id="edge49" class="edge">
<title>Node30&#45;&gt;Node31</title>
<path fill="none" stroke="midnightblue" d="M1851.78,-441.01C1836.93,-428.94 1818.91,-414.3 1807.7,-405.19"/>
<polygon fill="midnightblue" stroke="midnightblue" points="1849.67,-443.81 1859.64,-447.4 1854.09,-438.37 1849.67,-443.81"/>
</g>
<!-- Node40 -->
<g id="node40" class="node">
<title>Node40</title>
<g id="a_node40"><a xlink:href="simulation_8h.html" target="_top" xlink:title=" ">
<polygon fill="none" stroke="black" points="2248,-185 2248,-204 2380,-204 2380,-185 2248,-185"/>
<text text-anchor="middle" x="2314" y="-192" font-family="Helvetica,sans-Serif" font-size="10.00">HealthGPS/simulation.h</text>
</a>
</g>
</g>
<!-- Node30&#45;&gt;Node40 -->
<g id="edge64" class="edge">
<title>Node30&#45;&gt;Node40</title>
<path fill="none" stroke="midnightblue" d="M1948.95,-460.57C2110.38,-456.82 2493.56,-437.98 2573,-344 2637.75,-267.41 2456.64,-221.76 2364.35,-204.04"/>
<polygon fill="midnightblue" stroke="midnightblue" points="1948.56,-457.08 1938.64,-460.8 1948.72,-464.08 1948.56,-457.08"/>
</g>
<!-- Node43 -->
<g id="node43" class="node">
<title>Node43</title>
<g id="a_node43"><a xlink:href="simulation__definition_8cpp.html" target="_top" xlink:title=" ">
<polygon fill="none" stroke="black" points="1895.5,-380.5 1895.5,-410.5 2018.5,-410.5 2018.5,-380.5 1895.5,-380.5"/>
<text text-anchor="start" x="1903.5" y="-398.5" font-family="Helvetica,sans-Serif" font-size="10.00">HealthGPS/simulation</text>
<text text-anchor="middle" x="1957" y="-387.5" font-family="Helvetica,sans-Serif" font-size="10.00">_definition.cpp</text>
</a>
</g>
</g>
<!-- Node30&#45;&gt;Node43 -->
<g id="edge69" class="edge">
<title>Node30&#45;&gt;Node43</title>
<path fill="none" stroke="midnightblue" d="M1902.37,-440.88C1914.53,-431.01 1928.78,-419.43 1939.68,-410.58"/>
<polygon fill="midnightblue" stroke="midnightblue" points="1899.91,-438.37 1894.36,-447.4 1904.33,-443.81 1899.91,-438.37"/>
</g>
<!-- Node31&#45;&gt;Node3 -->
<g id="edge50" class="edge">
<title>Node31&#45;&gt;Node3</title>
<path fill="none" stroke="midnightblue" d="M1705.99,-393.25C1516.42,-390.02 1065.54,-379.01 689,-344 673.72,-342.58 657.23,-340.5 642.02,-338.36"/>
<polygon fill="midnightblue" stroke="midnightblue" points="1706.13,-396.76 1716.19,-393.43 1706.25,-389.76 1706.13,-396.76"/>
</g>
<!-- Node31&#45;&gt;Node8 -->
<g id="edge57" class="edge">
<title>Node31&#45;&gt;Node8</title>
<path fill="none" stroke="midnightblue" d="M1857.53,-384.36C1867.37,-382.82 1877.46,-381.31 1887,-380 1956.8,-370.39 2155.09,-396.57 2202,-344 2211.17,-333.72 2210.54,-323.81 2202,-313 2178.52,-283.27 1627.42,-169.26 1469.15,-137.03"/>
<polygon fill="midnightblue" stroke="midnightblue" points="1856.72,-380.94 1847.4,-385.96 1857.82,-387.85 1856.72,-380.94"/>
</g>
<!-- Node31&#45;&gt;Node17 -->
<g id="edge53" class="edge">
<title>Node31&#45;&gt;Node17</title>
<path fill="none" stroke="midnightblue" d="M1705.95,-391.48C1565.27,-386.1 1286.76,-372.63 1052,-344 1039.37,-342.46 1025.74,-340.27 1013.28,-338.05"/>
<polygon fill="midnightblue" stroke="midnightblue" points="1706.13,-394.99 1716.25,-391.87 1706.39,-387.99 1706.13,-394.99"/>
</g>
<!-- Node31&#45;&gt;Node18 -->
<g id="edge54" class="edge">
<title>Node31&#45;&gt;Node18</title>
<path fill="none" stroke="midnightblue" d="M1709.55,-384.85C1621.86,-375.04 1482.98,-359.19 1363,-344 1347.8,-342.08 1331.38,-339.89 1316.12,-337.8"/>
<polygon fill="midnightblue" stroke="midnightblue" points="1709.4,-388.35 1719.72,-385.98 1710.17,-381.39 1709.4,-388.35"/>
</g>
<!-- Node31&#45;&gt;Node27 -->
<g id="edge63" class="edge">
<title>Node31&#45;&gt;Node27</title>
<path fill="none" stroke="midnightblue" d="M1813.92,-378.74C1830.53,-361.34 1851.21,-333.15 1835,-313 1833.64,-311.31 1732.36,-289.53 1664.67,-275.13"/>
<polygon fill="midnightblue" stroke="midnightblue" points="1811.34,-376.37 1806.72,-385.9 1816.28,-381.33 1811.34,-376.37"/>
</g>
<!-- Node32 -->
<g id="node32" class="node">
<title>Node32</title>
<g id="a_node32"><a xlink:href="default__cancer__model_8cpp.html" target="_top" xlink:title=" ">
<polygon fill="none" stroke="black" points="1882.5,-313.5 1882.5,-343.5 2025.5,-343.5 2025.5,-313.5 1882.5,-313.5"/>
<text text-anchor="start" x="1890.5" y="-331.5" font-family="Helvetica,sans-Serif" font-size="10.00">HealthGPS/default_cancer</text>
<text text-anchor="middle" x="1954" y="-320.5" font-family="Helvetica,sans-Serif" font-size="10.00">_model.cpp</text>
</a>
</g>
</g>
<!-- Node31&#45;&gt;Node32 -->
<g id="edge51" class="edge">
<title>Node31&#45;&gt;Node32</title>
<path fill="none" stroke="midnightblue" d="M1827.4,-381.91C1853.99,-370.91 1892.55,-354.94 1920.12,-343.53"/>
<polygon fill="midnightblue" stroke="midnightblue" points="1825.75,-378.81 1817.85,-385.87 1828.43,-385.28 1825.75,-378.81"/>
</g>
<!-- Node33 -->
<g id="node33" class="node">
<title>Node33</title>
<g id="a_node33"><a xlink:href="default__disease__model_8cpp.html" target="_top" xlink:title=" ">
<polygon fill="none" stroke="black" points="2043.5,-313.5 2043.5,-343.5 2192.5,-343.5 2192.5,-313.5 2043.5,-313.5"/>
<text text-anchor="start" x="2051.5" y="-331.5" font-family="Helvetica,sans-Serif" font-size="10.00">HealthGPS/default_disease</text>
<text text-anchor="middle" x="2118" y="-320.5" font-family="Helvetica,sans-Serif" font-size="10.00">_model.cpp</text>
</a>
</g>
</g>
<!-- Node31&#45;&gt;Node33 -->
<g id="edge52" class="edge">
<title>Node31&#45;&gt;Node33</title>
<path fill="none" stroke="midnightblue" d="M1849.39,-383.89C1903.65,-372.9 1988.73,-355.68 2048.57,-343.56"/>
<polygon fill="midnightblue" stroke="midnightblue" points="1848.4,-380.52 1839.3,-385.94 1849.79,-387.38 1848.4,-380.52"/>
</g>
<!-- Node34 -->
<g id="node34" class="node">
<title>Node34</title>
<g id="a_node34"><a xlink:href="energy__balance__hierarchical__model_8cpp.html" target="_top" xlink:title=" ">
<polygon fill="none" stroke="black" points="2247.5,-313.5 2247.5,-343.5 2396.5,-343.5 2396.5,-313.5 2247.5,-313.5"/>
<text text-anchor="start" x="2255.5" y="-331.5" font-family="Helvetica,sans-Serif" font-size="10.00">HealthGPS/energy_balance</text>
<text text-anchor="middle" x="2322" y="-320.5" font-family="Helvetica,sans-Serif" font-size="10.00">_hierarchical_model.cpp</text>
</a>
</g>
</g>
<!-- Node31&#45;&gt;Node34 -->
<g id="edge55" class="edge">
<title>Node31&#45;&gt;Node34</title>
<path fill="none" stroke="midnightblue" d="M1856.84,-384.38C1866.89,-382.81 1877.23,-381.29 1887,-380 2040.71,-359.66 2080.33,-364.61 2234,-344 2238.3,-343.42 2242.71,-342.8 2247.15,-342.15"/>
<polygon fill="midnightblue" stroke="midnightblue" points="1856.24,-380.93 1846.91,-385.95 1857.34,-387.84 1856.24,-380.93"/>
</g>
<!-- Node35 -->
<g id="node35" class="node">
<title>Node35</title>
<g id="a_node35"><a xlink:href="energy__balance__model_8cpp.html" target="_top" xlink:title=" ">
<polygon fill="none" stroke="black" points="2414.5,-313.5 2414.5,-343.5 2563.5,-343.5 2563.5,-313.5 2414.5,-313.5"/>
<text text-anchor="start" x="2422.5" y="-331.5" font-family="Helvetica,sans-Serif" font-size="10.00">HealthGPS/energy_balance</text>
<text text-anchor="middle" x="2489" y="-320.5" font-family="Helvetica,sans-Serif" font-size="10.00">_model.cpp</text>
</a>
</g>
</g>
<!-- Node31&#45;&gt;Node35 -->
<g id="edge56" class="edge">
<title>Node31&#45;&gt;Node35</title>
<path fill="none" stroke="midnightblue" d="M1855.02,-384.36C1865.64,-382.73 1876.63,-381.19 1887,-380 2116.71,-353.58 2176.47,-371.93 2406,-344 2408.76,-343.66 2411.57,-343.3 2414.4,-342.91"/>
<polygon fill="midnightblue" stroke="midnightblue" points="1854.33,-380.93 1845,-385.94 1855.42,-387.84 1854.33,-380.93"/>
</g>
<!-- Node36 -->
<g id="node36" class="node">
<title>Node36</title>
<g id="a_node36"><a xlink:href="hierarchical__model__static_8cpp.html" target="_top" xlink:title=" ">
<polygon fill="none" stroke="black" points="1372,-313.5 1372,-343.5 1500,-343.5 1500,-313.5 1372,-313.5"/>
<text text-anchor="start" x="1380" y="-331.5" font-family="Helvetica,sans-Serif" font-size="10.00">HealthGPS/hierarchical</text>
<text text-anchor="middle" x="1436" y="-320.5" font-family="Helvetica,sans-Serif" font-size="10.00">_model_static.cpp</text>
</a>
</g>
</g>
<!-- Node31&#45;&gt;Node36 -->
<g id="edge58" class="edge">
<title>Node31&#45;&gt;Node36</title>
<path fill="none" stroke="midnightblue" d="M1736.33,-384.27C1677.99,-374.34 1587.37,-358.65 1509,-344 1506.08,-343.45 1503.09,-342.89 1500.08,-342.31"/>
<polygon fill="midnightblue" stroke="midnightblue" points="1736.03,-387.77 1746.47,-385.99 1737.2,-380.87 1736.03,-387.77"/>
</g>
<!-- Node37 -->
<g id="node37" class="node">
<title>Node37</title>
<g id="a_node37"><a xlink:href="riskfactor__adjustment_8h.html" target="_top" xlink:title=" ">
<polygon fill="none" stroke="black" points="1518,-313.5 1518,-343.5 1636,-343.5 1636,-313.5 1518,-313.5"/>
<text text-anchor="start" x="1526" y="-331.5" font-family="Helvetica,sans-Serif" font-size="10.00">HealthGPS/riskfactor</text>
<text text-anchor="middle" x="1577" y="-320.5" font-family="Helvetica,sans-Serif" font-size="10.00">_adjustment.h</text>
</a>
</g>
</g>
<!-- Node31&#45;&gt;Node37 -->
<g id="edge59" class="edge">
<title>Node31&#45;&gt;Node37</title>
<path fill="none" stroke="midnightblue" d="M1757.79,-382.92C1720.49,-371.9 1664.3,-355.29 1624.48,-343.53"/>
<polygon fill="midnightblue" stroke="midnightblue" points="1757.2,-386.39 1767.79,-385.87 1759.19,-379.68 1757.2,-386.39"/>
</g>
<!-- Node39 -->
<g id="node39" class="node">
<title>Node39</title>
<g id="a_node39"><a xlink:href="runtime__context_8cpp.html" target="_top" xlink:title=" ">
<polygon fill="none" stroke="black" points="1654,-319 1654,-338 1826,-338 1826,-319 1654,-319"/>
<text text-anchor="middle" x="1740" y="-326" font-family="Helvetica,sans-Serif" font-size="10.00">HealthGPS/runtime_context.cpp</text>
</a>
</g>
</g>
<!-- Node31&#45;&gt;Node39 -->
<g id="edge62" class="edge">
<title>Node31&#45;&gt;Node39</title>
<path fill="none" stroke="midnightblue" d="M1782.65,-378.13C1771.5,-365.42 1756.48,-348.3 1747.57,-338.13"/>
<polygon fill="midnightblue" stroke="midnightblue" points="1780.09,-380.52 1789.31,-385.73 1785.35,-375.91 1780.09,-380.52"/>
</g>
<!-- Node37&#45;&gt;Node24 -->
<g id="edge60" class="edge">
<title>Node37&#45;&gt;Node24</title>
<path fill="none" stroke="midnightblue" d="M1543.63,-308.31C1522.11,-295.93 1495.17,-280.43 1478.79,-271.01"/>
<polygon fill="midnightblue" stroke="midnightblue" points="1542.07,-311.44 1552.48,-313.4 1545.56,-305.38 1542.07,-311.44"/>
</g>
<!-- Node38 -->
<g id="node38" class="node">
<title>Node38</title>
<g id="a_node38"><a xlink:href="riskfactor__adjustment_8cpp.html" target="_top" xlink:title=" ">
<polygon fill="none" stroke="black" points="1683,-246.5 1683,-276.5 1801,-276.5 1801,-246.5 1683,-246.5"/>
<text text-anchor="start" x="1691" y="-264.5" font-family="Helvetica,sans-Serif" font-size="10.00">HealthGPS/riskfactor</text>
<text text-anchor="middle" x="1742" y="-253.5" font-family="Helvetica,sans-Serif" font-size="10.00">_adjustment.cpp</text>
</a>
</g>
</g>
<!-- Node37&#45;&gt;Node38 -->
<g id="edge61" class="edge">
<title>Node37&#45;&gt;Node38</title>
<path fill="none" stroke="midnightblue" d="M1622.23,-309.68C1648.69,-299.26 1681.63,-286.28 1706.27,-276.58"/>
<polygon fill="midnightblue" stroke="midnightblue" points="1620.82,-306.47 1612.8,-313.4 1623.39,-312.99 1620.82,-306.47"/>
</g>
<!-- Node40&#45;&gt;Node8 -->
<g id="edge65" class="edge">
<title>Node40&#45;&gt;Node8</title>
<path fill="none" stroke="midnightblue" d="M2262.55,-183.15C2253.08,-181.54 2243.27,-180.06 2234,-179 1909.51,-141.8 1824.17,-182.92 1500,-143 1488.33,-141.56 1475.73,-139.32 1464.34,-137.01"/>
<polygon fill="midnightblue" stroke="midnightblue" points="2262.17,-186.64 2272.63,-184.94 2263.4,-179.75 2262.17,-186.64"/>
</g>
<!-- Node41 -->
<g id="node41" class="node">
<title>Node41</title>
<g id="a_node41"><a xlink:href="modelrunner_8h.html" target="_top" xlink:title=" ">
<polygon fill="none" stroke="black" points="1509,-118 1509,-137 1651,-137 1651,-118 1509,-118"/>
<text text-anchor="middle" x="1580" y="-125" font-family="Helvetica,sans-Serif" font-size="10.00">HealthGPS/modelrunner.h</text>
</a>
</g>
</g>
<!-- Node40&#45;&gt;Node41 -->
<g id="edge66" class="edge">
<title>Node40&#45;&gt;Node41</title>
<path fill="none" stroke="midnightblue" d="M2261.28,-183.16C2252.21,-181.6 2242.85,-180.14 2234,-179 2023.07,-151.81 1771.85,-137.42 1651.37,-131.62"/>
<polygon fill="midnightblue" stroke="midnightblue" points="2260.91,-186.64 2271.36,-184.94 2262.12,-179.75 2260.91,-186.64"/>
</g>
<!-- Node41&#45;&gt;Node6 -->
<g id="edge67" class="edge">
<title>Node41&#45;&gt;Node6</title>
<path fill="none" stroke="midnightblue" d="M1546.35,-114.58C1513.7,-103.02 1464.95,-85.75 1436.03,-75.51"/>
<polygon fill="midnightblue" stroke="midnightblue" points="1545.33,-117.94 1555.93,-117.98 1547.67,-111.34 1545.33,-117.94"/>
</g>
<!-- Node42 -->
<g id="node42" class="node">
<title>Node42</title>
<g id="a_node42"><a xlink:href="modelrunner_8cpp.html" target="_top" xlink:title=" ">
<polygon fill="none" stroke="black" points="1494.5,-56.5 1494.5,-75.5 1647.5,-75.5 1647.5,-56.5 1494.5,-56.5"/>
<text text-anchor="middle" x="1571" y="-63.5" font-family="Helvetica,sans-Serif" font-size="10.00">HealthGPS/modelrunner.cpp</text>
</a>
</g>
</g>
<!-- Node41&#45;&gt;Node42 -->
<g id="edge68" class="edge">
<title>Node41&#45;&gt;Node42</title>
<path fill="none" stroke="midnightblue" d="M1577.17,-107.82C1575.54,-97 1573.56,-83.9 1572.29,-75.51"/>
<polygon fill="midnightblue" stroke="midnightblue" points="1573.75,-108.61 1578.71,-117.98 1580.68,-107.56 1573.75,-108.61"/>
</g>
</g>
</svg>
