<?xml version="1.0" encoding="UTF-8" standalone="no"?>
<!DOCTYPE svg PUBLIC "-//W3C//DTD SVG 1.1//EN"
 "http://www.w3.org/Graphics/SVG/1.1/DTD/svg11.dtd">
<!-- Generated by graphviz version 2.43.0 (0)
 -->
<!-- Title: HealthGPS/simulation_definition.h Pages: 1 -->
<svg width="1910pt" height="486pt"
 viewBox="0.00 0.00 1910.00 486.00" xmlns="http://www.w3.org/2000/svg" xmlns:xlink="http://www.w3.org/1999/xlink">
<g id="graph0" class="graph" transform="scale(1 1) rotate(0) translate(4 482)">
<title>HealthGPS/simulation_definition.h</title>
<!-- Node1 -->
<g id="node1" class="node">
<title>Node1</title>
<g id="a_node1"><a xlink:title=" ">
<polygon fill="#bfbfbf" stroke="black" points="1689,-447.5 1689,-477.5 1812,-477.5 1812,-447.5 1689,-447.5"/>
<text text-anchor="start" x="1697" y="-465.5" font-family="Helvetica,sans-Serif" font-size="10.00">HealthGPS/simulation</text>
<text text-anchor="middle" x="1750.5" y="-454.5" font-family="Helvetica,sans-Serif" font-size="10.00">_definition.h</text>
</a>
</g>
</g>
<!-- Node2 -->
<g id="node2" class="node">
<title>Node2</title>
<g id="a_node2"><a xlink:href="runtime__context_8h.html" target="_top" xlink:title=" ">
<polygon fill="none" stroke="black" points="922,-386 922,-405 1083,-405 1083,-386 922,-386"/>
<text text-anchor="middle" x="1002.5" y="-393" font-family="Helvetica,sans-Serif" font-size="10.00">HealthGPS/runtime_context.h</text>
</a>
</g>
</g>
<!-- Node1&#45;&gt;Node2 -->
<g id="edge1" class="edge">
<title>Node1&#45;&gt;Node2</title>
<path fill="none" stroke="midnightblue" d="M1678.78,-455.27C1538.78,-443.1 1229.98,-416.27 1083.13,-403.51"/>
<polygon fill="midnightblue" stroke="midnightblue" points="1678.7,-458.77 1688.97,-456.15 1679.31,-451.8 1678.7,-458.77"/>
</g>
<!-- Node28 -->
<g id="node28" class="node">
<title>Node28</title>
<g id="a_node28"><a xlink:href="simulation_8h.html" target="_top" xlink:title=" ">
<polygon fill="none" stroke="black" points="1594.5,-185 1594.5,-204 1726.5,-204 1726.5,-185 1594.5,-185"/>
<text text-anchor="middle" x="1660.5" y="-192" font-family="Helvetica,sans-Serif" font-size="10.00">HealthGPS/simulation.h</text>
</a>
</g>
</g>
<!-- Node1&#45;&gt;Node28 -->
<g id="edge33" class="edge">
<title>Node1&#45;&gt;Node28</title>
<path fill="none" stroke="midnightblue" d="M1750.44,-436.74C1749.66,-406.67 1746.06,-354.78 1731.5,-313 1716.05,-268.66 1682.33,-222.98 1667.61,-204.28"/>
<polygon fill="midnightblue" stroke="midnightblue" points="1746.94,-437.19 1750.61,-447.13 1753.94,-437.07 1746.94,-437.19"/>
</g>
<!-- Node31 -->
<g id="node31" class="node">
<title>Node31</title>
<g id="a_node31"><a xlink:href="simulation__definition_8cpp.html" target="_top" xlink:title=" ">
<polygon fill="none" stroke="black" points="1779,-380.5 1779,-410.5 1902,-410.5 1902,-380.5 1779,-380.5"/>
<text text-anchor="start" x="1787" y="-398.5" font-family="Helvetica,sans-Serif" font-size="10.00">HealthGPS/simulation</text>
<text text-anchor="middle" x="1840.5" y="-387.5" font-family="Helvetica,sans-Serif" font-size="10.00">_definition.cpp</text>
</a>
</g>
</g>
<!-- Node1&#45;&gt;Node31 -->
<g id="edge38" class="edge">
<title>Node1&#45;&gt;Node31</title>
<path fill="none" stroke="midnightblue" d="M1778.26,-441.45C1792.11,-431.45 1808.52,-419.6 1821.01,-410.58"/>
<polygon fill="midnightblue" stroke="midnightblue" points="1776.09,-438.7 1770.03,-447.4 1780.18,-444.38 1776.09,-438.7"/>
</g>
<!-- Node3 -->
<g id="node3" class="node">
<title>Node3</title>
<g id="a_node3"><a xlink:href="analysis__module_8h.html" target="_top" xlink:title=" ">
<polygon fill="none" stroke="black" points="946.5,-313.5 946.5,-343.5 1058.5,-343.5 1058.5,-313.5 946.5,-313.5"/>
<text text-anchor="start" x="954.5" y="-331.5" font-family="Helvetica,sans-Serif" font-size="10.00">HealthGPS/analysis</text>
<text text-anchor="middle" x="1002.5" y="-320.5" font-family="Helvetica,sans-Serif" font-size="10.00">_module.h</text>
</a>
</g>
</g>
<!-- Node2&#45;&gt;Node3 -->
<g id="edge2" class="edge">
<title>Node2&#45;&gt;Node3</title>
<path fill="none" stroke="midnightblue" d="M1002.5,-375.41C1002.5,-365.22 1002.5,-352.9 1002.5,-343.59"/>
<polygon fill="midnightblue" stroke="midnightblue" points="999,-375.73 1002.5,-385.73 1006,-375.73 999,-375.73"/>
</g>
<!-- Node8 -->
<g id="node8" class="node">
<title>Node8</title>
<g id="a_node8"><a xlink:href="healthgps_8h.html" target="_top" xlink:title=" ">
<polygon fill="none" stroke="black" points="1404.5,-118 1404.5,-137 1532.5,-137 1532.5,-118 1404.5,-118"/>
<text text-anchor="middle" x="1468.5" y="-125" font-family="Helvetica,sans-Serif" font-size="10.00">HealthGPS/healthgps.h</text>
</a>
</g>
</g>
<!-- Node2&#45;&gt;Node8 -->
<g id="edge24" class="edge">
<title>Node2&#45;&gt;Node8</title>
<path fill="none" stroke="midnightblue" d="M1093.26,-392.35C1236.71,-388.01 1502.66,-375.73 1531.5,-344 1588.66,-281.12 1502.78,-169.06 1476.03,-137.18"/>
<polygon fill="midnightblue" stroke="midnightblue" points="1093.03,-388.86 1083.14,-392.65 1093.24,-395.85 1093.03,-388.86"/>
</g>
<!-- Node13 -->
<g id="node13" class="node">
<title>Node13</title>
<g id="a_node13"><a xlink:href="default__cancer__model_8cpp.html" target="_top" xlink:title=" ">
<polygon fill="none" stroke="black" points="1579,-313.5 1579,-343.5 1722,-343.5 1722,-313.5 1579,-313.5"/>
<text text-anchor="start" x="1587" y="-331.5" font-family="Helvetica,sans-Serif" font-size="10.00">HealthGPS/default_cancer</text>
<text text-anchor="middle" x="1650.5" y="-320.5" font-family="Helvetica,sans-Serif" font-size="10.00">_model.cpp</text>
</a>
</g>
</g>
<!-- Node2&#45;&gt;Node13 -->
<g id="edge14" class="edge">
<title>Node2&#45;&gt;Node13</title>
<path fill="none" stroke="midnightblue" d="M1093.4,-388.51C1204.72,-380.67 1398.92,-365.37 1564.5,-344 1569.16,-343.4 1573.94,-342.73 1578.77,-342.02"/>
<polygon fill="midnightblue" stroke="midnightblue" points="1092.95,-385.03 1083.22,-389.22 1093.44,-392.01 1092.95,-385.03"/>
</g>
<!-- Node14 -->
<g id="node14" class="node">
<title>Node14</title>
<g id="a_node14"><a xlink:href="default__disease__model_8cpp.html" target="_top" xlink:title=" ">
<polygon fill="none" stroke="black" points="0,-313.5 0,-343.5 149,-343.5 149,-313.5 0,-313.5"/>
<text text-anchor="start" x="8" y="-331.5" font-family="Helvetica,sans-Serif" font-size="10.00">HealthGPS/default_disease</text>
<text text-anchor="middle" x="74.5" y="-320.5" font-family="Helvetica,sans-Serif" font-size="10.00">_model.cpp</text>
</a>
</g>
</g>
<!-- Node2&#45;&gt;Node14 -->
<g id="edge15" class="edge">
<title>Node2&#45;&gt;Node14</title>
<path fill="none" stroke="midnightblue" d="M911.53,-392.37C756.52,-388 431.46,-375.63 158.5,-344 155.41,-343.64 152.27,-343.25 149.09,-342.82"/>
<polygon fill="midnightblue" stroke="midnightblue" points="911.85,-395.88 921.94,-392.66 912.04,-388.88 911.85,-395.88"/>
</g>
<!-- Node15 -->
<g id="node15" class="node">
<title>Node15</title>
<g id="a_node15"><a xlink:href="demographic_8h.html" target="_top" xlink:title=" ">
<polygon fill="none" stroke="black" points="303.5,-319 303.5,-338 447.5,-338 447.5,-319 303.5,-319"/>
<text text-anchor="middle" x="375.5" y="-326" font-family="Helvetica,sans-Serif" font-size="10.00">HealthGPS/demographic.h</text>
</a>
</g>
</g>
<!-- Node2&#45;&gt;Node15 -->
<g id="edge16" class="edge">
<title>Node2&#45;&gt;Node15</title>
<path fill="none" stroke="midnightblue" d="M911.51,-388.46C802.91,-380.7 615.97,-365.61 456.5,-344 444.33,-342.35 431.19,-340.17 419.11,-338.01"/>
<polygon fill="midnightblue" stroke="midnightblue" points="911.55,-391.97 921.77,-389.19 912.04,-384.99 911.55,-391.97"/>
</g>
<!-- Node17 -->
<g id="node17" class="node">
<title>Node17</title>
<g id="a_node17"><a xlink:href="HealthGPS_2disease_8h.html" target="_top" xlink:title=" ">
<polygon fill="none" stroke="black" points="167.5,-319 167.5,-338 285.5,-338 285.5,-319 167.5,-319"/>
<text text-anchor="middle" x="226.5" y="-326" font-family="Helvetica,sans-Serif" font-size="10.00">HealthGPS/disease.h</text>
</a>
</g>
</g>
<!-- Node2&#45;&gt;Node17 -->
<g id="edge19" class="edge">
<title>Node2&#45;&gt;Node17</title>
<path fill="none" stroke="midnightblue" d="M911.65,-392.05C776.51,-387.5 514.79,-375.19 294.5,-344 283.86,-342.49 272.4,-340.28 261.98,-338.04"/>
<polygon fill="midnightblue" stroke="midnightblue" points="911.84,-395.56 921.95,-392.39 912.07,-388.57 911.84,-395.56"/>
</g>
<!-- Node19 -->
<g id="node19" class="node">
<title>Node19</title>
<g id="a_node19"><a xlink:href="energy__balance__hierarchical__model_8cpp.html" target="_top" xlink:title=" ">
<polygon fill="none" stroke="black" points="466,-313.5 466,-343.5 615,-343.5 615,-313.5 466,-313.5"/>
<text text-anchor="start" x="474" y="-331.5" font-family="Helvetica,sans-Serif" font-size="10.00">HealthGPS/energy_balance</text>
<text text-anchor="middle" x="540.5" y="-320.5" font-family="Helvetica,sans-Serif" font-size="10.00">_hierarchical_model.cpp</text>
</a>
</g>
</g>
<!-- Node2&#45;&gt;Node19 -->
<g id="edge22" class="edge">
<title>Node2&#45;&gt;Node19</title>
<path fill="none" stroke="midnightblue" d="M922.09,-384.74C845.28,-375.2 726.32,-359.82 623.5,-344 620.75,-343.58 617.96,-343.14 615.13,-342.69"/>
<polygon fill="midnightblue" stroke="midnightblue" points="921.82,-388.24 932.18,-385.99 922.68,-381.29 921.82,-388.24"/>
</g>
<!-- Node20 -->
<g id="node20" class="node">
<title>Node20</title>
<g id="a_node20"><a xlink:href="energy__balance__model_8cpp.html" target="_top" xlink:title=" ">
<polygon fill="none" stroke="black" points="633,-313.5 633,-343.5 782,-343.5 782,-313.5 633,-313.5"/>
<text text-anchor="start" x="641" y="-331.5" font-family="Helvetica,sans-Serif" font-size="10.00">HealthGPS/energy_balance</text>
<text text-anchor="middle" x="707.5" y="-320.5" font-family="Helvetica,sans-Serif" font-size="10.00">_model.cpp</text>
</a>
</g>
</g>
<!-- Node2&#45;&gt;Node20 -->
<g id="edge23" class="edge">
<title>Node2&#45;&gt;Node20</title>
<path fill="none" stroke="midnightblue" d="M953.73,-383.75C903.84,-372.76 826.07,-355.63 771.31,-343.56"/>
<polygon fill="midnightblue" stroke="midnightblue" points="953.11,-387.2 963.63,-385.94 954.62,-380.37 953.11,-387.2"/>
</g>
<!-- Node21 -->
<g id="node21" class="node">
<title>Node21</title>
<g id="a_node21"><a xlink:href="hierarchical__model__static_8cpp.html" target="_top" xlink:title=" ">
<polygon fill="none" stroke="black" points="800.5,-313.5 800.5,-343.5 928.5,-343.5 928.5,-313.5 800.5,-313.5"/>
<text text-anchor="start" x="808.5" y="-331.5" font-family="Helvetica,sans-Serif" font-size="10.00">HealthGPS/hierarchical</text>
<text text-anchor="middle" x="864.5" y="-320.5" font-family="Helvetica,sans-Serif" font-size="10.00">_model_static.cpp</text>
</a>
</g>
</g>
<!-- Node2&#45;&gt;Node21 -->
<g id="edge25" class="edge">
<title>Node2&#45;&gt;Node21</title>
<path fill="none" stroke="midnightblue" d="M974.84,-381.47C951.51,-370.49 918.19,-354.79 894.28,-343.53"/>
<polygon fill="midnightblue" stroke="midnightblue" points="973.64,-384.77 984.17,-385.87 976.62,-378.44 973.64,-384.77"/>
</g>
<!-- Node22 -->
<g id="node22" class="node">
<title>Node22</title>
<g id="a_node22"><a xlink:href="riskfactor__adjustment_8h.html" target="_top" xlink:title=" ">
<polygon fill="none" stroke="black" points="1404.5,-313.5 1404.5,-343.5 1522.5,-343.5 1522.5,-313.5 1404.5,-313.5"/>
<text text-anchor="start" x="1412.5" y="-331.5" font-family="Helvetica,sans-Serif" font-size="10.00">HealthGPS/riskfactor</text>
<text text-anchor="middle" x="1463.5" y="-320.5" font-family="Helvetica,sans-Serif" font-size="10.00">_adjustment.h</text>
</a>
</g>
</g>
<!-- Node2&#45;&gt;Node22 -->
<g id="edge26" class="edge">
<title>Node2&#45;&gt;Node22</title>
<path fill="none" stroke="midnightblue" d="M1093.35,-384.97C1173.21,-376.09 1292.43,-361.58 1395.5,-344 1398.36,-343.51 1401.27,-342.99 1404.22,-342.44"/>
<polygon fill="midnightblue" stroke="midnightblue" points="1092.88,-381.5 1083.32,-386.08 1093.65,-388.46 1092.88,-381.5"/>
</g>
<!-- Node26 -->
<g id="node26" class="node">
<title>Node26</title>
<g id="a_node26"><a xlink:href="runtime__context_8cpp.html" target="_top" xlink:title=" ">
<polygon fill="none" stroke="black" points="1076.5,-319 1076.5,-338 1248.5,-338 1248.5,-319 1076.5,-319"/>
<text text-anchor="middle" x="1162.5" y="-326" font-family="Helvetica,sans-Serif" font-size="10.00">HealthGPS/runtime_context.cpp</text>
</a>
</g>
</g>
<!-- Node2&#45;&gt;Node26 -->
<g id="edge31" class="edge">
<title>Node2&#45;&gt;Node26</title>
<path fill="none" stroke="midnightblue" d="M1033.01,-382.1C1064.78,-369.2 1113.69,-349.33 1141.42,-338.06"/>
<polygon fill="midnightblue" stroke="midnightblue" points="1031.69,-378.86 1023.75,-385.87 1034.33,-385.35 1031.69,-378.86"/>
</g>
<!-- Node27 -->
<g id="node27" class="node">
<title>Node27</title>
<g id="a_node27"><a xlink:href="ses__noise__module_8cpp.html" target="_top" xlink:title=" ">
<polygon fill="none" stroke="black" points="1267,-313.5 1267,-343.5 1386,-343.5 1386,-313.5 1267,-313.5"/>
<text text-anchor="start" x="1275" y="-331.5" font-family="Helvetica,sans-Serif" font-size="10.00">HealthGPS/ses_noise</text>
<text text-anchor="middle" x="1326.5" y="-320.5" font-family="Helvetica,sans-Serif" font-size="10.00">_module.cpp</text>
</a>
</g>
</g>
<!-- Node2&#45;&gt;Node27 -->
<g id="edge32" class="edge">
<title>Node2&#45;&gt;Node27</title>
<path fill="none" stroke="midnightblue" d="M1056.23,-384.05C1107.86,-373.96 1188.06,-358.17 1257.5,-344 1260.5,-343.39 1263.57,-342.76 1266.67,-342.12"/>
<polygon fill="midnightblue" stroke="midnightblue" points="1055.44,-380.63 1046.3,-385.99 1056.78,-387.51 1055.44,-380.63"/>
</g>
<!-- Node4 -->
<g id="node4" class="node">
<title>Node4</title>
<g id="a_node4"><a xlink:href="analysis__module_8cpp.html" target="_top" xlink:title=" ">
<polygon fill="none" stroke="black" points="1030.5,-246.5 1030.5,-276.5 1142.5,-276.5 1142.5,-246.5 1030.5,-246.5"/>
<text text-anchor="start" x="1038.5" y="-264.5" font-family="Helvetica,sans-Serif" font-size="10.00">HealthGPS/analysis</text>
<text text-anchor="middle" x="1086.5" y="-253.5" font-family="Helvetica,sans-Serif" font-size="10.00">_module.cpp</text>
</a>
</g>
</g>
<!-- Node3&#45;&gt;Node4 -->
<g id="edge3" class="edge">
<title>Node3&#45;&gt;Node4</title>
<path fill="none" stroke="midnightblue" d="M1028.78,-307.17C1041.62,-297.23 1056.76,-285.51 1068.31,-276.58"/>
<polygon fill="midnightblue" stroke="midnightblue" points="1026.49,-304.51 1020.73,-313.4 1030.78,-310.04 1026.49,-304.51"/>
</g>
<!-- Node5 -->
<g id="node5" class="node">
<title>Node5</title>
<g id="a_node5"><a xlink:href="simulation__module_8h.html" target="_top" xlink:title=" ">
<polygon fill="none" stroke="black" points="1032,-179.5 1032,-209.5 1155,-209.5 1155,-179.5 1032,-179.5"/>
<text text-anchor="start" x="1040" y="-197.5" font-family="Helvetica,sans-Serif" font-size="10.00">HealthGPS/simulation</text>
<text text-anchor="middle" x="1093.5" y="-186.5" font-family="Helvetica,sans-Serif" font-size="10.00">_module.h</text>
</a>
</g>
</g>
<!-- Node3&#45;&gt;Node5 -->
<g id="edge4" class="edge">
<title>Node3&#45;&gt;Node5</title>
<path fill="none" stroke="midnightblue" d="M1003.64,-302.95C1005.48,-285.74 1010.09,-262.89 1021.5,-246 1032.01,-230.44 1049.04,-218.17 1063.9,-209.63"/>
<polygon fill="midnightblue" stroke="midnightblue" points="1000.12,-303.07 1002.79,-313.32 1007.1,-303.64 1000.12,-303.07"/>
</g>
<!-- Node6 -->
<g id="node6" class="node">
<title>Node6</title>
<g id="a_node6"><a xlink:href="HealthGPS_2api_8h.html" target="_top" xlink:title=" ">
<polygon fill="none" stroke="black" points="1124,-56.5 1124,-75.5 1219,-75.5 1219,-56.5 1124,-56.5"/>
<text text-anchor="middle" x="1171.5" y="-63.5" font-family="Helvetica,sans-Serif" font-size="10.00">HealthGPS/api.h</text>
</a>
</g>
</g>
<!-- Node5&#45;&gt;Node6 -->
<g id="edge5" class="edge">
<title>Node5&#45;&gt;Node6</title>
<path fill="none" stroke="midnightblue" d="M1094.85,-169.08C1096.79,-151.94 1101.43,-129.11 1112.5,-112 1122.92,-95.88 1141.2,-83.28 1154.66,-75.57"/>
<polygon fill="midnightblue" stroke="midnightblue" points="1091.33,-169.14 1093.93,-179.41 1098.31,-169.76 1091.33,-169.14"/>
</g>
<!-- Node5&#45;&gt;Node8 -->
<g id="edge7" class="edge">
<title>Node5&#45;&gt;Node8</title>
<path fill="none" stroke="midnightblue" d="M1165.24,-181.06C1239.76,-168.15 1354.35,-148.29 1419.24,-137.04"/>
<polygon fill="midnightblue" stroke="midnightblue" points="1164.26,-177.68 1155,-182.84 1165.45,-184.58 1164.26,-177.68"/>
</g>
<!-- Node12 -->
<g id="node12" class="node">
<title>Node12</title>
<g id="a_node12"><a xlink:href="simulation__module_8cpp.html" target="_top" xlink:title=" ">
<polygon fill="none" stroke="black" points="1122,-112.5 1122,-142.5 1245,-142.5 1245,-112.5 1122,-112.5"/>
<text text-anchor="start" x="1130" y="-130.5" font-family="Helvetica,sans-Serif" font-size="10.00">HealthGPS/simulation</text>
<text text-anchor="middle" x="1183.5" y="-119.5" font-family="Helvetica,sans-Serif" font-size="10.00">_module.cpp</text>
</a>
</g>
</g>
<!-- Node5&#45;&gt;Node12 -->
<g id="edge13" class="edge">
<title>Node5&#45;&gt;Node12</title>
<path fill="none" stroke="midnightblue" d="M1121.26,-173.45C1135.11,-163.45 1151.52,-151.6 1164.01,-142.58"/>
<polygon fill="midnightblue" stroke="midnightblue" points="1119.09,-170.7 1113.03,-179.4 1123.18,-176.38 1119.09,-170.7"/>
</g>
<!-- Node7 -->
<g id="node7" class="node">
<title>Node7</title>
<g id="a_node7"><a xlink:href="program_8cpp.html" target="_top" xlink:title=" ">
<polygon fill="none" stroke="black" points="1084,-0.5 1084,-19.5 1259,-19.5 1259,-0.5 1084,-0.5"/>
<text text-anchor="middle" x="1171.5" y="-7.5" font-family="Helvetica,sans-Serif" font-size="10.00">HealthGPS.Console/program.cpp</text>
</a>
</g>
</g>
<!-- Node6&#45;&gt;Node7 -->
<g id="edge6" class="edge">
<title>Node6&#45;&gt;Node7</title>
<path fill="none" stroke="midnightblue" d="M1171.5,-45.8C1171.5,-36.91 1171.5,-26.78 1171.5,-19.75"/>
<polygon fill="midnightblue" stroke="midnightblue" points="1168,-46.08 1171.5,-56.08 1175,-46.08 1168,-46.08"/>
</g>
<!-- Node8&#45;&gt;Node6 -->
<g id="edge8" class="edge">
<title>Node8&#45;&gt;Node6</title>
<path fill="none" stroke="midnightblue" d="M1415.96,-115.97C1358.4,-104.44 1267.2,-86.17 1213.97,-75.51"/>
<polygon fill="midnightblue" stroke="midnightblue" points="1415.45,-119.44 1425.95,-117.98 1416.83,-112.58 1415.45,-119.44"/>
</g>
<!-- Node9 -->
<g id="node9" class="node">
<title>Node9</title>
<g id="a_node9"><a xlink:href="healthgps_8cpp.html" target="_top" xlink:title=" ">
<polygon fill="none" stroke="black" points="1441.5,-56.5 1441.5,-75.5 1581.5,-75.5 1581.5,-56.5 1441.5,-56.5"/>
<text text-anchor="middle" x="1511.5" y="-63.5" font-family="Helvetica,sans-Serif" font-size="10.00">HealthGPS/healthgps.cpp</text>
</a>
</g>
</g>
<!-- Node8&#45;&gt;Node9 -->
<g id="edge9" class="edge">
<title>Node8&#45;&gt;Node9</title>
<path fill="none" stroke="midnightblue" d="M1480.54,-109.84C1488.61,-98.67 1498.91,-84.43 1505.35,-75.51"/>
<polygon fill="midnightblue" stroke="midnightblue" points="1477.68,-107.82 1474.66,-117.98 1483.36,-111.92 1477.68,-107.82"/>
</g>
<!-- Node10 -->
<g id="node10" class="node">
<title>Node10</title>
<g id="a_node10"><a xlink:href="configuration_8h.html" target="_top" xlink:title=" ">
<polygon fill="none" stroke="black" points="1237.5,-56.5 1237.5,-75.5 1423.5,-75.5 1423.5,-56.5 1237.5,-56.5"/>
<text text-anchor="middle" x="1330.5" y="-63.5" font-family="Helvetica,sans-Serif" font-size="10.00">HealthGPS.Console/configuration.h</text>
</a>
</g>
</g>
<!-- Node8&#45;&gt;Node10 -->
<g id="edge10" class="edge">
<title>Node8&#45;&gt;Node10</title>
<path fill="none" stroke="midnightblue" d="M1439.46,-113.98C1412.66,-102.42 1373.58,-85.58 1350.24,-75.51"/>
<polygon fill="midnightblue" stroke="midnightblue" points="1438.16,-117.23 1448.73,-117.98 1440.93,-110.8 1438.16,-117.23"/>
</g>
<!-- Node10&#45;&gt;Node7 -->
<g id="edge12" class="edge">
<title>Node10&#45;&gt;Node7</title>
<path fill="none" stroke="midnightblue" d="M1295.67,-53.17C1265.73,-43 1223.28,-28.59 1196.58,-19.52"/>
<polygon fill="midnightblue" stroke="midnightblue" points="1294.71,-56.54 1305.31,-56.44 1296.96,-49.91 1294.71,-56.54"/>
</g>
<!-- Node11 -->
<g id="node11" class="node">
<title>Node11</title>
<g id="a_node11"><a xlink:href="configuration_8cpp.html" target="_top" xlink:title=" ">
<polygon fill="none" stroke="black" points="1277,-0.5 1277,-19.5 1474,-19.5 1474,-0.5 1277,-0.5"/>
<text text-anchor="middle" x="1375.5" y="-7.5" font-family="Helvetica,sans-Serif" font-size="10.00">HealthGPS.Console/configuration.cpp</text>
</a>
</g>
</g>
<!-- Node10&#45;&gt;Node11 -->
<g id="edge11" class="edge">
<title>Node10&#45;&gt;Node11</title>
<path fill="none" stroke="midnightblue" d="M1344.55,-48.14C1352.39,-38.74 1361.83,-27.4 1368.21,-19.75"/>
<polygon fill="midnightblue" stroke="midnightblue" points="1341.64,-46.16 1337.93,-56.08 1347.02,-50.64 1341.64,-46.16"/>
</g>
<!-- Node15&#45;&gt;Node5 -->
<g id="edge18" class="edge">
<title>Node15&#45;&gt;Node5</title>
<path fill="none" stroke="midnightblue" d="M431.71,-317.17C564.03,-292.84 894.31,-232.12 1031.86,-206.83"/>
<polygon fill="midnightblue" stroke="midnightblue" points="430.98,-313.74 421.78,-318.99 432.25,-320.63 430.98,-313.74"/>
</g>
<!-- Node16 -->
<g id="node16" class="node">
<title>Node16</title>
<g id="a_node16"><a xlink:href="demographic_8cpp.html" target="_top" xlink:title=" ">
<polygon fill="none" stroke="black" points="356,-252 356,-271 511,-271 511,-252 356,-252"/>
<text text-anchor="middle" x="433.5" y="-259" font-family="Helvetica,sans-Serif" font-size="10.00">HealthGPS/demographic.cpp</text>
</a>
</g>
</g>
<!-- Node15&#45;&gt;Node16 -->
<g id="edge17" class="edge">
<title>Node15&#45;&gt;Node16</title>
<path fill="none" stroke="midnightblue" d="M390.1,-311.13C401.45,-298.42 416.73,-281.3 425.8,-271.13"/>
<polygon fill="midnightblue" stroke="midnightblue" points="387.37,-308.94 383.32,-318.73 392.59,-313.6 387.37,-308.94"/>
</g>
<!-- Node17&#45;&gt;Node5 -->
<g id="edge21" class="edge">
<title>Node17&#45;&gt;Node5</title>
<path fill="none" stroke="midnightblue" d="M212.29,-310.7C198.71,-292.56 182.61,-263.87 199.5,-246 228.08,-215.76 834.3,-200.78 1031.86,-196.68"/>
<polygon fill="midnightblue" stroke="midnightblue" points="209.64,-313 218.6,-318.67 215.13,-308.65 209.64,-313"/>
</g>
<!-- Node18 -->
<g id="node18" class="node">
<title>Node18</title>
<g id="a_node18"><a xlink:href="disease_8cpp.html" target="_top" xlink:title=" ">
<polygon fill="none" stroke="black" points="209,-252 209,-271 338,-271 338,-252 209,-252"/>
<text text-anchor="middle" x="273.5" y="-259" font-family="Helvetica,sans-Serif" font-size="10.00">HealthGPS/disease.cpp</text>
</a>
</g>
</g>
<!-- Node17&#45;&gt;Node18 -->
<g id="edge20" class="edge">
<title>Node17&#45;&gt;Node18</title>
<path fill="none" stroke="midnightblue" d="M238.86,-310.4C247.99,-297.77 260.05,-281.1 267.26,-271.13"/>
<polygon fill="midnightblue" stroke="midnightblue" points="235.86,-308.58 232.84,-318.73 241.53,-312.68 235.86,-308.58"/>
</g>
<!-- Node23 -->
<g id="node23" class="node">
<title>Node23</title>
<g id="a_node23"><a xlink:href="riskfactor_8h.html" target="_top" xlink:title=" ">
<polygon fill="none" stroke="black" points="1210.5,-252 1210.5,-271 1336.5,-271 1336.5,-252 1210.5,-252"/>
<text text-anchor="middle" x="1273.5" y="-259" font-family="Helvetica,sans-Serif" font-size="10.00">HealthGPS/riskfactor.h</text>
</a>
</g>
</g>
<!-- Node22&#45;&gt;Node23 -->
<g id="edge27" class="edge">
<title>Node22&#45;&gt;Node23</title>
<path fill="none" stroke="midnightblue" d="M1412.66,-310.11C1375.7,-297.46 1327.26,-280.89 1298.37,-271.01"/>
<polygon fill="midnightblue" stroke="midnightblue" points="1411.68,-313.47 1422.27,-313.4 1413.94,-306.85 1411.68,-313.47"/>
</g>
<!-- Node25 -->
<g id="node25" class="node">
<title>Node25</title>
<g id="a_node25"><a xlink:href="riskfactor__adjustment_8cpp.html" target="_top" xlink:title=" ">
<polygon fill="none" stroke="black" points="1404.5,-246.5 1404.5,-276.5 1522.5,-276.5 1522.5,-246.5 1404.5,-246.5"/>
<text text-anchor="start" x="1412.5" y="-264.5" font-family="Helvetica,sans-Serif" font-size="10.00">HealthGPS/riskfactor</text>
<text text-anchor="middle" x="1463.5" y="-253.5" font-family="Helvetica,sans-Serif" font-size="10.00">_adjustment.cpp</text>
</a>
</g>
</g>
<!-- Node22&#45;&gt;Node25 -->
<g id="edge30" class="edge">
<title>Node22&#45;&gt;Node25</title>
<path fill="none" stroke="midnightblue" d="M1463.5,-303.11C1463.5,-294.15 1463.5,-284.32 1463.5,-276.58"/>
<polygon fill="midnightblue" stroke="midnightblue" points="1460,-303.4 1463.5,-313.4 1467,-303.4 1460,-303.4"/>
</g>
<!-- Node23&#45;&gt;Node5 -->
<g id="edge29" class="edge">
<title>Node23&#45;&gt;Node5</title>
<path fill="none" stroke="midnightblue" d="M1239.84,-248.35C1209.33,-237.33 1164.37,-221.09 1132.35,-209.53"/>
<polygon fill="midnightblue" stroke="midnightblue" points="1239,-251.76 1249.6,-251.87 1241.38,-245.18 1239,-251.76"/>
</g>
<!-- Node24 -->
<g id="node24" class="node">
<title>Node24</title>
<g id="a_node24"><a xlink:href="riskfactor_8cpp.html" target="_top" xlink:title=" ">
<polygon fill="none" stroke="black" points="1205,-185 1205,-204 1342,-204 1342,-185 1205,-185"/>
<text text-anchor="middle" x="1273.5" y="-192" font-family="Helvetica,sans-Serif" font-size="10.00">HealthGPS/riskfactor.cpp</text>
</a>
</g>
</g>
<!-- Node23&#45;&gt;Node24 -->
<g id="edge28" class="edge">
<title>Node23&#45;&gt;Node24</title>
<path fill="none" stroke="midnightblue" d="M1273.5,-241.54C1273.5,-229.17 1273.5,-213.62 1273.5,-204.13"/>
<polygon fill="midnightblue" stroke="midnightblue" points="1270,-241.73 1273.5,-251.73 1277,-241.73 1270,-241.73"/>
</g>
<!-- Node28&#45;&gt;Node8 -->
<g id="edge34" class="edge">
<title>Node28&#45;&gt;Node8</title>
<path fill="none" stroke="midnightblue" d="M1625.35,-181.6C1587.29,-168.71 1527.5,-148.47 1493.8,-137.06"/>
<polygon fill="midnightblue" stroke="midnightblue" points="1624.41,-184.98 1635,-184.87 1626.65,-178.35 1624.41,-184.98"/>
</g>
<!-- Node29 -->
<g id="node29" class="node">
<title>Node29</title>
<g id="a_node29"><a xlink:href="modelrunner_8h.html" target="_top" xlink:title=" ">
<polygon fill="none" stroke="black" points="1589.5,-118 1589.5,-137 1731.5,-137 1731.5,-118 1589.5,-118"/>
<text text-anchor="middle" x="1660.5" y="-125" font-family="Helvetica,sans-Serif" font-size="10.00">HealthGPS/modelrunner.h</text>
</a>
</g>
</g>
<!-- Node28&#45;&gt;Node29 -->
<g id="edge35" class="edge">
<title>Node28&#45;&gt;Node29</title>
<path fill="none" stroke="midnightblue" d="M1660.5,-174.54C1660.5,-162.17 1660.5,-146.62 1660.5,-137.13"/>
<polygon fill="midnightblue" stroke="midnightblue" points="1657,-174.73 1660.5,-184.73 1664,-174.73 1657,-174.73"/>
</g>
<!-- Node29&#45;&gt;Node6 -->
<g id="edge36" class="edge">
<title>Node29&#45;&gt;Node6</title>
<path fill="none" stroke="midnightblue" d="M1581.24,-116.77C1567.97,-115.16 1554.35,-113.52 1541.5,-112 1402.44,-95.53 1367.24,-94.92 1228.5,-76 1225.42,-75.58 1222.25,-75.13 1219.06,-74.66"/>
<polygon fill="midnightblue" stroke="midnightblue" points="1580.94,-120.26 1591.29,-117.99 1581.79,-113.31 1580.94,-120.26"/>
</g>
<!-- Node30 -->
<g id="node30" class="node">
<title>Node30</title>
<g id="a_node30"><a xlink:href="modelrunner_8cpp.html" target="_top" xlink:title=" ">
<polygon fill="none" stroke="black" points="1600,-56.5 1600,-75.5 1753,-75.5 1753,-56.5 1600,-56.5"/>
<text text-anchor="middle" x="1676.5" y="-63.5" font-family="Helvetica,sans-Serif" font-size="10.00">HealthGPS/modelrunner.cpp</text>
</a>
</g>
</g>
<!-- Node29&#45;&gt;Node30 -->
<g id="edge37" class="edge">
<title>Node29&#45;&gt;Node30</title>
<path fill="none" stroke="midnightblue" d="M1665.43,-108.16C1668.36,-97.27 1671.93,-83.99 1674.21,-75.51"/>
<polygon fill="midnightblue" stroke="midnightblue" points="1662.01,-107.41 1662.79,-117.98 1668.77,-109.23 1662.01,-107.41"/>
</g>
</g>
</svg>
