<?xml version="1.0" encoding="UTF-8" standalone="no"?>
<!DOCTYPE svg PUBLIC "-//W3C//DTD SVG 1.1//EN"
 "http://www.w3.org/Graphics/SVG/1.1/DTD/svg11.dtd">
<!-- Generated by graphviz version 7.0.6 (20230106.0513)
 -->
<!-- Title: HealthGPS/simulation_definition.h Pages: 1 -->
<svg width="1627pt" height="478pt"
 viewBox="0.00 0.00 1626.50 478.00" xmlns="http://www.w3.org/2000/svg" xmlns:xlink="http://www.w3.org/1999/xlink">
<g id="graph0" class="graph" transform="scale(1 1) rotate(0) translate(4 474)">
<title>HealthGPS/simulation_definition.h</title>
<!-- Node1 -->
<g id="node1" class="node">
<title>Node1</title>
<g id="a_node1"><a xlink:title=" ">
<polygon fill="#999999" stroke="#666666" points="1533.5,-470 1420.5,-470 1420.5,-440 1533.5,-440 1533.5,-470"/>
<text text-anchor="start" x="1428.5" y="-458" font-family="Helvetica,sans-Serif" font-size="10.00">HealthGPS/simulation</text>
<text text-anchor="middle" x="1477" y="-447" font-family="Helvetica,sans-Serif" font-size="10.00">_definition.h</text>
</a>
</g>
</g>
<!-- Node2 -->
<g id="node2" class="node">
<title>Node2</title>
<g id="a_node2"><a xlink:href="runtime__context_8h.html" target="_top" xlink:title=" ">
<polygon fill="white" stroke="#666666" points="833,-398.5 687,-398.5 687,-379.5 833,-379.5 833,-398.5"/>
<text text-anchor="middle" x="760" y="-386.5" font-family="Helvetica,sans-Serif" font-size="10.00">HealthGPS/runtime_context.h</text>
</a>
</g>
</g>
<!-- Node1&#45;&gt;Node2 -->
<g id="edge1" class="edge">
<title>Node1&#45;&gt;Node2</title>
<path fill="none" stroke="#63b8ff" d="M1408.75,-447.91C1273.54,-435.84 972.71,-408.99 833.41,-396.55"/>
<polygon fill="#63b8ff" stroke="#63b8ff" points="1408.36,-451.39 1418.63,-448.79 1408.98,-444.41 1408.36,-451.39"/>
</g>
<!-- Node27 -->
<g id="node27" class="node">
<title>Node27</title>
<g id="a_node27"><a xlink:href="simulation_8h.html" target="_top" xlink:title=" ">
<polygon fill="white" stroke="#666666" points="1414.5,-200.5 1293.5,-200.5 1293.5,-181.5 1414.5,-181.5 1414.5,-200.5"/>
<text text-anchor="middle" x="1354" y="-188.5" font-family="Helvetica,sans-Serif" font-size="10.00">HealthGPS/simulation.h</text>
</a>
</g>
</g>
<!-- Node1&#45;&gt;Node27 -->
<g id="edge32" class="edge">
<title>Node1&#45;&gt;Node27</title>
<path fill="none" stroke="#63b8ff" d="M1478.15,-428.34C1478.52,-398.16 1475.99,-347.2 1458,-308 1436.23,-260.55 1388.17,-218.72 1365.84,-201"/>
<polygon fill="#63b8ff" stroke="#63b8ff" points="1474.66,-427.95 1477.91,-438.04 1481.66,-428.13 1474.66,-427.95"/>
</g>
<!-- Node30 -->
<g id="node30" class="node">
<title>Node30</title>
<g id="a_node30"><a xlink:href="simulation__definition_8cpp.html" target="_top" xlink:title=" ">
<polygon fill="white" stroke="#666666" points="1618.5,-404 1505.5,-404 1505.5,-374 1618.5,-374 1618.5,-404"/>
<text text-anchor="start" x="1513.5" y="-392" font-family="Helvetica,sans-Serif" font-size="10.00">HealthGPS/simulation</text>
<text text-anchor="middle" x="1562" y="-381" font-family="Helvetica,sans-Serif" font-size="10.00">_definition.cpp</text>
</a>
</g>
</g>
<!-- Node1&#45;&gt;Node30 -->
<g id="edge37" class="edge">
<title>Node1&#45;&gt;Node30</title>
<path fill="none" stroke="#63b8ff" d="M1504.92,-432.97C1517.37,-423.61 1531.7,-412.81 1542.89,-404.39"/>
<polygon fill="#63b8ff" stroke="#63b8ff" points="1502.96,-430.07 1497.07,-438.89 1507.17,-435.67 1502.96,-430.07"/>
</g>
<!-- Node3 -->
<g id="node3" class="node">
<title>Node3</title>
<g id="a_node3"><a xlink:href="analysis__module_8h.html" target="_top" xlink:title=" ">
<polygon fill="white" stroke="#666666" points="1173,-338 1069,-338 1069,-308 1173,-308 1173,-338"/>
<text text-anchor="start" x="1077" y="-326" font-family="Helvetica,sans-Serif" font-size="10.00">HealthGPS/analysis</text>
<text text-anchor="middle" x="1121" y="-315" font-family="Helvetica,sans-Serif" font-size="10.00">_module.h</text>
</a>
</g>
</g>
<!-- Node2&#45;&gt;Node3 -->
<g id="edge2" class="edge">
<title>Node2&#45;&gt;Node3</title>
<path fill="none" stroke="#63b8ff" d="M831.11,-377.26C891.82,-367.82 981.37,-353.24 1059,-338 1062.14,-337.38 1065.36,-336.73 1068.61,-336.05"/>
<polygon fill="#63b8ff" stroke="#63b8ff" points="830.59,-373.8 821.24,-378.79 831.66,-380.72 830.59,-373.8"/>
</g>
<!-- Node8 -->
<g id="node8" class="node">
<title>Node8</title>
<g id="a_node8"><a xlink:href="healthgps_8h.html" target="_top" xlink:title=" ">
<polygon fill="white" stroke="#666666" points="974.5,-134.5 855.5,-134.5 855.5,-115.5 974.5,-115.5 974.5,-134.5"/>
<text text-anchor="middle" x="915" y="-122.5" font-family="Helvetica,sans-Serif" font-size="10.00">HealthGPS/healthgps.h</text>
</a>
</g>
</g>
<!-- Node2&#45;&gt;Node8 -->
<g id="edge23" class="edge">
<title>Node2&#45;&gt;Node8</title>
<path fill="none" stroke="#63b8ff" d="M675.54,-386.85C523.31,-383.89 215.59,-373.54 183,-338 154.16,-306.55 155.29,-274.45 183,-242 269.64,-140.55 696.25,-127.34 855.18,-125.98"/>
<polygon fill="#63b8ff" stroke="#63b8ff" points="675.1,-390.34 685.16,-387.03 675.23,-383.34 675.1,-390.34"/>
</g>
<!-- Node13 -->
<g id="node13" class="node">
<title>Node13</title>
<g id="a_node13"><a xlink:href="default__cancer__model_8cpp.html" target="_top" xlink:title=" ">
<polygon fill="white" stroke="#666666" points="1448.5,-338 1317.5,-338 1317.5,-308 1448.5,-308 1448.5,-338"/>
<text text-anchor="start" x="1325.5" y="-326" font-family="Helvetica,sans-Serif" font-size="10.00">HealthGPS/default_cancer</text>
<text text-anchor="middle" x="1383" y="-315" font-family="Helvetica,sans-Serif" font-size="10.00">_model.cpp</text>
</a>
</g>
</g>
<!-- Node2&#45;&gt;Node13 -->
<g id="edge14" class="edge">
<title>Node2&#45;&gt;Node13</title>
<path fill="none" stroke="#63b8ff" d="M844.84,-382.73C952.77,-375.46 1144.8,-360.63 1308,-338 1311.02,-337.58 1314.1,-337.13 1317.21,-336.64"/>
<polygon fill="#63b8ff" stroke="#63b8ff" points="844.63,-379.24 834.89,-383.39 845.1,-386.22 844.63,-379.24"/>
</g>
<!-- Node14 -->
<g id="node14" class="node">
<title>Node14</title>
<g id="a_node14"><a xlink:href="default__disease__model_8cpp.html" target="_top" xlink:title=" ">
<polygon fill="white" stroke="#666666" points="136,-338 0,-338 0,-308 136,-308 136,-338"/>
<text text-anchor="start" x="8" y="-326" font-family="Helvetica,sans-Serif" font-size="10.00">HealthGPS/default_disease</text>
<text text-anchor="middle" x="68" y="-315" font-family="Helvetica,sans-Serif" font-size="10.00">_model.cpp</text>
</a>
</g>
</g>
<!-- Node2&#45;&gt;Node14 -->
<g id="edge15" class="edge">
<title>Node2&#45;&gt;Node14</title>
<path fill="none" stroke="#63b8ff" d="M675.1,-383.39C557.03,-376.44 336.71,-361.54 150,-338 145.56,-337.44 140.99,-336.81 136.39,-336.14"/>
<polygon fill="#63b8ff" stroke="#63b8ff" points="674.85,-386.88 685.03,-383.97 675.26,-379.89 674.85,-386.88"/>
</g>
<!-- Node15 -->
<g id="node15" class="node">
<title>Node15</title>
<g id="a_node15"><a xlink:href="demographic_8h.html" target="_top" xlink:title=" ">
<polygon fill="white" stroke="#666666" points="744,-332.5 612,-332.5 612,-313.5 744,-313.5 744,-332.5"/>
<text text-anchor="middle" x="678" y="-320.5" font-family="Helvetica,sans-Serif" font-size="10.00">HealthGPS/demographic.h</text>
</a>
</g>
</g>
<!-- Node2&#45;&gt;Node15 -->
<g id="edge16" class="edge">
<title>Node2&#45;&gt;Node15</title>
<path fill="none" stroke="#63b8ff" d="M739.55,-372.04C723.67,-359.64 702.24,-342.92 689.3,-332.82"/>
<polygon fill="#63b8ff" stroke="#63b8ff" points="737.37,-374.78 747.41,-378.17 741.68,-369.26 737.37,-374.78"/>
</g>
<!-- Node17 -->
<g id="node17" class="node">
<title>Node17</title>
<g id="a_node17"><a xlink:href="_health_g_p_s_2disease_8h.html" target="_top" xlink:title=" ">
<polygon fill="white" stroke="#666666" points="302,-332.5 192,-332.5 192,-313.5 302,-313.5 302,-332.5"/>
<text text-anchor="middle" x="247" y="-320.5" font-family="Helvetica,sans-Serif" font-size="10.00">HealthGPS/disease.h</text>
</a>
</g>
</g>
<!-- Node2&#45;&gt;Node17 -->
<g id="edge19" class="edge">
<title>Node2&#45;&gt;Node17</title>
<path fill="none" stroke="#63b8ff" d="M675.28,-381.22C584.73,-373.36 437.17,-358.77 311,-338 302.47,-336.6 293.36,-334.79 284.78,-332.95"/>
<polygon fill="#63b8ff" stroke="#63b8ff" points="674.8,-384.7 685.07,-382.06 675.4,-377.72 674.8,-384.7"/>
</g>
<!-- Node19 -->
<g id="node19" class="node">
<title>Node19</title>
<g id="a_node19"><a xlink:href="energy__balance__model_8cpp.html" target="_top" xlink:title=" ">
<polygon fill="white" stroke="#666666" points="457.5,-338 320.5,-338 320.5,-308 457.5,-308 457.5,-338"/>
<text text-anchor="start" x="328.5" y="-326" font-family="Helvetica,sans-Serif" font-size="10.00">HealthGPS/energy_balance</text>
<text text-anchor="middle" x="389" y="-315" font-family="Helvetica,sans-Serif" font-size="10.00">_model.cpp</text>
</a>
</g>
</g>
<!-- Node2&#45;&gt;Node19 -->
<g id="edge22" class="edge">
<title>Node2&#45;&gt;Node19</title>
<path fill="none" stroke="#63b8ff" d="M695.43,-377.14C636.04,-367.12 545.55,-351.75 467,-338 464.02,-337.48 460.97,-336.94 457.9,-336.4"/>
<polygon fill="#63b8ff" stroke="#63b8ff" points="694.58,-380.55 705.02,-378.76 695.74,-373.65 694.58,-380.55"/>
</g>
<!-- Node20 -->
<g id="node20" class="node">
<title>Node20</title>
<g id="a_node20"><a xlink:href="hierarchical__model__static_8cpp.html" target="_top" xlink:title=" ">
<polygon fill="white" stroke="#666666" points="594,-338 476,-338 476,-308 594,-308 594,-338"/>
<text text-anchor="start" x="484" y="-326" font-family="Helvetica,sans-Serif" font-size="10.00">HealthGPS/hierarchical</text>
<text text-anchor="middle" x="535" y="-315" font-family="Helvetica,sans-Serif" font-size="10.00">_model_static.cpp</text>
</a>
</g>
</g>
<!-- Node2&#45;&gt;Node20 -->
<g id="edge24" class="edge">
<title>Node2&#45;&gt;Node20</title>
<path fill="none" stroke="#63b8ff" d="M717.7,-375.97C680.3,-365.33 625.67,-349.79 585.9,-338.48"/>
<polygon fill="#63b8ff" stroke="#63b8ff" points="716.68,-379.32 727.26,-378.69 718.6,-372.58 716.68,-379.32"/>
</g>
<!-- Node21 -->
<g id="node21" class="node">
<title>Node21</title>
<g id="a_node21"><a xlink:href="riskfactor__adjustment_8h.html" target="_top" xlink:title=" ">
<polygon fill="white" stroke="#666666" points="1299,-338 1191,-338 1191,-308 1299,-308 1299,-338"/>
<text text-anchor="start" x="1199" y="-326" font-family="Helvetica,sans-Serif" font-size="10.00">HealthGPS/riskfactor</text>
<text text-anchor="middle" x="1245" y="-315" font-family="Helvetica,sans-Serif" font-size="10.00">_adjustment.h</text>
</a>
</g>
</g>
<!-- Node2&#45;&gt;Node21 -->
<g id="edge25" class="edge">
<title>Node2&#45;&gt;Node21</title>
<path fill="none" stroke="#63b8ff" d="M844.59,-380.51C930.04,-372.34 1065.7,-357.76 1182,-338 1184.87,-337.51 1187.81,-336.98 1190.77,-336.41"/>
<polygon fill="#63b8ff" stroke="#63b8ff" points="844.26,-377.02 834.64,-381.45 844.92,-383.99 844.26,-377.02"/>
</g>
<!-- Node25 -->
<g id="node25" class="node">
<title>Node25</title>
<g id="a_node25"><a xlink:href="runtime__context_8cpp.html" target="_top" xlink:title=" ">
<polygon fill="white" stroke="#666666" points="919.5,-332.5 762.5,-332.5 762.5,-313.5 919.5,-313.5 919.5,-332.5"/>
<text text-anchor="middle" x="841" y="-320.5" font-family="Helvetica,sans-Serif" font-size="10.00">HealthGPS/runtime_context.cpp</text>
</a>
</g>
</g>
<!-- Node2&#45;&gt;Node25 -->
<g id="edge30" class="edge">
<title>Node2&#45;&gt;Node25</title>
<path fill="none" stroke="#63b8ff" d="M780.2,-372.04C795.89,-359.64 817.06,-342.92 829.83,-332.82"/>
<polygon fill="#63b8ff" stroke="#63b8ff" points="778.13,-369.22 772.45,-378.16 782.47,-374.71 778.13,-369.22"/>
</g>
<!-- Node26 -->
<g id="node26" class="node">
<title>Node26</title>
<g id="a_node26"><a xlink:href="ses__noise__module_8cpp.html" target="_top" xlink:title=" ">
<polygon fill="white" stroke="#666666" points="1050.5,-338 937.5,-338 937.5,-308 1050.5,-308 1050.5,-338"/>
<text text-anchor="start" x="945.5" y="-326" font-family="Helvetica,sans-Serif" font-size="10.00">HealthGPS/ses_noise</text>
<text text-anchor="middle" x="994" y="-315" font-family="Helvetica,sans-Serif" font-size="10.00">_module.cpp</text>
</a>
</g>
</g>
<!-- Node2&#45;&gt;Node26 -->
<g id="edge31" class="edge">
<title>Node2&#45;&gt;Node26</title>
<path fill="none" stroke="#63b8ff" d="M803.49,-376.1C842.39,-365.46 899.52,-349.84 941.07,-338.48"/>
<polygon fill="#63b8ff" stroke="#63b8ff" points="802.72,-372.69 794,-378.7 804.57,-379.44 802.72,-372.69"/>
</g>
<!-- Node4 -->
<g id="node4" class="node">
<title>Node4</title>
<g id="a_node4"><a xlink:href="analysis__module_8cpp.html" target="_top" xlink:title=" ">
<polygon fill="white" stroke="#666666" points="1108,-272 1004,-272 1004,-242 1108,-242 1108,-272"/>
<text text-anchor="start" x="1012" y="-260" font-family="Helvetica,sans-Serif" font-size="10.00">HealthGPS/analysis</text>
<text text-anchor="middle" x="1056" y="-249" font-family="Helvetica,sans-Serif" font-size="10.00">_module.cpp</text>
</a>
</g>
</g>
<!-- Node3&#45;&gt;Node4 -->
<g id="edge3" class="edge">
<title>Node3&#45;&gt;Node4</title>
<path fill="none" stroke="#63b8ff" d="M1098.46,-299.81C1089.15,-290.64 1078.62,-280.28 1070.39,-272.16"/>
<polygon fill="#63b8ff" stroke="#63b8ff" points="1095.91,-302.21 1105.5,-306.73 1100.83,-297.22 1095.91,-302.21"/>
</g>
<!-- Node5 -->
<g id="node5" class="node">
<title>Node5</title>
<g id="a_node5"><a xlink:href="simulation__module_8h.html" target="_top" xlink:title=" ">
<polygon fill="white" stroke="#666666" points="1032.5,-206 919.5,-206 919.5,-176 1032.5,-176 1032.5,-206"/>
<text text-anchor="start" x="927.5" y="-194" font-family="Helvetica,sans-Serif" font-size="10.00">HealthGPS/simulation</text>
<text text-anchor="middle" x="976" y="-183" font-family="Helvetica,sans-Serif" font-size="10.00">_module.h</text>
</a>
</g>
</g>
<!-- Node3&#45;&gt;Node5 -->
<g id="edge4" class="edge">
<title>Node3&#45;&gt;Node5</title>
<path fill="none" stroke="#63b8ff" d="M1060.57,-303.92C1032.95,-294.52 1004.31,-282.76 995,-272 979.03,-253.54 975.92,-224.05 975.61,-206.5"/>
<polygon fill="#63b8ff" stroke="#63b8ff" points="1059.44,-307.24 1070.03,-307.06 1061.64,-300.59 1059.44,-307.24"/>
</g>
<!-- Node6 -->
<g id="node6" class="node">
<title>Node6</title>
<g id="a_node6"><a xlink:href="_health_g_p_s_2api_8h.html" target="_top" xlink:title=" ">
<polygon fill="white" stroke="#666666" points="1086.5,-74 997.5,-74 997.5,-55 1086.5,-55 1086.5,-74"/>
<text text-anchor="middle" x="1042" y="-62" font-family="Helvetica,sans-Serif" font-size="10.00">HealthGPS/api.h</text>
</a>
</g>
</g>
<!-- Node5&#45;&gt;Node6 -->
<g id="edge5" class="edge">
<title>Node5&#45;&gt;Node6</title>
<path fill="none" stroke="#63b8ff" d="M988.77,-165.91C1003.59,-137.95 1027.28,-93.26 1037.29,-74.38"/>
<polygon fill="#63b8ff" stroke="#63b8ff" points="985.87,-163.91 984.28,-174.38 992.06,-167.19 985.87,-163.91"/>
</g>
<!-- Node5&#45;&gt;Node8 -->
<g id="edge7" class="edge">
<title>Node5&#45;&gt;Node8</title>
<path fill="none" stroke="#63b8ff" d="M954.66,-167.61C943.9,-156.32 931.47,-143.28 923.43,-134.84"/>
<polygon fill="#63b8ff" stroke="#63b8ff" points="951.98,-169.88 961.42,-174.7 957.05,-165.05 951.98,-169.88"/>
</g>
<!-- Node12 -->
<g id="node12" class="node">
<title>Node12</title>
<g id="a_node12"><a xlink:href="simulation__module_8cpp.html" target="_top" xlink:title=" ">
<polygon fill="white" stroke="#666666" points="1144.5,-140 1031.5,-140 1031.5,-110 1144.5,-110 1144.5,-140"/>
<text text-anchor="start" x="1039.5" y="-128" font-family="Helvetica,sans-Serif" font-size="10.00">HealthGPS/simulation</text>
<text text-anchor="middle" x="1088" y="-117" font-family="Helvetica,sans-Serif" font-size="10.00">_module.cpp</text>
</a>
</g>
</g>
<!-- Node5&#45;&gt;Node12 -->
<g id="edge13" class="edge">
<title>Node5&#45;&gt;Node12</title>
<path fill="none" stroke="#63b8ff" d="M1010.68,-170.18C1027.59,-160.52 1047.55,-149.12 1062.95,-140.31"/>
<polygon fill="#63b8ff" stroke="#63b8ff" points="1009.4,-166.89 1002.45,-174.89 1012.87,-172.96 1009.4,-166.89"/>
</g>
<!-- Node7 -->
<g id="node7" class="node">
<title>Node7</title>
<g id="a_node7"><a xlink:href="program_8cpp.html" target="_top" xlink:title=" ">
<polygon fill="white" stroke="#666666" points="1069.5,-19 908.5,-19 908.5,0 1069.5,0 1069.5,-19"/>
<text text-anchor="middle" x="989" y="-7" font-family="Helvetica,sans-Serif" font-size="10.00">HealthGPS.Console/program.cpp</text>
</a>
</g>
</g>
<!-- Node6&#45;&gt;Node7 -->
<g id="edge6" class="edge">
<title>Node6&#45;&gt;Node7</title>
<path fill="none" stroke="#63b8ff" d="M1025.28,-46.78C1016.22,-37.72 1005.4,-26.9 997.94,-19.44"/>
<polygon fill="#63b8ff" stroke="#63b8ff" points="1022.63,-49.08 1032.18,-53.68 1027.58,-44.13 1022.63,-49.08"/>
</g>
<!-- Node8&#45;&gt;Node6 -->
<g id="edge11" class="edge">
<title>Node8&#45;&gt;Node6</title>
<path fill="none" stroke="#63b8ff" d="M944.6,-110.37C968.6,-99.31 1001.76,-84.04 1022.53,-74.47"/>
<polygon fill="#63b8ff" stroke="#63b8ff" points="943.28,-107.12 935.66,-114.48 946.21,-113.48 943.28,-107.12"/>
</g>
<!-- Node9 -->
<g id="node9" class="node">
<title>Node9</title>
<g id="a_node9"><a xlink:href="configuration_8h.html" target="_top" xlink:title=" ">
<polygon fill="white" stroke="#666666" points="832,-74 662,-74 662,-55 832,-55 832,-74"/>
<text text-anchor="middle" x="747" y="-62" font-family="Helvetica,sans-Serif" font-size="10.00">HealthGPS.Console/configuration.h</text>
</a>
</g>
</g>
<!-- Node8&#45;&gt;Node9 -->
<g id="edge8" class="edge">
<title>Node8&#45;&gt;Node9</title>
<path fill="none" stroke="#63b8ff" d="M878.81,-111.4C846.87,-100.28 801.1,-84.34 772.76,-74.47"/>
<polygon fill="#63b8ff" stroke="#63b8ff" points="877.46,-114.63 888.06,-114.62 879.76,-108.02 877.46,-114.63"/>
</g>
<!-- Node11 -->
<g id="node11" class="node">
<title>Node11</title>
<g id="a_node11"><a xlink:href="healthgps_8cpp.html" target="_top" xlink:title=" ">
<polygon fill="white" stroke="#666666" points="979.5,-74 850.5,-74 850.5,-55 979.5,-55 979.5,-74"/>
<text text-anchor="middle" x="915" y="-62" font-family="Helvetica,sans-Serif" font-size="10.00">HealthGPS/healthgps.cpp</text>
</a>
</g>
</g>
<!-- Node8&#45;&gt;Node11 -->
<g id="edge12" class="edge">
<title>Node8&#45;&gt;Node11</title>
<path fill="none" stroke="#63b8ff" d="M915,-104.16C915,-93.95 915,-82.04 915,-74.17"/>
<polygon fill="#63b8ff" stroke="#63b8ff" points="911.5,-103.85 915,-113.85 918.5,-103.85 911.5,-103.85"/>
</g>
<!-- Node9&#45;&gt;Node7 -->
<g id="edge10" class="edge">
<title>Node9&#45;&gt;Node7</title>
<path fill="none" stroke="#63b8ff" d="M799.25,-52.06C843.87,-42.28 907.16,-28.42 948.15,-19.45"/>
<polygon fill="#63b8ff" stroke="#63b8ff" points="798.55,-48.63 789.53,-54.19 800.05,-55.46 798.55,-48.63"/>
</g>
<!-- Node10 -->
<g id="node10" class="node">
<title>Node10</title>
<g id="a_node10"><a xlink:href="configuration_8cpp.html" target="_top" xlink:title=" ">
<polygon fill="white" stroke="#666666" points="837,-19 657,-19 657,0 837,0 837,-19"/>
<text text-anchor="middle" x="747" y="-7" font-family="Helvetica,sans-Serif" font-size="10.00">HealthGPS.Console/configuration.cpp</text>
</a>
</g>
</g>
<!-- Node9&#45;&gt;Node10 -->
<g id="edge9" class="edge">
<title>Node9&#45;&gt;Node10</title>
<path fill="none" stroke="#63b8ff" d="M747,-43.35C747,-35.1 747,-25.97 747,-19.44"/>
<polygon fill="#63b8ff" stroke="#63b8ff" points="743.5,-43.23 747,-53.23 750.5,-43.23 743.5,-43.23"/>
</g>
<!-- Node15&#45;&gt;Node5 -->
<g id="edge18" class="edge">
<title>Node15&#45;&gt;Node5</title>
<path fill="none" stroke="#63b8ff" d="M677.03,-301.66C677.34,-283.41 680.9,-257.23 697,-242 728.28,-212.42 847.17,-199.91 919.28,-194.96"/>
<polygon fill="#63b8ff" stroke="#63b8ff" points="673.53,-301.58 677.21,-311.52 680.53,-301.46 673.53,-301.58"/>
</g>
<!-- Node16 -->
<g id="node16" class="node">
<title>Node16</title>
<g id="a_node16"><a xlink:href="demographic_8cpp.html" target="_top" xlink:title=" ">
<polygon fill="white" stroke="#666666" points="849.5,-266.5 706.5,-266.5 706.5,-247.5 849.5,-247.5 849.5,-266.5"/>
<text text-anchor="middle" x="778" y="-254.5" font-family="Helvetica,sans-Serif" font-size="10.00">HealthGPS/demographic.cpp</text>
</a>
</g>
</g>
<!-- Node15&#45;&gt;Node16 -->
<g id="edge17" class="edge">
<title>Node15&#45;&gt;Node16</title>
<path fill="none" stroke="#63b8ff" d="M701.58,-306.91C721.07,-294.44 748.07,-277.15 764.21,-266.82"/>
<polygon fill="#63b8ff" stroke="#63b8ff" points="699.72,-303.95 693.18,-312.29 703.49,-309.84 699.72,-303.95"/>
</g>
<!-- Node17&#45;&gt;Node5 -->
<g id="edge21" class="edge">
<title>Node17&#45;&gt;Node5</title>
<path fill="none" stroke="#63b8ff" d="M297.87,-310.69C302.31,-309.76 306.73,-308.85 311,-308 535.41,-263.29 804.34,-219.3 919.34,-200.94"/>
<polygon fill="#63b8ff" stroke="#63b8ff" points="297.43,-307.21 288.38,-312.72 298.89,-314.05 297.43,-307.21"/>
</g>
<!-- Node18 -->
<g id="node18" class="node">
<title>Node18</title>
<g id="a_node18"><a xlink:href="disease_8cpp.html" target="_top" xlink:title=" ">
<polygon fill="white" stroke="#666666" points="313.5,-266.5 192.5,-266.5 192.5,-247.5 313.5,-247.5 313.5,-266.5"/>
<text text-anchor="middle" x="253" y="-254.5" font-family="Helvetica,sans-Serif" font-size="10.00">HealthGPS/disease.cpp</text>
</a>
</g>
</g>
<!-- Node17&#45;&gt;Node18 -->
<g id="edge20" class="edge">
<title>Node17&#45;&gt;Node18</title>
<path fill="none" stroke="#63b8ff" d="M248.91,-301.68C250.01,-289.94 251.33,-275.77 252.17,-266.82"/>
<polygon fill="#63b8ff" stroke="#63b8ff" points="245.42,-301.31 247.98,-311.59 252.39,-301.96 245.42,-301.31"/>
</g>
<!-- Node22 -->
<g id="node22" class="node">
<title>Node22</title>
<g id="a_node22"><a xlink:href="riskfactor_8h.html" target="_top" xlink:title=" ">
<polygon fill="white" stroke="#666666" points="1368,-266.5 1252,-266.5 1252,-247.5 1368,-247.5 1368,-266.5"/>
<text text-anchor="middle" x="1310" y="-254.5" font-family="Helvetica,sans-Serif" font-size="10.00">HealthGPS/riskfactor.h</text>
</a>
</g>
</g>
<!-- Node21&#45;&gt;Node22 -->
<g id="edge26" class="edge">
<title>Node21&#45;&gt;Node22</title>
<path fill="none" stroke="#63b8ff" d="M1267.4,-299.94C1278.94,-288.58 1292.37,-275.36 1301.02,-266.84"/>
<polygon fill="#63b8ff" stroke="#63b8ff" points="1265.17,-297.22 1260.5,-306.73 1270.09,-302.21 1265.17,-297.22"/>
</g>
<!-- Node24 -->
<g id="node24" class="node">
<title>Node24</title>
<g id="a_node24"><a xlink:href="riskfactor__adjustment_8cpp.html" target="_top" xlink:title=" ">
<polygon fill="white" stroke="#666666" points="1234,-272 1126,-272 1126,-242 1234,-242 1234,-272"/>
<text text-anchor="start" x="1134" y="-260" font-family="Helvetica,sans-Serif" font-size="10.00">HealthGPS/riskfactor</text>
<text text-anchor="middle" x="1180" y="-249" font-family="Helvetica,sans-Serif" font-size="10.00">_adjustment.cpp</text>
</a>
</g>
</g>
<!-- Node21&#45;&gt;Node24 -->
<g id="edge29" class="edge">
<title>Node21&#45;&gt;Node24</title>
<path fill="none" stroke="#63b8ff" d="M1222.46,-299.81C1213.15,-290.64 1202.62,-280.28 1194.39,-272.16"/>
<polygon fill="#63b8ff" stroke="#63b8ff" points="1219.91,-302.21 1229.5,-306.73 1224.83,-297.22 1219.91,-302.21"/>
</g>
<!-- Node22&#45;&gt;Node5 -->
<g id="edge28" class="edge">
<title>Node22&#45;&gt;Node5</title>
<path fill="none" stroke="#63b8ff" d="M1256.92,-244.8C1252.22,-243.84 1247.52,-242.9 1243,-242 1170.6,-227.66 1086.94,-212.17 1032.84,-202.29"/>
<polygon fill="#63b8ff" stroke="#63b8ff" points="1255.87,-248.16 1266.37,-246.75 1257.28,-241.3 1255.87,-248.16"/>
</g>
<!-- Node23 -->
<g id="node23" class="node">
<title>Node23</title>
<g id="a_node23"><a xlink:href="riskfactor_8cpp.html" target="_top" xlink:title=" ">
<polygon fill="white" stroke="#666666" points="1275.5,-200.5 1148.5,-200.5 1148.5,-181.5 1275.5,-181.5 1275.5,-200.5"/>
<text text-anchor="middle" x="1212" y="-188.5" font-family="Helvetica,sans-Serif" font-size="10.00">HealthGPS/riskfactor.cpp</text>
</a>
</g>
</g>
<!-- Node22&#45;&gt;Node23 -->
<g id="edge27" class="edge">
<title>Node22&#45;&gt;Node23</title>
<path fill="none" stroke="#63b8ff" d="M1286.89,-240.91C1267.79,-228.44 1241.33,-211.15 1225.51,-200.82"/>
<polygon fill="#63b8ff" stroke="#63b8ff" points="1284.82,-243.74 1295.11,-246.27 1288.65,-237.88 1284.82,-243.74"/>
</g>
<!-- Node27&#45;&gt;Node8 -->
<g id="edge33" class="edge">
<title>Node27&#45;&gt;Node8</title>
<path fill="none" stroke="#63b8ff" d="M1301.08,-178.89C1295.66,-177.87 1290.22,-176.88 1285,-176 1255.12,-170.96 1071.47,-146.6 974.64,-133.84"/>
<polygon fill="#63b8ff" stroke="#63b8ff" points="1300.15,-182.28 1310.63,-180.75 1301.49,-175.41 1300.15,-182.28"/>
</g>
<!-- Node28 -->
<g id="node28" class="node">
<title>Node28</title>
<g id="a_node28"><a xlink:href="modelrunner_8h.html" target="_top" xlink:title=" ">
<polygon fill="white" stroke="#666666" points="1356,-134.5 1226,-134.5 1226,-115.5 1356,-115.5 1356,-134.5"/>
<text text-anchor="middle" x="1291" y="-122.5" font-family="Helvetica,sans-Serif" font-size="10.00">HealthGPS/modelrunner.h</text>
</a>
</g>
</g>
<!-- Node27&#45;&gt;Node28 -->
<g id="edge34" class="edge">
<title>Node27&#45;&gt;Node28</title>
<path fill="none" stroke="#63b8ff" d="M1337.24,-172.98C1325.16,-160.7 1309.34,-144.63 1299.69,-134.82"/>
<polygon fill="#63b8ff" stroke="#63b8ff" points="1334.67,-175.35 1344.18,-180.02 1339.66,-170.44 1334.67,-175.35"/>
</g>
<!-- Node28&#45;&gt;Node6 -->
<g id="edge35" class="edge">
<title>Node28&#45;&gt;Node6</title>
<path fill="none" stroke="#63b8ff" d="M1241.97,-112.48C1194.48,-101.32 1123.47,-84.64 1080.08,-74.45"/>
<polygon fill="#63b8ff" stroke="#63b8ff" points="1240.9,-115.83 1251.44,-114.71 1242.5,-109.01 1240.9,-115.83"/>
</g>
<!-- Node29 -->
<g id="node29" class="node">
<title>Node29</title>
<g id="a_node29"><a xlink:href="modelrunner_8cpp.html" target="_top" xlink:title=" ">
<polygon fill="white" stroke="#666666" points="1361,-74 1221,-74 1221,-55 1361,-55 1361,-74"/>
<text text-anchor="middle" x="1291" y="-62" font-family="Helvetica,sans-Serif" font-size="10.00">HealthGPS/modelrunner.cpp</text>
</a>
</g>
</g>
<!-- Node28&#45;&gt;Node29 -->
<g id="edge36" class="edge">
<title>Node28&#45;&gt;Node29</title>
<path fill="none" stroke="#63b8ff" d="M1291,-104.16C1291,-93.95 1291,-82.04 1291,-74.17"/>
<polygon fill="#63b8ff" stroke="#63b8ff" points="1287.5,-103.85 1291,-113.85 1294.5,-103.85 1287.5,-103.85"/>
</g>
</g>
</svg>
