<?xml version="1.0" encoding="UTF-8" standalone="no"?>
<!DOCTYPE svg PUBLIC "-//W3C//DTD SVG 1.1//EN"
 "http://www.w3.org/Graphics/SVG/1.1/DTD/svg11.dtd">
<!-- Generated by graphviz version 7.0.6 (20230106.0513)
 -->
<!-- Title: HealthGPS/simulation.h Pages: 1 -->
<svg width="596pt" height="192pt"
 viewBox="0.00 0.00 596.00 192.00" xmlns="http://www.w3.org/2000/svg" xmlns:xlink="http://www.w3.org/1999/xlink">
<g id="graph0" class="graph" transform="scale(1 1) rotate(0) translate(4 188)">
<title>HealthGPS/simulation.h</title>
<!-- Node1 -->
<g id="node1" class="node">
<title>Node1</title>
<g id="a_node1"><a xlink:title=" ">
<polygon fill="#999999" stroke="#666666" points="389.5,-184 268.5,-184 268.5,-165 389.5,-165 389.5,-184"/>
<text text-anchor="middle" x="329" y="-172" font-family="Helvetica,sans-Serif" font-size="10.00">HealthGPS/simulation.h</text>
</a>
</g>
</g>
<!-- Node2 -->
<g id="node2" class="node">
<title>Node2</title>
<g id="a_node2"><a xlink:href="healthgps_8h.html" target="_top" xlink:title=" ">
<polygon fill="white" stroke="#666666" points="317.5,-129 198.5,-129 198.5,-110 317.5,-110 317.5,-129"/>
<text text-anchor="middle" x="258" y="-117" font-family="Helvetica,sans-Serif" font-size="10.00">HealthGPS/healthgps.h</text>
</a>
</g>
</g>
<!-- Node1&#45;&gt;Node2 -->
<g id="edge1" class="edge">
<title>Node1&#45;&gt;Node2</title>
<path fill="none" stroke="#63b8ff" d="M307.75,-157.64C295.36,-148.39 280.18,-137.05 269.87,-129.36"/>
<polygon fill="#63b8ff" stroke="#63b8ff" points="305.64,-160.43 315.74,-163.6 309.82,-154.82 305.64,-160.43"/>
</g>
<!-- Node8 -->
<g id="node8" class="node">
<title>Node8</title>
<g id="a_node8"><a xlink:href="modelrunner_8h.html" target="_top" xlink:title=" ">
<polygon fill="white" stroke="#666666" points="466,-129 336,-129 336,-110 466,-110 466,-129"/>
<text text-anchor="middle" x="401" y="-117" font-family="Helvetica,sans-Serif" font-size="10.00">HealthGPS/modelrunner.h</text>
</a>
</g>
</g>
<!-- Node1&#45;&gt;Node8 -->
<g id="edge8" class="edge">
<title>Node1&#45;&gt;Node8</title>
<path fill="none" stroke="#63b8ff" d="M350.17,-157.92C362.81,-148.61 378.41,-137.13 388.97,-129.36"/>
<polygon fill="#63b8ff" stroke="#63b8ff" points="348.41,-154.87 342.43,-163.61 352.56,-160.5 348.41,-154.87"/>
</g>
<!-- Node3 -->
<g id="node3" class="node">
<title>Node3</title>
<g id="a_node3"><a xlink:href="configuration_8h.html" target="_top" xlink:title=" ">
<polygon fill="white" stroke="#666666" points="175,-74 5,-74 5,-55 175,-55 175,-74"/>
<text text-anchor="middle" x="90" y="-62" font-family="Helvetica,sans-Serif" font-size="10.00">HealthGPS.Console/configuration.h</text>
</a>
</g>
</g>
<!-- Node2&#45;&gt;Node3 -->
<g id="edge2" class="edge">
<title>Node2&#45;&gt;Node3</title>
<path fill="none" stroke="#63b8ff" d="M218.73,-106.11C187.97,-96.41 145.91,-83.14 118.36,-74.45"/>
<polygon fill="#63b8ff" stroke="#63b8ff" points="217.47,-109.38 228.06,-109.05 219.57,-102.71 217.47,-109.38"/>
</g>
<!-- Node6 -->
<g id="node6" class="node">
<title>Node6</title>
<g id="a_node6"><a xlink:href="_health_g_p_s_2api_8h.html" target="_top" xlink:title=" ">
<polygon fill="white" stroke="#666666" points="429.5,-74 340.5,-74 340.5,-55 429.5,-55 429.5,-74"/>
<text text-anchor="middle" x="385" y="-62" font-family="Helvetica,sans-Serif" font-size="10.00">HealthGPS/api.h</text>
</a>
</g>
</g>
<!-- Node2&#45;&gt;Node6 -->
<g id="edge5" class="edge">
<title>Node2&#45;&gt;Node6</title>
<path fill="none" stroke="#63b8ff" d="M289.89,-105.19C312.99,-95.55 343.6,-82.78 363.77,-74.36"/>
<polygon fill="#63b8ff" stroke="#63b8ff" points="288.82,-101.84 280.94,-108.93 291.52,-108.31 288.82,-101.84"/>
</g>
<!-- Node7 -->
<g id="node7" class="node">
<title>Node7</title>
<g id="a_node7"><a xlink:href="healthgps_8cpp.html" target="_top" xlink:title=" ">
<polygon fill="white" stroke="#666666" points="322.5,-74 193.5,-74 193.5,-55 322.5,-55 322.5,-74"/>
<text text-anchor="middle" x="258" y="-62" font-family="Helvetica,sans-Serif" font-size="10.00">HealthGPS/healthgps.cpp</text>
</a>
</g>
</g>
<!-- Node2&#45;&gt;Node7 -->
<g id="edge7" class="edge">
<title>Node2&#45;&gt;Node7</title>
<path fill="none" stroke="#63b8ff" d="M258,-98.35C258,-90.1 258,-80.97 258,-74.44"/>
<polygon fill="#63b8ff" stroke="#63b8ff" points="254.5,-98.23 258,-108.23 261.5,-98.23 254.5,-98.23"/>
</g>
<!-- Node4 -->
<g id="node4" class="node">
<title>Node4</title>
<g id="a_node4"><a xlink:href="configuration_8cpp.html" target="_top" xlink:title=" ">
<polygon fill="white" stroke="#666666" points="180,-19 0,-19 0,0 180,0 180,-19"/>
<text text-anchor="middle" x="90" y="-7" font-family="Helvetica,sans-Serif" font-size="10.00">HealthGPS.Console/configuration.cpp</text>
</a>
</g>
</g>
<!-- Node3&#45;&gt;Node4 -->
<g id="edge3" class="edge">
<title>Node3&#45;&gt;Node4</title>
<path fill="none" stroke="#63b8ff" d="M90,-43.35C90,-35.1 90,-25.97 90,-19.44"/>
<polygon fill="#63b8ff" stroke="#63b8ff" points="86.5,-43.23 90,-53.23 93.5,-43.23 86.5,-43.23"/>
</g>
<!-- Node5 -->
<g id="node5" class="node">
<title>Node5</title>
<g id="a_node5"><a xlink:href="program_8cpp.html" target="_top" xlink:title=" ">
<polygon fill="white" stroke="#666666" points="412.5,-19 251.5,-19 251.5,0 412.5,0 412.5,-19"/>
<text text-anchor="middle" x="332" y="-7" font-family="Helvetica,sans-Serif" font-size="10.00">HealthGPS.Console/program.cpp</text>
</a>
</g>
</g>
<!-- Node3&#45;&gt;Node5 -->
<g id="edge4" class="edge">
<title>Node3&#45;&gt;Node5</title>
<path fill="none" stroke="#63b8ff" d="M142.25,-52.06C186.87,-42.28 250.16,-28.42 291.15,-19.45"/>
<polygon fill="#63b8ff" stroke="#63b8ff" points="141.55,-48.63 132.53,-54.19 143.05,-55.46 141.55,-48.63"/>
</g>
<!-- Node6&#45;&gt;Node5 -->
<g id="edge6" class="edge">
<title>Node6&#45;&gt;Node5</title>
<path fill="none" stroke="#63b8ff" d="M368.28,-46.78C359.22,-37.72 348.4,-26.9 340.94,-19.44"/>
<polygon fill="#63b8ff" stroke="#63b8ff" points="365.63,-49.08 375.18,-53.68 370.58,-44.13 365.63,-49.08"/>
</g>
<!-- Node8&#45;&gt;Node6 -->
<g id="edge9" class="edge">
<title>Node8&#45;&gt;Node6</title>
<path fill="none" stroke="#63b8ff" d="M395.09,-98.93C392.56,-90.53 389.72,-81.13 387.7,-74.44"/>
<polygon fill="#63b8ff" stroke="#63b8ff" points="391.68,-99.74 397.92,-108.3 398.38,-97.71 391.68,-99.74"/>
</g>
<!-- Node9 -->
<g id="node9" class="node">
<title>Node9</title>
<g id="a_node9"><a xlink:href="modelrunner_8cpp.html" target="_top" xlink:title=" ">
<polygon fill="white" stroke="#666666" points="588,-74 448,-74 448,-55 588,-55 588,-74"/>
<text text-anchor="middle" x="518" y="-62" font-family="Helvetica,sans-Serif" font-size="10.00">HealthGPS/modelrunner.cpp</text>
</a>
</g>
</g>
<!-- Node8&#45;&gt;Node9 -->
<g id="edge10" class="edge">
<title>Node8&#45;&gt;Node9</title>
<path fill="none" stroke="#63b8ff" d="M431.25,-104.8C452.43,-95.2 480.11,-82.66 498.45,-74.36"/>
<polygon fill="#63b8ff" stroke="#63b8ff" points="429.89,-101.57 422.23,-108.88 432.78,-107.95 429.89,-101.57"/>
</g>
</g>
</svg>
