<?xml version="1.0" encoding="UTF-8" standalone="no"?>
<!DOCTYPE svg PUBLIC "-//W3C//DTD SVG 1.1//EN"
 "http://www.w3.org/Graphics/SVG/1.1/DTD/svg11.dtd">
<!-- Generated by graphviz version 2.43.0 (0)
 -->
<!-- Title: HealthGPS/simulation_definition.h Pages: 1 -->
<svg width="1743pt" height="486pt"
 viewBox="0.00 0.00 1743.00 486.00" xmlns="http://www.w3.org/2000/svg" xmlns:xlink="http://www.w3.org/1999/xlink">
<g id="graph0" class="graph" transform="scale(1 1) rotate(0) translate(4 482)">
<title>HealthGPS/simulation_definition.h</title>
<!-- Node1 -->
<g id="node1" class="node">
<title>Node1</title>
<g id="a_node1"><a xlink:title=" ">
<polygon fill="#bfbfbf" stroke="black" points="1522,-447.5 1522,-477.5 1645,-477.5 1645,-447.5 1522,-447.5"/>
<text text-anchor="start" x="1530" y="-465.5" font-family="Helvetica,sans-Serif" font-size="10.00">HealthGPS/simulation</text>
<text text-anchor="middle" x="1583.5" y="-454.5" font-family="Helvetica,sans-Serif" font-size="10.00">_definition.h</text>
</a>
</g>
</g>
<!-- Node2 -->
<g id="node2" class="node">
<title>Node2</title>
<g id="a_node2"><a xlink:href="runtime__context_8h.html" target="_top" xlink:title=" ">
<polygon fill="none" stroke="black" points="835,-386 835,-405 996,-405 996,-386 835,-386"/>
<text text-anchor="middle" x="915.5" y="-393" font-family="Helvetica,sans-Serif" font-size="10.00">HealthGPS/runtime_context.h</text>
</a>
</g>
</g>
<!-- Node1&#45;&gt;Node2 -->
<g id="edge1" class="edge">
<title>Node1&#45;&gt;Node2</title>
<path fill="none" stroke="midnightblue" d="M1511.58,-454.5C1386.03,-442.28 1127.71,-417.15 996.22,-404.35"/>
<polygon fill="midnightblue" stroke="midnightblue" points="1511.56,-458.02 1521.85,-455.5 1512.24,-451.05 1511.56,-458.02"/>
</g>
<!-- Node27 -->
<g id="node27" class="node">
<title>Node27</title>
<g id="a_node27"><a xlink:href="simulation_8h.html" target="_top" xlink:title=" ">
<polygon fill="none" stroke="black" points="1427.5,-185 1427.5,-204 1559.5,-204 1559.5,-185 1427.5,-185"/>
<text text-anchor="middle" x="1493.5" y="-192" font-family="Helvetica,sans-Serif" font-size="10.00">HealthGPS/simulation.h</text>
</a>
</g>
</g>
<!-- Node1&#45;&gt;Node27 -->
<g id="edge32" class="edge">
<title>Node1&#45;&gt;Node27</title>
<path fill="none" stroke="midnightblue" d="M1583.44,-436.74C1582.66,-406.67 1579.06,-354.78 1564.5,-313 1549.05,-268.66 1515.33,-222.98 1500.61,-204.28"/>
<polygon fill="midnightblue" stroke="midnightblue" points="1579.94,-437.19 1583.61,-447.13 1586.94,-437.07 1579.94,-437.19"/>
</g>
<!-- Node30 -->
<g id="node30" class="node">
<title>Node30</title>
<g id="a_node30"><a xlink:href="simulation__definition_8cpp.html" target="_top" xlink:title=" ">
<polygon fill="none" stroke="black" points="1612,-380.5 1612,-410.5 1735,-410.5 1735,-380.5 1612,-380.5"/>
<text text-anchor="start" x="1620" y="-398.5" font-family="Helvetica,sans-Serif" font-size="10.00">HealthGPS/simulation</text>
<text text-anchor="middle" x="1673.5" y="-387.5" font-family="Helvetica,sans-Serif" font-size="10.00">_definition.cpp</text>
</a>
</g>
</g>
<!-- Node1&#45;&gt;Node30 -->
<g id="edge37" class="edge">
<title>Node1&#45;&gt;Node30</title>
<path fill="none" stroke="midnightblue" d="M1611.26,-441.45C1625.11,-431.45 1641.52,-419.6 1654.01,-410.58"/>
<polygon fill="midnightblue" stroke="midnightblue" points="1609.09,-438.7 1603.03,-447.4 1613.18,-444.38 1609.09,-438.7"/>
</g>
<!-- Node3 -->
<g id="node3" class="node">
<title>Node3</title>
<g id="a_node3"><a xlink:href="analysis__module_8h.html" target="_top" xlink:title=" ">
<polygon fill="none" stroke="black" points="779.5,-313.5 779.5,-343.5 891.5,-343.5 891.5,-313.5 779.5,-313.5"/>
<text text-anchor="start" x="787.5" y="-331.5" font-family="Helvetica,sans-Serif" font-size="10.00">HealthGPS/analysis</text>
<text text-anchor="middle" x="835.5" y="-320.5" font-family="Helvetica,sans-Serif" font-size="10.00">_module.h</text>
</a>
</g>
</g>
<!-- Node2&#45;&gt;Node3 -->
<g id="edge2" class="edge">
<title>Node2&#45;&gt;Node3</title>
<path fill="none" stroke="midnightblue" d="M896.71,-379.24C883.44,-368.45 865.78,-354.1 852.84,-343.59"/>
<polygon fill="midnightblue" stroke="midnightblue" points="894.74,-382.14 904.71,-385.73 899.16,-376.71 894.74,-382.14"/>
</g>
<!-- Node8 -->
<g id="node8" class="node">
<title>Node8</title>
<g id="a_node8"><a xlink:href="healthgps_8h.html" target="_top" xlink:title=" ">
<polygon fill="none" stroke="black" points="1237.5,-118 1237.5,-137 1365.5,-137 1365.5,-118 1237.5,-118"/>
<text text-anchor="middle" x="1301.5" y="-125" font-family="Helvetica,sans-Serif" font-size="10.00">HealthGPS/healthgps.h</text>
</a>
</g>
</g>
<!-- Node2&#45;&gt;Node8 -->
<g id="edge23" class="edge">
<title>Node2&#45;&gt;Node8</title>
<path fill="none" stroke="midnightblue" d="M1006.64,-390.64C1130.98,-384.43 1341.11,-370.17 1364.5,-344 1421.13,-280.64 1335.63,-168.92 1309,-137.15"/>
<polygon fill="midnightblue" stroke="midnightblue" points="1006.18,-387.16 996.37,-391.15 1006.53,-394.15 1006.18,-387.16"/>
</g>
<!-- Node13 -->
<g id="node13" class="node">
<title>Node13</title>
<g id="a_node13"><a xlink:href="default__cancer__model_8cpp.html" target="_top" xlink:title=" ">
<polygon fill="none" stroke="black" points="1412,-313.5 1412,-343.5 1555,-343.5 1555,-313.5 1412,-313.5"/>
<text text-anchor="start" x="1420" y="-331.5" font-family="Helvetica,sans-Serif" font-size="10.00">HealthGPS/default_cancer</text>
<text text-anchor="middle" x="1483.5" y="-320.5" font-family="Helvetica,sans-Serif" font-size="10.00">_model.cpp</text>
</a>
</g>
</g>
<!-- Node2&#45;&gt;Node13 -->
<g id="edge14" class="edge">
<title>Node2&#45;&gt;Node13</title>
<path fill="none" stroke="midnightblue" d="M1006.35,-386.69C1103.4,-377.95 1261.63,-362.55 1397.5,-344 1402.15,-343.36 1406.94,-342.67 1411.76,-341.94"/>
<polygon fill="midnightblue" stroke="midnightblue" points="1005.93,-383.22 996.28,-387.59 1006.55,-390.19 1005.93,-383.22"/>
</g>
<!-- Node14 -->
<g id="node14" class="node">
<title>Node14</title>
<g id="a_node14"><a xlink:href="default__disease__model_8cpp.html" target="_top" xlink:title=" ">
<polygon fill="none" stroke="black" points="0,-313.5 0,-343.5 149,-343.5 149,-313.5 0,-313.5"/>
<text text-anchor="start" x="8" y="-331.5" font-family="Helvetica,sans-Serif" font-size="10.00">HealthGPS/default_disease</text>
<text text-anchor="middle" x="74.5" y="-320.5" font-family="Helvetica,sans-Serif" font-size="10.00">_model.cpp</text>
</a>
</g>
</g>
<!-- Node2&#45;&gt;Node14 -->
<g id="edge15" class="edge">
<title>Node2&#45;&gt;Node14</title>
<path fill="none" stroke="midnightblue" d="M824.86,-391.51C682.53,-386.13 398.14,-372.6 158.5,-344 155.41,-343.63 152.27,-343.23 149.1,-342.79"/>
<polygon fill="midnightblue" stroke="midnightblue" points="824.73,-395.01 834.86,-391.88 824.99,-388.01 824.73,-395.01"/>
</g>
<!-- Node15 -->
<g id="node15" class="node">
<title>Node15</title>
<g id="a_node15"><a xlink:href="demographic_8h.html" target="_top" xlink:title=" ">
<polygon fill="none" stroke="black" points="167.5,-319 167.5,-338 311.5,-338 311.5,-319 167.5,-319"/>
<text text-anchor="middle" x="239.5" y="-326" font-family="Helvetica,sans-Serif" font-size="10.00">HealthGPS/demographic.h</text>
</a>
</g>
</g>
<!-- Node2&#45;&gt;Node15 -->
<g id="edge16" class="edge">
<title>Node2&#45;&gt;Node15</title>
<path fill="none" stroke="midnightblue" d="M824.55,-389.4C707.59,-382.25 498.34,-367.41 320.5,-344 308.32,-342.4 295.18,-340.23 283.1,-338.07"/>
<polygon fill="midnightblue" stroke="midnightblue" points="824.69,-392.92 834.89,-390.03 825.12,-385.93 824.69,-392.92"/>
</g>
<!-- Node17 -->
<g id="node17" class="node">
<title>Node17</title>
<g id="a_node17"><a xlink:href="HealthGPS_2disease_8h.html" target="_top" xlink:title=" ">
<polygon fill="none" stroke="black" points="329.5,-319 329.5,-338 447.5,-338 447.5,-319 329.5,-319"/>
<text text-anchor="middle" x="388.5" y="-326" font-family="Helvetica,sans-Serif" font-size="10.00">HealthGPS/disease.h</text>
</a>
</g>
</g>
<!-- Node2&#45;&gt;Node17 -->
<g id="edge19" class="edge">
<title>Node2&#45;&gt;Node17</title>
<path fill="none" stroke="midnightblue" d="M824.53,-387.21C731.67,-379.13 583.52,-364.48 456.5,-344 446.25,-342.35 435.21,-340.17 425.08,-338"/>
<polygon fill="midnightblue" stroke="midnightblue" points="824.48,-390.72 834.74,-388.09 825.08,-383.74 824.48,-390.72"/>
</g>
<!-- Node19 -->
<g id="node19" class="node">
<title>Node19</title>
<g id="a_node19"><a xlink:href="energy__balance__model_8cpp.html" target="_top" xlink:title=" ">
<polygon fill="none" stroke="black" points="466,-313.5 466,-343.5 615,-343.5 615,-313.5 466,-313.5"/>
<text text-anchor="start" x="474" y="-331.5" font-family="Helvetica,sans-Serif" font-size="10.00">HealthGPS/energy_balance</text>
<text text-anchor="middle" x="540.5" y="-320.5" font-family="Helvetica,sans-Serif" font-size="10.00">_model.cpp</text>
</a>
</g>
</g>
<!-- Node2&#45;&gt;Node19 -->
<g id="edge22" class="edge">
<title>Node2&#45;&gt;Node19</title>
<path fill="none" stroke="midnightblue" d="M855.97,-384.18C790.74,-372.88 686,-354.72 615.28,-342.46"/>
<polygon fill="midnightblue" stroke="midnightblue" points="855.64,-387.68 866.09,-385.94 856.83,-380.78 855.64,-387.68"/>
</g>
<!-- Node20 -->
<g id="node20" class="node">
<title>Node20</title>
<g id="a_node20"><a xlink:href="hierarchical__model__static_8cpp.html" target="_top" xlink:title=" ">
<polygon fill="none" stroke="black" points="633.5,-313.5 633.5,-343.5 761.5,-343.5 761.5,-313.5 633.5,-313.5"/>
<text text-anchor="start" x="641.5" y="-331.5" font-family="Helvetica,sans-Serif" font-size="10.00">HealthGPS/hierarchical</text>
<text text-anchor="middle" x="697.5" y="-320.5" font-family="Helvetica,sans-Serif" font-size="10.00">_model_static.cpp</text>
</a>
</g>
</g>
<!-- Node2&#45;&gt;Node20 -->
<g id="edge24" class="edge">
<title>Node2&#45;&gt;Node20</title>
<path fill="none" stroke="midnightblue" d="M876.65,-382.92C839.69,-371.9 784.01,-355.29 744.55,-343.53"/>
<polygon fill="midnightblue" stroke="midnightblue" points="875.97,-386.37 886.55,-385.87 877.97,-379.66 875.97,-386.37"/>
</g>
<!-- Node21 -->
<g id="node21" class="node">
<title>Node21</title>
<g id="a_node21"><a xlink:href="riskfactor__adjustment_8h.html" target="_top" xlink:title=" ">
<polygon fill="none" stroke="black" points="1237.5,-313.5 1237.5,-343.5 1355.5,-343.5 1355.5,-313.5 1237.5,-313.5"/>
<text text-anchor="start" x="1245.5" y="-331.5" font-family="Helvetica,sans-Serif" font-size="10.00">HealthGPS/riskfactor</text>
<text text-anchor="middle" x="1296.5" y="-320.5" font-family="Helvetica,sans-Serif" font-size="10.00">_adjustment.h</text>
</a>
</g>
</g>
<!-- Node2&#45;&gt;Node21 -->
<g id="edge25" class="edge">
<title>Node2&#45;&gt;Node21</title>
<path fill="none" stroke="midnightblue" d="M983.81,-384.49C1047.34,-374.94 1144.53,-359.72 1228.5,-344 1231.35,-343.47 1234.26,-342.91 1237.2,-342.33"/>
<polygon fill="midnightblue" stroke="midnightblue" points="983.29,-381.03 973.92,-385.97 984.32,-387.95 983.29,-381.03"/>
</g>
<!-- Node25 -->
<g id="node25" class="node">
<title>Node25</title>
<g id="a_node25"><a xlink:href="runtime__context_8cpp.html" target="_top" xlink:title=" ">
<polygon fill="none" stroke="black" points="909.5,-319 909.5,-338 1081.5,-338 1081.5,-319 909.5,-319"/>
<text text-anchor="middle" x="995.5" y="-326" font-family="Helvetica,sans-Serif" font-size="10.00">HealthGPS/runtime_context.cpp</text>
</a>
</g>
</g>
<!-- Node2&#45;&gt;Node25 -->
<g id="edge30" class="edge">
<title>Node2&#45;&gt;Node25</title>
<path fill="none" stroke="midnightblue" d="M934.31,-379.21C950.08,-366.41 972.01,-348.59 984.88,-338.13"/>
<polygon fill="midnightblue" stroke="midnightblue" points="931.84,-376.71 926.29,-385.73 936.26,-382.14 931.84,-376.71"/>
</g>
<!-- Node26 -->
<g id="node26" class="node">
<title>Node26</title>
<g id="a_node26"><a xlink:href="ses__noise__module_8cpp.html" target="_top" xlink:title=" ">
<polygon fill="none" stroke="black" points="1100,-313.5 1100,-343.5 1219,-343.5 1219,-313.5 1100,-313.5"/>
<text text-anchor="start" x="1108" y="-331.5" font-family="Helvetica,sans-Serif" font-size="10.00">HealthGPS/ses_noise</text>
<text text-anchor="middle" x="1159.5" y="-320.5" font-family="Helvetica,sans-Serif" font-size="10.00">_module.cpp</text>
</a>
</g>
</g>
<!-- Node2&#45;&gt;Node26 -->
<g id="edge31" class="edge">
<title>Node2&#45;&gt;Node26</title>
<path fill="none" stroke="midnightblue" d="M957.4,-383.34C998.72,-372.33 1062,-355.47 1106.72,-343.56"/>
<polygon fill="midnightblue" stroke="midnightblue" points="956.41,-379.98 947.65,-385.94 958.21,-386.74 956.41,-379.98"/>
</g>
<!-- Node4 -->
<g id="node4" class="node">
<title>Node4</title>
<g id="a_node4"><a xlink:href="analysis__module_8cpp.html" target="_top" xlink:title=" ">
<polygon fill="none" stroke="black" points="863.5,-246.5 863.5,-276.5 975.5,-276.5 975.5,-246.5 863.5,-246.5"/>
<text text-anchor="start" x="871.5" y="-264.5" font-family="Helvetica,sans-Serif" font-size="10.00">HealthGPS/analysis</text>
<text text-anchor="middle" x="919.5" y="-253.5" font-family="Helvetica,sans-Serif" font-size="10.00">_module.cpp</text>
</a>
</g>
</g>
<!-- Node3&#45;&gt;Node4 -->
<g id="edge3" class="edge">
<title>Node3&#45;&gt;Node4</title>
<path fill="none" stroke="midnightblue" d="M861.78,-307.17C874.62,-297.23 889.76,-285.51 901.31,-276.58"/>
<polygon fill="midnightblue" stroke="midnightblue" points="859.49,-304.51 853.73,-313.4 863.78,-310.04 859.49,-304.51"/>
</g>
<!-- Node5 -->
<g id="node5" class="node">
<title>Node5</title>
<g id="a_node5"><a xlink:href="simulation__module_8h.html" target="_top" xlink:title=" ">
<polygon fill="none" stroke="black" points="865,-179.5 865,-209.5 988,-209.5 988,-179.5 865,-179.5"/>
<text text-anchor="start" x="873" y="-197.5" font-family="Helvetica,sans-Serif" font-size="10.00">HealthGPS/simulation</text>
<text text-anchor="middle" x="926.5" y="-186.5" font-family="Helvetica,sans-Serif" font-size="10.00">_module.h</text>
</a>
</g>
</g>
<!-- Node3&#45;&gt;Node5 -->
<g id="edge4" class="edge">
<title>Node3&#45;&gt;Node5</title>
<path fill="none" stroke="midnightblue" d="M836.64,-302.95C838.48,-285.74 843.09,-262.89 854.5,-246 865.01,-230.44 882.04,-218.17 896.9,-209.63"/>
<polygon fill="midnightblue" stroke="midnightblue" points="833.12,-303.07 835.79,-313.32 840.1,-303.64 833.12,-303.07"/>
</g>
<!-- Node6 -->
<g id="node6" class="node">
<title>Node6</title>
<g id="a_node6"><a xlink:href="HealthGPS_2api_8h.html" target="_top" xlink:title=" ">
<polygon fill="none" stroke="black" points="957,-56.5 957,-75.5 1052,-75.5 1052,-56.5 957,-56.5"/>
<text text-anchor="middle" x="1004.5" y="-63.5" font-family="Helvetica,sans-Serif" font-size="10.00">HealthGPS/api.h</text>
</a>
</g>
</g>
<!-- Node5&#45;&gt;Node6 -->
<g id="edge5" class="edge">
<title>Node5&#45;&gt;Node6</title>
<path fill="none" stroke="midnightblue" d="M927.85,-169.08C929.79,-151.94 934.43,-129.11 945.5,-112 955.92,-95.88 974.2,-83.28 987.66,-75.57"/>
<polygon fill="midnightblue" stroke="midnightblue" points="924.33,-169.14 926.93,-179.41 931.31,-169.76 924.33,-169.14"/>
</g>
<!-- Node5&#45;&gt;Node8 -->
<g id="edge7" class="edge">
<title>Node5&#45;&gt;Node8</title>
<path fill="none" stroke="midnightblue" d="M998.24,-181.06C1072.76,-168.15 1187.35,-148.29 1252.24,-137.04"/>
<polygon fill="midnightblue" stroke="midnightblue" points="997.26,-177.68 988,-182.84 998.45,-184.58 997.26,-177.68"/>
</g>
<!-- Node12 -->
<g id="node12" class="node">
<title>Node12</title>
<g id="a_node12"><a xlink:href="simulation__module_8cpp.html" target="_top" xlink:title=" ">
<polygon fill="none" stroke="black" points="955,-112.5 955,-142.5 1078,-142.5 1078,-112.5 955,-112.5"/>
<text text-anchor="start" x="963" y="-130.5" font-family="Helvetica,sans-Serif" font-size="10.00">HealthGPS/simulation</text>
<text text-anchor="middle" x="1016.5" y="-119.5" font-family="Helvetica,sans-Serif" font-size="10.00">_module.cpp</text>
</a>
</g>
</g>
<!-- Node5&#45;&gt;Node12 -->
<g id="edge13" class="edge">
<title>Node5&#45;&gt;Node12</title>
<path fill="none" stroke="midnightblue" d="M954.26,-173.45C968.11,-163.45 984.52,-151.6 997.01,-142.58"/>
<polygon fill="midnightblue" stroke="midnightblue" points="952.09,-170.7 946.03,-179.4 956.18,-176.38 952.09,-170.7"/>
</g>
<!-- Node7 -->
<g id="node7" class="node">
<title>Node7</title>
<g id="a_node7"><a xlink:href="program_8cpp.html" target="_top" xlink:title=" ">
<polygon fill="none" stroke="black" points="917,-0.5 917,-19.5 1092,-19.5 1092,-0.5 917,-0.5"/>
<text text-anchor="middle" x="1004.5" y="-7.5" font-family="Helvetica,sans-Serif" font-size="10.00">HealthGPS.Console/program.cpp</text>
</a>
</g>
</g>
<!-- Node6&#45;&gt;Node7 -->
<g id="edge6" class="edge">
<title>Node6&#45;&gt;Node7</title>
<path fill="none" stroke="midnightblue" d="M1004.5,-45.8C1004.5,-36.91 1004.5,-26.78 1004.5,-19.75"/>
<polygon fill="midnightblue" stroke="midnightblue" points="1001,-46.08 1004.5,-56.08 1008,-46.08 1001,-46.08"/>
</g>
<!-- Node8&#45;&gt;Node6 -->
<g id="edge8" class="edge">
<title>Node8&#45;&gt;Node6</title>
<path fill="none" stroke="midnightblue" d="M1248.96,-115.97C1191.4,-104.44 1100.2,-86.17 1046.97,-75.51"/>
<polygon fill="midnightblue" stroke="midnightblue" points="1248.45,-119.44 1258.95,-117.98 1249.83,-112.58 1248.45,-119.44"/>
</g>
<!-- Node9 -->
<g id="node9" class="node">
<title>Node9</title>
<g id="a_node9"><a xlink:href="healthgps_8cpp.html" target="_top" xlink:title=" ">
<polygon fill="none" stroke="black" points="1274.5,-56.5 1274.5,-75.5 1414.5,-75.5 1414.5,-56.5 1274.5,-56.5"/>
<text text-anchor="middle" x="1344.5" y="-63.5" font-family="Helvetica,sans-Serif" font-size="10.00">HealthGPS/healthgps.cpp</text>
</a>
</g>
</g>
<!-- Node8&#45;&gt;Node9 -->
<g id="edge9" class="edge">
<title>Node8&#45;&gt;Node9</title>
<path fill="none" stroke="midnightblue" d="M1313.54,-109.84C1321.61,-98.67 1331.91,-84.43 1338.35,-75.51"/>
<polygon fill="midnightblue" stroke="midnightblue" points="1310.68,-107.82 1307.66,-117.98 1316.36,-111.92 1310.68,-107.82"/>
</g>
<!-- Node10 -->
<g id="node10" class="node">
<title>Node10</title>
<g id="a_node10"><a xlink:href="configuration_8h.html" target="_top" xlink:title=" ">
<polygon fill="none" stroke="black" points="1070.5,-56.5 1070.5,-75.5 1256.5,-75.5 1256.5,-56.5 1070.5,-56.5"/>
<text text-anchor="middle" x="1163.5" y="-63.5" font-family="Helvetica,sans-Serif" font-size="10.00">HealthGPS.Console/configuration.h</text>
</a>
</g>
</g>
<!-- Node8&#45;&gt;Node10 -->
<g id="edge10" class="edge">
<title>Node8&#45;&gt;Node10</title>
<path fill="none" stroke="midnightblue" d="M1272.46,-113.98C1245.66,-102.42 1206.58,-85.58 1183.24,-75.51"/>
<polygon fill="midnightblue" stroke="midnightblue" points="1271.16,-117.23 1281.73,-117.98 1273.93,-110.8 1271.16,-117.23"/>
</g>
<!-- Node10&#45;&gt;Node7 -->
<g id="edge12" class="edge">
<title>Node10&#45;&gt;Node7</title>
<path fill="none" stroke="midnightblue" d="M1128.67,-53.17C1098.73,-43 1056.28,-28.59 1029.58,-19.52"/>
<polygon fill="midnightblue" stroke="midnightblue" points="1127.71,-56.54 1138.31,-56.44 1129.96,-49.91 1127.71,-56.54"/>
</g>
<!-- Node11 -->
<g id="node11" class="node">
<title>Node11</title>
<g id="a_node11"><a xlink:href="configuration_8cpp.html" target="_top" xlink:title=" ">
<polygon fill="none" stroke="black" points="1110,-0.5 1110,-19.5 1307,-19.5 1307,-0.5 1110,-0.5"/>
<text text-anchor="middle" x="1208.5" y="-7.5" font-family="Helvetica,sans-Serif" font-size="10.00">HealthGPS.Console/configuration.cpp</text>
</a>
</g>
</g>
<!-- Node10&#45;&gt;Node11 -->
<g id="edge11" class="edge">
<title>Node10&#45;&gt;Node11</title>
<path fill="none" stroke="midnightblue" d="M1177.55,-48.14C1185.39,-38.74 1194.83,-27.4 1201.21,-19.75"/>
<polygon fill="midnightblue" stroke="midnightblue" points="1174.64,-46.16 1170.93,-56.08 1180.02,-50.64 1174.64,-46.16"/>
</g>
<!-- Node15&#45;&gt;Node5 -->
<g id="edge18" class="edge">
<title>Node15&#45;&gt;Node5</title>
<path fill="none" stroke="midnightblue" d="M223.56,-311.43C207.71,-293.53 188.09,-264.67 205.5,-246 250.02,-198.25 698.7,-194.76 864.96,-195.13"/>
<polygon fill="midnightblue" stroke="midnightblue" points="221.05,-313.87 230.42,-318.8 226.17,-309.1 221.05,-313.87"/>
</g>
<!-- Node16 -->
<g id="node16" class="node">
<title>Node16</title>
<g id="a_node16"><a xlink:href="demographic_8cpp.html" target="_top" xlink:title=" ">
<polygon fill="none" stroke="black" points="215,-252 215,-271 370,-271 370,-252 215,-252"/>
<text text-anchor="middle" x="292.5" y="-259" font-family="Helvetica,sans-Serif" font-size="10.00">HealthGPS/demographic.cpp</text>
</a>
</g>
</g>
<!-- Node15&#45;&gt;Node16 -->
<g id="edge17" class="edge">
<title>Node15&#45;&gt;Node16</title>
<path fill="none" stroke="midnightblue" d="M253.14,-310.77C263.47,-298.1 277.25,-281.2 285.47,-271.13"/>
<polygon fill="midnightblue" stroke="midnightblue" points="250.25,-308.77 246.65,-318.73 255.68,-313.2 250.25,-308.77"/>
</g>
<!-- Node17&#45;&gt;Node5 -->
<g id="edge21" class="edge">
<title>Node17&#45;&gt;Node5</title>
<path fill="none" stroke="midnightblue" d="M433.2,-316.53C530.45,-292.67 761.14,-236.07 869.03,-209.6"/>
<polygon fill="midnightblue" stroke="midnightblue" points="432.26,-313.16 423.39,-318.94 433.93,-319.96 432.26,-313.16"/>
</g>
<!-- Node18 -->
<g id="node18" class="node">
<title>Node18</title>
<g id="a_node18"><a xlink:href="disease_8cpp.html" target="_top" xlink:title=" ">
<polygon fill="none" stroke="black" points="388,-252 388,-271 517,-271 517,-252 388,-252"/>
<text text-anchor="middle" x="452.5" y="-259" font-family="Helvetica,sans-Serif" font-size="10.00">HealthGPS/disease.cpp</text>
</a>
</g>
</g>
<!-- Node17&#45;&gt;Node18 -->
<g id="edge20" class="edge">
<title>Node17&#45;&gt;Node18</title>
<path fill="none" stroke="midnightblue" d="M404.26,-311.5C416.81,-298.75 433.9,-281.39 444.01,-271.13"/>
<polygon fill="midnightblue" stroke="midnightblue" points="401.65,-309.15 397.13,-318.73 406.64,-314.06 401.65,-309.15"/>
</g>
<!-- Node22 -->
<g id="node22" class="node">
<title>Node22</title>
<g id="a_node22"><a xlink:href="riskfactor_8h.html" target="_top" xlink:title=" ">
<polygon fill="none" stroke="black" points="1043.5,-252 1043.5,-271 1169.5,-271 1169.5,-252 1043.5,-252"/>
<text text-anchor="middle" x="1106.5" y="-259" font-family="Helvetica,sans-Serif" font-size="10.00">HealthGPS/riskfactor.h</text>
</a>
</g>
</g>
<!-- Node21&#45;&gt;Node22 -->
<g id="edge26" class="edge">
<title>Node21&#45;&gt;Node22</title>
<path fill="none" stroke="midnightblue" d="M1245.66,-310.11C1208.7,-297.46 1160.26,-280.89 1131.37,-271.01"/>
<polygon fill="midnightblue" stroke="midnightblue" points="1244.68,-313.47 1255.27,-313.4 1246.94,-306.85 1244.68,-313.47"/>
</g>
<!-- Node24 -->
<g id="node24" class="node">
<title>Node24</title>
<g id="a_node24"><a xlink:href="riskfactor__adjustment_8cpp.html" target="_top" xlink:title=" ">
<polygon fill="none" stroke="black" points="1237.5,-246.5 1237.5,-276.5 1355.5,-276.5 1355.5,-246.5 1237.5,-246.5"/>
<text text-anchor="start" x="1245.5" y="-264.5" font-family="Helvetica,sans-Serif" font-size="10.00">HealthGPS/riskfactor</text>
<text text-anchor="middle" x="1296.5" y="-253.5" font-family="Helvetica,sans-Serif" font-size="10.00">_adjustment.cpp</text>
</a>
</g>
</g>
<!-- Node21&#45;&gt;Node24 -->
<g id="edge29" class="edge">
<title>Node21&#45;&gt;Node24</title>
<path fill="none" stroke="midnightblue" d="M1296.5,-303.11C1296.5,-294.15 1296.5,-284.32 1296.5,-276.58"/>
<polygon fill="midnightblue" stroke="midnightblue" points="1293,-303.4 1296.5,-313.4 1300,-303.4 1293,-303.4"/>
</g>
<!-- Node22&#45;&gt;Node5 -->
<g id="edge28" class="edge">
<title>Node22&#45;&gt;Node5</title>
<path fill="none" stroke="midnightblue" d="M1072.84,-248.35C1042.33,-237.33 997.37,-221.09 965.35,-209.53"/>
<polygon fill="midnightblue" stroke="midnightblue" points="1072,-251.76 1082.6,-251.87 1074.38,-245.18 1072,-251.76"/>
</g>
<!-- Node23 -->
<g id="node23" class="node">
<title>Node23</title>
<g id="a_node23"><a xlink:href="riskfactor_8cpp.html" target="_top" xlink:title=" ">
<polygon fill="none" stroke="black" points="1038,-185 1038,-204 1175,-204 1175,-185 1038,-185"/>
<text text-anchor="middle" x="1106.5" y="-192" font-family="Helvetica,sans-Serif" font-size="10.00">HealthGPS/riskfactor.cpp</text>
</a>
</g>
</g>
<!-- Node22&#45;&gt;Node23 -->
<g id="edge27" class="edge">
<title>Node22&#45;&gt;Node23</title>
<path fill="none" stroke="midnightblue" d="M1106.5,-241.54C1106.5,-229.17 1106.5,-213.62 1106.5,-204.13"/>
<polygon fill="midnightblue" stroke="midnightblue" points="1103,-241.73 1106.5,-251.73 1110,-241.73 1103,-241.73"/>
</g>
<!-- Node27&#45;&gt;Node8 -->
<g id="edge33" class="edge">
<title>Node27&#45;&gt;Node8</title>
<path fill="none" stroke="midnightblue" d="M1458.35,-181.6C1420.29,-168.71 1360.5,-148.47 1326.8,-137.06"/>
<polygon fill="midnightblue" stroke="midnightblue" points="1457.41,-184.98 1468,-184.87 1459.65,-178.35 1457.41,-184.98"/>
</g>
<!-- Node28 -->
<g id="node28" class="node">
<title>Node28</title>
<g id="a_node28"><a xlink:href="modelrunner_8h.html" target="_top" xlink:title=" ">
<polygon fill="none" stroke="black" points="1422.5,-118 1422.5,-137 1564.5,-137 1564.5,-118 1422.5,-118"/>
<text text-anchor="middle" x="1493.5" y="-125" font-family="Helvetica,sans-Serif" font-size="10.00">HealthGPS/modelrunner.h</text>
</a>
</g>
</g>
<!-- Node27&#45;&gt;Node28 -->
<g id="edge34" class="edge">
<title>Node27&#45;&gt;Node28</title>
<path fill="none" stroke="midnightblue" d="M1493.5,-174.54C1493.5,-162.17 1493.5,-146.62 1493.5,-137.13"/>
<polygon fill="midnightblue" stroke="midnightblue" points="1490,-174.73 1493.5,-184.73 1497,-174.73 1490,-174.73"/>
</g>
<!-- Node28&#45;&gt;Node6 -->
<g id="edge35" class="edge">
<title>Node28&#45;&gt;Node6</title>
<path fill="none" stroke="midnightblue" d="M1414.24,-116.77C1400.97,-115.16 1387.35,-113.52 1374.5,-112 1235.44,-95.53 1200.24,-94.92 1061.5,-76 1058.42,-75.58 1055.25,-75.13 1052.06,-74.66"/>
<polygon fill="midnightblue" stroke="midnightblue" points="1413.94,-120.26 1424.29,-117.99 1414.79,-113.31 1413.94,-120.26"/>
</g>
<!-- Node29 -->
<g id="node29" class="node">
<title>Node29</title>
<g id="a_node29"><a xlink:href="modelrunner_8cpp.html" target="_top" xlink:title=" ">
<polygon fill="none" stroke="black" points="1433,-56.5 1433,-75.5 1586,-75.5 1586,-56.5 1433,-56.5"/>
<text text-anchor="middle" x="1509.5" y="-63.5" font-family="Helvetica,sans-Serif" font-size="10.00">HealthGPS/modelrunner.cpp</text>
</a>
</g>
</g>
<!-- Node28&#45;&gt;Node29 -->
<g id="edge36" class="edge">
<title>Node28&#45;&gt;Node29</title>
<path fill="none" stroke="midnightblue" d="M1498.43,-108.16C1501.36,-97.27 1504.93,-83.99 1507.21,-75.51"/>
<polygon fill="midnightblue" stroke="midnightblue" points="1495.01,-107.41 1495.79,-117.98 1501.77,-109.23 1495.01,-107.41"/>
</g>
</g>
</svg>
