<?xml version="1.0" encoding="UTF-8" standalone="no"?>
<!DOCTYPE svg PUBLIC "-//W3C//DTD SVG 1.1//EN"
 "http://www.w3.org/Graphics/SVG/1.1/DTD/svg11.dtd">
<!-- Generated by graphviz version 2.43.0 (0)
 -->
<!-- Title: HealthGPS/simulation.h Pages: 1 -->
<svg width="642pt" height="196pt"
 viewBox="0.00 0.00 642.00 196.00" xmlns="http://www.w3.org/2000/svg" xmlns:xlink="http://www.w3.org/1999/xlink">
<g id="graph0" class="graph" transform="scale(1 1) rotate(0) translate(4 192)">
<title>HealthGPS/simulation.h</title>
<!-- Node1 -->
<g id="node1" class="node">
<title>Node1</title>
<g id="a_node1"><a xlink:title=" ">
<polygon fill="#bfbfbf" stroke="black" points="289.5,-168.5 289.5,-187.5 421.5,-187.5 421.5,-168.5 289.5,-168.5"/>
<text text-anchor="middle" x="355.5" y="-175.5" font-family="Helvetica,sans-Serif" font-size="10.00">HealthGPS/simulation.h</text>
</a>
</g>
</g>
<!-- Node2 -->
<g id="node2" class="node">
<title>Node2</title>
<g id="a_node2"><a xlink:href="healthgps_8h.html" target="_top" xlink:title=" ">
<polygon fill="none" stroke="black" points="215.5,-112.5 215.5,-131.5 343.5,-131.5 343.5,-112.5 215.5,-112.5"/>
<text text-anchor="middle" x="279.5" y="-119.5" font-family="Helvetica,sans-Serif" font-size="10.00">HealthGPS/healthgps.h</text>
</a>
</g>
</g>
<!-- Node1&#45;&gt;Node2 -->
<g id="edge1" class="edge">
<title>Node1&#45;&gt;Node2</title>
<path fill="none" stroke="midnightblue" d="M334.92,-162.38C321.19,-152.62 303.57,-140.11 291.93,-131.83"/>
<polygon fill="midnightblue" stroke="midnightblue" points="333.11,-165.38 343.29,-168.32 337.16,-159.68 333.11,-165.38"/>
</g>
<!-- Node8 -->
<g id="node8" class="node">
<title>Node8</title>
<g id="a_node8"><a xlink:href="modelrunner_8h.html" target="_top" xlink:title=" ">
<polygon fill="none" stroke="black" points="361.5,-112.5 361.5,-131.5 503.5,-131.5 503.5,-112.5 361.5,-112.5"/>
<text text-anchor="middle" x="432.5" y="-119.5" font-family="Helvetica,sans-Serif" font-size="10.00">HealthGPS/modelrunner.h</text>
</a>
</g>
</g>
<!-- Node1&#45;&gt;Node8 -->
<g id="edge8" class="edge">
<title>Node1&#45;&gt;Node8</title>
<path fill="none" stroke="midnightblue" d="M376.4,-162.34C390.41,-152.52 408.38,-139.91 420.16,-131.65"/>
<polygon fill="midnightblue" stroke="midnightblue" points="374.05,-159.72 367.87,-168.32 378.07,-165.45 374.05,-159.72"/>
</g>
<!-- Node3 -->
<g id="node3" class="node">
<title>Node3</title>
<g id="a_node3"><a xlink:href="HealthGPS_2api_8h.html" target="_top" xlink:title=" ">
<polygon fill="none" stroke="black" points="368,-56.5 368,-75.5 463,-75.5 463,-56.5 368,-56.5"/>
<text text-anchor="middle" x="415.5" y="-63.5" font-family="Helvetica,sans-Serif" font-size="10.00">HealthGPS/api.h</text>
</a>
</g>
</g>
<!-- Node2&#45;&gt;Node3 -->
<g id="edge2" class="edge">
<title>Node2&#45;&gt;Node3</title>
<path fill="none" stroke="midnightblue" d="M310.63,-108.64C336.16,-98.5 371.61,-84.43 394.05,-75.52"/>
<polygon fill="midnightblue" stroke="midnightblue" points="309.05,-105.5 301.05,-112.44 311.64,-112.01 309.05,-105.5"/>
</g>
<!-- Node5 -->
<g id="node5" class="node">
<title>Node5</title>
<g id="a_node5"><a xlink:href="healthgps_8cpp.html" target="_top" xlink:title=" ">
<polygon fill="none" stroke="black" points="209.5,-56.5 209.5,-75.5 349.5,-75.5 349.5,-56.5 209.5,-56.5"/>
<text text-anchor="middle" x="279.5" y="-63.5" font-family="Helvetica,sans-Serif" font-size="10.00">HealthGPS/healthgps.cpp</text>
</a>
</g>
</g>
<!-- Node2&#45;&gt;Node5 -->
<g id="edge4" class="edge">
<title>Node2&#45;&gt;Node5</title>
<path fill="none" stroke="midnightblue" d="M279.5,-101.8C279.5,-92.91 279.5,-82.78 279.5,-75.75"/>
<polygon fill="midnightblue" stroke="midnightblue" points="276,-102.08 279.5,-112.08 283,-102.08 276,-102.08"/>
</g>
<!-- Node6 -->
<g id="node6" class="node">
<title>Node6</title>
<g id="a_node6"><a xlink:href="configuration_8h.html" target="_top" xlink:title=" ">
<polygon fill="none" stroke="black" points="5.5,-56.5 5.5,-75.5 191.5,-75.5 191.5,-56.5 5.5,-56.5"/>
<text text-anchor="middle" x="98.5" y="-63.5" font-family="Helvetica,sans-Serif" font-size="10.00">HealthGPS.Console/configuration.h</text>
</a>
</g>
</g>
<!-- Node2&#45;&gt;Node6 -->
<g id="edge5" class="edge">
<title>Node2&#45;&gt;Node6</title>
<path fill="none" stroke="midnightblue" d="M241.18,-109.57C207.04,-99.38 157.84,-84.7 127.05,-75.52"/>
<polygon fill="midnightblue" stroke="midnightblue" points="240.24,-112.94 250.82,-112.44 242.24,-106.23 240.24,-112.94"/>
</g>
<!-- Node4 -->
<g id="node4" class="node">
<title>Node4</title>
<g id="a_node4"><a xlink:href="program_8cpp.html" target="_top" xlink:title=" ">
<polygon fill="none" stroke="black" points="271,-0.5 271,-19.5 446,-19.5 446,-0.5 271,-0.5"/>
<text text-anchor="middle" x="358.5" y="-7.5" font-family="Helvetica,sans-Serif" font-size="10.00">HealthGPS.Console/program.cpp</text>
</a>
</g>
</g>
<!-- Node3&#45;&gt;Node4 -->
<g id="edge3" class="edge">
<title>Node3&#45;&gt;Node4</title>
<path fill="none" stroke="midnightblue" d="M398.88,-49.25C388.77,-39.67 376.22,-27.79 367.82,-19.83"/>
<polygon fill="midnightblue" stroke="midnightblue" points="396.68,-51.99 406.34,-56.32 401.49,-46.91 396.68,-51.99"/>
</g>
<!-- Node6&#45;&gt;Node4 -->
<g id="edge7" class="edge">
<title>Node6&#45;&gt;Node4</title>
<path fill="none" stroke="midnightblue" d="M149.49,-54.41C198.63,-44.2 272.03,-28.96 317.49,-19.52"/>
<polygon fill="midnightblue" stroke="midnightblue" points="148.78,-50.98 139.7,-56.44 150.2,-57.84 148.78,-50.98"/>
</g>
<!-- Node7 -->
<g id="node7" class="node">
<title>Node7</title>
<g id="a_node7"><a xlink:href="configuration_8cpp.html" target="_top" xlink:title=" ">
<polygon fill="none" stroke="black" points="0,-0.5 0,-19.5 197,-19.5 197,-0.5 0,-0.5"/>
<text text-anchor="middle" x="98.5" y="-7.5" font-family="Helvetica,sans-Serif" font-size="10.00">HealthGPS.Console/configuration.cpp</text>
</a>
</g>
</g>
<!-- Node6&#45;&gt;Node7 -->
<g id="edge6" class="edge">
<title>Node6&#45;&gt;Node7</title>
<path fill="none" stroke="midnightblue" d="M98.5,-45.8C98.5,-36.91 98.5,-26.78 98.5,-19.75"/>
<polygon fill="midnightblue" stroke="midnightblue" points="95,-46.08 98.5,-56.08 102,-46.08 95,-46.08"/>
</g>
<!-- Node8&#45;&gt;Node3 -->
<g id="edge9" class="edge">
<title>Node8&#45;&gt;Node3</title>
<path fill="none" stroke="midnightblue" d="M426.64,-102.4C423.8,-93.36 420.52,-82.94 418.25,-75.75"/>
<polygon fill="midnightblue" stroke="midnightblue" points="423.35,-103.6 429.69,-112.08 430.03,-101.49 423.35,-103.6"/>
</g>
<!-- Node9 -->
<g id="node9" class="node">
<title>Node9</title>
<g id="a_node9"><a xlink:href="modelrunner_8cpp.html" target="_top" xlink:title=" ">
<polygon fill="none" stroke="black" points="481,-56.5 481,-75.5 634,-75.5 634,-56.5 481,-56.5"/>
<text text-anchor="middle" x="557.5" y="-63.5" font-family="Helvetica,sans-Serif" font-size="10.00">HealthGPS/modelrunner.cpp</text>
</a>
</g>
</g>
<!-- Node8&#45;&gt;Node9 -->
<g id="edge10" class="edge">
<title>Node8&#45;&gt;Node9</title>
<path fill="none" stroke="midnightblue" d="M461.74,-108.37C485.15,-98.26 517.34,-84.35 537.79,-75.52"/>
<polygon fill="midnightblue" stroke="midnightblue" points="460.1,-105.26 452.31,-112.44 462.87,-111.69 460.1,-105.26"/>
</g>
</g>
</svg>
