<?xml version="1.0" encoding="UTF-8" standalone="no"?>
<!DOCTYPE svg PUBLIC "-//W3C//DTD SVG 1.1//EN"
 "http://www.w3.org/Graphics/SVG/1.1/DTD/svg11.dtd">
<!-- Generated by graphviz version 7.0.6 (20230106.0513)
 -->
<!-- Title: hgps::core::DiseaseEntity Pages: 1 -->
<svg width="248pt" height="159pt"
 viewBox="0.00 0.00 247.50 159.00" xmlns="http://www.w3.org/2000/svg" xmlns:xlink="http://www.w3.org/1999/xlink">
<g id="graph0" class="graph" transform="scale(1 1) rotate(0) translate(4 155)">
<title>hgps::core::DiseaseEntity</title>
<!-- Node1 -->
<g id="node1" class="node">
<title>Node1</title>
<g id="a_node1"><a xlink:title=" ">
<polygon fill="#999999" stroke="#666666" points="144.5,-19 15.5,-19 15.5,0 144.5,0 144.5,-19"/>
<text text-anchor="middle" x="80" y="-7" font-family="Helvetica,sans-Serif" font-size="10.00">hgps::core::DiseaseEntity</text>
</a>
</g>
</g>
<!-- Node2 -->
<g id="node2" class="node">
<title>Node2</title>
<g id="a_node2"><a xlink:href="structhgps_1_1core_1_1_country.html" target="_top" xlink:title=" ">
<polygon fill="white" stroke="#666666" points="102,-85 0,-85 0,-66 102,-66 102,-85"/>
<text text-anchor="middle" x="51" y="-73" font-family="Helvetica,sans-Serif" font-size="10.00">hgps::core::Country</text>
</a>
</g>
</g>
<!-- Node2&#45;&gt;Node1 -->
<g id="edge1" class="edge">
<title>Node2&#45;&gt;Node1</title>
<path fill="none" stroke="#9a32cd" stroke-dasharray="5,2" d="M59.7,-55.3C65.11,-43.35 71.82,-28.56 76,-19.32"/>
<polygon fill="#9a32cd" stroke="#9a32cd" points="56.6,-53.67 55.66,-64.22 62.97,-56.56 56.6,-53.67"/>
<text text-anchor="middle" x="86" y="-40" font-family="Helvetica,sans-Serif" font-size="10.00"> country</text>
</g>
<!-- Node3 -->
<g id="node3" class="node">
<title>Node3</title>
<g id="a_node3"><a xlink:href="structhgps_1_1core_1_1_disease_info.html" target="_top" xlink:title=" ">
<polygon fill="white" stroke="#666666" points="239.5,-85 120.5,-85 120.5,-66 239.5,-66 239.5,-85"/>
<text text-anchor="middle" x="180" y="-73" font-family="Helvetica,sans-Serif" font-size="10.00">hgps::core::DiseaseInfo</text>
</a>
</g>
</g>
<!-- Node3&#45;&gt;Node1 -->
<g id="edge2" class="edge">
<title>Node3&#45;&gt;Node1</title>
<path fill="none" stroke="#9a32cd" stroke-dasharray="5,2" d="M156.42,-59.41C136.93,-46.94 109.93,-29.65 93.79,-19.32"/>
<polygon fill="#9a32cd" stroke="#9a32cd" points="154.51,-62.34 164.82,-64.79 158.28,-56.45 154.51,-62.34"/>
<text text-anchor="middle" x="144.5" y="-40" font-family="Helvetica,sans-Serif" font-size="10.00"> info</text>
</g>
<!-- Node4 -->
<g id="node4" class="node">
<title>Node4</title>
<g id="a_node4"><a xlink:href="structhgps_1_1core_1_1_identifier.html" target="_top" xlink:title=" ">
<polygon fill="white" stroke="#666666" points="232,-151 128,-151 128,-132 232,-132 232,-151"/>
<text text-anchor="middle" x="180" y="-139" font-family="Helvetica,sans-Serif" font-size="10.00">hgps::core::Identifier</text>
</a>
</g>
</g>
<!-- Node4&#45;&gt;Node3 -->
<g id="edge3" class="edge">
<title>Node4&#45;&gt;Node3</title>
<path fill="none" stroke="#9a32cd" stroke-dasharray="5,2" d="M180,-120.18C180,-108.44 180,-94.27 180,-85.32"/>
<polygon fill="#9a32cd" stroke="#9a32cd" points="176.5,-120.09 180,-130.09 183.5,-120.09 176.5,-120.09"/>
<text text-anchor="middle" x="192.5" y="-106" font-family="Helvetica,sans-Serif" font-size="10.00"> code</text>
</g>
</g>
</svg>
