<?xml version="1.0" encoding="UTF-8" standalone="no"?>
<!DOCTYPE svg PUBLIC "-//W3C//DTD SVG 1.1//EN"
 "http://www.w3.org/Graphics/SVG/1.1/DTD/svg11.dtd">
<!-- Generated by graphviz version 7.0.6 (20230106.0513)
 -->
<!-- Title: hgps::GenderValue::total Pages: 1 -->
<svg width="432pt" height="86pt"
 viewBox="0.00 0.00 432.00 86.00" xmlns="http://www.w3.org/2000/svg" xmlns:xlink="http://www.w3.org/1999/xlink">
<g id="graph0" class="graph" transform="scale(1 1) rotate(0) translate(4 82)">
<title>hgps::GenderValue::total</title>
<!-- Node1 -->
<g id="node1" class="node">
<title>Node1</title>
<g id="a_node1"><a xlink:title=" ">
<polygon fill="#999999" stroke="#666666" points="424,-54 318,-54 318,-24 424,-24 424,-54"/>
<text text-anchor="start" x="326" y="-42" font-family="Helvetica,sans-Serif" font-size="10.00">hgps::GenderValue::</text>
<text text-anchor="middle" x="371" y="-31" font-family="Helvetica,sans-Serif" font-size="10.00">total</text>
</a>
</g>
</g>
<!-- Node2 -->
<g id="node2" class="node">
<title>Node2</title>
<g id="a_node2"><a xlink:href="structhgps_1_1_model_result.html#a6bd1ad7de7e448d80924d817b3f15b91" target="_top" xlink:title=" ">
<polygon fill="white" stroke="#666666" points="282,-78 171,-78 171,-48 282,-48 282,-78"/>
<text text-anchor="start" x="179" y="-66" font-family="Helvetica,sans-Serif" font-size="10.00">hgps::ModelResult::</text>
<text text-anchor="middle" x="226.5" y="-55" font-family="Helvetica,sans-Serif" font-size="10.00">number_of_recyclable</text>
</a>
</g>
</g>
<!-- Node1&#45;&gt;Node2 -->
<g id="edge1" class="edge">
<title>Node1&#45;&gt;Node2</title>
<path fill="none" stroke="#63b8ff" d="M306.42,-49.71C298.32,-51.07 290.08,-52.46 282.14,-53.8"/>
<polygon fill="#63b8ff" stroke="#63b8ff" points="306.98,-53.16 316.25,-48.05 305.81,-46.26 306.98,-53.16"/>
</g>
<!-- Node3 -->
<g id="node3" class="node">
<title>Node3</title>
<g id="a_node3"><a xlink:href="structhgps_1_1_model_result.html#a2ec8799b43b43fcf85456e3e59085523" target="_top" xlink:title=" ">
<polygon fill="white" stroke="#666666" points="278.5,-30 174.5,-30 174.5,0 278.5,0 278.5,-30"/>
<text text-anchor="start" x="182.5" y="-18" font-family="Helvetica,sans-Serif" font-size="10.00">hgps::ModelResult::</text>
<text text-anchor="middle" x="226.5" y="-7" font-family="Helvetica,sans-Serif" font-size="10.00">to_string</text>
</a>
</g>
</g>
<!-- Node1&#45;&gt;Node3 -->
<g id="edge2" class="edge">
<title>Node1&#45;&gt;Node3</title>
<path fill="none" stroke="#63b8ff" d="M306.55,-28.31C297.26,-26.75 287.8,-25.16 278.79,-23.64"/>
<polygon fill="#63b8ff" stroke="#63b8ff" points="305.81,-31.74 316.25,-29.95 306.98,-24.84 305.81,-31.74"/>
</g>
<!-- Node4 -->
<g id="node4" class="node">
<title>Node4</title>
<g id="a_node4"><a xlink:href="structhgps_1_1_result_event_message.html#a9777d45b943b6c40a48583b609456936" target="_top" xlink:title=" ">
<polygon fill="white" stroke="#666666" points="135,-30 0,-30 0,0 135,0 135,-30"/>
<text text-anchor="start" x="8" y="-18" font-family="Helvetica,sans-Serif" font-size="10.00">hgps::ResultEventMessage</text>
<text text-anchor="middle" x="67.5" y="-7" font-family="Helvetica,sans-Serif" font-size="10.00">::to_string</text>
</a>
</g>
</g>
<!-- Node3&#45;&gt;Node4 -->
<g id="edge3" class="edge">
<title>Node3&#45;&gt;Node4</title>
<path fill="none" stroke="#63b8ff" d="M162.87,-15C153.86,-15 144.55,-15 135.46,-15"/>
<polygon fill="#63b8ff" stroke="#63b8ff" points="162.58,-18.5 172.58,-15 162.58,-11.5 162.58,-18.5"/>
</g>
</g>
</svg>
