<?xml version="1.0" encoding="UTF-8" standalone="no"?>
<!DOCTYPE svg PUBLIC "-//W3C//DTD SVG 1.1//EN"
 "http://www.w3.org/Graphics/SVG/1.1/DTD/svg11.dtd">
<!-- Generated by graphviz version 7.0.6 (20230106.0513)
 -->
<!-- Title: hgps::ModelResult Pages: 1 -->
<svg width="487pt" height="104pt"
 viewBox="0.00 0.00 487.00 104.00" xmlns="http://www.w3.org/2000/svg" xmlns:xlink="http://www.w3.org/1999/xlink">
<g id="graph0" class="graph" transform="scale(1 1) rotate(0) translate(4 100)">
<title>hgps::ModelResult</title>
<!-- Node1 -->
<g id="node1" class="node">
<title>Node1</title>
<g id="a_node1"><a xlink:title=" ">
<polygon fill="#999999" stroke="#666666" points="296,-19 198,-19 198,0 296,0 296,-19"/>
<text text-anchor="middle" x="247" y="-7" font-family="Helvetica,sans-Serif" font-size="10.00">hgps::ModelResult</text>
</a>
</g>
</g>
<!-- Node2 -->
<g id="node2" class="node">
<title>Node2</title>
<g id="a_node2"><a xlink:href="structhgps_1_1_gender_value.html" target="_top" xlink:title=" ">
<polygon fill="white" stroke="#666666" points="106,-96 0,-96 0,-66 106,-66 106,-96"/>
<text text-anchor="start" x="8" y="-84" font-family="Helvetica,sans-Serif" font-size="10.00">hgps::GenderValue&lt;</text>
<text text-anchor="middle" x="53" y="-73" font-family="Helvetica,sans-Serif" font-size="10.00"> int &gt;</text>
</a>
</g>
</g>
<!-- Node2&#45;&gt;Node1 -->
<g id="edge1" class="edge">
<title>Node2&#45;&gt;Node1</title>
<path fill="none" stroke="#9a32cd" stroke-dasharray="5,2" d="M91.71,-60.75C108.72,-52.74 129.08,-43.76 148,-37 167.27,-30.11 189.2,-24.07 207.52,-19.49"/>
<polygon fill="#9a32cd" stroke="#9a32cd" points="90.48,-57.45 82.96,-64.92 93.5,-63.77 90.48,-57.45"/>
<text text-anchor="middle" x="178" y="-40" font-family="Helvetica,sans-Serif" font-size="10.00"> number_alive</text>
</g>
<!-- Node3 -->
<g id="node3" class="node">
<title>Node3</title>
<g id="a_node3"><a xlink:href="structhgps_1_1_result_by_gender.html" target="_top" xlink:title=" ">
<polygon fill="white" stroke="#666666" points="239.5,-90.5 124.5,-90.5 124.5,-71.5 239.5,-71.5 239.5,-90.5"/>
<text text-anchor="middle" x="182" y="-78.5" font-family="Helvetica,sans-Serif" font-size="10.00">hgps::ResultByGender</text>
</a>
</g>
</g>
<!-- Node3&#45;&gt;Node1 -->
<g id="edge2" class="edge">
<title>Node3&#45;&gt;Node1</title>
<path fill="none" stroke="#9a32cd" stroke-dasharray="5,2" d="M197.87,-63.03C210.74,-49.27 228.36,-30.43 238.63,-19.45"/>
<polygon fill="#9a32cd" stroke="#9a32cd" points="195.54,-60.4 191.27,-70.09 200.65,-65.18 195.54,-60.4"/>
<text text-anchor="middle" x="249" y="-40" font-family="Helvetica,sans-Serif" font-size="10.00"> average_age</text>
</g>
<!-- Node4 -->
<g id="node4" class="node">
<title>Node4</title>
<g id="a_node4"><a xlink:href="structhgps_1_1_d_a_l_ys_indicator.html" target="_top" xlink:title=" ">
<polygon fill="white" stroke="#666666" points="368.5,-90.5 257.5,-90.5 257.5,-71.5 368.5,-71.5 368.5,-90.5"/>
<text text-anchor="middle" x="313" y="-78.5" font-family="Helvetica,sans-Serif" font-size="10.00">hgps::DALYsIndicator</text>
</a>
</g>
</g>
<!-- Node4&#45;&gt;Node1 -->
<g id="edge3" class="edge">
<title>Node4&#45;&gt;Node1</title>
<path fill="none" stroke="#9a32cd" stroke-dasharray="5,2" d="M301.54,-61.63C296.11,-53.63 289.24,-44.42 282,-37 275.61,-30.46 267.52,-24.23 260.73,-19.45"/>
<polygon fill="#9a32cd" stroke="#9a32cd" points="298.54,-63.43 306.92,-69.91 304.41,-59.62 298.54,-63.43"/>
<text text-anchor="middle" x="314" y="-40" font-family="Helvetica,sans-Serif" font-size="10.00"> indicators</text>
</g>
<!-- Node5 -->
<g id="node5" class="node">
<title>Node5</title>
<g id="a_node5"><a xlink:href="classhgps_1_1_data_series.html" target="_top" xlink:title=" ">
<polygon fill="white" stroke="#666666" points="479,-90.5 387,-90.5 387,-71.5 479,-71.5 479,-90.5"/>
<text text-anchor="middle" x="433" y="-78.5" font-family="Helvetica,sans-Serif" font-size="10.00">hgps::DataSeries</text>
</a>
</g>
</g>
<!-- Node5&#45;&gt;Node1 -->
<g id="edge4" class="edge">
<title>Node5&#45;&gt;Node1</title>
<path fill="none" stroke="#9a32cd" stroke-dasharray="5,2" d="M405.97,-65.95C387.9,-56.91 363.41,-45.33 341,-37 322.56,-30.14 301.54,-24.06 284.05,-19.46"/>
<polygon fill="#9a32cd" stroke="#9a32cd" points="404.21,-68.98 414.71,-70.38 407.38,-62.73 404.21,-68.98"/>
<text text-anchor="middle" x="381" y="-40" font-family="Helvetica,sans-Serif" font-size="10.00"> series</text>
</g>
</g>
</svg>
