<?xml version="1.0" encoding="UTF-8" standalone="no"?>
<!DOCTYPE svg PUBLIC "-//W3C//DTD SVG 1.1//EN"
 "http://www.w3.org/Graphics/SVG/1.1/DTD/svg11.dtd">
<!-- Generated by graphviz version 2.43.0 (0)
 -->
<!-- Title: hgps::Person::is_active Pages: 1 -->
<svg width="301pt" height="66pt"
 viewBox="0.00 0.00 301.00 66.00" xmlns="http://www.w3.org/2000/svg" xmlns:xlink="http://www.w3.org/1999/xlink">
<g id="graph0" class="graph" transform="scale(1 1) rotate(0) translate(4 62)">
<title>hgps::Person::is_active</title>
<!-- Node1 -->
<g id="node1" class="node">
<title>Node1</title>
<g id="a_node1"><a xlink:title="Gets a value indicating whether a Person is current active in the population.">
<polygon fill="#bfbfbf" stroke="black" points="165,-19.5 165,-38.5 293,-38.5 293,-19.5 165,-19.5"/>
<text text-anchor="middle" x="229" y="-26.5" font-family="Helvetica,sans-Serif" font-size="10.00">hgps::Person::is_active</text>
</a>
</g>
</g>
<!-- Node2 -->
<g id="node2" class="node">
<title>Node2</title>
<g id="a_node2"><a xlink:href="structhgps_1_1Person.html#aedb677d26660b3bb0da666a07af557cf" target="_top" xlink:title="Mark this instance as dead.">
<polygon fill="none" stroke="black" points="14.5,-38.5 14.5,-57.5 114.5,-57.5 114.5,-38.5 14.5,-38.5"/>
<text text-anchor="middle" x="64.5" y="-45.5" font-family="Helvetica,sans-Serif" font-size="10.00">hgps::Person::die</text>
</a>
</g>
</g>
<!-- Node1&#45;&gt;Node2 -->
<g id="edge1" class="edge">
<title>Node1&#45;&gt;Node2</title>
<path fill="none" stroke="midnightblue" d="M154.45,-37.6C140.92,-39.18 127.11,-40.8 114.53,-42.27"/>
<polygon fill="midnightblue" stroke="midnightblue" points="155.18,-41.04 164.71,-36.4 154.37,-34.09 155.18,-41.04"/>
</g>
<!-- Node3 -->
<g id="node3" class="node">
<title>Node3</title>
<g id="a_node3"><a xlink:href="structhgps_1_1Person.html#a7140acdf752f1aae776a573dca87947a" target="_top" xlink:title="Emigrate this instance from the virtual population.">
<polygon fill="none" stroke="black" points="0,-0.5 0,-19.5 129,-19.5 129,-0.5 0,-0.5"/>
<text text-anchor="middle" x="64.5" y="-7.5" font-family="Helvetica,sans-Serif" font-size="10.00">hgps::Person::emigrate</text>
</a>
</g>
</g>
<!-- Node1&#45;&gt;Node3 -->
<g id="edge2" class="edge">
<title>Node1&#45;&gt;Node3</title>
<path fill="none" stroke="midnightblue" d="M154.76,-20.44C146.21,-19.44 137.55,-18.42 129.15,-17.44"/>
<polygon fill="midnightblue" stroke="midnightblue" points="154.37,-23.91 164.71,-21.6 155.18,-16.96 154.37,-23.91"/>
</g>
</g>
</svg>
