<?xml version="1.0" encoding="UTF-8" standalone="no"?>
<!DOCTYPE svg PUBLIC "-//W3C//DTD SVG 1.1//EN"
 "http://www.w3.org/Graphics/SVG/1.1/DTD/svg11.dtd">
<!-- Generated by graphviz version 7.0.6 (20230106.0513)
 -->
<!-- Title: hgps::ResultEventMessage::to_string Pages: 1 -->
<svg width="425pt" height="38pt"
 viewBox="0.00 0.00 425.00 38.00" xmlns="http://www.w3.org/2000/svg" xmlns:xlink="http://www.w3.org/1999/xlink">
<g id="graph0" class="graph" transform="scale(1 1) rotate(0) translate(4 34)">
<title>hgps::ResultEventMessage::to_string</title>
<!-- Node1 -->
<g id="node1" class="node">
<title>Node1</title>
<g id="a_node1"><a xlink:title=" ">
<polygon fill="#999999" stroke="#666666" points="135,-30 0,-30 0,0 135,0 135,-30"/>
<text text-anchor="start" x="8" y="-18" font-family="Helvetica,sans-Serif" font-size="10.00">hgps::ResultEventMessage</text>
<text text-anchor="middle" x="67.5" y="-7" font-family="Helvetica,sans-Serif" font-size="10.00">::to_string</text>
</a>
</g>
</g>
<!-- Node2 -->
<g id="node2" class="node">
<title>Node2</title>
<g id="a_node2"><a xlink:href="structhgps_1_1_model_result.html#a2ec8799b43b43fcf85456e3e59085523" target="_top" xlink:title=" ">
<polygon fill="white" stroke="#666666" points="275,-30 171,-30 171,0 275,0 275,-30"/>
<text text-anchor="start" x="179" y="-18" font-family="Helvetica,sans-Serif" font-size="10.00">hgps::ModelResult::</text>
<text text-anchor="middle" x="223" y="-7" font-family="Helvetica,sans-Serif" font-size="10.00">to_string</text>
</a>
</g>
</g>
<!-- Node1&#45;&gt;Node2 -->
<g id="edge1" class="edge">
<title>Node1&#45;&gt;Node2</title>
<path fill="none" stroke="#63b8ff" d="M135.38,-15C143.31,-15 151.37,-15 159.24,-15"/>
<polygon fill="#63b8ff" stroke="#63b8ff" points="159.06,-18.5 169.06,-15 159.06,-11.5 159.06,-18.5"/>
</g>
<!-- Node3 -->
<g id="node3" class="node">
<title>Node3</title>
<g id="a_node3"><a xlink:href="structhgps_1_1_gender_value.html#aa66ed72b88ed172d41392452725f06e6" target="_top" xlink:title=" ">
<polygon fill="white" stroke="#666666" points="417,-30 311,-30 311,0 417,0 417,-30"/>
<text text-anchor="start" x="319" y="-18" font-family="Helvetica,sans-Serif" font-size="10.00">hgps::GenderValue::</text>
<text text-anchor="middle" x="364" y="-7" font-family="Helvetica,sans-Serif" font-size="10.00">total</text>
</a>
</g>
</g>
<!-- Node2&#45;&gt;Node3 -->
<g id="edge2" class="edge">
<title>Node2&#45;&gt;Node3</title>
<path fill="none" stroke="#63b8ff" d="M275.36,-15C283.25,-15 291.47,-15 299.58,-15"/>
<polygon fill="#63b8ff" stroke="#63b8ff" points="299.41,-18.5 309.41,-15 299.41,-11.5 299.41,-18.5"/>
</g>
</g>
</svg>
