<?xml version="1.0" encoding="UTF-8" standalone="no"?>
<!DOCTYPE svg PUBLIC "-//W3C//DTD SVG 1.1//EN"
 "http://www.w3.org/Graphics/SVG/1.1/DTD/svg11.dtd">
<!-- Generated by graphviz version 7.0.6 (20230106.0513)
 -->
<!-- Title: hgps::detail::RelativeRiskInfo Pages: 1 -->
<svg width="365pt" height="159pt"
 viewBox="0.00 0.00 365.00 159.00" xmlns="http://www.w3.org/2000/svg" xmlns:xlink="http://www.w3.org/1999/xlink">
<g id="graph0" class="graph" transform="scale(1 1) rotate(0) translate(4 155)">
<title>hgps::detail::RelativeRiskInfo</title>
<!-- Node1 -->
<g id="node1" class="node">
<title>Node1</title>
<g id="a_node1"><a xlink:title=" ">
<polygon fill="#999999" stroke="#666666" points="263,-19 122,-19 122,0 263,0 263,-19"/>
<text text-anchor="middle" x="192.5" y="-7" font-family="Helvetica,sans-Serif" font-size="10.00">hgps::detail::RelativeRiskInfo</text>
</a>
</g>
</g>
<!-- Node2 -->
<g id="node2" class="node">
<title>Node2</title>
<g id="a_node2"><a xlink:href="structhgps_1_1core_1_1_disease_info.html" target="_top" xlink:title=" ">
<polygon fill="white" stroke="#666666" points="119,-85 0,-85 0,-66 119,-66 119,-85"/>
<text text-anchor="middle" x="59.5" y="-73" font-family="Helvetica,sans-Serif" font-size="10.00">hgps::core::DiseaseInfo</text>
</a>
</g>
</g>
<!-- Node2&#45;&gt;Node1 -->
<g id="edge1" class="edge">
<title>Node2&#45;&gt;Node1</title>
<path fill="none" stroke="#9a32cd" stroke-dasharray="5,2" d="M88.03,-60.77C114.11,-48.22 151.9,-30.04 174.16,-19.32"/>
<polygon fill="#9a32cd" stroke="#9a32cd" points="86.85,-57.45 79.36,-64.94 89.89,-63.76 86.85,-57.45"/>
<text text-anchor="middle" x="153" y="-40" font-family="Helvetica,sans-Serif" font-size="10.00"> disease</text>
</g>
<!-- Node3 -->
<g id="node3" class="node">
<title>Node3</title>
<g id="a_node3"><a xlink:href="structhgps_1_1core_1_1_identifier.html" target="_top" xlink:title=" ">
<polygon fill="white" stroke="#666666" points="111.5,-151 7.5,-151 7.5,-132 111.5,-132 111.5,-151"/>
<text text-anchor="middle" x="59.5" y="-139" font-family="Helvetica,sans-Serif" font-size="10.00">hgps::core::Identifier</text>
</a>
</g>
</g>
<!-- Node3&#45;&gt;Node2 -->
<g id="edge2" class="edge">
<title>Node3&#45;&gt;Node2</title>
<path fill="none" stroke="#9a32cd" stroke-dasharray="5,2" d="M59.5,-120.18C59.5,-108.44 59.5,-94.27 59.5,-85.32"/>
<polygon fill="#9a32cd" stroke="#9a32cd" points="56,-120.09 59.5,-130.09 63,-120.09 56,-120.09"/>
<text text-anchor="middle" x="72" y="-106" font-family="Helvetica,sans-Serif" font-size="10.00"> code</text>
</g>
<!-- Node4 -->
<g id="node4" class="node">
<title>Node4</title>
<g id="a_node4"><a xlink:href="classhgps_1_1core_1_1_datastore.html" target="_top" xlink:title=" ">
<polygon fill="white" stroke="#666666" points="247.5,-85 137.5,-85 137.5,-66 247.5,-66 247.5,-85"/>
<text text-anchor="middle" x="192.5" y="-73" font-family="Helvetica,sans-Serif" font-size="10.00">hgps::core::Datastore</text>
</a>
</g>
</g>
<!-- Node4&#45;&gt;Node1 -->
<g id="edge3" class="edge">
<title>Node4&#45;&gt;Node1</title>
<path fill="none" stroke="#9a32cd" stroke-dasharray="5,2" d="M192.5,-54.18C192.5,-42.44 192.5,-28.27 192.5,-19.32"/>
<polygon fill="#9a32cd" stroke="#9a32cd" points="189,-54.09 192.5,-64.09 196,-54.09 189,-54.09"/>
<text text-anchor="middle" x="213" y="-40" font-family="Helvetica,sans-Serif" font-size="10.00"> manager</text>
</g>
<!-- Node5 -->
<g id="node5" class="node">
<title>Node5</title>
<g id="a_node5"><a xlink:href="classhgps_1_1_model_input.html" target="_top" xlink:title=" ">
<polygon fill="white" stroke="#666666" points="357,-85 266,-85 266,-66 357,-66 357,-85"/>
<text text-anchor="middle" x="311.5" y="-73" font-family="Helvetica,sans-Serif" font-size="10.00">hgps::ModelInput</text>
</a>
</g>
</g>
<!-- Node5&#45;&gt;Node1 -->
<g id="edge4" class="edge">
<title>Node5&#45;&gt;Node1</title>
<path fill="none" stroke="#9a32cd" stroke-dasharray="5,2" d="M285.03,-60.26C261.74,-47.74 228.56,-29.89 208.91,-19.32"/>
<polygon fill="#9a32cd" stroke="#9a32cd" points="283.16,-63.23 293.62,-64.88 286.47,-57.07 283.16,-63.23"/>
<text text-anchor="middle" x="273.5" y="-40" font-family="Helvetica,sans-Serif" font-size="10.00"> inputs</text>
</g>
</g>
</svg>
