<?xml version="1.0" encoding="UTF-8" standalone="no"?>
<!DOCTYPE svg PUBLIC "-//W3C//DTD SVG 1.1//EN"
 "http://www.w3.org/Graphics/SVG/1.1/DTD/svg11.dtd">
<!-- Generated by graphviz version 7.0.6 (20230106.0513)
 -->
<!-- Title: hgps::core::Identifier::to_string Pages: 1 -->
<svg width="274pt" height="157pt"
 viewBox="0.00 0.00 274.00 156.50" xmlns="http://www.w3.org/2000/svg" xmlns:xlink="http://www.w3.org/1999/xlink">
<g id="graph0" class="graph" transform="scale(1 1) rotate(0) translate(4 152.5)">
<title>hgps::core::Identifier::to_string</title>
<!-- Node1 -->
<g id="node1" class="node">
<title>Node1</title>
<g id="a_node1"><a xlink:title=" ">
<polygon fill="#999999" stroke="#666666" points="266,-94.5 162,-94.5 162,-64.5 266,-64.5 266,-94.5"/>
<text text-anchor="start" x="170" y="-82.5" font-family="Helvetica,sans-Serif" font-size="10.00">hgps::core::Identifier</text>
<text text-anchor="middle" x="214" y="-71.5" font-family="Helvetica,sans-Serif" font-size="10.00">::to_string</text>
</a>
</g>
</g>
<!-- Node2 -->
<g id="node2" class="node">
<title>Node2</title>
<g id="a_node2"><a xlink:href="classhgps_1_1data_1_1_data_manager.html#a5b35385195f7d17aae7544debdd7006c" target="_top" xlink:title=" ">
<polygon fill="white" stroke="#666666" points="126,-148.5 0,-148.5 0,-118.5 126,-118.5 126,-148.5"/>
<text text-anchor="start" x="8" y="-136.5" font-family="Helvetica,sans-Serif" font-size="10.00">hgps::data::DataManager</text>
<text text-anchor="middle" x="63" y="-125.5" font-family="Helvetica,sans-Serif" font-size="10.00">::get_disease_info</text>
</a>
</g>
</g>
<!-- Node1&#45;&gt;Node2 -->
<g id="edge1" class="edge">
<title>Node1&#45;&gt;Node2</title>
<path fill="none" stroke="#63b8ff" d="M159.72,-98.81C142.32,-105.12 123.23,-112.04 106.7,-118.02"/>
<polygon fill="#63b8ff" stroke="#63b8ff" points="160.67,-102.19 168.88,-95.49 158.29,-95.61 160.67,-102.19"/>
</g>
<!-- Node3 -->
<g id="node3" class="node">
<title>Node3</title>
<g id="a_node3"><a xlink:href="classhgps_1_1data_1_1_data_manager.html#ad4f4d08756941ec69da16fc70bf01f8b" target="_top" xlink:title=" ">
<polygon fill="white" stroke="#666666" points="126,-100 0,-100 0,-59 126,-59 126,-100"/>
<text text-anchor="start" x="8" y="-88" font-family="Helvetica,sans-Serif" font-size="10.00">hgps::data::DataManager</text>
<text text-anchor="start" x="8" y="-77" font-family="Helvetica,sans-Serif" font-size="10.00">::get_relative_risk_to</text>
<text text-anchor="middle" x="63" y="-66" font-family="Helvetica,sans-Serif" font-size="10.00">_disease</text>
</a>
</g>
</g>
<!-- Node1&#45;&gt;Node3 -->
<g id="edge2" class="edge">
<title>Node1&#45;&gt;Node3</title>
<path fill="none" stroke="#63b8ff" d="M150.32,-79.5C142.42,-79.5 134.34,-79.5 126.44,-79.5"/>
<polygon fill="#63b8ff" stroke="#63b8ff" points="150.21,-83 160.21,-79.5 150.21,-76 150.21,-83"/>
</g>
<!-- Node4 -->
<g id="node4" class="node">
<title>Node4</title>
<g id="a_node4"><a xlink:href="classhgps_1_1data_1_1_data_manager.html#a2426abc02aae4f318bcdf4572e3777af" target="_top" xlink:title=" ">
<polygon fill="white" stroke="#666666" points="126,-41 0,-41 0,0 126,0 126,-41"/>
<text text-anchor="start" x="8" y="-29" font-family="Helvetica,sans-Serif" font-size="10.00">hgps::data::DataManager</text>
<text text-anchor="start" x="8" y="-18" font-family="Helvetica,sans-Serif" font-size="10.00">::get_relative_risk_to</text>
<text text-anchor="middle" x="63" y="-7" font-family="Helvetica,sans-Serif" font-size="10.00">_risk_factor</text>
</a>
</g>
</g>
<!-- Node1&#45;&gt;Node4 -->
<g id="edge3" class="edge">
<title>Node1&#45;&gt;Node4</title>
<path fill="none" stroke="#63b8ff" d="M163.63,-59.95C148.63,-54.01 132.09,-47.46 116.87,-41.43"/>
<polygon fill="#63b8ff" stroke="#63b8ff" points="162.25,-63.17 172.83,-63.6 164.82,-56.66 162.25,-63.17"/>
</g>
</g>
</svg>
