<?xml version="1.0" encoding="UTF-8" standalone="no"?>
<!DOCTYPE svg PUBLIC "-//W3C//DTD SVG 1.1//EN"
 "http://www.w3.org/Graphics/SVG/1.1/DTD/svg11.dtd">
<!-- Generated by graphviz version 7.0.6 (20230106.0513)
 -->
<!-- Title: hgps::MarketingDynamicDefinition Pages: 1 -->
<svg width="236pt" height="93pt"
 viewBox="0.00 0.00 236.00 93.00" xmlns="http://www.w3.org/2000/svg" xmlns:xlink="http://www.w3.org/1999/xlink">
<g id="graph0" class="graph" transform="scale(1 1) rotate(0) translate(4 89)">
<title>hgps::MarketingDynamicDefinition</title>
<!-- Node1 -->
<g id="node1" class="node">
<title>Node1</title>
<g id="a_node1"><a xlink:title=" ">
<polygon fill="#999999" stroke="#666666" points="193.5,-19 29.5,-19 29.5,0 193.5,0 193.5,-19"/>
<text text-anchor="middle" x="111.5" y="-7" font-family="Helvetica,sans-Serif" font-size="10.00">hgps::MarketingDynamicDefinition</text>
</a>
</g>
</g>
<!-- Node2 -->
<g id="node2" class="node">
<title>Node2</title>
<g id="a_node2"><a xlink:href="structhgps_1_1_policy_interval.html" target="_top" xlink:title="Defines the policy active interval.">
<polygon fill="white" stroke="#666666" points="101,-85 0,-85 0,-66 101,-66 101,-85"/>
<text text-anchor="middle" x="50.5" y="-73" font-family="Helvetica,sans-Serif" font-size="10.00">hgps::PolicyInterval</text>
</a>
</g>
</g>
<!-- Node2&#45;&gt;Node1 -->
<g id="edge1" class="edge">
<title>Node2&#45;&gt;Node1</title>
<path fill="none" stroke="#9a32cd" stroke-dasharray="5,2" d="M66.72,-57.48C78.42,-45.2 93.74,-29.13 103.09,-19.32"/>
<polygon fill="#9a32cd" stroke="#9a32cd" points="64.39,-54.85 60.03,-64.51 69.46,-59.68 64.39,-54.85"/>
<text text-anchor="middle" x="115.5" y="-40" font-family="Helvetica,sans-Serif" font-size="10.00"> active_period</text>
</g>
<!-- Node3 -->
<g id="node3" class="node">
<title>Node3</title>
<g id="a_node3"><a xlink:href="structhgps_1_1_policy_dynamic.html" target="_top" xlink:title="Defines the policy dynamic parameters.">
<polygon fill="white" stroke="#666666" points="228,-85 119,-85 119,-66 228,-66 228,-85"/>
<text text-anchor="middle" x="173.5" y="-73" font-family="Helvetica,sans-Serif" font-size="10.00">hgps::PolicyDynamic</text>
</a>
</g>
</g>
<!-- Node3&#45;&gt;Node1 -->
<g id="edge2" class="edge">
<title>Node3&#45;&gt;Node1</title>
<path fill="none" stroke="#9a32cd" stroke-dasharray="5,2" d="M163.58,-55.89C159.68,-49.51 154.85,-42.57 149.5,-37 142.92,-30.16 134.34,-23.99 126.99,-19.33"/>
<polygon fill="#9a32cd" stroke="#9a32cd" points="160.47,-57.5 168.45,-64.47 166.56,-54.04 160.47,-57.5"/>
<text text-anchor="middle" x="177.5" y="-40" font-family="Helvetica,sans-Serif" font-size="10.00"> dynamic</text>
</g>
</g>
</svg>
