<?xml version="1.0" encoding="UTF-8" standalone="no"?>
<!DOCTYPE svg PUBLIC "-//W3C//DTD SVG 1.1//EN"
 "http://www.w3.org/Graphics/SVG/1.1/DTD/svg11.dtd">
<!-- Generated by graphviz version 2.43.0 (0)
 -->
<!-- Title: hgps::FoodLabellingDefinition Pages: 1 -->
<svg width="657pt" height="147pt"
 viewBox="0.00 0.00 657.00 147.00" xmlns="http://www.w3.org/2000/svg" xmlns:xlink="http://www.w3.org/1999/xlink">
<g id="graph0" class="graph" transform="scale(1 1) rotate(0) translate(4 143)">
<title>hgps::FoodLabellingDefinition</title>
<!-- Node1 -->
<g id="node1" class="node">
<title>Node1</title>
<g id="a_node1"><a xlink:title="Food labelling intervention definition data type.">
<polygon fill="#bfbfbf" stroke="black" points="488,-64.5 488,-83.5 649,-83.5 649,-64.5 488,-64.5"/>
<text text-anchor="middle" x="568.5" y="-71.5" font-family="Helvetica,sans-Serif" font-size="10.00">hgps::FoodLabellingDefinition</text>
</a>
</g>
</g>
<!-- Node2 -->
<g id="node2" class="node">
<title>Node2</title>
<g id="a_node2"><a xlink:href="structhgps_1_1PolicyCoverage.html" target="_top" xlink:title="Define the policy population coverage data type.">
<polygon fill="none" stroke="black" points="206.5,-119.5 206.5,-138.5 328.5,-138.5 328.5,-119.5 206.5,-119.5"/>
<text text-anchor="middle" x="267.5" y="-126.5" font-family="Helvetica,sans-Serif" font-size="10.00">hgps::PolicyCoverage</text>
</a>
</g>
</g>
<!-- Node2&#45;&gt;Node1 -->
<g id="edge1" class="edge">
<title>Node2&#45;&gt;Node1</title>
<path fill="none" stroke="#9a32cd" stroke-dasharray="5,2" d="M338.94,-120.93C377.78,-115.96 426.77,-108.84 470,-100 492.14,-95.47 516.72,-88.9 535.67,-83.5"/>
<polygon fill="#9a32cd" stroke="#9a32cd" points="338.26,-117.48 328.78,-122.21 339.13,-124.43 338.26,-117.48"/>
<text text-anchor="middle" x="412" y="-121" font-family="Helvetica,sans-Serif" font-size="10.00"> coverage</text>
</g>
<!-- Node3 -->
<g id="node3" class="node">
<title>Node3</title>
<g id="a_node3"><a xlink:href="structhgps_1_1PolicyInterval.html" target="_top" xlink:title="Defines the policy active interval.">
<polygon fill="none" stroke="black" points="211,-81.5 211,-100.5 324,-100.5 324,-81.5 211,-81.5"/>
<text text-anchor="middle" x="267.5" y="-88.5" font-family="Helvetica,sans-Serif" font-size="10.00">hgps::PolicyInterval</text>
</a>
</g>
</g>
<!-- Node3&#45;&gt;Node1 -->
<g id="edge2" class="edge">
<title>Node3&#45;&gt;Node1</title>
<path fill="none" stroke="#9a32cd" stroke-dasharray="5,2" d="M334.03,-87.27C379.27,-84.7 439.69,-81.27 487.73,-78.54"/>
<polygon fill="#9a32cd" stroke="#9a32cd" points="333.82,-83.78 324.04,-87.84 334.22,-90.77 333.82,-83.78"/>
<text text-anchor="middle" x="412" y="-88" font-family="Helvetica,sans-Serif" font-size="10.00"> active_period</text>
</g>
<!-- Node4 -->
<g id="node4" class="node">
<title>Node4</title>
<g id="a_node4"><a xlink:href="structhgps_1_1TransferCoefficient.html" target="_top" xlink:title="Define the transfer coefficient data type.">
<polygon fill="none" stroke="black" points="199,-43.5 199,-62.5 336,-62.5 336,-43.5 199,-43.5"/>
<text text-anchor="middle" x="267.5" y="-50.5" font-family="Helvetica,sans-Serif" font-size="10.00">hgps::TransferCoefficient</text>
</a>
</g>
</g>
<!-- Node4&#45;&gt;Node1 -->
<g id="edge3" class="edge">
<title>Node4&#45;&gt;Node1</title>
<path fill="none" stroke="#9a32cd" stroke-dasharray="5,2" d="M346.5,-56.39C383.89,-58.24 429.29,-60.8 470,-64 475.85,-64.46 481.9,-64.98 487.98,-65.53"/>
<polygon fill="#9a32cd" stroke="#9a32cd" points="346.34,-52.88 336.18,-55.89 346,-59.87 346.34,-52.88"/>
<text text-anchor="middle" x="412" y="-67" font-family="Helvetica,sans-Serif" font-size="10.00"> transfer_coefficient</text>
</g>
<!-- Node5 -->
<g id="node5" class="node">
<title>Node5</title>
<g id="a_node5"><a xlink:href="structhgps_1_1GenderValue.html" target="_top" xlink:title=" ">
<polygon fill="none" stroke="black" points="0,-39 0,-69 116,-69 116,-39 0,-39"/>
<text text-anchor="start" x="8" y="-57" font-family="Helvetica,sans-Serif" font-size="10.00">hgps::GenderValue&lt;</text>
<text text-anchor="middle" x="58" y="-46" font-family="Helvetica,sans-Serif" font-size="10.00"> double &gt;</text>
</a>
</g>
</g>
<!-- Node5&#45;&gt;Node4 -->
<g id="edge4" class="edge">
<title>Node5&#45;&gt;Node4</title>
<path fill="none" stroke="#9a32cd" stroke-dasharray="5,2" d="M126.35,-53.68C149.55,-53.56 175.53,-53.44 198.77,-53.33"/>
<polygon fill="#9a32cd" stroke="#9a32cd" points="126.23,-50.18 116.25,-53.72 126.27,-57.18 126.23,-50.18"/>
<text text-anchor="middle" x="157.5" y="-67" font-family="Helvetica,sans-Serif" font-size="10.00"> adult</text>
<text text-anchor="middle" x="157.5" y="-56" font-family="Helvetica,sans-Serif" font-size="10.00">child</text>
</g>
<!-- Node6 -->
<g id="node6" class="node">
<title>Node6</title>
<g id="a_node6"><a xlink:href="structhgps_1_1AdjustmentFactor.html" target="_top" xlink:title="Defined the risk factor adjustment data type.">
<polygon fill="none" stroke="black" points="202,-2.5 202,-21.5 333,-21.5 333,-2.5 202,-2.5"/>
<text text-anchor="middle" x="267.5" y="-9.5" font-family="Helvetica,sans-Serif" font-size="10.00">hgps::AdjustmentFactor</text>
</a>
</g>
</g>
<!-- Node6&#45;&gt;Node1 -->
<g id="edge5" class="edge">
<title>Node6&#45;&gt;Node1</title>
<path fill="none" stroke="#9a32cd" stroke-dasharray="5,2" d="M343.08,-19.43C381.34,-24.07 428.51,-31.08 470,-41 495.55,-47.11 523.91,-57.08 543.42,-64.47"/>
<polygon fill="#9a32cd" stroke="#9a32cd" points="343.39,-15.94 333.05,-18.24 342.56,-22.89 343.39,-15.94"/>
<text text-anchor="middle" x="412" y="-44" font-family="Helvetica,sans-Serif" font-size="10.00"> adjustment_risk_factor</text>
</g>
<!-- Node7 -->
<g id="node7" class="node">
<title>Node7</title>
<g id="a_node7"><a xlink:href="structhgps_1_1core_1_1Identifier.html" target="_top" xlink:title="Entity unique identifier data type.">
<polygon fill="none" stroke="black" points="0,-0.5 0,-19.5 116,-19.5 116,-0.5 0,-0.5"/>
<text text-anchor="middle" x="58" y="-7.5" font-family="Helvetica,sans-Serif" font-size="10.00">hgps::core::Identifier</text>
</a>
</g>
</g>
<!-- Node7&#45;&gt;Node6 -->
<g id="edge6" class="edge">
<title>Node7&#45;&gt;Node6</title>
<path fill="none" stroke="#9a32cd" stroke-dasharray="5,2" d="M126.41,-10.65C150.6,-10.88 177.8,-11.15 201.76,-11.38"/>
<polygon fill="#9a32cd" stroke="#9a32cd" points="126.28,-7.15 116.25,-10.55 126.22,-14.15 126.28,-7.15"/>
<text text-anchor="middle" x="157.5" y="-15" font-family="Helvetica,sans-Serif" font-size="10.00"> identifier</text>
</g>
</g>
</svg>
