<?xml version="1.0" encoding="UTF-8" standalone="no"?>
<!DOCTYPE svg PUBLIC "-//W3C//DTD SVG 1.1//EN"
 "http://www.w3.org/Graphics/SVG/1.1/DTD/svg11.dtd">
<!-- Generated by graphviz version 7.0.6 (20230106.0513)
 -->
<!-- Title: Configuration Pages: 1 -->
<svg width="497pt" height="159pt"
 viewBox="0.00 0.00 497.00 159.00" xmlns="http://www.w3.org/2000/svg" xmlns:xlink="http://www.w3.org/1999/xlink">
<g id="graph0" class="graph" transform="scale(1 1) rotate(0) translate(4 155)">
<title>Configuration</title>
<!-- Node1 -->
<g id="node1" class="node">
<title>Node1</title>
<g id="a_node1"><a xlink:title=" ">
<polygon fill="#999999" stroke="#666666" points="245,-19 172,-19 172,0 245,0 245,-19"/>
<text text-anchor="middle" x="208.5" y="-7" font-family="Helvetica,sans-Serif" font-size="10.00">Configuration</text>
</a>
</g>
</g>
<!-- Node2 -->
<g id="node2" class="node">
<title>Node2</title>
<g id="a_node2"><a xlink:href="struct_file_info.html" target="_top" xlink:title=" ">
<polygon fill="white" stroke="#666666" points="47,-85 0,-85 0,-66 47,-66 47,-85"/>
<text text-anchor="middle" x="23.5" y="-73" font-family="Helvetica,sans-Serif" font-size="10.00">FileInfo</text>
</a>
</g>
</g>
<!-- Node2&#45;&gt;Node1 -->
<g id="edge1" class="edge">
<title>Node2&#45;&gt;Node1</title>
<path fill="none" stroke="#9a32cd" stroke-dasharray="5,2" d="M53,-61.13C70.4,-53.52 92.97,-44.11 113.5,-37 132.75,-30.33 154.64,-24.14 172.54,-19.42"/>
<polygon fill="#9a32cd" stroke="#9a32cd" points="52.01,-57.74 44.28,-64.99 54.84,-64.14 52.01,-57.74"/>
<text text-anchor="middle" x="121.5" y="-40" font-family="Helvetica,sans-Serif" font-size="10.00"> file</text>
</g>
<!-- Node3 -->
<g id="node3" class="node">
<title>Node3</title>
<g id="a_node3"><a xlink:href="struct_settings_info.html" target="_top" xlink:title=" ">
<polygon fill="white" stroke="#666666" points="133.5,-85 65.5,-85 65.5,-66 133.5,-66 133.5,-85"/>
<text text-anchor="middle" x="99.5" y="-73" font-family="Helvetica,sans-Serif" font-size="10.00">SettingsInfo</text>
</a>
</g>
</g>
<!-- Node3&#45;&gt;Node1 -->
<g id="edge2" class="edge">
<title>Node3&#45;&gt;Node1</title>
<path fill="none" stroke="#9a32cd" stroke-dasharray="5,2" d="M118.17,-58.53C127.02,-51.42 137.94,-43.25 148.5,-37 159.96,-30.21 173.48,-24.09 184.78,-19.45"/>
<polygon fill="#9a32cd" stroke="#9a32cd" points="116.15,-55.67 110.67,-64.74 120.61,-61.06 116.15,-55.67"/>
<text text-anchor="middle" x="167.5" y="-40" font-family="Helvetica,sans-Serif" font-size="10.00"> settings</text>
</g>
<!-- Node4 -->
<g id="node4" class="node">
<title>Node4</title>
<g id="a_node4"><a xlink:href="struct_s_e_s_info.html" target="_top" xlink:title=" ">
<polygon fill="white" stroke="#666666" points="203.5,-85 151.5,-85 151.5,-66 203.5,-66 203.5,-85"/>
<text text-anchor="middle" x="177.5" y="-73" font-family="Helvetica,sans-Serif" font-size="10.00">SESInfo</text>
</a>
</g>
</g>
<!-- Node4&#45;&gt;Node1 -->
<g id="edge3" class="edge">
<title>Node4&#45;&gt;Node1</title>
<path fill="none" stroke="#9a32cd" stroke-dasharray="5,2" d="M186.8,-55.3C192.59,-43.35 199.75,-28.56 204.23,-19.32"/>
<polygon fill="#9a32cd" stroke="#9a32cd" points="183.68,-53.71 182.47,-64.24 189.98,-56.76 183.68,-53.71"/>
<text text-anchor="middle" x="204" y="-40" font-family="Helvetica,sans-Serif" font-size="10.00"> ses</text>
</g>
<!-- Node5 -->
<g id="node5" class="node">
<title>Node5</title>
<g id="a_node5"><a xlink:href="struct_modelling_info.html" target="_top" xlink:title=" ">
<polygon fill="white" stroke="#666666" points="295,-85 222,-85 222,-66 295,-66 295,-85"/>
<text text-anchor="middle" x="258.5" y="-73" font-family="Helvetica,sans-Serif" font-size="10.00">ModellingInfo</text>
</a>
</g>
</g>
<!-- Node5&#45;&gt;Node1 -->
<g id="edge4" class="edge">
<title>Node5&#45;&gt;Node1</title>
<path fill="none" stroke="#9a32cd" stroke-dasharray="5,2" d="M244.64,-56.76C235.13,-44.58 222.91,-28.94 215.39,-19.32"/>
<polygon fill="#9a32cd" stroke="#9a32cd" points="241.7,-58.68 250.62,-64.41 247.22,-54.37 241.7,-58.68"/>
<text text-anchor="middle" x="258" y="-40" font-family="Helvetica,sans-Serif" font-size="10.00"> modelling</text>
</g>
<!-- Node6 -->
<g id="node6" class="node">
<title>Node6</title>
<g id="a_node6"><a xlink:href="struct_baseline_info.html" target="_top" xlink:title=" ">
<polygon fill="white" stroke="#666666" points="286,-151 217,-151 217,-132 286,-132 286,-151"/>
<text text-anchor="middle" x="251.5" y="-139" font-family="Helvetica,sans-Serif" font-size="10.00">BaselineInfo</text>
</a>
</g>
</g>
<!-- Node6&#45;&gt;Node5 -->
<g id="edge5" class="edge">
<title>Node6&#45;&gt;Node5</title>
<path fill="none" stroke="#9a32cd" stroke-dasharray="5,2" d="M253.72,-120.18C255.01,-108.44 256.56,-94.27 257.53,-85.32"/>
<polygon fill="#9a32cd" stroke="#9a32cd" points="250.25,-119.78 252.64,-130.1 257.2,-120.54 250.25,-119.78"/>
<text text-anchor="middle" x="301" y="-106" font-family="Helvetica,sans-Serif" font-size="10.00"> baseline_adjustment</text>
</g>
<!-- Node7 -->
<g id="node7" class="node">
<title>Node7</title>
<g id="a_node7"><a xlink:href="struct_policy_scenario_info.html" target="_top" xlink:title=" ">
<polygon fill="white" stroke="#666666" points="410,-85 313,-85 313,-66 410,-66 410,-85"/>
<text text-anchor="middle" x="361.5" y="-73" font-family="Helvetica,sans-Serif" font-size="10.00">PolicyScenarioInfo</text>
</a>
</g>
</g>
<!-- Node7&#45;&gt;Node1 -->
<g id="edge6" class="edge">
<title>Node7&#45;&gt;Node1</title>
<path fill="none" stroke="#9a32cd" stroke-dasharray="5,2" d="M334.75,-60.51C320.1,-53.09 301.51,-44.08 284.5,-37 268.89,-30.5 251.06,-24.23 236.59,-19.42"/>
<polygon fill="#9a32cd" stroke="#9a32cd" points="332.79,-63.44 343.29,-64.88 335.99,-57.21 332.79,-63.44"/>
<text text-anchor="middle" x="333.5" y="-40" font-family="Helvetica,sans-Serif" font-size="10.00"> intervention</text>
</g>
<!-- Node8 -->
<g id="node8" class="node">
<title>Node8</title>
<g id="a_node8"><a xlink:href="struct_policy_period_info.html" target="_top" xlink:title=" ">
<polygon fill="white" stroke="#666666" points="410.5,-151 324.5,-151 324.5,-132 410.5,-132 410.5,-151"/>
<text text-anchor="middle" x="367.5" y="-139" font-family="Helvetica,sans-Serif" font-size="10.00">PolicyPeriodInfo</text>
</a>
</g>
</g>
<!-- Node8&#45;&gt;Node7 -->
<g id="edge7" class="edge">
<title>Node8&#45;&gt;Node7</title>
<path fill="none" stroke="#9a32cd" stroke-dasharray="5,2" d="M365.59,-120.18C364.49,-108.44 363.17,-94.27 362.33,-85.32"/>
<polygon fill="#9a32cd" stroke="#9a32cd" points="362.11,-120.46 366.52,-130.09 369.08,-119.81 362.11,-120.46"/>
<text text-anchor="middle" x="394.5" y="-106" font-family="Helvetica,sans-Serif" font-size="10.00"> active_period</text>
</g>
<!-- Node9 -->
<g id="node9" class="node">
<title>Node9</title>
<g id="a_node9"><a xlink:href="struct_output_info.html" target="_top" xlink:title=" ">
<polygon fill="white" stroke="#666666" points="489,-85 428,-85 428,-66 489,-66 489,-85"/>
<text text-anchor="middle" x="458.5" y="-73" font-family="Helvetica,sans-Serif" font-size="10.00">OutputInfo</text>
</a>
</g>
</g>
<!-- Node9&#45;&gt;Node1 -->
<g id="edge8" class="edge">
<title>Node9&#45;&gt;Node1</title>
<path fill="none" stroke="#9a32cd" stroke-dasharray="5,2" d="M428.86,-60.97C410.39,-53 385.95,-43.28 363.5,-37 323.8,-25.9 277.01,-18.67 245.3,-14.61"/>
<polygon fill="#9a32cd" stroke="#9a32cd" points="427.31,-64.11 437.87,-64.93 430.13,-57.7 427.31,-64.11"/>
<text text-anchor="middle" x="410" y="-40" font-family="Helvetica,sans-Serif" font-size="10.00"> output</text>
</g>
</g>
</svg>
