<?xml version="1.0" encoding="UTF-8" standalone="no"?>
<!DOCTYPE svg PUBLIC "-//W3C//DTD SVG 1.1//EN"
 "http://www.w3.org/Graphics/SVG/1.1/DTD/svg11.dtd">
<!-- Generated by graphviz version 7.0.6 (20230106.0513)
 -->
<!-- Title: hgps::core::Identifier::is_empty Pages: 1 -->
<svg width="392pt" height="86pt"
 viewBox="0.00 0.00 392.00 86.00" xmlns="http://www.w3.org/2000/svg" xmlns:xlink="http://www.w3.org/1999/xlink">
<g id="graph0" class="graph" transform="scale(1 1) rotate(0) translate(4 82)">
<title>hgps::core::Identifier::is_empty</title>
<!-- Node1 -->
<g id="node1" class="node">
<title>Node1</title>
<g id="a_node1"><a xlink:title=" ">
<polygon fill="#999999" stroke="#666666" points="384,-54 280,-54 280,-24 384,-24 384,-54"/>
<text text-anchor="start" x="288" y="-42" font-family="Helvetica,sans-Serif" font-size="10.00">hgps::core::Identifier</text>
<text text-anchor="middle" x="332" y="-31" font-family="Helvetica,sans-Serif" font-size="10.00">::is_empty</text>
</a>
</g>
</g>
<!-- Node2 -->
<g id="node2" class="node">
<title>Node2</title>
<g id="a_node2"><a xlink:href="classhgps_1_1_disease_table.html#ac677b1078219942a481ff98ab0d16af3" target="_top" xlink:title=" ">
<polygon fill="white" stroke="#666666" points="243,-78 141,-78 141,-48 243,-48 243,-78"/>
<text text-anchor="start" x="149" y="-66" font-family="Helvetica,sans-Serif" font-size="10.00">hgps::DiseaseTable</text>
<text text-anchor="middle" x="192" y="-55" font-family="Helvetica,sans-Serif" font-size="10.00">::DiseaseTable</text>
</a>
</g>
</g>
<!-- Node1&#45;&gt;Node2 -->
<g id="edge1" class="edge">
<title>Node1&#45;&gt;Node2</title>
<path fill="none" stroke="#63b8ff" d="M268.52,-49.87C259.99,-51.35 251.32,-52.86 243.05,-54.3"/>
<polygon fill="#63b8ff" stroke="#63b8ff" points="268.87,-53.36 278.12,-48.2 267.67,-46.46 268.87,-53.36"/>
</g>
<!-- Node3 -->
<g id="node3" class="node">
<title>Node3</title>
<g id="a_node3"><a xlink:href="classhgps_1_1_mapping_entry.html#a09cdddeb8893a92310b268ab19ba8409" target="_top" xlink:title=" ">
<polygon fill="white" stroke="#666666" points="244,-30 140,-30 140,0 244,0 244,-30"/>
<text text-anchor="start" x="148" y="-18" font-family="Helvetica,sans-Serif" font-size="10.00">hgps::MappingEntry</text>
<text text-anchor="middle" x="192" y="-7" font-family="Helvetica,sans-Serif" font-size="10.00">::is_entity</text>
</a>
</g>
</g>
<!-- Node1&#45;&gt;Node3 -->
<g id="edge2" class="edge">
<title>Node1&#45;&gt;Node3</title>
<path fill="none" stroke="#63b8ff" d="M268.4,-28.11C260.38,-26.72 252.24,-25.3 244.43,-23.94"/>
<polygon fill="#63b8ff" stroke="#63b8ff" points="267.67,-31.54 278.12,-29.8 268.87,-24.64 267.67,-31.54"/>
</g>
<!-- Node4 -->
<g id="node4" class="node">
<title>Node4</title>
<g id="a_node4"><a xlink:href="classhgps_1_1_mapping_entry.html#a88fd784ddd5bea7863654bc5d45b3f23" target="_top" xlink:title=" ">
<polygon fill="white" stroke="#666666" points="104,-30 0,-30 0,0 104,0 104,-30"/>
<text text-anchor="start" x="8" y="-18" font-family="Helvetica,sans-Serif" font-size="10.00">hgps::MappingEntry</text>
<text text-anchor="middle" x="52" y="-7" font-family="Helvetica,sans-Serif" font-size="10.00">::entity_key</text>
</a>
</g>
</g>
<!-- Node3&#45;&gt;Node4 -->
<g id="edge3" class="edge">
<title>Node3&#45;&gt;Node4</title>
<path fill="none" stroke="#63b8ff" d="M128.12,-15C120.19,-15 112.15,-15 104.43,-15"/>
<polygon fill="#63b8ff" stroke="#63b8ff" points="128.1,-18.5 138.1,-15 128.1,-11.5 128.1,-18.5"/>
</g>
</g>
</svg>
