<?xml version="1.0" encoding="UTF-8" standalone="no"?>
<!DOCTYPE svg PUBLIC "-//W3C//DTD SVG 1.1//EN"
 "http://www.w3.org/Graphics/SVG/1.1/DTD/svg11.dtd">
<!-- Generated by graphviz version 7.0.6 (20230106.0513)
 -->
<!-- Title: hgps::FoodLabellingDefinition Pages: 1 -->
<svg width="594pt" height="144pt"
 viewBox="0.00 0.00 594.00 143.50" xmlns="http://www.w3.org/2000/svg" xmlns:xlink="http://www.w3.org/1999/xlink">
<g id="graph0" class="graph" transform="scale(1 1) rotate(0) translate(4 139.5)">
<title>hgps::FoodLabellingDefinition</title>
<!-- Node1 -->
<g id="node1" class="node">
<title>Node1</title>
<g id="a_node1"><a xlink:title=" ">
<polygon fill="#999999" stroke="#666666" points="586,-79.5 443,-79.5 443,-60.5 586,-60.5 586,-79.5"/>
<text text-anchor="middle" x="514.5" y="-67.5" font-family="Helvetica,sans-Serif" font-size="10.00">hgps::FoodLabellingDefinition</text>
</a>
</g>
</g>
<!-- Node2 -->
<g id="node2" class="node">
<title>Node2</title>
<g id="a_node2"><a xlink:href="structhgps_1_1_policy_interval.html" target="_top" xlink:title="Defines the policy active interval.">
<polygon fill="white" stroke="#666666" points="294,-135.5 193,-135.5 193,-116.5 294,-116.5 294,-135.5"/>
<text text-anchor="middle" x="243.5" y="-123.5" font-family="Helvetica,sans-Serif" font-size="10.00">hgps::PolicyInterval</text>
</a>
</g>
</g>
<!-- Node2&#45;&gt;Node1 -->
<g id="edge1" class="edge">
<title>Node2&#45;&gt;Node1</title>
<path fill="none" stroke="#9a32cd" stroke-dasharray="5,2" d="M305.37,-118.91C340.58,-114.23 385.58,-107.24 425,-98 445.71,-93.15 468.59,-85.85 485.9,-79.93"/>
<polygon fill="#9a32cd" stroke="#9a32cd" points="305.27,-115.39 295.81,-120.15 306.17,-122.34 305.27,-115.39"/>
<text text-anchor="middle" x="374" y="-118" font-family="Helvetica,sans-Serif" font-size="10.00"> active_period</text>
</g>
<!-- Node3 -->
<g id="node3" class="node">
<title>Node3</title>
<g id="a_node3"><a xlink:href="structhgps_1_1_adjustment_factor.html" target="_top" xlink:title=" ">
<polygon fill="white" stroke="#666666" points="304,-98.5 183,-98.5 183,-79.5 304,-79.5 304,-98.5"/>
<text text-anchor="middle" x="243.5" y="-86.5" font-family="Helvetica,sans-Serif" font-size="10.00">hgps::AdjustmentFactor</text>
</a>
</g>
</g>
<!-- Node3&#45;&gt;Node1 -->
<g id="edge2" class="edge">
<title>Node3&#45;&gt;Node1</title>
<path fill="none" stroke="#9a32cd" stroke-dasharray="5,2" d="M315.52,-83.98C354.74,-81.21 403.3,-77.78 442.52,-75.01"/>
<polygon fill="#9a32cd" stroke="#9a32cd" points="315.44,-80.48 305.71,-84.68 315.93,-87.46 315.44,-80.48"/>
<text text-anchor="middle" x="374" y="-86" font-family="Helvetica,sans-Serif" font-size="10.00"> adjustment_risk_factor</text>
</g>
<!-- Node4 -->
<g id="node4" class="node">
<title>Node4</title>
<g id="a_node4"><a xlink:href="structhgps_1_1core_1_1_identifier.html" target="_top" xlink:title=" ">
<polygon fill="white" stroke="#666666" points="105,-98.5 1,-98.5 1,-79.5 105,-79.5 105,-98.5"/>
<text text-anchor="middle" x="53" y="-86.5" font-family="Helvetica,sans-Serif" font-size="10.00">hgps::core::Identifier</text>
</a>
</g>
</g>
<!-- Node4&#45;&gt;Node3 -->
<g id="edge3" class="edge">
<title>Node4&#45;&gt;Node3</title>
<path fill="none" stroke="#9a32cd" stroke-dasharray="5,2" d="M116.28,-89C137.67,-89 161.56,-89 182.76,-89"/>
<polygon fill="#9a32cd" stroke="#9a32cd" points="116.52,-85.5 106.52,-89 116.52,-92.5 116.52,-85.5"/>
<text text-anchor="middle" x="144" y="-92" font-family="Helvetica,sans-Serif" font-size="10.00"> identifier</text>
</g>
<!-- Node5 -->
<g id="node5" class="node">
<title>Node5</title>
<g id="a_node5"><a xlink:href="structhgps_1_1_policy_coverage.html" target="_top" xlink:title=" ">
<polygon fill="white" stroke="#666666" points="298.5,-61.5 188.5,-61.5 188.5,-42.5 298.5,-42.5 298.5,-61.5"/>
<text text-anchor="middle" x="243.5" y="-49.5" font-family="Helvetica,sans-Serif" font-size="10.00">hgps::PolicyCoverage</text>
</a>
</g>
</g>
<!-- Node5&#45;&gt;Node1 -->
<g id="edge4" class="edge">
<title>Node5&#45;&gt;Node1</title>
<path fill="none" stroke="#9a32cd" stroke-dasharray="5,2" d="M310.02,-50.71C344.33,-50.63 387.01,-51.48 425,-55 437.26,-56.13 450.38,-58 462.66,-60.03"/>
<polygon fill="#9a32cd" stroke="#9a32cd" points="310.21,-47.21 300.23,-50.76 310.25,-54.21 310.21,-47.21"/>
<text text-anchor="middle" x="374" y="-58" font-family="Helvetica,sans-Serif" font-size="10.00"> coverage</text>
</g>
<!-- Node6 -->
<g id="node6" class="node">
<title>Node6</title>
<g id="a_node6"><a xlink:href="structhgps_1_1_transfer_coefficient.html" target="_top" xlink:title=" ">
<polygon fill="white" stroke="#666666" points="305,-24.5 182,-24.5 182,-5.5 305,-5.5 305,-24.5"/>
<text text-anchor="middle" x="243.5" y="-12.5" font-family="Helvetica,sans-Serif" font-size="10.00">hgps::TransferCoefficient</text>
</a>
</g>
</g>
<!-- Node6&#45;&gt;Node1 -->
<g id="edge5" class="edge">
<title>Node6&#45;&gt;Node1</title>
<path fill="none" stroke="#9a32cd" stroke-dasharray="5,2" d="M316.43,-18.56C349.81,-21.34 389.81,-26.26 425,-35 449.05,-40.97 475.3,-51.96 492.92,-60.04"/>
<polygon fill="#9a32cd" stroke="#9a32cd" points="317.13,-15.11 306.88,-17.82 316.58,-22.09 317.13,-15.11"/>
<text text-anchor="middle" x="374" y="-38" font-family="Helvetica,sans-Serif" font-size="10.00"> transfer_coefficient</text>
</g>
<!-- Node7 -->
<g id="node7" class="node">
<title>Node7</title>
<g id="a_node7"><a xlink:href="structhgps_1_1_gender_value.html" target="_top" xlink:title=" ">
<polygon fill="white" stroke="#666666" points="106,-30 0,-30 0,0 106,0 106,-30"/>
<text text-anchor="start" x="8" y="-18" font-family="Helvetica,sans-Serif" font-size="10.00">hgps::GenderValue&lt;</text>
<text text-anchor="middle" x="53" y="-7" font-family="Helvetica,sans-Serif" font-size="10.00"> double &gt;</text>
</a>
</g>
</g>
<!-- Node7&#45;&gt;Node6 -->
<g id="edge6" class="edge">
<title>Node7&#45;&gt;Node6</title>
<path fill="none" stroke="#9a32cd" stroke-dasharray="5,2" d="M117.53,-15C138.28,-15 161.26,-15 181.8,-15"/>
<polygon fill="#9a32cd" stroke="#9a32cd" points="117.77,-11.5 107.77,-15 117.77,-18.5 117.77,-11.5"/>
<text text-anchor="middle" x="144" y="-29" font-family="Helvetica,sans-Serif" font-size="10.00"> adult</text>
<text text-anchor="middle" x="144" y="-18" font-family="Helvetica,sans-Serif" font-size="10.00">child</text>
</g>
</g>
</svg>
