<?xml version="1.0" encoding="UTF-8" standalone="no"?>
<!DOCTYPE svg PUBLIC "-//W3C//DTD SVG 1.1//EN"
 "http://www.w3.org/Graphics/SVG/1.1/DTD/svg11.dtd">
<!-- Generated by graphviz version 2.43.0 (0)
 -->
<!-- Title: hgps::GenderValue::total Pages: 1 -->
<svg width="467pt" height="88pt"
 viewBox="0.00 0.00 467.00 88.00" xmlns="http://www.w3.org/2000/svg" xmlns:xlink="http://www.w3.org/1999/xlink">
<g id="graph0" class="graph" transform="scale(1 1) rotate(0) translate(4 84)">
<title>hgps::GenderValue::total</title>
<!-- Node1 -->
<g id="node1" class="node">
<title>Node1</title>
<g id="a_node1"><a xlink:title="Gets the total value for males and females.">
<polygon fill="#bfbfbf" stroke="black" points="345,-24.5 345,-54.5 459,-54.5 459,-24.5 345,-24.5"/>
<text text-anchor="start" x="353" y="-42.5" font-family="Helvetica,sans-Serif" font-size="10.00">hgps::GenderValue::</text>
<text text-anchor="middle" x="402" y="-31.5" font-family="Helvetica,sans-Serif" font-size="10.00">total</text>
</a>
</g>
</g>
<!-- Node2 -->
<g id="node2" class="node">
<title>Node2</title>
<g id="a_node2"><a xlink:href="structhgps_1_1ModelResult.html#a6bd1ad7de7e448d80924d817b3f15b91" target="_top" xlink:title="Gets the number of recycled population slots due to deaths and emigration.">
<polygon fill="none" stroke="black" points="184,-49.5 184,-79.5 309,-79.5 309,-49.5 184,-49.5"/>
<text text-anchor="start" x="192" y="-67.5" font-family="Helvetica,sans-Serif" font-size="10.00">hgps::ModelResult::</text>
<text text-anchor="middle" x="246.5" y="-56.5" font-family="Helvetica,sans-Serif" font-size="10.00">number_of_recyclable</text>
</a>
</g>
</g>
<!-- Node1&#45;&gt;Node2 -->
<g id="edge1" class="edge">
<title>Node1&#45;&gt;Node2</title>
<path fill="none" stroke="midnightblue" d="M334.83,-50.28C326.33,-51.66 317.65,-53.08 309.21,-54.45"/>
<polygon fill="midnightblue" stroke="midnightblue" points="335.41,-53.73 344.71,-48.67 334.28,-46.82 335.41,-53.73"/>
</g>
<!-- Node3 -->
<g id="node3" class="node">
<title>Node3</title>
<g id="a_node3"><a xlink:href="structhgps_1_1ModelResult.html#a2ec8799b43b43fcf85456e3e59085523" target="_top" xlink:title="Gets a string representation of this instance.">
<polygon fill="none" stroke="black" points="190,-0.5 190,-30.5 303,-30.5 303,-0.5 190,-0.5"/>
<text text-anchor="start" x="198" y="-18.5" font-family="Helvetica,sans-Serif" font-size="10.00">hgps::ModelResult::</text>
<text text-anchor="middle" x="246.5" y="-7.5" font-family="Helvetica,sans-Serif" font-size="10.00">to_string</text>
</a>
</g>
</g>
<!-- Node1&#45;&gt;Node3 -->
<g id="edge2" class="edge">
<title>Node1&#45;&gt;Node3</title>
<path fill="none" stroke="midnightblue" d="M334.69,-29.13C324.13,-27.48 313.29,-25.79 303.01,-24.18"/>
<polygon fill="midnightblue" stroke="midnightblue" points="334.29,-32.61 344.71,-30.7 335.37,-25.7 334.29,-32.61"/>
</g>
<!-- Node4 -->
<g id="node4" class="node">
<title>Node4</title>
<g id="a_node4"><a xlink:href="structhgps_1_1ResultEventMessage.html#a9777d45b943b6c40a48583b609456936" target="_top" xlink:title="Create a string representation of this instance.">
<polygon fill="none" stroke="black" points="0,-0.5 0,-30.5 148,-30.5 148,-0.5 0,-0.5"/>
<text text-anchor="start" x="8" y="-18.5" font-family="Helvetica,sans-Serif" font-size="10.00">hgps::ResultEventMessage</text>
<text text-anchor="middle" x="74" y="-7.5" font-family="Helvetica,sans-Serif" font-size="10.00">::to_string</text>
</a>
</g>
</g>
<!-- Node3&#45;&gt;Node4 -->
<g id="edge3" class="edge">
<title>Node3&#45;&gt;Node4</title>
<path fill="none" stroke="midnightblue" d="M179.51,-15.5C169.2,-15.5 158.48,-15.5 148.02,-15.5"/>
<polygon fill="midnightblue" stroke="midnightblue" points="179.67,-19 189.67,-15.5 179.67,-12 179.67,-19"/>
</g>
</g>
</svg>
