<?xml version="1.0" encoding="UTF-8" standalone="no"?>
<!DOCTYPE svg PUBLIC "-//W3C//DTD SVG 1.1//EN"
 "http://www.w3.org/Graphics/SVG/1.1/DTD/svg11.dtd">
<!-- Generated by graphviz version 7.0.6 (20230106.0513)
 -->
<!-- Title: hgps::BaselineAdjustment::BaselineAdjustment Pages: 1 -->
<svg width="291pt" height="101pt"
 viewBox="0.00 0.00 291.00 101.00" xmlns="http://www.w3.org/2000/svg" xmlns:xlink="http://www.w3.org/1999/xlink">
<g id="graph0" class="graph" transform="scale(1 1) rotate(0) translate(4 97)">
<title>hgps::BaselineAdjustment::BaselineAdjustment</title>
<!-- Node1 -->
<g id="node1" class="node">
<title>Node1</title>
<g id="a_node1"><a xlink:title=" ">
<polygon fill="#999999" stroke="#666666" points="131,-61.5 0,-61.5 0,-31.5 131,-31.5 131,-61.5"/>
<text text-anchor="start" x="8" y="-49.5" font-family="Helvetica,sans-Serif" font-size="10.00">hgps::BaselineAdjustment</text>
<text text-anchor="middle" x="65.5" y="-38.5" font-family="Helvetica,sans-Serif" font-size="10.00">::BaselineAdjustment</text>
</a>
</g>
</g>
<!-- Node2 -->
<g id="node2" class="node">
<title>Node2</title>
<g id="a_node2"><a xlink:href="classhgps_1_1_map2d.html#a1799b0834331940a98d7d49699f7a7fc" target="_top" xlink:title=" ">
<polygon fill="white" stroke="#666666" points="283,-93 167,-93 167,-74 283,-74 283,-93"/>
<text text-anchor="middle" x="225" y="-81" font-family="Helvetica,sans-Serif" font-size="10.00">hgps::Map2d::contains</text>
</a>
</g>
</g>
<!-- Node1&#45;&gt;Node2 -->
<g id="edge1" class="edge">
<title>Node1&#45;&gt;Node2</title>
<path fill="none" stroke="#63b8ff" d="M131.47,-61.76C144.45,-64.81 157.94,-67.98 170.47,-70.93"/>
<polygon fill="#63b8ff" stroke="#63b8ff" points="169.67,-74.33 180.2,-73.21 171.27,-67.52 169.67,-74.33"/>
</g>
<!-- Node3 -->
<g id="node3" class="node">
<title>Node3</title>
<g id="a_node3"><a xlink:href="classhgps_1_1_map2d.html#a1b68e83aac82c33d40f7b039fa20a89d" target="_top" xlink:title=" ">
<polygon fill="white" stroke="#666666" points="278,-56 172,-56 172,-37 278,-37 278,-56"/>
<text text-anchor="middle" x="225" y="-44" font-family="Helvetica,sans-Serif" font-size="10.00">hgps::Map2d::empty</text>
</a>
</g>
</g>
<!-- Node1&#45;&gt;Node3 -->
<g id="edge2" class="edge">
<title>Node1&#45;&gt;Node3</title>
<path fill="none" stroke="#63b8ff" d="M131.47,-46.5C140.99,-46.5 150.78,-46.5 160.28,-46.5"/>
<polygon fill="#63b8ff" stroke="#63b8ff" points="160.15,-50 170.15,-46.5 160.15,-43 160.15,-50"/>
</g>
<!-- Node4 -->
<g id="node4" class="node">
<title>Node4</title>
<g id="a_node4"><a xlink:href="classhgps_1_1_map2d.html#a7b27abcf5782c049aca2846b11ba6dc3" target="_top" xlink:title=" ">
<polygon fill="white" stroke="#666666" points="274.5,-19 175.5,-19 175.5,0 274.5,0 274.5,-19"/>
<text text-anchor="middle" x="225" y="-7" font-family="Helvetica,sans-Serif" font-size="10.00">hgps::Map2d::rows</text>
</a>
</g>
</g>
<!-- Node1&#45;&gt;Node4 -->
<g id="edge3" class="edge">
<title>Node1&#45;&gt;Node4</title>
<path fill="none" stroke="#63b8ff" d="M131.47,-31.24C144.45,-28.19 157.94,-25.02 170.47,-22.07"/>
<polygon fill="#63b8ff" stroke="#63b8ff" points="171.27,-25.48 180.2,-19.79 169.67,-18.67 171.27,-25.48"/>
</g>
</g>
</svg>
