<?xml version="1.0" encoding="UTF-8" standalone="no"?>
<!DOCTYPE svg PUBLIC "-//W3C//DTD SVG 1.1//EN"
 "http://www.w3.org/Graphics/SVG/1.1/DTD/svg11.dtd">
<!-- Generated by graphviz version 2.43.0 (0)
 -->
<!-- Title: hgps::core::DiseaseEntity Pages: 1 -->
<svg width="268pt" height="162pt"
 viewBox="0.00 0.00 268.00 162.00" xmlns="http://www.w3.org/2000/svg" xmlns:xlink="http://www.w3.org/1999/xlink">
<g id="graph0" class="graph" transform="scale(1 1) rotate(0) translate(4 158)">
<title>hgps::core::DiseaseEntity</title>
<!-- Node1 -->
<g id="node1" class="node">
<title>Node1</title>
<g id="a_node1"><a xlink:title=" ">
<polygon fill="#bfbfbf" stroke="black" points="99.5,-0.5 99.5,-19.5 239.5,-19.5 239.5,-0.5 99.5,-0.5"/>
<text text-anchor="middle" x="169.5" y="-7.5" font-family="Helvetica,sans-Serif" font-size="10.00">hgps::core::DiseaseEntity</text>
</a>
</g>
</g>
<!-- Node2 -->
<g id="node2" class="node">
<title>Node2</title>
<g id="a_node2"><a xlink:href="structhgps_1_1core_1_1DiseaseInfo.html" target="_top" xlink:title=" ">
<polygon fill="none" stroke="black" points="0,-67.5 0,-86.5 131,-86.5 131,-67.5 0,-67.5"/>
<text text-anchor="middle" x="65.5" y="-74.5" font-family="Helvetica,sans-Serif" font-size="10.00">hgps::core::DiseaseInfo</text>
</a>
</g>
</g>
<!-- Node2&#45;&gt;Node1 -->
<g id="edge1" class="edge">
<title>Node2&#45;&gt;Node1</title>
<path fill="none" stroke="#9a32cd" stroke-dasharray="5,2" d="M88.27,-61.77C108.86,-48.9 138.49,-30.38 155.7,-19.63"/>
<polygon fill="#9a32cd" stroke="#9a32cd" points="86.15,-58.97 79.53,-67.23 89.86,-64.9 86.15,-58.97"/>
<text text-anchor="middle" x="135.5" y="-41" font-family="Helvetica,sans-Serif" font-size="10.00"> info</text>
</g>
<!-- Node3 -->
<g id="node3" class="node">
<title>Node3</title>
<g id="a_node3"><a xlink:href="structhgps_1_1core_1_1Identifier.html" target="_top" xlink:title=" ">
<polygon fill="none" stroke="black" points="7.5,-134.5 7.5,-153.5 123.5,-153.5 123.5,-134.5 7.5,-134.5"/>
<text text-anchor="middle" x="65.5" y="-141.5" font-family="Helvetica,sans-Serif" font-size="10.00">hgps::core::Identifier</text>
</a>
</g>
</g>
<!-- Node3&#45;&gt;Node2 -->
<g id="edge2" class="edge">
<title>Node3&#45;&gt;Node2</title>
<path fill="none" stroke="#9a32cd" stroke-dasharray="5,2" d="M65.5,-124.04C65.5,-111.67 65.5,-96.12 65.5,-86.63"/>
<polygon fill="#9a32cd" stroke="#9a32cd" points="62,-124.23 65.5,-134.23 69,-124.23 62,-124.23"/>
<text text-anchor="middle" x="79" y="-108" font-family="Helvetica,sans-Serif" font-size="10.00"> code</text>
</g>
<!-- Node4 -->
<g id="node4" class="node">
<title>Node4</title>
<g id="a_node4"><a xlink:href="structhgps_1_1core_1_1Country.html" target="_top" xlink:title=" ">
<polygon fill="none" stroke="black" points="149,-67.5 149,-86.5 260,-86.5 260,-67.5 149,-67.5"/>
<text text-anchor="middle" x="204.5" y="-74.5" font-family="Helvetica,sans-Serif" font-size="10.00">hgps::core::Country</text>
</a>
</g>
</g>
<!-- Node4&#45;&gt;Node1 -->
<g id="edge3" class="edge">
<title>Node4&#45;&gt;Node1</title>
<path fill="none" stroke="#9a32cd" stroke-dasharray="5,2" d="M194.9,-58.16C188.15,-45.63 179.41,-29.41 174.15,-19.63"/>
<polygon fill="#9a32cd" stroke="#9a32cd" points="191.96,-60.09 199.78,-67.23 198.12,-56.77 191.96,-60.09"/>
<text text-anchor="middle" x="208.5" y="-41" font-family="Helvetica,sans-Serif" font-size="10.00"> country</text>
</g>
</g>
</svg>
