<?xml version="1.0" encoding="UTF-8" standalone="no"?>
<!DOCTYPE svg PUBLIC "-//W3C//DTD SVG 1.1//EN"
 "http://www.w3.org/Graphics/SVG/1.1/DTD/svg11.dtd">
<!-- Generated by graphviz version 7.0.6 (20230106.0513)
 -->
<!-- Title: hgps::SimulationDefinition::identifier Pages: 1 -->
<svg width="467pt" height="175pt"
 viewBox="0.00 0.00 467.00 175.00" xmlns="http://www.w3.org/2000/svg" xmlns:xlink="http://www.w3.org/1999/xlink">
<g id="graph0" class="graph" transform="scale(1 1) rotate(0) translate(4 171)">
<title>hgps::SimulationDefinition::identifier</title>
<!-- Node1 -->
<g id="node1" class="node">
<title>Node1</title>
<g id="a_node1"><a xlink:title=" ">
<polygon fill="#999999" stroke="#666666" points="459,-98.5 330,-98.5 330,-68.5 459,-68.5 459,-98.5"/>
<text text-anchor="start" x="338" y="-86.5" font-family="Helvetica,sans-Serif" font-size="10.00">hgps::SimulationDefinition</text>
<text text-anchor="middle" x="394.5" y="-75.5" font-family="Helvetica,sans-Serif" font-size="10.00">::identifier</text>
</a>
</g>
</g>
<!-- Node2 -->
<g id="node2" class="node">
<title>Node2</title>
<g id="a_node2"><a xlink:href="classhgps_1_1_simulation.html#a405fa37a049c3a5e1ee9f16c8c8e2a80" target="_top" xlink:title=" ">
<polygon fill="white" stroke="#666666" points="294,-93 175,-93 175,-74 294,-74 294,-93"/>
<text text-anchor="middle" x="234.5" y="-81" font-family="Helvetica,sans-Serif" font-size="10.00">hgps::Simulation::name</text>
</a>
</g>
</g>
<!-- Node1&#45;&gt;Node2 -->
<g id="edge1" class="edge">
<title>Node1&#45;&gt;Node2</title>
<path fill="none" stroke="#63b8ff" d="M318.39,-83.5C310.35,-83.5 302.25,-83.5 294.44,-83.5"/>
<polygon fill="#63b8ff" stroke="#63b8ff" points="318.18,-87 328.18,-83.5 318.18,-80 318.18,-87"/>
</g>
<!-- Node3 -->
<g id="node3" class="node">
<title>Node3</title>
<g id="a_node3"><a xlink:href="classhgps_1_1_health_g_p_s.html#a5914cc38a777cdb4d694f52ba90bc054" target="_top" xlink:title=" ">
<polygon fill="white" stroke="#666666" points="124.5,-167 14.5,-167 14.5,-148 124.5,-148 124.5,-167"/>
<text text-anchor="middle" x="69.5" y="-155" font-family="Helvetica,sans-Serif" font-size="10.00">hgps::HealthGPS::fini</text>
</a>
</g>
</g>
<!-- Node2&#45;&gt;Node3 -->
<g id="edge2" class="edge">
<title>Node2&#45;&gt;Node3</title>
<path fill="none" stroke="#63b8ff" d="M210.37,-99.69C191.8,-112.06 164.68,-128.76 139,-139.5 131.63,-142.58 123.58,-145.26 115.68,-147.54"/>
<polygon fill="#63b8ff" stroke="#63b8ff" points="212.18,-102.69 218.49,-94.18 208.25,-96.9 212.18,-102.69"/>
</g>
<!-- Node4 -->
<g id="node4" class="node">
<title>Node4</title>
<g id="a_node4"><a xlink:href="classhgps_1_1_health_g_p_s.html#a2c23ed4aa847824887750396e4f28637" target="_top" xlink:title=" ">
<polygon fill="white" stroke="#666666" points="125,-130 14,-130 14,-111 125,-111 125,-130"/>
<text text-anchor="middle" x="69.5" y="-118" font-family="Helvetica,sans-Serif" font-size="10.00">hgps::HealthGPS::init</text>
</a>
</g>
</g>
<!-- Node2&#45;&gt;Node4 -->
<g id="edge3" class="edge">
<title>Node2&#45;&gt;Node4</title>
<path fill="none" stroke="#63b8ff" d="M178.8,-95.92C157.8,-100.68 134.14,-106.05 114.3,-110.56"/>
<polygon fill="#63b8ff" stroke="#63b8ff" points="179.37,-99.38 188.34,-93.75 177.82,-92.55 179.37,-99.38"/>
</g>
<!-- Node5 -->
<g id="node5" class="node">
<title>Node5</title>
<g id="a_node5"><a xlink:href="classhgps_1_1_health_g_p_s.html#a7b9b065171ddebcefd5827688a79472c" target="_top" xlink:title=" ">
<polygon fill="white" stroke="#666666" points="136.5,-93 2.5,-93 2.5,-74 136.5,-74 136.5,-93"/>
<text text-anchor="middle" x="69.5" y="-81" font-family="Helvetica,sans-Serif" font-size="10.00">hgps::HealthGPS::initialize</text>
</a>
</g>
</g>
<!-- Node2&#45;&gt;Node5 -->
<g id="edge4" class="edge">
<title>Node2&#45;&gt;Node5</title>
<path fill="none" stroke="#63b8ff" d="M163.23,-83.5C154.43,-83.5 145.46,-83.5 136.72,-83.5"/>
<polygon fill="#63b8ff" stroke="#63b8ff" points="163.14,-87 173.14,-83.5 163.14,-80 163.14,-87"/>
</g>
<!-- Node6 -->
<g id="node6" class="node">
<title>Node6</title>
<g id="a_node6"><a xlink:href="classhgps_1_1_health_g_p_s.html#af715c66fe03390d21ef76484a7d0893c" target="_top" xlink:title=" ">
<polygon fill="white" stroke="#666666" points="139,-56 0,-56 0,-37 139,-37 139,-56"/>
<text text-anchor="middle" x="69.5" y="-44" font-family="Helvetica,sans-Serif" font-size="10.00">hgps::HealthGPS::terminate</text>
</a>
</g>
</g>
<!-- Node2&#45;&gt;Node6 -->
<g id="edge5" class="edge">
<title>Node2&#45;&gt;Node6</title>
<path fill="none" stroke="#63b8ff" d="M178.8,-71.08C157.8,-66.32 134.14,-60.95 114.3,-56.44"/>
<polygon fill="#63b8ff" stroke="#63b8ff" points="177.82,-74.45 188.34,-73.25 179.37,-67.62 177.82,-74.45"/>
</g>
<!-- Node7 -->
<g id="node7" class="node">
<title>Node7</title>
<g id="a_node7"><a xlink:href="classhgps_1_1_health_g_p_s.html#af36af9f5aacf623d283f72e9a7b2c411" target="_top" xlink:title=" ">
<polygon fill="white" stroke="#666666" points="133.5,-19 5.5,-19 5.5,0 133.5,0 133.5,-19"/>
<text text-anchor="middle" x="69.5" y="-7" font-family="Helvetica,sans-Serif" font-size="10.00">hgps::HealthGPS::update</text>
</a>
</g>
</g>
<!-- Node2&#45;&gt;Node7 -->
<g id="edge6" class="edge">
<title>Node2&#45;&gt;Node7</title>
<path fill="none" stroke="#63b8ff" d="M209.64,-67.3C191.05,-55.25 164.24,-39.14 139,-28.5 130.81,-25.05 121.81,-22.04 113.1,-19.49"/>
<polygon fill="#63b8ff" stroke="#63b8ff" points="207.52,-70.09 217.79,-72.67 211.37,-64.25 207.52,-70.09"/>
</g>
</g>
</svg>
