<?xml version="1.0" encoding="UTF-8" standalone="no"?>
<!DOCTYPE svg PUBLIC "-//W3C//DTD SVG 1.1//EN"
 "http://www.w3.org/Graphics/SVG/1.1/DTD/svg11.dtd">
<!-- Generated by graphviz version 2.43.0 (0)
 -->
<!-- Title: hgps::Person::id Pages: 1 -->
<svg width="318pt" height="235pt"
 viewBox="0.00 0.00 318.00 235.00" xmlns="http://www.w3.org/2000/svg" xmlns:xlink="http://www.w3.org/1999/xlink">
<g id="graph0" class="graph" transform="scale(1 1) rotate(0) translate(4 231)">
<title>hgps::Person::id</title>
<!-- Node1 -->
<g id="node1" class="node">
<title>Node1</title>
<g id="a_node1"><a xlink:title=" ">
<polygon fill="#bfbfbf" stroke="black" points="216,-104 216,-123 310,-123 310,-104 216,-104"/>
<text text-anchor="middle" x="263" y="-111" font-family="Helvetica,sans-Serif" font-size="10.00">hgps::Person::id</text>
</a>
</g>
</g>
<!-- Node2 -->
<g id="node2" class="node">
<title>Node2</title>
<g id="a_node2"><a xlink:href="classhgps_1_1FiscalPolicyScenario.html#ad46cec8a3763896461c735fc8afcf725" target="_top" xlink:title=" ">
<polygon fill="none" stroke="black" points="17.5,-196.5 17.5,-226.5 162.5,-226.5 162.5,-196.5 17.5,-196.5"/>
<text text-anchor="start" x="25.5" y="-214.5" font-family="Helvetica,sans-Serif" font-size="10.00">hgps::FiscalPolicyScenario</text>
<text text-anchor="middle" x="90" y="-203.5" font-family="Helvetica,sans-Serif" font-size="10.00">::apply</text>
</a>
</g>
</g>
<!-- Node1&#45;&gt;Node2 -->
<g id="edge1" class="edge">
<title>Node1&#45;&gt;Node2</title>
<path fill="none" stroke="midnightblue" d="M247.38,-130.77C232.19,-147.64 206.92,-172.84 180,-187.5 173.68,-190.94 166.83,-193.92 159.83,-196.48"/>
<polygon fill="midnightblue" stroke="midnightblue" points="250.02,-133.07 253.99,-123.25 244.76,-128.45 250.02,-133.07"/>
</g>
<!-- Node3 -->
<g id="node3" class="node">
<title>Node3</title>
<g id="a_node3"><a xlink:href="classhgps_1_1FoodLabellingScenario.html#aa834940afe9a25e18be90b058767feff" target="_top" xlink:title=" ">
<polygon fill="none" stroke="black" points="12.5,-147.5 12.5,-177.5 167.5,-177.5 167.5,-147.5 12.5,-147.5"/>
<text text-anchor="start" x="20.5" y="-165.5" font-family="Helvetica,sans-Serif" font-size="10.00">hgps::FoodLabellingScenario</text>
<text text-anchor="middle" x="90" y="-154.5" font-family="Helvetica,sans-Serif" font-size="10.00">::apply</text>
</a>
</g>
</g>
<!-- Node1&#45;&gt;Node3 -->
<g id="edge2" class="edge">
<title>Node1&#45;&gt;Node3</title>
<path fill="none" stroke="midnightblue" d="M221.55,-126.12C208.33,-130.16 193.56,-134.6 180,-138.5 169.69,-141.46 158.69,-144.51 148.05,-147.41"/>
<polygon fill="midnightblue" stroke="midnightblue" points="222.78,-129.4 231.31,-123.12 220.72,-122.71 222.78,-129.4"/>
</g>
<!-- Node4 -->
<g id="node4" class="node">
<title>Node4</title>
<g id="a_node4"><a xlink:href="classhgps_1_1MarketingDynamicScenario.html#a84574c7750050d6d3b1b0c91276df416" target="_top" xlink:title=" ">
<polygon fill="none" stroke="black" points="0,-98.5 0,-128.5 180,-128.5 180,-98.5 0,-98.5"/>
<text text-anchor="start" x="8" y="-116.5" font-family="Helvetica,sans-Serif" font-size="10.00">hgps::MarketingDynamicScenario</text>
<text text-anchor="middle" x="90" y="-105.5" font-family="Helvetica,sans-Serif" font-size="10.00">::apply</text>
</a>
</g>
</g>
<!-- Node1&#45;&gt;Node4 -->
<g id="edge3" class="edge">
<title>Node1&#45;&gt;Node4</title>
<path fill="none" stroke="midnightblue" d="M205.59,-113.5C197.39,-113.5 188.8,-113.5 180.15,-113.5"/>
<polygon fill="midnightblue" stroke="midnightblue" points="205.72,-117 215.72,-113.5 205.72,-110 205.72,-117"/>
</g>
<!-- Node5 -->
<g id="node5" class="node">
<title>Node5</title>
<g id="a_node5"><a xlink:href="classhgps_1_1MarketingPolicyScenario.html#a49917d87b419b15e5c9bbf9c8dc7be11" target="_top" xlink:title=" ">
<polygon fill="none" stroke="black" points="7,-49.5 7,-79.5 173,-79.5 173,-49.5 7,-49.5"/>
<text text-anchor="start" x="15" y="-67.5" font-family="Helvetica,sans-Serif" font-size="10.00">hgps::MarketingPolicyScenario</text>
<text text-anchor="middle" x="90" y="-56.5" font-family="Helvetica,sans-Serif" font-size="10.00">::apply</text>
</a>
</g>
</g>
<!-- Node1&#45;&gt;Node5 -->
<g id="edge4" class="edge">
<title>Node1&#45;&gt;Node5</title>
<path fill="none" stroke="midnightblue" d="M219.78,-101.05C207.01,-97.31 192.94,-93.21 180,-89.5 168.74,-86.27 156.66,-82.85 145.15,-79.61"/>
<polygon fill="midnightblue" stroke="midnightblue" points="219.12,-104.5 229.7,-103.96 221.09,-97.78 219.12,-104.5"/>
</g>
<!-- Node6 -->
<g id="node6" class="node">
<title>Node6</title>
<g id="a_node6"><a xlink:href="classhgps_1_1PhysicalActivityScenario.html#ac34bbccd8ce8326f998e897313898647" target="_top" xlink:title=" ">
<polygon fill="none" stroke="black" points="7,-0.5 7,-30.5 173,-30.5 173,-0.5 7,-0.5"/>
<text text-anchor="start" x="15" y="-18.5" font-family="Helvetica,sans-Serif" font-size="10.00">hgps::PhysicalActivityScenario</text>
<text text-anchor="middle" x="90" y="-7.5" font-family="Helvetica,sans-Serif" font-size="10.00">::apply</text>
</a>
</g>
</g>
<!-- Node1&#45;&gt;Node6 -->
<g id="edge5" class="edge">
<title>Node1&#45;&gt;Node6</title>
<path fill="none" stroke="midnightblue" d="M246.88,-96.07C231.59,-79.49 206.48,-54.99 180,-40.5 172.96,-36.65 165.27,-33.35 157.47,-30.53"/>
<polygon fill="midnightblue" stroke="midnightblue" points="244.65,-98.83 253.94,-103.93 249.85,-94.15 244.65,-98.83"/>
</g>
</g>
</svg>
