<?xml version="1.0" encoding="UTF-8" standalone="no"?>
<!DOCTYPE svg PUBLIC "-//W3C//DTD SVG 1.1//EN"
 "http://www.w3.org/Graphics/SVG/1.1/DTD/svg11.dtd">
<!-- Generated by graphviz version 7.0.6 (20230106.0513)
 -->
<!-- Title: hgps::core::case_insensitive::equals Pages: 1 -->
<svg width="717pt" height="554pt"
 viewBox="0.00 0.00 717.00 553.71" xmlns="http://www.w3.org/2000/svg" xmlns:xlink="http://www.w3.org/1999/xlink">
<g id="graph0" class="graph" transform="scale(1 1) rotate(0) translate(4 549.71)">
<title>hgps::core::case_insensitive::equals</title>
<!-- Node1 -->
<g id="node1" class="node">
<title>Node1</title>
<g id="a_node1"><a xlink:title=" ">
<polygon fill="#999999" stroke="#666666" points="709,-278 569,-278 569,-248 709,-248 709,-278"/>
<text text-anchor="start" x="577" y="-266" font-family="Helvetica,sans-Serif" font-size="10.00">hgps::core::case_insensitive</text>
<text text-anchor="middle" x="639" y="-255" font-family="Helvetica,sans-Serif" font-size="10.00">::equals</text>
</a>
</g>
</g>
<!-- Node2 -->
<g id="node2" class="node">
<title>Node2</title>
<g id="a_node2"><a xlink:href="configuration_8cpp.html#a296320e54b04702f2a8300dc287dec3f" target="_top" xlink:title=" ">
<polygon fill="white" stroke="#666666" points="328.5,-301 230.5,-301 230.5,-271 328.5,-271 328.5,-301"/>
<text text-anchor="start" x="238.5" y="-289" font-family="Helvetica,sans-Serif" font-size="10.00">create_intervention</text>
<text text-anchor="middle" x="279.5" y="-278" font-family="Helvetica,sans-Serif" font-size="10.00">_scenario</text>
</a>
</g>
</g>
<!-- Node1&#45;&gt;Node2 -->
<g id="edge1" class="edge">
<title>Node1&#45;&gt;Node2</title>
<path fill="none" stroke="#63b8ff" d="M630.59,-289.04C617.9,-328.11 587.92,-400.56 533,-431 475.08,-463.1 441.87,-463.19 384,-431 357.49,-416.25 365.32,-397.91 348,-373 329.99,-347.1 307.16,-318.45 293.2,-301.35"/>
<polygon fill="#63b8ff" stroke="#63b8ff" points="633.86,-290.32 633.47,-279.74 627.17,-288.26 633.86,-290.32"/>
</g>
<!-- Node5 -->
<g id="node5" class="node">
<title>Node5</title>
<g id="a_node5"><a xlink:href="configuration_8cpp.html#af1f2ff12e096dc8f70dd6c15201acbe6" target="_top" xlink:title=" ">
<polygon fill="white" stroke="#666666" points="175,-489.5 74,-489.5 74,-470.5 175,-470.5 175,-489.5"/>
<text text-anchor="middle" x="124.5" y="-477.5" font-family="Helvetica,sans-Serif" font-size="10.00">create_model_input</text>
</a>
</g>
</g>
<!-- Node1&#45;&gt;Node5 -->
<g id="edge4" class="edge">
<title>Node1&#45;&gt;Node5</title>
<path fill="none" stroke="#63b8ff" d="M635.74,-289.64C629.69,-342.01 608.06,-457.58 533,-507 408.04,-589.26 212.24,-517.58 147.26,-489.83"/>
<polygon fill="#63b8ff" stroke="#63b8ff" points="639.21,-290.14 636.76,-279.83 632.24,-289.42 639.21,-290.14"/>
</g>
<!-- Node6 -->
<g id="node6" class="node">
<title>Node6</title>
<g id="a_node6"><a xlink:href="configuration_8cpp.html#ab41af12c9a317e192dba580788e542fe" target="_top" xlink:title=" ">
<polygon fill="white" stroke="#666666" points="519.5,-497.5 397.5,-497.5 397.5,-478.5 519.5,-478.5 519.5,-497.5"/>
<text text-anchor="middle" x="458.5" y="-485.5" font-family="Helvetica,sans-Serif" font-size="10.00">create_output_file_name</text>
</a>
</g>
</g>
<!-- Node1&#45;&gt;Node6 -->
<g id="edge6" class="edge">
<title>Node1&#45;&gt;Node6</title>
<path fill="none" stroke="#63b8ff" d="M631.28,-289.25C619,-332.01 588.89,-416.68 533,-464 525.83,-470.07 517.08,-474.62 508.16,-478.02"/>
<polygon fill="#63b8ff" stroke="#63b8ff" points="634.59,-290.39 633.88,-279.82 627.85,-288.53 634.59,-290.39"/>
</g>
<!-- Node8 -->
<g id="node8" class="node">
<title>Node8</title>
<g id="a_node8"><a xlink:href="classhgps_1_1data_1_1_data_manager.html#ad7110ccdd349dcef5c4b84576bf2b90f" target="_top" xlink:title=" ">
<polygon fill="white" stroke="#666666" points="521.5,-422 395.5,-422 395.5,-392 521.5,-392 521.5,-422"/>
<text text-anchor="start" x="403.5" y="-410" font-family="Helvetica,sans-Serif" font-size="10.00">hgps::data::DataManager</text>
<text text-anchor="middle" x="458.5" y="-399" font-family="Helvetica,sans-Serif" font-size="10.00">::get_country</text>
</a>
</g>
</g>
<!-- Node1&#45;&gt;Node8 -->
<g id="edge9" class="edge">
<title>Node1&#45;&gt;Node8</title>
<path fill="none" stroke="#63b8ff" d="M622.35,-287.76C604.04,-314.83 571.3,-357.7 533,-383 528.07,-386.26 522.67,-389.1 517.09,-391.58"/>
<polygon fill="#63b8ff" stroke="#63b8ff" points="625.22,-289.77 627.81,-279.5 619.38,-285.91 625.22,-289.77"/>
</g>
<!-- Node9 -->
<g id="node9" class="node">
<title>Node9</title>
<g id="a_node9"><a xlink:href="classhgps_1_1data_1_1_data_manager.html#a5b35385195f7d17aae7544debdd7006c" target="_top" xlink:title=" ">
<polygon fill="white" stroke="#666666" points="521.5,-374 395.5,-374 395.5,-344 521.5,-344 521.5,-374"/>
<text text-anchor="start" x="403.5" y="-362" font-family="Helvetica,sans-Serif" font-size="10.00">hgps::data::DataManager</text>
<text text-anchor="middle" x="458.5" y="-351" font-family="Helvetica,sans-Serif" font-size="10.00">::get_disease_info</text>
</a>
</g>
</g>
<!-- Node1&#45;&gt;Node9 -->
<g id="edge10" class="edge">
<title>Node1&#45;&gt;Node9</title>
<path fill="none" stroke="#63b8ff" d="M610.27,-285.28C589.85,-300.85 560.89,-321.24 533,-335 526.62,-338.15 519.73,-341.02 512.82,-343.6"/>
<polygon fill="#63b8ff" stroke="#63b8ff" points="612.33,-288.11 618.09,-279.22 608.04,-282.58 612.33,-288.11"/>
</g>
<!-- Node10 -->
<g id="node10" class="node">
<title>Node10</title>
<g id="a_node10"><a xlink:href="classhgps_1_1data_1_1_data_manager.html#a32f472233810c0450149d12c3df859a4" target="_top" xlink:title=" ">
<polygon fill="white" stroke="#666666" points="521.5,-326 395.5,-326 395.5,-296 521.5,-296 521.5,-326"/>
<text text-anchor="start" x="403.5" y="-314" font-family="Helvetica,sans-Serif" font-size="10.00">hgps::data::DataManager</text>
<text text-anchor="middle" x="458.5" y="-303" font-family="Helvetica,sans-Serif" font-size="10.00">::get_diseases</text>
</a>
</g>
</g>
<!-- Node1&#45;&gt;Node10 -->
<g id="edge11" class="edge">
<title>Node1&#45;&gt;Node10</title>
<path fill="none" stroke="#63b8ff" d="M569.83,-281.33C552.35,-286.03 533.73,-291.04 516.85,-295.58"/>
<polygon fill="#63b8ff" stroke="#63b8ff" points="570.33,-284.82 579.08,-278.84 568.51,-278.06 570.33,-284.82"/>
</g>
<!-- Node11 -->
<g id="node11" class="node">
<title>Node11</title>
<g id="a_node11"><a xlink:href="model__parser_8cpp.html#a23c45f2fc31cd0836f491f52f6170f8d" target="_top" xlink:title=" ">
<polygon fill="white" stroke="#666666" points="525.5,-229.5 391.5,-229.5 391.5,-210.5 525.5,-210.5 525.5,-229.5"/>
<text text-anchor="middle" x="458.5" y="-217.5" font-family="Helvetica,sans-Serif" font-size="10.00">load_baseline_adjustments</text>
</a>
</g>
</g>
<!-- Node1&#45;&gt;Node11 -->
<g id="edge12" class="edge">
<title>Node1&#45;&gt;Node11</title>
<path fill="none" stroke="#63b8ff" d="M562.84,-244.89C541.63,-239.78 519.33,-234.41 500.89,-229.97"/>
<polygon fill="#63b8ff" stroke="#63b8ff" points="561.8,-248.24 572.34,-247.18 563.44,-241.44 561.8,-248.24"/>
</g>
<!-- Node12 -->
<g id="node12" class="node">
<title>Node12</title>
<g id="a_node12"><a xlink:href="model__parser_8cpp.html#a63714a3138c1b3676cfb45b209522ce4" target="_top" xlink:title=" ">
<polygon fill="white" stroke="#666666" points="329,-206 230,-206 230,-176 329,-176 329,-206"/>
<text text-anchor="start" x="238" y="-194" font-family="Helvetica,sans-Serif" font-size="10.00">register_risk_factor</text>
<text text-anchor="middle" x="279.5" y="-183" font-family="Helvetica,sans-Serif" font-size="10.00">_model_definitions</text>
</a>
</g>
</g>
<!-- Node1&#45;&gt;Node12 -->
<g id="edge21" class="edge">
<title>Node1&#45;&gt;Node12</title>
<path fill="none" stroke="#63b8ff" d="M609.22,-241.13C589.05,-227.14 560.82,-210.15 533,-202 464.36,-181.9 380.76,-182.93 329.08,-186.34"/>
<polygon fill="#63b8ff" stroke="#63b8ff" points="607.03,-243.86 617.2,-246.82 611.09,-238.17 607.03,-243.86"/>
</g>
<!-- Node13 -->
<g id="node13" class="node">
<title>Node13</title>
<g id="a_node13"><a xlink:href="configuration_8cpp.html#af1d74f465c1ecdaac9ccef435ca1462c" target="_top" xlink:title=" ">
<polygon fill="white" stroke="#666666" points="172,-162.5 77,-162.5 77,-143.5 172,-143.5 172,-162.5"/>
<text text-anchor="middle" x="124.5" y="-150.5" font-family="Helvetica,sans-Serif" font-size="10.00">load_configuration</text>
</a>
</g>
</g>
<!-- Node1&#45;&gt;Node13 -->
<g id="edge15" class="edge">
<title>Node1&#45;&gt;Node13</title>
<path fill="none" stroke="#63b8ff" d="M627.34,-237.43C612.01,-204.42 580.26,-148.42 533,-125 401.48,-59.81 216.22,-118.35 150.12,-143.15"/>
<polygon fill="#63b8ff" stroke="#63b8ff" points="624.02,-238.58 631.3,-246.29 630.42,-235.73 624.02,-238.58"/>
</g>
<!-- Node14 -->
<g id="node14" class="node">
<title>Node14</title>
<g id="a_node14"><a xlink:href="model__parser_8cpp.html#a6383bd1b70a0eb2be74798ff8197afc7" target="_top" xlink:title=" ">
<polygon fill="white" stroke="#666666" points="533,-153.5 384,-153.5 384,-134.5 533,-134.5 533,-153.5"/>
<text text-anchor="middle" x="458.5" y="-141.5" font-family="Helvetica,sans-Serif" font-size="10.00">load_dynamic_risk_model_info</text>
</a>
</g>
</g>
<!-- Node1&#45;&gt;Node14 -->
<g id="edge17" class="edge">
<title>Node1&#45;&gt;Node14</title>
<path fill="none" stroke="#63b8ff" d="M617.21,-239.18C597.45,-217.86 565.94,-187.1 533,-168 522.9,-162.14 511.17,-157.49 500.1,-153.91"/>
<polygon fill="#63b8ff" stroke="#63b8ff" points="614.6,-241.51 623.91,-246.56 619.78,-236.8 614.6,-241.51"/>
</g>
<!-- Node15 -->
<g id="node15" class="node">
<title>Node15</title>
<g id="a_node15"><a xlink:href="namespacehgps.html#adf9e6a1bb7098d2f9a2fd6c49d575fe1" target="_top" xlink:title=" ">
<polygon fill="white" stroke="#666666" points="506,-278 411,-278 411,-248 506,-248 506,-278"/>
<text text-anchor="start" x="419" y="-266" font-family="Helvetica,sans-Serif" font-size="10.00">hgps::parse_fiscal</text>
<text text-anchor="middle" x="458.5" y="-255" font-family="Helvetica,sans-Serif" font-size="10.00">_impact_type</text>
</a>
</g>
</g>
<!-- Node1&#45;&gt;Node15 -->
<g id="edge19" class="edge">
<title>Node1&#45;&gt;Node15</title>
<path fill="none" stroke="#63b8ff" d="M557.36,-263C539.91,-263 522.02,-263 506.39,-263"/>
<polygon fill="#63b8ff" stroke="#63b8ff" points="557.22,-266.5 567.22,-263 557.22,-259.5 557.22,-266.5"/>
</g>
<!-- Node16 -->
<g id="node16" class="node">
<title>Node16</title>
<g id="a_node16"><a xlink:href="classhgps_1_1_s_e_s_noise_module.html#a1b0798cbf7f9d2ac0bc4ff0cf861cf3e" target="_top" xlink:title=" ">
<polygon fill="white" stroke="#666666" points="518.5,-78 398.5,-78 398.5,-48 518.5,-48 518.5,-78"/>
<text text-anchor="start" x="406.5" y="-66" font-family="Helvetica,sans-Serif" font-size="10.00">hgps::SESNoiseModule</text>
<text text-anchor="middle" x="458.5" y="-55" font-family="Helvetica,sans-Serif" font-size="10.00">::SESNoiseModule</text>
</a>
</g>
</g>
<!-- Node1&#45;&gt;Node16 -->
<g id="edge22" class="edge">
<title>Node1&#45;&gt;Node16</title>
<path fill="none" stroke="#63b8ff" d="M628.52,-237.6C613.56,-200.73 581.14,-132.38 533,-92 526.59,-86.62 519.06,-82.16 511.31,-78.48"/>
<polygon fill="#63b8ff" stroke="#63b8ff" points="625.13,-238.54 632.05,-246.56 631.64,-235.97 625.13,-238.54"/>
</g>
<!-- Node17 -->
<g id="node17" class="node">
<title>Node17</title>
<g id="a_node17"><a xlink:href="classhgps_1_1detail_1_1_store_converter.html#a066dd7e4f199e2b8442edbe49ee71bcd" target="_top" xlink:title=" ">
<polygon fill="white" stroke="#666666" points="527,-30 390,-30 390,0 527,0 527,-30"/>
<text text-anchor="start" x="398" y="-18" font-family="Helvetica,sans-Serif" font-size="10.00">hgps::detail::StoreConverter</text>
<text text-anchor="middle" x="458.5" y="-7" font-family="Helvetica,sans-Serif" font-size="10.00">::to_gender</text>
</a>
</g>
</g>
<!-- Node1&#45;&gt;Node17 -->
<g id="edge23" class="edge">
<title>Node1&#45;&gt;Node17</title>
<path fill="none" stroke="#63b8ff" d="M632.78,-236.47C622.23,-189.81 593.99,-92.93 533,-39 529.28,-35.71 525.1,-32.87 520.67,-30.42"/>
<polygon fill="#63b8ff" stroke="#63b8ff" points="629.35,-237.18 634.88,-246.22 636.2,-235.71 629.35,-237.18"/>
</g>
<!-- Node3 -->
<g id="node3" class="node">
<title>Node3</title>
<g id="a_node3"><a xlink:href="configuration_8cpp.html#a32941ab19338506c6bf94a654a8ef756" target="_top" xlink:title=" ">
<polygon fill="white" stroke="#666666" points="173.5,-301 75.5,-301 75.5,-271 173.5,-271 173.5,-301"/>
<text text-anchor="start" x="83.5" y="-289" font-family="Helvetica,sans-Serif" font-size="10.00">create_intervention</text>
<text text-anchor="middle" x="124.5" y="-278" font-family="Helvetica,sans-Serif" font-size="10.00">_simulation</text>
</a>
</g>
</g>
<!-- Node2&#45;&gt;Node3 -->
<g id="edge2" class="edge">
<title>Node2&#45;&gt;Node3</title>
<path fill="none" stroke="#63b8ff" d="M218.9,-286C203.98,-286 188.16,-286 173.86,-286"/>
<polygon fill="#63b8ff" stroke="#63b8ff" points="218.58,-289.5 228.58,-286 218.58,-282.5 218.58,-289.5"/>
</g>
<!-- Node4 -->
<g id="node4" class="node">
<title>Node4</title>
<g id="a_node4"><a xlink:href="program_8cpp.html#a0ddf1224851353fc92bfbff6f499fa97" target="_top" xlink:title=" ">
<polygon fill="white" stroke="#666666" points="38,-295.5 0,-295.5 0,-276.5 38,-276.5 38,-295.5"/>
<text text-anchor="middle" x="19" y="-283.5" font-family="Helvetica,sans-Serif" font-size="10.00">main</text>
</a>
</g>
</g>
<!-- Node3&#45;&gt;Node4 -->
<g id="edge3" class="edge">
<title>Node3&#45;&gt;Node4</title>
<path fill="none" stroke="#63b8ff" d="M63.78,-286C54.58,-286 45.73,-286 38.43,-286"/>
<polygon fill="#63b8ff" stroke="#63b8ff" points="63.57,-289.5 73.57,-286 63.57,-282.5 63.57,-289.5"/>
</g>
<!-- Node5&#45;&gt;Node4 -->
<g id="edge5" class="edge">
<title>Node5&#45;&gt;Node4</title>
<path fill="none" stroke="#63b8ff" d="M112.76,-460.13C102.71,-441.51 87.29,-412.9 74,-388 55.98,-354.24 34.79,-314.08 25.19,-295.86"/>
<polygon fill="#63b8ff" stroke="#63b8ff" points="109.58,-461.61 117.41,-468.74 115.74,-458.28 109.58,-461.61"/>
</g>
<!-- Node7 -->
<g id="node7" class="node">
<title>Node7</title>
<g id="a_node7"><a xlink:href="configuration_8cpp.html#af5bcc5029f8d8a94e399e6570cbcd645" target="_top" xlink:title=" ">
<polygon fill="white" stroke="#666666" points="327,-412 232,-412 232,-382 327,-382 327,-412"/>
<text text-anchor="start" x="240" y="-400" font-family="Helvetica,sans-Serif" font-size="10.00">create_results_file</text>
<text text-anchor="middle" x="279.5" y="-389" font-family="Helvetica,sans-Serif" font-size="10.00">_logger</text>
</a>
</g>
</g>
<!-- Node6&#45;&gt;Node7 -->
<g id="edge7" class="edge">
<title>Node6&#45;&gt;Node7</title>
<path fill="none" stroke="#63b8ff" d="M410.23,-474.57C401.35,-471.49 392.27,-467.94 384,-464 353.28,-449.35 320.8,-427.05 300.59,-412.26"/>
<polygon fill="#63b8ff" stroke="#63b8ff" points="408.86,-477.8 419.45,-477.62 411.05,-471.16 408.86,-477.8"/>
</g>
<!-- Node7&#45;&gt;Node4 -->
<g id="edge8" class="edge">
<title>Node7&#45;&gt;Node4</title>
<path fill="none" stroke="#63b8ff" d="M231.5,-377.26C189.99,-359.76 127.87,-333.43 74,-310 62.15,-304.84 48.88,-298.95 38.46,-294.29"/>
<polygon fill="#63b8ff" stroke="#63b8ff" points="229.88,-380.37 240.46,-381.03 232.6,-373.92 229.88,-380.37"/>
</g>
<!-- Node11&#45;&gt;Node12 -->
<g id="edge13" class="edge">
<title>Node11&#45;&gt;Node12</title>
<path fill="none" stroke="#63b8ff" d="M385.32,-208.17C366.45,-205.08 346.56,-201.82 329.24,-198.99"/>
<polygon fill="#63b8ff" stroke="#63b8ff" points="384.66,-211.61 395.09,-209.78 385.79,-204.7 384.66,-211.61"/>
</g>
<!-- Node12&#45;&gt;Node4 -->
<g id="edge14" class="edge">
<title>Node12&#45;&gt;Node4</title>
<path fill="none" stroke="#63b8ff" d="M219.65,-209.97C178.52,-223.59 122.51,-242.84 74,-262 61.98,-266.75 48.71,-272.64 38.33,-277.39"/>
<polygon fill="#63b8ff" stroke="#63b8ff" points="220.72,-213.3 229.13,-206.85 218.53,-206.66 220.72,-213.3"/>
</g>
<!-- Node13&#45;&gt;Node4 -->
<g id="edge16" class="edge">
<title>Node13&#45;&gt;Node4</title>
<path fill="none" stroke="#63b8ff" d="M101.01,-169.98C92.01,-177.4 81.93,-186.55 74,-196 51.87,-222.39 32.98,-258.87 24.61,-276.15"/>
<polygon fill="#63b8ff" stroke="#63b8ff" points="103.02,-172.85 108.67,-163.88 98.66,-167.37 103.02,-172.85"/>
</g>
<!-- Node14&#45;&gt;Node12 -->
<g id="edge18" class="edge">
<title>Node14&#45;&gt;Node12</title>
<path fill="none" stroke="#63b8ff" d="M409,-156.88C384.26,-163.45 354.23,-171.42 329.42,-178.01"/>
<polygon fill="#63b8ff" stroke="#63b8ff" points="409.73,-160.31 418.5,-154.36 407.94,-153.54 409.73,-160.31"/>
</g>
<!-- Node15&#45;&gt;Node2 -->
<g id="edge20" class="edge">
<title>Node15&#45;&gt;Node2</title>
<path fill="none" stroke="#63b8ff" d="M399.28,-270.57C376.49,-273.53 350.66,-276.88 328.92,-279.71"/>
<polygon fill="#63b8ff" stroke="#63b8ff" points="399.57,-274.06 409.03,-269.3 398.66,-267.12 399.57,-274.06"/>
</g>
<!-- Node18 -->
<g id="node18" class="node">
<title>Node18</title>
<g id="a_node18"><a xlink:href="classhgps_1_1detail_1_1_store_converter.html#ab84ed9dfdfc47787731e596e99daa19d" target="_top" xlink:title=" ">
<polygon fill="white" stroke="#666666" points="348,-30 211,-30 211,0 348,0 348,-30"/>
<text text-anchor="start" x="219" y="-18" font-family="Helvetica,sans-Serif" font-size="10.00">hgps::detail::StoreConverter</text>
<text text-anchor="middle" x="279.5" y="-7" font-family="Helvetica,sans-Serif" font-size="10.00">::to_relative_risk_table</text>
</a>
</g>
</g>
<!-- Node17&#45;&gt;Node18 -->
<g id="edge24" class="edge">
<title>Node17&#45;&gt;Node18</title>
<path fill="none" stroke="#63b8ff" d="M378.33,-15C368.29,-15 358.09,-15 348.24,-15"/>
<polygon fill="#63b8ff" stroke="#63b8ff" points="378.06,-18.5 388.06,-15 378.06,-11.5 378.06,-18.5"/>
</g>
<!-- Node19 -->
<g id="node19" class="node">
<title>Node19</title>
<g id="a_node19"><a xlink:href="namespacehgps_1_1detail.html#a7919ba23ba1ff6b87eada303f679277a" target="_top" xlink:title=" ">
<polygon fill="white" stroke="#666666" points="174.5,-30 74.5,-30 74.5,0 174.5,0 174.5,-30"/>
<text text-anchor="start" x="82.5" y="-18" font-family="Helvetica,sans-Serif" font-size="10.00">hgps::detail::create</text>
<text text-anchor="middle" x="124.5" y="-7" font-family="Helvetica,sans-Serif" font-size="10.00">_relative_risk</text>
</a>
</g>
</g>
<!-- Node18&#45;&gt;Node19 -->
<g id="edge25" class="edge">
<title>Node18&#45;&gt;Node19</title>
<path fill="none" stroke="#63b8ff" d="M199.23,-15C190.96,-15 182.73,-15 174.94,-15"/>
<polygon fill="#63b8ff" stroke="#63b8ff" points="198.99,-18.5 208.99,-15 198.99,-11.5 198.99,-18.5"/>
</g>
</g>
</svg>
