<?xml version="1.0" encoding="UTF-8" standalone="no"?>
<!DOCTYPE svg PUBLIC "-//W3C//DTD SVG 1.1//EN"
 "http://www.w3.org/Graphics/SVG/1.1/DTD/svg11.dtd">
<!-- Generated by graphviz version 7.0.6 (20230106.0513)
 -->
<!-- Title: HealthGPS/sync_message.h Pages: 1 -->
<svg width="2466pt" height="610pt"
 viewBox="0.00 0.00 2465.50 610.00" xmlns="http://www.w3.org/2000/svg" xmlns:xlink="http://www.w3.org/1999/xlink">
<g id="graph0" class="graph" transform="scale(1 1) rotate(0) translate(4 606)">
<title>HealthGPS/sync_message.h</title>
<!-- Node1 -->
<g id="node1" class="node">
<title>Node1</title>
<g id="a_node1"><a xlink:title=" ">
<polygon fill="#999999" stroke="#666666" points="915.5,-602 772.5,-602 772.5,-583 915.5,-583 915.5,-602"/>
<text text-anchor="middle" x="844" y="-590" font-family="Helvetica,sans-Serif" font-size="10.00">HealthGPS/sync_message.h</text>
</a>
</g>
</g>
<!-- Node2 -->
<g id="node2" class="node">
<title>Node2</title>
<g id="a_node2"><a xlink:href="baseline__sync__message_8h.html" target="_top" xlink:title=" ">
<polygon fill="white" stroke="#666666" points="104,-360 0,-360 0,-330 104,-330 104,-360"/>
<text text-anchor="start" x="8" y="-348" font-family="Helvetica,sans-Serif" font-size="10.00">HealthGPS/baseline</text>
<text text-anchor="middle" x="52" y="-337" font-family="Helvetica,sans-Serif" font-size="10.00">_sync_message.h</text>
</a>
</g>
</g>
<!-- Node1&#45;&gt;Node2 -->
<g id="edge1" class="edge">
<title>Node1&#45;&gt;Node2</title>
<path fill="none" stroke="#63b8ff" d="M794.37,-579.93C691.12,-555.38 446.1,-494.66 246,-426 187.59,-405.96 121.48,-377.38 83.47,-360.36"/>
<polygon fill="#63b8ff" stroke="#63b8ff" points="793.37,-583.29 803.91,-582.19 794.98,-576.47 793.37,-583.29"/>
</g>
<!-- Node6 -->
<g id="node6" class="node">
<title>Node6</title>
<g id="a_node6"><a xlink:href="scenario_8h.html" target="_top" xlink:title=" ">
<polygon fill="white" stroke="#666666" points="1693.5,-547 1580.5,-547 1580.5,-528 1693.5,-528 1693.5,-547"/>
<text text-anchor="middle" x="1637" y="-535" font-family="Helvetica,sans-Serif" font-size="10.00">HealthGPS/scenario.h</text>
</a>
</g>
</g>
<!-- Node1&#45;&gt;Node6 -->
<g id="edge5" class="edge">
<title>Node1&#45;&gt;Node6</title>
<path fill="none" stroke="#63b8ff" d="M927.08,-585.95C1088.79,-575.14 1442.06,-551.53 1580.11,-542.3"/>
<polygon fill="#63b8ff" stroke="#63b8ff" points="927.03,-582.44 917.28,-586.6 927.49,-589.43 927.03,-582.44"/>
</g>
<!-- Node3 -->
<g id="node3" class="node">
<title>Node3</title>
<g id="a_node3"><a xlink:href="demographic_8cpp.html" target="_top" xlink:title=" ">
<polygon fill="white" stroke="#666666" points="822.5,-288.5 679.5,-288.5 679.5,-269.5 822.5,-269.5 822.5,-288.5"/>
<text text-anchor="middle" x="751" y="-276.5" font-family="Helvetica,sans-Serif" font-size="10.00">HealthGPS/demographic.cpp</text>
</a>
</g>
</g>
<!-- Node2&#45;&gt;Node3 -->
<g id="edge2" class="edge">
<title>Node2&#45;&gt;Node3</title>
<path fill="none" stroke="#63b8ff" d="M115.46,-334.34C127.26,-332.74 139.49,-331.21 151,-330 380.95,-305.8 440.45,-321.73 670,-294 681.05,-292.67 692.89,-290.84 704,-288.96"/>
<polygon fill="#63b8ff" stroke="#63b8ff" points="115.24,-330.84 105.82,-335.68 116.21,-337.77 115.24,-330.84"/>
</g>
<!-- Node4 -->
<g id="node4" class="node">
<title>Node4</title>
<g id="a_node4"><a xlink:href="healthgps_8cpp.html" target="_top" xlink:title=" ">
<polygon fill="white" stroke="#666666" points="446.5,-90.5 317.5,-90.5 317.5,-71.5 446.5,-71.5 446.5,-90.5"/>
<text text-anchor="middle" x="382" y="-78.5" font-family="Helvetica,sans-Serif" font-size="10.00">HealthGPS/healthgps.cpp</text>
</a>
</g>
</g>
<!-- Node2&#45;&gt;Node4 -->
<g id="edge3" class="edge">
<title>Node2&#45;&gt;Node4</title>
<path fill="none" stroke="#63b8ff" d="M68.59,-320.56C81.1,-303.77 99.25,-281.19 118,-264 202.92,-186.1 323.12,-115.18 366.02,-90.89"/>
<polygon fill="#63b8ff" stroke="#63b8ff" points="65.89,-318.33 62.81,-328.47 71.54,-322.46 65.89,-318.33"/>
</g>
<!-- Node5 -->
<g id="node5" class="node">
<title>Node5</title>
<g id="a_node5"><a xlink:href="riskfactor__adjustment_8cpp.html" target="_top" xlink:title=" ">
<polygon fill="white" stroke="#666666" points="398,-294 290,-294 290,-264 398,-264 398,-294"/>
<text text-anchor="start" x="298" y="-282" font-family="Helvetica,sans-Serif" font-size="10.00">HealthGPS/riskfactor</text>
<text text-anchor="middle" x="344" y="-271" font-family="Helvetica,sans-Serif" font-size="10.00">_adjustment.cpp</text>
</a>
</g>
</g>
<!-- Node2&#45;&gt;Node5 -->
<g id="edge4" class="edge">
<title>Node2&#45;&gt;Node5</title>
<path fill="none" stroke="#63b8ff" d="M115.31,-330.12C167.37,-318.71 240.37,-302.71 289.77,-291.88"/>
<polygon fill="#63b8ff" stroke="#63b8ff" points="114.7,-326.67 105.68,-332.23 116.2,-333.51 114.7,-326.67"/>
</g>
<!-- Node7 -->
<g id="node7" class="node">
<title>Node7</title>
<g id="a_node7"><a xlink:href="configuration_8h.html" target="_top" xlink:title=" ">
<polygon fill="white" stroke="#666666" points="1427,-90.5 1257,-90.5 1257,-71.5 1427,-71.5 1427,-90.5"/>
<text text-anchor="middle" x="1342" y="-78.5" font-family="Helvetica,sans-Serif" font-size="10.00">HealthGPS.Console/configuration.h</text>
</a>
</g>
</g>
<!-- Node6&#45;&gt;Node7 -->
<g id="edge6" class="edge">
<title>Node6&#45;&gt;Node7</title>
<path fill="none" stroke="#63b8ff" d="M1639.8,-516.27C1644.16,-477.71 1649.13,-392.02 1618,-330 1556.87,-208.24 1408.36,-118.39 1358.58,-90.84"/>
<polygon fill="#63b8ff" stroke="#63b8ff" points="1636.33,-515.77 1638.56,-526.13 1643.28,-516.64 1636.33,-515.77"/>
</g>
<!-- Node10 -->
<g id="node10" class="node">
<title>Node10</title>
<g id="a_node10"><a xlink:href="baseline__scenario_8h.html" target="_top" xlink:title=" ">
<polygon fill="white" stroke="#666666" points="1716,-162 1612,-162 1612,-132 1716,-132 1716,-162"/>
<text text-anchor="start" x="1620" y="-150" font-family="Helvetica,sans-Serif" font-size="10.00">HealthGPS/baseline</text>
<text text-anchor="middle" x="1664" y="-139" font-family="Helvetica,sans-Serif" font-size="10.00">_scenario.h</text>
</a>
</g>
</g>
<!-- Node6&#45;&gt;Node10 -->
<g id="edge9" class="edge">
<title>Node6&#45;&gt;Node10</title>
<path fill="none" stroke="#63b8ff" d="M1646.61,-517.59C1657.87,-493.65 1675,-450.84 1675,-412 1675,-412 1675,-412 1675,-278 1675,-235.87 1669.19,-186.33 1666.02,-162.39"/>
<polygon fill="#63b8ff" stroke="#63b8ff" points="1643.57,-515.84 1642.32,-526.36 1649.86,-518.91 1643.57,-515.84"/>
</g>
<!-- Node13 -->
<g id="node13" class="node">
<title>Node13</title>
<g id="a_node13"><a xlink:href="intervention__scenario_8h.html" target="_top" xlink:title=" ">
<polygon fill="white" stroke="#666666" points="1851.5,-162 1734.5,-162 1734.5,-132 1851.5,-132 1851.5,-162"/>
<text text-anchor="start" x="1742.5" y="-150" font-family="Helvetica,sans-Serif" font-size="10.00">HealthGPS/intervention</text>
<text text-anchor="middle" x="1793" y="-139" font-family="Helvetica,sans-Serif" font-size="10.00">_scenario.h</text>
</a>
</g>
</g>
<!-- Node6&#45;&gt;Node13 -->
<g id="edge14" class="edge">
<title>Node6&#45;&gt;Node13</title>
<path fill="none" stroke="#63b8ff" d="M1666.39,-522.45C1702.2,-503.04 1758,-464.4 1758,-412 1758,-412 1758,-412 1758,-278 1758,-234.76 1776.28,-186.13 1786.42,-162.47"/>
<polygon fill="#63b8ff" stroke="#63b8ff" points="1665.04,-519.21 1657.78,-526.93 1668.27,-525.42 1665.04,-519.21"/>
</g>
<!-- Node26 -->
<g id="node26" class="node">
<title>Node26</title>
<g id="a_node26"><a xlink:href="simulation__definition_8h.html" target="_top" xlink:title=" ">
<polygon fill="white" stroke="#666666" points="1019.5,-492 906.5,-492 906.5,-462 1019.5,-462 1019.5,-492"/>
<text text-anchor="start" x="914.5" y="-480" font-family="Helvetica,sans-Serif" font-size="10.00">HealthGPS/simulation</text>
<text text-anchor="middle" x="963" y="-469" font-family="Helvetica,sans-Serif" font-size="10.00">_definition.h</text>
</a>
</g>
</g>
<!-- Node6&#45;&gt;Node26 -->
<g id="edge35" class="edge">
<title>Node6&#45;&gt;Node26</title>
<path fill="none" stroke="#63b8ff" d="M1568.9,-530.59C1435.83,-519.04 1143.55,-493.67 1019.97,-482.94"/>
<polygon fill="#63b8ff" stroke="#63b8ff" points="1568.34,-534.05 1578.61,-531.43 1568.95,-527.08 1568.34,-534.05"/>
</g>
<!-- Node8 -->
<g id="node8" class="node">
<title>Node8</title>
<g id="a_node8"><a xlink:href="configuration_8cpp.html" target="_top" xlink:title=" ">
<polygon fill="white" stroke="#666666" points="1858,-24.5 1678,-24.5 1678,-5.5 1858,-5.5 1858,-24.5"/>
<text text-anchor="middle" x="1768" y="-12.5" font-family="Helvetica,sans-Serif" font-size="10.00">HealthGPS.Console/configuration.cpp</text>
</a>
</g>
</g>
<!-- Node7&#45;&gt;Node8 -->
<g id="edge7" class="edge">
<title>Node7&#45;&gt;Node8</title>
<path fill="none" stroke="#63b8ff" d="M1412.99,-69.33C1495.7,-56.91 1630.88,-36.6 1708.38,-24.96"/>
<polygon fill="#63b8ff" stroke="#63b8ff" points="1412.55,-65.86 1403.18,-70.81 1413.59,-72.78 1412.55,-65.86"/>
</g>
<!-- Node9 -->
<g id="node9" class="node">
<title>Node9</title>
<g id="a_node9"><a xlink:href="program_8cpp.html" target="_top" xlink:title=" ">
<polygon fill="white" stroke="#666666" points="1324.5,-24.5 1163.5,-24.5 1163.5,-5.5 1324.5,-5.5 1324.5,-24.5"/>
<text text-anchor="middle" x="1244" y="-12.5" font-family="Helvetica,sans-Serif" font-size="10.00">HealthGPS.Console/program.cpp</text>
</a>
</g>
</g>
<!-- Node7&#45;&gt;Node9 -->
<g id="edge8" class="edge">
<title>Node7&#45;&gt;Node9</title>
<path fill="none" stroke="#63b8ff" d="M1318.89,-64.91C1299.79,-52.44 1273.33,-35.15 1257.51,-24.82"/>
<polygon fill="#63b8ff" stroke="#63b8ff" points="1316.82,-67.74 1327.11,-70.27 1320.65,-61.88 1316.82,-67.74"/>
</g>
<!-- Node10&#45;&gt;Node8 -->
<g id="edge10" class="edge">
<title>Node10&#45;&gt;Node8</title>
<path fill="none" stroke="#63b8ff" d="M1627.83,-125.49C1604.55,-109.62 1581.34,-86.9 1597,-66 1610.96,-47.38 1667.61,-33.37 1711.92,-24.99"/>
<polygon fill="#63b8ff" stroke="#63b8ff" points="1625.78,-128.34 1636.08,-130.82 1629.58,-122.46 1625.78,-128.34"/>
</g>
<!-- Node11 -->
<g id="node11" class="node">
<title>Node11</title>
<g id="a_node11"><a xlink:href="_health_g_p_s_2api_8h.html" target="_top" xlink:title=" ">
<polygon fill="white" stroke="#666666" points="1235.5,-90.5 1146.5,-90.5 1146.5,-71.5 1235.5,-71.5 1235.5,-90.5"/>
<text text-anchor="middle" x="1191" y="-78.5" font-family="Helvetica,sans-Serif" font-size="10.00">HealthGPS/api.h</text>
</a>
</g>
</g>
<!-- Node10&#45;&gt;Node11 -->
<g id="edge11" class="edge">
<title>Node10&#45;&gt;Node11</title>
<path fill="none" stroke="#63b8ff" d="M1600.45,-140.78C1518.55,-133.49 1371.93,-118.58 1248,-96 1240.38,-94.61 1232.26,-92.81 1224.61,-90.97"/>
<polygon fill="#63b8ff" stroke="#63b8ff" points="1600.04,-144.25 1610.31,-141.64 1600.65,-137.28 1600.04,-144.25"/>
</g>
<!-- Node12 -->
<g id="node12" class="node">
<title>Node12</title>
<g id="a_node12"><a xlink:href="baseline__scenario_8cpp.html" target="_top" xlink:title=" ">
<polygon fill="white" stroke="#666666" points="1549,-96 1445,-96 1445,-66 1549,-66 1549,-96"/>
<text text-anchor="start" x="1453" y="-84" font-family="Helvetica,sans-Serif" font-size="10.00">HealthGPS/baseline</text>
<text text-anchor="middle" x="1497" y="-73" font-family="Helvetica,sans-Serif" font-size="10.00">_scenario.cpp</text>
</a>
</g>
</g>
<!-- Node10&#45;&gt;Node12 -->
<g id="edge13" class="edge">
<title>Node10&#45;&gt;Node12</title>
<path fill="none" stroke="#63b8ff" d="M1615.83,-127.54C1590.01,-117.64 1558.66,-105.63 1534.64,-96.43"/>
<polygon fill="#63b8ff" stroke="#63b8ff" points="1614.52,-130.79 1625.11,-131.1 1617.02,-124.25 1614.52,-130.79"/>
</g>
<!-- Node11&#45;&gt;Node9 -->
<g id="edge12" class="edge">
<title>Node11&#45;&gt;Node9</title>
<path fill="none" stroke="#63b8ff" d="M1205.69,-62.26C1215.78,-50.08 1228.73,-34.44 1236.69,-24.82"/>
<polygon fill="#63b8ff" stroke="#63b8ff" points="1203.02,-60 1199.33,-69.94 1208.41,-64.47 1203.02,-60"/>
</g>
<!-- Node13&#45;&gt;Node7 -->
<g id="edge15" class="edge">
<title>Node13&#45;&gt;Node7</title>
<path fill="none" stroke="#63b8ff" d="M1723.09,-131.77C1595.41,-111.06 1560.74,-113.06 1436,-96 1424.64,-94.45 1412.52,-92.7 1400.89,-90.99"/>
<polygon fill="#63b8ff" stroke="#63b8ff" points="1722.15,-135.16 1732.59,-133.33 1723.29,-128.26 1722.15,-135.16"/>
</g>
<!-- Node13&#45;&gt;Node11 -->
<g id="edge16" class="edge">
<title>Node13&#45;&gt;Node11</title>
<path fill="none" stroke="#63b8ff" d="M1722.99,-131.86C1512.48,-103.41 1454.36,-128.9 1248,-96 1239.95,-94.72 1231.36,-92.87 1223.36,-90.93"/>
<polygon fill="#63b8ff" stroke="#63b8ff" points="1722.22,-135.29 1732.61,-133.19 1723.18,-128.36 1722.22,-135.29"/>
</g>
<!-- Node14 -->
<g id="node14" class="node">
<title>Node14</title>
<g id="a_node14"><a xlink:href="fiscal__scenario_8h.html" target="_top" xlink:title=" ">
<polygon fill="white" stroke="#666666" points="2289.5,-90.5 2148.5,-90.5 2148.5,-71.5 2289.5,-71.5 2289.5,-90.5"/>
<text text-anchor="middle" x="2219" y="-78.5" font-family="Helvetica,sans-Serif" font-size="10.00">HealthGPS/fiscal_scenario.h</text>
</a>
</g>
</g>
<!-- Node13&#45;&gt;Node14 -->
<g id="edge17" class="edge">
<title>Node13&#45;&gt;Node14</title>
<path fill="none" stroke="#63b8ff" d="M1863.05,-136.58C1933.21,-126.99 2044.22,-111.38 2140,-96 2149.63,-94.45 2159.9,-92.71 2169.74,-90.98"/>
<polygon fill="#63b8ff" stroke="#63b8ff" points="1862.66,-133.1 1853.22,-137.92 1863.6,-140.04 1862.66,-133.1"/>
</g>
<!-- Node16 -->
<g id="node16" class="node">
<title>Node16</title>
<g id="a_node16"><a xlink:href="food__labelling__scenario_8h.html" target="_top" xlink:title=" ">
<polygon fill="white" stroke="#666666" points="2130.5,-96 2003.5,-96 2003.5,-66 2130.5,-66 2130.5,-96"/>
<text text-anchor="start" x="2011.5" y="-84" font-family="Helvetica,sans-Serif" font-size="10.00">HealthGPS/food_labelling</text>
<text text-anchor="middle" x="2067" y="-73" font-family="Helvetica,sans-Serif" font-size="10.00">_scenario.h</text>
</a>
</g>
</g>
<!-- Node13&#45;&gt;Node16 -->
<g id="edge20" class="edge">
<title>Node13&#45;&gt;Node16</title>
<path fill="none" stroke="#63b8ff" d="M1862.93,-129.67C1906.76,-119.43 1962.75,-106.35 2004.99,-96.48"/>
<polygon fill="#63b8ff" stroke="#63b8ff" points="1862.2,-126.24 1853.25,-131.93 1863.79,-133.06 1862.2,-126.24"/>
</g>
<!-- Node18 -->
<g id="node18" class="node">
<title>Node18</title>
<g id="a_node18"><a xlink:href="marketing__dynamic__scenario_8h.html" target="_top" xlink:title=" ">
<polygon fill="white" stroke="#666666" points="2418.5,-96 2307.5,-96 2307.5,-66 2418.5,-66 2418.5,-96"/>
<text text-anchor="start" x="2315.5" y="-84" font-family="Helvetica,sans-Serif" font-size="10.00">HealthGPS/marketing</text>
<text text-anchor="middle" x="2363" y="-73" font-family="Helvetica,sans-Serif" font-size="10.00">_dynamic_scenario.h</text>
</a>
</g>
</g>
<!-- Node13&#45;&gt;Node18 -->
<g id="edge23" class="edge">
<title>Node13&#45;&gt;Node18</title>
<path fill="none" stroke="#63b8ff" d="M1862.94,-141.68C1960.88,-135.05 2144.26,-120.48 2299,-96 2301.7,-95.57 2304.45,-95.1 2307.23,-94.6"/>
<polygon fill="#63b8ff" stroke="#63b8ff" points="1862.97,-138.17 1853.23,-142.33 1863.44,-145.16 1862.97,-138.17"/>
</g>
<!-- Node20 -->
<g id="node20" class="node">
<title>Node20</title>
<g id="a_node20"><a xlink:href="marketing__scenario_8h.html" target="_top" xlink:title=" ">
<polygon fill="white" stroke="#666666" points="1716.5,-96 1605.5,-96 1605.5,-66 1716.5,-66 1716.5,-96"/>
<text text-anchor="start" x="1613.5" y="-84" font-family="Helvetica,sans-Serif" font-size="10.00">HealthGPS/marketing</text>
<text text-anchor="middle" x="1661" y="-73" font-family="Helvetica,sans-Serif" font-size="10.00">_scenario.h</text>
</a>
</g>
</g>
<!-- Node13&#45;&gt;Node20 -->
<g id="edge26" class="edge">
<title>Node13&#45;&gt;Node20</title>
<path fill="none" stroke="#63b8ff" d="M1753.24,-126.72C1733.08,-116.95 1709.02,-105.28 1690.52,-96.31"/>
<polygon fill="#63b8ff" stroke="#63b8ff" points="1751.49,-129.76 1762.01,-130.98 1754.54,-123.46 1751.49,-129.76"/>
</g>
<!-- Node22 -->
<g id="node22" class="node">
<title>Node22</title>
<g id="a_node22"><a xlink:href="physical__activity__scenario_8h.html" target="_top" xlink:title=" ">
<polygon fill="white" stroke="#666666" points="1839,-96 1735,-96 1735,-66 1839,-66 1839,-96"/>
<text text-anchor="start" x="1743" y="-84" font-family="Helvetica,sans-Serif" font-size="10.00">HealthGPS/physical</text>
<text text-anchor="middle" x="1787" y="-73" font-family="Helvetica,sans-Serif" font-size="10.00">_activity_scenario.h</text>
</a>
</g>
</g>
<!-- Node13&#45;&gt;Node22 -->
<g id="edge29" class="edge">
<title>Node13&#45;&gt;Node22</title>
<path fill="none" stroke="#63b8ff" d="M1790.6,-120.39C1789.83,-112.13 1789,-103.28 1788.33,-96.16"/>
<polygon fill="#63b8ff" stroke="#63b8ff" points="1787.11,-120.66 1791.53,-130.29 1794.08,-120.01 1787.11,-120.66"/>
</g>
<!-- Node24 -->
<g id="node24" class="node">
<title>Node24</title>
<g id="a_node24"><a xlink:href="simple__policy__scenario_8h.html" target="_top" xlink:title=" ">
<polygon fill="white" stroke="#666666" points="1985,-96 1857,-96 1857,-66 1985,-66 1985,-96"/>
<text text-anchor="start" x="1865" y="-84" font-family="Helvetica,sans-Serif" font-size="10.00">HealthGPS/simple_policy</text>
<text text-anchor="middle" x="1921" y="-73" font-family="Helvetica,sans-Serif" font-size="10.00">_scenario.h</text>
</a>
</g>
</g>
<!-- Node13&#45;&gt;Node24 -->
<g id="edge32" class="edge">
<title>Node13&#45;&gt;Node24</title>
<path fill="none" stroke="#63b8ff" d="M1831.82,-126.59C1851.32,-116.84 1874.52,-105.24 1892.37,-96.31"/>
<polygon fill="#63b8ff" stroke="#63b8ff" points="1830.46,-123.36 1823.08,-130.96 1833.59,-129.62 1830.46,-123.36"/>
</g>
<!-- Node14&#45;&gt;Node8 -->
<g id="edge18" class="edge">
<title>Node14&#45;&gt;Node8</title>
<path fill="none" stroke="#63b8ff" d="M2159.57,-69.18C2152.98,-68.06 2146.35,-66.98 2140,-66 2019.05,-47.32 1988.26,-46.57 1867,-30 1855.3,-28.4 1842.84,-26.67 1830.83,-24.98"/>
<polygon fill="#63b8ff" stroke="#63b8ff" points="2158.65,-72.57 2169.1,-70.82 2159.84,-65.67 2158.65,-72.57"/>
</g>
<!-- Node15 -->
<g id="node15" class="node">
<title>Node15</title>
<g id="a_node15"><a xlink:href="fiscal__scenario_8cpp.html" target="_top" xlink:title=" ">
<polygon fill="white" stroke="#666666" points="2320,-24.5 2168,-24.5 2168,-5.5 2320,-5.5 2320,-24.5"/>
<text text-anchor="middle" x="2244" y="-12.5" font-family="Helvetica,sans-Serif" font-size="10.00">HealthGPS/fiscal_scenario.cpp</text>
</a>
</g>
</g>
<!-- Node14&#45;&gt;Node15 -->
<g id="edge19" class="edge">
<title>Node14&#45;&gt;Node15</title>
<path fill="none" stroke="#63b8ff" d="M2226.65,-60.43C2231.29,-48.55 2236.98,-33.96 2240.55,-24.82"/>
<polygon fill="#63b8ff" stroke="#63b8ff" points="2223.41,-59.1 2223.03,-69.69 2229.93,-61.65 2223.41,-59.1"/>
</g>
<!-- Node16&#45;&gt;Node8 -->
<g id="edge21" class="edge">
<title>Node16&#45;&gt;Node8</title>
<path fill="none" stroke="#63b8ff" d="M1992.32,-64.02C1934.58,-51.66 1856.78,-35 1809.62,-24.91"/>
<polygon fill="#63b8ff" stroke="#63b8ff" points="1991.23,-67.36 2001.74,-66.03 1992.7,-60.52 1991.23,-67.36"/>
</g>
<!-- Node17 -->
<g id="node17" class="node">
<title>Node17</title>
<g id="a_node17"><a xlink:href="food__labelling__scenario_8cpp.html" target="_top" xlink:title=" ">
<polygon fill="white" stroke="#666666" points="2149.5,-30 2022.5,-30 2022.5,0 2149.5,0 2149.5,-30"/>
<text text-anchor="start" x="2030.5" y="-18" font-family="Helvetica,sans-Serif" font-size="10.00">HealthGPS/food_labelling</text>
<text text-anchor="middle" x="2086" y="-7" font-family="Helvetica,sans-Serif" font-size="10.00">_scenario.cpp</text>
</a>
</g>
</g>
<!-- Node16&#45;&gt;Node17 -->
<g id="edge22" class="edge">
<title>Node16&#45;&gt;Node17</title>
<path fill="none" stroke="#63b8ff" d="M2074.43,-54.97C2076.93,-46.55 2079.63,-37.45 2081.8,-30.16"/>
<polygon fill="#63b8ff" stroke="#63b8ff" points="2071.14,-53.76 2071.65,-64.35 2077.85,-55.76 2071.14,-53.76"/>
</g>
<!-- Node18&#45;&gt;Node8 -->
<g id="edge24" class="edge">
<title>Node18&#45;&gt;Node8</title>
<path fill="none" stroke="#63b8ff" d="M2296.04,-65.68C2106.52,-37.88 2054.82,-51.09 1867,-30 1854.23,-28.57 1840.58,-26.79 1827.61,-24.99"/>
<polygon fill="#63b8ff" stroke="#63b8ff" points="2295.33,-69.11 2305.74,-67.12 2296.36,-62.19 2295.33,-69.11"/>
</g>
<!-- Node19 -->
<g id="node19" class="node">
<title>Node19</title>
<g id="a_node19"><a xlink:href="marketing__dynamic__scenario_8cpp.html" target="_top" xlink:title=" ">
<polygon fill="white" stroke="#666666" points="2457.5,-30 2338.5,-30 2338.5,0 2457.5,0 2457.5,-30"/>
<text text-anchor="start" x="2346.5" y="-18" font-family="Helvetica,sans-Serif" font-size="10.00">HealthGPS/marketing</text>
<text text-anchor="middle" x="2398" y="-7" font-family="Helvetica,sans-Serif" font-size="10.00">_dynamic_scenario.cpp</text>
</a>
</g>
</g>
<!-- Node18&#45;&gt;Node19 -->
<g id="edge25" class="edge">
<title>Node18&#45;&gt;Node19</title>
<path fill="none" stroke="#63b8ff" d="M2376.22,-55.83C2380.95,-47.17 2386.13,-37.7 2390.25,-30.16"/>
<polygon fill="#63b8ff" stroke="#63b8ff" points="2373.22,-54.02 2371.49,-64.47 2379.36,-57.37 2373.22,-54.02"/>
</g>
<!-- Node20&#45;&gt;Node8 -->
<g id="edge27" class="edge">
<title>Node20&#45;&gt;Node8</title>
<path fill="none" stroke="#63b8ff" d="M1694.79,-59.79C1714.33,-48.1 1737.95,-33.97 1752.98,-24.99"/>
<polygon fill="#63b8ff" stroke="#63b8ff" points="1693.1,-56.72 1686.31,-64.86 1696.69,-62.73 1693.1,-56.72"/>
</g>
<!-- Node21 -->
<g id="node21" class="node">
<title>Node21</title>
<g id="a_node21"><a xlink:href="marketing__scenario_8cpp.html" target="_top" xlink:title=" ">
<polygon fill="white" stroke="#666666" points="1528.5,-30 1417.5,-30 1417.5,0 1528.5,0 1528.5,-30"/>
<text text-anchor="start" x="1425.5" y="-18" font-family="Helvetica,sans-Serif" font-size="10.00">HealthGPS/marketing</text>
<text text-anchor="middle" x="1473" y="-7" font-family="Helvetica,sans-Serif" font-size="10.00">_scenario.cpp</text>
</a>
</g>
</g>
<!-- Node20&#45;&gt;Node21 -->
<g id="edge28" class="edge">
<title>Node20&#45;&gt;Node21</title>
<path fill="none" stroke="#63b8ff" d="M1607.94,-61.94C1578.65,-51.97 1542.77,-39.75 1515.37,-30.43"/>
<polygon fill="#63b8ff" stroke="#63b8ff" points="1606.78,-65.24 1617.38,-65.15 1609.04,-58.61 1606.78,-65.24"/>
</g>
<!-- Node22&#45;&gt;Node8 -->
<g id="edge30" class="edge">
<title>Node22&#45;&gt;Node8</title>
<path fill="none" stroke="#63b8ff" d="M1779.56,-54.93C1776.4,-44.31 1772.93,-32.61 1770.63,-24.84"/>
<polygon fill="#63b8ff" stroke="#63b8ff" points="1776.15,-55.76 1782.35,-64.35 1782.86,-53.76 1776.15,-55.76"/>
</g>
<!-- Node23 -->
<g id="node23" class="node">
<title>Node23</title>
<g id="a_node23"><a xlink:href="physical__activity__scenario_8cpp.html" target="_top" xlink:title=" ">
<polygon fill="white" stroke="#666666" points="1659.5,-30 1546.5,-30 1546.5,0 1659.5,0 1659.5,-30"/>
<text text-anchor="start" x="1554.5" y="-18" font-family="Helvetica,sans-Serif" font-size="10.00">HealthGPS/physical</text>
<text text-anchor="middle" x="1603" y="-7" font-family="Helvetica,sans-Serif" font-size="10.00">_activity_scenario.cpp</text>
</a>
</g>
</g>
<!-- Node22&#45;&gt;Node23 -->
<g id="edge31" class="edge">
<title>Node22&#45;&gt;Node23</title>
<path fill="none" stroke="#63b8ff" d="M1735.07,-61.94C1706.4,-51.97 1671.29,-39.75 1644.47,-30.43"/>
<polygon fill="#63b8ff" stroke="#63b8ff" points="1733.68,-65.16 1744.28,-65.14 1735.98,-58.55 1733.68,-65.16"/>
</g>
<!-- Node24&#45;&gt;Node8 -->
<g id="edge33" class="edge">
<title>Node24&#45;&gt;Node8</title>
<path fill="none" stroke="#63b8ff" d="M1876.11,-61.22C1847.55,-49.27 1811.85,-34.34 1789.48,-24.99"/>
<polygon fill="#63b8ff" stroke="#63b8ff" points="1874.69,-64.42 1885.27,-65.05 1877.39,-57.97 1874.69,-64.42"/>
</g>
<!-- Node25 -->
<g id="node25" class="node">
<title>Node25</title>
<g id="a_node25"><a xlink:href="simple__policy__scenario_8cpp.html" target="_top" xlink:title=" ">
<polygon fill="white" stroke="#666666" points="2004,-30 1876,-30 1876,0 2004,0 2004,-30"/>
<text text-anchor="start" x="1884" y="-18" font-family="Helvetica,sans-Serif" font-size="10.00">HealthGPS/simple_policy</text>
<text text-anchor="middle" x="1940" y="-7" font-family="Helvetica,sans-Serif" font-size="10.00">_scenario.cpp</text>
</a>
</g>
</g>
<!-- Node24&#45;&gt;Node25 -->
<g id="edge34" class="edge">
<title>Node24&#45;&gt;Node25</title>
<path fill="none" stroke="#63b8ff" d="M1928.43,-54.97C1930.93,-46.55 1933.63,-37.45 1935.8,-30.16"/>
<polygon fill="#63b8ff" stroke="#63b8ff" points="1925.14,-53.76 1925.65,-64.35 1931.85,-55.76 1925.14,-53.76"/>
</g>
<!-- Node27 -->
<g id="node27" class="node">
<title>Node27</title>
<g id="a_node27"><a xlink:href="runtime__context_8h.html" target="_top" xlink:title=" ">
<polygon fill="white" stroke="#666666" points="962,-420.5 816,-420.5 816,-401.5 962,-401.5 962,-420.5"/>
<text text-anchor="middle" x="889" y="-408.5" font-family="Helvetica,sans-Serif" font-size="10.00">HealthGPS/runtime_context.h</text>
</a>
</g>
</g>
<!-- Node26&#45;&gt;Node27 -->
<g id="edge36" class="edge">
<title>Node26&#45;&gt;Node27</title>
<path fill="none" stroke="#63b8ff" d="M937.88,-454.27C924.66,-442.84 909.17,-429.44 899.23,-420.84"/>
<polygon fill="#63b8ff" stroke="#63b8ff" points="935.58,-456.91 945.43,-460.81 940.16,-451.62 935.58,-456.91"/>
</g>
<!-- Node45 -->
<g id="node45" class="node">
<title>Node45</title>
<g id="a_node45"><a xlink:href="simulation_8h.html" target="_top" xlink:title=" ">
<polygon fill="white" stroke="#666666" points="618.5,-222.5 497.5,-222.5 497.5,-203.5 618.5,-203.5 618.5,-222.5"/>
<text text-anchor="middle" x="558" y="-210.5" font-family="Helvetica,sans-Serif" font-size="10.00">HealthGPS/simulation.h</text>
</a>
</g>
</g>
<!-- Node26&#45;&gt;Node45 -->
<g id="edge64" class="edge">
<title>Node26&#45;&gt;Node45</title>
<path fill="none" stroke="#63b8ff" d="M894.89,-471.32C708.32,-457.81 199.66,-416.11 151,-360 51.89,-245.73 360.96,-220.89 497.04,-215.5"/>
<polygon fill="#63b8ff" stroke="#63b8ff" points="894.44,-474.8 904.66,-472.02 894.94,-467.81 894.44,-474.8"/>
</g>
<!-- Node48 -->
<g id="node48" class="node">
<title>Node48</title>
<g id="a_node48"><a xlink:href="simulation__definition_8cpp.html" target="_top" xlink:title=" ">
<polygon fill="white" stroke="#666666" points="1093.5,-426 980.5,-426 980.5,-396 1093.5,-396 1093.5,-426"/>
<text text-anchor="start" x="988.5" y="-414" font-family="Helvetica,sans-Serif" font-size="10.00">HealthGPS/simulation</text>
<text text-anchor="middle" x="1037" y="-403" font-family="Helvetica,sans-Serif" font-size="10.00">_definition.cpp</text>
</a>
</g>
</g>
<!-- Node26&#45;&gt;Node48 -->
<g id="edge69" class="edge">
<title>Node26&#45;&gt;Node48</title>
<path fill="none" stroke="#63b8ff" d="M987.95,-454.42C998.63,-445.18 1010.81,-434.65 1020.37,-426.39"/>
<polygon fill="#63b8ff" stroke="#63b8ff" points="985.84,-451.62 980.57,-460.81 990.42,-456.91 985.84,-451.62"/>
</g>
<!-- Node28 -->
<g id="node28" class="node">
<title>Node28</title>
<g id="a_node28"><a xlink:href="analysis__module_8h.html" target="_top" xlink:title=" ">
<polygon fill="white" stroke="#666666" points="1021,-360 917,-360 917,-330 1021,-330 1021,-360"/>
<text text-anchor="start" x="925" y="-348" font-family="Helvetica,sans-Serif" font-size="10.00">HealthGPS/analysis</text>
<text text-anchor="middle" x="969" y="-337" font-family="Helvetica,sans-Serif" font-size="10.00">_module.h</text>
</a>
</g>
</g>
<!-- Node27&#45;&gt;Node28 -->
<g id="edge37" class="edge">
<title>Node27&#45;&gt;Node28</title>
<path fill="none" stroke="#63b8ff" d="M909.1,-393.92C921.95,-383.64 938.47,-370.43 950.9,-360.48"/>
<polygon fill="#63b8ff" stroke="#63b8ff" points="906.93,-391.18 901.31,-400.16 911.3,-396.64 906.93,-391.18"/>
</g>
<!-- Node31 -->
<g id="node31" class="node">
<title>Node31</title>
<g id="a_node31"><a xlink:href="healthgps_8h.html" target="_top" xlink:title=" ">
<polygon fill="white" stroke="#666666" points="951.5,-156.5 832.5,-156.5 832.5,-137.5 951.5,-137.5 951.5,-156.5"/>
<text text-anchor="middle" x="892" y="-144.5" font-family="Helvetica,sans-Serif" font-size="10.00">HealthGPS/healthgps.h</text>
</a>
</g>
</g>
<!-- Node27&#45;&gt;Node31 -->
<g id="edge55" class="edge">
<title>Node27&#45;&gt;Node31</title>
<path fill="none" stroke="#63b8ff" d="M889.23,-389.77C889.84,-336.44 891.48,-193.57 891.9,-156.75"/>
<polygon fill="#63b8ff" stroke="#63b8ff" points="885.73,-389.73 889.12,-399.77 892.73,-389.81 885.73,-389.73"/>
</g>
<!-- Node33 -->
<g id="node33" class="node">
<title>Node33</title>
<g id="a_node33"><a xlink:href="default__cancer__model_8cpp.html" target="_top" xlink:title=" ">
<polygon fill="white" stroke="#666666" points="1298.5,-360 1167.5,-360 1167.5,-330 1298.5,-330 1298.5,-360"/>
<text text-anchor="start" x="1175.5" y="-348" font-family="Helvetica,sans-Serif" font-size="10.00">HealthGPS/default_cancer</text>
<text text-anchor="middle" x="1233" y="-337" font-family="Helvetica,sans-Serif" font-size="10.00">_model.cpp</text>
</a>
</g>
</g>
<!-- Node27&#45;&gt;Node33 -->
<g id="edge46" class="edge">
<title>Node27&#45;&gt;Node33</title>
<path fill="none" stroke="#63b8ff" d="M948.29,-398.99C1002.8,-388.87 1085.85,-373.44 1158,-360 1161,-359.44 1164.06,-358.87 1167.15,-358.29"/>
<polygon fill="#63b8ff" stroke="#63b8ff" points="947.79,-395.53 938.6,-400.79 949.07,-402.41 947.79,-395.53"/>
</g>
<!-- Node34 -->
<g id="node34" class="node">
<title>Node34</title>
<g id="a_node34"><a xlink:href="default__disease__model_8cpp.html" target="_top" xlink:title=" ">
<polygon fill="white" stroke="#666666" points="1453,-360 1317,-360 1317,-330 1453,-330 1453,-360"/>
<text text-anchor="start" x="1325" y="-348" font-family="Helvetica,sans-Serif" font-size="10.00">HealthGPS/default_disease</text>
<text text-anchor="middle" x="1385" y="-337" font-family="Helvetica,sans-Serif" font-size="10.00">_model.cpp</text>
</a>
</g>
</g>
<!-- Node27&#45;&gt;Node34 -->
<g id="edge47" class="edge">
<title>Node27&#45;&gt;Node34</title>
<path fill="none" stroke="#63b8ff" d="M950.33,-399.23C957.62,-398.07 964.97,-396.97 972,-396 1120.78,-375.5 1159.35,-381.45 1308,-360 1310.82,-359.59 1313.7,-359.16 1316.61,-358.7"/>
<polygon fill="#63b8ff" stroke="#63b8ff" points="949.77,-395.77 940.45,-400.83 950.89,-402.68 949.77,-395.77"/>
</g>
<!-- Node35 -->
<g id="node35" class="node">
<title>Node35</title>
<g id="a_node35"><a xlink:href="demographic_8h.html" target="_top" xlink:title=" ">
<polygon fill="white" stroke="#666666" points="861,-354.5 729,-354.5 729,-335.5 861,-335.5 861,-354.5"/>
<text text-anchor="middle" x="795" y="-342.5" font-family="Helvetica,sans-Serif" font-size="10.00">HealthGPS/demographic.h</text>
</a>
</g>
</g>
<!-- Node27&#45;&gt;Node35 -->
<g id="edge48" class="edge">
<title>Node27&#45;&gt;Node35</title>
<path fill="none" stroke="#63b8ff" d="M866.58,-394.74C848.28,-382.28 823.06,-365.11 807.96,-354.82"/>
<polygon fill="#63b8ff" stroke="#63b8ff" points="864.44,-397.51 874.68,-400.25 868.38,-391.73 864.44,-397.51"/>
</g>
<!-- Node36 -->
<g id="node36" class="node">
<title>Node36</title>
<g id="a_node36"><a xlink:href="_health_g_p_s_2disease_8h.html" target="_top" xlink:title=" ">
<polygon fill="white" stroke="#666666" points="1149,-354.5 1039,-354.5 1039,-335.5 1149,-335.5 1149,-354.5"/>
<text text-anchor="middle" x="1094" y="-342.5" font-family="Helvetica,sans-Serif" font-size="10.00">HealthGPS/disease.h</text>
</a>
</g>
</g>
<!-- Node27&#45;&gt;Node36 -->
<g id="edge51" class="edge">
<title>Node27&#45;&gt;Node36</title>
<path fill="none" stroke="#63b8ff" d="M928.47,-397.68C968.58,-385.15 1029.74,-366.06 1065.41,-354.93"/>
<polygon fill="#63b8ff" stroke="#63b8ff" points="927.45,-394.33 918.95,-400.65 929.54,-401.01 927.45,-394.33"/>
</g>
<!-- Node38 -->
<g id="node38" class="node">
<title>Node38</title>
<g id="a_node38"><a xlink:href="energy__balance__model_8cpp.html" target="_top" xlink:title=" ">
<polygon fill="white" stroke="#666666" points="1608.5,-360 1471.5,-360 1471.5,-330 1608.5,-330 1608.5,-360"/>
<text text-anchor="start" x="1479.5" y="-348" font-family="Helvetica,sans-Serif" font-size="10.00">HealthGPS/energy_balance</text>
<text text-anchor="middle" x="1540" y="-337" font-family="Helvetica,sans-Serif" font-size="10.00">_model.cpp</text>
</a>
</g>
</g>
<!-- Node27&#45;&gt;Node38 -->
<g id="edge54" class="edge">
<title>Node27&#45;&gt;Node38</title>
<path fill="none" stroke="#63b8ff" d="M948.87,-399.22C956.63,-398.02 964.49,-396.91 972,-396 1188.79,-369.81 1245.35,-387.33 1462,-360 1465,-359.62 1468.07,-359.2 1471.16,-358.76"/>
<polygon fill="#63b8ff" stroke="#63b8ff" points="948.42,-395.74 939.1,-400.78 949.53,-402.65 948.42,-395.74"/>
</g>
<!-- Node39 -->
<g id="node39" class="node">
<title>Node39</title>
<g id="a_node39"><a xlink:href="hierarchical__model__static_8cpp.html" target="_top" xlink:title=" ">
<polygon fill="white" stroke="#666666" points="278,-360 160,-360 160,-330 278,-330 278,-360"/>
<text text-anchor="start" x="168" y="-348" font-family="Helvetica,sans-Serif" font-size="10.00">HealthGPS/hierarchical</text>
<text text-anchor="middle" x="219" y="-337" font-family="Helvetica,sans-Serif" font-size="10.00">_model_static.cpp</text>
</a>
</g>
</g>
<!-- Node27&#45;&gt;Node39 -->
<g id="edge56" class="edge">
<title>Node27&#45;&gt;Node39</title>
<path fill="none" stroke="#63b8ff" d="M804.61,-406.2C687.84,-400.2 470.59,-386.43 287,-360 284.14,-359.59 281.21,-359.13 278.26,-358.64"/>
<polygon fill="#63b8ff" stroke="#63b8ff" points="804.26,-409.68 814.43,-406.69 804.62,-402.69 804.26,-409.68"/>
</g>
<!-- Node40 -->
<g id="node40" class="node">
<title>Node40</title>
<g id="a_node40"><a xlink:href="riskfactor__adjustment_8h.html" target="_top" xlink:title=" ">
<polygon fill="white" stroke="#666666" points="711,-360 603,-360 603,-330 711,-330 711,-360"/>
<text text-anchor="start" x="611" y="-348" font-family="Helvetica,sans-Serif" font-size="10.00">HealthGPS/riskfactor</text>
<text text-anchor="middle" x="657" y="-337" font-family="Helvetica,sans-Serif" font-size="10.00">_adjustment.h</text>
</a>
</g>
</g>
<!-- Node27&#45;&gt;Node40 -->
<g id="edge57" class="edge">
<title>Node27&#45;&gt;Node40</title>
<path fill="none" stroke="#63b8ff" d="M845.88,-398.1C807.31,-387.46 750.67,-371.84 709.48,-360.48"/>
<polygon fill="#63b8ff" stroke="#63b8ff" points="844.71,-401.41 855.28,-400.7 846.57,-394.67 844.71,-401.41"/>
</g>
<!-- Node43 -->
<g id="node43" class="node">
<title>Node43</title>
<g id="a_node43"><a xlink:href="runtime__context_8cpp.html" target="_top" xlink:title=" ">
<polygon fill="white" stroke="#666666" points="453.5,-354.5 296.5,-354.5 296.5,-335.5 453.5,-335.5 453.5,-354.5"/>
<text text-anchor="middle" x="375" y="-342.5" font-family="Helvetica,sans-Serif" font-size="10.00">HealthGPS/runtime_context.cpp</text>
</a>
</g>
</g>
<!-- Node27&#45;&gt;Node43 -->
<g id="edge62" class="edge">
<title>Node27&#45;&gt;Node43</title>
<path fill="none" stroke="#63b8ff" d="M804.29,-401.17C718.03,-391.92 580.51,-376.47 462,-360 451.09,-358.48 439.43,-356.71 428.32,-354.95"/>
<polygon fill="#63b8ff" stroke="#63b8ff" points="803.77,-404.63 814.08,-402.21 804.51,-397.67 803.77,-404.63"/>
</g>
<!-- Node44 -->
<g id="node44" class="node">
<title>Node44</title>
<g id="a_node44"><a xlink:href="ses__noise__module_8cpp.html" target="_top" xlink:title=" ">
<polygon fill="white" stroke="#666666" points="584.5,-360 471.5,-360 471.5,-330 584.5,-330 584.5,-360"/>
<text text-anchor="start" x="479.5" y="-348" font-family="Helvetica,sans-Serif" font-size="10.00">HealthGPS/ses_noise</text>
<text text-anchor="middle" x="528" y="-337" font-family="Helvetica,sans-Serif" font-size="10.00">_module.cpp</text>
</a>
</g>
</g>
<!-- Node27&#45;&gt;Node44 -->
<g id="edge63" class="edge">
<title>Node27&#45;&gt;Node44</title>
<path fill="none" stroke="#63b8ff" d="M820.57,-399.22C760.69,-389.59 671.42,-374.77 594,-360 591.01,-359.43 587.94,-358.83 584.85,-358.21"/>
<polygon fill="#63b8ff" stroke="#63b8ff" points="819.85,-402.65 830.28,-400.78 820.96,-395.74 819.85,-402.65"/>
</g>
<!-- Node29 -->
<g id="node29" class="node">
<title>Node29</title>
<g id="a_node29"><a xlink:href="analysis__module_8cpp.html" target="_top" xlink:title=" ">
<polygon fill="white" stroke="#666666" points="1021,-294 917,-294 917,-264 1021,-264 1021,-294"/>
<text text-anchor="start" x="925" y="-282" font-family="Helvetica,sans-Serif" font-size="10.00">HealthGPS/analysis</text>
<text text-anchor="middle" x="969" y="-271" font-family="Helvetica,sans-Serif" font-size="10.00">_module.cpp</text>
</a>
</g>
</g>
<!-- Node28&#45;&gt;Node29 -->
<g id="edge38" class="edge">
<title>Node28&#45;&gt;Node29</title>
<path fill="none" stroke="#63b8ff" d="M969,-318.39C969,-310.13 969,-301.28 969,-294.16"/>
<polygon fill="#63b8ff" stroke="#63b8ff" points="965.5,-318.28 969,-328.28 972.5,-318.28 965.5,-318.28"/>
</g>
<!-- Node30 -->
<g id="node30" class="node">
<title>Node30</title>
<g id="a_node30"><a xlink:href="simulation__module_8h.html" target="_top" xlink:title=" ">
<polygon fill="white" stroke="#666666" points="1095.5,-228 982.5,-228 982.5,-198 1095.5,-198 1095.5,-228"/>
<text text-anchor="start" x="990.5" y="-216" font-family="Helvetica,sans-Serif" font-size="10.00">HealthGPS/simulation</text>
<text text-anchor="middle" x="1039" y="-205" font-family="Helvetica,sans-Serif" font-size="10.00">_module.h</text>
</a>
</g>
</g>
<!-- Node28&#45;&gt;Node30 -->
<g id="edge39" class="edge">
<title>Node28&#45;&gt;Node30</title>
<path fill="none" stroke="#63b8ff" d="M1003.92,-322.9C1013.96,-315.09 1023.84,-305.33 1030,-294 1041.28,-273.25 1041.59,-245.03 1040.5,-228.25"/>
<polygon fill="#63b8ff" stroke="#63b8ff" points="1002.05,-319.94 996,-328.63 1006.15,-325.61 1002.05,-319.94"/>
</g>
<!-- Node30&#45;&gt;Node11 -->
<g id="edge40" class="edge">
<title>Node30&#45;&gt;Node11</title>
<path fill="none" stroke="#63b8ff" d="M1067.98,-191.04C1079.68,-182.31 1093.19,-171.92 1105,-162 1134.35,-137.34 1166.97,-105.75 1182.23,-90.71"/>
<polygon fill="#63b8ff" stroke="#63b8ff" points="1066.23,-187.98 1060.26,-196.73 1070.39,-193.61 1066.23,-187.98"/>
</g>
<!-- Node30&#45;&gt;Node31 -->
<g id="edge41" class="edge">
<title>Node30&#45;&gt;Node31</title>
<path fill="none" stroke="#63b8ff" d="M995.51,-193.06C968.13,-181.14 934.04,-166.3 912.64,-156.99"/>
<polygon fill="#63b8ff" stroke="#63b8ff" points="994.06,-196.25 1004.62,-197.03 996.85,-189.83 994.06,-196.25"/>
</g>
<!-- Node32 -->
<g id="node32" class="node">
<title>Node32</title>
<g id="a_node32"><a xlink:href="simulation__module_8cpp.html" target="_top" xlink:title=" ">
<polygon fill="white" stroke="#666666" points="1095.5,-162 982.5,-162 982.5,-132 1095.5,-132 1095.5,-162"/>
<text text-anchor="start" x="990.5" y="-150" font-family="Helvetica,sans-Serif" font-size="10.00">HealthGPS/simulation</text>
<text text-anchor="middle" x="1039" y="-139" font-family="Helvetica,sans-Serif" font-size="10.00">_module.cpp</text>
</a>
</g>
</g>
<!-- Node30&#45;&gt;Node32 -->
<g id="edge45" class="edge">
<title>Node30&#45;&gt;Node32</title>
<path fill="none" stroke="#63b8ff" d="M1039,-186.39C1039,-178.13 1039,-169.28 1039,-162.16"/>
<polygon fill="#63b8ff" stroke="#63b8ff" points="1035.5,-186.28 1039,-196.28 1042.5,-186.28 1035.5,-186.28"/>
</g>
<!-- Node31&#45;&gt;Node4 -->
<g id="edge44" class="edge">
<title>Node31&#45;&gt;Node4</title>
<path fill="none" stroke="#63b8ff" d="M821.13,-137.11C721.77,-124.64 542.54,-102.15 446.65,-90.11"/>
<polygon fill="#63b8ff" stroke="#63b8ff" points="820.39,-140.54 830.75,-138.31 821.26,-133.6 820.39,-140.54"/>
</g>
<!-- Node31&#45;&gt;Node7 -->
<g id="edge42" class="edge">
<title>Node31&#45;&gt;Node7</title>
<path fill="none" stroke="#63b8ff" d="M953.98,-135.17C960.73,-134.06 967.51,-132.99 974,-132 1094.13,-113.77 1124.65,-112.68 1245,-96 1256.46,-94.41 1268.68,-92.68 1280.44,-90.99"/>
<polygon fill="#63b8ff" stroke="#63b8ff" points="953.48,-131.7 944.19,-136.8 954.63,-138.61 953.48,-131.7"/>
</g>
<!-- Node31&#45;&gt;Node11 -->
<g id="edge43" class="edge">
<title>Node31&#45;&gt;Node11</title>
<path fill="none" stroke="#63b8ff" d="M945.09,-134.64C1003.46,-122.14 1096.04,-102.33 1149.39,-90.91"/>
<polygon fill="#63b8ff" stroke="#63b8ff" points="944.42,-131.2 935.37,-136.72 945.88,-138.05 944.42,-131.2"/>
</g>
<!-- Node35&#45;&gt;Node3 -->
<g id="edge49" class="edge">
<title>Node35&#45;&gt;Node3</title>
<path fill="none" stroke="#63b8ff" d="M782.55,-325.9C774.22,-313.77 763.61,-298.34 757.07,-288.82"/>
<polygon fill="#63b8ff" stroke="#63b8ff" points="779.48,-327.6 788.02,-333.85 785.24,-323.63 779.48,-327.6"/>
</g>
<!-- Node35&#45;&gt;Node30 -->
<g id="edge50" class="edge">
<title>Node35&#45;&gt;Node30</title>
<path fill="none" stroke="#63b8ff" d="M814.51,-327.87C836.29,-310.43 873.06,-282.65 908,-264 935.06,-249.56 967.22,-237.22 992.9,-228.41"/>
<polygon fill="#63b8ff" stroke="#63b8ff" points="812.36,-325.11 806.8,-334.12 816.77,-330.54 812.36,-325.11"/>
</g>
<!-- Node36&#45;&gt;Node30 -->
<g id="edge53" class="edge">
<title>Node36&#45;&gt;Node30</title>
<path fill="none" stroke="#63b8ff" d="M1140.31,-331.61C1181.22,-318.31 1231.06,-294.87 1208,-264 1194.36,-245.74 1139.35,-231.8 1095.74,-223.33"/>
<polygon fill="#63b8ff" stroke="#63b8ff" points="1139.31,-328.26 1130.79,-334.56 1141.38,-334.94 1139.31,-328.26"/>
</g>
<!-- Node37 -->
<g id="node37" class="node">
<title>Node37</title>
<g id="a_node37"><a xlink:href="disease_8cpp.html" target="_top" xlink:title=" ">
<polygon fill="white" stroke="#666666" points="1198.5,-288.5 1077.5,-288.5 1077.5,-269.5 1198.5,-269.5 1198.5,-288.5"/>
<text text-anchor="middle" x="1138" y="-276.5" font-family="Helvetica,sans-Serif" font-size="10.00">HealthGPS/disease.cpp</text>
</a>
</g>
</g>
<!-- Node36&#45;&gt;Node37 -->
<g id="edge52" class="edge">
<title>Node36&#45;&gt;Node37</title>
<path fill="none" stroke="#63b8ff" d="M1106.45,-325.9C1114.78,-313.77 1125.39,-298.34 1131.93,-288.82"/>
<polygon fill="#63b8ff" stroke="#63b8ff" points="1103.76,-323.63 1100.98,-333.85 1109.52,-327.6 1103.76,-323.63"/>
</g>
<!-- Node40&#45;&gt;Node5 -->
<g id="edge61" class="edge">
<title>Node40&#45;&gt;Node5</title>
<path fill="none" stroke="#63b8ff" d="M591.35,-329.68C518.64,-314.48 446.48,-300.11 398.46,-290.66"/>
<polygon fill="#63b8ff" stroke="#63b8ff" points="590.56,-333.09 601.06,-331.71 592,-326.24 590.56,-333.09"/>
</g>
<!-- Node41 -->
<g id="node41" class="node">
<title>Node41</title>
<g id="a_node41"><a xlink:href="riskfactor_8h.html" target="_top" xlink:title=" ">
<polygon fill="white" stroke="#666666" points="661,-288.5 545,-288.5 545,-269.5 661,-269.5 661,-288.5"/>
<text text-anchor="middle" x="603" y="-276.5" font-family="Helvetica,sans-Serif" font-size="10.00">HealthGPS/riskfactor.h</text>
</a>
</g>
</g>
<!-- Node40&#45;&gt;Node41 -->
<g id="edge58" class="edge">
<title>Node40&#45;&gt;Node41</title>
<path fill="none" stroke="#63b8ff" d="M637.83,-321.28C628.37,-310.07 617.51,-297.19 610.46,-288.84"/>
<polygon fill="#63b8ff" stroke="#63b8ff" points="634.92,-323.25 644.04,-328.64 640.27,-318.74 634.92,-323.25"/>
</g>
<!-- Node41&#45;&gt;Node30 -->
<g id="edge60" class="edge">
<title>Node41&#45;&gt;Node30</title>
<path fill="none" stroke="#63b8ff" d="M655.15,-266.89C660.49,-265.86 665.85,-264.88 671,-264 780.64,-245.29 909.61,-229.09 982.08,-220.52"/>
<polygon fill="#63b8ff" stroke="#63b8ff" points="654.89,-263.37 645.75,-268.74 656.24,-270.24 654.89,-263.37"/>
</g>
<!-- Node42 -->
<g id="node42" class="node">
<title>Node42</title>
<g id="a_node42"><a xlink:href="riskfactor_8cpp.html" target="_top" xlink:title=" ">
<polygon fill="white" stroke="#666666" points="763.5,-222.5 636.5,-222.5 636.5,-203.5 763.5,-203.5 763.5,-222.5"/>
<text text-anchor="middle" x="700" y="-210.5" font-family="Helvetica,sans-Serif" font-size="10.00">HealthGPS/riskfactor.cpp</text>
</a>
</g>
</g>
<!-- Node41&#45;&gt;Node42 -->
<g id="edge59" class="edge">
<title>Node41&#45;&gt;Node42</title>
<path fill="none" stroke="#63b8ff" d="M625.87,-262.91C644.78,-250.44 670.97,-233.15 686.63,-222.82"/>
<polygon fill="#63b8ff" stroke="#63b8ff" points="624.17,-259.84 617.75,-268.27 628.03,-265.68 624.17,-259.84"/>
</g>
<!-- Node45&#45;&gt;Node31 -->
<g id="edge65" class="edge">
<title>Node45&#45;&gt;Node31</title>
<path fill="none" stroke="#63b8ff" d="M612.88,-200.79C617.65,-199.84 622.41,-198.9 627,-198 702.58,-183.2 790.45,-166.78 843.61,-156.93"/>
<polygon fill="#63b8ff" stroke="#63b8ff" points="612.38,-197.32 603.27,-202.72 613.76,-204.19 612.38,-197.32"/>
</g>
<!-- Node46 -->
<g id="node46" class="node">
<title>Node46</title>
<g id="a_node46"><a xlink:href="modelrunner_8h.html" target="_top" xlink:title=" ">
<polygon fill="white" stroke="#666666" points="717,-156.5 587,-156.5 587,-137.5 717,-137.5 717,-156.5"/>
<text text-anchor="middle" x="652" y="-144.5" font-family="Helvetica,sans-Serif" font-size="10.00">HealthGPS/modelrunner.h</text>
</a>
</g>
</g>
<!-- Node45&#45;&gt;Node46 -->
<g id="edge66" class="edge">
<title>Node45&#45;&gt;Node46</title>
<path fill="none" stroke="#63b8ff" d="M580.42,-196.74C598.72,-184.28 623.94,-167.11 639.04,-156.82"/>
<polygon fill="#63b8ff" stroke="#63b8ff" points="578.62,-193.73 572.32,-202.25 582.56,-199.51 578.62,-193.73"/>
</g>
<!-- Node46&#45;&gt;Node11 -->
<g id="edge67" class="edge">
<title>Node46&#45;&gt;Node11</title>
<path fill="none" stroke="#63b8ff" d="M728.7,-136.89C842.92,-123.33 1054.12,-98.25 1146.16,-87.32"/>
<polygon fill="#63b8ff" stroke="#63b8ff" points="728.3,-133.42 718.79,-138.07 729.13,-140.37 728.3,-133.42"/>
</g>
<!-- Node47 -->
<g id="node47" class="node">
<title>Node47</title>
<g id="a_node47"><a xlink:href="modelrunner_8cpp.html" target="_top" xlink:title=" ">
<polygon fill="white" stroke="#666666" points="722,-90.5 582,-90.5 582,-71.5 722,-71.5 722,-90.5"/>
<text text-anchor="middle" x="652" y="-78.5" font-family="Helvetica,sans-Serif" font-size="10.00">HealthGPS/modelrunner.cpp</text>
</a>
</g>
</g>
<!-- Node46&#45;&gt;Node47 -->
<g id="edge68" class="edge">
<title>Node46&#45;&gt;Node47</title>
<path fill="none" stroke="#63b8ff" d="M652,-125.68C652,-113.94 652,-99.77 652,-90.82"/>
<polygon fill="#63b8ff" stroke="#63b8ff" points="648.5,-125.59 652,-135.59 655.5,-125.59 648.5,-125.59"/>
</g>
</g>
</svg>
