<?xml version="1.0" encoding="UTF-8" standalone="no"?>
<!DOCTYPE svg PUBLIC "-//W3C//DTD SVG 1.1//EN"
 "http://www.w3.org/Graphics/SVG/1.1/DTD/svg11.dtd">
<!-- Generated by graphviz version 2.43.0 (0)
 -->
<!-- Title: HealthGPS.Core/thread_util.h Pages: 1 -->
<svg width="342pt" height="95pt"
 viewBox="0.00 0.00 342.00 95.00" xmlns="http://www.w3.org/2000/svg" xmlns:xlink="http://www.w3.org/1999/xlink">
<g id="graph0" class="graph" transform="scale(1 1) rotate(0) translate(4 91)">
<title>HealthGPS.Core/thread_util.h</title>
<!-- Node1 -->
<g id="node1" class="node">
<title>Node1</title>
<g id="a_node1"><a xlink:title=" ">
<polygon fill="#bfbfbf" stroke="black" points="106,-56.5 106,-86.5 234,-86.5 234,-56.5 106,-56.5"/>
<text text-anchor="start" x="114" y="-74.5" font-family="Helvetica,sans-Serif" font-size="10.00">HealthGPS.Core/thread</text>
<text text-anchor="middle" x="170" y="-63.5" font-family="Helvetica,sans-Serif" font-size="10.00">_util.h</text>
</a>
</g>
</g>
<!-- Node2 -->
<g id="node2" class="node">
<title>Node2</title>
<g id="a_node2"><a xlink:title=" ">
<polygon fill="none" stroke="#bfbfbf" points="0,-0.5 0,-19.5 64,-19.5 64,-0.5 0,-0.5"/>
<text text-anchor="middle" x="32" y="-7.5" font-family="Helvetica,sans-Serif" font-size="10.00">execution</text>
</a>
</g>
</g>
<!-- Node1&#45;&gt;Node2 -->
<g id="edge1" class="edge">
<title>Node1&#45;&gt;Node2</title>
<path fill="none" stroke="midnightblue" d="M137.3,-56.4C114.25,-46.46 83.64,-33.26 61.37,-23.66"/>
<polygon fill="midnightblue" stroke="midnightblue" points="62.65,-20.4 52.08,-19.66 59.88,-26.83 62.65,-20.4"/>
</g>
<!-- Node3 -->
<g id="node3" class="node">
<title>Node3</title>
<g id="a_node3"><a xlink:title=" ">
<polygon fill="none" stroke="#bfbfbf" points="82,-0.5 82,-19.5 128,-19.5 128,-0.5 82,-0.5"/>
<text text-anchor="middle" x="105" y="-7.5" font-family="Helvetica,sans-Serif" font-size="10.00">future</text>
</a>
</g>
</g>
<!-- Node1&#45;&gt;Node3 -->
<g id="edge2" class="edge">
<title>Node1&#45;&gt;Node3</title>
<path fill="none" stroke="midnightblue" d="M154.6,-56.4C144.76,-47.4 132.01,-35.72 121.89,-26.47"/>
<polygon fill="midnightblue" stroke="midnightblue" points="124.2,-23.83 114.46,-19.66 119.47,-28.99 124.2,-23.83"/>
</g>
<!-- Node4 -->
<g id="node4" class="node">
<title>Node4</title>
<g id="a_node4"><a xlink:title=" ">
<polygon fill="none" stroke="#bfbfbf" points="146,-0.5 146,-19.5 194,-19.5 194,-0.5 146,-0.5"/>
<text text-anchor="middle" x="170" y="-7.5" font-family="Helvetica,sans-Serif" font-size="10.00">mutex</text>
</a>
</g>
</g>
<!-- Node1&#45;&gt;Node4 -->
<g id="edge3" class="edge">
<title>Node1&#45;&gt;Node4</title>
<path fill="none" stroke="midnightblue" d="M170,-56.4C170,-48.47 170,-38.46 170,-29.86"/>
<polygon fill="midnightblue" stroke="midnightblue" points="173.5,-29.66 170,-19.66 166.5,-29.66 173.5,-29.66"/>
</g>
<!-- Node5 -->
<g id="node5" class="node">
<title>Node5</title>
<g id="a_node5"><a xlink:title=" ">
<polygon fill="none" stroke="#bfbfbf" points="212,-0.5 212,-19.5 268,-19.5 268,-0.5 212,-0.5"/>
<text text-anchor="middle" x="240" y="-7.5" font-family="Helvetica,sans-Serif" font-size="10.00">numeric</text>
</a>
</g>
</g>
<!-- Node1&#45;&gt;Node5 -->
<g id="edge4" class="edge">
<title>Node1&#45;&gt;Node5</title>
<path fill="none" stroke="midnightblue" d="M186.59,-56.4C197.29,-47.31 211.19,-35.49 222.13,-26.19"/>
<polygon fill="midnightblue" stroke="midnightblue" points="224.46,-28.8 229.81,-19.66 219.93,-23.47 224.46,-28.8"/>
</g>
<!-- Node6 -->
<g id="node6" class="node">
<title>Node6</title>
<g id="a_node6"><a xlink:title=" ">
<polygon fill="none" stroke="#bfbfbf" points="286,-0.5 286,-19.5 334,-19.5 334,-0.5 286,-0.5"/>
<text text-anchor="middle" x="310" y="-7.5" font-family="Helvetica,sans-Serif" font-size="10.00">thread</text>
</a>
</g>
</g>
<!-- Node1&#45;&gt;Node6 -->
<g id="edge5" class="edge">
<title>Node1&#45;&gt;Node6</title>
<path fill="none" stroke="midnightblue" d="M203.18,-56.4C226.56,-46.46 257.61,-33.26 280.21,-23.66"/>
<polygon fill="midnightblue" stroke="midnightblue" points="281.79,-26.79 289.63,-19.66 279.06,-20.35 281.79,-26.79"/>
</g>
</g>
</svg>
