<?xml version="1.0" encoding="UTF-8" standalone="no"?>
<!DOCTYPE svg PUBLIC "-//W3C//DTD SVG 1.1//EN"
 "http://www.w3.org/Graphics/SVG/1.1/DTD/svg11.dtd">
<!-- Generated by graphviz version 2.43.0 (0)
 -->
<!-- Title: HealthGPS.Core/thread_util.h Pages: 1 -->
<svg width="1554pt" height="106pt"
 viewBox="0.00 0.00 1553.50 106.00" xmlns="http://www.w3.org/2000/svg" xmlns:xlink="http://www.w3.org/1999/xlink">
<g id="graph0" class="graph" transform="scale(1 1) rotate(0) translate(4 102)">
<title>HealthGPS.Core/thread_util.h</title>
<!-- Node1 -->
<g id="node1" class="node">
<title>Node1</title>
<g id="a_node1"><a xlink:title=" ">
<polygon fill="#bfbfbf" stroke="black" points="709,-67.5 709,-97.5 837,-97.5 837,-67.5 709,-67.5"/>
<text text-anchor="start" x="717" y="-85.5" font-family="Helvetica,sans-Serif" font-size="10.00">HealthGPS.Core/thread</text>
<text text-anchor="middle" x="773" y="-74.5" font-family="Helvetica,sans-Serif" font-size="10.00">_util.h</text>
</a>
</g>
</g>
<!-- Node2 -->
<g id="node2" class="node">
<title>Node2</title>
<g id="a_node2"><a xlink:href="analysis__module_8cpp.html" target="_top" xlink:title=" ">
<polygon fill="none" stroke="black" points="0,-0.5 0,-30.5 112,-30.5 112,-0.5 0,-0.5"/>
<text text-anchor="start" x="8" y="-18.5" font-family="Helvetica,sans-Serif" font-size="10.00">HealthGPS/analysis</text>
<text text-anchor="middle" x="56" y="-7.5" font-family="Helvetica,sans-Serif" font-size="10.00">_module.cpp</text>
</a>
</g>
</g>
<!-- Node1&#45;&gt;Node2 -->
<g id="edge1" class="edge">
<title>Node1&#45;&gt;Node2</title>
<path fill="none" stroke="midnightblue" d="M698.51,-79.17C577,-74.61 328.85,-62.07 121,-31 118.14,-30.57 115.22,-30.09 112.28,-29.57"/>
<polygon fill="midnightblue" stroke="midnightblue" points="698.68,-82.68 708.8,-79.55 698.94,-75.69 698.68,-82.68"/>
</g>
<!-- Node3 -->
<g id="node3" class="node">
<title>Node3</title>
<g id="a_node3"><a xlink:href="default__cancer__model_8cpp.html" target="_top" xlink:title=" ">
<polygon fill="none" stroke="black" points="130.5,-0.5 130.5,-30.5 273.5,-30.5 273.5,-0.5 130.5,-0.5"/>
<text text-anchor="start" x="138.5" y="-18.5" font-family="Helvetica,sans-Serif" font-size="10.00">HealthGPS/default_cancer</text>
<text text-anchor="middle" x="202" y="-7.5" font-family="Helvetica,sans-Serif" font-size="10.00">_model.cpp</text>
</a>
</g>
</g>
<!-- Node1&#45;&gt;Node3 -->
<g id="edge2" class="edge">
<title>Node1&#45;&gt;Node3</title>
<path fill="none" stroke="midnightblue" d="M698.64,-75.64C602.27,-67.64 429.14,-51.87 282,-31 279.34,-30.62 276.64,-30.22 273.92,-29.8"/>
<polygon fill="midnightblue" stroke="midnightblue" points="698.61,-79.15 708.86,-76.49 699.18,-72.17 698.61,-79.15"/>
</g>
<!-- Node4 -->
<g id="node4" class="node">
<title>Node4</title>
<g id="a_node4"><a xlink:href="default__disease__model_8cpp.html" target="_top" xlink:title=" ">
<polygon fill="none" stroke="black" points="291.5,-0.5 291.5,-30.5 440.5,-30.5 440.5,-0.5 291.5,-0.5"/>
<text text-anchor="start" x="299.5" y="-18.5" font-family="Helvetica,sans-Serif" font-size="10.00">HealthGPS/default_disease</text>
<text text-anchor="middle" x="366" y="-7.5" font-family="Helvetica,sans-Serif" font-size="10.00">_model.cpp</text>
</a>
</g>
</g>
<!-- Node1&#45;&gt;Node4 -->
<g id="edge3" class="edge">
<title>Node1&#45;&gt;Node4</title>
<path fill="none" stroke="midnightblue" d="M698.44,-70.28C632.73,-60.29 534.44,-45.12 449,-31 446.26,-30.55 443.47,-30.08 440.65,-29.61"/>
<polygon fill="midnightblue" stroke="midnightblue" points="698.29,-73.79 708.7,-71.83 699.34,-66.87 698.29,-73.79"/>
</g>
<!-- Node5 -->
<g id="node5" class="node">
<title>Node5</title>
<g id="a_node5"><a xlink:href="demographic_8cpp.html" target="_top" xlink:title=" ">
<polygon fill="none" stroke="black" points="458.5,-6 458.5,-25 613.5,-25 613.5,-6 458.5,-6"/>
<text text-anchor="middle" x="536" y="-13" font-family="Helvetica,sans-Serif" font-size="10.00">HealthGPS/demographic.cpp</text>
</a>
</g>
</g>
<!-- Node1&#45;&gt;Node5 -->
<g id="edge4" class="edge">
<title>Node1&#45;&gt;Node5</title>
<path fill="none" stroke="midnightblue" d="M712.22,-64.83C665.84,-52.11 603.84,-35.11 567.1,-25.03"/>
<polygon fill="midnightblue" stroke="midnightblue" points="711.3,-68.21 721.87,-67.48 713.15,-61.46 711.3,-68.21"/>
</g>
<!-- Node6 -->
<g id="node6" class="node">
<title>Node6</title>
<g id="a_node6"><a xlink:href="disease_8cpp.html" target="_top" xlink:title=" ">
<polygon fill="none" stroke="black" points="631.5,-6 631.5,-25 760.5,-25 760.5,-6 631.5,-6"/>
<text text-anchor="middle" x="696" y="-13" font-family="Helvetica,sans-Serif" font-size="10.00">HealthGPS/disease.cpp</text>
</a>
</g>
</g>
<!-- Node1&#45;&gt;Node6 -->
<g id="edge5" class="edge">
<title>Node1&#45;&gt;Node6</title>
<path fill="none" stroke="midnightblue" d="M748.33,-60.67C734.11,-48.67 716.99,-34.22 706.3,-25.19"/>
<polygon fill="midnightblue" stroke="midnightblue" points="746.39,-63.62 756.29,-67.4 750.91,-58.27 746.39,-63.62"/>
</g>
<!-- Node7 -->
<g id="node7" class="node">
<title>Node7</title>
<g id="a_node7"><a xlink:href="event__bus_8cpp.html" target="_top" xlink:title=" ">
<polygon fill="none" stroke="black" points="779,-6 779,-25 921,-25 921,-6 779,-6"/>
<text text-anchor="middle" x="850" y="-13" font-family="Helvetica,sans-Serif" font-size="10.00">HealthGPS/event_bus.cpp</text>
</a>
</g>
</g>
<!-- Node1&#45;&gt;Node7 -->
<g id="edge6" class="edge">
<title>Node1&#45;&gt;Node7</title>
<path fill="none" stroke="midnightblue" d="M797.67,-60.67C811.89,-48.67 829.01,-34.22 839.7,-25.19"/>
<polygon fill="midnightblue" stroke="midnightblue" points="795.09,-58.27 789.71,-67.4 799.61,-63.62 795.09,-58.27"/>
</g>
<!-- Node8 -->
<g id="node8" class="node">
<title>Node8</title>
<g id="a_node8"><a xlink:href="healthgps_8cpp.html" target="_top" xlink:title=" ">
<polygon fill="none" stroke="black" points="939,-6 939,-25 1079,-25 1079,-6 939,-6"/>
<text text-anchor="middle" x="1009" y="-13" font-family="Helvetica,sans-Serif" font-size="10.00">HealthGPS/healthgps.cpp</text>
</a>
</g>
</g>
<!-- Node1&#45;&gt;Node8 -->
<g id="edge7" class="edge">
<title>Node1&#45;&gt;Node8</title>
<path fill="none" stroke="midnightblue" d="M833.81,-64.75C879.97,-52.04 941.52,-35.09 978.03,-25.03"/>
<polygon fill="midnightblue" stroke="midnightblue" points="832.63,-61.45 823.92,-67.48 834.49,-68.19 832.63,-61.45"/>
</g>
<!-- Node9 -->
<g id="node9" class="node">
<title>Node9</title>
<g id="a_node9"><a xlink:href="riskfactor__adjustment_8cpp.html" target="_top" xlink:title=" ">
<polygon fill="none" stroke="black" points="1097,-0.5 1097,-30.5 1215,-30.5 1215,-0.5 1097,-0.5"/>
<text text-anchor="start" x="1105" y="-18.5" font-family="Helvetica,sans-Serif" font-size="10.00">HealthGPS/riskfactor</text>
<text text-anchor="middle" x="1156" y="-7.5" font-family="Helvetica,sans-Serif" font-size="10.00">_adjustment.cpp</text>
</a>
</g>
</g>
<!-- Node1&#45;&gt;Node9 -->
<g id="edge8" class="edge">
<title>Node1&#45;&gt;Node9</title>
<path fill="none" stroke="midnightblue" d="M847.11,-70.71C911.06,-61.14 1005.83,-46.34 1088,-31 1090.85,-30.47 1093.76,-29.91 1096.7,-29.33"/>
<polygon fill="midnightblue" stroke="midnightblue" points="846.49,-67.27 837.12,-72.2 847.52,-74.19 846.49,-67.27"/>
</g>
<!-- Node10 -->
<g id="node10" class="node">
<title>Node10</title>
<g id="a_node10"><a xlink:href="ses__noise__module_8cpp.html" target="_top" xlink:title=" ">
<polygon fill="none" stroke="black" points="1233.5,-0.5 1233.5,-30.5 1352.5,-30.5 1352.5,-0.5 1233.5,-0.5"/>
<text text-anchor="start" x="1241.5" y="-18.5" font-family="Helvetica,sans-Serif" font-size="10.00">HealthGPS/ses_noise</text>
<text text-anchor="middle" x="1293" y="-7.5" font-family="Helvetica,sans-Serif" font-size="10.00">_module.cpp</text>
</a>
</g>
</g>
<!-- Node1&#45;&gt;Node10 -->
<g id="edge9" class="edge">
<title>Node1&#45;&gt;Node10</title>
<path fill="none" stroke="midnightblue" d="M847.18,-75.39C936.8,-67.49 1091.98,-52.21 1224,-31 1227.02,-30.51 1230.11,-29.99 1233.23,-29.43"/>
<polygon fill="midnightblue" stroke="midnightblue" points="846.78,-71.91 837.12,-76.26 847.38,-78.88 846.78,-71.91"/>
</g>
<!-- Node11 -->
<g id="node11" class="node">
<title>Node11</title>
<g id="a_node11"><a xlink:href="program_8cpp.html" target="_top" xlink:title=" ">
<polygon fill="none" stroke="black" points="1370.5,-6 1370.5,-25 1545.5,-25 1545.5,-6 1370.5,-6"/>
<text text-anchor="middle" x="1458" y="-13" font-family="Helvetica,sans-Serif" font-size="10.00">HealthGPS.Console/program.cpp</text>
</a>
</g>
</g>
<!-- Node1&#45;&gt;Node11 -->
<g id="edge10" class="edge">
<title>Node1&#45;&gt;Node11</title>
<path fill="none" stroke="midnightblue" d="M847.36,-76.67C959.24,-69.05 1177.42,-52.83 1362,-31 1376.23,-29.32 1391.59,-27.15 1405.77,-25.01"/>
<polygon fill="midnightblue" stroke="midnightblue" points="846.94,-73.19 837.2,-77.35 847.41,-80.17 846.94,-73.19"/>
</g>
</g>
</svg>
