<?xml version="1.0" encoding="UTF-8" standalone="no"?>
<!DOCTYPE svg PUBLIC "-//W3C//DTD SVG 1.1//EN"
 "http://www.w3.org/Graphics/SVG/1.1/DTD/svg11.dtd">
<!-- Generated by graphviz version 7.0.6 (20230106.0513)
 -->
<!-- Title: HealthGPS.Core/thread_util.h Pages: 1 -->
<svg width="321pt" height="93pt"
 viewBox="0.00 0.00 320.50 93.00" xmlns="http://www.w3.org/2000/svg" xmlns:xlink="http://www.w3.org/1999/xlink">
<g id="graph0" class="graph" transform="scale(1 1) rotate(0) translate(4 89)">
<title>HealthGPS.Core/thread_util.h</title>
<!-- Node1 -->
<g id="node1" class="node">
<title>Node1</title>
<g id="a_node1"><a xlink:title=" ">
<polygon fill="#999999" stroke="#666666" points="203.5,-85 84.5,-85 84.5,-55 203.5,-55 203.5,-85"/>
<text text-anchor="start" x="92.5" y="-73" font-family="Helvetica,sans-Serif" font-size="10.00">HealthGPS.Core/thread</text>
<text text-anchor="middle" x="144" y="-62" font-family="Helvetica,sans-Serif" font-size="10.00">_util.h</text>
</a>
</g>
</g>
<!-- Node2 -->
<g id="node2" class="node">
<title>Node2</title>
<g id="a_node2"><a xlink:title=" ">
<polygon fill="#e0e0e0" stroke="#999999" points="44,-19 0,-19 0,0 44,0 44,-19"/>
<text text-anchor="middle" x="22" y="-7" font-family="Helvetica,sans-Serif" font-size="10.00">thread</text>
</a>
</g>
</g>
<!-- Node1&#45;&gt;Node2 -->
<g id="edge1" class="edge">
<title>Node1&#45;&gt;Node2</title>
<path fill="none" stroke="#63b8ff" d="M113.84,-54.54C94.52,-45.28 69.6,-33.33 50.6,-24.21"/>
<polygon fill="#63b8ff" stroke="#63b8ff" points="52.34,-21.17 41.81,-20 49.32,-27.48 52.34,-21.17"/>
</g>
<!-- Node3 -->
<g id="node3" class="node">
<title>Node3</title>
<g id="a_node3"><a xlink:title=" ">
<polygon fill="#e0e0e0" stroke="#999999" points="103.5,-19 62.5,-19 62.5,0 103.5,0 103.5,-19"/>
<text text-anchor="middle" x="83" y="-7" font-family="Helvetica,sans-Serif" font-size="10.00">future</text>
</a>
</g>
</g>
<!-- Node1&#45;&gt;Node3 -->
<g id="edge2" class="edge">
<title>Node1&#45;&gt;Node3</title>
<path fill="none" stroke="#63b8ff" d="M128.92,-54.54C120.24,-46.22 109.3,-35.72 100.28,-27.07"/>
<polygon fill="#63b8ff" stroke="#63b8ff" points="102.78,-24.62 93.14,-20.22 97.93,-29.67 102.78,-24.62"/>
</g>
<!-- Node4 -->
<g id="node4" class="node">
<title>Node4</title>
<g id="a_node4"><a xlink:title=" ">
<polygon fill="#e0e0e0" stroke="#999999" points="166,-19 122,-19 122,0 166,0 166,-19"/>
<text text-anchor="middle" x="144" y="-7" font-family="Helvetica,sans-Serif" font-size="10.00">mutex</text>
</a>
</g>
</g>
<!-- Node1&#45;&gt;Node4 -->
<g id="edge3" class="edge">
<title>Node1&#45;&gt;Node4</title>
<path fill="none" stroke="#63b8ff" d="M144,-54.54C144,-47.34 144,-38.53 144,-30.68"/>
<polygon fill="#63b8ff" stroke="#63b8ff" points="147.5,-30.69 144,-20.69 140.5,-30.69 147.5,-30.69"/>
</g>
<!-- Node5 -->
<g id="node5" class="node">
<title>Node5</title>
<g id="a_node5"><a xlink:title=" ">
<polygon fill="#e0e0e0" stroke="#999999" points="243.5,-19 184.5,-19 184.5,0 243.5,0 243.5,-19"/>
<text text-anchor="middle" x="214" y="-7" font-family="Helvetica,sans-Serif" font-size="10.00">execution</text>
</a>
</g>
</g>
<!-- Node1&#45;&gt;Node5 -->
<g id="edge4" class="edge">
<title>Node1&#45;&gt;Node5</title>
<path fill="none" stroke="#63b8ff" d="M161.3,-54.54C171.47,-46.04 184.34,-35.29 194.82,-26.53"/>
<polygon fill="#63b8ff" stroke="#63b8ff" points="197.03,-29.24 202.46,-20.15 192.54,-23.87 197.03,-29.24"/>
</g>
<!-- Node6 -->
<g id="node6" class="node">
<title>Node6</title>
<g id="a_node6"><a xlink:title=" ">
<polygon fill="#e0e0e0" stroke="#999999" points="312.5,-19 261.5,-19 261.5,0 312.5,0 312.5,-19"/>
<text text-anchor="middle" x="287" y="-7" font-family="Helvetica,sans-Serif" font-size="10.00">numeric</text>
</a>
</g>
</g>
<!-- Node1&#45;&gt;Node6 -->
<g id="edge5" class="edge">
<title>Node1&#45;&gt;Node6</title>
<path fill="none" stroke="#63b8ff" d="M179.35,-54.54C202.52,-45.06 232.56,-32.77 255.02,-23.58"/>
<polygon fill="#63b8ff" stroke="#63b8ff" points="256.04,-26.95 263.98,-19.92 253.39,-20.47 256.04,-26.95"/>
</g>
</g>
</svg>
