<?xml version="1.0" encoding="UTF-8" standalone="no"?>
<!DOCTYPE svg PUBLIC "-//W3C//DTD SVG 1.1//EN"
 "http://www.w3.org/Graphics/SVG/1.1/DTD/svg11.dtd">
<!-- Generated by graphviz version 7.0.6 (20230106.0513)
 -->
<!-- Title: HealthGPS.Core/thread_util.h Pages: 1 -->
<svg width="1450pt" height="104pt"
 viewBox="0.00 0.00 1450.00 104.00" xmlns="http://www.w3.org/2000/svg" xmlns:xlink="http://www.w3.org/1999/xlink">
<g id="graph0" class="graph" transform="scale(1 1) rotate(0) translate(4 100)">
<title>HealthGPS.Core/thread_util.h</title>
<!-- Node1 -->
<g id="node1" class="node">
<title>Node1</title>
<g id="a_node1"><a xlink:title=" ">
<polygon fill="#999999" stroke="#666666" points="812,-96 693,-96 693,-66 812,-66 812,-96"/>
<text text-anchor="start" x="701" y="-84" font-family="Helvetica,sans-Serif" font-size="10.00">HealthGPS.Core/thread</text>
<text text-anchor="middle" x="752.5" y="-73" font-family="Helvetica,sans-Serif" font-size="10.00">_util.h</text>
</a>
</g>
</g>
<!-- Node2 -->
<g id="node2" class="node">
<title>Node2</title>
<g id="a_node2"><a xlink:href="program_8cpp.html" target="_top" xlink:title=" ">
<polygon fill="white" stroke="#666666" points="161,-24.5 0,-24.5 0,-5.5 161,-5.5 161,-24.5"/>
<text text-anchor="middle" x="80.5" y="-12.5" font-family="Helvetica,sans-Serif" font-size="10.00">HealthGPS.Console/program.cpp</text>
</a>
</g>
</g>
<!-- Node1&#45;&gt;Node2 -->
<g id="edge1" class="edge">
<title>Node1&#45;&gt;Node2</title>
<path fill="none" stroke="#63b8ff" d="M681.63,-75.49C571.89,-68.14 354.29,-52.16 170.5,-30 158.73,-28.58 146.13,-26.79 134.19,-24.97"/>
<polygon fill="#63b8ff" stroke="#63b8ff" points="681.15,-78.96 691.36,-76.13 681.62,-71.98 681.15,-78.96"/>
</g>
<!-- Node3 -->
<g id="node3" class="node">
<title>Node3</title>
<g id="a_node3"><a xlink:href="analysis__module_8cpp.html" target="_top" xlink:title=" ">
<polygon fill="white" stroke="#666666" points="283.5,-30 179.5,-30 179.5,0 283.5,0 283.5,-30"/>
<text text-anchor="start" x="187.5" y="-18" font-family="Helvetica,sans-Serif" font-size="10.00">HealthGPS/analysis</text>
<text text-anchor="middle" x="231.5" y="-7" font-family="Helvetica,sans-Serif" font-size="10.00">_module.cpp</text>
</a>
</g>
</g>
<!-- Node1&#45;&gt;Node3 -->
<g id="edge2" class="edge">
<title>Node1&#45;&gt;Node3</title>
<path fill="none" stroke="#63b8ff" d="M681.41,-74.88C590.72,-67.74 429.24,-53.04 292.5,-30 289.71,-29.53 286.87,-29.01 283.99,-28.46"/>
<polygon fill="#63b8ff" stroke="#63b8ff" points="680.9,-78.35 691.14,-75.63 681.44,-71.37 680.9,-78.35"/>
</g>
<!-- Node4 -->
<g id="node4" class="node">
<title>Node4</title>
<g id="a_node4"><a xlink:href="default__cancer__model_8cpp.html" target="_top" xlink:title=" ">
<polygon fill="white" stroke="#666666" points="433,-30 302,-30 302,0 433,0 433,-30"/>
<text text-anchor="start" x="310" y="-18" font-family="Helvetica,sans-Serif" font-size="10.00">HealthGPS/default_cancer</text>
<text text-anchor="middle" x="367.5" y="-7" font-family="Helvetica,sans-Serif" font-size="10.00">_model.cpp</text>
</a>
</g>
</g>
<!-- Node1&#45;&gt;Node4 -->
<g id="edge3" class="edge">
<title>Node1&#45;&gt;Node4</title>
<path fill="none" stroke="#63b8ff" d="M681.34,-69.03C618.45,-59.22 524.28,-44.23 442.5,-30 439.5,-29.48 436.43,-28.94 433.33,-28.38"/>
<polygon fill="#63b8ff" stroke="#63b8ff" points="680.79,-72.49 691.21,-70.57 681.87,-65.57 680.79,-72.49"/>
</g>
<!-- Node5 -->
<g id="node5" class="node">
<title>Node5</title>
<g id="a_node5"><a xlink:href="default__disease__model_8cpp.html" target="_top" xlink:title=" ">
<polygon fill="white" stroke="#666666" points="587.5,-30 451.5,-30 451.5,0 587.5,0 587.5,-30"/>
<text text-anchor="start" x="459.5" y="-18" font-family="Helvetica,sans-Serif" font-size="10.00">HealthGPS/default_disease</text>
<text text-anchor="middle" x="519.5" y="-7" font-family="Helvetica,sans-Serif" font-size="10.00">_model.cpp</text>
</a>
</g>
</g>
<!-- Node1&#45;&gt;Node5 -->
<g id="edge4" class="edge">
<title>Node1&#45;&gt;Node5</title>
<path fill="none" stroke="#63b8ff" d="M688.83,-62.51C652.12,-52.43 606.52,-39.9 571.89,-30.39"/>
<polygon fill="#63b8ff" stroke="#63b8ff" points="687.89,-65.88 698.46,-65.16 689.74,-59.13 687.89,-65.88"/>
</g>
<!-- Node6 -->
<g id="node6" class="node">
<title>Node6</title>
<g id="a_node6"><a xlink:href="demographic_8cpp.html" target="_top" xlink:title=" ">
<polygon fill="white" stroke="#666666" points="749,-24.5 606,-24.5 606,-5.5 749,-5.5 749,-24.5"/>
<text text-anchor="middle" x="677.5" y="-12.5" font-family="Helvetica,sans-Serif" font-size="10.00">HealthGPS/demographic.cpp</text>
</a>
</g>
</g>
<!-- Node1&#45;&gt;Node6 -->
<g id="edge5" class="edge">
<title>Node1&#45;&gt;Node6</title>
<path fill="none" stroke="#63b8ff" d="M727.43,-58.6C713.94,-47.1 698.04,-33.52 687.86,-24.84"/>
<polygon fill="#63b8ff" stroke="#63b8ff" points="724.82,-60.99 734.7,-64.81 729.37,-55.66 724.82,-60.99"/>
</g>
<!-- Node7 -->
<g id="node7" class="node">
<title>Node7</title>
<g id="a_node7"><a xlink:href="disease_8cpp.html" target="_top" xlink:title=" ">
<polygon fill="white" stroke="#666666" points="888,-24.5 767,-24.5 767,-5.5 888,-5.5 888,-24.5"/>
<text text-anchor="middle" x="827.5" y="-12.5" font-family="Helvetica,sans-Serif" font-size="10.00">HealthGPS/disease.cpp</text>
</a>
</g>
</g>
<!-- Node1&#45;&gt;Node7 -->
<g id="edge6" class="edge">
<title>Node1&#45;&gt;Node7</title>
<path fill="none" stroke="#63b8ff" d="M777.57,-58.6C791.06,-47.1 806.96,-33.52 817.14,-24.84"/>
<polygon fill="#63b8ff" stroke="#63b8ff" points="775.63,-55.66 770.3,-64.81 780.18,-60.99 775.63,-55.66"/>
</g>
<!-- Node8 -->
<g id="node8" class="node">
<title>Node8</title>
<g id="a_node8"><a xlink:href="event__bus_8cpp.html" target="_top" xlink:title=" ">
<polygon fill="white" stroke="#666666" points="1037,-24.5 906,-24.5 906,-5.5 1037,-5.5 1037,-24.5"/>
<text text-anchor="middle" x="971.5" y="-12.5" font-family="Helvetica,sans-Serif" font-size="10.00">HealthGPS/event_bus.cpp</text>
</a>
</g>
</g>
<!-- Node1&#45;&gt;Node8 -->
<g id="edge7" class="edge">
<title>Node1&#45;&gt;Node8</title>
<path fill="none" stroke="#63b8ff" d="M812.75,-62.39C854.28,-50.26 907.76,-34.63 940.83,-24.96"/>
<polygon fill="#63b8ff" stroke="#63b8ff" points="811.99,-58.97 803.37,-65.13 813.95,-65.69 811.99,-58.97"/>
</g>
<!-- Node9 -->
<g id="node9" class="node">
<title>Node9</title>
<g id="a_node9"><a xlink:href="healthgps_8cpp.html" target="_top" xlink:title=" ">
<polygon fill="white" stroke="#666666" points="1184,-24.5 1055,-24.5 1055,-5.5 1184,-5.5 1184,-24.5"/>
<text text-anchor="middle" x="1119.5" y="-12.5" font-family="Helvetica,sans-Serif" font-size="10.00">HealthGPS/healthgps.cpp</text>
</a>
</g>
</g>
<!-- Node1&#45;&gt;Node9 -->
<g id="edge8" class="edge">
<title>Node1&#45;&gt;Node9</title>
<path fill="none" stroke="#63b8ff" d="M823.42,-68.37C883.01,-58.49 970.4,-43.77 1046.5,-30 1055.26,-28.41 1064.6,-26.67 1073.58,-24.96"/>
<polygon fill="#63b8ff" stroke="#63b8ff" points="823.04,-64.88 813.74,-69.97 824.18,-71.79 823.04,-64.88"/>
</g>
<!-- Node10 -->
<g id="node10" class="node">
<title>Node10</title>
<g id="a_node10"><a xlink:href="riskfactor__adjustment_8cpp.html" target="_top" xlink:title=" ">
<polygon fill="white" stroke="#666666" points="1310.5,-30 1202.5,-30 1202.5,0 1310.5,0 1310.5,-30"/>
<text text-anchor="start" x="1210.5" y="-18" font-family="Helvetica,sans-Serif" font-size="10.00">HealthGPS/riskfactor</text>
<text text-anchor="middle" x="1256.5" y="-7" font-family="Helvetica,sans-Serif" font-size="10.00">_adjustment.cpp</text>
</a>
</g>
</g>
<!-- Node1&#45;&gt;Node10 -->
<g id="edge9" class="edge">
<title>Node1&#45;&gt;Node10</title>
<path fill="none" stroke="#63b8ff" d="M823.72,-74.26C911.17,-66.68 1063.86,-51.69 1193.5,-30 1196.37,-29.52 1199.31,-28.99 1202.28,-28.43"/>
<polygon fill="#63b8ff" stroke="#63b8ff" points="823.51,-70.77 813.85,-75.11 824.11,-77.74 823.51,-70.77"/>
</g>
<!-- Node11 -->
<g id="node11" class="node">
<title>Node11</title>
<g id="a_node11"><a xlink:href="ses__noise__module_8cpp.html" target="_top" xlink:title=" ">
<polygon fill="white" stroke="#666666" points="1442,-30 1329,-30 1329,0 1442,0 1442,-30"/>
<text text-anchor="start" x="1337" y="-18" font-family="Helvetica,sans-Serif" font-size="10.00">HealthGPS/ses_noise</text>
<text text-anchor="middle" x="1385.5" y="-7" font-family="Helvetica,sans-Serif" font-size="10.00">_module.cpp</text>
</a>
</g>
</g>
<!-- Node1&#45;&gt;Node11 -->
<g id="edge10" class="edge">
<title>Node1&#45;&gt;Node11</title>
<path fill="none" stroke="#63b8ff" d="M823.74,-76.49C931.5,-70.56 1142.22,-56.52 1319.5,-30 1322.51,-29.55 1325.59,-29.05 1328.7,-28.51"/>
<polygon fill="#63b8ff" stroke="#63b8ff" points="823.68,-72.99 813.88,-77.03 824.06,-79.98 823.68,-72.99"/>
</g>
</g>
</svg>
