<?xml version="1.0" encoding="UTF-8" standalone="no"?>
<!DOCTYPE svg PUBLIC "-//W3C//DTD SVG 1.1//EN"
 "http://www.w3.org/Graphics/SVG/1.1/DTD/svg11.dtd">
<!-- Generated by graphviz version 2.43.0 (0)
 -->
<!-- Title: HealthGPS/univariate_visitor.h Pages: 1 -->
<svg width="583pt" height="397pt"
 viewBox="0.00 0.00 582.50 397.00" xmlns="http://www.w3.org/2000/svg" xmlns:xlink="http://www.w3.org/1999/xlink">
<g id="graph0" class="graph" transform="scale(1 1) rotate(0) translate(4 393)">
<title>HealthGPS/univariate_visitor.h</title>
<!-- Node1 -->
<g id="node1" class="node">
<title>Node1</title>
<g id="a_node1"><a xlink:title=" ">
<polygon fill="#bfbfbf" stroke="black" points="83,-358.5 83,-388.5 204,-388.5 204,-358.5 83,-358.5"/>
<text text-anchor="start" x="91" y="-376.5" font-family="Helvetica,sans-Serif" font-size="10.00">HealthGPS/univariate</text>
<text text-anchor="middle" x="143.5" y="-365.5" font-family="Helvetica,sans-Serif" font-size="10.00">_visitor.h</text>
</a>
</g>
</g>
<!-- Node2 -->
<g id="node2" class="node">
<title>Node2</title>
<g id="a_node2"><a xlink:title=" ">
<polygon fill="none" stroke="#bfbfbf" points="0,-297 0,-316 65,-316 65,-297 0,-297"/>
<text text-anchor="middle" x="32.5" y="-304" font-family="Helvetica,sans-Serif" font-size="10.00">stdexcept</text>
</a>
</g>
</g>
<!-- Node1&#45;&gt;Node2 -->
<g id="edge1" class="edge">
<title>Node1&#45;&gt;Node2</title>
<path fill="none" stroke="midnightblue" d="M119.41,-358.4C100.54,-347.34 74.44,-332.06 55.78,-321.13"/>
<polygon fill="midnightblue" stroke="midnightblue" points="57.43,-318.04 47.03,-316.01 53.89,-324.08 57.43,-318.04"/>
</g>
<!-- Node3 -->
<g id="node3" class="node">
<title>Node3</title>
<g id="a_node3"><a xlink:href="visitor_8h.html" target="_top" xlink:title=" ">
<polygon fill="none" stroke="black" points="35.5,-112.5 35.5,-131.5 171.5,-131.5 171.5,-112.5 35.5,-112.5"/>
<text text-anchor="middle" x="103.5" y="-119.5" font-family="Helvetica,sans-Serif" font-size="10.00">HealthGPS.Core/visitor.h</text>
</a>
</g>
</g>
<!-- Node1&#45;&gt;Node3 -->
<g id="edge2" class="edge">
<title>Node1&#45;&gt;Node3</title>
<path fill="none" stroke="midnightblue" d="M138.79,-358.22C131.77,-336.29 118.73,-292.89 112.5,-255 105.94,-215.1 104.14,-167.66 103.66,-141.91"/>
<polygon fill="midnightblue" stroke="midnightblue" points="107.16,-141.67 103.52,-131.71 100.16,-141.76 107.16,-141.67"/>
</g>
<!-- Node7 -->
<g id="node7" class="node">
<title>Node7</title>
<g id="a_node7"><a xlink:href="column__numeric_8h.html" target="_top" xlink:title=" ">
<polygon fill="none" stroke="black" points="224,-291.5 224,-321.5 357,-321.5 357,-291.5 224,-291.5"/>
<text text-anchor="start" x="232" y="-309.5" font-family="Helvetica,sans-Serif" font-size="10.00">HealthGPS.Core/column</text>
<text text-anchor="middle" x="290.5" y="-298.5" font-family="Helvetica,sans-Serif" font-size="10.00">_numeric.h</text>
</a>
</g>
</g>
<!-- Node1&#45;&gt;Node7 -->
<g id="edge6" class="edge">
<title>Node1&#45;&gt;Node7</title>
<path fill="none" stroke="midnightblue" d="M175.4,-358.4C197.07,-348.81 225.93,-336.05 249.34,-325.7"/>
<polygon fill="midnightblue" stroke="midnightblue" points="250.94,-328.82 258.67,-321.58 248.1,-322.42 250.94,-328.82"/>
</g>
<!-- Node18 -->
<g id="node18" class="node">
<title>Node18</title>
<g id="a_node18"><a xlink:href="univariate__summary_8h.html" target="_top" xlink:title=" ">
<polygon fill="none" stroke="black" points="121.5,-224.5 121.5,-254.5 267.5,-254.5 267.5,-224.5 121.5,-224.5"/>
<text text-anchor="start" x="129.5" y="-242.5" font-family="Helvetica,sans-Serif" font-size="10.00">HealthGPS.Core/univariate</text>
<text text-anchor="middle" x="194.5" y="-231.5" font-family="Helvetica,sans-Serif" font-size="10.00">_summary.h</text>
</a>
</g>
</g>
<!-- Node1&#45;&gt;Node18 -->
<g id="edge18" class="edge">
<title>Node1&#45;&gt;Node18</title>
<path fill="none" stroke="midnightblue" d="M148.96,-358.37C157.66,-335.85 174.78,-291.53 185.37,-264.12"/>
<polygon fill="midnightblue" stroke="midnightblue" points="188.74,-265.11 189.08,-254.52 182.21,-262.59 188.74,-265.11"/>
</g>
<!-- Node4 -->
<g id="node4" class="node">
<title>Node4</title>
<g id="a_node4"><a xlink:href="forward__type_8h.html" target="_top" xlink:title=" ">
<polygon fill="none" stroke="black" points="58.5,-56.5 58.5,-75.5 148.5,-75.5 148.5,-56.5 58.5,-56.5"/>
<text text-anchor="middle" x="103.5" y="-63.5" font-family="Helvetica,sans-Serif" font-size="10.00">forward_type.h</text>
</a>
</g>
</g>
<!-- Node3&#45;&gt;Node4 -->
<g id="edge3" class="edge">
<title>Node3&#45;&gt;Node4</title>
<path fill="none" stroke="midnightblue" d="M103.5,-112.08C103.5,-105.01 103.5,-94.86 103.5,-85.99"/>
<polygon fill="midnightblue" stroke="midnightblue" points="107,-85.75 103.5,-75.75 100,-85.75 107,-85.75"/>
</g>
<!-- Node5 -->
<g id="node5" class="node">
<title>Node5</title>
<g id="a_node5"><a xlink:title=" ">
<polygon fill="none" stroke="#bfbfbf" points="30,-0.5 30,-19.5 99,-19.5 99,-0.5 30,-0.5"/>
<text text-anchor="middle" x="64.5" y="-7.5" font-family="Helvetica,sans-Serif" font-size="10.00">type_traits</text>
</a>
</g>
</g>
<!-- Node4&#45;&gt;Node5 -->
<g id="edge4" class="edge">
<title>Node4&#45;&gt;Node5</title>
<path fill="none" stroke="midnightblue" d="M97.06,-56.08C91.55,-48.46 83.47,-37.26 76.74,-27.94"/>
<polygon fill="midnightblue" stroke="midnightblue" points="79.51,-25.81 70.82,-19.75 73.84,-29.91 79.51,-25.81"/>
</g>
<!-- Node6 -->
<g id="node6" class="node">
<title>Node6</title>
<g id="a_node6"><a xlink:title=" ">
<polygon fill="none" stroke="#bfbfbf" points="117.5,-0.5 117.5,-19.5 167.5,-19.5 167.5,-0.5 117.5,-0.5"/>
<text text-anchor="middle" x="142.5" y="-7.5" font-family="Helvetica,sans-Serif" font-size="10.00">cstdint</text>
</a>
</g>
</g>
<!-- Node4&#45;&gt;Node6 -->
<g id="edge5" class="edge">
<title>Node4&#45;&gt;Node6</title>
<path fill="none" stroke="midnightblue" d="M109.94,-56.08C115.45,-48.46 123.53,-37.26 130.26,-27.94"/>
<polygon fill="midnightblue" stroke="midnightblue" points="133.16,-29.91 136.18,-19.75 127.49,-25.81 133.16,-29.91"/>
</g>
<!-- Node8 -->
<g id="node8" class="node">
<title>Node8</title>
<g id="a_node8"><a xlink:href="column__primitive_8h.html" target="_top" xlink:title=" ">
<polygon fill="none" stroke="black" points="286,-230 286,-249 397,-249 397,-230 286,-230"/>
<text text-anchor="middle" x="341.5" y="-237" font-family="Helvetica,sans-Serif" font-size="10.00">column_primitive.h</text>
</a>
</g>
</g>
<!-- Node7&#45;&gt;Node8 -->
<g id="edge7" class="edge">
<title>Node7&#45;&gt;Node8</title>
<path fill="none" stroke="midnightblue" d="M301.57,-291.4C309.44,-281.36 320.05,-267.84 328.35,-257.25"/>
<polygon fill="midnightblue" stroke="midnightblue" points="331.26,-259.22 334.68,-249.19 325.75,-254.9 331.26,-259.22"/>
</g>
<!-- Node9 -->
<g id="node9" class="node">
<title>Node9</title>
<g id="a_node9"><a xlink:title=" ">
<polygon fill="none" stroke="#bfbfbf" points="390.5,-168.5 390.5,-187.5 454.5,-187.5 454.5,-168.5 390.5,-168.5"/>
<text text-anchor="middle" x="422.5" y="-175.5" font-family="Helvetica,sans-Serif" font-size="10.00">algorithm</text>
</a>
</g>
</g>
<!-- Node8&#45;&gt;Node9 -->
<g id="edge8" class="edge">
<title>Node8&#45;&gt;Node9</title>
<path fill="none" stroke="midnightblue" d="M353.11,-229.98C365.98,-220.52 386.97,-205.1 402.51,-193.69"/>
<polygon fill="midnightblue" stroke="midnightblue" points="404.93,-196.25 410.92,-187.51 400.78,-190.61 404.93,-196.25"/>
</g>
<!-- Node10 -->
<g id="node10" class="node">
<title>Node10</title>
<g id="a_node10"><a xlink:title=" ">
<polygon fill="none" stroke="#bfbfbf" points="171,-168.5 171,-187.5 218,-187.5 218,-168.5 171,-168.5"/>
<text text-anchor="middle" x="194.5" y="-175.5" font-family="Helvetica,sans-Serif" font-size="10.00">vector</text>
</a>
</g>
</g>
<!-- Node8&#45;&gt;Node10 -->
<g id="edge9" class="edge">
<title>Node8&#45;&gt;Node10</title>
<path fill="none" stroke="midnightblue" d="M320.44,-229.98C295.44,-219.86 253.56,-202.9 225.01,-191.35"/>
<polygon fill="midnightblue" stroke="midnightblue" points="226.11,-188.02 215.52,-187.51 223.48,-194.51 226.11,-188.02"/>
</g>
<!-- Node11 -->
<g id="node11" class="node">
<title>Node11</title>
<g id="a_node11"><a xlink:title=" ">
<polygon fill="none" stroke="#bfbfbf" points="236.5,-168.5 236.5,-187.5 292.5,-187.5 292.5,-168.5 236.5,-168.5"/>
<text text-anchor="middle" x="264.5" y="-175.5" font-family="Helvetica,sans-Serif" font-size="10.00">optional</text>
</a>
</g>
</g>
<!-- Node8&#45;&gt;Node11 -->
<g id="edge10" class="edge">
<title>Node8&#45;&gt;Node11</title>
<path fill="none" stroke="midnightblue" d="M330.47,-229.98C318.23,-220.52 298.27,-205.1 283.51,-193.69"/>
<polygon fill="midnightblue" stroke="midnightblue" points="285.56,-190.85 275.51,-187.51 281.28,-196.39 285.56,-190.85"/>
</g>
<!-- Node12 -->
<g id="node12" class="node">
<title>Node12</title>
<g id="a_node12"><a xlink:href="column_8h.html" target="_top" xlink:title=" ">
<polygon fill="none" stroke="black" points="310.5,-168.5 310.5,-187.5 372.5,-187.5 372.5,-168.5 310.5,-168.5"/>
<text text-anchor="middle" x="341.5" y="-175.5" font-family="Helvetica,sans-Serif" font-size="10.00">column.h</text>
</a>
</g>
</g>
<!-- Node8&#45;&gt;Node12 -->
<g id="edge11" class="edge">
<title>Node8&#45;&gt;Node12</title>
<path fill="none" stroke="midnightblue" d="M341.5,-229.98C341.5,-221.58 341.5,-208.48 341.5,-197.66"/>
<polygon fill="midnightblue" stroke="midnightblue" points="345,-197.51 341.5,-187.51 338,-197.51 345,-197.51"/>
</g>
<!-- Node16 -->
<g id="node16" class="node">
<title>Node16</title>
<g id="a_node16"><a xlink:href="column__iterator_8h.html" target="_top" xlink:title=" ">
<polygon fill="none" stroke="black" points="472.5,-168.5 472.5,-187.5 574.5,-187.5 574.5,-168.5 472.5,-168.5"/>
<text text-anchor="middle" x="523.5" y="-175.5" font-family="Helvetica,sans-Serif" font-size="10.00">column_iterator.h</text>
</a>
</g>
</g>
<!-- Node8&#45;&gt;Node16 -->
<g id="edge16" class="edge">
<title>Node8&#45;&gt;Node16</title>
<path fill="none" stroke="midnightblue" d="M367.58,-229.98C399.07,-219.68 452.2,-202.31 487.56,-190.75"/>
<polygon fill="midnightblue" stroke="midnightblue" points="489.05,-193.94 497.47,-187.51 486.88,-187.29 489.05,-193.94"/>
</g>
<!-- Node12&#45;&gt;Node3 -->
<g id="edge15" class="edge">
<title>Node12&#45;&gt;Node3</title>
<path fill="none" stroke="midnightblue" d="M310.39,-169.94C269.89,-160.75 198.7,-144.6 151.32,-133.85"/>
<polygon fill="midnightblue" stroke="midnightblue" points="151.82,-130.38 141.3,-131.58 150.28,-137.2 151.82,-130.38"/>
</g>
<!-- Node13 -->
<g id="node13" class="node">
<title>Node13</title>
<g id="a_node13"><a xlink:title=" ">
<polygon fill="none" stroke="#bfbfbf" points="356,-112.5 356,-131.5 391,-131.5 391,-112.5 356,-112.5"/>
<text text-anchor="middle" x="373.5" y="-119.5" font-family="Helvetica,sans-Serif" font-size="10.00">any</text>
</a>
</g>
</g>
<!-- Node12&#45;&gt;Node13 -->
<g id="edge12" class="edge">
<title>Node12&#45;&gt;Node13</title>
<path fill="none" stroke="midnightblue" d="M346.78,-168.08C351.21,-160.61 357.66,-149.72 363.12,-140.52"/>
<polygon fill="midnightblue" stroke="midnightblue" points="366.23,-142.14 368.31,-131.75 360.21,-138.57 366.23,-142.14"/>
</g>
<!-- Node14 -->
<g id="node14" class="node">
<title>Node14</title>
<g id="a_node14"><a xlink:title=" ">
<polygon fill="none" stroke="#bfbfbf" points="281,-112.5 281,-131.5 338,-131.5 338,-112.5 281,-112.5"/>
<text text-anchor="middle" x="309.5" y="-119.5" font-family="Helvetica,sans-Serif" font-size="10.00">typeinfo</text>
</a>
</g>
</g>
<!-- Node12&#45;&gt;Node14 -->
<g id="edge13" class="edge">
<title>Node12&#45;&gt;Node14</title>
<path fill="none" stroke="midnightblue" d="M336.22,-168.08C331.79,-160.61 325.34,-149.72 319.88,-140.52"/>
<polygon fill="midnightblue" stroke="midnightblue" points="322.79,-138.57 314.69,-131.75 316.77,-142.14 322.79,-138.57"/>
</g>
<!-- Node15 -->
<g id="node15" class="node">
<title>Node15</title>
<g id="a_node15"><a xlink:title=" ">
<polygon fill="none" stroke="#bfbfbf" points="208.5,-112.5 208.5,-131.5 252.5,-131.5 252.5,-112.5 208.5,-112.5"/>
<text text-anchor="middle" x="230.5" y="-119.5" font-family="Helvetica,sans-Serif" font-size="10.00">string</text>
</a>
</g>
</g>
<!-- Node12&#45;&gt;Node15 -->
<g id="edge14" class="edge">
<title>Node12&#45;&gt;Node15</title>
<path fill="none" stroke="midnightblue" d="M323.67,-168.32C305.78,-159.62 278.02,-146.12 257.45,-136.11"/>
<polygon fill="midnightblue" stroke="midnightblue" points="258.81,-132.88 248.29,-131.65 255.75,-139.18 258.81,-132.88"/>
</g>
<!-- Node17 -->
<g id="node17" class="node">
<title>Node17</title>
<g id="a_node17"><a xlink:title=" ">
<polygon fill="none" stroke="#bfbfbf" points="497,-112.5 497,-131.5 550,-131.5 550,-112.5 497,-112.5"/>
<text text-anchor="middle" x="523.5" y="-119.5" font-family="Helvetica,sans-Serif" font-size="10.00">iterator</text>
</a>
</g>
</g>
<!-- Node16&#45;&gt;Node17 -->
<g id="edge17" class="edge">
<title>Node16&#45;&gt;Node17</title>
<path fill="none" stroke="midnightblue" d="M523.5,-168.08C523.5,-161.01 523.5,-150.86 523.5,-141.99"/>
<polygon fill="midnightblue" stroke="midnightblue" points="527,-141.75 523.5,-131.75 520,-141.75 527,-141.75"/>
</g>
<!-- Node18&#45;&gt;Node10 -->
<g id="edge20" class="edge">
<title>Node18&#45;&gt;Node10</title>
<path fill="none" stroke="midnightblue" d="M194.5,-224.4C194.5,-216.47 194.5,-206.46 194.5,-197.86"/>
<polygon fill="midnightblue" stroke="midnightblue" points="198,-197.66 194.5,-187.66 191,-197.66 198,-197.66"/>
</g>
<!-- Node18&#45;&gt;Node11 -->
<g id="edge21" class="edge">
<title>Node18&#45;&gt;Node11</title>
<path fill="none" stroke="midnightblue" d="M211.09,-224.4C221.79,-215.31 235.69,-203.49 246.63,-194.19"/>
<polygon fill="midnightblue" stroke="midnightblue" points="248.96,-196.8 254.31,-187.66 244.43,-191.47 248.96,-196.8"/>
</g>
<!-- Node18&#45;&gt;Node15 -->
<g id="edge19" class="edge">
<title>Node18&#45;&gt;Node15</title>
<path fill="none" stroke="midnightblue" d="M179.96,-224.48C166.86,-210.08 151.14,-187.13 161.5,-168 169.6,-153.04 185.07,-142.27 199.31,-135.02"/>
<polygon fill="midnightblue" stroke="midnightblue" points="200.83,-138.17 208.4,-130.76 197.86,-131.84 200.83,-138.17"/>
</g>
</g>
</svg>
