<?xml version="1.0" encoding="UTF-8" standalone="no"?>
<!DOCTYPE svg PUBLIC "-//W3C//DTD SVG 1.1//EN"
 "http://www.w3.org/Graphics/SVG/1.1/DTD/svg11.dtd">
<!-- Generated by graphviz version 2.43.0 (0)
 -->
<!-- Title: HealthGPS/univariate_visitor.cpp Pages: 1 -->
<svg width="647pt" height="453pt"
 viewBox="0.00 0.00 647.00 453.00" xmlns="http://www.w3.org/2000/svg" xmlns:xlink="http://www.w3.org/1999/xlink">
<g id="graph0" class="graph" transform="scale(1 1) rotate(0) translate(4 449)">
<title>HealthGPS/univariate_visitor.cpp</title>
<!-- Node1 -->
<g id="node1" class="node">
<title>Node1</title>
<g id="a_node1"><a xlink:title=" ">
<polygon fill="#bfbfbf" stroke="black" points="122,-414.5 122,-444.5 243,-444.5 243,-414.5 122,-414.5"/>
<text text-anchor="start" x="130" y="-432.5" font-family="Helvetica,sans-Serif" font-size="10.00">HealthGPS/univariate</text>
<text text-anchor="middle" x="182.5" y="-421.5" font-family="Helvetica,sans-Serif" font-size="10.00">_visitor.cpp</text>
</a>
</g>
</g>
<!-- Node2 -->
<g id="node2" class="node">
<title>Node2</title>
<g id="a_node2"><a xlink:href="univariate__visitor_8h.html" target="_top" xlink:title=" ">
<polygon fill="none" stroke="black" points="127.5,-358.5 127.5,-377.5 237.5,-377.5 237.5,-358.5 127.5,-358.5"/>
<text text-anchor="middle" x="182.5" y="-365.5" font-family="Helvetica,sans-Serif" font-size="10.00">univariate_visitor.h</text>
</a>
</g>
</g>
<!-- Node1&#45;&gt;Node2 -->
<g id="edge1" class="edge">
<title>Node1&#45;&gt;Node2</title>
<path fill="none" stroke="midnightblue" d="M182.5,-414.4C182.5,-406.47 182.5,-396.46 182.5,-387.86"/>
<polygon fill="midnightblue" stroke="midnightblue" points="186,-387.66 182.5,-377.66 179,-387.66 186,-387.66"/>
</g>
<!-- Node3 -->
<g id="node3" class="node">
<title>Node3</title>
<g id="a_node3"><a xlink:title=" ">
<polygon fill="none" stroke="#bfbfbf" points="0,-297 0,-316 65,-316 65,-297 0,-297"/>
<text text-anchor="middle" x="32.5" y="-304" font-family="Helvetica,sans-Serif" font-size="10.00">stdexcept</text>
</a>
</g>
</g>
<!-- Node2&#45;&gt;Node3 -->
<g id="edge2" class="edge">
<title>Node2&#45;&gt;Node3</title>
<path fill="none" stroke="midnightblue" d="M161.01,-358.48C135.39,-348.31 92.39,-331.26 63.26,-319.7"/>
<polygon fill="midnightblue" stroke="midnightblue" points="64.54,-316.44 53.95,-316.01 61.96,-322.95 64.54,-316.44"/>
</g>
<!-- Node4 -->
<g id="node4" class="node">
<title>Node4</title>
<g id="a_node4"><a xlink:href="visitor_8h.html" target="_top" xlink:title=" ">
<polygon fill="none" stroke="black" points="25.5,-112.5 25.5,-131.5 161.5,-131.5 161.5,-112.5 25.5,-112.5"/>
<text text-anchor="middle" x="93.5" y="-119.5" font-family="Helvetica,sans-Serif" font-size="10.00">HealthGPS.Core/visitor.h</text>
</a>
</g>
</g>
<!-- Node2&#45;&gt;Node4 -->
<g id="edge3" class="edge">
<title>Node2&#45;&gt;Node4</title>
<path fill="none" stroke="midnightblue" d="M178.72,-358.16C167.73,-332.29 135.11,-254.32 112.5,-188 107.22,-172.53 102.07,-154.68 98.47,-141.61"/>
<polygon fill="midnightblue" stroke="midnightblue" points="101.83,-140.64 95.84,-131.91 95.08,-142.48 101.83,-140.64"/>
</g>
<!-- Node8 -->
<g id="node8" class="node">
<title>Node8</title>
<g id="a_node8"><a xlink:href="column__numeric_8h.html" target="_top" xlink:title=" ">
<polygon fill="none" stroke="black" points="180,-291.5 180,-321.5 313,-321.5 313,-291.5 180,-291.5"/>
<text text-anchor="start" x="188" y="-309.5" font-family="Helvetica,sans-Serif" font-size="10.00">HealthGPS.Core/column</text>
<text text-anchor="middle" x="246.5" y="-298.5" font-family="Helvetica,sans-Serif" font-size="10.00">_numeric.h</text>
</a>
</g>
</g>
<!-- Node2&#45;&gt;Node8 -->
<g id="edge7" class="edge">
<title>Node2&#45;&gt;Node8</title>
<path fill="none" stroke="midnightblue" d="M191.67,-358.48C200.09,-350.64 212.92,-338.71 224.06,-328.37"/>
<polygon fill="midnightblue" stroke="midnightblue" points="226.48,-330.9 231.42,-321.52 221.71,-325.77 226.48,-330.9"/>
</g>
<!-- Node19 -->
<g id="node19" class="node">
<title>Node19</title>
<g id="a_node19"><a xlink:href="univariate__summary_8h.html" target="_top" xlink:title=" ">
<polygon fill="none" stroke="black" points="424.5,-224.5 424.5,-254.5 570.5,-254.5 570.5,-224.5 424.5,-224.5"/>
<text text-anchor="start" x="432.5" y="-242.5" font-family="Helvetica,sans-Serif" font-size="10.00">HealthGPS.Core/univariate</text>
<text text-anchor="middle" x="497.5" y="-231.5" font-family="Helvetica,sans-Serif" font-size="10.00">_summary.h</text>
</a>
</g>
</g>
<!-- Node2&#45;&gt;Node19 -->
<g id="edge19" class="edge">
<title>Node2&#45;&gt;Node19</title>
<path fill="none" stroke="midnightblue" d="M212.65,-358.5C241.26,-350.15 285.3,-336.58 322.5,-322 371.28,-302.89 425.73,-276.73 460.74,-259.26"/>
<polygon fill="midnightblue" stroke="midnightblue" points="462.71,-262.19 470.08,-254.57 459.57,-255.93 462.71,-262.19"/>
</g>
<!-- Node5 -->
<g id="node5" class="node">
<title>Node5</title>
<g id="a_node5"><a xlink:href="forward__type_8h.html" target="_top" xlink:title=" ">
<polygon fill="none" stroke="black" points="48.5,-56.5 48.5,-75.5 138.5,-75.5 138.5,-56.5 48.5,-56.5"/>
<text text-anchor="middle" x="93.5" y="-63.5" font-family="Helvetica,sans-Serif" font-size="10.00">forward_type.h</text>
</a>
</g>
</g>
<!-- Node4&#45;&gt;Node5 -->
<g id="edge4" class="edge">
<title>Node4&#45;&gt;Node5</title>
<path fill="none" stroke="midnightblue" d="M93.5,-112.08C93.5,-105.01 93.5,-94.86 93.5,-85.99"/>
<polygon fill="midnightblue" stroke="midnightblue" points="97,-85.75 93.5,-75.75 90,-85.75 97,-85.75"/>
</g>
<!-- Node6 -->
<g id="node6" class="node">
<title>Node6</title>
<g id="a_node6"><a xlink:title=" ">
<polygon fill="none" stroke="#bfbfbf" points="20,-0.5 20,-19.5 89,-19.5 89,-0.5 20,-0.5"/>
<text text-anchor="middle" x="54.5" y="-7.5" font-family="Helvetica,sans-Serif" font-size="10.00">type_traits</text>
</a>
</g>
</g>
<!-- Node5&#45;&gt;Node6 -->
<g id="edge5" class="edge">
<title>Node5&#45;&gt;Node6</title>
<path fill="none" stroke="midnightblue" d="M87.06,-56.08C81.55,-48.46 73.47,-37.26 66.74,-27.94"/>
<polygon fill="midnightblue" stroke="midnightblue" points="69.51,-25.81 60.82,-19.75 63.84,-29.91 69.51,-25.81"/>
</g>
<!-- Node7 -->
<g id="node7" class="node">
<title>Node7</title>
<g id="a_node7"><a xlink:title=" ">
<polygon fill="none" stroke="#bfbfbf" points="107.5,-0.5 107.5,-19.5 157.5,-19.5 157.5,-0.5 107.5,-0.5"/>
<text text-anchor="middle" x="132.5" y="-7.5" font-family="Helvetica,sans-Serif" font-size="10.00">cstdint</text>
</a>
</g>
</g>
<!-- Node5&#45;&gt;Node7 -->
<g id="edge6" class="edge">
<title>Node5&#45;&gt;Node7</title>
<path fill="none" stroke="midnightblue" d="M99.94,-56.08C105.45,-48.46 113.53,-37.26 120.26,-27.94"/>
<polygon fill="midnightblue" stroke="midnightblue" points="123.16,-29.91 126.18,-19.75 117.49,-25.81 123.16,-29.91"/>
</g>
<!-- Node9 -->
<g id="node9" class="node">
<title>Node9</title>
<g id="a_node9"><a xlink:href="column__primitive_8h.html" target="_top" xlink:title=" ">
<polygon fill="none" stroke="black" points="249,-230 249,-249 360,-249 360,-230 249,-230"/>
<text text-anchor="middle" x="304.5" y="-237" font-family="Helvetica,sans-Serif" font-size="10.00">column_primitive.h</text>
</a>
</g>
</g>
<!-- Node8&#45;&gt;Node9 -->
<g id="edge8" class="edge">
<title>Node8&#45;&gt;Node9</title>
<path fill="none" stroke="midnightblue" d="M259.09,-291.4C268.13,-281.26 280.35,-267.57 289.83,-256.94"/>
<polygon fill="midnightblue" stroke="midnightblue" points="292.7,-258.99 296.74,-249.19 287.47,-254.33 292.7,-258.99"/>
</g>
<!-- Node10 -->
<g id="node10" class="node">
<title>Node10</title>
<g id="a_node10"><a xlink:title=" ">
<polygon fill="none" stroke="#bfbfbf" points="321.5,-168.5 321.5,-187.5 385.5,-187.5 385.5,-168.5 321.5,-168.5"/>
<text text-anchor="middle" x="353.5" y="-175.5" font-family="Helvetica,sans-Serif" font-size="10.00">algorithm</text>
</a>
</g>
</g>
<!-- Node9&#45;&gt;Node10 -->
<g id="edge9" class="edge">
<title>Node9&#45;&gt;Node10</title>
<path fill="none" stroke="midnightblue" d="M311.52,-229.98C318.94,-220.96 330.83,-206.52 340.07,-195.31"/>
<polygon fill="midnightblue" stroke="midnightblue" points="342.84,-197.45 346.49,-187.51 337.43,-193 342.84,-197.45"/>
</g>
<!-- Node11 -->
<g id="node11" class="node">
<title>Node11</title>
<g id="a_node11"><a xlink:title=" ">
<polygon fill="none" stroke="#bfbfbf" points="404,-168.5 404,-187.5 451,-187.5 451,-168.5 404,-168.5"/>
<text text-anchor="middle" x="427.5" y="-175.5" font-family="Helvetica,sans-Serif" font-size="10.00">vector</text>
</a>
</g>
</g>
<!-- Node9&#45;&gt;Node11 -->
<g id="edge10" class="edge">
<title>Node9&#45;&gt;Node11</title>
<path fill="none" stroke="midnightblue" d="M322.12,-229.98C342.67,-220.03 376.86,-203.49 400.71,-191.96"/>
<polygon fill="midnightblue" stroke="midnightblue" points="402.43,-195.01 409.91,-187.51 399.38,-188.71 402.43,-195.01"/>
</g>
<!-- Node12 -->
<g id="node12" class="node">
<title>Node12</title>
<g id="a_node12"><a xlink:title=" ">
<polygon fill="none" stroke="#bfbfbf" points="469.5,-168.5 469.5,-187.5 525.5,-187.5 525.5,-168.5 469.5,-168.5"/>
<text text-anchor="middle" x="497.5" y="-175.5" font-family="Helvetica,sans-Serif" font-size="10.00">optional</text>
</a>
</g>
</g>
<!-- Node9&#45;&gt;Node12 -->
<g id="edge11" class="edge">
<title>Node9&#45;&gt;Node12</title>
<path fill="none" stroke="midnightblue" d="M332.15,-229.98C365.69,-219.64 422.37,-202.16 459.87,-190.6"/>
<polygon fill="midnightblue" stroke="midnightblue" points="461.37,-193.8 469.9,-187.51 459.31,-187.11 461.37,-193.8"/>
</g>
<!-- Node13 -->
<g id="node13" class="node">
<title>Node13</title>
<g id="a_node13"><a xlink:href="column_8h.html" target="_top" xlink:title=" ">
<polygon fill="none" stroke="black" points="241.5,-168.5 241.5,-187.5 303.5,-187.5 303.5,-168.5 241.5,-168.5"/>
<text text-anchor="middle" x="272.5" y="-175.5" font-family="Helvetica,sans-Serif" font-size="10.00">column.h</text>
</a>
</g>
</g>
<!-- Node9&#45;&gt;Node13 -->
<g id="edge12" class="edge">
<title>Node9&#45;&gt;Node13</title>
<path fill="none" stroke="midnightblue" d="M299.92,-229.98C295.26,-221.32 287.91,-207.65 281.99,-196.65"/>
<polygon fill="midnightblue" stroke="midnightblue" points="284.9,-194.66 277.08,-187.51 278.73,-197.97 284.9,-194.66"/>
</g>
<!-- Node17 -->
<g id="node17" class="node">
<title>Node17</title>
<g id="a_node17"><a xlink:href="column__iterator_8h.html" target="_top" xlink:title=" ">
<polygon fill="none" stroke="black" points="121.5,-168.5 121.5,-187.5 223.5,-187.5 223.5,-168.5 121.5,-168.5"/>
<text text-anchor="middle" x="172.5" y="-175.5" font-family="Helvetica,sans-Serif" font-size="10.00">column_iterator.h</text>
</a>
</g>
</g>
<!-- Node9&#45;&gt;Node17 -->
<g id="edge17" class="edge">
<title>Node9&#45;&gt;Node17</title>
<path fill="none" stroke="midnightblue" d="M285.59,-229.98C263.34,-219.95 226.19,-203.2 200.57,-191.65"/>
<polygon fill="midnightblue" stroke="midnightblue" points="201.93,-188.43 191.38,-187.51 199.06,-194.81 201.93,-188.43"/>
</g>
<!-- Node13&#45;&gt;Node4 -->
<g id="edge16" class="edge">
<title>Node13&#45;&gt;Node4</title>
<path fill="none" stroke="midnightblue" d="M244.14,-168.44C213.76,-159.28 165.39,-144.69 131.68,-134.52"/>
<polygon fill="midnightblue" stroke="midnightblue" points="132.32,-131.05 121.73,-131.52 130.29,-137.76 132.32,-131.05"/>
</g>
<!-- Node14 -->
<g id="node14" class="node">
<title>Node14</title>
<g id="a_node14"><a xlink:title=" ">
<polygon fill="none" stroke="#bfbfbf" points="253,-112.5 253,-131.5 288,-131.5 288,-112.5 253,-112.5"/>
<text text-anchor="middle" x="270.5" y="-119.5" font-family="Helvetica,sans-Serif" font-size="10.00">any</text>
</a>
</g>
</g>
<!-- Node13&#45;&gt;Node14 -->
<g id="edge13" class="edge">
<title>Node13&#45;&gt;Node14</title>
<path fill="none" stroke="midnightblue" d="M272.17,-168.08C271.91,-161.01 271.53,-150.86 271.2,-141.99"/>
<polygon fill="midnightblue" stroke="midnightblue" points="274.69,-141.61 270.82,-131.75 267.7,-141.87 274.69,-141.61"/>
</g>
<!-- Node15 -->
<g id="node15" class="node">
<title>Node15</title>
<g id="a_node15"><a xlink:title=" ">
<polygon fill="none" stroke="#bfbfbf" points="306,-112.5 306,-131.5 363,-131.5 363,-112.5 306,-112.5"/>
<text text-anchor="middle" x="334.5" y="-119.5" font-family="Helvetica,sans-Serif" font-size="10.00">typeinfo</text>
</a>
</g>
</g>
<!-- Node13&#45;&gt;Node15 -->
<g id="edge14" class="edge">
<title>Node13&#45;&gt;Node15</title>
<path fill="none" stroke="midnightblue" d="M282.46,-168.32C291.63,-160.34 305.44,-148.31 316.53,-138.65"/>
<polygon fill="midnightblue" stroke="midnightblue" points="319.12,-141.04 324.36,-131.83 314.52,-135.76 319.12,-141.04"/>
</g>
<!-- Node16 -->
<g id="node16" class="node">
<title>Node16</title>
<g id="a_node16"><a xlink:title=" ">
<polygon fill="none" stroke="#bfbfbf" points="456.5,-112.5 456.5,-131.5 500.5,-131.5 500.5,-112.5 456.5,-112.5"/>
<text text-anchor="middle" x="478.5" y="-119.5" font-family="Helvetica,sans-Serif" font-size="10.00">string</text>
</a>
</g>
</g>
<!-- Node13&#45;&gt;Node16 -->
<g id="edge15" class="edge">
<title>Node13&#45;&gt;Node16</title>
<path fill="none" stroke="midnightblue" d="M303.79,-168.8C342.43,-158.67 407.81,-141.53 446.69,-131.34"/>
<polygon fill="midnightblue" stroke="midnightblue" points="447.65,-134.7 456.44,-128.78 445.88,-127.93 447.65,-134.7"/>
</g>
<!-- Node18 -->
<g id="node18" class="node">
<title>Node18</title>
<g id="a_node18"><a xlink:title=" ">
<polygon fill="none" stroke="#bfbfbf" points="180,-112.5 180,-131.5 233,-131.5 233,-112.5 180,-112.5"/>
<text text-anchor="middle" x="206.5" y="-119.5" font-family="Helvetica,sans-Serif" font-size="10.00">iterator</text>
</a>
</g>
</g>
<!-- Node17&#45;&gt;Node18 -->
<g id="edge18" class="edge">
<title>Node17&#45;&gt;Node18</title>
<path fill="none" stroke="midnightblue" d="M178.11,-168.08C182.87,-160.53 189.82,-149.49 195.65,-140.23"/>
<polygon fill="midnightblue" stroke="midnightblue" points="198.62,-142.08 200.99,-131.75 192.7,-138.35 198.62,-142.08"/>
</g>
<!-- Node19&#45;&gt;Node11 -->
<g id="edge21" class="edge">
<title>Node19&#45;&gt;Node11</title>
<path fill="none" stroke="midnightblue" d="M480.91,-224.4C470.21,-215.31 456.31,-203.49 445.37,-194.19"/>
<polygon fill="midnightblue" stroke="midnightblue" points="447.57,-191.47 437.69,-187.66 443.04,-196.8 447.57,-191.47"/>
</g>
<!-- Node19&#45;&gt;Node12 -->
<g id="edge23" class="edge">
<title>Node19&#45;&gt;Node12</title>
<path fill="none" stroke="midnightblue" d="M497.5,-224.4C497.5,-216.47 497.5,-206.46 497.5,-197.86"/>
<polygon fill="midnightblue" stroke="midnightblue" points="501,-197.66 497.5,-187.66 494,-197.66 501,-197.66"/>
</g>
<!-- Node19&#45;&gt;Node16 -->
<g id="edge20" class="edge">
<title>Node19&#45;&gt;Node16</title>
<path fill="none" stroke="midnightblue" d="M513.5,-224.34C527.43,-210.22 544,-187.82 534.5,-168 528.25,-154.95 516.16,-144.49 504.82,-136.95"/>
<polygon fill="midnightblue" stroke="midnightblue" points="506.35,-133.79 496,-131.54 502.69,-139.75 506.35,-133.79"/>
</g>
<!-- Node20 -->
<g id="node20" class="node">
<title>Node20</title>
<g id="a_node20"><a xlink:title=" ">
<polygon fill="none" stroke="#bfbfbf" points="582,-168.5 582,-187.5 639,-187.5 639,-168.5 582,-168.5"/>
<text text-anchor="middle" x="610.5" y="-175.5" font-family="Helvetica,sans-Serif" font-size="10.00">ostream</text>
</a>
</g>
</g>
<!-- Node19&#45;&gt;Node20 -->
<g id="edge22" class="edge">
<title>Node19&#45;&gt;Node20</title>
<path fill="none" stroke="midnightblue" d="M524.28,-224.4C542.56,-214.77 566.65,-202.09 584.71,-192.58"/>
<polygon fill="midnightblue" stroke="midnightblue" points="586.84,-195.41 594.06,-187.66 583.58,-189.22 586.84,-195.41"/>
</g>
</g>
</svg>
