<?xml version="1.0" encoding="UTF-8" standalone="no"?>
<!DOCTYPE svg PUBLIC "-//W3C//DTD SVG 1.1//EN"
 "http://www.w3.org/Graphics/SVG/1.1/DTD/svg11.dtd">
<!-- Generated by graphviz version 7.0.6 (20230106.0513)
 -->
<!-- Title: HealthGPS.Core/univariate_summary.cpp Pages: 1 -->
<svg width="363pt" height="148pt"
 viewBox="0.00 0.00 362.50 148.00" xmlns="http://www.w3.org/2000/svg" xmlns:xlink="http://www.w3.org/1999/xlink">
<g id="graph0" class="graph" transform="scale(1 1) rotate(0) translate(4 144)">
<title>HealthGPS.Core/univariate_summary.cpp</title>
<!-- Node1 -->
<g id="node1" class="node">
<title>Node1</title>
<g id="a_node1"><a xlink:title=" ">
<polygon fill="#999999" stroke="#666666" points="275.5,-140 143.5,-140 143.5,-110 275.5,-110 275.5,-140"/>
<text text-anchor="start" x="151.5" y="-128" font-family="Helvetica,sans-Serif" font-size="10.00">HealthGPS.Core/univariate</text>
<text text-anchor="middle" x="209.5" y="-117" font-family="Helvetica,sans-Serif" font-size="10.00">_summary.cpp</text>
</a>
</g>
</g>
<!-- Node2 -->
<g id="node2" class="node">
<title>Node2</title>
<g id="a_node2"><a xlink:href="univariate__summary_8h.html" target="_top" xlink:title=" ">
<polygon fill="white" stroke="#666666" points="136,-74 25,-74 25,-55 136,-55 136,-74"/>
<text text-anchor="middle" x="80.5" y="-62" font-family="Helvetica,sans-Serif" font-size="10.00">univariate_summary.h</text>
</a>
</g>
</g>
<!-- Node1&#45;&gt;Node2 -->
<g id="edge1" class="edge">
<title>Node1&#45;&gt;Node2</title>
<path fill="none" stroke="#63b8ff" d="M177.61,-109.54C157.09,-100.23 130.59,-88.22 110.46,-79.09"/>
<polygon fill="#63b8ff" stroke="#63b8ff" points="111.94,-75.91 101.39,-74.97 109.05,-82.29 111.94,-75.91"/>
</g>
<!-- Node6 -->
<g id="node6" class="node">
<title>Node6</title>
<g id="a_node6"><a xlink:title=" ">
<polygon fill="#e0e0e0" stroke="#999999" points="198.5,-74 154.5,-74 154.5,-55 198.5,-55 198.5,-74"/>
<text text-anchor="middle" x="176.5" y="-62" font-family="Helvetica,sans-Serif" font-size="10.00">cmath</text>
</a>
</g>
</g>
<!-- Node1&#45;&gt;Node6 -->
<g id="edge5" class="edge">
<title>Node1&#45;&gt;Node6</title>
<path fill="none" stroke="#63b8ff" d="M201.34,-109.54C196.99,-101.82 191.59,-92.24 186.93,-83.99"/>
<polygon fill="#63b8ff" stroke="#63b8ff" points="190.1,-82.48 182.14,-75.49 184,-85.92 190.1,-82.48"/>
</g>
<!-- Node7 -->
<g id="node7" class="node">
<title>Node7</title>
<g id="a_node7"><a xlink:title=" ">
<polygon fill="#e0e0e0" stroke="#999999" points="268.5,-74 216.5,-74 216.5,-55 268.5,-55 268.5,-74"/>
<text text-anchor="middle" x="242.5" y="-62" font-family="Helvetica,sans-Serif" font-size="10.00">sstream</text>
</a>
</g>
</g>
<!-- Node1&#45;&gt;Node7 -->
<g id="edge6" class="edge">
<title>Node1&#45;&gt;Node7</title>
<path fill="none" stroke="#63b8ff" d="M217.66,-109.54C222.01,-101.82 227.41,-92.24 232.07,-83.99"/>
<polygon fill="#63b8ff" stroke="#63b8ff" points="235,-85.92 236.86,-75.49 228.9,-82.48 235,-85.92"/>
</g>
<!-- Node8 -->
<g id="node8" class="node">
<title>Node8</title>
<g id="a_node8"><a xlink:title=" ">
<polygon fill="#e0e0e0" stroke="#999999" points="354.5,-74 286.5,-74 286.5,-55 354.5,-55 354.5,-74"/>
<text text-anchor="middle" x="320.5" y="-62" font-family="Helvetica,sans-Serif" font-size="10.00">fmt/format.h</text>
</a>
</g>
</g>
<!-- Node1&#45;&gt;Node8 -->
<g id="edge7" class="edge">
<title>Node1&#45;&gt;Node8</title>
<path fill="none" stroke="#63b8ff" d="M236.94,-109.54C254.27,-100.4 276.56,-88.66 293.75,-79.6"/>
<polygon fill="#63b8ff" stroke="#63b8ff" points="295.16,-82.81 302.38,-75.05 291.9,-76.62 295.16,-82.81"/>
</g>
<!-- Node3 -->
<g id="node3" class="node">
<title>Node3</title>
<g id="a_node3"><a xlink:title=" ">
<polygon fill="#e0e0e0" stroke="#999999" points="41,-19 0,-19 0,0 41,0 41,-19"/>
<text text-anchor="middle" x="20.5" y="-7" font-family="Helvetica,sans-Serif" font-size="10.00">string</text>
</a>
</g>
</g>
<!-- Node2&#45;&gt;Node3 -->
<g id="edge2" class="edge">
<title>Node2&#45;&gt;Node3</title>
<path fill="none" stroke="#63b8ff" d="M70.32,-54.51C61.74,-46.93 49.23,-35.88 38.9,-26.75"/>
<polygon fill="#63b8ff" stroke="#63b8ff" points="41.47,-24.36 31.66,-20.36 36.84,-29.6 41.47,-24.36"/>
</g>
<!-- Node4 -->
<g id="node4" class="node">
<title>Node4</title>
<g id="a_node4"><a xlink:title=" ">
<polygon fill="#e0e0e0" stroke="#999999" points="101.5,-19 59.5,-19 59.5,0 101.5,0 101.5,-19"/>
<text text-anchor="middle" x="80.5" y="-7" font-family="Helvetica,sans-Serif" font-size="10.00">vector</text>
</a>
</g>
</g>
<!-- Node2&#45;&gt;Node4 -->
<g id="edge3" class="edge">
<title>Node2&#45;&gt;Node4</title>
<path fill="none" stroke="#63b8ff" d="M80.5,-54.75C80.5,-48.27 80.5,-39.16 80.5,-30.9"/>
<polygon fill="#63b8ff" stroke="#63b8ff" points="84,-30.96 80.5,-20.96 77,-30.96 84,-30.96"/>
</g>
<!-- Node5 -->
<g id="node5" class="node">
<title>Node5</title>
<g id="a_node5"><a xlink:title=" ">
<polygon fill="#e0e0e0" stroke="#999999" points="169.5,-19 119.5,-19 119.5,0 169.5,0 169.5,-19"/>
<text text-anchor="middle" x="144.5" y="-7" font-family="Helvetica,sans-Serif" font-size="10.00">optional</text>
</a>
</g>
</g>
<!-- Node2&#45;&gt;Node5 -->
<g id="edge4" class="edge">
<title>Node2&#45;&gt;Node5</title>
<path fill="none" stroke="#63b8ff" d="M91.36,-54.51C100.61,-46.85 114.12,-35.66 125.21,-26.47"/>
<polygon fill="#63b8ff" stroke="#63b8ff" points="127.17,-29.4 132.64,-20.32 122.7,-24.01 127.17,-29.4"/>
</g>
</g>
</svg>
