<?xml version="1.0" encoding="UTF-8" standalone="no"?>
<!DOCTYPE svg PUBLIC "-//W3C//DTD SVG 1.1//EN"
 "http://www.w3.org/Graphics/SVG/1.1/DTD/svg11.dtd">
<!-- Generated by graphviz version 7.0.6 (20230106.0513)
 -->
<!-- Title: HealthGPS/univariate_visitor.h Pages: 1 -->
<svg width="535pt" height="390pt"
 viewBox="0.00 0.00 534.50 390.00" xmlns="http://www.w3.org/2000/svg" xmlns:xlink="http://www.w3.org/1999/xlink">
<g id="graph0" class="graph" transform="scale(1 1) rotate(0) translate(4 386)">
<title>HealthGPS/univariate_visitor.h</title>
<!-- Node1 -->
<g id="node1" class="node">
<title>Node1</title>
<g id="a_node1"><a xlink:title=" ">
<polygon fill="#999999" stroke="#666666" points="189,-382 80,-382 80,-352 189,-352 189,-382"/>
<text text-anchor="start" x="88" y="-370" font-family="Helvetica,sans-Serif" font-size="10.00">HealthGPS/univariate</text>
<text text-anchor="middle" x="134.5" y="-359" font-family="Helvetica,sans-Serif" font-size="10.00">_visitor.h</text>
</a>
</g>
</g>
<!-- Node2 -->
<g id="node2" class="node">
<title>Node2</title>
<g id="a_node2"><a xlink:title=" ">
<polygon fill="#e0e0e0" stroke="#999999" points="59,-310.5 0,-310.5 0,-291.5 59,-291.5 59,-310.5"/>
<text text-anchor="middle" x="29.5" y="-298.5" font-family="Helvetica,sans-Serif" font-size="10.00">stdexcept</text>
</a>
</g>
</g>
<!-- Node1&#45;&gt;Node2 -->
<g id="edge1" class="edge">
<title>Node1&#45;&gt;Node2</title>
<path fill="none" stroke="#63b8ff" d="M110.94,-351.64C93.85,-341.22 70.82,-327.19 53.61,-316.7"/>
<polygon fill="#63b8ff" stroke="#63b8ff" points="55.9,-313.99 45.53,-311.77 52.25,-319.97 55.9,-313.99"/>
</g>
<!-- Node3 -->
<g id="node3" class="node">
<title>Node3</title>
<g id="a_node3"><a xlink:href="visitor_8h.html" target="_top" xlink:title=" ">
<polygon fill="white" stroke="#666666" points="159,-129 34,-129 34,-110 159,-110 159,-129"/>
<text text-anchor="middle" x="96.5" y="-117" font-family="Helvetica,sans-Serif" font-size="10.00">HealthGPS.Core/visitor.h</text>
</a>
</g>
</g>
<!-- Node1&#45;&gt;Node3 -->
<g id="edge2" class="edge">
<title>Node1&#45;&gt;Node3</title>
<path fill="none" stroke="#63b8ff" d="M130.21,-351.5C123.93,-329.69 112.36,-287.04 106.5,-250 100.44,-211.69 98.01,-166.39 97.06,-140.8"/>
<polygon fill="#63b8ff" stroke="#63b8ff" points="100.57,-140.74 96.75,-130.86 93.57,-140.97 100.57,-140.74"/>
</g>
<!-- Node7 -->
<g id="node7" class="node">
<title>Node7</title>
<g id="a_node7"><a xlink:href="column__numeric_8h.html" target="_top" xlink:title=" ">
<polygon fill="white" stroke="#666666" points="331,-316 208,-316 208,-286 331,-286 331,-316"/>
<text text-anchor="start" x="216" y="-304" font-family="Helvetica,sans-Serif" font-size="10.00">HealthGPS.Core/column</text>
<text text-anchor="middle" x="269.5" y="-293" font-family="Helvetica,sans-Serif" font-size="10.00">_numeric.h</text>
</a>
</g>
</g>
<!-- Node1&#45;&gt;Node7 -->
<g id="edge6" class="edge">
<title>Node1&#45;&gt;Node7</title>
<path fill="none" stroke="#63b8ff" d="M164.8,-351.64C183.73,-342.66 208.34,-330.99 228.95,-321.23"/>
<polygon fill="#63b8ff" stroke="#63b8ff" points="230.4,-324.41 237.94,-316.96 227.4,-318.08 230.4,-324.41"/>
</g>
<!-- Node18 -->
<g id="node18" class="node">
<title>Node18</title>
<g id="a_node18"><a xlink:href="univariate__summary_8h.html" target="_top" xlink:title=" ">
<polygon fill="white" stroke="#666666" points="247.5,-250 115.5,-250 115.5,-220 247.5,-220 247.5,-250"/>
<text text-anchor="start" x="123.5" y="-238" font-family="Helvetica,sans-Serif" font-size="10.00">HealthGPS.Core/univariate</text>
<text text-anchor="middle" x="181.5" y="-227" font-family="Helvetica,sans-Serif" font-size="10.00">_summary.h</text>
</a>
</g>
</g>
<!-- Node1&#45;&gt;Node18 -->
<g id="edge18" class="edge">
<title>Node1&#45;&gt;Node18</title>
<path fill="none" stroke="#63b8ff" d="M139.71,-351.59C147.61,-329.73 162.75,-287.87 172.47,-260.98"/>
<polygon fill="#63b8ff" stroke="#63b8ff" points="175.64,-262.49 175.75,-251.9 169.06,-260.11 175.64,-262.49"/>
</g>
<!-- Node4 -->
<g id="node4" class="node">
<title>Node4</title>
<g id="a_node4"><a xlink:href="forward__type_8h.html" target="_top" xlink:title=" ">
<polygon fill="white" stroke="#666666" points="136.5,-74 56.5,-74 56.5,-55 136.5,-55 136.5,-74"/>
<text text-anchor="middle" x="96.5" y="-62" font-family="Helvetica,sans-Serif" font-size="10.00">forward_type.h</text>
</a>
</g>
</g>
<!-- Node3&#45;&gt;Node4 -->
<g id="edge3" class="edge">
<title>Node3&#45;&gt;Node4</title>
<path fill="none" stroke="#63b8ff" d="M96.5,-109.75C96.5,-103.27 96.5,-94.16 96.5,-85.9"/>
<polygon fill="#63b8ff" stroke="#63b8ff" points="100,-85.96 96.5,-75.96 93,-85.96 100,-85.96"/>
</g>
<!-- Node5 -->
<g id="node5" class="node">
<title>Node5</title>
<g id="a_node5"><a xlink:title=" ">
<polygon fill="#e0e0e0" stroke="#999999" points="91.5,-19 29.5,-19 29.5,0 91.5,0 91.5,-19"/>
<text text-anchor="middle" x="60.5" y="-7" font-family="Helvetica,sans-Serif" font-size="10.00">type_traits</text>
</a>
</g>
</g>
<!-- Node4&#45;&gt;Node5 -->
<g id="edge4" class="edge">
<title>Node4&#45;&gt;Node5</title>
<path fill="none" stroke="#63b8ff" d="M90.56,-54.75C85.79,-47.73 78.94,-37.64 72.98,-28.87"/>
<polygon fill="#63b8ff" stroke="#63b8ff" points="75.94,-27 67.42,-20.69 70.15,-30.93 75.94,-27"/>
</g>
<!-- Node6 -->
<g id="node6" class="node">
<title>Node6</title>
<g id="a_node6"><a xlink:title=" ">
<polygon fill="#e0e0e0" stroke="#999999" points="155.5,-19 109.5,-19 109.5,0 155.5,0 155.5,-19"/>
<text text-anchor="middle" x="132.5" y="-7" font-family="Helvetica,sans-Serif" font-size="10.00">cstdint</text>
</a>
</g>
</g>
<!-- Node4&#45;&gt;Node6 -->
<g id="edge5" class="edge">
<title>Node4&#45;&gt;Node6</title>
<path fill="none" stroke="#63b8ff" d="M102.44,-54.75C107.21,-47.73 114.06,-37.64 120.02,-28.87"/>
<polygon fill="#63b8ff" stroke="#63b8ff" points="122.85,-30.93 125.58,-20.69 117.06,-27 122.85,-30.93"/>
</g>
<!-- Node8 -->
<g id="node8" class="node">
<title>Node8</title>
<g id="a_node8"><a xlink:href="column__primitive_8h.html" target="_top" xlink:title=" ">
<polygon fill="white" stroke="#666666" points="363,-244.5 266,-244.5 266,-225.5 363,-225.5 363,-244.5"/>
<text text-anchor="middle" x="314.5" y="-232.5" font-family="Helvetica,sans-Serif" font-size="10.00">column_primitive.h</text>
</a>
</g>
</g>
<!-- Node7&#45;&gt;Node8 -->
<g id="edge7" class="edge">
<title>Node7&#45;&gt;Node8</title>
<path fill="none" stroke="#63b8ff" d="M279.49,-285.8C286.02,-276.5 294.62,-264.27 301.66,-254.26"/>
<polygon fill="#63b8ff" stroke="#63b8ff" points="304.52,-256.28 307.41,-246.08 298.8,-252.25 304.52,-256.28"/>
</g>
<!-- Node9 -->
<g id="node9" class="node">
<title>Node9</title>
<g id="a_node9"><a xlink:title=" ">
<polygon fill="#e0e0e0" stroke="#999999" points="416.5,-184 360.5,-184 360.5,-165 416.5,-165 416.5,-184"/>
<text text-anchor="middle" x="388.5" y="-172" font-family="Helvetica,sans-Serif" font-size="10.00">algorithm</text>
</a>
</g>
</g>
<!-- Node8&#45;&gt;Node9 -->
<g id="edge8" class="edge">
<title>Node8&#45;&gt;Node9</title>
<path fill="none" stroke="#63b8ff" d="M325.74,-225.12C337.04,-216.18 354.71,-202.22 368.42,-191.37"/>
<polygon fill="#63b8ff" stroke="#63b8ff" points="370.29,-194.35 375.97,-185.41 365.95,-188.86 370.29,-194.35"/>
</g>
<!-- Node10 -->
<g id="node10" class="node">
<title>Node10</title>
<g id="a_node10"><a xlink:title=" ">
<polygon fill="#e0e0e0" stroke="#999999" points="200.5,-184 158.5,-184 158.5,-165 200.5,-165 200.5,-184"/>
<text text-anchor="middle" x="179.5" y="-172" font-family="Helvetica,sans-Serif" font-size="10.00">vector</text>
</a>
</g>
</g>
<!-- Node8&#45;&gt;Node10 -->
<g id="edge9" class="edge">
<title>Node8&#45;&gt;Node10</title>
<path fill="none" stroke="#63b8ff" d="M294,-225.12C271.79,-215.49 236.13,-200.04 210.5,-188.93"/>
<polygon fill="#63b8ff" stroke="#63b8ff" points="212.15,-185.83 201.59,-185.07 209.37,-192.26 212.15,-185.83"/>
</g>
<!-- Node11 -->
<g id="node11" class="node">
<title>Node11</title>
<g id="a_node11"><a xlink:title=" ">
<polygon fill="#e0e0e0" stroke="#999999" points="268.5,-184 218.5,-184 218.5,-165 268.5,-165 268.5,-184"/>
<text text-anchor="middle" x="243.5" y="-172" font-family="Helvetica,sans-Serif" font-size="10.00">optional</text>
</a>
</g>
</g>
<!-- Node8&#45;&gt;Node11 -->
<g id="edge10" class="edge">
<title>Node8&#45;&gt;Node11</title>
<path fill="none" stroke="#63b8ff" d="M303.72,-225.12C292.98,-216.27 276.25,-202.48 263.15,-191.69"/>
<polygon fill="#63b8ff" stroke="#63b8ff" points="265.5,-189.09 255.55,-185.43 261.05,-194.49 265.5,-189.09"/>
</g>
<!-- Node12 -->
<g id="node12" class="node">
<title>Node12</title>
<g id="a_node12"><a xlink:href="column_8h.html" target="_top" xlink:title=" ">
<polygon fill="white" stroke="#666666" points="342.5,-184 286.5,-184 286.5,-165 342.5,-165 342.5,-184"/>
<text text-anchor="middle" x="314.5" y="-172" font-family="Helvetica,sans-Serif" font-size="10.00">column.h</text>
</a>
</g>
</g>
<!-- Node8&#45;&gt;Node12 -->
<g id="edge11" class="edge">
<title>Node8&#45;&gt;Node12</title>
<path fill="none" stroke="#63b8ff" d="M314.5,-225.37C314.5,-217.5 314.5,-205.6 314.5,-195.39"/>
<polygon fill="#63b8ff" stroke="#63b8ff" points="318,-195.68 314.5,-185.68 311,-195.68 318,-195.68"/>
</g>
<!-- Node16 -->
<g id="node16" class="node">
<title>Node16</title>
<g id="a_node16"><a xlink:href="column__iterator_8h.html" target="_top" xlink:title=" ">
<polygon fill="white" stroke="#666666" points="526.5,-184 434.5,-184 434.5,-165 526.5,-165 526.5,-184"/>
<text text-anchor="middle" x="480.5" y="-172" font-family="Helvetica,sans-Serif" font-size="10.00">column_iterator.h</text>
</a>
</g>
</g>
<!-- Node8&#45;&gt;Node16 -->
<g id="edge16" class="edge">
<title>Node8&#45;&gt;Node16</title>
<path fill="none" stroke="#63b8ff" d="M339.71,-225.12C367.62,-215.28 412.84,-199.34 444.48,-188.19"/>
<polygon fill="#63b8ff" stroke="#63b8ff" points="445.36,-191.6 453.62,-184.97 443.03,-184.99 445.36,-191.6"/>
</g>
<!-- Node12&#45;&gt;Node3 -->
<g id="edge15" class="edge">
<title>Node12&#45;&gt;Node3</title>
<path fill="none" stroke="#63b8ff" d="M286,-166.57C250.08,-157.84 187.82,-142.7 144.51,-132.17"/>
<polygon fill="#63b8ff" stroke="#63b8ff" points="145.4,-128.79 134.86,-129.82 143.75,-135.59 145.4,-128.79"/>
</g>
<!-- Node13 -->
<g id="node13" class="node">
<title>Node13</title>
<g id="a_node13"><a xlink:title=" ">
<polygon fill="#e0e0e0" stroke="#999999" points="360.5,-129 328.5,-129 328.5,-110 360.5,-110 360.5,-129"/>
<text text-anchor="middle" x="344.5" y="-117" font-family="Helvetica,sans-Serif" font-size="10.00">any</text>
</a>
</g>
</g>
<!-- Node12&#45;&gt;Node13 -->
<g id="edge12" class="edge">
<title>Node12&#45;&gt;Node13</title>
<path fill="none" stroke="#63b8ff" d="M319.45,-164.75C323.34,-157.88 328.89,-148.08 333.78,-139.45"/>
<polygon fill="#63b8ff" stroke="#63b8ff" points="336.81,-141.19 338.69,-130.76 330.72,-137.74 336.81,-141.19"/>
</g>
<!-- Node14 -->
<g id="node14" class="node">
<title>Node14</title>
<g id="a_node14"><a xlink:title=" ">
<polygon fill="#e0e0e0" stroke="#999999" points="310.5,-129 260.5,-129 260.5,-110 310.5,-110 310.5,-129"/>
<text text-anchor="middle" x="285.5" y="-117" font-family="Helvetica,sans-Serif" font-size="10.00">typeinfo</text>
</a>
</g>
</g>
<!-- Node12&#45;&gt;Node14 -->
<g id="edge13" class="edge">
<title>Node12&#45;&gt;Node14</title>
<path fill="none" stroke="#63b8ff" d="M309.71,-164.75C305.96,-157.88 300.59,-148.08 295.87,-139.45"/>
<polygon fill="#63b8ff" stroke="#63b8ff" points="298.99,-137.86 291.12,-130.77 292.85,-141.22 298.99,-137.86"/>
</g>
<!-- Node15 -->
<g id="node15" class="node">
<title>Node15</title>
<g id="a_node15"><a xlink:title=" ">
<polygon fill="#e0e0e0" stroke="#999999" points="234,-129 193,-129 193,-110 234,-110 234,-129"/>
<text text-anchor="middle" x="213.5" y="-117" font-family="Helvetica,sans-Serif" font-size="10.00">string</text>
</a>
</g>
</g>
<!-- Node12&#45;&gt;Node15 -->
<g id="edge14" class="edge">
<title>Node12&#45;&gt;Node15</title>
<path fill="none" stroke="#63b8ff" d="M297.37,-164.51C281.75,-156.31 258.42,-144.07 240.33,-134.58"/>
<polygon fill="#63b8ff" stroke="#63b8ff" points="242.2,-131.61 231.72,-130.06 238.95,-137.81 242.2,-131.61"/>
</g>
<!-- Node17 -->
<g id="node17" class="node">
<title>Node17</title>
<g id="a_node17"><a xlink:title=" ">
<polygon fill="#e0e0e0" stroke="#999999" points="504,-129 457,-129 457,-110 504,-110 504,-129"/>
<text text-anchor="middle" x="480.5" y="-117" font-family="Helvetica,sans-Serif" font-size="10.00">iterator</text>
</a>
</g>
</g>
<!-- Node16&#45;&gt;Node17 -->
<g id="edge17" class="edge">
<title>Node16&#45;&gt;Node17</title>
<path fill="none" stroke="#63b8ff" d="M480.5,-164.75C480.5,-158.27 480.5,-149.16 480.5,-140.9"/>
<polygon fill="#63b8ff" stroke="#63b8ff" points="484,-140.96 480.5,-130.96 477,-140.96 484,-140.96"/>
</g>
<!-- Node18&#45;&gt;Node10 -->
<g id="edge20" class="edge">
<title>Node18&#45;&gt;Node10</title>
<path fill="none" stroke="#63b8ff" d="M181.01,-219.54C180.76,-212.34 180.46,-203.53 180.19,-195.68"/>
<polygon fill="#63b8ff" stroke="#63b8ff" points="183.69,-195.56 179.85,-185.69 176.69,-195.8 183.69,-195.56"/>
</g>
<!-- Node18&#45;&gt;Node11 -->
<g id="edge21" class="edge">
<title>Node18&#45;&gt;Node11</title>
<path fill="none" stroke="#63b8ff" d="M196.83,-219.54C205.65,-211.22 216.77,-200.72 225.94,-192.07"/>
<polygon fill="#63b8ff" stroke="#63b8ff" points="228.33,-194.62 233.2,-185.21 223.53,-189.53 228.33,-194.62"/>
</g>
<!-- Node18&#45;&gt;Node15 -->
<g id="edge19" class="edge">
<title>Node18&#45;&gt;Node15</title>
<path fill="none" stroke="#63b8ff" d="M166.77,-219.54C154.29,-205.44 139.84,-183.49 149.5,-165 156.62,-151.37 170.03,-141.08 182.74,-133.84"/>
<polygon fill="#63b8ff" stroke="#63b8ff" points="184.05,-137.1 191.31,-129.38 180.82,-130.89 184.05,-137.1"/>
</g>
</g>
</svg>
