<?xml version="1.0" encoding="UTF-8" standalone="no"?>
<!DOCTYPE svg PUBLIC "-//W3C//DTD SVG 1.1//EN"
 "http://www.w3.org/Graphics/SVG/1.1/DTD/svg11.dtd">
<!-- Generated by graphviz version 2.43.0 (0)
 -->
<!-- Title: HealthGPS.Core/version.cpp Pages: 1 -->
<svg width="194pt" height="140pt"
 viewBox="0.00 0.00 194.00 140.00" xmlns="http://www.w3.org/2000/svg" xmlns:xlink="http://www.w3.org/1999/xlink">
<g id="graph0" class="graph" transform="scale(1 1) rotate(0) translate(4 136)">
<title>HealthGPS.Core/version.cpp</title>
<!-- Node1 -->
<g id="node1" class="node">
<title>Node1</title>
<g id="a_node1"><a xlink:title=" ">
<polygon fill="#bfbfbf" stroke="black" points="19.5,-112.5 19.5,-131.5 172.5,-131.5 172.5,-112.5 19.5,-112.5"/>
<text text-anchor="middle" x="96" y="-119.5" font-family="Helvetica,sans-Serif" font-size="10.00">HealthGPS.Core/version.cpp</text>
</a>
</g>
</g>
<!-- Node2 -->
<g id="node2" class="node">
<title>Node2</title>
<g id="a_node2"><a xlink:href="version_8h.html" target="_top" xlink:title=" ">
<polygon fill="none" stroke="black" points="0,-56.5 0,-75.5 62,-75.5 62,-56.5 0,-56.5"/>
<text text-anchor="middle" x="31" y="-63.5" font-family="Helvetica,sans-Serif" font-size="10.00">version.h</text>
</a>
</g>
</g>
<!-- Node1&#45;&gt;Node2 -->
<g id="edge1" class="edge">
<title>Node1&#45;&gt;Node2</title>
<path fill="none" stroke="midnightblue" d="M85.56,-112.32C75.85,-104.26 61.18,-92.08 49.5,-82.37"/>
<polygon fill="midnightblue" stroke="midnightblue" points="51.56,-79.53 41.63,-75.83 47.09,-84.92 51.56,-79.53"/>
</g>
<!-- Node4 -->
<g id="node4" class="node">
<title>Node4</title>
<g id="a_node4"><a xlink:title=" ">
<polygon fill="none" stroke="#bfbfbf" points="80,-56.5 80,-75.5 112,-75.5 112,-56.5 80,-56.5"/>
<text text-anchor="middle" x="96" y="-63.5" font-family="Helvetica,sans-Serif" font-size="10.00">set</text>
</a>
</g>
</g>
<!-- Node1&#45;&gt;Node4 -->
<g id="edge3" class="edge">
<title>Node1&#45;&gt;Node4</title>
<path fill="none" stroke="midnightblue" d="M96,-112.08C96,-105.01 96,-94.86 96,-85.99"/>
<polygon fill="midnightblue" stroke="midnightblue" points="99.5,-85.75 96,-75.75 92.5,-85.75 99.5,-85.75"/>
</g>
<!-- Node5 -->
<g id="node5" class="node">
<title>Node5</title>
<g id="a_node5"><a xlink:title=" ">
<polygon fill="none" stroke="#bfbfbf" points="130,-56.5 130,-75.5 186,-75.5 186,-56.5 130,-56.5"/>
<text text-anchor="middle" x="158" y="-63.5" font-family="Helvetica,sans-Serif" font-size="10.00">sstream</text>
</a>
</g>
</g>
<!-- Node1&#45;&gt;Node5 -->
<g id="edge4" class="edge">
<title>Node1&#45;&gt;Node5</title>
<path fill="none" stroke="midnightblue" d="M105.96,-112.32C115.13,-104.34 128.94,-92.31 140.03,-82.65"/>
<polygon fill="midnightblue" stroke="midnightblue" points="142.62,-85.04 147.86,-75.83 138.02,-79.76 142.62,-85.04"/>
</g>
<!-- Node3 -->
<g id="node3" class="node">
<title>Node3</title>
<g id="a_node3"><a xlink:title=" ">
<polygon fill="none" stroke="#bfbfbf" points="9,-0.5 9,-19.5 53,-19.5 53,-0.5 9,-0.5"/>
<text text-anchor="middle" x="31" y="-7.5" font-family="Helvetica,sans-Serif" font-size="10.00">string</text>
</a>
</g>
</g>
<!-- Node2&#45;&gt;Node3 -->
<g id="edge2" class="edge">
<title>Node2&#45;&gt;Node3</title>
<path fill="none" stroke="midnightblue" d="M31,-56.08C31,-49.01 31,-38.86 31,-29.99"/>
<polygon fill="midnightblue" stroke="midnightblue" points="34.5,-29.75 31,-19.75 27.5,-29.75 34.5,-29.75"/>
</g>
</g>
</svg>
