<?xml version="1.0" encoding="UTF-8" standalone="no"?>
<!DOCTYPE svg PUBLIC "-//W3C//DTD SVG 1.1//EN"
 "http://www.w3.org/Graphics/SVG/1.1/DTD/svg11.dtd">
<!-- Generated by graphviz version 7.0.6 (20230106.0513)
 -->
<!-- Title: HealthGPS/weight_category.h Pages: 1 -->
<svg width="2248pt" height="456pt"
 viewBox="0.00 0.00 2247.52 456.00" xmlns="http://www.w3.org/2000/svg" xmlns:xlink="http://www.w3.org/1999/xlink">
<g id="graph0" class="graph" transform="scale(1 1) rotate(0) translate(4 452)">
<title>HealthGPS/weight_category.h</title>
<!-- Node1 -->
<g id="node1" class="node">
<title>Node1</title>
<g id="a_node1"><a xlink:title=" ">
<polygon fill="#999999" stroke="#666666" points="1492.02,-448 1345.02,-448 1345.02,-429 1492.02,-429 1492.02,-448"/>
<text text-anchor="middle" x="1418.52" y="-436" font-family="Helvetica,sans-Serif" font-size="10.00">HealthGPS/weight_category.h</text>
</a>
</g>
</g>
<!-- Node2 -->
<g id="node2" class="node">
<title>Node2</title>
<g id="a_node2"><a xlink:href="lms__definition_8h.html" target="_top" xlink:title=" ">
<polygon fill="white" stroke="#666666" points="1409.52,-393 1273.52,-393 1273.52,-374 1409.52,-374 1409.52,-393"/>
<text text-anchor="middle" x="1341.52" y="-381" font-family="Helvetica,sans-Serif" font-size="10.00">HealthGPS/lms_definition.h</text>
</a>
</g>
</g>
<!-- Node1&#45;&gt;Node2 -->
<g id="edge1" class="edge">
<title>Node1&#45;&gt;Node2</title>
<path fill="none" stroke="#63b8ff" d="M1396.27,-422.19C1382.69,-412.84 1365.79,-401.21 1354.39,-393.36"/>
<polygon fill="#63b8ff" stroke="#63b8ff" points="1393.99,-424.86 1404.21,-427.65 1397.96,-419.1 1393.99,-424.86"/>
</g>
<!-- Node31 -->
<g id="node31" class="node">
<title>Node31</title>
<g id="a_node31"><a xlink:href="weight__model_8h.html" target="_top" xlink:title=" ">
<polygon fill="white" stroke="#666666" points="1719.52,-393 1583.52,-393 1583.52,-374 1719.52,-374 1719.52,-393"/>
<text text-anchor="middle" x="1651.52" y="-381" font-family="Helvetica,sans-Serif" font-size="10.00">HealthGPS/weight_model.h</text>
</a>
</g>
</g>
<!-- Node1&#45;&gt;Node31 -->
<g id="edge44" class="edge">
<title>Node1&#45;&gt;Node31</title>
<path fill="none" stroke="#63b8ff" d="M1469.1,-425.99C1512.05,-416.22 1572.81,-402.4 1612.19,-393.45"/>
<polygon fill="#63b8ff" stroke="#63b8ff" points="1468.49,-422.54 1459.52,-428.17 1470.05,-429.37 1468.49,-422.54"/>
</g>
<!-- Node3 -->
<g id="node3" class="node">
<title>Node3</title>
<g id="a_node3"><a xlink:href="converter_8h.html" target="_top" xlink:title=" ">
<polygon fill="white" stroke="#666666" points="1243.52,-332.5 1127.52,-332.5 1127.52,-313.5 1243.52,-313.5 1243.52,-332.5"/>
<text text-anchor="middle" x="1185.52" y="-320.5" font-family="Helvetica,sans-Serif" font-size="10.00">HealthGPS/converter.h</text>
</a>
</g>
</g>
<!-- Node2&#45;&gt;Node3 -->
<g id="edge2" class="edge">
<title>Node2&#45;&gt;Node3</title>
<path fill="none" stroke="#63b8ff" d="M1307.14,-369.61C1277.52,-358.5 1235.52,-342.75 1209.43,-332.97"/>
<polygon fill="#63b8ff" stroke="#63b8ff" points="1305.82,-372.85 1316.41,-373.08 1308.27,-366.3 1305.82,-372.85"/>
</g>
<!-- Node9 -->
<g id="node9" class="node">
<title>Node9</title>
<g id="a_node9"><a xlink:href="lms__model_8h.html" target="_top" xlink:title=" ">
<polygon fill="white" stroke="#666666" points="1567.52,-266.5 1443.52,-266.5 1443.52,-247.5 1567.52,-247.5 1567.52,-266.5"/>
<text text-anchor="middle" x="1505.52" y="-254.5" font-family="Helvetica,sans-Serif" font-size="10.00">HealthGPS/lms_model.h</text>
</a>
</g>
</g>
<!-- Node2&#45;&gt;Node9 -->
<g id="edge8" class="edge">
<title>Node2&#45;&gt;Node9</title>
<path fill="none" stroke="#63b8ff" d="M1362.16,-366.83C1396.97,-340.4 1466.28,-287.79 1493.83,-266.87"/>
<polygon fill="#63b8ff" stroke="#63b8ff" points="1360.37,-363.8 1354.52,-372.63 1364.6,-369.37 1360.37,-363.8"/>
</g>
<!-- Node12 -->
<g id="node12" class="node">
<title>Node12</title>
<g id="a_node12"><a xlink:href="repository_8h.html" target="_top" xlink:title=" ">
<polygon fill="white" stroke="#666666" points="725.02,-332.5 606.02,-332.5 606.02,-313.5 725.02,-313.5 725.02,-332.5"/>
<text text-anchor="middle" x="665.52" y="-320.5" font-family="Helvetica,sans-Serif" font-size="10.00">HealthGPS/repository.h</text>
</a>
</g>
</g>
<!-- Node2&#45;&gt;Node12 -->
<g id="edge12" class="edge">
<title>Node2&#45;&gt;Node12</title>
<path fill="none" stroke="#63b8ff" d="M1262.08,-375.63C1125.15,-363.78 847.6,-339.76 725.48,-329.19"/>
<polygon fill="#63b8ff" stroke="#63b8ff" points="1261.52,-379.09 1271.78,-376.47 1262.12,-372.12 1261.52,-379.09"/>
</g>
<!-- Node4 -->
<g id="node4" class="node">
<title>Node4</title>
<g id="a_node4"><a xlink:href="analysis__module_8cpp.html" target="_top" xlink:title=" ">
<polygon fill="white" stroke="#666666" points="1327.52,-206 1223.52,-206 1223.52,-176 1327.52,-176 1327.52,-206"/>
<text text-anchor="start" x="1231.52" y="-194" font-family="Helvetica,sans-Serif" font-size="10.00">HealthGPS/analysis</text>
<text text-anchor="middle" x="1275.52" y="-183" font-family="Helvetica,sans-Serif" font-size="10.00">_module.cpp</text>
</a>
</g>
</g>
<!-- Node3&#45;&gt;Node4 -->
<g id="edge3" class="edge">
<title>Node3&#45;&gt;Node4</title>
<path fill="none" stroke="#63b8ff" d="M1198.03,-303.93C1216.08,-277.85 1249.08,-230.19 1265.57,-206.36"/>
<polygon fill="#63b8ff" stroke="#63b8ff" points="1195.38,-301.61 1192.57,-311.82 1201.14,-305.59 1195.38,-301.61"/>
</g>
<!-- Node5 -->
<g id="node5" class="node">
<title>Node5</title>
<g id="a_node5"><a xlink:href="converter_8cpp.html" target="_top" xlink:title=" ">
<polygon fill="white" stroke="#666666" points="1425.52,-266.5 1299.52,-266.5 1299.52,-247.5 1425.52,-247.5 1425.52,-266.5"/>
<text text-anchor="middle" x="1362.52" y="-254.5" font-family="Helvetica,sans-Serif" font-size="10.00">HealthGPS/converter.cpp</text>
</a>
</g>
</g>
<!-- Node3&#45;&gt;Node5 -->
<g id="edge4" class="edge">
<title>Node3&#45;&gt;Node5</title>
<path fill="none" stroke="#63b8ff" d="M1220.72,-309.27C1255.36,-296.75 1307.37,-277.94 1337.83,-266.93"/>
<polygon fill="#63b8ff" stroke="#63b8ff" points="1219.77,-305.89 1211.55,-312.59 1222.15,-312.48 1219.77,-305.89"/>
</g>
<!-- Node6 -->
<g id="node6" class="node">
<title>Node6</title>
<g id="a_node6"><a xlink:href="demographic_8cpp.html" target="_top" xlink:title=" ">
<polygon fill="white" stroke="#666666" points="1025.02,-200.5 882.02,-200.5 882.02,-181.5 1025.02,-181.5 1025.02,-200.5"/>
<text text-anchor="middle" x="953.52" y="-188.5" font-family="Helvetica,sans-Serif" font-size="10.00">HealthGPS/demographic.cpp</text>
</a>
</g>
</g>
<!-- Node3&#45;&gt;Node6 -->
<g id="edge5" class="edge">
<title>Node3&#45;&gt;Node6</title>
<path fill="none" stroke="#63b8ff" d="M1178.96,-302.42C1171.83,-284.12 1158.69,-257.39 1138.52,-242 1105.98,-217.18 1062.01,-204.66 1025.09,-198.36"/>
<polygon fill="#63b8ff" stroke="#63b8ff" points="1175.58,-303.38 1182.27,-311.59 1182.17,-301 1175.58,-303.38"/>
</g>
<!-- Node7 -->
<g id="node7" class="node">
<title>Node7</title>
<g id="a_node7"><a xlink:href="healthgps_8cpp.html" target="_top" xlink:title=" ">
<polygon fill="white" stroke="#666666" points="1094.02,-74 965.02,-74 965.02,-55 1094.02,-55 1094.02,-74"/>
<text text-anchor="middle" x="1029.52" y="-62" font-family="Helvetica,sans-Serif" font-size="10.00">HealthGPS/healthgps.cpp</text>
</a>
</g>
</g>
<!-- Node3&#45;&gt;Node7 -->
<g id="edge6" class="edge">
<title>Node3&#45;&gt;Node7</title>
<path fill="none" stroke="#63b8ff" d="M1182.87,-302.09C1180.12,-285.41 1174.86,-261.31 1165.52,-242 1130.47,-169.57 1062.59,-98.32 1038.37,-74.15"/>
<polygon fill="#63b8ff" stroke="#63b8ff" points="1179.37,-302.32 1184.29,-311.7 1186.29,-301.29 1179.37,-302.32"/>
</g>
<!-- Node8 -->
<g id="node8" class="node">
<title>Node8</title>
<g id="a_node8"><a xlink:href="repository_8cpp.html" target="_top" xlink:title=" ">
<polygon fill="white" stroke="#666666" points="1129.52,-266.5 999.52,-266.5 999.52,-247.5 1129.52,-247.5 1129.52,-266.5"/>
<text text-anchor="middle" x="1064.52" y="-254.5" font-family="Helvetica,sans-Serif" font-size="10.00">HealthGPS/repository.cpp</text>
</a>
</g>
</g>
<!-- Node3&#45;&gt;Node8 -->
<g id="edge7" class="edge">
<title>Node3&#45;&gt;Node8</title>
<path fill="none" stroke="#63b8ff" d="M1158.6,-307.76C1134.92,-295.24 1101.18,-277.39 1081.2,-266.82"/>
<polygon fill="#63b8ff" stroke="#63b8ff" points="1156.88,-310.81 1167.36,-312.39 1160.15,-304.62 1156.88,-310.81"/>
</g>
<!-- Node9&#45;&gt;Node4 -->
<g id="edge9" class="edge">
<title>Node9&#45;&gt;Node4</title>
<path fill="none" stroke="#63b8ff" d="M1462.77,-244.1C1424.53,-233.46 1368.38,-217.84 1327.55,-206.48"/>
<polygon fill="#63b8ff" stroke="#63b8ff" points="1461.51,-247.39 1472.08,-246.7 1463.38,-240.64 1461.51,-247.39"/>
</g>
<!-- Node10 -->
<g id="node10" class="node">
<title>Node10</title>
<g id="a_node10"><a xlink:href="disease_8cpp.html" target="_top" xlink:title=" ">
<polygon fill="white" stroke="#666666" points="1791.02,-200.5 1670.02,-200.5 1670.02,-181.5 1791.02,-181.5 1791.02,-200.5"/>
<text text-anchor="middle" x="1730.52" y="-188.5" font-family="Helvetica,sans-Serif" font-size="10.00">HealthGPS/disease.cpp</text>
</a>
</g>
</g>
<!-- Node9&#45;&gt;Node10 -->
<g id="edge10" class="edge">
<title>Node9&#45;&gt;Node10</title>
<path fill="none" stroke="#63b8ff" d="M1547.71,-244C1591.71,-231.48 1659.66,-212.16 1699.14,-200.93"/>
<polygon fill="#63b8ff" stroke="#63b8ff" points="1546.92,-240.58 1538.26,-246.69 1548.84,-247.32 1546.92,-240.58"/>
</g>
<!-- Node11 -->
<g id="node11" class="node">
<title>Node11</title>
<g id="a_node11"><a xlink:href="lms__model_8cpp.html" target="_top" xlink:title=" ">
<polygon fill="white" stroke="#666666" points="1572.52,-200.5 1438.52,-200.5 1438.52,-181.5 1572.52,-181.5 1572.52,-200.5"/>
<text text-anchor="middle" x="1505.52" y="-188.5" font-family="Helvetica,sans-Serif" font-size="10.00">HealthGPS/lms_model.cpp</text>
</a>
</g>
</g>
<!-- Node9&#45;&gt;Node11 -->
<g id="edge11" class="edge">
<title>Node9&#45;&gt;Node11</title>
<path fill="none" stroke="#63b8ff" d="M1505.52,-235.68C1505.52,-223.94 1505.52,-209.77 1505.52,-200.82"/>
<polygon fill="#63b8ff" stroke="#63b8ff" points="1502.02,-235.59 1505.52,-245.59 1509.02,-235.59 1502.02,-235.59"/>
</g>
<!-- Node12&#45;&gt;Node8 -->
<g id="edge37" class="edge">
<title>Node12&#45;&gt;Node8</title>
<path fill="none" stroke="#63b8ff" d="M736.3,-311.83C802.21,-302.18 903.15,-286.98 990.52,-272 999.54,-270.45 1009.16,-268.71 1018.38,-266.98"/>
<polygon fill="#63b8ff" stroke="#63b8ff" points="736.11,-308.32 726.72,-313.22 737.12,-315.24 736.11,-308.32"/>
</g>
<!-- Node13 -->
<g id="node13" class="node">
<title>Node13</title>
<g id="a_node13"><a xlink:href="model__parser_8h.html" target="_top" xlink:title=" ">
<polygon fill="white" stroke="#666666" points="148.02,-272 15.02,-272 15.02,-242 148.02,-242 148.02,-272"/>
<text text-anchor="start" x="23.02" y="-260" font-family="Helvetica,sans-Serif" font-size="10.00">HealthGPS.Console/model</text>
<text text-anchor="middle" x="81.52" y="-249" font-family="Helvetica,sans-Serif" font-size="10.00">_parser.h</text>
</a>
</g>
</g>
<!-- Node12&#45;&gt;Node13 -->
<g id="edge13" class="edge">
<title>Node12&#45;&gt;Node13</title>
<path fill="none" stroke="#63b8ff" d="M594.34,-316.18C497.72,-307.96 319.73,-291.76 168.52,-272 162,-271.15 155.21,-270.19 148.43,-269.18"/>
<polygon fill="#63b8ff" stroke="#63b8ff" points="593.95,-319.65 604.21,-317.01 594.54,-312.68 593.95,-319.65"/>
</g>
<!-- Node16 -->
<g id="node16" class="node">
<title>Node16</title>
<g id="a_node16"><a xlink:href="analysis__module_8h.html" target="_top" xlink:title=" ">
<polygon fill="white" stroke="#666666" points="981.52,-272 877.52,-272 877.52,-242 981.52,-242 981.52,-272"/>
<text text-anchor="start" x="885.52" y="-260" font-family="Helvetica,sans-Serif" font-size="10.00">HealthGPS/analysis</text>
<text text-anchor="middle" x="929.52" y="-249" font-family="Helvetica,sans-Serif" font-size="10.00">_module.h</text>
</a>
</g>
</g>
<!-- Node12&#45;&gt;Node16 -->
<g id="edge16" class="edge">
<title>Node12&#45;&gt;Node16</title>
<path fill="none" stroke="#63b8ff" d="M713.45,-310.38C759.74,-299.16 829.65,-282.21 877.33,-270.65"/>
<polygon fill="#63b8ff" stroke="#63b8ff" points="712.87,-306.92 703.98,-312.68 714.52,-313.72 712.87,-306.92"/>
</g>
<!-- Node23 -->
<g id="node23" class="node">
<title>Node23</title>
<g id="a_node23"><a xlink:href="demographic_8h.html" target="_top" xlink:title=" ">
<polygon fill="white" stroke="#666666" points="731.52,-266.5 599.52,-266.5 599.52,-247.5 731.52,-247.5 731.52,-266.5"/>
<text text-anchor="middle" x="665.52" y="-254.5" font-family="Helvetica,sans-Serif" font-size="10.00">HealthGPS/demographic.h</text>
</a>
</g>
</g>
<!-- Node12&#45;&gt;Node23 -->
<g id="edge28" class="edge">
<title>Node12&#45;&gt;Node23</title>
<path fill="none" stroke="#63b8ff" d="M665.52,-301.68C665.52,-289.94 665.52,-275.77 665.52,-266.82"/>
<polygon fill="#63b8ff" stroke="#63b8ff" points="662.02,-301.59 665.52,-311.59 669.02,-301.59 662.02,-301.59"/>
</g>
<!-- Node24 -->
<g id="node24" class="node">
<title>Node24</title>
<g id="a_node24"><a xlink:href="_health_g_p_s_2disease_8h.html" target="_top" xlink:title=" ">
<polygon fill="white" stroke="#666666" points="859.52,-266.5 749.52,-266.5 749.52,-247.5 859.52,-247.5 859.52,-266.5"/>
<text text-anchor="middle" x="804.52" y="-254.5" font-family="Helvetica,sans-Serif" font-size="10.00">HealthGPS/disease.h</text>
</a>
</g>
</g>
<!-- Node12&#45;&gt;Node24 -->
<g id="edge31" class="edge">
<title>Node12&#45;&gt;Node24</title>
<path fill="none" stroke="#63b8ff" d="M694.98,-308.44C722.24,-295.88 761.99,-277.58 785.35,-266.82"/>
<polygon fill="#63b8ff" stroke="#63b8ff" points="693.84,-305.11 686.22,-312.47 696.77,-311.46 693.84,-305.11"/>
</g>
<!-- Node25 -->
<g id="node25" class="node">
<title>Node25</title>
<g id="a_node25"><a xlink:href="modulefactory_8h.html" target="_top" xlink:title=" ">
<polygon fill="white" stroke="#666666" points="315.02,-266.5 178.02,-266.5 178.02,-247.5 315.02,-247.5 315.02,-266.5"/>
<text text-anchor="middle" x="246.52" y="-254.5" font-family="Helvetica,sans-Serif" font-size="10.00">HealthGPS/modulefactory.h</text>
</a>
</g>
</g>
<!-- Node12&#45;&gt;Node25 -->
<g id="edge34" class="edge">
<title>Node12&#45;&gt;Node25</title>
<path fill="none" stroke="#63b8ff" d="M594.52,-312.26C525.47,-302.64 417.66,-287.18 324.52,-272 315.01,-270.45 304.87,-268.7 295.16,-266.98"/>
<polygon fill="#63b8ff" stroke="#63b8ff" points="593.79,-315.7 604.18,-313.61 594.76,-308.76 593.79,-315.7"/>
</g>
<!-- Node27 -->
<g id="node27" class="node">
<title>Node27</title>
<g id="a_node27"><a xlink:href="riskfactor_8h.html" target="_top" xlink:title=" ">
<polygon fill="white" stroke="#666666" points="449.52,-266.5 333.52,-266.5 333.52,-247.5 449.52,-247.5 449.52,-266.5"/>
<text text-anchor="middle" x="391.52" y="-254.5" font-family="Helvetica,sans-Serif" font-size="10.00">HealthGPS/riskfactor.h</text>
</a>
</g>
</g>
<!-- Node12&#45;&gt;Node27 -->
<g id="edge38" class="edge">
<title>Node12&#45;&gt;Node27</title>
<path fill="none" stroke="#63b8ff" d="M616.2,-310.48C562.67,-297.98 478.33,-278.28 429.65,-266.91"/>
<polygon fill="#63b8ff" stroke="#63b8ff" points="615.12,-313.82 625.66,-312.69 616.72,-307.01 615.12,-313.82"/>
</g>
<!-- Node29 -->
<g id="node29" class="node">
<title>Node29</title>
<g id="a_node29"><a xlink:href="ses__noise__module_8h.html" target="_top" xlink:title=" ">
<polygon fill="white" stroke="#666666" points="581.02,-272 468.02,-272 468.02,-242 581.02,-242 581.02,-272"/>
<text text-anchor="start" x="476.02" y="-260" font-family="Helvetica,sans-Serif" font-size="10.00">HealthGPS/ses_noise</text>
<text text-anchor="middle" x="524.52" y="-249" font-family="Helvetica,sans-Serif" font-size="10.00">_module.h</text>
</a>
</g>
</g>
<!-- Node12&#45;&gt;Node29 -->
<g id="edge41" class="edge">
<title>Node12&#45;&gt;Node29</title>
<path fill="none" stroke="#63b8ff" d="M635.61,-308.42C612.35,-297.87 580.16,-283.26 556.41,-272.48"/>
<polygon fill="#63b8ff" stroke="#63b8ff" points="633.98,-311.53 644.53,-312.48 636.88,-305.16 633.98,-311.53"/>
</g>
<!-- Node14 -->
<g id="node14" class="node">
<title>Node14</title>
<g id="a_node14"><a xlink:href="model__parser_8cpp.html" target="_top" xlink:title=" ">
<polygon fill="white" stroke="#666666" points="148.02,-206 15.02,-206 15.02,-176 148.02,-176 148.02,-206"/>
<text text-anchor="start" x="23.02" y="-194" font-family="Helvetica,sans-Serif" font-size="10.00">HealthGPS.Console/model</text>
<text text-anchor="middle" x="81.52" y="-183" font-family="Helvetica,sans-Serif" font-size="10.00">_parser.cpp</text>
</a>
</g>
</g>
<!-- Node13&#45;&gt;Node14 -->
<g id="edge14" class="edge">
<title>Node13&#45;&gt;Node14</title>
<path fill="none" stroke="#63b8ff" d="M81.52,-230.39C81.52,-222.13 81.52,-213.28 81.52,-206.16"/>
<polygon fill="#63b8ff" stroke="#63b8ff" points="78.02,-230.28 81.52,-240.28 85.02,-230.28 78.02,-230.28"/>
</g>
<!-- Node15 -->
<g id="node15" class="node">
<title>Node15</title>
<g id="a_node15"><a xlink:href="program_8cpp.html" target="_top" xlink:title=" ">
<polygon fill="white" stroke="#666666" points="607.02,-19 446.02,-19 446.02,0 607.02,0 607.02,-19"/>
<text text-anchor="middle" x="526.52" y="-7" font-family="Helvetica,sans-Serif" font-size="10.00">HealthGPS.Console/program.cpp</text>
</a>
</g>
</g>
<!-- Node13&#45;&gt;Node15 -->
<g id="edge15" class="edge">
<title>Node13&#45;&gt;Node15</title>
<path fill="none" stroke="#63b8ff" d="M35.58,-235.97C23.65,-228.4 12.26,-218.51 5.52,-206 -0.81,-194.26 -2.35,-186.76 5.52,-176 61.83,-99.02 350.9,-40.9 472.5,-19.48"/>
<polygon fill="#63b8ff" stroke="#63b8ff" points="33.48,-238.79 43.89,-240.78 36.99,-232.74 33.48,-238.79"/>
</g>
<!-- Node16&#45;&gt;Node4 -->
<g id="edge17" class="edge">
<title>Node16&#45;&gt;Node4</title>
<path fill="none" stroke="#63b8ff" d="M992.78,-241.6C1079.07,-224.34 1168.16,-209.31 1223.1,-200.36"/>
<polygon fill="#63b8ff" stroke="#63b8ff" points="992.32,-238.13 983.21,-243.53 993.7,-244.99 992.32,-238.13"/>
</g>
<!-- Node17 -->
<g id="node17" class="node">
<title>Node17</title>
<g id="a_node17"><a xlink:href="simulation__module_8h.html" target="_top" xlink:title=" ">
<polygon fill="white" stroke="#666666" points="722.02,-206 609.02,-206 609.02,-176 722.02,-176 722.02,-206"/>
<text text-anchor="start" x="617.02" y="-194" font-family="Helvetica,sans-Serif" font-size="10.00">HealthGPS/simulation</text>
<text text-anchor="middle" x="665.52" y="-183" font-family="Helvetica,sans-Serif" font-size="10.00">_module.h</text>
</a>
</g>
</g>
<!-- Node16&#45;&gt;Node17 -->
<g id="edge18" class="edge">
<title>Node16&#45;&gt;Node17</title>
<path fill="none" stroke="#63b8ff" d="M865.96,-240.59C822.25,-229.99 764.68,-216.04 722.47,-205.81"/>
<polygon fill="#63b8ff" stroke="#63b8ff" points="865.03,-243.97 875.57,-242.92 866.68,-237.16 865.03,-243.97"/>
</g>
<!-- Node18 -->
<g id="node18" class="node">
<title>Node18</title>
<g id="a_node18"><a xlink:href="_health_g_p_s_2api_8h.html" target="_top" xlink:title=" ">
<polygon fill="white" stroke="#666666" points="592.02,-74 503.02,-74 503.02,-55 592.02,-55 592.02,-74"/>
<text text-anchor="middle" x="547.52" y="-62" font-family="Helvetica,sans-Serif" font-size="10.00">HealthGPS/api.h</text>
</a>
</g>
</g>
<!-- Node17&#45;&gt;Node18 -->
<g id="edge19" class="edge">
<title>Node17&#45;&gt;Node18</title>
<path fill="none" stroke="#63b8ff" d="M632.17,-169.47C620.16,-161.18 607,-150.97 596.52,-140 576.62,-119.18 559.77,-89.29 552.04,-74.5"/>
<polygon fill="#63b8ff" stroke="#63b8ff" points="629.97,-172.21 640.22,-174.85 633.85,-166.38 629.97,-172.21"/>
</g>
<!-- Node19 -->
<g id="node19" class="node">
<title>Node19</title>
<g id="a_node19"><a xlink:href="healthgps_8h.html" target="_top" xlink:title=" ">
<polygon fill="white" stroke="#666666" points="725.02,-134.5 606.02,-134.5 606.02,-115.5 725.02,-115.5 725.02,-134.5"/>
<text text-anchor="middle" x="665.52" y="-122.5" font-family="Helvetica,sans-Serif" font-size="10.00">HealthGPS/healthgps.h</text>
</a>
</g>
</g>
<!-- Node17&#45;&gt;Node19 -->
<g id="edge21" class="edge">
<title>Node17&#45;&gt;Node19</title>
<path fill="none" stroke="#63b8ff" d="M665.52,-164.59C665.52,-154.06 665.52,-142.53 665.52,-134.84"/>
<polygon fill="#63b8ff" stroke="#63b8ff" points="662.02,-164.28 665.52,-174.28 669.02,-164.28 662.02,-164.28"/>
</g>
<!-- Node22 -->
<g id="node22" class="node">
<title>Node22</title>
<g id="a_node22"><a xlink:href="simulation__module_8cpp.html" target="_top" xlink:title=" ">
<polygon fill="white" stroke="#666666" points="856.02,-140 743.02,-140 743.02,-110 856.02,-110 856.02,-140"/>
<text text-anchor="start" x="751.02" y="-128" font-family="Helvetica,sans-Serif" font-size="10.00">HealthGPS/simulation</text>
<text text-anchor="middle" x="799.52" y="-117" font-family="Helvetica,sans-Serif" font-size="10.00">_module.cpp</text>
</a>
</g>
</g>
<!-- Node17&#45;&gt;Node22 -->
<g id="edge27" class="edge">
<title>Node17&#45;&gt;Node22</title>
<path fill="none" stroke="#63b8ff" d="M705.88,-170.72C726.35,-160.95 750.77,-149.28 769.55,-140.31"/>
<polygon fill="#63b8ff" stroke="#63b8ff" points="704.47,-167.52 696.96,-174.98 707.49,-173.83 704.47,-167.52"/>
</g>
<!-- Node18&#45;&gt;Node15 -->
<g id="edge20" class="edge">
<title>Node18&#45;&gt;Node15</title>
<path fill="none" stroke="#63b8ff" d="M539.88,-44.22C536.52,-35.74 532.74,-26.21 530.06,-19.44"/>
<polygon fill="#63b8ff" stroke="#63b8ff" points="536.56,-45.33 543.49,-53.34 543.06,-42.75 536.56,-45.33"/>
</g>
<!-- Node19&#45;&gt;Node7 -->
<g id="edge26" class="edge">
<title>Node19&#45;&gt;Node7</title>
<path fill="none" stroke="#63b8ff" d="M718.32,-112.84C723.45,-111.84 728.58,-110.88 733.52,-110 812.82,-95.89 904.6,-82.55 964.68,-74.22"/>
<polygon fill="#63b8ff" stroke="#63b8ff" points="717.78,-109.38 708.65,-114.76 719.14,-116.24 717.78,-109.38"/>
</g>
<!-- Node19&#45;&gt;Node18 -->
<g id="edge25" class="edge">
<title>Node19&#45;&gt;Node18</title>
<path fill="none" stroke="#63b8ff" d="M637.41,-110.07C615.16,-99.03 584.73,-83.95 565.61,-74.47"/>
<polygon fill="#63b8ff" stroke="#63b8ff" points="635.73,-113.14 646.24,-114.44 638.84,-106.87 635.73,-113.14"/>
</g>
<!-- Node20 -->
<g id="node20" class="node">
<title>Node20</title>
<g id="a_node20"><a xlink:href="configuration_8h.html" target="_top" xlink:title=" ">
<polygon fill="white" stroke="#666666" points="780.52,-74 610.52,-74 610.52,-55 780.52,-55 780.52,-74"/>
<text text-anchor="middle" x="695.52" y="-62" font-family="Helvetica,sans-Serif" font-size="10.00">HealthGPS.Console/configuration.h</text>
</a>
</g>
</g>
<!-- Node19&#45;&gt;Node20 -->
<g id="edge22" class="edge">
<title>Node19&#45;&gt;Node20</title>
<path fill="none" stroke="#63b8ff" d="M675.18,-105.16C680.52,-94.74 686.9,-82.3 691.07,-74.17"/>
<polygon fill="#63b8ff" stroke="#63b8ff" points="672.08,-103.53 670.64,-114.02 678.31,-106.72 672.08,-103.53"/>
</g>
<!-- Node20&#45;&gt;Node15 -->
<g id="edge24" class="edge">
<title>Node20&#45;&gt;Node15</title>
<path fill="none" stroke="#63b8ff" d="M656.01,-51.11C625.07,-41.41 582.76,-28.14 555.04,-19.45"/>
<polygon fill="#63b8ff" stroke="#63b8ff" points="654.82,-54.4 665.41,-54.06 656.91,-47.72 654.82,-54.4"/>
</g>
<!-- Node21 -->
<g id="node21" class="node">
<title>Node21</title>
<g id="a_node21"><a xlink:href="configuration_8cpp.html" target="_top" xlink:title=" ">
<polygon fill="white" stroke="#666666" points="805.52,-19 625.52,-19 625.52,0 805.52,0 805.52,-19"/>
<text text-anchor="middle" x="715.52" y="-7" font-family="Helvetica,sans-Serif" font-size="10.00">HealthGPS.Console/configuration.cpp</text>
</a>
</g>
</g>
<!-- Node20&#45;&gt;Node21 -->
<g id="edge23" class="edge">
<title>Node20&#45;&gt;Node21</title>
<path fill="none" stroke="#63b8ff" d="M702.8,-44.22C705.99,-35.74 709.59,-26.21 712.14,-19.44"/>
<polygon fill="#63b8ff" stroke="#63b8ff" points="699.61,-42.74 699.36,-53.33 706.16,-45.21 699.61,-42.74"/>
</g>
<!-- Node23&#45;&gt;Node6 -->
<g id="edge29" class="edge">
<title>Node23&#45;&gt;Node6</title>
<path fill="none" stroke="#63b8ff" d="M717,-244.56C773.25,-232.06 862.16,-212.3 913.44,-200.91"/>
<polygon fill="#63b8ff" stroke="#63b8ff" points="716.35,-241.12 707.34,-246.71 717.87,-247.95 716.35,-241.12"/>
</g>
<!-- Node23&#45;&gt;Node17 -->
<g id="edge30" class="edge">
<title>Node23&#45;&gt;Node17</title>
<path fill="none" stroke="#63b8ff" d="M665.52,-235.78C665.52,-226.17 665.52,-214.92 665.52,-206.23"/>
<polygon fill="#63b8ff" stroke="#63b8ff" points="662.02,-235.59 665.52,-245.59 669.02,-235.59 662.02,-235.59"/>
</g>
<!-- Node24&#45;&gt;Node10 -->
<g id="edge32" class="edge">
<title>Node24&#45;&gt;Node10</title>
<path fill="none" stroke="#63b8ff" d="M851.42,-244.81C857.16,-243.72 862.95,-242.74 868.52,-242 1183.01,-199.95 1265.05,-228.85 1581.52,-206 1610.54,-203.9 1642.69,-200.96 1669.67,-198.32"/>
<polygon fill="#63b8ff" stroke="#63b8ff" points="851.13,-241.3 842.03,-246.73 852.53,-248.16 851.13,-241.3"/>
</g>
<!-- Node24&#45;&gt;Node17 -->
<g id="edge33" class="edge">
<title>Node24&#45;&gt;Node17</title>
<path fill="none" stroke="#63b8ff" d="M775.03,-242.42C752.1,-231.87 720.37,-217.26 696.96,-206.48"/>
<polygon fill="#63b8ff" stroke="#63b8ff" points="773.27,-245.46 783.82,-246.47 776.2,-239.11 773.27,-245.46"/>
</g>
<!-- Node25&#45;&gt;Node17 -->
<g id="edge36" class="edge">
<title>Node25&#45;&gt;Node17</title>
<path fill="none" stroke="#63b8ff" d="M305.19,-245.16C311.7,-244.05 318.25,-242.97 324.52,-242 446.33,-223.11 478.02,-226.81 599.52,-206 602.52,-205.49 605.59,-204.93 608.69,-204.35"/>
<polygon fill="#63b8ff" stroke="#63b8ff" points="305.05,-241.63 295.8,-246.79 306.25,-248.53 305.05,-241.63"/>
</g>
<!-- Node26 -->
<g id="node26" class="node">
<title>Node26</title>
<g id="a_node26"><a xlink:href="modulefactory_8cpp.html" target="_top" xlink:title=" ">
<polygon fill="white" stroke="#666666" points="314.52,-200.5 166.52,-200.5 166.52,-181.5 314.52,-181.5 314.52,-200.5"/>
<text text-anchor="middle" x="240.52" y="-188.5" font-family="Helvetica,sans-Serif" font-size="10.00">HealthGPS/modulefactory.cpp</text>
</a>
</g>
</g>
<!-- Node25&#45;&gt;Node26 -->
<g id="edge35" class="edge">
<title>Node25&#45;&gt;Node26</title>
<path fill="none" stroke="#63b8ff" d="M244.61,-235.68C243.51,-223.94 242.18,-209.77 241.35,-200.82"/>
<polygon fill="#63b8ff" stroke="#63b8ff" points="241.12,-235.96 245.54,-245.59 248.09,-235.31 241.12,-235.96"/>
</g>
<!-- Node27&#45;&gt;Node17 -->
<g id="edge40" class="edge">
<title>Node27&#45;&gt;Node17</title>
<path fill="none" stroke="#63b8ff" d="M441.06,-244.43C488.21,-233.41 559.12,-216.85 608.58,-205.3"/>
<polygon fill="#63b8ff" stroke="#63b8ff" points="440.32,-241.01 431.38,-246.69 441.91,-247.82 440.32,-241.01"/>
</g>
<!-- Node28 -->
<g id="node28" class="node">
<title>Node28</title>
<g id="a_node28"><a xlink:href="riskfactor_8cpp.html" target="_top" xlink:title=" ">
<polygon fill="white" stroke="#666666" points="460.02,-200.5 333.02,-200.5 333.02,-181.5 460.02,-181.5 460.02,-200.5"/>
<text text-anchor="middle" x="396.52" y="-188.5" font-family="Helvetica,sans-Serif" font-size="10.00">HealthGPS/riskfactor.cpp</text>
</a>
</g>
</g>
<!-- Node27&#45;&gt;Node28 -->
<g id="edge39" class="edge">
<title>Node27&#45;&gt;Node28</title>
<path fill="none" stroke="#63b8ff" d="M393.11,-235.68C394.02,-223.94 395.13,-209.77 395.83,-200.82"/>
<polygon fill="#63b8ff" stroke="#63b8ff" points="389.62,-235.35 392.33,-245.59 396.6,-235.9 389.62,-235.35"/>
</g>
<!-- Node29&#45;&gt;Node17 -->
<g id="edge43" class="edge">
<title>Node29&#45;&gt;Node17</title>
<path fill="none" stroke="#63b8ff" d="M566.4,-236.99C588.05,-227.16 614.05,-215.36 633.98,-206.31"/>
<polygon fill="#63b8ff" stroke="#63b8ff" points="565.2,-233.69 557.54,-241.01 568.09,-240.07 565.2,-233.69"/>
</g>
<!-- Node30 -->
<g id="node30" class="node">
<title>Node30</title>
<g id="a_node30"><a xlink:href="ses__noise__module_8cpp.html" target="_top" xlink:title=" ">
<polygon fill="white" stroke="#666666" points="591.02,-206 478.02,-206 478.02,-176 591.02,-176 591.02,-206"/>
<text text-anchor="start" x="486.02" y="-194" font-family="Helvetica,sans-Serif" font-size="10.00">HealthGPS/ses_noise</text>
<text text-anchor="middle" x="534.52" y="-183" font-family="Helvetica,sans-Serif" font-size="10.00">_module.cpp</text>
</a>
</g>
</g>
<!-- Node29&#45;&gt;Node30 -->
<g id="edge42" class="edge">
<title>Node29&#45;&gt;Node30</title>
<path fill="none" stroke="#63b8ff" d="M528.47,-230.68C529.78,-222.34 531.18,-213.37 532.3,-206.16"/>
<polygon fill="#63b8ff" stroke="#63b8ff" points="525.06,-229.88 526.97,-240.3 531.97,-230.96 525.06,-229.88"/>
</g>
<!-- Node31&#45;&gt;Node4 -->
<g id="edge45" class="edge">
<title>Node31&#45;&gt;Node4</title>
<path fill="none" stroke="#63b8ff" d="M1571.88,-380.92C1489.11,-374.75 1361.87,-351.8 1290.52,-272 1274.32,-253.88 1273.12,-224 1274.07,-206.34"/>
<polygon fill="#63b8ff" stroke="#63b8ff" points="1571.54,-384.4 1581.75,-381.58 1572.01,-377.42 1571.54,-384.4"/>
</g>
<!-- Node31&#45;&gt;Node10 -->
<g id="edge55" class="edge">
<title>Node31&#45;&gt;Node10</title>
<path fill="none" stroke="#63b8ff" d="M1731.05,-372.4C1835.96,-357.17 2011.46,-324.39 2046.52,-272 2053.93,-260.92 2055.18,-252.14 2046.52,-242 2014.37,-204.36 1873.79,-194.9 1791.36,-192.62"/>
<polygon fill="#63b8ff" stroke="#63b8ff" points="1730.78,-368.9 1721.37,-373.78 1731.77,-375.83 1730.78,-368.9"/>
</g>
<!-- Node31&#45;&gt;Node16 -->
<g id="edge46" class="edge">
<title>Node31&#45;&gt;Node16</title>
<path fill="none" stroke="#63b8ff" d="M1571.84,-378.94C1444.81,-372.75 1202.2,-358.64 1118.52,-338 1057.98,-323.07 991.89,-291.17 956.13,-272.47"/>
<polygon fill="#63b8ff" stroke="#63b8ff" points="1571.35,-382.42 1581.51,-379.41 1571.69,-375.43 1571.35,-382.42"/>
</g>
<!-- Node32 -->
<g id="node32" class="node">
<title>Node32</title>
<g id="a_node32"><a xlink:href="default__cancer__model_8h.html" target="_top" xlink:title=" ">
<polygon fill="white" stroke="#666666" points="1717.02,-338 1586.02,-338 1586.02,-308 1717.02,-308 1717.02,-338"/>
<text text-anchor="start" x="1594.02" y="-326" font-family="Helvetica,sans-Serif" font-size="10.00">HealthGPS/default_cancer</text>
<text text-anchor="middle" x="1651.52" y="-315" font-family="Helvetica,sans-Serif" font-size="10.00">_model.h</text>
</a>
</g>
</g>
<!-- Node31&#45;&gt;Node32 -->
<g id="edge47" class="edge">
<title>Node31&#45;&gt;Node32</title>
<path fill="none" stroke="#63b8ff" d="M1651.52,-362.51C1651.52,-354.49 1651.52,-345.43 1651.52,-338.11"/>
<polygon fill="#63b8ff" stroke="#63b8ff" points="1648.02,-362.35 1651.52,-372.35 1655.02,-362.35 1648.02,-362.35"/>
</g>
<!-- Node35 -->
<g id="node35" class="node">
<title>Node35</title>
<g id="a_node35"><a xlink:href="default__disease__model_8h.html" target="_top" xlink:title=" ">
<polygon fill="white" stroke="#666666" points="1877.52,-338 1741.52,-338 1741.52,-308 1877.52,-308 1877.52,-338"/>
<text text-anchor="start" x="1749.52" y="-326" font-family="Helvetica,sans-Serif" font-size="10.00">HealthGPS/default_disease</text>
<text text-anchor="middle" x="1809.52" y="-315" font-family="Helvetica,sans-Serif" font-size="10.00">_model.h</text>
</a>
</g>
</g>
<!-- Node31&#45;&gt;Node35 -->
<g id="edge52" class="edge">
<title>Node31&#45;&gt;Node35</title>
<path fill="none" stroke="#63b8ff" d="M1686.28,-369.63C1711.18,-360.41 1744.72,-347.99 1770.52,-338.44"/>
<polygon fill="#63b8ff" stroke="#63b8ff" points="1685.1,-366.34 1676.93,-373.09 1687.53,-372.9 1685.1,-366.34"/>
</g>
<!-- Node37 -->
<g id="node37" class="node">
<title>Node37</title>
<g id="a_node37"><a xlink:href="weight__model_8cpp.html" target="_top" xlink:title=" ">
<polygon fill="white" stroke="#666666" points="2239.52,-332.5 2093.52,-332.5 2093.52,-313.5 2239.52,-313.5 2239.52,-332.5"/>
<text text-anchor="middle" x="2166.52" y="-320.5" font-family="Helvetica,sans-Serif" font-size="10.00">HealthGPS/weight_model.cpp</text>
</a>
</g>
</g>
<!-- Node31&#45;&gt;Node37 -->
<g id="edge56" class="edge">
<title>Node31&#45;&gt;Node37</title>
<path fill="none" stroke="#63b8ff" d="M1731.11,-375.57C1817.17,-367.76 1958.32,-354.04 2079.52,-338 2090.59,-336.53 2102.42,-334.77 2113.68,-332.99"/>
<polygon fill="#63b8ff" stroke="#63b8ff" points="1731.01,-372.06 1721.36,-376.45 1731.64,-379.03 1731.01,-372.06"/>
</g>
<!-- Node32&#45;&gt;Node5 -->
<g id="edge48" class="edge">
<title>Node32&#45;&gt;Node5</title>
<path fill="none" stroke="#63b8ff" d="M1575.15,-305.09C1519.91,-292.86 1447.46,-276.81 1402.99,-266.96"/>
<polygon fill="#63b8ff" stroke="#63b8ff" points="1574.3,-308.49 1584.82,-307.23 1575.82,-301.65 1574.3,-308.49"/>
</g>
<!-- Node33 -->
<g id="node33" class="node">
<title>Node33</title>
<g id="a_node33"><a xlink:href="default__cancer__model_8cpp.html" target="_top" xlink:title=" ">
<polygon fill="white" stroke="#666666" points="1717.02,-272 1586.02,-272 1586.02,-242 1717.02,-242 1717.02,-272"/>
<text text-anchor="start" x="1594.02" y="-260" font-family="Helvetica,sans-Serif" font-size="10.00">HealthGPS/default_cancer</text>
<text text-anchor="middle" x="1651.52" y="-249" font-family="Helvetica,sans-Serif" font-size="10.00">_model.cpp</text>
</a>
</g>
</g>
<!-- Node32&#45;&gt;Node33 -->
<g id="edge49" class="edge">
<title>Node32&#45;&gt;Node33</title>
<path fill="none" stroke="#63b8ff" d="M1651.52,-296.39C1651.52,-288.13 1651.52,-279.28 1651.52,-272.16"/>
<polygon fill="#63b8ff" stroke="#63b8ff" points="1648.02,-296.28 1651.52,-306.28 1655.02,-296.28 1648.02,-296.28"/>
</g>
<!-- Node34 -->
<g id="node34" class="node">
<title>Node34</title>
<g id="a_node34"><a xlink:href="disease__registry_8h.html" target="_top" xlink:title=" ">
<polygon fill="white" stroke="#666666" points="1883.52,-266.5 1735.52,-266.5 1735.52,-247.5 1883.52,-247.5 1883.52,-266.5"/>
<text text-anchor="middle" x="1809.52" y="-254.5" font-family="Helvetica,sans-Serif" font-size="10.00">HealthGPS/disease_registry.h</text>
</a>
</g>
</g>
<!-- Node32&#45;&gt;Node34 -->
<g id="edge50" class="edge">
<title>Node32&#45;&gt;Node34</title>
<path fill="none" stroke="#63b8ff" d="M1697.49,-303.38C1727.05,-291.41 1764.13,-276.38 1787.33,-266.99"/>
<polygon fill="#63b8ff" stroke="#63b8ff" points="1696.33,-300.07 1688.38,-307.07 1698.96,-306.56 1696.33,-300.07"/>
</g>
<!-- Node34&#45;&gt;Node10 -->
<g id="edge51" class="edge">
<title>Node34&#45;&gt;Node10</title>
<path fill="none" stroke="#63b8ff" d="M1789.82,-240.04C1774.52,-227.64 1753.87,-210.92 1741.41,-200.82"/>
<polygon fill="#63b8ff" stroke="#63b8ff" points="1787.38,-242.57 1797.36,-246.15 1791.79,-237.13 1787.38,-242.57"/>
</g>
<!-- Node35&#45;&gt;Node34 -->
<g id="edge54" class="edge">
<title>Node35&#45;&gt;Node34</title>
<path fill="none" stroke="#63b8ff" d="M1809.52,-296.59C1809.52,-286.06 1809.52,-274.53 1809.52,-266.84"/>
<polygon fill="#63b8ff" stroke="#63b8ff" points="1806.02,-296.28 1809.52,-306.28 1813.02,-296.28 1806.02,-296.28"/>
</g>
<!-- Node36 -->
<g id="node36" class="node">
<title>Node36</title>
<g id="a_node36"><a xlink:href="default__disease__model_8cpp.html" target="_top" xlink:title=" ">
<polygon fill="white" stroke="#666666" points="2037.52,-272 1901.52,-272 1901.52,-242 2037.52,-242 2037.52,-272"/>
<text text-anchor="start" x="1909.52" y="-260" font-family="Helvetica,sans-Serif" font-size="10.00">HealthGPS/default_disease</text>
<text text-anchor="middle" x="1969.52" y="-249" font-family="Helvetica,sans-Serif" font-size="10.00">_model.cpp</text>
</a>
</g>
</g>
<!-- Node35&#45;&gt;Node36 -->
<g id="edge53" class="edge">
<title>Node35&#45;&gt;Node36</title>
<path fill="none" stroke="#63b8ff" d="M1856,-303.41C1880.68,-293.54 1910.55,-281.59 1933.45,-272.43"/>
<polygon fill="#63b8ff" stroke="#63b8ff" points="1854.82,-300.11 1846.83,-307.08 1857.42,-306.61 1854.82,-300.11"/>
</g>
</g>
</svg>
