<?xml version="1.0" encoding="UTF-8" standalone="no"?>
<!DOCTYPE svg PUBLIC "-//W3C//DTD SVG 1.1//EN"
 "http://www.w3.org/Graphics/SVG/1.1/DTD/svg11.dtd">
<!-- Generated by graphviz version 2.43.0 (0)
 -->
<!-- Title: HealthGPS/weight_model.h Pages: 1 -->
<svg width="1315pt" height="341pt"
 viewBox="0.00 0.00 1314.50 341.00" xmlns="http://www.w3.org/2000/svg" xmlns:xlink="http://www.w3.org/1999/xlink">
<g id="graph0" class="graph" transform="scale(1 1) rotate(0) translate(4 337)">
<title>HealthGPS/weight_model.h</title>
<!-- Node1 -->
<g id="node1" class="node">
<title>Node1</title>
<g id="a_node1"><a xlink:title=" ">
<polygon fill="#bfbfbf" stroke="black" points="686.5,-313.5 686.5,-332.5 835.5,-332.5 835.5,-313.5 686.5,-313.5"/>
<text text-anchor="middle" x="761" y="-320.5" font-family="Helvetica,sans-Serif" font-size="10.00">HealthGPS/weight_model.h</text>
</a>
</g>
</g>
<!-- Node2 -->
<g id="node2" class="node">
<title>Node2</title>
<g id="a_node2"><a xlink:href="analysis__module_8cpp.html" target="_top" xlink:title=" ">
<polygon fill="none" stroke="black" points="176,-179.5 176,-209.5 288,-209.5 288,-179.5 176,-179.5"/>
<text text-anchor="start" x="184" y="-197.5" font-family="Helvetica,sans-Serif" font-size="10.00">HealthGPS/analysis</text>
<text text-anchor="middle" x="232" y="-186.5" font-family="Helvetica,sans-Serif" font-size="10.00">_module.cpp</text>
</a>
</g>
</g>
<!-- Node1&#45;&gt;Node2 -->
<g id="edge1" class="edge">
<title>Node1&#45;&gt;Node2</title>
<path fill="none" stroke="midnightblue" d="M676.26,-321.07C562.14,-318.58 366.07,-309.52 303,-277 273.48,-261.78 250.84,-228.65 239.68,-209.65"/>
<polygon fill="midnightblue" stroke="midnightblue" points="676.29,-324.57 686.36,-321.28 676.44,-317.58 676.29,-324.57"/>
</g>
<!-- Node3 -->
<g id="node3" class="node">
<title>Node3</title>
<g id="a_node3"><a xlink:href="analysis__module_8h.html" target="_top" xlink:title=" ">
<polygon fill="none" stroke="black" points="312,-246.5 312,-276.5 424,-276.5 424,-246.5 312,-246.5"/>
<text text-anchor="start" x="320" y="-264.5" font-family="Helvetica,sans-Serif" font-size="10.00">HealthGPS/analysis</text>
<text text-anchor="middle" x="368" y="-253.5" font-family="Helvetica,sans-Serif" font-size="10.00">_module.h</text>
</a>
</g>
</g>
<!-- Node1&#45;&gt;Node3 -->
<g id="edge2" class="edge">
<title>Node1&#45;&gt;Node3</title>
<path fill="none" stroke="midnightblue" d="M694.76,-311.97C618.82,-300.47 495.65,-281.83 424.2,-271.01"/>
<polygon fill="midnightblue" stroke="midnightblue" points="694.28,-315.44 704.69,-313.48 695.33,-308.52 694.28,-315.44"/>
</g>
<!-- Node12 -->
<g id="node12" class="node">
<title>Node12</title>
<g id="a_node12"><a xlink:href="default__cancer__model_8h.html" target="_top" xlink:title=" ">
<polygon fill="none" stroke="black" points="606.5,-246.5 606.5,-276.5 749.5,-276.5 749.5,-246.5 606.5,-246.5"/>
<text text-anchor="start" x="614.5" y="-264.5" font-family="Helvetica,sans-Serif" font-size="10.00">HealthGPS/default_cancer</text>
<text text-anchor="middle" x="678" y="-253.5" font-family="Helvetica,sans-Serif" font-size="10.00">_model.h</text>
</a>
</g>
</g>
<!-- Node1&#45;&gt;Node12 -->
<g id="edge14" class="edge">
<title>Node1&#45;&gt;Node12</title>
<path fill="none" stroke="midnightblue" d="M740.73,-307.47C727.59,-298.05 710.56,-285.84 697.56,-276.52"/>
<polygon fill="midnightblue" stroke="midnightblue" points="738.94,-310.49 749.11,-313.48 743.02,-304.8 738.94,-310.49"/>
</g>
<!-- Node16 -->
<g id="node16" class="node">
<title>Node16</title>
<g id="a_node16"><a xlink:href="disease_8cpp.html" target="_top" xlink:title=" ">
<polygon fill="none" stroke="black" points="915.5,-118 915.5,-137 1044.5,-137 1044.5,-118 915.5,-118"/>
<text text-anchor="middle" x="980" y="-125" font-family="Helvetica,sans-Serif" font-size="10.00">HealthGPS/disease.cpp</text>
</a>
</g>
</g>
<!-- Node1&#45;&gt;Node16 -->
<g id="edge22" class="edge">
<title>Node1&#45;&gt;Node16</title>
<path fill="none" stroke="midnightblue" d="M845.95,-320.87C926.59,-314.64 1043.46,-291.06 1099,-210 1123.7,-173.95 1059.43,-149.18 1016.01,-137.06"/>
<polygon fill="midnightblue" stroke="midnightblue" points="845.55,-317.39 835.81,-321.57 846.03,-324.37 845.55,-317.39"/>
</g>
<!-- Node17 -->
<g id="node17" class="node">
<title>Node17</title>
<g id="a_node17"><a xlink:href="default__disease__model_8h.html" target="_top" xlink:title=" ">
<polygon fill="none" stroke="black" points="768.5,-246.5 768.5,-276.5 917.5,-276.5 917.5,-246.5 768.5,-246.5"/>
<text text-anchor="start" x="776.5" y="-264.5" font-family="Helvetica,sans-Serif" font-size="10.00">HealthGPS/default_disease</text>
<text text-anchor="middle" x="843" y="-253.5" font-family="Helvetica,sans-Serif" font-size="10.00">_model.h</text>
</a>
</g>
</g>
<!-- Node1&#45;&gt;Node17 -->
<g id="edge19" class="edge">
<title>Node1&#45;&gt;Node17</title>
<path fill="none" stroke="midnightblue" d="M781.03,-307.47C794.01,-298.05 810.83,-285.84 823.67,-276.52"/>
<polygon fill="midnightblue" stroke="midnightblue" points="778.79,-304.77 772.75,-313.48 782.9,-310.43 778.79,-304.77"/>
</g>
<!-- Node19 -->
<g id="node19" class="node">
<title>Node19</title>
<g id="a_node19"><a xlink:href="weight__model_8cpp.html" target="_top" xlink:title=" ">
<polygon fill="none" stroke="black" points="1145.5,-252 1145.5,-271 1306.5,-271 1306.5,-252 1145.5,-252"/>
<text text-anchor="middle" x="1226" y="-259" font-family="Helvetica,sans-Serif" font-size="10.00">HealthGPS/weight_model.cpp</text>
</a>
</g>
</g>
<!-- Node1&#45;&gt;Node19 -->
<g id="edge23" class="edge">
<title>Node1&#45;&gt;Node19</title>
<path fill="none" stroke="midnightblue" d="M846.19,-312.38C921.24,-303.74 1033.49,-290.37 1131,-277 1144.22,-275.19 1158.46,-273.09 1171.78,-271.07"/>
<polygon fill="midnightblue" stroke="midnightblue" points="845.38,-308.95 835.85,-313.57 846.18,-315.91 845.38,-308.95"/>
</g>
<!-- Node3&#45;&gt;Node2 -->
<g id="edge3" class="edge">
<title>Node3&#45;&gt;Node2</title>
<path fill="none" stroke="midnightblue" d="M329.28,-241.99C307.72,-231.69 281.31,-219.07 261.45,-209.58"/>
<polygon fill="midnightblue" stroke="midnightblue" points="327.96,-245.24 338.49,-246.4 330.98,-238.93 327.96,-245.24"/>
</g>
<!-- Node4 -->
<g id="node4" class="node">
<title>Node4</title>
<g id="a_node4"><a xlink:href="simulation__module_8h.html" target="_top" xlink:title=" ">
<polygon fill="none" stroke="black" points="306.5,-179.5 306.5,-209.5 429.5,-209.5 429.5,-179.5 306.5,-179.5"/>
<text text-anchor="start" x="314.5" y="-197.5" font-family="Helvetica,sans-Serif" font-size="10.00">HealthGPS/simulation</text>
<text text-anchor="middle" x="368" y="-186.5" font-family="Helvetica,sans-Serif" font-size="10.00">_module.h</text>
</a>
</g>
</g>
<!-- Node3&#45;&gt;Node4 -->
<g id="edge4" class="edge">
<title>Node3&#45;&gt;Node4</title>
<path fill="none" stroke="midnightblue" d="M368,-236.11C368,-227.15 368,-217.32 368,-209.58"/>
<polygon fill="midnightblue" stroke="midnightblue" points="364.5,-236.4 368,-246.4 371.5,-236.4 364.5,-236.4"/>
</g>
<!-- Node5 -->
<g id="node5" class="node">
<title>Node5</title>
<g id="a_node5"><a xlink:href="HealthGPS_2api_8h.html" target="_top" xlink:title=" ">
<polygon fill="none" stroke="black" points="384.5,-56.5 384.5,-75.5 479.5,-75.5 479.5,-56.5 384.5,-56.5"/>
<text text-anchor="middle" x="432" y="-63.5" font-family="Helvetica,sans-Serif" font-size="10.00">HealthGPS/api.h</text>
</a>
</g>
</g>
<!-- Node4&#45;&gt;Node5 -->
<g id="edge5" class="edge">
<title>Node4&#45;&gt;Node5</title>
<path fill="none" stroke="midnightblue" d="M407.97,-174.12C419.83,-166.23 431.41,-155.88 438,-143 449.33,-120.85 440.79,-90.24 435.44,-75.55"/>
<polygon fill="midnightblue" stroke="midnightblue" points="406.02,-171.21 399.34,-179.44 409.69,-177.17 406.02,-171.21"/>
</g>
<!-- Node7 -->
<g id="node7" class="node">
<title>Node7</title>
<g id="a_node7"><a xlink:href="healthgps_8h.html" target="_top" xlink:title=" ">
<polygon fill="none" stroke="black" points="160,-118 160,-137 288,-137 288,-118 160,-118"/>
<text text-anchor="middle" x="224" y="-125" font-family="Helvetica,sans-Serif" font-size="10.00">HealthGPS/healthgps.h</text>
</a>
</g>
</g>
<!-- Node4&#45;&gt;Node7 -->
<g id="edge7" class="edge">
<title>Node4&#45;&gt;Node7</title>
<path fill="none" stroke="midnightblue" d="M327.31,-175.13C299.59,-162.62 264.19,-146.64 242.85,-137.01"/>
<polygon fill="midnightblue" stroke="midnightblue" points="326.2,-178.47 336.75,-179.4 329.08,-172.09 326.2,-178.47"/>
</g>
<!-- Node11 -->
<g id="node11" class="node">
<title>Node11</title>
<g id="a_node11"><a xlink:href="simulation__module_8cpp.html" target="_top" xlink:title=" ">
<polygon fill="none" stroke="black" points="306.5,-112.5 306.5,-142.5 429.5,-142.5 429.5,-112.5 306.5,-112.5"/>
<text text-anchor="start" x="314.5" y="-130.5" font-family="Helvetica,sans-Serif" font-size="10.00">HealthGPS/simulation</text>
<text text-anchor="middle" x="368" y="-119.5" font-family="Helvetica,sans-Serif" font-size="10.00">_module.cpp</text>
</a>
</g>
</g>
<!-- Node4&#45;&gt;Node11 -->
<g id="edge13" class="edge">
<title>Node4&#45;&gt;Node11</title>
<path fill="none" stroke="midnightblue" d="M368,-169.11C368,-160.15 368,-150.32 368,-142.58"/>
<polygon fill="midnightblue" stroke="midnightblue" points="364.5,-169.4 368,-179.4 371.5,-169.4 364.5,-169.4"/>
</g>
<!-- Node6 -->
<g id="node6" class="node">
<title>Node6</title>
<g id="a_node6"><a xlink:href="program_8cpp.html" target="_top" xlink:title=" ">
<polygon fill="none" stroke="black" points="344.5,-0.5 344.5,-19.5 519.5,-19.5 519.5,-0.5 344.5,-0.5"/>
<text text-anchor="middle" x="432" y="-7.5" font-family="Helvetica,sans-Serif" font-size="10.00">HealthGPS.Console/program.cpp</text>
</a>
</g>
</g>
<!-- Node5&#45;&gt;Node6 -->
<g id="edge6" class="edge">
<title>Node5&#45;&gt;Node6</title>
<path fill="none" stroke="midnightblue" d="M432,-45.8C432,-36.91 432,-26.78 432,-19.75"/>
<polygon fill="midnightblue" stroke="midnightblue" points="428.5,-46.08 432,-56.08 435.5,-46.08 428.5,-46.08"/>
</g>
<!-- Node7&#45;&gt;Node5 -->
<g id="edge8" class="edge">
<title>Node7&#45;&gt;Node5</title>
<path fill="none" stroke="midnightblue" d="M263.59,-115.18C304,-103.61 365.83,-85.93 402.25,-75.51"/>
<polygon fill="midnightblue" stroke="midnightblue" points="262.45,-111.86 253.8,-117.98 264.38,-118.59 262.45,-111.86"/>
</g>
<!-- Node8 -->
<g id="node8" class="node">
<title>Node8</title>
<g id="a_node8"><a xlink:href="healthgps_8cpp.html" target="_top" xlink:title=" ">
<polygon fill="none" stroke="black" points="0,-56.5 0,-75.5 140,-75.5 140,-56.5 0,-56.5"/>
<text text-anchor="middle" x="70" y="-63.5" font-family="Helvetica,sans-Serif" font-size="10.00">HealthGPS/healthgps.cpp</text>
</a>
</g>
</g>
<!-- Node7&#45;&gt;Node8 -->
<g id="edge9" class="edge">
<title>Node7&#45;&gt;Node8</title>
<path fill="none" stroke="midnightblue" d="M192.38,-114.28C162.45,-102.72 118.31,-85.66 92.02,-75.51"/>
<polygon fill="midnightblue" stroke="midnightblue" points="191.35,-117.64 201.94,-117.98 193.87,-111.11 191.35,-117.64"/>
</g>
<!-- Node9 -->
<g id="node9" class="node">
<title>Node9</title>
<g id="a_node9"><a xlink:href="configuration_8h.html" target="_top" xlink:title=" ">
<polygon fill="none" stroke="black" points="158,-56.5 158,-75.5 344,-75.5 344,-56.5 158,-56.5"/>
<text text-anchor="middle" x="251" y="-63.5" font-family="Helvetica,sans-Serif" font-size="10.00">HealthGPS.Console/configuration.h</text>
</a>
</g>
</g>
<!-- Node7&#45;&gt;Node9 -->
<g id="edge10" class="edge">
<title>Node7&#45;&gt;Node9</title>
<path fill="none" stroke="midnightblue" d="M232.02,-108.83C237.01,-97.83 243.21,-84.16 247.14,-75.51"/>
<polygon fill="midnightblue" stroke="midnightblue" points="228.81,-107.42 227.87,-117.98 235.19,-110.32 228.81,-107.42"/>
</g>
<!-- Node9&#45;&gt;Node6 -->
<g id="edge12" class="edge">
<title>Node9&#45;&gt;Node6</title>
<path fill="none" stroke="midnightblue" d="M289.32,-53.57C323.46,-43.38 372.66,-28.7 403.45,-19.52"/>
<polygon fill="midnightblue" stroke="midnightblue" points="288.26,-50.23 279.68,-56.44 290.26,-56.94 288.26,-50.23"/>
</g>
<!-- Node10 -->
<g id="node10" class="node">
<title>Node10</title>
<g id="a_node10"><a xlink:href="configuration_8cpp.html" target="_top" xlink:title=" ">
<polygon fill="none" stroke="black" points="129.5,-0.5 129.5,-19.5 326.5,-19.5 326.5,-0.5 129.5,-0.5"/>
<text text-anchor="middle" x="228" y="-7.5" font-family="Helvetica,sans-Serif" font-size="10.00">HealthGPS.Console/configuration.cpp</text>
</a>
</g>
</g>
<!-- Node9&#45;&gt;Node10 -->
<g id="edge11" class="edge">
<title>Node9&#45;&gt;Node10</title>
<path fill="none" stroke="midnightblue" d="M243.2,-46.69C239.32,-37.59 234.82,-27.01 231.73,-19.75"/>
<polygon fill="midnightblue" stroke="midnightblue" points="240.06,-48.25 247.2,-56.08 246.5,-45.51 240.06,-48.25"/>
</g>
<!-- Node13 -->
<g id="node13" class="node">
<title>Node13</title>
<g id="a_node13"><a xlink:href="converter_8cpp.html" target="_top" xlink:title=" ">
<polygon fill="none" stroke="black" points="608.5,-185 608.5,-204 745.5,-204 745.5,-185 608.5,-185"/>
<text text-anchor="middle" x="677" y="-192" font-family="Helvetica,sans-Serif" font-size="10.00">HealthGPS/converter.cpp</text>
</a>
</g>
</g>
<!-- Node12&#45;&gt;Node13 -->
<g id="edge15" class="edge">
<title>Node12&#45;&gt;Node13</title>
<path fill="none" stroke="midnightblue" d="M677.63,-236.25C677.45,-225.02 677.26,-212.38 677.13,-204.19"/>
<polygon fill="midnightblue" stroke="midnightblue" points="674.13,-236.45 677.78,-246.4 681.13,-236.34 674.13,-236.45"/>
</g>
<!-- Node14 -->
<g id="node14" class="node">
<title>Node14</title>
<g id="a_node14"><a xlink:href="default__cancer__model_8cpp.html" target="_top" xlink:title=" ">
<polygon fill="none" stroke="black" points="447.5,-179.5 447.5,-209.5 590.5,-209.5 590.5,-179.5 447.5,-179.5"/>
<text text-anchor="start" x="455.5" y="-197.5" font-family="Helvetica,sans-Serif" font-size="10.00">HealthGPS/default_cancer</text>
<text text-anchor="middle" x="519" y="-186.5" font-family="Helvetica,sans-Serif" font-size="10.00">_model.cpp</text>
</a>
</g>
</g>
<!-- Node12&#45;&gt;Node14 -->
<g id="edge16" class="edge">
<title>Node12&#45;&gt;Node14</title>
<path fill="none" stroke="midnightblue" d="M634.08,-242.54C608.63,-232.14 577.07,-219.24 553.43,-209.58"/>
<polygon fill="midnightblue" stroke="midnightblue" points="632.92,-245.85 643.5,-246.4 635.57,-239.37 632.92,-245.85"/>
</g>
<!-- Node15 -->
<g id="node15" class="node">
<title>Node15</title>
<g id="a_node15"><a xlink:href="disease__registry_8h.html" target="_top" xlink:title=" ">
<polygon fill="none" stroke="black" points="763.5,-185 763.5,-204 922.5,-204 922.5,-185 763.5,-185"/>
<text text-anchor="middle" x="843" y="-192" font-family="Helvetica,sans-Serif" font-size="10.00">HealthGPS/disease_registry.h</text>
</a>
</g>
</g>
<!-- Node12&#45;&gt;Node15 -->
<g id="edge17" class="edge">
<title>Node12&#45;&gt;Node15</title>
<path fill="none" stroke="midnightblue" d="M723.38,-242.62C755.32,-230.04 796.63,-213.77 821.41,-204.01"/>
<polygon fill="midnightblue" stroke="midnightblue" points="721.82,-239.47 713.8,-246.4 724.39,-245.99 721.82,-239.47"/>
</g>
<!-- Node15&#45;&gt;Node16 -->
<g id="edge18" class="edge">
<title>Node15&#45;&gt;Node16</title>
<path fill="none" stroke="midnightblue" d="M870.52,-180.44C897.65,-167.57 938.36,-148.26 961.73,-137.17"/>
<polygon fill="midnightblue" stroke="midnightblue" points="868.73,-177.42 861.19,-184.87 871.73,-183.74 868.73,-177.42"/>
</g>
<!-- Node17&#45;&gt;Node15 -->
<g id="edge21" class="edge">
<title>Node17&#45;&gt;Node15</title>
<path fill="none" stroke="midnightblue" d="M843,-236.25C843,-225.02 843,-212.38 843,-204.19"/>
<polygon fill="midnightblue" stroke="midnightblue" points="839.5,-236.4 843,-246.4 846.5,-236.4 839.5,-236.4"/>
</g>
<!-- Node18 -->
<g id="node18" class="node">
<title>Node18</title>
<g id="a_node18"><a xlink:href="default__disease__model_8cpp.html" target="_top" xlink:title=" ">
<polygon fill="none" stroke="black" points="940.5,-179.5 940.5,-209.5 1089.5,-209.5 1089.5,-179.5 940.5,-179.5"/>
<text text-anchor="start" x="948.5" y="-197.5" font-family="Helvetica,sans-Serif" font-size="10.00">HealthGPS/default_disease</text>
<text text-anchor="middle" x="1015" y="-186.5" font-family="Helvetica,sans-Serif" font-size="10.00">_model.cpp</text>
</a>
</g>
</g>
<!-- Node17&#45;&gt;Node18 -->
<g id="edge20" class="edge">
<title>Node17&#45;&gt;Node18</title>
<path fill="none" stroke="midnightblue" d="M889.79,-242.82C917.43,-232.37 951.96,-219.32 977.75,-209.58"/>
<polygon fill="midnightblue" stroke="midnightblue" points="888.44,-239.59 880.32,-246.4 890.91,-246.13 888.44,-239.59"/>
</g>
</g>
</svg>
