<?xml version="1.0" encoding="UTF-8" standalone="no"?>
<!DOCTYPE svg PUBLIC "-//W3C//DTD SVG 1.1//EN" "http://www.w3.org/Graphics/SVG/1.1/DTD/svg11.dtd">
<!-- Generated by Microsoft Visio, SVG Export model_concept_diagram.svg Page-1 -->
<svg xmlns="http://www.w3.org/2000/svg" xmlns:xlink="http://www.w3.org/1999/xlink" xmlns:ev="http://www.w3.org/2001/xml-events"
		xmlns:v="http://schemas.microsoft.com/visio/2003/SVGExtensions/" width="9.49513in" height="3.03155in"
		viewBox="0 0 683.65 218.272" xml:space="preserve" color-interpolation-filters="sRGB" class="st22">
	<title>Health-GPS Concept Diagrams</title>
	<v:documentProperties v:langID="1033" v:metric="true" v:viewMarkup="false"/>

	<style type="text/css">
	<![CDATA[
		.st1 {fill:#002060;stroke:#002060;stroke-width:1.5}
		.st2 {fill:none;stroke:#595959;stroke-width:0.25}
		.st3 {fill:#e2efd9;stroke:#002060;stroke-width:1.5}
		.st4 {fill:#002060;font-family:Calibri;font-size:0.916672em;font-weight:bold}
		.st5 {font-size:1em}
		.st6 {fill:#c5e0b3;stroke:#002060;stroke-width:1.5}
		.st7 {fill:#deebf6;stroke:#002060;stroke-width:1.5}
		.st8 {fill:#dae2f3;stroke:#002060;stroke-width:1.5}
		.st9 {fill:#fff2cc;stroke:#002060;stroke-width:1.5}
		.st10 {fill:#002060;stroke:#203864;stroke-width:1.5}
		.st11 {fill:#3c63ac;stroke:#002060;stroke-width:1.5}
		.st12 {fill:#feffff;font-family:Cascadia Code;font-size:1.5em;font-weight:bold}
		.st13 {fill:#dae2f3;stroke:#203864;stroke-width:1.5}
		.st14 {fill:none;stroke:none;stroke-width:0.25}
		.st15 {fill:#4672c4;font-family:Calibri;font-size:0.833336em}
		.st16 {fill:#e2efd9;stroke:#203864;stroke-width:1.5}
		.st17 {fill:#c5e0b3;stroke:#203864;stroke-width:1.5}
		.st18 {fill:#fff2cc;stroke:#203864;stroke-width:1.5}
		.st19 {fill:url(#grad0-82);stroke:#386288;stroke-width:0.75}
		.st20 {fill:#bdd0e9;stroke:none;stroke-linecap:butt;stroke-width:0.75}
		.st21 {fill:#9dadc2;stroke:none;stroke-linecap:butt;stroke-width:0.75}
		.st22 {fill:none;fill-rule:evenodd;font-size:12px;overflow:visible;stroke-linecap:square;stroke-miterlimit:3}
	]]>
	</style>

	<defs id="Patterns_And_Gradients">
		<linearGradient id="grad0-82" x1="0" y1="0" x2="1" y2="0" gradientTransform="rotate(60 0.5 0.5)">
			<stop offset="0" stop-color="#e8ebef" stop-opacity="1"/>
			<stop offset="0.24" stop-color="#f4f5f7" stop-opacity="1"/>
			<stop offset="0.54" stop-color="#feffff" stop-opacity="1"/>
		</linearGradient>
	</defs>
	<g v:mID="0" v:index="1" v:groupContext="foregroundPage">
		<title>Page-1</title>
		<v:pageProperties v:drawingScale="0.0393701" v:pageScale="0.0393701" v:drawingUnits="24" v:shadowOffsetX="8.50394"
				v:shadowOffsetY="-8.50394"/>
		<v:layer v:name="Flowchart" v:index="0"/>
		<g id="shape48-1" v:mID="48" v:groupContext="shape" transform="translate(598.525,320.37) rotate(-180)">
			<title>Simple Arrow</title>
			<v:userDefs>
				<v:ud v:nameU="visVersion" v:val="VT0(15):26"/>
				<v:ud v:nameU="ArrowType" v:prompt="" v:val="VT0(2):26"/>
			</v:userDefs>
			<path d="M0 218.27 L12.14 202.88 L12.14 210.58 L25.68 210.58 L25.68 218.27 L25.68 225.97 L12.14 225.97 L12.14 233.66
						 L0 218.27 Z" class="st1"/>
		</g>
		<g id="shape1095-3" v:mID="1095" v:groupContext="shape" transform="translate(504.91,56.5878) rotate(90)">
			<title>Block Arrow.1095</title>
			<v:userDefs>
				<v:ud v:nameU="visVersion" v:prompt="" v:val="VT0(15):26"/>
			</v:userDefs>
			<path d="M0 218.27 L12.88 218.27 L21.4 207.65 L12.88 197.02 L0 197.02 L0 218.27 Z" class="st1"/>
		</g>
		<g id="shape1093-5" v:mID="1093" v:groupContext="shape" transform="translate(345.543,56.5878) rotate(90)">
			<title>Block Arrow.1093</title>
			<v:userDefs>
				<v:ud v:nameU="visVersion" v:prompt="" v:val="VT0(15):26"/>
			</v:userDefs>
			<path d="M0 218.27 L12.88 218.27 L21.4 207.65 L12.88 197.02 L0 197.02 L0 218.27 Z" class="st1"/>
		</g>
		<g id="shape1094-7" v:mID="1094" v:groupContext="shape" transform="translate(425.226,56.5878) rotate(90)">
			<title>Block Arrow.1094</title>
			<v:userDefs>
				<v:ud v:nameU="visVersion" v:prompt="" v:val="VT0(15):26"/>
			</v:userDefs>
			<path d="M0 218.27 L12.88 218.27 L21.4 207.65 L12.88 197.02 L0 197.02 L0 218.27 Z" class="st1"/>
		</g>
		<g id="shape1098-9" v:mID="1098" v:groupContext="shape" transform="translate(743.959,56.5878) rotate(90)">
			<title>Block Arrow.1098</title>
			<v:userDefs>
				<v:ud v:nameU="visVersion" v:prompt="" v:val="VT0(15):26"/>
			</v:userDefs>
			<path d="M0 218.27 L12.88 218.27 L21.4 207.65 L12.88 197.02 L0 197.02 L0 218.27 Z" class="st1"/>
		</g>
		<g id="shape1096-11" v:mID="1096" v:groupContext="shape" transform="translate(584.593,56.5878) rotate(90)">
			<title>Block Arrow.1096</title>
			<v:userDefs>
				<v:ud v:nameU="visVersion" v:prompt="" v:val="VT0(15):26"/>
			</v:userDefs>
			<path d="M0 218.27 L12.88 218.27 L21.4 207.65 L12.88 197.02 L0 197.02 L0 218.27 Z" class="st1"/>
		</g>
		<g id="shape1097-13" v:mID="1097" v:groupContext="shape" transform="translate(664.276,56.5878) rotate(90)">
			<title>Block Arrow.1097</title>
			<v:userDefs>
				<v:ud v:nameU="visVersion" v:prompt="" v:val="VT0(15):26"/>
			</v:userDefs>
			<path d="M0 218.27 L12.88 218.27 L21.4 207.65 L12.88 197.02 L0 197.02 L0 218.27 Z" class="st1"/>
		</g>
		<g id="shape1092-15" v:mID="1092" v:groupContext="shape" transform="translate(0.25,-0.25)">
			<title>Sheet.1092</title>
			<rect x="0" y="0.499992" width="683.15" height="217.772" class="st2"/>
		</g>
		<g id="shape74-17" v:mID="74" v:groupContext="shape" transform="translate(102.627,320.37) rotate(-180)">
			<title>Simple Arrow.74</title>
			<v:userDefs>
				<v:ud v:nameU="visVersion" v:val="VT0(15):26"/>
				<v:ud v:nameU="ArrowType" v:prompt="" v:val="VT0(2):26"/>
			</v:userDefs>
			<path d="M0 218.27 L12.14 202.88 L12.14 210.58 L27.51 210.58 L27.51 218.27 L27.51 225.97 L12.14 225.97 L12.14 233.66
						 L0 218.27 Z" class="st1"/>
		</g>
		<g id="shape6-19" v:mID="6" v:groupContext="shape" v:layerMember="0" transform="translate(10.1635,-92.4835)">
			<title>Message from user</title>
			<desc>Input Data</desc>
			<v:custProps>
				<v:cp v:nameU="Cost" v:lbl="Cost" v:type="7" v:format="@" v:langID="1033"/>
				<v:cp v:nameU="Duration" v:lbl="Duration" v:type="2" v:langID="1033"/>
				<v:cp v:nameU="Resources" v:lbl="Resources" v:langID="1033"/>
			</v:custProps>
			<v:userDefs>
				<v:ud v:nameU="visVersion" v:val="VT0(15):26"/>
			</v:userDefs>
			<v:textBlock v:margins="rect(2,2,2,2)" v:tabSpace="42.5197"/>
			<v:textRect cx="32.4758" cy="194.582" width="64.96" height="47.3791"/>
			<path d="M0 218.27 L70.87 218.27 L64.95 194.58 L70.87 170.89 L0 170.89 L0 218.27 Z" class="st3"/>
			<text x="20.25" y="191.28" class="st4" v:langID="2057"><v:paragraph v:horizAlign="1"/><v:tabList/>Input<v:newlineChar/><tspan
						x="21.67" dy="1.2em" class="st5">Data</tspan></text>		</g>
		<g id="shape7-23" v:mID="7" v:groupContext="shape" v:layerMember="0" transform="translate(598.525,-92.4835)">
			<title>Message to user</title>
			<desc>Output Data</desc>
			<v:custProps>
				<v:cp v:nameU="Cost" v:lbl="Cost" v:type="7" v:format="@" v:langID="1033"/>
				<v:cp v:nameU="Duration" v:lbl="Duration" v:type="2" v:langID="1033"/>
				<v:cp v:nameU="Resources" v:lbl="Resources" v:langID="1033"/>
			</v:custProps>
			<v:userDefs>
				<v:ud v:nameU="Scale" v:val="VT0(1):26"/>
				<v:ud v:nameU="visVersion" v:val="VT0(15):26"/>
			</v:userDefs>
			<v:textBlock v:margins="rect(2,2,2,2)" v:tabSpace="42.5197"/>
			<v:textRect cx="35.2683" cy="194.582" width="53.53" height="47.3791"/>
			<path d="M5.92 218.27 L70.54 218.27 L70.54 170.89 L5.92 170.89 L0 194.58 L5.92 218.27 Z" class="st6"/>
			<text x="18.88" y="191.28" class="st4" v:langID="2057"><v:paragraph v:horizAlign="1"/><v:tabList/>Output<v:newlineChar/><tspan
						x="24.46" dy="1.2em" class="st5">Data</tspan></text>		</g>
		<g id="shape10-27" v:mID="10" v:groupContext="shape" transform="translate(102.627,-160.515)">
			<title>Rectangle.10</title>
			<desc>Demographic Module</desc>
			<v:userDefs>
				<v:ud v:nameU="visVersion" v:val="VT0(15):26"/>
				<v:ud v:nameU="visMasterStencil" v:prompt="" v:val="VT4(Basic_M.vssx)"/>
			</v:userDefs>
			<v:textBlock v:margins="rect(4,4,4,4)" v:tabSpace="42.5197"/>
			<v:textRect cx="35.2683" cy="194.582" width="70.54" height="47.3791"/>
			<rect x="0" y="170.893" width="70.5365" height="47.3791" class="st7"/>
			<text x="4.77" y="191.28" class="st4" v:langID="2057"><v:paragraph v:horizAlign="1"/><v:tabList/>Demographic<v:newlineChar/><tspan
						x="17.48" dy="1.2em" class="st5">Module</tspan></text>		</g>
		<g id="shape11-31" v:mID="11" v:groupContext="shape" transform="translate(182.31,-160.515)">
			<title>Rectangle.11</title>
			<desc>SES Module</desc>
			<v:userDefs>
				<v:ud v:nameU="visVersion" v:val="VT0(15):26"/>
				<v:ud v:nameU="visMasterStencil" v:prompt="" v:val="VT4(Basic_M.vssx)"/>
			</v:userDefs>
			<v:textBlock v:margins="rect(4,4,4,4)" v:tabSpace="42.5197"/>
			<v:textRect cx="35.2683" cy="194.582" width="70.54" height="47.3791"/>
			<rect x="0" y="170.893" width="70.5365" height="47.3791" class="st8"/>
			<text x="27.39" y="191.28" class="st4" v:langID="2057"><v:paragraph v:horizAlign="1"/><v:tabList/>SES<v:newlineChar/><tspan
						x="17.48" dy="1.2em" class="st5">Module</tspan></text>		</g>
		<g id="shape12-35" v:mID="12" v:groupContext="shape" transform="translate(261.993,-161.11)">
			<title>Rectangle.12</title>
			<desc>Risk Factor Module</desc>
			<v:userDefs>
				<v:ud v:nameU="visVersion" v:val="VT0(15):26"/>
				<v:ud v:nameU="visMasterStencil" v:prompt="" v:val="VT4(Basic_M.vssx)"/>
			</v:userDefs>
			<v:textBlock v:margins="rect(4,4,4,4)" v:tabSpace="42.5197"/>
			<v:textRect cx="35.2683" cy="194.582" width="70.54" height="47.3791"/>
			<rect x="0" y="170.893" width="70.5365" height="47.3791" class="st8"/>
			<text x="10.38" y="191.28" class="st4" v:langID="2057"><v:paragraph v:horizAlign="1"/><v:tabList/>Risk Factor<v:newlineChar/><tspan
						x="17.48" dy="1.2em" class="st5">Module</tspan></text>		</g>
		<g id="shape44-39" v:mID="44" v:groupContext="shape" transform="translate(598.36,-13.1134)">
			<title>Rectangle.44</title>
			<desc>Verification and Validation</desc>
			<v:userDefs>
				<v:ud v:nameU="visVersion" v:val="VT0(15):26"/>
				<v:ud v:nameU="visMasterStencil" v:prompt="" v:val="VT4(Basic_M.vssx)"/>
			</v:userDefs>
			<v:textBlock v:margins="rect(4,4,4,4)" v:tabSpace="42.5197"/>
			<v:textRect cx="35.437" cy="194.582" width="70.88" height="47.3791"/>
			<rect x="0" y="170.893" width="70.8739" height="47.3791" class="st9"/>
			<text x="8.84" y="184.68" class="st4" v:langID="2057"><v:paragraph v:horizAlign="1"/><v:tabList/>Verification<v:newlineChar/><tspan
						x="26.82" dy="1.2em" class="st5">and<v:newlineChar/></tspan><tspan x="11.94" dy="1.2em" class="st5">Validation</tspan></text>		</g>
		<g id="shape90-44" v:mID="90" v:groupContext="shape" transform="translate(415.526,157.806) rotate(-90.007)">
			<title>Simple Arrow.90</title>
			<v:userDefs>
				<v:ud v:nameU="visVersion" v:val="VT0(15):26"/>
				<v:ud v:nameU="ArrowType" v:prompt="" v:val="VT0(2):26"/>
			</v:userDefs>
			<path d="M0 218.27 L12.14 202.88 L12.14 210.58 L31.99 210.58 L31.99 218.27 L31.99 225.97 L12.14 225.97 L12.14 233.66
						 L0 218.27 Z" class="st10"/>
		</g>
		<g id="shape1-46" v:mID="1" v:groupContext="shape" transform="translate(102.627,-92.4835)">
			<title>Rectangle</title>
			<desc>Health-GPS Microsimulation</desc>
			<v:userDefs>
				<v:ud v:nameU="visVersion" v:val="VT0(15):26"/>
				<v:ud v:nameU="visMasterStencil" v:prompt="" v:val="VT4(Basic_M.vssx)"/>
			</v:userDefs>
			<v:textBlock v:margins="rect(4,4,4,4)" v:tabSpace="42.5197"/>
			<v:textRect cx="235.111" cy="194.582" width="470.23" height="47.3791"/>
			<rect x="0" y="170.893" width="470.222" height="47.3791" class="st11"/>
			<text x="98" y="199.98" class="st12" v:langID="2057"><v:paragraph v:horizAlign="1"/><v:tabList/>Health-GPS Microsimulation</text>		</g>
		<g id="shape95-49" v:mID="95" v:groupContext="shape" transform="translate(103.446,-41.3772)">
			<title>Rectangle.95</title>
			<v:userDefs>
				<v:ud v:nameU="visVersion" v:val="VT0(15):26"/>
				<v:ud v:nameU="visMasterStencil" v:prompt="" v:val="VT4(Basic_M.vssx)"/>
			</v:userDefs>
			<rect x="0" y="199.156" width="21.2473" height="19.1152" class="st13"/>
		</g>
		<g id="shape96-51" v:mID="96" v:groupContext="shape" transform="translate(123.826,-41.3772)">
			<title>Sheet.96</title>
			<desc>External user datasets</desc>
			<v:textBlock v:margins="rect(4,4,4,4)" v:tabSpace="42.5197"/>
			<v:textRect cx="53.0152" cy="208.714" width="106.04" height="19.1152"/>
			<rect x="0" y="199.156" width="106.03" height="19.1152" class="st14"/>
			<text x="4" y="211.71" class="st15" v:langID="2057"><v:paragraph/><v:tabList/>External user datasets</text>		</g>
		<g id="shape97-54" v:mID="97" v:groupContext="shape" transform="translate(103.446,-13.1134)">
			<title>Rectangle.97</title>
			<v:userDefs>
				<v:ud v:nameU="visVersion" v:val="VT0(15):26"/>
				<v:ud v:nameU="visMasterStencil" v:prompt="" v:val="VT4(Basic_M.vssx)"/>
			</v:userDefs>
			<rect x="0" y="199.156" width="21.2473" height="19.1152" class="st7"/>
		</g>
		<g id="shape98-56" v:mID="98" v:groupContext="shape" transform="translate(123.826,-13.1134)">
			<title>Sheet.98</title>
			<desc>Backend store datasets</desc>
			<v:textBlock v:margins="rect(4,4,4,4)" v:tabSpace="42.5197"/>
			<v:textRect cx="53.0152" cy="208.272" width="106.04" height="20"/>
			<rect x="0" y="198.272" width="106.03" height="20" class="st14"/>
			<text x="4" y="211.27" class="st15" v:langID="2057"><v:paragraph/><v:tabList/>Backend store datasets</text>		</g>
		<g id="shape99-59" v:mID="99" v:groupContext="shape" transform="translate(247.531,-41.3772)">
			<title>Rectangle.99</title>
			<v:userDefs>
				<v:ud v:nameU="visVersion" v:val="VT0(15):26"/>
				<v:ud v:nameU="visMasterStencil" v:prompt="" v:val="VT4(Basic_M.vssx)"/>
			</v:userDefs>
			<rect x="0" y="199.156" width="21.2473" height="19.1152" class="st16"/>
		</g>
		<g id="shape100-61" v:mID="100" v:groupContext="shape" transform="translate(270.959,-41.3772)">
			<title>Sheet.100</title>
			<desc>Configuration / input datasets</desc>
			<v:textBlock v:margins="rect(4,4,4,4)" v:tabSpace="42.5197"/>
			<v:textRect cx="67.3228" cy="208.714" width="134.65" height="19.1152"/>
			<rect x="0" y="199.156" width="134.646" height="19.1152" class="st14"/>
			<text x="4" y="211.71" class="st15" v:langID="2057"><v:paragraph/><v:tabList/>Configuration / input datasets</text>		</g>
		<g id="shape101-64" v:mID="101" v:groupContext="shape" transform="translate(248.398,-13.1134)">
			<title>Rectangle.101</title>
			<v:userDefs>
				<v:ud v:nameU="visVersion" v:val="VT0(15):26"/>
				<v:ud v:nameU="visMasterStencil" v:prompt="" v:val="VT4(Basic_M.vssx)"/>
			</v:userDefs>
			<rect x="0" y="199.156" width="21.2473" height="19.1152" class="st17"/>
		</g>
		<g id="shape102-66" v:mID="102" v:groupContext="shape" transform="translate(270.959,-13.1134)">
			<title>Sheet.102</title>
			<desc>Output datasets</desc>
			<v:textBlock v:margins="rect(4,4,4,4)" v:tabSpace="42.5197"/>
			<v:textRect cx="67.3228" cy="208.714" width="134.65" height="19.1152"/>
			<rect x="0" y="199.156" width="134.646" height="19.1152" class="st14"/>
			<text x="4" y="211.71" class="st15" v:langID="2057"><v:paragraph/><v:tabList/>Output datasets</text>		</g>
		<g id="shape103-69" v:mID="103" v:groupContext="shape" transform="translate(432.265,-41.3772)">
			<title>Rectangle.103</title>
			<v:userDefs>
				<v:ud v:nameU="visVersion" v:val="VT0(15):26"/>
				<v:ud v:nameU="visMasterStencil" v:prompt="" v:val="VT4(Basic_M.vssx)"/>
			</v:userDefs>
			<rect x="0" y="199.156" width="21.2473" height="19.1152" class="st11"/>
		</g>
		<g id="shape104-71" v:mID="104" v:groupContext="shape" transform="translate(455.261,-41.3772)">
			<title>Sheet.104</title>
			<desc>Software program</desc>
			<v:textBlock v:margins="rect(4,4,4,4)" v:tabSpace="42.5197"/>
			<v:textRect cx="48.8723" cy="208.714" width="97.75" height="19.1152"/>
			<rect x="0" y="199.156" width="97.7445" height="19.1152" class="st14"/>
			<text x="4" y="211.71" class="st15" v:langID="2057"><v:paragraph/><v:tabList/>Software program</text>		</g>
		<g id="shape105-74" v:mID="105" v:groupContext="shape" transform="translate(432.265,-13.1134)">
			<title>Rectangle.105</title>
			<v:userDefs>
				<v:ud v:nameU="visVersion" v:val="VT0(15):26"/>
				<v:ud v:nameU="visMasterStencil" v:prompt="" v:val="VT4(Basic_M.vssx)"/>
			</v:userDefs>
			<rect x="0" y="199.156" width="21.2473" height="19.1152" class="st18"/>
		</g>
		<g id="shape106-76" v:mID="106" v:groupContext="shape" transform="translate(455.261,-13.1134)">
			<title>Sheet.106</title>
			<desc>Conclusions</desc>
			<v:textBlock v:margins="rect(4,4,4,4)" v:tabSpace="42.5197"/>
			<v:textRect cx="48.8723" cy="208.714" width="97.75" height="19.1152"/>
			<rect x="0" y="199.156" width="97.7445" height="19.1152" class="st14"/>
			<text x="4" y="211.71" class="st15" v:langID="2057"><v:paragraph/><v:tabList/>Conclusions</text>		</g>
		<g id="shape113-79" v:mID="113" v:groupContext="shape" transform="translate(37.9977,-145.845)">
			<title>Actor.113</title>
			<v:userDefs>
				<v:ud v:nameU="visVersion" v:prompt="" v:val="VT0(15):26"/>
			</v:userDefs>
			<path d="M3.04 218.27 L3.04 202.43 L3.04 208.77 L0 208.77 L0 196.1 L1.52 194.51 L13.68 194.51 L15.21 196.1 L15.21 208.77
						 L12.16 208.77 L12.16 202.43 L12.16 218.27 L7.6 218.27 L7.6 205.6 L7.6 218.27 L3.04 218.27 ZM10.77 189.76
						 A3.1678 3.1678 -180 1 0 4.43 189.76 A3.1678 3.1678 -180 1 0 10.77 189.76 Z" class="st19"/>
		</g>
		<g id="shape114-83" v:mID="114" v:groupContext="shape" transform="translate(626.363,-145.845)">
			<title>Actor.114</title>
			<v:userDefs>
				<v:ud v:nameU="visVersion" v:prompt="" v:val="VT0(15):26"/>
			</v:userDefs>
			<path d="M3.04 218.27 L3.04 202.43 L3.04 208.77 L0 208.77 L0 196.1 L1.52 194.51 L13.68 194.51 L15.21 196.1 L15.21 208.77
						 L12.16 208.77 L12.16 202.43 L12.16 218.27 L7.6 218.27 L7.6 205.6 L7.6 218.27 L3.04 218.27 ZM10.77 189.76
						 A3.1678 3.1678 -180 1 0 4.43 189.76 A3.1678 3.1678 -180 1 0 10.77 189.76 Z" class="st19"/>
		</g>
		<g id="shape121-86" v:mID="121" v:groupContext="shape" transform="translate(501.043,-161.11)">
			<title>Rectangle.121</title>
			<desc>Intervention Scenario</desc>
			<v:userDefs>
				<v:ud v:nameU="visVersion" v:val="VT0(15):26"/>
				<v:ud v:nameU="visMasterStencil" v:prompt="" v:val="VT4(Basic_M.vssx)"/>
			</v:userDefs>
			<v:textBlock v:margins="rect(4,4,4,4)" v:tabSpace="42.5197"/>
			<v:textRect cx="35.2683" cy="194.582" width="70.54" height="47.3791"/>
			<rect x="0" y="170.893" width="70.5365" height="47.3791" class="st8"/>
			<text x="6.73" y="191.28" class="st4" v:langID="2057"><v:paragraph v:horizAlign="1"/><v:tabList/>Intervention<v:newlineChar/><tspan
						x="15.67" dy="1.2em" class="st5">Scenario</tspan></text>		</g>
		<g id="shape1041-90" v:mID="1041" v:groupContext="shape" transform="translate(124.036,-103.931)">
			<title>Configure.1041</title>
			<v:userDefs>
				<v:ud v:nameU="msvShapeCategories" v:prompt="" v:val="VT4(Icon)"/>
				<v:ud v:nameU="visVersion" v:prompt="" v:val="VT0(15):26"/>
			</v:userDefs>
			<path d="M22.46 209.15 C21.98 208.95 20.46 208.31 20.46 208.31 L20.56 207.05 L20.64 205.99 L20.51 203.96 L21.51 203.39
						 C21.51 203.39 22.01 203.18 22.49 202.98 C22.15 202.15 22.01 201.81 21.67 200.98 C21.19 201.18 19.62 201.82
						 19.62 201.82 L18.84 200.85 C18.47 200.38 18 199.94 17.42 199.48 L16.5 198.77 L16.87 197.64 C16.87 197.64
						 17.09 197.11 17.3 196.61 C16.47 196.27 16.13 196.13 15.3 195.79 C15.08 196.31 14.43 197.91 14.43 197.91
						 L13.21 197.79 C12.59 197.73 11.95 197.74 11.3 197.83 L10.14 197.99 L9.6 196.92 C9.6 196.92 9.36 196.36 9.13
						 195.81 C8.31 196.16 7.97 196.3 7.14 196.65 C7.39 197.23 8.08 198.87 8.08 198.87 L7.14 199.65 C6.69 200.02
						 6.28 200.46 5.87 201 L5.16 201.92 L4.03 201.55 C4.03 201.55 3.42 201.3 2.81 201.06 C2.48 201.89 2.34 202.24
						 2.01 203.07 C2.62 203.32 4.26 203.97 4.26 203.97 C4.26 203.97 4.16 205.83 4.15 205.98 C4.16 206.12 4.19
						 206.53 4.19 206.54 C4.19 206.54 4.28 207.53 4.28 207.53 L3.69 208.06 C3.51 208.24 3.45 208.29 1.98 208.87
						 C2.31 209.7 2.44 210.05 2.77 210.88 C3.38 210.65 5.09 209.98 5.09 209.98 L5.98 211.19 C6.25 211.53 6.63
						 211.91 7.09 212.3 L7.96 213.03 L7.58 214.12 C7.58 214.12 7.32 214.73 7.05 215.34 C7.88 215.69 8.21 215.84
						 9.04 216.2 C9.28 215.63 9.99 213.99 9.99 213.99 L11.23 214.16 C11.82 214.24 12.45 214.26 13.11 214.2 L14.24
						 214.1 L14.75 215.15 C14.75 215.15 14.98 215.72 15.2 216.28 C16.03 215.95 16.38 215.81 17.21 215.48 C17 214.96
						 16.34 213.32 16.34 213.32 L17.59 212.42 C17.94 212.13 18.34 211.73 18.76 211.22 L19.48 210.34 L20.59 210.71
						 C20.59 210.71 21.12 210.94 21.62 211.15 C21.96 210.32 22.11 209.98 22.46 209.15 ZM22.08 207.24 C22.08 207.24
						 22.07 207.29 22.07 207.33 C22.28 207.42 24.46 208.34 24.46 208.34 L22.43 213.15 C22.43 213.15 20.2 212.21
						 19.99 212.12 C19.97 212.15 19.94 212.19 19.94 212.19 C19.46 212.78 18.98 213.26 18.48 213.66 C18.48 213.66
						 18.32 213.78 18.21 213.86 C18.29 214.08 19.2 216.33 19.2 216.33 L14.35 218.27 C14.35 218.27 13.41 215.93
						 13.33 215.72 C13.29 215.72 13.24 215.72 13.24 215.72 C12.47 215.79 11.72 215.78 11.02 215.68 C11.02 215.68
						 10.97 215.67 10.93 215.66 C10.84 215.88 9.83 218.21 9.83 218.21 L5.04 216.14 C5.04 216.14 6.08 213.73 6.17
						 213.52 C6.14 213.5 6.11 213.47 6.11 213.47 C5.56 213.01 5.12 212.56 4.74 212.09 C4.74 212.09 4.63 211.94
						 4.55 211.83 C4.33 211.92 1.9 212.87 1.9 212.87 L0 208 C0 208 2.61 206.98 2.61 206.98 C2.61 206.98 2.65 206.96
						 2.69 206.95 C2.68 206.82 2.66 206.64 2.66 206.64 L2.62 205.99 C2.62 205.99 2.66 205.18 2.67 204.99 C2.47
						 204.9 0.02 203.92 0.02 203.92 L1.96 199.07 C1.96 199.07 4.39 200.04 4.6 200.13 C4.63 200.1 4.66 200.06 4.66
						 200.06 C5.13 199.44 5.63 198.92 6.16 198.48 C6.16 198.48 6.2 198.45 6.23 198.42 C6.14 198.21 5.14 195.84
						 5.14 195.84 L9.95 193.81 C9.95 193.81 10.92 196.11 11.01 196.32 C11.05 196.32 11.1 196.31 11.1 196.31 C11.86
						 196.21 12.62 196.2 13.36 196.27 C13.36 196.27 13.4 196.27 13.44 196.28 C13.53 196.07 14.46 193.79 14.46
						 193.79 L19.29 195.77 C19.29 195.77 18.38 198.01 18.29 198.22 C18.32 198.25 18.36 198.28 18.36 198.28 C19.04
						 198.8 19.58 199.33 20.03 199.89 C20.03 199.89 20.06 199.93 20.1 199.97 C20.31 199.89 22.5 198.98 22.5 198.98
						 L24.48 203.82 C24.48 203.82 22.3 204.71 22.09 204.8 C22.09 204.84 22.1 204.88 22.1 204.88 C22.15 205.31
						 22.17 205.66 22.17 205.99 C22.17 206.36 22.14 206.76 22.08 207.24 ZM14.45 208.57 C15.87 207.44 16.1 205.37
						 14.96 203.95 C13.83 202.53 11.76 202.3 10.34 203.43 C8.93 204.57 8.7 206.64 9.83 208.05 C10.96 209.47 13.03
						 209.7 14.45 208.57 ZM12.93 201.21 C14.21 201.35 15.35 201.99 16.16 202.99 C17.82 205.07 17.48 208.11 15.4
						 209.76 C14.4 210.57 13.14 210.93 11.86 210.79 C10.58 210.65 9.44 210.02 8.63 209.01 C7.93 208.12 7.58 207.06
						 7.58 206.01 C7.58 204.59 8.2 203.19 9.39 202.24 C10.39 201.43 11.65 201.07 12.93 201.21 Z" class="st20"/>
		</g>
		<g id="shape1086-92" v:mID="1086" v:groupContext="shape" transform="translate(77.2215,-189.808)">
			<title>Users.1086</title>
			<v:userDefs>
				<v:ud v:nameU="msvShapeCategories" v:prompt="" v:val="VT4(Icon)"/>
				<v:ud v:nameU="visVersion" v:prompt="" v:val="VT0(15):26"/>
			</v:userDefs>
			<path d="M16.81 205.39 A2.45467 2.49394 -180 0 0 19.26 202.89 A2.45467 2.49394 -180 0 0 16.81 200.4 A2.45559 2.49488
						 -180 0 0 14.35 202.89 A2.45605 2.49535 -180 0 0 16.81 205.39 ZM16.81 199.16 A3.67871 3.73757 0 0 1 20.49
						 202.89 A3.67871 3.73757 0 0 1 16.81 206.63 A3.67856 3.73742 0 0 1 13.13 202.89 A3.67856 3.73742 0 0 1 16.81
						 199.16 ZM6.14 216.83 A4.28693 4.35552 -180 0 0 11.05 214.34 A5.39303 5.47931 -180 0 0 8.69 209.51 A18040.5
						 18329.2 -180 0 0 6.14 214.6 A9164.73 9311.37 0 0 1 3.6 209.51 A5.39362 5.47992 -180 0 0 1.24 214.34 A4.28644
						 4.35503 -180 0 0 6.14 216.83 ZM8.57 207.97 A6.46352 6.56693 0 0 1 12.28 214.34 A4.89835 4.97673 0 0 1 6.14
						 218.08 A4.89795 4.97632 0 0 1 0.01 214.34 A6.46624 6.5697 0 0 1 3.72 207.97 A4.40297 4.47342 -180 0 0 4.39
						 208.35 L6.14 211.85 L7.9 208.35 A4.33568 4.40505 -180 0 0 8.57 207.97 ZM19.23 206.49 A6.46352 6.56693 0
						 0 1 22.94 212.86 A4.89835 4.97673 0 0 1 16.81 216.6 A9.76426 9.92048 0 0 1 12.7 215.84 A3.72224 3.78179
						 -180 0 0 12.98 214.58 A8.45173 8.58696 -180 0 0 16.81 215.35 A4.28693 4.35552 -180 0 0 21.71 212.86 A5.39174
						 5.47801 -180 0 0 19.36 208.02 A11537.6 11722.2 -180 0 0 16.81 213.12 A12841 13046.5 0 0 1 14.26 208.02 A4.88739
						 4.96559 -180 0 0 12.24 210.7 A6.94134 7.0524 -180 0 0 11.45 209.36 A5.76924 5.86155 0 0 1 14.38 206.49 A4.40297
						 4.47342 -180 0 0 15.05 206.86 L16.81 210.37 L18.56 206.86 A4.33568 4.40505 -180 0 0 19.23 206.49 ZM6.14
						 206.87 A2.45421 2.49348 -180 0 0 8.6 204.38 A2.45467 2.49394 -180 0 0 6.14 201.88 A2.45559 2.49488 -180
						 0 0 3.69 204.38 A2.45605 2.49535 -180 0 0 6.14 206.87 ZM6.14 200.64 A3.67871 3.73757 0 0 1 9.82 204.38 A3.67871
						 3.73757 0 0 1 6.14 208.11 A3.67856 3.73742 0 0 1 2.47 204.38 A3.67856 3.73742 0 0 1 6.14 200.64 Z"
					class="st21"/>
		</g>
		<g id="shape13-94" v:mID="13" v:groupContext="shape" transform="translate(341.676,-161.11)">
			<title>Rectangle.13</title>
			<desc>Disease Module</desc>
			<v:userDefs>
				<v:ud v:nameU="visVersion" v:val="VT0(15):26"/>
				<v:ud v:nameU="visMasterStencil" v:prompt="" v:val="VT4(Basic_M.vssx)"/>
			</v:userDefs>
			<v:textBlock v:margins="rect(4,4,4,4)" v:tabSpace="42.5197"/>
			<v:textRect cx="35.2683" cy="194.582" width="70.54" height="47.3791"/>
			<rect x="0" y="170.893" width="70.5365" height="47.3791" class="st7"/>
			<text x="17.81" y="191.28" class="st4" v:langID="2057"><v:paragraph v:horizAlign="1"/><v:tabList/>Disease<v:newlineChar/><tspan
						x="17.48" dy="1.2em" class="st5">Module</tspan></text>		</g>
		<g id="shape14-98" v:mID="14" v:groupContext="shape" transform="translate(421.36,-161.11)">
			<title>Rectangle.14</title>
			<desc>Analysis Module</desc>
			<v:userDefs>
				<v:ud v:nameU="visVersion" v:val="VT0(15):26"/>
				<v:ud v:nameU="visMasterStencil" v:prompt="" v:val="VT4(Basic_M.vssx)"/>
			</v:userDefs>
			<v:textBlock v:margins="rect(4,4,4,4)" v:tabSpace="42.5197"/>
			<v:textRect cx="35.2683" cy="194.582" width="70.54" height="47.3791"/>
			<rect x="0" y="170.893" width="70.5365" height="47.3791" class="st7"/>
			<text x="16.57" y="191.28" class="st4" v:langID="2057"><v:paragraph v:horizAlign="1"/><v:tabList/>Analysis<v:newlineChar/><tspan
						x="17.48" dy="1.2em" class="st5">Module</tspan></text>		</g>
	</g>
</svg>
